<?xml version="1.0" encoding="UTF-8" standalone="no"?>
<!DOCTYPE svg PUBLIC "-//W3C//DTD SVG 1.1//EN"
 "http://www.w3.org/Graphics/SVG/1.1/DTD/svg11.dtd">
<!-- Generated by graphviz version 2.44.0 ()
 -->
<!-- Title: includes/platformer&#45;engine/LevelParser/AbstractLevelParser.hpp Pages: 1 -->
<!--zoomable 229 -->
<svg id="main" version="1.1" xmlns="http://www.w3.org/2000/svg" xmlns:xlink="http://www.w3.org/1999/xlink" xml:space="preserve" onload="init(evt)">
<style type="text/css"><![CDATA[
.edge:hover path { stroke: red; }
.edge:hover polygon { stroke: red; fill: red; }
]]></style>
<script type="text/javascript"><![CDATA[
var edges = document.getElementsByTagName('g');
if (edges && edges.length) {
  for (var i=0;i<edges.length;i++) {
    if (edges[i].id.substr(0,4)=='edge') {
      edges[i].setAttribute('class','edge');
    }
  }
}
]]></script>
        <defs>
                <circle id="rim" cx="0" cy="0" r="7"/>
                <circle id="rim2" cx="0" cy="0" r="3.5"/>
                <g id="zoomPlus">
                        <use xlink:href="#rim" fill="#404040">
                                <set attributeName="fill" to="#808080" begin="zoomplus.mouseover" end="zoomplus.mouseout"/>
                        </use>
                        <path d="M-4,0h8M0,-4v8" fill="none" stroke="white" stroke-width="1.5" pointer-events="none"/>
                </g>
                <g id="zoomMin">
                        <use xlink:href="#rim" fill="#404040">
                                <set attributeName="fill" to="#808080" begin="zoomminus.mouseover" end="zoomminus.mouseout"/>
                        </use>
                        <path d="M-4,0h8" fill="none" stroke="white" stroke-width="1.5" pointer-events="none"/>
                </g>
                <g id="dirArrow">
                        <path fill="none" stroke="white" stroke-width="1.5" d="M0,-3.0v7 M-2.5,-0.5L0,-3.0L2.5,-0.5"/>
                </g>
               <g id="resetDef">
                       <use xlink:href="#rim2" fill="#404040">
                               <set attributeName="fill" to="#808080" begin="reset.mouseover" end="reset.mouseout"/>
                       </use>
               </g>
        </defs>

<script type="text/javascript">
var viewWidth = 595;
var viewHeight = 229;
var sectionId = 'dynsection-0';
</script>
<script xlink:href="svgpan.js"/>
<svg id="graph" class="graph">
<g id="viewport">
<title>includes/platformer&#45;engine/LevelParser/AbstractLevelParser.hpp</title>
<!-- Node1 -->
<g id="node1" class="node">
<title>Node1</title>
<g id="a_node1"><a xlink:title=" ">
<polygon fill="#bfbfbf" stroke="black" points="0.32,-179.5 0.32,-220.5 127.32,-220.5 127.32,-179.5 0.32,-179.5"/>
<text text-anchor="start" x="8.32" y="-208.5" font-family="Helvetica,sans-Serif" font-size="10.00">includes/platformer</text>
<text text-anchor="start" x="8.32" y="-197.5" font-family="Helvetica,sans-Serif" font-size="10.00">&#45;engine/LevelParser</text>
<text text-anchor="middle" x="63.82" y="-186.5" font-family="Helvetica,sans-Serif" font-size="10.00">/AbstractLevelParser.hpp</text>
</a>
</g>
</g>
<!-- Node2 -->
<g id="node2" class="node">
<title>Node2</title>
<g id="a_node2"><a xlink:title=" ">
<polygon fill="none" stroke="#bfbfbf" points="9.32,-6 9.32,-25 60.32,-25 60.32,-6 9.32,-6"/>
<text text-anchor="middle" x="34.82" y="-13" font-family="Helvetica,sans-Serif" font-size="10.00">memory</text>
</a>
</g>
</g>
<!-- Node1&#45;&gt;Node2 -->
<g id="edge1" class="edge">
<title>Node1&#45;&gt;Node2</title>
<path fill="none" stroke="midnightblue" d="M48.81,-179.28C33.54,-157.89 10.88,-122.08 1.82,-87 -0.4,-78.39 -0.71,-75.52 1.82,-67 5.54,-54.52 13.42,-42.26 20.56,-32.94"/>
<polygon fill="midnightblue" stroke="midnightblue" points="23.42,-34.97 27,-25 17.98,-30.56 23.42,-34.97"/>
</g>
<!-- Node3 -->
<g id="node3" class="node">
<title>Node3</title>
<g id="a_node3"><a xlink:title=" ">
<polygon fill="none" stroke="#bfbfbf" points="11.32,-67.5 11.32,-86.5 52.32,-86.5 52.32,-67.5 11.32,-67.5"/>
<text text-anchor="middle" x="31.82" y="-74.5" font-family="Helvetica,sans-Serif" font-size="10.00">string</text>
</a>
</g>
</g>
<!-- Node1&#45;&gt;Node3 -->
<g id="edge2" class="edge">
<title>Node1&#45;&gt;Node3</title>
<path fill="none" stroke="midnightblue" d="M58.61,-179.29C52.55,-156.37 42.63,-118.85 36.71,-96.47"/>
<polygon fill="midnightblue" stroke="midnightblue" points="40.03,-95.35 34.09,-86.57 33.26,-97.14 40.03,-95.35"/>
</g>
<!-- Node4 -->
<g id="node4" class="node">
<title>Node4</title>
<g id="a_node4"><a xlink:title=" ">
<polygon fill="none" stroke="#bfbfbf" points="70.32,-67.5 70.32,-86.5 105.32,-86.5 105.32,-67.5 70.32,-67.5"/>
<text text-anchor="middle" x="87.82" y="-74.5" font-family="Helvetica,sans-Serif" font-size="10.00">map</text>
</a>
</g>
</g>
<!-- Node1&#45;&gt;Node4 -->
<g id="edge3" class="edge">
<title>Node1&#45;&gt;Node4</title>
<path fill="none" stroke="midnightblue" d="M67.73,-179.29C72.28,-156.37 79.72,-118.85 84.16,-96.47"/>
<polygon fill="midnightblue" stroke="midnightblue" points="87.61,-97.06 86.12,-86.57 80.74,-95.7 87.61,-97.06"/>
</g>
<!-- Node5 -->
<g id="node5" class="node">
<title>Node5</title>
<g id="a_node5"><a xlink:href="GameObject_8hpp.html" target="_top" xlink:title=" ">
<polygon fill="none" stroke="black" points="197.32,-123.5 197.32,-142.5 286.32,-142.5 286.32,-123.5 197.32,-123.5"/>
<text text-anchor="middle" x="241.82" y="-130.5" font-family="Helvetica,sans-Serif" font-size="10.00">GameObject.hpp</text>
</a>
</g>
</g>
<!-- Node1&#45;&gt;Node5 -->
<g id="edge4" class="edge">
<title>Node1&#45;&gt;Node5</title>
<path fill="none" stroke="midnightblue" d="M117.23,-179.5C146.88,-168.67 182.85,-155.54 208.5,-146.17"/>
<polygon fill="midnightblue" stroke="midnightblue" points="209.94,-149.37 218.13,-142.65 207.54,-142.8 209.94,-149.37"/>
</g>
<!-- Node5&#45;&gt;Node2 -->
<g id="edge15" class="edge">
<title>Node5&#45;&gt;Node2</title>
<path fill="none" stroke="midnightblue" d="M226.27,-123.32C190.51,-103.37 102.28,-54.14 59.23,-30.12"/>
<polygon fill="midnightblue" stroke="midnightblue" points="60.72,-26.94 50.28,-25.12 57.31,-33.05 60.72,-26.94"/>
</g>
<!-- Node5&#45;&gt;Node3 -->
<g id="edge13" class="edge">
<title>Node5&#45;&gt;Node3</title>
<path fill="none" stroke="midnightblue" d="M204.92,-123.48C170.3,-115.34 116.89,-102.42 62.23,-87.29"/>
<polygon fill="midnightblue" stroke="midnightblue" points="62.95,-83.85 52.38,-84.54 61.07,-90.6 62.95,-83.85"/>
</g>
<!-- Node5&#45;&gt;Node4 -->
<g id="edge16" class="edge">
<title>Node5&#45;&gt;Node4</title>
<path fill="none" stroke="midnightblue" d="M217.42,-123.44C189.5,-113.65 143.91,-97.67 114.91,-87.5"/>
<polygon fill="midnightblue" stroke="midnightblue" points="116,-84.17 105.41,-84.16 113.68,-90.78 116,-84.17"/>
</g>
<!-- Node6 -->
<g id="node6" class="node">
<title>Node6</title>
<g id="a_node6"><a xlink:href="Component_8hpp.html" target="_top" xlink:title=" ">
<polygon fill="none" stroke="black" points="199.82,-67.5 199.82,-86.5 283.82,-86.5 283.82,-67.5 199.82,-67.5"/>
<text text-anchor="middle" x="241.82" y="-74.5" font-family="Helvetica,sans-Serif" font-size="10.00">Component.hpp</text>
</a>
</g>
</g>
<!-- Node5&#45;&gt;Node6 -->
<g id="edge5" class="edge">
<title>Node5&#45;&gt;Node6</title>
<path fill="none" stroke="midnightblue" d="M241.82,-123.08C241.82,-116.01 241.82,-105.86 241.82,-96.99"/>
<polygon fill="midnightblue" stroke="midnightblue" points="245.32,-96.75 241.82,-86.75 238.32,-96.75 245.32,-96.75"/>
</g>
<!-- Node7 -->
<g id="node7" class="node">
<title>Node7</title>
<g id="a_node7"><a xlink:title=" ">
<polygon fill="none" stroke="#bfbfbf" points="78.32,-0.5 78.32,-30.5 173.32,-30.5 173.32,-0.5 78.32,-0.5"/>
<text text-anchor="start" x="86.32" y="-18.5" font-family="Helvetica,sans-Serif" font-size="10.00">boost/serialization</text>
<text text-anchor="middle" x="125.82" y="-7.5" font-family="Helvetica,sans-Serif" font-size="10.00">/access.hpp</text>
</a>
</g>
</g>
<!-- Node5&#45;&gt;Node7 -->
<g id="edge17" class="edge">
<title>Node5&#45;&gt;Node7</title>
<path fill="none" stroke="midnightblue" d="M231.38,-123.34C220.87,-114.49 204.33,-100.21 190.82,-87 174.81,-71.33 157.67,-52.65 145.01,-38.46"/>
<polygon fill="midnightblue" stroke="midnightblue" points="147.37,-35.84 138.12,-30.68 142.13,-40.48 147.37,-35.84"/>
</g>
<!-- Node8 -->
<g id="node8" class="node">
<title>Node8</title>
<g id="a_node8"><a xlink:title=" ">
<polygon fill="none" stroke="#bfbfbf" points="191.32,-0.5 191.32,-30.5 286.32,-30.5 286.32,-0.5 191.32,-0.5"/>
<text text-anchor="start" x="199.32" y="-18.5" font-family="Helvetica,sans-Serif" font-size="10.00">boost/serialization</text>
<text text-anchor="middle" x="238.82" y="-7.5" font-family="Helvetica,sans-Serif" font-size="10.00">/map.hpp</text>
</a>
</g>
</g>
<!-- Node5&#45;&gt;Node8 -->
<g id="edge18" class="edge">
<title>Node5&#45;&gt;Node8</title>
<path fill="none" stroke="midnightblue" d="M257.23,-123.31C275.63,-111.7 302.76,-89.9 292.82,-67 287.75,-55.32 278.5,-45.1 269.07,-36.98"/>
<polygon fill="midnightblue" stroke="midnightblue" points="271.19,-34.19 261.2,-30.65 266.8,-39.64 271.19,-34.19"/>
</g>
<!-- Node9 -->
<g id="node9" class="node">
<title>Node9</title>
<g id="a_node9"><a xlink:title=" ">
<polygon fill="none" stroke="#bfbfbf" points="304.32,-0.5 304.32,-30.5 399.32,-30.5 399.32,-0.5 304.32,-0.5"/>
<text text-anchor="start" x="312.32" y="-18.5" font-family="Helvetica,sans-Serif" font-size="10.00">boost/serialization</text>
<text text-anchor="middle" x="351.82" y="-7.5" font-family="Helvetica,sans-Serif" font-size="10.00">/vector.hpp</text>
</a>
</g>
</g>
<!-- Node5&#45;&gt;Node9 -->
<g id="edge19" class="edge">
<title>Node5&#45;&gt;Node9</title>
<path fill="none" stroke="midnightblue" d="M258.72,-123.37C273.24,-115.37 294.1,-102.39 308.82,-87 322.16,-73.07 333.36,-54.31 340.98,-39.64"/>
<polygon fill="midnightblue" stroke="midnightblue" points="344.11,-41.2 345.45,-30.69 337.85,-38.07 344.11,-41.2"/>
</g>
<!-- Node10 -->
<g id="node10" class="node">
<title>Node10</title>
<g id="a_node10"><a xlink:title=" ">
<polygon fill="none" stroke="#bfbfbf" points="417.32,-0.5 417.32,-30.5 512.32,-30.5 512.32,-0.5 417.32,-0.5"/>
<text text-anchor="start" x="425.32" y="-18.5" font-family="Helvetica,sans-Serif" font-size="10.00">boost/serialization</text>
<text text-anchor="middle" x="464.82" y="-7.5" font-family="Helvetica,sans-Serif" font-size="10.00">/shared_ptr.hpp</text>
</a>
</g>
</g>
<!-- Node5&#45;&gt;Node10 -->
<g id="edge20" class="edge">
<title>Node5&#45;&gt;Node10</title>
<path fill="none" stroke="midnightblue" d="M258.93,-123.46C276.88,-114.46 305.9,-99.86 330.82,-87 364.37,-69.7 402.43,-49.63 429.4,-35.34"/>
<polygon fill="midnightblue" stroke="midnightblue" points="431.25,-38.32 438.45,-30.54 427.97,-32.13 431.25,-38.32"/>
</g>
<!-- Node11 -->
<g id="node11" class="node">
<title>Node11</title>
<g id="a_node11"><a xlink:href="Transform_8hpp.html" target="_top" xlink:title=" ">
<polygon fill="none" stroke="black" points="416.32,-67.5 416.32,-86.5 495.32,-86.5 495.32,-67.5 416.32,-67.5"/>
<text text-anchor="middle" x="455.82" y="-74.5" font-family="Helvetica,sans-Serif" font-size="10.00">Transform.hpp</text>
</a>
</g>
</g>
<!-- Node5&#45;&gt;Node11 -->
<g id="edge11" class="edge">
<title>Node5&#45;&gt;Node11</title>
<path fill="none" stroke="midnightblue" d="M275.73,-123.44C312.67,-114.12 371.88,-99.18 412.24,-89"/>
<polygon fill="midnightblue" stroke="midnightblue" points="413.23,-92.36 422.07,-86.52 411.52,-85.57 413.23,-92.36"/>
</g>
<!-- Node13 -->
<g id="node13" class="node">
<title>Node13</title>
<g id="a_node13"><a xlink:title=" ">
<polygon fill="none" stroke="#bfbfbf" points="512.82,-67.5 512.82,-86.5 556.82,-86.5 556.82,-67.5 512.82,-67.5"/>
<text text-anchor="middle" x="534.82" y="-74.5" font-family="Helvetica,sans-Serif" font-size="10.00">vector</text>
</a>
</g>
</g>
<!-- Node5&#45;&gt;Node13 -->
<g id="edge14" class="edge">
<title>Node5&#45;&gt;Node13</title>
<path fill="none" stroke="midnightblue" d="M286.36,-126.07C336.88,-118.97 421.87,-105.9 502.78,-87.29"/>
<polygon fill="midnightblue" stroke="midnightblue" points="503.68,-90.67 512.63,-84.99 502.09,-83.85 503.68,-90.67"/>
</g>
<!-- Node6&#45;&gt;Node2 -->
<g id="edge6" class="edge">
<title>Node6&#45;&gt;Node2</title>
<path fill="none" stroke="midnightblue" d="M202.17,-67.45C166.78,-59.41 113.76,-46.33 68.82,-31 66.96,-30.36 65.05,-29.67 63.13,-28.94"/>
<polygon fill="midnightblue" stroke="midnightblue" points="64.27,-25.63 53.69,-25.14 61.66,-32.12 64.27,-25.63"/>
</g>
<!-- Node6&#45;&gt;Node7 -->
<g id="edge7" class="edge">
<title>Node6&#45;&gt;Node7</title>
<path fill="none" stroke="midnightblue" d="M225.2,-67.48C208.83,-59.08 183.28,-45.97 162.19,-35.15"/>
<polygon fill="midnightblue" stroke="midnightblue" points="163.66,-31.97 153.16,-30.52 160.46,-38.2 163.66,-31.97"/>
</g>
<!-- Node6&#45;&gt;Node8 -->
<g id="edge8" class="edge">
<title>Node6&#45;&gt;Node8</title>
<path fill="none" stroke="midnightblue" d="M241.39,-67.48C241.04,-60.47 240.52,-50.19 240.04,-40.7"/>
<polygon fill="midnightblue" stroke="midnightblue" points="243.53,-40.33 239.53,-30.52 236.54,-40.69 243.53,-40.33"/>
</g>
<!-- Node6&#45;&gt;Node9 -->
<g id="edge9" class="edge">
<title>Node6&#45;&gt;Node9</title>
<path fill="none" stroke="midnightblue" d="M257.58,-67.48C273.04,-59.12 297.12,-46.09 317.07,-35.3"/>
<polygon fill="midnightblue" stroke="midnightblue" points="318.77,-38.36 325.9,-30.52 315.44,-32.2 318.77,-38.36"/>
</g>
<!-- Node6&#45;&gt;Node10 -->
<g id="edge10" class="edge">
<title>Node6&#45;&gt;Node10</title>
<path fill="none" stroke="midnightblue" d="M273.77,-67.48C308.45,-58.22 364.54,-43.26 407,-31.93"/>
<polygon fill="midnightblue" stroke="midnightblue" points="408.17,-35.24 416.93,-29.28 406.36,-28.48 408.17,-35.24"/>
</g>
<!-- Node12 -->
<g id="node12" class="node">
<title>Node12</title>
<g id="a_node12"><a xlink:href="Point_8hpp.html" target="_top" xlink:title=" ">
<polygon fill="none" stroke="black" points="530.32,-6 530.32,-25 587.32,-25 587.32,-6 530.32,-6"/>
<text text-anchor="middle" x="558.82" y="-13" font-family="Helvetica,sans-Serif" font-size="10.00">Point.hpp</text>
</a>
</g>
</g>
<!-- Node11&#45;&gt;Node12 -->
<g id="edge12" class="edge">
<title>Node11&#45;&gt;Node12</title>
<path fill="none" stroke="midnightblue" d="M470.58,-67.48C487.48,-57.71 515.41,-41.58 535.31,-30.08"/>
<polygon fill="midnightblue" stroke="midnightblue" points="537.19,-33.04 544.09,-25.01 533.68,-26.98 537.19,-33.04"/>
</g>
</g>
</svg>
        <g id="navigator" transform="translate(0 0)" fill="#404254">
                <rect fill="#f2f5e9" fill-opacity="0.5" stroke="#606060" stroke-width=".5" x="0" y="0" width="60" height="60"/>
                <use id="zoomplus" xlink:href="#zoomPlus" x="17" y="9" onmousedown="handleZoom(evt,'in')"/>
                <use id="zoomminus" xlink:href="#zoomMin" x="42" y="9" onmousedown="handleZoom(evt,'out')"/>
                <use id="reset" xlink:href="#resetDef" x="30" y="36" onmousedown="handleReset()"/>
                <g id="arrowUp" xlink:href="#dirArrow" transform="translate(30 24)" onmousedown="handlePan(0,-1)">
                  <use xlink:href="#rim" fill="#404040">
                        <set attributeName="fill" to="#808080" begin="arrowUp.mouseover" end="arrowUp.mouseout"/>
                  </use>
                  <path fill="none" stroke="white" stroke-width="1.5" d="M0,-3.0v7 M-2.5,-0.5L0,-3.0L2.5,-0.5"/>
                </g>
                <g id="arrowRight" xlink:href="#dirArrow" transform="rotate(90) translate(36 -43)" onmousedown="handlePan(1,0)">
                  <use xlink:href="#rim" fill="#404040">
                        <set attributeName="fill" to="#808080" begin="arrowRight.mouseover" end="arrowRight.mouseout"/>
                  </use>
                  <path fill="none" stroke="white" stroke-width="1.5" d="M0,-3.0v7 M-2.5,-0.5L0,-3.0L2.5,-0.5"/>
                </g>
                <g id="arrowDown" xlink:href="#dirArrow" transform="rotate(180) translate(-30 -48)" onmousedown="handlePan(0,1)">
                  <use xlink:href="#rim" fill="#404040">
                        <set attributeName="fill" to="#808080" begin="arrowDown.mouseover" end="arrowDown.mouseout"/>
                  </use>
                  <path fill="none" stroke="white" stroke-width="1.5" d="M0,-3.0v7 M-2.5,-0.5L0,-3.0L2.5,-0.5"/>
                </g>
                <g id="arrowLeft" xlink:href="#dirArrow" transform="rotate(270) translate(-36 17)" onmousedown="handlePan(-1,0)">
                  <use xlink:href="#rim" fill="#404040">
                        <set attributeName="fill" to="#808080" begin="arrowLeft.mouseover" end="arrowLeft.mouseout"/>
                  </use>
                  <path fill="none" stroke="white" stroke-width="1.5" d="M0,-3.0v7 M-2.5,-0.5L0,-3.0L2.5,-0.5"/>
                </g>
        </g>
        <svg viewBox="0 0 15 15" width="100%" height="30px" preserveAspectRatio="xMaxYMin meet">
         <g id="arrow_out" transform="scale(0.3 0.3)">
          <a xlink:href="AbstractLevelParser_8hpp__incl_org.svg" target="_base">
           <rect id="button" ry="5" rx="5" y="6" x="6" height="38" width="38"
                fill="#f2f5e9" fill-opacity="0.5" stroke="#606060" stroke-width="1.0"/>
           <path id="arrow"
             d="M 11.500037,31.436501 C 11.940474,20.09759 22.043105,11.32322 32.158766,21.979434 L 37.068811,17.246167 C 37.068811,17.246167 37.088388,32 37.088388,32 L 22.160133,31.978069 C 22.160133,31.978069 26.997745,27.140456 26.997745,27.140456 C 18.528582,18.264221 13.291696,25.230495 11.500037,31.436501 z"
             style="fill:#404040;"/>
          </a>
         </g>
        </svg>
</svg>
