<svg xmlns="http://www.w3.org/2000/svg" xmlns:xlink="http://www.w3.org/1999/xlink" width="322pt" height="173pt" viewBox="0 0 321.5 173"><g id="graph0" class="graph" transform="scale(1 1) rotate(0) translate(4 169)"><title>includes/platformer-engine/LevelParser/AbstractLevelParser.hpp</title><g id="node1" class="node"><title>Node1</title><g id="a_node1"><a><polygon fill="#bfbfbf" stroke="#000" points="87.5 -123.5 87.5 -164.5 214.5 -164.5 214.5 -123.5 87.5 -123.5"/><text x="95.5" y="-152.5" font-family="Helvetica,sans-Serif" font-size="10" text-anchor="start">includes/platformer</text><text x="95.5" y="-141.5" font-family="Helvetica,sans-Serif" font-size="10" text-anchor="start">-engine/LevelParser</text><text x="151" y="-130.5" font-family="Helvetica,sans-Serif" font-size="10" text-anchor="middle">/AbstractLevelParser.hpp</text></a></g></g><g id="node2" class="node"><title>Node2</title><g id="a_node2"><a target="_top" xlink:href="TMXParser_8hpp.html"><polygon fill="none" stroke="#000" points="74 -56.5 74 -86.5 228 -86.5 228 -56.5 74 -56.5"/><text x="82" y="-74.5" font-family="Helvetica,sans-Serif" font-size="10" text-anchor="start">includes/platformer</text><text x="151" y="-63.5" font-family="Helvetica,sans-Serif" font-size="10" text-anchor="middle">-engine/Facade/TMXParser.hpp</text></a></g></g><g id="edge1" class="edge"><title>Node1-&gt;Node2</title><path fill="none" stroke="#191970" d="M151,-113.08C151,-104.01 151,-94.45 151,-86.89"/><polygon fill="#191970" stroke="#191970" points="147.5 -113.36 151 -123.36 154.5 -113.36 147.5 -113.36"/></g><g id="node3" class="node"><title>Node3</title><g id="a_node3"><a target="_top" xlink:href="TMXParser_8cpp.html"><polygon fill="none" stroke="#000" points="0 -.5 0 -19.5 136 -19.5 136 -.5 0 -.5"/><text x="68" y="-7.5" font-family="Helvetica,sans-Serif" font-size="10" text-anchor="middle">src/Facade/TMXParser.cpp</text></a></g></g><g id="edge2" class="edge"><title>Node2-&gt;Node3</title><path fill="none" stroke="#191970" d="M123.08,-50.48C108.46,-40 91.31,-27.71 80.08,-19.66"/><polygon fill="#191970" stroke="#191970" points="121.16 -53.42 131.33 -56.4 125.24 -47.73 121.16 -53.42"/></g><g id="node4" class="node"><title>Node4</title><g id="a_node4"><a target="_top" xlink:href="LevelParser_8cpp.html"><polygon fill="none" stroke="#000" points="154.5 -.5 154.5 -19.5 313.5 -19.5 313.5 -.5 154.5 -.5"/><text x="234" y="-7.5" font-family="Helvetica,sans-Serif" font-size="10" text-anchor="middle">src/LevelParser/LevelParser.cpp</text></a></g></g><g id="edge3" class="edge"><title>Node2-&gt;Node4</title><path fill="none" stroke="#191970" d="M178.92,-50.48C193.54,-40 210.69,-27.71 221.92,-19.66"/><polygon fill="#191970" stroke="#191970" points="176.76 -47.73 170.67 -56.4 180.84 -53.42 176.76 -47.73"/></g></g></svg>