<?xml version="1.0" encoding="UTF-8" standalone="no"?>
<!DOCTYPE svg PUBLIC "-//W3C//DTD SVG 1.1//EN"
 "http://www.w3.org/Graphics/SVG/1.1/DTD/svg11.dtd">
<!-- Generated by graphviz version 2.44.0 ()
 -->
<!-- Title: includes/spic&#45;prj&#45;api/Animator.hpp Pages: 1 -->
<svg width="1293pt" height="431pt"
 viewBox="0.00 0.00 1293.00 431.00" xmlns="http://www.w3.org/2000/svg" xmlns:xlink="http://www.w3.org/1999/xlink">
<g id="graph0" class="graph" transform="scale(1 1) rotate(0) translate(4 427)">
<title>includes/spic&#45;prj&#45;api/Animator.hpp</title>
<!-- Node1 -->
<g id="node1" class="node">
<title>Node1</title>
<g id="a_node1"><a xlink:title=" ">
<polygon fill="#bfbfbf" stroke="black" points="598.5,-392.5 598.5,-422.5 701.5,-422.5 701.5,-392.5 598.5,-392.5"/>
<text text-anchor="start" x="606.5" y="-410.5" font-family="Helvetica,sans-Serif" font-size="10.00">includes/spic&#45;prj&#45;api</text>
<text text-anchor="middle" x="650" y="-399.5" font-family="Helvetica,sans-Serif" font-size="10.00">/Animator.hpp</text>
</a>
</g>
</g>
<!-- Node2 -->
<g id="node2" class="node">
<title>Node2</title>
<g id="a_node2"><a xlink:href="Component_8hpp.html" target="_top" xlink:title=" ">
<polygon fill="none" stroke="black" points="1201,-56.5 1201,-75.5 1285,-75.5 1285,-56.5 1201,-56.5"/>
<text text-anchor="middle" x="1243" y="-63.5" font-family="Helvetica,sans-Serif" font-size="10.00">Component.hpp</text>
</a>
</g>
</g>
<!-- Node1&#45;&gt;Node2 -->
<g id="edge1" class="edge">
<title>Node1&#45;&gt;Node2</title>
<path fill="none" stroke="midnightblue" d="M701.58,-407.28C845.34,-408.06 1240,-400.27 1240,-291 1240,-291 1240,-291 1240,-177 1240,-144.94 1241.29,-107.63 1242.18,-85.74"/>
<polygon fill="midnightblue" stroke="midnightblue" points="1245.68,-85.69 1242.61,-75.56 1238.69,-85.4 1245.68,-85.69"/>
</g>
<!-- Node4 -->
<g id="node4" class="node">
<title>Node4</title>
<g id="a_node4"><a xlink:href="Sprite_8hpp.html" target="_top" xlink:title=" ">
<polygon fill="none" stroke="black" points="1003,-224.5 1003,-243.5 1063,-243.5 1063,-224.5 1003,-224.5"/>
<text text-anchor="middle" x="1033" y="-231.5" font-family="Helvetica,sans-Serif" font-size="10.00">Sprite.hpp</text>
</a>
</g>
</g>
<!-- Node1&#45;&gt;Node4 -->
<g id="edge3" class="edge">
<title>Node1&#45;&gt;Node4</title>
<path fill="none" stroke="midnightblue" d="M681.34,-392.47C754.22,-359.83 934.21,-279.24 1004.36,-247.83"/>
<polygon fill="midnightblue" stroke="midnightblue" points="1006.19,-250.84 1013.88,-243.56 1003.33,-244.45 1006.19,-250.84"/>
</g>
<!-- Node15 -->
<g id="node15" class="node">
<title>Node15</title>
<g id="a_node15"><a xlink:href="Transform_8hpp.html" target="_top" xlink:title=" ">
<polygon fill="none" stroke="black" points="74.5,-56.5 74.5,-75.5 153.5,-75.5 153.5,-56.5 74.5,-56.5"/>
<text text-anchor="middle" x="114" y="-63.5" font-family="Helvetica,sans-Serif" font-size="10.00">Transform.hpp</text>
</a>
</g>
</g>
<!-- Node1&#45;&gt;Node15 -->
<g id="edge55" class="edge">
<title>Node1&#45;&gt;Node15</title>
<path fill="none" stroke="midnightblue" d="M598.49,-400.6C485.62,-386.89 220.69,-350.18 147,-300 77.74,-252.84 98.27,-131.7 109.18,-85.38"/>
<polygon fill="midnightblue" stroke="midnightblue" points="112.61,-86.09 111.62,-75.54 105.82,-84.4 112.61,-86.09"/>
</g>
<!-- Node16 -->
<g id="node16" class="node">
<title>Node16</title>
<g id="a_node16"><a xlink:href="Point_8hpp.html" target="_top" xlink:title=" ">
<polygon fill="none" stroke="black" points="47.5,-0.5 47.5,-19.5 104.5,-19.5 104.5,-0.5 47.5,-0.5"/>
<text text-anchor="middle" x="76" y="-7.5" font-family="Helvetica,sans-Serif" font-size="10.00">Point.hpp</text>
</a>
</g>
</g>
<!-- Node1&#45;&gt;Node16 -->
<g id="edge54" class="edge">
<title>Node1&#45;&gt;Node16</title>
<path fill="none" stroke="midnightblue" d="M598.45,-402.78C444.71,-391 0,-351.67 0,-291 0,-291 0,-291 0,-121 0,-81.28 33.96,-45.5 56.48,-26.15"/>
<polygon fill="midnightblue" stroke="midnightblue" points="58.98,-28.63 64.46,-19.57 54.52,-23.24 58.98,-28.63"/>
</g>
<!-- Node19 -->
<g id="node19" class="node">
<title>Node19</title>
<g id="a_node19"><a xlink:href="AnimatedSprite_8hpp.html" target="_top" xlink:title=" ">
<polygon fill="none" stroke="black" points="581.5,-336.5 581.5,-355.5 718.5,-355.5 718.5,-336.5 581.5,-336.5"/>
<text text-anchor="middle" x="650" y="-343.5" font-family="Helvetica,sans-Serif" font-size="10.00">Texture/AnimatedSprite.hpp</text>
</a>
</g>
</g>
<!-- Node1&#45;&gt;Node19 -->
<g id="edge24" class="edge">
<title>Node1&#45;&gt;Node19</title>
<path fill="none" stroke="midnightblue" d="M650,-392.4C650,-384.47 650,-374.46 650,-365.86"/>
<polygon fill="midnightblue" stroke="midnightblue" points="653.5,-365.66 650,-355.66 646.5,-365.66 653.5,-365.66"/>
</g>
<!-- Node3 -->
<g id="node3" class="node">
<title>Node3</title>
<g id="a_node3"><a xlink:title=" ">
<polygon fill="none" stroke="#bfbfbf" points="982.5,-0.5 982.5,-19.5 1033.5,-19.5 1033.5,-0.5 982.5,-0.5"/>
<text text-anchor="middle" x="1008" y="-7.5" font-family="Helvetica,sans-Serif" font-size="10.00">memory</text>
</a>
</g>
</g>
<!-- Node2&#45;&gt;Node3 -->
<g id="edge2" class="edge">
<title>Node2&#45;&gt;Node3</title>
<path fill="none" stroke="midnightblue" d="M1205.76,-56.44C1161.31,-46.23 1087.5,-29.27 1043.73,-19.21"/>
<polygon fill="midnightblue" stroke="midnightblue" points="1044.34,-15.76 1033.81,-16.93 1042.77,-22.58 1044.34,-15.76"/>
</g>
<!-- Node4&#45;&gt;Node2 -->
<g id="edge4" class="edge">
<title>Node4&#45;&gt;Node2</title>
<path fill="none" stroke="midnightblue" d="M1043.99,-224.31C1077.94,-197.47 1181.4,-115.69 1224.18,-81.88"/>
<polygon fill="midnightblue" stroke="midnightblue" points="1226.44,-84.55 1232.11,-75.61 1222.1,-79.06 1226.44,-84.55"/>
</g>
<!-- Node5 -->
<g id="node5" class="node">
<title>Node5</title>
<g id="a_node5"><a xlink:href="Color_8hpp.html" target="_top" xlink:title=" ">
<polygon fill="none" stroke="black" points="1125.5,-56.5 1125.5,-75.5 1182.5,-75.5 1182.5,-56.5 1125.5,-56.5"/>
<text text-anchor="middle" x="1154" y="-63.5" font-family="Helvetica,sans-Serif" font-size="10.00">Color.hpp</text>
</a>
</g>
</g>
<!-- Node4&#45;&gt;Node5 -->
<g id="edge5" class="edge">
<title>Node4&#45;&gt;Node5</title>
<path fill="none" stroke="midnightblue" d="M1039.51,-224.08C1058.88,-197.49 1116.43,-118.54 1141.78,-83.76"/>
<polygon fill="midnightblue" stroke="midnightblue" points="1144.69,-85.71 1147.75,-75.57 1139.04,-81.59 1144.69,-85.71"/>
</g>
<!-- Node6 -->
<g id="node6" class="node">
<title>Node6</title>
<g id="a_node6"><a xlink:title=" ">
<polygon fill="none" stroke="#bfbfbf" points="537.5,-56.5 537.5,-75.5 578.5,-75.5 578.5,-56.5 537.5,-56.5"/>
<text text-anchor="middle" x="558" y="-63.5" font-family="Helvetica,sans-Serif" font-size="10.00">string</text>
</a>
</g>
</g>
<!-- Node4&#45;&gt;Node6 -->
<g id="edge6" class="edge">
<title>Node4&#45;&gt;Node6</title>
<path fill="none" stroke="midnightblue" d="M1011.25,-224.49C968.83,-207.75 872.29,-168.95 793,-132 775.34,-123.77 772.34,-118.55 754,-112 685.43,-87.51 662.33,-94.61 588.31,-76.13"/>
<polygon fill="midnightblue" stroke="midnightblue" points="589.09,-72.72 578.53,-73.62 587.34,-79.5 589.09,-72.72"/>
</g>
<!-- Node7 -->
<g id="node7" class="node">
<title>Node7</title>
<g id="a_node7"><a xlink:href="GraphicsFacade_8hpp.html" target="_top" xlink:title=" ">
<polygon fill="none" stroke="black" points="802.5,-112.5 802.5,-131.5 943.5,-131.5 943.5,-112.5 802.5,-112.5"/>
<text text-anchor="middle" x="873" y="-119.5" font-family="Helvetica,sans-Serif" font-size="10.00">Facade/GraphicsFacade.hpp</text>
</a>
</g>
</g>
<!-- Node4&#45;&gt;Node7 -->
<g id="edge7" class="edge">
<title>Node4&#45;&gt;Node7</title>
<path fill="none" stroke="midnightblue" d="M1020.45,-224.37C993.11,-205.57 927.94,-160.77 894.14,-137.53"/>
<polygon fill="midnightblue" stroke="midnightblue" points="895.72,-134.37 885.5,-131.59 891.75,-140.14 895.72,-134.37"/>
</g>
<!-- Node4&#45;&gt;Node15 -->
<g id="edge18" class="edge">
<title>Node4&#45;&gt;Node15</title>
<path fill="none" stroke="midnightblue" d="M1002.86,-225.49C999.88,-224.92 996.89,-224.4 994,-224 839.08,-202.33 440.6,-233.72 291,-188 223.32,-167.32 158.54,-110.62 129.68,-82.8"/>
<polygon fill="midnightblue" stroke="midnightblue" points="132.11,-80.29 122.53,-75.78 127.21,-85.28 132.11,-80.29"/>
</g>
<!-- Node17 -->
<g id="node17" class="node">
<title>Node17</title>
<g id="a_node17"><a xlink:href="TextureManager_8hpp.html" target="_top" xlink:title=" ">
<polygon fill="none" stroke="black" points="667,-168.5 667,-187.5 807,-187.5 807,-168.5 667,-168.5"/>
<text text-anchor="middle" x="737" y="-175.5" font-family="Helvetica,sans-Serif" font-size="10.00">Texture/TextureManager.hpp</text>
</a>
</g>
</g>
<!-- Node4&#45;&gt;Node17 -->
<g id="edge20" class="edge">
<title>Node4&#45;&gt;Node17</title>
<path fill="none" stroke="midnightblue" d="M1002.8,-225.86C999.83,-225.21 996.86,-224.58 994,-224 928.45,-210.71 853.02,-197.78 800.91,-189.22"/>
<polygon fill="midnightblue" stroke="midnightblue" points="801.24,-185.72 790.81,-187.56 800.11,-192.63 801.24,-185.72"/>
</g>
<!-- Node7&#45;&gt;Node3 -->
<g id="edge13" class="edge">
<title>Node7&#45;&gt;Node3</title>
<path fill="none" stroke="midnightblue" d="M920.78,-112.44C943.92,-106.02 970.43,-94.94 988,-76 999.66,-63.44 1004.53,-44.22 1006.56,-29.93"/>
<polygon fill="midnightblue" stroke="midnightblue" points="1010.06,-30.07 1007.65,-19.75 1003.1,-29.32 1010.06,-30.07"/>
</g>
<!-- Node7&#45;&gt;Node5 -->
<g id="edge11" class="edge">
<title>Node7&#45;&gt;Node5</title>
<path fill="none" stroke="midnightblue" d="M922.94,-112.5C970.05,-104.31 1042.87,-91.22 1115.61,-76"/>
<polygon fill="midnightblue" stroke="midnightblue" points="1116.34,-79.42 1125.4,-73.93 1114.89,-72.57 1116.34,-79.42"/>
</g>
<!-- Node7&#45;&gt;Node6 -->
<g id="edge15" class="edge">
<title>Node7&#45;&gt;Node6</title>
<path fill="none" stroke="midnightblue" d="M802.22,-112.77C746.4,-105.61 666.46,-93.89 588.76,-76.16"/>
<polygon fill="midnightblue" stroke="midnightblue" points="589.34,-72.7 578.81,-73.85 587.76,-79.52 589.34,-72.7"/>
</g>
<!-- Node8 -->
<g id="node8" class="node">
<title>Node8</title>
<g id="a_node8"><a xlink:title=" ">
<polygon fill="none" stroke="#bfbfbf" points="1036.5,-56.5 1036.5,-75.5 1107.5,-75.5 1107.5,-56.5 1036.5,-56.5"/>
<text text-anchor="middle" x="1072" y="-63.5" font-family="Helvetica,sans-Serif" font-size="10.00">SDL2/SDL.h</text>
</a>
</g>
</g>
<!-- Node7&#45;&gt;Node8 -->
<g id="edge8" class="edge">
<title>Node7&#45;&gt;Node8</title>
<path fill="none" stroke="midnightblue" d="M904.53,-112.44C938.59,-103.2 993.01,-88.44 1030.52,-78.26"/>
<polygon fill="midnightblue" stroke="midnightblue" points="1031.88,-81.51 1040.62,-75.52 1030.05,-74.76 1031.88,-81.51"/>
</g>
<!-- Node9 -->
<g id="node9" class="node">
<title>Node9</title>
<g id="a_node9"><a xlink:title=" ">
<polygon fill="none" stroke="#bfbfbf" points="596.5,-56.5 596.5,-75.5 699.5,-75.5 699.5,-56.5 596.5,-56.5"/>
<text text-anchor="middle" x="648" y="-63.5" font-family="Helvetica,sans-Serif" font-size="10.00">SDL2/SDL_image.h</text>
</a>
</g>
</g>
<!-- Node7&#45;&gt;Node9 -->
<g id="edge9" class="edge">
<title>Node7&#45;&gt;Node9</title>
<path fill="none" stroke="midnightblue" d="M837.35,-112.44C798.34,-103.08 735.73,-88.06 693.28,-77.87"/>
<polygon fill="midnightblue" stroke="midnightblue" points="694.03,-74.45 683.49,-75.52 692.39,-81.25 694.03,-74.45"/>
</g>
<!-- Node10 -->
<g id="node10" class="node">
<title>Node10</title>
<g id="a_node10"><a xlink:title=" ">
<polygon fill="none" stroke="#bfbfbf" points="718,-56.5 718,-75.5 772,-75.5 772,-56.5 718,-56.5"/>
<text text-anchor="middle" x="745" y="-63.5" font-family="Helvetica,sans-Serif" font-size="10.00">iostream</text>
</a>
</g>
</g>
<!-- Node7&#45;&gt;Node10 -->
<g id="edge10" class="edge">
<title>Node7&#45;&gt;Node10</title>
<path fill="none" stroke="midnightblue" d="M852.72,-112.44C831.65,-103.56 798.48,-89.56 774.51,-79.45"/>
<polygon fill="midnightblue" stroke="midnightblue" points="775.76,-76.18 765.19,-75.52 773.04,-82.63 775.76,-76.18"/>
</g>
<!-- Node11 -->
<g id="node11" class="node">
<title>Node11</title>
<g id="a_node11"><a xlink:href="NumberUtil_8hpp.html" target="_top" xlink:title=" ">
<polygon fill="none" stroke="black" points="790,-56.5 790,-75.5 902,-75.5 902,-56.5 790,-56.5"/>
<text text-anchor="middle" x="846" y="-63.5" font-family="Helvetica,sans-Serif" font-size="10.00">Utility/NumberUtil.hpp</text>
</a>
</g>
</g>
<!-- Node7&#45;&gt;Node11 -->
<g id="edge12" class="edge">
<title>Node7&#45;&gt;Node11</title>
<path fill="none" stroke="midnightblue" d="M868.54,-112.08C864.85,-104.69 859.48,-93.95 854.91,-84.81"/>
<polygon fill="midnightblue" stroke="midnightblue" points="857.98,-83.13 850.38,-75.75 851.72,-86.26 857.98,-83.13"/>
</g>
<!-- Node12 -->
<g id="node12" class="node">
<title>Node12</title>
<g id="a_node12"><a xlink:title=" ">
<polygon fill="none" stroke="#bfbfbf" points="920.5,-56.5 920.5,-75.5 979.5,-75.5 979.5,-56.5 920.5,-56.5"/>
<text text-anchor="middle" x="950" y="-63.5" font-family="Helvetica,sans-Serif" font-size="10.00">functional</text>
</a>
</g>
</g>
<!-- Node7&#45;&gt;Node12 -->
<g id="edge14" class="edge">
<title>Node7&#45;&gt;Node12</title>
<path fill="none" stroke="midnightblue" d="M885.37,-112.32C897.16,-104.06 915.13,-91.45 929.14,-81.63"/>
<polygon fill="midnightblue" stroke="midnightblue" points="931.48,-84.26 937.66,-75.65 927.46,-78.53 931.48,-84.26"/>
</g>
<!-- Node13 -->
<g id="node13" class="node">
<title>Node13</title>
<g id="a_node13"><a xlink:title=" ">
<polygon fill="none" stroke="#bfbfbf" points="422,-56.5 422,-75.5 466,-75.5 466,-56.5 422,-56.5"/>
<text text-anchor="middle" x="444" y="-63.5" font-family="Helvetica,sans-Serif" font-size="10.00">vector</text>
</a>
</g>
</g>
<!-- Node7&#45;&gt;Node13 -->
<g id="edge16" class="edge">
<title>Node7&#45;&gt;Node13</title>
<path fill="none" stroke="midnightblue" d="M802.39,-114.47C709.7,-105.67 550.94,-89.7 476.21,-75.88"/>
<polygon fill="midnightblue" stroke="midnightblue" points="476.72,-72.42 466.24,-73.95 475.39,-79.29 476.72,-72.42"/>
</g>
<!-- Node14 -->
<g id="node14" class="node">
<title>Node14</title>
<g id="a_node14"><a xlink:title=" ">
<polygon fill="none" stroke="#bfbfbf" points="484.5,-56.5 484.5,-75.5 519.5,-75.5 519.5,-56.5 484.5,-56.5"/>
<text text-anchor="middle" x="502" y="-63.5" font-family="Helvetica,sans-Serif" font-size="10.00">map</text>
</a>
</g>
</g>
<!-- Node7&#45;&gt;Node14 -->
<g id="edge17" class="edge">
<title>Node7&#45;&gt;Node14</title>
<path fill="none" stroke="midnightblue" d="M802.2,-116C734.19,-110.25 628.56,-98.8 529.62,-76"/>
<polygon fill="midnightblue" stroke="midnightblue" points="530.3,-72.56 519.76,-73.68 528.7,-79.38 530.3,-72.56"/>
</g>
<!-- Node15&#45;&gt;Node16 -->
<g id="edge19" class="edge">
<title>Node15&#45;&gt;Node16</title>
<path fill="none" stroke="midnightblue" d="M107.73,-56.08C102.36,-48.46 94.48,-37.26 87.92,-27.94"/>
<polygon fill="midnightblue" stroke="midnightblue" points="90.78,-25.91 82.16,-19.75 85.05,-29.94 90.78,-25.91"/>
</g>
<!-- Node17&#45;&gt;Node6 -->
<g id="edge21" class="edge">
<title>Node17&#45;&gt;Node6</title>
<path fill="none" stroke="midnightblue" d="M727.32,-168.22C712.35,-154.94 682.37,-129.45 654,-112 632.81,-98.97 607.23,-87.15 587.81,-78.9"/>
<polygon fill="midnightblue" stroke="midnightblue" points="589.12,-75.66 578.54,-75.04 586.42,-82.12 589.12,-75.66"/>
</g>
<!-- Node17&#45;&gt;Node7 -->
<g id="edge23" class="edge">
<title>Node17&#45;&gt;Node7</title>
<path fill="none" stroke="midnightblue" d="M758.55,-168.44C781.03,-159.52 816.49,-145.44 841.98,-135.32"/>
<polygon fill="midnightblue" stroke="midnightblue" points="843.55,-138.46 851.55,-131.52 840.97,-131.95 843.55,-138.46"/>
</g>
<!-- Node18 -->
<g id="node18" class="node">
<title>Node18</title>
<g id="a_node18"><a xlink:title=" ">
<polygon fill="none" stroke="#bfbfbf" points="706.5,-112.5 706.5,-131.5 745.5,-131.5 745.5,-112.5 706.5,-112.5"/>
<text text-anchor="middle" x="726" y="-119.5" font-family="Helvetica,sans-Serif" font-size="10.00">utility</text>
</a>
</g>
</g>
<!-- Node17&#45;&gt;Node18 -->
<g id="edge22" class="edge">
<title>Node17&#45;&gt;Node18</title>
<path fill="none" stroke="midnightblue" d="M735.18,-168.08C733.73,-160.93 731.63,-150.64 729.81,-141.69"/>
<polygon fill="midnightblue" stroke="midnightblue" points="733.21,-140.85 727.78,-131.75 726.35,-142.25 733.21,-140.85"/>
</g>
<!-- Node19&#45;&gt;Node4 -->
<g id="edge25" class="edge">
<title>Node19&#45;&gt;Node4</title>
<path fill="none" stroke="midnightblue" d="M685.88,-336.43C721.56,-327.76 777.77,-313.73 826,-300 886.75,-282.71 956.72,-260.18 997.77,-246.7"/>
<polygon fill="midnightblue" stroke="midnightblue" points="998.91,-250.01 1007.32,-243.56 996.72,-243.36 998.91,-250.01"/>
</g>
<!-- Node19&#45;&gt;Node15 -->
<g id="edge53" class="edge">
<title>Node19&#45;&gt;Node15</title>
<path fill="none" stroke="midnightblue" d="M581.3,-345.12C436.67,-343.51 114,-329.34 114,-235 114,-235 114,-235 114,-177 114,-144.95 114,-107.64 114,-85.75"/>
<polygon fill="midnightblue" stroke="midnightblue" points="117.5,-85.56 114,-75.56 110.5,-85.56 117.5,-85.56"/>
</g>
<!-- Node19&#45;&gt;Node16 -->
<g id="edge26" class="edge">
<title>Node19&#45;&gt;Node16</title>
<path fill="none" stroke="midnightblue" d="M581.33,-344.99C461.86,-343.97 221.41,-337.18 147,-300 82.25,-267.65 38,-251.38 38,-179 38,-179 38,-179 38,-121 38,-86.81 54.6,-49.76 65.86,-28.57"/>
<polygon fill="midnightblue" stroke="midnightblue" points="68.95,-30.22 70.72,-19.77 62.82,-26.83 68.95,-30.22"/>
</g>
<!-- Node20 -->
<g id="node20" class="node">
<title>Node20</title>
<g id="a_node20"><a xlink:href="Timer_8hpp.html" target="_top" xlink:title=" ">
<polygon fill="none" stroke="black" points="730.5,-280.5 730.5,-299.5 817.5,-299.5 817.5,-280.5 730.5,-280.5"/>
<text text-anchor="middle" x="774" y="-287.5" font-family="Helvetica,sans-Serif" font-size="10.00">Timer/Timer.hpp</text>
</a>
</g>
</g>
<!-- Node19&#45;&gt;Node20 -->
<g id="edge27" class="edge">
<title>Node19&#45;&gt;Node20</title>
<path fill="none" stroke="midnightblue" d="M669.65,-336.44C689.96,-327.6 721.9,-313.69 745.1,-303.59"/>
<polygon fill="midnightblue" stroke="midnightblue" points="746.67,-306.72 754.44,-299.52 743.88,-300.3 746.67,-306.72"/>
</g>
<!-- Node22 -->
<g id="node22" class="node">
<title>Node22</title>
<g id="a_node22"><a xlink:href="Window_8hpp.html" target="_top" xlink:title=" ">
<polygon fill="none" stroke="black" points="598.5,-280.5 598.5,-299.5 701.5,-299.5 701.5,-280.5 598.5,-280.5"/>
<text text-anchor="middle" x="650" y="-287.5" font-family="Helvetica,sans-Serif" font-size="10.00">Render/Window.hpp</text>
</a>
</g>
</g>
<!-- Node19&#45;&gt;Node22 -->
<g id="edge29" class="edge">
<title>Node19&#45;&gt;Node22</title>
<path fill="none" stroke="midnightblue" d="M650,-336.08C650,-329.01 650,-318.86 650,-309.99"/>
<polygon fill="midnightblue" stroke="midnightblue" points="653.5,-309.75 650,-299.75 646.5,-309.75 653.5,-309.75"/>
</g>
<!-- Node21 -->
<g id="node21" class="node">
<title>Node21</title>
<g id="a_node21"><a xlink:title=" ">
<polygon fill="none" stroke="#bfbfbf" points="939,-224.5 939,-243.5 985,-243.5 985,-224.5 939,-224.5"/>
<text text-anchor="middle" x="962" y="-231.5" font-family="Helvetica,sans-Serif" font-size="10.00">cstdint</text>
</a>
</g>
</g>
<!-- Node20&#45;&gt;Node21 -->
<g id="edge28" class="edge">
<title>Node20&#45;&gt;Node21</title>
<path fill="none" stroke="midnightblue" d="M803.79,-280.44C837.9,-270.65 893.63,-254.64 929.02,-244.47"/>
<polygon fill="midnightblue" stroke="midnightblue" points="930.22,-247.77 938.87,-241.64 928.29,-241.04 930.22,-247.77"/>
</g>
<!-- Node22&#45;&gt;Node5 -->
<g id="edge31" class="edge">
<title>Node22&#45;&gt;Node5</title>
<path fill="none" stroke="midnightblue" d="M673.27,-280.43C696.8,-271.65 734.15,-257.43 766,-244 902.96,-186.25 1063.73,-110.22 1126.73,-80.1"/>
<polygon fill="midnightblue" stroke="midnightblue" points="1128.48,-83.15 1135.98,-75.67 1125.45,-76.83 1128.48,-83.15"/>
</g>
<!-- Node22&#45;&gt;Node6 -->
<g id="edge30" class="edge">
<title>Node22&#45;&gt;Node6</title>
<path fill="none" stroke="midnightblue" d="M650.71,-280.47C652.53,-253.48 655.01,-168.41 620,-112 611.76,-98.72 598.03,-88.16 585.57,-80.61"/>
<polygon fill="midnightblue" stroke="midnightblue" points="587.26,-77.54 576.83,-75.65 583.8,-83.62 587.26,-77.54"/>
</g>
<!-- Node22&#45;&gt;Node7 -->
<g id="edge32" class="edge">
<title>Node22&#45;&gt;Node7</title>
<path fill="none" stroke="midnightblue" d="M667.88,-280.42C699.61,-264.71 767.05,-229.12 816,-188 833.16,-173.59 849.69,-153.88 860.49,-139.95"/>
<polygon fill="midnightblue" stroke="midnightblue" points="863.46,-141.83 866.71,-131.75 857.88,-137.6 863.46,-141.83"/>
</g>
<!-- Node22&#45;&gt;Node17 -->
<g id="edge33" class="edge">
<title>Node22&#45;&gt;Node17</title>
<path fill="none" stroke="midnightblue" d="M656.83,-280.37C671.25,-262.14 705.03,-219.43 723.81,-195.68"/>
<polygon fill="midnightblue" stroke="midnightblue" points="726.75,-197.61 730.2,-187.59 721.26,-193.26 726.75,-197.61"/>
</g>
<!-- Node23 -->
<g id="node23" class="node">
<title>Node23</title>
<g id="a_node23"><a xlink:href="InputFacade_8hpp.html" target="_top" xlink:title=" ">
<polygon fill="none" stroke="black" points="300,-168.5 300,-187.5 424,-187.5 424,-168.5 300,-168.5"/>
<text text-anchor="middle" x="362" y="-175.5" font-family="Helvetica,sans-Serif" font-size="10.00">Facade/InputFacade.hpp</text>
</a>
</g>
</g>
<!-- Node22&#45;&gt;Node23 -->
<g id="edge34" class="edge">
<title>Node22&#45;&gt;Node23</title>
<path fill="none" stroke="midnightblue" d="M627.4,-280.37C576.51,-260.93 452.78,-213.67 394.01,-191.23"/>
<polygon fill="midnightblue" stroke="midnightblue" points="395.08,-187.89 384.49,-187.59 392.59,-194.43 395.08,-187.89"/>
</g>
<!-- Node27 -->
<g id="node27" class="node">
<title>Node27</title>
<g id="a_node27"><a xlink:href="Scene_8hpp.html" target="_top" xlink:title=" ">
<polygon fill="none" stroke="black" points="546,-224.5 546,-243.5 608,-243.5 608,-224.5 546,-224.5"/>
<text text-anchor="middle" x="577" y="-231.5" font-family="Helvetica,sans-Serif" font-size="10.00">Scene.hpp</text>
</a>
</g>
</g>
<!-- Node22&#45;&gt;Node27 -->
<g id="edge42" class="edge">
<title>Node22&#45;&gt;Node27</title>
<path fill="none" stroke="midnightblue" d="M638.27,-280.32C627.16,-272.11 610.26,-259.6 597.02,-249.81"/>
<polygon fill="midnightblue" stroke="midnightblue" points="599.06,-246.97 588.94,-243.83 594.9,-252.59 599.06,-246.97"/>
</g>
<!-- Node23&#45;&gt;Node13 -->
<g id="edge35" class="edge">
<title>Node23&#45;&gt;Node13</title>
<path fill="none" stroke="midnightblue" d="M299.9,-171.27C245.66,-163.82 179.81,-147.31 209,-112 234.35,-81.33 353.36,-71.36 411.66,-68.29"/>
<polygon fill="midnightblue" stroke="midnightblue" points="411.98,-71.78 421.8,-67.79 411.64,-64.79 411.98,-71.78"/>
</g>
<!-- Node23&#45;&gt;Node14 -->
<g id="edge36" class="edge">
<title>Node23&#45;&gt;Node14</title>
<path fill="none" stroke="midnightblue" d="M404.89,-168.5C428.16,-161.96 455.97,-150.75 475,-132 487.76,-119.42 494.76,-99.93 498.41,-85.57"/>
<polygon fill="midnightblue" stroke="midnightblue" points="501.84,-86.31 500.59,-75.79 495,-84.79 501.84,-86.31"/>
</g>
<!-- Node24 -->
<g id="node24" class="node">
<title>Node24</title>
<g id="a_node24"><a xlink:title=" ">
<polygon fill="none" stroke="#bfbfbf" points="292,-112.5 292,-131.5 336,-131.5 336,-112.5 292,-112.5"/>
<text text-anchor="middle" x="314" y="-119.5" font-family="Helvetica,sans-Serif" font-size="10.00">SDL.h</text>
</a>
</g>
</g>
<!-- Node23&#45;&gt;Node24 -->
<g id="edge37" class="edge">
<title>Node23&#45;&gt;Node24</title>
<path fill="none" stroke="midnightblue" d="M354.07,-168.08C347.15,-160.3 336.93,-148.8 328.55,-139.37"/>
<polygon fill="midnightblue" stroke="midnightblue" points="331.04,-136.9 321.78,-131.75 325.81,-141.55 331.04,-136.9"/>
</g>
<!-- Node25 -->
<g id="node25" class="node">
<title>Node25</title>
<g id="a_node25"><a xlink:title=" ">
<polygon fill="none" stroke="#bfbfbf" points="354,-112.5 354,-131.5 466,-131.5 466,-112.5 354,-112.5"/>
<text text-anchor="middle" x="410" y="-119.5" font-family="Helvetica,sans-Serif" font-size="10.00">Events/EventsEnum.h</text>
</a>
</g>
</g>
<!-- Node23&#45;&gt;Node25 -->
<g id="edge38" class="edge">
<title>Node23&#45;&gt;Node25</title>
<path fill="none" stroke="midnightblue" d="M369.93,-168.08C376.85,-160.3 387.07,-148.8 395.45,-139.37"/>
<polygon fill="midnightblue" stroke="midnightblue" points="398.19,-141.55 402.22,-131.75 392.96,-136.9 398.19,-141.55"/>
</g>
<!-- Node26 -->
<g id="node26" class="node">
<title>Node26</title>
<g id="a_node26"><a xlink:href="Input_8hpp.html" target="_top" xlink:title=" ">
<polygon fill="none" stroke="black" points="218,-112.5 218,-131.5 274,-131.5 274,-112.5 218,-112.5"/>
<text text-anchor="middle" x="246" y="-119.5" font-family="Helvetica,sans-Serif" font-size="10.00">Input.hpp</text>
</a>
</g>
</g>
<!-- Node23&#45;&gt;Node26 -->
<g id="edge39" class="edge">
<title>Node23&#45;&gt;Node26</title>
<path fill="none" stroke="midnightblue" d="M343.62,-168.44C324.78,-159.68 295.27,-145.94 273.62,-135.86"/>
<polygon fill="midnightblue" stroke="midnightblue" points="274.84,-132.56 264.29,-131.52 271.88,-138.91 274.84,-132.56"/>
</g>
<!-- Node26&#45;&gt;Node6 -->
<g id="edge41" class="edge">
<title>Node26&#45;&gt;Node6</title>
<path fill="none" stroke="midnightblue" d="M274.22,-113.85C277.18,-113.19 280.14,-112.56 283,-112 387.87,-91.59 418.77,-99.38 527.39,-75.82"/>
<polygon fill="midnightblue" stroke="midnightblue" points="528.44,-79.17 537.45,-73.6 526.93,-72.34 528.44,-79.17"/>
</g>
<!-- Node26&#45;&gt;Node16 -->
<g id="edge40" class="edge">
<title>Node26&#45;&gt;Node16</title>
<path fill="none" stroke="midnightblue" d="M236.08,-112.39C220.79,-99.33 190.25,-74.12 162,-56 143.38,-44.06 121.25,-32.54 104.1,-24.14"/>
<polygon fill="midnightblue" stroke="midnightblue" points="105.17,-20.77 94.65,-19.58 102.13,-27.07 105.17,-20.77"/>
</g>
<!-- Node28 -->
<g id="node28" class="node">
<title>Node28</title>
<g id="a_node28"><a xlink:href="GameObject_8hpp.html" target="_top" xlink:title=" ">
<polygon fill="none" stroke="black" points="522.5,-112.5 522.5,-131.5 611.5,-131.5 611.5,-112.5 522.5,-112.5"/>
<text text-anchor="middle" x="567" y="-119.5" font-family="Helvetica,sans-Serif" font-size="10.00">GameObject.hpp</text>
</a>
</g>
</g>
<!-- Node27&#45;&gt;Node28 -->
<g id="edge43" class="edge">
<title>Node27&#45;&gt;Node28</title>
<path fill="none" stroke="midnightblue" d="M564.5,-224.3C554.13,-216.25 540.11,-203.24 534,-188 527.12,-170.85 538.83,-152.12 550.15,-139.19"/>
<polygon fill="midnightblue" stroke="midnightblue" points="553,-141.27 557.34,-131.6 547.92,-136.45 553,-141.27"/>
</g>
<!-- Node29 -->
<g id="node29" class="node">
<title>Node29</title>
<g id="a_node29"><a xlink:href="Camera_8hpp.html" target="_top" xlink:title=" ">
<polygon fill="none" stroke="black" points="543,-168.5 543,-187.5 611,-187.5 611,-168.5 543,-168.5"/>
<text text-anchor="middle" x="577" y="-175.5" font-family="Helvetica,sans-Serif" font-size="10.00">Camera.hpp</text>
</a>
</g>
</g>
<!-- Node27&#45;&gt;Node29 -->
<g id="edge50" class="edge">
<title>Node27&#45;&gt;Node29</title>
<path fill="none" stroke="midnightblue" d="M577,-224.08C577,-217.01 577,-206.86 577,-197.99"/>
<polygon fill="midnightblue" stroke="midnightblue" points="580.5,-197.75 577,-187.75 573.5,-197.75 580.5,-197.75"/>
</g>
<!-- Node28&#45;&gt;Node2 -->
<g id="edge44" class="edge">
<title>Node28&#45;&gt;Node2</title>
<path fill="none" stroke="midnightblue" d="M611.54,-117.92C741.58,-108.91 1115.73,-82.87 1190.42,-75.88"/>
<polygon fill="midnightblue" stroke="midnightblue" points="1191.17,-79.32 1200.75,-74.8 1190.44,-72.35 1191.17,-79.32"/>
</g>
<!-- Node28&#45;&gt;Node3 -->
<g id="edge48" class="edge">
<title>Node28&#45;&gt;Node3</title>
<path fill="none" stroke="midnightblue" d="M522.08,-117.01C465.06,-110.32 378.08,-93.67 413,-56 451.07,-14.94 849.3,-11.14 972.13,-10.95"/>
<polygon fill="midnightblue" stroke="midnightblue" points="972.48,-14.45 982.48,-10.94 972.48,-7.45 972.48,-14.45"/>
</g>
<!-- Node28&#45;&gt;Node6 -->
<g id="edge46" class="edge">
<title>Node28&#45;&gt;Node6</title>
<path fill="none" stroke="midnightblue" d="M565.51,-112.08C564.32,-104.93 562.61,-94.64 561.12,-85.69"/>
<polygon fill="midnightblue" stroke="midnightblue" points="564.55,-85.04 559.46,-75.75 557.65,-86.19 564.55,-85.04"/>
</g>
<!-- Node28&#45;&gt;Node13 -->
<g id="edge47" class="edge">
<title>Node28&#45;&gt;Node13</title>
<path fill="none" stroke="midnightblue" d="M547.51,-112.44C527.36,-103.6 495.68,-89.69 472.67,-79.59"/>
<polygon fill="midnightblue" stroke="midnightblue" points="473.96,-76.33 463.4,-75.52 471.15,-82.74 473.96,-76.33"/>
</g>
<!-- Node28&#45;&gt;Node14 -->
<g id="edge49" class="edge">
<title>Node28&#45;&gt;Node14</title>
<path fill="none" stroke="midnightblue" d="M556.56,-112.32C546.85,-104.26 532.18,-92.08 520.5,-82.37"/>
<polygon fill="midnightblue" stroke="midnightblue" points="522.56,-79.53 512.63,-75.83 518.09,-84.92 522.56,-79.53"/>
</g>
<!-- Node28&#45;&gt;Node15 -->
<g id="edge45" class="edge">
<title>Node28&#45;&gt;Node15</title>
<path fill="none" stroke="midnightblue" d="M522.32,-115.67C437.3,-105.54 252.78,-83.54 163.87,-72.94"/>
<polygon fill="midnightblue" stroke="midnightblue" points="164.11,-69.45 153.77,-71.74 163.29,-76.4 164.11,-69.45"/>
</g>
<!-- Node29&#45;&gt;Node5 -->
<g id="edge52" class="edge">
<title>Node29&#45;&gt;Node5</title>
<path fill="none" stroke="midnightblue" d="M611.16,-173.19C700.56,-163.17 935.66,-136.58 952,-132 972.69,-126.21 975.84,-119.41 996,-112 1035.98,-97.31 1083.08,-84.45 1115.39,-76.28"/>
<polygon fill="midnightblue" stroke="midnightblue" points="1116.48,-79.61 1125.34,-73.79 1114.79,-72.82 1116.48,-79.61"/>
</g>
<!-- Node29&#45;&gt;Node28 -->
<g id="edge51" class="edge">
<title>Node29&#45;&gt;Node28</title>
<path fill="none" stroke="midnightblue" d="M575.35,-168.08C574.02,-160.93 572.12,-150.64 570.46,-141.69"/>
<polygon fill="midnightblue" stroke="midnightblue" points="573.88,-140.95 568.62,-131.75 567,-142.22 573.88,-140.95"/>
</g>
</g>
</svg>
