<svg xmlns="http://www.w3.org/2000/svg" xmlns:xlink="http://www.w3.org/1999/xlink" id="main" onload="init(evt)" version="1.1" xml:space="preserve"><style type="text/css">.edge:hover path{stroke:red}.edge:hover polygon{stroke:red;fill:red}</style><script type="text/javascript"><![CDATA[
var edges = document.getElementsByTagName('g');
if (edges && edges.length) {
  for (var i=0;i<edges.length;i++) {
    if (edges[i].id.substr(0,4)=='edge') {
      edges[i].setAttribute('class','edge');
    }
  }
}
]]></script><defs><circle id="rim" cx="0" cy="0" r="7"/><circle id="rim2" cx="0" cy="0" r="3.5"/><g id="zoomPlus"><use fill="#404040" xlink:href="#rim"><set attributeName="fill" begin="zoomplus.mouseover" end="zoomplus.mouseout" to="#808080"/></use><path fill="none" stroke="#fff" stroke-width="1.5" d="M-4,0h8M0,-4v8" pointer-events="none"/></g><g id="zoomMin"><use fill="#404040" xlink:href="#rim"><set attributeName="fill" begin="zoomminus.mouseover" end="zoomminus.mouseout" to="#808080"/></use><path fill="none" stroke="#fff" stroke-width="1.5" d="M-4,0h8" pointer-events="none"/></g><g id="dirArrow"><path fill="none" stroke="#fff" stroke-width="1.5" d="M0,-3.0v7 M-2.5,-0.5L0,-3.0L2.5,-0.5"/></g><g id="resetDef"><use fill="#404040" xlink:href="#rim2"><set attributeName="fill" begin="reset.mouseover" end="reset.mouseout" to="#808080"/></use></g></defs><script type="text/javascript">var viewWidth = 989; var viewHeight = 251; var sectionId = &apos;dynsection-1&apos;;</script><script xlink:href="svgpan.js"/><svg id="graph" class="graph"><g id="viewport"><title>includes/spic-prj-api/Animator.hpp</title><g id="node1" class="node"><title>Node1</title><g id="a_node1"><a><polygon fill="#bfbfbf" stroke="#000" points="202.5 -212.5 202.5 -242.5 305.5 -242.5 305.5 -212.5 202.5 -212.5"/><text x="210.5" y="-230.5" font-family="Helvetica,sans-Serif" font-size="10" text-anchor="start">includes/spic-prj-api</text><text x="254" y="-219.5" font-family="Helvetica,sans-Serif" font-size="10" text-anchor="middle">/Animator.hpp</text></a></g></g><g id="node2" class="node"><title>Node2</title><g id="a_node2"><a target="_top" xlink:href="Animator_8cpp.html"><polygon fill="none" stroke="#000" points="0 -145.5 0 -164.5 110 -164.5 110 -145.5 0 -145.5"/><text x="55" y="-152.5" font-family="Helvetica,sans-Serif" font-size="10" text-anchor="middle">src/API/Animator.cpp</text></a></g></g><g id="edge1" class="edge"><title>Node1-&gt;Node2</title><path fill="none" stroke="#191970" d="M204.64,-209.01C164.67,-194.85 110.08,-175.51 79.09,-164.53"/><polygon fill="#191970" stroke="#191970" points="203.61 -212.36 214.21 -212.4 205.95 -205.76 203.61 -212.36"/></g><g id="node3" class="node"><title>Node3</title><g id="a_node3"><a target="_top" xlink:href="Scene_8cpp.html"><polygon fill="none" stroke="#000" points="128 -145.5 128 -164.5 238 -164.5 238 -145.5 128 -145.5"/><text x="183" y="-152.5" font-family="Helvetica,sans-Serif" font-size="10" text-anchor="middle">src/Scene/Scene.cpp</text></a></g></g><g id="edge2" class="edge"><title>Node1-&gt;Node3</title><path fill="none" stroke="#191970" d="M232.49,-205.14C218.91,-191.65 202.08,-174.94 191.96,-164.89"/><polygon fill="#191970" stroke="#191970" points="230.07 -207.67 239.63 -212.23 235 -202.7 230.07 -207.67"/></g><g id="node4" class="node"><title>Node4</title><g id="a_node4"><a target="_top" xlink:href="GameObjectBuilder_8hpp.html"><polygon fill="none" stroke="#000" points="256.5 -134.5 256.5 -175.5 395.5 -175.5 395.5 -134.5 256.5 -134.5"/><text x="264.5" y="-163.5" font-family="Helvetica,sans-Serif" font-size="10" text-anchor="start">includes/platformer</text><text x="264.5" y="-152.5" font-family="Helvetica,sans-Serif" font-size="10" text-anchor="start">-engine/Builder/GameObject</text><text x="326" y="-141.5" font-family="Helvetica,sans-Serif" font-size="10" text-anchor="middle">Builder.hpp</text></a></g></g><g id="edge3" class="edge"><title>Node1-&gt;Node4</title><path fill="none" stroke="#191970" d="M275.85,-205.1C285.44,-195.71 296.63,-184.76 305.99,-175.59"/><polygon fill="#191970" stroke="#191970" points="273.27 -202.74 268.57 -212.23 278.16 -207.74 273.27 -202.74"/></g><g id="node6" class="node"><title>Node6</title><g id="a_node6"><a target="_top" xlink:href="RenderSystem_8hpp.html"><polygon fill="none" stroke="#000" points="414 -140 414 -170 582 -170 582 -140 414 -140"/><text x="422" y="-158" font-family="Helvetica,sans-Serif" font-size="10" text-anchor="start">includes/platformer</text><text x="498" y="-147" font-family="Helvetica,sans-Serif" font-size="10" text-anchor="middle">-engine/Texture/RenderSystem.hpp</text></a></g></g><g id="edge5" class="edge"><title>Node1-&gt;Node6</title><path fill="none" stroke="#191970" d="M312.27,-209.66C354.05,-197.59 409.72,-181.51 449.18,-170.11"/><polygon fill="#191970" stroke="#191970" points="311.13 -206.35 302.5 -212.49 313.08 -213.07 311.13 -206.35"/></g><g id="node5" class="node"><title>Node5</title><g id="a_node5"><a target="_top" xlink:href="GameObjectBuilder_8cpp.html"><polygon fill="none" stroke="#000" points="241.5 -73 241.5 -92 410.5 -92 410.5 -73 241.5 -73"/><text x="326" y="-80" font-family="Helvetica,sans-Serif" font-size="10" text-anchor="middle">src/Builder/GameObjectBuilder.cpp</text></a></g></g><g id="edge4" class="edge"><title>Node4-&gt;Node5</title><path fill="none" stroke="#191970" d="M326,-124.1C326,-112.53 326,-100.18 326,-92.17"/><polygon fill="#191970" stroke="#191970" points="322.5 -124.36 326 -134.36 329.5 -124.36 322.5 -124.36"/></g><g id="node7" class="node"><title>Node7</title><g id="a_node7"><a target="_top" xlink:href="RenderSystem_8cpp.html"><polygon fill="none" stroke="#000" points="365 -6 365 -25 515 -25 515 -6 365 -6"/><text x="440" y="-13" font-family="Helvetica,sans-Serif" font-size="10" text-anchor="middle">src/Texture/RenderSystem.cpp</text></a></g></g><g id="edge6" class="edge"><title>Node6-&gt;Node7</title><path fill="none" stroke="#191970" d="M488.11,-130.56C474.99,-99.46 452.47,-46.05 443.67,-25.2"/><polygon fill="#191970" stroke="#191970" points="484.9 -131.95 492.01 -139.8 491.35 -129.23 484.9 -131.95"/></g><g id="node8" class="node"><title>Node8</title><g id="a_node8"><a target="_top" xlink:href="Engine_8hpp.html"><polygon fill="none" stroke="#000" points="524.5 -67.5 524.5 -97.5 655.5 -97.5 655.5 -67.5 524.5 -67.5"/><text x="532.5" y="-85.5" font-family="Helvetica,sans-Serif" font-size="10" text-anchor="start">includes/platformer</text><text x="590" y="-74.5" font-family="Helvetica,sans-Serif" font-size="10" text-anchor="middle">-engine/Engine/Engine.hpp</text></a></g></g><g id="edge7" class="edge"><title>Node6-&gt;Node8</title><path fill="none" stroke="#191970" d="M524.61,-133.61C539.72,-122.03 558.25,-107.83 571.72,-97.5"/><polygon fill="#191970" stroke="#191970" points="522.43 -130.87 516.62 -139.73 526.68 -136.43 522.43 -130.87"/></g><g id="edge11" class="edge"><title>Node8-&gt;Node7</title><path fill="none" stroke="#191970" d="M547.99,-63.3C519.06,-50.76 481.96,-34.68 459.63,-25.01"/><polygon fill="#191970" stroke="#191970" points="546.89 -66.63 557.45 -67.4 549.67 -60.21 546.89 -66.63"/></g><g id="node9" class="node"><title>Node9</title><g id="a_node9"><a target="_top" xlink:href="Engine_8cpp.html"><polygon fill="none" stroke="#000" points="533.5 -6 533.5 -25 646.5 -25 646.5 -6 533.5 -6"/><text x="590" y="-13" font-family="Helvetica,sans-Serif" font-size="10" text-anchor="middle">src/Engine/Engine.cpp</text></a></g></g><g id="edge8" class="edge"><title>Node8-&gt;Node9</title><path fill="none" stroke="#191970" d="M590,-57.25C590,-46.02 590,-33.38 590,-25.19"/><polygon fill="#191970" stroke="#191970" points="586.5 -57.4 590 -67.4 593.5 -57.4 586.5 -57.4"/></g><g id="node10" class="node"><title>Node10</title><g id="a_node10"><a target="_top" xlink:href="ClientNetworkManager_8cpp.html"><polygon fill="none" stroke="#000" points="664.5 -.5 664.5 -30.5 811.5 -30.5 811.5 -.5 664.5 -.5"/><text x="672.5" y="-18.5" font-family="Helvetica,sans-Serif" font-size="10" text-anchor="start">src/Networking/ClientNetwork</text><text x="738" y="-7.5" font-family="Helvetica,sans-Serif" font-size="10" text-anchor="middle">Manager.cpp</text></a></g></g><g id="edge9" class="edge"><title>Node8-&gt;Node10</title><path fill="none" stroke="#191970" d="M631.51,-63.27C655.08,-52.92 684.14,-40.15 705.95,-30.58"/><polygon fill="#191970" stroke="#191970" points="629.86 -60.17 622.11 -67.4 632.68 -66.58 629.86 -60.17"/></g><g id="node11" class="node"><title>Node11</title><g id="a_node11"><a target="_top" xlink:href="ServerNetworkManager_8cpp.html"><polygon fill="none" stroke="#000" points="829.5 -.5 829.5 -30.5 980.5 -30.5 980.5 -.5 829.5 -.5"/><text x="837.5" y="-18.5" font-family="Helvetica,sans-Serif" font-size="10" text-anchor="start">src/Networking/ServerNetwork</text><text x="905" y="-7.5" font-family="Helvetica,sans-Serif" font-size="10" text-anchor="middle">Manager.cpp</text></a></g></g><g id="edge10" class="edge"><title>Node8-&gt;Node11</title><path fill="none" stroke="#191970" d="M665.52,-65.92C717.7,-55.15 786.52,-40.95 836.99,-30.53"/><polygon fill="#191970" stroke="#191970" points="664.74 -62.5 655.65 -67.95 666.15 -69.36 664.74 -62.5"/></g></g></svg><g id="navigator" fill="#404254" transform="translate(0 0)"><rect width="60" height="60" x="0" y="0" fill="#f2f5e9" fill-opacity=".5" stroke="#606060" stroke-width=".5"/><use id="zoomplus" x="17" y="9" onmousedown="handleZoom(evt,'in')" xlink:href="#zoomPlus"/><use id="zoomminus" x="42" y="9" onmousedown="handleZoom(evt,'out')" xlink:href="#zoomMin"/><use id="reset" x="30" y="36" onmousedown="handleReset()" xlink:href="#resetDef"/><g id="arrowUp" onmousedown="handlePan(0,-1)" transform="translate(30 24)" xlink:href="#dirArrow"><use fill="#404040" xlink:href="#rim"><set attributeName="fill" begin="arrowUp.mouseover" end="arrowUp.mouseout" to="#808080"/></use><path fill="none" stroke="#fff" stroke-width="1.5" d="M0,-3.0v7 M-2.5,-0.5L0,-3.0L2.5,-0.5"/></g><g id="arrowRight" onmousedown="handlePan(1,0)" transform="rotate(90) translate(36 -43)" xlink:href="#dirArrow"><use fill="#404040" xlink:href="#rim"><set attributeName="fill" begin="arrowRight.mouseover" end="arrowRight.mouseout" to="#808080"/></use><path fill="none" stroke="#fff" stroke-width="1.5" d="M0,-3.0v7 M-2.5,-0.5L0,-3.0L2.5,-0.5"/></g><g id="arrowDown" onmousedown="handlePan(0,1)" transform="rotate(180) translate(-30 -48)" xlink:href="#dirArrow"><use fill="#404040" xlink:href="#rim"><set attributeName="fill" begin="arrowDown.mouseover" end="arrowDown.mouseout" to="#808080"/></use><path fill="none" stroke="#fff" stroke-width="1.5" d="M0,-3.0v7 M-2.5,-0.5L0,-3.0L2.5,-0.5"/></g><g id="arrowLeft" onmousedown="handlePan(-1,0)" transform="rotate(270) translate(-36 17)" xlink:href="#dirArrow"><use fill="#404040" xlink:href="#rim"><set attributeName="fill" begin="arrowLeft.mouseover" end="arrowLeft.mouseout" to="#808080"/></use><path fill="none" stroke="#fff" stroke-width="1.5" d="M0,-3.0v7 M-2.5,-0.5L0,-3.0L2.5,-0.5"/></g></g><svg width="100%" height="30" preserveAspectRatio="xMaxYMin meet" viewBox="0 0 15 15"><g id="arrow_out" transform="scale(0.3 0.3)"><a target="_base" xlink:href="Animator_8hpp__dep__incl_org.svg"><rect id="button" width="38" height="38" x="6" y="6" fill="#f2f5e9" fill-opacity=".5" stroke="#606060" stroke-width="1" rx="5" ry="5"/><path id="arrow" d="M 11.500037,31.436501 C 11.940474,20.09759 22.043105,11.32322 32.158766,21.979434 L 37.068811,17.246167 C 37.068811,17.246167 37.088388,32 37.088388,32 L 22.160133,31.978069 C 22.160133,31.978069 26.997745,27.140456 26.997745,27.140456 C 18.528582,18.264221 13.291696,25.230495 11.500037,31.436501 z" style="fill:#404040"/></a></g></svg></svg>