<?xml version="1.0" encoding="UTF-8" standalone="no"?>
<!DOCTYPE svg PUBLIC "-//W3C//DTD SVG 1.1//EN"
 "http://www.w3.org/Graphics/SVG/1.1/DTD/svg11.dtd">
<!-- Generated by graphviz version 2.44.0 ()
 -->
<!-- Title: src/Texture/AnimatedSprite.cpp Pages: 1 -->
<!--zoomable 431 -->
<svg id="main" version="1.1" xmlns="http://www.w3.org/2000/svg" xmlns:xlink="http://www.w3.org/1999/xlink" xml:space="preserve" onload="init(evt)">
<style type="text/css"><![CDATA[
.edge:hover path { stroke: red; }
.edge:hover polygon { stroke: red; fill: red; }
]]></style>
<script type="text/javascript"><![CDATA[
var edges = document.getElementsByTagName('g');
if (edges && edges.length) {
  for (var i=0;i<edges.length;i++) {
    if (edges[i].id.substr(0,4)=='edge') {
      edges[i].setAttribute('class','edge');
    }
  }
}
]]></script>
        <defs>
                <circle id="rim" cx="0" cy="0" r="7"/>
                <circle id="rim2" cx="0" cy="0" r="3.5"/>
                <g id="zoomPlus">
                        <use xlink:href="#rim" fill="#404040">
                                <set attributeName="fill" to="#808080" begin="zoomplus.mouseover" end="zoomplus.mouseout"/>
                        </use>
                        <path d="M-4,0h8M0,-4v8" fill="none" stroke="white" stroke-width="1.5" pointer-events="none"/>
                </g>
                <g id="zoomMin">
                        <use xlink:href="#rim" fill="#404040">
                                <set attributeName="fill" to="#808080" begin="zoomminus.mouseover" end="zoomminus.mouseout"/>
                        </use>
                        <path d="M-4,0h8" fill="none" stroke="white" stroke-width="1.5" pointer-events="none"/>
                </g>
                <g id="dirArrow">
                        <path fill="none" stroke="white" stroke-width="1.5" d="M0,-3.0v7 M-2.5,-0.5L0,-3.0L2.5,-0.5"/>
                </g>
               <g id="resetDef">
                       <use xlink:href="#rim2" fill="#404040">
                               <set attributeName="fill" to="#808080" begin="reset.mouseover" end="reset.mouseout"/>
                       </use>
               </g>
        </defs>

<script type="text/javascript">
var viewWidth = 1365;
var viewHeight = 431;
var sectionId = 'dynsection-0';
</script>
<script xlink:href="svgpan.js"/>
<svg id="graph" class="graph">
<g id="viewport">
<title>src/Texture/AnimatedSprite.cpp</title>
<!-- Node1 -->
<g id="node1" class="node">
<title>Node1</title>
<g id="a_node1"><a xlink:title=" ">
<polygon fill="#bfbfbf" stroke="black" points="159,-403.5 159,-422.5 312,-422.5 312,-403.5 159,-403.5"/>
<text text-anchor="middle" x="235.5" y="-410.5" font-family="Helvetica,sans-Serif" font-size="10.00">src/Texture/AnimatedSprite.cpp</text>
</a>
</g>
</g>
<!-- Node2 -->
<g id="node2" class="node">
<title>Node2</title>
<g id="a_node2"><a xlink:title=" ">
<polygon fill="none" stroke="#bfbfbf" points="0,-123.5 0,-142.5 39,-142.5 39,-123.5 0,-123.5"/>
<text text-anchor="middle" x="19.5" y="-130.5" font-family="Helvetica,sans-Serif" font-size="10.00">utility</text>
</a>
</g>
</g>
<!-- Node1&#45;&gt;Node2 -->
<g id="edge1" class="edge">
<title>Node1&#45;&gt;Node2</title>
<path fill="none" stroke="midnightblue" d="M159.92,-403.49C99.38,-391.98 24.5,-365 24.5,-302 24.5,-302 24.5,-302 24.5,-244 24.5,-211.91 22.35,-174.62 20.87,-152.74"/>
<polygon fill="midnightblue" stroke="midnightblue" points="24.35,-152.28 20.15,-142.55 17.36,-152.77 24.35,-152.28"/>
</g>
<!-- Node3 -->
<g id="node3" class="node">
<title>Node3</title>
<g id="a_node3"><a xlink:href="AnimatedSprite_8hpp.html" target="_top" xlink:title=" ">
<polygon fill="none" stroke="black" points="424,-347.5 424,-366.5 561,-366.5 561,-347.5 424,-347.5"/>
<text text-anchor="middle" x="492.5" y="-354.5" font-family="Helvetica,sans-Serif" font-size="10.00">Texture/AnimatedSprite.hpp</text>
</a>
</g>
</g>
<!-- Node1&#45;&gt;Node3 -->
<g id="edge2" class="edge">
<title>Node1&#45;&gt;Node3</title>
<path fill="none" stroke="midnightblue" d="M276.22,-403.44C321.15,-394 393.5,-378.8 442,-368.61"/>
<polygon fill="midnightblue" stroke="midnightblue" points="442.9,-372 451.97,-366.52 441.46,-365.15 442.9,-372"/>
</g>
<!-- Node4 -->
<g id="node4" class="node">
<title>Node4</title>
<g id="a_node4"><a xlink:href="Sprite_8hpp.html" target="_top" xlink:title=" ">
<polygon fill="none" stroke="black" points="672.5,-235.5 672.5,-254.5 732.5,-254.5 732.5,-235.5 672.5,-235.5"/>
<text text-anchor="middle" x="702.5" y="-242.5" font-family="Helvetica,sans-Serif" font-size="10.00">Sprite.hpp</text>
</a>
</g>
</g>
<!-- Node3&#45;&gt;Node4 -->
<g id="edge3" class="edge">
<title>Node3&#45;&gt;Node4</title>
<path fill="none" stroke="midnightblue" d="M508.98,-347.37C545.47,-328.25 633.34,-282.23 676.99,-259.36"/>
<polygon fill="midnightblue" stroke="midnightblue" points="678.86,-262.33 686.1,-254.59 675.62,-256.13 678.86,-262.33"/>
</g>
<!-- Node7 -->
<g id="node7" class="node">
<title>Node7</title>
<g id="a_node7"><a xlink:title=" ">
<polygon fill="none" stroke="#bfbfbf" points="1262,-0.5 1262,-30.5 1357,-30.5 1357,-0.5 1262,-0.5"/>
<text text-anchor="start" x="1270" y="-18.5" font-family="Helvetica,sans-Serif" font-size="10.00">boost/serialization</text>
<text text-anchor="middle" x="1309.5" y="-7.5" font-family="Helvetica,sans-Serif" font-size="10.00">/access.hpp</text>
</a>
</g>
</g>
<!-- Node3&#45;&gt;Node7 -->
<g id="edge56" class="edge">
<title>Node3&#45;&gt;Node7</title>
<path fill="none" stroke="midnightblue" d="M561.19,-353.94C758.09,-347.15 1310.5,-321.36 1310.5,-246 1310.5,-246 1310.5,-246 1310.5,-132 1310.5,-100.49 1310.12,-64.15 1309.83,-40.78"/>
<polygon fill="midnightblue" stroke="midnightblue" points="1313.33,-40.68 1309.7,-30.72 1306.33,-40.77 1313.33,-40.68"/>
</g>
<!-- Node21 -->
<g id="node21" class="node">
<title>Node21</title>
<g id="a_node21"><a xlink:href="Transform_8hpp.html" target="_top" xlink:title=" ">
<polygon fill="none" stroke="black" points="873,-67.5 873,-86.5 952,-86.5 952,-67.5 873,-67.5"/>
<text text-anchor="middle" x="912.5" y="-74.5" font-family="Helvetica,sans-Serif" font-size="10.00">Transform.hpp</text>
</a>
</g>
</g>
<!-- Node3&#45;&gt;Node21 -->
<g id="edge55" class="edge">
<title>Node3&#45;&gt;Node21</title>
<path fill="none" stroke="midnightblue" d="M561.09,-347.45C658.58,-333.36 825.5,-301.18 825.5,-246 825.5,-246 825.5,-246 825.5,-188 825.5,-146.4 864.25,-111.33 890.03,-92.6"/>
<polygon fill="midnightblue" stroke="midnightblue" points="892.32,-95.27 898.52,-86.68 888.32,-89.53 892.32,-95.27"/>
</g>
<!-- Node22 -->
<g id="node22" class="node">
<title>Node22</title>
<g id="a_node22"><a xlink:href="Point_8hpp.html" target="_top" xlink:title=" ">
<polygon fill="none" stroke="black" points="409,-6 409,-25 466,-25 466,-6 409,-6"/>
<text text-anchor="middle" x="437.5" y="-13" font-family="Helvetica,sans-Serif" font-size="10.00">Point.hpp</text>
</a>
</g>
</g>
<!-- Node3&#45;&gt;Node22 -->
<g id="edge30" class="edge">
<title>Node3&#45;&gt;Node22</title>
<path fill="none" stroke="midnightblue" d="M423.74,-352.37C303.46,-344.13 67.5,-318.69 67.5,-246 67.5,-246 67.5,-246 67.5,-132 67.5,-101.9 63.77,-86.72 86.5,-67 132.51,-27.08 317.08,-18.7 398.54,-16.95"/>
<polygon fill="midnightblue" stroke="midnightblue" points="398.93,-20.45 408.86,-16.76 398.8,-13.45 398.93,-20.45"/>
</g>
<!-- Node24 -->
<g id="node24" class="node">
<title>Node24</title>
<g id="a_node24"><a xlink:href="Timer_8hpp.html" target="_top" xlink:title=" ">
<polygon fill="none" stroke="black" points="221,-291.5 221,-310.5 308,-310.5 308,-291.5 221,-291.5"/>
<text text-anchor="middle" x="264.5" y="-298.5" font-family="Helvetica,sans-Serif" font-size="10.00">Timer/Timer.hpp</text>
</a>
</g>
</g>
<!-- Node3&#45;&gt;Node24 -->
<g id="edge31" class="edge">
<title>Node3&#45;&gt;Node24</title>
<path fill="none" stroke="midnightblue" d="M456.37,-347.44C416.85,-338.08 353.4,-323.06 310.39,-312.87"/>
<polygon fill="midnightblue" stroke="midnightblue" points="311,-309.42 300.46,-310.52 309.38,-316.23 311,-309.42"/>
</g>
<!-- Node26 -->
<g id="node26" class="node">
<title>Node26</title>
<g id="a_node26"><a xlink:href="Window_8hpp.html" target="_top" xlink:title=" ">
<polygon fill="none" stroke="black" points="441,-291.5 441,-310.5 544,-310.5 544,-291.5 441,-291.5"/>
<text text-anchor="middle" x="492.5" y="-298.5" font-family="Helvetica,sans-Serif" font-size="10.00">Render/Window.hpp</text>
</a>
</g>
</g>
<!-- Node3&#45;&gt;Node26 -->
<g id="edge33" class="edge">
<title>Node3&#45;&gt;Node26</title>
<path fill="none" stroke="midnightblue" d="M492.5,-347.08C492.5,-340.01 492.5,-329.86 492.5,-320.99"/>
<polygon fill="midnightblue" stroke="midnightblue" points="496,-320.75 492.5,-310.75 489,-320.75 496,-320.75"/>
</g>
<!-- Node5 -->
<g id="node5" class="node">
<title>Node5</title>
<g id="a_node5"><a xlink:href="Component_8hpp.html" target="_top" xlink:title=" ">
<polygon fill="none" stroke="black" points="1084.5,-67.5 1084.5,-86.5 1168.5,-86.5 1168.5,-67.5 1084.5,-67.5"/>
<text text-anchor="middle" x="1126.5" y="-74.5" font-family="Helvetica,sans-Serif" font-size="10.00">Component.hpp</text>
</a>
</g>
</g>
<!-- Node4&#45;&gt;Node5 -->
<g id="edge4" class="edge">
<title>Node4&#45;&gt;Node5</title>
<path fill="none" stroke="midnightblue" d="M732.56,-241.24C796.29,-234.18 947.72,-210.98 1052.5,-143 1074.53,-128.71 1096.76,-108.17 1111.02,-94.03"/>
<polygon fill="midnightblue" stroke="midnightblue" points="1113.52,-96.48 1118.07,-86.91 1108.55,-91.55 1113.52,-96.48"/>
</g>
<!-- Node4&#45;&gt;Node7 -->
<g id="edge29" class="edge">
<title>Node4&#45;&gt;Node7</title>
<path fill="none" stroke="midnightblue" d="M732.72,-241.43C783.36,-236.59 888.21,-224.24 973.5,-199 1092.97,-163.64 1125.59,-154.21 1230.5,-87 1252.25,-73.07 1273.92,-53.19 1289.05,-38.09"/>
<polygon fill="midnightblue" stroke="midnightblue" points="1291.81,-40.27 1296.33,-30.69 1286.82,-35.36 1291.81,-40.27"/>
</g>
<!-- Node11 -->
<g id="node11" class="node">
<title>Node11</title>
<g id="a_node11"><a xlink:href="Color_8hpp.html" target="_top" xlink:title=" ">
<polygon fill="none" stroke="black" points="683,-67.5 683,-86.5 740,-86.5 740,-67.5 683,-67.5"/>
<text text-anchor="middle" x="711.5" y="-74.5" font-family="Helvetica,sans-Serif" font-size="10.00">Color.hpp</text>
</a>
</g>
</g>
<!-- Node4&#45;&gt;Node11 -->
<g id="edge10" class="edge">
<title>Node4&#45;&gt;Node11</title>
<path fill="none" stroke="midnightblue" d="M702.98,-235.08C704.4,-208.95 708.56,-132.21 710.49,-96.58"/>
<polygon fill="midnightblue" stroke="midnightblue" points="713.99,-96.74 711.04,-86.57 707,-96.36 713.99,-96.74"/>
</g>
<!-- Node12 -->
<g id="node12" class="node">
<title>Node12</title>
<g id="a_node12"><a xlink:title=" ">
<polygon fill="none" stroke="#bfbfbf" points="96,-67.5 96,-86.5 137,-86.5 137,-67.5 96,-67.5"/>
<text text-anchor="middle" x="116.5" y="-74.5" font-family="Helvetica,sans-Serif" font-size="10.00">string</text>
</a>
</g>
</g>
<!-- Node4&#45;&gt;Node12 -->
<g id="edge11" class="edge">
<title>Node4&#45;&gt;Node12</title>
<path fill="none" stroke="midnightblue" d="M673.95,-235.43C606.41,-215.23 431.49,-163.3 284.5,-123 225.96,-106.95 208.56,-104.66 146.91,-87.31"/>
<polygon fill="midnightblue" stroke="midnightblue" points="147.63,-83.87 137.06,-84.51 145.72,-90.61 147.63,-83.87"/>
</g>
<!-- Node13 -->
<g id="node13" class="node">
<title>Node13</title>
<g id="a_node13"><a xlink:href="GraphicsFacade_8hpp.html" target="_top" xlink:title=" ">
<polygon fill="none" stroke="black" points="466,-123.5 466,-142.5 607,-142.5 607,-123.5 466,-123.5"/>
<text text-anchor="middle" x="536.5" y="-130.5" font-family="Helvetica,sans-Serif" font-size="10.00">Facade/GraphicsFacade.hpp</text>
</a>
</g>
</g>
<!-- Node4&#45;&gt;Node13 -->
<g id="edge12" class="edge">
<title>Node4&#45;&gt;Node13</title>
<path fill="none" stroke="midnightblue" d="M689.47,-235.37C660.99,-216.49 592.92,-171.38 557.98,-148.24"/>
<polygon fill="midnightblue" stroke="midnightblue" points="559.73,-145.2 549.47,-142.59 555.87,-151.03 559.73,-145.2"/>
</g>
<!-- Node4&#45;&gt;Node21 -->
<g id="edge23" class="edge">
<title>Node4&#45;&gt;Node21</title>
<path fill="none" stroke="midnightblue" d="M708.39,-235.25C723.33,-213.61 764.84,-156.9 811.5,-123 831.12,-108.75 855.97,-97.6 876.11,-89.97"/>
<polygon fill="midnightblue" stroke="midnightblue" points="877.39,-93.23 885.58,-86.51 874.98,-86.65 877.39,-93.23"/>
</g>
<!-- Node23 -->
<g id="node23" class="node">
<title>Node23</title>
<g id="a_node23"><a xlink:href="TextureManager_8hpp.html" target="_top" xlink:title=" ">
<polygon fill="none" stroke="black" points="269.5,-179.5 269.5,-198.5 409.5,-198.5 409.5,-179.5 269.5,-179.5"/>
<text text-anchor="middle" x="339.5" y="-186.5" font-family="Helvetica,sans-Serif" font-size="10.00">Texture/TextureManager.hpp</text>
</a>
</g>
</g>
<!-- Node4&#45;&gt;Node23 -->
<g id="edge25" class="edge">
<title>Node4&#45;&gt;Node23</title>
<path fill="none" stroke="midnightblue" d="M672.49,-239.54C614.58,-230.92 486.15,-211.82 406.79,-200.01"/>
<polygon fill="midnightblue" stroke="midnightblue" points="407.29,-196.55 396.89,-198.54 406.26,-203.47 407.29,-196.55"/>
</g>
<!-- Node6 -->
<g id="node6" class="node">
<title>Node6</title>
<g id="a_node6"><a xlink:title=" ">
<polygon fill="none" stroke="#bfbfbf" points="854,-6 854,-25 905,-25 905,-6 854,-6"/>
<text text-anchor="middle" x="879.5" y="-13" font-family="Helvetica,sans-Serif" font-size="10.00">memory</text>
</a>
</g>
</g>
<!-- Node5&#45;&gt;Node6 -->
<g id="edge5" class="edge">
<title>Node5&#45;&gt;Node6</title>
<path fill="none" stroke="midnightblue" d="M1084.49,-69.43C1041.29,-62.13 972.35,-48.96 914.5,-31 912.36,-30.33 910.16,-29.59 907.97,-28.8"/>
<polygon fill="midnightblue" stroke="midnightblue" points="909.11,-25.49 898.52,-25.12 906.57,-32.01 909.11,-25.49"/>
</g>
<!-- Node5&#45;&gt;Node7 -->
<g id="edge6" class="edge">
<title>Node5&#45;&gt;Node7</title>
<path fill="none" stroke="midnightblue" d="M1152.72,-67.48C1179.7,-58.7 1222.5,-44.79 1256.56,-33.71"/>
<polygon fill="midnightblue" stroke="midnightblue" points="1257.94,-36.94 1266.37,-30.52 1255.78,-30.29 1257.94,-36.94"/>
</g>
<!-- Node8 -->
<g id="node8" class="node">
<title>Node8</title>
<g id="a_node8"><a xlink:title=" ">
<polygon fill="none" stroke="#bfbfbf" points="923,-0.5 923,-30.5 1018,-30.5 1018,-0.5 923,-0.5"/>
<text text-anchor="start" x="931" y="-18.5" font-family="Helvetica,sans-Serif" font-size="10.00">boost/serialization</text>
<text text-anchor="middle" x="970.5" y="-7.5" font-family="Helvetica,sans-Serif" font-size="10.00">/map.hpp</text>
</a>
</g>
</g>
<!-- Node5&#45;&gt;Node8 -->
<g id="edge7" class="edge">
<title>Node5&#45;&gt;Node8</title>
<path fill="none" stroke="midnightblue" d="M1104.15,-67.48C1081.44,-58.81 1045.6,-45.15 1016.75,-34.14"/>
<polygon fill="midnightblue" stroke="midnightblue" points="1017.86,-30.82 1007.27,-30.52 1015.36,-37.36 1017.86,-30.82"/>
</g>
<!-- Node9 -->
<g id="node9" class="node">
<title>Node9</title>
<g id="a_node9"><a xlink:title=" ">
<polygon fill="none" stroke="#bfbfbf" points="1036,-0.5 1036,-30.5 1131,-30.5 1131,-0.5 1036,-0.5"/>
<text text-anchor="start" x="1044" y="-18.5" font-family="Helvetica,sans-Serif" font-size="10.00">boost/serialization</text>
<text text-anchor="middle" x="1083.5" y="-7.5" font-family="Helvetica,sans-Serif" font-size="10.00">/vector.hpp</text>
</a>
</g>
</g>
<!-- Node5&#45;&gt;Node9 -->
<g id="edge8" class="edge">
<title>Node5&#45;&gt;Node9</title>
<path fill="none" stroke="midnightblue" d="M1120.34,-67.48C1114.95,-60.02 1106.88,-48.85 1099.67,-38.87"/>
<polygon fill="midnightblue" stroke="midnightblue" points="1102.33,-36.58 1093.63,-30.52 1096.65,-40.68 1102.33,-36.58"/>
</g>
<!-- Node10 -->
<g id="node10" class="node">
<title>Node10</title>
<g id="a_node10"><a xlink:title=" ">
<polygon fill="none" stroke="#bfbfbf" points="1149,-0.5 1149,-30.5 1244,-30.5 1244,-0.5 1149,-0.5"/>
<text text-anchor="start" x="1157" y="-18.5" font-family="Helvetica,sans-Serif" font-size="10.00">boost/serialization</text>
<text text-anchor="middle" x="1196.5" y="-7.5" font-family="Helvetica,sans-Serif" font-size="10.00">/shared_ptr.hpp</text>
</a>
</g>
</g>
<!-- Node5&#45;&gt;Node10 -->
<g id="edge9" class="edge">
<title>Node5&#45;&gt;Node10</title>
<path fill="none" stroke="midnightblue" d="M1136.53,-67.48C1145.83,-59.57 1160.05,-47.48 1172.3,-37.07"/>
<polygon fill="midnightblue" stroke="midnightblue" points="1174.65,-39.67 1180,-30.52 1170.12,-34.33 1174.65,-39.67"/>
</g>
<!-- Node13&#45;&gt;Node6 -->
<g id="edge18" class="edge">
<title>Node13&#45;&gt;Node6</title>
<path fill="none" stroke="midnightblue" d="M541.89,-123.16C551.12,-108.82 571.45,-80.72 596.5,-67 676.9,-22.98 787.6,-16.13 843.74,-15.77"/>
<polygon fill="midnightblue" stroke="midnightblue" points="843.89,-19.27 853.89,-15.78 843.89,-12.27 843.89,-19.27"/>
</g>
<!-- Node13&#45;&gt;Node11 -->
<g id="edge16" class="edge">
<title>Node13&#45;&gt;Node11</title>
<path fill="none" stroke="midnightblue" d="M564.23,-123.44C593.93,-114.28 641.22,-99.69 674.17,-89.52"/>
<polygon fill="midnightblue" stroke="midnightblue" points="675.38,-92.81 683.9,-86.52 673.31,-86.12 675.38,-92.81"/>
</g>
<!-- Node13&#45;&gt;Node12 -->
<g id="edge20" class="edge">
<title>Node13&#45;&gt;Node12</title>
<path fill="none" stroke="midnightblue" d="M465.64,-124.19C366.73,-113.24 194.74,-94.03 147.34,-86.72"/>
<polygon fill="midnightblue" stroke="midnightblue" points="147.74,-83.24 137.29,-84.96 146.53,-90.13 147.74,-83.24"/>
</g>
<!-- Node14 -->
<g id="node14" class="node">
<title>Node14</title>
<g id="a_node14"><a xlink:title=" ">
<polygon fill="none" stroke="#bfbfbf" points="155,-67.5 155,-86.5 226,-86.5 226,-67.5 155,-67.5"/>
<text text-anchor="middle" x="190.5" y="-74.5" font-family="Helvetica,sans-Serif" font-size="10.00">SDL2/SDL.h</text>
</a>
</g>
</g>
<!-- Node13&#45;&gt;Node14 -->
<g id="edge13" class="edge">
<title>Node13&#45;&gt;Node14</title>
<path fill="none" stroke="midnightblue" d="M472.42,-123.47C413.44,-115.39 323.32,-102.46 236.08,-87.21"/>
<polygon fill="midnightblue" stroke="midnightblue" points="236.47,-83.72 226.01,-85.43 235.25,-90.62 236.47,-83.72"/>
</g>
<!-- Node15 -->
<g id="node15" class="node">
<title>Node15</title>
<g id="a_node15"><a xlink:title=" ">
<polygon fill="none" stroke="#bfbfbf" points="244,-67.5 244,-86.5 347,-86.5 347,-67.5 244,-67.5"/>
<text text-anchor="middle" x="295.5" y="-74.5" font-family="Helvetica,sans-Serif" font-size="10.00">SDL2/SDL_image.h</text>
</a>
</g>
</g>
<!-- Node13&#45;&gt;Node15 -->
<g id="edge14" class="edge">
<title>Node13&#45;&gt;Node15</title>
<path fill="none" stroke="midnightblue" d="M498.31,-123.44C456.36,-114.04 388.91,-98.93 343.43,-88.74"/>
<polygon fill="midnightblue" stroke="midnightblue" points="344.03,-85.29 333.51,-86.52 342.5,-92.12 344.03,-85.29"/>
</g>
<!-- Node16 -->
<g id="node16" class="node">
<title>Node16</title>
<g id="a_node16"><a xlink:title=" ">
<polygon fill="none" stroke="#bfbfbf" points="365.5,-67.5 365.5,-86.5 419.5,-86.5 419.5,-67.5 365.5,-67.5"/>
<text text-anchor="middle" x="392.5" y="-74.5" font-family="Helvetica,sans-Serif" font-size="10.00">iostream</text>
</a>
</g>
</g>
<!-- Node13&#45;&gt;Node16 -->
<g id="edge15" class="edge">
<title>Node13&#45;&gt;Node16</title>
<path fill="none" stroke="midnightblue" d="M513.68,-123.44C489.67,-114.44 451.67,-100.19 424.63,-90.05"/>
<polygon fill="midnightblue" stroke="midnightblue" points="425.8,-86.75 415.21,-86.52 423.34,-93.3 425.8,-86.75"/>
</g>
<!-- Node17 -->
<g id="node17" class="node">
<title>Node17</title>
<g id="a_node17"><a xlink:href="NumberUtil_8hpp.html" target="_top" xlink:title=" ">
<polygon fill="none" stroke="black" points="437.5,-67.5 437.5,-86.5 549.5,-86.5 549.5,-67.5 437.5,-67.5"/>
<text text-anchor="middle" x="493.5" y="-74.5" font-family="Helvetica,sans-Serif" font-size="10.00">Utility/NumberUtil.hpp</text>
</a>
</g>
</g>
<!-- Node13&#45;&gt;Node17 -->
<g id="edge17" class="edge">
<title>Node13&#45;&gt;Node17</title>
<path fill="none" stroke="midnightblue" d="M529.4,-123.08C523.26,-115.38 514.23,-104.03 506.76,-94.65"/>
<polygon fill="midnightblue" stroke="midnightblue" points="509.44,-92.39 500.47,-86.75 503.96,-96.75 509.44,-92.39"/>
</g>
<!-- Node18 -->
<g id="node18" class="node">
<title>Node18</title>
<g id="a_node18"><a xlink:title=" ">
<polygon fill="none" stroke="#bfbfbf" points="606,-67.5 606,-86.5 665,-86.5 665,-67.5 606,-67.5"/>
<text text-anchor="middle" x="635.5" y="-74.5" font-family="Helvetica,sans-Serif" font-size="10.00">functional</text>
</a>
</g>
</g>
<!-- Node13&#45;&gt;Node18 -->
<g id="edge19" class="edge">
<title>Node13&#45;&gt;Node18</title>
<path fill="none" stroke="midnightblue" d="M552.41,-123.32C568.14,-114.74 592.44,-101.49 610.71,-91.52"/>
<polygon fill="midnightblue" stroke="midnightblue" points="612.53,-94.52 619.63,-86.65 609.18,-88.37 612.53,-94.52"/>
</g>
<!-- Node19 -->
<g id="node19" class="node">
<title>Node19</title>
<g id="a_node19"><a xlink:title=" ">
<polygon fill="none" stroke="#bfbfbf" points="811.5,-67.5 811.5,-86.5 855.5,-86.5 855.5,-67.5 811.5,-67.5"/>
<text text-anchor="middle" x="833.5" y="-74.5" font-family="Helvetica,sans-Serif" font-size="10.00">vector</text>
</a>
</g>
</g>
<!-- Node13&#45;&gt;Node19 -->
<g id="edge21" class="edge">
<title>Node13&#45;&gt;Node19</title>
<path fill="none" stroke="midnightblue" d="M597.64,-123.5C649.27,-115.89 725.31,-103.69 801.01,-86.89"/>
<polygon fill="midnightblue" stroke="midnightblue" points="802.21,-90.21 811.2,-84.6 800.67,-83.38 802.21,-90.21"/>
</g>
<!-- Node20 -->
<g id="node20" class="node">
<title>Node20</title>
<g id="a_node20"><a xlink:title=" ">
<polygon fill="none" stroke="#bfbfbf" points="758,-67.5 758,-86.5 793,-86.5 793,-67.5 758,-67.5"/>
<text text-anchor="middle" x="775.5" y="-74.5" font-family="Helvetica,sans-Serif" font-size="10.00">map</text>
</a>
</g>
</g>
<!-- Node13&#45;&gt;Node20 -->
<g id="edge22" class="edge">
<title>Node13&#45;&gt;Node20</title>
<path fill="none" stroke="midnightblue" d="M584.44,-123.42C625.46,-115.72 686.21,-103.48 747.95,-86.89"/>
<polygon fill="midnightblue" stroke="midnightblue" points="749.14,-90.2 757.87,-84.19 747.3,-83.44 749.14,-90.2"/>
</g>
<!-- Node21&#45;&gt;Node22 -->
<g id="edge24" class="edge">
<title>Node21&#45;&gt;Node22</title>
<path fill="none" stroke="midnightblue" d="M872.98,-68.37C870.12,-67.89 867.27,-67.42 864.5,-67 722.07,-45.25 551.69,-27.59 476.47,-20.22"/>
<polygon fill="midnightblue" stroke="midnightblue" points="476.37,-16.69 466.07,-19.21 475.69,-23.66 476.37,-16.69"/>
</g>
<!-- Node23&#45;&gt;Node2 -->
<g id="edge27" class="edge">
<title>Node23&#45;&gt;Node2</title>
<path fill="none" stroke="midnightblue" d="M288.8,-179.44C221.22,-168.04 103.82,-148.23 49.13,-139"/>
<polygon fill="midnightblue" stroke="midnightblue" points="49.5,-135.51 39.06,-137.3 48.34,-142.42 49.5,-135.51"/>
</g>
<!-- Node23&#45;&gt;Node12 -->
<g id="edge26" class="edge">
<title>Node23&#45;&gt;Node12</title>
<path fill="none" stroke="midnightblue" d="M330.42,-179.23C315.77,-165.49 285.5,-138.84 255.5,-123 250.55,-120.39 186.26,-99.96 146.87,-87.54"/>
<polygon fill="midnightblue" stroke="midnightblue" points="147.8,-84.16 137.21,-84.5 145.7,-90.84 147.8,-84.16"/>
</g>
<!-- Node23&#45;&gt;Node13 -->
<g id="edge28" class="edge">
<title>Node23&#45;&gt;Node13</title>
<path fill="none" stroke="midnightblue" d="M370.72,-179.44C404.43,-170.2 458.3,-155.44 495.43,-145.26"/>
<polygon fill="midnightblue" stroke="midnightblue" points="496.71,-148.54 505.43,-142.52 494.86,-141.78 496.71,-148.54"/>
</g>
<!-- Node25 -->
<g id="node25" class="node">
<title>Node25</title>
<g id="a_node25"><a xlink:title=" ">
<polygon fill="none" stroke="#bfbfbf" points="167.5,-235.5 167.5,-254.5 213.5,-254.5 213.5,-235.5 167.5,-235.5"/>
<text text-anchor="middle" x="190.5" y="-242.5" font-family="Helvetica,sans-Serif" font-size="10.00">cstdint</text>
</a>
</g>
</g>
<!-- Node24&#45;&gt;Node25 -->
<g id="edge32" class="edge">
<title>Node24&#45;&gt;Node25</title>
<path fill="none" stroke="midnightblue" d="M252.61,-291.32C241.35,-283.11 224.21,-270.6 210.79,-260.81"/>
<polygon fill="midnightblue" stroke="midnightblue" points="212.75,-257.9 202.61,-254.83 208.62,-263.56 212.75,-257.9"/>
</g>
<!-- Node26&#45;&gt;Node11 -->
<g id="edge35" class="edge">
<title>Node26&#45;&gt;Node11</title>
<path fill="none" stroke="midnightblue" d="M501.09,-291.3C533.99,-257.94 652.39,-137.92 695.58,-94.13"/>
<polygon fill="midnightblue" stroke="midnightblue" points="698.21,-96.46 702.74,-86.88 693.22,-91.54 698.21,-96.46"/>
</g>
<!-- Node26&#45;&gt;Node12 -->
<g id="edge34" class="edge">
<title>Node26&#45;&gt;Node12</title>
<path fill="none" stroke="midnightblue" d="M464.54,-291.42C438.49,-283.12 398.78,-269.67 365.5,-255 317.11,-233.66 304.32,-228.62 260.5,-199 210.94,-165.5 158.58,-117.99 132.8,-93.67"/>
<polygon fill="midnightblue" stroke="midnightblue" points="135.06,-90.99 125.4,-86.64 130.24,-96.06 135.06,-90.99"/>
</g>
<!-- Node26&#45;&gt;Node13 -->
<g id="edge36" class="edge">
<title>Node26&#45;&gt;Node13</title>
<path fill="none" stroke="midnightblue" d="M498.45,-291.47C504.24,-282.72 512.85,-268.52 517.5,-255 529.45,-220.27 533.93,-177.32 535.57,-153.05"/>
<polygon fill="midnightblue" stroke="midnightblue" points="539.08,-152.95 536.17,-142.76 532.09,-152.54 539.08,-152.95"/>
</g>
<!-- Node26&#45;&gt;Node23 -->
<g id="edge37" class="edge">
<title>Node26&#45;&gt;Node23</title>
<path fill="none" stroke="midnightblue" d="M461.24,-291.43C439.05,-284.25 409.42,-272.36 387.5,-255 371.06,-241.98 357.45,-222 348.97,-207.63"/>
<polygon fill="midnightblue" stroke="midnightblue" points="351.92,-205.72 343.95,-198.73 345.82,-209.16 351.92,-205.72"/>
</g>
<!-- Node27 -->
<g id="node27" class="node">
<title>Node27</title>
<g id="a_node27"><a xlink:href="Scene_8hpp.html" target="_top" xlink:title=" ">
<polygon fill="none" stroke="black" points="855.5,-235.5 855.5,-254.5 917.5,-254.5 917.5,-235.5 855.5,-235.5"/>
<text text-anchor="middle" x="886.5" y="-242.5" font-family="Helvetica,sans-Serif" font-size="10.00">Scene.hpp</text>
</a>
</g>
</g>
<!-- Node26&#45;&gt;Node27 -->
<g id="edge38" class="edge">
<title>Node26&#45;&gt;Node27</title>
<path fill="none" stroke="midnightblue" d="M544.01,-292.94C623.14,-282.1 773.02,-261.55 845.38,-251.64"/>
<polygon fill="midnightblue" stroke="midnightblue" points="846.04,-255.08 855.47,-250.25 845.09,-248.14 846.04,-255.08"/>
</g>
<!-- Node30 -->
<g id="node30" class="node">
<title>Node30</title>
<g id="a_node30"><a xlink:title=" ">
<polygon fill="none" stroke="#bfbfbf" points="396.5,-235.5 396.5,-254.5 508.5,-254.5 508.5,-235.5 396.5,-235.5"/>
<text text-anchor="middle" x="452.5" y="-242.5" font-family="Helvetica,sans-Serif" font-size="10.00">Events/EventsEnum.h</text>
</a>
</g>
</g>
<!-- Node26&#45;&gt;Node30 -->
<g id="edge54" class="edge">
<title>Node26&#45;&gt;Node30</title>
<path fill="none" stroke="midnightblue" d="M485.89,-291.08C480.24,-283.46 471.96,-272.26 465.05,-262.94"/>
<polygon fill="midnightblue" stroke="midnightblue" points="467.75,-260.7 458.98,-254.75 462.12,-264.87 467.75,-260.7"/>
</g>
<!-- Node27&#45;&gt;Node18 -->
<g id="edge39" class="edge">
<title>Node27&#45;&gt;Node18</title>
<path fill="none" stroke="midnightblue" d="M873.36,-235.31C832.53,-208.3 707.57,-125.67 657.04,-92.25"/>
<polygon fill="midnightblue" stroke="midnightblue" points="658.78,-89.2 648.51,-86.61 654.92,-95.04 658.78,-89.2"/>
</g>
<!-- Node28 -->
<g id="node28" class="node">
<title>Node28</title>
<g id="a_node28"><a xlink:href="GameObject_8hpp.html" target="_top" xlink:title=" ">
<polygon fill="none" stroke="black" points="954,-123.5 954,-142.5 1043,-142.5 1043,-123.5 954,-123.5"/>
<text text-anchor="middle" x="998.5" y="-130.5" font-family="Helvetica,sans-Serif" font-size="10.00">GameObject.hpp</text>
</a>
</g>
</g>
<!-- Node27&#45;&gt;Node28 -->
<g id="edge40" class="edge">
<title>Node27&#45;&gt;Node28</title>
<path fill="none" stroke="midnightblue" d="M895.29,-235.37C914.1,-216.89 958.49,-173.29 982.47,-149.74"/>
<polygon fill="midnightblue" stroke="midnightblue" points="985.07,-152.1 989.75,-142.59 980.17,-147.1 985.07,-152.1"/>
</g>
<!-- Node29 -->
<g id="node29" class="node">
<title>Node29</title>
<g id="a_node29"><a xlink:href="Camera_8hpp.html" target="_top" xlink:title=" ">
<polygon fill="none" stroke="black" points="853.5,-179.5 853.5,-198.5 921.5,-198.5 921.5,-179.5 853.5,-179.5"/>
<text text-anchor="middle" x="887.5" y="-186.5" font-family="Helvetica,sans-Serif" font-size="10.00">Camera.hpp</text>
</a>
</g>
</g>
<!-- Node27&#45;&gt;Node29 -->
<g id="edge51" class="edge">
<title>Node27&#45;&gt;Node29</title>
<path fill="none" stroke="midnightblue" d="M886.67,-235.08C886.8,-228.01 886.98,-217.86 887.15,-208.99"/>
<polygon fill="midnightblue" stroke="midnightblue" points="890.65,-208.81 887.34,-198.75 883.65,-208.68 890.65,-208.81"/>
</g>
<!-- Node28&#45;&gt;Node5 -->
<g id="edge41" class="edge">
<title>Node28&#45;&gt;Node5</title>
<path fill="none" stroke="midnightblue" d="M1018.78,-123.44C1039.85,-114.56 1073.02,-100.56 1096.99,-90.45"/>
<polygon fill="midnightblue" stroke="midnightblue" points="1098.46,-93.63 1106.31,-86.52 1095.74,-87.18 1098.46,-93.63"/>
</g>
<!-- Node28&#45;&gt;Node6 -->
<g id="edge45" class="edge">
<title>Node28&#45;&gt;Node6</title>
<path fill="none" stroke="midnightblue" d="M995.13,-123.11C989.69,-109.68 977.92,-84 961.5,-67 946.21,-51.17 924.97,-38.27 907.93,-29.47"/>
<polygon fill="midnightblue" stroke="midnightblue" points="909.48,-26.33 898.97,-25.01 906.36,-32.6 909.48,-26.33"/>
</g>
<!-- Node28&#45;&gt;Node7 -->
<g id="edge47" class="edge">
<title>Node28&#45;&gt;Node7</title>
<path fill="none" stroke="midnightblue" d="M1043.29,-126.31C1084.51,-120.05 1146.76,-107.98 1197.5,-87 1228.99,-73.98 1261.58,-52.38 1283.43,-36.52"/>
<polygon fill="midnightblue" stroke="midnightblue" points="1285.57,-39.29 1291.54,-30.54 1281.42,-33.66 1285.57,-39.29"/>
</g>
<!-- Node28&#45;&gt;Node8 -->
<g id="edge48" class="edge">
<title>Node28&#45;&gt;Node8</title>
<path fill="none" stroke="midnightblue" d="M999,-123.43C999.5,-110.84 999.59,-86.71 994.5,-67 992.09,-57.68 987.95,-48 983.78,-39.64"/>
<polygon fill="midnightblue" stroke="midnightblue" points="986.73,-37.74 978.96,-30.53 980.54,-41.01 986.73,-37.74"/>
</g>
<!-- Node28&#45;&gt;Node9 -->
<g id="edge49" class="edge">
<title>Node28&#45;&gt;Node9</title>
<path fill="none" stroke="midnightblue" d="M1004.89,-123.32C1018,-105.5 1048.3,-64.32 1067.22,-38.61"/>
<polygon fill="midnightblue" stroke="midnightblue" points="1070.06,-40.67 1073.16,-30.55 1064.42,-36.52 1070.06,-40.67"/>
</g>
<!-- Node28&#45;&gt;Node10 -->
<g id="edge50" class="edge">
<title>Node28&#45;&gt;Node10</title>
<path fill="none" stroke="midnightblue" d="M1043.13,-126.01C1089.74,-118.87 1158.65,-105.53 1177.5,-87 1189.65,-75.06 1194.28,-56.23 1195.93,-41.03"/>
<polygon fill="midnightblue" stroke="midnightblue" points="1199.45,-40.98 1196.68,-30.76 1192.47,-40.48 1199.45,-40.98"/>
</g>
<!-- Node28&#45;&gt;Node12 -->
<g id="edge43" class="edge">
<title>Node28&#45;&gt;Node12</title>
<path fill="none" stroke="midnightblue" d="M953.82,-131.11C804.43,-127.89 322.41,-115.65 147.35,-86.86"/>
<polygon fill="midnightblue" stroke="midnightblue" points="147.71,-83.37 137.26,-85.12 146.52,-90.27 147.71,-83.37"/>
</g>
<!-- Node28&#45;&gt;Node19 -->
<g id="edge44" class="edge">
<title>Node28&#45;&gt;Node19</title>
<path fill="none" stroke="midnightblue" d="M972.36,-123.44C943.25,-113.92 896.21,-98.52 865.07,-88.33"/>
<polygon fill="midnightblue" stroke="midnightblue" points="866.15,-85 855.56,-85.22 863.98,-91.66 866.15,-85"/>
</g>
<!-- Node28&#45;&gt;Node20 -->
<g id="edge46" class="edge">
<title>Node28&#45;&gt;Node20</title>
<path fill="none" stroke="midnightblue" d="M955.76,-123.42C917.96,-115.56 861.15,-103.08 802.89,-86.89"/>
<polygon fill="midnightblue" stroke="midnightblue" points="803.72,-83.49 793.14,-84.15 801.82,-90.23 803.72,-83.49"/>
</g>
<!-- Node28&#45;&gt;Node21 -->
<g id="edge42" class="edge">
<title>Node28&#45;&gt;Node21</title>
<path fill="none" stroke="midnightblue" d="M984.68,-123.32C971.27,-114.9 950.68,-101.97 934.91,-92.07"/>
<polygon fill="midnightblue" stroke="midnightblue" points="936.61,-89.01 926.28,-86.65 932.89,-94.94 936.61,-89.01"/>
</g>
<!-- Node29&#45;&gt;Node11 -->
<g id="edge53" class="edge">
<title>Node29&#45;&gt;Node11</title>
<path fill="none" stroke="midnightblue" d="M873.69,-179.37C843.36,-160.41 770.7,-115 733.81,-91.94"/>
<polygon fill="midnightblue" stroke="midnightblue" points="735.58,-88.92 725.25,-86.59 731.87,-94.86 735.58,-88.92"/>
</g>
<!-- Node29&#45;&gt;Node28 -->
<g id="edge52" class="edge">
<title>Node29&#45;&gt;Node28</title>
<path fill="none" stroke="midnightblue" d="M905.33,-179.32C923.22,-170.62 950.98,-157.12 971.55,-147.11"/>
<polygon fill="midnightblue" stroke="midnightblue" points="973.25,-150.18 980.71,-142.65 970.19,-143.88 973.25,-150.18"/>
</g>
</g>
</svg>
        <g id="navigator" transform="translate(0 0)" fill="#404254">
                <rect fill="#f2f5e9" fill-opacity="0.5" stroke="#606060" stroke-width=".5" x="0" y="0" width="60" height="60"/>
                <use id="zoomplus" xlink:href="#zoomPlus" x="17" y="9" onmousedown="handleZoom(evt,'in')"/>
                <use id="zoomminus" xlink:href="#zoomMin" x="42" y="9" onmousedown="handleZoom(evt,'out')"/>
                <use id="reset" xlink:href="#resetDef" x="30" y="36" onmousedown="handleReset()"/>
                <g id="arrowUp" xlink:href="#dirArrow" transform="translate(30 24)" onmousedown="handlePan(0,-1)">
                  <use xlink:href="#rim" fill="#404040">
                        <set attributeName="fill" to="#808080" begin="arrowUp.mouseover" end="arrowUp.mouseout"/>
                  </use>
                  <path fill="none" stroke="white" stroke-width="1.5" d="M0,-3.0v7 M-2.5,-0.5L0,-3.0L2.5,-0.5"/>
                </g>
                <g id="arrowRight" xlink:href="#dirArrow" transform="rotate(90) translate(36 -43)" onmousedown="handlePan(1,0)">
                  <use xlink:href="#rim" fill="#404040">
                        <set attributeName="fill" to="#808080" begin="arrowRight.mouseover" end="arrowRight.mouseout"/>
                  </use>
                  <path fill="none" stroke="white" stroke-width="1.5" d="M0,-3.0v7 M-2.5,-0.5L0,-3.0L2.5,-0.5"/>
                </g>
                <g id="arrowDown" xlink:href="#dirArrow" transform="rotate(180) translate(-30 -48)" onmousedown="handlePan(0,1)">
                  <use xlink:href="#rim" fill="#404040">
                        <set attributeName="fill" to="#808080" begin="arrowDown.mouseover" end="arrowDown.mouseout"/>
                  </use>
                  <path fill="none" stroke="white" stroke-width="1.5" d="M0,-3.0v7 M-2.5,-0.5L0,-3.0L2.5,-0.5"/>
                </g>
                <g id="arrowLeft" xlink:href="#dirArrow" transform="rotate(270) translate(-36 17)" onmousedown="handlePan(-1,0)">
                  <use xlink:href="#rim" fill="#404040">
                        <set attributeName="fill" to="#808080" begin="arrowLeft.mouseover" end="arrowLeft.mouseout"/>
                  </use>
                  <path fill="none" stroke="white" stroke-width="1.5" d="M0,-3.0v7 M-2.5,-0.5L0,-3.0L2.5,-0.5"/>
                </g>
        </g>
        <svg viewBox="0 0 15 15" width="100%" height="30px" preserveAspectRatio="xMaxYMin meet">
         <g id="arrow_out" transform="scale(0.3 0.3)">
          <a xlink:href="AnimatedSprite_8cpp__incl_org.svg" target="_base">
           <rect id="button" ry="5" rx="5" y="6" x="6" height="38" width="38"
                fill="#f2f5e9" fill-opacity="0.5" stroke="#606060" stroke-width="1.0"/>
           <path id="arrow"
             d="M 11.500037,31.436501 C 11.940474,20.09759 22.043105,11.32322 32.158766,21.979434 L 37.068811,17.246167 C 37.068811,17.246167 37.088388,32 37.088388,32 L 22.160133,31.978069 C 22.160133,31.978069 26.997745,27.140456 26.997745,27.140456 C 18.528582,18.264221 13.291696,25.230495 11.500037,31.436501 z"
             style="fill:#404040;"/>
          </a>
         </g>
        </svg>
</svg>
