<?xml version="1.0" encoding="UTF-8" standalone="no"?>
<!DOCTYPE svg PUBLIC "-//W3C//DTD SVG 1.1//EN"
 "http://www.w3.org/Graphics/SVG/1.1/DTD/svg11.dtd">
<!-- Generated by graphviz version 2.44.0 ()
 -->
<!-- Title: includes/spic&#45;prj&#45;api/Animator.hpp Pages: 1 -->
<!--zoomable 251 -->
<svg id="main" version="1.1" xmlns="http://www.w3.org/2000/svg" xmlns:xlink="http://www.w3.org/1999/xlink" xml:space="preserve" onload="init(evt)">
<style type="text/css"><![CDATA[
.edge:hover path { stroke: red; }
.edge:hover polygon { stroke: red; fill: red; }
]]></style>
<script type="text/javascript"><![CDATA[
var edges = document.getElementsByTagName('g');
if (edges && edges.length) {
  for (var i=0;i<edges.length;i++) {
    if (edges[i].id.substr(0,4)=='edge') {
      edges[i].setAttribute('class','edge');
    }
  }
}
]]></script>
        <defs>
                <circle id="rim" cx="0" cy="0" r="7"/>
                <circle id="rim2" cx="0" cy="0" r="3.5"/>
                <g id="zoomPlus">
                        <use xlink:href="#rim" fill="#404040">
                                <set attributeName="fill" to="#808080" begin="zoomplus.mouseover" end="zoomplus.mouseout"/>
                        </use>
                        <path d="M-4,0h8M0,-4v8" fill="none" stroke="white" stroke-width="1.5" pointer-events="none"/>
                </g>
                <g id="zoomMin">
                        <use xlink:href="#rim" fill="#404040">
                                <set attributeName="fill" to="#808080" begin="zoomminus.mouseover" end="zoomminus.mouseout"/>
                        </use>
                        <path d="M-4,0h8" fill="none" stroke="white" stroke-width="1.5" pointer-events="none"/>
                </g>
                <g id="dirArrow">
                        <path fill="none" stroke="white" stroke-width="1.5" d="M0,-3.0v7 M-2.5,-0.5L0,-3.0L2.5,-0.5"/>
                </g>
               <g id="resetDef">
                       <use xlink:href="#rim2" fill="#404040">
                               <set attributeName="fill" to="#808080" begin="reset.mouseover" end="reset.mouseout"/>
                       </use>
               </g>
        </defs>

<script type="text/javascript">
var viewWidth = 989;
var viewHeight = 251;
var sectionId = 'dynsection-1';
</script>
<script xlink:href="svgpan.js"/>
<svg id="graph" class="graph">
<g id="viewport">
<title>includes/spic&#45;prj&#45;api/Animator.hpp</title>
<!-- Node1 -->
<g id="node1" class="node">
<title>Node1</title>
<g id="a_node1"><a xlink:title=" ">
<polygon fill="#bfbfbf" stroke="black" points="202.5,-212.5 202.5,-242.5 305.5,-242.5 305.5,-212.5 202.5,-212.5"/>
<text text-anchor="start" x="210.5" y="-230.5" font-family="Helvetica,sans-Serif" font-size="10.00">includes/spic&#45;prj&#45;api</text>
<text text-anchor="middle" x="254" y="-219.5" font-family="Helvetica,sans-Serif" font-size="10.00">/Animator.hpp</text>
</a>
</g>
</g>
<!-- Node2 -->
<g id="node2" class="node">
<title>Node2</title>
<g id="a_node2"><a xlink:href="Animator_8cpp.html" target="_top" xlink:title=" ">
<polygon fill="none" stroke="black" points="0,-145.5 0,-164.5 110,-164.5 110,-145.5 0,-145.5"/>
<text text-anchor="middle" x="55" y="-152.5" font-family="Helvetica,sans-Serif" font-size="10.00">src/API/Animator.cpp</text>
</a>
</g>
</g>
<!-- Node1&#45;&gt;Node2 -->
<g id="edge1" class="edge">
<title>Node1&#45;&gt;Node2</title>
<path fill="none" stroke="midnightblue" d="M204.64,-209.01C164.67,-194.85 110.08,-175.51 79.09,-164.53"/>
<polygon fill="midnightblue" stroke="midnightblue" points="203.61,-212.36 214.21,-212.4 205.95,-205.76 203.61,-212.36"/>
</g>
<!-- Node3 -->
<g id="node3" class="node">
<title>Node3</title>
<g id="a_node3"><a xlink:href="Scene_8cpp.html" target="_top" xlink:title=" ">
<polygon fill="none" stroke="black" points="128,-145.5 128,-164.5 238,-164.5 238,-145.5 128,-145.5"/>
<text text-anchor="middle" x="183" y="-152.5" font-family="Helvetica,sans-Serif" font-size="10.00">src/Scene/Scene.cpp</text>
</a>
</g>
</g>
<!-- Node1&#45;&gt;Node3 -->
<g id="edge2" class="edge">
<title>Node1&#45;&gt;Node3</title>
<path fill="none" stroke="midnightblue" d="M232.49,-205.14C218.91,-191.65 202.08,-174.94 191.96,-164.89"/>
<polygon fill="midnightblue" stroke="midnightblue" points="230.07,-207.67 239.63,-212.23 235,-202.7 230.07,-207.67"/>
</g>
<!-- Node4 -->
<g id="node4" class="node">
<title>Node4</title>
<g id="a_node4"><a xlink:href="GameObjectBuilder_8hpp.html" target="_top" xlink:title=" ">
<polygon fill="none" stroke="black" points="256.5,-134.5 256.5,-175.5 395.5,-175.5 395.5,-134.5 256.5,-134.5"/>
<text text-anchor="start" x="264.5" y="-163.5" font-family="Helvetica,sans-Serif" font-size="10.00">includes/platformer</text>
<text text-anchor="start" x="264.5" y="-152.5" font-family="Helvetica,sans-Serif" font-size="10.00">&#45;engine/Builder/GameObject</text>
<text text-anchor="middle" x="326" y="-141.5" font-family="Helvetica,sans-Serif" font-size="10.00">Builder.hpp</text>
</a>
</g>
</g>
<!-- Node1&#45;&gt;Node4 -->
<g id="edge3" class="edge">
<title>Node1&#45;&gt;Node4</title>
<path fill="none" stroke="midnightblue" d="M275.85,-205.1C285.44,-195.71 296.63,-184.76 305.99,-175.59"/>
<polygon fill="midnightblue" stroke="midnightblue" points="273.27,-202.74 268.57,-212.23 278.16,-207.74 273.27,-202.74"/>
</g>
<!-- Node6 -->
<g id="node6" class="node">
<title>Node6</title>
<g id="a_node6"><a xlink:href="RenderSystem_8hpp.html" target="_top" xlink:title=" ">
<polygon fill="none" stroke="black" points="414,-140 414,-170 582,-170 582,-140 414,-140"/>
<text text-anchor="start" x="422" y="-158" font-family="Helvetica,sans-Serif" font-size="10.00">includes/platformer</text>
<text text-anchor="middle" x="498" y="-147" font-family="Helvetica,sans-Serif" font-size="10.00">&#45;engine/Texture/RenderSystem.hpp</text>
</a>
</g>
</g>
<!-- Node1&#45;&gt;Node6 -->
<g id="edge5" class="edge">
<title>Node1&#45;&gt;Node6</title>
<path fill="none" stroke="midnightblue" d="M312.27,-209.66C354.05,-197.59 409.72,-181.51 449.18,-170.11"/>
<polygon fill="midnightblue" stroke="midnightblue" points="311.13,-206.35 302.5,-212.49 313.08,-213.07 311.13,-206.35"/>
</g>
<!-- Node5 -->
<g id="node5" class="node">
<title>Node5</title>
<g id="a_node5"><a xlink:href="GameObjectBuilder_8cpp.html" target="_top" xlink:title=" ">
<polygon fill="none" stroke="black" points="241.5,-73 241.5,-92 410.5,-92 410.5,-73 241.5,-73"/>
<text text-anchor="middle" x="326" y="-80" font-family="Helvetica,sans-Serif" font-size="10.00">src/Builder/GameObjectBuilder.cpp</text>
</a>
</g>
</g>
<!-- Node4&#45;&gt;Node5 -->
<g id="edge4" class="edge">
<title>Node4&#45;&gt;Node5</title>
<path fill="none" stroke="midnightblue" d="M326,-124.1C326,-112.53 326,-100.18 326,-92.17"/>
<polygon fill="midnightblue" stroke="midnightblue" points="322.5,-124.36 326,-134.36 329.5,-124.36 322.5,-124.36"/>
</g>
<!-- Node7 -->
<g id="node7" class="node">
<title>Node7</title>
<g id="a_node7"><a xlink:href="RenderSystem_8cpp.html" target="_top" xlink:title=" ">
<polygon fill="none" stroke="black" points="365,-6 365,-25 515,-25 515,-6 365,-6"/>
<text text-anchor="middle" x="440" y="-13" font-family="Helvetica,sans-Serif" font-size="10.00">src/Texture/RenderSystem.cpp</text>
</a>
</g>
</g>
<!-- Node6&#45;&gt;Node7 -->
<g id="edge6" class="edge">
<title>Node6&#45;&gt;Node7</title>
<path fill="none" stroke="midnightblue" d="M488.11,-130.56C474.99,-99.46 452.47,-46.05 443.67,-25.2"/>
<polygon fill="midnightblue" stroke="midnightblue" points="484.9,-131.95 492.01,-139.8 491.35,-129.23 484.9,-131.95"/>
</g>
<!-- Node8 -->
<g id="node8" class="node">
<title>Node8</title>
<g id="a_node8"><a xlink:href="Engine_8hpp.html" target="_top" xlink:title=" ">
<polygon fill="none" stroke="black" points="524.5,-67.5 524.5,-97.5 655.5,-97.5 655.5,-67.5 524.5,-67.5"/>
<text text-anchor="start" x="532.5" y="-85.5" font-family="Helvetica,sans-Serif" font-size="10.00">includes/platformer</text>
<text text-anchor="middle" x="590" y="-74.5" font-family="Helvetica,sans-Serif" font-size="10.00">&#45;engine/Engine/Engine.hpp</text>
</a>
</g>
</g>
<!-- Node6&#45;&gt;Node8 -->
<g id="edge7" class="edge">
<title>Node6&#45;&gt;Node8</title>
<path fill="none" stroke="midnightblue" d="M524.61,-133.61C539.72,-122.03 558.25,-107.83 571.72,-97.5"/>
<polygon fill="midnightblue" stroke="midnightblue" points="522.43,-130.87 516.62,-139.73 526.68,-136.43 522.43,-130.87"/>
</g>
<!-- Node8&#45;&gt;Node7 -->
<g id="edge11" class="edge">
<title>Node8&#45;&gt;Node7</title>
<path fill="none" stroke="midnightblue" d="M547.99,-63.3C519.06,-50.76 481.96,-34.68 459.63,-25.01"/>
<polygon fill="midnightblue" stroke="midnightblue" points="546.89,-66.63 557.45,-67.4 549.67,-60.21 546.89,-66.63"/>
</g>
<!-- Node9 -->
<g id="node9" class="node">
<title>Node9</title>
<g id="a_node9"><a xlink:href="Engine_8cpp.html" target="_top" xlink:title=" ">
<polygon fill="none" stroke="black" points="533.5,-6 533.5,-25 646.5,-25 646.5,-6 533.5,-6"/>
<text text-anchor="middle" x="590" y="-13" font-family="Helvetica,sans-Serif" font-size="10.00">src/Engine/Engine.cpp</text>
</a>
</g>
</g>
<!-- Node8&#45;&gt;Node9 -->
<g id="edge8" class="edge">
<title>Node8&#45;&gt;Node9</title>
<path fill="none" stroke="midnightblue" d="M590,-57.25C590,-46.02 590,-33.38 590,-25.19"/>
<polygon fill="midnightblue" stroke="midnightblue" points="586.5,-57.4 590,-67.4 593.5,-57.4 586.5,-57.4"/>
</g>
<!-- Node10 -->
<g id="node10" class="node">
<title>Node10</title>
<g id="a_node10"><a xlink:href="ClientNetworkManager_8cpp.html" target="_top" xlink:title=" ">
<polygon fill="none" stroke="black" points="664.5,-0.5 664.5,-30.5 811.5,-30.5 811.5,-0.5 664.5,-0.5"/>
<text text-anchor="start" x="672.5" y="-18.5" font-family="Helvetica,sans-Serif" font-size="10.00">src/Networking/ClientNetwork</text>
<text text-anchor="middle" x="738" y="-7.5" font-family="Helvetica,sans-Serif" font-size="10.00">Manager.cpp</text>
</a>
</g>
</g>
<!-- Node8&#45;&gt;Node10 -->
<g id="edge9" class="edge">
<title>Node8&#45;&gt;Node10</title>
<path fill="none" stroke="midnightblue" d="M631.51,-63.27C655.08,-52.92 684.14,-40.15 705.95,-30.58"/>
<polygon fill="midnightblue" stroke="midnightblue" points="629.86,-60.17 622.11,-67.4 632.68,-66.58 629.86,-60.17"/>
</g>
<!-- Node11 -->
<g id="node11" class="node">
<title>Node11</title>
<g id="a_node11"><a xlink:href="ServerNetworkManager_8cpp.html" target="_top" xlink:title=" ">
<polygon fill="none" stroke="black" points="829.5,-0.5 829.5,-30.5 980.5,-30.5 980.5,-0.5 829.5,-0.5"/>
<text text-anchor="start" x="837.5" y="-18.5" font-family="Helvetica,sans-Serif" font-size="10.00">src/Networking/ServerNetwork</text>
<text text-anchor="middle" x="905" y="-7.5" font-family="Helvetica,sans-Serif" font-size="10.00">Manager.cpp</text>
</a>
</g>
</g>
<!-- Node8&#45;&gt;Node11 -->
<g id="edge10" class="edge">
<title>Node8&#45;&gt;Node11</title>
<path fill="none" stroke="midnightblue" d="M665.52,-65.92C717.7,-55.15 786.52,-40.95 836.99,-30.53"/>
<polygon fill="midnightblue" stroke="midnightblue" points="664.74,-62.5 655.65,-67.95 666.15,-69.36 664.74,-62.5"/>
</g>
</g>
</svg>
        <g id="navigator" transform="translate(0 0)" fill="#404254">
                <rect fill="#f2f5e9" fill-opacity="0.5" stroke="#606060" stroke-width=".5" x="0" y="0" width="60" height="60"/>
                <use id="zoomplus" xlink:href="#zoomPlus" x="17" y="9" onmousedown="handleZoom(evt,'in')"/>
                <use id="zoomminus" xlink:href="#zoomMin" x="42" y="9" onmousedown="handleZoom(evt,'out')"/>
                <use id="reset" xlink:href="#resetDef" x="30" y="36" onmousedown="handleReset()"/>
                <g id="arrowUp" xlink:href="#dirArrow" transform="translate(30 24)" onmousedown="handlePan(0,-1)">
                  <use xlink:href="#rim" fill="#404040">
                        <set attributeName="fill" to="#808080" begin="arrowUp.mouseover" end="arrowUp.mouseout"/>
                  </use>
                  <path fill="none" stroke="white" stroke-width="1.5" d="M0,-3.0v7 M-2.5,-0.5L0,-3.0L2.5,-0.5"/>
                </g>
                <g id="arrowRight" xlink:href="#dirArrow" transform="rotate(90) translate(36 -43)" onmousedown="handlePan(1,0)">
                  <use xlink:href="#rim" fill="#404040">
                        <set attributeName="fill" to="#808080" begin="arrowRight.mouseover" end="arrowRight.mouseout"/>
                  </use>
                  <path fill="none" stroke="white" stroke-width="1.5" d="M0,-3.0v7 M-2.5,-0.5L0,-3.0L2.5,-0.5"/>
                </g>
                <g id="arrowDown" xlink:href="#dirArrow" transform="rotate(180) translate(-30 -48)" onmousedown="handlePan(0,1)">
                  <use xlink:href="#rim" fill="#404040">
                        <set attributeName="fill" to="#808080" begin="arrowDown.mouseover" end="arrowDown.mouseout"/>
                  </use>
                  <path fill="none" stroke="white" stroke-width="1.5" d="M0,-3.0v7 M-2.5,-0.5L0,-3.0L2.5,-0.5"/>
                </g>
                <g id="arrowLeft" xlink:href="#dirArrow" transform="rotate(270) translate(-36 17)" onmousedown="handlePan(-1,0)">
                  <use xlink:href="#rim" fill="#404040">
                        <set attributeName="fill" to="#808080" begin="arrowLeft.mouseover" end="arrowLeft.mouseout"/>
                  </use>
                  <path fill="none" stroke="white" stroke-width="1.5" d="M0,-3.0v7 M-2.5,-0.5L0,-3.0L2.5,-0.5"/>
                </g>
        </g>
        <svg viewBox="0 0 15 15" width="100%" height="30px" preserveAspectRatio="xMaxYMin meet">
         <g id="arrow_out" transform="scale(0.3 0.3)">
          <a xlink:href="Animator_8hpp__dep__incl_org.svg" target="_base">
           <rect id="button" ry="5" rx="5" y="6" x="6" height="38" width="38"
                fill="#f2f5e9" fill-opacity="0.5" stroke="#606060" stroke-width="1.0"/>
           <path id="arrow"
             d="M 11.500037,31.436501 C 11.940474,20.09759 22.043105,11.32322 32.158766,21.979434 L 37.068811,17.246167 C 37.068811,17.246167 37.088388,32 37.088388,32 L 22.160133,31.978069 C 22.160133,31.978069 26.997745,27.140456 26.997745,27.140456 C 18.528582,18.264221 13.291696,25.230495 11.500037,31.436501 z"
             style="fill:#404040;"/>
          </a>
         </g>
        </svg>
</svg>
