<?xml version="1.0" encoding="UTF-8" standalone="no"?>
<!DOCTYPE svg PUBLIC "-//W3C//DTD SVG 1.1//EN"
 "http://www.w3.org/Graphics/SVG/1.1/DTD/svg11.dtd">
<!-- Generated by graphviz version 2.44.0 ()
 -->
<!-- Title: includes/platformer&#45;engine/Texture/AnimatedSprite.hpp Pages: 1 -->
<svg width="2335pt" height="329pt"
 viewBox="0.00 0.00 2334.50 329.00" xmlns="http://www.w3.org/2000/svg" xmlns:xlink="http://www.w3.org/1999/xlink">
<g id="graph0" class="graph" transform="scale(1 1) rotate(0) translate(4 325)">
<title>includes/platformer&#45;engine/Texture/AnimatedSprite.hpp</title>
<!-- Node1 -->
<g id="node1" class="node">
<title>Node1</title>
<g id="a_node1"><a xlink:title=" ">
<polygon fill="#bfbfbf" stroke="black" points="362,-290.5 362,-320.5 533,-320.5 533,-290.5 362,-290.5"/>
<text text-anchor="start" x="370" y="-308.5" font-family="Helvetica,sans-Serif" font-size="10.00">includes/platformer</text>
<text text-anchor="middle" x="447.5" y="-297.5" font-family="Helvetica,sans-Serif" font-size="10.00">&#45;engine/Texture/AnimatedSprite.hpp</text>
</a>
</g>
</g>
<!-- Node2 -->
<g id="node2" class="node">
<title>Node2</title>
<g id="a_node2"><a xlink:href="AnimatedSprite_8cpp.html" target="_top" xlink:title=" ">
<polygon fill="none" stroke="black" points="212,-229 212,-248 365,-248 365,-229 212,-229"/>
<text text-anchor="middle" x="288.5" y="-236" font-family="Helvetica,sans-Serif" font-size="10.00">src/Texture/AnimatedSprite.cpp</text>
</a>
</g>
</g>
<!-- Node1&#45;&gt;Node2 -->
<g id="edge1" class="edge">
<title>Node1&#45;&gt;Node2</title>
<path fill="none" stroke="midnightblue" d="M403.37,-286.46C372.65,-273.9 333.08,-257.72 309.31,-248.01"/>
<polygon fill="midnightblue" stroke="midnightblue" points="402.42,-289.85 413,-290.4 405.07,-283.37 402.42,-289.85"/>
</g>
<!-- Node3 -->
<g id="node3" class="node">
<title>Node3</title>
<g id="a_node3"><a xlink:href="GameObjectBuilder_8hpp.html" target="_top" xlink:title=" ">
<polygon fill="none" stroke="black" points="324,-145.5 324,-186.5 463,-186.5 463,-145.5 324,-145.5"/>
<text text-anchor="start" x="332" y="-174.5" font-family="Helvetica,sans-Serif" font-size="10.00">includes/platformer</text>
<text text-anchor="start" x="332" y="-163.5" font-family="Helvetica,sans-Serif" font-size="10.00">&#45;engine/Builder/GameObject</text>
<text text-anchor="middle" x="393.5" y="-152.5" font-family="Helvetica,sans-Serif" font-size="10.00">Builder.hpp</text>
</a>
</g>
</g>
<!-- Node1&#45;&gt;Node3 -->
<g id="edge2" class="edge">
<title>Node1&#45;&gt;Node3</title>
<path fill="none" stroke="midnightblue" d="M429.26,-282.23C423.15,-273.81 416.8,-263.87 412.5,-254 402.94,-232.03 397.99,-204.77 395.57,-186.68"/>
<polygon fill="midnightblue" stroke="midnightblue" points="426.62,-284.54 435.46,-290.38 432.19,-280.3 426.62,-284.54"/>
</g>
<!-- Node9 -->
<g id="node9" class="node">
<title>Node9</title>
<g id="a_node9"><a xlink:href="ObjectBuilder_8hpp.html" target="_top" xlink:title=" ">
<polygon fill="none" stroke="black" points="422,-223.5 422,-253.5 583,-253.5 583,-223.5 422,-223.5"/>
<text text-anchor="start" x="430" y="-241.5" font-family="Helvetica,sans-Serif" font-size="10.00">includes/platformer</text>
<text text-anchor="middle" x="502.5" y="-230.5" font-family="Helvetica,sans-Serif" font-size="10.00">&#45;engine/Builder/ObjectBuilder.hpp</text>
</a>
</g>
</g>
<!-- Node1&#45;&gt;Node9 -->
<g id="edge8" class="edge">
<title>Node1&#45;&gt;Node9</title>
<path fill="none" stroke="midnightblue" d="M465.92,-282.74C474.05,-273.12 483.39,-262.09 490.59,-253.58"/>
<polygon fill="midnightblue" stroke="midnightblue" points="463.22,-280.5 459.43,-290.4 468.57,-285.02 463.22,-280.5"/>
</g>
<!-- Node10 -->
<g id="node10" class="node">
<title>Node10</title>
<g id="a_node10"><a xlink:href="Animator_8hpp.html" target="_top" xlink:title=" ">
<polygon fill="none" stroke="black" points="1107,-223.5 1107,-253.5 1210,-253.5 1210,-223.5 1107,-223.5"/>
<text text-anchor="start" x="1115" y="-241.5" font-family="Helvetica,sans-Serif" font-size="10.00">includes/spic&#45;prj&#45;api</text>
<text text-anchor="middle" x="1158.5" y="-230.5" font-family="Helvetica,sans-Serif" font-size="10.00">/Animator.hpp</text>
</a>
</g>
</g>
<!-- Node1&#45;&gt;Node10 -->
<g id="edge10" class="edge">
<title>Node1&#45;&gt;Node10</title>
<path fill="none" stroke="midnightblue" d="M543.55,-295.72C696,-281.78 988.22,-255.07 1106.7,-244.24"/>
<polygon fill="midnightblue" stroke="midnightblue" points="542.9,-292.26 533.26,-296.66 543.54,-299.23 542.9,-292.26"/>
</g>
<!-- Node4 -->
<g id="node4" class="node">
<title>Node4</title>
<g id="a_node4"><a xlink:href="GameObjectBuilder_8cpp.html" target="_top" xlink:title=" ">
<polygon fill="none" stroke="black" points="97,-78.5 97,-97.5 266,-97.5 266,-78.5 97,-78.5"/>
<text text-anchor="middle" x="181.5" y="-85.5" font-family="Helvetica,sans-Serif" font-size="10.00">src/Builder/GameObjectBuilder.cpp</text>
</a>
</g>
</g>
<!-- Node3&#45;&gt;Node4 -->
<g id="edge3" class="edge">
<title>Node3&#45;&gt;Node4</title>
<path fill="none" stroke="midnightblue" d="M329.32,-141.99C287.44,-126.98 235.19,-108.25 205.36,-97.55"/>
<polygon fill="midnightblue" stroke="midnightblue" points="328.31,-145.35 338.9,-145.43 330.67,-138.76 328.31,-145.35"/>
</g>
<!-- Node5 -->
<g id="node5" class="node">
<title>Node5</title>
<g id="a_node5"><a xlink:href="ServerNetworkManager_8cpp.html" target="_top" xlink:title=" ">
<polygon fill="none" stroke="black" points="0,-0.5 0,-30.5 151,-30.5 151,-0.5 0,-0.5"/>
<text text-anchor="start" x="8" y="-18.5" font-family="Helvetica,sans-Serif" font-size="10.00">src/Networking/ServerNetwork</text>
<text text-anchor="middle" x="75.5" y="-7.5" font-family="Helvetica,sans-Serif" font-size="10.00">Manager.cpp</text>
</a>
</g>
</g>
<!-- Node3&#45;&gt;Node5 -->
<g id="edge4" class="edge">
<title>Node3&#45;&gt;Node5</title>
<path fill="none" stroke="midnightblue" d="M352.92,-139.63C339.55,-130.58 324.94,-119.91 312.5,-109 293.58,-92.4 296.07,-79.98 274.5,-67 253.32,-54.25 196.64,-40.48 149.16,-30.55"/>
<polygon fill="midnightblue" stroke="midnightblue" points="351.22,-142.7 361.48,-145.32 355.09,-136.87 351.22,-142.7"/>
</g>
<!-- Node6 -->
<g id="node6" class="node">
<title>Node6</title>
<g id="a_node6"><a xlink:href="GameObjectDirector_8hpp.html" target="_top" xlink:title=" ">
<polygon fill="none" stroke="black" points="322,-67.5 322,-108.5 465,-108.5 465,-67.5 322,-67.5"/>
<text text-anchor="start" x="330" y="-96.5" font-family="Helvetica,sans-Serif" font-size="10.00">includes/platformer</text>
<text text-anchor="start" x="330" y="-85.5" font-family="Helvetica,sans-Serif" font-size="10.00">&#45;engine/Director/GameObject</text>
<text text-anchor="middle" x="393.5" y="-74.5" font-family="Helvetica,sans-Serif" font-size="10.00">Director.hpp</text>
</a>
</g>
</g>
<!-- Node3&#45;&gt;Node6 -->
<g id="edge5" class="edge">
<title>Node3&#45;&gt;Node6</title>
<path fill="none" stroke="midnightblue" d="M393.5,-135.3C393.5,-126.3 393.5,-116.65 393.5,-108.51"/>
<polygon fill="midnightblue" stroke="midnightblue" points="390,-135.43 393.5,-145.43 397,-135.43 390,-135.43"/>
</g>
<!-- Node7 -->
<g id="node7" class="node">
<title>Node7</title>
<g id="a_node7"><a xlink:href="GameObjectDirector_8cpp.html" target="_top" xlink:title=" ">
<polygon fill="none" stroke="black" points="305.5,-6 305.5,-25 481.5,-25 481.5,-6 305.5,-6"/>
<text text-anchor="middle" x="393.5" y="-13" font-family="Helvetica,sans-Serif" font-size="10.00">src/Director/GameObjectDirector.cpp</text>
</a>
</g>
</g>
<!-- Node6&#45;&gt;Node7 -->
<g id="edge6" class="edge">
<title>Node6&#45;&gt;Node7</title>
<path fill="none" stroke="midnightblue" d="M393.5,-57.1C393.5,-45.53 393.5,-33.18 393.5,-25.17"/>
<polygon fill="midnightblue" stroke="midnightblue" points="390,-57.36 393.5,-67.36 397,-57.36 390,-57.36"/>
</g>
<!-- Node8 -->
<g id="node8" class="node">
<title>Node8</title>
<g id="a_node8"><a xlink:href="FPSCounter_8cpp.html" target="_top" xlink:title=" ">
<polygon fill="none" stroke="black" points="169.5,-6 169.5,-25 287.5,-25 287.5,-6 169.5,-6"/>
<text text-anchor="middle" x="228.5" y="-13" font-family="Helvetica,sans-Serif" font-size="10.00">src/UI/FPSCounter.cpp</text>
</a>
</g>
</g>
<!-- Node6&#45;&gt;Node8 -->
<g id="edge7" class="edge">
<title>Node6&#45;&gt;Node8</title>
<path fill="none" stroke="midnightblue" d="M338.19,-63.37C307.42,-50.22 270.97,-34.65 248.8,-25.17"/>
<polygon fill="midnightblue" stroke="midnightblue" points="336.97,-66.65 347.54,-67.36 339.72,-60.21 336.97,-66.65"/>
</g>
<!-- Node9&#45;&gt;Node3 -->
<g id="edge9" class="edge">
<title>Node9&#45;&gt;Node3</title>
<path fill="none" stroke="midnightblue" d="M472.24,-217.93C457.18,-208.19 439.01,-196.44 423.93,-186.68"/>
<polygon fill="midnightblue" stroke="midnightblue" points="470.41,-220.91 480.7,-223.4 474.21,-215.03 470.41,-220.91"/>
</g>
<!-- Node10&#45;&gt;Node3 -->
<g id="edge13" class="edge">
<title>Node10&#45;&gt;Node3</title>
<path fill="none" stroke="midnightblue" d="M1096.62,-231.8C955.62,-218.8 611.25,-187.07 463.12,-173.42"/>
<polygon fill="midnightblue" stroke="midnightblue" points="1096.54,-235.3 1106.82,-232.74 1097.18,-228.33 1096.54,-235.3"/>
</g>
<!-- Node11 -->
<g id="node11" class="node">
<title>Node11</title>
<g id="a_node11"><a xlink:href="Animator_8cpp.html" target="_top" xlink:title=" ">
<polygon fill="none" stroke="black" points="2216.5,-6 2216.5,-25 2326.5,-25 2326.5,-6 2216.5,-6"/>
<text text-anchor="middle" x="2271.5" y="-13" font-family="Helvetica,sans-Serif" font-size="10.00">src/API/Animator.cpp</text>
</a>
</g>
</g>
<!-- Node10&#45;&gt;Node11 -->
<g id="edge11" class="edge">
<title>Node10&#45;&gt;Node11</title>
<path fill="none" stroke="midnightblue" d="M1220.45,-225.94C1382.76,-195.52 1833.69,-110.12 2207.5,-31 2216.31,-29.14 2225.77,-27.04 2234.65,-25.04"/>
<polygon fill="midnightblue" stroke="midnightblue" points="1219.36,-222.58 1210.18,-227.87 1220.65,-229.46 1219.36,-222.58"/>
</g>
<!-- Node12 -->
<g id="node12" class="node">
<title>Node12</title>
<g id="a_node12"><a xlink:href="Scene_8cpp.html" target="_top" xlink:title=" ">
<polygon fill="none" stroke="black" points="1260.5,-156.5 1260.5,-175.5 1370.5,-175.5 1370.5,-156.5 1260.5,-156.5"/>
<text text-anchor="middle" x="1315.5" y="-163.5" font-family="Helvetica,sans-Serif" font-size="10.00">src/Scene/Scene.cpp</text>
</a>
</g>
</g>
<!-- Node10&#45;&gt;Node12 -->
<g id="edge12" class="edge">
<title>Node10&#45;&gt;Node12</title>
<path fill="none" stroke="midnightblue" d="M1199.26,-219.2C1230.61,-205.12 1272.51,-186.3 1296.5,-175.53"/>
<polygon fill="midnightblue" stroke="midnightblue" points="1197.58,-216.11 1189.89,-223.4 1200.45,-222.5 1197.58,-216.11"/>
</g>
<!-- Node13 -->
<g id="node13" class="node">
<title>Node13</title>
<g id="a_node13"><a xlink:href="RenderSystem_8hpp.html" target="_top" xlink:title=" ">
<polygon fill="none" stroke="black" points="1074.5,-151 1074.5,-181 1242.5,-181 1242.5,-151 1074.5,-151"/>
<text text-anchor="start" x="1082.5" y="-169" font-family="Helvetica,sans-Serif" font-size="10.00">includes/platformer</text>
<text text-anchor="middle" x="1158.5" y="-158" font-family="Helvetica,sans-Serif" font-size="10.00">&#45;engine/Texture/RenderSystem.hpp</text>
</a>
</g>
</g>
<!-- Node10&#45;&gt;Node13 -->
<g id="edge14" class="edge">
<title>Node10&#45;&gt;Node13</title>
<path fill="none" stroke="midnightblue" d="M1158.5,-213.23C1158.5,-202.57 1158.5,-190.41 1158.5,-181.25"/>
<polygon fill="midnightblue" stroke="midnightblue" points="1155,-213.23 1158.5,-223.23 1162,-213.23 1155,-213.23"/>
</g>
<!-- Node14 -->
<g id="node14" class="node">
<title>Node14</title>
<g id="a_node14"><a xlink:href="RenderSystem_8cpp.html" target="_top" xlink:title=" ">
<polygon fill="none" stroke="black" points="2048.5,-6 2048.5,-25 2198.5,-25 2198.5,-6 2048.5,-6"/>
<text text-anchor="middle" x="2123.5" y="-13" font-family="Helvetica,sans-Serif" font-size="10.00">src/Texture/RenderSystem.cpp</text>
</a>
</g>
</g>
<!-- Node13&#45;&gt;Node14 -->
<g id="edge15" class="edge">
<title>Node13&#45;&gt;Node14</title>
<path fill="none" stroke="midnightblue" d="M1231.01,-148.91C1237.93,-147.52 1244.84,-146.2 1251.5,-145 1599.79,-82.43 1690,-86.44 2039.5,-31 2051.19,-29.15 2063.78,-27.03 2075.56,-25.01"/>
<polygon fill="midnightblue" stroke="midnightblue" points="1230.01,-145.54 1220.92,-150.97 1231.41,-152.4 1230.01,-145.54"/>
</g>
<!-- Node15 -->
<g id="node15" class="node">
<title>Node15</title>
<g id="a_node15"><a xlink:href="Engine_8hpp.html" target="_top" xlink:title=" ">
<polygon fill="none" stroke="black" points="1093,-73 1093,-103 1224,-103 1224,-73 1093,-73"/>
<text text-anchor="start" x="1101" y="-91" font-family="Helvetica,sans-Serif" font-size="10.00">includes/platformer</text>
<text text-anchor="middle" x="1158.5" y="-80" font-family="Helvetica,sans-Serif" font-size="10.00">&#45;engine/Engine/Engine.hpp</text>
</a>
</g>
</g>
<!-- Node13&#45;&gt;Node15 -->
<g id="edge16" class="edge">
<title>Node13&#45;&gt;Node15</title>
<path fill="none" stroke="midnightblue" d="M1158.5,-140.59C1158.5,-128.26 1158.5,-113.72 1158.5,-103.23"/>
<polygon fill="midnightblue" stroke="midnightblue" points="1155,-140.7 1158.5,-150.7 1162,-140.71 1155,-140.7"/>
</g>
<!-- Node15&#45;&gt;Node5 -->
<g id="edge26" class="edge">
<title>Node15&#45;&gt;Node5</title>
<path fill="none" stroke="midnightblue" d="M1082.73,-85.67C915.69,-82.08 503.37,-69.74 160.5,-31 157.52,-30.66 154.5,-30.29 151.44,-29.89"/>
<polygon fill="midnightblue" stroke="midnightblue" points="1082.82,-89.17 1092.9,-85.88 1082.97,-82.17 1082.82,-89.17"/>
</g>
<!-- Node15&#45;&gt;Node7 -->
<g id="edge22" class="edge">
<title>Node15&#45;&gt;Node7</title>
<path fill="none" stroke="midnightblue" d="M1082.79,-82.26C958.77,-74.13 704.69,-55.96 490.5,-31 476.12,-29.32 460.6,-27.16 446.28,-25.02"/>
<polygon fill="midnightblue" stroke="midnightblue" points="1082.73,-85.76 1092.94,-82.92 1083.18,-78.77 1082.73,-85.76"/>
</g>
<!-- Node15&#45;&gt;Node8 -->
<g id="edge31" class="edge">
<title>Node15&#45;&gt;Node8</title>
<path fill="none" stroke="midnightblue" d="M1082.69,-85.77C932.14,-82.51 585.12,-70.93 296.5,-31 285.74,-29.51 274.14,-27.28 263.62,-25.01"/>
<polygon fill="midnightblue" stroke="midnightblue" points="1082.68,-89.27 1092.75,-85.98 1082.83,-82.27 1082.68,-89.27"/>
</g>
<!-- Node15&#45;&gt;Node11 -->
<g id="edge17" class="edge">
<title>Node15&#45;&gt;Node11</title>
<path fill="none" stroke="midnightblue" d="M1234.42,-84.62C1442.57,-77.83 2019.31,-57.15 2207.5,-31 2217.77,-29.57 2228.82,-27.33 2238.81,-25.03"/>
<polygon fill="midnightblue" stroke="midnightblue" points="1234.08,-81.13 1224.2,-84.95 1234.3,-88.13 1234.08,-81.13"/>
</g>
<!-- Node15&#45;&gt;Node14 -->
<g id="edge28" class="edge">
<title>Node15&#45;&gt;Node14</title>
<path fill="none" stroke="midnightblue" d="M1234.41,-84.92C1387.26,-80.13 1742.85,-65.93 2039.5,-31 2052.43,-29.48 2066.4,-27.29 2079.16,-25.07"/>
<polygon fill="midnightblue" stroke="midnightblue" points="1234.09,-81.43 1224.2,-85.24 1234.3,-88.43 1234.09,-81.43"/>
</g>
<!-- Node16 -->
<g id="node16" class="node">
<title>Node16</title>
<g id="a_node16"><a xlink:href="RigidBody_8cpp.html" target="_top" xlink:title=" ">
<polygon fill="none" stroke="black" points="1568.5,-6 1568.5,-25 1682.5,-25 1682.5,-6 1568.5,-6"/>
<text text-anchor="middle" x="1625.5" y="-13" font-family="Helvetica,sans-Serif" font-size="10.00">src/API/RigidBody.cpp</text>
</a>
</g>
</g>
<!-- Node15&#45;&gt;Node16 -->
<g id="edge18" class="edge">
<title>Node15&#45;&gt;Node16</title>
<path fill="none" stroke="midnightblue" d="M1234.12,-78.21C1314.95,-68.41 1446.7,-51.24 1559.5,-31 1569.08,-29.28 1579.39,-27.15 1588.95,-25.06"/>
<polygon fill="midnightblue" stroke="midnightblue" points="1233.54,-74.76 1224.04,-79.43 1234.38,-81.71 1233.54,-74.76"/>
</g>
<!-- Node17 -->
<g id="node17" class="node">
<title>Node17</title>
<g id="a_node17"><a xlink:href="CollisionBehaviour_8cpp.html" target="_top" xlink:title=" ">
<polygon fill="none" stroke="black" points="1700.5,-6 1700.5,-25 1878.5,-25 1878.5,-6 1700.5,-6"/>
<text text-anchor="middle" x="1789.5" y="-13" font-family="Helvetica,sans-Serif" font-size="10.00">src/Behaviour/CollisionBehaviour.cpp</text>
</a>
</g>
</g>
<!-- Node15&#45;&gt;Node17 -->
<g id="edge19" class="edge">
<title>Node15&#45;&gt;Node17</title>
<path fill="none" stroke="midnightblue" d="M1234.29,-80.05C1337.74,-70.34 1528.91,-51.56 1691.5,-31 1705.49,-29.23 1720.57,-27.11 1734.61,-25.04"/>
<polygon fill="midnightblue" stroke="midnightblue" points="1233.88,-76.58 1224.25,-80.99 1234.53,-83.55 1233.88,-76.58"/>
</g>
<!-- Node18 -->
<g id="node18" class="node">
<title>Node18</title>
<g id="a_node18"><a xlink:href="FPSCounterBehaviour_8cpp.html" target="_top" xlink:title=" ">
<polygon fill="none" stroke="black" points="1897,-0.5 1897,-30.5 2030,-30.5 2030,-0.5 1897,-0.5"/>
<text text-anchor="start" x="1905" y="-18.5" font-family="Helvetica,sans-Serif" font-size="10.00">src/Behaviour/FPSCounter</text>
<text text-anchor="middle" x="1963.5" y="-7.5" font-family="Helvetica,sans-Serif" font-size="10.00">Behaviour.cpp</text>
</a>
</g>
</g>
<!-- Node15&#45;&gt;Node18 -->
<g id="edge20" class="edge">
<title>Node15&#45;&gt;Node18</title>
<path fill="none" stroke="midnightblue" d="M1234.17,-83.98C1366.92,-78.06 1650.22,-62.65 1887.5,-31 1890.56,-30.59 1893.69,-30.14 1896.84,-29.65"/>
<polygon fill="midnightblue" stroke="midnightblue" points="1233.94,-80.49 1224.1,-84.42 1234.25,-87.48 1233.94,-80.49"/>
</g>
<!-- Node19 -->
<g id="node19" class="node">
<title>Node19</title>
<g id="a_node19"><a xlink:href="Debug_8cpp.html" target="_top" xlink:title=" ">
<polygon fill="none" stroke="black" points="499.5,-6 499.5,-25 609.5,-25 609.5,-6 499.5,-6"/>
<text text-anchor="middle" x="554.5" y="-13" font-family="Helvetica,sans-Serif" font-size="10.00">src/Debug/Debug.cpp</text>
</a>
</g>
</g>
<!-- Node15&#45;&gt;Node19 -->
<g id="edge21" class="edge">
<title>Node15&#45;&gt;Node19</title>
<path fill="none" stroke="midnightblue" d="M1082.75,-82.01C977.93,-74.46 782.98,-58.06 618.5,-31 608.72,-29.39 598.2,-27.2 588.56,-25.01"/>
<polygon fill="midnightblue" stroke="midnightblue" points="1082.69,-85.52 1092.91,-82.74 1083.19,-78.53 1082.69,-85.52"/>
</g>
<!-- Node20 -->
<g id="node20" class="node">
<title>Node20</title>
<g id="a_node20"><a xlink:href="Engine_8cpp.html" target="_top" xlink:title=" ">
<polygon fill="none" stroke="black" points="628,-6 628,-25 741,-25 741,-6 628,-6"/>
<text text-anchor="middle" x="684.5" y="-13" font-family="Helvetica,sans-Serif" font-size="10.00">src/Engine/Engine.cpp</text>
</a>
</g>
</g>
<!-- Node15&#45;&gt;Node20 -->
<g id="edge23" class="edge">
<title>Node15&#45;&gt;Node20</title>
<path fill="none" stroke="midnightblue" d="M1082.89,-78.46C1000.77,-68.75 865.88,-51.56 750.5,-31 740.91,-29.29 730.61,-27.17 721.05,-25.08"/>
<polygon fill="midnightblue" stroke="midnightblue" points="1082.54,-81.94 1092.88,-79.63 1083.36,-74.99 1082.54,-81.94"/>
</g>
<!-- Node21 -->
<g id="node21" class="node">
<title>Node21</title>
<g id="a_node21"><a xlink:href="TMXParser_8cpp.html" target="_top" xlink:title=" ">
<polygon fill="none" stroke="black" points="759.5,-6 759.5,-25 895.5,-25 895.5,-6 759.5,-6"/>
<text text-anchor="middle" x="827.5" y="-13" font-family="Helvetica,sans-Serif" font-size="10.00">src/Facade/TMXParser.cpp</text>
</a>
</g>
</g>
<!-- Node15&#45;&gt;Node21 -->
<g id="edge24" class="edge">
<title>Node15&#45;&gt;Node21</title>
<path fill="none" stroke="midnightblue" d="M1082.64,-70.84C1015.74,-56.59 920.86,-36.38 867.67,-25.05"/>
<polygon fill="midnightblue" stroke="midnightblue" points="1082.2,-74.33 1092.71,-72.99 1083.66,-67.48 1082.2,-74.33"/>
</g>
<!-- Node22 -->
<g id="node22" class="node">
<title>Node22</title>
<g id="a_node22"><a xlink:href="ClientNetworkManager_8cpp.html" target="_top" xlink:title=" ">
<polygon fill="none" stroke="black" points="914,-0.5 914,-30.5 1061,-30.5 1061,-0.5 914,-0.5"/>
<text text-anchor="start" x="922" y="-18.5" font-family="Helvetica,sans-Serif" font-size="10.00">src/Networking/ClientNetwork</text>
<text text-anchor="middle" x="987.5" y="-7.5" font-family="Helvetica,sans-Serif" font-size="10.00">Manager.cpp</text>
</a>
</g>
</g>
<!-- Node15&#45;&gt;Node22 -->
<g id="edge25" class="edge">
<title>Node15&#45;&gt;Node22</title>
<path fill="none" stroke="midnightblue" d="M1114.84,-69C1085.88,-57.06 1048.41,-41.61 1021.63,-30.57"/>
<polygon fill="midnightblue" stroke="midnightblue" points="1113.73,-72.33 1124.31,-72.9 1116.4,-65.86 1113.73,-72.33"/>
</g>
<!-- Node23 -->
<g id="node23" class="node">
<title>Node23</title>
<g id="a_node23"><a xlink:href="PlayerRigidBody_8cpp.html" target="_top" xlink:title=" ">
<polygon fill="none" stroke="black" points="1079,-6 1079,-25 1238,-25 1238,-6 1079,-6"/>
<text text-anchor="middle" x="1158.5" y="-13" font-family="Helvetica,sans-Serif" font-size="10.00">src/Physics/PlayerRigidBody.cpp</text>
</a>
</g>
</g>
<!-- Node15&#45;&gt;Node23 -->
<g id="edge27" class="edge">
<title>Node15&#45;&gt;Node23</title>
<path fill="none" stroke="midnightblue" d="M1158.5,-62.59C1158.5,-49.71 1158.5,-34.7 1158.5,-25.39"/>
<polygon fill="midnightblue" stroke="midnightblue" points="1155,-62.73 1158.5,-72.73 1162,-62.73 1155,-62.73"/>
</g>
<!-- Node24 -->
<g id="node24" class="node">
<title>Node24</title>
<g id="a_node24"><a xlink:href="TextureManager_8cpp.html" target="_top" xlink:title=" ">
<polygon fill="none" stroke="black" points="1256.5,-6 1256.5,-25 1412.5,-25 1412.5,-6 1256.5,-6"/>
<text text-anchor="middle" x="1334.5" y="-13" font-family="Helvetica,sans-Serif" font-size="10.00">src/Texture/TextureManager.cpp</text>
</a>
</g>
</g>
<!-- Node15&#45;&gt;Node24 -->
<g id="edge29" class="edge">
<title>Node15&#45;&gt;Node24</title>
<path fill="none" stroke="midnightblue" d="M1203.28,-69.06C1238.53,-54.94 1286.08,-35.9 1313.2,-25.03"/>
<polygon fill="midnightblue" stroke="midnightblue" points="1201.67,-65.94 1193.69,-72.9 1204.28,-72.43 1201.67,-65.94"/>
</g>
<!-- Node25 -->
<g id="node25" class="node">
<title>Node25</title>
<g id="a_node25"><a xlink:href="ClickSystem_8cpp.html" target="_top" xlink:title=" ">
<polygon fill="none" stroke="black" points="1431,-6 1431,-25 1550,-25 1550,-6 1431,-6"/>
<text text-anchor="middle" x="1490.5" y="-13" font-family="Helvetica,sans-Serif" font-size="10.00">src/UI/ClickSystem.cpp</text>
</a>
</g>
</g>
<!-- Node15&#45;&gt;Node25 -->
<g id="edge30" class="edge">
<title>Node15&#45;&gt;Node25</title>
<path fill="none" stroke="midnightblue" d="M1234.19,-70.93C1301.27,-56.68 1396.63,-36.43 1450.11,-25.08"/>
<polygon fill="midnightblue" stroke="midnightblue" points="1233.15,-67.57 1224.09,-73.07 1234.6,-74.42 1233.15,-67.57"/>
</g>
</g>
</svg>
