<?xml version="1.0" encoding="UTF-8" standalone="no"?>
<!DOCTYPE svg PUBLIC "-//W3C//DTD SVG 1.1//EN"
 "http://www.w3.org/Graphics/SVG/1.1/DTD/svg11.dtd">
<!-- Generated by graphviz version 2.44.0 ()
 -->
<!-- Title: includes/spic&#45;prj&#45;api/AudioSource.hpp Pages: 1 -->
<svg width="2007pt" height="296pt"
 viewBox="0.00 0.00 2007.00 296.00" xmlns="http://www.w3.org/2000/svg" xmlns:xlink="http://www.w3.org/1999/xlink">
<g id="graph0" class="graph" transform="scale(1 1) rotate(0) translate(4 292)">
<title>includes/spic&#45;prj&#45;api/AudioSource.hpp</title>
<!-- Node1 -->
<g id="node1" class="node">
<title>Node1</title>
<g id="a_node1"><a xlink:title=" ">
<polygon fill="#bfbfbf" stroke="black" points="222,-257.5 222,-287.5 325,-287.5 325,-257.5 222,-257.5"/>
<text text-anchor="start" x="230" y="-275.5" font-family="Helvetica,sans-Serif" font-size="10.00">includes/spic&#45;prj&#45;api</text>
<text text-anchor="middle" x="273.5" y="-264.5" font-family="Helvetica,sans-Serif" font-size="10.00">/AudioSource.hpp</text>
</a>
</g>
</g>
<!-- Node2 -->
<g id="node2" class="node">
<title>Node2</title>
<g id="a_node2"><a xlink:href="Component_8hpp.html" target="_top" xlink:title=" ">
<polygon fill="none" stroke="black" points="469.5,-201.5 469.5,-220.5 553.5,-220.5 553.5,-201.5 469.5,-201.5"/>
<text text-anchor="middle" x="511.5" y="-208.5" font-family="Helvetica,sans-Serif" font-size="10.00">Component.hpp</text>
</a>
</g>
</g>
<!-- Node1&#45;&gt;Node2 -->
<g id="edge1" class="edge">
<title>Node1&#45;&gt;Node2</title>
<path fill="none" stroke="midnightblue" d="M325.14,-258.59C367.62,-247.97 427.16,-233.09 467.42,-223.02"/>
<polygon fill="midnightblue" stroke="midnightblue" points="468.36,-226.39 477.22,-220.57 466.67,-219.6 468.36,-226.39"/>
</g>
<!-- Node4 -->
<g id="node4" class="node">
<title>Node4</title>
<g id="a_node4"><a xlink:title=" ">
<polygon fill="none" stroke="#bfbfbf" points="0,-134.5 0,-164.5 95,-164.5 95,-134.5 0,-134.5"/>
<text text-anchor="start" x="8" y="-152.5" font-family="Helvetica,sans-Serif" font-size="10.00">boost/serialization</text>
<text text-anchor="middle" x="47.5" y="-141.5" font-family="Helvetica,sans-Serif" font-size="10.00">/access.hpp</text>
</a>
</g>
</g>
<!-- Node1&#45;&gt;Node4 -->
<g id="edge36" class="edge">
<title>Node1&#45;&gt;Node4</title>
<path fill="none" stroke="midnightblue" d="M247.13,-257.38C206.39,-235.57 128.1,-193.65 82.61,-169.3"/>
<polygon fill="midnightblue" stroke="midnightblue" points="84.17,-166.16 73.7,-164.53 80.86,-172.33 84.17,-166.16"/>
</g>
<!-- Node5 -->
<g id="node5" class="node">
<title>Node5</title>
<g id="a_node5"><a xlink:title=" ">
<polygon fill="none" stroke="#bfbfbf" points="113,-134.5 113,-164.5 208,-164.5 208,-134.5 113,-134.5"/>
<text text-anchor="start" x="121" y="-152.5" font-family="Helvetica,sans-Serif" font-size="10.00">boost/serialization</text>
<text text-anchor="middle" x="160.5" y="-141.5" font-family="Helvetica,sans-Serif" font-size="10.00">/map.hpp</text>
</a>
</g>
</g>
<!-- Node1&#45;&gt;Node5 -->
<g id="edge38" class="edge">
<title>Node1&#45;&gt;Node5</title>
<path fill="none" stroke="midnightblue" d="M260.09,-257.14C240.47,-236.13 203.77,-196.83 180.82,-172.26"/>
<polygon fill="midnightblue" stroke="midnightblue" points="183.27,-169.76 173.89,-164.84 178.16,-174.53 183.27,-169.76"/>
</g>
<!-- Node8 -->
<g id="node8" class="node">
<title>Node8</title>
<g id="a_node8"><a xlink:title=" ">
<polygon fill="none" stroke="#bfbfbf" points="226,-134.5 226,-164.5 321,-164.5 321,-134.5 226,-134.5"/>
<text text-anchor="start" x="234" y="-152.5" font-family="Helvetica,sans-Serif" font-size="10.00">boost/serialization</text>
<text text-anchor="middle" x="273.5" y="-141.5" font-family="Helvetica,sans-Serif" font-size="10.00">/export.hpp</text>
</a>
</g>
</g>
<!-- Node1&#45;&gt;Node8 -->
<g id="edge37" class="edge">
<title>Node1&#45;&gt;Node8</title>
<path fill="none" stroke="midnightblue" d="M273.5,-257.14C273.5,-236.86 273.5,-199.53 273.5,-174.86"/>
<polygon fill="midnightblue" stroke="midnightblue" points="277,-174.84 273.5,-164.84 270,-174.84 277,-174.84"/>
</g>
<!-- Node32 -->
<g id="node32" class="node">
<title>Node32</title>
<g id="a_node32"><a xlink:title=" ">
<polygon fill="none" stroke="#bfbfbf" points="572,-201.5 572,-220.5 613,-220.5 613,-201.5 572,-201.5"/>
<text text-anchor="middle" x="592.5" y="-208.5" font-family="Helvetica,sans-Serif" font-size="10.00">string</text>
</a>
</g>
</g>
<!-- Node1&#45;&gt;Node32 -->
<g id="edge35" class="edge">
<title>Node1&#45;&gt;Node32</title>
<path fill="none" stroke="midnightblue" d="M325.03,-264.38C381.03,-256.22 473.25,-241.57 561.97,-220.87"/>
<polygon fill="midnightblue" stroke="midnightblue" points="563,-224.23 571.93,-218.52 561.39,-217.41 563,-224.23"/>
</g>
<!-- Node3 -->
<g id="node3" class="node">
<title>Node3</title>
<g id="a_node3"><a xlink:title=" ">
<polygon fill="none" stroke="#bfbfbf" points="339,-140 339,-159 390,-159 390,-140 339,-140"/>
<text text-anchor="middle" x="364.5" y="-147" font-family="Helvetica,sans-Serif" font-size="10.00">memory</text>
</a>
</g>
</g>
<!-- Node2&#45;&gt;Node3 -->
<g id="edge2" class="edge">
<title>Node2&#45;&gt;Node3</title>
<path fill="none" stroke="midnightblue" d="M489.35,-201.36C466.52,-192.42 429.93,-177.96 398.5,-165 396.91,-164.34 395.28,-163.67 393.63,-162.98"/>
<polygon fill="midnightblue" stroke="midnightblue" points="394.82,-159.68 384.24,-159.01 392.09,-166.13 394.82,-159.68"/>
</g>
<!-- Node2&#45;&gt;Node4 -->
<g id="edge3" class="edge">
<title>Node2&#45;&gt;Node4</title>
<path fill="none" stroke="midnightblue" d="M469.21,-207.34C396.55,-202.35 243.2,-189.9 104.98,-165.11"/>
<polygon fill="midnightblue" stroke="midnightblue" points="105.52,-161.66 95.06,-163.31 104.27,-168.54 105.52,-161.66"/>
</g>
<!-- Node2&#45;&gt;Node5 -->
<g id="edge4" class="edge">
<title>Node2&#45;&gt;Node5</title>
<path fill="none" stroke="midnightblue" d="M469.25,-204.93C413.72,-197.97 313.01,-184.3 218.13,-165.22"/>
<polygon fill="midnightblue" stroke="midnightblue" points="218.58,-161.74 208.08,-163.17 217.18,-168.6 218.58,-161.74"/>
</g>
<!-- Node6 -->
<g id="node6" class="node">
<title>Node6</title>
<g id="a_node6"><a xlink:title=" ">
<polygon fill="none" stroke="#bfbfbf" points="408,-134.5 408,-164.5 503,-164.5 503,-134.5 408,-134.5"/>
<text text-anchor="start" x="416" y="-152.5" font-family="Helvetica,sans-Serif" font-size="10.00">boost/serialization</text>
<text text-anchor="middle" x="455.5" y="-141.5" font-family="Helvetica,sans-Serif" font-size="10.00">/vector.hpp</text>
</a>
</g>
</g>
<!-- Node2&#45;&gt;Node6 -->
<g id="edge5" class="edge">
<title>Node2&#45;&gt;Node6</title>
<path fill="none" stroke="midnightblue" d="M503.48,-201.48C496.25,-193.79 485.31,-182.17 475.7,-171.96"/>
<polygon fill="midnightblue" stroke="midnightblue" points="478.1,-169.41 468.7,-164.52 473,-174.2 478.1,-169.41"/>
</g>
<!-- Node7 -->
<g id="node7" class="node">
<title>Node7</title>
<g id="a_node7"><a xlink:title=" ">
<polygon fill="none" stroke="#bfbfbf" points="521,-134.5 521,-164.5 616,-164.5 616,-134.5 521,-134.5"/>
<text text-anchor="start" x="529" y="-152.5" font-family="Helvetica,sans-Serif" font-size="10.00">boost/serialization</text>
<text text-anchor="middle" x="568.5" y="-141.5" font-family="Helvetica,sans-Serif" font-size="10.00">/shared_ptr.hpp</text>
</a>
</g>
</g>
<!-- Node2&#45;&gt;Node7 -->
<g id="edge6" class="edge">
<title>Node2&#45;&gt;Node7</title>
<path fill="none" stroke="midnightblue" d="M519.67,-201.48C527.03,-193.79 538.16,-182.17 547.94,-171.96"/>
<polygon fill="midnightblue" stroke="midnightblue" points="550.68,-174.17 555.07,-164.52 545.62,-169.32 550.68,-174.17"/>
</g>
<!-- Node2&#45;&gt;Node8 -->
<g id="edge7" class="edge">
<title>Node2&#45;&gt;Node8</title>
<path fill="none" stroke="midnightblue" d="M476.58,-201.49C441.93,-193.01 387.04,-179.52 330.9,-165.34"/>
<polygon fill="midnightblue" stroke="midnightblue" points="331.7,-161.93 321.15,-162.88 329.99,-168.72 331.7,-161.93"/>
</g>
<!-- Node9 -->
<g id="node9" class="node">
<title>Node9</title>
<g id="a_node9"><a xlink:title=" ">
<polygon fill="none" stroke="#bfbfbf" points="634.5,-134.5 634.5,-164.5 738.5,-164.5 738.5,-134.5 634.5,-134.5"/>
<text text-anchor="start" x="642.5" y="-152.5" font-family="Helvetica,sans-Serif" font-size="10.00">boost/archive/binary</text>
<text text-anchor="middle" x="686.5" y="-141.5" font-family="Helvetica,sans-Serif" font-size="10.00">_iarchive.hpp</text>
</a>
</g>
</g>
<!-- Node2&#45;&gt;Node9 -->
<g id="edge8" class="edge">
<title>Node2&#45;&gt;Node9</title>
<path fill="none" stroke="midnightblue" d="M536.57,-201.48C562.27,-192.74 602.95,-178.91 635.46,-167.86"/>
<polygon fill="midnightblue" stroke="midnightblue" points="636.91,-171.06 645.26,-164.52 634.66,-164.43 636.91,-171.06"/>
</g>
<!-- Node10 -->
<g id="node10" class="node">
<title>Node10</title>
<g id="a_node10"><a xlink:title=" ">
<polygon fill="none" stroke="#bfbfbf" points="756.5,-134.5 756.5,-164.5 860.5,-164.5 860.5,-134.5 756.5,-134.5"/>
<text text-anchor="start" x="764.5" y="-152.5" font-family="Helvetica,sans-Serif" font-size="10.00">boost/archive/binary</text>
<text text-anchor="middle" x="808.5" y="-141.5" font-family="Helvetica,sans-Serif" font-size="10.00">_oarchive.hpp</text>
</a>
</g>
</g>
<!-- Node2&#45;&gt;Node10 -->
<g id="edge9" class="edge">
<title>Node2&#45;&gt;Node10</title>
<path fill="none" stroke="midnightblue" d="M553.82,-202.52C599.11,-194.39 673.28,-180.69 746.45,-165.17"/>
<polygon fill="midnightblue" stroke="midnightblue" points="747.24,-168.58 756.29,-163.07 745.78,-161.74 747.24,-168.58"/>
</g>
<!-- Node11 -->
<g id="node11" class="node">
<title>Node11</title>
<g id="a_node11"><a xlink:title=" ">
<polygon fill="none" stroke="#bfbfbf" points="878.5,-134.5 878.5,-164.5 972.5,-164.5 972.5,-134.5 878.5,-134.5"/>
<text text-anchor="start" x="886.5" y="-152.5" font-family="Helvetica,sans-Serif" font-size="10.00">boost/archive/text</text>
<text text-anchor="middle" x="925.5" y="-141.5" font-family="Helvetica,sans-Serif" font-size="10.00">_iarchive.hpp</text>
</a>
</g>
</g>
<!-- Node2&#45;&gt;Node11 -->
<g id="edge10" class="edge">
<title>Node2&#45;&gt;Node11</title>
<path fill="none" stroke="midnightblue" d="M553.77,-202.35C556.72,-201.87 559.65,-201.42 562.5,-201 695.24,-181.52 732.72,-189.86 868.31,-165.06"/>
<polygon fill="midnightblue" stroke="midnightblue" points="869.05,-168.49 878.25,-163.22 867.77,-161.6 869.05,-168.49"/>
</g>
<!-- Node12 -->
<g id="node12" class="node">
<title>Node12</title>
<g id="a_node12"><a xlink:title=" ">
<polygon fill="none" stroke="#bfbfbf" points="990.5,-134.5 990.5,-164.5 1084.5,-164.5 1084.5,-134.5 990.5,-134.5"/>
<text text-anchor="start" x="998.5" y="-152.5" font-family="Helvetica,sans-Serif" font-size="10.00">boost/archive/text</text>
<text text-anchor="middle" x="1037.5" y="-141.5" font-family="Helvetica,sans-Serif" font-size="10.00">_oarchive.hpp</text>
</a>
</g>
</g>
<!-- Node2&#45;&gt;Node12 -->
<g id="edge11" class="edge">
<title>Node2&#45;&gt;Node12</title>
<path fill="none" stroke="midnightblue" d="M553.76,-202.24C556.71,-201.79 559.65,-201.37 562.5,-201 744.57,-177.16 795.49,-195.85 980.22,-165.03"/>
<polygon fill="midnightblue" stroke="midnightblue" points="980.99,-168.45 990.26,-163.32 979.82,-161.55 980.99,-168.45"/>
</g>
<!-- Node13 -->
<g id="node13" class="node">
<title>Node13</title>
<g id="a_node13"><a xlink:href="portable__binary__iarchive_8hpp.html" target="_top" xlink:title=" ">
<polygon fill="none" stroke="black" points="1418,-134.5 1418,-164.5 1549,-164.5 1549,-134.5 1418,-134.5"/>
<text text-anchor="start" x="1426" y="-152.5" font-family="Helvetica,sans-Serif" font-size="10.00">Networking/boost/portable</text>
<text text-anchor="middle" x="1483.5" y="-141.5" font-family="Helvetica,sans-Serif" font-size="10.00">_binary_iarchive.hpp</text>
</a>
</g>
</g>
<!-- Node2&#45;&gt;Node13 -->
<g id="edge12" class="edge">
<title>Node2&#45;&gt;Node13</title>
<path fill="none" stroke="midnightblue" d="M553.74,-202.14C556.7,-201.71 559.64,-201.33 562.5,-201 863.63,-166.6 940.9,-182.14 1243.5,-165 1298.44,-161.89 1360.44,-158.14 1407.66,-155.23"/>
<polygon fill="midnightblue" stroke="midnightblue" points="1408.04,-158.71 1417.81,-154.6 1407.61,-151.73 1408.04,-158.71"/>
</g>
<!-- Node28 -->
<g id="node28" class="node">
<title>Node28</title>
<g id="a_node28"><a xlink:href="portable__binary__oarchive_8hpp.html" target="_top" xlink:title=" ">
<polygon fill="none" stroke="black" points="1103,-134.5 1103,-164.5 1234,-164.5 1234,-134.5 1103,-134.5"/>
<text text-anchor="start" x="1111" y="-152.5" font-family="Helvetica,sans-Serif" font-size="10.00">Networking/boost/portable</text>
<text text-anchor="middle" x="1168.5" y="-141.5" font-family="Helvetica,sans-Serif" font-size="10.00">_binary_oarchive.hpp</text>
</a>
</g>
</g>
<!-- Node2&#45;&gt;Node28 -->
<g id="edge27" class="edge">
<title>Node2&#45;&gt;Node28</title>
<path fill="none" stroke="midnightblue" d="M553.75,-202.19C556.71,-201.75 559.64,-201.35 562.5,-201 793.98,-172.81 857.15,-194.86 1092.48,-165.01"/>
<polygon fill="midnightblue" stroke="midnightblue" points="1093.25,-168.44 1102.72,-163.69 1092.36,-161.5 1093.25,-168.44"/>
</g>
<!-- Node14 -->
<g id="node14" class="node">
<title>Node14</title>
<g id="a_node14"><a xlink:title=" ">
<polygon fill="none" stroke="#bfbfbf" points="1950,-73 1950,-92 1999,-92 1999,-73 1950,-73"/>
<text text-anchor="middle" x="1974.5" y="-80" font-family="Helvetica,sans-Serif" font-size="10.00">istream</text>
</a>
</g>
</g>
<!-- Node13&#45;&gt;Node14 -->
<g id="edge13" class="edge">
<title>Node13&#45;&gt;Node14</title>
<path fill="none" stroke="midnightblue" d="M1549.3,-147.25C1639.1,-144.18 1804.42,-133.7 1940.5,-98 1942.86,-97.38 1945.26,-96.63 1947.65,-95.79"/>
<polygon fill="midnightblue" stroke="midnightblue" points="1949.17,-98.95 1957.2,-92.03 1946.61,-92.44 1949.17,-98.95"/>
</g>
<!-- Node15 -->
<g id="node15" class="node">
<title>Node15</title>
<g id="a_node15"><a xlink:title=" ">
<polygon fill="none" stroke="#bfbfbf" points="1188,-67.5 1188,-97.5 1283,-97.5 1283,-67.5 1188,-67.5"/>
<text text-anchor="start" x="1196" y="-85.5" font-family="Helvetica,sans-Serif" font-size="10.00">boost/serialization</text>
<text text-anchor="middle" x="1235.5" y="-74.5" font-family="Helvetica,sans-Serif" font-size="10.00">/string.hpp</text>
</a>
</g>
</g>
<!-- Node13&#45;&gt;Node15 -->
<g id="edge14" class="edge">
<title>Node13&#45;&gt;Node15</title>
<path fill="none" stroke="midnightblue" d="M1429.99,-134.48C1389.61,-123.89 1334.29,-109.39 1292.97,-98.56"/>
<polygon fill="midnightblue" stroke="midnightblue" points="1293.61,-95.11 1283.05,-95.96 1291.83,-101.88 1293.61,-95.11"/>
</g>
<!-- Node16 -->
<g id="node16" class="node">
<title>Node16</title>
<g id="a_node16"><a xlink:title=" ">
<polygon fill="none" stroke="#bfbfbf" points="1555.5,-67.5 1555.5,-97.5 1671.5,-97.5 1671.5,-67.5 1555.5,-67.5"/>
<text text-anchor="start" x="1563.5" y="-85.5" font-family="Helvetica,sans-Serif" font-size="10.00">boost/serialization</text>
<text text-anchor="middle" x="1613.5" y="-74.5" font-family="Helvetica,sans-Serif" font-size="10.00">/item_version_type.hpp</text>
</a>
</g>
</g>
<!-- Node13&#45;&gt;Node16 -->
<g id="edge15" class="edge">
<title>Node13&#45;&gt;Node16</title>
<path fill="none" stroke="midnightblue" d="M1511.71,-134.4C1530.62,-124.94 1555.72,-112.39 1576.27,-102.12"/>
<polygon fill="midnightblue" stroke="midnightblue" points="1577.97,-105.18 1585.35,-97.58 1574.84,-98.92 1577.97,-105.18"/>
</g>
<!-- Node17 -->
<g id="node17" class="node">
<title>Node17</title>
<g id="a_node17"><a xlink:title=" ">
<polygon fill="none" stroke="#bfbfbf" points="1301.5,-67.5 1301.5,-97.5 1411.5,-97.5 1411.5,-67.5 1301.5,-67.5"/>
<text text-anchor="start" x="1309.5" y="-85.5" font-family="Helvetica,sans-Serif" font-size="10.00">boost/archive/archive</text>
<text text-anchor="middle" x="1356.5" y="-74.5" font-family="Helvetica,sans-Serif" font-size="10.00">_exception.hpp</text>
</a>
</g>
</g>
<!-- Node13&#45;&gt;Node17 -->
<g id="edge16" class="edge">
<title>Node13&#45;&gt;Node17</title>
<path fill="none" stroke="midnightblue" d="M1455.94,-134.4C1437.55,-124.98 1413.17,-112.5 1393.15,-102.26"/>
<polygon fill="midnightblue" stroke="midnightblue" points="1394.5,-99.02 1384,-97.58 1391.31,-105.25 1394.5,-99.02"/>
</g>
<!-- Node18 -->
<g id="node18" class="node">
<title>Node18</title>
<g id="a_node18"><a xlink:title=" ">
<polygon fill="none" stroke="#bfbfbf" points="1689.5,-67.5 1689.5,-97.5 1799.5,-97.5 1799.5,-67.5 1689.5,-67.5"/>
<text text-anchor="start" x="1697.5" y="-85.5" font-family="Helvetica,sans-Serif" font-size="10.00">boost/archive/basic</text>
<text text-anchor="middle" x="1744.5" y="-74.5" font-family="Helvetica,sans-Serif" font-size="10.00">_binary_iprimitive.hpp</text>
</a>
</g>
</g>
<!-- Node13&#45;&gt;Node18 -->
<g id="edge17" class="edge">
<title>Node13&#45;&gt;Node18</title>
<path fill="none" stroke="midnightblue" d="M1539.81,-134.48C1580.82,-124.26 1636.48,-110.4 1679.4,-99.71"/>
<polygon fill="midnightblue" stroke="midnightblue" points="1680.33,-103.09 1689.19,-97.28 1678.64,-96.3 1680.33,-103.09"/>
</g>
<!-- Node19 -->
<g id="node19" class="node">
<title>Node19</title>
<g id="a_node19"><a xlink:title=" ">
<polygon fill="none" stroke="#bfbfbf" points="1817.5,-67.5 1817.5,-97.5 1931.5,-97.5 1931.5,-67.5 1817.5,-67.5"/>
<text text-anchor="start" x="1825.5" y="-85.5" font-family="Helvetica,sans-Serif" font-size="10.00">boost/archive/detail</text>
<text text-anchor="middle" x="1874.5" y="-74.5" font-family="Helvetica,sans-Serif" font-size="10.00">/common_iarchive.hpp</text>
</a>
</g>
</g>
<!-- Node13&#45;&gt;Node19 -->
<g id="edge18" class="edge">
<title>Node13&#45;&gt;Node19</title>
<path fill="none" stroke="midnightblue" d="M1549.07,-139.53C1612.6,-130.56 1711.91,-115.82 1807.21,-98.18"/>
<polygon fill="midnightblue" stroke="midnightblue" points="1808.12,-101.57 1817.31,-96.29 1806.83,-94.69 1808.12,-101.57"/>
</g>
<!-- Node20 -->
<g id="node20" class="node">
<title>Node20</title>
<g id="a_node20"><a xlink:title=" ">
<polygon fill="none" stroke="#bfbfbf" points="1430,-67.5 1430,-97.5 1537,-97.5 1537,-67.5 1430,-67.5"/>
<text text-anchor="start" x="1438" y="-85.5" font-family="Helvetica,sans-Serif" font-size="10.00">boost/archive/detail</text>
<text text-anchor="middle" x="1483.5" y="-74.5" font-family="Helvetica,sans-Serif" font-size="10.00">/register_archive.hpp</text>
</a>
</g>
</g>
<!-- Node13&#45;&gt;Node20 -->
<g id="edge19" class="edge">
<title>Node13&#45;&gt;Node20</title>
<path fill="none" stroke="midnightblue" d="M1483.5,-134.4C1483.5,-126.64 1483.5,-116.81 1483.5,-107.86"/>
<polygon fill="midnightblue" stroke="midnightblue" points="1487,-107.58 1483.5,-97.58 1480,-107.58 1487,-107.58"/>
</g>
<!-- Node21 -->
<g id="node21" class="node">
<title>Node21</title>
<g id="a_node21"><a xlink:href="portable__binary__archive_8hpp.html" target="_top" xlink:title=" ">
<polygon fill="none" stroke="black" points="1033,-73 1033,-92 1170,-92 1170,-73 1033,-73"/>
<text text-anchor="middle" x="1101.5" y="-80" font-family="Helvetica,sans-Serif" font-size="10.00">portable_binary_archive.hpp</text>
</a>
</g>
</g>
<!-- Node13&#45;&gt;Node21 -->
<g id="edge20" class="edge">
<title>Node13&#45;&gt;Node21</title>
<path fill="none" stroke="midnightblue" d="M1417.91,-137.98C1356.3,-128 1261.57,-112.44 1179.5,-98 1172.05,-96.69 1164.2,-95.27 1156.48,-93.86"/>
<polygon fill="midnightblue" stroke="midnightblue" points="1156.9,-90.38 1146.43,-92 1155.63,-97.26 1156.9,-90.38"/>
</g>
<!-- Node22 -->
<g id="node22" class="node">
<title>Node22</title>
<g id="a_node22"><a xlink:title=" ">
<polygon fill="none" stroke="#bfbfbf" points="778,-6 778,-25 865,-25 865,-6 778,-6"/>
<text text-anchor="middle" x="821.5" y="-13" font-family="Helvetica,sans-Serif" font-size="10.00">boost/config.hpp</text>
</a>
</g>
</g>
<!-- Node21&#45;&gt;Node22 -->
<g id="edge21" class="edge">
<title>Node21&#45;&gt;Node22</title>
<path fill="none" stroke="midnightblue" d="M1059.74,-72.96C1013.89,-63.41 938.2,-47.17 873.5,-31 869.41,-29.98 865.15,-28.87 860.91,-27.73"/>
<polygon fill="midnightblue" stroke="midnightblue" points="861.69,-24.32 851.13,-25.06 859.85,-31.07 861.69,-24.32"/>
</g>
<!-- Node23 -->
<g id="node23" class="node">
<title>Node23</title>
<g id="a_node23"><a xlink:title=" ">
<polygon fill="none" stroke="#bfbfbf" points="883,-6 883,-25 974,-25 974,-6 883,-6"/>
<text text-anchor="middle" x="928.5" y="-13" font-family="Helvetica,sans-Serif" font-size="10.00">boost/cstdint.hpp</text>
</a>
</g>
</g>
<!-- Node21&#45;&gt;Node23 -->
<g id="edge22" class="edge">
<title>Node21&#45;&gt;Node23</title>
<path fill="none" stroke="midnightblue" d="M1078.53,-72.87C1048.33,-61.52 995.1,-41.52 960.84,-28.65"/>
<polygon fill="midnightblue" stroke="midnightblue" points="961.88,-25.3 951.29,-25.06 959.42,-31.86 961.88,-25.3"/>
</g>
<!-- Node24 -->
<g id="node24" class="node">
<title>Node24</title>
<g id="a_node24"><a xlink:title=" ">
<polygon fill="none" stroke="#bfbfbf" points="992.5,-6 992.5,-25 1110.5,-25 1110.5,-6 992.5,-6"/>
<text text-anchor="middle" x="1051.5" y="-13" font-family="Helvetica,sans-Serif" font-size="10.00">boost/static_assert.hpp</text>
</a>
</g>
</g>
<!-- Node21&#45;&gt;Node24 -->
<g id="edge23" class="edge">
<title>Node21&#45;&gt;Node24</title>
<path fill="none" stroke="midnightblue" d="M1094.76,-72.73C1086.96,-62.6 1073.95,-45.69 1064.24,-33.06"/>
<polygon fill="midnightblue" stroke="midnightblue" points="1067.01,-30.92 1058.14,-25.13 1061.46,-35.19 1067.01,-30.92"/>
</g>
<!-- Node25 -->
<g id="node25" class="node">
<title>Node25</title>
<g id="a_node25"><a xlink:title=" ">
<polygon fill="none" stroke="#bfbfbf" points="1129,-6 1129,-25 1174,-25 1174,-6 1129,-6"/>
<text text-anchor="middle" x="1151.5" y="-13" font-family="Helvetica,sans-Serif" font-size="10.00">climits</text>
</a>
</g>
</g>
<!-- Node21&#45;&gt;Node25 -->
<g id="edge24" class="edge">
<title>Node21&#45;&gt;Node25</title>
<path fill="none" stroke="midnightblue" d="M1108.24,-72.73C1116.04,-62.6 1129.05,-45.69 1138.76,-33.06"/>
<polygon fill="midnightblue" stroke="midnightblue" points="1141.54,-35.19 1144.86,-25.13 1135.99,-30.92 1141.54,-35.19"/>
</g>
<!-- Node26 -->
<g id="node26" class="node">
<title>Node26</title>
<g id="a_node26"><a xlink:title=" ">
<polygon fill="none" stroke="#bfbfbf" points="1192,-0.5 1192,-30.5 1293,-30.5 1293,-0.5 1192,-0.5"/>
<text text-anchor="start" x="1200" y="-18.5" font-family="Helvetica,sans-Serif" font-size="10.00">boost/archive/basic</text>
<text text-anchor="middle" x="1242.5" y="-7.5" font-family="Helvetica,sans-Serif" font-size="10.00">_archive.hpp</text>
</a>
</g>
</g>
<!-- Node21&#45;&gt;Node26 -->
<g id="edge25" class="edge">
<title>Node21&#45;&gt;Node26</title>
<path fill="none" stroke="midnightblue" d="M1120.22,-72.87C1141.2,-63.2 1175.8,-47.25 1202.85,-34.78"/>
<polygon fill="midnightblue" stroke="midnightblue" points="1204.45,-37.89 1212.07,-30.53 1201.52,-31.54 1204.45,-37.89"/>
</g>
<!-- Node27 -->
<g id="node27" class="node">
<title>Node27</title>
<g id="a_node27"><a xlink:title=" ">
<polygon fill="none" stroke="#bfbfbf" points="1311,-0.5 1311,-30.5 1406,-30.5 1406,-0.5 1311,-0.5"/>
<text text-anchor="start" x="1319" y="-18.5" font-family="Helvetica,sans-Serif" font-size="10.00">boost/predef/other</text>
<text text-anchor="middle" x="1358.5" y="-7.5" font-family="Helvetica,sans-Serif" font-size="10.00">/endian.h</text>
</a>
</g>
</g>
<!-- Node21&#45;&gt;Node27 -->
<g id="edge26" class="edge">
<title>Node21&#45;&gt;Node27</title>
<path fill="none" stroke="midnightblue" d="M1135.66,-73C1173.72,-63.51 1237.33,-47.59 1301.04,-31.36"/>
<polygon fill="midnightblue" stroke="midnightblue" points="1302.02,-34.73 1310.85,-28.86 1300.29,-27.94 1302.02,-34.73"/>
</g>
<!-- Node28&#45;&gt;Node15 -->
<g id="edge29" class="edge">
<title>Node28&#45;&gt;Node15</title>
<path fill="none" stroke="midnightblue" d="M1183.04,-134.4C1191.99,-125.71 1203.64,-114.4 1213.69,-104.66"/>
<polygon fill="midnightblue" stroke="midnightblue" points="1216.25,-107.05 1220.99,-97.58 1211.38,-102.03 1216.25,-107.05"/>
</g>
<!-- Node28&#45;&gt;Node17 -->
<g id="edge30" class="edge">
<title>Node28&#45;&gt;Node17</title>
<path fill="none" stroke="midnightblue" d="M1209.29,-134.4C1237.75,-124.56 1275.9,-111.37 1306.23,-100.88"/>
<polygon fill="midnightblue" stroke="midnightblue" points="1307.48,-104.15 1315.79,-97.58 1305.19,-97.54 1307.48,-104.15"/>
</g>
<!-- Node28&#45;&gt;Node20 -->
<g id="edge33" class="edge">
<title>Node28&#45;&gt;Node20</title>
<path fill="none" stroke="midnightblue" d="M1234.14,-135.88C1282.67,-126.42 1350.63,-112.93 1419.71,-98.14"/>
<polygon fill="midnightblue" stroke="midnightblue" points="1420.87,-101.47 1429.91,-95.94 1419.39,-94.62 1420.87,-101.47"/>
</g>
<!-- Node28&#45;&gt;Node21 -->
<g id="edge34" class="edge">
<title>Node28&#45;&gt;Node21</title>
<path fill="none" stroke="midnightblue" d="M1153.96,-134.4C1143.31,-124.06 1128.84,-110.02 1117.8,-99.31"/>
<polygon fill="midnightblue" stroke="midnightblue" points="1120.08,-96.65 1110.46,-92.19 1115.2,-101.67 1120.08,-96.65"/>
</g>
<!-- Node29 -->
<g id="node29" class="node">
<title>Node29</title>
<g id="a_node29"><a xlink:title=" ">
<polygon fill="none" stroke="#bfbfbf" points="696.5,-73 696.5,-92 748.5,-92 748.5,-73 696.5,-73"/>
<text text-anchor="middle" x="722.5" y="-80" font-family="Helvetica,sans-Serif" font-size="10.00">ostream</text>
</a>
</g>
</g>
<!-- Node28&#45;&gt;Node29 -->
<g id="edge28" class="edge">
<title>Node28&#45;&gt;Node29</title>
<path fill="none" stroke="midnightblue" d="M1102.7,-135.45C1099.6,-134.94 1096.52,-134.45 1093.5,-134 944.97,-111.73 903.03,-135.12 757.5,-98 754.99,-97.36 752.43,-96.57 749.88,-95.7"/>
<polygon fill="midnightblue" stroke="midnightblue" points="750.92,-92.35 740.33,-92.04 748.41,-98.89 750.92,-92.35"/>
</g>
<!-- Node30 -->
<g id="node30" class="node">
<title>Node30</title>
<g id="a_node30"><a xlink:title=" ">
<polygon fill="none" stroke="#bfbfbf" points="767,-67.5 767,-97.5 880,-97.5 880,-67.5 767,-67.5"/>
<text text-anchor="start" x="775" y="-85.5" font-family="Helvetica,sans-Serif" font-size="10.00">boost/archive/basic</text>
<text text-anchor="middle" x="823.5" y="-74.5" font-family="Helvetica,sans-Serif" font-size="10.00">_binary_oprimitive.hpp</text>
</a>
</g>
</g>
<!-- Node28&#45;&gt;Node30 -->
<g id="edge31" class="edge">
<title>Node28&#45;&gt;Node30</title>
<path fill="none" stroke="midnightblue" d="M1102.66,-135.71C1099.57,-135.12 1096.5,-134.55 1093.5,-134 1005.64,-117.79 980.89,-116.17 890.08,-98.27"/>
<polygon fill="midnightblue" stroke="midnightblue" points="890.68,-94.82 880.19,-96.31 889.32,-101.68 890.68,-94.82"/>
</g>
<!-- Node31 -->
<g id="node31" class="node">
<title>Node31</title>
<g id="a_node31"><a xlink:title=" ">
<polygon fill="none" stroke="#bfbfbf" points="898,-67.5 898,-97.5 1015,-97.5 1015,-67.5 898,-67.5"/>
<text text-anchor="start" x="906" y="-85.5" font-family="Helvetica,sans-Serif" font-size="10.00">boost/archive/detail</text>
<text text-anchor="middle" x="956.5" y="-74.5" font-family="Helvetica,sans-Serif" font-size="10.00">/common_oarchive.hpp</text>
</a>
</g>
</g>
<!-- Node28&#45;&gt;Node31 -->
<g id="edge32" class="edge">
<title>Node28&#45;&gt;Node31</title>
<path fill="none" stroke="midnightblue" d="M1122.76,-134.48C1090.41,-124.56 1046.85,-111.2 1012.43,-100.65"/>
<polygon fill="midnightblue" stroke="midnightblue" points="1013.11,-97.2 1002.52,-97.61 1011.06,-103.89 1013.11,-97.2"/>
</g>
</g>
</svg>
