<?xml version="1.0" encoding="UTF-8" standalone="no"?>
<!DOCTYPE svg PUBLIC "-//W3C//DTD SVG 1.1//EN"
 "http://www.w3.org/Graphics/SVG/1.1/DTD/svg11.dtd">
<!-- Generated by graphviz version 2.44.0 ()
 -->
<!-- Title: includes/spic&#45;prj&#45;api/BehaviourScript.hpp Pages: 1 -->
<!--zoomable 419 -->
<svg id="main" version="1.1" xmlns="http://www.w3.org/2000/svg" xmlns:xlink="http://www.w3.org/1999/xlink" xml:space="preserve" onload="init(evt)">
<style type="text/css"><![CDATA[
.edge:hover path { stroke: red; }
.edge:hover polygon { stroke: red; fill: red; }
]]></style>
<script type="text/javascript"><![CDATA[
var edges = document.getElementsByTagName('g');
if (edges && edges.length) {
  for (var i=0;i<edges.length;i++) {
    if (edges[i].id.substr(0,4)=='edge') {
      edges[i].setAttribute('class','edge');
    }
  }
}
]]></script>
        <defs>
                <circle id="rim" cx="0" cy="0" r="7"/>
                <circle id="rim2" cx="0" cy="0" r="3.5"/>
                <g id="zoomPlus">
                        <use xlink:href="#rim" fill="#404040">
                                <set attributeName="fill" to="#808080" begin="zoomplus.mouseover" end="zoomplus.mouseout"/>
                        </use>
                        <path d="M-4,0h8M0,-4v8" fill="none" stroke="white" stroke-width="1.5" pointer-events="none"/>
                </g>
                <g id="zoomMin">
                        <use xlink:href="#rim" fill="#404040">
                                <set attributeName="fill" to="#808080" begin="zoomminus.mouseover" end="zoomminus.mouseout"/>
                        </use>
                        <path d="M-4,0h8" fill="none" stroke="white" stroke-width="1.5" pointer-events="none"/>
                </g>
                <g id="dirArrow">
                        <path fill="none" stroke="white" stroke-width="1.5" d="M0,-3.0v7 M-2.5,-0.5L0,-3.0L2.5,-0.5"/>
                </g>
               <g id="resetDef">
                       <use xlink:href="#rim2" fill="#404040">
                               <set attributeName="fill" to="#808080" begin="reset.mouseover" end="reset.mouseout"/>
                       </use>
               </g>
        </defs>

<script type="text/javascript">
var viewWidth = 1392;
var viewHeight = 419;
var sectionId = 'dynsection-0';
</script>
<script xlink:href="svgpan.js"/>
<svg id="graph" class="graph">
<g id="viewport">
<title>includes/spic&#45;prj&#45;api/BehaviourScript.hpp</title>
<!-- Node1 -->
<g id="node1" class="node">
<title>Node1</title>
<g id="a_node1"><a xlink:title=" ">
<polygon fill="#bfbfbf" stroke="black" points="659,-380.5 659,-410.5 766,-410.5 766,-380.5 659,-380.5"/>
<text text-anchor="start" x="667" y="-398.5" font-family="Helvetica,sans-Serif" font-size="10.00">includes/spic&#45;prj&#45;api</text>
<text text-anchor="middle" x="712.5" y="-387.5" font-family="Helvetica,sans-Serif" font-size="10.00">/BehaviourScript.hpp</text>
</a>
</g>
</g>
<!-- Node2 -->
<g id="node2" class="node">
<title>Node2</title>
<g id="a_node2"><a xlink:href="Component_8hpp.html" target="_top" xlink:title=" ">
<polygon fill="none" stroke="black" points="562.5,-207 562.5,-226 646.5,-226 646.5,-207 562.5,-207"/>
<text text-anchor="middle" x="604.5" y="-214" font-family="Helvetica,sans-Serif" font-size="10.00">Component.hpp</text>
</a>
</g>
</g>
<!-- Node1&#45;&gt;Node2 -->
<g id="edge1" class="edge">
<title>Node1&#45;&gt;Node2</title>
<path fill="none" stroke="midnightblue" d="M703.84,-380.31C684.26,-348.22 636.6,-270.11 615.21,-235.05"/>
<polygon fill="midnightblue" stroke="midnightblue" points="618.11,-233.09 609.91,-226.37 612.14,-236.73 618.11,-233.09"/>
</g>
<!-- Node4 -->
<g id="node4" class="node">
<title>Node4</title>
<g id="a_node4"><a xlink:title=" ">
<polygon fill="none" stroke="#bfbfbf" points="113,-134.5 113,-164.5 208,-164.5 208,-134.5 113,-134.5"/>
<text text-anchor="start" x="121" y="-152.5" font-family="Helvetica,sans-Serif" font-size="10.00">boost/serialization</text>
<text text-anchor="middle" x="160.5" y="-141.5" font-family="Helvetica,sans-Serif" font-size="10.00">/access.hpp</text>
</a>
</g>
</g>
<!-- Node1&#45;&gt;Node4 -->
<g id="edge55" class="edge">
<title>Node1&#45;&gt;Node4</title>
<path fill="none" stroke="midnightblue" d="M658.78,-393.08C555.93,-389.6 335.5,-378.26 268.5,-344 211.14,-314.67 202.35,-291 176.5,-232 168.48,-213.69 164.45,-191.31 162.45,-174.64"/>
<polygon fill="midnightblue" stroke="midnightblue" points="165.92,-174.19 161.4,-164.61 158.96,-174.92 165.92,-174.19"/>
</g>
<!-- Node8 -->
<g id="node8" class="node">
<title>Node8</title>
<g id="a_node8"><a xlink:title=" ">
<polygon fill="none" stroke="#bfbfbf" points="0,-134.5 0,-164.5 95,-164.5 95,-134.5 0,-134.5"/>
<text text-anchor="start" x="8" y="-152.5" font-family="Helvetica,sans-Serif" font-size="10.00">boost/serialization</text>
<text text-anchor="middle" x="47.5" y="-141.5" font-family="Helvetica,sans-Serif" font-size="10.00">/export.hpp</text>
</a>
</g>
</g>
<!-- Node1&#45;&gt;Node8 -->
<g id="edge56" class="edge">
<title>Node1&#45;&gt;Node8</title>
<path fill="none" stroke="midnightblue" d="M658.74,-392.78C550.24,-388.68 309,-376.14 233.5,-344 162.4,-313.73 151.67,-289.91 100.5,-232 84.47,-213.86 69.76,-190.46 59.93,-173.39"/>
<polygon fill="midnightblue" stroke="midnightblue" points="62.95,-171.63 54.99,-164.63 56.86,-175.06 62.95,-171.63"/>
</g>
<!-- Node9 -->
<g id="node9" class="node">
<title>Node9</title>
<g id="a_node9"><a xlink:title=" ">
<polygon fill="none" stroke="#bfbfbf" points="783.5,-134.5 783.5,-164.5 887.5,-164.5 887.5,-134.5 783.5,-134.5"/>
<text text-anchor="start" x="791.5" y="-152.5" font-family="Helvetica,sans-Serif" font-size="10.00">boost/archive/binary</text>
<text text-anchor="middle" x="835.5" y="-141.5" font-family="Helvetica,sans-Serif" font-size="10.00">_iarchive.hpp</text>
</a>
</g>
</g>
<!-- Node1&#45;&gt;Node9 -->
<g id="edge57" class="edge">
<title>Node1&#45;&gt;Node9</title>
<path fill="none" stroke="midnightblue" d="M742.31,-380.4C787.88,-356.97 873.2,-305.23 907.5,-232 913.34,-219.52 913.86,-213.22 907.5,-201 900.75,-188.03 888.98,-177.7 876.89,-169.84"/>
<polygon fill="midnightblue" stroke="midnightblue" points="878.46,-166.71 868.09,-164.56 874.86,-172.71 878.46,-166.71"/>
</g>
<!-- Node10 -->
<g id="node10" class="node">
<title>Node10</title>
<g id="a_node10"><a xlink:title=" ">
<polygon fill="none" stroke="#bfbfbf" points="1055.5,-134.5 1055.5,-164.5 1159.5,-164.5 1159.5,-134.5 1055.5,-134.5"/>
<text text-anchor="start" x="1063.5" y="-152.5" font-family="Helvetica,sans-Serif" font-size="10.00">boost/archive/binary</text>
<text text-anchor="middle" x="1107.5" y="-141.5" font-family="Helvetica,sans-Serif" font-size="10.00">_oarchive.hpp</text>
</a>
</g>
</g>
<!-- Node1&#45;&gt;Node10 -->
<g id="edge58" class="edge">
<title>Node1&#45;&gt;Node10</title>
<path fill="none" stroke="midnightblue" d="M765.91,-380.43C794.08,-371.9 828.68,-359.63 857.5,-344 949.96,-293.86 1044.1,-210.35 1085.58,-171.53"/>
<polygon fill="midnightblue" stroke="midnightblue" points="1088.05,-174.01 1092.93,-164.6 1083.25,-168.91 1088.05,-174.01"/>
</g>
<!-- Node11 -->
<g id="node11" class="node">
<title>Node11</title>
<g id="a_node11"><a xlink:title=" ">
<polygon fill="none" stroke="#bfbfbf" points="1177.5,-134.5 1177.5,-164.5 1271.5,-164.5 1271.5,-134.5 1177.5,-134.5"/>
<text text-anchor="start" x="1185.5" y="-152.5" font-family="Helvetica,sans-Serif" font-size="10.00">boost/archive/text</text>
<text text-anchor="middle" x="1224.5" y="-141.5" font-family="Helvetica,sans-Serif" font-size="10.00">_iarchive.hpp</text>
</a>
</g>
</g>
<!-- Node1&#45;&gt;Node11 -->
<g id="edge59" class="edge">
<title>Node1&#45;&gt;Node11</title>
<path fill="none" stroke="midnightblue" d="M766.1,-382.59C801.34,-373.9 848.05,-360.73 887.5,-344 1007.77,-293 1138.91,-208.44 1195.66,-170.27"/>
<polygon fill="midnightblue" stroke="midnightblue" points="1197.79,-173.06 1204.12,-164.56 1193.87,-167.26 1197.79,-173.06"/>
</g>
<!-- Node12 -->
<g id="node12" class="node">
<title>Node12</title>
<g id="a_node12"><a xlink:title=" ">
<polygon fill="none" stroke="#bfbfbf" points="1289.5,-134.5 1289.5,-164.5 1383.5,-164.5 1383.5,-134.5 1289.5,-134.5"/>
<text text-anchor="start" x="1297.5" y="-152.5" font-family="Helvetica,sans-Serif" font-size="10.00">boost/archive/text</text>
<text text-anchor="middle" x="1336.5" y="-141.5" font-family="Helvetica,sans-Serif" font-size="10.00">_oarchive.hpp</text>
</a>
</g>
</g>
<!-- Node1&#45;&gt;Node12 -->
<g id="edge60" class="edge">
<title>Node1&#45;&gt;Node12</title>
<path fill="none" stroke="midnightblue" d="M766.44,-384.64C809.37,-376.06 870.65,-362.14 922.5,-344 1068.7,-292.84 1232.69,-207.17 1302.31,-169.38"/>
<polygon fill="midnightblue" stroke="midnightblue" points="1304,-172.45 1311.1,-164.59 1300.65,-166.3 1304,-172.45"/>
</g>
<!-- Node13 -->
<g id="node13" class="node">
<title>Node13</title>
<g id="a_node13"><a xlink:href="portable__binary__iarchive_8hpp.html" target="_top" xlink:title=" ">
<polygon fill="none" stroke="black" points="408,-134.5 408,-164.5 539,-164.5 539,-134.5 408,-134.5"/>
<text text-anchor="start" x="416" y="-152.5" font-family="Helvetica,sans-Serif" font-size="10.00">Networking/boost/portable</text>
<text text-anchor="middle" x="473.5" y="-141.5" font-family="Helvetica,sans-Serif" font-size="10.00">_binary_iarchive.hpp</text>
</a>
</g>
</g>
<!-- Node1&#45;&gt;Node13 -->
<g id="edge61" class="edge">
<title>Node1&#45;&gt;Node13</title>
<path fill="none" stroke="midnightblue" d="M689.01,-380.38C648.46,-355.03 564.7,-298.24 512.5,-232 498.75,-214.55 488.28,-191.47 481.67,-174.33"/>
<polygon fill="midnightblue" stroke="midnightblue" points="484.8,-172.69 478.05,-164.52 478.23,-175.11 484.8,-172.69"/>
</g>
<!-- Node28 -->
<g id="node28" class="node">
<title>Node28</title>
<g id="a_node28"><a xlink:href="portable__binary__oarchive_8hpp.html" target="_top" xlink:title=" ">
<polygon fill="none" stroke="black" points="906,-134.5 906,-164.5 1037,-164.5 1037,-134.5 906,-134.5"/>
<text text-anchor="start" x="914" y="-152.5" font-family="Helvetica,sans-Serif" font-size="10.00">Networking/boost/portable</text>
<text text-anchor="middle" x="971.5" y="-141.5" font-family="Helvetica,sans-Serif" font-size="10.00">_binary_oarchive.hpp</text>
</a>
</g>
</g>
<!-- Node1&#45;&gt;Node28 -->
<g id="edge62" class="edge">
<title>Node1&#45;&gt;Node28</title>
<path fill="none" stroke="midnightblue" d="M754.64,-380.44C777.96,-371.71 806.92,-359.23 830.5,-344 861.41,-324.03 868.43,-316.67 891.5,-288 921.08,-251.24 946.81,-202.3 960.65,-173.81"/>
<polygon fill="midnightblue" stroke="midnightblue" points="963.88,-175.17 965.04,-164.64 957.57,-172.15 963.88,-175.17"/>
</g>
<!-- Node32 -->
<g id="node32" class="node">
<title>Node32</title>
<g id="a_node32"><a xlink:href="Collider_8hpp.html" target="_top" xlink:title=" ">
<polygon fill="none" stroke="black" points="679,-268.5 679,-287.5 746,-287.5 746,-268.5 679,-268.5"/>
<text text-anchor="middle" x="712.5" y="-275.5" font-family="Helvetica,sans-Serif" font-size="10.00">Collider.hpp</text>
</a>
</g>
</g>
<!-- Node1&#45;&gt;Node32 -->
<g id="edge35" class="edge">
<title>Node1&#45;&gt;Node32</title>
<path fill="none" stroke="midnightblue" d="M712.5,-380.34C712.5,-359.62 712.5,-321.02 712.5,-297.9"/>
<polygon fill="midnightblue" stroke="midnightblue" points="716,-297.67 712.5,-287.67 709,-297.67 716,-297.67"/>
</g>
<!-- Node35 -->
<g id="node35" class="node">
<title>Node35</title>
<g id="a_node35"><a xlink:href="Collision_8hpp.html" target="_top" xlink:title=" ">
<polygon fill="none" stroke="black" points="278,-324.5 278,-343.5 387,-343.5 387,-324.5 278,-324.5"/>
<text text-anchor="middle" x="332.5" y="-331.5" font-family="Helvetica,sans-Serif" font-size="10.00">Physics/Collision.hpp</text>
</a>
</g>
</g>
<!-- Node1&#45;&gt;Node35 -->
<g id="edge48" class="edge">
<title>Node1&#45;&gt;Node35</title>
<path fill="none" stroke="midnightblue" d="M658.86,-386.1C589.98,-375.32 470.58,-356.62 396.87,-345.08"/>
<polygon fill="midnightblue" stroke="midnightblue" points="397.21,-341.59 386.79,-343.5 396.13,-348.51 397.21,-341.59"/>
</g>
<!-- Node3 -->
<g id="node3" class="node">
<title>Node3</title>
<g id="a_node3"><a xlink:title=" ">
<polygon fill="none" stroke="#bfbfbf" points="339,-140 339,-159 390,-159 390,-140 339,-140"/>
<text text-anchor="middle" x="364.5" y="-147" font-family="Helvetica,sans-Serif" font-size="10.00">memory</text>
</a>
</g>
</g>
<!-- Node2&#45;&gt;Node3 -->
<g id="edge2" class="edge">
<title>Node2&#45;&gt;Node3</title>
<path fill="none" stroke="midnightblue" d="M562.36,-207.07C520.54,-198.25 454.87,-183.18 399.5,-165 397.37,-164.3 395.18,-163.53 392.99,-162.72"/>
<polygon fill="midnightblue" stroke="midnightblue" points="394.15,-159.41 383.56,-159.01 391.58,-165.92 394.15,-159.41"/>
</g>
<!-- Node2&#45;&gt;Node4 -->
<g id="edge3" class="edge">
<title>Node2&#45;&gt;Node4</title>
<path fill="none" stroke="midnightblue" d="M562.43,-208.72C546.21,-206.19 527.51,-203.35 510.5,-201 383.28,-183.4 347.56,-189.24 217.97,-165.14"/>
<polygon fill="midnightblue" stroke="midnightblue" points="218.54,-161.68 208.06,-163.27 217.24,-168.56 218.54,-161.68"/>
</g>
<!-- Node5 -->
<g id="node5" class="node">
<title>Node5</title>
<g id="a_node5"><a xlink:title=" ">
<polygon fill="none" stroke="#bfbfbf" points="557,-134.5 557,-164.5 652,-164.5 652,-134.5 557,-134.5"/>
<text text-anchor="start" x="565" y="-152.5" font-family="Helvetica,sans-Serif" font-size="10.00">boost/serialization</text>
<text text-anchor="middle" x="604.5" y="-141.5" font-family="Helvetica,sans-Serif" font-size="10.00">/map.hpp</text>
</a>
</g>
</g>
<!-- Node2&#45;&gt;Node5 -->
<g id="edge4" class="edge">
<title>Node2&#45;&gt;Node5</title>
<path fill="none" stroke="midnightblue" d="M604.5,-206.73C604.5,-198.54 604.5,-185.92 604.5,-174.71"/>
<polygon fill="midnightblue" stroke="midnightblue" points="608,-174.59 604.5,-164.59 601,-174.59 608,-174.59"/>
</g>
<!-- Node6 -->
<g id="node6" class="node">
<title>Node6</title>
<g id="a_node6"><a xlink:title=" ">
<polygon fill="none" stroke="#bfbfbf" points="670,-134.5 670,-164.5 765,-164.5 765,-134.5 670,-134.5"/>
<text text-anchor="start" x="678" y="-152.5" font-family="Helvetica,sans-Serif" font-size="10.00">boost/serialization</text>
<text text-anchor="middle" x="717.5" y="-141.5" font-family="Helvetica,sans-Serif" font-size="10.00">/vector.hpp</text>
</a>
</g>
</g>
<!-- Node2&#45;&gt;Node6 -->
<g id="edge5" class="edge">
<title>Node2&#45;&gt;Node6</title>
<path fill="none" stroke="midnightblue" d="M619.74,-206.73C636.19,-197.27 662.89,-181.91 684.23,-169.64"/>
<polygon fill="midnightblue" stroke="midnightblue" points="686.08,-172.61 693.01,-164.59 682.59,-166.54 686.08,-172.61"/>
</g>
<!-- Node7 -->
<g id="node7" class="node">
<title>Node7</title>
<g id="a_node7"><a xlink:title=" ">
<polygon fill="none" stroke="#bfbfbf" points="226,-134.5 226,-164.5 321,-164.5 321,-134.5 226,-134.5"/>
<text text-anchor="start" x="234" y="-152.5" font-family="Helvetica,sans-Serif" font-size="10.00">boost/serialization</text>
<text text-anchor="middle" x="273.5" y="-141.5" font-family="Helvetica,sans-Serif" font-size="10.00">/shared_ptr.hpp</text>
</a>
</g>
</g>
<!-- Node2&#45;&gt;Node7 -->
<g id="edge6" class="edge">
<title>Node2&#45;&gt;Node7</title>
<path fill="none" stroke="midnightblue" d="M562.08,-208.59C510.03,-199.9 418.89,-184.06 330.91,-165"/>
<polygon fill="midnightblue" stroke="midnightblue" points="331.55,-161.56 321.03,-162.84 330.05,-168.4 331.55,-161.56"/>
</g>
<!-- Node2&#45;&gt;Node8 -->
<g id="edge7" class="edge">
<title>Node2&#45;&gt;Node8</title>
<path fill="none" stroke="midnightblue" d="M562.3,-213.43C477.33,-208.79 279.47,-195.62 104.92,-165.09"/>
<polygon fill="midnightblue" stroke="midnightblue" points="105.51,-161.64 95.05,-163.34 104.29,-168.53 105.51,-161.64"/>
</g>
<!-- Node2&#45;&gt;Node9 -->
<g id="edge8" class="edge">
<title>Node2&#45;&gt;Node9</title>
<path fill="none" stroke="midnightblue" d="M635.18,-206.87C670.96,-196.8 730.97,-179.91 775.99,-167.24"/>
<polygon fill="midnightblue" stroke="midnightblue" points="776.97,-170.61 785.65,-164.53 775.07,-163.87 776.97,-170.61"/>
</g>
<!-- Node2&#45;&gt;Node10 -->
<g id="edge9" class="edge">
<title>Node2&#45;&gt;Node10</title>
<path fill="none" stroke="midnightblue" d="M646.81,-210.67C746.7,-199.27 992.27,-171.23 1045.36,-164.65"/>
<polygon fill="midnightblue" stroke="midnightblue" points="1045.89,-168.11 1055.34,-163.33 1044.97,-161.17 1045.89,-168.11"/>
</g>
<!-- Node2&#45;&gt;Node11 -->
<g id="edge10" class="edge">
<title>Node2&#45;&gt;Node11</title>
<path fill="none" stroke="midnightblue" d="M646.51,-210.37C671.23,-207.43 703.12,-203.79 731.5,-201 922.23,-182.26 974.63,-197.04 1167.38,-165"/>
<polygon fill="midnightblue" stroke="midnightblue" points="1167.99,-168.45 1177.27,-163.34 1166.82,-161.54 1167.99,-168.45"/>
</g>
<!-- Node2&#45;&gt;Node12 -->
<g id="edge11" class="edge">
<title>Node2&#45;&gt;Node12</title>
<path fill="none" stroke="midnightblue" d="M646.78,-210.16C671.46,-207.17 703.21,-203.54 731.5,-201 971.71,-179.42 1037.29,-203.15 1279.12,-165.02"/>
<polygon fill="midnightblue" stroke="midnightblue" points="1279.95,-168.43 1289.28,-163.39 1278.85,-161.51 1279.95,-168.43"/>
</g>
<!-- Node2&#45;&gt;Node13 -->
<g id="edge12" class="edge">
<title>Node2&#45;&gt;Node13</title>
<path fill="none" stroke="midnightblue" d="M587.1,-206.87C567.85,-197.31 536.23,-181.63 511.24,-169.22"/>
<polygon fill="midnightblue" stroke="midnightblue" points="512.53,-165.96 502.02,-164.65 509.42,-172.23 512.53,-165.96"/>
</g>
<!-- Node2&#45;&gt;Node28 -->
<g id="edge27" class="edge">
<title>Node2&#45;&gt;Node28</title>
<path fill="none" stroke="midnightblue" d="M646.62,-208.48C701.47,-199.29 800.61,-182.46 895.6,-165.14"/>
<polygon fill="midnightblue" stroke="midnightblue" points="896.46,-168.55 905.66,-163.3 895.2,-161.66 896.46,-168.55"/>
</g>
<!-- Node14 -->
<g id="node14" class="node">
<title>Node14</title>
<g id="a_node14"><a xlink:title=" ">
<polygon fill="none" stroke="#bfbfbf" points="192,-73 192,-92 241,-92 241,-73 192,-73"/>
<text text-anchor="middle" x="216.5" y="-80" font-family="Helvetica,sans-Serif" font-size="10.00">istream</text>
</a>
</g>
</g>
<!-- Node13&#45;&gt;Node14 -->
<g id="edge13" class="edge">
<title>Node13&#45;&gt;Node14</title>
<path fill="none" stroke="midnightblue" d="M407.96,-135.18C352.82,-123.71 278.47,-107.53 249.5,-98 247.63,-97.38 245.72,-96.7 243.8,-95.97"/>
<polygon fill="midnightblue" stroke="midnightblue" points="244.99,-92.68 234.41,-92.12 242.33,-99.15 244.99,-92.68"/>
</g>
<!-- Node15 -->
<g id="node15" class="node">
<title>Node15</title>
<g id="a_node15"><a xlink:title=" ">
<polygon fill="none" stroke="#bfbfbf" points="676,-67.5 676,-97.5 771,-97.5 771,-67.5 676,-67.5"/>
<text text-anchor="start" x="684" y="-85.5" font-family="Helvetica,sans-Serif" font-size="10.00">boost/serialization</text>
<text text-anchor="middle" x="723.5" y="-74.5" font-family="Helvetica,sans-Serif" font-size="10.00">/string.hpp</text>
</a>
</g>
</g>
<!-- Node13&#45;&gt;Node15 -->
<g id="edge14" class="edge">
<title>Node13&#45;&gt;Node15</title>
<path fill="none" stroke="midnightblue" d="M527.44,-134.48C568.37,-123.83 624.52,-109.24 666.24,-98.39"/>
<polygon fill="midnightblue" stroke="midnightblue" points="667.19,-101.76 675.98,-95.85 665.42,-94.98 667.19,-101.76"/>
</g>
<!-- Node16 -->
<g id="node16" class="node">
<title>Node16</title>
<g id="a_node16"><a xlink:title=" ">
<polygon fill="none" stroke="#bfbfbf" points="258.5,-67.5 258.5,-97.5 374.5,-97.5 374.5,-67.5 258.5,-67.5"/>
<text text-anchor="start" x="266.5" y="-85.5" font-family="Helvetica,sans-Serif" font-size="10.00">boost/serialization</text>
<text text-anchor="middle" x="316.5" y="-74.5" font-family="Helvetica,sans-Serif" font-size="10.00">/item_version_type.hpp</text>
</a>
</g>
</g>
<!-- Node13&#45;&gt;Node16 -->
<g id="edge15" class="edge">
<title>Node13&#45;&gt;Node16</title>
<path fill="none" stroke="midnightblue" d="M439.43,-134.4C416.08,-124.73 384.91,-111.82 359.8,-101.43"/>
<polygon fill="midnightblue" stroke="midnightblue" points="361.08,-98.17 350.5,-97.58 358.4,-104.64 361.08,-98.17"/>
</g>
<!-- Node17 -->
<g id="node17" class="node">
<title>Node17</title>
<g id="a_node17"><a xlink:title=" ">
<polygon fill="none" stroke="#bfbfbf" points="789.5,-67.5 789.5,-97.5 899.5,-97.5 899.5,-67.5 789.5,-67.5"/>
<text text-anchor="start" x="797.5" y="-85.5" font-family="Helvetica,sans-Serif" font-size="10.00">boost/archive/archive</text>
<text text-anchor="middle" x="844.5" y="-74.5" font-family="Helvetica,sans-Serif" font-size="10.00">_exception.hpp</text>
</a>
</g>
</g>
<!-- Node13&#45;&gt;Node17 -->
<g id="edge16" class="edge">
<title>Node13&#45;&gt;Node17</title>
<path fill="none" stroke="midnightblue" d="M539.32,-135.63C542.42,-135.07 545.5,-134.52 548.5,-134 648.19,-116.64 676.31,-117.47 779.5,-98.11"/>
<polygon fill="midnightblue" stroke="midnightblue" points="780.22,-101.54 789.39,-96.24 778.92,-94.66 780.22,-101.54"/>
</g>
<!-- Node18 -->
<g id="node18" class="node">
<title>Node18</title>
<g id="a_node18"><a xlink:title=" ">
<polygon fill="none" stroke="#bfbfbf" points="392.5,-67.5 392.5,-97.5 502.5,-97.5 502.5,-67.5 392.5,-67.5"/>
<text text-anchor="start" x="400.5" y="-85.5" font-family="Helvetica,sans-Serif" font-size="10.00">boost/archive/basic</text>
<text text-anchor="middle" x="447.5" y="-74.5" font-family="Helvetica,sans-Serif" font-size="10.00">_binary_iprimitive.hpp</text>
</a>
</g>
</g>
<!-- Node13&#45;&gt;Node18 -->
<g id="edge17" class="edge">
<title>Node13&#45;&gt;Node18</title>
<path fill="none" stroke="midnightblue" d="M467.86,-134.4C464.66,-126.39 460.56,-116.16 456.89,-106.98"/>
<polygon fill="midnightblue" stroke="midnightblue" points="460.09,-105.56 453.13,-97.58 453.59,-108.16 460.09,-105.56"/>
</g>
<!-- Node19 -->
<g id="node19" class="node">
<title>Node19</title>
<g id="a_node19"><a xlink:title=" ">
<polygon fill="none" stroke="#bfbfbf" points="59.5,-67.5 59.5,-97.5 173.5,-97.5 173.5,-67.5 59.5,-67.5"/>
<text text-anchor="start" x="67.5" y="-85.5" font-family="Helvetica,sans-Serif" font-size="10.00">boost/archive/detail</text>
<text text-anchor="middle" x="116.5" y="-74.5" font-family="Helvetica,sans-Serif" font-size="10.00">/common_iarchive.hpp</text>
</a>
</g>
</g>
<!-- Node13&#45;&gt;Node19 -->
<g id="edge18" class="edge">
<title>Node13&#45;&gt;Node19</title>
<path fill="none" stroke="midnightblue" d="M407.75,-135.51C404.96,-135 402.21,-134.49 399.5,-134 306.4,-117.16 280.17,-116.52 183.59,-98.15"/>
<polygon fill="midnightblue" stroke="midnightblue" points="184.18,-94.7 173.7,-96.26 182.86,-101.58 184.18,-94.7"/>
</g>
<!-- Node20 -->
<g id="node20" class="node">
<title>Node20</title>
<g id="a_node20"><a xlink:title=" ">
<polygon fill="none" stroke="#bfbfbf" points="918,-67.5 918,-97.5 1025,-97.5 1025,-67.5 918,-67.5"/>
<text text-anchor="start" x="926" y="-85.5" font-family="Helvetica,sans-Serif" font-size="10.00">boost/archive/detail</text>
<text text-anchor="middle" x="971.5" y="-74.5" font-family="Helvetica,sans-Serif" font-size="10.00">/register_archive.hpp</text>
</a>
</g>
</g>
<!-- Node13&#45;&gt;Node20 -->
<g id="edge19" class="edge">
<title>Node13&#45;&gt;Node20</title>
<path fill="none" stroke="midnightblue" d="M539.29,-135.43C542.4,-134.92 545.48,-134.44 548.5,-134 704.34,-111.19 748.05,-123.55 907.79,-97.96"/>
<polygon fill="midnightblue" stroke="midnightblue" points="908.67,-101.37 917.98,-96.3 907.54,-94.46 908.67,-101.37"/>
</g>
<!-- Node21 -->
<g id="node21" class="node">
<title>Node21</title>
<g id="a_node21"><a xlink:href="portable__binary__archive_8hpp.html" target="_top" xlink:title=" ">
<polygon fill="none" stroke="black" points="521,-73 521,-92 658,-92 658,-73 521,-73"/>
<text text-anchor="middle" x="589.5" y="-80" font-family="Helvetica,sans-Serif" font-size="10.00">portable_binary_archive.hpp</text>
</a>
</g>
</g>
<!-- Node13&#45;&gt;Node21 -->
<g id="edge20" class="edge">
<title>Node13&#45;&gt;Node21</title>
<path fill="none" stroke="midnightblue" d="M498.67,-134.4C518.48,-123.29 545.92,-107.92 565.44,-96.98"/>
<polygon fill="midnightblue" stroke="midnightblue" points="567.31,-99.95 574.32,-92.01 563.88,-93.84 567.31,-99.95"/>
</g>
<!-- Node22 -->
<g id="node22" class="node">
<title>Node22</title>
<g id="a_node22"><a xlink:title=" ">
<polygon fill="none" stroke="#bfbfbf" points="266,-6 266,-25 353,-25 353,-6 266,-6"/>
<text text-anchor="middle" x="309.5" y="-13" font-family="Helvetica,sans-Serif" font-size="10.00">boost/config.hpp</text>
</a>
</g>
</g>
<!-- Node21&#45;&gt;Node22 -->
<g id="edge21" class="edge">
<title>Node21&#45;&gt;Node22</title>
<path fill="none" stroke="midnightblue" d="M548.35,-72.97C502.77,-63.37 427.16,-47.03 362.5,-31 358.33,-29.97 353.99,-28.85 349.67,-27.71"/>
<polygon fill="midnightblue" stroke="midnightblue" points="350.27,-24.25 339.7,-25.03 348.45,-31.01 350.27,-24.25"/>
</g>
<!-- Node23 -->
<g id="node23" class="node">
<title>Node23</title>
<g id="a_node23"><a xlink:title=" ">
<polygon fill="none" stroke="#bfbfbf" points="371,-6 371,-25 462,-25 462,-6 371,-6"/>
<text text-anchor="middle" x="416.5" y="-13" font-family="Helvetica,sans-Serif" font-size="10.00">boost/cstdint.hpp</text>
</a>
</g>
</g>
<!-- Node21&#45;&gt;Node23 -->
<g id="edge22" class="edge">
<title>Node21&#45;&gt;Node23</title>
<path fill="none" stroke="midnightblue" d="M566.53,-72.87C536.33,-61.52 483.1,-41.52 448.84,-28.65"/>
<polygon fill="midnightblue" stroke="midnightblue" points="449.88,-25.3 439.29,-25.06 447.42,-31.86 449.88,-25.3"/>
</g>
<!-- Node24 -->
<g id="node24" class="node">
<title>Node24</title>
<g id="a_node24"><a xlink:title=" ">
<polygon fill="none" stroke="#bfbfbf" points="480.5,-6 480.5,-25 598.5,-25 598.5,-6 480.5,-6"/>
<text text-anchor="middle" x="539.5" y="-13" font-family="Helvetica,sans-Serif" font-size="10.00">boost/static_assert.hpp</text>
</a>
</g>
</g>
<!-- Node21&#45;&gt;Node24 -->
<g id="edge23" class="edge">
<title>Node21&#45;&gt;Node24</title>
<path fill="none" stroke="midnightblue" d="M582.76,-72.73C574.96,-62.6 561.95,-45.69 552.24,-33.06"/>
<polygon fill="midnightblue" stroke="midnightblue" points="555.01,-30.92 546.14,-25.13 549.46,-35.19 555.01,-30.92"/>
</g>
<!-- Node25 -->
<g id="node25" class="node">
<title>Node25</title>
<g id="a_node25"><a xlink:title=" ">
<polygon fill="none" stroke="#bfbfbf" points="617,-6 617,-25 662,-25 662,-6 617,-6"/>
<text text-anchor="middle" x="639.5" y="-13" font-family="Helvetica,sans-Serif" font-size="10.00">climits</text>
</a>
</g>
</g>
<!-- Node21&#45;&gt;Node25 -->
<g id="edge24" class="edge">
<title>Node21&#45;&gt;Node25</title>
<path fill="none" stroke="midnightblue" d="M596.24,-72.73C604.04,-62.6 617.05,-45.69 626.76,-33.06"/>
<polygon fill="midnightblue" stroke="midnightblue" points="629.54,-35.19 632.86,-25.13 623.99,-30.92 629.54,-35.19"/>
</g>
<!-- Node26 -->
<g id="node26" class="node">
<title>Node26</title>
<g id="a_node26"><a xlink:title=" ">
<polygon fill="none" stroke="#bfbfbf" points="680,-0.5 680,-30.5 781,-30.5 781,-0.5 680,-0.5"/>
<text text-anchor="start" x="688" y="-18.5" font-family="Helvetica,sans-Serif" font-size="10.00">boost/archive/basic</text>
<text text-anchor="middle" x="730.5" y="-7.5" font-family="Helvetica,sans-Serif" font-size="10.00">_archive.hpp</text>
</a>
</g>
</g>
<!-- Node21&#45;&gt;Node26 -->
<g id="edge25" class="edge">
<title>Node21&#45;&gt;Node26</title>
<path fill="none" stroke="midnightblue" d="M608.22,-72.87C629.2,-63.2 663.8,-47.25 690.85,-34.78"/>
<polygon fill="midnightblue" stroke="midnightblue" points="692.45,-37.89 700.07,-30.53 689.52,-31.54 692.45,-37.89"/>
</g>
<!-- Node27 -->
<g id="node27" class="node">
<title>Node27</title>
<g id="a_node27"><a xlink:title=" ">
<polygon fill="none" stroke="#bfbfbf" points="799,-0.5 799,-30.5 894,-30.5 894,-0.5 799,-0.5"/>
<text text-anchor="start" x="807" y="-18.5" font-family="Helvetica,sans-Serif" font-size="10.00">boost/predef/other</text>
<text text-anchor="middle" x="846.5" y="-7.5" font-family="Helvetica,sans-Serif" font-size="10.00">/endian.h</text>
</a>
</g>
</g>
<!-- Node21&#45;&gt;Node27 -->
<g id="edge26" class="edge">
<title>Node21&#45;&gt;Node27</title>
<path fill="none" stroke="midnightblue" d="M623.66,-73C661.72,-63.51 725.33,-47.59 789.04,-31.36"/>
<polygon fill="midnightblue" stroke="midnightblue" points="790.02,-34.73 798.85,-28.86 788.29,-27.94 790.02,-34.73"/>
</g>
<!-- Node28&#45;&gt;Node15 -->
<g id="edge29" class="edge">
<title>Node28&#45;&gt;Node15</title>
<path fill="none" stroke="midnightblue" d="M917.99,-134.48C877.61,-123.89 822.29,-109.39 780.97,-98.56"/>
<polygon fill="midnightblue" stroke="midnightblue" points="781.61,-95.11 771.05,-95.96 779.83,-101.88 781.61,-95.11"/>
</g>
<!-- Node28&#45;&gt;Node17 -->
<g id="edge30" class="edge">
<title>Node28&#45;&gt;Node17</title>
<path fill="none" stroke="midnightblue" d="M943.94,-134.4C925.55,-124.98 901.17,-112.5 881.15,-102.26"/>
<polygon fill="midnightblue" stroke="midnightblue" points="882.5,-99.02 872,-97.58 879.31,-105.25 882.5,-99.02"/>
</g>
<!-- Node28&#45;&gt;Node20 -->
<g id="edge33" class="edge">
<title>Node28&#45;&gt;Node20</title>
<path fill="none" stroke="midnightblue" d="M971.5,-134.4C971.5,-126.64 971.5,-116.81 971.5,-107.86"/>
<polygon fill="midnightblue" stroke="midnightblue" points="975,-107.58 971.5,-97.58 968,-107.58 975,-107.58"/>
</g>
<!-- Node28&#45;&gt;Node21 -->
<g id="edge34" class="edge">
<title>Node28&#45;&gt;Node21</title>
<path fill="none" stroke="midnightblue" d="M905.67,-135.64C902.57,-135.08 899.5,-134.53 896.5,-134 795.02,-116.22 769.04,-115.42 667.5,-98 660.04,-96.72 652.2,-95.32 644.47,-93.92"/>
<polygon fill="midnightblue" stroke="midnightblue" points="644.89,-90.44 634.42,-92.07 643.62,-97.32 644.89,-90.44"/>
</g>
<!-- Node29 -->
<g id="node29" class="node">
<title>Node29</title>
<g id="a_node29"><a xlink:title=" ">
<polygon fill="none" stroke="#bfbfbf" points="1178.5,-73 1178.5,-92 1230.5,-92 1230.5,-73 1178.5,-73"/>
<text text-anchor="middle" x="1204.5" y="-80" font-family="Helvetica,sans-Serif" font-size="10.00">ostream</text>
</a>
</g>
</g>
<!-- Node28&#45;&gt;Node29 -->
<g id="edge28" class="edge">
<title>Node28&#45;&gt;Node29</title>
<path fill="none" stroke="midnightblue" d="M1036.38,-134.42C1075.37,-125.36 1125.74,-112.56 1169.5,-98 1171.42,-97.36 1173.38,-96.67 1175.35,-95.94"/>
<polygon fill="midnightblue" stroke="midnightblue" points="1177.03,-99.04 1185.06,-92.13 1174.48,-92.52 1177.03,-99.04"/>
</g>
<!-- Node30 -->
<g id="node30" class="node">
<title>Node30</title>
<g id="a_node30"><a xlink:title=" ">
<polygon fill="none" stroke="#bfbfbf" points="1249,-67.5 1249,-97.5 1362,-97.5 1362,-67.5 1249,-67.5"/>
<text text-anchor="start" x="1257" y="-85.5" font-family="Helvetica,sans-Serif" font-size="10.00">boost/archive/basic</text>
<text text-anchor="middle" x="1305.5" y="-74.5" font-family="Helvetica,sans-Serif" font-size="10.00">_binary_oprimitive.hpp</text>
</a>
</g>
</g>
<!-- Node28&#45;&gt;Node30 -->
<g id="edge31" class="edge">
<title>Node28&#45;&gt;Node30</title>
<path fill="none" stroke="midnightblue" d="M1037.35,-135.74C1040.44,-135.15 1043.5,-134.57 1046.5,-134 1129.13,-118.31 1152.33,-115.55 1238.98,-98.07"/>
<polygon fill="midnightblue" stroke="midnightblue" points="1239.89,-101.45 1249,-96.04 1238.5,-94.59 1239.89,-101.45"/>
</g>
<!-- Node31 -->
<g id="node31" class="node">
<title>Node31</title>
<g id="a_node31"><a xlink:title=" ">
<polygon fill="none" stroke="#bfbfbf" points="1043,-67.5 1043,-97.5 1160,-97.5 1160,-67.5 1043,-67.5"/>
<text text-anchor="start" x="1051" y="-85.5" font-family="Helvetica,sans-Serif" font-size="10.00">boost/archive/detail</text>
<text text-anchor="middle" x="1101.5" y="-74.5" font-family="Helvetica,sans-Serif" font-size="10.00">/common_oarchive.hpp</text>
</a>
</g>
</g>
<!-- Node28&#45;&gt;Node31 -->
<g id="edge32" class="edge">
<title>Node28&#45;&gt;Node31</title>
<path fill="none" stroke="midnightblue" d="M999.71,-134.4C1018.62,-124.94 1043.72,-112.39 1064.27,-102.12"/>
<polygon fill="midnightblue" stroke="midnightblue" points="1065.97,-105.18 1073.35,-97.58 1062.84,-98.92 1065.97,-105.18"/>
</g>
<!-- Node32&#45;&gt;Node2 -->
<g id="edge37" class="edge">
<title>Node32&#45;&gt;Node2</title>
<path fill="none" stroke="midnightblue" d="M697.03,-268.48C679.22,-258.67 649.76,-242.43 628.87,-230.92"/>
<polygon fill="midnightblue" stroke="midnightblue" points="630.39,-227.77 619.95,-226.01 627.01,-233.9 630.39,-227.77"/>
</g>
<!-- Node32&#45;&gt;Node4 -->
<g id="edge38" class="edge">
<title>Node32&#45;&gt;Node4</title>
<path fill="none" stroke="midnightblue" d="M678.73,-269.76C599.88,-252.78 397.29,-208.67 218.01,-165.33"/>
<polygon fill="midnightblue" stroke="midnightblue" points="218.68,-161.89 208.13,-162.94 217.03,-168.7 218.68,-161.89"/>
</g>
<!-- Node32&#45;&gt;Node6 -->
<g id="edge40" class="edge">
<title>Node32&#45;&gt;Node6</title>
<path fill="none" stroke="midnightblue" d="M708.9,-268.22C705.44,-259.28 700.47,-244.94 698.5,-232 696.43,-218.38 696.03,-214.56 698.5,-201 700.14,-191.96 703.32,-182.43 706.61,-174.12"/>
<polygon fill="midnightblue" stroke="midnightblue" points="709.92,-175.26 710.59,-164.69 703.47,-172.54 709.92,-175.26"/>
</g>
<!-- Node32&#45;&gt;Node8 -->
<g id="edge39" class="edge">
<title>Node32&#45;&gt;Node8</title>
<path fill="none" stroke="midnightblue" d="M678.82,-273.73C617.95,-267.55 485.69,-252.86 375.5,-232 256.4,-209.45 225.8,-196.2 105.15,-165.42"/>
<polygon fill="midnightblue" stroke="midnightblue" points="105.7,-161.95 95.15,-162.88 103.98,-168.73 105.7,-161.95"/>
</g>
<!-- Node32&#45;&gt;Node9 -->
<g id="edge42" class="edge">
<title>Node32&#45;&gt;Node9</title>
<path fill="none" stroke="midnightblue" d="M712.39,-268.45C712.64,-253.21 715.21,-221.06 731.5,-201 743.13,-186.67 759.83,-176.12 776.45,-168.48"/>
<polygon fill="midnightblue" stroke="midnightblue" points="777.84,-171.69 785.65,-164.53 775.08,-165.26 777.84,-171.69"/>
</g>
<!-- Node32&#45;&gt;Node10 -->
<g id="edge43" class="edge">
<title>Node32&#45;&gt;Node10</title>
<path fill="none" stroke="midnightblue" d="M746.34,-272.91C790.97,-266.92 871.56,-254.01 937.5,-232 987.02,-215.47 1040.83,-187.9 1074.35,-169.46"/>
<polygon fill="midnightblue" stroke="midnightblue" points="1076.21,-172.44 1083.25,-164.52 1072.81,-166.32 1076.21,-172.44"/>
</g>
<!-- Node32&#45;&gt;Node11 -->
<g id="edge44" class="edge">
<title>Node32&#45;&gt;Node11</title>
<path fill="none" stroke="midnightblue" d="M746.19,-273.31C798.26,-267.19 901.18,-253.45 986.5,-232 1055.45,-214.66 1132.95,-186.42 1180.24,-168.15"/>
<polygon fill="midnightblue" stroke="midnightblue" points="1181.52,-171.41 1189.57,-164.52 1178.98,-164.88 1181.52,-171.41"/>
</g>
<!-- Node32&#45;&gt;Node12 -->
<g id="edge45" class="edge">
<title>Node32&#45;&gt;Node12</title>
<path fill="none" stroke="midnightblue" d="M746.25,-274.12C807.25,-268.54 939.69,-254.8 1049.5,-232 1132.75,-214.72 1227.23,-186.09 1284.32,-167.77"/>
<polygon fill="midnightblue" stroke="midnightblue" points="1285.74,-170.99 1294.19,-164.59 1283.6,-164.33 1285.74,-170.99"/>
</g>
<!-- Node32&#45;&gt;Node13 -->
<g id="edge46" class="edge">
<title>Node32&#45;&gt;Node13</title>
<path fill="none" stroke="midnightblue" d="M678.85,-272.64C645.22,-267.14 592.98,-255.41 553.5,-232 527.77,-216.74 504.58,-191.16 489.87,-172.72"/>
<polygon fill="midnightblue" stroke="midnightblue" points="492.63,-170.56 483.73,-164.81 487.1,-174.86 492.63,-170.56"/>
</g>
<!-- Node32&#45;&gt;Node28 -->
<g id="edge47" class="edge">
<title>Node32&#45;&gt;Node28</title>
<path fill="none" stroke="midnightblue" d="M746.13,-275.95C787.19,-273.23 857.35,-263.86 907.5,-232 930.23,-217.56 948.27,-192.14 959.32,-173.51"/>
<polygon fill="midnightblue" stroke="midnightblue" points="962.41,-175.17 964.31,-164.74 956.32,-171.7 962.41,-175.17"/>
</g>
<!-- Node33 -->
<g id="node33" class="node">
<title>Node33</title>
<g id="a_node33"><a xlink:title=" ">
<polygon fill="none" stroke="#bfbfbf" points="740.5,-207 740.5,-226 784.5,-226 784.5,-207 740.5,-207"/>
<text text-anchor="middle" x="762.5" y="-214" font-family="Helvetica,sans-Serif" font-size="10.00">vector</text>
</a>
</g>
</g>
<!-- Node32&#45;&gt;Node33 -->
<g id="edge36" class="edge">
<title>Node32&#45;&gt;Node33</title>
<path fill="none" stroke="midnightblue" d="M719.66,-268.48C727.24,-259.46 739.37,-245.02 748.79,-233.81"/>
<polygon fill="midnightblue" stroke="midnightblue" points="751.6,-235.92 755.35,-226.01 746.24,-231.41 751.6,-235.92"/>
</g>
<!-- Node34 -->
<g id="node34" class="node">
<title>Node34</title>
<g id="a_node34"><a xlink:title=" ">
<polygon fill="none" stroke="#bfbfbf" points="803,-201.5 803,-231.5 898,-231.5 898,-201.5 803,-201.5"/>
<text text-anchor="start" x="811" y="-219.5" font-family="Helvetica,sans-Serif" font-size="10.00">boost/serialization</text>
<text text-anchor="middle" x="850.5" y="-208.5" font-family="Helvetica,sans-Serif" font-size="10.00">/weak_ptr.hpp</text>
</a>
</g>
</g>
<!-- Node32&#45;&gt;Node34 -->
<g id="edge41" class="edge">
<title>Node32&#45;&gt;Node34</title>
<path fill="none" stroke="midnightblue" d="M732.27,-268.48C752.1,-259.93 783.24,-246.5 808.58,-235.57"/>
<polygon fill="midnightblue" stroke="midnightblue" points="810.18,-238.7 817.98,-231.52 807.41,-232.27 810.18,-238.7"/>
</g>
<!-- Node35&#45;&gt;Node3 -->
<g id="edge49" class="edge">
<title>Node35&#45;&gt;Node3</title>
<path fill="none" stroke="midnightblue" d="M335.63,-324.49C338.81,-315.53 343.66,-300.95 346.5,-288 355.66,-246.21 360.78,-196.18 363.05,-169.49"/>
<polygon fill="midnightblue" stroke="midnightblue" points="366.56,-169.53 363.88,-159.28 359.58,-168.96 366.56,-169.53"/>
</g>
<!-- Node35&#45;&gt;Node4 -->
<g id="edge52" class="edge">
<title>Node35&#45;&gt;Node4</title>
<path fill="none" stroke="midnightblue" d="M303.16,-324.4C282.83,-317.26 256.17,-305.44 237.5,-288 202.98,-255.76 180,-204.47 168.7,-174.48"/>
<polygon fill="midnightblue" stroke="midnightblue" points="171.89,-173.03 165.18,-164.83 165.31,-175.43 171.89,-173.03"/>
</g>
<!-- Node35&#45;&gt;Node7 -->
<g id="edge54" class="edge">
<title>Node35&#45;&gt;Node7</title>
<path fill="none" stroke="midnightblue" d="M330.04,-324.13C326.53,-311.58 319.81,-287.95 313.5,-268 303.14,-235.25 290.17,-197.72 281.86,-174.07"/>
<polygon fill="midnightblue" stroke="midnightblue" points="285.13,-172.81 278.5,-164.54 278.53,-175.14 285.13,-172.81"/>
</g>
<!-- Node35&#45;&gt;Node8 -->
<g id="edge53" class="edge">
<title>Node35&#45;&gt;Node8</title>
<path fill="none" stroke="midnightblue" d="M303.5,-324.4C279.54,-316.66 245.12,-304.05 217.5,-288 159.36,-254.2 100.27,-201.33 69.39,-171.97"/>
<polygon fill="midnightblue" stroke="midnightblue" points="71.45,-169.09 61.81,-164.69 66.6,-174.14 71.45,-169.09"/>
</g>
<!-- Node35&#45;&gt;Node32 -->
<g id="edge51" class="edge">
<title>Node35&#45;&gt;Node32</title>
<path fill="none" stroke="midnightblue" d="M387.35,-325.21C463.3,-314.41 598.99,-295.13 668.63,-285.23"/>
<polygon fill="midnightblue" stroke="midnightblue" points="669.4,-288.66 678.81,-283.79 668.42,-281.73 669.4,-288.66"/>
</g>
<!-- Node36 -->
<g id="node36" class="node">
<title>Node36</title>
<g id="a_node36"><a xlink:href="Point_8hpp.html" target="_top" xlink:title=" ">
<polygon fill="none" stroke="black" points="247,-268.5 247,-287.5 304,-287.5 304,-268.5 247,-268.5"/>
<text text-anchor="middle" x="275.5" y="-275.5" font-family="Helvetica,sans-Serif" font-size="10.00">Point.hpp</text>
</a>
</g>
</g>
<!-- Node35&#45;&gt;Node36 -->
<g id="edge50" class="edge">
<title>Node35&#45;&gt;Node36</title>
<path fill="none" stroke="midnightblue" d="M323.34,-324.32C315,-316.42 302.47,-304.55 292.32,-294.94"/>
<polygon fill="midnightblue" stroke="midnightblue" points="294.49,-292.17 284.82,-287.83 289.68,-297.25 294.49,-292.17"/>
</g>
</g>
</svg>
        <g id="navigator" transform="translate(0 0)" fill="#404254">
                <rect fill="#f2f5e9" fill-opacity="0.5" stroke="#606060" stroke-width=".5" x="0" y="0" width="60" height="60"/>
                <use id="zoomplus" xlink:href="#zoomPlus" x="17" y="9" onmousedown="handleZoom(evt,'in')"/>
                <use id="zoomminus" xlink:href="#zoomMin" x="42" y="9" onmousedown="handleZoom(evt,'out')"/>
                <use id="reset" xlink:href="#resetDef" x="30" y="36" onmousedown="handleReset()"/>
                <g id="arrowUp" xlink:href="#dirArrow" transform="translate(30 24)" onmousedown="handlePan(0,-1)">
                  <use xlink:href="#rim" fill="#404040">
                        <set attributeName="fill" to="#808080" begin="arrowUp.mouseover" end="arrowUp.mouseout"/>
                  </use>
                  <path fill="none" stroke="white" stroke-width="1.5" d="M0,-3.0v7 M-2.5,-0.5L0,-3.0L2.5,-0.5"/>
                </g>
                <g id="arrowRight" xlink:href="#dirArrow" transform="rotate(90) translate(36 -43)" onmousedown="handlePan(1,0)">
                  <use xlink:href="#rim" fill="#404040">
                        <set attributeName="fill" to="#808080" begin="arrowRight.mouseover" end="arrowRight.mouseout"/>
                  </use>
                  <path fill="none" stroke="white" stroke-width="1.5" d="M0,-3.0v7 M-2.5,-0.5L0,-3.0L2.5,-0.5"/>
                </g>
                <g id="arrowDown" xlink:href="#dirArrow" transform="rotate(180) translate(-30 -48)" onmousedown="handlePan(0,1)">
                  <use xlink:href="#rim" fill="#404040">
                        <set attributeName="fill" to="#808080" begin="arrowDown.mouseover" end="arrowDown.mouseout"/>
                  </use>
                  <path fill="none" stroke="white" stroke-width="1.5" d="M0,-3.0v7 M-2.5,-0.5L0,-3.0L2.5,-0.5"/>
                </g>
                <g id="arrowLeft" xlink:href="#dirArrow" transform="rotate(270) translate(-36 17)" onmousedown="handlePan(-1,0)">
                  <use xlink:href="#rim" fill="#404040">
                        <set attributeName="fill" to="#808080" begin="arrowLeft.mouseover" end="arrowLeft.mouseout"/>
                  </use>
                  <path fill="none" stroke="white" stroke-width="1.5" d="M0,-3.0v7 M-2.5,-0.5L0,-3.0L2.5,-0.5"/>
                </g>
        </g>
        <svg viewBox="0 0 15 15" width="100%" height="30px" preserveAspectRatio="xMaxYMin meet">
         <g id="arrow_out" transform="scale(0.3 0.3)">
          <a xlink:href="BehaviourScript_8hpp__incl_org.svg" target="_base">
           <rect id="button" ry="5" rx="5" y="6" x="6" height="38" width="38"
                fill="#f2f5e9" fill-opacity="0.5" stroke="#606060" stroke-width="1.0"/>
           <path id="arrow"
             d="M 11.500037,31.436501 C 11.940474,20.09759 22.043105,11.32322 32.158766,21.979434 L 37.068811,17.246167 C 37.068811,17.246167 37.088388,32 37.088388,32 L 22.160133,31.978069 C 22.160133,31.978069 26.997745,27.140456 26.997745,27.140456 C 18.528582,18.264221 13.291696,25.230495 11.500037,31.436501 z"
             style="fill:#404040;"/>
          </a>
         </g>
        </svg>
</svg>
