<?xml version="1.0" encoding="UTF-8" standalone="no"?>
<!DOCTYPE svg PUBLIC "-//W3C//DTD SVG 1.1//EN"
 "http://www.w3.org/Graphics/SVG/1.1/DTD/svg11.dtd">
<!-- Generated by graphviz version 2.44.0 ()
 -->
<!-- Title: includes/spic&#45;prj&#45;api/BehaviourScript.hpp Pages: 1 -->
<svg width="259pt" height="207pt"
 viewBox="0.00 0.00 258.50 207.00" xmlns="http://www.w3.org/2000/svg" xmlns:xlink="http://www.w3.org/1999/xlink">
<g id="graph0" class="graph" transform="scale(1 1) rotate(0) translate(4 203)">
<title>includes/spic&#45;prj&#45;api/BehaviourScript.hpp</title>
<!-- Node1 -->
<g id="node1" class="node">
<title>Node1</title>
<g id="a_node1"><a xlink:title=" ">
<polygon fill="#bfbfbf" stroke="black" points="13.5,-168.5 13.5,-198.5 120.5,-198.5 120.5,-168.5 13.5,-168.5"/>
<text text-anchor="start" x="21.5" y="-186.5" font-family="Helvetica,sans-Serif" font-size="10.00">includes/spic&#45;prj&#45;api</text>
<text text-anchor="middle" x="67" y="-175.5" font-family="Helvetica,sans-Serif" font-size="10.00">/BehaviourScript.hpp</text>
</a>
</g>
</g>
<!-- Node2 -->
<g id="node2" class="node">
<title>Node2</title>
<g id="a_node2"><a xlink:href="Component_8hpp.html" target="_top" xlink:title=" ">
<polygon fill="none" stroke="black" points="0,-0.5 0,-19.5 84,-19.5 84,-0.5 0,-0.5"/>
<text text-anchor="middle" x="42" y="-7.5" font-family="Helvetica,sans-Serif" font-size="10.00">Component.hpp</text>
</a>
</g>
</g>
<!-- Node1&#45;&gt;Node2 -->
<g id="edge1" class="edge">
<title>Node1&#45;&gt;Node2</title>
<path fill="none" stroke="midnightblue" d="M58.77,-168.39C46.27,-145.34 24.5,-97.97 30,-56 31.16,-47.18 33.53,-37.63 35.87,-29.61"/>
<polygon fill="midnightblue" stroke="midnightblue" points="39.29,-30.42 38.91,-19.83 32.6,-28.34 39.29,-30.42"/>
</g>
<!-- Node3 -->
<g id="node3" class="node">
<title>Node3</title>
<g id="a_node3"><a xlink:href="Collider_8hpp.html" target="_top" xlink:title=" ">
<polygon fill="none" stroke="black" points="39.5,-56.5 39.5,-75.5 106.5,-75.5 106.5,-56.5 39.5,-56.5"/>
<text text-anchor="middle" x="73" y="-63.5" font-family="Helvetica,sans-Serif" font-size="10.00">Collider.hpp</text>
</a>
</g>
</g>
<!-- Node1&#45;&gt;Node3 -->
<g id="edge2" class="edge">
<title>Node1&#45;&gt;Node3</title>
<path fill="none" stroke="midnightblue" d="M67.74,-168.34C68.81,-147.62 70.82,-109.02 72.02,-85.9"/>
<polygon fill="midnightblue" stroke="midnightblue" points="75.53,-85.84 72.55,-75.67 68.54,-85.47 75.53,-85.84"/>
</g>
<!-- Node4 -->
<g id="node4" class="node">
<title>Node4</title>
<g id="a_node4"><a xlink:href="Collision_8hpp.html" target="_top" xlink:title=" ">
<polygon fill="none" stroke="black" points="95.5,-112.5 95.5,-131.5 204.5,-131.5 204.5,-112.5 95.5,-112.5"/>
<text text-anchor="middle" x="150" y="-119.5" font-family="Helvetica,sans-Serif" font-size="10.00">Physics/Collision.hpp</text>
</a>
</g>
</g>
<!-- Node1&#45;&gt;Node4 -->
<g id="edge4" class="edge">
<title>Node1&#45;&gt;Node4</title>
<path fill="none" stroke="midnightblue" d="M86.67,-168.4C99.6,-159.13 116.49,-147.03 129.57,-137.65"/>
<polygon fill="midnightblue" stroke="midnightblue" points="131.83,-140.33 137.92,-131.66 127.76,-134.64 131.83,-140.33"/>
</g>
<!-- Node3&#45;&gt;Node2 -->
<g id="edge3" class="edge">
<title>Node3&#45;&gt;Node2</title>
<path fill="none" stroke="midnightblue" d="M67.88,-56.08C63.59,-48.61 57.34,-37.72 52.06,-28.52"/>
<polygon fill="midnightblue" stroke="midnightblue" points="55.04,-26.68 47.02,-19.75 48.97,-30.17 55.04,-26.68"/>
</g>
<!-- Node4&#45;&gt;Node3 -->
<g id="edge6" class="edge">
<title>Node4&#45;&gt;Node3</title>
<path fill="none" stroke="midnightblue" d="M137.63,-112.32C125.84,-104.06 107.87,-91.45 93.86,-81.63"/>
<polygon fill="midnightblue" stroke="midnightblue" points="95.54,-78.53 85.34,-75.65 91.52,-84.26 95.54,-78.53"/>
</g>
<!-- Node5 -->
<g id="node5" class="node">
<title>Node5</title>
<g id="a_node5"><a xlink:title=" ">
<polygon fill="none" stroke="#bfbfbf" points="124.5,-56.5 124.5,-75.5 175.5,-75.5 175.5,-56.5 124.5,-56.5"/>
<text text-anchor="middle" x="150" y="-63.5" font-family="Helvetica,sans-Serif" font-size="10.00">memory</text>
</a>
</g>
</g>
<!-- Node4&#45;&gt;Node5 -->
<g id="edge5" class="edge">
<title>Node4&#45;&gt;Node5</title>
<path fill="none" stroke="midnightblue" d="M150,-112.08C150,-105.01 150,-94.86 150,-85.99"/>
<polygon fill="midnightblue" stroke="midnightblue" points="153.5,-85.75 150,-75.75 146.5,-85.75 153.5,-85.75"/>
</g>
<!-- Node6 -->
<g id="node6" class="node">
<title>Node6</title>
<g id="a_node6"><a xlink:href="Point_8hpp.html" target="_top" xlink:title=" ">
<polygon fill="none" stroke="black" points="193.5,-56.5 193.5,-75.5 250.5,-75.5 250.5,-56.5 193.5,-56.5"/>
<text text-anchor="middle" x="222" y="-63.5" font-family="Helvetica,sans-Serif" font-size="10.00">Point.hpp</text>
</a>
</g>
</g>
<!-- Node4&#45;&gt;Node6 -->
<g id="edge7" class="edge">
<title>Node4&#45;&gt;Node6</title>
<path fill="none" stroke="midnightblue" d="M161.57,-112.32C172.42,-104.18 188.88,-91.84 201.88,-82.09"/>
<polygon fill="midnightblue" stroke="midnightblue" points="204.32,-84.63 210.22,-75.83 200.12,-79.03 204.32,-84.63"/>
</g>
</g>
</svg>
