<?xml version="1.0" encoding="UTF-8" standalone="no"?>
<!DOCTYPE svg PUBLIC "-//W3C//DTD SVG 1.1//EN"
 "http://www.w3.org/Graphics/SVG/1.1/DTD/svg11.dtd">
<!-- Generated by graphviz version 2.44.0 ()
 -->
<!-- Title: includes/spic&#45;prj&#45;api/BoxCollider.hpp Pages: 1 -->
<svg width="973pt" height="240pt"
 viewBox="0.00 0.00 973.00 240.00" xmlns="http://www.w3.org/2000/svg" xmlns:xlink="http://www.w3.org/1999/xlink">
<g id="graph0" class="graph" transform="scale(1 1) rotate(0) translate(4 236)">
<title>includes/spic&#45;prj&#45;api/BoxCollider.hpp</title>
<!-- Node1 -->
<g id="node1" class="node">
<title>Node1</title>
<g id="a_node1"><a xlink:title=" ">
<polygon fill="#bfbfbf" stroke="black" points="244.5,-201.5 244.5,-231.5 347.5,-231.5 347.5,-201.5 244.5,-201.5"/>
<text text-anchor="start" x="252.5" y="-219.5" font-family="Helvetica,sans-Serif" font-size="10.00">includes/spic&#45;prj&#45;api</text>
<text text-anchor="middle" x="296" y="-208.5" font-family="Helvetica,sans-Serif" font-size="10.00">/BoxCollider.hpp</text>
</a>
</g>
</g>
<!-- Node2 -->
<g id="node2" class="node">
<title>Node2</title>
<g id="a_node2"><a xlink:href="CollisionBehaviour_8cpp.html" target="_top" xlink:title=" ">
<polygon fill="none" stroke="black" points="110,-140 110,-159 288,-159 288,-140 110,-140"/>
<text text-anchor="middle" x="199" y="-147" font-family="Helvetica,sans-Serif" font-size="10.00">src/Behaviour/CollisionBehaviour.cpp</text>
</a>
</g>
</g>
<!-- Node1&#45;&gt;Node2 -->
<g id="edge1" class="edge">
<title>Node1&#45;&gt;Node2</title>
<path fill="none" stroke="midnightblue" d="M266.36,-195.64C248.06,-183.37 225.51,-168.26 211.7,-159.01"/>
<polygon fill="midnightblue" stroke="midnightblue" points="264.7,-198.74 274.95,-201.4 268.59,-192.92 264.7,-198.74"/>
</g>
<!-- Node3 -->
<g id="node3" class="node">
<title>Node3</title>
<g id="a_node3"><a xlink:href="PhysicsSystem_8hpp.html" target="_top" xlink:title=" ">
<polygon fill="none" stroke="black" points="306,-134.5 306,-164.5 480,-164.5 480,-134.5 306,-134.5"/>
<text text-anchor="start" x="314" y="-152.5" font-family="Helvetica,sans-Serif" font-size="10.00">includes/platformer</text>
<text text-anchor="middle" x="393" y="-141.5" font-family="Helvetica,sans-Serif" font-size="10.00">&#45;engine/Physics/PhysicsSystem.hpp</text>
</a>
</g>
</g>
<!-- Node1&#45;&gt;Node3 -->
<g id="edge2" class="edge">
<title>Node1&#45;&gt;Node3</title>
<path fill="none" stroke="midnightblue" d="M325.5,-195.73C340.51,-185.68 358.4,-173.68 371.99,-164.58"/>
<polygon fill="midnightblue" stroke="midnightblue" points="323.41,-192.92 317.05,-201.4 327.3,-198.74 323.41,-192.92"/>
</g>
<!-- Node4 -->
<g id="node4" class="node">
<title>Node4</title>
<g id="a_node4"><a xlink:href="PhysicsSystem_8cpp.html" target="_top" xlink:title=" ">
<polygon fill="none" stroke="black" points="234,-73 234,-92 390,-92 390,-73 234,-73"/>
<text text-anchor="middle" x="312" y="-80" font-family="Helvetica,sans-Serif" font-size="10.00">src/Physics/PhysicsSystem.cpp</text>
</a>
</g>
</g>
<!-- Node3&#45;&gt;Node4 -->
<g id="edge3" class="edge">
<title>Node3&#45;&gt;Node4</title>
<path fill="none" stroke="midnightblue" d="M367.46,-128.01C352.43,-115.94 334.19,-101.3 322.83,-92.19"/>
<polygon fill="midnightblue" stroke="midnightblue" points="365.43,-130.87 375.42,-134.4 369.82,-125.41 365.43,-130.87"/>
</g>
<!-- Node5 -->
<g id="node5" class="node">
<title>Node5</title>
<g id="a_node5"><a xlink:href="Engine_8hpp.html" target="_top" xlink:title=" ">
<polygon fill="none" stroke="black" points="408.5,-67.5 408.5,-97.5 539.5,-97.5 539.5,-67.5 408.5,-67.5"/>
<text text-anchor="start" x="416.5" y="-85.5" font-family="Helvetica,sans-Serif" font-size="10.00">includes/platformer</text>
<text text-anchor="middle" x="474" y="-74.5" font-family="Helvetica,sans-Serif" font-size="10.00">&#45;engine/Engine/Engine.hpp</text>
</a>
</g>
</g>
<!-- Node3&#45;&gt;Node5 -->
<g id="edge4" class="edge">
<title>Node3&#45;&gt;Node5</title>
<path fill="none" stroke="midnightblue" d="M418.69,-127.88C431,-118.01 445.43,-106.43 456.46,-97.58"/>
<polygon fill="midnightblue" stroke="midnightblue" points="416.18,-125.41 410.58,-134.4 420.57,-130.87 416.18,-125.41"/>
</g>
<!-- Node6 -->
<g id="node6" class="node">
<title>Node6</title>
<g id="a_node6"><a xlink:href="GameObjectDirector_8cpp.html" target="_top" xlink:title=" ">
<polygon fill="none" stroke="black" points="0,-6 0,-25 176,-25 176,-6 0,-6"/>
<text text-anchor="middle" x="88" y="-13" font-family="Helvetica,sans-Serif" font-size="10.00">src/Director/GameObjectDirector.cpp</text>
</a>
</g>
</g>
<!-- Node5&#45;&gt;Node6 -->
<g id="edge5" class="edge">
<title>Node5&#45;&gt;Node6</title>
<path fill="none" stroke="midnightblue" d="M398.07,-66.87C302.82,-50.03 203.87,-34.36 143.7,-25.03"/>
<polygon fill="midnightblue" stroke="midnightblue" points="397.71,-70.36 408.17,-68.66 398.94,-63.46 397.71,-70.36"/>
</g>
<!-- Node7 -->
<g id="node7" class="node">
<title>Node7</title>
<g id="a_node7"><a xlink:href="Engine_8cpp.html" target="_top" xlink:title=" ">
<polygon fill="none" stroke="black" points="194.5,-6 194.5,-25 307.5,-25 307.5,-6 194.5,-6"/>
<text text-anchor="middle" x="251" y="-13" font-family="Helvetica,sans-Serif" font-size="10.00">src/Engine/Engine.cpp</text>
</a>
</g>
</g>
<!-- Node5&#45;&gt;Node7 -->
<g id="edge6" class="edge">
<title>Node5&#45;&gt;Node7</title>
<path fill="none" stroke="midnightblue" d="M416.26,-64.67C372.68,-51.97 314.69,-35.06 280.26,-25.03"/>
<polygon fill="midnightblue" stroke="midnightblue" points="415.31,-68.04 425.89,-67.48 417.27,-61.32 415.31,-68.04"/>
</g>
<!-- Node8 -->
<g id="node8" class="node">
<title>Node8</title>
<g id="a_node8"><a xlink:href="TMXParser_8cpp.html" target="_top" xlink:title=" ">
<polygon fill="none" stroke="black" points="326,-6 326,-25 462,-25 462,-6 326,-6"/>
<text text-anchor="middle" x="394" y="-13" font-family="Helvetica,sans-Serif" font-size="10.00">src/Facade/TMXParser.cpp</text>
</a>
</g>
</g>
<!-- Node5&#45;&gt;Node8 -->
<g id="edge7" class="edge">
<title>Node5&#45;&gt;Node8</title>
<path fill="none" stroke="midnightblue" d="M448.78,-61.01C433.93,-48.94 415.91,-34.3 404.7,-25.19"/>
<polygon fill="midnightblue" stroke="midnightblue" points="446.67,-63.81 456.64,-67.4 451.09,-58.37 446.67,-63.81"/>
</g>
<!-- Node9 -->
<g id="node9" class="node">
<title>Node9</title>
<g id="a_node9"><a xlink:href="ClientNetworkManager_8cpp.html" target="_top" xlink:title=" ">
<polygon fill="none" stroke="black" points="480.5,-0.5 480.5,-30.5 627.5,-30.5 627.5,-0.5 480.5,-0.5"/>
<text text-anchor="start" x="488.5" y="-18.5" font-family="Helvetica,sans-Serif" font-size="10.00">src/Networking/ClientNetwork</text>
<text text-anchor="middle" x="554" y="-7.5" font-family="Helvetica,sans-Serif" font-size="10.00">Manager.cpp</text>
</a>
</g>
</g>
<!-- Node5&#45;&gt;Node9 -->
<g id="edge8" class="edge">
<title>Node5&#45;&gt;Node9</title>
<path fill="none" stroke="midnightblue" d="M499.37,-60.88C511.53,-51.01 525.78,-39.43 536.68,-30.58"/>
<polygon fill="midnightblue" stroke="midnightblue" points="496.91,-58.37 491.36,-67.4 501.33,-63.81 496.91,-58.37"/>
</g>
<!-- Node10 -->
<g id="node10" class="node">
<title>Node10</title>
<g id="a_node10"><a xlink:href="ServerNetworkManager_8cpp.html" target="_top" xlink:title=" ">
<polygon fill="none" stroke="black" points="645.5,-0.5 645.5,-30.5 796.5,-30.5 796.5,-0.5 645.5,-0.5"/>
<text text-anchor="start" x="653.5" y="-18.5" font-family="Helvetica,sans-Serif" font-size="10.00">src/Networking/ServerNetwork</text>
<text text-anchor="middle" x="721" y="-7.5" font-family="Helvetica,sans-Serif" font-size="10.00">Manager.cpp</text>
</a>
</g>
</g>
<!-- Node5&#45;&gt;Node10 -->
<g id="edge9" class="edge">
<title>Node5&#45;&gt;Node10</title>
<path fill="none" stroke="midnightblue" d="M537.01,-64.92C577.32,-54.31 629.04,-40.7 667.38,-30.61"/>
<polygon fill="midnightblue" stroke="midnightblue" points="536.07,-61.55 527.29,-67.48 537.85,-68.32 536.07,-61.55"/>
</g>
<!-- Node11 -->
<g id="node11" class="node">
<title>Node11</title>
<g id="a_node11"><a xlink:href="RenderSystem_8cpp.html" target="_top" xlink:title=" ">
<polygon fill="none" stroke="black" points="815,-6 815,-25 965,-25 965,-6 815,-6"/>
<text text-anchor="middle" x="890" y="-13" font-family="Helvetica,sans-Serif" font-size="10.00">src/Texture/RenderSystem.cpp</text>
</a>
</g>
</g>
<!-- Node5&#45;&gt;Node11 -->
<g id="edge10" class="edge">
<title>Node5&#45;&gt;Node11</title>
<path fill="none" stroke="midnightblue" d="M549.67,-70.43C617.01,-60.47 718.14,-45.26 806,-31 817.54,-29.13 829.96,-27.03 841.61,-25.02"/>
<polygon fill="midnightblue" stroke="midnightblue" points="548.96,-67 539.57,-71.92 549.98,-73.92 548.96,-67"/>
</g>
</g>
</svg>
