<?xml version="1.0" encoding="UTF-8" standalone="no"?>
<!DOCTYPE svg PUBLIC "-//W3C//DTD SVG 1.1//EN"
 "http://www.w3.org/Graphics/SVG/1.1/DTD/svg11.dtd">
<!-- Generated by graphviz version 2.44.0 ()
 -->
<!-- Title: includes/spic&#45;prj&#45;api/BoxCollider.hpp Pages: 1 -->
<svg width="522pt" height="229pt"
 viewBox="0.00 0.00 522.00 229.00" xmlns="http://www.w3.org/2000/svg" xmlns:xlink="http://www.w3.org/1999/xlink">
<g id="graph0" class="graph" transform="scale(1 1) rotate(0) translate(4 225)">
<title>includes/spic&#45;prj&#45;api/BoxCollider.hpp</title>
<!-- Node1 -->
<g id="node1" class="node">
<title>Node1</title>
<g id="a_node1"><a xlink:title=" ">
<polygon fill="#bfbfbf" stroke="black" points="134.5,-190.5 134.5,-220.5 237.5,-220.5 237.5,-190.5 134.5,-190.5"/>
<text text-anchor="start" x="142.5" y="-208.5" font-family="Helvetica,sans-Serif" font-size="10.00">includes/spic&#45;prj&#45;api</text>
<text text-anchor="middle" x="186" y="-197.5" font-family="Helvetica,sans-Serif" font-size="10.00">/BoxCollider.hpp</text>
</a>
</g>
</g>
<!-- Node2 -->
<g id="node2" class="node">
<title>Node2</title>
<g id="a_node2"><a xlink:href="CollisionBehaviour_8cpp.html" target="_top" xlink:title=" ">
<polygon fill="none" stroke="black" points="0,-129 0,-148 178,-148 178,-129 0,-129"/>
<text text-anchor="middle" x="89" y="-136" font-family="Helvetica,sans-Serif" font-size="10.00">src/Behaviour/CollisionBehaviour.cpp</text>
</a>
</g>
</g>
<!-- Node1&#45;&gt;Node2 -->
<g id="edge1" class="edge">
<title>Node1&#45;&gt;Node2</title>
<path fill="none" stroke="midnightblue" d="M156.36,-184.64C138.06,-172.37 115.51,-157.26 101.7,-148.01"/>
<polygon fill="midnightblue" stroke="midnightblue" points="154.7,-187.74 164.95,-190.4 158.59,-181.92 154.7,-187.74"/>
</g>
<!-- Node3 -->
<g id="node3" class="node">
<title>Node3</title>
<g id="a_node3"><a xlink:href="PhysicsSystem_8hpp.html" target="_top" xlink:title=" ">
<polygon fill="none" stroke="black" points="196,-123.5 196,-153.5 370,-153.5 370,-123.5 196,-123.5"/>
<text text-anchor="start" x="204" y="-141.5" font-family="Helvetica,sans-Serif" font-size="10.00">includes/platformer</text>
<text text-anchor="middle" x="283" y="-130.5" font-family="Helvetica,sans-Serif" font-size="10.00">&#45;engine/Physics/PhysicsSystem.hpp</text>
</a>
</g>
</g>
<!-- Node1&#45;&gt;Node3 -->
<g id="edge2" class="edge">
<title>Node1&#45;&gt;Node3</title>
<path fill="none" stroke="midnightblue" d="M215.5,-184.73C230.51,-174.68 248.4,-162.68 261.99,-153.58"/>
<polygon fill="midnightblue" stroke="midnightblue" points="213.41,-181.92 207.05,-190.4 217.3,-187.74 213.41,-181.92"/>
</g>
<!-- Node4 -->
<g id="node4" class="node">
<title>Node4</title>
<g id="a_node4"><a xlink:href="PhysicsSystem_8cpp.html" target="_top" xlink:title=" ">
<polygon fill="none" stroke="black" points="124,-62 124,-81 280,-81 280,-62 124,-62"/>
<text text-anchor="middle" x="202" y="-69" font-family="Helvetica,sans-Serif" font-size="10.00">src/Physics/PhysicsSystem.cpp</text>
</a>
</g>
</g>
<!-- Node3&#45;&gt;Node4 -->
<g id="edge3" class="edge">
<title>Node3&#45;&gt;Node4</title>
<path fill="none" stroke="midnightblue" d="M257.46,-117.01C242.43,-104.94 224.19,-90.3 212.83,-81.19"/>
<polygon fill="midnightblue" stroke="midnightblue" points="255.43,-119.87 265.42,-123.4 259.82,-114.41 255.43,-119.87"/>
</g>
<!-- Node5 -->
<g id="node5" class="node">
<title>Node5</title>
<g id="a_node5"><a xlink:href="Engine_8hpp.html" target="_top" xlink:title=" ">
<polygon fill="none" stroke="black" points="298.5,-56.5 298.5,-86.5 429.5,-86.5 429.5,-56.5 298.5,-56.5"/>
<text text-anchor="start" x="306.5" y="-74.5" font-family="Helvetica,sans-Serif" font-size="10.00">includes/platformer</text>
<text text-anchor="middle" x="364" y="-63.5" font-family="Helvetica,sans-Serif" font-size="10.00">&#45;engine/Engine/Engine.hpp</text>
</a>
</g>
</g>
<!-- Node3&#45;&gt;Node5 -->
<g id="edge4" class="edge">
<title>Node3&#45;&gt;Node5</title>
<path fill="none" stroke="midnightblue" d="M308.69,-116.88C321,-107.01 335.43,-95.43 346.46,-86.58"/>
<polygon fill="midnightblue" stroke="midnightblue" points="306.18,-114.41 300.58,-123.4 310.57,-119.87 306.18,-114.41"/>
</g>
<!-- Node6 -->
<g id="node6" class="node">
<title>Node6</title>
<g id="a_node6"><a xlink:href="Engine_8cpp.html" target="_top" xlink:title=" ">
<polygon fill="none" stroke="black" points="232.5,-0.5 232.5,-19.5 345.5,-19.5 345.5,-0.5 232.5,-0.5"/>
<text text-anchor="middle" x="289" y="-7.5" font-family="Helvetica,sans-Serif" font-size="10.00">src/Engine/Engine.cpp</text>
</a>
</g>
</g>
<!-- Node5&#45;&gt;Node6 -->
<g id="edge5" class="edge">
<title>Node5&#45;&gt;Node6</title>
<path fill="none" stroke="midnightblue" d="M338.03,-49.89C324.98,-39.54 309.87,-27.56 299.91,-19.66"/>
<polygon fill="midnightblue" stroke="midnightblue" points="336.22,-52.93 346.23,-56.4 340.57,-47.44 336.22,-52.93"/>
</g>
<!-- Node7 -->
<g id="node7" class="node">
<title>Node7</title>
<g id="a_node7"><a xlink:href="RenderSystem_8cpp.html" target="_top" xlink:title=" ">
<polygon fill="none" stroke="black" points="364,-0.5 364,-19.5 514,-19.5 514,-0.5 364,-0.5"/>
<text text-anchor="middle" x="439" y="-7.5" font-family="Helvetica,sans-Serif" font-size="10.00">src/Texture/RenderSystem.cpp</text>
</a>
</g>
</g>
<!-- Node5&#45;&gt;Node7 -->
<g id="edge6" class="edge">
<title>Node5&#45;&gt;Node7</title>
<path fill="none" stroke="midnightblue" d="M389.97,-49.89C403.02,-39.54 418.13,-27.56 428.09,-19.66"/>
<polygon fill="midnightblue" stroke="midnightblue" points="387.43,-47.44 381.77,-56.4 391.78,-52.93 387.43,-47.44"/>
</g>
</g>
</svg>
