<?xml version="1.0" encoding="UTF-8" standalone="no"?>
<!DOCTYPE svg PUBLIC "-//W3C//DTD SVG 1.1//EN"
 "http://www.w3.org/Graphics/SVG/1.1/DTD/svg11.dtd">
<!-- Generated by graphviz version 2.44.0 ()
 -->
<!-- Title: src/API/BoxCollider.cpp Pages: 1 -->
<!--zoomable 408 -->
<svg id="main" version="1.1" xmlns="http://www.w3.org/2000/svg" xmlns:xlink="http://www.w3.org/1999/xlink" xml:space="preserve" onload="init(evt)">
<style type="text/css"><![CDATA[
.edge:hover path { stroke: red; }
.edge:hover polygon { stroke: red; fill: red; }
]]></style>
<script type="text/javascript"><![CDATA[
var edges = document.getElementsByTagName('g');
if (edges && edges.length) {
  for (var i=0;i<edges.length;i++) {
    if (edges[i].id.substr(0,4)=='edge') {
      edges[i].setAttribute('class','edge');
    }
  }
}
]]></script>
        <defs>
                <circle id="rim" cx="0" cy="0" r="7"/>
                <circle id="rim2" cx="0" cy="0" r="3.5"/>
                <g id="zoomPlus">
                        <use xlink:href="#rim" fill="#404040">
                                <set attributeName="fill" to="#808080" begin="zoomplus.mouseover" end="zoomplus.mouseout"/>
                        </use>
                        <path d="M-4,0h8M0,-4v8" fill="none" stroke="white" stroke-width="1.5" pointer-events="none"/>
                </g>
                <g id="zoomMin">
                        <use xlink:href="#rim" fill="#404040">
                                <set attributeName="fill" to="#808080" begin="zoomminus.mouseover" end="zoomminus.mouseout"/>
                        </use>
                        <path d="M-4,0h8" fill="none" stroke="white" stroke-width="1.5" pointer-events="none"/>
                </g>
                <g id="dirArrow">
                        <path fill="none" stroke="white" stroke-width="1.5" d="M0,-3.0v7 M-2.5,-0.5L0,-3.0L2.5,-0.5"/>
                </g>
               <g id="resetDef">
                       <use xlink:href="#rim2" fill="#404040">
                               <set attributeName="fill" to="#808080" begin="reset.mouseover" end="reset.mouseout"/>
                       </use>
               </g>
        </defs>

<script type="text/javascript">
var viewWidth = 1705;
var viewHeight = 408;
var sectionId = 'dynsection-0';
</script>
<script xlink:href="svgpan.js"/>
<svg id="graph" class="graph">
<g id="viewport">
<title>src/API/BoxCollider.cpp</title>
<!-- Node1 -->
<g id="node1" class="node">
<title>Node1</title>
<g id="a_node1"><a xlink:title=" ">
<polygon fill="#bfbfbf" stroke="black" points="168,-380.5 168,-399.5 287,-399.5 287,-380.5 168,-380.5"/>
<text text-anchor="middle" x="227.5" y="-387.5" font-family="Helvetica,sans-Serif" font-size="10.00">src/API/BoxCollider.cpp</text>
</a>
</g>
</g>
<!-- Node2 -->
<g id="node2" class="node">
<title>Node2</title>
<g id="a_node2"><a xlink:href="BoxCollider_8hpp.html" target="_top" xlink:title=" ">
<polygon fill="none" stroke="black" points="186,-324.5 186,-343.5 269,-343.5 269,-324.5 186,-324.5"/>
<text text-anchor="middle" x="227.5" y="-331.5" font-family="Helvetica,sans-Serif" font-size="10.00">BoxCollider.hpp</text>
</a>
</g>
</g>
<!-- Node1&#45;&gt;Node2 -->
<g id="edge1" class="edge">
<title>Node1&#45;&gt;Node2</title>
<path fill="none" stroke="midnightblue" d="M227.5,-380.08C227.5,-373.01 227.5,-362.86 227.5,-353.99"/>
<polygon fill="midnightblue" stroke="midnightblue" points="231,-353.75 227.5,-343.75 224,-353.75 231,-353.75"/>
</g>
<!-- Node3 -->
<g id="node3" class="node">
<title>Node3</title>
<g id="a_node3"><a xlink:href="Collider_8hpp.html" target="_top" xlink:title=" ">
<polygon fill="none" stroke="black" points="551,-268.5 551,-287.5 618,-287.5 618,-268.5 551,-268.5"/>
<text text-anchor="middle" x="584.5" y="-275.5" font-family="Helvetica,sans-Serif" font-size="10.00">Collider.hpp</text>
</a>
</g>
</g>
<!-- Node2&#45;&gt;Node3 -->
<g id="edge2" class="edge">
<title>Node2&#45;&gt;Node3</title>
<path fill="none" stroke="midnightblue" d="M269.15,-326.7C337.12,-316.42 471.24,-296.13 540.63,-285.64"/>
<polygon fill="midnightblue" stroke="midnightblue" points="541.42,-289.06 550.78,-284.1 540.37,-282.14 541.42,-289.06"/>
</g>
<!-- Node6 -->
<g id="node6" class="node">
<title>Node6</title>
<g id="a_node6"><a xlink:title=" ">
<polygon fill="none" stroke="#bfbfbf" points="0,-134.5 0,-164.5 95,-164.5 95,-134.5 0,-134.5"/>
<text text-anchor="start" x="8" y="-152.5" font-family="Helvetica,sans-Serif" font-size="10.00">boost/serialization</text>
<text text-anchor="middle" x="47.5" y="-141.5" font-family="Helvetica,sans-Serif" font-size="10.00">/access.hpp</text>
</a>
</g>
</g>
<!-- Node2&#45;&gt;Node6 -->
<g id="edge50" class="edge">
<title>Node2&#45;&gt;Node6</title>
<path fill="none" stroke="midnightblue" d="M208.99,-324.4C178.76,-309.5 118.56,-276.23 82.5,-232 68.72,-215.1 59.48,-191.96 53.97,-174.65"/>
<polygon fill="midnightblue" stroke="midnightblue" points="57.22,-173.32 51.01,-164.74 50.51,-175.32 57.22,-173.32"/>
</g>
<!-- Node8 -->
<g id="node8" class="node">
<title>Node8</title>
<g id="a_node8"><a xlink:title=" ">
<polygon fill="none" stroke="#bfbfbf" points="1289,-134.5 1289,-164.5 1384,-164.5 1384,-134.5 1289,-134.5"/>
<text text-anchor="start" x="1297" y="-152.5" font-family="Helvetica,sans-Serif" font-size="10.00">boost/serialization</text>
<text text-anchor="middle" x="1336.5" y="-141.5" font-family="Helvetica,sans-Serif" font-size="10.00">/vector.hpp</text>
</a>
</g>
</g>
<!-- Node2&#45;&gt;Node8 -->
<g id="edge52" class="edge">
<title>Node2&#45;&gt;Node8</title>
<path fill="none" stroke="midnightblue" d="M269.09,-331.45C455.73,-324.19 1210.55,-291.35 1296.5,-232 1315.76,-218.7 1326.13,-193.41 1331.45,-174.51"/>
<polygon fill="midnightblue" stroke="midnightblue" points="1334.85,-175.34 1333.91,-164.78 1328.07,-173.62 1334.85,-175.34"/>
</g>
<!-- Node10 -->
<g id="node10" class="node">
<title>Node10</title>
<g id="a_node10"><a xlink:title=" ">
<polygon fill="none" stroke="#bfbfbf" points="113,-134.5 113,-164.5 208,-164.5 208,-134.5 113,-134.5"/>
<text text-anchor="start" x="121" y="-152.5" font-family="Helvetica,sans-Serif" font-size="10.00">boost/serialization</text>
<text text-anchor="middle" x="160.5" y="-141.5" font-family="Helvetica,sans-Serif" font-size="10.00">/export.hpp</text>
</a>
</g>
</g>
<!-- Node2&#45;&gt;Node10 -->
<g id="edge51" class="edge">
<title>Node2&#45;&gt;Node10</title>
<path fill="none" stroke="midnightblue" d="M228,-324.46C228.93,-302.66 229.21,-243.71 208.5,-201 203.25,-190.17 194.82,-180.12 186.49,-171.89"/>
<polygon fill="midnightblue" stroke="midnightblue" points="188.65,-169.13 178.95,-164.88 183.88,-174.25 188.65,-169.13"/>
</g>
<!-- Node38 -->
<g id="node38" class="node">
<title>Node38</title>
<g id="a_node38"><a xlink:href="Scaleable_8hpp.html" target="_top" xlink:title=" ">
<polygon fill="none" stroke="black" points="91.5,-201.5 91.5,-231.5 199.5,-231.5 199.5,-201.5 91.5,-201.5"/>
<text text-anchor="start" x="99.5" y="-219.5" font-family="Helvetica,sans-Serif" font-size="10.00">ComponentExtension</text>
<text text-anchor="middle" x="145.5" y="-208.5" font-family="Helvetica,sans-Serif" font-size="10.00">/Scaleable.hpp</text>
</a>
</g>
</g>
<!-- Node2&#45;&gt;Node38 -->
<g id="edge53" class="edge">
<title>Node2&#45;&gt;Node38</title>
<path fill="none" stroke="midnightblue" d="M221.34,-324.32C208.74,-306.58 179.71,-265.68 161.44,-239.95"/>
<polygon fill="midnightblue" stroke="midnightblue" points="164.11,-237.67 155.47,-231.55 158.41,-241.73 164.11,-237.67"/>
</g>
<!-- Node4 -->
<g id="node4" class="node">
<title>Node4</title>
<g id="a_node4"><a xlink:href="Component_8hpp.html" target="_top" xlink:title=" ">
<polygon fill="none" stroke="black" points="637.5,-207 637.5,-226 721.5,-226 721.5,-207 637.5,-207"/>
<text text-anchor="middle" x="679.5" y="-214" font-family="Helvetica,sans-Serif" font-size="10.00">Component.hpp</text>
</a>
</g>
</g>
<!-- Node3&#45;&gt;Node4 -->
<g id="edge3" class="edge">
<title>Node3&#45;&gt;Node4</title>
<path fill="none" stroke="midnightblue" d="M598.11,-268.48C613.56,-258.8 638.99,-242.87 657.32,-231.39"/>
<polygon fill="midnightblue" stroke="midnightblue" points="659.3,-234.28 665.91,-226.01 655.58,-228.35 659.3,-234.28"/>
</g>
<!-- Node3&#45;&gt;Node6 -->
<g id="edge39" class="edge">
<title>Node3&#45;&gt;Node6</title>
<path fill="none" stroke="midnightblue" d="M550.74,-274.8C494.15,-270.48 376.97,-258.89 281.5,-232 247.57,-222.44 241.58,-213.18 208.5,-201 174.52,-188.49 135.81,-176.28 104.87,-167.01"/>
<polygon fill="midnightblue" stroke="midnightblue" points="105.69,-163.6 95.11,-164.1 103.7,-170.31 105.69,-163.6"/>
</g>
<!-- Node3&#45;&gt;Node8 -->
<g id="edge41" class="edge">
<title>Node3&#45;&gt;Node8</title>
<path fill="none" stroke="midnightblue" d="M618.27,-273.59C682.04,-266.96 824.45,-251.3 943.5,-232 1090.58,-208.15 1129.35,-199.06 1278.94,-165.07"/>
<polygon fill="midnightblue" stroke="midnightblue" points="1279.98,-168.42 1288.96,-162.79 1278.43,-161.59 1279.98,-168.42"/>
</g>
<!-- Node3&#45;&gt;Node10 -->
<g id="edge40" class="edge">
<title>Node3&#45;&gt;Node10</title>
<path fill="none" stroke="midnightblue" d="M550.69,-273.91C503.01,-268.84 413.75,-256.75 341.5,-232 313.1,-222.27 308.71,-213.68 281.5,-201 256.77,-189.47 228.67,-177.67 205.77,-168.37"/>
<polygon fill="midnightblue" stroke="midnightblue" points="206.89,-165.05 196.31,-164.55 204.27,-171.54 206.89,-165.05"/>
</g>
<!-- Node11 -->
<g id="node11" class="node">
<title>Node11</title>
<g id="a_node11"><a xlink:title=" ">
<polygon fill="none" stroke="#bfbfbf" points="1166.5,-134.5 1166.5,-164.5 1270.5,-164.5 1270.5,-134.5 1166.5,-134.5"/>
<text text-anchor="start" x="1174.5" y="-152.5" font-family="Helvetica,sans-Serif" font-size="10.00">boost/archive/binary</text>
<text text-anchor="middle" x="1218.5" y="-141.5" font-family="Helvetica,sans-Serif" font-size="10.00">_iarchive.hpp</text>
</a>
</g>
</g>
<!-- Node3&#45;&gt;Node11 -->
<g id="edge43" class="edge">
<title>Node3&#45;&gt;Node11</title>
<path fill="none" stroke="midnightblue" d="M618.11,-272.05C669.58,-264.33 770.98,-248.58 856.5,-232 987.89,-206.53 1022.34,-196.22 1156.44,-165.24"/>
<polygon fill="midnightblue" stroke="midnightblue" points="1157.31,-168.63 1166.27,-162.97 1155.74,-161.81 1157.31,-168.63"/>
</g>
<!-- Node12 -->
<g id="node12" class="node">
<title>Node12</title>
<g id="a_node12"><a xlink:title=" ">
<polygon fill="none" stroke="#bfbfbf" points="226.5,-134.5 226.5,-164.5 330.5,-164.5 330.5,-134.5 226.5,-134.5"/>
<text text-anchor="start" x="234.5" y="-152.5" font-family="Helvetica,sans-Serif" font-size="10.00">boost/archive/binary</text>
<text text-anchor="middle" x="278.5" y="-141.5" font-family="Helvetica,sans-Serif" font-size="10.00">_oarchive.hpp</text>
</a>
</g>
</g>
<!-- Node3&#45;&gt;Node12 -->
<g id="edge44" class="edge">
<title>Node3&#45;&gt;Node12</title>
<path fill="none" stroke="midnightblue" d="M550.84,-272.86C512.06,-267.23 447.06,-255.09 395.5,-232 360.49,-216.32 324.99,-189.76 302.43,-171.24"/>
<polygon fill="midnightblue" stroke="midnightblue" points="304.64,-168.53 294.72,-164.81 300.16,-173.9 304.64,-168.53"/>
</g>
<!-- Node13 -->
<g id="node13" class="node">
<title>Node13</title>
<g id="a_node13"><a xlink:title=" ">
<polygon fill="none" stroke="#bfbfbf" points="348.5,-134.5 348.5,-164.5 442.5,-164.5 442.5,-134.5 348.5,-134.5"/>
<text text-anchor="start" x="356.5" y="-152.5" font-family="Helvetica,sans-Serif" font-size="10.00">boost/archive/text</text>
<text text-anchor="middle" x="395.5" y="-141.5" font-family="Helvetica,sans-Serif" font-size="10.00">_iarchive.hpp</text>
</a>
</g>
</g>
<!-- Node3&#45;&gt;Node13 -->
<g id="edge45" class="edge">
<title>Node3&#45;&gt;Node13</title>
<path fill="none" stroke="midnightblue" d="M550.71,-277.75C512.27,-276.68 450.23,-268.8 414.5,-232 399.85,-216.91 395.69,-192.82 394.85,-174.74"/>
<polygon fill="midnightblue" stroke="midnightblue" points="398.34,-174.59 394.68,-164.65 391.35,-174.7 398.34,-174.59"/>
</g>
<!-- Node14 -->
<g id="node14" class="node">
<title>Node14</title>
<g id="a_node14"><a xlink:title=" ">
<polygon fill="none" stroke="#bfbfbf" points="460.5,-134.5 460.5,-164.5 554.5,-164.5 554.5,-134.5 460.5,-134.5"/>
<text text-anchor="start" x="468.5" y="-152.5" font-family="Helvetica,sans-Serif" font-size="10.00">boost/archive/text</text>
<text text-anchor="middle" x="507.5" y="-141.5" font-family="Helvetica,sans-Serif" font-size="10.00">_oarchive.hpp</text>
</a>
</g>
</g>
<!-- Node3&#45;&gt;Node14 -->
<g id="edge46" class="edge">
<title>Node3&#45;&gt;Node14</title>
<path fill="none" stroke="midnightblue" d="M588.13,-268.35C593.74,-253.51 602.69,-222.69 590.5,-201 582.84,-187.37 569.84,-176.99 556.38,-169.29"/>
<polygon fill="midnightblue" stroke="midnightblue" points="558,-166.19 547.52,-164.62 554.73,-172.38 558,-166.19"/>
</g>
<!-- Node15 -->
<g id="node15" class="node">
<title>Node15</title>
<g id="a_node15"><a xlink:href="portable__binary__iarchive_8hpp.html" target="_top" xlink:title=" ">
<polygon fill="none" stroke="black" points="1017,-134.5 1017,-164.5 1148,-164.5 1148,-134.5 1017,-134.5"/>
<text text-anchor="start" x="1025" y="-152.5" font-family="Helvetica,sans-Serif" font-size="10.00">Networking/boost/portable</text>
<text text-anchor="middle" x="1082.5" y="-141.5" font-family="Helvetica,sans-Serif" font-size="10.00">_binary_iarchive.hpp</text>
</a>
</g>
</g>
<!-- Node3&#45;&gt;Node15 -->
<g id="edge47" class="edge">
<title>Node3&#45;&gt;Node15</title>
<path fill="none" stroke="midnightblue" d="M618.23,-269.9C658.07,-261.4 726.31,-246.5 784.5,-232 868.19,-211.15 964.32,-184.34 1024.24,-167.28"/>
<polygon fill="midnightblue" stroke="midnightblue" points="1025.24,-170.63 1033.9,-164.53 1023.32,-163.9 1025.24,-170.63"/>
</g>
<!-- Node30 -->
<g id="node30" class="node">
<title>Node30</title>
<g id="a_node30"><a xlink:href="portable__binary__oarchive_8hpp.html" target="_top" xlink:title=" ">
<polygon fill="none" stroke="black" points="868,-134.5 868,-164.5 999,-164.5 999,-134.5 868,-134.5"/>
<text text-anchor="start" x="876" y="-152.5" font-family="Helvetica,sans-Serif" font-size="10.00">Networking/boost/portable</text>
<text text-anchor="middle" x="933.5" y="-141.5" font-family="Helvetica,sans-Serif" font-size="10.00">_binary_oarchive.hpp</text>
</a>
</g>
</g>
<!-- Node3&#45;&gt;Node30 -->
<g id="edge48" class="edge">
<title>Node3&#45;&gt;Node30</title>
<path fill="none" stroke="midnightblue" d="M614.66,-268.5C644.35,-259.94 690.87,-246.03 730.5,-232 786.84,-212.05 850.63,-185.82 891.42,-168.58"/>
<polygon fill="midnightblue" stroke="midnightblue" points="892.93,-171.74 900.77,-164.62 890.2,-165.3 892.93,-171.74"/>
</g>
<!-- Node34 -->
<g id="node34" class="node">
<title>Node34</title>
<g id="a_node34"><a xlink:href="Point_8hpp.html" target="_top" xlink:title=" ">
<polygon fill="none" stroke="black" points="1230,-207 1230,-226 1287,-226 1287,-207 1230,-207"/>
<text text-anchor="middle" x="1258.5" y="-214" font-family="Helvetica,sans-Serif" font-size="10.00">Point.hpp</text>
</a>
</g>
</g>
<!-- Node3&#45;&gt;Node34 -->
<g id="edge37" class="edge">
<title>Node3&#45;&gt;Node34</title>
<path fill="none" stroke="midnightblue" d="M618.09,-276.28C710.52,-273.92 976.31,-264.58 1194.5,-232 1202.83,-230.76 1211.69,-229.02 1220.07,-227.18"/>
<polygon fill="midnightblue" stroke="midnightblue" points="1221.03,-230.55 1230,-224.91 1219.47,-223.73 1221.03,-230.55"/>
</g>
<!-- Node36 -->
<g id="node36" class="node">
<title>Node36</title>
<g id="a_node36"><a xlink:title=" ">
<polygon fill="none" stroke="#bfbfbf" points="424,-201.5 424,-231.5 519,-231.5 519,-201.5 424,-201.5"/>
<text text-anchor="start" x="432" y="-219.5" font-family="Helvetica,sans-Serif" font-size="10.00">boost/serialization</text>
<text text-anchor="middle" x="471.5" y="-208.5" font-family="Helvetica,sans-Serif" font-size="10.00">/weak_ptr.hpp</text>
</a>
</g>
</g>
<!-- Node3&#45;&gt;Node36 -->
<g id="edge42" class="edge">
<title>Node3&#45;&gt;Node36</title>
<path fill="none" stroke="midnightblue" d="M568.31,-268.48C552.43,-260.12 527.7,-247.09 507.2,-236.3"/>
<polygon fill="midnightblue" stroke="midnightblue" points="508.61,-233.09 498.13,-231.52 505.35,-239.28 508.61,-233.09"/>
</g>
<!-- Node37 -->
<g id="node37" class="node">
<title>Node37</title>
<g id="a_node37"><a xlink:title=" ">
<polygon fill="none" stroke="#bfbfbf" points="537.5,-207 537.5,-226 581.5,-226 581.5,-207 537.5,-207"/>
<text text-anchor="middle" x="559.5" y="-214" font-family="Helvetica,sans-Serif" font-size="10.00">vector</text>
</a>
</g>
</g>
<!-- Node3&#45;&gt;Node37 -->
<g id="edge49" class="edge">
<title>Node3&#45;&gt;Node37</title>
<path fill="none" stroke="midnightblue" d="M580.92,-268.48C577.32,-259.9 571.65,-246.43 567.06,-235.48"/>
<polygon fill="midnightblue" stroke="midnightblue" points="570.18,-233.87 563.08,-226.01 563.72,-236.58 570.18,-233.87"/>
</g>
<!-- Node5 -->
<g id="node5" class="node">
<title>Node5</title>
<g id="a_node5"><a xlink:title=" ">
<polygon fill="none" stroke="#bfbfbf" points="573,-140 573,-159 624,-159 624,-140 573,-140"/>
<text text-anchor="middle" x="598.5" y="-147" font-family="Helvetica,sans-Serif" font-size="10.00">memory</text>
</a>
</g>
</g>
<!-- Node4&#45;&gt;Node5 -->
<g id="edge4" class="edge">
<title>Node4&#45;&gt;Node5</title>
<path fill="none" stroke="midnightblue" d="M668.58,-206.73C655.46,-196.21 633.24,-178.38 617.34,-165.62"/>
<polygon fill="midnightblue" stroke="midnightblue" points="619.24,-162.66 609.25,-159.13 614.86,-168.12 619.24,-162.66"/>
</g>
<!-- Node4&#45;&gt;Node6 -->
<g id="edge5" class="edge">
<title>Node4&#45;&gt;Node6</title>
<path fill="none" stroke="midnightblue" d="M637.05,-207.81C622.35,-205.35 605.74,-202.8 590.5,-201 378.23,-175.91 319.41,-199.6 105.03,-165.06"/>
<polygon fill="midnightblue" stroke="midnightblue" points="105.47,-161.59 95.03,-163.43 104.34,-168.5 105.47,-161.59"/>
</g>
<!-- Node7 -->
<g id="node7" class="node">
<title>Node7</title>
<g id="a_node7"><a xlink:title=" ">
<polygon fill="none" stroke="#bfbfbf" points="642,-134.5 642,-164.5 737,-164.5 737,-134.5 642,-134.5"/>
<text text-anchor="start" x="650" y="-152.5" font-family="Helvetica,sans-Serif" font-size="10.00">boost/serialization</text>
<text text-anchor="middle" x="689.5" y="-141.5" font-family="Helvetica,sans-Serif" font-size="10.00">/map.hpp</text>
</a>
</g>
</g>
<!-- Node4&#45;&gt;Node7 -->
<g id="edge6" class="edge">
<title>Node4&#45;&gt;Node7</title>
<path fill="none" stroke="midnightblue" d="M680.85,-206.73C682.11,-198.54 684.05,-185.92 685.77,-174.71"/>
<polygon fill="midnightblue" stroke="midnightblue" points="689.27,-175 687.33,-164.59 682.35,-173.94 689.27,-175"/>
</g>
<!-- Node4&#45;&gt;Node8 -->
<g id="edge7" class="edge">
<title>Node4&#45;&gt;Node8</title>
<path fill="none" stroke="midnightblue" d="M721.62,-214.34C818.47,-211.17 1064.44,-200.21 1278.86,-164.91"/>
<polygon fill="midnightblue" stroke="midnightblue" points="1279.44,-168.36 1288.73,-163.26 1278.29,-161.45 1279.44,-168.36"/>
</g>
<!-- Node9 -->
<g id="node9" class="node">
<title>Node9</title>
<g id="a_node9"><a xlink:title=" ">
<polygon fill="none" stroke="#bfbfbf" points="755,-134.5 755,-164.5 850,-164.5 850,-134.5 755,-134.5"/>
<text text-anchor="start" x="763" y="-152.5" font-family="Helvetica,sans-Serif" font-size="10.00">boost/serialization</text>
<text text-anchor="middle" x="802.5" y="-141.5" font-family="Helvetica,sans-Serif" font-size="10.00">/shared_ptr.hpp</text>
</a>
</g>
</g>
<!-- Node4&#45;&gt;Node9 -->
<g id="edge8" class="edge">
<title>Node4&#45;&gt;Node9</title>
<path fill="none" stroke="midnightblue" d="M695.83,-206.87C713.83,-197.36 743.34,-181.77 766.76,-169.39"/>
<polygon fill="midnightblue" stroke="midnightblue" points="768.51,-172.42 775.72,-164.65 765.24,-166.23 768.51,-172.42"/>
</g>
<!-- Node4&#45;&gt;Node10 -->
<g id="edge9" class="edge">
<title>Node4&#45;&gt;Node10</title>
<path fill="none" stroke="midnightblue" d="M637.48,-208.08C622.66,-205.61 605.87,-202.99 590.5,-201 428.56,-180.02 383.33,-193.08 218.29,-164.95"/>
<polygon fill="midnightblue" stroke="midnightblue" points="218.73,-161.47 208.28,-163.22 217.54,-168.37 218.73,-161.47"/>
</g>
<!-- Node4&#45;&gt;Node11 -->
<g id="edge10" class="edge">
<title>Node4&#45;&gt;Node11</title>
<path fill="none" stroke="midnightblue" d="M721.63,-212.87C803.57,-207.36 990.24,-192.89 1156.44,-165.04"/>
<polygon fill="midnightblue" stroke="midnightblue" points="1157.07,-168.48 1166.35,-163.36 1155.9,-161.58 1157.07,-168.48"/>
</g>
<!-- Node4&#45;&gt;Node12 -->
<g id="edge11" class="edge">
<title>Node4&#45;&gt;Node12</title>
<path fill="none" stroke="midnightblue" d="M637.42,-208.48C622.6,-206.05 605.82,-203.35 590.5,-201 482.26,-184.42 451.92,-185.95 340.62,-165.11"/>
<polygon fill="midnightblue" stroke="midnightblue" points="341.15,-161.65 330.68,-163.23 339.85,-168.53 341.15,-161.65"/>
</g>
<!-- Node4&#45;&gt;Node13 -->
<g id="edge12" class="edge">
<title>Node4&#45;&gt;Node13</title>
<path fill="none" stroke="midnightblue" d="M639.04,-206.99C595.43,-197.72 523.75,-182.19 452.56,-165.21"/>
<polygon fill="midnightblue" stroke="midnightblue" points="453.06,-161.73 442.52,-162.8 451.43,-168.54 453.06,-161.73"/>
</g>
<!-- Node4&#45;&gt;Node14 -->
<g id="edge13" class="edge">
<title>Node4&#45;&gt;Node14</title>
<path fill="none" stroke="midnightblue" d="M656.66,-206.87C630.63,-197.03 587.39,-180.69 554.15,-168.13"/>
<polygon fill="midnightblue" stroke="midnightblue" points="555.21,-164.79 544.62,-164.53 552.74,-171.34 555.21,-164.79"/>
</g>
<!-- Node4&#45;&gt;Node15 -->
<g id="edge14" class="edge">
<title>Node4&#45;&gt;Node15</title>
<path fill="none" stroke="midnightblue" d="M721.52,-209.55C782.11,-200.87 897.76,-183.86 1006.51,-165.13"/>
<polygon fill="midnightblue" stroke="midnightblue" points="1007.42,-168.53 1016.68,-163.37 1006.23,-161.63 1007.42,-168.53"/>
</g>
<!-- Node4&#45;&gt;Node30 -->
<g id="edge29" class="edge">
<title>Node4&#45;&gt;Node30</title>
<path fill="none" stroke="midnightblue" d="M712.97,-206.94C752.5,-196.82 819.15,-179.76 868.86,-167.04"/>
<polygon fill="midnightblue" stroke="midnightblue" points="869.74,-170.43 878.56,-164.56 868.01,-163.65 869.74,-170.43"/>
</g>
<!-- Node16 -->
<g id="node16" class="node">
<title>Node16</title>
<g id="a_node16"><a xlink:title=" ">
<polygon fill="none" stroke="#bfbfbf" points="1514,-73 1514,-92 1563,-92 1563,-73 1514,-73"/>
<text text-anchor="middle" x="1538.5" y="-80" font-family="Helvetica,sans-Serif" font-size="10.00">istream</text>
</a>
</g>
</g>
<!-- Node15&#45;&gt;Node16 -->
<g id="edge15" class="edge">
<title>Node15&#45;&gt;Node16</title>
<path fill="none" stroke="midnightblue" d="M1148.29,-135.44C1151.4,-134.93 1154.48,-134.45 1157.5,-134 1310.87,-111.26 1354.4,-136.85 1504.5,-98 1506.86,-97.39 1509.27,-96.64 1511.65,-95.81"/>
<polygon fill="midnightblue" stroke="midnightblue" points="1513.18,-98.97 1521.2,-92.06 1510.62,-92.46 1513.18,-98.97"/>
</g>
<!-- Node17 -->
<g id="node17" class="node">
<title>Node17</title>
<g id="a_node17"><a xlink:title=" ">
<polygon fill="none" stroke="#bfbfbf" points="886,-67.5 886,-97.5 981,-97.5 981,-67.5 886,-67.5"/>
<text text-anchor="start" x="894" y="-85.5" font-family="Helvetica,sans-Serif" font-size="10.00">boost/serialization</text>
<text text-anchor="middle" x="933.5" y="-74.5" font-family="Helvetica,sans-Serif" font-size="10.00">/string.hpp</text>
</a>
</g>
</g>
<!-- Node15&#45;&gt;Node17 -->
<g id="edge16" class="edge">
<title>Node15&#45;&gt;Node17</title>
<path fill="none" stroke="midnightblue" d="M1050.17,-134.4C1028.2,-124.81 998.94,-112.05 975.22,-101.7"/>
<polygon fill="midnightblue" stroke="midnightblue" points="976.33,-98.37 965.77,-97.58 973.53,-104.78 976.33,-98.37"/>
</g>
<!-- Node18 -->
<g id="node18" class="node">
<title>Node18</title>
<g id="a_node18"><a xlink:title=" ">
<polygon fill="none" stroke="#bfbfbf" points="1580.5,-67.5 1580.5,-97.5 1696.5,-97.5 1696.5,-67.5 1580.5,-67.5"/>
<text text-anchor="start" x="1588.5" y="-85.5" font-family="Helvetica,sans-Serif" font-size="10.00">boost/serialization</text>
<text text-anchor="middle" x="1638.5" y="-74.5" font-family="Helvetica,sans-Serif" font-size="10.00">/item_version_type.hpp</text>
</a>
</g>
</g>
<!-- Node15&#45;&gt;Node18 -->
<g id="edge17" class="edge">
<title>Node15&#45;&gt;Node18</title>
<path fill="none" stroke="midnightblue" d="M1148.29,-135.38C1151.4,-134.88 1154.48,-134.42 1157.5,-134 1337.63,-108.84 1387.73,-125.32 1570.34,-98.22"/>
<polygon fill="midnightblue" stroke="midnightblue" points="1570.91,-101.67 1580.27,-96.72 1569.86,-94.75 1570.91,-101.67"/>
</g>
<!-- Node19 -->
<g id="node19" class="node">
<title>Node19</title>
<g id="a_node19"><a xlink:title=" ">
<polygon fill="none" stroke="#bfbfbf" points="999.5,-67.5 999.5,-97.5 1109.5,-97.5 1109.5,-67.5 999.5,-67.5"/>
<text text-anchor="start" x="1007.5" y="-85.5" font-family="Helvetica,sans-Serif" font-size="10.00">boost/archive/archive</text>
<text text-anchor="middle" x="1054.5" y="-74.5" font-family="Helvetica,sans-Serif" font-size="10.00">_exception.hpp</text>
</a>
</g>
</g>
<!-- Node15&#45;&gt;Node19 -->
<g id="edge18" class="edge">
<title>Node15&#45;&gt;Node19</title>
<path fill="none" stroke="midnightblue" d="M1076.42,-134.4C1072.98,-126.39 1068.57,-116.16 1064.61,-106.98"/>
<polygon fill="midnightblue" stroke="midnightblue" points="1067.73,-105.38 1060.56,-97.58 1061.31,-108.15 1067.73,-105.38"/>
</g>
<!-- Node20 -->
<g id="node20" class="node">
<title>Node20</title>
<g id="a_node20"><a xlink:title=" ">
<polygon fill="none" stroke="#bfbfbf" points="1253.5,-67.5 1253.5,-97.5 1363.5,-97.5 1363.5,-67.5 1253.5,-67.5"/>
<text text-anchor="start" x="1261.5" y="-85.5" font-family="Helvetica,sans-Serif" font-size="10.00">boost/archive/basic</text>
<text text-anchor="middle" x="1308.5" y="-74.5" font-family="Helvetica,sans-Serif" font-size="10.00">_binary_iprimitive.hpp</text>
</a>
</g>
</g>
<!-- Node15&#45;&gt;Node20 -->
<g id="edge19" class="edge">
<title>Node15&#45;&gt;Node20</title>
<path fill="none" stroke="midnightblue" d="M1131.26,-134.48C1166.04,-124.47 1212.98,-110.97 1249.82,-100.38"/>
<polygon fill="midnightblue" stroke="midnightblue" points="1250.79,-103.74 1259.44,-97.61 1248.86,-97.01 1250.79,-103.74"/>
</g>
<!-- Node21 -->
<g id="node21" class="node">
<title>Node21</title>
<g id="a_node21"><a xlink:title=" ">
<polygon fill="none" stroke="#bfbfbf" points="1381.5,-67.5 1381.5,-97.5 1495.5,-97.5 1495.5,-67.5 1381.5,-67.5"/>
<text text-anchor="start" x="1389.5" y="-85.5" font-family="Helvetica,sans-Serif" font-size="10.00">boost/archive/detail</text>
<text text-anchor="middle" x="1438.5" y="-74.5" font-family="Helvetica,sans-Serif" font-size="10.00">/common_iarchive.hpp</text>
</a>
</g>
</g>
<!-- Node15&#45;&gt;Node21 -->
<g id="edge20" class="edge">
<title>Node15&#45;&gt;Node21</title>
<path fill="none" stroke="midnightblue" d="M1148.33,-135.68C1151.43,-135.1 1154.5,-134.54 1157.5,-134 1249.68,-117.37 1275.67,-116.45 1371.2,-98.19"/>
<polygon fill="midnightblue" stroke="midnightblue" points="1372.14,-101.58 1381.3,-96.25 1370.82,-94.7 1372.14,-101.58"/>
</g>
<!-- Node22 -->
<g id="node22" class="node">
<title>Node22</title>
<g id="a_node22"><a xlink:title=" ">
<polygon fill="none" stroke="#bfbfbf" points="1128,-67.5 1128,-97.5 1235,-97.5 1235,-67.5 1128,-67.5"/>
<text text-anchor="start" x="1136" y="-85.5" font-family="Helvetica,sans-Serif" font-size="10.00">boost/archive/detail</text>
<text text-anchor="middle" x="1181.5" y="-74.5" font-family="Helvetica,sans-Serif" font-size="10.00">/register_archive.hpp</text>
</a>
</g>
</g>
<!-- Node15&#45;&gt;Node22 -->
<g id="edge21" class="edge">
<title>Node15&#45;&gt;Node22</title>
<path fill="none" stroke="midnightblue" d="M1103.98,-134.4C1117.86,-125.28 1136.13,-113.29 1151.44,-103.24"/>
<polygon fill="midnightblue" stroke="midnightblue" points="1153.62,-105.99 1160.06,-97.58 1149.78,-100.14 1153.62,-105.99"/>
</g>
<!-- Node23 -->
<g id="node23" class="node">
<title>Node23</title>
<g id="a_node23"><a xlink:href="portable__binary__archive_8hpp.html" target="_top" xlink:title=" ">
<polygon fill="none" stroke="black" points="731,-73 731,-92 868,-92 868,-73 731,-73"/>
<text text-anchor="middle" x="799.5" y="-80" font-family="Helvetica,sans-Serif" font-size="10.00">portable_binary_archive.hpp</text>
</a>
</g>
</g>
<!-- Node15&#45;&gt;Node23 -->
<g id="edge22" class="edge">
<title>Node15&#45;&gt;Node23</title>
<path fill="none" stroke="midnightblue" d="M1021.44,-134.48C968.95,-122.42 894.35,-105.29 846.44,-94.28"/>
<polygon fill="midnightblue" stroke="midnightblue" points="847.16,-90.86 836.63,-92.03 845.6,-97.68 847.16,-90.86"/>
</g>
<!-- Node24 -->
<g id="node24" class="node">
<title>Node24</title>
<g id="a_node24"><a xlink:title=" ">
<polygon fill="none" stroke="#bfbfbf" points="476,-6 476,-25 563,-25 563,-6 476,-6"/>
<text text-anchor="middle" x="519.5" y="-13" font-family="Helvetica,sans-Serif" font-size="10.00">boost/config.hpp</text>
</a>
</g>
</g>
<!-- Node23&#45;&gt;Node24 -->
<g id="edge23" class="edge">
<title>Node23&#45;&gt;Node24</title>
<path fill="none" stroke="midnightblue" d="M757.74,-72.96C711.89,-63.41 636.2,-47.17 571.5,-31 567.41,-29.98 563.15,-28.87 558.91,-27.73"/>
<polygon fill="midnightblue" stroke="midnightblue" points="559.69,-24.32 549.13,-25.06 557.85,-31.07 559.69,-24.32"/>
</g>
<!-- Node25 -->
<g id="node25" class="node">
<title>Node25</title>
<g id="a_node25"><a xlink:title=" ">
<polygon fill="none" stroke="#bfbfbf" points="581,-6 581,-25 672,-25 672,-6 581,-6"/>
<text text-anchor="middle" x="626.5" y="-13" font-family="Helvetica,sans-Serif" font-size="10.00">boost/cstdint.hpp</text>
</a>
</g>
</g>
<!-- Node23&#45;&gt;Node25 -->
<g id="edge24" class="edge">
<title>Node23&#45;&gt;Node25</title>
<path fill="none" stroke="midnightblue" d="M776.53,-72.87C746.33,-61.52 693.1,-41.52 658.84,-28.65"/>
<polygon fill="midnightblue" stroke="midnightblue" points="659.88,-25.3 649.29,-25.06 657.42,-31.86 659.88,-25.3"/>
</g>
<!-- Node26 -->
<g id="node26" class="node">
<title>Node26</title>
<g id="a_node26"><a xlink:title=" ">
<polygon fill="none" stroke="#bfbfbf" points="690.5,-6 690.5,-25 808.5,-25 808.5,-6 690.5,-6"/>
<text text-anchor="middle" x="749.5" y="-13" font-family="Helvetica,sans-Serif" font-size="10.00">boost/static_assert.hpp</text>
</a>
</g>
</g>
<!-- Node23&#45;&gt;Node26 -->
<g id="edge25" class="edge">
<title>Node23&#45;&gt;Node26</title>
<path fill="none" stroke="midnightblue" d="M792.76,-72.73C784.96,-62.6 771.95,-45.69 762.24,-33.06"/>
<polygon fill="midnightblue" stroke="midnightblue" points="765.01,-30.92 756.14,-25.13 759.46,-35.19 765.01,-30.92"/>
</g>
<!-- Node27 -->
<g id="node27" class="node">
<title>Node27</title>
<g id="a_node27"><a xlink:title=" ">
<polygon fill="none" stroke="#bfbfbf" points="827,-6 827,-25 872,-25 872,-6 827,-6"/>
<text text-anchor="middle" x="849.5" y="-13" font-family="Helvetica,sans-Serif" font-size="10.00">climits</text>
</a>
</g>
</g>
<!-- Node23&#45;&gt;Node27 -->
<g id="edge26" class="edge">
<title>Node23&#45;&gt;Node27</title>
<path fill="none" stroke="midnightblue" d="M806.24,-72.73C814.04,-62.6 827.05,-45.69 836.76,-33.06"/>
<polygon fill="midnightblue" stroke="midnightblue" points="839.54,-35.19 842.86,-25.13 833.99,-30.92 839.54,-35.19"/>
</g>
<!-- Node28 -->
<g id="node28" class="node">
<title>Node28</title>
<g id="a_node28"><a xlink:title=" ">
<polygon fill="none" stroke="#bfbfbf" points="890,-0.5 890,-30.5 991,-30.5 991,-0.5 890,-0.5"/>
<text text-anchor="start" x="898" y="-18.5" font-family="Helvetica,sans-Serif" font-size="10.00">boost/archive/basic</text>
<text text-anchor="middle" x="940.5" y="-7.5" font-family="Helvetica,sans-Serif" font-size="10.00">_archive.hpp</text>
</a>
</g>
</g>
<!-- Node23&#45;&gt;Node28 -->
<g id="edge27" class="edge">
<title>Node23&#45;&gt;Node28</title>
<path fill="none" stroke="midnightblue" d="M818.22,-72.87C839.2,-63.2 873.8,-47.25 900.85,-34.78"/>
<polygon fill="midnightblue" stroke="midnightblue" points="902.45,-37.89 910.07,-30.53 899.52,-31.54 902.45,-37.89"/>
</g>
<!-- Node29 -->
<g id="node29" class="node">
<title>Node29</title>
<g id="a_node29"><a xlink:title=" ">
<polygon fill="none" stroke="#bfbfbf" points="1009,-0.5 1009,-30.5 1104,-30.5 1104,-0.5 1009,-0.5"/>
<text text-anchor="start" x="1017" y="-18.5" font-family="Helvetica,sans-Serif" font-size="10.00">boost/predef/other</text>
<text text-anchor="middle" x="1056.5" y="-7.5" font-family="Helvetica,sans-Serif" font-size="10.00">/endian.h</text>
</a>
</g>
</g>
<!-- Node23&#45;&gt;Node29 -->
<g id="edge28" class="edge">
<title>Node23&#45;&gt;Node29</title>
<path fill="none" stroke="midnightblue" d="M833.48,-72.94C871.33,-63.4 934.62,-47.44 999,-31.13"/>
<polygon fill="midnightblue" stroke="midnightblue" points="1000.08,-34.46 1008.92,-28.61 998.36,-27.68 1000.08,-34.46"/>
</g>
<!-- Node30&#45;&gt;Node17 -->
<g id="edge31" class="edge">
<title>Node30&#45;&gt;Node17</title>
<path fill="none" stroke="midnightblue" d="M933.5,-134.4C933.5,-126.64 933.5,-116.81 933.5,-107.86"/>
<polygon fill="midnightblue" stroke="midnightblue" points="937,-107.58 933.5,-97.58 930,-107.58 937,-107.58"/>
</g>
<!-- Node30&#45;&gt;Node19 -->
<g id="edge32" class="edge">
<title>Node30&#45;&gt;Node19</title>
<path fill="none" stroke="midnightblue" d="M959.76,-134.4C977.2,-125.03 1000.3,-112.62 1019.33,-102.39"/>
<polygon fill="midnightblue" stroke="midnightblue" points="1021.14,-105.39 1028.3,-97.58 1017.83,-99.23 1021.14,-105.39"/>
</g>
<!-- Node30&#45;&gt;Node22 -->
<g id="edge35" class="edge">
<title>Node30&#45;&gt;Node22</title>
<path fill="none" stroke="midnightblue" d="M987.01,-134.48C1025.42,-124.41 1077.34,-110.8 1117.88,-100.17"/>
<polygon fill="midnightblue" stroke="midnightblue" points="1118.88,-103.53 1127.66,-97.61 1117.1,-96.76 1118.88,-103.53"/>
</g>
<!-- Node30&#45;&gt;Node23 -->
<g id="edge36" class="edge">
<title>Node30&#45;&gt;Node23</title>
<path fill="none" stroke="midnightblue" d="M904.42,-134.4C881.12,-123.09 848.69,-107.36 826.07,-96.39"/>
<polygon fill="midnightblue" stroke="midnightblue" points="827.56,-93.22 817.04,-92.01 824.51,-99.52 827.56,-93.22"/>
</g>
<!-- Node31 -->
<g id="node31" class="node">
<title>Node31</title>
<g id="a_node31"><a xlink:title=" ">
<polygon fill="none" stroke="#bfbfbf" points="660.5,-73 660.5,-92 712.5,-92 712.5,-73 660.5,-73"/>
<text text-anchor="middle" x="686.5" y="-80" font-family="Helvetica,sans-Serif" font-size="10.00">ostream</text>
</a>
</g>
</g>
<!-- Node30&#45;&gt;Node31 -->
<g id="edge30" class="edge">
<title>Node30&#45;&gt;Node31</title>
<path fill="none" stroke="midnightblue" d="M867.81,-135.67C825.56,-126.73 769.73,-113.63 721.5,-98 719.36,-97.31 717.18,-96.54 714.99,-95.74"/>
<polygon fill="midnightblue" stroke="midnightblue" points="716.14,-92.43 705.55,-92.04 713.58,-98.94 716.14,-92.43"/>
</g>
<!-- Node32 -->
<g id="node32" class="node">
<title>Node32</title>
<g id="a_node32"><a xlink:title=" ">
<polygon fill="none" stroke="#bfbfbf" points="394,-67.5 394,-97.5 507,-97.5 507,-67.5 394,-67.5"/>
<text text-anchor="start" x="402" y="-85.5" font-family="Helvetica,sans-Serif" font-size="10.00">boost/archive/basic</text>
<text text-anchor="middle" x="450.5" y="-74.5" font-family="Helvetica,sans-Serif" font-size="10.00">_binary_oprimitive.hpp</text>
</a>
</g>
</g>
<!-- Node30&#45;&gt;Node32 -->
<g id="edge33" class="edge">
<title>Node30&#45;&gt;Node32</title>
<path fill="none" stroke="midnightblue" d="M867.71,-135.45C864.6,-134.93 861.52,-134.45 858.5,-134 710.15,-111.92 668.55,-122.26 517.27,-98.18"/>
<polygon fill="midnightblue" stroke="midnightblue" points="517.58,-94.68 507.15,-96.54 516.46,-101.59 517.58,-94.68"/>
</g>
<!-- Node33 -->
<g id="node33" class="node">
<title>Node33</title>
<g id="a_node33"><a xlink:title=" ">
<polygon fill="none" stroke="#bfbfbf" points="525,-67.5 525,-97.5 642,-97.5 642,-67.5 525,-67.5"/>
<text text-anchor="start" x="533" y="-85.5" font-family="Helvetica,sans-Serif" font-size="10.00">boost/archive/detail</text>
<text text-anchor="middle" x="583.5" y="-74.5" font-family="Helvetica,sans-Serif" font-size="10.00">/common_oarchive.hpp</text>
</a>
</g>
</g>
<!-- Node30&#45;&gt;Node33 -->
<g id="edge34" class="edge">
<title>Node30&#45;&gt;Node33</title>
<path fill="none" stroke="midnightblue" d="M867.66,-135.7C864.57,-135.12 861.5,-134.55 858.5,-134 769.7,-117.7 744.81,-115.85 651.9,-98.03"/>
<polygon fill="midnightblue" stroke="midnightblue" points="652.56,-94.59 642.08,-96.14 651.23,-101.47 652.56,-94.59"/>
</g>
<!-- Node35 -->
<g id="node35" class="node">
<title>Node35</title>
<g id="a_node35"><a xlink:title=" ">
<polygon fill="none" stroke="#bfbfbf" points="1402.5,-140 1402.5,-159 1446.5,-159 1446.5,-140 1402.5,-140"/>
<text text-anchor="middle" x="1424.5" y="-147" font-family="Helvetica,sans-Serif" font-size="10.00">cmath</text>
</a>
</g>
</g>
<!-- Node34&#45;&gt;Node35 -->
<g id="edge38" class="edge">
<title>Node34&#45;&gt;Node35</title>
<path fill="none" stroke="midnightblue" d="M1283.12,-206.96C1310.36,-197.35 1355.43,-180.99 1393.5,-165 1394.87,-164.42 1396.27,-163.82 1397.67,-163.21"/>
<polygon fill="midnightblue" stroke="midnightblue" points="1399.24,-166.34 1406.9,-159.03 1396.35,-159.96 1399.24,-166.34"/>
</g>
<!-- Node38&#45;&gt;Node6 -->
<g id="edge55" class="edge">
<title>Node38&#45;&gt;Node6</title>
<path fill="none" stroke="midnightblue" d="M124.24,-201.4C110.49,-192.28 92.41,-180.29 77.26,-170.24"/>
<polygon fill="midnightblue" stroke="midnightblue" points="78.99,-167.19 68.72,-164.58 75.12,-173.02 78.99,-167.19"/>
</g>
<!-- Node38&#45;&gt;Node10 -->
<g id="edge54" class="edge">
<title>Node38&#45;&gt;Node10</title>
<path fill="none" stroke="midnightblue" d="M148.75,-201.4C150.56,-193.56 152.86,-183.6 154.95,-174.57"/>
<polygon fill="midnightblue" stroke="midnightblue" points="158.41,-175.11 157.25,-164.58 151.59,-173.53 158.41,-175.11"/>
</g>
</g>
</svg>
        <g id="navigator" transform="translate(0 0)" fill="#404254">
                <rect fill="#f2f5e9" fill-opacity="0.5" stroke="#606060" stroke-width=".5" x="0" y="0" width="60" height="60"/>
                <use id="zoomplus" xlink:href="#zoomPlus" x="17" y="9" onmousedown="handleZoom(evt,'in')"/>
                <use id="zoomminus" xlink:href="#zoomMin" x="42" y="9" onmousedown="handleZoom(evt,'out')"/>
                <use id="reset" xlink:href="#resetDef" x="30" y="36" onmousedown="handleReset()"/>
                <g id="arrowUp" xlink:href="#dirArrow" transform="translate(30 24)" onmousedown="handlePan(0,-1)">
                  <use xlink:href="#rim" fill="#404040">
                        <set attributeName="fill" to="#808080" begin="arrowUp.mouseover" end="arrowUp.mouseout"/>
                  </use>
                  <path fill="none" stroke="white" stroke-width="1.5" d="M0,-3.0v7 M-2.5,-0.5L0,-3.0L2.5,-0.5"/>
                </g>
                <g id="arrowRight" xlink:href="#dirArrow" transform="rotate(90) translate(36 -43)" onmousedown="handlePan(1,0)">
                  <use xlink:href="#rim" fill="#404040">
                        <set attributeName="fill" to="#808080" begin="arrowRight.mouseover" end="arrowRight.mouseout"/>
                  </use>
                  <path fill="none" stroke="white" stroke-width="1.5" d="M0,-3.0v7 M-2.5,-0.5L0,-3.0L2.5,-0.5"/>
                </g>
                <g id="arrowDown" xlink:href="#dirArrow" transform="rotate(180) translate(-30 -48)" onmousedown="handlePan(0,1)">
                  <use xlink:href="#rim" fill="#404040">
                        <set attributeName="fill" to="#808080" begin="arrowDown.mouseover" end="arrowDown.mouseout"/>
                  </use>
                  <path fill="none" stroke="white" stroke-width="1.5" d="M0,-3.0v7 M-2.5,-0.5L0,-3.0L2.5,-0.5"/>
                </g>
                <g id="arrowLeft" xlink:href="#dirArrow" transform="rotate(270) translate(-36 17)" onmousedown="handlePan(-1,0)">
                  <use xlink:href="#rim" fill="#404040">
                        <set attributeName="fill" to="#808080" begin="arrowLeft.mouseover" end="arrowLeft.mouseout"/>
                  </use>
                  <path fill="none" stroke="white" stroke-width="1.5" d="M0,-3.0v7 M-2.5,-0.5L0,-3.0L2.5,-0.5"/>
                </g>
        </g>
        <svg viewBox="0 0 15 15" width="100%" height="30px" preserveAspectRatio="xMaxYMin meet">
         <g id="arrow_out" transform="scale(0.3 0.3)">
          <a xlink:href="BoxCollider_8cpp__incl_org.svg" target="_base">
           <rect id="button" ry="5" rx="5" y="6" x="6" height="38" width="38"
                fill="#f2f5e9" fill-opacity="0.5" stroke="#606060" stroke-width="1.0"/>
           <path id="arrow"
             d="M 11.500037,31.436501 C 11.940474,20.09759 22.043105,11.32322 32.158766,21.979434 L 37.068811,17.246167 C 37.068811,17.246167 37.088388,32 37.088388,32 L 22.160133,31.978069 C 22.160133,31.978069 26.997745,27.140456 26.997745,27.140456 C 18.528582,18.264221 13.291696,25.230495 11.500037,31.436501 z"
             style="fill:#404040;"/>
          </a>
         </g>
        </svg>
</svg>
