<svg xmlns="http://www.w3.org/2000/svg" xmlns:xlink="http://www.w3.org/1999/xlink" width="700pt" height="320" viewBox="0 0 700 240"><g id="graph0" class="graph" transform="scale(1 1) rotate(0) translate(4 236)"><title>includes/spic-prj-api/BoxCollider.hpp</title><g id="node1" class="node"><title>Node1</title><g id="a_node1"><a><polygon fill="#bfbfbf" stroke="#000" points="134.5 -201.5 134.5 -231.5 237.5 -231.5 237.5 -201.5 134.5 -201.5"/><text x="142.5" y="-219.5" font-family="Helvetica,sans-Serif" font-size="10" text-anchor="start">includes/spic-prj-api</text><text x="186" y="-208.5" font-family="Helvetica,sans-Serif" font-size="10" text-anchor="middle">/BoxCollider.hpp</text></a></g></g><g id="node2" class="node"><title>Node2</title><g id="a_node2"><a target="_top" xlink:href="CollisionBehaviour_8cpp.html"><polygon fill="none" stroke="#000" points="0 -140 0 -159 178 -159 178 -140 0 -140"/><text x="89" y="-147" font-family="Helvetica,sans-Serif" font-size="10" text-anchor="middle">src/Behaviour/CollisionBehaviour.cpp</text></a></g></g><g id="edge1" class="edge"><title>Node1-&gt;Node2</title><path fill="none" stroke="#191970" d="M156.36,-195.64C138.06,-183.37 115.51,-168.26 101.7,-159.01"/><polygon fill="#191970" stroke="#191970" points="154.7 -198.74 164.95 -201.4 158.59 -192.92 154.7 -198.74"/></g><g id="node3" class="node"><title>Node3</title><g id="a_node3"><a target="_top" xlink:href="PhysicsSystem_8hpp.html"><polygon fill="none" stroke="#000" points="196 -134.5 196 -164.5 370 -164.5 370 -134.5 196 -134.5"/><text x="204" y="-152.5" font-family="Helvetica,sans-Serif" font-size="10" text-anchor="start">includes/platformer</text><text x="283" y="-141.5" font-family="Helvetica,sans-Serif" font-size="10" text-anchor="middle">-engine/Physics/PhysicsSystem.hpp</text></a></g></g><g id="edge2" class="edge"><title>Node1-&gt;Node3</title><path fill="none" stroke="#191970" d="M215.5,-195.73C230.51,-185.68 248.4,-173.68 261.99,-164.58"/><polygon fill="#191970" stroke="#191970" points="213.41 -192.92 207.05 -201.4 217.3 -198.74 213.41 -192.92"/></g><g id="node4" class="node"><title>Node4</title><g id="a_node4"><a target="_top" xlink:href="PhysicsSystem_8cpp.html"><polygon fill="none" stroke="#000" points="124 -73 124 -92 280 -92 280 -73 124 -73"/><text x="202" y="-80" font-family="Helvetica,sans-Serif" font-size="10" text-anchor="middle">src/Physics/PhysicsSystem.cpp</text></a></g></g><g id="edge3" class="edge"><title>Node3-&gt;Node4</title><path fill="none" stroke="#191970" d="M257.46,-128.01C242.43,-115.94 224.19,-101.3 212.83,-92.19"/><polygon fill="#191970" stroke="#191970" points="255.43 -130.87 265.42 -134.4 259.82 -125.41 255.43 -130.87"/></g><g id="node5" class="node"><title>Node5</title><g id="a_node5"><a target="_top" xlink:href="Engine_8hpp.html"><polygon fill="none" stroke="#000" points="298.5 -67.5 298.5 -97.5 429.5 -97.5 429.5 -67.5 298.5 -67.5"/><text x="306.5" y="-85.5" font-family="Helvetica,sans-Serif" font-size="10" text-anchor="start">includes/platformer</text><text x="364" y="-74.5" font-family="Helvetica,sans-Serif" font-size="10" text-anchor="middle">-engine/Engine/Engine.hpp</text></a></g></g><g id="edge4" class="edge"><title>Node3-&gt;Node5</title><path fill="none" stroke="#191970" d="M308.69,-127.88C321,-118.01 335.43,-106.43 346.46,-97.58"/><polygon fill="#191970" stroke="#191970" points="306.18 -125.41 300.58 -134.4 310.57 -130.87 306.18 -125.41"/></g><g id="node6" class="node"><title>Node6</title><g id="a_node6"><a target="_top" xlink:href="Engine_8cpp.html"><polygon fill="none" stroke="#000" points="76.5 -6 76.5 -25 189.5 -25 189.5 -6 76.5 -6"/><text x="133" y="-13" font-family="Helvetica,sans-Serif" font-size="10" text-anchor="middle">src/Engine/Engine.cpp</text></a></g></g><g id="edge5" class="edge"><title>Node5-&gt;Node6</title><path fill="none" stroke="#191970" d="M304.47,-64.75C259.3,-52.04 199.05,-35.09 163.31,-25.03"/><polygon fill="#191970" stroke="#191970" points="303.59 -68.14 314.16 -67.48 305.48 -61.4 303.59 -68.14"/></g><g id="node7" class="node"><title>Node7</title><g id="a_node7"><a target="_top" xlink:href="ClientNetworkManager_8cpp.html"><polygon fill="none" stroke="#000" points="207.5 -.5 207.5 -30.5 354.5 -30.5 354.5 -.5 207.5 -.5"/><text x="215.5" y="-18.5" font-family="Helvetica,sans-Serif" font-size="10" text-anchor="start">src/Networking/ClientNetwork</text><text x="281" y="-7.5" font-family="Helvetica,sans-Serif" font-size="10" text-anchor="middle">Manager.cpp</text></a></g></g><g id="edge6" class="edge"><title>Node5-&gt;Node7</title><path fill="none" stroke="#191970" d="M338.04,-61.17C325.35,-51.23 310.39,-39.51 298.97,-30.58"/><polygon fill="#191970" stroke="#191970" points="335.96 -63.99 345.99 -67.4 340.28 -58.47 335.96 -63.99"/></g><g id="node8" class="node"><title>Node8</title><g id="a_node8"><a target="_top" xlink:href="ServerNetworkManager_8cpp.html"><polygon fill="none" stroke="#000" points="372.5 -.5 372.5 -30.5 523.5 -30.5 523.5 -.5 372.5 -.5"/><text x="380.5" y="-18.5" font-family="Helvetica,sans-Serif" font-size="10" text-anchor="start">src/Networking/ServerNetwork</text><text x="448" y="-7.5" font-family="Helvetica,sans-Serif" font-size="10" text-anchor="middle">Manager.cpp</text></a></g></g><g id="edge7" class="edge"><title>Node5-&gt;Node8</title><path fill="none" stroke="#191970" d="M390.28,-61.17C403.12,-51.23 418.26,-39.51 429.81,-30.58"/><polygon fill="#191970" stroke="#191970" points="387.99 -58.51 382.23 -67.4 392.28 -64.04 387.99 -58.51"/></g><g id="node9" class="node"><title>Node9</title><g id="a_node9"><a target="_top" xlink:href="RenderSystem_8cpp.html"><polygon fill="none" stroke="#000" points="542 -6 542 -25 692 -25 692 -6 542 -6"/><text x="617" y="-13" font-family="Helvetica,sans-Serif" font-size="10" text-anchor="middle">src/Texture/RenderSystem.cpp</text></a></g></g><g id="edge8" class="edge"><title>Node5-&gt;Node9</title><path fill="none" stroke="#191970" d="M428.57,-64.91C478.12,-52.18 544.5,-35.13 583.8,-25.03"/><polygon fill="#191970" stroke="#191970" points="427.4 -61.6 418.59 -67.48 429.14 -68.38 427.4 -61.6"/></g></g></svg>