<svg xmlns="http://www.w3.org/2000/svg" xmlns:xlink="http://www.w3.org/1999/xlink" width="511pt" height="218pt" viewBox="0 0 511 218"><g id="graph0" class="graph" transform="scale(1 1) rotate(0) translate(4 214)"><title>includes/spic-prj-api/BoxCollider.hpp</title><g id="node1" class="node"><title>Node1</title><g id="a_node1"><a><polygon fill="#bfbfbf" stroke="#000" points="137 -179.5 137 -209.5 240 -209.5 240 -179.5 137 -179.5"/><text x="145" y="-197.5" font-family="Helvetica,sans-Serif" font-size="10" text-anchor="start">includes/spic-prj-api</text><text x="188.5" y="-186.5" font-family="Helvetica,sans-Serif" font-size="10" text-anchor="middle">/BoxCollider.hpp</text></a></g></g><g id="node2" class="node"><title>Node2</title><g id="a_node2"><a target="_top" xlink:href="Collider_8hpp.html"><polygon fill="none" stroke="#000" points="155 -123.5 155 -142.5 222 -142.5 222 -123.5 155 -123.5"/><text x="188.5" y="-130.5" font-family="Helvetica,sans-Serif" font-size="10" text-anchor="middle">Collider.hpp</text></a></g></g><g id="edge1" class="edge"><title>Node1-&gt;Node2</title><path fill="none" stroke="#191970" d="M188.5,-179.4C188.5,-171.47 188.5,-161.46 188.5,-152.86"/><polygon fill="#191970" stroke="#191970" points="192 -152.66 188.5 -142.66 185 -152.66 192 -152.66"/></g><g id="node3" class="node"><title>Node3</title><g id="a_node3"><a><polygon fill="none" stroke="#bfbfbf" points="125.5 -67.5 125.5 -86.5 169.5 -86.5 169.5 -67.5 125.5 -67.5"/><text x="147.5" y="-74.5" font-family="Helvetica,sans-Serif" font-size="10" text-anchor="middle">vector</text></a></g></g><g id="edge2" class="edge"><title>Node2-&gt;Node3</title><path fill="none" stroke="#191970" d="M181.73,-123.08C175.94,-115.46 167.44,-104.26 160.36,-94.94"/><polygon fill="#191970" stroke="#191970" points="162.98 -92.6 154.14 -86.75 157.4 -96.83 162.98 -92.6"/></g><g id="node4" class="node"><title>Node4</title><g id="a_node4"><a target="_top" xlink:href="Component_8hpp.html"><polygon fill="none" stroke="#000" points="187.5 -67.5 187.5 -86.5 271.5 -86.5 271.5 -67.5 187.5 -67.5"/><text x="229.5" y="-74.5" font-family="Helvetica,sans-Serif" font-size="10" text-anchor="middle">Component.hpp</text></a></g></g><g id="edge3" class="edge"><title>Node2-&gt;Node4</title><path fill="none" stroke="#191970" d="M195.27,-123.08C201.06,-115.46 209.56,-104.26 216.64,-94.94"/><polygon fill="#191970" stroke="#191970" points="219.6 -96.83 222.86 -86.75 214.02 -92.6 219.6 -96.83"/></g><g id="node5" class="node"><title>Node5</title><g id="a_node5"><a><polygon fill="none" stroke="#bfbfbf" points="0 -6 0 -25 51 -25 51 -6 0 -6"/><text x="25.5" y="-13" font-family="Helvetica,sans-Serif" font-size="10" text-anchor="middle">memory</text></a></g></g><g id="edge4" class="edge"><title>Node4-&gt;Node5</title><path fill="none" stroke="#191970" d="M190.88,-67.46C156.11,-59.37 103.82,-46.23 59.5,-31 57.63,-30.36 55.73,-29.66 53.81,-28.93"/><polygon fill="#191970" stroke="#191970" points="54.96 -25.62 44.37 -25.12 52.33 -32.11 54.96 -25.62"/></g><g id="node6" class="node"><title>Node6</title><g id="a_node6"><a><polygon fill="none" stroke="#bfbfbf" points="69 -.5 69 -30.5 164 -30.5 164 -.5 69 -.5"/><text x="77" y="-18.5" font-family="Helvetica,sans-Serif" font-size="10" text-anchor="start">boost/serialization</text><text x="116.5" y="-7.5" font-family="Helvetica,sans-Serif" font-size="10" text-anchor="middle">/access.hpp</text></a></g></g><g id="edge5" class="edge"><title>Node4-&gt;Node6</title><path fill="none" stroke="#191970" d="M213.31,-67.48C197.43,-59.12 172.7,-46.09 152.2,-35.3"/><polygon fill="#191970" stroke="#191970" points="153.61 -32.09 143.13 -30.52 150.35 -38.28 153.61 -32.09"/></g><g id="node7" class="node"><title>Node7</title><g id="a_node7"><a><polygon fill="none" stroke="#bfbfbf" points="182 -.5 182 -30.5 277 -30.5 277 -.5 182 -.5"/><text x="190" y="-18.5" font-family="Helvetica,sans-Serif" font-size="10" text-anchor="start">boost/serialization</text><text x="229.5" y="-7.5" font-family="Helvetica,sans-Serif" font-size="10" text-anchor="middle">/map.hpp</text></a></g></g><g id="edge6" class="edge"><title>Node4-&gt;Node7</title><path fill="none" stroke="#191970" d="M229.5,-67.48C229.5,-60.47 229.5,-50.19 229.5,-40.7"/><polygon fill="#191970" stroke="#191970" points="233 -40.52 229.5 -30.52 226 -40.52 233 -40.52"/></g><g id="node8" class="node"><title>Node8</title><g id="a_node8"><a><polygon fill="none" stroke="#bfbfbf" points="295 -.5 295 -30.5 390 -30.5 390 -.5 295 -.5"/><text x="303" y="-18.5" font-family="Helvetica,sans-Serif" font-size="10" text-anchor="start">boost/serialization</text><text x="342.5" y="-7.5" font-family="Helvetica,sans-Serif" font-size="10" text-anchor="middle">/vector.hpp</text></a></g></g><g id="edge7" class="edge"><title>Node4-&gt;Node8</title><path fill="none" stroke="#191970" d="M245.69,-67.48C261.57,-59.12 286.3,-46.09 306.8,-35.3"/><polygon fill="#191970" stroke="#191970" points="308.65 -38.28 315.87 -30.52 305.39 -32.09 308.65 -38.28"/></g><g id="node9" class="node"><title>Node9</title><g id="a_node9"><a><polygon fill="none" stroke="#bfbfbf" points="408 -.5 408 -30.5 503 -30.5 503 -.5 408 -.5"/><text x="416" y="-18.5" font-family="Helvetica,sans-Serif" font-size="10" text-anchor="start">boost/serialization</text><text x="455.5" y="-7.5" font-family="Helvetica,sans-Serif" font-size="10" text-anchor="middle">/shared_ptr.hpp</text></a></g></g><g id="edge8" class="edge"><title>Node4-&gt;Node9</title><path fill="none" stroke="#191970" d="M261.88,-67.48C297.32,-58.14 354.84,-43 398,-31.64"/><polygon fill="#191970" stroke="#191970" points="399.02 -34.99 407.8 -29.06 397.24 -28.22 399.02 -34.99"/></g></g></svg>