<?xml version="1.0" encoding="UTF-8" standalone="no"?>
<!DOCTYPE svg PUBLIC "-//W3C//DTD SVG 1.1//EN"
 "http://www.w3.org/Graphics/SVG/1.1/DTD/svg11.dtd">
<!-- Generated by graphviz version 2.44.0 ()
 -->
<!-- Title: includes/spic&#45;prj&#45;api/Button.hpp Pages: 1 -->
<svg width="337pt" height="207pt"
 viewBox="0.00 0.00 336.50 207.00" xmlns="http://www.w3.org/2000/svg" xmlns:xlink="http://www.w3.org/1999/xlink">
<g id="graph0" class="graph" transform="scale(1 1) rotate(0) translate(4 203)">
<title>includes/spic&#45;prj&#45;api/Button.hpp</title>
<!-- Node1 -->
<g id="node1" class="node">
<title>Node1</title>
<g id="a_node1"><a xlink:title=" ">
<polygon fill="#bfbfbf" stroke="black" points="174.5,-168.5 174.5,-198.5 277.5,-198.5 277.5,-168.5 174.5,-168.5"/>
<text text-anchor="start" x="182.5" y="-186.5" font-family="Helvetica,sans-Serif" font-size="10.00">includes/spic&#45;prj&#45;api</text>
<text text-anchor="middle" x="226" y="-175.5" font-family="Helvetica,sans-Serif" font-size="10.00">/Button.hpp</text>
</a>
</g>
</g>
<!-- Node2 -->
<g id="node2" class="node">
<title>Node2</title>
<g id="a_node2"><a xlink:href="UIObject_8hpp.html" target="_top" xlink:title=" ">
<polygon fill="none" stroke="black" points="147,-112.5 147,-131.5 221,-131.5 221,-112.5 147,-112.5"/>
<text text-anchor="middle" x="184" y="-119.5" font-family="Helvetica,sans-Serif" font-size="10.00">UIObject.hpp</text>
</a>
</g>
</g>
<!-- Node1&#45;&gt;Node2 -->
<g id="edge1" class="edge">
<title>Node1&#45;&gt;Node2</title>
<path fill="none" stroke="midnightblue" d="M216.05,-168.4C210.01,-159.84 202.26,-148.87 195.9,-139.86"/>
<polygon fill="midnightblue" stroke="midnightblue" points="198.74,-137.81 190.11,-131.66 193.02,-141.85 198.74,-137.81"/>
</g>
<!-- Node9 -->
<g id="node9" class="node">
<title>Node9</title>
<g id="a_node9"><a xlink:title=" ">
<polygon fill="none" stroke="#bfbfbf" points="239.5,-112.5 239.5,-131.5 298.5,-131.5 298.5,-112.5 239.5,-112.5"/>
<text text-anchor="middle" x="269" y="-119.5" font-family="Helvetica,sans-Serif" font-size="10.00">functional</text>
</a>
</g>
</g>
<!-- Node1&#45;&gt;Node9 -->
<g id="edge8" class="edge">
<title>Node1&#45;&gt;Node9</title>
<path fill="none" stroke="midnightblue" d="M236.19,-168.4C242.37,-159.84 250.3,-148.87 256.82,-139.86"/>
<polygon fill="midnightblue" stroke="midnightblue" points="259.72,-141.81 262.74,-131.66 254.05,-137.71 259.72,-141.81"/>
</g>
<!-- Node3 -->
<g id="node3" class="node">
<title>Node3</title>
<g id="a_node3"><a xlink:href="GameObject_8hpp.html" target="_top" xlink:title=" ">
<polygon fill="none" stroke="black" points="139.5,-56.5 139.5,-75.5 228.5,-75.5 228.5,-56.5 139.5,-56.5"/>
<text text-anchor="middle" x="184" y="-63.5" font-family="Helvetica,sans-Serif" font-size="10.00">GameObject.hpp</text>
</a>
</g>
</g>
<!-- Node2&#45;&gt;Node3 -->
<g id="edge2" class="edge">
<title>Node2&#45;&gt;Node3</title>
<path fill="none" stroke="midnightblue" d="M184,-112.08C184,-105.01 184,-94.86 184,-85.99"/>
<polygon fill="midnightblue" stroke="midnightblue" points="187.5,-85.75 184,-75.75 180.5,-85.75 187.5,-85.75"/>
</g>
<!-- Node4 -->
<g id="node4" class="node">
<title>Node4</title>
<g id="a_node4"><a xlink:href="Component_8hpp.html" target="_top" xlink:title=" ">
<polygon fill="none" stroke="black" points="0,-0.5 0,-19.5 84,-19.5 84,-0.5 0,-0.5"/>
<text text-anchor="middle" x="42" y="-7.5" font-family="Helvetica,sans-Serif" font-size="10.00">Component.hpp</text>
</a>
</g>
</g>
<!-- Node3&#45;&gt;Node4 -->
<g id="edge3" class="edge">
<title>Node3&#45;&gt;Node4</title>
<path fill="none" stroke="midnightblue" d="M161.5,-56.44C137.92,-47.48 100.68,-33.31 74.04,-23.18"/>
<polygon fill="midnightblue" stroke="midnightblue" points="74.99,-19.8 64.4,-19.52 72.5,-26.34 74.99,-19.8"/>
</g>
<!-- Node5 -->
<g id="node5" class="node">
<title>Node5</title>
<g id="a_node5"><a xlink:title=" ">
<polygon fill="none" stroke="#bfbfbf" points="102.5,-0.5 102.5,-19.5 143.5,-19.5 143.5,-0.5 102.5,-0.5"/>
<text text-anchor="middle" x="123" y="-7.5" font-family="Helvetica,sans-Serif" font-size="10.00">string</text>
</a>
</g>
</g>
<!-- Node3&#45;&gt;Node5 -->
<g id="edge4" class="edge">
<title>Node3&#45;&gt;Node5</title>
<path fill="none" stroke="midnightblue" d="M174.2,-56.32C165.18,-48.34 151.59,-36.31 140.68,-26.65"/>
<polygon fill="midnightblue" stroke="midnightblue" points="142.79,-23.84 132.98,-19.83 138.15,-29.08 142.79,-23.84"/>
</g>
<!-- Node6 -->
<g id="node6" class="node">
<title>Node6</title>
<g id="a_node6"><a xlink:title=" ">
<polygon fill="none" stroke="#bfbfbf" points="162,-0.5 162,-19.5 206,-19.5 206,-0.5 162,-0.5"/>
<text text-anchor="middle" x="184" y="-7.5" font-family="Helvetica,sans-Serif" font-size="10.00">vector</text>
</a>
</g>
</g>
<!-- Node3&#45;&gt;Node6 -->
<g id="edge5" class="edge">
<title>Node3&#45;&gt;Node6</title>
<path fill="none" stroke="midnightblue" d="M184,-56.08C184,-49.01 184,-38.86 184,-29.99"/>
<polygon fill="midnightblue" stroke="midnightblue" points="187.5,-29.75 184,-19.75 180.5,-29.75 187.5,-29.75"/>
</g>
<!-- Node7 -->
<g id="node7" class="node">
<title>Node7</title>
<g id="a_node7"><a xlink:title=" ">
<polygon fill="none" stroke="#bfbfbf" points="224.5,-0.5 224.5,-19.5 275.5,-19.5 275.5,-0.5 224.5,-0.5"/>
<text text-anchor="middle" x="250" y="-7.5" font-family="Helvetica,sans-Serif" font-size="10.00">memory</text>
</a>
</g>
</g>
<!-- Node3&#45;&gt;Node7 -->
<g id="edge6" class="edge">
<title>Node3&#45;&gt;Node7</title>
<path fill="none" stroke="midnightblue" d="M194.6,-56.32C204.46,-48.26 219.35,-36.08 231.22,-26.37"/>
<polygon fill="midnightblue" stroke="midnightblue" points="233.68,-28.88 239.2,-19.83 229.25,-23.46 233.68,-28.88"/>
</g>
<!-- Node8 -->
<g id="node8" class="node">
<title>Node8</title>
<g id="a_node8"><a xlink:title=" ">
<polygon fill="none" stroke="#bfbfbf" points="293.5,-0.5 293.5,-19.5 328.5,-19.5 328.5,-0.5 293.5,-0.5"/>
<text text-anchor="middle" x="311" y="-7.5" font-family="Helvetica,sans-Serif" font-size="10.00">map</text>
</a>
</g>
</g>
<!-- Node3&#45;&gt;Node8 -->
<g id="edge7" class="edge">
<title>Node3&#45;&gt;Node8</title>
<path fill="none" stroke="midnightblue" d="M204.12,-56.44C225.76,-47.24 260.27,-32.57 284.2,-22.4"/>
<polygon fill="midnightblue" stroke="midnightblue" points="285.59,-25.61 293.42,-18.47 282.85,-19.17 285.59,-25.61"/>
</g>
</g>
</svg>
