<?xml version="1.0" encoding="UTF-8" standalone="no"?>
<!DOCTYPE svg PUBLIC "-//W3C//DTD SVG 1.1//EN"
 "http://www.w3.org/Graphics/SVG/1.1/DTD/svg11.dtd">
<!-- Generated by graphviz version 2.44.0 ()
 -->
<!-- Title: includes/spic&#45;prj&#45;api/Button.hpp Pages: 1 -->
<svg width="2377pt" height="464pt"
 viewBox="0.00 0.00 2377.00 464.00" xmlns="http://www.w3.org/2000/svg" xmlns:xlink="http://www.w3.org/1999/xlink">
<g id="graph0" class="graph" transform="scale(1 1) rotate(0) translate(4 460)">
<title>includes/spic&#45;prj&#45;api/Button.hpp</title>
<!-- Node1 -->
<g id="node1" class="node">
<title>Node1</title>
<g id="a_node1"><a xlink:title=" ">
<polygon fill="#bfbfbf" stroke="black" points="908.5,-425.5 908.5,-455.5 1011.5,-455.5 1011.5,-425.5 908.5,-425.5"/>
<text text-anchor="start" x="916.5" y="-443.5" font-family="Helvetica,sans-Serif" font-size="10.00">includes/spic&#45;prj&#45;api</text>
<text text-anchor="middle" x="960" y="-432.5" font-family="Helvetica,sans-Serif" font-size="10.00">/Button.hpp</text>
</a>
</g>
</g>
<!-- Node2 -->
<g id="node2" class="node">
<title>Node2</title>
<g id="a_node2"><a xlink:href="UIObject_8hpp.html" target="_top" xlink:title=" ">
<polygon fill="none" stroke="black" points="891,-369.5 891,-388.5 965,-388.5 965,-369.5 891,-369.5"/>
<text text-anchor="middle" x="928" y="-376.5" font-family="Helvetica,sans-Serif" font-size="10.00">UIObject.hpp</text>
</a>
</g>
</g>
<!-- Node1&#45;&gt;Node2 -->
<g id="edge1" class="edge">
<title>Node1&#45;&gt;Node2</title>
<path fill="none" stroke="midnightblue" d="M952.42,-425.4C947.96,-417.11 942.28,-406.55 937.52,-397.71"/>
<polygon fill="midnightblue" stroke="midnightblue" points="940.48,-395.81 932.66,-388.66 934.31,-399.12 940.48,-395.81"/>
</g>
<!-- Node42 -->
<g id="node42" class="node">
<title>Node42</title>
<g id="a_node42"><a xlink:title=" ">
<polygon fill="none" stroke="#bfbfbf" points="729.5,-73 729.5,-92 788.5,-92 788.5,-73 729.5,-73"/>
<text text-anchor="middle" x="759" y="-80" font-family="Helvetica,sans-Serif" font-size="10.00">functional</text>
</a>
</g>
</g>
<!-- Node1&#45;&gt;Node42 -->
<g id="edge75" class="edge">
<title>Node1&#45;&gt;Node42</title>
<path fill="none" stroke="midnightblue" d="M966.99,-425.45C973.19,-411.03 980.37,-388.05 974,-369 963.38,-337.23 817.69,-155.91 772.36,-99.95"/>
<polygon fill="midnightblue" stroke="midnightblue" points="775,-97.65 765.98,-92.08 769.57,-102.05 775,-97.65"/>
</g>
<!-- Node3 -->
<g id="node3" class="node">
<title>Node3</title>
<g id="a_node3"><a xlink:href="GameObject_8hpp.html" target="_top" xlink:title=" ">
<polygon fill="none" stroke="black" points="728.5,-313.5 728.5,-332.5 817.5,-332.5 817.5,-313.5 728.5,-313.5"/>
<text text-anchor="middle" x="773" y="-320.5" font-family="Helvetica,sans-Serif" font-size="10.00">GameObject.hpp</text>
</a>
</g>
</g>
<!-- Node2&#45;&gt;Node3 -->
<g id="edge2" class="edge">
<title>Node2&#45;&gt;Node3</title>
<path fill="none" stroke="midnightblue" d="M903.44,-369.44C877.48,-360.4 836.33,-346.06 807.2,-335.92"/>
<polygon fill="midnightblue" stroke="midnightblue" points="808.04,-332.5 797.45,-332.52 805.74,-339.11 808.04,-332.5"/>
</g>
<!-- Node4 -->
<g id="node4" class="node">
<title>Node4</title>
<g id="a_node4"><a xlink:href="Component_8hpp.html" target="_top" xlink:title=" ">
<polygon fill="none" stroke="black" points="883,-201.5 883,-220.5 967,-220.5 967,-201.5 883,-201.5"/>
<text text-anchor="middle" x="925" y="-208.5" font-family="Helvetica,sans-Serif" font-size="10.00">Component.hpp</text>
</a>
</g>
</g>
<!-- Node3&#45;&gt;Node4 -->
<g id="edge3" class="edge">
<title>Node3&#45;&gt;Node4</title>
<path fill="none" stroke="midnightblue" d="M784.93,-313.37C810.9,-294.57 872.81,-249.77 904.92,-226.53"/>
<polygon fill="midnightblue" stroke="midnightblue" points="907.08,-229.29 913.13,-220.59 902.98,-223.62 907.08,-229.29"/>
</g>
<!-- Node5 -->
<g id="node5" class="node">
<title>Node5</title>
<g id="a_node5"><a xlink:title=" ">
<polygon fill="none" stroke="#bfbfbf" points="845.5,-73 845.5,-92 896.5,-92 896.5,-73 845.5,-73"/>
<text text-anchor="middle" x="871" y="-80" font-family="Helvetica,sans-Serif" font-size="10.00">memory</text>
</a>
</g>
</g>
<!-- Node3&#45;&gt;Node5 -->
<g id="edge69" class="edge">
<title>Node3&#45;&gt;Node5</title>
<path fill="none" stroke="midnightblue" d="M776.6,-313.23C790.92,-278.38 843.96,-149.31 863.61,-101.48"/>
<polygon fill="midnightblue" stroke="midnightblue" points="866.9,-102.68 867.47,-92.1 860.43,-100.02 866.9,-102.68"/>
</g>
<!-- Node6 -->
<g id="node6" class="node">
<title>Node6</title>
<g id="a_node6"><a xlink:title=" ">
<polygon fill="none" stroke="#bfbfbf" points="262.5,-0.5 262.5,-30.5 357.5,-30.5 357.5,-0.5 262.5,-0.5"/>
<text text-anchor="start" x="270.5" y="-18.5" font-family="Helvetica,sans-Serif" font-size="10.00">boost/serialization</text>
<text text-anchor="middle" x="310" y="-7.5" font-family="Helvetica,sans-Serif" font-size="10.00">/access.hpp</text>
</a>
</g>
</g>
<!-- Node3&#45;&gt;Node6 -->
<g id="edge71" class="edge">
<title>Node3&#45;&gt;Node6</title>
<path fill="none" stroke="midnightblue" d="M728.38,-320.3C608.08,-315.45 278.96,-300.38 173,-277 92.79,-259.31 0,-294.14 0,-212 0,-212 0,-212 0,-148.5 0,-40.08 162.52,-19.46 252.21,-16.34"/>
<polygon fill="midnightblue" stroke="midnightblue" points="252.35,-19.84 262.24,-16.05 252.15,-12.84 252.35,-19.84"/>
</g>
<!-- Node7 -->
<g id="node7" class="node">
<title>Node7</title>
<g id="a_node7"><a xlink:title=" ">
<polygon fill="none" stroke="#bfbfbf" points="1665.5,-134.5 1665.5,-164.5 1760.5,-164.5 1760.5,-134.5 1665.5,-134.5"/>
<text text-anchor="start" x="1673.5" y="-152.5" font-family="Helvetica,sans-Serif" font-size="10.00">boost/serialization</text>
<text text-anchor="middle" x="1713" y="-141.5" font-family="Helvetica,sans-Serif" font-size="10.00">/map.hpp</text>
</a>
</g>
</g>
<!-- Node3&#45;&gt;Node7 -->
<g id="edge72" class="edge">
<title>Node3&#45;&gt;Node7</title>
<path fill="none" stroke="midnightblue" d="M790.19,-313.43C845.08,-286.08 1012.84,-202.62 1019,-201 1290.48,-129.73 1374.43,-206.95 1655.4,-165.03"/>
<polygon fill="midnightblue" stroke="midnightblue" points="1656.12,-168.46 1665.47,-163.49 1655.06,-161.54 1656.12,-168.46"/>
</g>
<!-- Node8 -->
<g id="node8" class="node">
<title>Node8</title>
<g id="a_node8"><a xlink:title=" ">
<polygon fill="none" stroke="#bfbfbf" points="1778.5,-134.5 1778.5,-164.5 1873.5,-164.5 1873.5,-134.5 1778.5,-134.5"/>
<text text-anchor="start" x="1786.5" y="-152.5" font-family="Helvetica,sans-Serif" font-size="10.00">boost/serialization</text>
<text text-anchor="middle" x="1826" y="-141.5" font-family="Helvetica,sans-Serif" font-size="10.00">/vector.hpp</text>
</a>
</g>
</g>
<!-- Node3&#45;&gt;Node8 -->
<g id="edge73" class="edge">
<title>Node3&#45;&gt;Node8</title>
<path fill="none" stroke="midnightblue" d="M800.09,-313.37C826.02,-304.87 866.11,-291.16 900,-277 908.94,-273.26 1047.61,-203.4 1057,-201 1361.08,-123.15 1454.36,-211.08 1768.18,-165.05"/>
<polygon fill="midnightblue" stroke="midnightblue" points="1769.11,-168.45 1778.48,-163.5 1768.07,-161.53 1769.11,-168.45"/>
</g>
<!-- Node9 -->
<g id="node9" class="node">
<title>Node9</title>
<g id="a_node9"><a xlink:title=" ">
<polygon fill="none" stroke="#bfbfbf" points="1891.5,-134.5 1891.5,-164.5 1986.5,-164.5 1986.5,-134.5 1891.5,-134.5"/>
<text text-anchor="start" x="1899.5" y="-152.5" font-family="Helvetica,sans-Serif" font-size="10.00">boost/serialization</text>
<text text-anchor="middle" x="1939" y="-141.5" font-family="Helvetica,sans-Serif" font-size="10.00">/shared_ptr.hpp</text>
</a>
</g>
</g>
<!-- Node3&#45;&gt;Node9 -->
<g id="edge74" class="edge">
<title>Node3&#45;&gt;Node9</title>
<path fill="none" stroke="midnightblue" d="M817.72,-317.51C967.45,-302.09 1464.79,-247.73 1881.59,-165.16"/>
<polygon fill="midnightblue" stroke="midnightblue" points="1882.3,-168.59 1891.43,-163.21 1880.93,-161.73 1882.3,-168.59"/>
</g>
<!-- Node32 -->
<g id="node32" class="node">
<title>Node32</title>
<g id="a_node32"><a xlink:href="Transform_8hpp.html" target="_top" xlink:title=" ">
<polygon fill="none" stroke="black" points="123.5,-201.5 123.5,-220.5 202.5,-220.5 202.5,-201.5 123.5,-201.5"/>
<text text-anchor="middle" x="163" y="-208.5" font-family="Helvetica,sans-Serif" font-size="10.00">Transform.hpp</text>
</a>
</g>
</g>
<!-- Node3&#45;&gt;Node32 -->
<g id="edge35" class="edge">
<title>Node3&#45;&gt;Node32</title>
<path fill="none" stroke="midnightblue" d="M728.48,-317.4C664.25,-310.44 541.99,-296.02 439,-277 355.09,-261.51 258.28,-237.2 204.51,-223.11"/>
<polygon fill="midnightblue" stroke="midnightblue" points="205.22,-219.68 194.66,-220.52 203.44,-226.45 205.22,-219.68"/>
</g>
<!-- Node34 -->
<g id="node34" class="node">
<title>Node34</title>
<g id="a_node34"><a xlink:href="Sprite_8hpp.html" target="_top" xlink:title=" ">
<polygon fill="none" stroke="black" points="448,-257.5 448,-276.5 508,-276.5 508,-257.5 448,-257.5"/>
<text text-anchor="middle" x="478" y="-264.5" font-family="Helvetica,sans-Serif" font-size="10.00">Sprite.hpp</text>
</a>
</g>
</g>
<!-- Node3&#45;&gt;Node34 -->
<g id="edge37" class="edge">
<title>Node3&#45;&gt;Node34</title>
<path fill="none" stroke="midnightblue" d="M728.2,-313.8C671.11,-303.35 573.28,-285.44 518.39,-275.39"/>
<polygon fill="midnightblue" stroke="midnightblue" points="518.8,-271.91 508.34,-273.55 517.54,-278.8 518.8,-271.91"/>
</g>
<!-- Node36 -->
<g id="node36" class="node">
<title>Node36</title>
<g id="a_node36"><a xlink:title=" ">
<polygon fill="none" stroke="#bfbfbf" points="66.5,-73 66.5,-92 107.5,-92 107.5,-73 66.5,-73"/>
<text text-anchor="middle" x="87" y="-80" font-family="Helvetica,sans-Serif" font-size="10.00">string</text>
</a>
</g>
</g>
<!-- Node3&#45;&gt;Node36 -->
<g id="edge67" class="edge">
<title>Node3&#45;&gt;Node36</title>
<path fill="none" stroke="midnightblue" d="M728.33,-321.93C594.15,-320.72 198.68,-309.58 114,-221 83.13,-188.71 82.65,-132 84.85,-102.51"/>
<polygon fill="midnightblue" stroke="midnightblue" points="88.36,-102.61 85.8,-92.33 81.39,-101.96 88.36,-102.61"/>
</g>
<!-- Node43 -->
<g id="node43" class="node">
<title>Node43</title>
<g id="a_node43"><a xlink:title=" ">
<polygon fill="none" stroke="#bfbfbf" points="614,-73 614,-92 658,-92 658,-73 614,-73"/>
<text text-anchor="middle" x="636" y="-80" font-family="Helvetica,sans-Serif" font-size="10.00">vector</text>
</a>
</g>
</g>
<!-- Node3&#45;&gt;Node43 -->
<g id="edge68" class="edge">
<title>Node3&#45;&gt;Node43</title>
<path fill="none" stroke="midnightblue" d="M767.96,-313.23C747.86,-278.24 673.18,-148.22 645.98,-100.88"/>
<polygon fill="midnightblue" stroke="midnightblue" points="648.96,-99.03 640.94,-92.1 642.89,-102.51 648.96,-99.03"/>
</g>
<!-- Node44 -->
<g id="node44" class="node">
<title>Node44</title>
<g id="a_node44"><a xlink:title=" ">
<polygon fill="none" stroke="#bfbfbf" points="676.5,-73 676.5,-92 711.5,-92 711.5,-73 676.5,-73"/>
<text text-anchor="middle" x="694" y="-80" font-family="Helvetica,sans-Serif" font-size="10.00">map</text>
</a>
</g>
</g>
<!-- Node3&#45;&gt;Node44 -->
<g id="edge70" class="edge">
<title>Node3&#45;&gt;Node44</title>
<path fill="none" stroke="midnightblue" d="M770.18,-313.37C761.44,-286.69 734.03,-203.12 711,-134 707.43,-123.29 703.4,-111.31 700.16,-101.71"/>
<polygon fill="midnightblue" stroke="midnightblue" points="703.42,-100.43 696.9,-92.07 696.79,-102.67 703.42,-100.43"/>
</g>
<!-- Node4&#45;&gt;Node5 -->
<g id="edge4" class="edge">
<title>Node4&#45;&gt;Node5</title>
<path fill="none" stroke="midnightblue" d="M921.29,-201.31C912.54,-180.81 890.48,-129.15 878.7,-101.54"/>
<polygon fill="midnightblue" stroke="midnightblue" points="881.88,-100.08 874.74,-92.26 875.44,-102.83 881.88,-100.08"/>
</g>
<!-- Node4&#45;&gt;Node6 -->
<g id="edge5" class="edge">
<title>Node4&#45;&gt;Node6</title>
<path fill="none" stroke="midnightblue" d="M927,-201.31C932.19,-176.24 943.22,-103.2 905,-67 885.66,-48.68 513.72,-27.22 367.93,-19.47"/>
<polygon fill="midnightblue" stroke="midnightblue" points="368,-15.97 357.83,-18.94 367.63,-22.96 368,-15.97"/>
</g>
<!-- Node4&#45;&gt;Node7 -->
<g id="edge6" class="edge">
<title>Node4&#45;&gt;Node7</title>
<path fill="none" stroke="midnightblue" d="M967.13,-202.74C971.8,-202.08 976.5,-201.48 981,-201 1276.81,-169.44 1357.84,-210.01 1655.26,-165.06"/>
<polygon fill="midnightblue" stroke="midnightblue" points="1656.12,-168.47 1665.48,-163.5 1655.06,-161.55 1656.12,-168.47"/>
</g>
<!-- Node4&#45;&gt;Node8 -->
<g id="edge7" class="edge">
<title>Node4&#45;&gt;Node8</title>
<path fill="none" stroke="midnightblue" d="M967.08,-205.54C983.29,-203.94 1001.99,-202.22 1019,-201 1348.89,-177.31 1437.81,-214.37 1768.13,-165.07"/>
<polygon fill="midnightblue" stroke="midnightblue" points="1769.11,-168.47 1778.48,-163.51 1768.07,-161.54 1769.11,-168.47"/>
</g>
<!-- Node4&#45;&gt;Node9 -->
<g id="edge8" class="edge">
<title>Node4&#45;&gt;Node9</title>
<path fill="none" stroke="midnightblue" d="M967.19,-206.86C993.1,-205 1026.96,-202.68 1057,-201 1420.57,-180.69 1517.83,-218.66 1881.47,-165.02"/>
<polygon fill="midnightblue" stroke="midnightblue" points="1882.11,-168.46 1891.48,-163.53 1881.07,-161.54 1882.11,-168.46"/>
</g>
<!-- Node10 -->
<g id="node10" class="node">
<title>Node10</title>
<g id="a_node10"><a xlink:title=" ">
<polygon fill="none" stroke="#bfbfbf" points="769.5,-0.5 769.5,-30.5 864.5,-30.5 864.5,-0.5 769.5,-0.5"/>
<text text-anchor="start" x="777.5" y="-18.5" font-family="Helvetica,sans-Serif" font-size="10.00">boost/serialization</text>
<text text-anchor="middle" x="817" y="-7.5" font-family="Helvetica,sans-Serif" font-size="10.00">/export.hpp</text>
</a>
</g>
</g>
<!-- Node4&#45;&gt;Node10 -->
<g id="edge9" class="edge">
<title>Node4&#45;&gt;Node10</title>
<path fill="none" stroke="midnightblue" d="M940.78,-201.47C953.2,-193.77 969.61,-181.18 977,-165 995.11,-125.39 1002.75,-102.13 977,-67 964.55,-50.02 915.13,-36.11 874.47,-27.22"/>
<polygon fill="midnightblue" stroke="midnightblue" points="875.13,-23.78 864.62,-25.12 873.67,-30.63 875.13,-23.78"/>
</g>
<!-- Node11 -->
<g id="node11" class="node">
<title>Node11</title>
<g id="a_node11"><a xlink:title=" ">
<polygon fill="none" stroke="#bfbfbf" points="581,-0.5 581,-30.5 685,-30.5 685,-0.5 581,-0.5"/>
<text text-anchor="start" x="589" y="-18.5" font-family="Helvetica,sans-Serif" font-size="10.00">boost/archive/binary</text>
<text text-anchor="middle" x="633" y="-7.5" font-family="Helvetica,sans-Serif" font-size="10.00">_iarchive.hpp</text>
</a>
</g>
</g>
<!-- Node4&#45;&gt;Node11 -->
<g id="edge10" class="edge">
<title>Node4&#45;&gt;Node11</title>
<path fill="none" stroke="midnightblue" d="M929.65,-201.33C942.05,-176.91 972.73,-106.75 939,-67 931.15,-57.74 782.47,-36.46 695.3,-24.7"/>
<polygon fill="midnightblue" stroke="midnightblue" points="695.63,-21.21 685.25,-23.35 694.69,-28.15 695.63,-21.21"/>
</g>
<!-- Node12 -->
<g id="node12" class="node">
<title>Node12</title>
<g id="a_node12"><a xlink:title=" ">
<polygon fill="none" stroke="#bfbfbf" points="935,-0.5 935,-30.5 1039,-30.5 1039,-0.5 935,-0.5"/>
<text text-anchor="start" x="943" y="-18.5" font-family="Helvetica,sans-Serif" font-size="10.00">boost/archive/binary</text>
<text text-anchor="middle" x="987" y="-7.5" font-family="Helvetica,sans-Serif" font-size="10.00">_oarchive.hpp</text>
</a>
</g>
</g>
<!-- Node4&#45;&gt;Node12 -->
<g id="edge11" class="edge">
<title>Node4&#45;&gt;Node12</title>
<path fill="none" stroke="midnightblue" d="M962.1,-201.46C981.44,-194.92 1003.43,-183.72 1015,-165 1037.9,-127.95 1025.91,-109.17 1015,-67 1012.52,-57.41 1007.78,-47.7 1002.9,-39.39"/>
<polygon fill="midnightblue" stroke="midnightblue" points="1005.72,-37.3 997.44,-30.69 999.79,-41.02 1005.72,-37.3"/>
</g>
<!-- Node13 -->
<g id="node13" class="node">
<title>Node13</title>
<g id="a_node13"><a xlink:href="portable__binary__iarchive_8hpp.html" target="_top" xlink:title=" ">
<polygon fill="none" stroke="black" points="1367.5,-134.5 1367.5,-164.5 1498.5,-164.5 1498.5,-134.5 1367.5,-134.5"/>
<text text-anchor="start" x="1375.5" y="-152.5" font-family="Helvetica,sans-Serif" font-size="10.00">Networking/boost/portable</text>
<text text-anchor="middle" x="1433" y="-141.5" font-family="Helvetica,sans-Serif" font-size="10.00">_binary_iarchive.hpp</text>
</a>
</g>
</g>
<!-- Node4&#45;&gt;Node13 -->
<g id="edge12" class="edge">
<title>Node4&#45;&gt;Node13</title>
<path fill="none" stroke="midnightblue" d="M967.16,-203C971.83,-202.29 976.51,-201.61 981,-201 1113.03,-183.03 1267.39,-166.81 1357.28,-157.84"/>
<polygon fill="midnightblue" stroke="midnightblue" points="1357.78,-161.3 1367.38,-156.83 1357.08,-154.34 1357.78,-161.3"/>
</g>
<!-- Node28 -->
<g id="node28" class="node">
<title>Node28</title>
<g id="a_node28"><a xlink:href="portable__binary__oarchive_8hpp.html" target="_top" xlink:title=" ">
<polygon fill="none" stroke="black" points="1516.5,-134.5 1516.5,-164.5 1647.5,-164.5 1647.5,-134.5 1516.5,-134.5"/>
<text text-anchor="start" x="1524.5" y="-152.5" font-family="Helvetica,sans-Serif" font-size="10.00">Networking/boost/portable</text>
<text text-anchor="middle" x="1582" y="-141.5" font-family="Helvetica,sans-Serif" font-size="10.00">_binary_oarchive.hpp</text>
</a>
</g>
</g>
<!-- Node4&#45;&gt;Node28 -->
<g id="edge27" class="edge">
<title>Node4&#45;&gt;Node28</title>
<path fill="none" stroke="midnightblue" d="M967.14,-202.81C971.81,-202.13 976.5,-201.51 981,-201 1210.95,-174.72 1273.48,-195.04 1506.17,-165.14"/>
<polygon fill="midnightblue" stroke="midnightblue" points="1506.84,-168.58 1516.3,-163.82 1505.93,-161.64 1506.84,-168.58"/>
</g>
<!-- Node14 -->
<g id="node14" class="node">
<title>Node14</title>
<g id="a_node14"><a xlink:title=" ">
<polygon fill="none" stroke="#bfbfbf" points="1067.5,-73 1067.5,-92 1116.5,-92 1116.5,-73 1067.5,-73"/>
<text text-anchor="middle" x="1092" y="-80" font-family="Helvetica,sans-Serif" font-size="10.00">istream</text>
</a>
</g>
</g>
<!-- Node13&#45;&gt;Node14 -->
<g id="edge13" class="edge">
<title>Node13&#45;&gt;Node14</title>
<path fill="none" stroke="midnightblue" d="M1367.33,-142.57C1304.24,-135.74 1206.69,-122.22 1125,-98 1122.86,-97.36 1120.67,-96.62 1118.49,-95.82"/>
<polygon fill="midnightblue" stroke="midnightblue" points="1119.74,-92.55 1109.16,-92.02 1117.1,-99.03 1119.74,-92.55"/>
</g>
<!-- Node15 -->
<g id="node15" class="node">
<title>Node15</title>
<g id="a_node15"><a xlink:title=" ">
<polygon fill="none" stroke="#bfbfbf" points="1808.5,-67.5 1808.5,-97.5 1903.5,-97.5 1903.5,-67.5 1808.5,-67.5"/>
<text text-anchor="start" x="1816.5" y="-85.5" font-family="Helvetica,sans-Serif" font-size="10.00">boost/serialization</text>
<text text-anchor="middle" x="1856" y="-74.5" font-family="Helvetica,sans-Serif" font-size="10.00">/string.hpp</text>
</a>
</g>
</g>
<!-- Node13&#45;&gt;Node15 -->
<g id="edge14" class="edge">
<title>Node13&#45;&gt;Node15</title>
<path fill="none" stroke="midnightblue" d="M1498.81,-135.51C1501.91,-134.98 1504.99,-134.48 1508,-134 1634,-114.08 1669.81,-122.03 1798.59,-98.12"/>
<polygon fill="midnightblue" stroke="midnightblue" points="1799.26,-101.56 1808.44,-96.27 1797.96,-94.68 1799.26,-101.56"/>
</g>
<!-- Node16 -->
<g id="node16" class="node">
<title>Node16</title>
<g id="a_node16"><a xlink:title=" ">
<polygon fill="none" stroke="#bfbfbf" points="1134,-67.5 1134,-97.5 1250,-97.5 1250,-67.5 1134,-67.5"/>
<text text-anchor="start" x="1142" y="-85.5" font-family="Helvetica,sans-Serif" font-size="10.00">boost/serialization</text>
<text text-anchor="middle" x="1192" y="-74.5" font-family="Helvetica,sans-Serif" font-size="10.00">/item_version_type.hpp</text>
</a>
</g>
</g>
<!-- Node13&#45;&gt;Node16 -->
<g id="edge15" class="edge">
<title>Node13&#45;&gt;Node16</title>
<path fill="none" stroke="midnightblue" d="M1381,-134.48C1343.75,-124.43 1293.43,-110.86 1254.07,-100.24"/>
<polygon fill="midnightblue" stroke="midnightblue" points="1254.89,-96.84 1244.32,-97.61 1253.06,-103.59 1254.89,-96.84"/>
</g>
<!-- Node17 -->
<g id="node17" class="node">
<title>Node17</title>
<g id="a_node17"><a xlink:title=" ">
<polygon fill="none" stroke="#bfbfbf" points="1922,-67.5 1922,-97.5 2032,-97.5 2032,-67.5 1922,-67.5"/>
<text text-anchor="start" x="1930" y="-85.5" font-family="Helvetica,sans-Serif" font-size="10.00">boost/archive/archive</text>
<text text-anchor="middle" x="1977" y="-74.5" font-family="Helvetica,sans-Serif" font-size="10.00">_exception.hpp</text>
</a>
</g>
</g>
<!-- Node13&#45;&gt;Node17 -->
<g id="edge16" class="edge">
<title>Node13&#45;&gt;Node17</title>
<path fill="none" stroke="midnightblue" d="M1498.79,-135.39C1501.9,-134.89 1504.98,-134.43 1508,-134 1683.71,-109.27 1732.72,-125.42 1911.91,-98.03"/>
<polygon fill="midnightblue" stroke="midnightblue" points="1912.59,-101.46 1921.93,-96.47 1911.51,-94.55 1912.59,-101.46"/>
</g>
<!-- Node18 -->
<g id="node18" class="node">
<title>Node18</title>
<g id="a_node18"><a xlink:title=" ">
<polygon fill="none" stroke="#bfbfbf" points="1268,-67.5 1268,-97.5 1378,-97.5 1378,-67.5 1268,-67.5"/>
<text text-anchor="start" x="1276" y="-85.5" font-family="Helvetica,sans-Serif" font-size="10.00">boost/archive/basic</text>
<text text-anchor="middle" x="1323" y="-74.5" font-family="Helvetica,sans-Serif" font-size="10.00">_binary_iprimitive.hpp</text>
</a>
</g>
</g>
<!-- Node13&#45;&gt;Node18 -->
<g id="edge17" class="edge">
<title>Node13&#45;&gt;Node18</title>
<path fill="none" stroke="midnightblue" d="M1409.13,-134.4C1393.42,-125.11 1372.65,-112.84 1355.45,-102.67"/>
<polygon fill="midnightblue" stroke="midnightblue" points="1357.21,-99.65 1346.82,-97.58 1353.65,-105.68 1357.21,-99.65"/>
</g>
<!-- Node19 -->
<g id="node19" class="node">
<title>Node19</title>
<g id="a_node19"><a xlink:title=" ">
<polygon fill="none" stroke="#bfbfbf" points="1396,-67.5 1396,-97.5 1510,-97.5 1510,-67.5 1396,-67.5"/>
<text text-anchor="start" x="1404" y="-85.5" font-family="Helvetica,sans-Serif" font-size="10.00">boost/archive/detail</text>
<text text-anchor="middle" x="1453" y="-74.5" font-family="Helvetica,sans-Serif" font-size="10.00">/common_iarchive.hpp</text>
</a>
</g>
</g>
<!-- Node13&#45;&gt;Node19 -->
<g id="edge18" class="edge">
<title>Node13&#45;&gt;Node19</title>
<path fill="none" stroke="midnightblue" d="M1437.34,-134.4C1439.78,-126.47 1442.88,-116.38 1445.69,-107.27"/>
<polygon fill="midnightblue" stroke="midnightblue" points="1449.07,-108.16 1448.67,-97.58 1442.38,-106.1 1449.07,-108.16"/>
</g>
<!-- Node20 -->
<g id="node20" class="node">
<title>Node20</title>
<g id="a_node20"><a xlink:title=" ">
<polygon fill="none" stroke="#bfbfbf" points="1528.5,-67.5 1528.5,-97.5 1635.5,-97.5 1635.5,-67.5 1528.5,-67.5"/>
<text text-anchor="start" x="1536.5" y="-85.5" font-family="Helvetica,sans-Serif" font-size="10.00">boost/archive/detail</text>
<text text-anchor="middle" x="1582" y="-74.5" font-family="Helvetica,sans-Serif" font-size="10.00">/register_archive.hpp</text>
</a>
</g>
</g>
<!-- Node13&#45;&gt;Node20 -->
<g id="edge19" class="edge">
<title>Node13&#45;&gt;Node20</title>
<path fill="none" stroke="midnightblue" d="M1465.33,-134.4C1487.3,-124.81 1516.56,-112.05 1540.28,-101.7"/>
<polygon fill="midnightblue" stroke="midnightblue" points="1541.97,-104.78 1549.73,-97.58 1539.17,-98.37 1541.97,-104.78"/>
</g>
<!-- Node21 -->
<g id="node21" class="node">
<title>Node21</title>
<g id="a_node21"><a xlink:href="portable__binary__archive_8hpp.html" target="_top" xlink:title=" ">
<polygon fill="none" stroke="black" points="1653.5,-73 1653.5,-92 1790.5,-92 1790.5,-73 1653.5,-73"/>
<text text-anchor="middle" x="1722" y="-80" font-family="Helvetica,sans-Serif" font-size="10.00">portable_binary_archive.hpp</text>
</a>
</g>
</g>
<!-- Node13&#45;&gt;Node21 -->
<g id="edge20" class="edge">
<title>Node13&#45;&gt;Node21</title>
<path fill="none" stroke="midnightblue" d="M1495.35,-134.48C1548.95,-122.42 1625.14,-105.29 1674.07,-94.28"/>
<polygon fill="midnightblue" stroke="midnightblue" points="1675.09,-97.64 1684.08,-92.03 1673.56,-90.81 1675.09,-97.64"/>
</g>
<!-- Node22 -->
<g id="node22" class="node">
<title>Node22</title>
<g id="a_node22"><a xlink:title=" ">
<polygon fill="none" stroke="#bfbfbf" points="1624.5,-6 1624.5,-25 1711.5,-25 1711.5,-6 1624.5,-6"/>
<text text-anchor="middle" x="1668" y="-13" font-family="Helvetica,sans-Serif" font-size="10.00">boost/config.hpp</text>
</a>
</g>
</g>
<!-- Node21&#45;&gt;Node22 -->
<g id="edge21" class="edge">
<title>Node21&#45;&gt;Node22</title>
<path fill="none" stroke="midnightblue" d="M1714.72,-72.73C1706.3,-62.6 1692.25,-45.69 1681.75,-33.06"/>
<polygon fill="midnightblue" stroke="midnightblue" points="1684.25,-30.58 1675.17,-25.13 1678.87,-35.06 1684.25,-30.58"/>
</g>
<!-- Node23 -->
<g id="node23" class="node">
<title>Node23</title>
<g id="a_node23"><a xlink:title=" ">
<polygon fill="none" stroke="#bfbfbf" points="1729.5,-6 1729.5,-25 1820.5,-25 1820.5,-6 1729.5,-6"/>
<text text-anchor="middle" x="1775" y="-13" font-family="Helvetica,sans-Serif" font-size="10.00">boost/cstdint.hpp</text>
</a>
</g>
</g>
<!-- Node21&#45;&gt;Node23 -->
<g id="edge22" class="edge">
<title>Node21&#45;&gt;Node23</title>
<path fill="none" stroke="midnightblue" d="M1729.15,-72.73C1737.41,-62.6 1751.2,-45.69 1761.5,-33.06"/>
<polygon fill="midnightblue" stroke="midnightblue" points="1764.36,-35.09 1767.97,-25.13 1758.93,-30.67 1764.36,-35.09"/>
</g>
<!-- Node24 -->
<g id="node24" class="node">
<title>Node24</title>
<g id="a_node24"><a xlink:title=" ">
<polygon fill="none" stroke="#bfbfbf" points="1839,-6 1839,-25 1957,-25 1957,-6 1839,-6"/>
<text text-anchor="middle" x="1898" y="-13" font-family="Helvetica,sans-Serif" font-size="10.00">boost/static_assert.hpp</text>
</a>
</g>
</g>
<!-- Node21&#45;&gt;Node24 -->
<g id="edge23" class="edge">
<title>Node21&#45;&gt;Node24</title>
<path fill="none" stroke="midnightblue" d="M1745.37,-72.87C1776.09,-61.52 1830.24,-41.52 1865.1,-28.65"/>
<polygon fill="midnightblue" stroke="midnightblue" points="1866.64,-31.81 1874.81,-25.06 1864.22,-25.24 1866.64,-31.81"/>
</g>
<!-- Node25 -->
<g id="node25" class="node">
<title>Node25</title>
<g id="a_node25"><a xlink:title=" ">
<polygon fill="none" stroke="#bfbfbf" points="1975.5,-6 1975.5,-25 2020.5,-25 2020.5,-6 1975.5,-6"/>
<text text-anchor="middle" x="1998" y="-13" font-family="Helvetica,sans-Serif" font-size="10.00">climits</text>
</a>
</g>
</g>
<!-- Node21&#45;&gt;Node25 -->
<g id="edge24" class="edge">
<title>Node21&#45;&gt;Node25</title>
<path fill="none" stroke="midnightblue" d="M1765.88,-72.97C1830.9,-60.24 1947.21,-37.12 1966,-31 1967.87,-30.39 1969.78,-29.71 1971.68,-28.97"/>
<polygon fill="midnightblue" stroke="midnightblue" points="1973.15,-32.15 1981.01,-25.04 1970.43,-25.7 1973.15,-32.15"/>
</g>
<!-- Node26 -->
<g id="node26" class="node">
<title>Node26</title>
<g id="a_node26"><a xlink:title=" ">
<polygon fill="none" stroke="#bfbfbf" points="1392.5,-0.5 1392.5,-30.5 1493.5,-30.5 1493.5,-0.5 1392.5,-0.5"/>
<text text-anchor="start" x="1400.5" y="-18.5" font-family="Helvetica,sans-Serif" font-size="10.00">boost/archive/basic</text>
<text text-anchor="middle" x="1443" y="-7.5" font-family="Helvetica,sans-Serif" font-size="10.00">_archive.hpp</text>
</a>
</g>
</g>
<!-- Node21&#45;&gt;Node26 -->
<g id="edge25" class="edge">
<title>Node21&#45;&gt;Node26</title>
<path fill="none" stroke="midnightblue" d="M1684.38,-72.95C1642.69,-63.45 1573.21,-47.53 1503.56,-31.12"/>
<polygon fill="midnightblue" stroke="midnightblue" points="1504.27,-27.69 1493.73,-28.8 1502.66,-34.5 1504.27,-27.69"/>
</g>
<!-- Node27 -->
<g id="node27" class="node">
<title>Node27</title>
<g id="a_node27"><a xlink:title=" ">
<polygon fill="none" stroke="#bfbfbf" points="1511.5,-0.5 1511.5,-30.5 1606.5,-30.5 1606.5,-0.5 1511.5,-0.5"/>
<text text-anchor="start" x="1519.5" y="-18.5" font-family="Helvetica,sans-Serif" font-size="10.00">boost/predef/other</text>
<text text-anchor="middle" x="1559" y="-7.5" font-family="Helvetica,sans-Serif" font-size="10.00">/endian.h</text>
</a>
</g>
</g>
<!-- Node21&#45;&gt;Node27 -->
<g id="edge26" class="edge">
<title>Node21&#45;&gt;Node27</title>
<path fill="none" stroke="midnightblue" d="M1700.35,-72.87C1675.79,-63.07 1635.06,-46.83 1603.61,-34.29"/>
<polygon fill="midnightblue" stroke="midnightblue" points="1604.76,-30.98 1594.18,-30.53 1602.17,-37.48 1604.76,-30.98"/>
</g>
<!-- Node28&#45;&gt;Node15 -->
<g id="edge29" class="edge">
<title>Node28&#45;&gt;Node15</title>
<path fill="none" stroke="midnightblue" d="M1644.59,-134.45C1685.83,-125.09 1741.28,-112.31 1798.43,-98.36"/>
<polygon fill="midnightblue" stroke="midnightblue" points="1799.48,-101.7 1808.36,-95.92 1797.82,-94.9 1799.48,-101.7"/>
</g>
<!-- Node28&#45;&gt;Node17 -->
<g id="edge30" class="edge">
<title>Node28&#45;&gt;Node17</title>
<path fill="none" stroke="midnightblue" d="M1647.82,-135.58C1650.92,-135.03 1653.99,-134.5 1657,-134 1767.12,-115.62 1798.24,-118.52 1911.76,-98.13"/>
<polygon fill="midnightblue" stroke="midnightblue" points="1912.69,-101.52 1921.9,-96.29 1911.44,-94.63 1912.69,-101.52"/>
</g>
<!-- Node28&#45;&gt;Node20 -->
<g id="edge33" class="edge">
<title>Node28&#45;&gt;Node20</title>
<path fill="none" stroke="midnightblue" d="M1582,-134.4C1582,-126.64 1582,-116.81 1582,-107.86"/>
<polygon fill="midnightblue" stroke="midnightblue" points="1585.5,-107.58 1582,-97.58 1578.5,-107.58 1585.5,-107.58"/>
</g>
<!-- Node28&#45;&gt;Node21 -->
<g id="edge34" class="edge">
<title>Node28&#45;&gt;Node21</title>
<path fill="none" stroke="midnightblue" d="M1612.38,-134.4C1636.83,-123.04 1670.91,-107.22 1694.55,-96.24"/>
<polygon fill="midnightblue" stroke="midnightblue" points="1696.08,-99.39 1703.68,-92.01 1693.13,-93.04 1696.08,-99.39"/>
</g>
<!-- Node29 -->
<g id="node29" class="node">
<title>Node29</title>
<g id="a_node29"><a xlink:title=" ">
<polygon fill="none" stroke="#bfbfbf" points="2317,-73 2317,-92 2369,-92 2369,-73 2317,-73"/>
<text text-anchor="middle" x="2343" y="-80" font-family="Helvetica,sans-Serif" font-size="10.00">ostream</text>
</a>
</g>
</g>
<!-- Node28&#45;&gt;Node29 -->
<g id="edge28" class="edge">
<title>Node28&#45;&gt;Node29</title>
<path fill="none" stroke="midnightblue" d="M1647.77,-135.26C1650.88,-134.8 1653.97,-134.37 1657,-134 1944.58,-98.42 2025.46,-162.37 2308,-98 2310.67,-97.39 2313.4,-96.6 2316.1,-95.69"/>
<polygon fill="midnightblue" stroke="midnightblue" points="2317.48,-98.91 2325.58,-92.07 2314.99,-92.37 2317.48,-98.91"/>
</g>
<!-- Node30 -->
<g id="node30" class="node">
<title>Node30</title>
<g id="a_node30"><a xlink:title=" ">
<polygon fill="none" stroke="#bfbfbf" points="2050.5,-67.5 2050.5,-97.5 2163.5,-97.5 2163.5,-67.5 2050.5,-67.5"/>
<text text-anchor="start" x="2058.5" y="-85.5" font-family="Helvetica,sans-Serif" font-size="10.00">boost/archive/basic</text>
<text text-anchor="middle" x="2107" y="-74.5" font-family="Helvetica,sans-Serif" font-size="10.00">_binary_oprimitive.hpp</text>
</a>
</g>
</g>
<!-- Node28&#45;&gt;Node30 -->
<g id="edge31" class="edge">
<title>Node28&#45;&gt;Node30</title>
<path fill="none" stroke="midnightblue" d="M1647.79,-135.4C1650.9,-134.9 1653.98,-134.43 1657,-134 1823.45,-110.16 1869.88,-123.89 2040.14,-98"/>
<polygon fill="midnightblue" stroke="midnightblue" points="2040.85,-101.43 2050.2,-96.44 2039.78,-94.51 2040.85,-101.43"/>
</g>
<!-- Node31 -->
<g id="node31" class="node">
<title>Node31</title>
<g id="a_node31"><a xlink:title=" ">
<polygon fill="none" stroke="#bfbfbf" points="2181.5,-67.5 2181.5,-97.5 2298.5,-97.5 2298.5,-67.5 2181.5,-67.5"/>
<text text-anchor="start" x="2189.5" y="-85.5" font-family="Helvetica,sans-Serif" font-size="10.00">boost/archive/detail</text>
<text text-anchor="middle" x="2240" y="-74.5" font-family="Helvetica,sans-Serif" font-size="10.00">/common_oarchive.hpp</text>
</a>
</g>
</g>
<!-- Node28&#45;&gt;Node31 -->
<g id="edge32" class="edge">
<title>Node28&#45;&gt;Node31</title>
<path fill="none" stroke="midnightblue" d="M1647.78,-135.32C1650.89,-134.84 1653.98,-134.4 1657,-134 1881.71,-104.55 1943.66,-129.66 2171.35,-98.11"/>
<polygon fill="midnightblue" stroke="midnightblue" points="2171.85,-101.57 2181.26,-96.71 2170.87,-94.64 2171.85,-101.57"/>
</g>
<!-- Node33 -->
<g id="node33" class="node">
<title>Node33</title>
<g id="a_node33"><a xlink:href="Point_8hpp.html" target="_top" xlink:title=" ">
<polygon fill="none" stroke="black" points="291.5,-140 291.5,-159 348.5,-159 348.5,-140 291.5,-140"/>
<text text-anchor="middle" x="320" y="-147" font-family="Helvetica,sans-Serif" font-size="10.00">Point.hpp</text>
</a>
</g>
</g>
<!-- Node32&#45;&gt;Node33 -->
<g id="edge36" class="edge">
<title>Node32&#45;&gt;Node33</title>
<path fill="none" stroke="midnightblue" d="M185.82,-201.39C209.78,-192.35 248.55,-177.71 282,-165 283.88,-164.29 285.81,-163.55 287.77,-162.81"/>
<polygon fill="midnightblue" stroke="midnightblue" points="289.4,-165.93 297.5,-159.1 286.91,-159.39 289.4,-165.93"/>
</g>
<!-- Node34&#45;&gt;Node4 -->
<g id="edge38" class="edge">
<title>Node34&#45;&gt;Node4</title>
<path fill="none" stroke="midnightblue" d="M508.02,-262.37C582.83,-253.34 778.29,-229.72 872.6,-218.33"/>
<polygon fill="midnightblue" stroke="midnightblue" points="873.26,-221.78 882.76,-217.1 872.42,-214.83 873.26,-221.78"/>
</g>
<!-- Node34&#45;&gt;Node6 -->
<g id="edge65" class="edge">
<title>Node34&#45;&gt;Node6</title>
<path fill="none" stroke="midnightblue" d="M447.83,-265.94C370.4,-265.23 167,-259.64 114,-221 65.31,-185.51 69.97,-156.84 57,-98 54.03,-84.55 48.26,-77.65 57,-67 81.21,-37.48 185.4,-24.88 252.29,-19.76"/>
<polygon fill="midnightblue" stroke="midnightblue" points="252.56,-23.25 262.28,-19.03 252.05,-16.26 252.56,-23.25"/>
</g>
<!-- Node34&#45;&gt;Node10 -->
<g id="edge66" class="edge">
<title>Node34&#45;&gt;Node10</title>
<path fill="none" stroke="midnightblue" d="M508.44,-258.95C572.35,-242.51 720.88,-195.4 797,-98 809.78,-81.65 814.53,-58.26 816.23,-40.73"/>
<polygon fill="midnightblue" stroke="midnightblue" points="819.72,-40.91 816.94,-30.69 812.74,-40.42 819.72,-40.91"/>
</g>
<!-- Node34&#45;&gt;Node32 -->
<g id="edge56" class="edge">
<title>Node34&#45;&gt;Node32</title>
<path fill="none" stroke="midnightblue" d="M447.8,-260.82C393.49,-251.51 278.9,-231.87 212.82,-220.54"/>
<polygon fill="midnightblue" stroke="midnightblue" points="213.09,-217.04 202.64,-218.8 211.91,-223.94 213.09,-217.04"/>
</g>
<!-- Node35 -->
<g id="node35" class="node">
<title>Node35</title>
<g id="a_node35"><a xlink:href="Color_8hpp.html" target="_top" xlink:title=" ">
<polygon fill="none" stroke="black" points="538.5,-73 538.5,-92 595.5,-92 595.5,-73 538.5,-73"/>
<text text-anchor="middle" x="567" y="-80" font-family="Helvetica,sans-Serif" font-size="10.00">Color.hpp</text>
</a>
</g>
</g>
<!-- Node34&#45;&gt;Node35 -->
<g id="edge39" class="edge">
<title>Node34&#45;&gt;Node35</title>
<path fill="none" stroke="midnightblue" d="M491.42,-257.42C513.98,-242.08 558.74,-207.57 576,-165 584.25,-144.65 579.29,-119.25 574.05,-102.26"/>
<polygon fill="midnightblue" stroke="midnightblue" points="577.24,-100.78 570.7,-92.45 570.62,-103.04 577.24,-100.78"/>
</g>
<!-- Node34&#45;&gt;Node36 -->
<g id="edge44" class="edge">
<title>Node34&#45;&gt;Node36</title>
<path fill="none" stroke="midnightblue" d="M447.68,-261.9C394.03,-254.33 284.74,-237.43 250,-221 186.04,-190.74 126.72,-129.02 100.77,-99.68"/>
<polygon fill="midnightblue" stroke="midnightblue" points="103.29,-97.25 94.09,-92 98.01,-101.84 103.29,-97.25"/>
</g>
<!-- Node37 -->
<g id="node37" class="node">
<title>Node37</title>
<g id="a_node37"><a xlink:href="GraphicsFacade_8hpp.html" target="_top" xlink:title=" ">
<polygon fill="none" stroke="black" points="405.5,-140 405.5,-159 546.5,-159 546.5,-140 405.5,-140"/>
<text text-anchor="middle" x="476" y="-147" font-family="Helvetica,sans-Serif" font-size="10.00">Facade/GraphicsFacade.hpp</text>
</a>
</g>
</g>
<!-- Node34&#45;&gt;Node37 -->
<g id="edge45" class="edge">
<title>Node34&#45;&gt;Node37</title>
<path fill="none" stroke="midnightblue" d="M480.48,-257.47C482.96,-248.48 486.59,-233.89 488,-221 489.95,-203.28 485.93,-183.25 482.03,-169.09"/>
<polygon fill="midnightblue" stroke="midnightblue" points="485.27,-167.71 479.05,-159.14 478.57,-169.72 485.27,-167.71"/>
</g>
<!-- Node45 -->
<g id="node45" class="node">
<title>Node45</title>
<g id="a_node45"><a xlink:href="TextureManager_8hpp.html" target="_top" xlink:title=" ">
<polygon fill="none" stroke="black" points="259,-201.5 259,-220.5 399,-220.5 399,-201.5 259,-201.5"/>
<text text-anchor="middle" x="329" y="-208.5" font-family="Helvetica,sans-Serif" font-size="10.00">Texture/TextureManager.hpp</text>
</a>
</g>
</g>
<!-- Node34&#45;&gt;Node45 -->
<g id="edge57" class="edge">
<title>Node34&#45;&gt;Node45</title>
<path fill="none" stroke="midnightblue" d="M454.39,-257.44C429.54,-248.44 390.23,-234.19 362.25,-224.05"/>
<polygon fill="midnightblue" stroke="midnightblue" points="363.09,-220.63 352.5,-220.52 360.71,-227.21 363.09,-220.63"/>
</g>
<!-- Node47 -->
<g id="node47" class="node">
<title>Node47</title>
<g id="a_node47"><a xlink:href="Debug_8hpp.html" target="_top" xlink:title=" ">
<polygon fill="none" stroke="black" points="417,-201.5 417,-220.5 479,-220.5 479,-201.5 417,-201.5"/>
<text text-anchor="middle" x="448" y="-208.5" font-family="Helvetica,sans-Serif" font-size="10.00">Debug.hpp</text>
</a>
</g>
</g>
<!-- Node34&#45;&gt;Node47 -->
<g id="edge61" class="edge">
<title>Node34&#45;&gt;Node47</title>
<path fill="none" stroke="midnightblue" d="M473.05,-257.08C468.9,-249.61 462.85,-238.72 457.73,-229.52"/>
<polygon fill="midnightblue" stroke="midnightblue" points="460.78,-227.79 452.86,-220.75 454.66,-231.19 460.78,-227.79"/>
</g>
<!-- Node35&#45;&gt;Node6 -->
<g id="edge40" class="edge">
<title>Node35&#45;&gt;Node6</title>
<path fill="none" stroke="midnightblue" d="M546.27,-73C540.72,-70.88 534.67,-68.73 529,-67 475.15,-50.6 412.45,-36.65 367.97,-27.59"/>
<polygon fill="midnightblue" stroke="midnightblue" points="368.41,-24.11 357.92,-25.57 367.03,-30.97 368.41,-24.11"/>
</g>
<!-- Node35&#45;&gt;Node10 -->
<g id="edge41" class="edge">
<title>Node35&#45;&gt;Node10</title>
<path fill="none" stroke="midnightblue" d="M588.13,-72.88C593.58,-70.81 599.47,-68.71 605,-67 656.55,-51.1 716.43,-37.25 759.38,-28.09"/>
<polygon fill="midnightblue" stroke="midnightblue" points="760.31,-31.47 769.37,-25.98 758.86,-24.63 760.31,-31.47"/>
</g>
<!-- Node35&#45;&gt;Node11 -->
<g id="edge42" class="edge">
<title>Node35&#45;&gt;Node11</title>
<path fill="none" stroke="midnightblue" d="M575.9,-72.73C584.99,-63.78 599.45,-49.54 611.54,-37.63"/>
<polygon fill="midnightblue" stroke="midnightblue" points="614.03,-40.1 618.69,-30.59 609.11,-35.11 614.03,-40.1"/>
</g>
<!-- Node35&#45;&gt;Node12 -->
<g id="edge43" class="edge">
<title>Node35&#45;&gt;Node12</title>
<path fill="none" stroke="midnightblue" d="M586.83,-72.93C592.6,-70.72 598.98,-68.53 605,-67 612.69,-65.05 818.59,-38.28 924.84,-24.53"/>
<polygon fill="midnightblue" stroke="midnightblue" points="925.33,-28 934.8,-23.24 924.43,-21.05 925.33,-28"/>
</g>
<!-- Node37&#45;&gt;Node5 -->
<g id="edge51" class="edge">
<title>Node37&#45;&gt;Node5</title>
<path fill="none" stroke="midnightblue" d="M534.39,-139.99C598.8,-130.44 705.47,-114.16 797,-98 809.59,-95.78 823.34,-93.14 835.54,-90.73"/>
<polygon fill="midnightblue" stroke="midnightblue" points="836.24,-94.16 845.36,-88.77 834.87,-87.29 836.24,-94.16"/>
</g>
<!-- Node37&#45;&gt;Node35 -->
<g id="edge49" class="edge">
<title>Node37&#45;&gt;Node35</title>
<path fill="none" stroke="midnightblue" d="M488.27,-139.73C503.15,-129.11 528.43,-111.05 546.33,-98.26"/>
<polygon fill="midnightblue" stroke="midnightblue" points="548.82,-100.79 554.92,-92.13 544.75,-95.09 548.82,-100.79"/>
</g>
<!-- Node37&#45;&gt;Node36 -->
<g id="edge53" class="edge">
<title>Node37&#45;&gt;Node36</title>
<path fill="none" stroke="midnightblue" d="M427.95,-139.97C415.9,-137.93 402.99,-135.81 391,-134 269.55,-115.67 234.68,-133.17 117,-98 115.13,-97.44 113.23,-96.78 111.34,-96.05"/>
<polygon fill="midnightblue" stroke="midnightblue" points="112.75,-92.84 102.19,-92 109.92,-99.25 112.75,-92.84"/>
</g>
<!-- Node38 -->
<g id="node38" class="node">
<title>Node38</title>
<g id="a_node38"><a xlink:title=" ">
<polygon fill="none" stroke="#bfbfbf" points="328.5,-73 328.5,-92 399.5,-92 399.5,-73 328.5,-73"/>
<text text-anchor="middle" x="364" y="-80" font-family="Helvetica,sans-Serif" font-size="10.00">SDL2/SDL.h</text>
</a>
</g>
</g>
<!-- Node37&#45;&gt;Node38 -->
<g id="edge46" class="edge">
<title>Node37&#45;&gt;Node38</title>
<path fill="none" stroke="midnightblue" d="M460.9,-139.73C442.09,-128.82 409.75,-110.05 387.64,-97.22"/>
<polygon fill="midnightblue" stroke="midnightblue" points="389.27,-94.12 378.87,-92.13 385.76,-100.17 389.27,-94.12"/>
</g>
<!-- Node39 -->
<g id="node39" class="node">
<title>Node39</title>
<g id="a_node39"><a xlink:title=" ">
<polygon fill="none" stroke="#bfbfbf" points="417.5,-73 417.5,-92 520.5,-92 520.5,-73 417.5,-73"/>
<text text-anchor="middle" x="469" y="-80" font-family="Helvetica,sans-Serif" font-size="10.00">SDL2/SDL_image.h</text>
</a>
</g>
</g>
<!-- Node37&#45;&gt;Node39 -->
<g id="edge47" class="edge">
<title>Node37&#45;&gt;Node39</title>
<path fill="none" stroke="midnightblue" d="M475.06,-139.73C474.03,-130.18 472.35,-114.62 471.02,-102.28"/>
<polygon fill="midnightblue" stroke="midnightblue" points="474.48,-101.7 469.93,-92.13 467.52,-102.44 474.48,-101.7"/>
</g>
<!-- Node40 -->
<g id="node40" class="node">
<title>Node40</title>
<g id="a_node40"><a xlink:title=" ">
<polygon fill="none" stroke="#bfbfbf" points="126,-73 126,-92 180,-92 180,-73 126,-73"/>
<text text-anchor="middle" x="153" y="-80" font-family="Helvetica,sans-Serif" font-size="10.00">iostream</text>
</a>
</g>
</g>
<!-- Node37&#45;&gt;Node40 -->
<g id="edge48" class="edge">
<title>Node37&#45;&gt;Node40</title>
<path fill="none" stroke="midnightblue" d="M425.9,-139.96C346.69,-126.43 200.31,-101.23 189,-98 186.56,-97.3 184.06,-96.5 181.57,-95.63"/>
<polygon fill="midnightblue" stroke="midnightblue" points="182.76,-92.34 172.17,-92.08 180.29,-98.89 182.76,-92.34"/>
</g>
<!-- Node41 -->
<g id="node41" class="node">
<title>Node41</title>
<g id="a_node41"><a xlink:href="NumberUtil_8hpp.html" target="_top" xlink:title=" ">
<polygon fill="none" stroke="black" points="198,-73 198,-92 310,-92 310,-73 198,-73"/>
<text text-anchor="middle" x="254" y="-80" font-family="Helvetica,sans-Serif" font-size="10.00">Utility/NumberUtil.hpp</text>
</a>
</g>
</g>
<!-- Node37&#45;&gt;Node41 -->
<g id="edge50" class="edge">
<title>Node37&#45;&gt;Node41</title>
<path fill="none" stroke="midnightblue" d="M446.52,-139.87C407.02,-128.3 336.82,-107.75 292.98,-94.91"/>
<polygon fill="midnightblue" stroke="midnightblue" points="293.83,-91.51 283.25,-92.06 291.86,-98.23 293.83,-91.51"/>
</g>
<!-- Node37&#45;&gt;Node42 -->
<g id="edge52" class="edge">
<title>Node37&#45;&gt;Node42</title>
<path fill="none" stroke="midnightblue" d="M528.92,-139.94C578.73,-131.32 655.14,-116.65 720,-98 722.64,-97.24 725.36,-96.39 728.08,-95.48"/>
<polygon fill="midnightblue" stroke="midnightblue" points="729.47,-98.7 737.74,-92.07 727.14,-92.1 729.47,-98.7"/>
</g>
<!-- Node37&#45;&gt;Node43 -->
<g id="edge54" class="edge">
<title>Node37&#45;&gt;Node43</title>
<path fill="none" stroke="midnightblue" d="M498.8,-139.9C524.5,-130.11 567.48,-113.47 604,-98 605.37,-97.42 606.77,-96.82 608.18,-96.21"/>
<polygon fill="midnightblue" stroke="midnightblue" points="609.73,-99.35 617.46,-92.09 606.9,-92.95 609.73,-99.35"/>
</g>
<!-- Node37&#45;&gt;Node44 -->
<g id="edge55" class="edge">
<title>Node37&#45;&gt;Node44</title>
<path fill="none" stroke="midnightblue" d="M519.78,-139.99C559.11,-131.62 618.02,-117.32 667,-98 668.04,-97.59 669.09,-97.15 670.14,-96.69"/>
<polygon fill="midnightblue" stroke="midnightblue" points="672.01,-99.67 679.44,-92.12 668.92,-93.39 672.01,-99.67"/>
</g>
<!-- Node45&#45;&gt;Node36 -->
<g id="edge58" class="edge">
<title>Node45&#45;&gt;Node36</title>
<path fill="none" stroke="midnightblue" d="M305.17,-201.39C283.63,-193.21 251.34,-179.96 225,-165 204.51,-153.37 202,-146.45 182,-134 159.75,-120.16 133.36,-106.32 114.04,-96.64"/>
<polygon fill="midnightblue" stroke="midnightblue" points="115.43,-93.42 104.91,-92.11 112.31,-99.69 115.43,-93.42"/>
</g>
<!-- Node45&#45;&gt;Node37 -->
<g id="edge60" class="edge">
<title>Node45&#45;&gt;Node37</title>
<path fill="none" stroke="midnightblue" d="M350.06,-201.48C375.06,-191.36 416.94,-174.4 445.49,-162.85"/>
<polygon fill="midnightblue" stroke="midnightblue" points="447.02,-166.01 454.98,-159.01 444.39,-159.52 447.02,-166.01"/>
</g>
<!-- Node46 -->
<g id="node46" class="node">
<title>Node46</title>
<g id="a_node46"><a xlink:title=" ">
<polygon fill="none" stroke="#bfbfbf" points="234.5,-140 234.5,-159 273.5,-159 273.5,-140 234.5,-140"/>
<text text-anchor="middle" x="254" y="-147" font-family="Helvetica,sans-Serif" font-size="10.00">utility</text>
</a>
</g>
</g>
<!-- Node45&#45;&gt;Node46 -->
<g id="edge59" class="edge">
<title>Node45&#45;&gt;Node46</title>
<path fill="none" stroke="midnightblue" d="M318.25,-201.48C306.45,-192.11 287.26,-176.88 272.92,-165.51"/>
<polygon fill="midnightblue" stroke="midnightblue" points="274.74,-162.48 264.73,-159.01 270.38,-167.97 274.74,-162.48"/>
</g>
<!-- Node47&#45;&gt;Node33 -->
<g id="edge62" class="edge">
<title>Node47&#45;&gt;Node33</title>
<path fill="none" stroke="midnightblue" d="M429.66,-201.48C408.18,-191.49 372.38,-174.85 347.55,-163.31"/>
<polygon fill="midnightblue" stroke="midnightblue" points="348.85,-160.05 338.31,-159.01 345.9,-166.4 348.85,-160.05"/>
</g>
<!-- Node47&#45;&gt;Node35 -->
<g id="edge63" class="edge">
<title>Node47&#45;&gt;Node35</title>
<path fill="none" stroke="midnightblue" d="M479.31,-205.32C503.82,-199.93 536.73,-188.57 555,-165 568.87,-147.11 570.17,-120.2 569.15,-102.25"/>
<polygon fill="midnightblue" stroke="midnightblue" points="572.63,-101.83 568.28,-92.17 565.66,-102.43 572.63,-101.83"/>
</g>
<!-- Node47&#45;&gt;Node36 -->
<g id="edge64" class="edge">
<title>Node47&#45;&gt;Node36</title>
<path fill="none" stroke="midnightblue" d="M437.86,-201.28C415.13,-181.76 361.72,-136.12 357,-134 258.62,-89.79 220.06,-129.83 117,-98 115.33,-97.48 113.63,-96.89 111.94,-96.24"/>
<polygon fill="midnightblue" stroke="midnightblue" points="113.08,-92.91 102.52,-92.1 110.27,-99.32 113.08,-92.91"/>
</g>
</g>
</svg>
