<?xml version="1.0" encoding="UTF-8" standalone="no"?>
<!DOCTYPE svg PUBLIC "-//W3C//DTD SVG 1.1//EN"
 "http://www.w3.org/Graphics/SVG/1.1/DTD/svg11.dtd">
<!-- Generated by graphviz version 2.44.0 ()
 -->
<!-- Title: includes/spic&#45;prj&#45;api/Camera.hpp Pages: 1 -->
<svg width="1163pt" height="530pt"
 viewBox="0.00 0.00 1162.50 530.00" xmlns="http://www.w3.org/2000/svg" xmlns:xlink="http://www.w3.org/1999/xlink">
<g id="graph0" class="graph" transform="scale(1 1) rotate(0) translate(4 526)">
<title>includes/spic&#45;prj&#45;api/Camera.hpp</title>
<!-- Node1 -->
<g id="node1" class="node">
<title>Node1</title>
<g id="a_node1"><a xlink:title=" ">
<polygon fill="#bfbfbf" stroke="black" points="80.5,-491.5 80.5,-521.5 183.5,-521.5 183.5,-491.5 80.5,-491.5"/>
<text text-anchor="start" x="88.5" y="-509.5" font-family="Helvetica,sans-Serif" font-size="10.00">includes/spic&#45;prj&#45;api</text>
<text text-anchor="middle" x="132" y="-498.5" font-family="Helvetica,sans-Serif" font-size="10.00">/Camera.hpp</text>
</a>
</g>
</g>
<!-- Node2 -->
<g id="node2" class="node">
<title>Node2</title>
<g id="a_node2"><a xlink:href="Camera_8cpp.html" target="_top" xlink:title=" ">
<polygon fill="none" stroke="black" points="0,-430 0,-449 104,-449 104,-430 0,-430"/>
<text text-anchor="middle" x="52" y="-437" font-family="Helvetica,sans-Serif" font-size="10.00">src/API/Camera.cpp</text>
</a>
</g>
</g>
<!-- Node1&#45;&gt;Node2 -->
<g id="edge1" class="edge">
<title>Node1&#45;&gt;Node2</title>
<path fill="none" stroke="midnightblue" d="M106.78,-485.01C91.93,-472.94 73.91,-458.3 62.7,-449.19"/>
<polygon fill="midnightblue" stroke="midnightblue" points="104.67,-487.81 114.64,-491.4 109.09,-482.37 104.67,-487.81"/>
</g>
<!-- Node3 -->
<g id="node3" class="node">
<title>Node3</title>
<g id="a_node3"><a xlink:href="SceneBuilder_8hpp.html" target="_top" xlink:title=" ">
<polygon fill="none" stroke="black" points="38,-357.5 38,-387.5 198,-387.5 198,-357.5 38,-357.5"/>
<text text-anchor="start" x="46" y="-375.5" font-family="Helvetica,sans-Serif" font-size="10.00">includes/platformer</text>
<text text-anchor="middle" x="118" y="-364.5" font-family="Helvetica,sans-Serif" font-size="10.00">&#45;engine/Builder/SceneBuilder.hpp</text>
</a>
</g>
</g>
<!-- Node1&#45;&gt;Node3 -->
<g id="edge2" class="edge">
<title>Node1&#45;&gt;Node3</title>
<path fill="none" stroke="midnightblue" d="M129.44,-481.39C126.53,-453.9 121.86,-409.89 119.49,-387.52"/>
<polygon fill="midnightblue" stroke="midnightblue" points="125.97,-481.8 130.5,-491.37 132.93,-481.06 125.97,-481.8"/>
</g>
<!-- Node5 -->
<g id="node5" class="node">
<title>Node5</title>
<g id="a_node5"><a xlink:href="Scene_8hpp.html" target="_top" xlink:title=" ">
<polygon fill="none" stroke="black" points="332.5,-424.5 332.5,-454.5 435.5,-454.5 435.5,-424.5 332.5,-424.5"/>
<text text-anchor="start" x="340.5" y="-442.5" font-family="Helvetica,sans-Serif" font-size="10.00">includes/spic&#45;prj&#45;api</text>
<text text-anchor="middle" x="384" y="-431.5" font-family="Helvetica,sans-Serif" font-size="10.00">/Scene.hpp</text>
</a>
</g>
</g>
<!-- Node1&#45;&gt;Node5 -->
<g id="edge4" class="edge">
<title>Node1&#45;&gt;Node5</title>
<path fill="none" stroke="midnightblue" d="M193.31,-489.69C235.94,-478.69 292.14,-464.19 332.46,-453.79"/>
<polygon fill="midnightblue" stroke="midnightblue" points="192.41,-486.3 183.6,-492.19 194.16,-493.08 192.41,-486.3"/>
</g>
<!-- Node4 -->
<g id="node4" class="node">
<title>Node4</title>
<g id="a_node4"><a xlink:href="SceneBuilder_8cpp.html" target="_top" xlink:title=" ">
<polygon fill="none" stroke="black" points="47,-296 47,-315 189,-315 189,-296 47,-296"/>
<text text-anchor="middle" x="118" y="-303" font-family="Helvetica,sans-Serif" font-size="10.00">src/Builder/SceneBuilder.cpp</text>
</a>
</g>
</g>
<!-- Node3&#45;&gt;Node4 -->
<g id="edge3" class="edge">
<title>Node3&#45;&gt;Node4</title>
<path fill="none" stroke="midnightblue" d="M118,-347.25C118,-336.02 118,-323.38 118,-315.19"/>
<polygon fill="midnightblue" stroke="midnightblue" points="114.5,-347.4 118,-357.4 121.5,-347.4 114.5,-347.4"/>
</g>
<!-- Node5&#45;&gt;Node3 -->
<g id="edge6" class="edge">
<title>Node5&#45;&gt;Node3</title>
<path fill="none" stroke="midnightblue" d="M322.61,-423.5C278.29,-412.67 218.85,-398.14 175.46,-387.54"/>
<polygon fill="midnightblue" stroke="midnightblue" points="321.85,-426.92 332.4,-425.89 323.51,-420.12 321.85,-426.92"/>
</g>
<!-- Node6 -->
<g id="node6" class="node">
<title>Node6</title>
<g id="a_node6"><a xlink:href="Scene_8cpp.html" target="_top" xlink:title=" ">
<polygon fill="none" stroke="black" points="164,-156.5 164,-175.5 274,-175.5 274,-156.5 164,-156.5"/>
<text text-anchor="middle" x="219" y="-163.5" font-family="Helvetica,sans-Serif" font-size="10.00">src/Scene/Scene.cpp</text>
</a>
</g>
</g>
<!-- Node5&#45;&gt;Node6 -->
<g id="edge5" class="edge">
<title>Node5&#45;&gt;Node6</title>
<path fill="none" stroke="midnightblue" d="M364.8,-416.65C345.28,-393.8 314.86,-356.38 293,-321 260.57,-268.51 231.99,-199.65 222.41,-175.68"/>
<polygon fill="midnightblue" stroke="midnightblue" points="362.29,-419.1 371.47,-424.38 367.59,-414.52 362.29,-419.1"/>
</g>
<!-- Node7 -->
<g id="node7" class="node">
<title>Node7</title>
<g id="a_node7"><a xlink:href="Engine_8hpp.html" target="_top" xlink:title=" ">
<polygon fill="none" stroke="black" points="708.5,-73 708.5,-103 839.5,-103 839.5,-73 708.5,-73"/>
<text text-anchor="start" x="716.5" y="-91" font-family="Helvetica,sans-Serif" font-size="10.00">includes/platformer</text>
<text text-anchor="middle" x="774" y="-80" font-family="Helvetica,sans-Serif" font-size="10.00">&#45;engine/Engine/Engine.hpp</text>
</a>
</g>
</g>
<!-- Node5&#45;&gt;Node7 -->
<g id="edge7" class="edge">
<title>Node5&#45;&gt;Node7</title>
<path fill="none" stroke="midnightblue" d="M445.65,-432.47C564.12,-419.15 812,-382.25 812,-306.5 812,-306.5 812,-306.5 812,-237.5 812,-195.85 808.32,-185.08 797,-145 792.89,-130.43 786.12,-114.54 780.99,-103.41"/>
<polygon fill="midnightblue" stroke="midnightblue" points="445.18,-428.99 435.63,-433.57 445.95,-435.95 445.18,-428.99"/>
</g>
<!-- Node14 -->
<g id="node14" class="node">
<title>Node14</title>
<g id="a_node14"><a xlink:href="ServerNetworkManager_8hpp.html" target="_top" xlink:title=" ">
<polygon fill="none" stroke="black" points="839.5,-145.5 839.5,-186.5 1008.5,-186.5 1008.5,-145.5 839.5,-145.5"/>
<text text-anchor="start" x="847.5" y="-174.5" font-family="Helvetica,sans-Serif" font-size="10.00">includes/platformer</text>
<text text-anchor="start" x="847.5" y="-163.5" font-family="Helvetica,sans-Serif" font-size="10.00">&#45;engine/Networking/ServerNetwork</text>
<text text-anchor="middle" x="924" y="-152.5" font-family="Helvetica,sans-Serif" font-size="10.00">Manager.hpp</text>
</a>
</g>
</g>
<!-- Node5&#45;&gt;Node14 -->
<g id="edge14" class="edge">
<title>Node5&#45;&gt;Node14</title>
<path fill="none" stroke="midnightblue" d="M445.82,-438.82C552.87,-438.19 766.98,-431.36 826,-388 893.82,-338.18 915.52,-230.83 921.74,-186.63"/>
<polygon fill="midnightblue" stroke="midnightblue" points="445.79,-435.32 435.8,-438.86 445.81,-442.32 445.79,-435.32"/>
</g>
<!-- Node15 -->
<g id="node15" class="node">
<title>Node15</title>
<g id="a_node15"><a xlink:href="Window_8hpp.html" target="_top" xlink:title=" ">
<polygon fill="none" stroke="black" points="474.5,-357.5 474.5,-387.5 611.5,-387.5 611.5,-357.5 474.5,-357.5"/>
<text text-anchor="start" x="482.5" y="-375.5" font-family="Helvetica,sans-Serif" font-size="10.00">includes/platformer</text>
<text text-anchor="middle" x="543" y="-364.5" font-family="Helvetica,sans-Serif" font-size="10.00">&#45;engine/Render/Window.hpp</text>
</a>
</g>
</g>
<!-- Node5&#45;&gt;Node15 -->
<g id="edge17" class="edge">
<title>Node5&#45;&gt;Node15</title>
<path fill="none" stroke="midnightblue" d="M427.92,-420.54C453.37,-410.14 484.93,-397.24 508.57,-387.58"/>
<polygon fill="midnightblue" stroke="midnightblue" points="426.43,-417.37 418.5,-424.4 429.08,-423.85 426.43,-417.37"/>
</g>
<!-- Node8 -->
<g id="node8" class="node">
<title>Node8</title>
<g id="a_node8"><a xlink:href="GameObjectDirector_8cpp.html" target="_top" xlink:title=" ">
<polygon fill="none" stroke="black" points="175,-6 175,-25 351,-25 351,-6 175,-6"/>
<text text-anchor="middle" x="263" y="-13" font-family="Helvetica,sans-Serif" font-size="10.00">src/Director/GameObjectDirector.cpp</text>
</a>
</g>
</g>
<!-- Node7&#45;&gt;Node8 -->
<g id="edge8" class="edge">
<title>Node7&#45;&gt;Node8</title>
<path fill="none" stroke="midnightblue" d="M698.06,-76.52C596.59,-62.52 418.7,-37.98 324.91,-25.04"/>
<polygon fill="midnightblue" stroke="midnightblue" points="697.86,-80.03 708.24,-77.93 698.81,-73.09 697.86,-80.03"/>
</g>
<!-- Node9 -->
<g id="node9" class="node">
<title>Node9</title>
<g id="a_node9"><a xlink:href="Engine_8cpp.html" target="_top" xlink:title=" ">
<polygon fill="none" stroke="black" points="717.5,-6 717.5,-25 830.5,-25 830.5,-6 717.5,-6"/>
<text text-anchor="middle" x="774" y="-13" font-family="Helvetica,sans-Serif" font-size="10.00">src/Engine/Engine.cpp</text>
</a>
</g>
</g>
<!-- Node7&#45;&gt;Node9 -->
<g id="edge9" class="edge">
<title>Node7&#45;&gt;Node9</title>
<path fill="none" stroke="midnightblue" d="M774,-62.59C774,-49.71 774,-34.7 774,-25.39"/>
<polygon fill="midnightblue" stroke="midnightblue" points="770.5,-62.73 774,-72.73 777.5,-62.73 770.5,-62.73"/>
</g>
<!-- Node10 -->
<g id="node10" class="node">
<title>Node10</title>
<g id="a_node10"><a xlink:href="TMXParser_8cpp.html" target="_top" xlink:title=" ">
<polygon fill="none" stroke="black" points="849,-6 849,-25 985,-25 985,-6 849,-6"/>
<text text-anchor="middle" x="917" y="-13" font-family="Helvetica,sans-Serif" font-size="10.00">src/Facade/TMXParser.cpp</text>
</a>
</g>
</g>
<!-- Node7&#45;&gt;Node10 -->
<g id="edge10" class="edge">
<title>Node7&#45;&gt;Node10</title>
<path fill="none" stroke="midnightblue" d="M811.86,-68.33C840.34,-54.29 878.03,-35.71 899.69,-25.03"/>
<polygon fill="midnightblue" stroke="midnightblue" points="810.02,-65.34 802.59,-72.9 813.11,-71.62 810.02,-65.34"/>
</g>
<!-- Node11 -->
<g id="node11" class="node">
<title>Node11</title>
<g id="a_node11"><a xlink:href="ClientNetworkManager_8cpp.html" target="_top" xlink:title=" ">
<polygon fill="none" stroke="black" points="552.5,-0.5 552.5,-30.5 699.5,-30.5 699.5,-0.5 552.5,-0.5"/>
<text text-anchor="start" x="560.5" y="-18.5" font-family="Helvetica,sans-Serif" font-size="10.00">src/Networking/ClientNetwork</text>
<text text-anchor="middle" x="626" y="-7.5" font-family="Helvetica,sans-Serif" font-size="10.00">Manager.cpp</text>
</a>
</g>
</g>
<!-- Node7&#45;&gt;Node11 -->
<g id="edge11" class="edge">
<title>Node7&#45;&gt;Node11</title>
<path fill="none" stroke="midnightblue" d="M735.23,-68.53C710.3,-56.66 678.42,-41.47 655.54,-30.57"/>
<polygon fill="midnightblue" stroke="midnightblue" points="733.87,-71.76 744.41,-72.9 736.88,-65.44 733.87,-71.76"/>
</g>
<!-- Node12 -->
<g id="node12" class="node">
<title>Node12</title>
<g id="a_node12"><a xlink:href="ServerNetworkManager_8cpp.html" target="_top" xlink:title=" ">
<polygon fill="none" stroke="black" points="1003.5,-0.5 1003.5,-30.5 1154.5,-30.5 1154.5,-0.5 1003.5,-0.5"/>
<text text-anchor="start" x="1011.5" y="-18.5" font-family="Helvetica,sans-Serif" font-size="10.00">src/Networking/ServerNetwork</text>
<text text-anchor="middle" x="1079" y="-7.5" font-family="Helvetica,sans-Serif" font-size="10.00">Manager.cpp</text>
</a>
</g>
</g>
<!-- Node7&#45;&gt;Node12 -->
<g id="edge12" class="edge">
<title>Node7&#45;&gt;Node12</title>
<path fill="none" stroke="midnightblue" d="M844.55,-70.69C897.12,-58.54 968.17,-42.12 1018.23,-30.55"/>
<polygon fill="midnightblue" stroke="midnightblue" points="843.58,-67.32 834.62,-72.99 845.15,-74.15 843.58,-67.32"/>
</g>
<!-- Node13 -->
<g id="node13" class="node">
<title>Node13</title>
<g id="a_node13"><a xlink:href="RenderSystem_8cpp.html" target="_top" xlink:title=" ">
<polygon fill="none" stroke="black" points="384,-6 384,-25 534,-25 534,-6 384,-6"/>
<text text-anchor="middle" x="459" y="-13" font-family="Helvetica,sans-Serif" font-size="10.00">src/Texture/RenderSystem.cpp</text>
</a>
</g>
</g>
<!-- Node7&#45;&gt;Node13 -->
<g id="edge13" class="edge">
<title>Node7&#45;&gt;Node13</title>
<path fill="none" stroke="midnightblue" d="M701.41,-70.75C637.77,-56.51 547.74,-36.36 497.22,-25.05"/>
<polygon fill="midnightblue" stroke="midnightblue" points="700.87,-74.22 711.39,-72.99 702.4,-67.39 700.87,-74.22"/>
</g>
<!-- Node14&#45;&gt;Node7 -->
<g id="edge16" class="edge">
<title>Node14&#45;&gt;Node7</title>
<path fill="none" stroke="midnightblue" d="M876.25,-140.81C851.81,-128.43 822.91,-113.78 802.08,-103.23"/>
<polygon fill="midnightblue" stroke="midnightblue" points="874.87,-144.03 885.37,-145.43 878.03,-137.79 874.87,-144.03"/>
</g>
<!-- Node14&#45;&gt;Node12 -->
<g id="edge15" class="edge">
<title>Node14&#45;&gt;Node12</title>
<path fill="none" stroke="midnightblue" d="M952.11,-138.07C985.14,-106.43 1038.69,-55.12 1064.36,-30.53"/>
<polygon fill="midnightblue" stroke="midnightblue" points="949.38,-135.83 944.58,-145.28 954.23,-140.89 949.38,-135.83"/>
</g>
<!-- Node15&#45;&gt;Node7 -->
<g id="edge20" class="edge">
<title>Node15&#45;&gt;Node7</title>
<path fill="none" stroke="midnightblue" d="M621.89,-360.28C669.99,-351.83 725.32,-338.66 742,-321 800.5,-259.08 784.68,-143.13 777.01,-103.05"/>
<polygon fill="midnightblue" stroke="midnightblue" points="621.02,-356.88 611.75,-362.02 622.2,-363.78 621.02,-356.88"/>
</g>
<!-- Node16 -->
<g id="node16" class="node">
<title>Node16</title>
<g id="a_node16"><a xlink:href="Window_8cpp.html" target="_top" xlink:title=" ">
<polygon fill="none" stroke="black" points="613.5,-296 613.5,-315 732.5,-315 732.5,-296 613.5,-296"/>
<text text-anchor="middle" x="673" y="-303" font-family="Helvetica,sans-Serif" font-size="10.00">src/Render/Window.cpp</text>
</a>
</g>
</g>
<!-- Node15&#45;&gt;Node16 -->
<g id="edge18" class="edge">
<title>Node15&#45;&gt;Node16</title>
<path fill="none" stroke="midnightblue" d="M580.39,-352.8C605.32,-340.34 636.89,-324.56 655.99,-315.01"/>
<polygon fill="midnightblue" stroke="midnightblue" points="578.59,-349.79 571.21,-357.4 581.72,-356.05 578.59,-349.79"/>
</g>
<!-- Node17 -->
<g id="node17" class="node">
<title>Node17</title>
<g id="a_node17"><a xlink:href="Timer_8cpp.html" target="_top" xlink:title=" ">
<polygon fill="none" stroke="black" points="491,-296 491,-315 595,-315 595,-296 491,-296"/>
<text text-anchor="middle" x="543" y="-303" font-family="Helvetica,sans-Serif" font-size="10.00">src/Timer/Timer.cpp</text>
</a>
</g>
</g>
<!-- Node15&#45;&gt;Node17 -->
<g id="edge19" class="edge">
<title>Node15&#45;&gt;Node17</title>
<path fill="none" stroke="midnightblue" d="M543,-347.25C543,-336.02 543,-323.38 543,-315.19"/>
<polygon fill="midnightblue" stroke="midnightblue" points="539.5,-347.4 543,-357.4 546.5,-347.4 539.5,-347.4"/>
</g>
<!-- Node18 -->
<g id="node18" class="node">
<title>Node18</title>
<g id="a_node18"><a xlink:href="AnimatedSprite_8hpp.html" target="_top" xlink:title=" ">
<polygon fill="none" stroke="black" points="301.5,-290.5 301.5,-320.5 472.5,-320.5 472.5,-290.5 301.5,-290.5"/>
<text text-anchor="start" x="309.5" y="-308.5" font-family="Helvetica,sans-Serif" font-size="10.00">includes/platformer</text>
<text text-anchor="middle" x="387" y="-297.5" font-family="Helvetica,sans-Serif" font-size="10.00">&#45;engine/Texture/AnimatedSprite.hpp</text>
</a>
</g>
</g>
<!-- Node15&#45;&gt;Node18 -->
<g id="edge21" class="edge">
<title>Node15&#45;&gt;Node18</title>
<path fill="none" stroke="midnightblue" d="M499.91,-353.54C474.94,-343.14 443.97,-330.24 420.78,-320.58"/>
<polygon fill="midnightblue" stroke="midnightblue" points="498.57,-356.78 509.15,-357.4 501.27,-350.32 498.57,-356.78"/>
</g>
<!-- Node19 -->
<g id="node19" class="node">
<title>Node19</title>
<g id="a_node19"><a xlink:href="AnimatedSprite_8cpp.html" target="_top" xlink:title=" ">
<polygon fill="none" stroke="black" points="592.5,-229 592.5,-248 745.5,-248 745.5,-229 592.5,-229"/>
<text text-anchor="middle" x="669" y="-236" font-family="Helvetica,sans-Serif" font-size="10.00">src/Texture/AnimatedSprite.cpp</text>
</a>
</g>
</g>
<!-- Node18&#45;&gt;Node19 -->
<g id="edge22" class="edge">
<title>Node18&#45;&gt;Node19</title>
<path fill="none" stroke="midnightblue" d="M457.59,-288.23C512.96,-275.47 587.82,-258.21 632,-248.03"/>
<polygon fill="midnightblue" stroke="midnightblue" points="456.8,-284.82 447.84,-290.48 458.37,-291.64 456.8,-284.82"/>
</g>
<!-- Node20 -->
<g id="node20" class="node">
<title>Node20</title>
<g id="a_node20"><a xlink:href="GameObjectBuilder_8hpp.html" target="_top" xlink:title=" ">
<polygon fill="none" stroke="black" points="292.5,-145.5 292.5,-186.5 431.5,-186.5 431.5,-145.5 292.5,-145.5"/>
<text text-anchor="start" x="300.5" y="-174.5" font-family="Helvetica,sans-Serif" font-size="10.00">includes/platformer</text>
<text text-anchor="start" x="300.5" y="-163.5" font-family="Helvetica,sans-Serif" font-size="10.00">&#45;engine/Builder/GameObject</text>
<text text-anchor="middle" x="362" y="-152.5" font-family="Helvetica,sans-Serif" font-size="10.00">Builder.hpp</text>
</a>
</g>
</g>
<!-- Node18&#45;&gt;Node20 -->
<g id="edge23" class="edge">
<title>Node18&#45;&gt;Node20</title>
<path fill="none" stroke="midnightblue" d="M322.45,-286.2C307.28,-278.73 292.94,-268.35 284,-254 268.06,-228.44 296.86,-203.26 323.86,-186.62"/>
<polygon fill="midnightblue" stroke="midnightblue" points="321.41,-289.57 331.96,-290.49 324.28,-283.19 321.41,-289.57"/>
</g>
<!-- Node23 -->
<g id="node23" class="node">
<title>Node23</title>
<g id="a_node23"><a xlink:href="ObjectBuilder_8hpp.html" target="_top" xlink:title=" ">
<polygon fill="none" stroke="black" points="292.5,-223.5 292.5,-253.5 453.5,-253.5 453.5,-223.5 292.5,-223.5"/>
<text text-anchor="start" x="300.5" y="-241.5" font-family="Helvetica,sans-Serif" font-size="10.00">includes/platformer</text>
<text text-anchor="middle" x="373" y="-230.5" font-family="Helvetica,sans-Serif" font-size="10.00">&#45;engine/Builder/ObjectBuilder.hpp</text>
</a>
</g>
</g>
<!-- Node18&#45;&gt;Node23 -->
<g id="edge27" class="edge">
<title>Node18&#45;&gt;Node23</title>
<path fill="none" stroke="midnightblue" d="M381.81,-280.4C379.86,-271.37 377.72,-261.41 376.03,-253.58"/>
<polygon fill="midnightblue" stroke="midnightblue" points="378.44,-281.36 383.96,-290.4 385.28,-279.88 378.44,-281.36"/>
</g>
<!-- Node24 -->
<g id="node24" class="node">
<title>Node24</title>
<g id="a_node24"><a xlink:href="Animator_8hpp.html" target="_top" xlink:title=" ">
<polygon fill="none" stroke="black" points="471.5,-223.5 471.5,-253.5 574.5,-253.5 574.5,-223.5 471.5,-223.5"/>
<text text-anchor="start" x="479.5" y="-241.5" font-family="Helvetica,sans-Serif" font-size="10.00">includes/spic&#45;prj&#45;api</text>
<text text-anchor="middle" x="523" y="-230.5" font-family="Helvetica,sans-Serif" font-size="10.00">/Animator.hpp</text>
</a>
</g>
</g>
<!-- Node18&#45;&gt;Node24 -->
<g id="edge29" class="edge">
<title>Node18&#45;&gt;Node24</title>
<path fill="none" stroke="midnightblue" d="M425.72,-285.99C447.28,-275.69 473.69,-263.07 493.55,-253.58"/>
<polygon fill="midnightblue" stroke="midnightblue" points="424.02,-282.93 416.51,-290.4 427.04,-289.24 424.02,-282.93"/>
</g>
<!-- Node21 -->
<g id="node21" class="node">
<title>Node21</title>
<g id="a_node21"><a xlink:href="GameObjectBuilder_8cpp.html" target="_top" xlink:title=" ">
<polygon fill="none" stroke="black" points="337.5,-78.5 337.5,-97.5 506.5,-97.5 506.5,-78.5 337.5,-78.5"/>
<text text-anchor="middle" x="422" y="-85.5" font-family="Helvetica,sans-Serif" font-size="10.00">src/Builder/GameObjectBuilder.cpp</text>
</a>
</g>
</g>
<!-- Node20&#45;&gt;Node21 -->
<g id="edge24" class="edge">
<title>Node20&#45;&gt;Node21</title>
<path fill="none" stroke="midnightblue" d="M383.76,-137.44C394.88,-123.35 407.64,-107.19 415.25,-97.55"/>
<polygon fill="midnightblue" stroke="midnightblue" points="380.9,-135.41 377.45,-145.43 386.4,-139.75 380.9,-135.41"/>
</g>
<!-- Node22 -->
<g id="node22" class="node">
<title>Node22</title>
<g id="a_node22"><a xlink:href="GameObjectDirector_8hpp.html" target="_top" xlink:title=" ">
<polygon fill="none" stroke="black" points="176.5,-67.5 176.5,-108.5 319.5,-108.5 319.5,-67.5 176.5,-67.5"/>
<text text-anchor="start" x="184.5" y="-96.5" font-family="Helvetica,sans-Serif" font-size="10.00">includes/platformer</text>
<text text-anchor="start" x="184.5" y="-85.5" font-family="Helvetica,sans-Serif" font-size="10.00">&#45;engine/Director/GameObject</text>
<text text-anchor="middle" x="248" y="-74.5" font-family="Helvetica,sans-Serif" font-size="10.00">Director.hpp</text>
</a>
</g>
</g>
<!-- Node20&#45;&gt;Node22 -->
<g id="edge25" class="edge">
<title>Node20&#45;&gt;Node22</title>
<path fill="none" stroke="midnightblue" d="M323.95,-139.64C308.73,-129.49 291.47,-117.98 277.26,-108.51"/>
<polygon fill="midnightblue" stroke="midnightblue" points="322.38,-142.79 332.64,-145.43 326.26,-136.97 322.38,-142.79"/>
</g>
<!-- Node22&#45;&gt;Node8 -->
<g id="edge26" class="edge">
<title>Node22&#45;&gt;Node8</title>
<path fill="none" stroke="midnightblue" d="M254.29,-57.46C256.77,-45.79 259.43,-33.26 261.15,-25.17"/>
<polygon fill="midnightblue" stroke="midnightblue" points="250.84,-56.85 252.18,-67.36 257.68,-58.31 250.84,-56.85"/>
</g>
<!-- Node23&#45;&gt;Node20 -->
<g id="edge28" class="edge">
<title>Node23&#45;&gt;Node20</title>
<path fill="none" stroke="midnightblue" d="M369.22,-213.27C367.86,-204.56 366.35,-194.85 365.06,-186.59"/>
<polygon fill="midnightblue" stroke="midnightblue" points="365.77,-213.89 370.77,-223.23 372.69,-212.81 365.77,-213.89"/>
</g>
<!-- Node24&#45;&gt;Node6 -->
<g id="edge31" class="edge">
<title>Node24&#45;&gt;Node6</title>
<path fill="none" stroke="midnightblue" d="M461.36,-222.69C382.03,-205.55 359.58,-206.18 284,-187 270.95,-183.69 256.64,-179.36 244.77,-175.58"/>
<polygon fill="midnightblue" stroke="midnightblue" points="460.8,-226.16 471.32,-224.88 462.3,-219.32 460.8,-226.16"/>
</g>
<!-- Node24&#45;&gt;Node20 -->
<g id="edge32" class="edge">
<title>Node24&#45;&gt;Node20</title>
<path fill="none" stroke="midnightblue" d="M481.36,-219.26C458.44,-209.23 430.01,-196.78 406.64,-186.55"/>
<polygon fill="midnightblue" stroke="midnightblue" points="480.24,-222.6 490.81,-223.4 483.05,-216.19 480.24,-222.6"/>
</g>
<!-- Node25 -->
<g id="node25" class="node">
<title>Node25</title>
<g id="a_node25"><a xlink:href="Animator_8cpp.html" target="_top" xlink:title=" ">
<polygon fill="none" stroke="black" points="636,-156.5 636,-175.5 746,-175.5 746,-156.5 636,-156.5"/>
<text text-anchor="middle" x="691" y="-163.5" font-family="Helvetica,sans-Serif" font-size="10.00">src/API/Animator.cpp</text>
</a>
</g>
</g>
<!-- Node24&#45;&gt;Node25 -->
<g id="edge30" class="edge">
<title>Node24&#45;&gt;Node25</title>
<path fill="none" stroke="midnightblue" d="M566.18,-219.38C599.78,-205.28 644.89,-186.35 670.66,-175.53"/>
<polygon fill="midnightblue" stroke="midnightblue" points="564.46,-216.31 556.59,-223.4 567.17,-222.76 564.46,-216.31"/>
</g>
<!-- Node26 -->
<g id="node26" class="node">
<title>Node26</title>
<g id="a_node26"><a xlink:href="RenderSystem_8hpp.html" target="_top" xlink:title=" ">
<polygon fill="none" stroke="black" points="450,-151 450,-181 618,-181 618,-151 450,-151"/>
<text text-anchor="start" x="458" y="-169" font-family="Helvetica,sans-Serif" font-size="10.00">includes/platformer</text>
<text text-anchor="middle" x="534" y="-158" font-family="Helvetica,sans-Serif" font-size="10.00">&#45;engine/Texture/RenderSystem.hpp</text>
</a>
</g>
</g>
<!-- Node24&#45;&gt;Node26 -->
<g id="edge33" class="edge">
<title>Node24&#45;&gt;Node26</title>
<path fill="none" stroke="midnightblue" d="M526.79,-213.23C528.45,-202.57 530.35,-190.41 531.78,-181.25"/>
<polygon fill="midnightblue" stroke="midnightblue" points="523.31,-212.81 525.23,-223.23 530.23,-213.89 523.31,-212.81"/>
</g>
<!-- Node26&#45;&gt;Node7 -->
<g id="edge35" class="edge">
<title>Node26&#45;&gt;Node7</title>
<path fill="none" stroke="midnightblue" d="M587.96,-147.91C630.66,-134.39 689.55,-115.74 729.55,-103.07"/>
<polygon fill="midnightblue" stroke="midnightblue" points="586.78,-144.62 578.3,-150.97 588.89,-151.29 586.78,-144.62"/>
</g>
<!-- Node26&#45;&gt;Node13 -->
<g id="edge34" class="edge">
<title>Node26&#45;&gt;Node13</title>
<path fill="none" stroke="midnightblue" d="M533.88,-140.5C532.79,-119.71 528.83,-89.73 516,-67 505.73,-48.81 486.43,-33.83 473.15,-25.04"/>
<polygon fill="midnightblue" stroke="midnightblue" points="530.38,-140.84 534.22,-150.72 537.38,-140.61 530.38,-140.84"/>
</g>
</g>
</svg>
