<?xml version="1.0" encoding="UTF-8" standalone="no"?>
<!DOCTYPE svg PUBLIC "-//W3C//DTD SVG 1.1//EN"
 "http://www.w3.org/Graphics/SVG/1.1/DTD/svg11.dtd">
<!-- Generated by graphviz version 2.44.0 ()
 -->
<!-- Title: includes/spic&#45;prj&#45;api/Camera.hpp Pages: 1 -->
<svg width="975pt" height="508pt"
 viewBox="0.00 0.00 974.50 508.00" xmlns="http://www.w3.org/2000/svg" xmlns:xlink="http://www.w3.org/1999/xlink">
<g id="graph0" class="graph" transform="scale(1 1) rotate(0) translate(4 504)">
<title>includes/spic&#45;prj&#45;api/Camera.hpp</title>
<!-- Node1 -->
<g id="node1" class="node">
<title>Node1</title>
<g id="a_node1"><a xlink:title=" ">
<polygon fill="#bfbfbf" stroke="black" points="80.5,-469.5 80.5,-499.5 183.5,-499.5 183.5,-469.5 80.5,-469.5"/>
<text text-anchor="start" x="88.5" y="-487.5" font-family="Helvetica,sans-Serif" font-size="10.00">includes/spic&#45;prj&#45;api</text>
<text text-anchor="middle" x="132" y="-476.5" font-family="Helvetica,sans-Serif" font-size="10.00">/Camera.hpp</text>
</a>
</g>
</g>
<!-- Node2 -->
<g id="node2" class="node">
<title>Node2</title>
<g id="a_node2"><a xlink:href="Camera_8cpp.html" target="_top" xlink:title=" ">
<polygon fill="none" stroke="black" points="0,-408 0,-427 104,-427 104,-408 0,-408"/>
<text text-anchor="middle" x="52" y="-415" font-family="Helvetica,sans-Serif" font-size="10.00">src/API/Camera.cpp</text>
</a>
</g>
</g>
<!-- Node1&#45;&gt;Node2 -->
<g id="edge1" class="edge">
<title>Node1&#45;&gt;Node2</title>
<path fill="none" stroke="midnightblue" d="M106.78,-463.01C91.93,-450.94 73.91,-436.3 62.7,-427.19"/>
<polygon fill="midnightblue" stroke="midnightblue" points="104.67,-465.81 114.64,-469.4 109.09,-460.37 104.67,-465.81"/>
</g>
<!-- Node3 -->
<g id="node3" class="node">
<title>Node3</title>
<g id="a_node3"><a xlink:href="SceneBuilder_8hpp.html" target="_top" xlink:title=" ">
<polygon fill="none" stroke="black" points="38,-335.5 38,-365.5 198,-365.5 198,-335.5 38,-335.5"/>
<text text-anchor="start" x="46" y="-353.5" font-family="Helvetica,sans-Serif" font-size="10.00">includes/platformer</text>
<text text-anchor="middle" x="118" y="-342.5" font-family="Helvetica,sans-Serif" font-size="10.00">&#45;engine/Builder/SceneBuilder.hpp</text>
</a>
</g>
</g>
<!-- Node1&#45;&gt;Node3 -->
<g id="edge2" class="edge">
<title>Node1&#45;&gt;Node3</title>
<path fill="none" stroke="midnightblue" d="M129.44,-459.39C126.53,-431.9 121.86,-387.89 119.49,-365.52"/>
<polygon fill="midnightblue" stroke="midnightblue" points="125.97,-459.8 130.5,-469.37 132.93,-459.06 125.97,-459.8"/>
</g>
<!-- Node5 -->
<g id="node5" class="node">
<title>Node5</title>
<g id="a_node5"><a xlink:href="Scene_8hpp.html" target="_top" xlink:title=" ">
<polygon fill="none" stroke="black" points="174.5,-402.5 174.5,-432.5 277.5,-432.5 277.5,-402.5 174.5,-402.5"/>
<text text-anchor="start" x="182.5" y="-420.5" font-family="Helvetica,sans-Serif" font-size="10.00">includes/spic&#45;prj&#45;api</text>
<text text-anchor="middle" x="226" y="-409.5" font-family="Helvetica,sans-Serif" font-size="10.00">/Scene.hpp</text>
</a>
</g>
</g>
<!-- Node1&#45;&gt;Node5 -->
<g id="edge4" class="edge">
<title>Node1&#45;&gt;Node5</title>
<path fill="none" stroke="midnightblue" d="M160.99,-463.45C175.45,-453.45 192.59,-441.6 205.64,-432.58"/>
<polygon fill="midnightblue" stroke="midnightblue" points="158.63,-460.83 152.4,-469.4 162.61,-466.59 158.63,-460.83"/>
</g>
<!-- Node4 -->
<g id="node4" class="node">
<title>Node4</title>
<g id="a_node4"><a xlink:href="SceneBuilder_8cpp.html" target="_top" xlink:title=" ">
<polygon fill="none" stroke="black" points="47,-274 47,-293 189,-293 189,-274 47,-274"/>
<text text-anchor="middle" x="118" y="-281" font-family="Helvetica,sans-Serif" font-size="10.00">src/Builder/SceneBuilder.cpp</text>
</a>
</g>
</g>
<!-- Node3&#45;&gt;Node4 -->
<g id="edge3" class="edge">
<title>Node3&#45;&gt;Node4</title>
<path fill="none" stroke="midnightblue" d="M118,-325.25C118,-314.02 118,-301.38 118,-293.19"/>
<polygon fill="midnightblue" stroke="midnightblue" points="114.5,-325.4 118,-335.4 121.5,-325.4 114.5,-325.4"/>
</g>
<!-- Node5&#45;&gt;Node3 -->
<g id="edge6" class="edge">
<title>Node5&#45;&gt;Node3</title>
<path fill="none" stroke="midnightblue" d="M193.63,-397.02C176.82,-386.9 156.66,-374.77 141.39,-365.58"/>
<polygon fill="midnightblue" stroke="midnightblue" points="192.19,-400.24 202.57,-402.4 195.8,-394.24 192.19,-400.24"/>
</g>
<!-- Node6 -->
<g id="node6" class="node">
<title>Node6</title>
<g id="a_node6"><a xlink:href="Scene_8cpp.html" target="_top" xlink:title=" ">
<polygon fill="none" stroke="black" points="254,-134.5 254,-153.5 364,-153.5 364,-134.5 254,-134.5"/>
<text text-anchor="middle" x="309" y="-141.5" font-family="Helvetica,sans-Serif" font-size="10.00">src/Scene/Scene.cpp</text>
</a>
</g>
</g>
<!-- Node5&#45;&gt;Node6 -->
<g id="edge5" class="edge">
<title>Node5&#45;&gt;Node6</title>
<path fill="none" stroke="midnightblue" d="M233.32,-392.57C250.96,-334.86 295.22,-190.09 306.4,-153.5"/>
<polygon fill="midnightblue" stroke="midnightblue" points="229.92,-391.7 230.35,-402.29 236.62,-393.75 229.92,-391.7"/>
</g>
<!-- Node7 -->
<g id="node7" class="node">
<title>Node7</title>
<g id="a_node7"><a xlink:href="Engine_8hpp.html" target="_top" xlink:title=" ">
<polygon fill="none" stroke="black" points="326.5,-56.5 326.5,-86.5 457.5,-86.5 457.5,-56.5 326.5,-56.5"/>
<text text-anchor="start" x="334.5" y="-74.5" font-family="Helvetica,sans-Serif" font-size="10.00">includes/platformer</text>
<text text-anchor="middle" x="392" y="-63.5" font-family="Helvetica,sans-Serif" font-size="10.00">&#45;engine/Engine/Engine.hpp</text>
</a>
</g>
</g>
<!-- Node5&#45;&gt;Node7 -->
<g id="edge7" class="edge">
<title>Node5&#45;&gt;Node7</title>
<path fill="none" stroke="midnightblue" d="M226,-391.99C226,-365.49 226,-322 226,-284.5 226,-284.5 226,-284.5 226,-215.5 226,-173.53 217.29,-154.52 245,-123 265.58,-99.59 297.51,-87.03 326.36,-80.29"/>
<polygon fill="midnightblue" stroke="midnightblue" points="222.5,-392.24 226,-402.24 229.5,-392.24 222.5,-392.24"/>
</g>
<!-- Node10 -->
<g id="node10" class="node">
<title>Node10</title>
<g id="a_node10"><a xlink:href="Window_8hpp.html" target="_top" xlink:title=" ">
<polygon fill="none" stroke="black" points="403.5,-335.5 403.5,-365.5 540.5,-365.5 540.5,-335.5 403.5,-335.5"/>
<text text-anchor="start" x="411.5" y="-353.5" font-family="Helvetica,sans-Serif" font-size="10.00">includes/platformer</text>
<text text-anchor="middle" x="472" y="-342.5" font-family="Helvetica,sans-Serif" font-size="10.00">&#45;engine/Render/Window.hpp</text>
</a>
</g>
</g>
<!-- Node5&#45;&gt;Node10 -->
<g id="edge10" class="edge">
<title>Node5&#45;&gt;Node10</title>
<path fill="none" stroke="midnightblue" d="M287.31,-400.3C327.73,-389.62 380.14,-375.77 418.8,-365.56"/>
<polygon fill="midnightblue" stroke="midnightblue" points="286.34,-396.94 277.57,-402.87 288.13,-403.7 286.34,-396.94"/>
</g>
<!-- Node8 -->
<g id="node8" class="node">
<title>Node8</title>
<g id="a_node8"><a xlink:href="Engine_8cpp.html" target="_top" xlink:title=" ">
<polygon fill="none" stroke="black" points="297.5,-0.5 297.5,-19.5 410.5,-19.5 410.5,-0.5 297.5,-0.5"/>
<text text-anchor="middle" x="354" y="-7.5" font-family="Helvetica,sans-Serif" font-size="10.00">src/Engine/Engine.cpp</text>
</a>
</g>
</g>
<!-- Node7&#45;&gt;Node8 -->
<g id="edge8" class="edge">
<title>Node7&#45;&gt;Node8</title>
<path fill="none" stroke="midnightblue" d="M377.5,-47.8C371.22,-37.96 364.24,-27.03 359.53,-19.66"/>
<polygon fill="midnightblue" stroke="midnightblue" points="374.66,-49.86 382.99,-56.4 380.56,-46.09 374.66,-49.86"/>
</g>
<!-- Node9 -->
<g id="node9" class="node">
<title>Node9</title>
<g id="a_node9"><a xlink:href="RenderSystem_8cpp.html" target="_top" xlink:title=" ">
<polygon fill="none" stroke="black" points="429,-0.5 429,-19.5 579,-19.5 579,-0.5 429,-0.5"/>
<text text-anchor="middle" x="504" y="-7.5" font-family="Helvetica,sans-Serif" font-size="10.00">src/Texture/RenderSystem.cpp</text>
</a>
</g>
</g>
<!-- Node7&#45;&gt;Node9 -->
<g id="edge9" class="edge">
<title>Node7&#45;&gt;Node9</title>
<path fill="none" stroke="midnightblue" d="M427.48,-51.65C447.67,-40.93 471.98,-28.01 487.7,-19.66"/>
<polygon fill="midnightblue" stroke="midnightblue" points="425.73,-48.62 418.54,-56.4 429.02,-54.8 425.73,-48.62"/>
</g>
<!-- Node10&#45;&gt;Node7 -->
<g id="edge13" class="edge">
<title>Node10&#45;&gt;Node7</title>
<path fill="none" stroke="midnightblue" d="M438.31,-329.34C427.78,-321.27 417.28,-311.02 411,-299 373.26,-226.78 384.04,-123.69 389.62,-86.53"/>
<polygon fill="midnightblue" stroke="midnightblue" points="436.51,-332.36 446.68,-335.33 440.58,-326.66 436.51,-332.36"/>
</g>
<!-- Node11 -->
<g id="node11" class="node">
<title>Node11</title>
<g id="a_node11"><a xlink:href="Window_8cpp.html" target="_top" xlink:title=" ">
<polygon fill="none" stroke="black" points="731.5,-274 731.5,-293 850.5,-293 850.5,-274 731.5,-274"/>
<text text-anchor="middle" x="791" y="-281" font-family="Helvetica,sans-Serif" font-size="10.00">src/Render/Window.cpp</text>
</a>
</g>
</g>
<!-- Node10&#45;&gt;Node11 -->
<g id="edge11" class="edge">
<title>Node10&#45;&gt;Node11</title>
<path fill="none" stroke="midnightblue" d="M550.75,-333.9C600.24,-324.03 665.38,-310.94 723,-299 732.22,-297.09 742.13,-295 751.46,-293.01"/>
<polygon fill="midnightblue" stroke="midnightblue" points="549.88,-330.5 540.76,-335.89 551.25,-337.37 549.88,-330.5"/>
</g>
<!-- Node12 -->
<g id="node12" class="node">
<title>Node12</title>
<g id="a_node12"><a xlink:href="Timer_8cpp.html" target="_top" xlink:title=" ">
<polygon fill="none" stroke="black" points="420,-274 420,-293 524,-293 524,-274 420,-274"/>
<text text-anchor="middle" x="472" y="-281" font-family="Helvetica,sans-Serif" font-size="10.00">src/Timer/Timer.cpp</text>
</a>
</g>
</g>
<!-- Node10&#45;&gt;Node12 -->
<g id="edge12" class="edge">
<title>Node10&#45;&gt;Node12</title>
<path fill="none" stroke="midnightblue" d="M472,-325.25C472,-314.02 472,-301.38 472,-293.19"/>
<polygon fill="midnightblue" stroke="midnightblue" points="468.5,-325.4 472,-335.4 475.5,-325.4 468.5,-325.4"/>
</g>
<!-- Node13 -->
<g id="node13" class="node">
<title>Node13</title>
<g id="a_node13"><a xlink:href="AnimatedSprite_8hpp.html" target="_top" xlink:title=" ">
<polygon fill="none" stroke="black" points="542.5,-268.5 542.5,-298.5 713.5,-298.5 713.5,-268.5 542.5,-268.5"/>
<text text-anchor="start" x="550.5" y="-286.5" font-family="Helvetica,sans-Serif" font-size="10.00">includes/platformer</text>
<text text-anchor="middle" x="628" y="-275.5" font-family="Helvetica,sans-Serif" font-size="10.00">&#45;engine/Texture/AnimatedSprite.hpp</text>
</a>
</g>
</g>
<!-- Node10&#45;&gt;Node13 -->
<g id="edge14" class="edge">
<title>Node10&#45;&gt;Node13</title>
<path fill="none" stroke="midnightblue" d="M515.09,-331.54C540.06,-321.14 571.03,-308.24 594.22,-298.58"/>
<polygon fill="midnightblue" stroke="midnightblue" points="513.73,-328.32 505.85,-335.4 516.43,-334.78 513.73,-328.32"/>
</g>
<!-- Node14 -->
<g id="node14" class="node">
<title>Node14</title>
<g id="a_node14"><a xlink:href="AnimatedSprite_8cpp.html" target="_top" xlink:title=" ">
<polygon fill="none" stroke="black" points="634.5,-207 634.5,-226 787.5,-226 787.5,-207 634.5,-207"/>
<text text-anchor="middle" x="711" y="-214" font-family="Helvetica,sans-Serif" font-size="10.00">src/Texture/AnimatedSprite.cpp</text>
</a>
</g>
</g>
<!-- Node13&#45;&gt;Node14 -->
<g id="edge15" class="edge">
<title>Node13&#45;&gt;Node14</title>
<path fill="none" stroke="midnightblue" d="M654.17,-262.01C669.58,-249.94 688.26,-235.3 699.9,-226.19"/>
<polygon fill="midnightblue" stroke="midnightblue" points="651.72,-259.47 646.01,-268.4 656.04,-264.99 651.72,-259.47"/>
</g>
<!-- Node15 -->
<g id="node15" class="node">
<title>Node15</title>
<g id="a_node15"><a xlink:href="GameObjectBuilder_8hpp.html" target="_top" xlink:title=" ">
<polygon fill="none" stroke="black" points="734.5,-123.5 734.5,-164.5 873.5,-164.5 873.5,-123.5 734.5,-123.5"/>
<text text-anchor="start" x="742.5" y="-152.5" font-family="Helvetica,sans-Serif" font-size="10.00">includes/platformer</text>
<text text-anchor="start" x="742.5" y="-141.5" font-family="Helvetica,sans-Serif" font-size="10.00">&#45;engine/Builder/GameObject</text>
<text text-anchor="middle" x="804" y="-130.5" font-family="Helvetica,sans-Serif" font-size="10.00">Builder.hpp</text>
</a>
</g>
</g>
<!-- Node13&#45;&gt;Node15 -->
<g id="edge16" class="edge">
<title>Node13&#45;&gt;Node15</title>
<path fill="none" stroke="midnightblue" d="M620.13,-258.21C616.04,-240.65 614.07,-217.25 626,-201 632.83,-191.69 687.21,-175.4 734.08,-162.78"/>
<polygon fill="midnightblue" stroke="midnightblue" points="616.86,-259.53 622.84,-268.27 623.62,-257.71 616.86,-259.53"/>
</g>
<!-- Node17 -->
<g id="node17" class="node">
<title>Node17</title>
<g id="a_node17"><a xlink:href="ObjectBuilder_8hpp.html" target="_top" xlink:title=" ">
<polygon fill="none" stroke="black" points="805.5,-201.5 805.5,-231.5 966.5,-231.5 966.5,-201.5 805.5,-201.5"/>
<text text-anchor="start" x="813.5" y="-219.5" font-family="Helvetica,sans-Serif" font-size="10.00">includes/platformer</text>
<text text-anchor="middle" x="886" y="-208.5" font-family="Helvetica,sans-Serif" font-size="10.00">&#45;engine/Builder/ObjectBuilder.hpp</text>
</a>
</g>
</g>
<!-- Node13&#45;&gt;Node17 -->
<g id="edge18" class="edge">
<title>Node13&#45;&gt;Node17</title>
<path fill="none" stroke="midnightblue" d="M693.55,-265.98C735.7,-255.37 789.86,-241.72 829.99,-231.61"/>
<polygon fill="midnightblue" stroke="midnightblue" points="692.51,-262.64 683.66,-268.48 694.22,-269.43 692.51,-262.64"/>
</g>
<!-- Node18 -->
<g id="node18" class="node">
<title>Node18</title>
<g id="a_node18"><a xlink:href="Animator_8hpp.html" target="_top" xlink:title=" ">
<polygon fill="none" stroke="black" points="474.5,-201.5 474.5,-231.5 577.5,-231.5 577.5,-201.5 474.5,-201.5"/>
<text text-anchor="start" x="482.5" y="-219.5" font-family="Helvetica,sans-Serif" font-size="10.00">includes/spic&#45;prj&#45;api</text>
<text text-anchor="middle" x="526" y="-208.5" font-family="Helvetica,sans-Serif" font-size="10.00">/Animator.hpp</text>
</a>
</g>
</g>
<!-- Node13&#45;&gt;Node18 -->
<g id="edge20" class="edge">
<title>Node13&#45;&gt;Node18</title>
<path fill="none" stroke="midnightblue" d="M597.42,-263.02C581.55,-252.9 562.52,-240.77 548.09,-231.58"/>
<polygon fill="midnightblue" stroke="midnightblue" points="595.55,-265.97 605.87,-268.4 599.32,-260.07 595.55,-265.97"/>
</g>
<!-- Node16 -->
<g id="node16" class="node">
<title>Node16</title>
<g id="a_node16"><a xlink:href="GameObjectBuilder_8cpp.html" target="_top" xlink:title=" ">
<polygon fill="none" stroke="black" points="719.5,-62 719.5,-81 888.5,-81 888.5,-62 719.5,-62"/>
<text text-anchor="middle" x="804" y="-69" font-family="Helvetica,sans-Serif" font-size="10.00">src/Builder/GameObjectBuilder.cpp</text>
</a>
</g>
</g>
<!-- Node15&#45;&gt;Node16 -->
<g id="edge17" class="edge">
<title>Node15&#45;&gt;Node16</title>
<path fill="none" stroke="midnightblue" d="M804,-113.1C804,-101.53 804,-89.18 804,-81.17"/>
<polygon fill="midnightblue" stroke="midnightblue" points="800.5,-113.36 804,-123.36 807.5,-113.36 800.5,-113.36"/>
</g>
<!-- Node17&#45;&gt;Node15 -->
<g id="edge19" class="edge">
<title>Node17&#45;&gt;Node15</title>
<path fill="none" stroke="midnightblue" d="M861.76,-194.66C850.69,-185.15 837.66,-173.94 826.78,-164.59"/>
<polygon fill="midnightblue" stroke="midnightblue" points="859.54,-197.37 869.41,-201.23 864.11,-192.06 859.54,-197.37"/>
</g>
<!-- Node18&#45;&gt;Node6 -->
<g id="edge22" class="edge">
<title>Node18&#45;&gt;Node6</title>
<path fill="none" stroke="midnightblue" d="M473.27,-198.37C429.61,-184.19 369.42,-164.63 335.33,-153.55"/>
<polygon fill="midnightblue" stroke="midnightblue" points="472.28,-201.73 482.87,-201.49 474.44,-195.07 472.28,-201.73"/>
</g>
<!-- Node18&#45;&gt;Node15 -->
<g id="edge23" class="edge">
<title>Node18&#45;&gt;Node15</title>
<path fill="none" stroke="midnightblue" d="M587.5,-199.9C630.91,-188.89 689.15,-174.13 734.29,-162.68"/>
<polygon fill="midnightblue" stroke="midnightblue" points="586.47,-196.55 577.64,-202.4 588.19,-203.34 586.47,-196.55"/>
</g>
<!-- Node19 -->
<g id="node19" class="node">
<title>Node19</title>
<g id="a_node19"><a xlink:href="Animator_8cpp.html" target="_top" xlink:title=" ">
<polygon fill="none" stroke="black" points="606,-134.5 606,-153.5 716,-153.5 716,-134.5 606,-134.5"/>
<text text-anchor="middle" x="661" y="-141.5" font-family="Helvetica,sans-Serif" font-size="10.00">src/API/Animator.cpp</text>
</a>
</g>
</g>
<!-- Node18&#45;&gt;Node19 -->
<g id="edge21" class="edge">
<title>Node18&#45;&gt;Node19</title>
<path fill="none" stroke="midnightblue" d="M562.09,-196.65C588.94,-182.63 624.3,-164.16 644.66,-153.53"/>
<polygon fill="midnightblue" stroke="midnightblue" points="560.24,-193.67 552.99,-201.4 563.48,-199.88 560.24,-193.67"/>
</g>
<!-- Node20 -->
<g id="node20" class="node">
<title>Node20</title>
<g id="a_node20"><a xlink:href="RenderSystem_8hpp.html" target="_top" xlink:title=" ">
<polygon fill="none" stroke="black" points="420,-129 420,-159 588,-159 588,-129 420,-129"/>
<text text-anchor="start" x="428" y="-147" font-family="Helvetica,sans-Serif" font-size="10.00">includes/platformer</text>
<text text-anchor="middle" x="504" y="-136" font-family="Helvetica,sans-Serif" font-size="10.00">&#45;engine/Texture/RenderSystem.hpp</text>
</a>
</g>
</g>
<!-- Node18&#45;&gt;Node20 -->
<g id="edge24" class="edge">
<title>Node18&#45;&gt;Node20</title>
<path fill="none" stroke="midnightblue" d="M518.53,-191.56C515.18,-180.82 511.34,-168.51 508.45,-159.25"/>
<polygon fill="midnightblue" stroke="midnightblue" points="515.23,-192.73 521.55,-201.23 521.91,-190.64 515.23,-192.73"/>
</g>
<!-- Node20&#45;&gt;Node7 -->
<g id="edge26" class="edge">
<title>Node20&#45;&gt;Node7</title>
<path fill="none" stroke="midnightblue" d="M472.9,-123.42C454.31,-111.72 431.13,-97.13 414.36,-86.57"/>
<polygon fill="midnightblue" stroke="midnightblue" points="471.28,-126.54 481.6,-128.9 475.01,-120.61 471.28,-126.54"/>
</g>
<!-- Node20&#45;&gt;Node9 -->
<g id="edge25" class="edge">
<title>Node20&#45;&gt;Node9</title>
<path fill="none" stroke="midnightblue" d="M504,-118.82C504,-88.88 504,-39.41 504,-19.6"/>
<polygon fill="midnightblue" stroke="midnightblue" points="500.5,-118.87 504,-128.87 507.5,-118.87 500.5,-118.87"/>
</g>
</g>
</svg>
