<?xml version="1.0" encoding="UTF-8" standalone="no"?>
<!DOCTYPE svg PUBLIC "-//W3C//DTD SVG 1.1//EN"
 "http://www.w3.org/Graphics/SVG/1.1/DTD/svg11.dtd">
<!-- Generated by graphviz version 2.44.0 ()
 -->
<!-- Title: includes/spic&#45;prj&#45;api/Camera.hpp Pages: 1 -->
<!--zoomable 530 -->
<svg id="main" version="1.1" xmlns="http://www.w3.org/2000/svg" xmlns:xlink="http://www.w3.org/1999/xlink" xml:space="preserve" onload="init(evt)">
<style type="text/css"><![CDATA[
.edge:hover path { stroke: red; }
.edge:hover polygon { stroke: red; fill: red; }
]]></style>
<script type="text/javascript"><![CDATA[
var edges = document.getElementsByTagName('g');
if (edges && edges.length) {
  for (var i=0;i<edges.length;i++) {
    if (edges[i].id.substr(0,4)=='edge') {
      edges[i].setAttribute('class','edge');
    }
  }
}
]]></script>
        <defs>
                <circle id="rim" cx="0" cy="0" r="7"/>
                <circle id="rim2" cx="0" cy="0" r="3.5"/>
                <g id="zoomPlus">
                        <use xlink:href="#rim" fill="#404040">
                                <set attributeName="fill" to="#808080" begin="zoomplus.mouseover" end="zoomplus.mouseout"/>
                        </use>
                        <path d="M-4,0h8M0,-4v8" fill="none" stroke="white" stroke-width="1.5" pointer-events="none"/>
                </g>
                <g id="zoomMin">
                        <use xlink:href="#rim" fill="#404040">
                                <set attributeName="fill" to="#808080" begin="zoomminus.mouseover" end="zoomminus.mouseout"/>
                        </use>
                        <path d="M-4,0h8" fill="none" stroke="white" stroke-width="1.5" pointer-events="none"/>
                </g>
                <g id="dirArrow">
                        <path fill="none" stroke="white" stroke-width="1.5" d="M0,-3.0v7 M-2.5,-0.5L0,-3.0L2.5,-0.5"/>
                </g>
               <g id="resetDef">
                       <use xlink:href="#rim2" fill="#404040">
                               <set attributeName="fill" to="#808080" begin="reset.mouseover" end="reset.mouseout"/>
                       </use>
               </g>
        </defs>

<script type="text/javascript">
var viewWidth = 2046;
var viewHeight = 530;
var sectionId = 'dynsection-1';
</script>
<script xlink:href="svgpan.js"/>
<svg id="graph" class="graph">
<g id="viewport">
<title>includes/spic&#45;prj&#45;api/Camera.hpp</title>
<!-- Node1 -->
<g id="node1" class="node">
<title>Node1</title>
<g id="a_node1"><a xlink:title=" ">
<polygon fill="#bfbfbf" stroke="black" points="205.5,-491.5 205.5,-521.5 308.5,-521.5 308.5,-491.5 205.5,-491.5"/>
<text text-anchor="start" x="213.5" y="-509.5" font-family="Helvetica,sans-Serif" font-size="10.00">includes/spic&#45;prj&#45;api</text>
<text text-anchor="middle" x="257" y="-498.5" font-family="Helvetica,sans-Serif" font-size="10.00">/Camera.hpp</text>
</a>
</g>
</g>
<!-- Node2 -->
<g id="node2" class="node">
<title>Node2</title>
<g id="a_node2"><a xlink:href="Camera_8cpp.html" target="_top" xlink:title=" ">
<polygon fill="none" stroke="black" points="125,-430 125,-449 229,-449 229,-430 125,-430"/>
<text text-anchor="middle" x="177" y="-437" font-family="Helvetica,sans-Serif" font-size="10.00">src/API/Camera.cpp</text>
</a>
</g>
</g>
<!-- Node1&#45;&gt;Node2 -->
<g id="edge1" class="edge">
<title>Node1&#45;&gt;Node2</title>
<path fill="none" stroke="midnightblue" d="M231.78,-485.01C216.93,-472.94 198.91,-458.3 187.7,-449.19"/>
<polygon fill="midnightblue" stroke="midnightblue" points="229.67,-487.81 239.64,-491.4 234.09,-482.37 229.67,-487.81"/>
</g>
<!-- Node3 -->
<g id="node3" class="node">
<title>Node3</title>
<g id="a_node3"><a xlink:href="SceneBuilder_8hpp.html" target="_top" xlink:title=" ">
<polygon fill="none" stroke="black" points="163,-357.5 163,-387.5 323,-387.5 323,-357.5 163,-357.5"/>
<text text-anchor="start" x="171" y="-375.5" font-family="Helvetica,sans-Serif" font-size="10.00">includes/platformer</text>
<text text-anchor="middle" x="243" y="-364.5" font-family="Helvetica,sans-Serif" font-size="10.00">&#45;engine/Builder/SceneBuilder.hpp</text>
</a>
</g>
</g>
<!-- Node1&#45;&gt;Node3 -->
<g id="edge2" class="edge">
<title>Node1&#45;&gt;Node3</title>
<path fill="none" stroke="midnightblue" d="M254.44,-481.39C251.53,-453.9 246.86,-409.89 244.49,-387.52"/>
<polygon fill="midnightblue" stroke="midnightblue" points="250.97,-481.8 255.5,-491.37 257.93,-481.06 250.97,-481.8"/>
</g>
<!-- Node5 -->
<g id="node5" class="node">
<title>Node5</title>
<g id="a_node5"><a xlink:href="Scene_8hpp.html" target="_top" xlink:title=" ">
<polygon fill="none" stroke="black" points="461.5,-424.5 461.5,-454.5 564.5,-454.5 564.5,-424.5 461.5,-424.5"/>
<text text-anchor="start" x="469.5" y="-442.5" font-family="Helvetica,sans-Serif" font-size="10.00">includes/spic&#45;prj&#45;api</text>
<text text-anchor="middle" x="513" y="-431.5" font-family="Helvetica,sans-Serif" font-size="10.00">/Scene.hpp</text>
</a>
</g>
</g>
<!-- Node1&#45;&gt;Node5 -->
<g id="edge4" class="edge">
<title>Node1&#45;&gt;Node5</title>
<path fill="none" stroke="midnightblue" d="M318.72,-489.83C362.32,-478.76 420.09,-464.09 461.27,-453.63"/>
<polygon fill="midnightblue" stroke="midnightblue" points="317.64,-486.49 308.81,-492.35 319.36,-493.28 317.64,-486.49"/>
</g>
<!-- Node4 -->
<g id="node4" class="node">
<title>Node4</title>
<g id="a_node4"><a xlink:href="SceneBuilder_8cpp.html" target="_top" xlink:title=" ">
<polygon fill="none" stroke="black" points="172,-296 172,-315 314,-315 314,-296 172,-296"/>
<text text-anchor="middle" x="243" y="-303" font-family="Helvetica,sans-Serif" font-size="10.00">src/Builder/SceneBuilder.cpp</text>
</a>
</g>
</g>
<!-- Node3&#45;&gt;Node4 -->
<g id="edge3" class="edge">
<title>Node3&#45;&gt;Node4</title>
<path fill="none" stroke="midnightblue" d="M243,-347.25C243,-336.02 243,-323.38 243,-315.19"/>
<polygon fill="midnightblue" stroke="midnightblue" points="239.5,-347.4 243,-357.4 246.5,-347.4 239.5,-347.4"/>
</g>
<!-- Node5&#45;&gt;Node3 -->
<g id="edge6" class="edge">
<title>Node5&#45;&gt;Node3</title>
<path fill="none" stroke="midnightblue" d="M451.34,-423.66C406.38,-412.83 345.83,-398.26 301.6,-387.61"/>
<polygon fill="midnightblue" stroke="midnightblue" points="450.72,-427.11 461.26,-426.04 452.36,-420.3 450.72,-427.11"/>
</g>
<!-- Node6 -->
<g id="node6" class="node">
<title>Node6</title>
<g id="a_node6"><a xlink:href="Scene_8cpp.html" target="_top" xlink:title=" ">
<polygon fill="none" stroke="black" points="189,-156.5 189,-175.5 299,-175.5 299,-156.5 189,-156.5"/>
<text text-anchor="middle" x="244" y="-163.5" font-family="Helvetica,sans-Serif" font-size="10.00">src/Scene/Scene.cpp</text>
</a>
</g>
</g>
<!-- Node5&#45;&gt;Node6 -->
<g id="edge5" class="edge">
<title>Node5&#45;&gt;Node6</title>
<path fill="none" stroke="midnightblue" d="M491.72,-417.03C436.3,-361.08 289.2,-212.62 252.42,-175.5"/>
<polygon fill="midnightblue" stroke="midnightblue" points="489.39,-419.64 498.92,-424.29 494.36,-414.72 489.39,-419.64"/>
</g>
<!-- Node7 -->
<g id="node7" class="node">
<title>Node7</title>
<g id="a_node7"><a xlink:href="Engine_8hpp.html" target="_top" xlink:title=" ">
<polygon fill="none" stroke="black" points="872.5,-73 872.5,-103 1003.5,-103 1003.5,-73 872.5,-73"/>
<text text-anchor="start" x="880.5" y="-91" font-family="Helvetica,sans-Serif" font-size="10.00">includes/platformer</text>
<text text-anchor="middle" x="938" y="-80" font-family="Helvetica,sans-Serif" font-size="10.00">&#45;engine/Engine/Engine.hpp</text>
</a>
</g>
</g>
<!-- Node5&#45;&gt;Node7 -->
<g id="edge7" class="edge">
<title>Node5&#45;&gt;Node7</title>
<path fill="none" stroke="midnightblue" d="M574.66,-432.33C692.47,-418.83 938,-381.67 938,-306.5 938,-306.5 938,-306.5 938,-237.5 938,-188.26 938,-129.83 938,-103.34"/>
<polygon fill="midnightblue" stroke="midnightblue" points="574.23,-428.86 564.69,-433.45 575.02,-435.81 574.23,-428.86"/>
</g>
<!-- Node21 -->
<g id="node21" class="node">
<title>Node21</title>
<g id="a_node21"><a xlink:href="ServerNetworkManager_8hpp.html" target="_top" xlink:title=" ">
<polygon fill="none" stroke="black" points="965.5,-145.5 965.5,-186.5 1134.5,-186.5 1134.5,-145.5 965.5,-145.5"/>
<text text-anchor="start" x="973.5" y="-174.5" font-family="Helvetica,sans-Serif" font-size="10.00">includes/platformer</text>
<text text-anchor="start" x="973.5" y="-163.5" font-family="Helvetica,sans-Serif" font-size="10.00">&#45;engine/Networking/ServerNetwork</text>
<text text-anchor="middle" x="1050" y="-152.5" font-family="Helvetica,sans-Serif" font-size="10.00">Manager.hpp</text>
</a>
</g>
</g>
<!-- Node5&#45;&gt;Node21 -->
<g id="edge21" class="edge">
<title>Node5&#45;&gt;Node21</title>
<path fill="none" stroke="midnightblue" d="M575.13,-438.76C681.7,-438.02 893.53,-430.99 952,-388 1019.8,-338.15 1041.51,-230.82 1047.74,-186.63"/>
<polygon fill="midnightblue" stroke="midnightblue" points="574.82,-435.26 564.84,-438.81 574.86,-442.26 574.82,-435.26"/>
</g>
<!-- Node22 -->
<g id="node22" class="node">
<title>Node22</title>
<g id="a_node22"><a xlink:href="Window_8hpp.html" target="_top" xlink:title=" ">
<polygon fill="none" stroke="black" points="606.5,-357.5 606.5,-387.5 743.5,-387.5 743.5,-357.5 606.5,-357.5"/>
<text text-anchor="start" x="614.5" y="-375.5" font-family="Helvetica,sans-Serif" font-size="10.00">includes/platformer</text>
<text text-anchor="middle" x="675" y="-364.5" font-family="Helvetica,sans-Serif" font-size="10.00">&#45;engine/Render/Window.hpp</text>
</a>
</g>
</g>
<!-- Node5&#45;&gt;Node22 -->
<g id="edge24" class="edge">
<title>Node5&#45;&gt;Node22</title>
<path fill="none" stroke="midnightblue" d="M557.75,-420.54C583.67,-410.14 615.84,-397.24 639.92,-387.58"/>
<polygon fill="midnightblue" stroke="midnightblue" points="556.13,-417.42 548.15,-424.4 558.74,-423.92 556.13,-417.42"/>
</g>
<!-- Node8 -->
<g id="node8" class="node">
<title>Node8</title>
<g id="a_node8"><a xlink:href="Animator_8cpp.html" target="_top" xlink:title=" ">
<polygon fill="none" stroke="black" points="0,-6 0,-25 110,-25 110,-6 0,-6"/>
<text text-anchor="middle" x="55" y="-13" font-family="Helvetica,sans-Serif" font-size="10.00">src/API/Animator.cpp</text>
</a>
</g>
</g>
<!-- Node7&#45;&gt;Node8 -->
<g id="edge8" class="edge">
<title>Node7&#45;&gt;Node8</title>
<path fill="none" stroke="midnightblue" d="M862,-78.92C823.14,-74.97 775.08,-70.35 732,-67 459.91,-45.81 389.22,-69.28 119,-31 108.85,-29.56 97.92,-27.34 88.03,-25.07"/>
<polygon fill="midnightblue" stroke="midnightblue" points="861.88,-82.43 872.19,-79.97 862.59,-75.47 861.88,-82.43"/>
</g>
<!-- Node9 -->
<g id="node9" class="node">
<title>Node9</title>
<g id="a_node9"><a xlink:href="RigidBody_8cpp.html" target="_top" xlink:title=" ">
<polygon fill="none" stroke="black" points="490,-6 490,-25 604,-25 604,-6 490,-6"/>
<text text-anchor="middle" x="547" y="-13" font-family="Helvetica,sans-Serif" font-size="10.00">src/API/RigidBody.cpp</text>
</a>
</g>
</g>
<!-- Node7&#45;&gt;Node9 -->
<g id="edge9" class="edge">
<title>Node7&#45;&gt;Node9</title>
<path fill="none" stroke="midnightblue" d="M862.58,-75.01C796.59,-64.27 698.24,-47.7 613,-31 603.67,-29.17 593.64,-27.05 584.29,-25"/>
<polygon fill="midnightblue" stroke="midnightblue" points="862.05,-78.46 872.48,-76.61 863.17,-71.55 862.05,-78.46"/>
</g>
<!-- Node10 -->
<g id="node10" class="node">
<title>Node10</title>
<g id="a_node10"><a xlink:href="CollisionBehaviour_8cpp.html" target="_top" xlink:title=" ">
<polygon fill="none" stroke="black" points="622,-6 622,-25 800,-25 800,-6 622,-6"/>
<text text-anchor="middle" x="711" y="-13" font-family="Helvetica,sans-Serif" font-size="10.00">src/Behaviour/CollisionBehaviour.cpp</text>
</a>
</g>
</g>
<!-- Node7&#45;&gt;Node10 -->
<g id="edge10" class="edge">
<title>Node7&#45;&gt;Node10</title>
<path fill="none" stroke="midnightblue" d="M883.12,-69.96C837.43,-55.77 774.28,-36.15 738.55,-25.05"/>
<polygon fill="midnightblue" stroke="midnightblue" points="882.29,-73.36 892.88,-72.99 884.37,-66.68 882.29,-73.36"/>
</g>
<!-- Node11 -->
<g id="node11" class="node">
<title>Node11</title>
<g id="a_node11"><a xlink:href="Debug_8cpp.html" target="_top" xlink:title=" ">
<polygon fill="none" stroke="black" points="818,-6 818,-25 928,-25 928,-6 818,-6"/>
<text text-anchor="middle" x="873" y="-13" font-family="Helvetica,sans-Serif" font-size="10.00">src/Debug/Debug.cpp</text>
</a>
</g>
</g>
<!-- Node7&#45;&gt;Node11 -->
<g id="edge11" class="edge">
<title>Node7&#45;&gt;Node11</title>
<path fill="none" stroke="midnightblue" d="M917.96,-65.26C905.59,-51.84 890.38,-35.35 881.2,-25.39"/>
<polygon fill="midnightblue" stroke="midnightblue" points="915.49,-67.75 924.85,-72.73 920.64,-63.01 915.49,-67.75"/>
</g>
<!-- Node12 -->
<g id="node12" class="node">
<title>Node12</title>
<g id="a_node12"><a xlink:href="GameObjectDirector_8cpp.html" target="_top" xlink:title=" ">
<polygon fill="none" stroke="black" points="296,-6 296,-25 472,-25 472,-6 296,-6"/>
<text text-anchor="middle" x="384" y="-13" font-family="Helvetica,sans-Serif" font-size="10.00">src/Director/GameObjectDirector.cpp</text>
</a>
</g>
</g>
<!-- Node7&#45;&gt;Node12 -->
<g id="edge12" class="edge">
<title>Node7&#45;&gt;Node12</title>
<path fill="none" stroke="midnightblue" d="M862.28,-78.34C771.57,-67.83 615.04,-49.23 481,-31 467.5,-29.16 452.97,-27.06 439.36,-25.03"/>
<polygon fill="midnightblue" stroke="midnightblue" points="862.13,-81.85 872.47,-79.52 862.94,-74.9 862.13,-81.85"/>
</g>
<!-- Node13 -->
<g id="node13" class="node">
<title>Node13</title>
<g id="a_node13"><a xlink:href="Engine_8cpp.html" target="_top" xlink:title=" ">
<polygon fill="none" stroke="black" points="946.5,-6 946.5,-25 1059.5,-25 1059.5,-6 946.5,-6"/>
<text text-anchor="middle" x="1003" y="-13" font-family="Helvetica,sans-Serif" font-size="10.00">src/Engine/Engine.cpp</text>
</a>
</g>
</g>
<!-- Node7&#45;&gt;Node13 -->
<g id="edge13" class="edge">
<title>Node7&#45;&gt;Node13</title>
<path fill="none" stroke="midnightblue" d="M958.04,-65.26C970.41,-51.84 985.62,-35.35 994.8,-25.39"/>
<polygon fill="midnightblue" stroke="midnightblue" points="955.36,-63.01 951.15,-72.73 960.51,-67.75 955.36,-63.01"/>
</g>
<!-- Node14 -->
<g id="node14" class="node">
<title>Node14</title>
<g id="a_node14"><a xlink:href="TMXParser_8cpp.html" target="_top" xlink:title=" ">
<polygon fill="none" stroke="black" points="1078,-6 1078,-25 1214,-25 1214,-6 1078,-6"/>
<text text-anchor="middle" x="1146" y="-13" font-family="Helvetica,sans-Serif" font-size="10.00">src/Facade/TMXParser.cpp</text>
</a>
</g>
</g>
<!-- Node7&#45;&gt;Node14 -->
<g id="edge14" class="edge">
<title>Node7&#45;&gt;Node14</title>
<path fill="none" stroke="midnightblue" d="M989.06,-69.69C1030.89,-55.52 1088.3,-36.06 1120.82,-25.03"/>
<polygon fill="midnightblue" stroke="midnightblue" points="987.94,-66.38 979.59,-72.9 990.19,-73.01 987.94,-66.38"/>
</g>
<!-- Node15 -->
<g id="node15" class="node">
<title>Node15</title>
<g id="a_node15"><a xlink:href="ClientNetworkManager_8cpp.html" target="_top" xlink:title=" ">
<polygon fill="none" stroke="black" points="1232.5,-0.5 1232.5,-30.5 1379.5,-30.5 1379.5,-0.5 1232.5,-0.5"/>
<text text-anchor="start" x="1240.5" y="-18.5" font-family="Helvetica,sans-Serif" font-size="10.00">src/Networking/ClientNetwork</text>
<text text-anchor="middle" x="1306" y="-7.5" font-family="Helvetica,sans-Serif" font-size="10.00">Manager.cpp</text>
</a>
</g>
</g>
<!-- Node7&#45;&gt;Node15 -->
<g id="edge15" class="edge">
<title>Node7&#45;&gt;Node15</title>
<path fill="none" stroke="midnightblue" d="M1013.85,-72.47C1078.05,-60.17 1169.48,-42.65 1232.89,-30.51"/>
<polygon fill="midnightblue" stroke="midnightblue" points="1012.95,-69.08 1003.79,-74.4 1014.27,-75.95 1012.95,-69.08"/>
</g>
<!-- Node16 -->
<g id="node16" class="node">
<title>Node16</title>
<g id="a_node16"><a xlink:href="ServerNetworkManager_8cpp.html" target="_top" xlink:title=" ">
<polygon fill="none" stroke="black" points="1886.5,-0.5 1886.5,-30.5 2037.5,-30.5 2037.5,-0.5 1886.5,-0.5"/>
<text text-anchor="start" x="1894.5" y="-18.5" font-family="Helvetica,sans-Serif" font-size="10.00">src/Networking/ServerNetwork</text>
<text text-anchor="middle" x="1962" y="-7.5" font-family="Helvetica,sans-Serif" font-size="10.00">Manager.cpp</text>
</a>
</g>
</g>
<!-- Node7&#45;&gt;Node16 -->
<g id="edge16" class="edge">
<title>Node7&#45;&gt;Node16</title>
<path fill="none" stroke="midnightblue" d="M1013.97,-85.34C1174.17,-81.22 1558.19,-68.01 1878,-31 1880.65,-30.69 1883.34,-30.36 1886.05,-30"/>
<polygon fill="midnightblue" stroke="midnightblue" points="1013.66,-81.85 1003.75,-85.6 1013.83,-88.85 1013.66,-81.85"/>
</g>
<!-- Node17 -->
<g id="node17" class="node">
<title>Node17</title>
<g id="a_node17"><a xlink:href="PlayerRigidBody_8cpp.html" target="_top" xlink:title=" ">
<polygon fill="none" stroke="black" points="1397.5,-6 1397.5,-25 1556.5,-25 1556.5,-6 1397.5,-6"/>
<text text-anchor="middle" x="1477" y="-13" font-family="Helvetica,sans-Serif" font-size="10.00">src/Physics/PlayerRigidBody.cpp</text>
</a>
</g>
</g>
<!-- Node7&#45;&gt;Node17 -->
<g id="edge17" class="edge">
<title>Node7&#45;&gt;Node17</title>
<path fill="none" stroke="midnightblue" d="M1013.92,-78.51C1103.65,-68.25 1257.41,-50 1389,-31 1401.41,-29.21 1414.78,-27.1 1427.26,-25.05"/>
<polygon fill="midnightblue" stroke="midnightblue" points="1013.38,-75.05 1003.84,-79.66 1014.17,-82 1013.38,-75.05"/>
</g>
<!-- Node18 -->
<g id="node18" class="node">
<title>Node18</title>
<g id="a_node18"><a xlink:href="RenderSystem_8cpp.html" target="_top" xlink:title=" ">
<polygon fill="none" stroke="black" points="128,-6 128,-25 278,-25 278,-6 128,-6"/>
<text text-anchor="middle" x="203" y="-13" font-family="Helvetica,sans-Serif" font-size="10.00">src/Texture/RenderSystem.cpp</text>
</a>
</g>
</g>
<!-- Node7&#45;&gt;Node18 -->
<g id="edge18" class="edge">
<title>Node7&#45;&gt;Node18</title>
<path fill="none" stroke="midnightblue" d="M861.97,-79.32C823.1,-75.47 775.04,-70.83 732,-67 534.36,-49.41 483.86,-55.9 287,-31 274.23,-29.38 260.43,-27.19 247.79,-25"/>
<polygon fill="midnightblue" stroke="midnightblue" points="861.86,-82.83 872.16,-80.34 862.55,-75.86 861.86,-82.83"/>
</g>
<!-- Node19 -->
<g id="node19" class="node">
<title>Node19</title>
<g id="a_node19"><a xlink:href="TextureManager_8cpp.html" target="_top" xlink:title=" ">
<polygon fill="none" stroke="black" points="1575,-6 1575,-25 1731,-25 1731,-6 1575,-6"/>
<text text-anchor="middle" x="1653" y="-13" font-family="Helvetica,sans-Serif" font-size="10.00">src/Texture/TextureManager.cpp</text>
</a>
</g>
</g>
<!-- Node7&#45;&gt;Node19 -->
<g id="edge19" class="edge">
<title>Node7&#45;&gt;Node19</title>
<path fill="none" stroke="midnightblue" d="M1013.76,-82.12C1131.98,-74.07 1367.39,-56.37 1566,-31 1578.91,-29.35 1592.84,-27.2 1605.69,-25.06"/>
<polygon fill="midnightblue" stroke="midnightblue" points="1013.47,-78.63 1003.72,-82.8 1013.94,-85.61 1013.47,-78.63"/>
</g>
<!-- Node20 -->
<g id="node20" class="node">
<title>Node20</title>
<g id="a_node20"><a xlink:href="ClickSystem_8cpp.html" target="_top" xlink:title=" ">
<polygon fill="none" stroke="black" points="1749.5,-6 1749.5,-25 1868.5,-25 1868.5,-6 1749.5,-6"/>
<text text-anchor="middle" x="1809" y="-13" font-family="Helvetica,sans-Serif" font-size="10.00">src/UI/ClickSystem.cpp</text>
</a>
</g>
</g>
<!-- Node7&#45;&gt;Node20 -->
<g id="edge20" class="edge">
<title>Node7&#45;&gt;Node20</title>
<path fill="none" stroke="midnightblue" d="M1013.94,-85.17C1156.75,-80.96 1474.82,-67.94 1740,-31 1750.79,-29.5 1762.42,-27.29 1773,-25.04"/>
<polygon fill="midnightblue" stroke="midnightblue" points="1013.44,-81.68 1003.55,-85.47 1013.65,-88.68 1013.44,-81.68"/>
</g>
<!-- Node21&#45;&gt;Node7 -->
<g id="edge23" class="edge">
<title>Node21&#45;&gt;Node7</title>
<path fill="none" stroke="midnightblue" d="M1012.65,-139.66C994.77,-127.53 974.04,-113.45 958.96,-103.23"/>
<polygon fill="midnightblue" stroke="midnightblue" points="1010.92,-142.71 1021.16,-145.43 1014.85,-136.92 1010.92,-142.71"/>
</g>
<!-- Node21&#45;&gt;Node16 -->
<g id="edge22" class="edge">
<title>Node21&#45;&gt;Node16</title>
<path fill="none" stroke="midnightblue" d="M1144.63,-156.37C1240.56,-147.02 1393.1,-130.51 1524,-109 1661.08,-86.47 1820.28,-50.31 1903.87,-30.53"/>
<polygon fill="midnightblue" stroke="midnightblue" points="1144.28,-152.88 1134.66,-157.33 1144.95,-159.85 1144.28,-152.88"/>
</g>
<!-- Node22&#45;&gt;Node7 -->
<g id="edge27" class="edge">
<title>Node22&#45;&gt;Node7</title>
<path fill="none" stroke="midnightblue" d="M753.53,-359.69C801.07,-351.02 855.76,-337.84 873,-321 881.1,-313.09 921.99,-152.63 934.41,-103.3"/>
<polygon fill="midnightblue" stroke="midnightblue" points="752.74,-356.28 743.5,-361.48 753.96,-363.17 752.74,-356.28"/>
</g>
<!-- Node23 -->
<g id="node23" class="node">
<title>Node23</title>
<g id="a_node23"><a xlink:href="Window_8cpp.html" target="_top" xlink:title=" ">
<polygon fill="none" stroke="black" points="745.5,-296 745.5,-315 864.5,-315 864.5,-296 745.5,-296"/>
<text text-anchor="middle" x="805" y="-303" font-family="Helvetica,sans-Serif" font-size="10.00">src/Render/Window.cpp</text>
</a>
</g>
</g>
<!-- Node22&#45;&gt;Node23 -->
<g id="edge25" class="edge">
<title>Node22&#45;&gt;Node23</title>
<path fill="none" stroke="midnightblue" d="M712.39,-352.8C737.32,-340.34 768.89,-324.56 787.99,-315.01"/>
<polygon fill="midnightblue" stroke="midnightblue" points="710.59,-349.79 703.21,-357.4 713.72,-356.05 710.59,-349.79"/>
</g>
<!-- Node24 -->
<g id="node24" class="node">
<title>Node24</title>
<g id="a_node24"><a xlink:href="Timer_8cpp.html" target="_top" xlink:title=" ">
<polygon fill="none" stroke="black" points="623,-296 623,-315 727,-315 727,-296 623,-296"/>
<text text-anchor="middle" x="675" y="-303" font-family="Helvetica,sans-Serif" font-size="10.00">src/Timer/Timer.cpp</text>
</a>
</g>
</g>
<!-- Node22&#45;&gt;Node24 -->
<g id="edge26" class="edge">
<title>Node22&#45;&gt;Node24</title>
<path fill="none" stroke="midnightblue" d="M675,-347.25C675,-336.02 675,-323.38 675,-315.19"/>
<polygon fill="midnightblue" stroke="midnightblue" points="671.5,-347.4 675,-357.4 678.5,-347.4 671.5,-347.4"/>
</g>
<!-- Node25 -->
<g id="node25" class="node">
<title>Node25</title>
<g id="a_node25"><a xlink:href="AnimatedSprite_8hpp.html" target="_top" xlink:title=" ">
<polygon fill="none" stroke="black" points="433.5,-290.5 433.5,-320.5 604.5,-320.5 604.5,-290.5 433.5,-290.5"/>
<text text-anchor="start" x="441.5" y="-308.5" font-family="Helvetica,sans-Serif" font-size="10.00">includes/platformer</text>
<text text-anchor="middle" x="519" y="-297.5" font-family="Helvetica,sans-Serif" font-size="10.00">&#45;engine/Texture/AnimatedSprite.hpp</text>
</a>
</g>
</g>
<!-- Node22&#45;&gt;Node25 -->
<g id="edge28" class="edge">
<title>Node22&#45;&gt;Node25</title>
<path fill="none" stroke="midnightblue" d="M631.91,-353.54C606.94,-343.14 575.97,-330.24 552.78,-320.58"/>
<polygon fill="midnightblue" stroke="midnightblue" points="630.57,-356.78 641.15,-357.4 633.27,-350.32 630.57,-356.78"/>
</g>
<!-- Node26 -->
<g id="node26" class="node">
<title>Node26</title>
<g id="a_node26"><a xlink:href="AnimatedSprite_8cpp.html" target="_top" xlink:title=" ">
<polygon fill="none" stroke="black" points="718.5,-229 718.5,-248 871.5,-248 871.5,-229 718.5,-229"/>
<text text-anchor="middle" x="795" y="-236" font-family="Helvetica,sans-Serif" font-size="10.00">src/Texture/AnimatedSprite.cpp</text>
</a>
</g>
</g>
<!-- Node25&#45;&gt;Node26 -->
<g id="edge29" class="edge">
<title>Node25&#45;&gt;Node26</title>
<path fill="none" stroke="midnightblue" d="M588.43,-288.15C642.59,-275.39 715.64,-258.19 758.79,-248.03"/>
<polygon fill="midnightblue" stroke="midnightblue" points="587.48,-284.78 578.55,-290.48 589.08,-291.59 587.48,-284.78"/>
</g>
<!-- Node27 -->
<g id="node27" class="node">
<title>Node27</title>
<g id="a_node27"><a xlink:href="GameObjectBuilder_8hpp.html" target="_top" xlink:title=" ">
<polygon fill="none" stroke="black" points="546.5,-145.5 546.5,-186.5 685.5,-186.5 685.5,-145.5 546.5,-145.5"/>
<text text-anchor="start" x="554.5" y="-174.5" font-family="Helvetica,sans-Serif" font-size="10.00">includes/platformer</text>
<text text-anchor="start" x="554.5" y="-163.5" font-family="Helvetica,sans-Serif" font-size="10.00">&#45;engine/Builder/GameObject</text>
<text text-anchor="middle" x="616" y="-152.5" font-family="Helvetica,sans-Serif" font-size="10.00">Builder.hpp</text>
</a>
</g>
</g>
<!-- Node25&#45;&gt;Node27 -->
<g id="edge30" class="edge">
<title>Node25&#45;&gt;Node27</title>
<path fill="none" stroke="midnightblue" d="M517.15,-279.97C517.02,-262.77 519.3,-239.93 530,-223 539.71,-207.64 555.34,-195.63 570.62,-186.74"/>
<polygon fill="midnightblue" stroke="midnightblue" points="513.66,-280.47 517.52,-290.34 520.66,-280.22 513.66,-280.47"/>
</g>
<!-- Node30 -->
<g id="node30" class="node">
<title>Node30</title>
<g id="a_node30"><a xlink:href="ObjectBuilder_8hpp.html" target="_top" xlink:title=" ">
<polygon fill="none" stroke="black" points="539.5,-223.5 539.5,-253.5 700.5,-253.5 700.5,-223.5 539.5,-223.5"/>
<text text-anchor="start" x="547.5" y="-241.5" font-family="Helvetica,sans-Serif" font-size="10.00">includes/platformer</text>
<text text-anchor="middle" x="620" y="-230.5" font-family="Helvetica,sans-Serif" font-size="10.00">&#45;engine/Builder/ObjectBuilder.hpp</text>
</a>
</g>
</g>
<!-- Node25&#45;&gt;Node30 -->
<g id="edge35" class="edge">
<title>Node25&#45;&gt;Node30</title>
<path fill="none" stroke="midnightblue" d="M549.71,-284.73C565.34,-274.68 583.97,-262.68 598.13,-253.58"/>
<polygon fill="midnightblue" stroke="midnightblue" points="547.43,-282.04 540.92,-290.4 551.22,-287.93 547.43,-282.04"/>
</g>
<!-- Node31 -->
<g id="node31" class="node">
<title>Node31</title>
<g id="a_node31"><a xlink:href="Animator_8hpp.html" target="_top" xlink:title=" ">
<polygon fill="none" stroke="black" points="379.5,-223.5 379.5,-253.5 482.5,-253.5 482.5,-223.5 379.5,-223.5"/>
<text text-anchor="start" x="387.5" y="-241.5" font-family="Helvetica,sans-Serif" font-size="10.00">includes/spic&#45;prj&#45;api</text>
<text text-anchor="middle" x="431" y="-230.5" font-family="Helvetica,sans-Serif" font-size="10.00">/Animator.hpp</text>
</a>
</g>
</g>
<!-- Node25&#45;&gt;Node31 -->
<g id="edge37" class="edge">
<title>Node25&#45;&gt;Node31</title>
<path fill="none" stroke="midnightblue" d="M491.86,-284.45C478.32,-274.45 462.27,-262.6 450.06,-253.58"/>
<polygon fill="midnightblue" stroke="midnightblue" points="489.78,-287.27 499.91,-290.4 493.94,-281.64 489.78,-287.27"/>
</g>
<!-- Node27&#45;&gt;Node16 -->
<g id="edge32" class="edge">
<title>Node27&#45;&gt;Node16</title>
<path fill="none" stroke="midnightblue" d="M695.87,-156.21C853.95,-138.86 1217.9,-99.08 1524,-67 1681.28,-50.51 1721.32,-52.46 1878,-31 1880.79,-30.62 1883.62,-30.21 1886.48,-29.79"/>
<polygon fill="midnightblue" stroke="midnightblue" points="695.32,-152.75 685.76,-157.32 696.08,-159.71 695.32,-152.75"/>
</g>
<!-- Node28 -->
<g id="node28" class="node">
<title>Node28</title>
<g id="a_node28"><a xlink:href="GameObjectBuilder_8cpp.html" target="_top" xlink:title=" ">
<polygon fill="none" stroke="black" points="554.5,-78.5 554.5,-97.5 723.5,-97.5 723.5,-78.5 554.5,-78.5"/>
<text text-anchor="middle" x="639" y="-85.5" font-family="Helvetica,sans-Serif" font-size="10.00">src/Builder/GameObjectBuilder.cpp</text>
</a>
</g>
</g>
<!-- Node27&#45;&gt;Node28 -->
<g id="edge31" class="edge">
<title>Node27&#45;&gt;Node28</title>
<path fill="none" stroke="midnightblue" d="M624.82,-135.85C628.97,-122.15 633.6,-106.83 636.41,-97.55"/>
<polygon fill="midnightblue" stroke="midnightblue" points="621.47,-134.84 621.92,-145.43 628.17,-136.87 621.47,-134.84"/>
</g>
<!-- Node29 -->
<g id="node29" class="node">
<title>Node29</title>
<g id="a_node29"><a xlink:href="GameObjectDirector_8hpp.html" target="_top" xlink:title=" ">
<polygon fill="none" stroke="black" points="393.5,-67.5 393.5,-108.5 536.5,-108.5 536.5,-67.5 393.5,-67.5"/>
<text text-anchor="start" x="401.5" y="-96.5" font-family="Helvetica,sans-Serif" font-size="10.00">includes/platformer</text>
<text text-anchor="start" x="401.5" y="-85.5" font-family="Helvetica,sans-Serif" font-size="10.00">&#45;engine/Director/GameObject</text>
<text text-anchor="middle" x="465" y="-74.5" font-family="Helvetica,sans-Serif" font-size="10.00">Director.hpp</text>
</a>
</g>
</g>
<!-- Node27&#45;&gt;Node29 -->
<g id="edge33" class="edge">
<title>Node27&#45;&gt;Node29</title>
<path fill="none" stroke="midnightblue" d="M568.13,-140.91C547.37,-130.46 523.37,-118.38 503.75,-108.51"/>
<polygon fill="midnightblue" stroke="midnightblue" points="566.61,-144.06 577.11,-145.43 569.75,-137.81 566.61,-144.06"/>
</g>
<!-- Node29&#45;&gt;Node12 -->
<g id="edge34" class="edge">
<title>Node29&#45;&gt;Node12</title>
<path fill="none" stroke="midnightblue" d="M434.69,-60.62C420.31,-48.1 404.1,-33.99 393.97,-25.17"/>
<polygon fill="midnightblue" stroke="midnightblue" points="432.6,-63.44 442.44,-67.36 437.19,-58.16 432.6,-63.44"/>
</g>
<!-- Node30&#45;&gt;Node27 -->
<g id="edge36" class="edge">
<title>Node30&#45;&gt;Node27</title>
<path fill="none" stroke="midnightblue" d="M618.61,-212.98C618.12,-204.35 617.58,-194.76 617.11,-186.59"/>
<polygon fill="midnightblue" stroke="midnightblue" points="615.13,-213.45 619.19,-223.23 622.12,-213.05 615.13,-213.45"/>
</g>
<!-- Node31&#45;&gt;Node6 -->
<g id="edge39" class="edge">
<title>Node31&#45;&gt;Node6</title>
<path fill="none" stroke="midnightblue" d="M383.9,-219.74C346.4,-205.61 295.57,-186.44 266.64,-175.53"/>
<polygon fill="midnightblue" stroke="midnightblue" points="383.02,-223.15 393.61,-223.4 385.48,-216.6 383.02,-223.15"/>
</g>
<!-- Node31&#45;&gt;Node8 -->
<g id="edge38" class="edge">
<title>Node31&#45;&gt;Node8</title>
<path fill="none" stroke="midnightblue" d="M393.65,-218.51C378.2,-209.86 360.55,-198.9 346,-187 326.52,-171.06 328,-160.29 308,-145 231.87,-86.81 125.38,-42.87 78.61,-25.11"/>
<polygon fill="midnightblue" stroke="midnightblue" points="391.99,-221.59 402.44,-223.32 395.35,-215.45 391.99,-221.59"/>
</g>
<!-- Node31&#45;&gt;Node27 -->
<g id="edge40" class="edge">
<title>Node31&#45;&gt;Node27</title>
<path fill="none" stroke="midnightblue" d="M477.45,-219.8C504.01,-209.68 537.38,-196.96 564.71,-186.55"/>
<polygon fill="midnightblue" stroke="midnightblue" points="476.09,-216.57 467.99,-223.4 478.58,-223.11 476.09,-216.57"/>
</g>
<!-- Node32 -->
<g id="node32" class="node">
<title>Node32</title>
<g id="a_node32"><a xlink:href="RenderSystem_8hpp.html" target="_top" xlink:title=" ">
<polygon fill="none" stroke="black" points="355,-151 355,-181 523,-181 523,-151 355,-151"/>
<text text-anchor="start" x="363" y="-169" font-family="Helvetica,sans-Serif" font-size="10.00">includes/platformer</text>
<text text-anchor="middle" x="439" y="-158" font-family="Helvetica,sans-Serif" font-size="10.00">&#45;engine/Texture/RenderSystem.hpp</text>
</a>
</g>
</g>
<!-- Node31&#45;&gt;Node32 -->
<g id="edge41" class="edge">
<title>Node31&#45;&gt;Node32</title>
<path fill="none" stroke="midnightblue" d="M433.75,-213.23C434.96,-202.57 436.34,-190.41 437.38,-181.25"/>
<polygon fill="midnightblue" stroke="midnightblue" points="430.27,-212.9 432.62,-223.23 437.22,-213.69 430.27,-212.9"/>
</g>
<!-- Node32&#45;&gt;Node7 -->
<g id="edge43" class="edge">
<title>Node32&#45;&gt;Node7</title>
<path fill="none" stroke="midnightblue" d="M514.66,-149.07C522.2,-147.63 529.74,-146.25 537,-145 654.6,-124.81 792.56,-106.77 872.17,-96.91"/>
<polygon fill="midnightblue" stroke="midnightblue" points="513.94,-145.64 504.79,-150.99 515.27,-152.51 513.94,-145.64"/>
</g>
<!-- Node32&#45;&gt;Node18 -->
<g id="edge42" class="edge">
<title>Node32&#45;&gt;Node18</title>
<path fill="none" stroke="midnightblue" d="M417.77,-143.3C390.32,-115.31 345.47,-69.85 341,-67 309.17,-46.68 268.02,-32.98 238.97,-25.03"/>
<polygon fill="midnightblue" stroke="midnightblue" points="415.51,-145.99 425,-150.68 420.51,-141.09 415.51,-145.99"/>
</g>
</g>
</svg>
        <g id="navigator" transform="translate(0 0)" fill="#404254">
                <rect fill="#f2f5e9" fill-opacity="0.5" stroke="#606060" stroke-width=".5" x="0" y="0" width="60" height="60"/>
                <use id="zoomplus" xlink:href="#zoomPlus" x="17" y="9" onmousedown="handleZoom(evt,'in')"/>
                <use id="zoomminus" xlink:href="#zoomMin" x="42" y="9" onmousedown="handleZoom(evt,'out')"/>
                <use id="reset" xlink:href="#resetDef" x="30" y="36" onmousedown="handleReset()"/>
                <g id="arrowUp" xlink:href="#dirArrow" transform="translate(30 24)" onmousedown="handlePan(0,-1)">
                  <use xlink:href="#rim" fill="#404040">
                        <set attributeName="fill" to="#808080" begin="arrowUp.mouseover" end="arrowUp.mouseout"/>
                  </use>
                  <path fill="none" stroke="white" stroke-width="1.5" d="M0,-3.0v7 M-2.5,-0.5L0,-3.0L2.5,-0.5"/>
                </g>
                <g id="arrowRight" xlink:href="#dirArrow" transform="rotate(90) translate(36 -43)" onmousedown="handlePan(1,0)">
                  <use xlink:href="#rim" fill="#404040">
                        <set attributeName="fill" to="#808080" begin="arrowRight.mouseover" end="arrowRight.mouseout"/>
                  </use>
                  <path fill="none" stroke="white" stroke-width="1.5" d="M0,-3.0v7 M-2.5,-0.5L0,-3.0L2.5,-0.5"/>
                </g>
                <g id="arrowDown" xlink:href="#dirArrow" transform="rotate(180) translate(-30 -48)" onmousedown="handlePan(0,1)">
                  <use xlink:href="#rim" fill="#404040">
                        <set attributeName="fill" to="#808080" begin="arrowDown.mouseover" end="arrowDown.mouseout"/>
                  </use>
                  <path fill="none" stroke="white" stroke-width="1.5" d="M0,-3.0v7 M-2.5,-0.5L0,-3.0L2.5,-0.5"/>
                </g>
                <g id="arrowLeft" xlink:href="#dirArrow" transform="rotate(270) translate(-36 17)" onmousedown="handlePan(-1,0)">
                  <use xlink:href="#rim" fill="#404040">
                        <set attributeName="fill" to="#808080" begin="arrowLeft.mouseover" end="arrowLeft.mouseout"/>
                  </use>
                  <path fill="none" stroke="white" stroke-width="1.5" d="M0,-3.0v7 M-2.5,-0.5L0,-3.0L2.5,-0.5"/>
                </g>
        </g>
        <svg viewBox="0 0 15 15" width="100%" height="30px" preserveAspectRatio="xMaxYMin meet">
         <g id="arrow_out" transform="scale(0.3 0.3)">
          <a xlink:href="Camera_8hpp__dep__incl_org.svg" target="_base">
           <rect id="button" ry="5" rx="5" y="6" x="6" height="38" width="38"
                fill="#f2f5e9" fill-opacity="0.5" stroke="#606060" stroke-width="1.0"/>
           <path id="arrow"
             d="M 11.500037,31.436501 C 11.940474,20.09759 22.043105,11.32322 32.158766,21.979434 L 37.068811,17.246167 C 37.068811,17.246167 37.088388,32 37.088388,32 L 22.160133,31.978069 C 22.160133,31.978069 26.997745,27.140456 26.997745,27.140456 C 18.528582,18.264221 13.291696,25.230495 11.500037,31.436501 z"
             style="fill:#404040;"/>
          </a>
         </g>
        </svg>
</svg>
