<svg xmlns="http://www.w3.org/2000/svg" xmlns:xlink="http://www.w3.org/1999/xlink" id="main" onload="init(evt)" version="1.1" xml:space="preserve"><style type="text/css">.edge:hover path{stroke:red}.edge:hover polygon{stroke:red;fill:red}</style><script type="text/javascript"><![CDATA[
var edges = document.getElementsByTagName('g');
if (edges && edges.length) {
  for (var i=0;i<edges.length;i++) {
    if (edges[i].id.substr(0,4)=='edge') {
      edges[i].setAttribute('class','edge');
    }
  }
}
]]></script><defs><circle id="rim" cx="0" cy="0" r="7"/><circle id="rim2" cx="0" cy="0" r="3.5"/><g id="zoomPlus"><use fill="#404040" xlink:href="#rim"><set attributeName="fill" begin="zoomplus.mouseover" end="zoomplus.mouseout" to="#808080"/></use><path fill="none" stroke="#fff" stroke-width="1.5" d="M-4,0h8M0,-4v8" pointer-events="none"/></g><g id="zoomMin"><use fill="#404040" xlink:href="#rim"><set attributeName="fill" begin="zoomminus.mouseover" end="zoomminus.mouseout" to="#808080"/></use><path fill="none" stroke="#fff" stroke-width="1.5" d="M-4,0h8" pointer-events="none"/></g><g id="dirArrow"><path fill="none" stroke="#fff" stroke-width="1.5" d="M0,-3.0v7 M-2.5,-0.5L0,-3.0L2.5,-0.5"/></g><g id="resetDef"><use fill="#404040" xlink:href="#rim2"><set attributeName="fill" begin="reset.mouseover" end="reset.mouseout" to="#808080"/></use></g></defs><script type="text/javascript">var viewWidth = 666; var viewHeight = 263; var sectionId = &apos;dynsection-0&apos;;</script><script xlink:href="svgpan.js"/><svg id="graph" class="graph"><g id="viewport"><title>src/API/Camera.cpp</title><g id="node1" class="node"><title>Node1</title><g id="a_node1"><a><polygon fill="#bfbfbf" stroke="#000" points="349.5 -235.5 349.5 -254.5 453.5 -254.5 453.5 -235.5 349.5 -235.5"/><text x="401.5" y="-242.5" font-family="Helvetica,sans-Serif" font-size="10" text-anchor="middle">src/API/Camera.cpp</text></a></g></g><g id="node2" class="node"><title>Node2</title><g id="a_node2"><a target="_top" xlink:href="Camera_8hpp.html"><polygon fill="none" stroke="#000" points="298.5 -179.5 298.5 -198.5 366.5 -198.5 366.5 -179.5 298.5 -179.5"/><text x="332.5" y="-186.5" font-family="Helvetica,sans-Serif" font-size="10" text-anchor="middle">Camera.hpp</text></a></g></g><g id="edge1" class="edge"><title>Node1-&gt;Node2</title><path fill="none" stroke="#191970" d="M390.41,-235.32C380.01,-227.18 364.24,-214.84 351.78,-205.09"/><polygon fill="#191970" stroke="#191970" points="353.82 -202.24 343.79 -198.83 349.51 -207.75 353.82 -202.24"/></g><g id="node16" class="node"><title>Node16</title><g id="a_node16"><a target="_top" xlink:href="InvalidSizeException_8hpp.html"><polygon fill="none" stroke="#000" points="384.5 -179.5 384.5 -198.5 558.5 -198.5 558.5 -179.5 384.5 -179.5"/><text x="471.5" y="-186.5" font-family="Helvetica,sans-Serif" font-size="10" text-anchor="middle">Exceptions/InvalidSizeException.hpp</text></a></g></g><g id="edge20" class="edge"><title>Node1-&gt;Node16</title><path fill="none" stroke="#191970" d="M412.75,-235.32C423.3,-227.18 439.3,-214.84 451.94,-205.09"/><polygon fill="#191970" stroke="#191970" points="454.27 -207.71 460.05 -198.83 449.99 -202.17 454.27 -207.71"/></g><g id="node3" class="node"><title>Node3</title><g id="a_node3"><a target="_top" xlink:href="GameObject_8hpp.html"><polygon fill="none" stroke="#000" points="312 -123.5 312 -142.5 401 -142.5 401 -123.5 312 -123.5"/><text x="356.5" y="-130.5" font-family="Helvetica,sans-Serif" font-size="10" text-anchor="middle">GameObject.hpp</text></a></g></g><g id="edge2" class="edge"><title>Node2-&gt;Node3</title><path fill="none" stroke="#191970" d="M336.46,-179.08C339.71,-171.77 344.42,-161.18 348.45,-152.1"/><polygon fill="#191970" stroke="#191970" points="351.75 -153.31 352.61 -142.75 345.35 -150.47 351.75 -153.31"/></g><g id="node15" class="node"><title>Node15</title><g id="a_node15"><a target="_top" xlink:href="Color_8hpp.html"><polygon fill="none" stroke="#000" points="237 -123.5 237 -142.5 294 -142.5 294 -123.5 237 -123.5"/><text x="265.5" y="-130.5" font-family="Helvetica,sans-Serif" font-size="10" text-anchor="middle">Color.hpp</text></a></g></g><g id="edge19" class="edge"><title>Node2-&gt;Node15</title><path fill="none" stroke="#191970" d="M321.74,-179.32C311.73,-171.26 296.61,-159.08 284.57,-149.37"/><polygon fill="#191970" stroke="#191970" points="286.44 -146.38 276.46 -142.83 282.05 -151.83 286.44 -146.38"/></g><g id="node4" class="node"><title>Node4</title><g id="a_node4"><a target="_top" xlink:href="Component_8hpp.html"><polygon fill="none" stroke="#000" points="187.5 -67.5 187.5 -86.5 271.5 -86.5 271.5 -67.5 187.5 -67.5"/><text x="229.5" y="-74.5" font-family="Helvetica,sans-Serif" font-size="10" text-anchor="middle">Component.hpp</text></a></g></g><g id="edge3" class="edge"><title>Node3-&gt;Node4</title><path fill="none" stroke="#191970" d="M336.38,-123.44C315.48,-114.56 282.57,-100.56 258.78,-90.45"/><polygon fill="#191970" stroke="#191970" points="260.1 -87.21 249.53 -86.52 257.36 -93.65 260.1 -87.21"/></g><g id="node5" class="node"><title>Node5</title><g id="a_node5"><a><polygon fill="none" stroke="#bfbfbf" points="0 -6 0 -25 51 -25 51 -6 0 -6"/><text x="25.5" y="-13" font-family="Helvetica,sans-Serif" font-size="10" text-anchor="middle">memory</text></a></g></g><g id="edge13" class="edge"><title>Node3-&gt;Node5</title><path fill="none" stroke="#191970" d="M311.99,-123.82C260.88,-114.14 180.37,-97.97 151.5,-87 112.23,-72.08 70.38,-46.48 46.15,-30.58"/><polygon fill="#191970" stroke="#191970" points="48.04 -27.63 37.77 -25 44.16 -33.46 48.04 -27.63"/></g><g id="node6" class="node"><title>Node6</title><g id="a_node6"><a><polygon fill="none" stroke="#bfbfbf" points="69 -.5 69 -30.5 164 -30.5 164 -.5 69 -.5"/><text x="77" y="-18.5" font-family="Helvetica,sans-Serif" font-size="10" text-anchor="start">boost/serialization</text><text x="116.5" y="-7.5" font-family="Helvetica,sans-Serif" font-size="10" text-anchor="middle">/access.hpp</text></a></g></g><g id="edge15" class="edge"><title>Node3-&gt;Node6</title><path fill="none" stroke="#191970" d="M311.87,-123.86C266.77,-115.09 200.67,-100.55 178.5,-87 158.97,-75.06 142.21,-55.01 131.06,-39.33"/><polygon fill="#191970" stroke="#191970" points="133.69 -36.98 125.16 -30.7 127.91 -40.93 133.69 -36.98"/></g><g id="node7" class="node"><title>Node7</title><g id="a_node7"><a><polygon fill="none" stroke="#bfbfbf" points="182 -.5 182 -30.5 277 -30.5 277 -.5 182 -.5"/><text x="190" y="-18.5" font-family="Helvetica,sans-Serif" font-size="10" text-anchor="start">boost/serialization</text><text x="229.5" y="-7.5" font-family="Helvetica,sans-Serif" font-size="10" text-anchor="middle">/map.hpp</text></a></g></g><g id="edge16" class="edge"><title>Node3-&gt;Node7</title><path fill="none" stroke="#191970" d="M346.95,-123.32C327.02,-105.19 280.5,-62.88 252.36,-37.29"/><polygon fill="#191970" stroke="#191970" points="254.7 -34.68 244.94 -30.55 249.99 -39.86 254.7 -34.68"/></g><g id="node8" class="node"><title>Node8</title><g id="a_node8"><a><polygon fill="none" stroke="#bfbfbf" points="295 -.5 295 -30.5 390 -30.5 390 -.5 295 -.5"/><text x="303" y="-18.5" font-family="Helvetica,sans-Serif" font-size="10" text-anchor="start">boost/serialization</text><text x="342.5" y="-7.5" font-family="Helvetica,sans-Serif" font-size="10" text-anchor="middle">/vector.hpp</text></a></g></g><g id="edge17" class="edge"><title>Node3-&gt;Node8</title><path fill="none" stroke="#191970" d="M355.45,-123.32C353.34,-105.97 348.56,-66.46 345.43,-40.66"/><polygon fill="#191970" stroke="#191970" points="348.88 -40.05 344.2 -30.55 341.93 -40.89 348.88 -40.05"/></g><g id="node9" class="node"><title>Node9</title><g id="a_node9"><a><polygon fill="none" stroke="#bfbfbf" points="408 -.5 408 -30.5 503 -30.5 503 -.5 408 -.5"/><text x="416" y="-18.5" font-family="Helvetica,sans-Serif" font-size="10" text-anchor="start">boost/serialization</text><text x="455.5" y="-7.5" font-family="Helvetica,sans-Serif" font-size="10" text-anchor="middle">/shared_ptr.hpp</text></a></g></g><g id="edge18" class="edge"><title>Node3-&gt;Node9</title><path fill="none" stroke="#191970" d="M360.33,-123.39C366.39,-110.34 379.1,-85.13 394.5,-67 403.93,-55.89 416.01,-45.33 426.93,-36.76"/><polygon fill="#191970" stroke="#191970" points="429.15 -39.46 434.98 -30.62 424.91 -33.9 429.15 -39.46"/></g><g id="node10" class="node"><title>Node10</title><g id="a_node10"><a target="_top" xlink:href="Transform_8hpp.html"><polygon fill="none" stroke="#000" points="404 -67.5 404 -86.5 483 -86.5 483 -67.5 404 -67.5"/><text x="443.5" y="-74.5" font-family="Helvetica,sans-Serif" font-size="10" text-anchor="middle">Transform.hpp</text></a></g></g><g id="edge9" class="edge"><title>Node3-&gt;Node10</title><path fill="none" stroke="#191970" d="M370.48,-123.32C384.05,-114.9 404.88,-101.97 420.82,-92.07"/><polygon fill="#191970" stroke="#191970" points="422.91 -94.9 429.56 -86.65 419.21 -88.95 422.91 -94.9"/></g><g id="node12" class="node"><title>Node12</title><g id="a_node12"><a><polygon fill="none" stroke="#bfbfbf" points="501 -67.5 501 -86.5 542 -86.5 542 -67.5 501 -67.5"/><text x="521.5" y="-74.5" font-family="Helvetica,sans-Serif" font-size="10" text-anchor="middle">string</text></a></g></g><g id="edge11" class="edge"><title>Node3-&gt;Node12</title><path fill="none" stroke="#191970" d="M382.64,-123.44C412.04,-113.82 459.71,-98.22 490.83,-88.04"/><polygon fill="#191970" stroke="#191970" points="492.29 -91.24 500.7 -84.81 490.11 -84.59 492.29 -91.24"/></g><g id="node13" class="node"><title>Node13</title><g id="a_node13"><a><polygon fill="none" stroke="#bfbfbf" points="560.5 -67.5 560.5 -86.5 604.5 -86.5 604.5 -67.5 560.5 -67.5"/><text x="582.5" y="-74.5" font-family="Helvetica,sans-Serif" font-size="10" text-anchor="middle">vector</text></a></g></g><g id="edge12" class="edge"><title>Node3-&gt;Node13</title><path fill="none" stroke="#191970" d="M395.65,-123.48C432.85,-115.25 490.59,-102.17 550.19,-86.98"/><polygon fill="#191970" stroke="#191970" points="551.34 -90.3 560.16 -84.43 549.6 -83.52 551.34 -90.3"/></g><g id="node14" class="node"><title>Node14</title><g id="a_node14"><a><polygon fill="none" stroke="#bfbfbf" points="623 -67.5 623 -86.5 658 -86.5 658 -67.5 623 -67.5"/><text x="640.5" y="-74.5" font-family="Helvetica,sans-Serif" font-size="10" text-anchor="middle">map</text></a></g></g><g id="edge14" class="edge"><title>Node3-&gt;Node14</title><path fill="none" stroke="#191970" d="M401.03,-126.25C450.6,-119.4 533.17,-106.64 613.15,-86.75"/><polygon fill="#191970" stroke="#191970" points="614.05 -90.13 622.89 -84.29 612.34 -83.34 614.05 -90.13"/></g><g id="edge4" class="edge"><title>Node4-&gt;Node5</title><path fill="none" stroke="#191970" d="M190.88,-67.46C156.11,-59.37 103.82,-46.23 59.5,-31 57.63,-30.36 55.73,-29.66 53.81,-28.93"/><polygon fill="#191970" stroke="#191970" points="54.96 -25.62 44.37 -25.12 52.33 -32.11 54.96 -25.62"/></g><g id="edge5" class="edge"><title>Node4-&gt;Node6</title><path fill="none" stroke="#191970" d="M213.31,-67.48C197.43,-59.12 172.7,-46.09 152.2,-35.3"/><polygon fill="#191970" stroke="#191970" points="153.61 -32.09 143.13 -30.52 150.35 -38.28 153.61 -32.09"/></g><g id="edge6" class="edge"><title>Node4-&gt;Node7</title><path fill="none" stroke="#191970" d="M229.5,-67.48C229.5,-60.47 229.5,-50.19 229.5,-40.7"/><polygon fill="#191970" stroke="#191970" points="233 -40.52 229.5 -30.52 226 -40.52 233 -40.52"/></g><g id="edge7" class="edge"><title>Node4-&gt;Node8</title><path fill="none" stroke="#191970" d="M245.69,-67.48C261.57,-59.12 286.3,-46.09 306.8,-35.3"/><polygon fill="#191970" stroke="#191970" points="308.65 -38.28 315.87 -30.52 305.39 -32.09 308.65 -38.28"/></g><g id="edge8" class="edge"><title>Node4-&gt;Node9</title><path fill="none" stroke="#191970" d="M261.88,-67.48C297.32,-58.14 354.84,-43 398,-31.64"/><polygon fill="#191970" stroke="#191970" points="399.02 -34.99 407.8 -29.06 397.24 -28.22 399.02 -34.99"/></g><g id="node11" class="node"><title>Node11</title><g id="a_node11"><a target="_top" xlink:href="Point_8hpp.html"><polygon fill="none" stroke="#000" points="521 -6 521 -25 578 -25 578 -6 521 -6"/><text x="549.5" y="-13" font-family="Helvetica,sans-Serif" font-size="10" text-anchor="middle">Point.hpp</text></a></g></g><g id="edge10" class="edge"><title>Node10-&gt;Node11</title><path fill="none" stroke="#191970" d="M458.69,-67.48C476.16,-57.67 505.08,-41.43 525.58,-29.92"/><polygon fill="#191970" stroke="#191970" points="527.33 -32.96 534.34 -25.01 523.91 -26.85 527.33 -32.96"/></g><g id="node17" class="node"><title>Node17</title><g id="a_node17"><a><polygon fill="none" stroke="#bfbfbf" points="442 -123.5 442 -142.5 501 -142.5 501 -123.5 442 -123.5"/><text x="471.5" y="-130.5" font-family="Helvetica,sans-Serif" font-size="10" text-anchor="middle">stdexcept</text></a></g></g><g id="edge21" class="edge"><title>Node16-&gt;Node17</title><path fill="none" stroke="#191970" d="M471.5,-179.08C471.5,-172.01 471.5,-161.86 471.5,-152.99"/><polygon fill="#191970" stroke="#191970" points="475 -152.75 471.5 -142.75 468 -152.75 475 -152.75"/></g></g></svg><g id="navigator" fill="#404254" transform="translate(0 0)"><rect width="60" height="60" x="0" y="0" fill="#f2f5e9" fill-opacity=".5" stroke="#606060" stroke-width=".5"/><use id="zoomplus" x="17" y="9" onmousedown="handleZoom(evt,'in')" xlink:href="#zoomPlus"/><use id="zoomminus" x="42" y="9" onmousedown="handleZoom(evt,'out')" xlink:href="#zoomMin"/><use id="reset" x="30" y="36" onmousedown="handleReset()" xlink:href="#resetDef"/><g id="arrowUp" onmousedown="handlePan(0,-1)" transform="translate(30 24)" xlink:href="#dirArrow"><use fill="#404040" xlink:href="#rim"><set attributeName="fill" begin="arrowUp.mouseover" end="arrowUp.mouseout" to="#808080"/></use><path fill="none" stroke="#fff" stroke-width="1.5" d="M0,-3.0v7 M-2.5,-0.5L0,-3.0L2.5,-0.5"/></g><g id="arrowRight" onmousedown="handlePan(1,0)" transform="rotate(90) translate(36 -43)" xlink:href="#dirArrow"><use fill="#404040" xlink:href="#rim"><set attributeName="fill" begin="arrowRight.mouseover" end="arrowRight.mouseout" to="#808080"/></use><path fill="none" stroke="#fff" stroke-width="1.5" d="M0,-3.0v7 M-2.5,-0.5L0,-3.0L2.5,-0.5"/></g><g id="arrowDown" onmousedown="handlePan(0,1)" transform="rotate(180) translate(-30 -48)" xlink:href="#dirArrow"><use fill="#404040" xlink:href="#rim"><set attributeName="fill" begin="arrowDown.mouseover" end="arrowDown.mouseout" to="#808080"/></use><path fill="none" stroke="#fff" stroke-width="1.5" d="M0,-3.0v7 M-2.5,-0.5L0,-3.0L2.5,-0.5"/></g><g id="arrowLeft" onmousedown="handlePan(-1,0)" transform="rotate(270) translate(-36 17)" xlink:href="#dirArrow"><use fill="#404040" xlink:href="#rim"><set attributeName="fill" begin="arrowLeft.mouseover" end="arrowLeft.mouseout" to="#808080"/></use><path fill="none" stroke="#fff" stroke-width="1.5" d="M0,-3.0v7 M-2.5,-0.5L0,-3.0L2.5,-0.5"/></g></g><svg width="100%" height="30" preserveAspectRatio="xMaxYMin meet" viewBox="0 0 15 15"><g id="arrow_out" transform="scale(0.3 0.3)"><a target="_base" xlink:href="Camera_8cpp__incl_org.svg"><rect id="button" width="38" height="38" x="6" y="6" fill="#f2f5e9" fill-opacity=".5" stroke="#606060" stroke-width="1" rx="5" ry="5"/><path id="arrow" d="M 11.500037,31.436501 C 11.940474,20.09759 22.043105,11.32322 32.158766,21.979434 L 37.068811,17.246167 C 37.068811,17.246167 37.088388,32 37.088388,32 L 22.160133,31.978069 C 22.160133,31.978069 26.997745,27.140456 26.997745,27.140456 C 18.528582,18.264221 13.291696,25.230495 11.500037,31.436501 z" style="fill:#404040"/></a></g></svg></svg>