<?xml version="1.0" encoding="UTF-8" standalone="no"?>
<!DOCTYPE svg PUBLIC "-//W3C//DTD SVG 1.1//EN"
 "http://www.w3.org/Graphics/SVG/1.1/DTD/svg11.dtd">
<!-- Generated by graphviz version 2.44.0 ()
 -->
<!-- Title: includes/spic&#45;prj&#45;api/CircleCollider.hpp Pages: 1 -->
<svg width="1716pt" height="363pt"
 viewBox="0.00 0.00 1716.00 363.00" xmlns="http://www.w3.org/2000/svg" xmlns:xlink="http://www.w3.org/1999/xlink">
<g id="graph0" class="graph" transform="scale(1 1) rotate(0) translate(4 359)">
<title>includes/spic&#45;prj&#45;api/CircleCollider.hpp</title>
<!-- Node1 -->
<g id="node1" class="node">
<title>Node1</title>
<g id="a_node1"><a xlink:title=" ">
<polygon fill="#bfbfbf" stroke="black" points="606,-324.5 606,-354.5 709,-354.5 709,-324.5 606,-324.5"/>
<text text-anchor="start" x="614" y="-342.5" font-family="Helvetica,sans-Serif" font-size="10.00">includes/spic&#45;prj&#45;api</text>
<text text-anchor="middle" x="657.5" y="-331.5" font-family="Helvetica,sans-Serif" font-size="10.00">/CircleCollider.hpp</text>
</a>
</g>
</g>
<!-- Node2 -->
<g id="node2" class="node">
<title>Node2</title>
<g id="a_node2"><a xlink:href="Collider_8hpp.html" target="_top" xlink:title=" ">
<polygon fill="none" stroke="black" points="624,-268.5 624,-287.5 691,-287.5 691,-268.5 624,-268.5"/>
<text text-anchor="middle" x="657.5" y="-275.5" font-family="Helvetica,sans-Serif" font-size="10.00">Collider.hpp</text>
</a>
</g>
</g>
<!-- Node1&#45;&gt;Node2 -->
<g id="edge1" class="edge">
<title>Node1&#45;&gt;Node2</title>
<path fill="none" stroke="midnightblue" d="M657.5,-324.4C657.5,-316.47 657.5,-306.46 657.5,-297.86"/>
<polygon fill="midnightblue" stroke="midnightblue" points="661,-297.66 657.5,-287.66 654,-297.66 661,-297.66"/>
</g>
<!-- Node3 -->
<g id="node3" class="node">
<title>Node3</title>
<g id="a_node3"><a xlink:title=" ">
<polygon fill="none" stroke="#bfbfbf" points="388.5,-207 388.5,-226 432.5,-226 432.5,-207 388.5,-207"/>
<text text-anchor="middle" x="410.5" y="-214" font-family="Helvetica,sans-Serif" font-size="10.00">vector</text>
</a>
</g>
</g>
<!-- Node2&#45;&gt;Node3 -->
<g id="edge2" class="edge">
<title>Node2&#45;&gt;Node3</title>
<path fill="none" stroke="midnightblue" d="M623.79,-271.66C581.75,-264.59 507.93,-250.77 446.5,-232 444.22,-231.3 441.88,-230.52 439.54,-229.69"/>
<polygon fill="midnightblue" stroke="midnightblue" points="440.68,-226.38 430.09,-226.1 438.19,-232.92 440.68,-226.38"/>
</g>
<!-- Node4 -->
<g id="node4" class="node">
<title>Node4</title>
<g id="a_node4"><a xlink:href="Component_8hpp.html" target="_top" xlink:title=" ">
<polygon fill="none" stroke="black" points="526.5,-207 526.5,-226 610.5,-226 610.5,-207 526.5,-207"/>
<text text-anchor="middle" x="568.5" y="-214" font-family="Helvetica,sans-Serif" font-size="10.00">Component.hpp</text>
</a>
</g>
</g>
<!-- Node2&#45;&gt;Node4 -->
<g id="edge3" class="edge">
<title>Node2&#45;&gt;Node4</title>
<path fill="none" stroke="midnightblue" d="M644.75,-268.48C630.47,-258.93 607.1,-243.31 589.99,-231.87"/>
<polygon fill="midnightblue" stroke="midnightblue" points="591.49,-228.66 581.23,-226.01 587.6,-234.48 591.49,-228.66"/>
</g>
<!-- Node6 -->
<g id="node6" class="node">
<title>Node6</title>
<g id="a_node6"><a xlink:title=" ">
<polygon fill="none" stroke="#bfbfbf" points="0,-134.5 0,-164.5 95,-164.5 95,-134.5 0,-134.5"/>
<text text-anchor="start" x="8" y="-152.5" font-family="Helvetica,sans-Serif" font-size="10.00">boost/serialization</text>
<text text-anchor="middle" x="47.5" y="-141.5" font-family="Helvetica,sans-Serif" font-size="10.00">/access.hpp</text>
</a>
</g>
</g>
<!-- Node2&#45;&gt;Node6 -->
<g id="edge35" class="edge">
<title>Node2&#45;&gt;Node6</title>
<path fill="none" stroke="midnightblue" d="M623.93,-273.92C585.76,-269.28 522.51,-258.08 474.5,-232 456.82,-222.39 459.79,-209.39 441.5,-201 307.14,-139.36 254.41,-189.74 105.03,-165.06"/>
<polygon fill="midnightblue" stroke="midnightblue" points="105.5,-161.59 95.05,-163.32 104.31,-168.48 105.5,-161.59"/>
</g>
<!-- Node8 -->
<g id="node8" class="node">
<title>Node8</title>
<g id="a_node8"><a xlink:title=" ">
<polygon fill="none" stroke="#bfbfbf" points="113,-134.5 113,-164.5 208,-164.5 208,-134.5 113,-134.5"/>
<text text-anchor="start" x="121" y="-152.5" font-family="Helvetica,sans-Serif" font-size="10.00">boost/serialization</text>
<text text-anchor="middle" x="160.5" y="-141.5" font-family="Helvetica,sans-Serif" font-size="10.00">/vector.hpp</text>
</a>
</g>
</g>
<!-- Node2&#45;&gt;Node8 -->
<g id="edge37" class="edge">
<title>Node2&#45;&gt;Node8</title>
<path fill="none" stroke="midnightblue" d="M623.82,-269.35C594.72,-262 552.02,-249.44 517.5,-232 496.47,-221.38 496.36,-209.77 474.5,-201 370.09,-159.1 332.21,-185.93 218.24,-165.15"/>
<polygon fill="midnightblue" stroke="midnightblue" points="218.55,-161.65 208.07,-163.21 217.24,-168.53 218.55,-161.65"/>
</g>
<!-- Node10 -->
<g id="node10" class="node">
<title>Node10</title>
<g id="a_node10"><a xlink:title=" ">
<polygon fill="none" stroke="#bfbfbf" points="521,-134.5 521,-164.5 616,-164.5 616,-134.5 521,-134.5"/>
<text text-anchor="start" x="529" y="-152.5" font-family="Helvetica,sans-Serif" font-size="10.00">boost/serialization</text>
<text text-anchor="middle" x="568.5" y="-141.5" font-family="Helvetica,sans-Serif" font-size="10.00">/export.hpp</text>
</a>
</g>
</g>
<!-- Node2&#45;&gt;Node10 -->
<g id="edge36" class="edge">
<title>Node2&#45;&gt;Node10</title>
<path fill="none" stroke="midnightblue" d="M654.14,-268.04C648.36,-253.27 635.6,-223.22 619.5,-201 611.92,-190.54 602.12,-180.27 593.14,-171.76"/>
<polygon fill="midnightblue" stroke="midnightblue" points="595.26,-168.96 585.53,-164.76 590.53,-174.11 595.26,-168.96"/>
</g>
<!-- Node11 -->
<g id="node11" class="node">
<title>Node11</title>
<g id="a_node11"><a xlink:title=" ">
<polygon fill="none" stroke="#bfbfbf" points="634.5,-134.5 634.5,-164.5 738.5,-164.5 738.5,-134.5 634.5,-134.5"/>
<text text-anchor="start" x="642.5" y="-152.5" font-family="Helvetica,sans-Serif" font-size="10.00">boost/archive/binary</text>
<text text-anchor="middle" x="686.5" y="-141.5" font-family="Helvetica,sans-Serif" font-size="10.00">_iarchive.hpp</text>
</a>
</g>
</g>
<!-- Node2&#45;&gt;Node11 -->
<g id="edge39" class="edge">
<title>Node2&#45;&gt;Node11</title>
<path fill="none" stroke="midnightblue" d="M659.49,-268.31C663.85,-249.3 674.36,-203.47 680.91,-174.9"/>
<polygon fill="midnightblue" stroke="midnightblue" points="684.38,-175.42 683.2,-164.89 677.56,-173.85 684.38,-175.42"/>
</g>
<!-- Node12 -->
<g id="node12" class="node">
<title>Node12</title>
<g id="a_node12"><a xlink:title=" ">
<polygon fill="none" stroke="#bfbfbf" points="756.5,-134.5 756.5,-164.5 860.5,-164.5 860.5,-134.5 756.5,-134.5"/>
<text text-anchor="start" x="764.5" y="-152.5" font-family="Helvetica,sans-Serif" font-size="10.00">boost/archive/binary</text>
<text text-anchor="middle" x="808.5" y="-141.5" font-family="Helvetica,sans-Serif" font-size="10.00">_oarchive.hpp</text>
</a>
</g>
</g>
<!-- Node2&#45;&gt;Node12 -->
<g id="edge40" class="edge">
<title>Node2&#45;&gt;Node12</title>
<path fill="none" stroke="midnightblue" d="M666.15,-268.18C680.6,-253.59 710.82,-223.81 738.5,-201 751.37,-190.39 766.29,-179.46 779.03,-170.49"/>
<polygon fill="midnightblue" stroke="midnightblue" points="781.25,-173.21 787.46,-164.63 777.25,-167.47 781.25,-173.21"/>
</g>
<!-- Node13 -->
<g id="node13" class="node">
<title>Node13</title>
<g id="a_node13"><a xlink:href="portable__binary__iarchive_8hpp.html" target="_top" xlink:title=" ">
<polygon fill="none" stroke="black" points="1078,-134.5 1078,-164.5 1209,-164.5 1209,-134.5 1078,-134.5"/>
<text text-anchor="start" x="1086" y="-152.5" font-family="Helvetica,sans-Serif" font-size="10.00">Networking/boost/portable</text>
<text text-anchor="middle" x="1143.5" y="-141.5" font-family="Helvetica,sans-Serif" font-size="10.00">_binary_iarchive.hpp</text>
</a>
</g>
</g>
<!-- Node2&#45;&gt;Node13 -->
<g id="edge41" class="edge">
<title>Node2&#45;&gt;Node13</title>
<path fill="none" stroke="midnightblue" d="M684.67,-268.36C707.94,-260.43 741.96,-247.58 769.5,-232 789.38,-220.75 789.45,-209.87 810.5,-201 833.74,-191.2 976.91,-171.67 1067.8,-159.98"/>
<polygon fill="midnightblue" stroke="midnightblue" points="1068.31,-163.44 1077.79,-158.7 1067.42,-156.5 1068.31,-163.44"/>
</g>
<!-- Node28 -->
<g id="node28" class="node">
<title>Node28</title>
<g id="a_node28"><a xlink:href="portable__binary__oarchive_8hpp.html" target="_top" xlink:title=" ">
<polygon fill="none" stroke="black" points="879,-134.5 879,-164.5 1010,-164.5 1010,-134.5 879,-134.5"/>
<text text-anchor="start" x="887" y="-152.5" font-family="Helvetica,sans-Serif" font-size="10.00">Networking/boost/portable</text>
<text text-anchor="middle" x="944.5" y="-141.5" font-family="Helvetica,sans-Serif" font-size="10.00">_binary_oarchive.hpp</text>
</a>
</g>
</g>
<!-- Node2&#45;&gt;Node28 -->
<g id="edge42" class="edge">
<title>Node2&#45;&gt;Node28</title>
<path fill="none" stroke="midnightblue" d="M673.68,-268.43C689.71,-259.77 714.78,-245.73 735.5,-232 754.54,-219.38 756.13,-211.34 776.5,-201 805.29,-186.39 839.05,-175.22 868.72,-167.14"/>
<polygon fill="midnightblue" stroke="midnightblue" points="869.84,-170.47 878.61,-164.52 868.05,-163.7 869.84,-170.47"/>
</g>
<!-- Node32 -->
<g id="node32" class="node">
<title>Node32</title>
<g id="a_node32"><a xlink:title=" ">
<polygon fill="none" stroke="#bfbfbf" points="819,-201.5 819,-231.5 914,-231.5 914,-201.5 819,-201.5"/>
<text text-anchor="start" x="827" y="-219.5" font-family="Helvetica,sans-Serif" font-size="10.00">boost/serialization</text>
<text text-anchor="middle" x="866.5" y="-208.5" font-family="Helvetica,sans-Serif" font-size="10.00">/weak_ptr.hpp</text>
</a>
</g>
</g>
<!-- Node2&#45;&gt;Node32 -->
<g id="edge38" class="edge">
<title>Node2&#45;&gt;Node32</title>
<path fill="none" stroke="midnightblue" d="M687.44,-268.48C719.08,-259.47 769.73,-245.05 809.1,-233.84"/>
<polygon fill="midnightblue" stroke="midnightblue" points="810.19,-237.17 818.85,-231.07 808.27,-230.44 810.19,-237.17"/>
</g>
<!-- Node5 -->
<g id="node5" class="node">
<title>Node5</title>
<g id="a_node5"><a xlink:title=" ">
<polygon fill="none" stroke="#bfbfbf" points="226,-140 226,-159 277,-159 277,-140 226,-140"/>
<text text-anchor="middle" x="251.5" y="-147" font-family="Helvetica,sans-Serif" font-size="10.00">memory</text>
</a>
</g>
</g>
<!-- Node4&#45;&gt;Node5 -->
<g id="edge4" class="edge">
<title>Node4&#45;&gt;Node5</title>
<path fill="none" stroke="midnightblue" d="M537.82,-206.99C529.63,-204.87 520.76,-202.72 512.5,-201 412.5,-180.17 383.67,-193.25 285.5,-165 283.21,-164.34 280.87,-163.57 278.54,-162.73"/>
<polygon fill="midnightblue" stroke="midnightblue" points="279.78,-159.46 269.2,-159.02 277.2,-165.96 279.78,-159.46"/>
</g>
<!-- Node4&#45;&gt;Node6 -->
<g id="edge5" class="edge">
<title>Node4&#45;&gt;Node6</title>
<path fill="none" stroke="midnightblue" d="M526.46,-208.5C510.25,-205.93 491.54,-203.14 474.5,-201 313.34,-180.77 268.38,-193.34 104.96,-165.09"/>
<polygon fill="midnightblue" stroke="midnightblue" points="105.5,-161.63 95.05,-163.35 104.29,-168.53 105.5,-161.63"/>
</g>
<!-- Node7 -->
<g id="node7" class="node">
<title>Node7</title>
<g id="a_node7"><a xlink:title=" ">
<polygon fill="none" stroke="#bfbfbf" points="295,-134.5 295,-164.5 390,-164.5 390,-134.5 295,-134.5"/>
<text text-anchor="start" x="303" y="-152.5" font-family="Helvetica,sans-Serif" font-size="10.00">boost/serialization</text>
<text text-anchor="middle" x="342.5" y="-141.5" font-family="Helvetica,sans-Serif" font-size="10.00">/map.hpp</text>
</a>
</g>
</g>
<!-- Node4&#45;&gt;Node7 -->
<g id="edge6" class="edge">
<title>Node4&#45;&gt;Node7</title>
<path fill="none" stroke="midnightblue" d="M538.49,-206.87C503.33,-196.76 444.27,-179.77 400.15,-167.08"/>
<polygon fill="midnightblue" stroke="midnightblue" points="401,-163.68 390.42,-164.28 399.06,-170.41 401,-163.68"/>
</g>
<!-- Node4&#45;&gt;Node8 -->
<g id="edge7" class="edge">
<title>Node4&#45;&gt;Node8</title>
<path fill="none" stroke="midnightblue" d="M538.44,-206.94C530.09,-204.77 520.99,-202.61 512.5,-201 385.47,-176.94 348.5,-189.04 218.04,-165.14"/>
<polygon fill="midnightblue" stroke="midnightblue" points="218.53,-161.67 208.06,-163.27 217.25,-168.55 218.53,-161.67"/>
</g>
<!-- Node9 -->
<g id="node9" class="node">
<title>Node9</title>
<g id="a_node9"><a xlink:title=" ">
<polygon fill="none" stroke="#bfbfbf" points="408,-134.5 408,-164.5 503,-164.5 503,-134.5 408,-134.5"/>
<text text-anchor="start" x="416" y="-152.5" font-family="Helvetica,sans-Serif" font-size="10.00">boost/serialization</text>
<text text-anchor="middle" x="455.5" y="-141.5" font-family="Helvetica,sans-Serif" font-size="10.00">/shared_ptr.hpp</text>
</a>
</g>
</g>
<!-- Node4&#45;&gt;Node9 -->
<g id="edge8" class="edge">
<title>Node4&#45;&gt;Node9</title>
<path fill="none" stroke="midnightblue" d="M553.26,-206.73C536.81,-197.27 510.11,-181.91 488.77,-169.64"/>
<polygon fill="midnightblue" stroke="midnightblue" points="490.41,-166.54 479.99,-164.59 486.92,-172.61 490.41,-166.54"/>
</g>
<!-- Node4&#45;&gt;Node10 -->
<g id="edge9" class="edge">
<title>Node4&#45;&gt;Node10</title>
<path fill="none" stroke="midnightblue" d="M568.5,-206.73C568.5,-198.54 568.5,-185.92 568.5,-174.71"/>
<polygon fill="midnightblue" stroke="midnightblue" points="572,-174.59 568.5,-164.59 565,-174.59 572,-174.59"/>
</g>
<!-- Node4&#45;&gt;Node11 -->
<g id="edge10" class="edge">
<title>Node4&#45;&gt;Node11</title>
<path fill="none" stroke="midnightblue" d="M584.41,-206.73C601.66,-197.23 629.72,-181.78 652.06,-169.47"/>
<polygon fill="midnightblue" stroke="midnightblue" points="653.85,-172.48 660.92,-164.59 650.48,-166.35 653.85,-172.48"/>
</g>
<!-- Node4&#45;&gt;Node12 -->
<g id="edge11" class="edge">
<title>Node4&#45;&gt;Node12</title>
<path fill="none" stroke="midnightblue" d="M600.37,-206.87C637.63,-196.78 700.15,-179.84 746.97,-167.16"/>
<polygon fill="midnightblue" stroke="midnightblue" points="747.97,-170.52 756.7,-164.53 746.14,-163.76 747.97,-170.52"/>
</g>
<!-- Node4&#45;&gt;Node13 -->
<g id="edge12" class="edge">
<title>Node4&#45;&gt;Node13</title>
<path fill="none" stroke="midnightblue" d="M610.79,-210.83C690.67,-202.01 869.21,-182.2 1019.5,-165 1035.04,-163.22 1051.68,-161.29 1067.56,-159.44"/>
<polygon fill="midnightblue" stroke="midnightblue" points="1068.34,-162.87 1077.87,-158.24 1067.53,-155.92 1068.34,-162.87"/>
</g>
<!-- Node4&#45;&gt;Node28 -->
<g id="edge27" class="edge">
<title>Node4&#45;&gt;Node28</title>
<path fill="none" stroke="midnightblue" d="M610.93,-208.72C667.32,-199.64 770.33,-182.78 868.57,-165.14"/>
<polygon fill="midnightblue" stroke="midnightblue" points="869.45,-168.54 878.67,-163.32 868.21,-161.65 869.45,-168.54"/>
</g>
<!-- Node14 -->
<g id="node14" class="node">
<title>Node14</title>
<g id="a_node14"><a xlink:title=" ">
<polygon fill="none" stroke="#bfbfbf" points="1659,-73 1659,-92 1708,-92 1708,-73 1659,-73"/>
<text text-anchor="middle" x="1683.5" y="-80" font-family="Helvetica,sans-Serif" font-size="10.00">istream</text>
</a>
</g>
</g>
<!-- Node13&#45;&gt;Node14 -->
<g id="edge13" class="edge">
<title>Node13&#45;&gt;Node14</title>
<path fill="none" stroke="midnightblue" d="M1209.3,-148.25C1306.91,-146.48 1495.15,-137.62 1649.5,-98 1651.86,-97.39 1654.27,-96.65 1656.66,-95.82"/>
<polygon fill="midnightblue" stroke="midnightblue" points="1658.18,-98.98 1666.21,-92.07 1655.62,-92.47 1658.18,-98.98"/>
</g>
<!-- Node15 -->
<g id="node15" class="node">
<title>Node15</title>
<g id="a_node15"><a xlink:title=" ">
<polygon fill="none" stroke="#bfbfbf" points="897,-67.5 897,-97.5 992,-97.5 992,-67.5 897,-67.5"/>
<text text-anchor="start" x="905" y="-85.5" font-family="Helvetica,sans-Serif" font-size="10.00">boost/serialization</text>
<text text-anchor="middle" x="944.5" y="-74.5" font-family="Helvetica,sans-Serif" font-size="10.00">/string.hpp</text>
</a>
</g>
</g>
<!-- Node13&#45;&gt;Node15 -->
<g id="edge14" class="edge">
<title>Node13&#45;&gt;Node15</title>
<path fill="none" stroke="midnightblue" d="M1100.32,-134.4C1070.07,-124.52 1029.47,-111.25 997.29,-100.74"/>
<polygon fill="midnightblue" stroke="midnightblue" points="998.19,-97.35 987.6,-97.58 996.01,-104.01 998.19,-97.35"/>
</g>
<!-- Node16 -->
<g id="node16" class="node">
<title>Node16</title>
<g id="a_node16"><a xlink:title=" ">
<polygon fill="none" stroke="#bfbfbf" points="1264.5,-67.5 1264.5,-97.5 1380.5,-97.5 1380.5,-67.5 1264.5,-67.5"/>
<text text-anchor="start" x="1272.5" y="-85.5" font-family="Helvetica,sans-Serif" font-size="10.00">boost/serialization</text>
<text text-anchor="middle" x="1322.5" y="-74.5" font-family="Helvetica,sans-Serif" font-size="10.00">/item_version_type.hpp</text>
</a>
</g>
</g>
<!-- Node13&#45;&gt;Node16 -->
<g id="edge15" class="edge">
<title>Node13&#45;&gt;Node16</title>
<path fill="none" stroke="midnightblue" d="M1182.34,-134.4C1209.32,-124.6 1245.44,-111.48 1274.27,-101.02"/>
<polygon fill="midnightblue" stroke="midnightblue" points="1275.53,-104.28 1283.74,-97.58 1273.14,-97.7 1275.53,-104.28"/>
</g>
<!-- Node17 -->
<g id="node17" class="node">
<title>Node17</title>
<g id="a_node17"><a xlink:title=" ">
<polygon fill="none" stroke="#bfbfbf" points="1010.5,-67.5 1010.5,-97.5 1120.5,-97.5 1120.5,-67.5 1010.5,-67.5"/>
<text text-anchor="start" x="1018.5" y="-85.5" font-family="Helvetica,sans-Serif" font-size="10.00">boost/archive/archive</text>
<text text-anchor="middle" x="1065.5" y="-74.5" font-family="Helvetica,sans-Serif" font-size="10.00">_exception.hpp</text>
</a>
</g>
</g>
<!-- Node13&#45;&gt;Node17 -->
<g id="edge16" class="edge">
<title>Node13&#45;&gt;Node17</title>
<path fill="none" stroke="midnightblue" d="M1126.58,-134.4C1115.95,-125.54 1102.05,-113.96 1090.2,-104.09"/>
<polygon fill="midnightblue" stroke="midnightblue" points="1092.31,-101.29 1082.39,-97.58 1087.83,-106.67 1092.31,-101.29"/>
</g>
<!-- Node18 -->
<g id="node18" class="node">
<title>Node18</title>
<g id="a_node18"><a xlink:title=" ">
<polygon fill="none" stroke="#bfbfbf" points="1398.5,-67.5 1398.5,-97.5 1508.5,-97.5 1508.5,-67.5 1398.5,-67.5"/>
<text text-anchor="start" x="1406.5" y="-85.5" font-family="Helvetica,sans-Serif" font-size="10.00">boost/archive/basic</text>
<text text-anchor="middle" x="1453.5" y="-74.5" font-family="Helvetica,sans-Serif" font-size="10.00">_binary_iprimitive.hpp</text>
</a>
</g>
</g>
<!-- Node13&#45;&gt;Node18 -->
<g id="edge17" class="edge">
<title>Node13&#45;&gt;Node18</title>
<path fill="none" stroke="midnightblue" d="M1209.1,-135.41C1256.37,-125.89 1321.96,-112.51 1388.53,-98.19"/>
<polygon fill="midnightblue" stroke="midnightblue" points="1389.32,-101.6 1398.36,-96.07 1387.84,-94.75 1389.32,-101.6"/>
</g>
<!-- Node19 -->
<g id="node19" class="node">
<title>Node19</title>
<g id="a_node19"><a xlink:title=" ">
<polygon fill="none" stroke="#bfbfbf" points="1526.5,-67.5 1526.5,-97.5 1640.5,-97.5 1640.5,-67.5 1526.5,-67.5"/>
<text text-anchor="start" x="1534.5" y="-85.5" font-family="Helvetica,sans-Serif" font-size="10.00">boost/archive/detail</text>
<text text-anchor="middle" x="1583.5" y="-74.5" font-family="Helvetica,sans-Serif" font-size="10.00">/common_iarchive.hpp</text>
</a>
</g>
</g>
<!-- Node13&#45;&gt;Node19 -->
<g id="edge18" class="edge">
<title>Node13&#45;&gt;Node19</title>
<path fill="none" stroke="midnightblue" d="M1209.29,-141.27C1282.06,-132.9 1402.99,-117.9 1516.42,-98.11"/>
<polygon fill="midnightblue" stroke="midnightblue" points="1517.08,-101.54 1526.32,-96.36 1515.86,-94.65 1517.08,-101.54"/>
</g>
<!-- Node20 -->
<g id="node20" class="node">
<title>Node20</title>
<g id="a_node20"><a xlink:title=" ">
<polygon fill="none" stroke="#bfbfbf" points="1139,-67.5 1139,-97.5 1246,-97.5 1246,-67.5 1139,-67.5"/>
<text text-anchor="start" x="1147" y="-85.5" font-family="Helvetica,sans-Serif" font-size="10.00">boost/archive/detail</text>
<text text-anchor="middle" x="1192.5" y="-74.5" font-family="Helvetica,sans-Serif" font-size="10.00">/register_archive.hpp</text>
</a>
</g>
</g>
<!-- Node13&#45;&gt;Node20 -->
<g id="edge19" class="edge">
<title>Node13&#45;&gt;Node20</title>
<path fill="none" stroke="midnightblue" d="M1154.13,-134.4C1160.42,-126.05 1168.54,-115.29 1175.68,-105.81"/>
<polygon fill="midnightblue" stroke="midnightblue" points="1178.66,-107.67 1181.89,-97.58 1173.07,-103.45 1178.66,-107.67"/>
</g>
<!-- Node21 -->
<g id="node21" class="node">
<title>Node21</title>
<g id="a_node21"><a xlink:href="portable__binary__archive_8hpp.html" target="_top" xlink:title=" ">
<polygon fill="none" stroke="black" points="742,-73 742,-92 879,-92 879,-73 742,-73"/>
<text text-anchor="middle" x="810.5" y="-80" font-family="Helvetica,sans-Serif" font-size="10.00">portable_binary_archive.hpp</text>
</a>
</g>
</g>
<!-- Node13&#45;&gt;Node21 -->
<g id="edge20" class="edge">
<title>Node13&#45;&gt;Node21</title>
<path fill="none" stroke="midnightblue" d="M1077.71,-135.66C1015.31,-123.48 922.67,-105.39 864.48,-94.04"/>
<polygon fill="midnightblue" stroke="midnightblue" points="864.88,-90.55 854.39,-92.07 863.53,-97.42 864.88,-90.55"/>
</g>
<!-- Node22 -->
<g id="node22" class="node">
<title>Node22</title>
<g id="a_node22"><a xlink:title=" ">
<polygon fill="none" stroke="#bfbfbf" points="487,-6 487,-25 574,-25 574,-6 487,-6"/>
<text text-anchor="middle" x="530.5" y="-13" font-family="Helvetica,sans-Serif" font-size="10.00">boost/config.hpp</text>
</a>
</g>
</g>
<!-- Node21&#45;&gt;Node22 -->
<g id="edge21" class="edge">
<title>Node21&#45;&gt;Node22</title>
<path fill="none" stroke="midnightblue" d="M768.74,-72.96C722.89,-63.41 647.2,-47.17 582.5,-31 578.41,-29.98 574.15,-28.87 569.91,-27.73"/>
<polygon fill="midnightblue" stroke="midnightblue" points="570.69,-24.32 560.13,-25.06 568.85,-31.07 570.69,-24.32"/>
</g>
<!-- Node23 -->
<g id="node23" class="node">
<title>Node23</title>
<g id="a_node23"><a xlink:title=" ">
<polygon fill="none" stroke="#bfbfbf" points="592,-6 592,-25 683,-25 683,-6 592,-6"/>
<text text-anchor="middle" x="637.5" y="-13" font-family="Helvetica,sans-Serif" font-size="10.00">boost/cstdint.hpp</text>
</a>
</g>
</g>
<!-- Node21&#45;&gt;Node23 -->
<g id="edge22" class="edge">
<title>Node21&#45;&gt;Node23</title>
<path fill="none" stroke="midnightblue" d="M787.53,-72.87C757.33,-61.52 704.1,-41.52 669.84,-28.65"/>
<polygon fill="midnightblue" stroke="midnightblue" points="670.88,-25.3 660.29,-25.06 668.42,-31.86 670.88,-25.3"/>
</g>
<!-- Node24 -->
<g id="node24" class="node">
<title>Node24</title>
<g id="a_node24"><a xlink:title=" ">
<polygon fill="none" stroke="#bfbfbf" points="701.5,-6 701.5,-25 819.5,-25 819.5,-6 701.5,-6"/>
<text text-anchor="middle" x="760.5" y="-13" font-family="Helvetica,sans-Serif" font-size="10.00">boost/static_assert.hpp</text>
</a>
</g>
</g>
<!-- Node21&#45;&gt;Node24 -->
<g id="edge23" class="edge">
<title>Node21&#45;&gt;Node24</title>
<path fill="none" stroke="midnightblue" d="M803.76,-72.73C795.96,-62.6 782.95,-45.69 773.24,-33.06"/>
<polygon fill="midnightblue" stroke="midnightblue" points="776.01,-30.92 767.14,-25.13 770.46,-35.19 776.01,-30.92"/>
</g>
<!-- Node25 -->
<g id="node25" class="node">
<title>Node25</title>
<g id="a_node25"><a xlink:title=" ">
<polygon fill="none" stroke="#bfbfbf" points="838,-6 838,-25 883,-25 883,-6 838,-6"/>
<text text-anchor="middle" x="860.5" y="-13" font-family="Helvetica,sans-Serif" font-size="10.00">climits</text>
</a>
</g>
</g>
<!-- Node21&#45;&gt;Node25 -->
<g id="edge24" class="edge">
<title>Node21&#45;&gt;Node25</title>
<path fill="none" stroke="midnightblue" d="M817.24,-72.73C825.04,-62.6 838.05,-45.69 847.76,-33.06"/>
<polygon fill="midnightblue" stroke="midnightblue" points="850.54,-35.19 853.86,-25.13 844.99,-30.92 850.54,-35.19"/>
</g>
<!-- Node26 -->
<g id="node26" class="node">
<title>Node26</title>
<g id="a_node26"><a xlink:title=" ">
<polygon fill="none" stroke="#bfbfbf" points="901,-0.5 901,-30.5 1002,-30.5 1002,-0.5 901,-0.5"/>
<text text-anchor="start" x="909" y="-18.5" font-family="Helvetica,sans-Serif" font-size="10.00">boost/archive/basic</text>
<text text-anchor="middle" x="951.5" y="-7.5" font-family="Helvetica,sans-Serif" font-size="10.00">_archive.hpp</text>
</a>
</g>
</g>
<!-- Node21&#45;&gt;Node26 -->
<g id="edge25" class="edge">
<title>Node21&#45;&gt;Node26</title>
<path fill="none" stroke="midnightblue" d="M829.22,-72.87C850.2,-63.2 884.8,-47.25 911.85,-34.78"/>
<polygon fill="midnightblue" stroke="midnightblue" points="913.45,-37.89 921.07,-30.53 910.52,-31.54 913.45,-37.89"/>
</g>
<!-- Node27 -->
<g id="node27" class="node">
<title>Node27</title>
<g id="a_node27"><a xlink:title=" ">
<polygon fill="none" stroke="#bfbfbf" points="1020,-0.5 1020,-30.5 1115,-30.5 1115,-0.5 1020,-0.5"/>
<text text-anchor="start" x="1028" y="-18.5" font-family="Helvetica,sans-Serif" font-size="10.00">boost/predef/other</text>
<text text-anchor="middle" x="1067.5" y="-7.5" font-family="Helvetica,sans-Serif" font-size="10.00">/endian.h</text>
</a>
</g>
</g>
<!-- Node21&#45;&gt;Node27 -->
<g id="edge26" class="edge">
<title>Node21&#45;&gt;Node27</title>
<path fill="none" stroke="midnightblue" d="M844.66,-73C882.72,-63.51 946.33,-47.59 1010.04,-31.36"/>
<polygon fill="midnightblue" stroke="midnightblue" points="1011.02,-34.73 1019.85,-28.86 1009.29,-27.94 1011.02,-34.73"/>
</g>
<!-- Node28&#45;&gt;Node15 -->
<g id="edge29" class="edge">
<title>Node28&#45;&gt;Node15</title>
<path fill="none" stroke="midnightblue" d="M944.5,-134.4C944.5,-126.64 944.5,-116.81 944.5,-107.86"/>
<polygon fill="midnightblue" stroke="midnightblue" points="948,-107.58 944.5,-97.58 941,-107.58 948,-107.58"/>
</g>
<!-- Node28&#45;&gt;Node17 -->
<g id="edge30" class="edge">
<title>Node28&#45;&gt;Node17</title>
<path fill="none" stroke="midnightblue" d="M970.76,-134.4C988.2,-125.03 1011.3,-112.62 1030.33,-102.39"/>
<polygon fill="midnightblue" stroke="midnightblue" points="1032.14,-105.39 1039.3,-97.58 1028.83,-99.23 1032.14,-105.39"/>
</g>
<!-- Node28&#45;&gt;Node20 -->
<g id="edge33" class="edge">
<title>Node28&#45;&gt;Node20</title>
<path fill="none" stroke="midnightblue" d="M998.01,-134.48C1036.42,-124.41 1088.34,-110.8 1128.88,-100.17"/>
<polygon fill="midnightblue" stroke="midnightblue" points="1129.88,-103.53 1138.66,-97.61 1128.1,-96.76 1129.88,-103.53"/>
</g>
<!-- Node28&#45;&gt;Node21 -->
<g id="edge34" class="edge">
<title>Node28&#45;&gt;Node21</title>
<path fill="none" stroke="midnightblue" d="M915.42,-134.4C892.12,-123.09 859.69,-107.36 837.07,-96.39"/>
<polygon fill="midnightblue" stroke="midnightblue" points="838.56,-93.22 828.04,-92.01 835.51,-99.52 838.56,-93.22"/>
</g>
<!-- Node29 -->
<g id="node29" class="node">
<title>Node29</title>
<g id="a_node29"><a xlink:title=" ">
<polygon fill="none" stroke="#bfbfbf" points="405.5,-73 405.5,-92 457.5,-92 457.5,-73 405.5,-73"/>
<text text-anchor="middle" x="431.5" y="-80" font-family="Helvetica,sans-Serif" font-size="10.00">ostream</text>
</a>
</g>
</g>
<!-- Node28&#45;&gt;Node29 -->
<g id="edge28" class="edge">
<title>Node28&#45;&gt;Node29</title>
<path fill="none" stroke="midnightblue" d="M878.71,-135.39C875.6,-134.89 872.52,-134.43 869.5,-134 691.44,-108.9 641.13,-140.91 466.5,-98 463.99,-97.38 461.42,-96.61 458.87,-95.75"/>
<polygon fill="midnightblue" stroke="midnightblue" points="459.9,-92.4 449.31,-92.1 457.41,-98.94 459.9,-92.4"/>
</g>
<!-- Node30 -->
<g id="node30" class="node">
<title>Node30</title>
<g id="a_node30"><a xlink:title=" ">
<polygon fill="none" stroke="#bfbfbf" points="476,-67.5 476,-97.5 589,-97.5 589,-67.5 476,-67.5"/>
<text text-anchor="start" x="484" y="-85.5" font-family="Helvetica,sans-Serif" font-size="10.00">boost/archive/basic</text>
<text text-anchor="middle" x="532.5" y="-74.5" font-family="Helvetica,sans-Serif" font-size="10.00">_binary_oprimitive.hpp</text>
</a>
</g>
</g>
<!-- Node28&#45;&gt;Node30 -->
<g id="edge31" class="edge">
<title>Node28&#45;&gt;Node30</title>
<path fill="none" stroke="midnightblue" d="M878.69,-135.55C875.59,-135.01 872.51,-134.49 869.5,-134 752.31,-114.93 719.3,-119.06 599.12,-98.2"/>
<polygon fill="midnightblue" stroke="midnightblue" points="599.62,-94.73 589.16,-96.45 598.4,-101.63 599.62,-94.73"/>
</g>
<!-- Node31 -->
<g id="node31" class="node">
<title>Node31</title>
<g id="a_node31"><a xlink:title=" ">
<polygon fill="none" stroke="#bfbfbf" points="607,-67.5 607,-97.5 724,-97.5 724,-67.5 607,-67.5"/>
<text text-anchor="start" x="615" y="-85.5" font-family="Helvetica,sans-Serif" font-size="10.00">boost/archive/detail</text>
<text text-anchor="middle" x="665.5" y="-74.5" font-family="Helvetica,sans-Serif" font-size="10.00">/common_oarchive.hpp</text>
</a>
</g>
</g>
<!-- Node28&#45;&gt;Node31 -->
<g id="edge32" class="edge">
<title>Node28&#45;&gt;Node31</title>
<path fill="none" stroke="midnightblue" d="M884.3,-134.48C840.13,-124.18 780.07,-110.19 734.04,-99.47"/>
<polygon fill="midnightblue" stroke="midnightblue" points="734.69,-96.02 724.15,-97.16 733.1,-102.84 734.69,-96.02"/>
</g>
</g>
</svg>
