<svg xmlns="http://www.w3.org/2000/svg" xmlns:xlink="http://www.w3.org/1999/xlink" width="154pt" height="292pt" viewBox="0 0 154 292"><g id="graph0" class="graph" transform="scale(1 1) rotate(0) translate(4 288)"><title>platformer_engine::TileLayer</title><g id="node1" class="node"><title>Node1</title><g id="a_node1"><a><polygon fill="#bfbfbf" stroke="#000" points="0 -.5 0 -156.5 146 -156.5 146 -.5 0 -.5"/><text x="8" y="-144.5" font-family="Helvetica,sans-Serif" font-size="10" text-anchor="start">platformer_engine::</text><text x="73" y="-133.5" font-family="Helvetica,sans-Serif" font-size="10" text-anchor="middle">TileLayer</text><polyline fill="none" stroke="#000" points="0 -126.5 146 -126.5"/><polyline fill="none" stroke="#000" points="0 -107.5 146 -107.5"/><text x="8" y="-95.5" font-family="Helvetica,sans-Serif" font-size="10" text-anchor="start">+ TileLayer(const std</text><text x="8" y="-84.5" font-family="Helvetica,sans-Serif" font-size="10" text-anchor="start">::string &amp;filePath, int</text><text x="8" y="-73.5" font-family="Helvetica,sans-Serif" font-size="10" text-anchor="start">tileSize, int rowCount,</text><text x="8" y="-62.5" font-family="Helvetica,sans-Serif" font-size="10" text-anchor="start">int colCount, TileMap tileMap,</text><text x="8" y="-51.5" font-family="Helvetica,sans-Serif" font-size="10" text-anchor="start">TileSetsList tileSets)</text><text x="8" y="-40.5" font-family="Helvetica,sans-Serif" font-size="10" text-anchor="start">+ void Render() override</text><text x="8" y="-29.5" font-family="Helvetica,sans-Serif" font-size="10" text-anchor="start">+ void Update() override</text><text x="8" y="-18.5" font-family="Helvetica,sans-Serif" font-size="10" text-anchor="start">+ auto GetTileMap()</text><text x="8" y="-7.5" font-family="Helvetica,sans-Serif" font-size="10" text-anchor="start">-&gt; TileMap</text></a></g></g><g id="node2" class="node"><title>Node2</title><g id="a_node2"><a target="_top" xlink:href="classplatformer__engine_1_1Layer.html"><polygon fill="none" stroke="#000" points="11 -193.5 11 -283.5 135 -283.5 135 -193.5 11 -193.5"/><text x="19" y="-271.5" font-family="Helvetica,sans-Serif" font-size="10" text-anchor="start">platformer_engine::</text><text x="73" y="-260.5" font-family="Helvetica,sans-Serif" font-size="10" text-anchor="middle">Layer</text><polyline fill="none" stroke="#000" points="11 -253.5 135 -253.5"/><polyline fill="none" stroke="#000" points="11 -234.5 135 -234.5"/><text x="19" y="-222.5" font-family="Helvetica,sans-Serif" font-size="10" text-anchor="start">+ virtual void Render()=0</text><text x="19" y="-211.5" font-family="Helvetica,sans-Serif" font-size="10" text-anchor="start">+ virtual void Update()=0</text><text x="19" y="-200.5" font-family="Helvetica,sans-Serif" font-size="10" text-anchor="start">+ virtual ~Layer()=default</text></a></g></g><g id="edge1" class="edge"><title>Node2-&gt;Node1</title><path fill="none" stroke="#191970" d="M73,-183.23C73,-174.62 73,-165.57 73,-156.56"/><polygon fill="none" stroke="#191970" points="69.5 -183.49 73 -193.49 76.5 -183.49 69.5 -183.49"/></g></g></svg>