<?xml version="1.0" encoding="UTF-8" standalone="no"?>
<!DOCTYPE svg PUBLIC "-//W3C//DTD SVG 1.1//EN"
 "http://www.w3.org/Graphics/SVG/1.1/DTD/svg11.dtd">
<!-- Generated by graphviz version 2.44.0 ()
 -->
<!-- Title: ClickSystem Pages: 1 -->
<svg width="156pt" height="193pt"
 viewBox="0.00 0.00 156.00 193.00" xmlns="http://www.w3.org/2000/svg" xmlns:xlink="http://www.w3.org/1999/xlink">
<g id="graph0" class="graph" transform="scale(1 1) rotate(0) translate(4 189)">
<title>ClickSystem</title>
<!-- Node1 -->
<g id="node1" class="node">
<title>Node1</title>
<g id="a_node1"><a xlink:title=" ">
<polygon fill="#bfbfbf" stroke="black" points="0,-0.5 0,-79.5 148,-79.5 148,-0.5 0,-0.5"/>
<text text-anchor="middle" x="74" y="-67.5" font-family="Helvetica,sans-Serif" font-size="10.00">ClickSystem</text>
<polyline fill="none" stroke="black" points="0,-60.5 148,-60.5 "/>
<text text-anchor="middle" x="74" y="-48.5" font-family="Helvetica,sans-Serif" font-size="10.00"> </text>
<polyline fill="none" stroke="black" points="0,-41.5 148,-41.5 "/>
<text text-anchor="start" x="8" y="-29.5" font-family="Helvetica,sans-Serif" font-size="10.00">+ ClickSystem(bool fullscreen)</text>
<text text-anchor="start" x="8" y="-18.5" font-family="Helvetica,sans-Serif" font-size="10.00">+ void Update(double</text>
<text text-anchor="start" x="8" y="-7.5" font-family="Helvetica,sans-Serif" font-size="10.00"> speedMultiplier)</text>
</a>
</g>
</g>
<!-- Node2 -->
<g id="node2" class="node">
<title>Node2</title>
<g id="a_node2"><a xlink:href="classISystem.html" target="_top" xlink:title=" ">
<polygon fill="none" stroke="black" points="9,-116.5 9,-184.5 139,-184.5 139,-116.5 9,-116.5"/>
<text text-anchor="middle" x="74" y="-172.5" font-family="Helvetica,sans-Serif" font-size="10.00">ISystem</text>
<polyline fill="none" stroke="black" points="9,-165.5 139,-165.5 "/>
<text text-anchor="middle" x="74" y="-153.5" font-family="Helvetica,sans-Serif" font-size="10.00"> </text>
<polyline fill="none" stroke="black" points="9,-146.5 139,-146.5 "/>
<text text-anchor="start" x="17" y="-134.5" font-family="Helvetica,sans-Serif" font-size="10.00">+ virtual void Update</text>
<text text-anchor="start" x="17" y="-123.5" font-family="Helvetica,sans-Serif" font-size="10.00">(double speedMultiplier)=0</text>
</a>
</g>
</g>
<!-- Node2&#45;&gt;Node1 -->
<g id="edge1" class="edge">
<title>Node2&#45;&gt;Node1</title>
<path fill="none" stroke="midnightblue" d="M74,-106.27C74,-97.48 74,-88.28 74,-79.65"/>
<polygon fill="none" stroke="midnightblue" points="70.5,-106.36 74,-116.36 77.5,-106.36 70.5,-106.36"/>
</g>
</g>
</svg>
