<?xml version="1.0" encoding="UTF-8" standalone="no"?>
<!DOCTYPE svg PUBLIC "-//W3C//DTD SVG 1.1//EN"
 "http://www.w3.org/Graphics/SVG/1.1/DTD/svg11.dtd">
<!-- Generated by graphviz version 2.44.0 ()
 -->
<!-- Title: ISystem Pages: 1 -->
<!--zoomable 215 -->
<svg id="main" version="1.1" xmlns="http://www.w3.org/2000/svg" xmlns:xlink="http://www.w3.org/1999/xlink" xml:space="preserve" onload="init(evt)">
<style type="text/css"><![CDATA[
.edge:hover path { stroke: red; }
.edge:hover polygon { stroke: red; fill: red; }
]]></style>
<script type="text/javascript"><![CDATA[
var edges = document.getElementsByTagName('g');
if (edges && edges.length) {
  for (var i=0;i<edges.length;i++) {
    if (edges[i].id.substr(0,4)=='edge') {
      edges[i].setAttribute('class','edge');
    }
  }
}
]]></script>
        <defs>
                <circle id="rim" cx="0" cy="0" r="7"/>
                <circle id="rim2" cx="0" cy="0" r="3.5"/>
                <g id="zoomPlus">
                        <use xlink:href="#rim" fill="#404040">
                                <set attributeName="fill" to="#808080" begin="zoomplus.mouseover" end="zoomplus.mouseout"/>
                        </use>
                        <path d="M-4,0h8M0,-4v8" fill="none" stroke="white" stroke-width="1.5" pointer-events="none"/>
                </g>
                <g id="zoomMin">
                        <use xlink:href="#rim" fill="#404040">
                                <set attributeName="fill" to="#808080" begin="zoomminus.mouseover" end="zoomminus.mouseout"/>
                        </use>
                        <path d="M-4,0h8" fill="none" stroke="white" stroke-width="1.5" pointer-events="none"/>
                </g>
                <g id="dirArrow">
                        <path fill="none" stroke="white" stroke-width="1.5" d="M0,-3.0v7 M-2.5,-0.5L0,-3.0L2.5,-0.5"/>
                </g>
               <g id="resetDef">
                       <use xlink:href="#rim2" fill="#404040">
                               <set attributeName="fill" to="#808080" begin="reset.mouseover" end="reset.mouseout"/>
                       </use>
               </g>
        </defs>

<script type="text/javascript">
var viewWidth = 548;
var viewHeight = 215;
var sectionId = 'dynsection-0';
</script>
<script xlink:href="svgpan.js"/>
<svg id="graph" class="graph">
<g id="viewport">
<title>ISystem</title>
<!-- Node1 -->
<g id="node1" class="node">
<title>Node1</title>
<g id="a_node1"><a xlink:title=" ">
<polygon fill="#bfbfbf" stroke="black" points="211,-138.5 211,-206.5 341,-206.5 341,-138.5 211,-138.5"/>
<text text-anchor="middle" x="276" y="-194.5" font-family="Helvetica,sans-Serif" font-size="10.00">ISystem</text>
<polyline fill="none" stroke="black" points="211,-187.5 341,-187.5 "/>
<text text-anchor="middle" x="276" y="-175.5" font-family="Helvetica,sans-Serif" font-size="10.00"> </text>
<polyline fill="none" stroke="black" points="211,-168.5 341,-168.5 "/>
<text text-anchor="start" x="219" y="-156.5" font-family="Helvetica,sans-Serif" font-size="10.00">+ virtual void Update</text>
<text text-anchor="start" x="219" y="-145.5" font-family="Helvetica,sans-Serif" font-size="10.00">(double speedMultiplier)=0</text>
</a>
</g>
</g>
<!-- Node2 -->
<g id="node2" class="node">
<title>Node2</title>
<g id="a_node2"><a xlink:href="classBehaviourSystem.html" target="_top" xlink:title=" ">
<polygon fill="none" stroke="black" points="0,-11.5 0,-90.5 108,-90.5 108,-11.5 0,-11.5"/>
<text text-anchor="middle" x="54" y="-78.5" font-family="Helvetica,sans-Serif" font-size="10.00">BehaviourSystem</text>
<polyline fill="none" stroke="black" points="0,-71.5 108,-71.5 "/>
<text text-anchor="middle" x="54" y="-59.5" font-family="Helvetica,sans-Serif" font-size="10.00"> </text>
<polyline fill="none" stroke="black" points="0,-52.5 108,-52.5 "/>
<text text-anchor="start" x="8" y="-40.5" font-family="Helvetica,sans-Serif" font-size="10.00">+ void Update(double</text>
<text text-anchor="start" x="8" y="-29.5" font-family="Helvetica,sans-Serif" font-size="10.00"> speedMultiplier)</text>
<text text-anchor="start" x="8" y="-18.5" font-family="Helvetica,sans-Serif" font-size="10.00">+ static void Start()</text>
</a>
</g>
</g>
<!-- Node1&#45;&gt;Node2 -->
<g id="edge1" class="edge">
<title>Node1&#45;&gt;Node2</title>
<path fill="none" stroke="midnightblue" d="M201.18,-143.49C173.91,-132.08 143.33,-117.83 117,-102 111.26,-98.55 105.45,-94.63 99.81,-90.54"/>
<polygon fill="none" stroke="midnightblue" points="200.1,-146.83 210.67,-147.41 202.76,-140.36 200.1,-146.83"/>
</g>
<!-- Node3 -->
<g id="node3" class="node">
<title>Node3</title>
<g id="a_node3"><a xlink:href="classClickSystem.html" target="_top" xlink:title=" ">
<polygon fill="none" stroke="black" points="126,-11.5 126,-90.5 274,-90.5 274,-11.5 126,-11.5"/>
<text text-anchor="middle" x="200" y="-78.5" font-family="Helvetica,sans-Serif" font-size="10.00">ClickSystem</text>
<polyline fill="none" stroke="black" points="126,-71.5 274,-71.5 "/>
<text text-anchor="middle" x="200" y="-59.5" font-family="Helvetica,sans-Serif" font-size="10.00"> </text>
<polyline fill="none" stroke="black" points="126,-52.5 274,-52.5 "/>
<text text-anchor="start" x="134" y="-40.5" font-family="Helvetica,sans-Serif" font-size="10.00">+ ClickSystem(bool fullscreen)</text>
<text text-anchor="start" x="134" y="-29.5" font-family="Helvetica,sans-Serif" font-size="10.00">+ void Update(double</text>
<text text-anchor="start" x="134" y="-18.5" font-family="Helvetica,sans-Serif" font-size="10.00"> speedMultiplier)</text>
</a>
</g>
</g>
<!-- Node1&#45;&gt;Node3 -->
<g id="edge2" class="edge">
<title>Node1&#45;&gt;Node3</title>
<path fill="none" stroke="midnightblue" d="M249.38,-129.65C241.31,-116.95 232.48,-103.07 224.55,-90.6"/>
<polygon fill="none" stroke="midnightblue" points="246.51,-131.65 254.83,-138.21 252.42,-127.9 246.51,-131.65"/>
</g>
<!-- Node4 -->
<g id="node4" class="node">
<title>Node4</title>
<g id="a_node4"><a xlink:href="classPhysicsSystem.html" target="_top" xlink:title="System that controls forces and collision on GameObjects. Currently collision only supports BoxCollid...">
<polygon fill="none" stroke="black" points="292.5,-0.5 292.5,-101.5 413.5,-101.5 413.5,-0.5 292.5,-0.5"/>
<text text-anchor="middle" x="353" y="-89.5" font-family="Helvetica,sans-Serif" font-size="10.00">PhysicsSystem</text>
<polyline fill="none" stroke="black" points="292.5,-82.5 413.5,-82.5 "/>
<text text-anchor="middle" x="353" y="-70.5" font-family="Helvetica,sans-Serif" font-size="10.00"> </text>
<polyline fill="none" stroke="black" points="292.5,-63.5 413.5,-63.5 "/>
<text text-anchor="start" x="300.5" y="-51.5" font-family="Helvetica,sans-Serif" font-size="10.00">+ PhysicsSystem(int</text>
<text text-anchor="start" x="300.5" y="-40.5" font-family="Helvetica,sans-Serif" font-size="10.00"> localClientId=0)</text>
<text text-anchor="start" x="300.5" y="-29.5" font-family="Helvetica,sans-Serif" font-size="10.00">+ void Update(double</text>
<text text-anchor="start" x="300.5" y="-18.5" font-family="Helvetica,sans-Serif" font-size="10.00"> speedMultiplier)</text>
<text text-anchor="start" x="300.5" y="-7.5" font-family="Helvetica,sans-Serif" font-size="10.00">+ void CheckCollisions()</text>
</a>
</g>
</g>
<!-- Node1&#45;&gt;Node4 -->
<g id="edge3" class="edge">
<title>Node1&#45;&gt;Node4</title>
<path fill="none" stroke="midnightblue" d="M302.91,-129.73C308.76,-120.67 314.99,-110.99 321.01,-101.65"/>
<polygon fill="none" stroke="midnightblue" points="299.92,-127.91 297.45,-138.21 305.81,-131.7 299.92,-127.91"/>
</g>
<!-- Node5 -->
<g id="node5" class="node">
<title>Node5</title>
<g id="a_node5"><a xlink:href="classRenderSystem.html" target="_top" xlink:title="System that updates the animation of the AnimatedSprite component.">
<polygon fill="none" stroke="black" points="432,-11.5 432,-90.5 540,-90.5 540,-11.5 432,-11.5"/>
<text text-anchor="middle" x="486" y="-78.5" font-family="Helvetica,sans-Serif" font-size="10.00">RenderSystem</text>
<polyline fill="none" stroke="black" points="432,-71.5 540,-71.5 "/>
<text text-anchor="middle" x="486" y="-59.5" font-family="Helvetica,sans-Serif" font-size="10.00"> </text>
<polyline fill="none" stroke="black" points="432,-52.5 540,-52.5 "/>
<text text-anchor="start" x="440" y="-40.5" font-family="Helvetica,sans-Serif" font-size="10.00">+ void Update(double</text>
<text text-anchor="start" x="440" y="-29.5" font-family="Helvetica,sans-Serif" font-size="10.00"> speedMultiplier)</text>
<text text-anchor="start" x="440" y="-18.5" font-family="Helvetica,sans-Serif" font-size="10.00">+ static void Render()</text>
</a>
</g>
</g>
<!-- Node1&#45;&gt;Node5 -->
<g id="edge4" class="edge">
<title>Node1&#45;&gt;Node5</title>
<path fill="none" stroke="midnightblue" d="M350.68,-140.22C374.41,-129.23 400.35,-116.08 423,-102 428.57,-98.53 434.22,-94.66 439.74,-90.63"/>
<polygon fill="none" stroke="midnightblue" points="349,-137.14 341.36,-144.48 351.91,-143.51 349,-137.14"/>
</g>
</g>
</svg>
        <g id="navigator" transform="translate(0 0)" fill="#404254">
                <rect fill="#f2f5e9" fill-opacity="0.5" stroke="#606060" stroke-width=".5" x="0" y="0" width="60" height="60"/>
                <use id="zoomplus" xlink:href="#zoomPlus" x="17" y="9" onmousedown="handleZoom(evt,'in')"/>
                <use id="zoomminus" xlink:href="#zoomMin" x="42" y="9" onmousedown="handleZoom(evt,'out')"/>
                <use id="reset" xlink:href="#resetDef" x="30" y="36" onmousedown="handleReset()"/>
                <g id="arrowUp" xlink:href="#dirArrow" transform="translate(30 24)" onmousedown="handlePan(0,-1)">
                  <use xlink:href="#rim" fill="#404040">
                        <set attributeName="fill" to="#808080" begin="arrowUp.mouseover" end="arrowUp.mouseout"/>
                  </use>
                  <path fill="none" stroke="white" stroke-width="1.5" d="M0,-3.0v7 M-2.5,-0.5L0,-3.0L2.5,-0.5"/>
                </g>
                <g id="arrowRight" xlink:href="#dirArrow" transform="rotate(90) translate(36 -43)" onmousedown="handlePan(1,0)">
                  <use xlink:href="#rim" fill="#404040">
                        <set attributeName="fill" to="#808080" begin="arrowRight.mouseover" end="arrowRight.mouseout"/>
                  </use>
                  <path fill="none" stroke="white" stroke-width="1.5" d="M0,-3.0v7 M-2.5,-0.5L0,-3.0L2.5,-0.5"/>
                </g>
                <g id="arrowDown" xlink:href="#dirArrow" transform="rotate(180) translate(-30 -48)" onmousedown="handlePan(0,1)">
                  <use xlink:href="#rim" fill="#404040">
                        <set attributeName="fill" to="#808080" begin="arrowDown.mouseover" end="arrowDown.mouseout"/>
                  </use>
                  <path fill="none" stroke="white" stroke-width="1.5" d="M0,-3.0v7 M-2.5,-0.5L0,-3.0L2.5,-0.5"/>
                </g>
                <g id="arrowLeft" xlink:href="#dirArrow" transform="rotate(270) translate(-36 17)" onmousedown="handlePan(-1,0)">
                  <use xlink:href="#rim" fill="#404040">
                        <set attributeName="fill" to="#808080" begin="arrowLeft.mouseover" end="arrowLeft.mouseout"/>
                  </use>
                  <path fill="none" stroke="white" stroke-width="1.5" d="M0,-3.0v7 M-2.5,-0.5L0,-3.0L2.5,-0.5"/>
                </g>
        </g>
        <svg viewBox="0 0 15 15" width="100%" height="30px" preserveAspectRatio="xMaxYMin meet">
         <g id="arrow_out" transform="scale(0.3 0.3)">
          <a xlink:href="classISystem__inherit__graph_org.svg" target="_base">
           <rect id="button" ry="5" rx="5" y="6" x="6" height="38" width="38"
                fill="#f2f5e9" fill-opacity="0.5" stroke="#606060" stroke-width="1.0"/>
           <path id="arrow"
             d="M 11.500037,31.436501 C 11.940474,20.09759 22.043105,11.32322 32.158766,21.979434 L 37.068811,17.246167 C 37.068811,17.246167 37.088388,32 37.088388,32 L 22.160133,31.978069 C 22.160133,31.978069 26.997745,27.140456 26.997745,27.140456 C 18.528582,18.264221 13.291696,25.230495 11.500037,31.436501 z"
             style="fill:#404040;"/>
          </a>
         </g>
        </svg>
</svg>
