<?xml version="1.0" encoding="UTF-8" standalone="no"?>
<!DOCTYPE svg PUBLIC "-//W3C//DTD SVG 1.1//EN"
 "http://www.w3.org/Graphics/SVG/1.1/DTD/svg11.dtd">
<!-- Generated by graphviz version 2.44.0 ()
 -->
<!-- Title: spic::CircleCollider Pages: 1 -->
<svg width="161pt" height="441pt"
 viewBox="0.00 0.00 161.00 441.00" xmlns="http://www.w3.org/2000/svg" xmlns:xlink="http://www.w3.org/1999/xlink">
<g id="graph0" class="graph" transform="scale(1 1) rotate(0) translate(4 437)">
<title>spic::CircleCollider</title>
<!-- Node1 -->
<g id="node1" class="node">
<title>Node1</title>
<g id="a_node1"><a xlink:title="A collider which represents a circular collision area.">
<polygon fill="#bfbfbf" stroke="black" points="17.5,-0.5 17.5,-79.5 135.5,-79.5 135.5,-0.5 17.5,-0.5"/>
<text text-anchor="middle" x="76.5" y="-67.5" font-family="Helvetica,sans-Serif" font-size="10.00">spic::CircleCollider</text>
<polyline fill="none" stroke="black" points="17.5,-60.5 135.5,-60.5 "/>
<text text-anchor="middle" x="76.5" y="-48.5" font-family="Helvetica,sans-Serif" font-size="10.00"> </text>
<polyline fill="none" stroke="black" points="17.5,-41.5 135.5,-41.5 "/>
<text text-anchor="start" x="25.5" y="-29.5" font-family="Helvetica,sans-Serif" font-size="10.00">+ double Radius() const</text>
<text text-anchor="start" x="25.5" y="-18.5" font-family="Helvetica,sans-Serif" font-size="10.00">+ void Radius(double</text>
<text text-anchor="start" x="25.5" y="-7.5" font-family="Helvetica,sans-Serif" font-size="10.00"> newRadius)</text>
</a>
</g>
</g>
<!-- Node2 -->
<g id="node2" class="node">
<title>Node2</title>
<g id="a_node2"><a xlink:href="classspic_1_1Collider.html" target="_top" xlink:title="The base class for all colliders. @spicapi.">
<polygon fill="none" stroke="black" points="41,-116.5 41,-173.5 112,-173.5 112,-116.5 41,-116.5"/>
<text text-anchor="middle" x="76.5" y="-161.5" font-family="Helvetica,sans-Serif" font-size="10.00">spic::Collider</text>
<polyline fill="none" stroke="black" points="41,-154.5 112,-154.5 "/>
<text text-anchor="middle" x="76.5" y="-142.5" font-family="Helvetica,sans-Serif" font-size="10.00"> </text>
<polyline fill="none" stroke="black" points="41,-135.5 112,-135.5 "/>
<text text-anchor="middle" x="76.5" y="-123.5" font-family="Helvetica,sans-Serif" font-size="10.00"> </text>
</a>
</g>
</g>
<!-- Node2&#45;&gt;Node1 -->
<g id="edge1" class="edge">
<title>Node2&#45;&gt;Node1</title>
<path fill="none" stroke="midnightblue" d="M76.5,-106.16C76.5,-97.47 76.5,-88.23 76.5,-79.52"/>
<polygon fill="none" stroke="midnightblue" points="73,-106.4 76.5,-116.4 80,-106.4 73,-106.4"/>
</g>
<!-- Node3 -->
<g id="node3" class="node">
<title>Node3</title>
<g id="a_node3"><a xlink:href="classspic_1_1Component.html" target="_top" xlink:title="Base class for all components.">
<polygon fill="none" stroke="black" points="0,-210.5 0,-432.5 153,-432.5 153,-210.5 0,-210.5"/>
<text text-anchor="middle" x="76.5" y="-420.5" font-family="Helvetica,sans-Serif" font-size="10.00">spic::Component</text>
<polyline fill="none" stroke="black" points="0,-413.5 153,-413.5 "/>
<text text-anchor="middle" x="76.5" y="-401.5" font-family="Helvetica,sans-Serif" font-size="10.00"> </text>
<polyline fill="none" stroke="black" points="0,-394.5 153,-394.5 "/>
<text text-anchor="start" x="8" y="-382.5" font-family="Helvetica,sans-Serif" font-size="10.00">+ Component()=default</text>
<text text-anchor="start" x="8" y="-371.5" font-family="Helvetica,sans-Serif" font-size="10.00">+ virtual ~Component</text>
<text text-anchor="start" x="8" y="-360.5" font-family="Helvetica,sans-Serif" font-size="10.00">()=default</text>
<text text-anchor="start" x="8" y="-349.5" font-family="Helvetica,sans-Serif" font-size="10.00">+ Component(const Component</text>
<text text-anchor="start" x="8" y="-338.5" font-family="Helvetica,sans-Serif" font-size="10.00"> &amp;other)=default</text>
<text text-anchor="start" x="8" y="-327.5" font-family="Helvetica,sans-Serif" font-size="10.00">+ auto operator=(const</text>
<text text-anchor="start" x="8" y="-316.5" font-family="Helvetica,sans-Serif" font-size="10.00"> Component &amp;other) &#45;&gt;</text>
<text text-anchor="start" x="8" y="-305.5" font-family="Helvetica,sans-Serif" font-size="10.00"> Component &amp;=default</text>
<text text-anchor="start" x="8" y="-294.5" font-family="Helvetica,sans-Serif" font-size="10.00">+ Component(Component</text>
<text text-anchor="start" x="8" y="-283.5" font-family="Helvetica,sans-Serif" font-size="10.00"> &amp;&amp;other)=default</text>
<text text-anchor="start" x="8" y="-272.5" font-family="Helvetica,sans-Serif" font-size="10.00">+ auto operator=(Component</text>
<text text-anchor="start" x="8" y="-261.5" font-family="Helvetica,sans-Serif" font-size="10.00"> &amp;&amp;other) &#45;&gt; Component</text>
<text text-anchor="start" x="8" y="-250.5" font-family="Helvetica,sans-Serif" font-size="10.00"> &amp;=default</text>
<text text-anchor="start" x="8" y="-239.5" font-family="Helvetica,sans-Serif" font-size="10.00">+ auto Active() const</text>
<text text-anchor="start" x="8" y="-228.5" font-family="Helvetica,sans-Serif" font-size="10.00"> &#45;&gt; bool</text>
<text text-anchor="start" x="8" y="-217.5" font-family="Helvetica,sans-Serif" font-size="10.00">+ void Active(bool flag)</text>
</a>
</g>
</g>
<!-- Node3&#45;&gt;Node2 -->
<g id="edge2" class="edge">
<title>Node3&#45;&gt;Node2</title>
<path fill="none" stroke="midnightblue" d="M76.5,-200.24C76.5,-190.61 76.5,-181.6 76.5,-173.81"/>
<polygon fill="none" stroke="midnightblue" points="73,-200.48 76.5,-210.48 80,-200.48 73,-200.48"/>
</g>
</g>
</svg>
