<svg xmlns="http://www.w3.org/2000/svg" xmlns:xlink="http://www.w3.org/1999/xlink" width="154pt" height="193pt" viewBox="0 0 154 193"><g id="graph0" class="graph" transform="scale(1 1) rotate(0) translate(4 189)"><title>spic::InvalidPlayerSlotsException</title><g id="node1" class="node"><title>Node1</title><g id="a_node1"><a><polygon fill="#bfbfbf" stroke="#000" points="0 -.5 0 -90.5 146 -90.5 146 -.5 0 -.5"/><text x="8" y="-78.5" font-family="Helvetica,sans-Serif" font-size="10" text-anchor="start">spic::InvalidPlayerSlots</text><text x="73" y="-67.5" font-family="Helvetica,sans-Serif" font-size="10" text-anchor="middle">Exception</text><polyline fill="none" stroke="#000" points="0 -60.5 146 -60.5"/><polyline fill="none" stroke="#000" points="0 -41.5 146 -41.5"/><text x="8" y="-29.5" font-family="Helvetica,sans-Serif" font-size="10" text-anchor="start">+ InvalidPlayerSlotsException</text><text x="8" y="-18.5" font-family="Helvetica,sans-Serif" font-size="10" text-anchor="start">(int chosenSlots, int minSlots,</text><text x="8" y="-7.5" font-family="Helvetica,sans-Serif" font-size="10" text-anchor="start">int maxSlots)</text></a></g></g><g id="node2" class="node"><title>Node2</title><g id="a_node2"><a><polygon fill="none" stroke="#bfbfbf" points="33 -127.5 33 -184.5 113 -184.5 113 -127.5 33 -127.5"/><text x="73" y="-172.5" font-family="Helvetica,sans-Serif" font-size="10" text-anchor="middle">std::logic_error</text><polyline fill="none" stroke="#bfbfbf" points="33 -165.5 113 -165.5"/><polyline fill="none" stroke="#bfbfbf" points="33 -146.5 113 -146.5"/></a></g></g><g id="edge1" class="edge"><title>Node2-&gt;Node1</title><path fill="none" stroke="#191970" d="M73,-117.21C73,-108.61 73,-99.39 73,-90.55"/><polygon fill="none" stroke="#191970" points="69.5 -117.34 73 -127.34 76.5 -117.34 69.5 -117.34"/></g></g></svg>