<svg xmlns="http://www.w3.org/2000/svg" xmlns:xlink="http://www.w3.org/1999/xlink" id="main" onload="init(evt)" version="1.1" xml:space="preserve"><style type="text/css">.edge:hover path{stroke:red}.edge:hover polygon{stroke:red;fill:red}</style><script type="text/javascript"><![CDATA[
var edges = document.getElementsByTagName('g');
if (edges && edges.length) {
  for (var i=0;i<edges.length;i++) {
    if (edges[i].id.substr(0,4)=='edge') {
      edges[i].setAttribute('class','edge');
    }
  }
}
]]></script><defs><circle id="rim" cx="0" cy="0" r="7"/><circle id="rim2" cx="0" cy="0" r="3.5"/><g id="zoomPlus"><use fill="#404040" xlink:href="#rim"><set attributeName="fill" begin="zoomplus.mouseover" end="zoomplus.mouseout" to="#808080"/></use><path fill="none" stroke="#fff" stroke-width="1.5" d="M-4,0h8M0,-4v8" pointer-events="none"/></g><g id="zoomMin"><use fill="#404040" xlink:href="#rim"><set attributeName="fill" begin="zoomminus.mouseover" end="zoomminus.mouseout" to="#808080"/></use><path fill="none" stroke="#fff" stroke-width="1.5" d="M-4,0h8" pointer-events="none"/></g><g id="dirArrow"><path fill="none" stroke="#fff" stroke-width="1.5" d="M0,-3.0v7 M-2.5,-0.5L0,-3.0L2.5,-0.5"/></g><g id="resetDef"><use fill="#404040" xlink:href="#rim2"><set attributeName="fill" begin="reset.mouseover" end="reset.mouseout" to="#808080"/></use></g></defs><script type="text/javascript">var viewWidth = 1034; var viewHeight = 936; var sectionId = &apos;dynsection-0&apos;;</script><script xlink:href="svgpan.js"/><svg id="graph" class="graph"><g id="viewport"><title>spic::Component</title><g id="node1" class="node"><title>Node1</title><g id="a_node1"><a xlink:title="Base class for all components."><polygon fill="#bfbfbf" stroke="#000" points="410 -628.5 410 -927.5 563 -927.5 563 -628.5 410 -628.5"/><text x="486.5" y="-915.5" font-family="Helvetica,sans-Serif" font-size="10" text-anchor="middle">spic::Component</text><polyline fill="none" stroke="#000" points="410 -908.5 563 -908.5"/><polyline fill="none" stroke="#000" points="410 -889.5 563 -889.5"/><text x="418" y="-877.5" font-family="Helvetica,sans-Serif" font-size="10" text-anchor="start">+ void serialize(archive</text><text x="418" y="-866.5" font-family="Helvetica,sans-Serif" font-size="10" text-anchor="start">&amp;ar, const unsigned)</text><text x="418" y="-855.5" font-family="Helvetica,sans-Serif" font-size="10" text-anchor="start">+ Component()=default</text><text x="418" y="-844.5" font-family="Helvetica,sans-Serif" font-size="10" text-anchor="start">+ virtual ~Component</text><text x="418" y="-833.5" font-family="Helvetica,sans-Serif" font-size="10" text-anchor="start">()=default</text><text x="418" y="-822.5" font-family="Helvetica,sans-Serif" font-size="10" text-anchor="start">+ Component(const Component</text><text x="418" y="-811.5" font-family="Helvetica,sans-Serif" font-size="10" text-anchor="start">&amp;other)=default</text><text x="418" y="-800.5" font-family="Helvetica,sans-Serif" font-size="10" text-anchor="start">+ auto operator=(const</text><text x="418" y="-789.5" font-family="Helvetica,sans-Serif" font-size="10" text-anchor="start">Component &amp;other) -&gt;</text><text x="418" y="-778.5" font-family="Helvetica,sans-Serif" font-size="10" text-anchor="start">Component &amp;=default</text><text x="418" y="-767.5" font-family="Helvetica,sans-Serif" font-size="10" text-anchor="start">+ Component(Component</text><text x="418" y="-756.5" font-family="Helvetica,sans-Serif" font-size="10" text-anchor="start">&amp;&amp;other)=default</text><text x="418" y="-745.5" font-family="Helvetica,sans-Serif" font-size="10" text-anchor="start">+ auto operator=(Component</text><text x="418" y="-734.5" font-family="Helvetica,sans-Serif" font-size="10" text-anchor="start">&amp;&amp;other) -&gt; Component</text><text x="418" y="-723.5" font-family="Helvetica,sans-Serif" font-size="10" text-anchor="start">&amp;=default</text><text x="418" y="-712.5" font-family="Helvetica,sans-Serif" font-size="10" text-anchor="start">+ auto Active() const</text><text x="418" y="-701.5" font-family="Helvetica,sans-Serif" font-size="10" text-anchor="start">-&gt; bool</text><text x="418" y="-690.5" font-family="Helvetica,sans-Serif" font-size="10" text-anchor="start">+ void Active(bool flag)</text><text x="418" y="-679.5" font-family="Helvetica,sans-Serif" font-size="10" text-anchor="start">+ void SetGameObject</text><text x="418" y="-668.5" font-family="Helvetica,sans-Serif" font-size="10" text-anchor="start">(std::weak_ptr&lt; GameObject</text><text x="418" y="-657.5" font-family="Helvetica,sans-Serif" font-size="10" text-anchor="start">&gt; gObj)</text><text x="418" y="-646.5" font-family="Helvetica,sans-Serif" font-size="10" text-anchor="start">+ std::weak_ptr&lt; GameObject</text><text x="418" y="-635.5" font-family="Helvetica,sans-Serif" font-size="10" text-anchor="start">&gt; GetGameObject()</text></a></g></g><g id="node2" class="node"><title>Node2</title><g id="a_node2"><a target="_top" xlink:href="classspic_1_1Animator.html" xlink:title="A component which can play animated sequences of sprites."><polygon fill="none" stroke="#000" points="0 -303.5 0 -591.5 173 -591.5 173 -303.5 0 -303.5"/><text x="86.5" y="-579.5" font-family="Helvetica,sans-Serif" font-size="10" text-anchor="middle">spic::Animator</text><polyline fill="none" stroke="#000" points="0 -572.5 173 -572.5"/><polyline fill="none" stroke="#000" points="0 -553.5 173 -553.5"/><text x="8" y="-541.5" font-family="Helvetica,sans-Serif" font-size="10" text-anchor="start">+ void serialize(archive</text><text x="8" y="-530.5" font-family="Helvetica,sans-Serif" font-size="10" text-anchor="start">&amp;ar, const unsigned)</text><text x="8" y="-519.5" font-family="Helvetica,sans-Serif" font-size="10" text-anchor="start">+ Animator(const std</text><text x="8" y="-508.5" font-family="Helvetica,sans-Serif" font-size="10" text-anchor="start">::shared_ptr&lt; platformer</text><text x="8" y="-497.5" font-family="Helvetica,sans-Serif" font-size="10" text-anchor="start">_engine::AnimatedSprite</text><text x="8" y="-486.5" font-family="Helvetica,sans-Serif" font-size="10" text-anchor="start">&gt; &amp;animatedSprite, bool</text><text x="8" y="-475.5" font-family="Helvetica,sans-Serif" font-size="10" text-anchor="start">isPlaying=true, bool isLooping=true)</text><text x="8" y="-464.5" font-family="Helvetica,sans-Serif" font-size="10" text-anchor="start">+ void Play(bool looping)</text><text x="8" y="-453.5" font-family="Helvetica,sans-Serif" font-size="10" text-anchor="start">+ void Stop()</text><text x="8" y="-442.5" font-family="Helvetica,sans-Serif" font-size="10" text-anchor="start">+ void AddAnimation(const</text><text x="8" y="-431.5" font-family="Helvetica,sans-Serif" font-size="10" text-anchor="start">std::shared_ptr&lt; platformer</text><text x="8" y="-420.5" font-family="Helvetica,sans-Serif" font-size="10" text-anchor="start">_engine::AnimatedSprite &gt;</text><text x="8" y="-409.5" font-family="Helvetica,sans-Serif" font-size="10" text-anchor="start">&amp;animatedSprite)</text><text x="8" y="-398.5" font-family="Helvetica,sans-Serif" font-size="10" text-anchor="start">+ void SetActiveAnimation</text><text x="8" y="-387.5" font-family="Helvetica,sans-Serif" font-size="10" text-anchor="start">(const std::string &amp;animationId)</text><text x="8" y="-376.5" font-family="Helvetica,sans-Serif" font-size="10" text-anchor="start">+ void Render(spic::Transform</text><text x="8" y="-365.5" font-family="Helvetica,sans-Serif" font-size="10" text-anchor="start">transform)</text><text x="8" y="-354.5" font-family="Helvetica,sans-Serif" font-size="10" text-anchor="start">+ void Update()</text><text x="8" y="-343.5" font-family="Helvetica,sans-Serif" font-size="10" text-anchor="start">+ auto GetLoadedAnimations</text><text x="8" y="-332.5" font-family="Helvetica,sans-Serif" font-size="10" text-anchor="start">() -&gt; std::map&lt; std::string,</text><text x="8" y="-321.5" font-family="Helvetica,sans-Serif" font-size="10" text-anchor="start">std::shared_ptr&lt; platformer</text><text x="8" y="-310.5" font-family="Helvetica,sans-Serif" font-size="10" text-anchor="start">_engine::AnimatedSprite &gt;&gt;</text></a></g></g><g id="edge1" class="edge"><title>Node1-&gt;Node2</title><path fill="none" stroke="#191970" d="M400.95,-738.03C335.7,-705.44 246.32,-654.3 181.5,-592 178.7,-589.31 175.94,-586.52 173.22,-583.65"/><polygon fill="none" stroke="#191970" points="399.48 -741.21 409.99 -742.51 402.58 -734.94 399.48 -741.21"/></g><g id="node3" class="node"><title>Node3</title><g id="a_node3"><a target="_top" xlink:href="classspic_1_1AudioSource.html" xlink:title="Component which can play audio."><polygon fill="none" stroke="#000" points="191 -413.5 191 -481.5 312 -481.5 312 -413.5 191 -413.5"/><text x="251.5" y="-469.5" font-family="Helvetica,sans-Serif" font-size="10" text-anchor="middle">spic::AudioSource</text><polyline fill="none" stroke="#000" points="191 -462.5 312 -462.5"/><polyline fill="none" stroke="#000" points="191 -443.5 312 -443.5"/><text x="199" y="-431.5" font-family="Helvetica,sans-Serif" font-size="10" text-anchor="start">+ void Play(bool looping)</text><text x="199" y="-420.5" font-family="Helvetica,sans-Serif" font-size="10" text-anchor="start">+ void Stop()</text></a></g></g><g id="edge2" class="edge"><title>Node1-&gt;Node3</title><path fill="none" stroke="#191970" d="M402.93,-693.19C375.08,-662.8 345.16,-627.25 321.5,-592 297.63,-556.44 277.08,-511.53 264.53,-481.52"/><polygon fill="none" stroke="#191970" points="400.6 -695.83 409.96 -700.8 405.74 -691.08 400.6 -695.83"/></g><g id="node4" class="node"><title>Node4</title><g id="a_node4"><a target="_top" xlink:href="classspic_1_1BehaviourScript.html"><polygon fill="none" stroke="#000" points="330.5 -380.5 330.5 -514.5 474.5 -514.5 474.5 -380.5 330.5 -380.5"/><text x="402.5" y="-502.5" font-family="Helvetica,sans-Serif" font-size="10" text-anchor="middle">spic::BehaviourScript</text><polyline fill="none" stroke="#000" points="330.5 -495.5 474.5 -495.5"/><polyline fill="none" stroke="#000" points="330.5 -476.5 474.5 -476.5"/><text x="338.5" y="-464.5" font-family="Helvetica,sans-Serif" font-size="10" text-anchor="start">+ virtual void OnStart()</text><text x="338.5" y="-453.5" font-family="Helvetica,sans-Serif" font-size="10" text-anchor="start">+ virtual void OnUpdate()</text><text x="338.5" y="-442.5" font-family="Helvetica,sans-Serif" font-size="10" text-anchor="start">+ virtual void OnTriggerEnter2</text><text x="338.5" y="-431.5" font-family="Helvetica,sans-Serif" font-size="10" text-anchor="start">D(const Collision collision)</text><text x="338.5" y="-420.5" font-family="Helvetica,sans-Serif" font-size="10" text-anchor="start">+ virtual void OnTriggerExit2</text><text x="338.5" y="-409.5" font-family="Helvetica,sans-Serif" font-size="10" text-anchor="start">D(const Collision collision)</text><text x="338.5" y="-398.5" font-family="Helvetica,sans-Serif" font-size="10" text-anchor="start">+ virtual void OnTriggerStay2</text><text x="338.5" y="-387.5" font-family="Helvetica,sans-Serif" font-size="10" text-anchor="start">D(const Collision collision)</text></a></g></g><g id="edge3" class="edge"><title>Node1-&gt;Node4</title><path fill="none" stroke="#191970" d="M445.93,-618.33C436.57,-581.74 427.12,-544.78 419.44,-514.73"/><polygon fill="none" stroke="#191970" points="442.56 -619.31 448.43 -628.13 449.35 -617.57 442.56 -619.31"/></g><g id="node6" class="node"><title>Node6</title><g id="a_node6"><a target="_top" xlink:href="classspic_1_1Collider.html" xlink:title="The base class for all colliders. @spicapi."><polygon fill="none" stroke="#000" points="493 -364 493 -531 650 -531 650 -364 493 -364"/><text x="571.5" y="-519" font-family="Helvetica,sans-Serif" font-size="10" text-anchor="middle">spic::Collider</text><polyline fill="none" stroke="#000" points="493 -512 650 -512"/><polyline fill="none" stroke="#000" points="493 -493 650 -493"/><text x="501" y="-481" font-family="Helvetica,sans-Serif" font-size="10" text-anchor="start">+ auto GetCollisions</text><text x="501" y="-470" font-family="Helvetica,sans-Serif" font-size="10" text-anchor="start">() const -&gt; const std</text><text x="501" y="-459" font-family="Helvetica,sans-Serif" font-size="10" text-anchor="start">::vector&lt; Collision &gt; &amp;</text><text x="501" y="-448" font-family="Helvetica,sans-Serif" font-size="10" text-anchor="start">+ auto GetCollisionsWith</text><text x="501" y="-437" font-family="Helvetica,sans-Serif" font-size="10" text-anchor="start">(const Collider &amp;col)</text><text x="501" y="-426" font-family="Helvetica,sans-Serif" font-size="10" text-anchor="start">-&gt; std::vector&lt; Collision &gt;</text><text x="501" y="-415" font-family="Helvetica,sans-Serif" font-size="10" text-anchor="start">+ auto GetCollisionById</text><text x="501" y="-404" font-family="Helvetica,sans-Serif" font-size="10" text-anchor="start">(int uid) -&gt; Collision &amp;</text><text x="501" y="-393" font-family="Helvetica,sans-Serif" font-size="10" text-anchor="start">+ void AddCollision(Collision col)</text><text x="501" y="-382" font-family="Helvetica,sans-Serif" font-size="10" text-anchor="start">+ void RemoveCollision</text><text x="501" y="-371" font-family="Helvetica,sans-Serif" font-size="10" text-anchor="start">(int uid)</text></a></g></g><g id="edge5" class="edge"><title>Node1-&gt;Node6</title><path fill="none" stroke="#191970" d="M527.55,-618.36C535.34,-588.24 543.2,-557.86 550.08,-531.29"/><polygon fill="none" stroke="#191970" points="524.14 -617.57 525.02 -628.13 530.91 -619.32 524.14 -617.57"/></g><g id="node9" class="node"><title>Node9</title><g id="a_node9"><a target="_top" xlink:href="classspic_1_1RigidBody.html" xlink:title="A component representing a rigid body."><polygon fill="none" stroke="#000" points="668.5 -325.5 668.5 -569.5 812.5 -569.5 812.5 -325.5 668.5 -325.5"/><text x="740.5" y="-557.5" font-family="Helvetica,sans-Serif" font-size="10" text-anchor="middle">spic::RigidBody</text><polyline fill="none" stroke="#000" points="668.5 -550.5 812.5 -550.5"/><text x="676.5" y="-538.5" font-family="Helvetica,sans-Serif" font-size="10" text-anchor="start"># float _mass</text><text x="676.5" y="-527.5" font-family="Helvetica,sans-Serif" font-size="10" text-anchor="start"># float _gravityScale</text><text x="676.5" y="-516.5" font-family="Helvetica,sans-Serif" font-size="10" text-anchor="start"># enum BodyType _bodyType</text><text x="676.5" y="-505.5" font-family="Helvetica,sans-Serif" font-size="10" text-anchor="start"># std::map&lt; CollisionPoint,</text><text x="676.5" y="-494.5" font-family="Helvetica,sans-Serif" font-size="10" text-anchor="start">int &gt; _moveRestrictions</text><polyline fill="none" stroke="#000" points="668.5 -487.5 812.5 -487.5"/><text x="676.5" y="-475.5" font-family="Helvetica,sans-Serif" font-size="10" text-anchor="start">+ void serialize(archive</text><text x="676.5" y="-464.5" font-family="Helvetica,sans-Serif" font-size="10" text-anchor="start">&amp;ar, const unsigned)</text><text x="676.5" y="-453.5" font-family="Helvetica,sans-Serif" font-size="10" text-anchor="start">+ virtual void AddForce</text><text x="676.5" y="-442.5" font-family="Helvetica,sans-Serif" font-size="10" text-anchor="start">(const Point &amp;forceDirection)</text><text x="676.5" y="-431.5" font-family="Helvetica,sans-Serif" font-size="10" text-anchor="start">+ void BodyType(BodyType</text><text x="676.5" y="-420.5" font-family="Helvetica,sans-Serif" font-size="10" text-anchor="start">bodyType)</text><text x="676.5" y="-409.5" font-family="Helvetica,sans-Serif" font-size="10" text-anchor="start">+ auto BodyType() -&gt;</text><text x="676.5" y="-398.5" font-family="Helvetica,sans-Serif" font-size="10" text-anchor="start">enum BodyType</text><text x="676.5" y="-387.5" font-family="Helvetica,sans-Serif" font-size="10" text-anchor="start">+ bool CanMoveTo(Collision</text><text x="676.5" y="-376.5" font-family="Helvetica,sans-Serif" font-size="10" text-anchor="start">Point point)</text><text x="676.5" y="-365.5" font-family="Helvetica,sans-Serif" font-size="10" text-anchor="start">+ void AllowMoveTo(Collision</text><text x="676.5" y="-354.5" font-family="Helvetica,sans-Serif" font-size="10" text-anchor="start">Point point)</text><text x="676.5" y="-343.5" font-family="Helvetica,sans-Serif" font-size="10" text-anchor="start">+ void DenyMoveTo(Collision</text><text x="676.5" y="-332.5" font-family="Helvetica,sans-Serif" font-size="10" text-anchor="start">Point point)</text></a></g></g><g id="edge8" class="edge"><title>Node1-&gt;Node9</title><path fill="none" stroke="#191970" d="M570.12,-695.25C599.71,-664.28 632.16,-627.82 658.5,-592 663.77,-584.83 668.97,-577.3 674.03,-569.59"/><polygon fill="none" stroke="#191970" points="567.47 -692.96 563.06 -702.59 572.52 -697.81 567.47 -692.96"/></g><g id="node11" class="node"><title>Node11</title><g id="a_node11"><a target="_top" xlink:href="classspic_1_1Sprite.html" xlink:title="A component representing a sprite (small image) @spicapi."><polygon fill="none" stroke="#000" points="830.5 -325.5 830.5 -569.5 1020.5 -569.5 1020.5 -325.5 830.5 -325.5"/><text x="925.5" y="-557.5" font-family="Helvetica,sans-Serif" font-size="10" text-anchor="middle">spic::Sprite</text><polyline fill="none" stroke="#000" points="830.5 -550.5 1020.5 -550.5"/><text x="838.5" y="-538.5" font-family="Helvetica,sans-Serif" font-size="10" text-anchor="start"># std::string _spriteId</text><text x="838.5" y="-527.5" font-family="Helvetica,sans-Serif" font-size="10" text-anchor="start"># int _spriteWidth</text><text x="838.5" y="-516.5" font-family="Helvetica,sans-Serif" font-size="10" text-anchor="start"># int _spriteHeight</text><text x="838.5" y="-505.5" font-family="Helvetica,sans-Serif" font-size="10" text-anchor="start"># double _spriteScale</text><polyline fill="none" stroke="#000" points="830.5 -498.5 1020.5 -498.5"/><text x="838.5" y="-486.5" font-family="Helvetica,sans-Serif" font-size="10" text-anchor="start">+ void serialize(archive</text><text x="838.5" y="-475.5" font-family="Helvetica,sans-Serif" font-size="10" text-anchor="start">&amp;ar, const unsigned)</text><text x="838.5" y="-464.5" font-family="Helvetica,sans-Serif" font-size="10" text-anchor="start">+ Sprite(std::string</text><text x="838.5" y="-453.5" font-family="Helvetica,sans-Serif" font-size="10" text-anchor="start">spriteId, int sortingLayer,</text><text x="838.5" y="-442.5" font-family="Helvetica,sans-Serif" font-size="10" text-anchor="start">int orderInLayer, int spriteWidth,</text><text x="838.5" y="-431.5" font-family="Helvetica,sans-Serif" font-size="10" text-anchor="start">int spriteHeight, platformer_engine</text><text x="838.5" y="-420.5" font-family="Helvetica,sans-Serif" font-size="10" text-anchor="start">::SPIC_RendererFlip flip=platformer</text><text x="838.5" y="-409.5" font-family="Helvetica,sans-Serif" font-size="10" text-anchor="start">_engine::FLIP_NONE, Color color=Color</text><text x="838.5" y="-398.5" font-family="Helvetica,sans-Serif" font-size="10" text-anchor="start">::Transparent(), double spriteScale=1.0)</text><text x="838.5" y="-387.5" font-family="Helvetica,sans-Serif" font-size="10" text-anchor="start">+ auto GetSpriteId()</text><text x="838.5" y="-376.5" font-family="Helvetica,sans-Serif" font-size="10" text-anchor="start">const -&gt; std::string</text><text x="838.5" y="-365.5" font-family="Helvetica,sans-Serif" font-size="10" text-anchor="start">+ auto GetSpriteScale</text><text x="838.5" y="-354.5" font-family="Helvetica,sans-Serif" font-size="10" text-anchor="start">() const -&gt; double</text><text x="838.5" y="-343.5" font-family="Helvetica,sans-Serif" font-size="10" text-anchor="start">+ void Render(spic::Transform</text><text x="838.5" y="-332.5" font-family="Helvetica,sans-Serif" font-size="10" text-anchor="start">transform)</text></a></g></g><g id="edge10" class="edge"><title>Node1-&gt;Node11</title><path fill="none" stroke="#191970" d="M572.82,-742.08C644.64,-710.2 746.84,-658.03 821.5,-592 829.22,-585.17 836.7,-577.67 843.87,-569.8"/><polygon fill="none" stroke="#191970" points="571.08 -739.02 563.34 -746.25 573.9 -745.43 571.08 -739.02"/></g><g id="node5" class="node"><title>Node5</title><g id="a_node5"><a target="_top" xlink:href="classplatformer__engine_1_1CollisionBehaviour.html"><polygon fill="none" stroke="#000" points="234.5 -44.5 234.5 -222.5 366.5 -222.5 366.5 -44.5 234.5 -44.5"/><text x="242.5" y="-210.5" font-family="Helvetica,sans-Serif" font-size="10" text-anchor="start">platformer_engine::</text><text x="300.5" y="-199.5" font-family="Helvetica,sans-Serif" font-size="10" text-anchor="middle">CollisionBehaviour</text><polyline fill="none" stroke="#000" points="234.5 -192.5 366.5 -192.5"/><polyline fill="none" stroke="#000" points="234.5 -173.5 366.5 -173.5"/><text x="242.5" y="-161.5" font-family="Helvetica,sans-Serif" font-size="10" text-anchor="start">+ void OnStart() override</text><text x="242.5" y="-150.5" font-family="Helvetica,sans-Serif" font-size="10" text-anchor="start">+ void OnUpdate() override</text><text x="242.5" y="-139.5" font-family="Helvetica,sans-Serif" font-size="10" text-anchor="start">+ void OnTriggerEnter2D</text><text x="242.5" y="-128.5" font-family="Helvetica,sans-Serif" font-size="10" text-anchor="start">(Collision collision)</text><text x="242.5" y="-117.5" font-family="Helvetica,sans-Serif" font-size="10" text-anchor="start">override</text><text x="242.5" y="-106.5" font-family="Helvetica,sans-Serif" font-size="10" text-anchor="start">+ void OnTriggerExit2D</text><text x="242.5" y="-95.5" font-family="Helvetica,sans-Serif" font-size="10" text-anchor="start">(Collision collision)</text><text x="242.5" y="-84.5" font-family="Helvetica,sans-Serif" font-size="10" text-anchor="start">override</text><text x="242.5" y="-73.5" font-family="Helvetica,sans-Serif" font-size="10" text-anchor="start">+ void OnTriggerStay2D</text><text x="242.5" y="-62.5" font-family="Helvetica,sans-Serif" font-size="10" text-anchor="start">(Collision collision)</text><text x="242.5" y="-51.5" font-family="Helvetica,sans-Serif" font-size="10" text-anchor="start">override</text></a></g></g><g id="edge4" class="edge"><title>Node4-&gt;Node5</title><path fill="none" stroke="#191970" d="M377.72,-370.71C363.13,-326.08 344.61,-269.42 329.36,-222.78"/><polygon fill="none" stroke="#191970" points="374.43 -371.92 380.87 -380.33 381.09 -369.74 374.43 -371.92"/></g><g id="node7" class="node"><title>Node7</title><g id="a_node7"><a target="_top" xlink:href="classspic_1_1BoxCollider.html" xlink:title="A collider which represents a rectangular collision area."><polygon fill="none" stroke="#000" points="385 -83 385 -184 534 -184 534 -83 385 -83"/><text x="459.5" y="-172" font-family="Helvetica,sans-Serif" font-size="10" text-anchor="middle">spic::BoxCollider</text><polyline fill="none" stroke="#000" points="385 -165 534 -165"/><polyline fill="none" stroke="#000" points="385 -146 534 -146"/><text x="393" y="-134" font-family="Helvetica,sans-Serif" font-size="10" text-anchor="start">+ double Width() const</text><text x="393" y="-123" font-family="Helvetica,sans-Serif" font-size="10" text-anchor="start">+ void Width(double newWidth)</text><text x="393" y="-112" font-family="Helvetica,sans-Serif" font-size="10" text-anchor="start">+ double Height() const</text><text x="393" y="-101" font-family="Helvetica,sans-Serif" font-size="10" text-anchor="start">+ void Height(double</text><text x="393" y="-90" font-family="Helvetica,sans-Serif" font-size="10" text-anchor="start">newHeight)</text></a></g></g><g id="edge6" class="edge"><title>Node6-&gt;Node7</title><path fill="none" stroke="#191970" d="M538.36,-354.17C518.35,-298.44 493.64,-229.62 477.27,-184.01"/><polygon fill="none" stroke="#191970" points="535.11 -355.48 541.78 -363.71 541.7 -353.11 535.11 -355.48"/></g><g id="node8" class="node"><title>Node8</title><g id="a_node8"><a target="_top" xlink:href="classspic_1_1CircleCollider.html" xlink:title="A collider which represents a circular collision area."><polygon fill="none" stroke="#000" points="552.5 -94 552.5 -173 670.5 -173 670.5 -94 552.5 -94"/><text x="611.5" y="-161" font-family="Helvetica,sans-Serif" font-size="10" text-anchor="middle">spic::CircleCollider</text><polyline fill="none" stroke="#000" points="552.5 -154 670.5 -154"/><polyline fill="none" stroke="#000" points="552.5 -135 670.5 -135"/><text x="560.5" y="-123" font-family="Helvetica,sans-Serif" font-size="10" text-anchor="start">+ double Radius() const</text><text x="560.5" y="-112" font-family="Helvetica,sans-Serif" font-size="10" text-anchor="start">+ void Radius(double</text><text x="560.5" y="-101" font-family="Helvetica,sans-Serif" font-size="10" text-anchor="start">newRadius)</text></a></g></g><g id="edge7" class="edge"><title>Node6-&gt;Node8</title><path fill="none" stroke="#191970" d="M583.39,-353.78C591.12,-293.46 600.8,-217.94 606.55,-173.11"/><polygon fill="none" stroke="#191970" points="579.91 -353.34 582.11 -363.71 586.86 -354.24 579.91 -353.34"/></g><g id="node10" class="node"><title>Node10</title><g id="a_node10"><a target="_top" xlink:href="classMarioRigidBody.html"><polygon fill="none" stroke="#000" points="688.5 -88.5 688.5 -178.5 802.5 -178.5 802.5 -88.5 688.5 -88.5"/><text x="745.5" y="-166.5" font-family="Helvetica,sans-Serif" font-size="10" text-anchor="middle">MarioRigidBody</text><polyline fill="none" stroke="#000" points="688.5 -159.5 802.5 -159.5"/><polyline fill="none" stroke="#000" points="688.5 -140.5 802.5 -140.5"/><text x="696.5" y="-128.5" font-family="Helvetica,sans-Serif" font-size="10" text-anchor="start">+ MarioRigidBody()</text><text x="696.5" y="-117.5" font-family="Helvetica,sans-Serif" font-size="10" text-anchor="start">+ void AddForce(const</text><text x="696.5" y="-106.5" font-family="Helvetica,sans-Serif" font-size="10" text-anchor="start">Point &amp;forceDirection)</text><text x="696.5" y="-95.5" font-family="Helvetica,sans-Serif" font-size="10" text-anchor="start">override</text></a></g></g><g id="edge9" class="edge"><title>Node9-&gt;Node10</title><path fill="none" stroke="#191970" d="M742.6,-315.4C743.38,-266.61 744.22,-214.48 744.79,-178.78"/><polygon fill="none" stroke="#191970" points="739.1 -315.37 742.44 -325.43 746.1 -315.48 739.1 -315.37"/></g><g id="node12" class="node"><title>Node12</title><g id="a_node12"><a target="_top" xlink:href="classplatformer__engine_1_1AnimatedSprite.html" xlink:title="AnimatedSprite class which is used to animate sprites."><polygon fill="none" stroke="#000" points="825 -.5 825 -266.5 1026 -266.5 1026 -.5 825 -.5"/><text x="833" y="-254.5" font-family="Helvetica,sans-Serif" font-size="10" text-anchor="start">platformer_engine::</text><text x="925.5" y="-243.5" font-family="Helvetica,sans-Serif" font-size="10" text-anchor="middle">AnimatedSprite</text><polyline fill="none" stroke="#000" points="825 -236.5 1026 -236.5"/><polyline fill="none" stroke="#000" points="825 -217.5 1026 -217.5"/><text x="833" y="-205.5" font-family="Helvetica,sans-Serif" font-size="10" text-anchor="start">+ void serialize(archive</text><text x="833" y="-194.5" font-family="Helvetica,sans-Serif" font-size="10" text-anchor="start">&amp;ar, const unsigned)</text><text x="833" y="-183.5" font-family="Helvetica,sans-Serif" font-size="10" text-anchor="start">+ AnimatedSprite(std</text><text x="833" y="-172.5" font-family="Helvetica,sans-Serif" font-size="10" text-anchor="start">::string spriteId, int</text><text x="833" y="-161.5" font-family="Helvetica,sans-Serif" font-size="10" text-anchor="start">sortingLayer, int orderInLayer,</text><text x="833" y="-150.5" font-family="Helvetica,sans-Serif" font-size="10" text-anchor="start">int spriteWidth, int spriteHeight,</text><text x="833" y="-139.5" font-family="Helvetica,sans-Serif" font-size="10" text-anchor="start">int frameCount, int animationSpeed,</text><text x="833" y="-128.5" font-family="Helvetica,sans-Serif" font-size="10" text-anchor="start">int spriteRow, platformer_engine::</text><text x="833" y="-117.5" font-family="Helvetica,sans-Serif" font-size="10" text-anchor="start">SPIC_RendererFlip flip=platformer_engine</text><text x="833" y="-106.5" font-family="Helvetica,sans-Serif" font-size="10" text-anchor="start">::FLIP_NONE, spic::Color color=spic::Color</text><text x="833" y="-95.5" font-family="Helvetica,sans-Serif" font-size="10" text-anchor="start">::Transparent(), double spriteScale=1.0)</text><text x="833" y="-84.5" font-family="Helvetica,sans-Serif" font-size="10" text-anchor="start">+ void Update()</text><text x="833" y="-73.5" font-family="Helvetica,sans-Serif" font-size="10" text-anchor="start">+ void Draw(spic::Transform</text><text x="833" y="-62.5" font-family="Helvetica,sans-Serif" font-size="10" text-anchor="start">transform)</text><text x="833" y="-51.5" font-family="Helvetica,sans-Serif" font-size="10" text-anchor="start">+ void ResetCurrentFrame()</text><text x="833" y="-40.5" font-family="Helvetica,sans-Serif" font-size="10" text-anchor="start">+ auto GetCurrentFrame</text><text x="833" y="-29.5" font-family="Helvetica,sans-Serif" font-size="10" text-anchor="start">() const -&gt; int</text><text x="833" y="-18.5" font-family="Helvetica,sans-Serif" font-size="10" text-anchor="start">+ auto GetFrameCount</text><text x="833" y="-7.5" font-family="Helvetica,sans-Serif" font-size="10" text-anchor="start">() const -&gt; int</text></a></g></g><g id="edge11" class="edge"><title>Node11-&gt;Node12</title><path fill="none" stroke="#191970" d="M925.5,-314.97C925.5,-298.98 925.5,-282.63 925.5,-266.63"/><polygon fill="none" stroke="#191970" points="922 -315.43 925.5 -325.43 929 -315.43 922 -315.43"/></g></g></svg><g id="navigator" fill="#404254" transform="translate(0 0)"><rect width="60" height="60" x="0" y="0" fill="#f2f5e9" fill-opacity=".5" stroke="#606060" stroke-width=".5"/><use id="zoomplus" x="17" y="9" onmousedown="handleZoom(evt,'in')" xlink:href="#zoomPlus"/><use id="zoomminus" x="42" y="9" onmousedown="handleZoom(evt,'out')" xlink:href="#zoomMin"/><use id="reset" x="30" y="36" onmousedown="handleReset()" xlink:href="#resetDef"/><g id="arrowUp" onmousedown="handlePan(0,-1)" transform="translate(30 24)" xlink:href="#dirArrow"><use fill="#404040" xlink:href="#rim"><set attributeName="fill" begin="arrowUp.mouseover" end="arrowUp.mouseout" to="#808080"/></use><path fill="none" stroke="#fff" stroke-width="1.5" d="M0,-3.0v7 M-2.5,-0.5L0,-3.0L2.5,-0.5"/></g><g id="arrowRight" onmousedown="handlePan(1,0)" transform="rotate(90) translate(36 -43)" xlink:href="#dirArrow"><use fill="#404040" xlink:href="#rim"><set attributeName="fill" begin="arrowRight.mouseover" end="arrowRight.mouseout" to="#808080"/></use><path fill="none" stroke="#fff" stroke-width="1.5" d="M0,-3.0v7 M-2.5,-0.5L0,-3.0L2.5,-0.5"/></g><g id="arrowDown" onmousedown="handlePan(0,1)" transform="rotate(180) translate(-30 -48)" xlink:href="#dirArrow"><use fill="#404040" xlink:href="#rim"><set attributeName="fill" begin="arrowDown.mouseover" end="arrowDown.mouseout" to="#808080"/></use><path fill="none" stroke="#fff" stroke-width="1.5" d="M0,-3.0v7 M-2.5,-0.5L0,-3.0L2.5,-0.5"/></g><g id="arrowLeft" onmousedown="handlePan(-1,0)" transform="rotate(270) translate(-36 17)" xlink:href="#dirArrow"><use fill="#404040" xlink:href="#rim"><set attributeName="fill" begin="arrowLeft.mouseover" end="arrowLeft.mouseout" to="#808080"/></use><path fill="none" stroke="#fff" stroke-width="1.5" d="M0,-3.0v7 M-2.5,-0.5L0,-3.0L2.5,-0.5"/></g></g><svg width="100%" height="30" preserveAspectRatio="xMaxYMin meet" viewBox="0 0 15 15"><g id="arrow_out" transform="scale(0.3 0.3)"><a target="_base" xlink:href="classspic_1_1Component__inherit__graph_org.svg"><rect id="button" width="38" height="38" x="6" y="6" fill="#f2f5e9" fill-opacity=".5" stroke="#606060" stroke-width="1" rx="5" ry="5"/><path id="arrow" d="M 11.500037,31.436501 C 11.940474,20.09759 22.043105,11.32322 32.158766,21.979434 L 37.068811,17.246167 C 37.068811,17.246167 37.088388,32 37.088388,32 L 22.160133,31.978069 C 22.160133,31.978069 26.997745,27.140456 26.997745,27.140456 C 18.528582,18.264221 13.291696,25.230495 11.500037,31.436501 z" style="fill:#404040"/></a></g></svg></svg>