<?xml version="1.0" encoding="UTF-8" standalone="no"?>
<!DOCTYPE svg PUBLIC "-//W3C//DTD SVG 1.1//EN"
 "http://www.w3.org/Graphics/SVG/1.1/DTD/svg11.dtd">
<!-- Generated by graphviz version 2.44.0 ()
 -->
<!-- Title: spic::NoClientNetworkManagerActiveException Pages: 1 -->
<svg width="172pt" height="182pt"
 viewBox="0.00 0.00 172.00 182.00" xmlns="http://www.w3.org/2000/svg" xmlns:xlink="http://www.w3.org/1999/xlink">
<g id="graph0" class="graph" transform="scale(1 1) rotate(0) translate(4 178)">
<title>spic::NoClientNetworkManagerActiveException</title>
<!-- Node1 -->
<g id="node1" class="node">
<title>Node1</title>
<g id="a_node1"><a xlink:title=" ">
<polygon fill="#bfbfbf" stroke="black" points="0,-0.5 0,-79.5 164,-79.5 164,-0.5 0,-0.5"/>
<text text-anchor="start" x="8" y="-67.5" font-family="Helvetica,sans-Serif" font-size="10.00">spic::NoClientNetworkManager</text>
<text text-anchor="middle" x="82" y="-56.5" font-family="Helvetica,sans-Serif" font-size="10.00">ActiveException</text>
<polyline fill="none" stroke="black" points="0,-49.5 164,-49.5 "/>
<text text-anchor="middle" x="82" y="-37.5" font-family="Helvetica,sans-Serif" font-size="10.00"> </text>
<polyline fill="none" stroke="black" points="0,-30.5 164,-30.5 "/>
<text text-anchor="start" x="8" y="-18.5" font-family="Helvetica,sans-Serif" font-size="10.00">+ NoClientNetworkManagerActive</text>
<text text-anchor="start" x="8" y="-7.5" font-family="Helvetica,sans-Serif" font-size="10.00">Exception()</text>
</a>
</g>
</g>
<!-- Node2 -->
<g id="node2" class="node">
<title>Node2</title>
<g id="a_node2"><a xlink:title=" ">
<polygon fill="none" stroke="#bfbfbf" points="42,-116.5 42,-173.5 122,-173.5 122,-116.5 42,-116.5"/>
<text text-anchor="middle" x="82" y="-161.5" font-family="Helvetica,sans-Serif" font-size="10.00">std::logic_error</text>
<polyline fill="none" stroke="#bfbfbf" points="42,-154.5 122,-154.5 "/>
<text text-anchor="middle" x="82" y="-142.5" font-family="Helvetica,sans-Serif" font-size="10.00"> </text>
<polyline fill="none" stroke="#bfbfbf" points="42,-135.5 122,-135.5 "/>
<text text-anchor="middle" x="82" y="-123.5" font-family="Helvetica,sans-Serif" font-size="10.00"> </text>
</a>
</g>
</g>
<!-- Node2&#45;&gt;Node1 -->
<g id="edge1" class="edge">
<title>Node2&#45;&gt;Node1</title>
<path fill="none" stroke="midnightblue" d="M82,-106.16C82,-97.47 82,-88.23 82,-79.52"/>
<polygon fill="none" stroke="midnightblue" points="78.5,-106.4 82,-116.4 85.5,-106.4 78.5,-106.4"/>
</g>
</g>
</svg>
