<svg xmlns="http://www.w3.org/2000/svg" xmlns:xlink="http://www.w3.org/1999/xlink" width="161pt" height="160pt" viewBox="0 0 161 160"><g id="graph0" class="graph" transform="scale(1 1) rotate(0) translate(4 156)"><title>spic::NotImplementedException</title><g id="node1" class="node"><title>Node1</title><g id="a_node1"><a><polygon fill="#bfbfbf" stroke="#000" points="0 -.5 0 -57.5 153 -57.5 153 -.5 0 -.5"/><text x="76.5" y="-45.5" font-family="Helvetica,sans-Serif" font-size="10" text-anchor="middle">spic::NotImplementedException</text><polyline fill="none" stroke="#000" points="0 -38.5 153 -38.5"/><polyline fill="none" stroke="#000" points="0 -19.5 153 -19.5"/><text x="8" y="-7.5" font-family="Helvetica,sans-Serif" font-size="10" text-anchor="start">+ NotImplementedException()</text></a></g></g><g id="node2" class="node"><title>Node2</title><g id="a_node2"><a><polygon fill="none" stroke="#bfbfbf" points="36.5 -94.5 36.5 -151.5 116.5 -151.5 116.5 -94.5 36.5 -94.5"/><text x="76.5" y="-139.5" font-family="Helvetica,sans-Serif" font-size="10" text-anchor="middle">std::logic_error</text><polyline fill="none" stroke="#bfbfbf" points="36.5 -132.5 116.5 -132.5"/><polyline fill="none" stroke="#bfbfbf" points="36.5 -113.5 116.5 -113.5"/></a></g></g><g id="edge1" class="edge"><title>Node2-&gt;Node1</title><path fill="none" stroke="#191970" d="M76.5,-84.21C76.5,-75.29 76.5,-65.95 76.5,-57.58"/><polygon fill="none" stroke="#191970" points="73 -84.4 76.5 -94.4 80 -84.4 73 -84.4"/></g></g></svg>