<svg xmlns="http://www.w3.org/2000/svg" xmlns:xlink="http://www.w3.org/1999/xlink" width="136pt" height="182pt" viewBox="0 0 136 182"><g id="graph0" class="graph" transform="scale(1 1) rotate(0) translate(4 178)"><title>spic::InvalidPortException</title><g id="node1" class="node"><title>Node1</title><g id="a_node1"><a><polygon fill="#bfbfbf" stroke="#000" points="0 -.5 0 -79.5 128 -79.5 128 -.5 0 -.5"/><text x="64" y="-67.5" font-family="Helvetica,sans-Serif" font-size="10" text-anchor="middle">spic::InvalidPortException</text><polyline fill="none" stroke="#000" points="0 -60.5 128 -60.5"/><polyline fill="none" stroke="#000" points="0 -41.5 128 -41.5"/><text x="8" y="-29.5" font-family="Helvetica,sans-Serif" font-size="10" text-anchor="start">+ InvalidPortException</text><text x="8" y="-18.5" font-family="Helvetica,sans-Serif" font-size="10" text-anchor="start">(int chosenPort, int</text><text x="8" y="-7.5" font-family="Helvetica,sans-Serif" font-size="10" text-anchor="start">minPort, int maxPort)</text></a></g></g><g id="node2" class="node"><title>Node2</title><g id="a_node2"><a><polygon fill="none" stroke="#bfbfbf" points="24 -116.5 24 -173.5 104 -173.5 104 -116.5 24 -116.5"/><text x="64" y="-161.5" font-family="Helvetica,sans-Serif" font-size="10" text-anchor="middle">std::logic_error</text><polyline fill="none" stroke="#bfbfbf" points="24 -154.5 104 -154.5"/><polyline fill="none" stroke="#bfbfbf" points="24 -135.5 104 -135.5"/></a></g></g><g id="edge1" class="edge"><title>Node2-&gt;Node1</title><path fill="none" stroke="#191970" d="M64,-106.16C64,-97.47 64,-88.23 64,-79.52"/><polygon fill="none" stroke="#191970" points="60.5 -106.4 64 -116.4 67.5 -106.4 60.5 -106.4"/></g></g></svg>