<?xml version="1.0" encoding="UTF-8" standalone="no"?>
<!DOCTYPE svg PUBLIC "-//W3C//DTD SVG 1.1//EN"
 "http://www.w3.org/Graphics/SVG/1.1/DTD/svg11.dtd">
<!-- Generated by graphviz version 2.44.0 ()
 -->
<!-- Title: spic::Component Pages: 1 -->
<svg width="756pt" height="595pt"
 viewBox="0.00 0.00 756.00 595.00" xmlns="http://www.w3.org/2000/svg" xmlns:xlink="http://www.w3.org/1999/xlink">
<g id="graph0" class="graph" transform="scale(1 1) rotate(0) translate(4 591)">
<title>spic::Component</title>
<!-- Node1 -->
<g id="node1" class="node">
<title>Node1</title>
<g id="a_node1"><a xlink:title="Base class for all components.">
<polygon fill="#bfbfbf" stroke="black" points="337,-309.5 337,-586.5 490,-586.5 490,-309.5 337,-309.5"/>
<text text-anchor="middle" x="413.5" y="-574.5" font-family="Helvetica,sans-Serif" font-size="10.00">spic::Component</text>
<polyline fill="none" stroke="black" points="337,-567.5 490,-567.5 "/>
<text text-anchor="middle" x="413.5" y="-555.5" font-family="Helvetica,sans-Serif" font-size="10.00"> </text>
<polyline fill="none" stroke="black" points="337,-548.5 490,-548.5 "/>
<text text-anchor="start" x="345" y="-536.5" font-family="Helvetica,sans-Serif" font-size="10.00">+ Component()=default</text>
<text text-anchor="start" x="345" y="-525.5" font-family="Helvetica,sans-Serif" font-size="10.00">+ virtual ~Component</text>
<text text-anchor="start" x="345" y="-514.5" font-family="Helvetica,sans-Serif" font-size="10.00">()=default</text>
<text text-anchor="start" x="345" y="-503.5" font-family="Helvetica,sans-Serif" font-size="10.00">+ Component(const Component</text>
<text text-anchor="start" x="345" y="-492.5" font-family="Helvetica,sans-Serif" font-size="10.00"> &amp;other)=default</text>
<text text-anchor="start" x="345" y="-481.5" font-family="Helvetica,sans-Serif" font-size="10.00">+ auto operator=(const</text>
<text text-anchor="start" x="345" y="-470.5" font-family="Helvetica,sans-Serif" font-size="10.00"> Component &amp;other) &#45;&gt;</text>
<text text-anchor="start" x="345" y="-459.5" font-family="Helvetica,sans-Serif" font-size="10.00"> Component &amp;=default</text>
<text text-anchor="start" x="345" y="-448.5" font-family="Helvetica,sans-Serif" font-size="10.00">+ Component(Component</text>
<text text-anchor="start" x="345" y="-437.5" font-family="Helvetica,sans-Serif" font-size="10.00"> &amp;&amp;other)=default</text>
<text text-anchor="start" x="345" y="-426.5" font-family="Helvetica,sans-Serif" font-size="10.00">+ auto operator=(Component</text>
<text text-anchor="start" x="345" y="-415.5" font-family="Helvetica,sans-Serif" font-size="10.00"> &amp;&amp;other) &#45;&gt; Component</text>
<text text-anchor="start" x="345" y="-404.5" font-family="Helvetica,sans-Serif" font-size="10.00"> &amp;=default</text>
<text text-anchor="start" x="345" y="-393.5" font-family="Helvetica,sans-Serif" font-size="10.00">+ auto Active() const</text>
<text text-anchor="start" x="345" y="-382.5" font-family="Helvetica,sans-Serif" font-size="10.00"> &#45;&gt; bool</text>
<text text-anchor="start" x="345" y="-371.5" font-family="Helvetica,sans-Serif" font-size="10.00">+ void Active(bool flag)</text>
<text text-anchor="start" x="345" y="-360.5" font-family="Helvetica,sans-Serif" font-size="10.00">+ void SetGameObject</text>
<text text-anchor="start" x="345" y="-349.5" font-family="Helvetica,sans-Serif" font-size="10.00">(std::weak_ptr&lt; GameObject</text>
<text text-anchor="start" x="345" y="-338.5" font-family="Helvetica,sans-Serif" font-size="10.00"> &gt; gObj)</text>
<text text-anchor="start" x="345" y="-327.5" font-family="Helvetica,sans-Serif" font-size="10.00">+ std::weak_ptr&lt; GameObject</text>
<text text-anchor="start" x="345" y="-316.5" font-family="Helvetica,sans-Serif" font-size="10.00"> &gt; GetGameObject()</text>
</a>
</g>
</g>
<!-- Node2 -->
<g id="node2" class="node">
<title>Node2</title>
<g id="a_node2"><a xlink:href="classspic_1_1Animator.html" target="_top" xlink:title="A component which can play animated sequences of sprites.">
<polygon fill="none" stroke="black" points="0,-171.5 0,-239.5 121,-239.5 121,-171.5 0,-171.5"/>
<text text-anchor="middle" x="60.5" y="-227.5" font-family="Helvetica,sans-Serif" font-size="10.00">spic::Animator</text>
<polyline fill="none" stroke="black" points="0,-220.5 121,-220.5 "/>
<text text-anchor="middle" x="60.5" y="-208.5" font-family="Helvetica,sans-Serif" font-size="10.00"> </text>
<polyline fill="none" stroke="black" points="0,-201.5 121,-201.5 "/>
<text text-anchor="start" x="8" y="-189.5" font-family="Helvetica,sans-Serif" font-size="10.00">+ void Play(bool looping)</text>
<text text-anchor="start" x="8" y="-178.5" font-family="Helvetica,sans-Serif" font-size="10.00">+ void Stop()</text>
</a>
</g>
</g>
<!-- Node1&#45;&gt;Node2 -->
<g id="edge1" class="edge">
<title>Node1&#45;&gt;Node2</title>
<path fill="none" stroke="midnightblue" d="M327.94,-401.06C269.86,-368.35 192.48,-321.71 129.5,-273 116.6,-263.03 103.47,-250.94 92.17,-239.83"/>
<polygon fill="none" stroke="midnightblue" points="326.29,-404.15 336.72,-405.99 329.71,-398.05 326.29,-404.15"/>
</g>
<!-- Node3 -->
<g id="node3" class="node">
<title>Node3</title>
<g id="a_node3"><a xlink:href="classspic_1_1AudioSource.html" target="_top" xlink:title="Component which can play audio.">
<polygon fill="none" stroke="black" points="139,-171.5 139,-239.5 260,-239.5 260,-171.5 139,-171.5"/>
<text text-anchor="middle" x="199.5" y="-227.5" font-family="Helvetica,sans-Serif" font-size="10.00">spic::AudioSource</text>
<polyline fill="none" stroke="black" points="139,-220.5 260,-220.5 "/>
<text text-anchor="middle" x="199.5" y="-208.5" font-family="Helvetica,sans-Serif" font-size="10.00"> </text>
<polyline fill="none" stroke="black" points="139,-201.5 260,-201.5 "/>
<text text-anchor="start" x="147" y="-189.5" font-family="Helvetica,sans-Serif" font-size="10.00">+ void Play(bool looping)</text>
<text text-anchor="start" x="147" y="-178.5" font-family="Helvetica,sans-Serif" font-size="10.00">+ void Stop()</text>
</a>
</g>
</g>
<!-- Node1&#45;&gt;Node3 -->
<g id="edge2" class="edge">
<title>Node1&#45;&gt;Node3</title>
<path fill="none" stroke="midnightblue" d="M329.77,-352.9C294.13,-312.85 254.88,-268.73 228.87,-239.51"/>
<polygon fill="none" stroke="midnightblue" points="327.58,-355.71 336.85,-360.85 332.81,-351.06 327.58,-355.71"/>
</g>
<!-- Node4 -->
<g id="node4" class="node">
<title>Node4</title>
<g id="a_node4"><a xlink:href="classspic_1_1BehaviourScript.html" target="_top" xlink:title=" ">
<polygon fill="none" stroke="black" points="278.5,-138.5 278.5,-272.5 422.5,-272.5 422.5,-138.5 278.5,-138.5"/>
<text text-anchor="middle" x="350.5" y="-260.5" font-family="Helvetica,sans-Serif" font-size="10.00">spic::BehaviourScript</text>
<polyline fill="none" stroke="black" points="278.5,-253.5 422.5,-253.5 "/>
<text text-anchor="middle" x="350.5" y="-241.5" font-family="Helvetica,sans-Serif" font-size="10.00"> </text>
<polyline fill="none" stroke="black" points="278.5,-234.5 422.5,-234.5 "/>
<text text-anchor="start" x="286.5" y="-222.5" font-family="Helvetica,sans-Serif" font-size="10.00">+ virtual void OnStart()</text>
<text text-anchor="start" x="286.5" y="-211.5" font-family="Helvetica,sans-Serif" font-size="10.00">+ virtual void OnUpdate()</text>
<text text-anchor="start" x="286.5" y="-200.5" font-family="Helvetica,sans-Serif" font-size="10.00">+ virtual void OnTriggerEnter2</text>
<text text-anchor="start" x="286.5" y="-189.5" font-family="Helvetica,sans-Serif" font-size="10.00">D(const Collision collision)</text>
<text text-anchor="start" x="286.5" y="-178.5" font-family="Helvetica,sans-Serif" font-size="10.00">+ virtual void OnTriggerExit2</text>
<text text-anchor="start" x="286.5" y="-167.5" font-family="Helvetica,sans-Serif" font-size="10.00">D(const Collision collision)</text>
<text text-anchor="start" x="286.5" y="-156.5" font-family="Helvetica,sans-Serif" font-size="10.00">+ virtual void OnTriggerStay2</text>
<text text-anchor="start" x="286.5" y="-145.5" font-family="Helvetica,sans-Serif" font-size="10.00">D(const Collision collision)</text>
</a>
</g>
</g>
<!-- Node1&#45;&gt;Node4 -->
<g id="edge3" class="edge">
<title>Node1&#45;&gt;Node4</title>
<path fill="none" stroke="midnightblue" d="M374.86,-299.51C372.45,-290.29 370.09,-281.3 367.86,-272.76"/>
<polygon fill="none" stroke="midnightblue" points="371.48,-300.4 377.4,-309.19 378.25,-298.63 371.48,-300.4"/>
</g>
<!-- Node5 -->
<g id="node5" class="node">
<title>Node5</title>
<g id="a_node5"><a xlink:href="classspic_1_1Collider.html" target="_top" xlink:title="The base class for all colliders. @spicapi.">
<polygon fill="none" stroke="black" points="441,-177 441,-234 512,-234 512,-177 441,-177"/>
<text text-anchor="middle" x="476.5" y="-222" font-family="Helvetica,sans-Serif" font-size="10.00">spic::Collider</text>
<polyline fill="none" stroke="black" points="441,-215 512,-215 "/>
<text text-anchor="middle" x="476.5" y="-203" font-family="Helvetica,sans-Serif" font-size="10.00"> </text>
<polyline fill="none" stroke="black" points="441,-196 512,-196 "/>
<text text-anchor="middle" x="476.5" y="-184" font-family="Helvetica,sans-Serif" font-size="10.00"> </text>
</a>
</g>
</g>
<!-- Node1&#45;&gt;Node5 -->
<g id="edge4" class="edge">
<title>Node1&#45;&gt;Node5</title>
<path fill="none" stroke="midnightblue" d="M452.21,-299.22C458.72,-274.38 464.79,-251.19 469.24,-234.22"/>
<polygon fill="none" stroke="midnightblue" points="448.75,-298.63 449.6,-309.19 455.52,-300.4 448.75,-298.63"/>
</g>
<!-- Node8 -->
<g id="node8" class="node">
<title>Node8</title>
<g id="a_node8"><a xlink:href="classspic_1_1RigidBody.html" target="_top" xlink:title="A component representing a rigid body.">
<polygon fill="none" stroke="black" points="530.5,-149.5 530.5,-261.5 664.5,-261.5 664.5,-149.5 530.5,-149.5"/>
<text text-anchor="middle" x="597.5" y="-249.5" font-family="Helvetica,sans-Serif" font-size="10.00">spic::RigidBody</text>
<polyline fill="none" stroke="black" points="530.5,-242.5 664.5,-242.5 "/>
<text text-anchor="middle" x="597.5" y="-230.5" font-family="Helvetica,sans-Serif" font-size="10.00"> </text>
<polyline fill="none" stroke="black" points="530.5,-223.5 664.5,-223.5 "/>
<text text-anchor="start" x="538.5" y="-211.5" font-family="Helvetica,sans-Serif" font-size="10.00">+ void AddForce(const</text>
<text text-anchor="start" x="538.5" y="-200.5" font-family="Helvetica,sans-Serif" font-size="10.00"> Point &amp;forceDirection)</text>
<text text-anchor="start" x="538.5" y="-189.5" font-family="Helvetica,sans-Serif" font-size="10.00">+ void BodyType(BodyType</text>
<text text-anchor="start" x="538.5" y="-178.5" font-family="Helvetica,sans-Serif" font-size="10.00"> bodyType)</text>
<text text-anchor="start" x="538.5" y="-167.5" font-family="Helvetica,sans-Serif" font-size="10.00">+ auto BodyType() &#45;&gt;</text>
<text text-anchor="start" x="538.5" y="-156.5" font-family="Helvetica,sans-Serif" font-size="10.00"> enum BodyType</text>
</a>
</g>
</g>
<!-- Node1&#45;&gt;Node8 -->
<g id="edge7" class="edge">
<title>Node1&#45;&gt;Node8</title>
<path fill="none" stroke="midnightblue" d="M496.5,-338.52C516.86,-311.9 537.81,-284.51 555.32,-261.63"/>
<polygon fill="none" stroke="midnightblue" points="493.5,-336.68 490.2,-346.75 499.06,-340.93 493.5,-336.68"/>
</g>
<!-- Node9 -->
<g id="node9" class="node">
<title>Node9</title>
<g id="a_node9"><a xlink:href="classspic_1_1Sprite.html" target="_top" xlink:title="A component representing a sprite (small image) @spicapi.">
<polygon fill="none" stroke="black" points="683,-177 683,-234 748,-234 748,-177 683,-177"/>
<text text-anchor="middle" x="715.5" y="-222" font-family="Helvetica,sans-Serif" font-size="10.00">spic::Sprite</text>
<polyline fill="none" stroke="black" points="683,-215 748,-215 "/>
<text text-anchor="middle" x="715.5" y="-203" font-family="Helvetica,sans-Serif" font-size="10.00"> </text>
<polyline fill="none" stroke="black" points="683,-196 748,-196 "/>
<text text-anchor="middle" x="715.5" y="-184" font-family="Helvetica,sans-Serif" font-size="10.00"> </text>
</a>
</g>
</g>
<!-- Node1&#45;&gt;Node9 -->
<g id="edge8" class="edge">
<title>Node1&#45;&gt;Node9</title>
<path fill="none" stroke="midnightblue" d="M499.15,-402C553.34,-370.72 622.53,-325.34 673.5,-273 684.55,-261.65 694.21,-246.93 701.47,-234.23"/>
<polygon fill="none" stroke="midnightblue" points="497.19,-399.09 490.24,-407.09 500.66,-405.16 497.19,-399.09"/>
</g>
<!-- Node6 -->
<g id="node6" class="node">
<title>Node6</title>
<g id="a_node6"><a xlink:href="classspic_1_1BoxCollider.html" target="_top" xlink:title="A collider which represents a rectangular collision area.">
<polygon fill="none" stroke="black" points="326,-0.5 326,-101.5 475,-101.5 475,-0.5 326,-0.5"/>
<text text-anchor="middle" x="400.5" y="-89.5" font-family="Helvetica,sans-Serif" font-size="10.00">spic::BoxCollider</text>
<polyline fill="none" stroke="black" points="326,-82.5 475,-82.5 "/>
<text text-anchor="middle" x="400.5" y="-70.5" font-family="Helvetica,sans-Serif" font-size="10.00"> </text>
<polyline fill="none" stroke="black" points="326,-63.5 475,-63.5 "/>
<text text-anchor="start" x="334" y="-51.5" font-family="Helvetica,sans-Serif" font-size="10.00">+ double Width() const</text>
<text text-anchor="start" x="334" y="-40.5" font-family="Helvetica,sans-Serif" font-size="10.00">+ void Width(double newWidth)</text>
<text text-anchor="start" x="334" y="-29.5" font-family="Helvetica,sans-Serif" font-size="10.00">+ double Height() const</text>
<text text-anchor="start" x="334" y="-18.5" font-family="Helvetica,sans-Serif" font-size="10.00">+ void Height(double</text>
<text text-anchor="start" x="334" y="-7.5" font-family="Helvetica,sans-Serif" font-size="10.00"> newHeight)</text>
</a>
</g>
</g>
<!-- Node5&#45;&gt;Node6 -->
<g id="edge5" class="edge">
<title>Node5&#45;&gt;Node6</title>
<path fill="none" stroke="midnightblue" d="M458.24,-167.85C448.34,-148 435.97,-123.18 425.23,-101.61"/>
<polygon fill="none" stroke="midnightblue" points="455.14,-169.49 462.74,-176.88 461.41,-166.37 455.14,-169.49"/>
</g>
<!-- Node7 -->
<g id="node7" class="node">
<title>Node7</title>
<g id="a_node7"><a xlink:href="classspic_1_1CircleCollider.html" target="_top" xlink:title="A collider which represents a circular collision area.">
<polygon fill="none" stroke="black" points="493.5,-11.5 493.5,-90.5 611.5,-90.5 611.5,-11.5 493.5,-11.5"/>
<text text-anchor="middle" x="552.5" y="-78.5" font-family="Helvetica,sans-Serif" font-size="10.00">spic::CircleCollider</text>
<polyline fill="none" stroke="black" points="493.5,-71.5 611.5,-71.5 "/>
<text text-anchor="middle" x="552.5" y="-59.5" font-family="Helvetica,sans-Serif" font-size="10.00"> </text>
<polyline fill="none" stroke="black" points="493.5,-52.5 611.5,-52.5 "/>
<text text-anchor="start" x="501.5" y="-40.5" font-family="Helvetica,sans-Serif" font-size="10.00">+ double Radius() const</text>
<text text-anchor="start" x="501.5" y="-29.5" font-family="Helvetica,sans-Serif" font-size="10.00">+ void Radius(double</text>
<text text-anchor="start" x="501.5" y="-18.5" font-family="Helvetica,sans-Serif" font-size="10.00"> newRadius)</text>
</a>
</g>
</g>
<!-- Node5&#45;&gt;Node7 -->
<g id="edge6" class="edge">
<title>Node5&#45;&gt;Node7</title>
<path fill="none" stroke="midnightblue" d="M494.86,-167.67C506.48,-144.35 521.48,-114.24 533.27,-90.6"/>
<polygon fill="none" stroke="midnightblue" points="491.59,-166.37 490.26,-176.88 497.86,-169.49 491.59,-166.37"/>
</g>
</g>
</svg>
