<svg xmlns="http://www.w3.org/2000/svg" xmlns:xlink="http://www.w3.org/1999/xlink" width="232" height="193pt" viewBox="0 0 174 193"><g id="graph0" class="graph" transform="scale(1 1) rotate(0) translate(4 189)"><title>spic::CollisionByIdNotFoundException</title><g id="node1" class="node"><title>Node1</title><g id="a_node1"><a><polygon fill="#bfbfbf" stroke="#000" points="0 -.5 0 -90.5 166 -90.5 166 -.5 0 -.5"/><text x="8" y="-78.5" font-family="Helvetica,sans-Serif" font-size="10" text-anchor="start">spic::CollisionByIdNotFound</text><text x="83" y="-67.5" font-family="Helvetica,sans-Serif" font-size="10" text-anchor="middle">Exception</text><polyline fill="none" stroke="#000" points="0 -60.5 166 -60.5"/><polyline fill="none" stroke="#000" points="0 -41.5 166 -41.5"/><text x="8" y="-29.5" font-family="Helvetica,sans-Serif" font-size="10" text-anchor="start">+ CollisionByIdNotFoundException</text><text x="8" y="-18.5" font-family="Helvetica,sans-Serif" font-size="10" text-anchor="start">(const int uid, const std</text><text x="8" y="-7.5" font-family="Helvetica,sans-Serif" font-size="10" text-anchor="start">::string &amp;gameObjectName)</text></a></g></g><g id="node2" class="node"><title>Node2</title><g id="a_node2"><a><polygon fill="none" stroke="#bfbfbf" points="43 -127.5 43 -184.5 123 -184.5 123 -127.5 43 -127.5"/><text x="83" y="-172.5" font-family="Helvetica,sans-Serif" font-size="10" text-anchor="middle">std::logic_error</text><polyline fill="none" stroke="#bfbfbf" points="43 -165.5 123 -165.5"/><polyline fill="none" stroke="#bfbfbf" points="43 -146.5 123 -146.5"/></a></g></g><g id="edge1" class="edge"><title>Node2-&gt;Node1</title><path fill="none" stroke="#191970" d="M83,-117.21C83,-108.61 83,-99.39 83,-90.55"/><polygon fill="none" stroke="#191970" points="79.5 -117.34 83 -127.34 86.5 -117.34 79.5 -117.34"/></g></g></svg>