<svg xmlns="http://www.w3.org/2000/svg" xmlns:xlink="http://www.w3.org/1999/xlink" width="161pt" height="413pt" viewBox="0 0 161 413"><g id="graph0" class="graph" transform="scale(1 1) rotate(0) translate(4 409)"><title>spic::AudioSource</title><g id="node1" class="node"><title>Node1</title><g id="a_node1"><a xlink:title="Component which can play audio."><polygon fill="#bfbfbf" stroke="#000" points="16 -.5 16 -68.5 137 -68.5 137 -.5 16 -.5"/><text x="76.5" y="-56.5" font-family="Helvetica,sans-Serif" font-size="10" text-anchor="middle">spic::AudioSource</text><polyline fill="none" stroke="#000" points="16 -49.5 137 -49.5"/><polyline fill="none" stroke="#000" points="16 -30.5 137 -30.5"/><text x="24" y="-18.5" font-family="Helvetica,sans-Serif" font-size="10" text-anchor="start">+ void Play(bool looping)</text><text x="24" y="-7.5" font-family="Helvetica,sans-Serif" font-size="10" text-anchor="start">+ void Stop()</text></a></g></g><g id="node2" class="node"><title>Node2</title><g id="a_node2"><a target="_top" xlink:href="classspic_1_1Component.html" xlink:title="Base class for all components."><polygon fill="none" stroke="#000" points="0 -105.5 0 -404.5 153 -404.5 153 -105.5 0 -105.5"/><text x="76.5" y="-392.5" font-family="Helvetica,sans-Serif" font-size="10" text-anchor="middle">spic::Component</text><polyline fill="none" stroke="#000" points="0 -385.5 153 -385.5"/><polyline fill="none" stroke="#000" points="0 -366.5 153 -366.5"/><text x="8" y="-354.5" font-family="Helvetica,sans-Serif" font-size="10" text-anchor="start">+ void serialize(archive</text><text x="8" y="-343.5" font-family="Helvetica,sans-Serif" font-size="10" text-anchor="start">&amp;ar, const unsigned)</text><text x="8" y="-332.5" font-family="Helvetica,sans-Serif" font-size="10" text-anchor="start">+ Component()=default</text><text x="8" y="-321.5" font-family="Helvetica,sans-Serif" font-size="10" text-anchor="start">+ virtual ~Component</text><text x="8" y="-310.5" font-family="Helvetica,sans-Serif" font-size="10" text-anchor="start">()=default</text><text x="8" y="-299.5" font-family="Helvetica,sans-Serif" font-size="10" text-anchor="start">+ Component(const Component</text><text x="8" y="-288.5" font-family="Helvetica,sans-Serif" font-size="10" text-anchor="start">&amp;other)=default</text><text x="8" y="-277.5" font-family="Helvetica,sans-Serif" font-size="10" text-anchor="start">+ auto operator=(const</text><text x="8" y="-266.5" font-family="Helvetica,sans-Serif" font-size="10" text-anchor="start">Component &amp;other) -&gt;</text><text x="8" y="-255.5" font-family="Helvetica,sans-Serif" font-size="10" text-anchor="start">Component &amp;=default</text><text x="8" y="-244.5" font-family="Helvetica,sans-Serif" font-size="10" text-anchor="start">+ Component(Component</text><text x="8" y="-233.5" font-family="Helvetica,sans-Serif" font-size="10" text-anchor="start">&amp;&amp;other)=default</text><text x="8" y="-222.5" font-family="Helvetica,sans-Serif" font-size="10" text-anchor="start">+ auto operator=(Component</text><text x="8" y="-211.5" font-family="Helvetica,sans-Serif" font-size="10" text-anchor="start">&amp;&amp;other) -&gt; Component</text><text x="8" y="-200.5" font-family="Helvetica,sans-Serif" font-size="10" text-anchor="start">&amp;=default</text><text x="8" y="-189.5" font-family="Helvetica,sans-Serif" font-size="10" text-anchor="start">+ auto Active() const</text><text x="8" y="-178.5" font-family="Helvetica,sans-Serif" font-size="10" text-anchor="start">-&gt; bool</text><text x="8" y="-167.5" font-family="Helvetica,sans-Serif" font-size="10" text-anchor="start">+ void Active(bool flag)</text><text x="8" y="-156.5" font-family="Helvetica,sans-Serif" font-size="10" text-anchor="start">+ void SetGameObject</text><text x="8" y="-145.5" font-family="Helvetica,sans-Serif" font-size="10" text-anchor="start">(std::weak_ptr&lt; GameObject</text><text x="8" y="-134.5" font-family="Helvetica,sans-Serif" font-size="10" text-anchor="start">&gt; gObj)</text><text x="8" y="-123.5" font-family="Helvetica,sans-Serif" font-size="10" text-anchor="start">+ std::weak_ptr&lt; GameObject</text><text x="8" y="-112.5" font-family="Helvetica,sans-Serif" font-size="10" text-anchor="start">&gt; GetGameObject()</text></a></g></g><g id="edge1" class="edge"><title>Node2-&gt;Node1</title><path fill="none" stroke="#191970" d="M76.5,-95.03C76.5,-85.45 76.5,-76.52 76.5,-68.64"/><polygon fill="none" stroke="#191970" points="73 -95.24 76.5 -105.24 80 -95.24 73 -95.24"/></g></g></svg>