<?xml version="1.0" encoding="UTF-8" standalone="no"?>
<!DOCTYPE svg PUBLIC "-//W3C//DTD SVG 1.1//EN"
 "http://www.w3.org/Graphics/SVG/1.1/DTD/svg11.dtd">
<!-- Generated by graphviz version 2.44.0 ()
 -->
<!-- Title: includes/platformer&#45;engine/Networking/ClientNetworkManager.hpp Pages: 1 -->
<!--zoomable 218 -->
<svg id="main" version="1.1" xmlns="http://www.w3.org/2000/svg" xmlns:xlink="http://www.w3.org/1999/xlink" xml:space="preserve" onload="init(evt)">
<style type="text/css"><![CDATA[
.edge:hover path { stroke: red; }
.edge:hover polygon { stroke: red; fill: red; }
]]></style>
<script type="text/javascript"><![CDATA[
var edges = document.getElementsByTagName('g');
if (edges && edges.length) {
  for (var i=0;i<edges.length;i++) {
    if (edges[i].id.substr(0,4)=='edge') {
      edges[i].setAttribute('class','edge');
    }
  }
}
]]></script>
        <defs>
                <circle id="rim" cx="0" cy="0" r="7"/>
                <circle id="rim2" cx="0" cy="0" r="3.5"/>
                <g id="zoomPlus">
                        <use xlink:href="#rim" fill="#404040">
                                <set attributeName="fill" to="#808080" begin="zoomplus.mouseover" end="zoomplus.mouseout"/>
                        </use>
                        <path d="M-4,0h8M0,-4v8" fill="none" stroke="white" stroke-width="1.5" pointer-events="none"/>
                </g>
                <g id="zoomMin">
                        <use xlink:href="#rim" fill="#404040">
                                <set attributeName="fill" to="#808080" begin="zoomminus.mouseover" end="zoomminus.mouseout"/>
                        </use>
                        <path d="M-4,0h8" fill="none" stroke="white" stroke-width="1.5" pointer-events="none"/>
                </g>
                <g id="dirArrow">
                        <path fill="none" stroke="white" stroke-width="1.5" d="M0,-3.0v7 M-2.5,-0.5L0,-3.0L2.5,-0.5"/>
                </g>
               <g id="resetDef">
                       <use xlink:href="#rim2" fill="#404040">
                               <set attributeName="fill" to="#808080" begin="reset.mouseover" end="reset.mouseout"/>
                       </use>
               </g>
        </defs>

<script type="text/javascript">
var viewWidth = 1095;
var viewHeight = 218;
var sectionId = 'dynsection-0';
</script>
<script xlink:href="svgpan.js"/>
<svg id="graph" class="graph">
<g id="viewport">
<title>includes/platformer&#45;engine/Networking/ClientNetworkManager.hpp</title>
<!-- Node1 -->
<g id="node1" class="node">
<title>Node1</title>
<g id="a_node1"><a xlink:title=" ">
<polygon fill="#bfbfbf" stroke="black" points="750.27,-168.5 750.27,-209.5 915.27,-209.5 915.27,-168.5 750.27,-168.5"/>
<text text-anchor="start" x="758.27" y="-197.5" font-family="Helvetica,sans-Serif" font-size="10.00">includes/platformer</text>
<text text-anchor="start" x="758.27" y="-186.5" font-family="Helvetica,sans-Serif" font-size="10.00">&#45;engine/Networking/ClientNetwork</text>
<text text-anchor="middle" x="832.77" y="-175.5" font-family="Helvetica,sans-Serif" font-size="10.00">Manager.hpp</text>
</a>
</g>
</g>
<!-- Node2 -->
<g id="node2" class="node">
<title>Node2</title>
<g id="a_node2"><a xlink:href="GameObject_8hpp.html" target="_top" xlink:title=" ">
<polygon fill="none" stroke="black" points="172.27,-112.5 172.27,-131.5 261.27,-131.5 261.27,-112.5 172.27,-112.5"/>
<text text-anchor="middle" x="216.77" y="-119.5" font-family="Helvetica,sans-Serif" font-size="10.00">GameObject.hpp</text>
</a>
</g>
</g>
<!-- Node1&#45;&gt;Node2 -->
<g id="edge1" class="edge">
<title>Node1&#45;&gt;Node2</title>
<path fill="none" stroke="midnightblue" d="M750.02,-179.27C622.07,-165.77 379.73,-140.2 271.44,-128.77"/>
<polygon fill="midnightblue" stroke="midnightblue" points="271.7,-125.28 261.39,-127.71 270.97,-132.24 271.7,-125.28"/>
</g>
<!-- Node10 -->
<g id="node10" class="node">
<title>Node10</title>
<g id="a_node10"><a xlink:href="ProtocolPackages_8hpp.html" target="_top" xlink:title=" ">
<polygon fill="none" stroke="black" points="872.77,-112.5 872.77,-131.5 986.77,-131.5 986.77,-112.5 872.77,-112.5"/>
<text text-anchor="middle" x="929.77" y="-119.5" font-family="Helvetica,sans-Serif" font-size="10.00">ProtocolPackages.hpp</text>
</a>
</g>
</g>
<!-- Node1&#45;&gt;Node10 -->
<g id="edge10" class="edge">
<title>Node1&#45;&gt;Node10</title>
<path fill="none" stroke="midnightblue" d="M861.88,-168.5C876.75,-158.53 894.53,-146.61 908.17,-137.48"/>
<polygon fill="midnightblue" stroke="midnightblue" points="910.5,-140.13 916.86,-131.65 906.61,-134.31 910.5,-140.13"/>
</g>
<!-- Node13 -->
<g id="node13" class="node">
<title>Node13</title>
<g id="a_node13"><a xlink:href="INetworkManager_8hpp.html" target="_top" xlink:title=" ">
<polygon fill="none" stroke="black" points="750.77,-56.5 750.77,-75.5 914.77,-75.5 914.77,-56.5 750.77,-56.5"/>
<text text-anchor="middle" x="832.77" y="-63.5" font-family="Helvetica,sans-Serif" font-size="10.00">Networking/INetworkManager.hpp</text>
</a>
</g>
</g>
<!-- Node1&#45;&gt;Node13 -->
<g id="edge13" class="edge">
<title>Node1&#45;&gt;Node13</title>
<path fill="none" stroke="midnightblue" d="M832.77,-168.29C832.77,-145.48 832.77,-108.19 832.77,-85.78"/>
<polygon fill="midnightblue" stroke="midnightblue" points="836.27,-85.57 832.77,-75.57 829.27,-85.57 836.27,-85.57"/>
</g>
<!-- Node14 -->
<g id="node14" class="node">
<title>Node14</title>
<g id="a_node14"><a xlink:href="NetworkingFacade_8hpp.html" target="_top" xlink:title=" ">
<polygon fill="none" stroke="black" points="441.77,-112.5 441.77,-131.5 593.77,-131.5 593.77,-112.5 441.77,-112.5"/>
<text text-anchor="middle" x="517.77" y="-119.5" font-family="Helvetica,sans-Serif" font-size="10.00">Facade/NetworkingFacade.hpp</text>
</a>
</g>
</g>
<!-- Node1&#45;&gt;Node14 -->
<g id="edge15" class="edge">
<title>Node1&#45;&gt;Node14</title>
<path fill="none" stroke="midnightblue" d="M750.01,-170.92C692.66,-159.09 618.1,-143.7 569.13,-133.6"/>
<polygon fill="midnightblue" stroke="midnightblue" points="569.59,-130.12 559.09,-131.53 568.18,-136.97 569.59,-130.12"/>
</g>
<!-- Node19 -->
<g id="node19" class="node">
<title>Node19</title>
<g id="a_node19"><a xlink:title=" ">
<polygon fill="none" stroke="#bfbfbf" points="1004.77,-112.5 1004.77,-131.5 1050.77,-131.5 1050.77,-112.5 1004.77,-112.5"/>
<text text-anchor="middle" x="1027.77" y="-119.5" font-family="Helvetica,sans-Serif" font-size="10.00">cstring</text>
</a>
</g>
</g>
<!-- Node1&#45;&gt;Node19 -->
<g id="edge25" class="edge">
<title>Node1&#45;&gt;Node19</title>
<path fill="none" stroke="midnightblue" d="M891.28,-168.5C925.05,-157.24 966.29,-143.49 994.55,-134.07"/>
<polygon fill="midnightblue" stroke="midnightblue" points="995.95,-137.3 1004.33,-130.81 993.74,-130.66 995.95,-137.3"/>
</g>
<!-- Node3 -->
<g id="node3" class="node">
<title>Node3</title>
<g id="a_node3"><a xlink:href="Component_8hpp.html" target="_top" xlink:title=" ">
<polygon fill="none" stroke="black" points="13.77,-56.5 13.77,-75.5 97.77,-75.5 97.77,-56.5 13.77,-56.5"/>
<text text-anchor="middle" x="55.77" y="-63.5" font-family="Helvetica,sans-Serif" font-size="10.00">Component.hpp</text>
</a>
</g>
</g>
<!-- Node2&#45;&gt;Node3 -->
<g id="edge2" class="edge">
<title>Node2&#45;&gt;Node3</title>
<path fill="none" stroke="midnightblue" d="M191.26,-112.44C164.18,-103.36 121.18,-88.94 90.9,-78.78"/>
<polygon fill="midnightblue" stroke="midnightblue" points="91.76,-75.38 81.16,-75.52 89.53,-82.01 91.76,-75.38"/>
</g>
<!-- Node4 -->
<g id="node4" class="node">
<title>Node4</title>
<g id="a_node4"><a xlink:title=" ">
<polygon fill="none" stroke="#bfbfbf" points="30.27,-0.5 30.27,-19.5 81.27,-19.5 81.27,-0.5 30.27,-0.5"/>
<text text-anchor="middle" x="55.77" y="-7.5" font-family="Helvetica,sans-Serif" font-size="10.00">memory</text>
</a>
</g>
</g>
<!-- Node2&#45;&gt;Node4 -->
<g id="edge8" class="edge">
<title>Node2&#45;&gt;Node4</title>
<path fill="none" stroke="midnightblue" d="M171.8,-117.94C115.91,-113.08 25.38,-101.44 4.77,-76 -9.24,-58.7 12.49,-38.48 31.77,-25.24"/>
<polygon fill="midnightblue" stroke="midnightblue" points="33.84,-28.07 40.32,-19.69 30.03,-22.2 33.84,-28.07"/>
</g>
<!-- Node5 -->
<g id="node5" class="node">
<title>Node5</title>
<g id="a_node5"><a xlink:href="Transform_8hpp.html" target="_top" xlink:title=" ">
<polygon fill="none" stroke="black" points="177.27,-56.5 177.27,-75.5 256.27,-75.5 256.27,-56.5 177.27,-56.5"/>
<text text-anchor="middle" x="216.77" y="-63.5" font-family="Helvetica,sans-Serif" font-size="10.00">Transform.hpp</text>
</a>
</g>
</g>
<!-- Node2&#45;&gt;Node5 -->
<g id="edge4" class="edge">
<title>Node2&#45;&gt;Node5</title>
<path fill="none" stroke="midnightblue" d="M216.77,-112.08C216.77,-105.01 216.77,-94.86 216.77,-85.99"/>
<polygon fill="midnightblue" stroke="midnightblue" points="220.27,-85.75 216.77,-75.75 213.27,-85.75 220.27,-85.75"/>
</g>
<!-- Node7 -->
<g id="node7" class="node">
<title>Node7</title>
<g id="a_node7"><a xlink:title=" ">
<polygon fill="none" stroke="#bfbfbf" points="306.27,-0.5 306.27,-19.5 347.27,-19.5 347.27,-0.5 306.27,-0.5"/>
<text text-anchor="middle" x="326.77" y="-7.5" font-family="Helvetica,sans-Serif" font-size="10.00">string</text>
</a>
</g>
</g>
<!-- Node2&#45;&gt;Node7 -->
<g id="edge6" class="edge">
<title>Node2&#45;&gt;Node7</title>
<path fill="none" stroke="midnightblue" d="M226.49,-112.19C236.29,-103.23 251.79,-88.87 264.77,-76 281.28,-59.63 299.59,-40.29 312,-26.98"/>
<polygon fill="midnightblue" stroke="midnightblue" points="314.65,-29.27 318.9,-19.56 309.52,-24.5 314.65,-29.27"/>
</g>
<!-- Node8 -->
<g id="node8" class="node">
<title>Node8</title>
<g id="a_node8"><a xlink:title=" ">
<polygon fill="none" stroke="#bfbfbf" points="115.77,-56.5 115.77,-75.5 159.77,-75.5 159.77,-56.5 115.77,-56.5"/>
<text text-anchor="middle" x="137.77" y="-63.5" font-family="Helvetica,sans-Serif" font-size="10.00">vector</text>
</a>
</g>
</g>
<!-- Node2&#45;&gt;Node8 -->
<g id="edge7" class="edge">
<title>Node2&#45;&gt;Node8</title>
<path fill="none" stroke="midnightblue" d="M204.08,-112.32C191.87,-103.98 173.19,-91.21 158.77,-81.35"/>
<polygon fill="midnightblue" stroke="midnightblue" points="160.67,-78.41 150.43,-75.65 156.71,-84.19 160.67,-78.41"/>
</g>
<!-- Node9 -->
<g id="node9" class="node">
<title>Node9</title>
<g id="a_node9"><a xlink:title=" ">
<polygon fill="none" stroke="#bfbfbf" points="313.27,-56.5 313.27,-75.5 348.27,-75.5 348.27,-56.5 313.27,-56.5"/>
<text text-anchor="middle" x="330.77" y="-63.5" font-family="Helvetica,sans-Serif" font-size="10.00">map</text>
</a>
</g>
</g>
<!-- Node2&#45;&gt;Node9 -->
<g id="edge9" class="edge">
<title>Node2&#45;&gt;Node9</title>
<path fill="none" stroke="midnightblue" d="M234.84,-112.44C253.46,-103.62 282.7,-89.77 304,-79.68"/>
<polygon fill="midnightblue" stroke="midnightblue" points="305.63,-82.78 313.17,-75.34 302.63,-76.46 305.63,-82.78"/>
</g>
<!-- Node3&#45;&gt;Node4 -->
<g id="edge3" class="edge">
<title>Node3&#45;&gt;Node4</title>
<path fill="none" stroke="midnightblue" d="M55.77,-56.08C55.77,-49.01 55.77,-38.86 55.77,-29.99"/>
<polygon fill="midnightblue" stroke="midnightblue" points="59.27,-29.75 55.77,-19.75 52.27,-29.75 59.27,-29.75"/>
</g>
<!-- Node6 -->
<g id="node6" class="node">
<title>Node6</title>
<g id="a_node6"><a xlink:href="Point_8hpp.html" target="_top" xlink:title=" ">
<polygon fill="none" stroke="black" points="209.27,-0.5 209.27,-19.5 266.27,-19.5 266.27,-0.5 209.27,-0.5"/>
<text text-anchor="middle" x="237.77" y="-7.5" font-family="Helvetica,sans-Serif" font-size="10.00">Point.hpp</text>
</a>
</g>
</g>
<!-- Node5&#45;&gt;Node6 -->
<g id="edge5" class="edge">
<title>Node5&#45;&gt;Node6</title>
<path fill="none" stroke="midnightblue" d="M220.24,-56.08C223.08,-48.77 227.2,-38.18 230.73,-29.1"/>
<polygon fill="midnightblue" stroke="midnightblue" points="234.01,-30.34 234.37,-19.75 227.48,-27.8 234.01,-30.34"/>
</g>
<!-- Node11 -->
<g id="node11" class="node">
<title>Node11</title>
<g id="a_node11"><a xlink:title=" ">
<polygon fill="none" stroke="#bfbfbf" points="864.77,-0.5 864.77,-19.5 910.77,-19.5 910.77,-0.5 864.77,-0.5"/>
<text text-anchor="middle" x="887.77" y="-7.5" font-family="Helvetica,sans-Serif" font-size="10.00">cstdint</text>
</a>
</g>
</g>
<!-- Node10&#45;&gt;Node11 -->
<g id="edge11" class="edge">
<title>Node10&#45;&gt;Node11</title>
<path fill="none" stroke="midnightblue" d="M930.52,-112.22C931.27,-99.37 931.4,-74.92 923.77,-56 919.44,-45.26 911.66,-35.03 904.44,-27.04"/>
<polygon fill="midnightblue" stroke="midnightblue" points="906.74,-24.39 897.29,-19.61 901.7,-29.24 906.74,-24.39"/>
</g>
<!-- Node12 -->
<g id="node12" class="node">
<title>Node12</title>
<g id="a_node12"><a xlink:href="ProtocolDefinitions_8hpp.html" target="_top" xlink:title=" ">
<polygon fill="none" stroke="black" points="970.77,-56.5 970.77,-75.5 1086.77,-75.5 1086.77,-56.5 970.77,-56.5"/>
<text text-anchor="middle" x="1028.77" y="-63.5" font-family="Helvetica,sans-Serif" font-size="10.00">ProtocolDefinitions.hpp</text>
</a>
</g>
</g>
<!-- Node10&#45;&gt;Node12 -->
<g id="edge12" class="edge">
<title>Node10&#45;&gt;Node12</title>
<path fill="none" stroke="midnightblue" d="M945.68,-112.32C961.41,-103.74 985.72,-90.49 1003.98,-80.52"/>
<polygon fill="midnightblue" stroke="midnightblue" points="1005.8,-83.52 1012.91,-75.65 1002.45,-77.37 1005.8,-83.52"/>
</g>
<!-- Node13&#45;&gt;Node11 -->
<g id="edge14" class="edge">
<title>Node13&#45;&gt;Node11</title>
<path fill="none" stroke="midnightblue" d="M841.86,-56.08C849.94,-48.14 861.97,-36.34 871.68,-26.8"/>
<polygon fill="midnightblue" stroke="midnightblue" points="874.18,-29.25 878.86,-19.75 869.27,-24.26 874.18,-29.25"/>
</g>
<!-- Node14&#45;&gt;Node4 -->
<g id="edge21" class="edge">
<title>Node14&#45;&gt;Node4</title>
<path fill="none" stroke="midnightblue" d="M491.68,-112.48C466.7,-104.08 428.15,-90.42 395.77,-76 378.34,-68.24 375.91,-61.93 357.77,-56 264.81,-25.59 148.97,-15.64 91.52,-12.45"/>
<polygon fill="midnightblue" stroke="midnightblue" points="91.66,-8.95 81.49,-11.93 91.3,-15.95 91.66,-8.95"/>
</g>
<!-- Node14&#45;&gt;Node9 -->
<g id="edge22" class="edge">
<title>Node14&#45;&gt;Node9</title>
<path fill="none" stroke="midnightblue" d="M488.14,-112.44C452.49,-102.15 393.1,-85 358.38,-74.97"/>
<polygon fill="midnightblue" stroke="midnightblue" points="359.03,-71.52 348.45,-72.1 357.08,-78.24 359.03,-71.52"/>
</g>
<!-- Node14&#45;&gt;Node13 -->
<g id="edge23" class="edge">
<title>Node14&#45;&gt;Node13</title>
<path fill="none" stroke="midnightblue" d="M567.69,-112.44C623.44,-102.89 713.66,-87.42 773.1,-77.23"/>
<polygon fill="midnightblue" stroke="midnightblue" points="773.83,-80.66 783.09,-75.52 772.65,-73.76 773.83,-80.66"/>
</g>
<!-- Node15 -->
<g id="node15" class="node">
<title>Node15</title>
<g id="a_node15"><a xlink:title=" ">
<polygon fill="none" stroke="#bfbfbf" points="485.27,-56.5 485.27,-75.5 550.27,-75.5 550.27,-56.5 485.27,-56.5"/>
<text text-anchor="middle" x="517.77" y="-63.5" font-family="Helvetica,sans-Serif" font-size="10.00">enet/enet.h</text>
</a>
</g>
</g>
<!-- Node14&#45;&gt;Node15 -->
<g id="edge16" class="edge">
<title>Node14&#45;&gt;Node15</title>
<path fill="none" stroke="midnightblue" d="M517.77,-112.08C517.77,-105.01 517.77,-94.86 517.77,-85.99"/>
<polygon fill="midnightblue" stroke="midnightblue" points="521.27,-85.75 517.77,-75.75 514.27,-85.75 521.27,-85.75"/>
</g>
<!-- Node16 -->
<g id="node16" class="node">
<title>Node16</title>
<g id="a_node16"><a xlink:href="Debug_8hpp.html" target="_top" xlink:title=" ">
<polygon fill="none" stroke="black" points="404.77,-56.5 404.77,-75.5 466.77,-75.5 466.77,-56.5 404.77,-56.5"/>
<text text-anchor="middle" x="435.77" y="-63.5" font-family="Helvetica,sans-Serif" font-size="10.00">Debug.hpp</text>
</a>
</g>
</g>
<!-- Node14&#45;&gt;Node16 -->
<g id="edge17" class="edge">
<title>Node14&#45;&gt;Node16</title>
<path fill="none" stroke="midnightblue" d="M504.6,-112.32C491.93,-103.98 472.54,-91.21 457.57,-81.35"/>
<polygon fill="midnightblue" stroke="midnightblue" points="459.19,-78.23 448.92,-75.65 455.34,-84.08 459.19,-78.23"/>
</g>
<!-- Node18 -->
<g id="node18" class="node">
<title>Node18</title>
<g id="a_node18"><a xlink:href="ConnectionStatus_8hpp.html" target="_top" xlink:title=" ">
<polygon fill="none" stroke="black" points="568.77,-56.5 568.77,-75.5 732.77,-75.5 732.77,-56.5 568.77,-56.5"/>
<text text-anchor="middle" x="650.77" y="-63.5" font-family="Helvetica,sans-Serif" font-size="10.00">Networking/ConnectionStatus.hpp</text>
</a>
</g>
</g>
<!-- Node14&#45;&gt;Node18 -->
<g id="edge24" class="edge">
<title>Node14&#45;&gt;Node18</title>
<path fill="none" stroke="midnightblue" d="M538.85,-112.44C560.83,-103.52 595.51,-89.44 620.44,-79.32"/>
<polygon fill="midnightblue" stroke="midnightblue" points="621.85,-82.52 629.8,-75.52 619.22,-76.04 621.85,-82.52"/>
</g>
<!-- Node16&#45;&gt;Node6 -->
<g id="edge18" class="edge">
<title>Node16&#45;&gt;Node6</title>
<path fill="none" stroke="midnightblue" d="M404.4,-56.44C369.71,-46.98 313.81,-31.74 276.44,-21.55"/>
<polygon fill="midnightblue" stroke="midnightblue" points="277,-18.07 266.43,-18.82 275.16,-24.82 277,-18.07"/>
</g>
<!-- Node16&#45;&gt;Node7 -->
<g id="edge20" class="edge">
<title>Node16&#45;&gt;Node7</title>
<path fill="none" stroke="midnightblue" d="M418.26,-56.32C400.7,-47.62 373.44,-34.12 353.24,-24.11"/>
<polygon fill="midnightblue" stroke="midnightblue" points="354.76,-20.96 344.24,-19.65 351.65,-27.23 354.76,-20.96"/>
</g>
<!-- Node17 -->
<g id="node17" class="node">
<title>Node17</title>
<g id="a_node17"><a xlink:href="Color_8hpp.html" target="_top" xlink:title=" ">
<polygon fill="none" stroke="black" points="407.27,-0.5 407.27,-19.5 464.27,-19.5 464.27,-0.5 407.27,-0.5"/>
<text text-anchor="middle" x="435.77" y="-7.5" font-family="Helvetica,sans-Serif" font-size="10.00">Color.hpp</text>
</a>
</g>
</g>
<!-- Node16&#45;&gt;Node17 -->
<g id="edge19" class="edge">
<title>Node16&#45;&gt;Node17</title>
<path fill="none" stroke="midnightblue" d="M435.77,-56.08C435.77,-49.01 435.77,-38.86 435.77,-29.99"/>
<polygon fill="midnightblue" stroke="midnightblue" points="439.27,-29.75 435.77,-19.75 432.27,-29.75 439.27,-29.75"/>
</g>
</g>
</svg>
        <g id="navigator" transform="translate(0 0)" fill="#404254">
                <rect fill="#f2f5e9" fill-opacity="0.5" stroke="#606060" stroke-width=".5" x="0" y="0" width="60" height="60"/>
                <use id="zoomplus" xlink:href="#zoomPlus" x="17" y="9" onmousedown="handleZoom(evt,'in')"/>
                <use id="zoomminus" xlink:href="#zoomMin" x="42" y="9" onmousedown="handleZoom(evt,'out')"/>
                <use id="reset" xlink:href="#resetDef" x="30" y="36" onmousedown="handleReset()"/>
                <g id="arrowUp" xlink:href="#dirArrow" transform="translate(30 24)" onmousedown="handlePan(0,-1)">
                  <use xlink:href="#rim" fill="#404040">
                        <set attributeName="fill" to="#808080" begin="arrowUp.mouseover" end="arrowUp.mouseout"/>
                  </use>
                  <path fill="none" stroke="white" stroke-width="1.5" d="M0,-3.0v7 M-2.5,-0.5L0,-3.0L2.5,-0.5"/>
                </g>
                <g id="arrowRight" xlink:href="#dirArrow" transform="rotate(90) translate(36 -43)" onmousedown="handlePan(1,0)">
                  <use xlink:href="#rim" fill="#404040">
                        <set attributeName="fill" to="#808080" begin="arrowRight.mouseover" end="arrowRight.mouseout"/>
                  </use>
                  <path fill="none" stroke="white" stroke-width="1.5" d="M0,-3.0v7 M-2.5,-0.5L0,-3.0L2.5,-0.5"/>
                </g>
                <g id="arrowDown" xlink:href="#dirArrow" transform="rotate(180) translate(-30 -48)" onmousedown="handlePan(0,1)">
                  <use xlink:href="#rim" fill="#404040">
                        <set attributeName="fill" to="#808080" begin="arrowDown.mouseover" end="arrowDown.mouseout"/>
                  </use>
                  <path fill="none" stroke="white" stroke-width="1.5" d="M0,-3.0v7 M-2.5,-0.5L0,-3.0L2.5,-0.5"/>
                </g>
                <g id="arrowLeft" xlink:href="#dirArrow" transform="rotate(270) translate(-36 17)" onmousedown="handlePan(-1,0)">
                  <use xlink:href="#rim" fill="#404040">
                        <set attributeName="fill" to="#808080" begin="arrowLeft.mouseover" end="arrowLeft.mouseout"/>
                  </use>
                  <path fill="none" stroke="white" stroke-width="1.5" d="M0,-3.0v7 M-2.5,-0.5L0,-3.0L2.5,-0.5"/>
                </g>
        </g>
        <svg viewBox="0 0 15 15" width="100%" height="30px" preserveAspectRatio="xMaxYMin meet">
         <g id="arrow_out" transform="scale(0.3 0.3)">
          <a xlink:href="ClientNetworkManager_8hpp__incl_org.svg" target="_base">
           <rect id="button" ry="5" rx="5" y="6" x="6" height="38" width="38"
                fill="#f2f5e9" fill-opacity="0.5" stroke="#606060" stroke-width="1.0"/>
           <path id="arrow"
             d="M 11.500037,31.436501 C 11.940474,20.09759 22.043105,11.32322 32.158766,21.979434 L 37.068811,17.246167 C 37.068811,17.246167 37.088388,32 37.088388,32 L 22.160133,31.978069 C 22.160133,31.978069 26.997745,27.140456 26.997745,27.140456 C 18.528582,18.264221 13.291696,25.230495 11.500037,31.436501 z"
             style="fill:#404040;"/>
          </a>
         </g>
        </svg>
</svg>
