<?xml version="1.0" encoding="UTF-8" standalone="no"?>
<!DOCTYPE svg PUBLIC "-//W3C//DTD SVG 1.1//EN"
 "http://www.w3.org/Graphics/SVG/1.1/DTD/svg11.dtd">
<!-- Generated by graphviz version 2.44.0 ()
 -->
<!-- Title: includes/platformer&#45;engine/Networking/ClientNetworkManager.hpp Pages: 1 -->
<svg width="1285pt" height="184pt"
 viewBox="0.00 0.00 1285.00 184.00" xmlns="http://www.w3.org/2000/svg" xmlns:xlink="http://www.w3.org/1999/xlink">
<g id="graph0" class="graph" transform="scale(1 1) rotate(0) translate(4 180)">
<title>includes/platformer&#45;engine/Networking/ClientNetworkManager.hpp</title>
<!-- Node1 -->
<g id="node1" class="node">
<title>Node1</title>
<g id="a_node1"><a xlink:title=" ">
<polygon fill="#bfbfbf" stroke="black" points="187,-134.5 187,-175.5 352,-175.5 352,-134.5 187,-134.5"/>
<text text-anchor="start" x="195" y="-163.5" font-family="Helvetica,sans-Serif" font-size="10.00">includes/platformer</text>
<text text-anchor="start" x="195" y="-152.5" font-family="Helvetica,sans-Serif" font-size="10.00">&#45;engine/Networking/ClientNetwork</text>
<text text-anchor="middle" x="269.5" y="-141.5" font-family="Helvetica,sans-Serif" font-size="10.00">Manager.hpp</text>
</a>
</g>
</g>
<!-- Node2 -->
<g id="node2" class="node">
<title>Node2</title>
<g id="a_node2"><a xlink:href="NetworkingFacade_8cpp.html" target="_top" xlink:title=" ">
<polygon fill="none" stroke="black" points="73.5,-73 73.5,-92 241.5,-92 241.5,-73 73.5,-73"/>
<text text-anchor="middle" x="157.5" y="-80" font-family="Helvetica,sans-Serif" font-size="10.00">src/Facade/NetworkingFacade.cpp</text>
</a>
</g>
</g>
<!-- Node1&#45;&gt;Node2 -->
<g id="edge1" class="edge">
<title>Node1&#45;&gt;Node2</title>
<path fill="none" stroke="midnightblue" d="M229.78,-129C209.38,-116.15 185.81,-101.32 171.28,-92.17"/>
<polygon fill="midnightblue" stroke="midnightblue" points="227.97,-132 238.3,-134.36 231.7,-126.07 227.97,-132"/>
</g>
<!-- Node3 -->
<g id="node3" class="node">
<title>Node3</title>
<g id="a_node3"><a xlink:href="ClientNetworkManager_8cpp.html" target="_top" xlink:title=" ">
<polygon fill="none" stroke="black" points="0,-0.5 0,-30.5 147,-30.5 147,-0.5 0,-0.5"/>
<text text-anchor="start" x="8" y="-18.5" font-family="Helvetica,sans-Serif" font-size="10.00">src/Networking/ClientNetwork</text>
<text text-anchor="middle" x="73.5" y="-7.5" font-family="Helvetica,sans-Serif" font-size="10.00">Manager.cpp</text>
</a>
</g>
</g>
<!-- Node1&#45;&gt;Node3 -->
<g id="edge2" class="edge">
<title>Node1&#45;&gt;Node3</title>
<path fill="none" stroke="midnightblue" d="M270.36,-124.35C269.3,-105.65 264.81,-82.24 250.5,-67 236.01,-51.57 189.1,-38.58 147.22,-29.64"/>
<polygon fill="midnightblue" stroke="midnightblue" points="266.86,-124.54 270.63,-134.45 273.86,-124.36 266.86,-124.54"/>
</g>
<!-- Node4 -->
<g id="node4" class="node">
<title>Node4</title>
<g id="a_node4"><a xlink:href="Engine_8hpp.html" target="_top" xlink:title=" ">
<polygon fill="none" stroke="black" points="494,-67.5 494,-97.5 625,-97.5 625,-67.5 494,-67.5"/>
<text text-anchor="start" x="502" y="-85.5" font-family="Helvetica,sans-Serif" font-size="10.00">includes/platformer</text>
<text text-anchor="middle" x="559.5" y="-74.5" font-family="Helvetica,sans-Serif" font-size="10.00">&#45;engine/Engine/Engine.hpp</text>
</a>
</g>
</g>
<!-- Node1&#45;&gt;Node4 -->
<g id="edge3" class="edge">
<title>Node1&#45;&gt;Node4</title>
<path fill="none" stroke="midnightblue" d="M359.63,-132.09C405.9,-120.84 460.93,-107.46 501.51,-97.6"/>
<polygon fill="midnightblue" stroke="midnightblue" points="358.79,-128.69 349.9,-134.46 360.44,-135.49 358.79,-128.69"/>
</g>
<!-- Node4&#45;&gt;Node3 -->
<g id="edge7" class="edge">
<title>Node4&#45;&gt;Node3</title>
<path fill="none" stroke="midnightblue" d="M483.63,-73.1C402.51,-63.86 270.18,-48.04 156.5,-31 153.46,-30.54 150.36,-30.07 147.24,-29.57"/>
<polygon fill="midnightblue" stroke="midnightblue" points="483.42,-76.6 493.75,-74.25 484.21,-69.64 483.42,-76.6"/>
</g>
<!-- Node5 -->
<g id="node5" class="node">
<title>Node5</title>
<g id="a_node5"><a xlink:href="GameObjectDirector_8cpp.html" target="_top" xlink:title=" ">
<polygon fill="none" stroke="black" points="165.5,-6 165.5,-25 341.5,-25 341.5,-6 165.5,-6"/>
<text text-anchor="middle" x="253.5" y="-13" font-family="Helvetica,sans-Serif" font-size="10.00">src/Director/GameObjectDirector.cpp</text>
</a>
</g>
</g>
<!-- Node4&#45;&gt;Node5 -->
<g id="edge4" class="edge">
<title>Node4&#45;&gt;Node5</title>
<path fill="none" stroke="midnightblue" d="M484.02,-65.47C423.87,-52.69 342,-35.3 293.75,-25.05"/>
<polygon fill="midnightblue" stroke="midnightblue" points="483.35,-68.9 493.86,-67.56 484.8,-62.05 483.35,-68.9"/>
</g>
<!-- Node6 -->
<g id="node6" class="node">
<title>Node6</title>
<g id="a_node6"><a xlink:href="Engine_8cpp.html" target="_top" xlink:title=" ">
<polygon fill="none" stroke="black" points="360,-6 360,-25 473,-25 473,-6 360,-6"/>
<text text-anchor="middle" x="416.5" y="-13" font-family="Helvetica,sans-Serif" font-size="10.00">src/Engine/Engine.cpp</text>
</a>
</g>
</g>
<!-- Node4&#45;&gt;Node6 -->
<g id="edge5" class="edge">
<title>Node4&#45;&gt;Node6</title>
<path fill="none" stroke="midnightblue" d="M519.09,-63.13C491.57,-50.62 456.41,-34.64 435.22,-25.01"/>
<polygon fill="midnightblue" stroke="midnightblue" points="517.92,-66.44 528.47,-67.4 520.82,-60.07 517.92,-66.44"/>
</g>
<!-- Node7 -->
<g id="node7" class="node">
<title>Node7</title>
<g id="a_node7"><a xlink:href="TMXParser_8cpp.html" target="_top" xlink:title=" ">
<polygon fill="none" stroke="black" points="491.5,-6 491.5,-25 627.5,-25 627.5,-6 491.5,-6"/>
<text text-anchor="middle" x="559.5" y="-13" font-family="Helvetica,sans-Serif" font-size="10.00">src/Facade/TMXParser.cpp</text>
</a>
</g>
</g>
<!-- Node4&#45;&gt;Node7 -->
<g id="edge6" class="edge">
<title>Node4&#45;&gt;Node7</title>
<path fill="none" stroke="midnightblue" d="M559.5,-57.25C559.5,-46.02 559.5,-33.38 559.5,-25.19"/>
<polygon fill="midnightblue" stroke="midnightblue" points="556,-57.4 559.5,-67.4 563,-57.4 556,-57.4"/>
</g>
<!-- Node8 -->
<g id="node8" class="node">
<title>Node8</title>
<g id="a_node8"><a xlink:href="ServerNetworkManager_8cpp.html" target="_top" xlink:title=" ">
<polygon fill="none" stroke="black" points="646,-0.5 646,-30.5 797,-30.5 797,-0.5 646,-0.5"/>
<text text-anchor="start" x="654" y="-18.5" font-family="Helvetica,sans-Serif" font-size="10.00">src/Networking/ServerNetwork</text>
<text text-anchor="middle" x="721.5" y="-7.5" font-family="Helvetica,sans-Serif" font-size="10.00">Manager.cpp</text>
</a>
</g>
</g>
<!-- Node4&#45;&gt;Node8 -->
<g id="edge8" class="edge">
<title>Node4&#45;&gt;Node8</title>
<path fill="none" stroke="midnightblue" d="M604.25,-63.54C630.17,-53.14 662.34,-40.24 686.42,-30.58"/>
<polygon fill="midnightblue" stroke="midnightblue" points="602.63,-60.42 594.65,-67.4 605.24,-66.92 602.63,-60.42"/>
</g>
<!-- Node9 -->
<g id="node9" class="node">
<title>Node9</title>
<g id="a_node9"><a xlink:href="RenderSystem_8cpp.html" target="_top" xlink:title=" ">
<polygon fill="none" stroke="black" points="815.5,-6 815.5,-25 965.5,-25 965.5,-6 815.5,-6"/>
<text text-anchor="middle" x="890.5" y="-13" font-family="Helvetica,sans-Serif" font-size="10.00">src/Texture/RenderSystem.cpp</text>
</a>
</g>
</g>
<!-- Node4&#45;&gt;Node9 -->
<g id="edge9" class="edge">
<title>Node4&#45;&gt;Node9</title>
<path fill="none" stroke="midnightblue" d="M635.16,-66.64C700.69,-53.77 793.17,-35.61 846.98,-25.05"/>
<polygon fill="midnightblue" stroke="midnightblue" points="634.43,-63.22 625.29,-68.58 635.78,-70.09 634.43,-63.22"/>
</g>
<!-- Node10 -->
<g id="node10" class="node">
<title>Node10</title>
<g id="a_node10"><a xlink:href="TextureManager_8cpp.html" target="_top" xlink:title=" ">
<polygon fill="none" stroke="black" points="983.5,-6 983.5,-25 1139.5,-25 1139.5,-6 983.5,-6"/>
<text text-anchor="middle" x="1061.5" y="-13" font-family="Helvetica,sans-Serif" font-size="10.00">src/Texture/TextureManager.cpp</text>
</a>
</g>
</g>
<!-- Node4&#45;&gt;Node10 -->
<g id="edge10" class="edge">
<title>Node4&#45;&gt;Node10</title>
<path fill="none" stroke="midnightblue" d="M635.16,-73.31C718.45,-64.05 856.23,-48.04 974.5,-31 986.93,-29.21 1000.32,-27.08 1012.78,-25.01"/>
<polygon fill="midnightblue" stroke="midnightblue" points="634.58,-69.85 625.03,-74.43 635.35,-76.81 634.58,-69.85"/>
</g>
<!-- Node11 -->
<g id="node11" class="node">
<title>Node11</title>
<g id="a_node11"><a xlink:href="ClickSystem_8cpp.html" target="_top" xlink:title=" ">
<polygon fill="none" stroke="black" points="1158,-6 1158,-25 1277,-25 1277,-6 1158,-6"/>
<text text-anchor="middle" x="1217.5" y="-13" font-family="Helvetica,sans-Serif" font-size="10.00">src/UI/ClickSystem.cpp</text>
</a>
</g>
</g>
<!-- Node4&#45;&gt;Node11 -->
<g id="edge11" class="edge">
<title>Node4&#45;&gt;Node11</title>
<path fill="none" stroke="midnightblue" d="M635.4,-77.95C747.9,-72.02 965.36,-57.99 1148.5,-31 1159.16,-29.43 1170.64,-27.23 1181.12,-25.01"/>
<polygon fill="midnightblue" stroke="midnightblue" points="634.98,-74.47 625.17,-78.48 635.34,-81.46 634.98,-74.47"/>
</g>
</g>
</svg>
