<svg xmlns="http://www.w3.org/2000/svg" xmlns:xlink="http://www.w3.org/1999/xlink" width="719pt" height="184pt" viewBox="0 0 719 184"><g id="graph0" class="graph" transform="scale(1 1) rotate(0) translate(4 180)"><title>includes/platformer-engine/Networking/ClientNetworkManager.hpp</title><g id="node1" class="node"><title>Node1</title><g id="a_node1"><a><polygon fill="#bfbfbf" stroke="#000" points="113.5 -134.5 113.5 -175.5 278.5 -175.5 278.5 -134.5 113.5 -134.5"/><text x="121.5" y="-163.5" font-family="Helvetica,sans-Serif" font-size="10" text-anchor="start">includes/platformer</text><text x="121.5" y="-152.5" font-family="Helvetica,sans-Serif" font-size="10" text-anchor="start">-engine/Networking/ClientNetwork</text><text x="196" y="-141.5" font-family="Helvetica,sans-Serif" font-size="10" text-anchor="middle">Manager.hpp</text></a></g></g><g id="node2" class="node"><title>Node2</title><g id="a_node2"><a target="_top" xlink:href="NetworkingFacade_8cpp.html"><polygon fill="none" stroke="#000" points="0 -73 0 -92 168 -92 168 -73 0 -73"/><text x="84" y="-80" font-family="Helvetica,sans-Serif" font-size="10" text-anchor="middle">src/Facade/NetworkingFacade.cpp</text></a></g></g><g id="edge1" class="edge"><title>Node1-&gt;Node2</title><path fill="none" stroke="#191970" d="M156.28,-129C135.88,-116.15 112.31,-101.32 97.78,-92.17"/><polygon fill="#191970" stroke="#191970" points="154.47 -132 164.8 -134.36 158.2 -126.07 154.47 -132"/></g><g id="node3" class="node"><title>Node3</title><g id="a_node3"><a target="_top" xlink:href="ClientNetworkManager_8cpp.html"><polygon fill="none" stroke="#000" points="95.5 -.5 95.5 -30.5 242.5 -30.5 242.5 -.5 95.5 -.5"/><text x="103.5" y="-18.5" font-family="Helvetica,sans-Serif" font-size="10" text-anchor="start">src/Networking/ClientNetwork</text><text x="169" y="-7.5" font-family="Helvetica,sans-Serif" font-size="10" text-anchor="middle">Manager.cpp</text></a></g></g><g id="edge2" class="edge"><title>Node1-&gt;Node3</title><path fill="none" stroke="#191970" d="M190.18,-124.34C184.5,-95.42 176.11,-52.7 171.79,-30.72"/><polygon fill="#191970" stroke="#191970" points="186.77 -125.16 192.13 -134.3 193.64 -123.81 186.77 -125.16"/></g><g id="node4" class="node"><title>Node4</title><g id="a_node4"><a target="_top" xlink:href="Engine_8hpp.html"><polygon fill="none" stroke="#000" points="251.5 -67.5 251.5 -97.5 382.5 -97.5 382.5 -67.5 251.5 -67.5"/><text x="259.5" y="-85.5" font-family="Helvetica,sans-Serif" font-size="10" text-anchor="start">includes/platformer</text><text x="317" y="-74.5" font-family="Helvetica,sans-Serif" font-size="10" text-anchor="middle">-engine/Engine/Engine.hpp</text></a></g></g><g id="edge3" class="edge"><title>Node1-&gt;Node4</title><path fill="none" stroke="#191970" d="M238.4,-129.3C256.57,-118.71 277.14,-106.72 292.68,-97.67"/><polygon fill="#191970" stroke="#191970" points="236.58 -126.3 229.71 -134.36 240.11 -132.35 236.58 -126.3"/></g><g id="edge5" class="edge"><title>Node4-&gt;Node3</title><path fill="none" stroke="#191970" d="M275.49,-63.27C251.92,-52.92 222.86,-40.15 201.05,-30.58"/><polygon fill="#191970" stroke="#191970" points="274.32 -66.58 284.89 -67.4 277.14 -60.17 274.32 -66.58"/></g><g id="node5" class="node"><title>Node5</title><g id="a_node5"><a target="_top" xlink:href="Engine_8cpp.html"><polygon fill="none" stroke="#000" points="260.5 -6 260.5 -25 373.5 -25 373.5 -6 260.5 -6"/><text x="317" y="-13" font-family="Helvetica,sans-Serif" font-size="10" text-anchor="middle">src/Engine/Engine.cpp</text></a></g></g><g id="edge4" class="edge"><title>Node4-&gt;Node5</title><path fill="none" stroke="#191970" d="M317,-57.25C317,-46.02 317,-33.38 317,-25.19"/><polygon fill="#191970" stroke="#191970" points="313.5 -57.4 317 -67.4 320.5 -57.4 313.5 -57.4"/></g><g id="node6" class="node"><title>Node6</title><g id="a_node6"><a target="_top" xlink:href="ServerNetworkManager_8cpp.html"><polygon fill="none" stroke="#000" points="391.5 -.5 391.5 -30.5 542.5 -30.5 542.5 -.5 391.5 -.5"/><text x="399.5" y="-18.5" font-family="Helvetica,sans-Serif" font-size="10" text-anchor="start">src/Networking/ServerNetwork</text><text x="467" y="-7.5" font-family="Helvetica,sans-Serif" font-size="10" text-anchor="middle">Manager.cpp</text></a></g></g><g id="edge6" class="edge"><title>Node4-&gt;Node6</title><path fill="none" stroke="#191970" d="M358.75,-63.41C382.7,-53.03 412.32,-40.2 434.52,-30.58"/><polygon fill="#191970" stroke="#191970" points="357.33 -60.21 349.55 -67.4 360.11 -66.63 357.33 -60.21"/></g><g id="node7" class="node"><title>Node7</title><g id="a_node7"><a target="_top" xlink:href="RenderSystem_8cpp.html"><polygon fill="none" stroke="#000" points="561 -6 561 -25 711 -25 711 -6 561 -6"/><text x="636" y="-13" font-family="Helvetica,sans-Serif" font-size="10" text-anchor="middle">src/Texture/RenderSystem.cpp</text></a></g></g><g id="edge7" class="edge"><title>Node4-&gt;Node7</title><path fill="none" stroke="#191970" d="M392.61,-66.09C455.64,-53.25 543.12,-35.43 594.22,-25.01"/><polygon fill="#191970" stroke="#191970" points="391.81 -62.68 382.71 -68.11 393.21 -69.54 391.81 -62.68"/></g></g></svg>