<?xml version="1.0" encoding="UTF-8" standalone="no"?>
<!DOCTYPE svg PUBLIC "-//W3C//DTD SVG 1.1//EN"
 "http://www.w3.org/Graphics/SVG/1.1/DTD/svg11.dtd">
<!-- Generated by graphviz version 2.44.0 ()
 -->
<!-- Title: includes/platformer&#45;engine/Networking/ClientNetworkManager.hpp Pages: 1 -->
<svg width="2045pt" height="184pt"
 viewBox="0.00 0.00 2045.00 184.00" xmlns="http://www.w3.org/2000/svg" xmlns:xlink="http://www.w3.org/1999/xlink">
<g id="graph0" class="graph" transform="scale(1 1) rotate(0) translate(4 180)">
<title>includes/platformer&#45;engine/Networking/ClientNetworkManager.hpp</title>
<!-- Node1 -->
<g id="node1" class="node">
<title>Node1</title>
<g id="a_node1"><a xlink:title=" ">
<polygon fill="#bfbfbf" stroke="black" points="326,-134.5 326,-175.5 491,-175.5 491,-134.5 326,-134.5"/>
<text text-anchor="start" x="334" y="-163.5" font-family="Helvetica,sans-Serif" font-size="10.00">includes/platformer</text>
<text text-anchor="start" x="334" y="-152.5" font-family="Helvetica,sans-Serif" font-size="10.00">&#45;engine/Networking/ClientNetwork</text>
<text text-anchor="middle" x="408.5" y="-141.5" font-family="Helvetica,sans-Serif" font-size="10.00">Manager.hpp</text>
</a>
</g>
</g>
<!-- Node2 -->
<g id="node2" class="node">
<title>Node2</title>
<g id="a_node2"><a xlink:href="NetworkingFacade_8cpp.html" target="_top" xlink:title=" ">
<polygon fill="none" stroke="black" points="212.5,-73 212.5,-92 380.5,-92 380.5,-73 212.5,-73"/>
<text text-anchor="middle" x="296.5" y="-80" font-family="Helvetica,sans-Serif" font-size="10.00">src/Facade/NetworkingFacade.cpp</text>
</a>
</g>
</g>
<!-- Node1&#45;&gt;Node2 -->
<g id="edge1" class="edge">
<title>Node1&#45;&gt;Node2</title>
<path fill="none" stroke="midnightblue" d="M368.78,-129C348.38,-116.15 324.81,-101.32 310.28,-92.17"/>
<polygon fill="midnightblue" stroke="midnightblue" points="366.97,-132 377.3,-134.36 370.7,-126.07 366.97,-132"/>
</g>
<!-- Node3 -->
<g id="node3" class="node">
<title>Node3</title>
<g id="a_node3"><a xlink:href="ClientNetworkManager_8cpp.html" target="_top" xlink:title=" ">
<polygon fill="none" stroke="black" points="0,-0.5 0,-30.5 147,-30.5 147,-0.5 0,-0.5"/>
<text text-anchor="start" x="8" y="-18.5" font-family="Helvetica,sans-Serif" font-size="10.00">src/Networking/ClientNetwork</text>
<text text-anchor="middle" x="73.5" y="-7.5" font-family="Helvetica,sans-Serif" font-size="10.00">Manager.cpp</text>
</a>
</g>
</g>
<!-- Node1&#45;&gt;Node3 -->
<g id="edge2" class="edge">
<title>Node1&#45;&gt;Node3</title>
<path fill="none" stroke="midnightblue" d="M410,-124.35C409.27,-105.29 404.9,-81.47 389.5,-67 351.33,-31.11 208.2,-39.51 156.5,-31 153.47,-30.5 150.38,-29.99 147.25,-29.46"/>
<polygon fill="midnightblue" stroke="midnightblue" points="406.5,-124.39 410.08,-134.36 413.5,-124.34 406.5,-124.39"/>
</g>
<!-- Node4 -->
<g id="node4" class="node">
<title>Node4</title>
<g id="a_node4"><a xlink:href="Engine_8hpp.html" target="_top" xlink:title=" ">
<polygon fill="none" stroke="black" points="853,-67.5 853,-97.5 984,-97.5 984,-67.5 853,-67.5"/>
<text text-anchor="start" x="861" y="-85.5" font-family="Helvetica,sans-Serif" font-size="10.00">includes/platformer</text>
<text text-anchor="middle" x="918.5" y="-74.5" font-family="Helvetica,sans-Serif" font-size="10.00">&#45;engine/Engine/Engine.hpp</text>
</a>
</g>
</g>
<!-- Node1&#45;&gt;Node4 -->
<g id="edge3" class="edge">
<title>Node1&#45;&gt;Node4</title>
<path fill="none" stroke="midnightblue" d="M500.96,-141.22C602.57,-127.17 763.23,-104.96 852.74,-92.59"/>
<polygon fill="midnightblue" stroke="midnightblue" points="500.43,-137.76 491.01,-142.59 501.39,-144.69 500.43,-137.76"/>
</g>
<!-- Node4&#45;&gt;Node3 -->
<g id="edge11" class="edge">
<title>Node4&#45;&gt;Node3</title>
<path fill="none" stroke="midnightblue" d="M842.8,-79.16C705.57,-74.33 406.76,-61.07 156.5,-31 153.45,-30.63 150.34,-30.23 147.21,-29.8"/>
<polygon fill="midnightblue" stroke="midnightblue" points="842.68,-82.66 852.79,-79.51 842.92,-75.66 842.68,-82.66"/>
</g>
<!-- Node5 -->
<g id="node5" class="node">
<title>Node5</title>
<g id="a_node5"><a xlink:href="Animator_8cpp.html" target="_top" xlink:title=" ">
<polygon fill="none" stroke="black" points="165.5,-6 165.5,-25 275.5,-25 275.5,-6 165.5,-6"/>
<text text-anchor="middle" x="220.5" y="-13" font-family="Helvetica,sans-Serif" font-size="10.00">src/API/Animator.cpp</text>
</a>
</g>
</g>
<!-- Node4&#45;&gt;Node5 -->
<g id="edge4" class="edge">
<title>Node4&#45;&gt;Node5</title>
<path fill="none" stroke="midnightblue" d="M842.76,-78.98C723.45,-74.21 484.7,-61.49 284.5,-31 274.48,-29.47 263.69,-27.26 253.88,-25.01"/>
<polygon fill="midnightblue" stroke="midnightblue" points="842.76,-82.48 852.89,-79.37 843.03,-75.48 842.76,-82.48"/>
</g>
<!-- Node6 -->
<g id="node6" class="node">
<title>Node6</title>
<g id="a_node6"><a xlink:href="RigidBody_8cpp.html" target="_top" xlink:title=" ">
<polygon fill="none" stroke="black" points="293.5,-6 293.5,-25 407.5,-25 407.5,-6 293.5,-6"/>
<text text-anchor="middle" x="350.5" y="-13" font-family="Helvetica,sans-Serif" font-size="10.00">src/API/RigidBody.cpp</text>
</a>
</g>
</g>
<!-- Node4&#45;&gt;Node6 -->
<g id="edge5" class="edge">
<title>Node4&#45;&gt;Node6</title>
<path fill="none" stroke="midnightblue" d="M842.64,-76.62C744.02,-69.65 566.67,-54.97 416.5,-31 406.42,-29.39 395.57,-27.2 385.64,-25.01"/>
<polygon fill="midnightblue" stroke="midnightblue" points="842.58,-80.13 852.8,-77.33 843.07,-73.14 842.58,-80.13"/>
</g>
<!-- Node7 -->
<g id="node7" class="node">
<title>Node7</title>
<g id="a_node7"><a xlink:href="CollisionBehaviour_8cpp.html" target="_top" xlink:title=" ">
<polygon fill="none" stroke="black" points="425.5,-6 425.5,-25 603.5,-25 603.5,-6 425.5,-6"/>
<text text-anchor="middle" x="514.5" y="-13" font-family="Helvetica,sans-Serif" font-size="10.00">src/Behaviour/CollisionBehaviour.cpp</text>
</a>
</g>
</g>
<!-- Node4&#45;&gt;Node7 -->
<g id="edge6" class="edge">
<title>Node4&#45;&gt;Node7</title>
<path fill="none" stroke="midnightblue" d="M842.64,-69.29C762.33,-56.37 637.68,-36.32 567.39,-25.01"/>
<polygon fill="midnightblue" stroke="midnightblue" points="842.26,-72.78 852.69,-70.91 843.37,-65.87 842.26,-72.78"/>
</g>
<!-- Node8 -->
<g id="node8" class="node">
<title>Node8</title>
<g id="a_node8"><a xlink:href="Debug_8cpp.html" target="_top" xlink:title=" ">
<polygon fill="none" stroke="black" points="621.5,-6 621.5,-25 731.5,-25 731.5,-6 621.5,-6"/>
<text text-anchor="middle" x="676.5" y="-13" font-family="Helvetica,sans-Serif" font-size="10.00">src/Debug/Debug.cpp</text>
</a>
</g>
</g>
<!-- Node4&#45;&gt;Node8 -->
<g id="edge7" class="edge">
<title>Node4&#45;&gt;Node8</title>
<path fill="none" stroke="midnightblue" d="M856.44,-64.83C809.08,-52.11 745.77,-35.11 708.25,-25.03"/>
<polygon fill="midnightblue" stroke="midnightblue" points="855.72,-68.26 866.29,-67.48 857.54,-61.5 855.72,-68.26"/>
</g>
<!-- Node9 -->
<g id="node9" class="node">
<title>Node9</title>
<g id="a_node9"><a xlink:href="GameObjectDirector_8cpp.html" target="_top" xlink:title=" ">
<polygon fill="none" stroke="black" points="749.5,-6 749.5,-25 925.5,-25 925.5,-6 749.5,-6"/>
<text text-anchor="middle" x="837.5" y="-13" font-family="Helvetica,sans-Serif" font-size="10.00">src/Director/GameObjectDirector.cpp</text>
</a>
</g>
</g>
<!-- Node4&#45;&gt;Node9 -->
<g id="edge8" class="edge">
<title>Node4&#45;&gt;Node9</title>
<path fill="none" stroke="midnightblue" d="M892.96,-61.01C877.93,-48.94 859.69,-34.3 848.33,-25.19"/>
<polygon fill="midnightblue" stroke="midnightblue" points="890.93,-63.87 900.92,-67.4 895.32,-58.41 890.93,-63.87"/>
</g>
<!-- Node10 -->
<g id="node10" class="node">
<title>Node10</title>
<g id="a_node10"><a xlink:href="Engine_8cpp.html" target="_top" xlink:title=" ">
<polygon fill="none" stroke="black" points="944,-6 944,-25 1057,-25 1057,-6 944,-6"/>
<text text-anchor="middle" x="1000.5" y="-13" font-family="Helvetica,sans-Serif" font-size="10.00">src/Engine/Engine.cpp</text>
</a>
</g>
</g>
<!-- Node4&#45;&gt;Node10 -->
<g id="edge9" class="edge">
<title>Node4&#45;&gt;Node10</title>
<path fill="none" stroke="midnightblue" d="M944.35,-61.01C959.57,-48.94 978.04,-34.3 989.53,-25.19"/>
<polygon fill="midnightblue" stroke="midnightblue" points="941.96,-58.44 936.29,-67.4 946.3,-63.93 941.96,-58.44"/>
</g>
<!-- Node11 -->
<g id="node11" class="node">
<title>Node11</title>
<g id="a_node11"><a xlink:href="TMXParser_8cpp.html" target="_top" xlink:title=" ">
<polygon fill="none" stroke="black" points="1075.5,-6 1075.5,-25 1211.5,-25 1211.5,-6 1075.5,-6"/>
<text text-anchor="middle" x="1143.5" y="-13" font-family="Helvetica,sans-Serif" font-size="10.00">src/Facade/TMXParser.cpp</text>
</a>
</g>
</g>
<!-- Node4&#45;&gt;Node11 -->
<g id="edge10" class="edge">
<title>Node4&#45;&gt;Node11</title>
<path fill="none" stroke="midnightblue" d="M976.76,-64.67C1020.73,-51.97 1079.24,-35.06 1113.98,-25.03"/>
<polygon fill="midnightblue" stroke="midnightblue" points="975.68,-61.34 967.04,-67.48 977.62,-68.06 975.68,-61.34"/>
</g>
<!-- Node12 -->
<g id="node12" class="node">
<title>Node12</title>
<g id="a_node12"><a xlink:href="ServerNetworkManager_8cpp.html" target="_top" xlink:title=" ">
<polygon fill="none" stroke="black" points="1230,-0.5 1230,-30.5 1381,-30.5 1381,-0.5 1230,-0.5"/>
<text text-anchor="start" x="1238" y="-18.5" font-family="Helvetica,sans-Serif" font-size="10.00">src/Networking/ServerNetwork</text>
<text text-anchor="middle" x="1305.5" y="-7.5" font-family="Helvetica,sans-Serif" font-size="10.00">Manager.cpp</text>
</a>
</g>
</g>
<!-- Node4&#45;&gt;Node12 -->
<g id="edge12" class="edge">
<title>Node4&#45;&gt;Node12</title>
<path fill="none" stroke="midnightblue" d="M994.14,-68.92C1055.23,-58.75 1143.42,-44.02 1220.5,-31 1223.6,-30.48 1226.76,-29.94 1229.96,-29.4"/>
<polygon fill="midnightblue" stroke="midnightblue" points="993.49,-65.48 984.2,-70.58 994.64,-72.39 993.49,-65.48"/>
</g>
<!-- Node13 -->
<g id="node13" class="node">
<title>Node13</title>
<g id="a_node13"><a xlink:href="PlayerRigidBody_8cpp.html" target="_top" xlink:title=" ">
<polygon fill="none" stroke="black" points="1399,-6 1399,-25 1558,-25 1558,-6 1399,-6"/>
<text text-anchor="middle" x="1478.5" y="-13" font-family="Helvetica,sans-Serif" font-size="10.00">src/Physics/PlayerRigidBody.cpp</text>
</a>
</g>
</g>
<!-- Node4&#45;&gt;Node13 -->
<g id="edge13" class="edge">
<title>Node4&#45;&gt;Node13</title>
<path fill="none" stroke="midnightblue" d="M994.52,-74.71C1087.93,-66.05 1251.18,-49.92 1390.5,-31 1403.23,-29.27 1416.96,-27.14 1429.7,-25.05"/>
<polygon fill="midnightblue" stroke="midnightblue" points="993.95,-71.24 984.31,-75.65 994.59,-78.21 993.95,-71.24"/>
</g>
<!-- Node14 -->
<g id="node14" class="node">
<title>Node14</title>
<g id="a_node14"><a xlink:href="RenderSystem_8cpp.html" target="_top" xlink:title=" ">
<polygon fill="none" stroke="black" points="1575.5,-6 1575.5,-25 1725.5,-25 1725.5,-6 1575.5,-6"/>
<text text-anchor="middle" x="1650.5" y="-13" font-family="Helvetica,sans-Serif" font-size="10.00">src/Texture/RenderSystem.cpp</text>
</a>
</g>
</g>
<!-- Node4&#45;&gt;Node14 -->
<g id="edge14" class="edge">
<title>Node4&#45;&gt;Node14</title>
<path fill="none" stroke="midnightblue" d="M994.41,-77.94C1115.82,-71.73 1361.03,-57.01 1567.5,-31 1580.13,-29.41 1593.76,-27.23 1606.25,-25.03"/>
<polygon fill="midnightblue" stroke="midnightblue" points="993.92,-74.46 984.11,-78.47 994.28,-81.45 993.92,-74.46"/>
</g>
<!-- Node15 -->
<g id="node15" class="node">
<title>Node15</title>
<g id="a_node15"><a xlink:href="TextureManager_8cpp.html" target="_top" xlink:title=" ">
<polygon fill="none" stroke="black" points="1743.5,-6 1743.5,-25 1899.5,-25 1899.5,-6 1743.5,-6"/>
<text text-anchor="middle" x="1821.5" y="-13" font-family="Helvetica,sans-Serif" font-size="10.00">src/Texture/TextureManager.cpp</text>
</a>
</g>
</g>
<!-- Node4&#45;&gt;Node15 -->
<g id="edge15" class="edge">
<title>Node4&#45;&gt;Node15</title>
<path fill="none" stroke="midnightblue" d="M994.09,-79.43C1138.41,-74.9 1463.02,-61.94 1734.5,-31 1747.89,-29.47 1762.35,-27.28 1775.57,-25.07"/>
<polygon fill="midnightblue" stroke="midnightblue" points="993.9,-75.94 984.02,-79.74 994.12,-82.93 993.9,-75.94"/>
</g>
<!-- Node16 -->
<g id="node16" class="node">
<title>Node16</title>
<g id="a_node16"><a xlink:href="ClickSystem_8cpp.html" target="_top" xlink:title=" ">
<polygon fill="none" stroke="black" points="1918,-6 1918,-25 2037,-25 2037,-6 1918,-6"/>
<text text-anchor="middle" x="1977.5" y="-13" font-family="Helvetica,sans-Serif" font-size="10.00">src/UI/ClickSystem.cpp</text>
</a>
</g>
</g>
<!-- Node4&#45;&gt;Node16 -->
<g id="edge16" class="edge">
<title>Node4&#45;&gt;Node16</title>
<path fill="none" stroke="midnightblue" d="M994.39,-81.66C1160.72,-81.12 1569.57,-74.98 1908.5,-31 1919.55,-29.57 1931.46,-27.32 1942.22,-25.02"/>
<polygon fill="midnightblue" stroke="midnightblue" points="994.26,-78.16 984.27,-81.68 994.28,-85.16 994.26,-78.16"/>
</g>
</g>
</svg>
