<svg xmlns="http://www.w3.org/2000/svg" xmlns:xlink="http://www.w3.org/1999/xlink" width="136pt" height="140pt" viewBox="0 0 136 140"><g id="graph0" class="graph" transform="scale(1 1) rotate(0) translate(4 136)"><title>src/Networking/Client.cpp</title><g id="node1" class="node"><title>Node1</title><g id="a_node1"><a><polygon fill="#bfbfbf" stroke="#000" points="0 -112.5 0 -131.5 128 -131.5 128 -112.5 0 -112.5"/><text x="64" y="-119.5" font-family="Helvetica,sans-Serif" font-size="10" text-anchor="middle">src/Networking/Client.cpp</text></a></g></g><g id="node2" class="node"><title>Node2</title><g id="a_node2"><a target="_top" xlink:href="Client_8hpp.html"><polygon fill="none" stroke="#000" points="8 -56.5 8 -75.5 120 -75.5 120 -56.5 8 -56.5"/><text x="64" y="-63.5" font-family="Helvetica,sans-Serif" font-size="10" text-anchor="middle">Networking/Client.hpp</text></a></g></g><g id="edge1" class="edge"><title>Node1-&gt;Node2</title><path fill="none" stroke="#191970" d="M64,-112.08C64,-105.01 64,-94.86 64,-85.99"/><polygon fill="#191970" stroke="#191970" points="67.5 -85.75 64 -75.75 60.5 -85.75 67.5 -85.75"/></g><g id="node3" class="node"><title>Node3</title><g id="a_node3"><a><polygon fill="none" stroke="#bfbfbf" points="43.5 -.5 43.5 -19.5 84.5 -19.5 84.5 -.5 43.5 -.5"/><text x="64" y="-7.5" font-family="Helvetica,sans-Serif" font-size="10" text-anchor="middle">string</text></a></g></g><g id="edge2" class="edge"><title>Node2-&gt;Node3</title><path fill="none" stroke="#191970" d="M64,-56.08C64,-49.01 64,-38.86 64,-29.99"/><polygon fill="#191970" stroke="#191970" points="67.5 -29.75 64 -19.75 60.5 -29.75 67.5 -29.75"/></g></g></svg>