<?xml version="1.0" encoding="UTF-8" standalone="no"?>
<!DOCTYPE svg PUBLIC "-//W3C//DTD SVG 1.1//EN"
 "http://www.w3.org/Graphics/SVG/1.1/DTD/svg11.dtd">
<!-- Generated by graphviz version 2.44.0 ()
 -->
<!-- Title: includes/spic&#45;prj&#45;api/Collider.hpp Pages: 1 -->
<svg width="545pt" height="296pt"
 viewBox="0.00 0.00 545.00 296.00" xmlns="http://www.w3.org/2000/svg" xmlns:xlink="http://www.w3.org/1999/xlink">
<g id="graph0" class="graph" transform="scale(1 1) rotate(0) translate(4 292)">
<title>includes/spic&#45;prj&#45;api/Collider.hpp</title>
<!-- Node1 -->
<g id="node1" class="node">
<title>Node1</title>
<g id="a_node1"><a xlink:title=" ">
<polygon fill="#bfbfbf" stroke="black" points="254,-257.5 254,-287.5 357,-287.5 357,-257.5 254,-257.5"/>
<text text-anchor="start" x="262" y="-275.5" font-family="Helvetica,sans-Serif" font-size="10.00">includes/spic&#45;prj&#45;api</text>
<text text-anchor="middle" x="305.5" y="-264.5" font-family="Helvetica,sans-Serif" font-size="10.00">/Collider.hpp</text>
</a>
</g>
</g>
<!-- Node2 -->
<g id="node2" class="node">
<title>Node2</title>
<g id="a_node2"><a xlink:href="Collision_8hpp.html" target="_top" xlink:title=" ">
<polygon fill="none" stroke="black" points="234,-190.5 234,-220.5 377,-220.5 377,-190.5 234,-190.5"/>
<text text-anchor="start" x="242" y="-208.5" font-family="Helvetica,sans-Serif" font-size="10.00">includes/platformer</text>
<text text-anchor="middle" x="305.5" y="-197.5" font-family="Helvetica,sans-Serif" font-size="10.00">&#45;engine/Physics/Collision.hpp</text>
</a>
</g>
</g>
<!-- Node1&#45;&gt;Node2 -->
<g id="edge1" class="edge">
<title>Node1&#45;&gt;Node2</title>
<path fill="none" stroke="midnightblue" d="M305.5,-247.11C305.5,-238.15 305.5,-228.32 305.5,-220.58"/>
<polygon fill="midnightblue" stroke="midnightblue" points="302,-247.4 305.5,-257.4 309,-247.4 302,-247.4"/>
</g>
<!-- Node4 -->
<g id="node4" class="node">
<title>Node4</title>
<g id="a_node4"><a xlink:href="PhysicsSystem_8hpp.html" target="_top" xlink:title=" ">
<polygon fill="none" stroke="black" points="44.5,-123.5 44.5,-153.5 218.5,-153.5 218.5,-123.5 44.5,-123.5"/>
<text text-anchor="start" x="52.5" y="-141.5" font-family="Helvetica,sans-Serif" font-size="10.00">includes/platformer</text>
<text text-anchor="middle" x="131.5" y="-130.5" font-family="Helvetica,sans-Serif" font-size="10.00">&#45;engine/Physics/PhysicsSystem.hpp</text>
</a>
</g>
</g>
<!-- Node1&#45;&gt;Node4 -->
<g id="edge10" class="edge">
<title>Node1&#45;&gt;Node4</title>
<path fill="none" stroke="midnightblue" d="M271.84,-252.19C256.96,-243.23 239.49,-232.12 224.5,-221 195.19,-199.25 163.8,-170.45 146.01,-153.55"/>
<polygon fill="midnightblue" stroke="midnightblue" points="270.34,-255.37 280.72,-257.47 273.91,-249.35 270.34,-255.37"/>
</g>
<!-- Node9 -->
<g id="node9" class="node">
<title>Node9</title>
<g id="a_node9"><a xlink:href="BehaviourScript_8hpp.html" target="_top" xlink:title=" ">
<polygon fill="none" stroke="black" points="380,-123.5 380,-153.5 487,-153.5 487,-123.5 380,-123.5"/>
<text text-anchor="start" x="388" y="-141.5" font-family="Helvetica,sans-Serif" font-size="10.00">includes/spic&#45;prj&#45;api</text>
<text text-anchor="middle" x="433.5" y="-130.5" font-family="Helvetica,sans-Serif" font-size="10.00">/BehaviourScript.hpp</text>
</a>
</g>
</g>
<!-- Node1&#45;&gt;Node9 -->
<g id="edge11" class="edge">
<title>Node1&#45;&gt;Node9</title>
<path fill="none" stroke="midnightblue" d="M343.97,-252.24C358.12,-243.93 373.59,-233.28 385.5,-221 405.16,-200.72 420.07,-170.9 427.74,-153.52"/>
<polygon fill="midnightblue" stroke="midnightblue" points="341.89,-249.4 334.91,-257.36 345.34,-255.49 341.89,-249.4"/>
</g>
<!-- Node10 -->
<g id="node10" class="node">
<title>Node10</title>
<g id="a_node10"><a xlink:href="BoxCollider_8hpp.html" target="_top" xlink:title=" ">
<polygon fill="none" stroke="black" points="74,-190.5 74,-220.5 177,-220.5 177,-190.5 74,-190.5"/>
<text text-anchor="start" x="82" y="-208.5" font-family="Helvetica,sans-Serif" font-size="10.00">includes/spic&#45;prj&#45;api</text>
<text text-anchor="middle" x="125.5" y="-197.5" font-family="Helvetica,sans-Serif" font-size="10.00">/BoxCollider.hpp</text>
</a>
</g>
</g>
<!-- Node1&#45;&gt;Node10 -->
<g id="edge12" class="edge">
<title>Node1&#45;&gt;Node10</title>
<path fill="none" stroke="midnightblue" d="M256.91,-253.96C227.92,-243.48 191.59,-230.37 164.48,-220.58"/>
<polygon fill="midnightblue" stroke="midnightblue" points="255.85,-257.29 266.44,-257.4 258.23,-250.71 255.85,-257.29"/>
</g>
<!-- Node11 -->
<g id="node11" class="node">
<title>Node11</title>
<g id="a_node11"><a xlink:href="CircleCollider_8hpp.html" target="_top" xlink:title=" ">
<polygon fill="none" stroke="black" points="434,-190.5 434,-220.5 537,-220.5 537,-190.5 434,-190.5"/>
<text text-anchor="start" x="442" y="-208.5" font-family="Helvetica,sans-Serif" font-size="10.00">includes/spic&#45;prj&#45;api</text>
<text text-anchor="middle" x="485.5" y="-197.5" font-family="Helvetica,sans-Serif" font-size="10.00">/CircleCollider.hpp</text>
</a>
</g>
</g>
<!-- Node1&#45;&gt;Node11 -->
<g id="edge14" class="edge">
<title>Node1&#45;&gt;Node11</title>
<path fill="none" stroke="midnightblue" d="M354.09,-253.96C383.08,-243.48 419.41,-230.37 446.52,-220.58"/>
<polygon fill="midnightblue" stroke="midnightblue" points="352.77,-250.71 344.56,-257.4 355.15,-257.29 352.77,-250.71"/>
</g>
<!-- Node3 -->
<g id="node3" class="node">
<title>Node3</title>
<g id="a_node3"><a xlink:href="Collision_8cpp.html" target="_top" xlink:title=" ">
<polygon fill="none" stroke="black" points="237,-129 237,-148 362,-148 362,-129 237,-129"/>
<text text-anchor="middle" x="299.5" y="-136" font-family="Helvetica,sans-Serif" font-size="10.00">src/Physics/Collision.cpp</text>
</a>
</g>
</g>
<!-- Node2&#45;&gt;Node3 -->
<g id="edge2" class="edge">
<title>Node2&#45;&gt;Node3</title>
<path fill="none" stroke="midnightblue" d="M303.26,-180.25C302.22,-169.02 301.06,-156.38 300.3,-148.19"/>
<polygon fill="midnightblue" stroke="midnightblue" points="299.79,-180.76 304.2,-190.4 306.76,-180.12 299.79,-180.76"/>
</g>
<!-- Node2&#45;&gt;Node4 -->
<g id="edge3" class="edge">
<title>Node2&#45;&gt;Node4</title>
<path fill="none" stroke="midnightblue" d="M258.17,-186.82C230.2,-176.37 195.27,-163.32 169.18,-153.58"/>
<polygon fill="midnightblue" stroke="midnightblue" points="257.15,-190.18 267.74,-190.4 259.6,-183.62 257.15,-190.18"/>
</g>
<!-- Node2&#45;&gt;Node9 -->
<g id="edge8" class="edge">
<title>Node2&#45;&gt;Node9</title>
<path fill="none" stroke="midnightblue" d="M342.22,-185.85C362.46,-175.58 387.17,-163.03 405.78,-153.58"/>
<polygon fill="midnightblue" stroke="midnightblue" points="340.61,-182.75 333.27,-190.4 343.78,-188.99 340.61,-182.75"/>
</g>
<!-- Node5 -->
<g id="node5" class="node">
<title>Node5</title>
<g id="a_node5"><a xlink:href="PhysicsSystem_8cpp.html" target="_top" xlink:title=" ">
<polygon fill="none" stroke="black" points="285.5,-62 285.5,-81 441.5,-81 441.5,-62 285.5,-62"/>
<text text-anchor="middle" x="363.5" y="-69" font-family="Helvetica,sans-Serif" font-size="10.00">src/Physics/PhysicsSystem.cpp</text>
</a>
</g>
</g>
<!-- Node4&#45;&gt;Node5 -->
<g id="edge4" class="edge">
<title>Node4&#45;&gt;Node5</title>
<path fill="none" stroke="midnightblue" d="M191.28,-120.75C236.66,-108.04 297.17,-91.09 333.06,-81.03"/>
<polygon fill="midnightblue" stroke="midnightblue" points="190.24,-117.41 181.55,-123.48 192.13,-124.15 190.24,-117.41"/>
</g>
<!-- Node6 -->
<g id="node6" class="node">
<title>Node6</title>
<g id="a_node6"><a xlink:href="Engine_8hpp.html" target="_top" xlink:title=" ">
<polygon fill="none" stroke="black" points="66,-56.5 66,-86.5 197,-86.5 197,-56.5 66,-56.5"/>
<text text-anchor="start" x="74" y="-74.5" font-family="Helvetica,sans-Serif" font-size="10.00">includes/platformer</text>
<text text-anchor="middle" x="131.5" y="-63.5" font-family="Helvetica,sans-Serif" font-size="10.00">&#45;engine/Engine/Engine.hpp</text>
</a>
</g>
</g>
<!-- Node4&#45;&gt;Node6 -->
<g id="edge5" class="edge">
<title>Node4&#45;&gt;Node6</title>
<path fill="none" stroke="midnightblue" d="M131.5,-113.11C131.5,-104.15 131.5,-94.32 131.5,-86.58"/>
<polygon fill="midnightblue" stroke="midnightblue" points="128,-113.4 131.5,-123.4 135,-113.4 128,-113.4"/>
</g>
<!-- Node7 -->
<g id="node7" class="node">
<title>Node7</title>
<g id="a_node7"><a xlink:href="Engine_8cpp.html" target="_top" xlink:title=" ">
<polygon fill="none" stroke="black" points="0,-0.5 0,-19.5 113,-19.5 113,-0.5 0,-0.5"/>
<text text-anchor="middle" x="56.5" y="-7.5" font-family="Helvetica,sans-Serif" font-size="10.00">src/Engine/Engine.cpp</text>
</a>
</g>
</g>
<!-- Node6&#45;&gt;Node7 -->
<g id="edge6" class="edge">
<title>Node6&#45;&gt;Node7</title>
<path fill="none" stroke="midnightblue" d="M105.53,-49.89C92.48,-39.54 77.37,-27.56 67.41,-19.66"/>
<polygon fill="midnightblue" stroke="midnightblue" points="103.72,-52.93 113.73,-56.4 108.07,-47.44 103.72,-52.93"/>
</g>
<!-- Node8 -->
<g id="node8" class="node">
<title>Node8</title>
<g id="a_node8"><a xlink:href="RenderSystem_8cpp.html" target="_top" xlink:title=" ">
<polygon fill="none" stroke="black" points="131.5,-0.5 131.5,-19.5 281.5,-19.5 281.5,-0.5 131.5,-0.5"/>
<text text-anchor="middle" x="206.5" y="-7.5" font-family="Helvetica,sans-Serif" font-size="10.00">src/Texture/RenderSystem.cpp</text>
</a>
</g>
</g>
<!-- Node6&#45;&gt;Node8 -->
<g id="edge7" class="edge">
<title>Node6&#45;&gt;Node8</title>
<path fill="none" stroke="midnightblue" d="M157.47,-49.89C170.52,-39.54 185.63,-27.56 195.59,-19.66"/>
<polygon fill="midnightblue" stroke="midnightblue" points="154.93,-47.44 149.27,-56.4 159.28,-52.93 154.93,-47.44"/>
</g>
<!-- Node9&#45;&gt;Node5 -->
<g id="edge9" class="edge">
<title>Node9&#45;&gt;Node5</title>
<path fill="none" stroke="midnightblue" d="M410.71,-116.34C397.85,-104.4 382.49,-90.14 372.86,-81.19"/>
<polygon fill="midnightblue" stroke="midnightblue" points="408.6,-119.16 418.31,-123.4 413.36,-114.03 408.6,-119.16"/>
</g>
<!-- Node10&#45;&gt;Node4 -->
<g id="edge13" class="edge">
<title>Node10&#45;&gt;Node4</title>
<path fill="none" stroke="midnightblue" d="M127.72,-180.4C128.56,-171.37 129.48,-161.41 130.2,-153.58"/>
<polygon fill="midnightblue" stroke="midnightblue" points="124.24,-180.12 126.8,-190.4 131.21,-180.76 124.24,-180.12"/>
</g>
</g>
</svg>
