<?xml version="1.0" encoding="UTF-8" standalone="no"?>
<!DOCTYPE svg PUBLIC "-//W3C//DTD SVG 1.1//EN"
 "http://www.w3.org/Graphics/SVG/1.1/DTD/svg11.dtd">
<!-- Generated by graphviz version 2.44.0 ()
 -->
<!-- Title: src/API/Collider.cpp Pages: 1 -->
<!--zoomable 274 -->
<svg id="main" version="1.1" xmlns="http://www.w3.org/2000/svg" xmlns:xlink="http://www.w3.org/1999/xlink" xml:space="preserve" onload="init(evt)">
<style type="text/css"><![CDATA[
.edge:hover path { stroke: red; }
.edge:hover polygon { stroke: red; fill: red; }
]]></style>
<script type="text/javascript"><![CDATA[
var edges = document.getElementsByTagName('g');
if (edges && edges.length) {
  for (var i=0;i<edges.length;i++) {
    if (edges[i].id.substr(0,4)=='edge') {
      edges[i].setAttribute('class','edge');
    }
  }
}
]]></script>
        <defs>
                <circle id="rim" cx="0" cy="0" r="7"/>
                <circle id="rim2" cx="0" cy="0" r="3.5"/>
                <g id="zoomPlus">
                        <use xlink:href="#rim" fill="#404040">
                                <set attributeName="fill" to="#808080" begin="zoomplus.mouseover" end="zoomplus.mouseout"/>
                        </use>
                        <path d="M-4,0h8M0,-4v8" fill="none" stroke="white" stroke-width="1.5" pointer-events="none"/>
                </g>
                <g id="zoomMin">
                        <use xlink:href="#rim" fill="#404040">
                                <set attributeName="fill" to="#808080" begin="zoomminus.mouseover" end="zoomminus.mouseout"/>
                        </use>
                        <path d="M-4,0h8" fill="none" stroke="white" stroke-width="1.5" pointer-events="none"/>
                </g>
                <g id="dirArrow">
                        <path fill="none" stroke="white" stroke-width="1.5" d="M0,-3.0v7 M-2.5,-0.5L0,-3.0L2.5,-0.5"/>
                </g>
               <g id="resetDef">
                       <use xlink:href="#rim2" fill="#404040">
                               <set attributeName="fill" to="#808080" begin="reset.mouseover" end="reset.mouseout"/>
                       </use>
               </g>
        </defs>

<script type="text/javascript">
var viewWidth = 721;
var viewHeight = 274;
var sectionId = 'dynsection-0';
</script>
<script xlink:href="svgpan.js"/>
<svg id="graph" class="graph">
<g id="viewport">
<title>src/API/Collider.cpp</title>
<!-- Node1 -->
<g id="node1" class="node">
<title>Node1</title>
<g id="a_node1"><a xlink:title=" ">
<polygon fill="#bfbfbf" stroke="black" points="175.56,-246.5 175.56,-265.5 278.56,-265.5 278.56,-246.5 175.56,-246.5"/>
<text text-anchor="middle" x="227.06" y="-253.5" font-family="Helvetica,sans-Serif" font-size="10.00">src/API/Collider.cpp</text>
</a>
</g>
</g>
<!-- Node2 -->
<g id="node2" class="node">
<title>Node2</title>
<g id="a_node2"><a xlink:href="Collider_8hpp.html" target="_top" xlink:title=" ">
<polygon fill="none" stroke="black" points="132.56,-129 132.56,-148 199.56,-148 199.56,-129 132.56,-129"/>
<text text-anchor="middle" x="166.06" y="-136" font-family="Helvetica,sans-Serif" font-size="10.00">Collider.hpp</text>
</a>
</g>
</g>
<!-- Node1&#45;&gt;Node2 -->
<g id="edge1" class="edge">
<title>Node1&#45;&gt;Node2</title>
<path fill="none" stroke="midnightblue" d="M222.47,-246.32C212.54,-227.51 188.85,-182.65 175.54,-157.46"/>
<polygon fill="midnightblue" stroke="midnightblue" points="178.46,-155.49 170.7,-148.28 172.27,-158.76 178.46,-155.49"/>
</g>
<!-- Node10 -->
<g id="node10" class="node">
<title>Node10</title>
<g id="a_node10"><a xlink:href="Collision_8hpp.html" target="_top" xlink:title=" ">
<polygon fill="none" stroke="black" points="7.56,-190.5 7.56,-209.5 116.56,-209.5 116.56,-190.5 7.56,-190.5"/>
<text text-anchor="middle" x="62.06" y="-197.5" font-family="Helvetica,sans-Serif" font-size="10.00">Physics/Collision.hpp</text>
</a>
</g>
</g>
<!-- Node1&#45;&gt;Node10 -->
<g id="edge9" class="edge">
<title>Node1&#45;&gt;Node10</title>
<path fill="none" stroke="midnightblue" d="M200.91,-246.44C173.04,-237.32 128.71,-222.81 97.66,-212.65"/>
<polygon fill="midnightblue" stroke="midnightblue" points="98.67,-209.3 88.08,-209.52 96.5,-215.95 98.67,-209.3"/>
</g>
<!-- Node12 -->
<g id="node12" class="node">
<title>Node12</title>
<g id="a_node12"><a xlink:href="CollisionByIdNotFoundException_8hpp.html" target="_top" xlink:title=" ">
<polygon fill="none" stroke="black" points="553.56,-123.5 553.56,-153.5 676.56,-153.5 676.56,-123.5 553.56,-123.5"/>
<text text-anchor="start" x="561.56" y="-141.5" font-family="Helvetica,sans-Serif" font-size="10.00">Exceptions/CollisionById</text>
<text text-anchor="middle" x="615.06" y="-130.5" font-family="Helvetica,sans-Serif" font-size="10.00">NotFoundException.hpp</text>
</a>
</g>
</g>
<!-- Node1&#45;&gt;Node12 -->
<g id="edge14" class="edge">
<title>Node1&#45;&gt;Node12</title>
<path fill="none" stroke="midnightblue" d="M255.9,-246.41C319.76,-227.4 474.05,-181.47 558.13,-156.45"/>
<polygon fill="midnightblue" stroke="midnightblue" points="559.19,-159.78 567.77,-153.58 557.19,-153.07 559.19,-159.78"/>
</g>
<!-- Node15 -->
<g id="node15" class="node">
<title>Node15</title>
<g id="a_node15"><a xlink:href="GameObject_8hpp.html" target="_top" xlink:title=" ">
<polygon fill="none" stroke="black" points="322.56,-129 322.56,-148 411.56,-148 411.56,-129 322.56,-129"/>
<text text-anchor="middle" x="367.06" y="-136" font-family="Helvetica,sans-Serif" font-size="10.00">GameObject.hpp</text>
</a>
</g>
</g>
<!-- Node1&#45;&gt;Node15 -->
<g id="edge17" class="edge">
<title>Node1&#45;&gt;Node15</title>
<path fill="none" stroke="midnightblue" d="M237.58,-246.32C261.2,-226.84 318.66,-179.42 348.46,-154.84"/>
<polygon fill="midnightblue" stroke="midnightblue" points="350.93,-157.35 356.41,-148.28 346.47,-151.95 350.93,-157.35"/>
</g>
<!-- Node3 -->
<g id="node3" class="node">
<title>Node3</title>
<g id="a_node3"><a xlink:title=" ">
<polygon fill="none" stroke="#bfbfbf" points="90.06,-67.5 90.06,-86.5 134.06,-86.5 134.06,-67.5 90.06,-67.5"/>
<text text-anchor="middle" x="112.06" y="-74.5" font-family="Helvetica,sans-Serif" font-size="10.00">vector</text>
</a>
</g>
</g>
<!-- Node2&#45;&gt;Node3 -->
<g id="edge2" class="edge">
<title>Node2&#45;&gt;Node3</title>
<path fill="none" stroke="midnightblue" d="M158.32,-128.98C150.06,-119.87 136.78,-105.24 126.56,-93.98"/>
<polygon fill="midnightblue" stroke="midnightblue" points="129.09,-91.56 119.78,-86.51 123.91,-96.27 129.09,-91.56"/>
</g>
<!-- Node4 -->
<g id="node4" class="node">
<title>Node4</title>
<g id="a_node4"><a xlink:href="Component_8hpp.html" target="_top" xlink:title=" ">
<polygon fill="none" stroke="black" points="325.06,-67.5 325.06,-86.5 409.06,-86.5 409.06,-67.5 325.06,-67.5"/>
<text text-anchor="middle" x="367.06" y="-74.5" font-family="Helvetica,sans-Serif" font-size="10.00">Component.hpp</text>
</a>
</g>
</g>
<!-- Node2&#45;&gt;Node4 -->
<g id="edge3" class="edge">
<title>Node2&#45;&gt;Node4</title>
<path fill="none" stroke="midnightblue" d="M194.86,-128.98C229.93,-118.59 289.32,-101.01 328.37,-89.45"/>
<polygon fill="midnightblue" stroke="midnightblue" points="329.72,-92.7 338.31,-86.51 327.73,-85.99 329.72,-92.7"/>
</g>
<!-- Node5 -->
<g id="node5" class="node">
<title>Node5</title>
<g id="a_node5"><a xlink:title=" ">
<polygon fill="none" stroke="#bfbfbf" points="134.56,-6 134.56,-25 185.56,-25 185.56,-6 134.56,-6"/>
<text text-anchor="middle" x="160.06" y="-13" font-family="Helvetica,sans-Serif" font-size="10.00">memory</text>
</a>
</g>
</g>
<!-- Node4&#45;&gt;Node5 -->
<g id="edge4" class="edge">
<title>Node4&#45;&gt;Node5</title>
<path fill="none" stroke="midnightblue" d="M327.4,-67.45C292.01,-59.41 239,-46.33 194.06,-31 192.19,-30.36 190.28,-29.67 188.37,-28.94"/>
<polygon fill="midnightblue" stroke="midnightblue" points="189.51,-25.63 178.93,-25.14 186.89,-32.12 189.51,-25.63"/>
</g>
<!-- Node6 -->
<g id="node6" class="node">
<title>Node6</title>
<g id="a_node6"><a xlink:title=" ">
<polygon fill="none" stroke="#bfbfbf" points="203.56,-0.5 203.56,-30.5 298.56,-30.5 298.56,-0.5 203.56,-0.5"/>
<text text-anchor="start" x="211.56" y="-18.5" font-family="Helvetica,sans-Serif" font-size="10.00">boost/serialization</text>
<text text-anchor="middle" x="251.06" y="-7.5" font-family="Helvetica,sans-Serif" font-size="10.00">/access.hpp</text>
</a>
</g>
</g>
<!-- Node4&#45;&gt;Node6 -->
<g id="edge5" class="edge">
<title>Node4&#45;&gt;Node6</title>
<path fill="none" stroke="midnightblue" d="M350.44,-67.48C334.07,-59.08 308.52,-45.97 287.42,-35.15"/>
<polygon fill="midnightblue" stroke="midnightblue" points="288.89,-31.97 278.4,-30.52 285.7,-38.2 288.89,-31.97"/>
</g>
<!-- Node7 -->
<g id="node7" class="node">
<title>Node7</title>
<g id="a_node7"><a xlink:title=" ">
<polygon fill="none" stroke="#bfbfbf" points="316.56,-0.5 316.56,-30.5 411.56,-30.5 411.56,-0.5 316.56,-0.5"/>
<text text-anchor="start" x="324.56" y="-18.5" font-family="Helvetica,sans-Serif" font-size="10.00">boost/serialization</text>
<text text-anchor="middle" x="364.06" y="-7.5" font-family="Helvetica,sans-Serif" font-size="10.00">/map.hpp</text>
</a>
</g>
</g>
<!-- Node4&#45;&gt;Node7 -->
<g id="edge6" class="edge">
<title>Node4&#45;&gt;Node7</title>
<path fill="none" stroke="midnightblue" d="M366.63,-67.48C366.28,-60.47 365.76,-50.19 365.28,-40.7"/>
<polygon fill="midnightblue" stroke="midnightblue" points="368.76,-40.33 364.77,-30.52 361.77,-40.69 368.76,-40.33"/>
</g>
<!-- Node8 -->
<g id="node8" class="node">
<title>Node8</title>
<g id="a_node8"><a xlink:title=" ">
<polygon fill="none" stroke="#bfbfbf" points="429.56,-0.5 429.56,-30.5 524.56,-30.5 524.56,-0.5 429.56,-0.5"/>
<text text-anchor="start" x="437.56" y="-18.5" font-family="Helvetica,sans-Serif" font-size="10.00">boost/serialization</text>
<text text-anchor="middle" x="477.06" y="-7.5" font-family="Helvetica,sans-Serif" font-size="10.00">/vector.hpp</text>
</a>
</g>
</g>
<!-- Node4&#45;&gt;Node8 -->
<g id="edge7" class="edge">
<title>Node4&#45;&gt;Node8</title>
<path fill="none" stroke="midnightblue" d="M382.82,-67.48C398.27,-59.12 422.35,-46.09 442.3,-35.3"/>
<polygon fill="midnightblue" stroke="midnightblue" points="444,-38.36 451.13,-30.52 440.67,-32.2 444,-38.36"/>
</g>
<!-- Node9 -->
<g id="node9" class="node">
<title>Node9</title>
<g id="a_node9"><a xlink:title=" ">
<polygon fill="none" stroke="#bfbfbf" points="542.56,-0.5 542.56,-30.5 637.56,-30.5 637.56,-0.5 542.56,-0.5"/>
<text text-anchor="start" x="550.56" y="-18.5" font-family="Helvetica,sans-Serif" font-size="10.00">boost/serialization</text>
<text text-anchor="middle" x="590.06" y="-7.5" font-family="Helvetica,sans-Serif" font-size="10.00">/shared_ptr.hpp</text>
</a>
</g>
</g>
<!-- Node4&#45;&gt;Node9 -->
<g id="edge8" class="edge">
<title>Node4&#45;&gt;Node9</title>
<path fill="none" stroke="midnightblue" d="M399.01,-67.48C433.68,-58.22 489.78,-43.26 532.23,-31.93"/>
<polygon fill="midnightblue" stroke="midnightblue" points="533.4,-35.24 542.16,-29.28 531.6,-28.48 533.4,-35.24"/>
</g>
<!-- Node10&#45;&gt;Node2 -->
<g id="edge12" class="edge">
<title>Node10&#45;&gt;Node2</title>
<path fill="none" stroke="midnightblue" d="M76.96,-190.48C94.03,-180.71 122.22,-164.58 142.32,-153.08"/>
<polygon fill="midnightblue" stroke="midnightblue" points="144.24,-156.01 151.19,-148.01 140.77,-149.94 144.24,-156.01"/>
</g>
<!-- Node10&#45;&gt;Node5 -->
<g id="edge10" class="edge">
<title>Node10&#45;&gt;Node5</title>
<path fill="none" stroke="midnightblue" d="M57.72,-190.42C47.06,-168.05 22.3,-106.88 48.06,-67 64.82,-41.06 98.44,-28.31 124.5,-22.13"/>
<polygon fill="midnightblue" stroke="midnightblue" points="125.37,-25.52 134.42,-19.99 123.9,-18.67 125.37,-25.52"/>
</g>
<!-- Node10&#45;&gt;Node6 -->
<g id="edge13" class="edge">
<title>Node10&#45;&gt;Node6</title>
<path fill="none" stroke="midnightblue" d="M60.44,-190.33C56.64,-167.19 49.73,-103.27 81.06,-67 84.94,-62.5 145.95,-45.07 193.79,-31.93"/>
<polygon fill="midnightblue" stroke="midnightblue" points="194.74,-35.3 203.46,-29.29 192.89,-28.55 194.74,-35.3"/>
</g>
<!-- Node11 -->
<g id="node11" class="node">
<title>Node11</title>
<g id="a_node11"><a xlink:href="Point_8hpp.html" target="_top" xlink:title=" ">
<polygon fill="none" stroke="black" points="9.56,-6 9.56,-25 66.56,-25 66.56,-6 9.56,-6"/>
<text text-anchor="middle" x="38.06" y="-13" font-family="Helvetica,sans-Serif" font-size="10.00">Point.hpp</text>
</a>
</g>
</g>
<!-- Node10&#45;&gt;Node11 -->
<g id="edge11" class="edge">
<title>Node10&#45;&gt;Node11</title>
<path fill="none" stroke="midnightblue" d="M46.28,-190.47C33.86,-182.77 17.45,-170.18 10.06,-154 -6.02,-118.83 0.37,-104.43 10.06,-67 13.15,-55.06 19.73,-42.94 25.74,-33.56"/>
<polygon fill="midnightblue" stroke="midnightblue" points="28.69,-35.45 31.4,-25.21 22.89,-31.52 28.69,-35.45"/>
</g>
<!-- Node13 -->
<g id="node13" class="node">
<title>Node13</title>
<g id="a_node13"><a xlink:title=" ">
<polygon fill="none" stroke="#bfbfbf" points="653.56,-67.5 653.56,-86.5 712.56,-86.5 712.56,-67.5 653.56,-67.5"/>
<text text-anchor="middle" x="683.06" y="-74.5" font-family="Helvetica,sans-Serif" font-size="10.00">stdexcept</text>
</a>
</g>
</g>
<!-- Node12&#45;&gt;Node13 -->
<g id="edge15" class="edge">
<title>Node12&#45;&gt;Node13</title>
<path fill="none" stroke="midnightblue" d="M631.17,-123.4C641.46,-114.4 654.81,-102.72 665.38,-93.47"/>
<polygon fill="midnightblue" stroke="midnightblue" points="667.94,-95.88 673.16,-86.66 663.33,-90.61 667.94,-95.88"/>
</g>
<!-- Node14 -->
<g id="node14" class="node">
<title>Node14</title>
<g id="a_node14"><a xlink:title=" ">
<polygon fill="none" stroke="#bfbfbf" points="594.56,-67.5 594.56,-86.5 635.56,-86.5 635.56,-67.5 594.56,-67.5"/>
<text text-anchor="middle" x="615.06" y="-74.5" font-family="Helvetica,sans-Serif" font-size="10.00">string</text>
</a>
</g>
</g>
<!-- Node12&#45;&gt;Node14 -->
<g id="edge16" class="edge">
<title>Node12&#45;&gt;Node14</title>
<path fill="none" stroke="midnightblue" d="M615.06,-123.4C615.06,-115.47 615.06,-105.46 615.06,-96.86"/>
<polygon fill="midnightblue" stroke="midnightblue" points="618.56,-96.66 615.06,-86.66 611.56,-96.66 618.56,-96.66"/>
</g>
<!-- Node15&#45;&gt;Node3 -->
<g id="edge22" class="edge">
<title>Node15&#45;&gt;Node3</title>
<path fill="none" stroke="midnightblue" d="M324.96,-128.98C281.72,-120.02 212.27,-105.07 144.3,-87.47"/>
<polygon fill="midnightblue" stroke="midnightblue" points="144.85,-84 134.29,-84.86 143.08,-90.77 144.85,-84"/>
</g>
<!-- Node15&#45;&gt;Node4 -->
<g id="edge18" class="edge">
<title>Node15&#45;&gt;Node4</title>
<path fill="none" stroke="midnightblue" d="M367.06,-128.98C367.06,-120.58 367.06,-107.48 367.06,-96.66"/>
<polygon fill="midnightblue" stroke="midnightblue" points="370.56,-96.51 367.06,-86.51 363.56,-96.51 370.56,-96.51"/>
</g>
<!-- Node15&#45;&gt;Node5 -->
<g id="edge23" class="edge">
<title>Node15&#45;&gt;Node5</title>
<path fill="none" stroke="midnightblue" d="M352.5,-128.99C317.18,-108.34 226.66,-55.43 183.56,-30.24"/>
<polygon fill="midnightblue" stroke="midnightblue" points="185.27,-27.19 174.88,-25.16 181.74,-33.23 185.27,-27.19"/>
</g>
<!-- Node15&#45;&gt;Node6 -->
<g id="edge25" class="edge">
<title>Node15&#45;&gt;Node6</title>
<path fill="none" stroke="midnightblue" d="M357.91,-128.68C347.6,-118.7 330.42,-101.88 316.06,-87 300.6,-70.98 283.55,-52.45 270.79,-38.41"/>
<polygon fill="midnightblue" stroke="midnightblue" points="273.13,-35.78 263.82,-30.72 267.94,-40.48 273.13,-35.78"/>
</g>
<!-- Node15&#45;&gt;Node7 -->
<g id="edge26" class="edge">
<title>Node15&#45;&gt;Node7</title>
<path fill="none" stroke="midnightblue" d="M381.05,-128.93C399.6,-116.39 428.82,-91.81 418.06,-67 412.99,-55.32 403.74,-45.1 394.31,-36.98"/>
<polygon fill="midnightblue" stroke="midnightblue" points="396.42,-34.19 386.43,-30.65 392.04,-39.64 396.42,-34.19"/>
</g>
<!-- Node15&#45;&gt;Node8 -->
<g id="edge27" class="edge">
<title>Node15&#45;&gt;Node8</title>
<path fill="none" stroke="midnightblue" d="M381.12,-128.9C395.36,-119.73 417.43,-104.19 433.06,-87 446.04,-72.73 457.46,-54.13 465.41,-39.62"/>
<polygon fill="midnightblue" stroke="midnightblue" points="468.52,-41.24 470.12,-30.76 462.34,-37.95 468.52,-41.24"/>
</g>
<!-- Node15&#45;&gt;Node9 -->
<g id="edge28" class="edge">
<title>Node15&#45;&gt;Node9</title>
<path fill="none" stroke="midnightblue" d="M382.74,-128.99C418.32,-109.69 505.87,-62.18 555.06,-35.49"/>
<polygon fill="midnightblue" stroke="midnightblue" points="556.95,-38.44 564.07,-30.6 553.61,-32.29 556.95,-38.44"/>
</g>
<!-- Node15&#45;&gt;Node14 -->
<g id="edge21" class="edge">
<title>Node15&#45;&gt;Node14</title>
<path fill="none" stroke="midnightblue" d="M408.05,-129C450.15,-120.06 517.76,-105.12 584.66,-87.24"/>
<polygon fill="midnightblue" stroke="midnightblue" points="585.77,-90.56 594.52,-84.58 583.95,-83.8 585.77,-90.56"/>
</g>
<!-- Node16 -->
<g id="node16" class="node">
<title>Node16</title>
<g id="a_node16"><a xlink:href="Transform_8hpp.html" target="_top" xlink:title=" ">
<polygon fill="none" stroke="black" points="151.56,-67.5 151.56,-86.5 230.56,-86.5 230.56,-67.5 151.56,-67.5"/>
<text text-anchor="middle" x="191.06" y="-74.5" font-family="Helvetica,sans-Serif" font-size="10.00">Transform.hpp</text>
</a>
</g>
</g>
<!-- Node15&#45;&gt;Node16 -->
<g id="edge19" class="edge">
<title>Node15&#45;&gt;Node16</title>
<path fill="none" stroke="midnightblue" d="M341.84,-128.98C311.39,-118.68 260.01,-101.31 225.82,-89.75"/>
<polygon fill="midnightblue" stroke="midnightblue" points="226.82,-86.4 216.23,-86.51 224.58,-93.03 226.82,-86.4"/>
</g>
<!-- Node17 -->
<g id="node17" class="node">
<title>Node17</title>
<g id="a_node17"><a xlink:title=" ">
<polygon fill="none" stroke="#bfbfbf" points="541.56,-67.5 541.56,-86.5 576.56,-86.5 576.56,-67.5 541.56,-67.5"/>
<text text-anchor="middle" x="559.06" y="-74.5" font-family="Helvetica,sans-Serif" font-size="10.00">map</text>
</a>
</g>
</g>
<!-- Node15&#45;&gt;Node17 -->
<g id="edge24" class="edge">
<title>Node15&#45;&gt;Node17</title>
<path fill="none" stroke="midnightblue" d="M394.57,-128.98C431,-117.69 494.88,-97.89 531.39,-86.57"/>
<polygon fill="midnightblue" stroke="midnightblue" points="532.83,-89.79 541.35,-83.49 530.76,-83.11 532.83,-89.79"/>
</g>
<!-- Node16&#45;&gt;Node11 -->
<g id="edge20" class="edge">
<title>Node16&#45;&gt;Node11</title>
<path fill="none" stroke="midnightblue" d="M169.14,-67.48C143.01,-57.31 99.15,-40.26 69.43,-28.7"/>
<polygon fill="midnightblue" stroke="midnightblue" points="70.53,-25.37 59.94,-25.01 67.99,-31.9 70.53,-25.37"/>
</g>
</g>
</svg>
        <g id="navigator" transform="translate(0 0)" fill="#404254">
                <rect fill="#f2f5e9" fill-opacity="0.5" stroke="#606060" stroke-width=".5" x="0" y="0" width="60" height="60"/>
                <use id="zoomplus" xlink:href="#zoomPlus" x="17" y="9" onmousedown="handleZoom(evt,'in')"/>
                <use id="zoomminus" xlink:href="#zoomMin" x="42" y="9" onmousedown="handleZoom(evt,'out')"/>
                <use id="reset" xlink:href="#resetDef" x="30" y="36" onmousedown="handleReset()"/>
                <g id="arrowUp" xlink:href="#dirArrow" transform="translate(30 24)" onmousedown="handlePan(0,-1)">
                  <use xlink:href="#rim" fill="#404040">
                        <set attributeName="fill" to="#808080" begin="arrowUp.mouseover" end="arrowUp.mouseout"/>
                  </use>
                  <path fill="none" stroke="white" stroke-width="1.5" d="M0,-3.0v7 M-2.5,-0.5L0,-3.0L2.5,-0.5"/>
                </g>
                <g id="arrowRight" xlink:href="#dirArrow" transform="rotate(90) translate(36 -43)" onmousedown="handlePan(1,0)">
                  <use xlink:href="#rim" fill="#404040">
                        <set attributeName="fill" to="#808080" begin="arrowRight.mouseover" end="arrowRight.mouseout"/>
                  </use>
                  <path fill="none" stroke="white" stroke-width="1.5" d="M0,-3.0v7 M-2.5,-0.5L0,-3.0L2.5,-0.5"/>
                </g>
                <g id="arrowDown" xlink:href="#dirArrow" transform="rotate(180) translate(-30 -48)" onmousedown="handlePan(0,1)">
                  <use xlink:href="#rim" fill="#404040">
                        <set attributeName="fill" to="#808080" begin="arrowDown.mouseover" end="arrowDown.mouseout"/>
                  </use>
                  <path fill="none" stroke="white" stroke-width="1.5" d="M0,-3.0v7 M-2.5,-0.5L0,-3.0L2.5,-0.5"/>
                </g>
                <g id="arrowLeft" xlink:href="#dirArrow" transform="rotate(270) translate(-36 17)" onmousedown="handlePan(-1,0)">
                  <use xlink:href="#rim" fill="#404040">
                        <set attributeName="fill" to="#808080" begin="arrowLeft.mouseover" end="arrowLeft.mouseout"/>
                  </use>
                  <path fill="none" stroke="white" stroke-width="1.5" d="M0,-3.0v7 M-2.5,-0.5L0,-3.0L2.5,-0.5"/>
                </g>
        </g>
        <svg viewBox="0 0 15 15" width="100%" height="30px" preserveAspectRatio="xMaxYMin meet">
         <g id="arrow_out" transform="scale(0.3 0.3)">
          <a xlink:href="Collider_8cpp__incl_org.svg" target="_base">
           <rect id="button" ry="5" rx="5" y="6" x="6" height="38" width="38"
                fill="#f2f5e9" fill-opacity="0.5" stroke="#606060" stroke-width="1.0"/>
           <path id="arrow"
             d="M 11.500037,31.436501 C 11.940474,20.09759 22.043105,11.32322 32.158766,21.979434 L 37.068811,17.246167 C 37.068811,17.246167 37.088388,32 37.088388,32 L 22.160133,31.978069 C 22.160133,31.978069 26.997745,27.140456 26.997745,27.140456 C 18.528582,18.264221 13.291696,25.230495 11.500037,31.436501 z"
             style="fill:#404040;"/>
          </a>
         </g>
        </svg>
</svg>
