<?xml version="1.0" encoding="UTF-8" standalone="no"?>
<!DOCTYPE svg PUBLIC "-//W3C//DTD SVG 1.1//EN"
 "http://www.w3.org/Graphics/SVG/1.1/DTD/svg11.dtd">
<!-- Generated by graphviz version 2.44.0 ()
 -->
<!-- Title: includes/platformer&#45;engine/Physics/Collision.hpp Pages: 1 -->
<!--zoomable 396 -->
<svg id="main" version="1.1" xmlns="http://www.w3.org/2000/svg" xmlns:xlink="http://www.w3.org/1999/xlink" xml:space="preserve" onload="init(evt)">
<style type="text/css"><![CDATA[
.edge:hover path { stroke: red; }
.edge:hover polygon { stroke: red; fill: red; }
]]></style>
<script type="text/javascript"><![CDATA[
var edges = document.getElementsByTagName('g');
if (edges && edges.length) {
  for (var i=0;i<edges.length;i++) {
    if (edges[i].id.substr(0,4)=='edge') {
      edges[i].setAttribute('class','edge');
    }
  }
}
]]></script>
        <defs>
                <circle id="rim" cx="0" cy="0" r="7"/>
                <circle id="rim2" cx="0" cy="0" r="3.5"/>
                <g id="zoomPlus">
                        <use xlink:href="#rim" fill="#404040">
                                <set attributeName="fill" to="#808080" begin="zoomplus.mouseover" end="zoomplus.mouseout"/>
                        </use>
                        <path d="M-4,0h8M0,-4v8" fill="none" stroke="white" stroke-width="1.5" pointer-events="none"/>
                </g>
                <g id="zoomMin">
                        <use xlink:href="#rim" fill="#404040">
                                <set attributeName="fill" to="#808080" begin="zoomminus.mouseover" end="zoomminus.mouseout"/>
                        </use>
                        <path d="M-4,0h8" fill="none" stroke="white" stroke-width="1.5" pointer-events="none"/>
                </g>
                <g id="dirArrow">
                        <path fill="none" stroke="white" stroke-width="1.5" d="M0,-3.0v7 M-2.5,-0.5L0,-3.0L2.5,-0.5"/>
                </g>
               <g id="resetDef">
                       <use xlink:href="#rim2" fill="#404040">
                               <set attributeName="fill" to="#808080" begin="reset.mouseover" end="reset.mouseout"/>
                       </use>
               </g>
        </defs>

<script type="text/javascript">
var viewWidth = 1915;
var viewHeight = 396;
var sectionId = 'dynsection-1';
</script>
<script xlink:href="svgpan.js"/>
<svg id="graph" class="graph">
<g id="viewport">
<title>includes/platformer&#45;engine/Physics/Collision.hpp</title>
<!-- Node1 -->
<g id="node1" class="node">
<title>Node1</title>
<g id="a_node1"><a xlink:title=" ">
<polygon fill="#bfbfbf" stroke="black" points="895.5,-357.5 895.5,-387.5 1038.5,-387.5 1038.5,-357.5 895.5,-357.5"/>
<text text-anchor="start" x="903.5" y="-375.5" font-family="Helvetica,sans-Serif" font-size="10.00">includes/platformer</text>
<text text-anchor="middle" x="967" y="-364.5" font-family="Helvetica,sans-Serif" font-size="10.00">&#45;engine/Physics/Collision.hpp</text>
</a>
</g>
</g>
<!-- Node2 -->
<g id="node2" class="node">
<title>Node2</title>
<g id="a_node2"><a xlink:href="Collider_8cpp.html" target="_top" xlink:title=" ">
<polygon fill="none" stroke="black" points="692.5,-296 692.5,-315 795.5,-315 795.5,-296 692.5,-296"/>
<text text-anchor="middle" x="744" y="-303" font-family="Helvetica,sans-Serif" font-size="10.00">src/API/Collider.cpp</text>
</a>
</g>
</g>
<!-- Node1&#45;&gt;Node2 -->
<g id="edge1" class="edge">
<title>Node1&#45;&gt;Node2</title>
<path fill="none" stroke="midnightblue" d="M909.26,-354.67C865.68,-341.97 807.69,-325.06 773.26,-315.03"/>
<polygon fill="midnightblue" stroke="midnightblue" points="908.31,-358.04 918.89,-357.48 910.27,-351.32 908.31,-358.04"/>
</g>
<!-- Node3 -->
<g id="node3" class="node">
<title>Node3</title>
<g id="a_node3"><a xlink:href="Collision_8cpp.html" target="_top" xlink:title=" ">
<polygon fill="none" stroke="black" points="813.5,-296 813.5,-315 938.5,-315 938.5,-296 813.5,-296"/>
<text text-anchor="middle" x="876" y="-303" font-family="Helvetica,sans-Serif" font-size="10.00">src/Physics/Collision.cpp</text>
</a>
</g>
</g>
<!-- Node1&#45;&gt;Node3 -->
<g id="edge2" class="edge">
<title>Node1&#45;&gt;Node3</title>
<path fill="none" stroke="midnightblue" d="M938.73,-351.31C921.64,-339.1 900.75,-324.18 887.91,-315.01"/>
<polygon fill="midnightblue" stroke="midnightblue" points="937.08,-354.43 947.25,-357.4 941.15,-348.74 937.08,-354.43"/>
</g>
<!-- Node4 -->
<g id="node4" class="node">
<title>Node4</title>
<g id="a_node4"><a xlink:href="PhysicsSystem_8hpp.html" target="_top" xlink:title=" ">
<polygon fill="none" stroke="black" points="579,-218 579,-248 753,-248 753,-218 579,-218"/>
<text text-anchor="start" x="587" y="-236" font-family="Helvetica,sans-Serif" font-size="10.00">includes/platformer</text>
<text text-anchor="middle" x="666" y="-225" font-family="Helvetica,sans-Serif" font-size="10.00">&#45;engine/Physics/PhysicsSystem.hpp</text>
</a>
</g>
</g>
<!-- Node1&#45;&gt;Node4 -->
<g id="edge3" class="edge">
<title>Node1&#45;&gt;Node4</title>
<path fill="none" stroke="midnightblue" d="M967.6,-347.29C966.69,-329.02 962.33,-304.67 947,-290 946.76,-289.77 819.99,-264.57 736.83,-248.06"/>
<polygon fill="midnightblue" stroke="midnightblue" points="964.1,-347.55 967.79,-357.48 971.1,-347.42 964.1,-347.55"/>
</g>
<!-- Node14 -->
<g id="node14" class="node">
<title>Node14</title>
<g id="a_node14"><a xlink:href="BehaviourScript_8hpp.html" target="_top" xlink:title=" ">
<polygon fill="none" stroke="black" points="995.5,-290.5 995.5,-320.5 1102.5,-320.5 1102.5,-290.5 995.5,-290.5"/>
<text text-anchor="start" x="1003.5" y="-308.5" font-family="Helvetica,sans-Serif" font-size="10.00">includes/spic&#45;prj&#45;api</text>
<text text-anchor="middle" x="1049" y="-297.5" font-family="Helvetica,sans-Serif" font-size="10.00">/BehaviourScript.hpp</text>
</a>
</g>
</g>
<!-- Node1&#45;&gt;Node14 -->
<g id="edge13" class="edge">
<title>Node1&#45;&gt;Node14</title>
<path fill="none" stroke="midnightblue" d="M992.65,-351.17C1005.19,-341.23 1019.97,-329.51 1031.24,-320.58"/>
<polygon fill="midnightblue" stroke="midnightblue" points="990.46,-348.44 984.79,-357.4 994.8,-353.93 990.46,-348.44"/>
</g>
<!-- Node22 -->
<g id="node22" class="node">
<title>Node22</title>
<g id="a_node22"><a xlink:href="RigidBody_8hpp.html" target="_top" xlink:title=" ">
<polygon fill="none" stroke="black" points="1491.5,-290.5 1491.5,-320.5 1594.5,-320.5 1594.5,-290.5 1491.5,-290.5"/>
<text text-anchor="start" x="1499.5" y="-308.5" font-family="Helvetica,sans-Serif" font-size="10.00">includes/spic&#45;prj&#45;api</text>
<text text-anchor="middle" x="1543" y="-297.5" font-family="Helvetica,sans-Serif" font-size="10.00">/RigidBody.hpp</text>
</a>
</g>
</g>
<!-- Node1&#45;&gt;Node22 -->
<g id="edge27" class="edge">
<title>Node1&#45;&gt;Node22</title>
<path fill="none" stroke="midnightblue" d="M1049.06,-362.24C1169.56,-348.64 1390.9,-323.66 1491.19,-312.35"/>
<polygon fill="midnightblue" stroke="midnightblue" points="1048.33,-358.8 1038.79,-363.4 1049.12,-365.76 1048.33,-358.8"/>
</g>
<!-- Node5 -->
<g id="node5" class="node">
<title>Node5</title>
<g id="a_node5"><a xlink:href="PhysicsSystem_8cpp.html" target="_top" xlink:title=" ">
<polygon fill="none" stroke="black" points="1197,-145.5 1197,-164.5 1353,-164.5 1353,-145.5 1197,-145.5"/>
<text text-anchor="middle" x="1275" y="-152.5" font-family="Helvetica,sans-Serif" font-size="10.00">src/Physics/PhysicsSystem.cpp</text>
</a>
</g>
</g>
<!-- Node4&#45;&gt;Node5 -->
<g id="edge4" class="edge">
<title>Node4&#45;&gt;Node5</title>
<path fill="none" stroke="midnightblue" d="M763.04,-216.87C775.47,-215.12 788.02,-213.45 800,-212 971.49,-191.24 1016.41,-203.2 1187,-176 1205.41,-173.06 1225.72,-168.54 1242.19,-164.53"/>
<polygon fill="midnightblue" stroke="midnightblue" points="762.53,-213.41 753.12,-218.28 763.52,-220.34 762.53,-213.41"/>
</g>
<!-- Node6 -->
<g id="node6" class="node">
<title>Node6</title>
<g id="a_node6"><a xlink:href="Engine_8hpp.html" target="_top" xlink:title=" ">
<polygon fill="none" stroke="black" points="551.5,-140 551.5,-170 682.5,-170 682.5,-140 551.5,-140"/>
<text text-anchor="start" x="559.5" y="-158" font-family="Helvetica,sans-Serif" font-size="10.00">includes/platformer</text>
<text text-anchor="middle" x="617" y="-147" font-family="Helvetica,sans-Serif" font-size="10.00">&#45;engine/Engine/Engine.hpp</text>
</a>
</g>
</g>
<!-- Node4&#45;&gt;Node6 -->
<g id="edge5" class="edge">
<title>Node4&#45;&gt;Node6</title>
<path fill="none" stroke="midnightblue" d="M651.22,-209.07C643.07,-196.44 633.21,-181.15 626.18,-170.23"/>
<polygon fill="midnightblue" stroke="midnightblue" points="648.42,-211.2 656.78,-217.7 654.31,-207.4 648.42,-211.2"/>
</g>
<!-- Node7 -->
<g id="node7" class="node">
<title>Node7</title>
<g id="a_node7"><a xlink:href="GameObjectDirector_8cpp.html" target="_top" xlink:title=" ">
<polygon fill="none" stroke="black" points="1066,-0.5 1066,-19.5 1242,-19.5 1242,-0.5 1066,-0.5"/>
<text text-anchor="middle" x="1154" y="-7.5" font-family="Helvetica,sans-Serif" font-size="10.00">src/Director/GameObjectDirector.cpp</text>
</a>
</g>
</g>
<!-- Node6&#45;&gt;Node7 -->
<g id="edge6" class="edge">
<title>Node6&#45;&gt;Node7</title>
<path fill="none" stroke="midnightblue" d="M631.1,-131.23C647.76,-105.15 675.19,-64.85 691,-56 753.19,-21.18 949.71,-12.98 1065.77,-11.25"/>
<polygon fill="midnightblue" stroke="midnightblue" points="628.08,-129.47 625.7,-139.79 633.99,-133.2 628.08,-129.47"/>
</g>
<!-- Node8 -->
<g id="node8" class="node">
<title>Node8</title>
<g id="a_node8"><a xlink:href="Engine_8cpp.html" target="_top" xlink:title=" ">
<polygon fill="none" stroke="black" points="700.5,-67.5 700.5,-86.5 813.5,-86.5 813.5,-67.5 700.5,-67.5"/>
<text text-anchor="middle" x="757" y="-74.5" font-family="Helvetica,sans-Serif" font-size="10.00">src/Engine/Engine.cpp</text>
</a>
</g>
</g>
<!-- Node6&#45;&gt;Node8 -->
<g id="edge7" class="edge">
<title>Node6&#45;&gt;Node8</title>
<path fill="none" stroke="midnightblue" d="M651.88,-135.07C680.46,-119.55 719.59,-98.31 741.15,-86.61"/>
<polygon fill="midnightblue" stroke="midnightblue" points="650.12,-132.04 643,-139.88 653.46,-138.19 650.12,-132.04"/>
</g>
<!-- Node9 -->
<g id="node9" class="node">
<title>Node9</title>
<g id="a_node9"><a xlink:href="TMXParser_8cpp.html" target="_top" xlink:title=" ">
<polygon fill="none" stroke="black" points="174,-67.5 174,-86.5 310,-86.5 310,-67.5 174,-67.5"/>
<text text-anchor="middle" x="242" y="-74.5" font-family="Helvetica,sans-Serif" font-size="10.00">src/Facade/TMXParser.cpp</text>
</a>
</g>
</g>
<!-- Node6&#45;&gt;Node9 -->
<g id="edge8" class="edge">
<title>Node6&#45;&gt;Node9</title>
<path fill="none" stroke="midnightblue" d="M541.12,-141.22C480.72,-130.69 394.15,-114.8 319,-98 303.77,-94.59 286.98,-90.3 272.98,-86.56"/>
<polygon fill="midnightblue" stroke="midnightblue" points="540.88,-144.73 551.34,-142.99 542.08,-137.83 540.88,-144.73"/>
</g>
<!-- Node10 -->
<g id="node10" class="node">
<title>Node10</title>
<g id="a_node10"><a xlink:href="ClientNetworkManager_8cpp.html" target="_top" xlink:title=" ">
<polygon fill="none" stroke="black" points="328.5,-62 328.5,-92 475.5,-92 475.5,-62 328.5,-62"/>
<text text-anchor="start" x="336.5" y="-80" font-family="Helvetica,sans-Serif" font-size="10.00">src/Networking/ClientNetwork</text>
<text text-anchor="middle" x="402" y="-69" font-family="Helvetica,sans-Serif" font-size="10.00">Manager.cpp</text>
</a>
</g>
</g>
<!-- Node6&#45;&gt;Node10 -->
<g id="edge9" class="edge">
<title>Node6&#45;&gt;Node10</title>
<path fill="none" stroke="midnightblue" d="M567.44,-136.48C529.3,-123 477.28,-104.61 441.82,-92.07"/>
<polygon fill="midnightblue" stroke="midnightblue" points="566.72,-139.94 577.32,-139.97 569.05,-133.34 566.72,-139.94"/>
</g>
<!-- Node11 -->
<g id="node11" class="node">
<title>Node11</title>
<g id="a_node11"><a xlink:href="ServerNetworkManager_8cpp.html" target="_top" xlink:title=" ">
<polygon fill="none" stroke="black" points="831.5,-62 831.5,-92 982.5,-92 982.5,-62 831.5,-62"/>
<text text-anchor="start" x="839.5" y="-80" font-family="Helvetica,sans-Serif" font-size="10.00">src/Networking/ServerNetwork</text>
<text text-anchor="middle" x="907" y="-69" font-family="Helvetica,sans-Serif" font-size="10.00">Manager.cpp</text>
</a>
</g>
</g>
<!-- Node6&#45;&gt;Node11 -->
<g id="edge10" class="edge">
<title>Node6&#45;&gt;Node11</title>
<path fill="none" stroke="midnightblue" d="M680.26,-137.42C732,-123.86 804.34,-104.9 853.29,-92.07"/>
<polygon fill="midnightblue" stroke="midnightblue" points="679.31,-134.05 670.53,-139.97 681.09,-140.82 679.31,-134.05"/>
</g>
<!-- Node12 -->
<g id="node12" class="node">
<title>Node12</title>
<g id="a_node12"><a xlink:href="RenderSystem_8cpp.html" target="_top" xlink:title=" ">
<polygon fill="none" stroke="black" points="494,-67.5 494,-86.5 644,-86.5 644,-67.5 494,-67.5"/>
<text text-anchor="middle" x="569" y="-74.5" font-family="Helvetica,sans-Serif" font-size="10.00">src/Texture/RenderSystem.cpp</text>
</a>
</g>
</g>
<!-- Node6&#45;&gt;Node12 -->
<g id="edge11" class="edge">
<title>Node6&#45;&gt;Node12</title>
<path fill="none" stroke="midnightblue" d="M602.44,-130.95C592.97,-115.95 581.16,-97.25 574.41,-86.56"/>
<polygon fill="midnightblue" stroke="midnightblue" points="599.67,-133.12 607.97,-139.7 605.59,-129.38 599.67,-133.12"/>
</g>
<!-- Node13 -->
<g id="node13" class="node">
<title>Node13</title>
<g id="a_node13"><a xlink:href="TextureManager_8cpp.html" target="_top" xlink:title=" ">
<polygon fill="none" stroke="black" points="0,-67.5 0,-86.5 156,-86.5 156,-67.5 0,-67.5"/>
<text text-anchor="middle" x="78" y="-74.5" font-family="Helvetica,sans-Serif" font-size="10.00">src/Texture/TextureManager.cpp</text>
</a>
</g>
</g>
<!-- Node6&#45;&gt;Node13 -->
<g id="edge12" class="edge">
<title>Node6&#45;&gt;Node13</title>
<path fill="none" stroke="midnightblue" d="M541.06,-147C450.97,-138.13 296.4,-121.18 165,-98 147.3,-94.88 127.77,-90.48 111.71,-86.6"/>
<polygon fill="midnightblue" stroke="midnightblue" points="540.9,-150.5 551.19,-147.99 541.58,-143.53 540.9,-150.5"/>
</g>
<!-- Node14&#45;&gt;Node5 -->
<g id="edge17" class="edge">
<title>Node14&#45;&gt;Node5</title>
<path fill="none" stroke="midnightblue" d="M1112.76,-295.26C1163.09,-286.72 1227.9,-272.56 1247,-254 1272.25,-229.46 1275.16,-183.85 1275.21,-164.76"/>
<polygon fill="midnightblue" stroke="midnightblue" points="1111.88,-291.86 1102.58,-296.94 1113.02,-298.76 1111.88,-291.86"/>
</g>
<!-- Node14&#45;&gt;Node7 -->
<g id="edge15" class="edge">
<title>Node14&#45;&gt;Node7</title>
<path fill="none" stroke="midnightblue" d="M1037.92,-280.79C1017.54,-233.29 980.42,-125.11 1029,-56 1042.4,-36.94 1064.68,-25.92 1086.75,-19.55"/>
<polygon fill="midnightblue" stroke="midnightblue" points="1034.85,-282.5 1042.1,-290.22 1041.25,-279.66 1034.85,-282.5"/>
</g>
<!-- Node14&#45;&gt;Node8 -->
<g id="edge16" class="edge">
<title>Node14&#45;&gt;Node8</title>
<path fill="none" stroke="midnightblue" d="M985.34,-292.45C912.69,-278.57 803.39,-257.26 800,-254 751.47,-207.35 754.03,-115.71 756.17,-86.89"/>
<polygon fill="midnightblue" stroke="midnightblue" points="984.85,-295.92 995.33,-294.36 986.16,-289.04 984.85,-295.92"/>
</g>
<!-- Node15 -->
<g id="node15" class="node">
<title>Node15</title>
<g id="a_node15"><a xlink:href="BehaviourSystem_8cpp.html" target="_top" xlink:title=" ">
<polygon fill="none" stroke="black" points="809,-223.5 809,-242.5 983,-242.5 983,-223.5 809,-223.5"/>
<text text-anchor="middle" x="896" y="-230.5" font-family="Helvetica,sans-Serif" font-size="10.00">src/Behaviour/BehaviourSystem.cpp</text>
</a>
</g>
</g>
<!-- Node14&#45;&gt;Node15 -->
<g id="edge14" class="edge">
<title>Node14&#45;&gt;Node15</title>
<path fill="none" stroke="midnightblue" d="M1009.28,-286.2C978.73,-272.12 937.89,-253.3 914.52,-242.53"/>
<polygon fill="midnightblue" stroke="midnightblue" points="1007.86,-289.4 1018.41,-290.4 1010.79,-283.04 1007.86,-289.4"/>
</g>
<!-- Node16 -->
<g id="node16" class="node">
<title>Node16</title>
<g id="a_node16"><a xlink:href="CollisionBehaviour_8hpp.html" target="_top" xlink:title=" ">
<polygon fill="none" stroke="black" points="1333,-212.5 1333,-253.5 1467,-253.5 1467,-212.5 1333,-212.5"/>
<text text-anchor="start" x="1341" y="-241.5" font-family="Helvetica,sans-Serif" font-size="10.00">includes/platformer</text>
<text text-anchor="start" x="1341" y="-230.5" font-family="Helvetica,sans-Serif" font-size="10.00">&#45;engine/Behaviour/Collision</text>
<text text-anchor="middle" x="1400" y="-219.5" font-family="Helvetica,sans-Serif" font-size="10.00">Behaviour.hpp</text>
</a>
</g>
</g>
<!-- Node14&#45;&gt;Node16 -->
<g id="edge18" class="edge">
<title>Node14&#45;&gt;Node16</title>
<path fill="none" stroke="midnightblue" d="M1112.78,-291.69C1175.03,-279.19 1269.39,-260.23 1332.79,-247.5"/>
<polygon fill="midnightblue" stroke="midnightblue" points="1111.81,-288.32 1102.69,-293.72 1113.18,-295.18 1111.81,-288.32"/>
</g>
<!-- Node18 -->
<g id="node18" class="node">
<title>Node18</title>
<g id="a_node18"><a xlink:href="GameObjectBuilder_8hpp.html" target="_top" xlink:title=" ">
<polygon fill="none" stroke="black" points="1039.5,-134.5 1039.5,-175.5 1178.5,-175.5 1178.5,-134.5 1039.5,-134.5"/>
<text text-anchor="start" x="1047.5" y="-163.5" font-family="Helvetica,sans-Serif" font-size="10.00">includes/platformer</text>
<text text-anchor="start" x="1047.5" y="-152.5" font-family="Helvetica,sans-Serif" font-size="10.00">&#45;engine/Builder/GameObject</text>
<text text-anchor="middle" x="1109" y="-141.5" font-family="Helvetica,sans-Serif" font-size="10.00">Builder.hpp</text>
</a>
</g>
</g>
<!-- Node14&#45;&gt;Node18 -->
<g id="edge20" class="edge">
<title>Node14&#45;&gt;Node18</title>
<path fill="none" stroke="midnightblue" d="M1051.09,-280.44C1053.42,-261.25 1058.23,-234.03 1068,-212 1073.81,-198.89 1083.08,-185.87 1091.33,-175.69"/>
<polygon fill="midnightblue" stroke="midnightblue" points="1047.6,-280.14 1050.01,-290.46 1054.56,-280.89 1047.6,-280.14"/>
</g>
<!-- Node21 -->
<g id="node21" class="node">
<title>Node21</title>
<g id="a_node21"><a xlink:href="ObjectBuilder_8hpp.html" target="_top" xlink:title=" ">
<polygon fill="none" stroke="black" points="1077.5,-218 1077.5,-248 1238.5,-248 1238.5,-218 1077.5,-218"/>
<text text-anchor="start" x="1085.5" y="-236" font-family="Helvetica,sans-Serif" font-size="10.00">includes/platformer</text>
<text text-anchor="middle" x="1158" y="-225" font-family="Helvetica,sans-Serif" font-size="10.00">&#45;engine/Builder/ObjectBuilder.hpp</text>
</a>
</g>
</g>
<!-- Node14&#45;&gt;Node21 -->
<g id="edge25" class="edge">
<title>Node14&#45;&gt;Node21</title>
<path fill="none" stroke="midnightblue" d="M1079.27,-284.92C1097.36,-273.22 1119.91,-258.63 1136.24,-248.07"/>
<polygon fill="midnightblue" stroke="midnightblue" points="1077.29,-282.03 1070.8,-290.4 1081.09,-287.91 1077.29,-282.03"/>
</g>
<!-- Node17 -->
<g id="node17" class="node">
<title>Node17</title>
<g id="a_node17"><a xlink:href="CollisionBehaviour_8cpp.html" target="_top" xlink:title=" ">
<polygon fill="none" stroke="black" points="1371,-145.5 1371,-164.5 1549,-164.5 1549,-145.5 1371,-145.5"/>
<text text-anchor="middle" x="1460" y="-152.5" font-family="Helvetica,sans-Serif" font-size="10.00">src/Behaviour/CollisionBehaviour.cpp</text>
</a>
</g>
</g>
<!-- Node16&#45;&gt;Node17 -->
<g id="edge19" class="edge">
<title>Node16&#45;&gt;Node17</title>
<path fill="none" stroke="midnightblue" d="M1421.76,-204.44C1432.88,-190.35 1445.64,-174.19 1453.25,-164.55"/>
<polygon fill="midnightblue" stroke="midnightblue" points="1418.9,-202.41 1415.45,-212.43 1424.4,-206.75 1418.9,-202.41"/>
</g>
<!-- Node18&#45;&gt;Node11 -->
<g id="edge22" class="edge">
<title>Node18&#45;&gt;Node11</title>
<path fill="none" stroke="midnightblue" d="M1047.26,-130.77C1013.7,-118.15 973.3,-102.94 944.49,-92.11"/>
<polygon fill="midnightblue" stroke="midnightblue" points="1046.39,-134.18 1056.98,-134.43 1048.85,-127.63 1046.39,-134.18"/>
</g>
<!-- Node19 -->
<g id="node19" class="node">
<title>Node19</title>
<g id="a_node19"><a xlink:href="GameObjectBuilder_8cpp.html" target="_top" xlink:title=" ">
<polygon fill="none" stroke="black" points="1038.5,-67.5 1038.5,-86.5 1207.5,-86.5 1207.5,-67.5 1038.5,-67.5"/>
<text text-anchor="middle" x="1123" y="-74.5" font-family="Helvetica,sans-Serif" font-size="10.00">src/Builder/GameObjectBuilder.cpp</text>
</a>
</g>
</g>
<!-- Node18&#45;&gt;Node19 -->
<g id="edge21" class="edge">
<title>Node18&#45;&gt;Node19</title>
<path fill="none" stroke="midnightblue" d="M1114.44,-124.45C1116.95,-110.86 1119.73,-95.74 1121.42,-86.55"/>
<polygon fill="midnightblue" stroke="midnightblue" points="1110.97,-123.96 1112.61,-134.43 1117.86,-125.23 1110.97,-123.96"/>
</g>
<!-- Node20 -->
<g id="node20" class="node">
<title>Node20</title>
<g id="a_node20"><a xlink:href="GameObjectDirector_8hpp.html" target="_top" xlink:title=" ">
<polygon fill="none" stroke="black" points="1225.5,-56.5 1225.5,-97.5 1368.5,-97.5 1368.5,-56.5 1225.5,-56.5"/>
<text text-anchor="start" x="1233.5" y="-85.5" font-family="Helvetica,sans-Serif" font-size="10.00">includes/platformer</text>
<text text-anchor="start" x="1233.5" y="-74.5" font-family="Helvetica,sans-Serif" font-size="10.00">&#45;engine/Director/GameObject</text>
<text text-anchor="middle" x="1297" y="-63.5" font-family="Helvetica,sans-Serif" font-size="10.00">Director.hpp</text>
</a>
</g>
</g>
<!-- Node18&#45;&gt;Node20 -->
<g id="edge23" class="edge">
<title>Node18&#45;&gt;Node20</title>
<path fill="none" stroke="midnightblue" d="M1166.86,-130.61C1193.1,-120 1223.78,-107.6 1248.75,-97.51"/>
<polygon fill="midnightblue" stroke="midnightblue" points="1165.37,-127.44 1157.41,-134.43 1168,-133.93 1165.37,-127.44"/>
</g>
<!-- Node20&#45;&gt;Node7 -->
<g id="edge24" class="edge">
<title>Node20&#45;&gt;Node7</title>
<path fill="none" stroke="midnightblue" d="M1244.7,-52.23C1219.69,-40.86 1191.29,-27.95 1173.04,-19.65"/>
<polygon fill="midnightblue" stroke="midnightblue" points="1243.54,-55.55 1254.1,-56.5 1246.44,-49.17 1243.54,-55.55"/>
</g>
<!-- Node21&#45;&gt;Node18 -->
<g id="edge26" class="edge">
<title>Node21&#45;&gt;Node18</title>
<path fill="none" stroke="midnightblue" d="M1143.35,-209.27C1136.45,-198.58 1128.31,-185.96 1121.69,-175.68"/>
<polygon fill="midnightblue" stroke="midnightblue" points="1140.42,-211.2 1148.78,-217.7 1146.31,-207.4 1140.42,-211.2"/>
</g>
<!-- Node22&#45;&gt;Node5 -->
<g id="edge30" class="edge">
<title>Node22&#45;&gt;Node5</title>
<path fill="none" stroke="midnightblue" d="M1481.04,-304.04C1433.52,-300.68 1368.7,-289.19 1324,-254 1294.11,-230.47 1281.01,-183.89 1276.72,-164.64"/>
<polygon fill="midnightblue" stroke="midnightblue" points="1481.02,-307.55 1491.21,-304.66 1481.44,-300.56 1481.02,-307.55"/>
</g>
<!-- Node22&#45;&gt;Node17 -->
<g id="edge29" class="edge">
<title>Node22&#45;&gt;Node17</title>
<path fill="none" stroke="midnightblue" d="M1529.75,-281.62C1524.78,-272.99 1519.1,-263.06 1514,-254 1495.52,-221.15 1474.04,-181.81 1464.72,-164.68"/>
<polygon fill="midnightblue" stroke="midnightblue" points="1526.78,-283.48 1534.81,-290.39 1532.84,-279.98 1526.78,-283.48"/>
</g>
<!-- Node23 -->
<g id="node23" class="node">
<title>Node23</title>
<g id="a_node23"><a xlink:href="RigidBody_8cpp.html" target="_top" xlink:title=" ">
<polygon fill="none" stroke="black" points="1782,-145.5 1782,-164.5 1896,-164.5 1896,-145.5 1782,-145.5"/>
<text text-anchor="middle" x="1839" y="-152.5" font-family="Helvetica,sans-Serif" font-size="10.00">src/API/RigidBody.cpp</text>
</a>
</g>
</g>
<!-- Node22&#45;&gt;Node23 -->
<g id="edge28" class="edge">
<title>Node22&#45;&gt;Node23</title>
<path fill="none" stroke="midnightblue" d="M1592.02,-286.86C1615.66,-277.85 1644.19,-266.22 1669,-254 1701.89,-237.8 1708.26,-230.36 1740,-212 1769.4,-194.99 1803.98,-175.56 1823.51,-164.64"/>
<polygon fill="midnightblue" stroke="midnightblue" points="1590.68,-283.62 1582.55,-290.43 1593.15,-290.17 1590.68,-283.62"/>
</g>
<!-- Node24 -->
<g id="node24" class="node">
<title>Node24</title>
<g id="a_node24"><a xlink:href="IllegalCollisionBehaviourException_8hpp.html" target="_top" xlink:title=" ">
<polygon fill="none" stroke="black" points="1749.5,-212.5 1749.5,-253.5 1906.5,-253.5 1906.5,-212.5 1749.5,-212.5"/>
<text text-anchor="start" x="1757.5" y="-241.5" font-family="Helvetica,sans-Serif" font-size="10.00">includes/platformer</text>
<text text-anchor="start" x="1757.5" y="-230.5" font-family="Helvetica,sans-Serif" font-size="10.00">&#45;engine/Exceptions/Illegal</text>
<text text-anchor="middle" x="1828" y="-219.5" font-family="Helvetica,sans-Serif" font-size="10.00">CollisionBehaviourException.hpp</text>
</a>
</g>
</g>
<!-- Node22&#45;&gt;Node24 -->
<g id="edge31" class="edge">
<title>Node22&#45;&gt;Node24</title>
<path fill="none" stroke="midnightblue" d="M1604.52,-289.28C1646.93,-278.79 1703.66,-264.76 1749.35,-253.46"/>
<polygon fill="midnightblue" stroke="midnightblue" points="1603.48,-285.93 1594.61,-291.73 1605.16,-292.73 1603.48,-285.93"/>
</g>
<!-- Node25 -->
<g id="node25" class="node">
<title>Node25</title>
<g id="a_node25"><a xlink:href="PlayerRigidBody_8hpp.html" target="_top" xlink:title=" ">
<polygon fill="none" stroke="black" points="1523.5,-212.5 1523.5,-253.5 1660.5,-253.5 1660.5,-212.5 1523.5,-212.5"/>
<text text-anchor="start" x="1531.5" y="-241.5" font-family="Helvetica,sans-Serif" font-size="10.00">includes/platformer</text>
<text text-anchor="start" x="1531.5" y="-230.5" font-family="Helvetica,sans-Serif" font-size="10.00">&#45;engine/Physics/PlayerRigid</text>
<text text-anchor="middle" x="1592" y="-219.5" font-family="Helvetica,sans-Serif" font-size="10.00">Body.hpp</text>
</a>
</g>
</g>
<!-- Node22&#45;&gt;Node25 -->
<g id="edge33" class="edge">
<title>Node22&#45;&gt;Node25</title>
<path fill="none" stroke="midnightblue" d="M1558.65,-281.98C1565,-272.85 1572.26,-262.4 1578.39,-253.59"/>
<polygon fill="midnightblue" stroke="midnightblue" points="1555.75,-280.02 1552.92,-290.23 1561.5,-284.02 1555.75,-280.02"/>
</g>
<!-- Node24&#45;&gt;Node23 -->
<g id="edge32" class="edge">
<title>Node24&#45;&gt;Node23</title>
<path fill="none" stroke="midnightblue" d="M1832.28,-202.45C1834.24,-188.86 1836.43,-173.74 1837.76,-164.55"/>
<polygon fill="midnightblue" stroke="midnightblue" points="1828.8,-202.03 1830.83,-212.43 1835.73,-203.03 1828.8,-202.03"/>
</g>
<!-- Node25&#45;&gt;Node5 -->
<g id="edge35" class="edge">
<title>Node25&#45;&gt;Node5</title>
<path fill="none" stroke="midnightblue" d="M1513.43,-213.16C1448.6,-197.62 1359.6,-176.28 1310.74,-164.57"/>
<polygon fill="midnightblue" stroke="midnightblue" points="1512.68,-216.58 1523.22,-215.51 1514.31,-209.77 1512.68,-216.58"/>
</g>
<!-- Node25&#45;&gt;Node7 -->
<g id="edge34" class="edge">
<title>Node25&#45;&gt;Node7</title>
<path fill="none" stroke="midnightblue" d="M1588.14,-202.15C1583.97,-180.84 1575.41,-152.73 1558,-134 1476.38,-46.2 1334.23,-20.38 1242.15,-13.18"/>
<polygon fill="midnightblue" stroke="midnightblue" points="1584.74,-203.04 1589.89,-212.3 1591.64,-201.85 1584.74,-203.04"/>
</g>
<!-- Node26 -->
<g id="node26" class="node">
<title>Node26</title>
<g id="a_node26"><a xlink:href="PlayerRigidBody_8cpp.html" target="_top" xlink:title=" ">
<polygon fill="none" stroke="black" points="1604.5,-145.5 1604.5,-164.5 1763.5,-164.5 1763.5,-145.5 1604.5,-145.5"/>
<text text-anchor="middle" x="1684" y="-152.5" font-family="Helvetica,sans-Serif" font-size="10.00">src/Physics/PlayerRigidBody.cpp</text>
</a>
</g>
</g>
<!-- Node25&#45;&gt;Node26 -->
<g id="edge36" class="edge">
<title>Node25&#45;&gt;Node26</title>
<path fill="none" stroke="midnightblue" d="M1623.46,-206.01C1640.94,-191.57 1661.54,-174.55 1673.65,-164.55"/>
<polygon fill="midnightblue" stroke="midnightblue" points="1621.17,-203.36 1615.69,-212.43 1625.63,-208.76 1621.17,-203.36"/>
</g>
</g>
</svg>
        <g id="navigator" transform="translate(0 0)" fill="#404254">
                <rect fill="#f2f5e9" fill-opacity="0.5" stroke="#606060" stroke-width=".5" x="0" y="0" width="60" height="60"/>
                <use id="zoomplus" xlink:href="#zoomPlus" x="17" y="9" onmousedown="handleZoom(evt,'in')"/>
                <use id="zoomminus" xlink:href="#zoomMin" x="42" y="9" onmousedown="handleZoom(evt,'out')"/>
                <use id="reset" xlink:href="#resetDef" x="30" y="36" onmousedown="handleReset()"/>
                <g id="arrowUp" xlink:href="#dirArrow" transform="translate(30 24)" onmousedown="handlePan(0,-1)">
                  <use xlink:href="#rim" fill="#404040">
                        <set attributeName="fill" to="#808080" begin="arrowUp.mouseover" end="arrowUp.mouseout"/>
                  </use>
                  <path fill="none" stroke="white" stroke-width="1.5" d="M0,-3.0v7 M-2.5,-0.5L0,-3.0L2.5,-0.5"/>
                </g>
                <g id="arrowRight" xlink:href="#dirArrow" transform="rotate(90) translate(36 -43)" onmousedown="handlePan(1,0)">
                  <use xlink:href="#rim" fill="#404040">
                        <set attributeName="fill" to="#808080" begin="arrowRight.mouseover" end="arrowRight.mouseout"/>
                  </use>
                  <path fill="none" stroke="white" stroke-width="1.5" d="M0,-3.0v7 M-2.5,-0.5L0,-3.0L2.5,-0.5"/>
                </g>
                <g id="arrowDown" xlink:href="#dirArrow" transform="rotate(180) translate(-30 -48)" onmousedown="handlePan(0,1)">
                  <use xlink:href="#rim" fill="#404040">
                        <set attributeName="fill" to="#808080" begin="arrowDown.mouseover" end="arrowDown.mouseout"/>
                  </use>
                  <path fill="none" stroke="white" stroke-width="1.5" d="M0,-3.0v7 M-2.5,-0.5L0,-3.0L2.5,-0.5"/>
                </g>
                <g id="arrowLeft" xlink:href="#dirArrow" transform="rotate(270) translate(-36 17)" onmousedown="handlePan(-1,0)">
                  <use xlink:href="#rim" fill="#404040">
                        <set attributeName="fill" to="#808080" begin="arrowLeft.mouseover" end="arrowLeft.mouseout"/>
                  </use>
                  <path fill="none" stroke="white" stroke-width="1.5" d="M0,-3.0v7 M-2.5,-0.5L0,-3.0L2.5,-0.5"/>
                </g>
        </g>
        <svg viewBox="0 0 15 15" width="100%" height="30px" preserveAspectRatio="xMaxYMin meet">
         <g id="arrow_out" transform="scale(0.3 0.3)">
          <a xlink:href="Collision_8hpp__dep__incl_org.svg" target="_base">
           <rect id="button" ry="5" rx="5" y="6" x="6" height="38" width="38"
                fill="#f2f5e9" fill-opacity="0.5" stroke="#606060" stroke-width="1.0"/>
           <path id="arrow"
             d="M 11.500037,31.436501 C 11.940474,20.09759 22.043105,11.32322 32.158766,21.979434 L 37.068811,17.246167 C 37.068811,17.246167 37.088388,32 37.088388,32 L 22.160133,31.978069 C 22.160133,31.978069 26.997745,27.140456 26.997745,27.140456 C 18.528582,18.264221 13.291696,25.230495 11.500037,31.436501 z"
             style="fill:#404040;"/>
          </a>
         </g>
        </svg>
</svg>
