<?xml version="1.0" encoding="UTF-8" standalone="no"?>
<!DOCTYPE svg PUBLIC "-//W3C//DTD SVG 1.1//EN"
 "http://www.w3.org/Graphics/SVG/1.1/DTD/svg11.dtd">
<!-- Generated by graphviz version 2.44.0 ()
 -->
<!-- Title: includes/spic&#45;prj&#45;api/Collider.hpp Pages: 1 -->
<!--zoomable 307 -->
<svg id="main" version="1.1" xmlns="http://www.w3.org/2000/svg" xmlns:xlink="http://www.w3.org/1999/xlink" xml:space="preserve" onload="init(evt)">
<style type="text/css"><![CDATA[
.edge:hover path { stroke: red; }
.edge:hover polygon { stroke: red; fill: red; }
]]></style>
<script type="text/javascript"><![CDATA[
var edges = document.getElementsByTagName('g');
if (edges && edges.length) {
  for (var i=0;i<edges.length;i++) {
    if (edges[i].id.substr(0,4)=='edge') {
      edges[i].setAttribute('class','edge');
    }
  }
}
]]></script>
        <defs>
                <circle id="rim" cx="0" cy="0" r="7"/>
                <circle id="rim2" cx="0" cy="0" r="3.5"/>
                <g id="zoomPlus">
                        <use xlink:href="#rim" fill="#404040">
                                <set attributeName="fill" to="#808080" begin="zoomplus.mouseover" end="zoomplus.mouseout"/>
                        </use>
                        <path d="M-4,0h8M0,-4v8" fill="none" stroke="white" stroke-width="1.5" pointer-events="none"/>
                </g>
                <g id="zoomMin">
                        <use xlink:href="#rim" fill="#404040">
                                <set attributeName="fill" to="#808080" begin="zoomminus.mouseover" end="zoomminus.mouseout"/>
                        </use>
                        <path d="M-4,0h8" fill="none" stroke="white" stroke-width="1.5" pointer-events="none"/>
                </g>
                <g id="dirArrow">
                        <path fill="none" stroke="white" stroke-width="1.5" d="M0,-3.0v7 M-2.5,-0.5L0,-3.0L2.5,-0.5"/>
                </g>
               <g id="resetDef">
                       <use xlink:href="#rim2" fill="#404040">
                               <set attributeName="fill" to="#808080" begin="reset.mouseover" end="reset.mouseout"/>
                       </use>
               </g>
        </defs>

<script type="text/javascript">
var viewWidth = 1150;
var viewHeight = 307;
var sectionId = 'dynsection-1';
</script>
<script xlink:href="svgpan.js"/>
<svg id="graph" class="graph">
<g id="viewport">
<title>includes/spic&#45;prj&#45;api/Collider.hpp</title>
<!-- Node1 -->
<g id="node1" class="node">
<title>Node1</title>
<g id="a_node1"><a xlink:title=" ">
<polygon fill="#bfbfbf" stroke="black" points="580,-268.5 580,-298.5 683,-298.5 683,-268.5 580,-268.5"/>
<text text-anchor="start" x="588" y="-286.5" font-family="Helvetica,sans-Serif" font-size="10.00">includes/spic&#45;prj&#45;api</text>
<text text-anchor="middle" x="631.5" y="-275.5" font-family="Helvetica,sans-Serif" font-size="10.00">/Collider.hpp</text>
</a>
</g>
</g>
<!-- Node2 -->
<g id="node2" class="node">
<title>Node2</title>
<g id="a_node2"><a xlink:href="Collider_8cpp.html" target="_top" xlink:title=" ">
<polygon fill="none" stroke="black" points="0,-140 0,-159 103,-159 103,-140 0,-140"/>
<text text-anchor="middle" x="51.5" y="-147" font-family="Helvetica,sans-Serif" font-size="10.00">src/API/Collider.cpp</text>
</a>
</g>
</g>
<!-- Node1&#45;&gt;Node2 -->
<g id="edge1" class="edge">
<title>Node1&#45;&gt;Node2</title>
<path fill="none" stroke="midnightblue" d="M569.94,-269.88C521.83,-259.9 453.32,-245.47 393.5,-232 280.96,-206.65 148.18,-174.31 86.39,-159.12"/>
<polygon fill="midnightblue" stroke="midnightblue" points="569.38,-273.33 579.89,-271.93 570.8,-266.48 569.38,-273.33"/>
</g>
<!-- Node3 -->
<g id="node3" class="node">
<title>Node3</title>
<g id="a_node3"><a xlink:href="Collision_8hpp.html" target="_top" xlink:title=" ">
<polygon fill="none" stroke="black" points="402,-201.5 402,-231.5 545,-231.5 545,-201.5 402,-201.5"/>
<text text-anchor="start" x="410" y="-219.5" font-family="Helvetica,sans-Serif" font-size="10.00">includes/platformer</text>
<text text-anchor="middle" x="473.5" y="-208.5" font-family="Helvetica,sans-Serif" font-size="10.00">&#45;engine/Physics/Collision.hpp</text>
</a>
</g>
</g>
<!-- Node1&#45;&gt;Node3 -->
<g id="edge2" class="edge">
<title>Node1&#45;&gt;Node3</title>
<path fill="none" stroke="midnightblue" d="M587.85,-264.54C562.57,-254.14 531.2,-241.24 507.72,-231.58"/>
<polygon fill="midnightblue" stroke="midnightblue" points="586.64,-267.83 597.22,-268.4 589.3,-261.35 586.64,-267.83"/>
</g>
<!-- Node6 -->
<g id="node6" class="node">
<title>Node6</title>
<g id="a_node6"><a xlink:href="PhysicsSystem_8hpp.html" target="_top" xlink:title=" ">
<polygon fill="none" stroke="black" points="679.5,-134.5 679.5,-164.5 853.5,-164.5 853.5,-134.5 679.5,-134.5"/>
<text text-anchor="start" x="687.5" y="-152.5" font-family="Helvetica,sans-Serif" font-size="10.00">includes/platformer</text>
<text text-anchor="middle" x="766.5" y="-141.5" font-family="Helvetica,sans-Serif" font-size="10.00">&#45;engine/Physics/PhysicsSystem.hpp</text>
</a>
</g>
</g>
<!-- Node1&#45;&gt;Node6 -->
<g id="edge24" class="edge">
<title>Node1&#45;&gt;Node6</title>
<path fill="none" stroke="midnightblue" d="M648.25,-260.19C661.54,-243.14 681.06,-219.5 700.5,-201 714.61,-187.57 732.19,-174.26 745.66,-164.68"/>
<polygon fill="midnightblue" stroke="midnightblue" points="645.22,-258.38 641.9,-268.44 650.77,-262.65 645.22,-258.38"/>
</g>
<!-- Node11 -->
<g id="node11" class="node">
<title>Node11</title>
<g id="a_node11"><a xlink:href="BehaviourScript_8hpp.html" target="_top" xlink:title=" ">
<polygon fill="none" stroke="black" points="554,-134.5 554,-164.5 661,-164.5 661,-134.5 554,-134.5"/>
<text text-anchor="start" x="562" y="-152.5" font-family="Helvetica,sans-Serif" font-size="10.00">includes/spic&#45;prj&#45;api</text>
<text text-anchor="middle" x="607.5" y="-141.5" font-family="Helvetica,sans-Serif" font-size="10.00">/BehaviourScript.hpp</text>
</a>
</g>
</g>
<!-- Node1&#45;&gt;Node11 -->
<g id="edge25" class="edge">
<title>Node1&#45;&gt;Node11</title>
<path fill="none" stroke="midnightblue" d="M627.12,-258.39C622.12,-230.9 614.12,-186.89 610.05,-164.52"/>
<polygon fill="midnightblue" stroke="midnightblue" points="623.7,-259.16 628.93,-268.37 630.59,-257.91 623.7,-259.16"/>
</g>
<!-- Node18 -->
<g id="node18" class="node">
<title>Node18</title>
<g id="a_node18"><a xlink:href="BoxCollider_8hpp.html" target="_top" xlink:title=" ">
<polygon fill="none" stroke="black" points="709,-201.5 709,-231.5 812,-231.5 812,-201.5 709,-201.5"/>
<text text-anchor="start" x="717" y="-219.5" font-family="Helvetica,sans-Serif" font-size="10.00">includes/spic&#45;prj&#45;api</text>
<text text-anchor="middle" x="760.5" y="-208.5" font-family="Helvetica,sans-Serif" font-size="10.00">/BoxCollider.hpp</text>
</a>
</g>
</g>
<!-- Node1&#45;&gt;Node18 -->
<g id="edge26" class="edge">
<title>Node1&#45;&gt;Node18</title>
<path fill="none" stroke="midnightblue" d="M668.51,-263.85C688.9,-253.58 713.81,-241.03 732.56,-231.58"/>
<polygon fill="midnightblue" stroke="midnightblue" points="666.85,-260.77 659.49,-268.4 670,-267.02 666.85,-260.77"/>
</g>
<!-- Node19 -->
<g id="node19" class="node">
<title>Node19</title>
<g id="a_node19"><a xlink:href="CircleCollider_8hpp.html" target="_top" xlink:title=" ">
<polygon fill="none" stroke="black" points="830,-201.5 830,-231.5 933,-231.5 933,-201.5 830,-201.5"/>
<text text-anchor="start" x="838" y="-219.5" font-family="Helvetica,sans-Serif" font-size="10.00">includes/spic&#45;prj&#45;api</text>
<text text-anchor="middle" x="881.5" y="-208.5" font-family="Helvetica,sans-Serif" font-size="10.00">/CircleCollider.hpp</text>
</a>
</g>
</g>
<!-- Node1&#45;&gt;Node19 -->
<g id="edge29" class="edge">
<title>Node1&#45;&gt;Node19</title>
<path fill="none" stroke="midnightblue" d="M693.13,-266.48C735.11,-255.56 790.06,-241.27 829.77,-230.95"/>
<polygon fill="midnightblue" stroke="midnightblue" points="692.1,-263.13 683.3,-269.03 693.86,-269.9 692.1,-263.13"/>
</g>
<!-- Node3&#45;&gt;Node2 -->
<g id="edge3" class="edge">
<title>Node3&#45;&gt;Node2</title>
<path fill="none" stroke="midnightblue" d="M392.03,-205.72C319.69,-196.61 211.23,-181.92 117.5,-165 107.92,-163.27 97.61,-161.14 88.06,-159.05"/>
<polygon fill="midnightblue" stroke="midnightblue" points="391.63,-209.19 401.99,-206.96 392.5,-202.25 391.63,-209.19"/>
</g>
<!-- Node4 -->
<g id="node4" class="node">
<title>Node4</title>
<g id="a_node4"><a xlink:href="Collision_8cpp.html" target="_top" xlink:title=" ">
<polygon fill="none" stroke="black" points="411,-140 411,-159 536,-159 536,-140 411,-140"/>
<text text-anchor="middle" x="473.5" y="-147" font-family="Helvetica,sans-Serif" font-size="10.00">src/Physics/Collision.cpp</text>
</a>
</g>
</g>
<!-- Node3&#45;&gt;Node4 -->
<g id="edge4" class="edge">
<title>Node3&#45;&gt;Node4</title>
<path fill="none" stroke="midnightblue" d="M473.5,-191.25C473.5,-180.02 473.5,-167.38 473.5,-159.19"/>
<polygon fill="midnightblue" stroke="midnightblue" points="470,-191.4 473.5,-201.4 477,-191.4 470,-191.4"/>
</g>
<!-- Node5 -->
<g id="node5" class="node">
<title>Node5</title>
<g id="a_node5"><a xlink:href="MarioRigidBody_8cpp.html" target="_top" xlink:title=" ">
<polygon fill="none" stroke="black" points="101.5,-0.5 101.5,-19.5 257.5,-19.5 257.5,-0.5 101.5,-0.5"/>
<text text-anchor="middle" x="179.5" y="-7.5" font-family="Helvetica,sans-Serif" font-size="10.00">src/Physics/MarioRigidBody.cpp</text>
</a>
</g>
</g>
<!-- Node3&#45;&gt;Node5 -->
<g id="edge5" class="edge">
<title>Node3&#45;&gt;Node5</title>
<path fill="none" stroke="midnightblue" d="M397.13,-199.19C310.22,-178.78 176.86,-141.23 150.5,-98 134.59,-71.9 158.86,-36.01 171.99,-19.7"/>
<polygon fill="midnightblue" stroke="midnightblue" points="396.43,-202.62 406.96,-201.47 398.01,-195.8 396.43,-202.62"/>
</g>
<!-- Node3&#45;&gt;Node6 -->
<g id="edge6" class="edge">
<title>Node3&#45;&gt;Node6</title>
<path fill="none" stroke="midnightblue" d="M546.76,-199.25C594.87,-188.58 657.17,-174.75 703.15,-164.55"/>
<polygon fill="midnightblue" stroke="midnightblue" points="545.72,-195.89 536.72,-201.48 547.24,-202.73 545.72,-195.89"/>
</g>
<!-- Node3&#45;&gt;Node11 -->
<g id="edge11" class="edge">
<title>Node3&#45;&gt;Node11</title>
<path fill="none" stroke="midnightblue" d="M511.65,-196.99C532.89,-186.69 558.91,-174.07 578.48,-164.58"/>
<polygon fill="midnightblue" stroke="midnightblue" points="510.05,-193.88 502.58,-201.4 513.1,-200.18 510.05,-193.88"/>
</g>
<!-- Node14 -->
<g id="node14" class="node">
<title>Node14</title>
<g id="a_node14"><a xlink:href="RigidBody_8hpp.html" target="_top" xlink:title=" ">
<polygon fill="none" stroke="black" points="290,-134.5 290,-164.5 393,-164.5 393,-134.5 290,-134.5"/>
<text text-anchor="start" x="298" y="-152.5" font-family="Helvetica,sans-Serif" font-size="10.00">includes/spic&#45;prj&#45;api</text>
<text text-anchor="middle" x="341.5" y="-141.5" font-family="Helvetica,sans-Serif" font-size="10.00">/RigidBody.hpp</text>
</a>
</g>
</g>
<!-- Node3&#45;&gt;Node14 -->
<g id="edge15" class="edge">
<title>Node3&#45;&gt;Node14</title>
<path fill="none" stroke="midnightblue" d="M435.63,-196.85C414.76,-186.58 389.27,-174.03 370.09,-164.58"/>
<polygon fill="midnightblue" stroke="midnightblue" points="434.34,-200.12 444.86,-201.4 437.43,-193.84 434.34,-200.12"/>
</g>
<!-- Node7 -->
<g id="node7" class="node">
<title>Node7</title>
<g id="a_node7"><a xlink:href="PhysicsSystem_8cpp.html" target="_top" xlink:title=" ">
<polygon fill="none" stroke="black" points="465.5,-0.5 465.5,-19.5 621.5,-19.5 621.5,-0.5 465.5,-0.5"/>
<text text-anchor="middle" x="543.5" y="-7.5" font-family="Helvetica,sans-Serif" font-size="10.00">src/Physics/PhysicsSystem.cpp</text>
</a>
</g>
</g>
<!-- Node6&#45;&gt;Node7 -->
<g id="edge7" class="edge">
<title>Node6&#45;&gt;Node7</title>
<path fill="none" stroke="midnightblue" d="M779.79,-125.21C789.52,-104.74 798.49,-75.28 782.5,-56 771.62,-42.88 679.35,-28.4 612.71,-19.5"/>
<polygon fill="midnightblue" stroke="midnightblue" points="776.64,-123.69 775.21,-134.19 782.87,-126.87 776.64,-123.69"/>
</g>
<!-- Node8 -->
<g id="node8" class="node">
<title>Node8</title>
<g id="a_node8"><a xlink:href="Engine_8hpp.html" target="_top" xlink:title=" ">
<polygon fill="none" stroke="black" points="910,-62 910,-92 1041,-92 1041,-62 910,-62"/>
<text text-anchor="start" x="918" y="-80" font-family="Helvetica,sans-Serif" font-size="10.00">includes/platformer</text>
<text text-anchor="middle" x="975.5" y="-69" font-family="Helvetica,sans-Serif" font-size="10.00">&#45;engine/Engine/Engine.hpp</text>
</a>
</g>
</g>
<!-- Node6&#45;&gt;Node8 -->
<g id="edge8" class="edge">
<title>Node6&#45;&gt;Node8</title>
<path fill="none" stroke="midnightblue" d="M817.77,-131.2C853.41,-119.18 900.31,-103.36 933.68,-92.11"/>
<polygon fill="midnightblue" stroke="midnightblue" points="816.4,-127.97 808.04,-134.49 818.64,-134.61 816.4,-127.97"/>
</g>
<!-- Node9 -->
<g id="node9" class="node">
<title>Node9</title>
<g id="a_node9"><a xlink:href="Engine_8cpp.html" target="_top" xlink:title=" ">
<polygon fill="none" stroke="black" points="860,-0.5 860,-19.5 973,-19.5 973,-0.5 860,-0.5"/>
<text text-anchor="middle" x="916.5" y="-7.5" font-family="Helvetica,sans-Serif" font-size="10.00">src/Engine/Engine.cpp</text>
</a>
</g>
</g>
<!-- Node8&#45;&gt;Node9 -->
<g id="edge9" class="edge">
<title>Node8&#45;&gt;Node9</title>
<path fill="none" stroke="midnightblue" d="M955.67,-54.16C944.97,-42.36 932.35,-28.47 924.39,-19.69"/>
<polygon fill="midnightblue" stroke="midnightblue" points="953.39,-56.84 962.7,-61.9 958.57,-52.14 953.39,-56.84"/>
</g>
<!-- Node10 -->
<g id="node10" class="node">
<title>Node10</title>
<g id="a_node10"><a xlink:href="RenderSystem_8cpp.html" target="_top" xlink:title=" ">
<polygon fill="none" stroke="black" points="991.5,-0.5 991.5,-19.5 1141.5,-19.5 1141.5,-0.5 991.5,-0.5"/>
<text text-anchor="middle" x="1066.5" y="-7.5" font-family="Helvetica,sans-Serif" font-size="10.00">src/Texture/RenderSystem.cpp</text>
</a>
</g>
</g>
<!-- Node8&#45;&gt;Node10 -->
<g id="edge10" class="edge">
<title>Node8&#45;&gt;Node10</title>
<path fill="none" stroke="midnightblue" d="M1003.77,-55.81C1020.86,-43.6 1041.75,-28.68 1054.59,-19.51"/>
<polygon fill="midnightblue" stroke="midnightblue" points="1001.35,-53.24 995.25,-61.9 1005.42,-58.93 1001.35,-53.24"/>
</g>
<!-- Node11&#45;&gt;Node7 -->
<g id="edge12" class="edge">
<title>Node11&#45;&gt;Node7</title>
<path fill="none" stroke="midnightblue" d="M596.59,-125.06C582.11,-93.96 557.26,-40.55 547.55,-19.7"/>
<polygon fill="midnightblue" stroke="midnightblue" points="593.5,-126.71 600.89,-134.3 599.85,-123.76 593.5,-126.71"/>
</g>
<!-- Node12 -->
<g id="node12" class="node">
<title>Node12</title>
<g id="a_node12"><a xlink:href="CollisionBehaviour_8hpp.html" target="_top" xlink:title=" ">
<polygon fill="none" stroke="black" points="639.5,-56.5 639.5,-97.5 773.5,-97.5 773.5,-56.5 639.5,-56.5"/>
<text text-anchor="start" x="647.5" y="-85.5" font-family="Helvetica,sans-Serif" font-size="10.00">includes/platformer</text>
<text text-anchor="start" x="647.5" y="-74.5" font-family="Helvetica,sans-Serif" font-size="10.00">&#45;engine/Behaviour/Collision</text>
<text text-anchor="middle" x="706.5" y="-63.5" font-family="Helvetica,sans-Serif" font-size="10.00">Behaviour.hpp</text>
</a>
</g>
</g>
<!-- Node11&#45;&gt;Node12 -->
<g id="edge13" class="edge">
<title>Node11&#45;&gt;Node12</title>
<path fill="none" stroke="midnightblue" d="M635.99,-128.21C649.51,-118.58 665.6,-107.12 678.99,-97.59"/>
<polygon fill="midnightblue" stroke="midnightblue" points="633.65,-125.58 627.53,-134.23 637.71,-131.28 633.65,-125.58"/>
</g>
<!-- Node13 -->
<g id="node13" class="node">
<title>Node13</title>
<g id="a_node13"><a xlink:href="CollisionBehaviour_8cpp.html" target="_top" xlink:title=" ">
<polygon fill="none" stroke="black" points="639.5,-0.5 639.5,-19.5 817.5,-19.5 817.5,-0.5 639.5,-0.5"/>
<text text-anchor="middle" x="728.5" y="-7.5" font-family="Helvetica,sans-Serif" font-size="10.00">src/Behaviour/CollisionBehaviour.cpp</text>
</a>
</g>
</g>
<!-- Node12&#45;&gt;Node13 -->
<g id="edge14" class="edge">
<title>Node12&#45;&gt;Node13</title>
<path fill="none" stroke="midnightblue" d="M716.36,-46.88C719.7,-36.99 723.2,-26.67 725.57,-19.65"/>
<polygon fill="midnightblue" stroke="midnightblue" points="712.99,-45.9 713.1,-56.5 719.62,-48.15 712.99,-45.9"/>
</g>
<!-- Node14&#45;&gt;Node7 -->
<g id="edge18" class="edge">
<title>Node14&#45;&gt;Node7</title>
<path fill="none" stroke="midnightblue" d="M403.27,-133.2C439.52,-123.28 480.99,-110.02 495.5,-98 521.54,-76.43 535.84,-36.89 541.12,-19.54"/>
<polygon fill="midnightblue" stroke="midnightblue" points="401.96,-129.93 393.21,-135.9 403.78,-136.69 401.96,-129.93"/>
</g>
<!-- Node14&#45;&gt;Node13 -->
<g id="edge17" class="edge">
<title>Node14&#45;&gt;Node13</title>
<path fill="none" stroke="midnightblue" d="M403.16,-133.68C438.95,-124.54 484.68,-111.91 524.5,-98 595.01,-73.36 675.81,-36.1 710.81,-19.5"/>
<polygon fill="midnightblue" stroke="midnightblue" points="402.18,-130.32 393.34,-136.17 403.89,-137.11 402.18,-130.32"/>
</g>
<!-- Node15 -->
<g id="node15" class="node">
<title>Node15</title>
<g id="a_node15"><a xlink:href="RigidBody_8cpp.html" target="_top" xlink:title=" ">
<polygon fill="none" stroke="black" points="333.5,-0.5 333.5,-19.5 447.5,-19.5 447.5,-0.5 333.5,-0.5"/>
<text text-anchor="middle" x="390.5" y="-7.5" font-family="Helvetica,sans-Serif" font-size="10.00">src/API/RigidBody.cpp</text>
</a>
</g>
</g>
<!-- Node14&#45;&gt;Node15 -->
<g id="edge16" class="edge">
<title>Node14&#45;&gt;Node15</title>
<path fill="none" stroke="midnightblue" d="M402.87,-133.28C434.85,-123.98 469.2,-111.33 478.5,-98 489.18,-82.69 488.24,-71.92 478.5,-56 467.13,-37.41 445.38,-26.19 426.35,-19.6"/>
<polygon fill="midnightblue" stroke="midnightblue" points="401.72,-129.97 393.05,-136.06 403.62,-136.71 401.72,-129.97"/>
</g>
<!-- Node16 -->
<g id="node16" class="node">
<title>Node16</title>
<g id="a_node16"><a xlink:href="IllegalCollisionBehaviourException_8hpp.html" target="_top" xlink:title=" ">
<polygon fill="none" stroke="black" points="312,-56.5 312,-97.5 469,-97.5 469,-56.5 312,-56.5"/>
<text text-anchor="start" x="320" y="-85.5" font-family="Helvetica,sans-Serif" font-size="10.00">includes/platformer</text>
<text text-anchor="start" x="320" y="-74.5" font-family="Helvetica,sans-Serif" font-size="10.00">&#45;engine/Exceptions/Illegal</text>
<text text-anchor="middle" x="390.5" y="-63.5" font-family="Helvetica,sans-Serif" font-size="10.00">CollisionBehaviourException.hpp</text>
</a>
</g>
</g>
<!-- Node14&#45;&gt;Node16 -->
<g id="edge19" class="edge">
<title>Node14&#45;&gt;Node16</title>
<path fill="none" stroke="midnightblue" d="M357.15,-125.98C363.5,-116.85 370.76,-106.4 376.89,-97.59"/>
<polygon fill="midnightblue" stroke="midnightblue" points="354.25,-124.02 351.42,-134.23 360,-128.02 354.25,-124.02"/>
</g>
<!-- Node17 -->
<g id="node17" class="node">
<title>Node17</title>
<g id="a_node17"><a xlink:href="MarioRigidBody_8hpp.html" target="_top" xlink:title=" ">
<polygon fill="none" stroke="black" points="159.5,-56.5 159.5,-97.5 293.5,-97.5 293.5,-56.5 159.5,-56.5"/>
<text text-anchor="start" x="167.5" y="-85.5" font-family="Helvetica,sans-Serif" font-size="10.00">includes/platformer</text>
<text text-anchor="start" x="167.5" y="-74.5" font-family="Helvetica,sans-Serif" font-size="10.00">&#45;engine/Physics/MarioRigid</text>
<text text-anchor="middle" x="226.5" y="-63.5" font-family="Helvetica,sans-Serif" font-size="10.00">Body.hpp</text>
</a>
</g>
</g>
<!-- Node14&#45;&gt;Node17 -->
<g id="edge21" class="edge">
<title>Node14&#45;&gt;Node17</title>
<path fill="none" stroke="midnightblue" d="M309.58,-128.93C293.68,-119.19 274.52,-107.44 258.6,-97.68"/>
<polygon fill="midnightblue" stroke="midnightblue" points="308.15,-132.16 318.5,-134.4 311.81,-126.19 308.15,-132.16"/>
</g>
<!-- Node16&#45;&gt;Node15 -->
<g id="edge20" class="edge">
<title>Node16&#45;&gt;Node15</title>
<path fill="none" stroke="midnightblue" d="M390.5,-46.26C390.5,-36.56 390.5,-26.52 390.5,-19.65"/>
<polygon fill="midnightblue" stroke="midnightblue" points="387,-46.5 390.5,-56.5 394,-46.5 387,-46.5"/>
</g>
<!-- Node17&#45;&gt;Node5 -->
<g id="edge22" class="edge">
<title>Node17&#45;&gt;Node5</title>
<path fill="none" stroke="midnightblue" d="M206.34,-48.12C198.92,-37.85 191.04,-26.96 185.76,-19.65"/>
<polygon fill="midnightblue" stroke="midnightblue" points="203.7,-50.45 212.4,-56.5 209.38,-46.34 203.7,-50.45"/>
</g>
<!-- Node17&#45;&gt;Node7 -->
<g id="edge23" class="edge">
<title>Node17&#45;&gt;Node7</title>
<path fill="none" stroke="midnightblue" d="M303.51,-55.85C374,-40.24 444.8,-27.55 491.56,-19.57"/>
<polygon fill="midnightblue" stroke="midnightblue" points="302.57,-52.47 293.57,-58.07 304.09,-59.3 302.57,-52.47"/>
</g>
<!-- Node18&#45;&gt;Node6 -->
<g id="edge28" class="edge">
<title>Node18&#45;&gt;Node6</title>
<path fill="none" stroke="midnightblue" d="M762.72,-191.4C763.56,-182.37 764.48,-172.41 765.2,-164.58"/>
<polygon fill="midnightblue" stroke="midnightblue" points="759.24,-191.12 761.8,-201.4 766.21,-191.76 759.24,-191.12"/>
</g>
<!-- Node18&#45;&gt;Node13 -->
<g id="edge27" class="edge">
<title>Node18&#45;&gt;Node13</title>
<path fill="none" stroke="midnightblue" d="M821.56,-198.47C837.63,-190.9 853.09,-180.16 862.5,-165 869.77,-153.29 867.04,-147.01 862.5,-134 842.62,-77.05 777.82,-36.61 746.19,-19.75"/>
<polygon fill="midnightblue" stroke="midnightblue" points="819.87,-195.39 812.07,-202.56 822.64,-201.81 819.87,-195.39"/>
</g>
</g>
</svg>
        <g id="navigator" transform="translate(0 0)" fill="#404254">
                <rect fill="#f2f5e9" fill-opacity="0.5" stroke="#606060" stroke-width=".5" x="0" y="0" width="60" height="60"/>
                <use id="zoomplus" xlink:href="#zoomPlus" x="17" y="9" onmousedown="handleZoom(evt,'in')"/>
                <use id="zoomminus" xlink:href="#zoomMin" x="42" y="9" onmousedown="handleZoom(evt,'out')"/>
                <use id="reset" xlink:href="#resetDef" x="30" y="36" onmousedown="handleReset()"/>
                <g id="arrowUp" xlink:href="#dirArrow" transform="translate(30 24)" onmousedown="handlePan(0,-1)">
                  <use xlink:href="#rim" fill="#404040">
                        <set attributeName="fill" to="#808080" begin="arrowUp.mouseover" end="arrowUp.mouseout"/>
                  </use>
                  <path fill="none" stroke="white" stroke-width="1.5" d="M0,-3.0v7 M-2.5,-0.5L0,-3.0L2.5,-0.5"/>
                </g>
                <g id="arrowRight" xlink:href="#dirArrow" transform="rotate(90) translate(36 -43)" onmousedown="handlePan(1,0)">
                  <use xlink:href="#rim" fill="#404040">
                        <set attributeName="fill" to="#808080" begin="arrowRight.mouseover" end="arrowRight.mouseout"/>
                  </use>
                  <path fill="none" stroke="white" stroke-width="1.5" d="M0,-3.0v7 M-2.5,-0.5L0,-3.0L2.5,-0.5"/>
                </g>
                <g id="arrowDown" xlink:href="#dirArrow" transform="rotate(180) translate(-30 -48)" onmousedown="handlePan(0,1)">
                  <use xlink:href="#rim" fill="#404040">
                        <set attributeName="fill" to="#808080" begin="arrowDown.mouseover" end="arrowDown.mouseout"/>
                  </use>
                  <path fill="none" stroke="white" stroke-width="1.5" d="M0,-3.0v7 M-2.5,-0.5L0,-3.0L2.5,-0.5"/>
                </g>
                <g id="arrowLeft" xlink:href="#dirArrow" transform="rotate(270) translate(-36 17)" onmousedown="handlePan(-1,0)">
                  <use xlink:href="#rim" fill="#404040">
                        <set attributeName="fill" to="#808080" begin="arrowLeft.mouseover" end="arrowLeft.mouseout"/>
                  </use>
                  <path fill="none" stroke="white" stroke-width="1.5" d="M0,-3.0v7 M-2.5,-0.5L0,-3.0L2.5,-0.5"/>
                </g>
        </g>
        <svg viewBox="0 0 15 15" width="100%" height="30px" preserveAspectRatio="xMaxYMin meet">
         <g id="arrow_out" transform="scale(0.3 0.3)">
          <a xlink:href="Collider_8hpp__dep__incl_org.svg" target="_base">
           <rect id="button" ry="5" rx="5" y="6" x="6" height="38" width="38"
                fill="#f2f5e9" fill-opacity="0.5" stroke="#606060" stroke-width="1.0"/>
           <path id="arrow"
             d="M 11.500037,31.436501 C 11.940474,20.09759 22.043105,11.32322 32.158766,21.979434 L 37.068811,17.246167 C 37.068811,17.246167 37.088388,32 37.088388,32 L 22.160133,31.978069 C 22.160133,31.978069 26.997745,27.140456 26.997745,27.140456 C 18.528582,18.264221 13.291696,25.230495 11.500037,31.436501 z"
             style="fill:#404040;"/>
          </a>
         </g>
        </svg>
</svg>
