<?xml version="1.0" encoding="UTF-8" standalone="no"?>
<!DOCTYPE svg PUBLIC "-//W3C//DTD SVG 1.1//EN"
 "http://www.w3.org/Graphics/SVG/1.1/DTD/svg11.dtd">
<!-- Generated by graphviz version 2.44.0 ()
 -->
<!-- Title: includes/spic&#45;prj&#45;api/Collider.hpp Pages: 1 -->
<!--zoomable 463 -->
<svg id="main" version="1.1" xmlns="http://www.w3.org/2000/svg" xmlns:xlink="http://www.w3.org/1999/xlink" xml:space="preserve" onload="init(evt)">
<style type="text/css"><![CDATA[
.edge:hover path { stroke: red; }
.edge:hover polygon { stroke: red; fill: red; }
]]></style>
<script type="text/javascript"><![CDATA[
var edges = document.getElementsByTagName('g');
if (edges && edges.length) {
  for (var i=0;i<edges.length;i++) {
    if (edges[i].id.substr(0,4)=='edge') {
      edges[i].setAttribute('class','edge');
    }
  }
}
]]></script>
        <defs>
                <circle id="rim" cx="0" cy="0" r="7"/>
                <circle id="rim2" cx="0" cy="0" r="3.5"/>
                <g id="zoomPlus">
                        <use xlink:href="#rim" fill="#404040">
                                <set attributeName="fill" to="#808080" begin="zoomplus.mouseover" end="zoomplus.mouseout"/>
                        </use>
                        <path d="M-4,0h8M0,-4v8" fill="none" stroke="white" stroke-width="1.5" pointer-events="none"/>
                </g>
                <g id="zoomMin">
                        <use xlink:href="#rim" fill="#404040">
                                <set attributeName="fill" to="#808080" begin="zoomminus.mouseover" end="zoomminus.mouseout"/>
                        </use>
                        <path d="M-4,0h8" fill="none" stroke="white" stroke-width="1.5" pointer-events="none"/>
                </g>
                <g id="dirArrow">
                        <path fill="none" stroke="white" stroke-width="1.5" d="M0,-3.0v7 M-2.5,-0.5L0,-3.0L2.5,-0.5"/>
                </g>
               <g id="resetDef">
                       <use xlink:href="#rim2" fill="#404040">
                               <set attributeName="fill" to="#808080" begin="reset.mouseover" end="reset.mouseout"/>
                       </use>
               </g>
        </defs>

<script type="text/javascript">
var viewWidth = 1754;
var viewHeight = 463;
var sectionId = 'dynsection-1';
</script>
<script xlink:href="svgpan.js"/>
<svg id="graph" class="graph">
<g id="viewport">
<title>includes/spic&#45;prj&#45;api/Collider.hpp</title>
<!-- Node1 -->
<g id="node1" class="node">
<title>Node1</title>
<g id="a_node1"><a xlink:title=" ">
<polygon fill="#bfbfbf" stroke="black" points="610.5,-424.5 610.5,-454.5 713.5,-454.5 713.5,-424.5 610.5,-424.5"/>
<text text-anchor="start" x="618.5" y="-442.5" font-family="Helvetica,sans-Serif" font-size="10.00">includes/spic&#45;prj&#45;api</text>
<text text-anchor="middle" x="662" y="-431.5" font-family="Helvetica,sans-Serif" font-size="10.00">/Collider.hpp</text>
</a>
</g>
</g>
<!-- Node2 -->
<g id="node2" class="node">
<title>Node2</title>
<g id="a_node2"><a xlink:href="Collider_8cpp.html" target="_top" xlink:title=" ">
<polygon fill="none" stroke="black" points="139.5,-296 139.5,-315 242.5,-315 242.5,-296 139.5,-296"/>
<text text-anchor="middle" x="191" y="-303" font-family="Helvetica,sans-Serif" font-size="10.00">src/API/Collider.cpp</text>
</a>
</g>
</g>
<!-- Node1&#45;&gt;Node2 -->
<g id="edge1" class="edge">
<title>Node1&#45;&gt;Node2</title>
<path fill="none" stroke="midnightblue" d="M600.27,-428.67C549.5,-419.94 475.93,-405.82 413,-388 336.96,-366.46 249.75,-331.23 211.16,-315.08"/>
<polygon fill="midnightblue" stroke="midnightblue" points="599.98,-432.17 610.43,-430.39 601.16,-425.27 599.98,-432.17"/>
</g>
<!-- Node3 -->
<g id="node3" class="node">
<title>Node3</title>
<g id="a_node3"><a xlink:href="Collision_8hpp.html" target="_top" xlink:title=" ">
<polygon fill="none" stroke="black" points="422.5,-357.5 422.5,-387.5 565.5,-387.5 565.5,-357.5 422.5,-357.5"/>
<text text-anchor="start" x="430.5" y="-375.5" font-family="Helvetica,sans-Serif" font-size="10.00">includes/platformer</text>
<text text-anchor="middle" x="494" y="-364.5" font-family="Helvetica,sans-Serif" font-size="10.00">&#45;engine/Physics/Collision.hpp</text>
</a>
</g>
</g>
<!-- Node1&#45;&gt;Node3 -->
<g id="edge2" class="edge">
<title>Node1&#45;&gt;Node3</title>
<path fill="none" stroke="midnightblue" d="M615.95,-420.68C589,-410.26 555.46,-397.28 530.38,-387.58"/>
<polygon fill="midnightblue" stroke="midnightblue" points="614.96,-424.05 625.55,-424.4 617.48,-417.52 614.96,-424.05"/>
</g>
<!-- Node6 -->
<g id="node6" class="node">
<title>Node6</title>
<g id="a_node6"><a xlink:href="PhysicsSystem_8hpp.html" target="_top" xlink:title=" ">
<polygon fill="none" stroke="black" points="564,-290.5 564,-320.5 738,-320.5 738,-290.5 564,-290.5"/>
<text text-anchor="start" x="572" y="-308.5" font-family="Helvetica,sans-Serif" font-size="10.00">includes/platformer</text>
<text text-anchor="middle" x="651" y="-297.5" font-family="Helvetica,sans-Serif" font-size="10.00">&#45;engine/Physics/PhysicsSystem.hpp</text>
</a>
</g>
</g>
<!-- Node1&#45;&gt;Node6 -->
<g id="edge40" class="edge">
<title>Node1&#45;&gt;Node6</title>
<path fill="none" stroke="midnightblue" d="M650.09,-415.26C646.41,-406.9 642.84,-397.24 641,-388 636.34,-364.65 642.01,-337.08 646.52,-320.74"/>
<polygon fill="midnightblue" stroke="midnightblue" points="646.95,-416.82 654.36,-424.39 653.29,-413.85 646.95,-416.82"/>
</g>
<!-- Node16 -->
<g id="node16" class="node">
<title>Node16</title>
<g id="a_node16"><a xlink:href="BehaviourScript_8hpp.html" target="_top" xlink:title=" ">
<polygon fill="none" stroke="black" points="1093.5,-290.5 1093.5,-320.5 1200.5,-320.5 1200.5,-290.5 1093.5,-290.5"/>
<text text-anchor="start" x="1101.5" y="-308.5" font-family="Helvetica,sans-Serif" font-size="10.00">includes/spic&#45;prj&#45;api</text>
<text text-anchor="middle" x="1147" y="-297.5" font-family="Helvetica,sans-Serif" font-size="10.00">/BehaviourScript.hpp</text>
</a>
</g>
</g>
<!-- Node1&#45;&gt;Node16 -->
<g id="edge41" class="edge">
<title>Node1&#45;&gt;Node16</title>
<path fill="none" stroke="midnightblue" d="M703.47,-420.16C722.15,-411.3 744.19,-399.99 763,-388 781.67,-376.1 781.68,-365.8 802,-357 898.66,-315.16 1023.31,-306.87 1093.24,-305.85"/>
<polygon fill="midnightblue" stroke="midnightblue" points="701.9,-417.03 694.32,-424.44 704.86,-423.38 701.9,-417.03"/>
</g>
<!-- Node28 -->
<g id="node28" class="node">
<title>Node28</title>
<g id="a_node28"><a xlink:href="BoxCollider_8hpp.html" target="_top" xlink:title=" ">
<polygon fill="none" stroke="black" points="650.5,-357.5 650.5,-387.5 753.5,-387.5 753.5,-357.5 650.5,-357.5"/>
<text text-anchor="start" x="658.5" y="-375.5" font-family="Helvetica,sans-Serif" font-size="10.00">includes/spic&#45;prj&#45;api</text>
<text text-anchor="middle" x="702" y="-364.5" font-family="Helvetica,sans-Serif" font-size="10.00">/BoxCollider.hpp</text>
</a>
</g>
</g>
<!-- Node1&#45;&gt;Node28 -->
<g id="edge42" class="edge">
<title>Node1&#45;&gt;Node28</title>
<path fill="none" stroke="midnightblue" d="M675.93,-415.87C681.72,-406.46 688.26,-395.83 693.34,-387.58"/>
<polygon fill="midnightblue" stroke="midnightblue" points="672.94,-414.05 670.68,-424.4 678.9,-417.71 672.94,-414.05"/>
</g>
<!-- Node29 -->
<g id="node29" class="node">
<title>Node29</title>
<g id="a_node29"><a xlink:href="CircleCollider_8hpp.html" target="_top" xlink:title=" ">
<polygon fill="none" stroke="black" points="810.5,-357.5 810.5,-387.5 913.5,-387.5 913.5,-357.5 810.5,-357.5"/>
<text text-anchor="start" x="818.5" y="-375.5" font-family="Helvetica,sans-Serif" font-size="10.00">includes/spic&#45;prj&#45;api</text>
<text text-anchor="middle" x="862" y="-364.5" font-family="Helvetica,sans-Serif" font-size="10.00">/CircleCollider.hpp</text>
</a>
</g>
</g>
<!-- Node1&#45;&gt;Node29 -->
<g id="edge45" class="edge">
<title>Node1&#45;&gt;Node29</title>
<path fill="none" stroke="midnightblue" d="M715.15,-421.23C747.5,-410.71 788.31,-397.45 818.69,-387.58"/>
<polygon fill="midnightblue" stroke="midnightblue" points="713.83,-417.98 705.4,-424.4 715.99,-424.63 713.83,-417.98"/>
</g>
<!-- Node3&#45;&gt;Node2 -->
<g id="edge3" class="edge">
<title>Node3&#45;&gt;Node2</title>
<path fill="none" stroke="midnightblue" d="M417.58,-355.35C371.13,-345.49 310.63,-332.6 257,-321 248.17,-319.09 238.68,-317.02 229.73,-315.05"/>
<polygon fill="midnightblue" stroke="midnightblue" points="417.06,-358.81 427.57,-357.46 418.52,-351.97 417.06,-358.81"/>
</g>
<!-- Node4 -->
<g id="node4" class="node">
<title>Node4</title>
<g id="a_node4"><a xlink:href="Collision_8cpp.html" target="_top" xlink:title=" ">
<polygon fill="none" stroke="black" points="299.5,-296 299.5,-315 424.5,-315 424.5,-296 299.5,-296"/>
<text text-anchor="middle" x="362" y="-303" font-family="Helvetica,sans-Serif" font-size="10.00">src/Physics/Collision.cpp</text>
</a>
</g>
</g>
<!-- Node3&#45;&gt;Node4 -->
<g id="edge4" class="edge">
<title>Node3&#45;&gt;Node4</title>
<path fill="none" stroke="midnightblue" d="M456.36,-352.97C431.01,-340.48 398.75,-324.6 379.28,-315.01"/>
<polygon fill="midnightblue" stroke="midnightblue" points="454.84,-356.12 465.36,-357.4 457.93,-349.84 454.84,-356.12"/>
</g>
<!-- Node5 -->
<g id="node5" class="node">
<title>Node5</title>
<g id="a_node5"><a xlink:href="PlayerRigidBody_8cpp.html" target="_top" xlink:title=" ">
<polygon fill="none" stroke="black" points="132.5,-145.5 132.5,-164.5 291.5,-164.5 291.5,-145.5 132.5,-145.5"/>
<text text-anchor="middle" x="212" y="-152.5" font-family="Helvetica,sans-Serif" font-size="10.00">src/Physics/PlayerRigidBody.cpp</text>
</a>
</g>
</g>
<!-- Node3&#45;&gt;Node5 -->
<g id="edge5" class="edge">
<title>Node3&#45;&gt;Node5</title>
<path fill="none" stroke="midnightblue" d="M412.55,-359.38C363.96,-350.65 308.26,-337.51 290,-321 251.83,-286.5 274.58,-257.73 251,-212 241.77,-194.1 227.6,-175.28 219.12,-164.65"/>
<polygon fill="midnightblue" stroke="midnightblue" points="412.03,-362.84 422.48,-361.12 413.24,-355.94 412.03,-362.84"/>
</g>
<!-- Node3&#45;&gt;Node6 -->
<g id="edge6" class="edge">
<title>Node3&#45;&gt;Node6</title>
<path fill="none" stroke="midnightblue" d="M537.37,-353.54C562.49,-343.14 593.66,-330.24 617,-320.58"/>
<polygon fill="midnightblue" stroke="midnightblue" points="535.97,-350.34 528.07,-357.4 538.64,-356.8 535.97,-350.34"/>
</g>
<!-- Node3&#45;&gt;Node16 -->
<g id="edge16" class="edge">
<title>Node3&#45;&gt;Node16</title>
<path fill="none" stroke="midnightblue" d="M576.09,-363.33C711.82,-349.82 979.37,-323.19 1093.44,-311.83"/>
<polygon fill="midnightblue" stroke="midnightblue" points="575.35,-359.88 565.75,-364.36 576.05,-366.85 575.35,-359.88"/>
</g>
<!-- Node24 -->
<g id="node24" class="node">
<title>Node24</title>
<g id="a_node24"><a xlink:href="RigidBody_8hpp.html" target="_top" xlink:title=" ">
<polygon fill="none" stroke="black" points="442.5,-290.5 442.5,-320.5 545.5,-320.5 545.5,-290.5 442.5,-290.5"/>
<text text-anchor="start" x="450.5" y="-308.5" font-family="Helvetica,sans-Serif" font-size="10.00">includes/spic&#45;prj&#45;api</text>
<text text-anchor="middle" x="494" y="-297.5" font-family="Helvetica,sans-Serif" font-size="10.00">/RigidBody.hpp</text>
</a>
</g>
</g>
<!-- Node3&#45;&gt;Node24 -->
<g id="edge30" class="edge">
<title>Node3&#45;&gt;Node24</title>
<path fill="none" stroke="midnightblue" d="M494,-347.11C494,-338.15 494,-328.32 494,-320.58"/>
<polygon fill="midnightblue" stroke="midnightblue" points="490.5,-347.4 494,-357.4 497.5,-347.4 490.5,-347.4"/>
</g>
<!-- Node7 -->
<g id="node7" class="node">
<title>Node7</title>
<g id="a_node7"><a xlink:href="PhysicsSystem_8cpp.html" target="_top" xlink:title=" ">
<polygon fill="none" stroke="black" points="347,-145.5 347,-164.5 503,-164.5 503,-145.5 347,-145.5"/>
<text text-anchor="middle" x="425" y="-152.5" font-family="Helvetica,sans-Serif" font-size="10.00">src/Physics/PhysicsSystem.cpp</text>
</a>
</g>
</g>
<!-- Node6&#45;&gt;Node7 -->
<g id="edge7" class="edge">
<title>Node6&#45;&gt;Node7</title>
<path fill="none" stroke="midnightblue" d="M620.9,-284.72C571.1,-252 473.55,-187.9 438.19,-164.67"/>
<polygon fill="midnightblue" stroke="midnightblue" points="619.05,-287.69 629.33,-290.26 622.89,-281.84 619.05,-287.69"/>
</g>
<!-- Node8 -->
<g id="node8" class="node">
<title>Node8</title>
<g id="a_node8"><a xlink:href="Engine_8hpp.html" target="_top" xlink:title=" ">
<polygon fill="none" stroke="black" points="719.5,-218 719.5,-248 850.5,-248 850.5,-218 719.5,-218"/>
<text text-anchor="start" x="727.5" y="-236" font-family="Helvetica,sans-Serif" font-size="10.00">includes/platformer</text>
<text text-anchor="middle" x="785" y="-225" font-family="Helvetica,sans-Serif" font-size="10.00">&#45;engine/Engine/Engine.hpp</text>
</a>
</g>
</g>
<!-- Node6&#45;&gt;Node8 -->
<g id="edge8" class="edge">
<title>Node6&#45;&gt;Node8</title>
<path fill="none" stroke="midnightblue" d="M686.7,-285.72C709.18,-273.89 737.72,-258.87 758.25,-248.07"/>
<polygon fill="midnightblue" stroke="midnightblue" points="685.02,-282.65 677.79,-290.4 688.27,-288.84 685.02,-282.65"/>
</g>
<!-- Node9 -->
<g id="node9" class="node">
<title>Node9</title>
<g id="a_node9"><a xlink:href="GameObjectDirector_8cpp.html" target="_top" xlink:title=" ">
<polygon fill="none" stroke="black" points="820,-0.5 820,-19.5 996,-19.5 996,-0.5 820,-0.5"/>
<text text-anchor="middle" x="908" y="-7.5" font-family="Helvetica,sans-Serif" font-size="10.00">src/Director/GameObjectDirector.cpp</text>
</a>
</g>
</g>
<!-- Node8&#45;&gt;Node9 -->
<g id="edge9" class="edge">
<title>Node8&#45;&gt;Node9</title>
<path fill="none" stroke="midnightblue" d="M709.08,-218.73C644.31,-206.64 560.09,-188.77 550,-176 538.43,-161.35 539.48,-149.42 550,-134 609.25,-47.13 734.28,-20.8 819.72,-13.27"/>
<polygon fill="midnightblue" stroke="midnightblue" points="708.82,-222.24 719.29,-220.62 710.09,-215.36 708.82,-222.24"/>
</g>
<!-- Node10 -->
<g id="node10" class="node">
<title>Node10</title>
<g id="a_node10"><a xlink:href="Engine_8cpp.html" target="_top" xlink:title=" ">
<polygon fill="none" stroke="black" points="1259.5,-145.5 1259.5,-164.5 1372.5,-164.5 1372.5,-145.5 1259.5,-145.5"/>
<text text-anchor="middle" x="1316" y="-152.5" font-family="Helvetica,sans-Serif" font-size="10.00">src/Engine/Engine.cpp</text>
</a>
</g>
</g>
<!-- Node8&#45;&gt;Node10 -->
<g id="edge10" class="edge">
<title>Node8&#45;&gt;Node10</title>
<path fill="none" stroke="midnightblue" d="M860.78,-226.95C953.37,-219.85 1114.43,-204.48 1250,-176 1263.94,-173.07 1279.19,-168.54 1291.51,-164.54"/>
<polygon fill="midnightblue" stroke="midnightblue" points="860.37,-223.47 850.66,-227.72 860.9,-230.45 860.37,-223.47"/>
</g>
<!-- Node11 -->
<g id="node11" class="node">
<title>Node11</title>
<g id="a_node11"><a xlink:href="TMXParser_8cpp.html" target="_top" xlink:title=" ">
<polygon fill="none" stroke="black" points="1105,-145.5 1105,-164.5 1241,-164.5 1241,-145.5 1105,-145.5"/>
<text text-anchor="middle" x="1173" y="-152.5" font-family="Helvetica,sans-Serif" font-size="10.00">src/Facade/TMXParser.cpp</text>
</a>
</g>
</g>
<!-- Node8&#45;&gt;Node11 -->
<g id="edge11" class="edge">
<title>Node8&#45;&gt;Node11</title>
<path fill="none" stroke="midnightblue" d="M860.4,-220.07C923.58,-209.68 1016.02,-193.56 1096,-176 1111.38,-172.62 1128.33,-168.29 1142.4,-164.52"/>
<polygon fill="midnightblue" stroke="midnightblue" points="859.82,-216.62 850.51,-221.69 860.95,-223.53 859.82,-216.62"/>
</g>
<!-- Node12 -->
<g id="node12" class="node">
<title>Node12</title>
<g id="a_node12"><a xlink:href="ClientNetworkManager_8cpp.html" target="_top" xlink:title=" ">
<polygon fill="none" stroke="black" points="559.5,-140 559.5,-170 706.5,-170 706.5,-140 559.5,-140"/>
<text text-anchor="start" x="567.5" y="-158" font-family="Helvetica,sans-Serif" font-size="10.00">src/Networking/ClientNetwork</text>
<text text-anchor="middle" x="633" y="-147" font-family="Helvetica,sans-Serif" font-size="10.00">Manager.cpp</text>
</a>
</g>
</g>
<!-- Node8&#45;&gt;Node12 -->
<g id="edge12" class="edge">
<title>Node8&#45;&gt;Node12</title>
<path fill="none" stroke="midnightblue" d="M747.7,-213.35C720.94,-199.97 685.46,-182.23 661.08,-170.04"/>
<polygon fill="midnightblue" stroke="midnightblue" points="746.26,-216.54 756.77,-217.88 749.39,-210.28 746.26,-216.54"/>
</g>
<!-- Node13 -->
<g id="node13" class="node">
<title>Node13</title>
<g id="a_node13"><a xlink:href="ServerNetworkManager_8cpp.html" target="_top" xlink:title=" ">
<polygon fill="none" stroke="black" points="757.5,-62 757.5,-92 908.5,-92 908.5,-62 757.5,-62"/>
<text text-anchor="start" x="765.5" y="-80" font-family="Helvetica,sans-Serif" font-size="10.00">src/Networking/ServerNetwork</text>
<text text-anchor="middle" x="833" y="-69" font-family="Helvetica,sans-Serif" font-size="10.00">Manager.cpp</text>
</a>
</g>
</g>
<!-- Node8&#45;&gt;Node13 -->
<g id="edge13" class="edge">
<title>Node8&#45;&gt;Node13</title>
<path fill="none" stroke="midnightblue" d="M768.19,-209.42C755.2,-188.99 741.37,-158.44 754,-134 763.73,-115.18 783.02,-101.32 800.1,-92.1"/>
<polygon fill="midnightblue" stroke="midnightblue" points="765.33,-211.44 773.82,-217.78 771.14,-207.53 765.33,-211.44"/>
</g>
<!-- Node14 -->
<g id="node14" class="node">
<title>Node14</title>
<g id="a_node14"><a xlink:href="RenderSystem_8cpp.html" target="_top" xlink:title=" ">
<polygon fill="none" stroke="black" points="763,-145.5 763,-164.5 913,-164.5 913,-145.5 763,-145.5"/>
<text text-anchor="middle" x="838" y="-152.5" font-family="Helvetica,sans-Serif" font-size="10.00">src/Texture/RenderSystem.cpp</text>
</a>
</g>
</g>
<!-- Node8&#45;&gt;Node14 -->
<g id="edge14" class="edge">
<title>Node8&#45;&gt;Node14</title>
<path fill="none" stroke="midnightblue" d="M800.78,-209.37C811.29,-194.3 824.5,-175.35 832.03,-164.56"/>
<polygon fill="midnightblue" stroke="midnightblue" points="797.82,-207.5 794.97,-217.7 803.56,-211.5 797.82,-207.5"/>
</g>
<!-- Node15 -->
<g id="node15" class="node">
<title>Node15</title>
<g id="a_node15"><a xlink:href="TextureManager_8cpp.html" target="_top" xlink:title=" ">
<polygon fill="none" stroke="black" points="931,-145.5 931,-164.5 1087,-164.5 1087,-145.5 931,-145.5"/>
<text text-anchor="middle" x="1009" y="-152.5" font-family="Helvetica,sans-Serif" font-size="10.00">src/Texture/TextureManager.cpp</text>
</a>
</g>
</g>
<!-- Node8&#45;&gt;Node15 -->
<g id="edge15" class="edge">
<title>Node8&#45;&gt;Node15</title>
<path fill="none" stroke="midnightblue" d="M835.88,-214.74C882.05,-199.07 948.21,-176.63 983.89,-164.52"/>
<polygon fill="midnightblue" stroke="midnightblue" points="834.69,-211.44 826.35,-217.97 836.94,-218.07 834.69,-211.44"/>
</g>
<!-- Node16&#45;&gt;Node7 -->
<g id="edge20" class="edge">
<title>Node16&#45;&gt;Node7</title>
<path fill="none" stroke="midnightblue" d="M1083.28,-301.41C997.71,-296.29 841.33,-283.52 711,-254 608.36,-230.76 491.06,-183.81 445.03,-164.54"/>
<polygon fill="midnightblue" stroke="midnightblue" points="1083.17,-304.91 1093.36,-302 1083.58,-297.92 1083.17,-304.91"/>
</g>
<!-- Node16&#45;&gt;Node9 -->
<g id="edge18" class="edge">
<title>Node16&#45;&gt;Node9</title>
<path fill="none" stroke="midnightblue" d="M1210.58,-303.5C1329.25,-300.77 1579.44,-290.71 1657,-254 1714.5,-226.79 1769.96,-187.14 1735,-134 1686.85,-60.82 1639.12,-76.67 1554,-56 1450.69,-30.91 1147.45,-18.33 996.07,-13.47"/>
<polygon fill="midnightblue" stroke="midnightblue" points="1210.47,-300 1200.55,-303.72 1210.62,-307 1210.47,-300"/>
</g>
<!-- Node16&#45;&gt;Node10 -->
<g id="edge19" class="edge">
<title>Node16&#45;&gt;Node10</title>
<path fill="none" stroke="midnightblue" d="M1093.52,-285.82C1079.5,-278.21 1066.07,-267.85 1058,-254 1048.61,-237.87 1046.08,-226.36 1058,-212 1113.45,-145.19 1165.66,-196.62 1250,-176 1263.37,-172.73 1278.05,-168.36 1290.16,-164.54"/>
<polygon fill="midnightblue" stroke="midnightblue" points="1092.26,-289.1 1102.77,-290.44 1095.39,-282.84 1092.26,-289.1"/>
</g>
<!-- Node17 -->
<g id="node17" class="node">
<title>Node17</title>
<g id="a_node17"><a xlink:href="BehaviourSystem_8cpp.html" target="_top" xlink:title=" ">
<polygon fill="none" stroke="black" points="1322,-223.5 1322,-242.5 1496,-242.5 1496,-223.5 1322,-223.5"/>
<text text-anchor="middle" x="1409" y="-230.5" font-family="Helvetica,sans-Serif" font-size="10.00">src/Behaviour/BehaviourSystem.cpp</text>
</a>
</g>
</g>
<!-- Node16&#45;&gt;Node17 -->
<g id="edge17" class="edge">
<title>Node16&#45;&gt;Node17</title>
<path fill="none" stroke="midnightblue" d="M1209.02,-287.81C1261.85,-273.6 1335.62,-253.75 1377.21,-242.55"/>
<polygon fill="midnightblue" stroke="midnightblue" points="1207.82,-284.51 1199.08,-290.49 1209.64,-291.27 1207.82,-284.51"/>
</g>
<!-- Node18 -->
<g id="node18" class="node">
<title>Node18</title>
<g id="a_node18"><a xlink:href="CollisionBehaviour_8hpp.html" target="_top" xlink:title=" ">
<polygon fill="none" stroke="black" points="1514,-212.5 1514,-253.5 1648,-253.5 1648,-212.5 1514,-212.5"/>
<text text-anchor="start" x="1522" y="-241.5" font-family="Helvetica,sans-Serif" font-size="10.00">includes/platformer</text>
<text text-anchor="start" x="1522" y="-230.5" font-family="Helvetica,sans-Serif" font-size="10.00">&#45;engine/Behaviour/Collision</text>
<text text-anchor="middle" x="1581" y="-219.5" font-family="Helvetica,sans-Serif" font-size="10.00">Behaviour.hpp</text>
</a>
</g>
</g>
<!-- Node16&#45;&gt;Node18 -->
<g id="edge21" class="edge">
<title>Node16&#45;&gt;Node18</title>
<path fill="none" stroke="midnightblue" d="M1210.96,-297.77C1282.88,-289.67 1402.95,-274.55 1505,-254 1507.94,-253.41 1510.94,-252.77 1513.96,-252.1"/>
<polygon fill="midnightblue" stroke="midnightblue" points="1210.26,-294.32 1200.71,-298.91 1211.03,-301.28 1210.26,-294.32"/>
</g>
<!-- Node20 -->
<g id="node20" class="node">
<title>Node20</title>
<g id="a_node20"><a xlink:href="GameObjectBuilder_8hpp.html" target="_top" xlink:title=" ">
<polygon fill="none" stroke="black" points="1390.5,-134.5 1390.5,-175.5 1529.5,-175.5 1529.5,-134.5 1390.5,-134.5"/>
<text text-anchor="start" x="1398.5" y="-163.5" font-family="Helvetica,sans-Serif" font-size="10.00">includes/platformer</text>
<text text-anchor="start" x="1398.5" y="-152.5" font-family="Helvetica,sans-Serif" font-size="10.00">&#45;engine/Builder/GameObject</text>
<text text-anchor="middle" x="1460" y="-141.5" font-family="Helvetica,sans-Serif" font-size="10.00">Builder.hpp</text>
</a>
</g>
</g>
<!-- Node16&#45;&gt;Node20 -->
<g id="edge23" class="edge">
<title>Node16&#45;&gt;Node20</title>
<path fill="none" stroke="midnightblue" d="M1180.79,-285.51C1227.35,-259.36 1306.29,-215.13 1313,-212 1342.08,-198.44 1375.44,-185.53 1403.02,-175.53"/>
<polygon fill="midnightblue" stroke="midnightblue" points="1178.94,-282.53 1171.94,-290.48 1182.37,-288.63 1178.94,-282.53"/>
</g>
<!-- Node23 -->
<g id="node23" class="node">
<title>Node23</title>
<g id="a_node23"><a xlink:href="ObjectBuilder_8hpp.html" target="_top" xlink:title=" ">
<polygon fill="none" stroke="black" points="1066.5,-218 1066.5,-248 1227.5,-248 1227.5,-218 1066.5,-218"/>
<text text-anchor="start" x="1074.5" y="-236" font-family="Helvetica,sans-Serif" font-size="10.00">includes/platformer</text>
<text text-anchor="middle" x="1147" y="-225" font-family="Helvetica,sans-Serif" font-size="10.00">&#45;engine/Builder/ObjectBuilder.hpp</text>
</a>
</g>
</g>
<!-- Node16&#45;&gt;Node23 -->
<g id="edge28" class="edge">
<title>Node16&#45;&gt;Node23</title>
<path fill="none" stroke="midnightblue" d="M1147,-280.23C1147,-269.57 1147,-257.41 1147,-248.25"/>
<polygon fill="midnightblue" stroke="midnightblue" points="1143.5,-280.23 1147,-290.23 1150.5,-280.23 1143.5,-280.23"/>
</g>
<!-- Node19 -->
<g id="node19" class="node">
<title>Node19</title>
<g id="a_node19"><a xlink:href="CollisionBehaviour_8cpp.html" target="_top" xlink:title=" ">
<polygon fill="none" stroke="black" points="1548,-145.5 1548,-164.5 1726,-164.5 1726,-145.5 1548,-145.5"/>
<text text-anchor="middle" x="1637" y="-152.5" font-family="Helvetica,sans-Serif" font-size="10.00">src/Behaviour/CollisionBehaviour.cpp</text>
</a>
</g>
</g>
<!-- Node18&#45;&gt;Node19 -->
<g id="edge22" class="edge">
<title>Node18&#45;&gt;Node19</title>
<path fill="none" stroke="midnightblue" d="M1601.6,-204.04C1611.91,-190.05 1623.66,-174.1 1630.7,-164.55"/>
<polygon fill="midnightblue" stroke="midnightblue" points="1598.54,-202.3 1595.42,-212.43 1604.17,-206.45 1598.54,-202.3"/>
</g>
<!-- Node20&#45;&gt;Node13 -->
<g id="edge25" class="edge">
<title>Node20&#45;&gt;Node13</title>
<path fill="none" stroke="midnightblue" d="M1380.14,-133.79C1219.68,-106.04 1175.82,-114.46 1017,-98 981.36,-94.31 941.86,-90.04 908.63,-86.39"/>
<polygon fill="midnightblue" stroke="midnightblue" points="1379.92,-137.31 1390.37,-135.59 1381.13,-130.41 1379.92,-137.31"/>
</g>
<!-- Node21 -->
<g id="node21" class="node">
<title>Node21</title>
<g id="a_node21"><a xlink:href="GameObjectBuilder_8cpp.html" target="_top" xlink:title=" ">
<polygon fill="none" stroke="black" points="1375.5,-67.5 1375.5,-86.5 1544.5,-86.5 1544.5,-67.5 1375.5,-67.5"/>
<text text-anchor="middle" x="1460" y="-74.5" font-family="Helvetica,sans-Serif" font-size="10.00">src/Builder/GameObjectBuilder.cpp</text>
</a>
</g>
</g>
<!-- Node20&#45;&gt;Node21 -->
<g id="edge24" class="edge">
<title>Node20&#45;&gt;Node21</title>
<path fill="none" stroke="midnightblue" d="M1460,-124.05C1460,-110.56 1460,-95.65 1460,-86.55"/>
<polygon fill="midnightblue" stroke="midnightblue" points="1456.5,-124.43 1460,-134.43 1463.5,-124.43 1456.5,-124.43"/>
</g>
<!-- Node22 -->
<g id="node22" class="node">
<title>Node22</title>
<g id="a_node22"><a xlink:href="GameObjectDirector_8hpp.html" target="_top" xlink:title=" ">
<polygon fill="none" stroke="black" points="1025.5,-56.5 1025.5,-97.5 1168.5,-97.5 1168.5,-56.5 1025.5,-56.5"/>
<text text-anchor="start" x="1033.5" y="-85.5" font-family="Helvetica,sans-Serif" font-size="10.00">includes/platformer</text>
<text text-anchor="start" x="1033.5" y="-74.5" font-family="Helvetica,sans-Serif" font-size="10.00">&#45;engine/Director/GameObject</text>
<text text-anchor="middle" x="1097" y="-63.5" font-family="Helvetica,sans-Serif" font-size="10.00">Director.hpp</text>
</a>
</g>
</g>
<!-- Node20&#45;&gt;Node22 -->
<g id="edge26" class="edge">
<title>Node20&#45;&gt;Node22</title>
<path fill="none" stroke="midnightblue" d="M1380.38,-133.68C1302.92,-116.34 1224.09,-101.17 1168.68,-90.91"/>
<polygon fill="midnightblue" stroke="midnightblue" points="1379.78,-137.14 1390.31,-135.92 1381.32,-130.31 1379.78,-137.14"/>
</g>
<!-- Node22&#45;&gt;Node9 -->
<g id="edge27" class="edge">
<title>Node22&#45;&gt;Node9</title>
<path fill="none" stroke="midnightblue" d="M1030.49,-53.13C996.81,-41.54 957.92,-28.17 933.16,-19.65"/>
<polygon fill="midnightblue" stroke="midnightblue" points="1029.7,-56.56 1040.29,-56.5 1031.98,-49.94 1029.7,-56.56"/>
</g>
<!-- Node23&#45;&gt;Node20 -->
<g id="edge29" class="edge">
<title>Node23&#45;&gt;Node20</title>
<path fill="none" stroke="midnightblue" d="M1217.46,-215.54C1264.18,-204.55 1326.81,-189.65 1382,-176 1384.71,-175.33 1387.48,-174.64 1390.27,-173.94"/>
<polygon fill="midnightblue" stroke="midnightblue" points="1216.38,-212.2 1207.44,-217.9 1217.98,-219.01 1216.38,-212.2"/>
</g>
<!-- Node24&#45;&gt;Node7 -->
<g id="edge33" class="edge">
<title>Node24&#45;&gt;Node7</title>
<path fill="none" stroke="midnightblue" d="M483.96,-281.04C475.84,-262.26 463.98,-235.3 453,-212 445.03,-195.09 435.13,-175.62 429.49,-164.67"/>
<polygon fill="midnightblue" stroke="midnightblue" points="480.78,-282.5 487.95,-290.3 487.21,-279.73 480.78,-282.5"/>
</g>
<!-- Node24&#45;&gt;Node19 -->
<g id="edge32" class="edge">
<title>Node24&#45;&gt;Node19</title>
<path fill="none" stroke="midnightblue" d="M555.88,-290.15C720.94,-269.46 1094.09,-294.91 1237,-254 1274.1,-243.38 1276.51,-224.56 1313,-212 1409.18,-178.91 1438.93,-194.17 1539,-176 1558.14,-172.53 1579.29,-168.26 1597.02,-164.57"/>
<polygon fill="midnightblue" stroke="midnightblue" points="555.23,-286.71 545.79,-291.52 556.17,-293.65 555.23,-286.71"/>
</g>
<!-- Node25 -->
<g id="node25" class="node">
<title>Node25</title>
<g id="a_node25"><a xlink:href="RigidBody_8cpp.html" target="_top" xlink:title=" ">
<polygon fill="none" stroke="black" points="0,-145.5 0,-164.5 114,-164.5 114,-145.5 0,-145.5"/>
<text text-anchor="middle" x="57" y="-152.5" font-family="Helvetica,sans-Serif" font-size="10.00">src/API/RigidBody.cpp</text>
</a>
</g>
</g>
<!-- Node24&#45;&gt;Node25 -->
<g id="edge31" class="edge">
<title>Node24&#45;&gt;Node25</title>
<path fill="none" stroke="midnightblue" d="M432.16,-290.24C338.72,-278.88 132.76,-305.82 76,-254 50.4,-230.63 53.2,-183.96 55.65,-164.66"/>
<polygon fill="midnightblue" stroke="midnightblue" points="431.78,-293.72 442.18,-291.69 432.78,-286.8 431.78,-293.72"/>
</g>
<!-- Node26 -->
<g id="node26" class="node">
<title>Node26</title>
<g id="a_node26"><a xlink:href="IllegalCollisionBehaviourException_8hpp.html" target="_top" xlink:title=" ">
<polygon fill="none" stroke="black" points="85.5,-212.5 85.5,-253.5 242.5,-253.5 242.5,-212.5 85.5,-212.5"/>
<text text-anchor="start" x="93.5" y="-241.5" font-family="Helvetica,sans-Serif" font-size="10.00">includes/platformer</text>
<text text-anchor="start" x="93.5" y="-230.5" font-family="Helvetica,sans-Serif" font-size="10.00">&#45;engine/Exceptions/Illegal</text>
<text text-anchor="middle" x="164" y="-219.5" font-family="Helvetica,sans-Serif" font-size="10.00">CollisionBehaviourException.hpp</text>
</a>
</g>
</g>
<!-- Node24&#45;&gt;Node26 -->
<g id="edge34" class="edge">
<title>Node24&#45;&gt;Node26</title>
<path fill="none" stroke="midnightblue" d="M432.56,-289.94C362.6,-274.41 293.98,-260.2 242.69,-249.78"/>
<polygon fill="midnightblue" stroke="midnightblue" points="431.92,-293.38 442.44,-292.14 433.44,-286.55 431.92,-293.38"/>
</g>
<!-- Node27 -->
<g id="node27" class="node">
<title>Node27</title>
<g id="a_node27"><a xlink:href="PlayerRigidBody_8hpp.html" target="_top" xlink:title=" ">
<polygon fill="none" stroke="black" points="307.5,-212.5 307.5,-253.5 444.5,-253.5 444.5,-212.5 307.5,-212.5"/>
<text text-anchor="start" x="315.5" y="-241.5" font-family="Helvetica,sans-Serif" font-size="10.00">includes/platformer</text>
<text text-anchor="start" x="315.5" y="-230.5" font-family="Helvetica,sans-Serif" font-size="10.00">&#45;engine/Physics/PlayerRigid</text>
<text text-anchor="middle" x="376" y="-219.5" font-family="Helvetica,sans-Serif" font-size="10.00">Body.hpp</text>
</a>
</g>
</g>
<!-- Node24&#45;&gt;Node27 -->
<g id="edge36" class="edge">
<title>Node24&#45;&gt;Node27</title>
<path fill="none" stroke="midnightblue" d="M461.7,-285.2C445.3,-275.41 425.42,-263.53 408.94,-253.68"/>
<polygon fill="midnightblue" stroke="midnightblue" points="460.02,-288.28 470.4,-290.4 463.62,-282.27 460.02,-288.28"/>
</g>
<!-- Node26&#45;&gt;Node25 -->
<g id="edge35" class="edge">
<title>Node26&#45;&gt;Node25</title>
<path fill="none" stroke="midnightblue" d="M128.23,-206.59C107.73,-192.03 83.31,-174.69 69.04,-164.55"/>
<polygon fill="midnightblue" stroke="midnightblue" points="126.27,-209.49 136.44,-212.43 130.32,-203.78 126.27,-209.49"/>
</g>
<!-- Node27&#45;&gt;Node5 -->
<g id="edge39" class="edge">
<title>Node27&#45;&gt;Node5</title>
<path fill="none" stroke="midnightblue" d="M324.5,-208.14C292.43,-193.27 253.1,-175.05 230.45,-164.55"/>
<polygon fill="midnightblue" stroke="midnightblue" points="323.22,-211.4 333.77,-212.43 326.16,-205.05 323.22,-211.4"/>
</g>
<!-- Node27&#45;&gt;Node7 -->
<g id="edge38" class="edge">
<title>Node27&#45;&gt;Node7</title>
<path fill="none" stroke="midnightblue" d="M394.28,-203.65C403.24,-189.75 413.39,-174.01 419.49,-164.55"/>
<polygon fill="midnightblue" stroke="midnightblue" points="391.1,-202.13 388.62,-212.43 396.98,-205.92 391.1,-202.13"/>
</g>
<!-- Node27&#45;&gt;Node9 -->
<g id="edge37" class="edge">
<title>Node27&#45;&gt;Node9</title>
<path fill="none" stroke="midnightblue" d="M351.7,-204.4C336.51,-183.65 322.51,-155.26 338,-134 393.95,-57.18 674.42,-26.88 819.99,-16.19"/>
<polygon fill="midnightblue" stroke="midnightblue" points="349.09,-206.73 357.98,-212.5 354.62,-202.45 349.09,-206.73"/>
</g>
<!-- Node28&#45;&gt;Node6 -->
<g id="edge44" class="edge">
<title>Node28&#45;&gt;Node6</title>
<path fill="none" stroke="midnightblue" d="M684.7,-349.45C677.21,-339.9 668.66,-329 662.04,-320.58"/>
<polygon fill="midnightblue" stroke="midnightblue" points="682.01,-351.69 690.93,-357.4 687.51,-347.37 682.01,-351.69"/>
</g>
<!-- Node28&#45;&gt;Node19 -->
<g id="edge43" class="edge">
<title>Node28&#45;&gt;Node19</title>
<path fill="none" stroke="midnightblue" d="M763.59,-362.02C776.27,-360.22 789.56,-358.45 802,-357 992.09,-334.85 1532.11,-399 1657,-254 1679.55,-227.82 1654.96,-183.12 1642.89,-164.52"/>
<polygon fill="midnightblue" stroke="midnightblue" points="762.97,-358.57 753.57,-363.46 763.97,-365.5 762.97,-358.57"/>
</g>
</g>
</svg>
        <g id="navigator" transform="translate(0 0)" fill="#404254">
                <rect fill="#f2f5e9" fill-opacity="0.5" stroke="#606060" stroke-width=".5" x="0" y="0" width="60" height="60"/>
                <use id="zoomplus" xlink:href="#zoomPlus" x="17" y="9" onmousedown="handleZoom(evt,'in')"/>
                <use id="zoomminus" xlink:href="#zoomMin" x="42" y="9" onmousedown="handleZoom(evt,'out')"/>
                <use id="reset" xlink:href="#resetDef" x="30" y="36" onmousedown="handleReset()"/>
                <g id="arrowUp" xlink:href="#dirArrow" transform="translate(30 24)" onmousedown="handlePan(0,-1)">
                  <use xlink:href="#rim" fill="#404040">
                        <set attributeName="fill" to="#808080" begin="arrowUp.mouseover" end="arrowUp.mouseout"/>
                  </use>
                  <path fill="none" stroke="white" stroke-width="1.5" d="M0,-3.0v7 M-2.5,-0.5L0,-3.0L2.5,-0.5"/>
                </g>
                <g id="arrowRight" xlink:href="#dirArrow" transform="rotate(90) translate(36 -43)" onmousedown="handlePan(1,0)">
                  <use xlink:href="#rim" fill="#404040">
                        <set attributeName="fill" to="#808080" begin="arrowRight.mouseover" end="arrowRight.mouseout"/>
                  </use>
                  <path fill="none" stroke="white" stroke-width="1.5" d="M0,-3.0v7 M-2.5,-0.5L0,-3.0L2.5,-0.5"/>
                </g>
                <g id="arrowDown" xlink:href="#dirArrow" transform="rotate(180) translate(-30 -48)" onmousedown="handlePan(0,1)">
                  <use xlink:href="#rim" fill="#404040">
                        <set attributeName="fill" to="#808080" begin="arrowDown.mouseover" end="arrowDown.mouseout"/>
                  </use>
                  <path fill="none" stroke="white" stroke-width="1.5" d="M0,-3.0v7 M-2.5,-0.5L0,-3.0L2.5,-0.5"/>
                </g>
                <g id="arrowLeft" xlink:href="#dirArrow" transform="rotate(270) translate(-36 17)" onmousedown="handlePan(-1,0)">
                  <use xlink:href="#rim" fill="#404040">
                        <set attributeName="fill" to="#808080" begin="arrowLeft.mouseover" end="arrowLeft.mouseout"/>
                  </use>
                  <path fill="none" stroke="white" stroke-width="1.5" d="M0,-3.0v7 M-2.5,-0.5L0,-3.0L2.5,-0.5"/>
                </g>
        </g>
        <svg viewBox="0 0 15 15" width="100%" height="30px" preserveAspectRatio="xMaxYMin meet">
         <g id="arrow_out" transform="scale(0.3 0.3)">
          <a xlink:href="Collider_8hpp__dep__incl_org.svg" target="_base">
           <rect id="button" ry="5" rx="5" y="6" x="6" height="38" width="38"
                fill="#f2f5e9" fill-opacity="0.5" stroke="#606060" stroke-width="1.0"/>
           <path id="arrow"
             d="M 11.500037,31.436501 C 11.940474,20.09759 22.043105,11.32322 32.158766,21.979434 L 37.068811,17.246167 C 37.068811,17.246167 37.088388,32 37.088388,32 L 22.160133,31.978069 C 22.160133,31.978069 26.997745,27.140456 26.997745,27.140456 C 18.528582,18.264221 13.291696,25.230495 11.500037,31.436501 z"
             style="fill:#404040;"/>
          </a>
         </g>
        </svg>
</svg>
