<?xml version="1.0" encoding="UTF-8" standalone="no"?>
<!DOCTYPE svg PUBLIC "-//W3C//DTD SVG 1.1//EN"
 "http://www.w3.org/Graphics/SVG/1.1/DTD/svg11.dtd">
<!-- Generated by graphviz version 2.44.0 ()
 -->
<!-- Title: includes/spic&#45;prj&#45;api/Collider.hpp Pages: 1 -->
<!--zoomable 296 -->
<svg id="main" version="1.1" xmlns="http://www.w3.org/2000/svg" xmlns:xlink="http://www.w3.org/1999/xlink" xml:space="preserve" onload="init(evt)">
<style type="text/css"><![CDATA[
.edge:hover path { stroke: red; }
.edge:hover polygon { stroke: red; fill: red; }
]]></style>
<script type="text/javascript"><![CDATA[
var edges = document.getElementsByTagName('g');
if (edges && edges.length) {
  for (var i=0;i<edges.length;i++) {
    if (edges[i].id.substr(0,4)=='edge') {
      edges[i].setAttribute('class','edge');
    }
  }
}
]]></script>
        <defs>
                <circle id="rim" cx="0" cy="0" r="7"/>
                <circle id="rim2" cx="0" cy="0" r="3.5"/>
                <g id="zoomPlus">
                        <use xlink:href="#rim" fill="#404040">
                                <set attributeName="fill" to="#808080" begin="zoomplus.mouseover" end="zoomplus.mouseout"/>
                        </use>
                        <path d="M-4,0h8M0,-4v8" fill="none" stroke="white" stroke-width="1.5" pointer-events="none"/>
                </g>
                <g id="zoomMin">
                        <use xlink:href="#rim" fill="#404040">
                                <set attributeName="fill" to="#808080" begin="zoomminus.mouseover" end="zoomminus.mouseout"/>
                        </use>
                        <path d="M-4,0h8" fill="none" stroke="white" stroke-width="1.5" pointer-events="none"/>
                </g>
                <g id="dirArrow">
                        <path fill="none" stroke="white" stroke-width="1.5" d="M0,-3.0v7 M-2.5,-0.5L0,-3.0L2.5,-0.5"/>
                </g>
               <g id="resetDef">
                       <use xlink:href="#rim2" fill="#404040">
                               <set attributeName="fill" to="#808080" begin="reset.mouseover" end="reset.mouseout"/>
                       </use>
               </g>
        </defs>

<script type="text/javascript">
var viewWidth = 1783;
var viewHeight = 296;
var sectionId = 'dynsection-0';
</script>
<script xlink:href="svgpan.js"/>
<svg id="graph" class="graph">
<g id="viewport">
<title>includes/spic&#45;prj&#45;api/Collider.hpp</title>
<!-- Node1 -->
<g id="node1" class="node">
<title>Node1</title>
<g id="a_node1"><a xlink:title=" ">
<polygon fill="#bfbfbf" stroke="black" points="419,-257.5 419,-287.5 522,-287.5 522,-257.5 419,-257.5"/>
<text text-anchor="start" x="427" y="-275.5" font-family="Helvetica,sans-Serif" font-size="10.00">includes/spic&#45;prj&#45;api</text>
<text text-anchor="middle" x="470.5" y="-264.5" font-family="Helvetica,sans-Serif" font-size="10.00">/Collider.hpp</text>
</a>
</g>
</g>
<!-- Node2 -->
<g id="node2" class="node">
<title>Node2</title>
<g id="a_node2"><a xlink:title=" ">
<polygon fill="none" stroke="#bfbfbf" points="407.5,-201.5 407.5,-220.5 451.5,-220.5 451.5,-201.5 407.5,-201.5"/>
<text text-anchor="middle" x="429.5" y="-208.5" font-family="Helvetica,sans-Serif" font-size="10.00">vector</text>
</a>
</g>
</g>
<!-- Node1&#45;&gt;Node2 -->
<g id="edge1" class="edge">
<title>Node1&#45;&gt;Node2</title>
<path fill="none" stroke="midnightblue" d="M460.78,-257.4C454.95,-248.93 447.48,-238.1 441.31,-229.14"/>
<polygon fill="midnightblue" stroke="midnightblue" points="444.02,-226.91 435.47,-220.66 438.26,-230.88 444.02,-226.91"/>
</g>
<!-- Node3 -->
<g id="node3" class="node">
<title>Node3</title>
<g id="a_node3"><a xlink:href="Component_8hpp.html" target="_top" xlink:title=" ">
<polygon fill="none" stroke="black" points="469.5,-201.5 469.5,-220.5 553.5,-220.5 553.5,-201.5 469.5,-201.5"/>
<text text-anchor="middle" x="511.5" y="-208.5" font-family="Helvetica,sans-Serif" font-size="10.00">Component.hpp</text>
</a>
</g>
</g>
<!-- Node1&#45;&gt;Node3 -->
<g id="edge2" class="edge">
<title>Node1&#45;&gt;Node3</title>
<path fill="none" stroke="midnightblue" d="M480.22,-257.4C486.05,-248.93 493.52,-238.1 499.69,-229.14"/>
<polygon fill="midnightblue" stroke="midnightblue" points="502.74,-230.88 505.53,-220.66 496.98,-226.91 502.74,-230.88"/>
</g>
<!-- Node4 -->
<g id="node4" class="node">
<title>Node4</title>
<g id="a_node4"><a xlink:title=" ">
<polygon fill="none" stroke="#bfbfbf" points="0,-140 0,-159 51,-159 51,-140 0,-140"/>
<text text-anchor="middle" x="25.5" y="-147" font-family="Helvetica,sans-Serif" font-size="10.00">memory</text>
</a>
</g>
</g>
<!-- Node3&#45;&gt;Node4 -->
<g id="edge3" class="edge">
<title>Node3&#45;&gt;Node4</title>
<path fill="none" stroke="midnightblue" d="M469.24,-202.26C466.29,-201.8 463.35,-201.38 460.5,-201 283.12,-177.43 233.04,-208.63 59.5,-165 57.14,-164.41 54.73,-163.67 52.34,-162.84"/>
<polygon fill="midnightblue" stroke="midnightblue" points="53.37,-159.49 42.78,-159.11 50.82,-166.01 53.37,-159.49"/>
</g>
<!-- Node5 -->
<g id="node5" class="node">
<title>Node5</title>
<g id="a_node5"><a xlink:title=" ">
<polygon fill="none" stroke="#bfbfbf" points="69,-134.5 69,-164.5 164,-164.5 164,-134.5 69,-134.5"/>
<text text-anchor="start" x="77" y="-152.5" font-family="Helvetica,sans-Serif" font-size="10.00">boost/serialization</text>
<text text-anchor="middle" x="116.5" y="-141.5" font-family="Helvetica,sans-Serif" font-size="10.00">/access.hpp</text>
</a>
</g>
</g>
<!-- Node3&#45;&gt;Node5 -->
<g id="edge4" class="edge">
<title>Node3&#45;&gt;Node5</title>
<path fill="none" stroke="midnightblue" d="M469.23,-202.37C466.28,-201.89 463.35,-201.43 460.5,-201 336.18,-182.27 300.98,-188.86 174.17,-165.17"/>
<polygon fill="midnightblue" stroke="midnightblue" points="174.54,-161.68 164.06,-163.26 173.24,-168.56 174.54,-161.68"/>
</g>
<!-- Node6 -->
<g id="node6" class="node">
<title>Node6</title>
<g id="a_node6"><a xlink:title=" ">
<polygon fill="none" stroke="#bfbfbf" points="182,-134.5 182,-164.5 277,-164.5 277,-134.5 182,-134.5"/>
<text text-anchor="start" x="190" y="-152.5" font-family="Helvetica,sans-Serif" font-size="10.00">boost/serialization</text>
<text text-anchor="middle" x="229.5" y="-141.5" font-family="Helvetica,sans-Serif" font-size="10.00">/map.hpp</text>
</a>
</g>
</g>
<!-- Node3&#45;&gt;Node6 -->
<g id="edge5" class="edge">
<title>Node3&#45;&gt;Node6</title>
<path fill="none" stroke="midnightblue" d="M469.28,-202.34C425.9,-194.29 356.18,-180.92 287.27,-165.34"/>
<polygon fill="midnightblue" stroke="midnightblue" points="287.64,-161.83 277.11,-163.02 286.09,-168.66 287.64,-161.83"/>
</g>
<!-- Node7 -->
<g id="node7" class="node">
<title>Node7</title>
<g id="a_node7"><a xlink:title=" ">
<polygon fill="none" stroke="#bfbfbf" points="295,-134.5 295,-164.5 390,-164.5 390,-134.5 295,-134.5"/>
<text text-anchor="start" x="303" y="-152.5" font-family="Helvetica,sans-Serif" font-size="10.00">boost/serialization</text>
<text text-anchor="middle" x="342.5" y="-141.5" font-family="Helvetica,sans-Serif" font-size="10.00">/vector.hpp</text>
</a>
</g>
</g>
<!-- Node3&#45;&gt;Node7 -->
<g id="edge6" class="edge">
<title>Node3&#45;&gt;Node7</title>
<path fill="none" stroke="midnightblue" d="M487.29,-201.48C462.47,-192.74 423.19,-178.91 391.79,-167.86"/>
<polygon fill="midnightblue" stroke="midnightblue" points="392.92,-164.54 382.33,-164.52 390.6,-171.15 392.92,-164.54"/>
</g>
<!-- Node8 -->
<g id="node8" class="node">
<title>Node8</title>
<g id="a_node8"><a xlink:title=" ">
<polygon fill="none" stroke="#bfbfbf" points="408,-134.5 408,-164.5 503,-164.5 503,-134.5 408,-134.5"/>
<text text-anchor="start" x="416" y="-152.5" font-family="Helvetica,sans-Serif" font-size="10.00">boost/serialization</text>
<text text-anchor="middle" x="455.5" y="-141.5" font-family="Helvetica,sans-Serif" font-size="10.00">/shared_ptr.hpp</text>
</a>
</g>
</g>
<!-- Node3&#45;&gt;Node8 -->
<g id="edge7" class="edge">
<title>Node3&#45;&gt;Node8</title>
<path fill="none" stroke="midnightblue" d="M503.48,-201.48C496.25,-193.79 485.31,-182.17 475.7,-171.96"/>
<polygon fill="midnightblue" stroke="midnightblue" points="478.1,-169.41 468.7,-164.52 473,-174.2 478.1,-169.41"/>
</g>
<!-- Node9 -->
<g id="node9" class="node">
<title>Node9</title>
<g id="a_node9"><a xlink:title=" ">
<polygon fill="none" stroke="#bfbfbf" points="521,-134.5 521,-164.5 616,-164.5 616,-134.5 521,-134.5"/>
<text text-anchor="start" x="529" y="-152.5" font-family="Helvetica,sans-Serif" font-size="10.00">boost/serialization</text>
<text text-anchor="middle" x="568.5" y="-141.5" font-family="Helvetica,sans-Serif" font-size="10.00">/export.hpp</text>
</a>
</g>
</g>
<!-- Node3&#45;&gt;Node9 -->
<g id="edge8" class="edge">
<title>Node3&#45;&gt;Node9</title>
<path fill="none" stroke="midnightblue" d="M519.67,-201.48C527.03,-193.79 538.16,-182.17 547.94,-171.96"/>
<polygon fill="midnightblue" stroke="midnightblue" points="550.68,-174.17 555.07,-164.52 545.62,-169.32 550.68,-174.17"/>
</g>
<!-- Node10 -->
<g id="node10" class="node">
<title>Node10</title>
<g id="a_node10"><a xlink:title=" ">
<polygon fill="none" stroke="#bfbfbf" points="634.5,-134.5 634.5,-164.5 738.5,-164.5 738.5,-134.5 634.5,-134.5"/>
<text text-anchor="start" x="642.5" y="-152.5" font-family="Helvetica,sans-Serif" font-size="10.00">boost/archive/binary</text>
<text text-anchor="middle" x="686.5" y="-141.5" font-family="Helvetica,sans-Serif" font-size="10.00">_iarchive.hpp</text>
</a>
</g>
</g>
<!-- Node3&#45;&gt;Node10 -->
<g id="edge9" class="edge">
<title>Node3&#45;&gt;Node10</title>
<path fill="none" stroke="midnightblue" d="M536.57,-201.48C562.27,-192.74 602.95,-178.91 635.46,-167.86"/>
<polygon fill="midnightblue" stroke="midnightblue" points="636.91,-171.06 645.26,-164.52 634.66,-164.43 636.91,-171.06"/>
</g>
<!-- Node11 -->
<g id="node11" class="node">
<title>Node11</title>
<g id="a_node11"><a xlink:title=" ">
<polygon fill="none" stroke="#bfbfbf" points="756.5,-134.5 756.5,-164.5 860.5,-164.5 860.5,-134.5 756.5,-134.5"/>
<text text-anchor="start" x="764.5" y="-152.5" font-family="Helvetica,sans-Serif" font-size="10.00">boost/archive/binary</text>
<text text-anchor="middle" x="808.5" y="-141.5" font-family="Helvetica,sans-Serif" font-size="10.00">_oarchive.hpp</text>
</a>
</g>
</g>
<!-- Node3&#45;&gt;Node11 -->
<g id="edge10" class="edge">
<title>Node3&#45;&gt;Node11</title>
<path fill="none" stroke="midnightblue" d="M553.82,-202.52C599.11,-194.39 673.28,-180.69 746.45,-165.17"/>
<polygon fill="midnightblue" stroke="midnightblue" points="747.24,-168.58 756.29,-163.07 745.78,-161.74 747.24,-168.58"/>
</g>
<!-- Node12 -->
<g id="node12" class="node">
<title>Node12</title>
<g id="a_node12"><a xlink:href="portable__binary__iarchive_8hpp.html" target="_top" xlink:title=" ">
<polygon fill="none" stroke="black" points="1194,-134.5 1194,-164.5 1325,-164.5 1325,-134.5 1194,-134.5"/>
<text text-anchor="start" x="1202" y="-152.5" font-family="Helvetica,sans-Serif" font-size="10.00">Networking/boost/portable</text>
<text text-anchor="middle" x="1259.5" y="-141.5" font-family="Helvetica,sans-Serif" font-size="10.00">_binary_iarchive.hpp</text>
</a>
</g>
</g>
<!-- Node3&#45;&gt;Node12 -->
<g id="edge11" class="edge">
<title>Node3&#45;&gt;Node12</title>
<path fill="none" stroke="midnightblue" d="M553.59,-206.65C675.11,-196.99 1027.79,-168.93 1183.77,-156.52"/>
<polygon fill="midnightblue" stroke="midnightblue" points="1184.07,-160.01 1193.76,-155.73 1183.51,-153.03 1184.07,-160.01"/>
</g>
<!-- Node27 -->
<g id="node27" class="node">
<title>Node27</title>
<g id="a_node27"><a xlink:href="portable__binary__oarchive_8hpp.html" target="_top" xlink:title=" ">
<polygon fill="none" stroke="black" points="879,-134.5 879,-164.5 1010,-164.5 1010,-134.5 879,-134.5"/>
<text text-anchor="start" x="887" y="-152.5" font-family="Helvetica,sans-Serif" font-size="10.00">Networking/boost/portable</text>
<text text-anchor="middle" x="944.5" y="-141.5" font-family="Helvetica,sans-Serif" font-size="10.00">_binary_oarchive.hpp</text>
</a>
</g>
</g>
<!-- Node3&#45;&gt;Node27 -->
<g id="edge26" class="edge">
<title>Node3&#45;&gt;Node27</title>
<path fill="none" stroke="midnightblue" d="M553.51,-205.63C618.7,-198.65 748.34,-183.97 868.58,-165.08"/>
<polygon fill="midnightblue" stroke="midnightblue" points="869.36,-168.5 878.69,-163.48 868.27,-161.59 869.36,-168.5"/>
</g>
<!-- Node13 -->
<g id="node13" class="node">
<title>Node13</title>
<g id="a_node13"><a xlink:title=" ">
<polygon fill="none" stroke="#bfbfbf" points="1726,-73 1726,-92 1775,-92 1775,-73 1726,-73"/>
<text text-anchor="middle" x="1750.5" y="-80" font-family="Helvetica,sans-Serif" font-size="10.00">istream</text>
</a>
</g>
</g>
<!-- Node12&#45;&gt;Node13 -->
<g id="edge12" class="edge">
<title>Node12&#45;&gt;Node13</title>
<path fill="none" stroke="midnightblue" d="M1325.3,-147.25C1415.1,-144.18 1580.42,-133.7 1716.5,-98 1718.86,-97.38 1721.26,-96.63 1723.65,-95.79"/>
<polygon fill="midnightblue" stroke="midnightblue" points="1725.17,-98.95 1733.2,-92.03 1722.61,-92.44 1725.17,-98.95"/>
</g>
<!-- Node14 -->
<g id="node14" class="node">
<title>Node14</title>
<g id="a_node14"><a xlink:title=" ">
<polygon fill="none" stroke="#bfbfbf" points="964,-67.5 964,-97.5 1059,-97.5 1059,-67.5 964,-67.5"/>
<text text-anchor="start" x="972" y="-85.5" font-family="Helvetica,sans-Serif" font-size="10.00">boost/serialization</text>
<text text-anchor="middle" x="1011.5" y="-74.5" font-family="Helvetica,sans-Serif" font-size="10.00">/string.hpp</text>
</a>
</g>
</g>
<!-- Node12&#45;&gt;Node14 -->
<g id="edge13" class="edge">
<title>Node12&#45;&gt;Node14</title>
<path fill="none" stroke="midnightblue" d="M1205.99,-134.48C1165.61,-123.89 1110.29,-109.39 1068.97,-98.56"/>
<polygon fill="midnightblue" stroke="midnightblue" points="1069.61,-95.11 1059.05,-95.96 1067.83,-101.88 1069.61,-95.11"/>
</g>
<!-- Node15 -->
<g id="node15" class="node">
<title>Node15</title>
<g id="a_node15"><a xlink:title=" ">
<polygon fill="none" stroke="#bfbfbf" points="1331.5,-67.5 1331.5,-97.5 1447.5,-97.5 1447.5,-67.5 1331.5,-67.5"/>
<text text-anchor="start" x="1339.5" y="-85.5" font-family="Helvetica,sans-Serif" font-size="10.00">boost/serialization</text>
<text text-anchor="middle" x="1389.5" y="-74.5" font-family="Helvetica,sans-Serif" font-size="10.00">/item_version_type.hpp</text>
</a>
</g>
</g>
<!-- Node12&#45;&gt;Node15 -->
<g id="edge14" class="edge">
<title>Node12&#45;&gt;Node15</title>
<path fill="none" stroke="midnightblue" d="M1287.71,-134.4C1306.62,-124.94 1331.72,-112.39 1352.27,-102.12"/>
<polygon fill="midnightblue" stroke="midnightblue" points="1353.97,-105.18 1361.35,-97.58 1350.84,-98.92 1353.97,-105.18"/>
</g>
<!-- Node16 -->
<g id="node16" class="node">
<title>Node16</title>
<g id="a_node16"><a xlink:title=" ">
<polygon fill="none" stroke="#bfbfbf" points="1077.5,-67.5 1077.5,-97.5 1187.5,-97.5 1187.5,-67.5 1077.5,-67.5"/>
<text text-anchor="start" x="1085.5" y="-85.5" font-family="Helvetica,sans-Serif" font-size="10.00">boost/archive/archive</text>
<text text-anchor="middle" x="1132.5" y="-74.5" font-family="Helvetica,sans-Serif" font-size="10.00">_exception.hpp</text>
</a>
</g>
</g>
<!-- Node12&#45;&gt;Node16 -->
<g id="edge15" class="edge">
<title>Node12&#45;&gt;Node16</title>
<path fill="none" stroke="midnightblue" d="M1231.94,-134.4C1213.55,-124.98 1189.17,-112.5 1169.15,-102.26"/>
<polygon fill="midnightblue" stroke="midnightblue" points="1170.5,-99.02 1160,-97.58 1167.31,-105.25 1170.5,-99.02"/>
</g>
<!-- Node17 -->
<g id="node17" class="node">
<title>Node17</title>
<g id="a_node17"><a xlink:title=" ">
<polygon fill="none" stroke="#bfbfbf" points="1465.5,-67.5 1465.5,-97.5 1575.5,-97.5 1575.5,-67.5 1465.5,-67.5"/>
<text text-anchor="start" x="1473.5" y="-85.5" font-family="Helvetica,sans-Serif" font-size="10.00">boost/archive/basic</text>
<text text-anchor="middle" x="1520.5" y="-74.5" font-family="Helvetica,sans-Serif" font-size="10.00">_binary_iprimitive.hpp</text>
</a>
</g>
</g>
<!-- Node12&#45;&gt;Node17 -->
<g id="edge16" class="edge">
<title>Node12&#45;&gt;Node17</title>
<path fill="none" stroke="midnightblue" d="M1315.81,-134.48C1356.82,-124.26 1412.48,-110.4 1455.4,-99.71"/>
<polygon fill="midnightblue" stroke="midnightblue" points="1456.33,-103.09 1465.19,-97.28 1454.64,-96.3 1456.33,-103.09"/>
</g>
<!-- Node18 -->
<g id="node18" class="node">
<title>Node18</title>
<g id="a_node18"><a xlink:title=" ">
<polygon fill="none" stroke="#bfbfbf" points="1593.5,-67.5 1593.5,-97.5 1707.5,-97.5 1707.5,-67.5 1593.5,-67.5"/>
<text text-anchor="start" x="1601.5" y="-85.5" font-family="Helvetica,sans-Serif" font-size="10.00">boost/archive/detail</text>
<text text-anchor="middle" x="1650.5" y="-74.5" font-family="Helvetica,sans-Serif" font-size="10.00">/common_iarchive.hpp</text>
</a>
</g>
</g>
<!-- Node12&#45;&gt;Node18 -->
<g id="edge17" class="edge">
<title>Node12&#45;&gt;Node18</title>
<path fill="none" stroke="midnightblue" d="M1325.07,-139.53C1388.6,-130.56 1487.91,-115.82 1583.21,-98.18"/>
<polygon fill="midnightblue" stroke="midnightblue" points="1584.12,-101.57 1593.31,-96.29 1582.83,-94.69 1584.12,-101.57"/>
</g>
<!-- Node19 -->
<g id="node19" class="node">
<title>Node19</title>
<g id="a_node19"><a xlink:title=" ">
<polygon fill="none" stroke="#bfbfbf" points="1206,-67.5 1206,-97.5 1313,-97.5 1313,-67.5 1206,-67.5"/>
<text text-anchor="start" x="1214" y="-85.5" font-family="Helvetica,sans-Serif" font-size="10.00">boost/archive/detail</text>
<text text-anchor="middle" x="1259.5" y="-74.5" font-family="Helvetica,sans-Serif" font-size="10.00">/register_archive.hpp</text>
</a>
</g>
</g>
<!-- Node12&#45;&gt;Node19 -->
<g id="edge18" class="edge">
<title>Node12&#45;&gt;Node19</title>
<path fill="none" stroke="midnightblue" d="M1259.5,-134.4C1259.5,-126.64 1259.5,-116.81 1259.5,-107.86"/>
<polygon fill="midnightblue" stroke="midnightblue" points="1263,-107.58 1259.5,-97.58 1256,-107.58 1263,-107.58"/>
</g>
<!-- Node20 -->
<g id="node20" class="node">
<title>Node20</title>
<g id="a_node20"><a xlink:href="portable__binary__archive_8hpp.html" target="_top" xlink:title=" ">
<polygon fill="none" stroke="black" points="809,-73 809,-92 946,-92 946,-73 809,-73"/>
<text text-anchor="middle" x="877.5" y="-80" font-family="Helvetica,sans-Serif" font-size="10.00">portable_binary_archive.hpp</text>
</a>
</g>
</g>
<!-- Node12&#45;&gt;Node20 -->
<g id="edge19" class="edge">
<title>Node12&#45;&gt;Node20</title>
<path fill="none" stroke="midnightblue" d="M1193.91,-137.98C1132.3,-128 1037.57,-112.44 955.5,-98 948.05,-96.69 940.2,-95.27 932.48,-93.86"/>
<polygon fill="midnightblue" stroke="midnightblue" points="932.9,-90.38 922.43,-92 931.63,-97.26 932.9,-90.38"/>
</g>
<!-- Node21 -->
<g id="node21" class="node">
<title>Node21</title>
<g id="a_node21"><a xlink:title=" ">
<polygon fill="none" stroke="#bfbfbf" points="554,-6 554,-25 641,-25 641,-6 554,-6"/>
<text text-anchor="middle" x="597.5" y="-13" font-family="Helvetica,sans-Serif" font-size="10.00">boost/config.hpp</text>
</a>
</g>
</g>
<!-- Node20&#45;&gt;Node21 -->
<g id="edge20" class="edge">
<title>Node20&#45;&gt;Node21</title>
<path fill="none" stroke="midnightblue" d="M835.74,-72.96C789.89,-63.41 714.2,-47.17 649.5,-31 645.41,-29.98 641.15,-28.87 636.91,-27.73"/>
<polygon fill="midnightblue" stroke="midnightblue" points="637.69,-24.32 627.13,-25.06 635.85,-31.07 637.69,-24.32"/>
</g>
<!-- Node22 -->
<g id="node22" class="node">
<title>Node22</title>
<g id="a_node22"><a xlink:title=" ">
<polygon fill="none" stroke="#bfbfbf" points="659,-6 659,-25 750,-25 750,-6 659,-6"/>
<text text-anchor="middle" x="704.5" y="-13" font-family="Helvetica,sans-Serif" font-size="10.00">boost/cstdint.hpp</text>
</a>
</g>
</g>
<!-- Node20&#45;&gt;Node22 -->
<g id="edge21" class="edge">
<title>Node20&#45;&gt;Node22</title>
<path fill="none" stroke="midnightblue" d="M854.53,-72.87C824.33,-61.52 771.1,-41.52 736.84,-28.65"/>
<polygon fill="midnightblue" stroke="midnightblue" points="737.88,-25.3 727.29,-25.06 735.42,-31.86 737.88,-25.3"/>
</g>
<!-- Node23 -->
<g id="node23" class="node">
<title>Node23</title>
<g id="a_node23"><a xlink:title=" ">
<polygon fill="none" stroke="#bfbfbf" points="768.5,-6 768.5,-25 886.5,-25 886.5,-6 768.5,-6"/>
<text text-anchor="middle" x="827.5" y="-13" font-family="Helvetica,sans-Serif" font-size="10.00">boost/static_assert.hpp</text>
</a>
</g>
</g>
<!-- Node20&#45;&gt;Node23 -->
<g id="edge22" class="edge">
<title>Node20&#45;&gt;Node23</title>
<path fill="none" stroke="midnightblue" d="M870.76,-72.73C862.96,-62.6 849.95,-45.69 840.24,-33.06"/>
<polygon fill="midnightblue" stroke="midnightblue" points="843.01,-30.92 834.14,-25.13 837.46,-35.19 843.01,-30.92"/>
</g>
<!-- Node24 -->
<g id="node24" class="node">
<title>Node24</title>
<g id="a_node24"><a xlink:title=" ">
<polygon fill="none" stroke="#bfbfbf" points="905,-6 905,-25 950,-25 950,-6 905,-6"/>
<text text-anchor="middle" x="927.5" y="-13" font-family="Helvetica,sans-Serif" font-size="10.00">climits</text>
</a>
</g>
</g>
<!-- Node20&#45;&gt;Node24 -->
<g id="edge23" class="edge">
<title>Node20&#45;&gt;Node24</title>
<path fill="none" stroke="midnightblue" d="M884.24,-72.73C892.04,-62.6 905.05,-45.69 914.76,-33.06"/>
<polygon fill="midnightblue" stroke="midnightblue" points="917.54,-35.19 920.86,-25.13 911.99,-30.92 917.54,-35.19"/>
</g>
<!-- Node25 -->
<g id="node25" class="node">
<title>Node25</title>
<g id="a_node25"><a xlink:title=" ">
<polygon fill="none" stroke="#bfbfbf" points="968,-0.5 968,-30.5 1069,-30.5 1069,-0.5 968,-0.5"/>
<text text-anchor="start" x="976" y="-18.5" font-family="Helvetica,sans-Serif" font-size="10.00">boost/archive/basic</text>
<text text-anchor="middle" x="1018.5" y="-7.5" font-family="Helvetica,sans-Serif" font-size="10.00">_archive.hpp</text>
</a>
</g>
</g>
<!-- Node20&#45;&gt;Node25 -->
<g id="edge24" class="edge">
<title>Node20&#45;&gt;Node25</title>
<path fill="none" stroke="midnightblue" d="M896.22,-72.87C917.2,-63.2 951.8,-47.25 978.85,-34.78"/>
<polygon fill="midnightblue" stroke="midnightblue" points="980.45,-37.89 988.07,-30.53 977.52,-31.54 980.45,-37.89"/>
</g>
<!-- Node26 -->
<g id="node26" class="node">
<title>Node26</title>
<g id="a_node26"><a xlink:title=" ">
<polygon fill="none" stroke="#bfbfbf" points="1087,-0.5 1087,-30.5 1182,-30.5 1182,-0.5 1087,-0.5"/>
<text text-anchor="start" x="1095" y="-18.5" font-family="Helvetica,sans-Serif" font-size="10.00">boost/predef/other</text>
<text text-anchor="middle" x="1134.5" y="-7.5" font-family="Helvetica,sans-Serif" font-size="10.00">/endian.h</text>
</a>
</g>
</g>
<!-- Node20&#45;&gt;Node26 -->
<g id="edge25" class="edge">
<title>Node20&#45;&gt;Node26</title>
<path fill="none" stroke="midnightblue" d="M911.66,-73C949.72,-63.51 1013.33,-47.59 1077.04,-31.36"/>
<polygon fill="midnightblue" stroke="midnightblue" points="1078.02,-34.73 1086.85,-28.86 1076.29,-27.94 1078.02,-34.73"/>
</g>
<!-- Node27&#45;&gt;Node14 -->
<g id="edge28" class="edge">
<title>Node27&#45;&gt;Node14</title>
<path fill="none" stroke="midnightblue" d="M959.04,-134.4C967.99,-125.71 979.64,-114.4 989.69,-104.66"/>
<polygon fill="midnightblue" stroke="midnightblue" points="992.25,-107.05 996.99,-97.58 987.38,-102.03 992.25,-107.05"/>
</g>
<!-- Node27&#45;&gt;Node16 -->
<g id="edge29" class="edge">
<title>Node27&#45;&gt;Node16</title>
<path fill="none" stroke="midnightblue" d="M985.29,-134.4C1013.75,-124.56 1051.9,-111.37 1082.23,-100.88"/>
<polygon fill="midnightblue" stroke="midnightblue" points="1083.48,-104.15 1091.79,-97.58 1081.19,-97.54 1083.48,-104.15"/>
</g>
<!-- Node27&#45;&gt;Node19 -->
<g id="edge32" class="edge">
<title>Node27&#45;&gt;Node19</title>
<path fill="none" stroke="midnightblue" d="M1010.14,-135.88C1058.67,-126.42 1126.63,-112.93 1195.71,-98.14"/>
<polygon fill="midnightblue" stroke="midnightblue" points="1196.87,-101.47 1205.91,-95.94 1195.39,-94.62 1196.87,-101.47"/>
</g>
<!-- Node27&#45;&gt;Node20 -->
<g id="edge33" class="edge">
<title>Node27&#45;&gt;Node20</title>
<path fill="none" stroke="midnightblue" d="M929.96,-134.4C919.31,-124.06 904.84,-110.02 893.8,-99.31"/>
<polygon fill="midnightblue" stroke="midnightblue" points="896.08,-96.65 886.46,-92.19 891.2,-101.67 896.08,-96.65"/>
</g>
<!-- Node28 -->
<g id="node28" class="node">
<title>Node28</title>
<g id="a_node28"><a xlink:title=" ">
<polygon fill="none" stroke="#bfbfbf" points="472.5,-73 472.5,-92 524.5,-92 524.5,-73 472.5,-73"/>
<text text-anchor="middle" x="498.5" y="-80" font-family="Helvetica,sans-Serif" font-size="10.00">ostream</text>
</a>
</g>
</g>
<!-- Node27&#45;&gt;Node28 -->
<g id="edge27" class="edge">
<title>Node27&#45;&gt;Node28</title>
<path fill="none" stroke="midnightblue" d="M878.7,-135.45C875.6,-134.94 872.52,-134.45 869.5,-134 720.97,-111.73 679.03,-135.12 533.5,-98 530.99,-97.36 528.43,-96.57 525.88,-95.7"/>
<polygon fill="midnightblue" stroke="midnightblue" points="526.92,-92.35 516.33,-92.04 524.41,-98.89 526.92,-92.35"/>
</g>
<!-- Node29 -->
<g id="node29" class="node">
<title>Node29</title>
<g id="a_node29"><a xlink:title=" ">
<polygon fill="none" stroke="#bfbfbf" points="543,-67.5 543,-97.5 656,-97.5 656,-67.5 543,-67.5"/>
<text text-anchor="start" x="551" y="-85.5" font-family="Helvetica,sans-Serif" font-size="10.00">boost/archive/basic</text>
<text text-anchor="middle" x="599.5" y="-74.5" font-family="Helvetica,sans-Serif" font-size="10.00">_binary_oprimitive.hpp</text>
</a>
</g>
</g>
<!-- Node27&#45;&gt;Node29 -->
<g id="edge30" class="edge">
<title>Node27&#45;&gt;Node29</title>
<path fill="none" stroke="midnightblue" d="M878.66,-135.71C875.57,-135.12 872.5,-134.55 869.5,-134 781.64,-117.79 756.89,-116.17 666.08,-98.27"/>
<polygon fill="midnightblue" stroke="midnightblue" points="666.68,-94.82 656.19,-96.31 665.32,-101.68 666.68,-94.82"/>
</g>
<!-- Node30 -->
<g id="node30" class="node">
<title>Node30</title>
<g id="a_node30"><a xlink:title=" ">
<polygon fill="none" stroke="#bfbfbf" points="674,-67.5 674,-97.5 791,-97.5 791,-67.5 674,-67.5"/>
<text text-anchor="start" x="682" y="-85.5" font-family="Helvetica,sans-Serif" font-size="10.00">boost/archive/detail</text>
<text text-anchor="middle" x="732.5" y="-74.5" font-family="Helvetica,sans-Serif" font-size="10.00">/common_oarchive.hpp</text>
</a>
</g>
</g>
<!-- Node27&#45;&gt;Node30 -->
<g id="edge31" class="edge">
<title>Node27&#45;&gt;Node30</title>
<path fill="none" stroke="midnightblue" d="M898.76,-134.48C866.41,-124.56 822.85,-111.2 788.43,-100.65"/>
<polygon fill="midnightblue" stroke="midnightblue" points="789.11,-97.2 778.52,-97.61 787.06,-103.89 789.11,-97.2"/>
</g>
</g>
</svg>
        <g id="navigator" transform="translate(0 0)" fill="#404254">
                <rect fill="#f2f5e9" fill-opacity="0.5" stroke="#606060" stroke-width=".5" x="0" y="0" width="60" height="60"/>
                <use id="zoomplus" xlink:href="#zoomPlus" x="17" y="9" onmousedown="handleZoom(evt,'in')"/>
                <use id="zoomminus" xlink:href="#zoomMin" x="42" y="9" onmousedown="handleZoom(evt,'out')"/>
                <use id="reset" xlink:href="#resetDef" x="30" y="36" onmousedown="handleReset()"/>
                <g id="arrowUp" xlink:href="#dirArrow" transform="translate(30 24)" onmousedown="handlePan(0,-1)">
                  <use xlink:href="#rim" fill="#404040">
                        <set attributeName="fill" to="#808080" begin="arrowUp.mouseover" end="arrowUp.mouseout"/>
                  </use>
                  <path fill="none" stroke="white" stroke-width="1.5" d="M0,-3.0v7 M-2.5,-0.5L0,-3.0L2.5,-0.5"/>
                </g>
                <g id="arrowRight" xlink:href="#dirArrow" transform="rotate(90) translate(36 -43)" onmousedown="handlePan(1,0)">
                  <use xlink:href="#rim" fill="#404040">
                        <set attributeName="fill" to="#808080" begin="arrowRight.mouseover" end="arrowRight.mouseout"/>
                  </use>
                  <path fill="none" stroke="white" stroke-width="1.5" d="M0,-3.0v7 M-2.5,-0.5L0,-3.0L2.5,-0.5"/>
                </g>
                <g id="arrowDown" xlink:href="#dirArrow" transform="rotate(180) translate(-30 -48)" onmousedown="handlePan(0,1)">
                  <use xlink:href="#rim" fill="#404040">
                        <set attributeName="fill" to="#808080" begin="arrowDown.mouseover" end="arrowDown.mouseout"/>
                  </use>
                  <path fill="none" stroke="white" stroke-width="1.5" d="M0,-3.0v7 M-2.5,-0.5L0,-3.0L2.5,-0.5"/>
                </g>
                <g id="arrowLeft" xlink:href="#dirArrow" transform="rotate(270) translate(-36 17)" onmousedown="handlePan(-1,0)">
                  <use xlink:href="#rim" fill="#404040">
                        <set attributeName="fill" to="#808080" begin="arrowLeft.mouseover" end="arrowLeft.mouseout"/>
                  </use>
                  <path fill="none" stroke="white" stroke-width="1.5" d="M0,-3.0v7 M-2.5,-0.5L0,-3.0L2.5,-0.5"/>
                </g>
        </g>
        <svg viewBox="0 0 15 15" width="100%" height="30px" preserveAspectRatio="xMaxYMin meet">
         <g id="arrow_out" transform="scale(0.3 0.3)">
          <a xlink:href="Collider_8hpp__incl_org.svg" target="_base">
           <rect id="button" ry="5" rx="5" y="6" x="6" height="38" width="38"
                fill="#f2f5e9" fill-opacity="0.5" stroke="#606060" stroke-width="1.0"/>
           <path id="arrow"
             d="M 11.500037,31.436501 C 11.940474,20.09759 22.043105,11.32322 32.158766,21.979434 L 37.068811,17.246167 C 37.068811,17.246167 37.088388,32 37.088388,32 L 22.160133,31.978069 C 22.160133,31.978069 26.997745,27.140456 26.997745,27.140456 C 18.528582,18.264221 13.291696,25.230495 11.500037,31.436501 z"
             style="fill:#404040;"/>
          </a>
         </g>
        </svg>
</svg>
