<?xml version="1.0" encoding="UTF-8" standalone="no"?>
<!DOCTYPE svg PUBLIC "-//W3C//DTD SVG 1.1//EN"
 "http://www.w3.org/Graphics/SVG/1.1/DTD/svg11.dtd">
<!-- Generated by graphviz version 2.44.0 ()
 -->
<!-- Title: includes/platformer&#45;engine/Physics/Collision.hpp Pages: 1 -->
<svg width="511pt" height="218pt"
 viewBox="0.00 0.00 511.00 218.00" xmlns="http://www.w3.org/2000/svg" xmlns:xlink="http://www.w3.org/1999/xlink">
<g id="graph0" class="graph" transform="scale(1 1) rotate(0) translate(4 214)">
<title>includes/platformer&#45;engine/Physics/Collision.hpp</title>
<!-- Node1 -->
<g id="node1" class="node">
<title>Node1</title>
<g id="a_node1"><a xlink:title=" ">
<polygon fill="#bfbfbf" stroke="black" points="152,-179.5 152,-209.5 295,-209.5 295,-179.5 152,-179.5"/>
<text text-anchor="start" x="160" y="-197.5" font-family="Helvetica,sans-Serif" font-size="10.00">includes/platformer</text>
<text text-anchor="middle" x="223.5" y="-186.5" font-family="Helvetica,sans-Serif" font-size="10.00">&#45;engine/Physics/Collision.hpp</text>
</a>
</g>
</g>
<!-- Node2 -->
<g id="node2" class="node">
<title>Node2</title>
<g id="a_node2"><a xlink:title=" ">
<polygon fill="none" stroke="#bfbfbf" points="0,-6 0,-25 51,-25 51,-6 0,-6"/>
<text text-anchor="middle" x="25.5" y="-13" font-family="Helvetica,sans-Serif" font-size="10.00">memory</text>
</a>
</g>
</g>
<!-- Node1&#45;&gt;Node2 -->
<g id="edge1" class="edge">
<title>Node1&#45;&gt;Node2</title>
<path fill="none" stroke="midnightblue" d="M198.57,-179.44C182.72,-170 162.13,-156.81 145.5,-143 103.01,-107.7 60.12,-58.45 38.99,-33.07"/>
<polygon fill="midnightblue" stroke="midnightblue" points="41.52,-30.64 32.46,-25.15 36.12,-35.1 41.52,-30.64"/>
</g>
<!-- Node3 -->
<g id="node3" class="node">
<title>Node3</title>
<g id="a_node3"><a xlink:href="Point_8hpp.html" target="_top" xlink:title=" ">
<polygon fill="none" stroke="black" points="155,-123.5 155,-142.5 212,-142.5 212,-123.5 155,-123.5"/>
<text text-anchor="middle" x="183.5" y="-130.5" font-family="Helvetica,sans-Serif" font-size="10.00">Point.hpp</text>
</a>
</g>
</g>
<!-- Node1&#45;&gt;Node3 -->
<g id="edge2" class="edge">
<title>Node1&#45;&gt;Node3</title>
<path fill="none" stroke="midnightblue" d="M214.02,-179.4C208.33,-170.93 201.05,-160.1 195.02,-151.14"/>
<polygon fill="midnightblue" stroke="midnightblue" points="197.8,-149 189.32,-142.66 191.99,-152.91 197.8,-149"/>
</g>
<!-- Node4 -->
<g id="node4" class="node">
<title>Node4</title>
<g id="a_node4"><a xlink:href="Collider_8hpp.html" target="_top" xlink:title=" ">
<polygon fill="none" stroke="black" points="230,-123.5 230,-142.5 297,-142.5 297,-123.5 230,-123.5"/>
<text text-anchor="middle" x="263.5" y="-130.5" font-family="Helvetica,sans-Serif" font-size="10.00">Collider.hpp</text>
</a>
</g>
</g>
<!-- Node1&#45;&gt;Node4 -->
<g id="edge3" class="edge">
<title>Node1&#45;&gt;Node4</title>
<path fill="none" stroke="midnightblue" d="M232.98,-179.4C238.67,-170.93 245.95,-160.1 251.98,-151.14"/>
<polygon fill="midnightblue" stroke="midnightblue" points="255.01,-152.91 257.68,-142.66 249.2,-149 255.01,-152.91"/>
</g>
<!-- Node7 -->
<g id="node7" class="node">
<title>Node7</title>
<g id="a_node7"><a xlink:title=" ">
<polygon fill="none" stroke="#bfbfbf" points="408,-0.5 408,-30.5 503,-30.5 503,-0.5 408,-0.5"/>
<text text-anchor="start" x="416" y="-18.5" font-family="Helvetica,sans-Serif" font-size="10.00">boost/serialization</text>
<text text-anchor="middle" x="455.5" y="-7.5" font-family="Helvetica,sans-Serif" font-size="10.00">/access.hpp</text>
</a>
</g>
</g>
<!-- Node1&#45;&gt;Node7 -->
<g id="edge11" class="edge">
<title>Node1&#45;&gt;Node7</title>
<path fill="none" stroke="midnightblue" d="M248.85,-179.46C265.64,-169.84 287.9,-156.43 306.5,-143 353.78,-108.87 404.72,-63.56 433.11,-37.46"/>
<polygon fill="midnightblue" stroke="midnightblue" points="435.53,-39.99 440.49,-30.63 430.78,-34.85 435.53,-39.99"/>
</g>
<!-- Node5 -->
<g id="node5" class="node">
<title>Node5</title>
<g id="a_node5"><a xlink:title=" ">
<polygon fill="none" stroke="#bfbfbf" points="289.5,-67.5 289.5,-86.5 333.5,-86.5 333.5,-67.5 289.5,-67.5"/>
<text text-anchor="middle" x="311.5" y="-74.5" font-family="Helvetica,sans-Serif" font-size="10.00">vector</text>
</a>
</g>
</g>
<!-- Node4&#45;&gt;Node5 -->
<g id="edge4" class="edge">
<title>Node4&#45;&gt;Node5</title>
<path fill="none" stroke="midnightblue" d="M271.43,-123.08C278.35,-115.3 288.57,-103.8 296.95,-94.37"/>
<polygon fill="midnightblue" stroke="midnightblue" points="299.69,-96.55 303.72,-86.75 294.46,-91.9 299.69,-96.55"/>
</g>
<!-- Node6 -->
<g id="node6" class="node">
<title>Node6</title>
<g id="a_node6"><a xlink:href="Component_8hpp.html" target="_top" xlink:title=" ">
<polygon fill="none" stroke="black" points="187.5,-67.5 187.5,-86.5 271.5,-86.5 271.5,-67.5 187.5,-67.5"/>
<text text-anchor="middle" x="229.5" y="-74.5" font-family="Helvetica,sans-Serif" font-size="10.00">Component.hpp</text>
</a>
</g>
</g>
<!-- Node4&#45;&gt;Node6 -->
<g id="edge5" class="edge">
<title>Node4&#45;&gt;Node6</title>
<path fill="none" stroke="midnightblue" d="M257.89,-123.08C253.13,-115.53 246.18,-104.49 240.35,-95.23"/>
<polygon fill="midnightblue" stroke="midnightblue" points="243.3,-93.35 235.01,-86.75 237.38,-97.08 243.3,-93.35"/>
</g>
<!-- Node6&#45;&gt;Node2 -->
<g id="edge6" class="edge">
<title>Node6&#45;&gt;Node2</title>
<path fill="none" stroke="midnightblue" d="M190.88,-67.46C156.11,-59.37 103.82,-46.23 59.5,-31 57.63,-30.36 55.73,-29.66 53.81,-28.93"/>
<polygon fill="midnightblue" stroke="midnightblue" points="54.96,-25.62 44.37,-25.12 52.33,-32.11 54.96,-25.62"/>
</g>
<!-- Node6&#45;&gt;Node7 -->
<g id="edge7" class="edge">
<title>Node6&#45;&gt;Node7</title>
<path fill="none" stroke="midnightblue" d="M261.88,-67.48C297.32,-58.14 354.84,-43 398,-31.64"/>
<polygon fill="midnightblue" stroke="midnightblue" points="399.02,-34.99 407.8,-29.06 397.24,-28.22 399.02,-34.99"/>
</g>
<!-- Node8 -->
<g id="node8" class="node">
<title>Node8</title>
<g id="a_node8"><a xlink:title=" ">
<polygon fill="none" stroke="#bfbfbf" points="295,-0.5 295,-30.5 390,-30.5 390,-0.5 295,-0.5"/>
<text text-anchor="start" x="303" y="-18.5" font-family="Helvetica,sans-Serif" font-size="10.00">boost/serialization</text>
<text text-anchor="middle" x="342.5" y="-7.5" font-family="Helvetica,sans-Serif" font-size="10.00">/map.hpp</text>
</a>
</g>
</g>
<!-- Node6&#45;&gt;Node8 -->
<g id="edge8" class="edge">
<title>Node6&#45;&gt;Node8</title>
<path fill="none" stroke="midnightblue" d="M245.69,-67.48C261.57,-59.12 286.3,-46.09 306.8,-35.3"/>
<polygon fill="midnightblue" stroke="midnightblue" points="308.65,-38.28 315.87,-30.52 305.39,-32.09 308.65,-38.28"/>
</g>
<!-- Node9 -->
<g id="node9" class="node">
<title>Node9</title>
<g id="a_node9"><a xlink:title=" ">
<polygon fill="none" stroke="#bfbfbf" points="69,-0.5 69,-30.5 164,-30.5 164,-0.5 69,-0.5"/>
<text text-anchor="start" x="77" y="-18.5" font-family="Helvetica,sans-Serif" font-size="10.00">boost/serialization</text>
<text text-anchor="middle" x="116.5" y="-7.5" font-family="Helvetica,sans-Serif" font-size="10.00">/vector.hpp</text>
</a>
</g>
</g>
<!-- Node6&#45;&gt;Node9 -->
<g id="edge9" class="edge">
<title>Node6&#45;&gt;Node9</title>
<path fill="none" stroke="midnightblue" d="M213.31,-67.48C197.43,-59.12 172.7,-46.09 152.2,-35.3"/>
<polygon fill="midnightblue" stroke="midnightblue" points="153.61,-32.09 143.13,-30.52 150.35,-38.28 153.61,-32.09"/>
</g>
<!-- Node10 -->
<g id="node10" class="node">
<title>Node10</title>
<g id="a_node10"><a xlink:title=" ">
<polygon fill="none" stroke="#bfbfbf" points="182,-0.5 182,-30.5 277,-30.5 277,-0.5 182,-0.5"/>
<text text-anchor="start" x="190" y="-18.5" font-family="Helvetica,sans-Serif" font-size="10.00">boost/serialization</text>
<text text-anchor="middle" x="229.5" y="-7.5" font-family="Helvetica,sans-Serif" font-size="10.00">/shared_ptr.hpp</text>
</a>
</g>
</g>
<!-- Node6&#45;&gt;Node10 -->
<g id="edge10" class="edge">
<title>Node6&#45;&gt;Node10</title>
<path fill="none" stroke="midnightblue" d="M229.5,-67.48C229.5,-60.47 229.5,-50.19 229.5,-40.7"/>
<polygon fill="midnightblue" stroke="midnightblue" points="233,-40.52 229.5,-30.52 226,-40.52 233,-40.52"/>
</g>
</g>
</svg>
