<?xml version="1.0" encoding="UTF-8" standalone="no"?>
<!DOCTYPE svg PUBLIC "-//W3C//DTD SVG 1.1//EN"
 "http://www.w3.org/Graphics/SVG/1.1/DTD/svg11.dtd">
<!-- Generated by graphviz version 2.44.0 ()
 -->
<!-- Title: src/Behaviour/CollisionBehaviour.cpp Pages: 1 -->
<!--zoomable 375 -->
<svg id="main" version="1.1" xmlns="http://www.w3.org/2000/svg" xmlns:xlink="http://www.w3.org/1999/xlink" xml:space="preserve" onload="init(evt)">
<style type="text/css"><![CDATA[
.edge:hover path { stroke: red; }
.edge:hover polygon { stroke: red; fill: red; }
]]></style>
<script type="text/javascript"><![CDATA[
var edges = document.getElementsByTagName('g');
if (edges && edges.length) {
  for (var i=0;i<edges.length;i++) {
    if (edges[i].id.substr(0,4)=='edge') {
      edges[i].setAttribute('class','edge');
    }
  }
}
]]></script>
        <defs>
                <circle id="rim" cx="0" cy="0" r="7"/>
                <circle id="rim2" cx="0" cy="0" r="3.5"/>
                <g id="zoomPlus">
                        <use xlink:href="#rim" fill="#404040">
                                <set attributeName="fill" to="#808080" begin="zoomplus.mouseover" end="zoomplus.mouseout"/>
                        </use>
                        <path d="M-4,0h8M0,-4v8" fill="none" stroke="white" stroke-width="1.5" pointer-events="none"/>
                </g>
                <g id="zoomMin">
                        <use xlink:href="#rim" fill="#404040">
                                <set attributeName="fill" to="#808080" begin="zoomminus.mouseover" end="zoomminus.mouseout"/>
                        </use>
                        <path d="M-4,0h8" fill="none" stroke="white" stroke-width="1.5" pointer-events="none"/>
                </g>
                <g id="dirArrow">
                        <path fill="none" stroke="white" stroke-width="1.5" d="M0,-3.0v7 M-2.5,-0.5L0,-3.0L2.5,-0.5"/>
                </g>
               <g id="resetDef">
                       <use xlink:href="#rim2" fill="#404040">
                               <set attributeName="fill" to="#808080" begin="reset.mouseover" end="reset.mouseout"/>
                       </use>
               </g>
        </defs>

<script type="text/javascript">
var viewWidth = 737;
var viewHeight = 375;
var sectionId = 'dynsection-0';
</script>
<script xlink:href="svgpan.js"/>
<svg id="graph" class="graph">
<g id="viewport">
<title>src/Behaviour/CollisionBehaviour.cpp</title>
<!-- Node1 -->
<g id="node1" class="node">
<title>Node1</title>
<g id="a_node1"><a xlink:title=" ">
<polygon fill="#bfbfbf" stroke="black" points="227.62,-347.5 227.62,-366.5 405.62,-366.5 405.62,-347.5 227.62,-347.5"/>
<text text-anchor="middle" x="316.62" y="-354.5" font-family="Helvetica,sans-Serif" font-size="10.00">src/Behaviour/CollisionBehaviour.cpp</text>
</a>
</g>
</g>
<!-- Node2 -->
<g id="node2" class="node">
<title>Node2</title>
<g id="a_node2"><a xlink:href="CollisionBehaviour_8hpp.html" target="_top" xlink:title=" ">
<polygon fill="none" stroke="black" points="291.12,-291.5 291.12,-310.5 452.12,-310.5 452.12,-291.5 291.12,-291.5"/>
<text text-anchor="middle" x="371.62" y="-298.5" font-family="Helvetica,sans-Serif" font-size="10.00">Behaviour/CollisionBehaviour.hpp</text>
</a>
</g>
</g>
<!-- Node1&#45;&gt;Node2 -->
<g id="edge1" class="edge">
<title>Node1&#45;&gt;Node2</title>
<path fill="none" stroke="midnightblue" d="M325.7,-347.08C333.79,-339.14 345.82,-327.34 355.53,-317.8"/>
<polygon fill="midnightblue" stroke="midnightblue" points="358.02,-320.25 362.71,-310.75 353.12,-315.26 358.02,-320.25"/>
</g>
<!-- Node14 -->
<g id="node14" class="node">
<title>Node14</title>
<g id="a_node14"><a xlink:href="GameObject_8hpp.html" target="_top" xlink:title=" ">
<polygon fill="none" stroke="black" points="438.12,-123.5 438.12,-142.5 527.12,-142.5 527.12,-123.5 438.12,-123.5"/>
<text text-anchor="middle" x="482.62" y="-130.5" font-family="Helvetica,sans-Serif" font-size="10.00">GameObject.hpp</text>
</a>
</g>
</g>
<!-- Node1&#45;&gt;Node14 -->
<g id="edge17" class="edge">
<title>Node1&#45;&gt;Node14</title>
<path fill="none" stroke="midnightblue" d="M397.67,-347.45C421.23,-340.98 444.84,-329.9 460.62,-311 498.95,-265.1 491.97,-187.74 486.23,-152.49"/>
<polygon fill="midnightblue" stroke="midnightblue" points="489.67,-151.85 484.47,-142.62 482.78,-153.08 489.67,-151.85"/>
</g>
<!-- Node18 -->
<g id="node18" class="node">
<title>Node18</title>
<g id="a_node18"><a xlink:href="RigidBody_8hpp.html" target="_top" xlink:title=" ">
<polygon fill="none" stroke="black" points="88.62,-235.5 88.62,-254.5 166.62,-254.5 166.62,-235.5 88.62,-235.5"/>
<text text-anchor="middle" x="127.62" y="-242.5" font-family="Helvetica,sans-Serif" font-size="10.00">RigidBody.hpp</text>
</a>
</g>
</g>
<!-- Node1&#45;&gt;Node18 -->
<g id="edge29" class="edge">
<title>Node1&#45;&gt;Node18</title>
<path fill="none" stroke="midnightblue" d="M301.79,-347.37C269.08,-328.33 190.53,-282.62 151.07,-259.65"/>
<polygon fill="midnightblue" stroke="midnightblue" points="152.79,-256.6 142.38,-254.59 149.26,-262.65 152.79,-256.6"/>
</g>
<!-- Node19 -->
<g id="node19" class="node">
<title>Node19</title>
<g id="a_node19"><a xlink:href="BoxCollider_8hpp.html" target="_top" xlink:title=" ">
<polygon fill="none" stroke="black" points="260.12,-179.5 260.12,-198.5 343.12,-198.5 343.12,-179.5 260.12,-179.5"/>
<text text-anchor="middle" x="301.62" y="-186.5" font-family="Helvetica,sans-Serif" font-size="10.00">BoxCollider.hpp</text>
</a>
</g>
</g>
<!-- Node1&#45;&gt;Node19 -->
<g id="edge35" class="edge">
<title>Node1&#45;&gt;Node19</title>
<path fill="none" stroke="midnightblue" d="M307.06,-347.45C298.53,-339.12 286.63,-325.6 281.62,-311 269.52,-275.74 283.33,-232.11 293.26,-208.05"/>
<polygon fill="midnightblue" stroke="midnightblue" points="296.53,-209.32 297.32,-198.75 290.12,-206.52 296.53,-209.32"/>
</g>
<!-- Node3 -->
<g id="node3" class="node">
<title>Node3</title>
<g id="a_node3"><a xlink:href="BehaviourScript_8hpp.html" target="_top" xlink:title=" ">
<polygon fill="none" stroke="black" points="319.62,-235.5 319.62,-254.5 423.62,-254.5 423.62,-235.5 319.62,-235.5"/>
<text text-anchor="middle" x="371.62" y="-242.5" font-family="Helvetica,sans-Serif" font-size="10.00">BehaviourScript.hpp</text>
</a>
</g>
</g>
<!-- Node2&#45;&gt;Node3 -->
<g id="edge2" class="edge">
<title>Node2&#45;&gt;Node3</title>
<path fill="none" stroke="midnightblue" d="M371.62,-291.08C371.62,-284.01 371.62,-273.86 371.62,-264.99"/>
<polygon fill="midnightblue" stroke="midnightblue" points="375.12,-264.75 371.62,-254.75 368.12,-264.75 375.12,-264.75"/>
</g>
<!-- Node4 -->
<g id="node4" class="node">
<title>Node4</title>
<g id="a_node4"><a xlink:href="Component_8hpp.html" target="_top" xlink:title=" ">
<polygon fill="none" stroke="black" points="395.62,-67.5 395.62,-86.5 479.62,-86.5 479.62,-67.5 395.62,-67.5"/>
<text text-anchor="middle" x="437.62" y="-74.5" font-family="Helvetica,sans-Serif" font-size="10.00">Component.hpp</text>
</a>
</g>
</g>
<!-- Node3&#45;&gt;Node4 -->
<g id="edge3" class="edge">
<title>Node3&#45;&gt;Node4</title>
<path fill="none" stroke="midnightblue" d="M375.17,-235.08C385.6,-208.83 416.33,-131.55 430.42,-96.12"/>
<polygon fill="midnightblue" stroke="midnightblue" points="433.77,-97.15 434.21,-86.57 427.27,-94.57 433.77,-97.15"/>
</g>
<!-- Node10 -->
<g id="node10" class="node">
<title>Node10</title>
<g id="a_node10"><a xlink:href="Collider_8hpp.html" target="_top" xlink:title=" ">
<polygon fill="none" stroke="black" points="197.12,-123.5 197.12,-142.5 264.12,-142.5 264.12,-123.5 197.12,-123.5"/>
<text text-anchor="middle" x="230.62" y="-130.5" font-family="Helvetica,sans-Serif" font-size="10.00">Collider.hpp</text>
</a>
</g>
</g>
<!-- Node3&#45;&gt;Node10 -->
<g id="edge9" class="edge">
<title>Node3&#45;&gt;Node10</title>
<path fill="none" stroke="midnightblue" d="M371.3,-235.22C370.34,-221.47 366.53,-194.8 351.62,-179 331.38,-157.56 300,-146.27 274.26,-140.37"/>
<polygon fill="midnightblue" stroke="midnightblue" points="274.86,-136.91 264.35,-138.29 273.42,-143.77 274.86,-136.91"/>
</g>
<!-- Node12 -->
<g id="node12" class="node">
<title>Node12</title>
<g id="a_node12"><a xlink:href="Collision_8hpp.html" target="_top" xlink:title=" ">
<polygon fill="none" stroke="black" points="31.12,-179.5 31.12,-198.5 140.12,-198.5 140.12,-179.5 31.12,-179.5"/>
<text text-anchor="middle" x="85.62" y="-186.5" font-family="Helvetica,sans-Serif" font-size="10.00">Physics/Collision.hpp</text>
</a>
</g>
</g>
<!-- Node3&#45;&gt;Node12 -->
<g id="edge12" class="edge">
<title>Node3&#45;&gt;Node12</title>
<path fill="none" stroke="midnightblue" d="M326.3,-235.44C275.99,-225.94 194.78,-210.61 140.81,-200.42"/>
<polygon fill="midnightblue" stroke="midnightblue" points="141.2,-196.93 130.73,-198.52 139.9,-203.81 141.2,-196.93"/>
</g>
<!-- Node5 -->
<g id="node5" class="node">
<title>Node5</title>
<g id="a_node5"><a xlink:title=" ">
<polygon fill="none" stroke="#bfbfbf" points="339.12,-6 339.12,-25 390.12,-25 390.12,-6 339.12,-6"/>
<text text-anchor="middle" x="364.62" y="-13" font-family="Helvetica,sans-Serif" font-size="10.00">memory</text>
</a>
</g>
</g>
<!-- Node4&#45;&gt;Node5 -->
<g id="edge4" class="edge">
<title>Node4&#45;&gt;Node5</title>
<path fill="none" stroke="midnightblue" d="M427.16,-67.48C415.67,-58.11 396.99,-42.88 383.03,-31.51"/>
<polygon fill="midnightblue" stroke="midnightblue" points="385.02,-28.61 375.06,-25.01 380.6,-34.04 385.02,-28.61"/>
</g>
<!-- Node6 -->
<g id="node6" class="node">
<title>Node6</title>
<g id="a_node6"><a xlink:title=" ">
<polygon fill="none" stroke="#bfbfbf" points="157.12,-0.5 157.12,-30.5 252.12,-30.5 252.12,-0.5 157.12,-0.5"/>
<text text-anchor="start" x="165.12" y="-18.5" font-family="Helvetica,sans-Serif" font-size="10.00">boost/serialization</text>
<text text-anchor="middle" x="204.62" y="-7.5" font-family="Helvetica,sans-Serif" font-size="10.00">/access.hpp</text>
</a>
</g>
</g>
<!-- Node4&#45;&gt;Node6 -->
<g id="edge5" class="edge">
<title>Node4&#45;&gt;Node6</title>
<path fill="none" stroke="midnightblue" d="M404.24,-67.48C367.27,-58.03 307,-42.65 262.35,-31.24"/>
<polygon fill="midnightblue" stroke="midnightblue" points="263.06,-27.81 252.5,-28.73 261.32,-34.59 263.06,-27.81"/>
</g>
<!-- Node7 -->
<g id="node7" class="node">
<title>Node7</title>
<g id="a_node7"><a xlink:title=" ">
<polygon fill="none" stroke="#bfbfbf" points="408.12,-0.5 408.12,-30.5 503.12,-30.5 503.12,-0.5 408.12,-0.5"/>
<text text-anchor="start" x="416.12" y="-18.5" font-family="Helvetica,sans-Serif" font-size="10.00">boost/serialization</text>
<text text-anchor="middle" x="455.62" y="-7.5" font-family="Helvetica,sans-Serif" font-size="10.00">/map.hpp</text>
</a>
</g>
</g>
<!-- Node4&#45;&gt;Node7 -->
<g id="edge6" class="edge">
<title>Node4&#45;&gt;Node7</title>
<path fill="none" stroke="midnightblue" d="M440.2,-67.48C442.34,-60.4 445.49,-49.97 448.39,-40.39"/>
<polygon fill="midnightblue" stroke="midnightblue" points="451.83,-41.11 451.38,-30.52 445.13,-39.08 451.83,-41.11"/>
</g>
<!-- Node8 -->
<g id="node8" class="node">
<title>Node8</title>
<g id="a_node8"><a xlink:title=" ">
<polygon fill="none" stroke="#bfbfbf" points="521.12,-0.5 521.12,-30.5 616.12,-30.5 616.12,-0.5 521.12,-0.5"/>
<text text-anchor="start" x="529.12" y="-18.5" font-family="Helvetica,sans-Serif" font-size="10.00">boost/serialization</text>
<text text-anchor="middle" x="568.62" y="-7.5" font-family="Helvetica,sans-Serif" font-size="10.00">/vector.hpp</text>
</a>
</g>
</g>
<!-- Node4&#45;&gt;Node8 -->
<g id="edge7" class="edge">
<title>Node4&#45;&gt;Node8</title>
<path fill="none" stroke="midnightblue" d="M456.39,-67.48C475.13,-58.96 504.51,-45.62 528.51,-34.72"/>
<polygon fill="midnightblue" stroke="midnightblue" points="530.09,-37.85 537.75,-30.52 527.19,-31.47 530.09,-37.85"/>
</g>
<!-- Node9 -->
<g id="node9" class="node">
<title>Node9</title>
<g id="a_node9"><a xlink:title=" ">
<polygon fill="none" stroke="#bfbfbf" points="634.12,-0.5 634.12,-30.5 729.12,-30.5 729.12,-0.5 634.12,-0.5"/>
<text text-anchor="start" x="642.12" y="-18.5" font-family="Helvetica,sans-Serif" font-size="10.00">boost/serialization</text>
<text text-anchor="middle" x="681.62" y="-7.5" font-family="Helvetica,sans-Serif" font-size="10.00">/shared_ptr.hpp</text>
</a>
</g>
</g>
<!-- Node4&#45;&gt;Node9 -->
<g id="edge8" class="edge">
<title>Node4&#45;&gt;Node9</title>
<path fill="none" stroke="midnightblue" d="M474.06,-67.49C509.9,-59.07 566.42,-45.67 623.98,-31.39"/>
<polygon fill="midnightblue" stroke="midnightblue" points="625.12,-34.71 633.98,-28.9 623.43,-27.92 625.12,-34.71"/>
</g>
<!-- Node10&#45;&gt;Node4 -->
<g id="edge11" class="edge">
<title>Node10&#45;&gt;Node4</title>
<path fill="none" stroke="midnightblue" d="M263.42,-123.44C299,-114.16 355.93,-99.31 394.97,-89.13"/>
<polygon fill="midnightblue" stroke="midnightblue" points="396.18,-92.43 404.97,-86.52 394.41,-85.65 396.18,-92.43"/>
</g>
<!-- Node11 -->
<g id="node11" class="node">
<title>Node11</title>
<g id="a_node11"><a xlink:title=" ">
<polygon fill="none" stroke="#bfbfbf" points="198.62,-67.5 198.62,-86.5 242.62,-86.5 242.62,-67.5 198.62,-67.5"/>
<text text-anchor="middle" x="220.62" y="-74.5" font-family="Helvetica,sans-Serif" font-size="10.00">vector</text>
</a>
</g>
</g>
<!-- Node10&#45;&gt;Node11 -->
<g id="edge10" class="edge">
<title>Node10&#45;&gt;Node11</title>
<path fill="none" stroke="midnightblue" d="M228.97,-123.08C227.64,-115.93 225.74,-105.64 224.08,-96.69"/>
<polygon fill="midnightblue" stroke="midnightblue" points="227.5,-95.95 222.24,-86.75 220.62,-97.22 227.5,-95.95"/>
</g>
<!-- Node12&#45;&gt;Node5 -->
<g id="edge13" class="edge">
<title>Node12&#45;&gt;Node5</title>
<path fill="none" stroke="midnightblue" d="M88.11,-179.17C95.4,-153.93 117.34,-82.34 135.62,-67 150.36,-54.63 268.23,-32.99 328.86,-22.52"/>
<polygon fill="midnightblue" stroke="midnightblue" points="329.52,-25.95 338.78,-20.81 328.33,-19.06 329.52,-25.95"/>
</g>
<!-- Node12&#45;&gt;Node6 -->
<g id="edge16" class="edge">
<title>Node12&#45;&gt;Node6</title>
<path fill="none" stroke="midnightblue" d="M84.3,-179.39C81.53,-158.09 77.29,-102.09 102.62,-67 113.65,-51.73 130.61,-40.82 147.56,-33.16"/>
<polygon fill="midnightblue" stroke="midnightblue" points="149.06,-36.32 156.93,-29.22 146.36,-29.86 149.06,-36.32"/>
</g>
<!-- Node12&#45;&gt;Node10 -->
<g id="edge15" class="edge">
<title>Node12&#45;&gt;Node10</title>
<path fill="none" stroke="midnightblue" d="M108.6,-179.44C132.78,-170.44 171.04,-156.19 198.27,-146.05"/>
<polygon fill="midnightblue" stroke="midnightblue" points="199.6,-149.29 207.75,-142.52 197.16,-142.73 199.6,-149.29"/>
</g>
<!-- Node13 -->
<g id="node13" class="node">
<title>Node13</title>
<g id="a_node13"><a xlink:href="Point_8hpp.html" target="_top" xlink:title=" ">
<polygon fill="none" stroke="black" points="12.12,-6 12.12,-25 69.12,-25 69.12,-6 12.12,-6"/>
<text text-anchor="middle" x="40.62" y="-13" font-family="Helvetica,sans-Serif" font-size="10.00">Point.hpp</text>
</a>
</g>
</g>
<!-- Node12&#45;&gt;Node13 -->
<g id="edge14" class="edge">
<title>Node12&#45;&gt;Node13</title>
<path fill="none" stroke="midnightblue" d="M80.76,-179.3C76,-170.42 68.86,-156.13 64.62,-143 52.6,-105.73 45.79,-60.24 42.69,-35.22"/>
<polygon fill="midnightblue" stroke="midnightblue" points="46.17,-34.8 41.52,-25.27 39.21,-35.62 46.17,-34.8"/>
</g>
<!-- Node14&#45;&gt;Node4 -->
<g id="edge18" class="edge">
<title>Node14&#45;&gt;Node4</title>
<path fill="none" stroke="midnightblue" d="M475.19,-123.08C468.77,-115.38 459.31,-104.03 451.5,-94.65"/>
<polygon fill="midnightblue" stroke="midnightblue" points="454,-92.19 444.91,-86.75 448.63,-96.67 454,-92.19"/>
</g>
<!-- Node14&#45;&gt;Node5 -->
<g id="edge23" class="edge">
<title>Node14&#45;&gt;Node5</title>
<path fill="none" stroke="midnightblue" d="M486.73,-123.13C492.27,-109.73 500.18,-84.08 488.62,-67 464.47,-31.33 438.44,-47.45 398.62,-31 397.03,-30.34 395.4,-29.66 393.76,-28.98"/>
<polygon fill="midnightblue" stroke="midnightblue" points="394.94,-25.68 384.36,-25.01 392.22,-32.13 394.94,-25.68"/>
</g>
<!-- Node14&#45;&gt;Node6 -->
<g id="edge25" class="edge">
<title>Node14&#45;&gt;Node6</title>
<path fill="none" stroke="midnightblue" d="M463.76,-123.4C444.34,-114.49 413.23,-100.05 386.62,-87 369.13,-78.42 365.51,-74.71 347.62,-67 318.87,-54.62 285.98,-42.84 258.99,-33.78"/>
<polygon fill="midnightblue" stroke="midnightblue" points="259.93,-30.41 249.34,-30.57 257.72,-37.05 259.93,-30.41"/>
</g>
<!-- Node14&#45;&gt;Node7 -->
<g id="edge26" class="edge">
<title>Node14&#45;&gt;Node7</title>
<path fill="none" stroke="midnightblue" d="M494.17,-123.42C509.09,-111.22 532,-88 521.62,-67 515.41,-54.42 504.4,-44.12 493.12,-36.17"/>
<polygon fill="midnightblue" stroke="midnightblue" points="494.82,-33.09 484.53,-30.55 490.99,-38.95 494.82,-33.09"/>
</g>
<!-- Node14&#45;&gt;Node8 -->
<g id="edge27" class="edge">
<title>Node14&#45;&gt;Node8</title>
<path fill="none" stroke="midnightblue" d="M496.08,-123.38C508,-115.2 525.23,-101.95 536.62,-87 547.3,-72.98 555.44,-54.82 560.84,-40.44"/>
<polygon fill="midnightblue" stroke="midnightblue" points="564.23,-41.35 564.28,-30.75 557.63,-39 564.23,-41.35"/>
</g>
<!-- Node14&#45;&gt;Node9 -->
<g id="edge28" class="edge">
<title>Node14&#45;&gt;Node9</title>
<path fill="none" stroke="midnightblue" d="M527.5,-126.04C574.36,-118.93 643.66,-105.62 662.62,-87 674.78,-75.07 679.4,-56.23 681.06,-41.03"/>
<polygon fill="midnightblue" stroke="midnightblue" points="684.57,-40.99 681.8,-30.76 677.59,-40.48 684.57,-40.99"/>
</g>
<!-- Node14&#45;&gt;Node11 -->
<g id="edge22" class="edge">
<title>Node14&#45;&gt;Node11</title>
<path fill="none" stroke="midnightblue" d="M437.86,-124.68C393.03,-117.05 321.91,-104.13 252.6,-87.33"/>
<polygon fill="midnightblue" stroke="midnightblue" points="253.38,-83.92 242.83,-84.93 251.71,-90.72 253.38,-83.92"/>
</g>
<!-- Node15 -->
<g id="node15" class="node">
<title>Node15</title>
<g id="a_node15"><a xlink:href="Transform_8hpp.html" target="_top" xlink:title=" ">
<polygon fill="none" stroke="black" points="260.12,-67.5 260.12,-86.5 339.12,-86.5 339.12,-67.5 260.12,-67.5"/>
<text text-anchor="middle" x="299.62" y="-74.5" font-family="Helvetica,sans-Serif" font-size="10.00">Transform.hpp</text>
</a>
</g>
</g>
<!-- Node14&#45;&gt;Node15 -->
<g id="edge19" class="edge">
<title>Node14&#45;&gt;Node15</title>
<path fill="none" stroke="midnightblue" d="M453.62,-123.44C422.44,-114.24 372.69,-99.56 338.21,-89.39"/>
<polygon fill="midnightblue" stroke="midnightblue" points="339.06,-85.99 328.48,-86.52 337.08,-92.7 339.06,-85.99"/>
</g>
<!-- Node16 -->
<g id="node16" class="node">
<title>Node16</title>
<g id="a_node16"><a xlink:title=" ">
<polygon fill="none" stroke="#bfbfbf" points="612.12,-67.5 612.12,-86.5 653.12,-86.5 653.12,-67.5 612.12,-67.5"/>
<text text-anchor="middle" x="632.62" y="-74.5" font-family="Helvetica,sans-Serif" font-size="10.00">string</text>
</a>
</g>
</g>
<!-- Node14&#45;&gt;Node16 -->
<g id="edge21" class="edge">
<title>Node14&#45;&gt;Node16</title>
<path fill="none" stroke="midnightblue" d="M506.39,-123.44C532.29,-114.12 573.8,-99.18 602.09,-88.99"/>
<polygon fill="midnightblue" stroke="midnightblue" points="603.64,-92.15 611.86,-85.47 601.27,-85.57 603.64,-92.15"/>
</g>
<!-- Node17 -->
<g id="node17" class="node">
<title>Node17</title>
<g id="a_node17"><a xlink:title=" ">
<polygon fill="none" stroke="#bfbfbf" points="145.12,-67.5 145.12,-86.5 180.12,-86.5 180.12,-67.5 145.12,-67.5"/>
<text text-anchor="middle" x="162.62" y="-74.5" font-family="Helvetica,sans-Serif" font-size="10.00">map</text>
</a>
</g>
</g>
<!-- Node14&#45;&gt;Node17 -->
<g id="edge24" class="edge">
<title>Node14&#45;&gt;Node17</title>
<path fill="none" stroke="midnightblue" d="M437.99,-127.53C382.12,-121.4 283.45,-108.87 190.1,-86.73"/>
<polygon fill="midnightblue" stroke="midnightblue" points="190.76,-83.28 180.21,-84.34 189.11,-90.09 190.76,-83.28"/>
</g>
<!-- Node15&#45;&gt;Node13 -->
<g id="edge20" class="edge">
<title>Node15&#45;&gt;Node13</title>
<path fill="none" stroke="midnightblue" d="M262.51,-67.48C213.8,-56.29 128.71,-36.74 79.25,-25.38"/>
<polygon fill="midnightblue" stroke="midnightblue" points="79.8,-21.91 69.27,-23.08 78.23,-28.73 79.8,-21.91"/>
</g>
<!-- Node18&#45;&gt;Node4 -->
<g id="edge30" class="edge">
<title>Node18&#45;&gt;Node4</title>
<path fill="none" stroke="midnightblue" d="M143.85,-235.31C194.7,-208.08 351.17,-124.29 412.55,-91.43"/>
<polygon fill="midnightblue" stroke="midnightblue" points="414.39,-94.41 421.55,-86.61 411.08,-88.24 414.39,-94.41"/>
</g>
<!-- Node18&#45;&gt;Node6 -->
<g id="edge34" class="edge">
<title>Node18&#45;&gt;Node6</title>
<path fill="none" stroke="midnightblue" d="M88.42,-238.3C64.76,-232.62 36.41,-221.34 21.62,-199 16.71,-191.59 19.25,-187.57 21.62,-179 37.07,-123.09 45.06,-105.3 88.62,-67 105.5,-52.16 127.41,-41.12 147.64,-33.21"/>
<polygon fill="midnightblue" stroke="midnightblue" points="148.95,-36.46 157.09,-29.68 146.5,-29.9 148.95,-36.46"/>
</g>
<!-- Node18&#45;&gt;Node12 -->
<g id="edge32" class="edge">
<title>Node18&#45;&gt;Node12</title>
<path fill="none" stroke="midnightblue" d="M120.68,-235.08C114.69,-227.38 105.87,-216.03 98.57,-206.65"/>
<polygon fill="midnightblue" stroke="midnightblue" points="101.33,-204.5 92.43,-198.75 95.8,-208.79 101.33,-204.5"/>
</g>
<!-- Node18&#45;&gt;Node13 -->
<g id="edge31" class="edge">
<title>Node18&#45;&gt;Node13</title>
<path fill="none" stroke="midnightblue" d="M88.49,-239.4C63.09,-234.16 31.81,-222.96 15.62,-199 -19.26,-147.39 13.41,-68.67 31.03,-33.97"/>
<polygon fill="midnightblue" stroke="midnightblue" points="34.16,-35.53 35.73,-25.05 27.97,-32.26 34.16,-35.53"/>
</g>
<!-- Node18&#45;&gt;Node17 -->
<g id="edge33" class="edge">
<title>Node18&#45;&gt;Node17</title>
<path fill="none" stroke="midnightblue" d="M132.68,-235.36C137.6,-226.53 144.86,-212.27 148.62,-199 158.57,-163.85 161.47,-121.05 162.3,-96.92"/>
<polygon fill="midnightblue" stroke="midnightblue" points="165.8,-96.78 162.56,-86.69 158.81,-96.6 165.8,-96.78"/>
</g>
<!-- Node19&#45;&gt;Node10 -->
<g id="edge36" class="edge">
<title>Node19&#45;&gt;Node10</title>
<path fill="none" stroke="midnightblue" d="M290.21,-179.32C279.51,-171.18 263.28,-158.84 250.46,-149.09"/>
<polygon fill="midnightblue" stroke="midnightblue" points="252.31,-146.1 242.24,-142.83 248.08,-151.67 252.31,-146.1"/>
</g>
</g>
</svg>
        <g id="navigator" transform="translate(0 0)" fill="#404254">
                <rect fill="#f2f5e9" fill-opacity="0.5" stroke="#606060" stroke-width=".5" x="0" y="0" width="60" height="60"/>
                <use id="zoomplus" xlink:href="#zoomPlus" x="17" y="9" onmousedown="handleZoom(evt,'in')"/>
                <use id="zoomminus" xlink:href="#zoomMin" x="42" y="9" onmousedown="handleZoom(evt,'out')"/>
                <use id="reset" xlink:href="#resetDef" x="30" y="36" onmousedown="handleReset()"/>
                <g id="arrowUp" xlink:href="#dirArrow" transform="translate(30 24)" onmousedown="handlePan(0,-1)">
                  <use xlink:href="#rim" fill="#404040">
                        <set attributeName="fill" to="#808080" begin="arrowUp.mouseover" end="arrowUp.mouseout"/>
                  </use>
                  <path fill="none" stroke="white" stroke-width="1.5" d="M0,-3.0v7 M-2.5,-0.5L0,-3.0L2.5,-0.5"/>
                </g>
                <g id="arrowRight" xlink:href="#dirArrow" transform="rotate(90) translate(36 -43)" onmousedown="handlePan(1,0)">
                  <use xlink:href="#rim" fill="#404040">
                        <set attributeName="fill" to="#808080" begin="arrowRight.mouseover" end="arrowRight.mouseout"/>
                  </use>
                  <path fill="none" stroke="white" stroke-width="1.5" d="M0,-3.0v7 M-2.5,-0.5L0,-3.0L2.5,-0.5"/>
                </g>
                <g id="arrowDown" xlink:href="#dirArrow" transform="rotate(180) translate(-30 -48)" onmousedown="handlePan(0,1)">
                  <use xlink:href="#rim" fill="#404040">
                        <set attributeName="fill" to="#808080" begin="arrowDown.mouseover" end="arrowDown.mouseout"/>
                  </use>
                  <path fill="none" stroke="white" stroke-width="1.5" d="M0,-3.0v7 M-2.5,-0.5L0,-3.0L2.5,-0.5"/>
                </g>
                <g id="arrowLeft" xlink:href="#dirArrow" transform="rotate(270) translate(-36 17)" onmousedown="handlePan(-1,0)">
                  <use xlink:href="#rim" fill="#404040">
                        <set attributeName="fill" to="#808080" begin="arrowLeft.mouseover" end="arrowLeft.mouseout"/>
                  </use>
                  <path fill="none" stroke="white" stroke-width="1.5" d="M0,-3.0v7 M-2.5,-0.5L0,-3.0L2.5,-0.5"/>
                </g>
        </g>
        <svg viewBox="0 0 15 15" width="100%" height="30px" preserveAspectRatio="xMaxYMin meet">
         <g id="arrow_out" transform="scale(0.3 0.3)">
          <a xlink:href="CollisionBehaviour_8cpp__incl_org.svg" target="_base">
           <rect id="button" ry="5" rx="5" y="6" x="6" height="38" width="38"
                fill="#f2f5e9" fill-opacity="0.5" stroke="#606060" stroke-width="1.0"/>
           <path id="arrow"
             d="M 11.500037,31.436501 C 11.940474,20.09759 22.043105,11.32322 32.158766,21.979434 L 37.068811,17.246167 C 37.068811,17.246167 37.088388,32 37.088388,32 L 22.160133,31.978069 C 22.160133,31.978069 26.997745,27.140456 26.997745,27.140456 C 18.528582,18.264221 13.291696,25.230495 11.500037,31.436501 z"
             style="fill:#404040;"/>
          </a>
         </g>
        </svg>
</svg>
