<?xml version="1.0" encoding="UTF-8" standalone="no"?>
<!DOCTYPE svg PUBLIC "-//W3C//DTD SVG 1.1//EN"
 "http://www.w3.org/Graphics/SVG/1.1/DTD/svg11.dtd">
<!-- Generated by graphviz version 2.44.0 ()
 -->
<!-- Title: includes/platformer&#45;engine/Physics/Collision.hpp Pages: 1 -->
<!--zoomable 363 -->
<svg id="main" version="1.1" xmlns="http://www.w3.org/2000/svg" xmlns:xlink="http://www.w3.org/1999/xlink" xml:space="preserve" onload="init(evt)">
<style type="text/css"><![CDATA[
.edge:hover path { stroke: red; }
.edge:hover polygon { stroke: red; fill: red; }
]]></style>
<script type="text/javascript"><![CDATA[
var edges = document.getElementsByTagName('g');
if (edges && edges.length) {
  for (var i=0;i<edges.length;i++) {
    if (edges[i].id.substr(0,4)=='edge') {
      edges[i].setAttribute('class','edge');
    }
  }
}
]]></script>
        <defs>
                <circle id="rim" cx="0" cy="0" r="7"/>
                <circle id="rim2" cx="0" cy="0" r="3.5"/>
                <g id="zoomPlus">
                        <use xlink:href="#rim" fill="#404040">
                                <set attributeName="fill" to="#808080" begin="zoomplus.mouseover" end="zoomplus.mouseout"/>
                        </use>
                        <path d="M-4,0h8M0,-4v8" fill="none" stroke="white" stroke-width="1.5" pointer-events="none"/>
                </g>
                <g id="zoomMin">
                        <use xlink:href="#rim" fill="#404040">
                                <set attributeName="fill" to="#808080" begin="zoomminus.mouseover" end="zoomminus.mouseout"/>
                        </use>
                        <path d="M-4,0h8" fill="none" stroke="white" stroke-width="1.5" pointer-events="none"/>
                </g>
                <g id="dirArrow">
                        <path fill="none" stroke="white" stroke-width="1.5" d="M0,-3.0v7 M-2.5,-0.5L0,-3.0L2.5,-0.5"/>
                </g>
               <g id="resetDef">
                       <use xlink:href="#rim2" fill="#404040">
                               <set attributeName="fill" to="#808080" begin="reset.mouseover" end="reset.mouseout"/>
                       </use>
               </g>
        </defs>

<script type="text/javascript">
var viewWidth = 1385;
var viewHeight = 363;
var sectionId = 'dynsection-0';
</script>
<script xlink:href="svgpan.js"/>
<svg id="graph" class="graph">
<g id="viewport">
<title>includes/platformer&#45;engine/Physics/Collision.hpp</title>
<!-- Node1 -->
<g id="node1" class="node">
<title>Node1</title>
<g id="a_node1"><a xlink:title=" ">
<polygon fill="#bfbfbf" stroke="black" points="667,-324.5 667,-354.5 810,-354.5 810,-324.5 667,-324.5"/>
<text text-anchor="start" x="675" y="-342.5" font-family="Helvetica,sans-Serif" font-size="10.00">includes/platformer</text>
<text text-anchor="middle" x="738.5" y="-331.5" font-family="Helvetica,sans-Serif" font-size="10.00">&#45;engine/Physics/Collision.hpp</text>
</a>
</g>
</g>
<!-- Node2 -->
<g id="node2" class="node">
<title>Node2</title>
<g id="a_node2"><a xlink:title=" ">
<polygon fill="none" stroke="#bfbfbf" points="113,-140 113,-159 164,-159 164,-140 113,-140"/>
<text text-anchor="middle" x="138.5" y="-147" font-family="Helvetica,sans-Serif" font-size="10.00">memory</text>
</a>
</g>
</g>
<!-- Node1&#45;&gt;Node2 -->
<g id="edge1" class="edge">
<title>Node1&#45;&gt;Node2</title>
<path fill="none" stroke="midnightblue" d="M679.16,-324.43C601.88,-305.63 462.91,-270.24 346.5,-232 281.62,-210.69 207.59,-180.14 167.69,-163.14"/>
<polygon fill="midnightblue" stroke="midnightblue" points="168.88,-159.84 158.31,-159.12 166.12,-166.28 168.88,-159.84"/>
</g>
<!-- Node3 -->
<g id="node3" class="node">
<title>Node3</title>
<g id="a_node3"><a xlink:href="Point_8hpp.html" target="_top" xlink:title=" ">
<polygon fill="none" stroke="black" points="938,-268.5 938,-287.5 995,-287.5 995,-268.5 938,-268.5"/>
<text text-anchor="middle" x="966.5" y="-275.5" font-family="Helvetica,sans-Serif" font-size="10.00">Point.hpp</text>
</a>
</g>
</g>
<!-- Node1&#45;&gt;Node3 -->
<g id="edge2" class="edge">
<title>Node1&#45;&gt;Node3</title>
<path fill="none" stroke="midnightblue" d="M792.24,-324.47C833.88,-313.61 890.57,-298.82 927.83,-289.09"/>
<polygon fill="midnightblue" stroke="midnightblue" points="929,-292.4 937.79,-286.49 927.23,-285.63 929,-292.4"/>
</g>
<!-- Node4 -->
<g id="node4" class="node">
<title>Node4</title>
<g id="a_node4"><a xlink:href="Collider_8hpp.html" target="_top" xlink:title=" ">
<polygon fill="none" stroke="black" points="572,-268.5 572,-287.5 639,-287.5 639,-268.5 572,-268.5"/>
<text text-anchor="middle" x="605.5" y="-275.5" font-family="Helvetica,sans-Serif" font-size="10.00">Collider.hpp</text>
</a>
</g>
</g>
<!-- Node1&#45;&gt;Node4 -->
<g id="edge3" class="edge">
<title>Node1&#45;&gt;Node4</title>
<path fill="none" stroke="midnightblue" d="M706.98,-324.4C684.86,-314.51 655.53,-301.38 634.09,-291.79"/>
<polygon fill="midnightblue" stroke="midnightblue" points="635.41,-288.55 624.85,-287.66 632.55,-294.94 635.41,-288.55"/>
</g>
<!-- Node7 -->
<g id="node7" class="node">
<title>Node7</title>
<g id="a_node7"><a xlink:title=" ">
<polygon fill="none" stroke="#bfbfbf" points="1064,-134.5 1064,-164.5 1159,-164.5 1159,-134.5 1064,-134.5"/>
<text text-anchor="start" x="1072" y="-152.5" font-family="Helvetica,sans-Serif" font-size="10.00">boost/serialization</text>
<text text-anchor="middle" x="1111.5" y="-141.5" font-family="Helvetica,sans-Serif" font-size="10.00">/access.hpp</text>
</a>
</g>
</g>
<!-- Node1&#45;&gt;Node7 -->
<g id="edge45" class="edge">
<title>Node1&#45;&gt;Node7</title>
<path fill="none" stroke="midnightblue" d="M766.54,-324.37C832.99,-290.88 1000.07,-206.66 1074.61,-169.09"/>
<polygon fill="midnightblue" stroke="midnightblue" points="1076.29,-172.16 1083.65,-164.54 1073.14,-165.91 1076.29,-172.16"/>
</g>
<!-- Node10 -->
<g id="node10" class="node">
<title>Node10</title>
<g id="a_node10"><a xlink:title=" ">
<polygon fill="none" stroke="#bfbfbf" points="951,-134.5 951,-164.5 1046,-164.5 1046,-134.5 951,-134.5"/>
<text text-anchor="start" x="959" y="-152.5" font-family="Helvetica,sans-Serif" font-size="10.00">boost/serialization</text>
<text text-anchor="middle" x="998.5" y="-141.5" font-family="Helvetica,sans-Serif" font-size="10.00">/shared_ptr.hpp</text>
</a>
</g>
</g>
<!-- Node1&#45;&gt;Node10 -->
<g id="edge47" class="edge">
<title>Node1&#45;&gt;Node10</title>
<path fill="none" stroke="midnightblue" d="M752.18,-324.25C778.24,-297.63 837.6,-239.56 895.5,-201 914.08,-188.63 936.13,-177.41 955.05,-168.71"/>
<polygon fill="midnightblue" stroke="midnightblue" points="956.66,-171.82 964.34,-164.52 953.79,-165.44 956.66,-171.82"/>
</g>
<!-- Node11 -->
<g id="node11" class="node">
<title>Node11</title>
<g id="a_node11"><a xlink:title=" ">
<polygon fill="none" stroke="#bfbfbf" points="0,-134.5 0,-164.5 95,-164.5 95,-134.5 0,-134.5"/>
<text text-anchor="start" x="8" y="-152.5" font-family="Helvetica,sans-Serif" font-size="10.00">boost/serialization</text>
<text text-anchor="middle" x="47.5" y="-141.5" font-family="Helvetica,sans-Serif" font-size="10.00">/export.hpp</text>
</a>
</g>
</g>
<!-- Node1&#45;&gt;Node11 -->
<g id="edge46" class="edge">
<title>Node1&#45;&gt;Node11</title>
<path fill="none" stroke="midnightblue" d="M666.89,-326.94C611.62,-317.61 533.4,-303.52 465.5,-288 373.43,-266.95 350.27,-261.36 260.5,-232 200.8,-212.48 133.29,-185.85 90.58,-168.43"/>
<polygon fill="midnightblue" stroke="midnightblue" points="91.65,-165.08 81.07,-164.53 89,-171.56 91.65,-165.08"/>
</g>
<!-- Node5 -->
<g id="node5" class="node">
<title>Node5</title>
<g id="a_node5"><a xlink:title=" ">
<polygon fill="none" stroke="#bfbfbf" points="355.5,-207 355.5,-226 399.5,-226 399.5,-207 355.5,-207"/>
<text text-anchor="middle" x="377.5" y="-214" font-family="Helvetica,sans-Serif" font-size="10.00">vector</text>
</a>
</g>
</g>
<!-- Node4&#45;&gt;Node5 -->
<g id="edge4" class="edge">
<title>Node4&#45;&gt;Node5</title>
<path fill="none" stroke="midnightblue" d="M571.78,-270.72C533.11,-263.15 468.01,-249.25 413.5,-232 411.22,-231.28 408.89,-230.48 406.55,-229.64"/>
<polygon fill="midnightblue" stroke="midnightblue" points="407.7,-226.33 397.11,-226.03 405.2,-232.87 407.7,-226.33"/>
</g>
<!-- Node6 -->
<g id="node6" class="node">
<title>Node6</title>
<g id="a_node6"><a xlink:href="Component_8hpp.html" target="_top" xlink:title=" ">
<polygon fill="none" stroke="black" points="493.5,-207 493.5,-226 577.5,-226 577.5,-207 493.5,-207"/>
<text text-anchor="middle" x="535.5" y="-214" font-family="Helvetica,sans-Serif" font-size="10.00">Component.hpp</text>
</a>
</g>
</g>
<!-- Node4&#45;&gt;Node6 -->
<g id="edge5" class="edge">
<title>Node4&#45;&gt;Node6</title>
<path fill="none" stroke="midnightblue" d="M595.47,-268.48C584.45,-259.11 566.54,-243.88 553.16,-232.51"/>
<polygon fill="midnightblue" stroke="midnightblue" points="555.4,-229.82 545.51,-226.01 550.86,-235.15 555.4,-229.82"/>
</g>
<!-- Node4&#45;&gt;Node7 -->
<g id="edge37" class="edge">
<title>Node4&#45;&gt;Node7</title>
<path fill="none" stroke="midnightblue" d="M639.03,-271.33C680.46,-263.96 752.91,-249.9 813.5,-232 850.87,-220.96 858.19,-212.22 895.5,-201 961.91,-181.04 982.31,-181.82 1053.97,-165.07"/>
<polygon fill="midnightblue" stroke="midnightblue" points="1055.02,-168.41 1063.94,-162.7 1053.4,-161.6 1055.02,-168.41"/>
</g>
<!-- Node9 -->
<g id="node9" class="node">
<title>Node9</title>
<g id="a_node9"><a xlink:title=" ">
<polygon fill="none" stroke="#bfbfbf" points="838,-134.5 838,-164.5 933,-164.5 933,-134.5 838,-134.5"/>
<text text-anchor="start" x="846" y="-152.5" font-family="Helvetica,sans-Serif" font-size="10.00">boost/serialization</text>
<text text-anchor="middle" x="885.5" y="-141.5" font-family="Helvetica,sans-Serif" font-size="10.00">/vector.hpp</text>
</a>
</g>
</g>
<!-- Node4&#45;&gt;Node9 -->
<g id="edge39" class="edge">
<title>Node4&#45;&gt;Node9</title>
<path fill="none" stroke="midnightblue" d="M618.2,-268.48C630.98,-259.75 651.1,-245.56 667.5,-232 683.01,-219.18 682.94,-210.83 700.5,-201 706.25,-197.78 775.62,-179.23 827.74,-165.55"/>
<polygon fill="midnightblue" stroke="midnightblue" points="828.8,-168.89 837.58,-162.97 827.02,-162.12 828.8,-168.89"/>
</g>
<!-- Node4&#45;&gt;Node11 -->
<g id="edge38" class="edge">
<title>Node4&#45;&gt;Node11</title>
<path fill="none" stroke="midnightblue" d="M571.77,-272.18C522.16,-264.85 426.69,-249.85 346.5,-232 260.93,-212.95 163.17,-185.14 103.39,-167.43"/>
<polygon fill="midnightblue" stroke="midnightblue" points="104.36,-164.06 93.77,-164.57 102.36,-170.77 104.36,-164.06"/>
</g>
<!-- Node12 -->
<g id="node12" class="node">
<title>Node12</title>
<g id="a_node12"><a xlink:title=" ">
<polygon fill="none" stroke="#bfbfbf" points="182.5,-134.5 182.5,-164.5 286.5,-164.5 286.5,-134.5 182.5,-134.5"/>
<text text-anchor="start" x="190.5" y="-152.5" font-family="Helvetica,sans-Serif" font-size="10.00">boost/archive/binary</text>
<text text-anchor="middle" x="234.5" y="-141.5" font-family="Helvetica,sans-Serif" font-size="10.00">_iarchive.hpp</text>
</a>
</g>
</g>
<!-- Node4&#45;&gt;Node12 -->
<g id="edge41" class="edge">
<title>Node4&#45;&gt;Node12</title>
<path fill="none" stroke="midnightblue" d="M571.96,-272.66C537.48,-267.12 483.09,-255.32 441.5,-232 423.95,-222.16 425.98,-210.97 408.5,-201 398.45,-195.27 342.43,-179.43 296.62,-167"/>
<polygon fill="midnightblue" stroke="midnightblue" points="297.3,-163.56 286.73,-164.33 295.47,-170.32 297.3,-163.56"/>
</g>
<!-- Node13 -->
<g id="node13" class="node">
<title>Node13</title>
<g id="a_node13"><a xlink:title=" ">
<polygon fill="none" stroke="#bfbfbf" points="304.5,-134.5 304.5,-164.5 408.5,-164.5 408.5,-134.5 304.5,-134.5"/>
<text text-anchor="start" x="312.5" y="-152.5" font-family="Helvetica,sans-Serif" font-size="10.00">boost/archive/binary</text>
<text text-anchor="middle" x="356.5" y="-141.5" font-family="Helvetica,sans-Serif" font-size="10.00">_oarchive.hpp</text>
</a>
</g>
</g>
<!-- Node4&#45;&gt;Node13 -->
<g id="edge42" class="edge">
<title>Node4&#45;&gt;Node13</title>
<path fill="none" stroke="midnightblue" d="M575.95,-268.46C550.85,-260.65 514.26,-247.88 484.5,-232 463.72,-220.91 461.2,-213.92 441.5,-201 424.94,-190.14 406.05,-178.82 390.28,-169.65"/>
<polygon fill="midnightblue" stroke="midnightblue" points="391.81,-166.49 381.4,-164.52 388.31,-172.55 391.81,-166.49"/>
</g>
<!-- Node14 -->
<g id="node14" class="node">
<title>Node14</title>
<g id="a_node14"><a xlink:href="portable__binary__iarchive_8hpp.html" target="_top" xlink:title=" ">
<polygon fill="none" stroke="black" points="689,-134.5 689,-164.5 820,-164.5 820,-134.5 689,-134.5"/>
<text text-anchor="start" x="697" y="-152.5" font-family="Helvetica,sans-Serif" font-size="10.00">Networking/boost/portable</text>
<text text-anchor="middle" x="754.5" y="-141.5" font-family="Helvetica,sans-Serif" font-size="10.00">_binary_iarchive.hpp</text>
</a>
</g>
</g>
<!-- Node4&#45;&gt;Node14 -->
<g id="edge43" class="edge">
<title>Node4&#45;&gt;Node14</title>
<path fill="none" stroke="midnightblue" d="M611.14,-268.16C621.12,-253.02 643.14,-221.77 667.5,-201 681.83,-188.78 699.52,-177.89 715.2,-169.39"/>
<polygon fill="midnightblue" stroke="midnightblue" points="716.95,-172.42 724.17,-164.66 713.69,-166.23 716.95,-172.42"/>
</g>
<!-- Node29 -->
<g id="node29" class="node">
<title>Node29</title>
<g id="a_node29"><a xlink:href="portable__binary__oarchive_8hpp.html" target="_top" xlink:title=" ">
<polygon fill="none" stroke="black" points="540,-134.5 540,-164.5 671,-164.5 671,-134.5 540,-134.5"/>
<text text-anchor="start" x="548" y="-152.5" font-family="Helvetica,sans-Serif" font-size="10.00">Networking/boost/portable</text>
<text text-anchor="middle" x="605.5" y="-141.5" font-family="Helvetica,sans-Serif" font-size="10.00">_binary_oarchive.hpp</text>
</a>
</g>
</g>
<!-- Node4&#45;&gt;Node29 -->
<g id="edge44" class="edge">
<title>Node4&#45;&gt;Node29</title>
<path fill="none" stroke="midnightblue" d="M605.5,-268.31C605.5,-249.3 605.5,-203.47 605.5,-174.9"/>
<polygon fill="midnightblue" stroke="midnightblue" points="609,-174.89 605.5,-164.89 602,-174.89 609,-174.89"/>
</g>
<!-- Node33 -->
<g id="node33" class="node">
<title>Node33</title>
<g id="a_node33"><a xlink:title=" ">
<polygon fill="none" stroke="#bfbfbf" points="710,-201.5 710,-231.5 805,-231.5 805,-201.5 710,-201.5"/>
<text text-anchor="start" x="718" y="-219.5" font-family="Helvetica,sans-Serif" font-size="10.00">boost/serialization</text>
<text text-anchor="middle" x="757.5" y="-208.5" font-family="Helvetica,sans-Serif" font-size="10.00">/weak_ptr.hpp</text>
</a>
</g>
</g>
<!-- Node4&#45;&gt;Node33 -->
<g id="edge40" class="edge">
<title>Node4&#45;&gt;Node33</title>
<path fill="none" stroke="midnightblue" d="M627.28,-268.48C649.31,-259.85 684.02,-246.26 712.07,-235.29"/>
<polygon fill="midnightblue" stroke="midnightblue" points="713.64,-238.43 721.68,-231.52 711.09,-231.91 713.64,-238.43"/>
</g>
<!-- Node6&#45;&gt;Node2 -->
<g id="edge6" class="edge">
<title>Node6&#45;&gt;Node2</title>
<path fill="none" stroke="midnightblue" d="M493.18,-210.21C404.29,-199.01 203.85,-173.26 173.5,-165 171.06,-164.34 168.56,-163.54 166.07,-162.67"/>
<polygon fill="midnightblue" stroke="midnightblue" points="167.31,-159.4 156.72,-159.07 164.8,-165.93 167.31,-159.4"/>
</g>
<!-- Node6&#45;&gt;Node7 -->
<g id="edge7" class="edge">
<title>Node6&#45;&gt;Node7</title>
<path fill="none" stroke="midnightblue" d="M577.67,-211.77C687.35,-202.01 977.73,-175.85 1053.76,-164.8"/>
<polygon fill="midnightblue" stroke="midnightblue" points="1054.39,-168.24 1063.72,-163.22 1053.3,-161.33 1054.39,-168.24"/>
</g>
<!-- Node8 -->
<g id="node8" class="node">
<title>Node8</title>
<g id="a_node8"><a xlink:title=" ">
<polygon fill="none" stroke="#bfbfbf" points="427,-134.5 427,-164.5 522,-164.5 522,-134.5 427,-134.5"/>
<text text-anchor="start" x="435" y="-152.5" font-family="Helvetica,sans-Serif" font-size="10.00">boost/serialization</text>
<text text-anchor="middle" x="474.5" y="-141.5" font-family="Helvetica,sans-Serif" font-size="10.00">/map.hpp</text>
</a>
</g>
</g>
<!-- Node6&#45;&gt;Node8 -->
<g id="edge8" class="edge">
<title>Node6&#45;&gt;Node8</title>
<path fill="none" stroke="midnightblue" d="M527.27,-206.73C518.95,-197.86 505.76,-183.81 494.65,-171.97"/>
<polygon fill="midnightblue" stroke="midnightblue" points="497.12,-169.49 487.72,-164.59 492.01,-174.28 497.12,-169.49"/>
</g>
<!-- Node6&#45;&gt;Node9 -->
<g id="edge9" class="edge">
<title>Node6&#45;&gt;Node9</title>
<path fill="none" stroke="midnightblue" d="M577.91,-209.26C633.18,-200.89 732.99,-184.98 828.19,-164.96"/>
<polygon fill="midnightblue" stroke="midnightblue" points="828.92,-168.38 837.98,-162.89 827.47,-161.54 828.92,-168.38"/>
</g>
<!-- Node6&#45;&gt;Node10 -->
<g id="edge10" class="edge">
<title>Node6&#45;&gt;Node10</title>
<path fill="none" stroke="midnightblue" d="M577.56,-212.02C649.84,-205.66 802.39,-190.58 940.77,-164.98"/>
<polygon fill="midnightblue" stroke="midnightblue" points="941.52,-168.4 950.7,-163.12 940.23,-161.52 941.52,-168.4"/>
</g>
<!-- Node6&#45;&gt;Node11 -->
<g id="edge11" class="edge">
<title>Node6&#45;&gt;Node11</title>
<path fill="none" stroke="midnightblue" d="M493.2,-210.63C395.49,-199.38 158.78,-172.06 105.08,-164.78"/>
<polygon fill="midnightblue" stroke="midnightblue" points="105.47,-161.3 95.06,-163.29 104.43,-168.22 105.47,-161.3"/>
</g>
<!-- Node6&#45;&gt;Node12 -->
<g id="edge12" class="edge">
<title>Node6&#45;&gt;Node12</title>
<path fill="none" stroke="midnightblue" d="M493.37,-206.98C447.46,-197.62 371.56,-181.92 296.78,-165.26"/>
<polygon fill="midnightblue" stroke="midnightblue" points="297.25,-161.77 286.72,-163.01 295.72,-168.61 297.25,-161.77"/>
</g>
<!-- Node6&#45;&gt;Node13 -->
<g id="edge13" class="edge">
<title>Node6&#45;&gt;Node13</title>
<path fill="none" stroke="midnightblue" d="M511.73,-206.87C484.52,-196.99 439.25,-180.55 404.6,-167.97"/>
<polygon fill="midnightblue" stroke="midnightblue" points="405.73,-164.65 395.13,-164.53 403.34,-171.23 405.73,-164.65"/>
</g>
<!-- Node6&#45;&gt;Node14 -->
<g id="edge14" class="edge">
<title>Node6&#45;&gt;Node14</title>
<path fill="none" stroke="midnightblue" d="M564.58,-206.87C598.37,-196.84 654.92,-180.06 697.55,-167.4"/>
<polygon fill="midnightblue" stroke="midnightblue" points="698.65,-170.73 707.24,-164.53 696.65,-164.02 698.65,-170.73"/>
</g>
<!-- Node6&#45;&gt;Node29 -->
<g id="edge29" class="edge">
<title>Node6&#45;&gt;Node29</title>
<path fill="none" stroke="midnightblue" d="M544.94,-206.73C554.58,-197.78 569.92,-183.54 582.74,-171.63"/>
<polygon fill="midnightblue" stroke="midnightblue" points="585.38,-173.96 590.33,-164.59 580.62,-168.83 585.38,-173.96"/>
</g>
<!-- Node15 -->
<g id="node15" class="node">
<title>Node15</title>
<g id="a_node15"><a xlink:title=" ">
<polygon fill="none" stroke="#bfbfbf" points="1194,-73 1194,-92 1243,-92 1243,-73 1194,-73"/>
<text text-anchor="middle" x="1218.5" y="-80" font-family="Helvetica,sans-Serif" font-size="10.00">istream</text>
</a>
</g>
</g>
<!-- Node14&#45;&gt;Node15 -->
<g id="edge15" class="edge">
<title>Node14&#45;&gt;Node15</title>
<path fill="none" stroke="midnightblue" d="M820.21,-135.3C823.01,-134.84 825.78,-134.4 828.5,-134 985.81,-110.69 1030.49,-137.64 1184.5,-98 1186.86,-97.39 1189.27,-96.65 1191.66,-95.82"/>
<polygon fill="midnightblue" stroke="midnightblue" points="1193.18,-98.98 1201.21,-92.07 1190.62,-92.46 1193.18,-98.98"/>
</g>
<!-- Node16 -->
<g id="node16" class="node">
<title>Node16</title>
<g id="a_node16"><a xlink:title=" ">
<polygon fill="none" stroke="#bfbfbf" points="692,-67.5 692,-97.5 787,-97.5 787,-67.5 692,-67.5"/>
<text text-anchor="start" x="700" y="-85.5" font-family="Helvetica,sans-Serif" font-size="10.00">boost/serialization</text>
<text text-anchor="middle" x="739.5" y="-74.5" font-family="Helvetica,sans-Serif" font-size="10.00">/string.hpp</text>
</a>
</g>
</g>
<!-- Node14&#45;&gt;Node16 -->
<g id="edge16" class="edge">
<title>Node14&#45;&gt;Node16</title>
<path fill="none" stroke="midnightblue" d="M751.25,-134.4C749.44,-126.56 747.14,-116.6 745.05,-107.57"/>
<polygon fill="midnightblue" stroke="midnightblue" points="748.41,-106.53 742.75,-97.58 741.59,-108.11 748.41,-106.53"/>
</g>
<!-- Node17 -->
<g id="node17" class="node">
<title>Node17</title>
<g id="a_node17"><a xlink:title=" ">
<polygon fill="none" stroke="#bfbfbf" points="1260.5,-67.5 1260.5,-97.5 1376.5,-97.5 1376.5,-67.5 1260.5,-67.5"/>
<text text-anchor="start" x="1268.5" y="-85.5" font-family="Helvetica,sans-Serif" font-size="10.00">boost/serialization</text>
<text text-anchor="middle" x="1318.5" y="-74.5" font-family="Helvetica,sans-Serif" font-size="10.00">/item_version_type.hpp</text>
</a>
</g>
</g>
<!-- Node14&#45;&gt;Node17 -->
<g id="edge17" class="edge">
<title>Node14&#45;&gt;Node17</title>
<path fill="none" stroke="midnightblue" d="M820.21,-135.24C823,-134.8 825.78,-134.38 828.5,-134 1012.16,-108.27 1063.18,-125.4 1250.58,-98"/>
<polygon fill="midnightblue" stroke="midnightblue" points="1251.1,-101.46 1260.48,-96.53 1250.07,-94.54 1251.1,-101.46"/>
</g>
<!-- Node18 -->
<g id="node18" class="node">
<title>Node18</title>
<g id="a_node18"><a xlink:title=" ">
<polygon fill="none" stroke="#bfbfbf" points="805.5,-67.5 805.5,-97.5 915.5,-97.5 915.5,-67.5 805.5,-67.5"/>
<text text-anchor="start" x="813.5" y="-85.5" font-family="Helvetica,sans-Serif" font-size="10.00">boost/archive/archive</text>
<text text-anchor="middle" x="860.5" y="-74.5" font-family="Helvetica,sans-Serif" font-size="10.00">_exception.hpp</text>
</a>
</g>
</g>
<!-- Node14&#45;&gt;Node18 -->
<g id="edge18" class="edge">
<title>Node14&#45;&gt;Node18</title>
<path fill="none" stroke="midnightblue" d="M777.5,-134.4C792.5,-125.2 812.29,-113.07 828.77,-102.95"/>
<polygon fill="midnightblue" stroke="midnightblue" points="830.85,-105.79 837.54,-97.58 827.19,-99.82 830.85,-105.79"/>
</g>
<!-- Node19 -->
<g id="node19" class="node">
<title>Node19</title>
<g id="a_node19"><a xlink:title=" ">
<polygon fill="none" stroke="#bfbfbf" points="933.5,-67.5 933.5,-97.5 1043.5,-97.5 1043.5,-67.5 933.5,-67.5"/>
<text text-anchor="start" x="941.5" y="-85.5" font-family="Helvetica,sans-Serif" font-size="10.00">boost/archive/basic</text>
<text text-anchor="middle" x="988.5" y="-74.5" font-family="Helvetica,sans-Serif" font-size="10.00">_binary_iprimitive.hpp</text>
</a>
</g>
</g>
<!-- Node14&#45;&gt;Node19 -->
<g id="edge19" class="edge">
<title>Node14&#45;&gt;Node19</title>
<path fill="none" stroke="midnightblue" d="M804.99,-134.48C841,-124.47 889.6,-110.97 927.74,-100.38"/>
<polygon fill="midnightblue" stroke="midnightblue" points="929,-103.66 937.7,-97.61 927.13,-96.92 929,-103.66"/>
</g>
<!-- Node20 -->
<g id="node20" class="node">
<title>Node20</title>
<g id="a_node20"><a xlink:title=" ">
<polygon fill="none" stroke="#bfbfbf" points="1061.5,-67.5 1061.5,-97.5 1175.5,-97.5 1175.5,-67.5 1061.5,-67.5"/>
<text text-anchor="start" x="1069.5" y="-85.5" font-family="Helvetica,sans-Serif" font-size="10.00">boost/archive/detail</text>
<text text-anchor="middle" x="1118.5" y="-74.5" font-family="Helvetica,sans-Serif" font-size="10.00">/common_iarchive.hpp</text>
</a>
</g>
</g>
<!-- Node14&#45;&gt;Node20 -->
<g id="edge20" class="edge">
<title>Node14&#45;&gt;Node20</title>
<path fill="none" stroke="midnightblue" d="M820.25,-135.5C823.03,-134.98 825.79,-134.48 828.5,-134 924.67,-116.86 951.76,-116.81 1051.43,-98.14"/>
<polygon fill="midnightblue" stroke="midnightblue" points="1052.13,-101.57 1061.3,-96.27 1050.83,-94.69 1052.13,-101.57"/>
</g>
<!-- Node21 -->
<g id="node21" class="node">
<title>Node21</title>
<g id="a_node21"><a xlink:title=" ">
<polygon fill="none" stroke="#bfbfbf" points="412,-67.5 412,-97.5 519,-97.5 519,-67.5 412,-67.5"/>
<text text-anchor="start" x="420" y="-85.5" font-family="Helvetica,sans-Serif" font-size="10.00">boost/archive/detail</text>
<text text-anchor="middle" x="465.5" y="-74.5" font-family="Helvetica,sans-Serif" font-size="10.00">/register_archive.hpp</text>
</a>
</g>
</g>
<!-- Node14&#45;&gt;Node21 -->
<g id="edge21" class="edge">
<title>Node14&#45;&gt;Node21</title>
<path fill="none" stroke="midnightblue" d="M690.37,-134.43C647.28,-124.93 588.95,-111.98 529.24,-98.39"/>
<polygon fill="midnightblue" stroke="midnightblue" points="529.79,-94.92 519.26,-96.11 528.23,-101.75 529.79,-94.92"/>
</g>
<!-- Node22 -->
<g id="node22" class="node">
<title>Node22</title>
<g id="a_node22"><a xlink:href="portable__binary__archive_8hpp.html" target="_top" xlink:title=" ">
<polygon fill="none" stroke="black" points="537,-73 537,-92 674,-92 674,-73 537,-73"/>
<text text-anchor="middle" x="605.5" y="-80" font-family="Helvetica,sans-Serif" font-size="10.00">portable_binary_archive.hpp</text>
</a>
</g>
</g>
<!-- Node14&#45;&gt;Node22 -->
<g id="edge22" class="edge">
<title>Node14&#45;&gt;Node22</title>
<path fill="none" stroke="midnightblue" d="M722.17,-134.4C696.03,-122.99 659.55,-107.08 634.38,-96.1"/>
<polygon fill="midnightblue" stroke="midnightblue" points="635.57,-92.8 625,-92.01 632.77,-99.21 635.57,-92.8"/>
</g>
<!-- Node23 -->
<g id="node23" class="node">
<title>Node23</title>
<g id="a_node23"><a xlink:title=" ">
<polygon fill="none" stroke="#bfbfbf" points="282,-6 282,-25 369,-25 369,-6 282,-6"/>
<text text-anchor="middle" x="325.5" y="-13" font-family="Helvetica,sans-Serif" font-size="10.00">boost/config.hpp</text>
</a>
</g>
</g>
<!-- Node22&#45;&gt;Node23 -->
<g id="edge23" class="edge">
<title>Node22&#45;&gt;Node23</title>
<path fill="none" stroke="midnightblue" d="M563.74,-72.96C517.89,-63.41 442.2,-47.17 377.5,-31 373.41,-29.98 369.15,-28.87 364.91,-27.73"/>
<polygon fill="midnightblue" stroke="midnightblue" points="365.69,-24.32 355.13,-25.06 363.85,-31.07 365.69,-24.32"/>
</g>
<!-- Node24 -->
<g id="node24" class="node">
<title>Node24</title>
<g id="a_node24"><a xlink:title=" ">
<polygon fill="none" stroke="#bfbfbf" points="387,-6 387,-25 478,-25 478,-6 387,-6"/>
<text text-anchor="middle" x="432.5" y="-13" font-family="Helvetica,sans-Serif" font-size="10.00">boost/cstdint.hpp</text>
</a>
</g>
</g>
<!-- Node22&#45;&gt;Node24 -->
<g id="edge24" class="edge">
<title>Node22&#45;&gt;Node24</title>
<path fill="none" stroke="midnightblue" d="M582.53,-72.87C552.33,-61.52 499.1,-41.52 464.84,-28.65"/>
<polygon fill="midnightblue" stroke="midnightblue" points="465.88,-25.3 455.29,-25.06 463.42,-31.86 465.88,-25.3"/>
</g>
<!-- Node25 -->
<g id="node25" class="node">
<title>Node25</title>
<g id="a_node25"><a xlink:title=" ">
<polygon fill="none" stroke="#bfbfbf" points="496.5,-6 496.5,-25 614.5,-25 614.5,-6 496.5,-6"/>
<text text-anchor="middle" x="555.5" y="-13" font-family="Helvetica,sans-Serif" font-size="10.00">boost/static_assert.hpp</text>
</a>
</g>
</g>
<!-- Node22&#45;&gt;Node25 -->
<g id="edge25" class="edge">
<title>Node22&#45;&gt;Node25</title>
<path fill="none" stroke="midnightblue" d="M598.76,-72.73C590.96,-62.6 577.95,-45.69 568.24,-33.06"/>
<polygon fill="midnightblue" stroke="midnightblue" points="571.01,-30.92 562.14,-25.13 565.46,-35.19 571.01,-30.92"/>
</g>
<!-- Node26 -->
<g id="node26" class="node">
<title>Node26</title>
<g id="a_node26"><a xlink:title=" ">
<polygon fill="none" stroke="#bfbfbf" points="633,-6 633,-25 678,-25 678,-6 633,-6"/>
<text text-anchor="middle" x="655.5" y="-13" font-family="Helvetica,sans-Serif" font-size="10.00">climits</text>
</a>
</g>
</g>
<!-- Node22&#45;&gt;Node26 -->
<g id="edge26" class="edge">
<title>Node22&#45;&gt;Node26</title>
<path fill="none" stroke="midnightblue" d="M612.24,-72.73C620.04,-62.6 633.05,-45.69 642.76,-33.06"/>
<polygon fill="midnightblue" stroke="midnightblue" points="645.54,-35.19 648.86,-25.13 639.99,-30.92 645.54,-35.19"/>
</g>
<!-- Node27 -->
<g id="node27" class="node">
<title>Node27</title>
<g id="a_node27"><a xlink:title=" ">
<polygon fill="none" stroke="#bfbfbf" points="696,-0.5 696,-30.5 797,-30.5 797,-0.5 696,-0.5"/>
<text text-anchor="start" x="704" y="-18.5" font-family="Helvetica,sans-Serif" font-size="10.00">boost/archive/basic</text>
<text text-anchor="middle" x="746.5" y="-7.5" font-family="Helvetica,sans-Serif" font-size="10.00">_archive.hpp</text>
</a>
</g>
</g>
<!-- Node22&#45;&gt;Node27 -->
<g id="edge27" class="edge">
<title>Node22&#45;&gt;Node27</title>
<path fill="none" stroke="midnightblue" d="M624.22,-72.87C645.2,-63.2 679.8,-47.25 706.85,-34.78"/>
<polygon fill="midnightblue" stroke="midnightblue" points="708.45,-37.89 716.07,-30.53 705.52,-31.54 708.45,-37.89"/>
</g>
<!-- Node28 -->
<g id="node28" class="node">
<title>Node28</title>
<g id="a_node28"><a xlink:title=" ">
<polygon fill="none" stroke="#bfbfbf" points="815,-0.5 815,-30.5 910,-30.5 910,-0.5 815,-0.5"/>
<text text-anchor="start" x="823" y="-18.5" font-family="Helvetica,sans-Serif" font-size="10.00">boost/predef/other</text>
<text text-anchor="middle" x="862.5" y="-7.5" font-family="Helvetica,sans-Serif" font-size="10.00">/endian.h</text>
</a>
</g>
</g>
<!-- Node22&#45;&gt;Node28 -->
<g id="edge28" class="edge">
<title>Node22&#45;&gt;Node28</title>
<path fill="none" stroke="midnightblue" d="M639.48,-72.94C677.33,-63.4 740.62,-47.44 805,-31.13"/>
<polygon fill="midnightblue" stroke="midnightblue" points="806.08,-34.46 814.92,-28.61 804.36,-27.68 806.08,-34.46"/>
</g>
<!-- Node29&#45;&gt;Node16 -->
<g id="edge31" class="edge">
<title>Node29&#45;&gt;Node16</title>
<path fill="none" stroke="midnightblue" d="M634.58,-134.4C654.15,-124.9 680.18,-112.28 701.41,-101.98"/>
<polygon fill="midnightblue" stroke="midnightblue" points="703.01,-105.09 710.48,-97.58 699.96,-98.79 703.01,-105.09"/>
</g>
<!-- Node29&#45;&gt;Node18 -->
<g id="edge32" class="edge">
<title>Node29&#45;&gt;Node18</title>
<path fill="none" stroke="midnightblue" d="M660.52,-134.48C700.1,-124.39 753.63,-110.74 795.35,-100.11"/>
<polygon fill="midnightblue" stroke="midnightblue" points="796.32,-103.47 805.14,-97.61 794.59,-96.69 796.32,-103.47"/>
</g>
<!-- Node29&#45;&gt;Node21 -->
<g id="edge35" class="edge">
<title>Node29&#45;&gt;Node21</title>
<path fill="none" stroke="midnightblue" d="M575.12,-134.4C554.57,-124.86 527.24,-112.16 505,-101.84"/>
<polygon fill="midnightblue" stroke="midnightblue" points="506.36,-98.61 495.82,-97.58 503.41,-104.96 506.36,-98.61"/>
</g>
<!-- Node29&#45;&gt;Node22 -->
<g id="edge36" class="edge">
<title>Node29&#45;&gt;Node22</title>
<path fill="none" stroke="midnightblue" d="M605.5,-134.4C605.5,-125.06 605.5,-112.71 605.5,-102.52"/>
<polygon fill="midnightblue" stroke="midnightblue" points="609,-102.19 605.5,-92.19 602,-102.19 609,-102.19"/>
</g>
<!-- Node30 -->
<g id="node30" class="node">
<title>Node30</title>
<g id="a_node30"><a xlink:title=" ">
<polygon fill="none" stroke="#bfbfbf" points="341.5,-73 341.5,-92 393.5,-92 393.5,-73 341.5,-73"/>
<text text-anchor="middle" x="367.5" y="-80" font-family="Helvetica,sans-Serif" font-size="10.00">ostream</text>
</a>
</g>
</g>
<!-- Node29&#45;&gt;Node30 -->
<g id="edge30" class="edge">
<title>Node29&#45;&gt;Node30</title>
<path fill="none" stroke="midnightblue" d="M539.89,-134.79C499.78,-125.76 447.69,-112.89 402.5,-98 400.58,-97.37 398.61,-96.68 396.64,-95.95"/>
<polygon fill="midnightblue" stroke="midnightblue" points="397.52,-92.54 386.93,-92.15 394.97,-99.05 397.52,-92.54"/>
</g>
<!-- Node31 -->
<g id="node31" class="node">
<title>Node31</title>
<g id="a_node31"><a xlink:title=" ">
<polygon fill="none" stroke="#bfbfbf" points="75,-67.5 75,-97.5 188,-97.5 188,-67.5 75,-67.5"/>
<text text-anchor="start" x="83" y="-85.5" font-family="Helvetica,sans-Serif" font-size="10.00">boost/archive/basic</text>
<text text-anchor="middle" x="131.5" y="-74.5" font-family="Helvetica,sans-Serif" font-size="10.00">_binary_oprimitive.hpp</text>
</a>
</g>
</g>
<!-- Node29&#45;&gt;Node31 -->
<g id="edge33" class="edge">
<title>Node29&#45;&gt;Node31</title>
<path fill="none" stroke="midnightblue" d="M539.7,-135.46C536.6,-134.94 533.52,-134.45 530.5,-134 386.03,-112.29 345.54,-121.86 198.02,-98.14"/>
<polygon fill="midnightblue" stroke="midnightblue" points="198.58,-94.69 188.15,-96.53 197.45,-101.59 198.58,-94.69"/>
</g>
<!-- Node32 -->
<g id="node32" class="node">
<title>Node32</title>
<g id="a_node32"><a xlink:title=" ">
<polygon fill="none" stroke="#bfbfbf" points="206,-67.5 206,-97.5 323,-97.5 323,-67.5 206,-67.5"/>
<text text-anchor="start" x="214" y="-85.5" font-family="Helvetica,sans-Serif" font-size="10.00">boost/archive/detail</text>
<text text-anchor="middle" x="264.5" y="-74.5" font-family="Helvetica,sans-Serif" font-size="10.00">/common_oarchive.hpp</text>
</a>
</g>
</g>
<!-- Node29&#45;&gt;Node32 -->
<g id="edge34" class="edge">
<title>Node29&#45;&gt;Node32</title>
<path fill="none" stroke="midnightblue" d="M539.66,-135.73C536.56,-135.14 533.5,-134.56 530.5,-134 445.68,-118.09 421.9,-115.5 333.06,-98.07"/>
<polygon fill="midnightblue" stroke="midnightblue" points="333.57,-94.61 323.08,-96.11 332.22,-101.48 333.57,-94.61"/>
</g>
</g>
</svg>
        <g id="navigator" transform="translate(0 0)" fill="#404254">
                <rect fill="#f2f5e9" fill-opacity="0.5" stroke="#606060" stroke-width=".5" x="0" y="0" width="60" height="60"/>
                <use id="zoomplus" xlink:href="#zoomPlus" x="17" y="9" onmousedown="handleZoom(evt,'in')"/>
                <use id="zoomminus" xlink:href="#zoomMin" x="42" y="9" onmousedown="handleZoom(evt,'out')"/>
                <use id="reset" xlink:href="#resetDef" x="30" y="36" onmousedown="handleReset()"/>
                <g id="arrowUp" xlink:href="#dirArrow" transform="translate(30 24)" onmousedown="handlePan(0,-1)">
                  <use xlink:href="#rim" fill="#404040">
                        <set attributeName="fill" to="#808080" begin="arrowUp.mouseover" end="arrowUp.mouseout"/>
                  </use>
                  <path fill="none" stroke="white" stroke-width="1.5" d="M0,-3.0v7 M-2.5,-0.5L0,-3.0L2.5,-0.5"/>
                </g>
                <g id="arrowRight" xlink:href="#dirArrow" transform="rotate(90) translate(36 -43)" onmousedown="handlePan(1,0)">
                  <use xlink:href="#rim" fill="#404040">
                        <set attributeName="fill" to="#808080" begin="arrowRight.mouseover" end="arrowRight.mouseout"/>
                  </use>
                  <path fill="none" stroke="white" stroke-width="1.5" d="M0,-3.0v7 M-2.5,-0.5L0,-3.0L2.5,-0.5"/>
                </g>
                <g id="arrowDown" xlink:href="#dirArrow" transform="rotate(180) translate(-30 -48)" onmousedown="handlePan(0,1)">
                  <use xlink:href="#rim" fill="#404040">
                        <set attributeName="fill" to="#808080" begin="arrowDown.mouseover" end="arrowDown.mouseout"/>
                  </use>
                  <path fill="none" stroke="white" stroke-width="1.5" d="M0,-3.0v7 M-2.5,-0.5L0,-3.0L2.5,-0.5"/>
                </g>
                <g id="arrowLeft" xlink:href="#dirArrow" transform="rotate(270) translate(-36 17)" onmousedown="handlePan(-1,0)">
                  <use xlink:href="#rim" fill="#404040">
                        <set attributeName="fill" to="#808080" begin="arrowLeft.mouseover" end="arrowLeft.mouseout"/>
                  </use>
                  <path fill="none" stroke="white" stroke-width="1.5" d="M0,-3.0v7 M-2.5,-0.5L0,-3.0L2.5,-0.5"/>
                </g>
        </g>
        <svg viewBox="0 0 15 15" width="100%" height="30px" preserveAspectRatio="xMaxYMin meet">
         <g id="arrow_out" transform="scale(0.3 0.3)">
          <a xlink:href="Collision_8hpp__incl_org.svg" target="_base">
           <rect id="button" ry="5" rx="5" y="6" x="6" height="38" width="38"
                fill="#f2f5e9" fill-opacity="0.5" stroke="#606060" stroke-width="1.0"/>
           <path id="arrow"
             d="M 11.500037,31.436501 C 11.940474,20.09759 22.043105,11.32322 32.158766,21.979434 L 37.068811,17.246167 C 37.068811,17.246167 37.088388,32 37.088388,32 L 22.160133,31.978069 C 22.160133,31.978069 26.997745,27.140456 26.997745,27.140456 C 18.528582,18.264221 13.291696,25.230495 11.500037,31.436501 z"
             style="fill:#404040;"/>
          </a>
         </g>
        </svg>
</svg>
