<?xml version="1.0" encoding="UTF-8" standalone="no"?>
<!DOCTYPE svg PUBLIC "-//W3C//DTD SVG 1.1//EN"
 "http://www.w3.org/Graphics/SVG/1.1/DTD/svg11.dtd">
<!-- Generated by graphviz version 2.44.0 ()
 -->
<!-- Title: includes/platformer&#45;engine/Physics/Collision.hpp Pages: 1 -->
<!--zoomable 396 -->
<svg id="main" version="1.1" xmlns="http://www.w3.org/2000/svg" xmlns:xlink="http://www.w3.org/1999/xlink" xml:space="preserve" onload="init(evt)">
<style type="text/css"><![CDATA[
.edge:hover path { stroke: red; }
.edge:hover polygon { stroke: red; fill: red; }
]]></style>
<script type="text/javascript"><![CDATA[
var edges = document.getElementsByTagName('g');
if (edges && edges.length) {
  for (var i=0;i<edges.length;i++) {
    if (edges[i].id.substr(0,4)=='edge') {
      edges[i].setAttribute('class','edge');
    }
  }
}
]]></script>
        <defs>
                <circle id="rim" cx="0" cy="0" r="7"/>
                <circle id="rim2" cx="0" cy="0" r="3.5"/>
                <g id="zoomPlus">
                        <use xlink:href="#rim" fill="#404040">
                                <set attributeName="fill" to="#808080" begin="zoomplus.mouseover" end="zoomplus.mouseout"/>
                        </use>
                        <path d="M-4,0h8M0,-4v8" fill="none" stroke="white" stroke-width="1.5" pointer-events="none"/>
                </g>
                <g id="zoomMin">
                        <use xlink:href="#rim" fill="#404040">
                                <set attributeName="fill" to="#808080" begin="zoomminus.mouseover" end="zoomminus.mouseout"/>
                        </use>
                        <path d="M-4,0h8" fill="none" stroke="white" stroke-width="1.5" pointer-events="none"/>
                </g>
                <g id="dirArrow">
                        <path fill="none" stroke="white" stroke-width="1.5" d="M0,-3.0v7 M-2.5,-0.5L0,-3.0L2.5,-0.5"/>
                </g>
               <g id="resetDef">
                       <use xlink:href="#rim2" fill="#404040">
                               <set attributeName="fill" to="#808080" begin="reset.mouseover" end="reset.mouseout"/>
                       </use>
               </g>
        </defs>

<script type="text/javascript">
var viewWidth = 2398;
var viewHeight = 396;
var sectionId = 'dynsection-1';
</script>
<script xlink:href="svgpan.js"/>
<svg id="graph" class="graph">
<g id="viewport">
<title>includes/platformer&#45;engine/Physics/Collision.hpp</title>
<!-- Node1 -->
<g id="node1" class="node">
<title>Node1</title>
<g id="a_node1"><a xlink:title=" ">
<polygon fill="#bfbfbf" stroke="black" points="1391.86,-357.5 1391.86,-387.5 1534.86,-387.5 1534.86,-357.5 1391.86,-357.5"/>
<text text-anchor="start" x="1399.86" y="-375.5" font-family="Helvetica,sans-Serif" font-size="10.00">includes/platformer</text>
<text text-anchor="middle" x="1463.36" y="-364.5" font-family="Helvetica,sans-Serif" font-size="10.00">&#45;engine/Physics/Collision.hpp</text>
</a>
</g>
</g>
<!-- Node2 -->
<g id="node2" class="node">
<title>Node2</title>
<g id="a_node2"><a xlink:href="Collider_8cpp.html" target="_top" xlink:title=" ">
<polygon fill="none" stroke="black" points="1111.86,-296 1111.86,-315 1214.86,-315 1214.86,-296 1111.86,-296"/>
<text text-anchor="middle" x="1163.36" y="-303" font-family="Helvetica,sans-Serif" font-size="10.00">src/API/Collider.cpp</text>
</a>
</g>
</g>
<!-- Node1&#45;&gt;Node2 -->
<g id="edge1" class="edge">
<title>Node1&#45;&gt;Node2</title>
<path fill="none" stroke="midnightblue" d="M1383.85,-355.39C1337.05,-345.75 1276.76,-333.07 1223.36,-321 1215.1,-319.13 1206.23,-317.04 1197.9,-315.03"/>
<polygon fill="midnightblue" stroke="midnightblue" points="1383.43,-358.87 1393.93,-357.46 1384.84,-352.02 1383.43,-358.87"/>
</g>
<!-- Node3 -->
<g id="node3" class="node">
<title>Node3</title>
<g id="a_node3"><a xlink:href="Collision_8cpp.html" target="_top" xlink:title=" ">
<polygon fill="none" stroke="black" points="1232.86,-296 1232.86,-315 1357.86,-315 1357.86,-296 1232.86,-296"/>
<text text-anchor="middle" x="1295.36" y="-303" font-family="Helvetica,sans-Serif" font-size="10.00">src/Physics/Collision.cpp</text>
</a>
</g>
</g>
<!-- Node1&#45;&gt;Node3 -->
<g id="edge2" class="edge">
<title>Node1&#45;&gt;Node3</title>
<path fill="none" stroke="midnightblue" d="M1417.57,-353.78C1385,-341.18 1342.68,-324.81 1317.35,-315.01"/>
<polygon fill="midnightblue" stroke="midnightblue" points="1416.32,-357.05 1426.91,-357.4 1418.84,-350.52 1416.32,-357.05"/>
</g>
<!-- Node4 -->
<g id="node4" class="node">
<title>Node4</title>
<g id="a_node4"><a xlink:href="PhysicsSystem_8hpp.html" target="_top" xlink:title=" ">
<polygon fill="none" stroke="black" points="1376.36,-290.5 1376.36,-320.5 1550.36,-320.5 1550.36,-290.5 1376.36,-290.5"/>
<text text-anchor="start" x="1384.36" y="-308.5" font-family="Helvetica,sans-Serif" font-size="10.00">includes/platformer</text>
<text text-anchor="middle" x="1463.36" y="-297.5" font-family="Helvetica,sans-Serif" font-size="10.00">&#45;engine/Physics/PhysicsSystem.hpp</text>
</a>
</g>
</g>
<!-- Node1&#45;&gt;Node4 -->
<g id="edge3" class="edge">
<title>Node1&#45;&gt;Node4</title>
<path fill="none" stroke="midnightblue" d="M1463.36,-347.11C1463.36,-338.15 1463.36,-328.32 1463.36,-320.58"/>
<polygon fill="midnightblue" stroke="midnightblue" points="1459.86,-347.4 1463.36,-357.4 1466.86,-347.4 1459.86,-347.4"/>
</g>
<!-- Node21 -->
<g id="node21" class="node">
<title>Node21</title>
<g id="a_node21"><a xlink:href="BehaviourScript_8hpp.html" target="_top" xlink:title=" ">
<polygon fill="none" stroke="black" points="1568.86,-290.5 1568.86,-320.5 1675.86,-320.5 1675.86,-290.5 1568.86,-290.5"/>
<text text-anchor="start" x="1576.86" y="-308.5" font-family="Helvetica,sans-Serif" font-size="10.00">includes/spic&#45;prj&#45;api</text>
<text text-anchor="middle" x="1622.36" y="-297.5" font-family="Helvetica,sans-Serif" font-size="10.00">/BehaviourScript.hpp</text>
</a>
</g>
</g>
<!-- Node1&#45;&gt;Node21 -->
<g id="edge20" class="edge">
<title>Node1&#45;&gt;Node21</title>
<path fill="none" stroke="midnightblue" d="M1507.28,-353.54C1532.73,-343.14 1564.29,-330.24 1587.93,-320.58"/>
<polygon fill="midnightblue" stroke="midnightblue" points="1505.79,-350.37 1497.86,-357.4 1508.44,-356.85 1505.79,-350.37"/>
</g>
<!-- Node29 -->
<g id="node29" class="node">
<title>Node29</title>
<g id="a_node29"><a xlink:href="RigidBody_8hpp.html" target="_top" xlink:title=" ">
<polygon fill="none" stroke="black" points="1917.86,-290.5 1917.86,-320.5 2020.86,-320.5 2020.86,-290.5 1917.86,-290.5"/>
<text text-anchor="start" x="1925.86" y="-308.5" font-family="Helvetica,sans-Serif" font-size="10.00">includes/spic&#45;prj&#45;api</text>
<text text-anchor="middle" x="1969.36" y="-297.5" font-family="Helvetica,sans-Serif" font-size="10.00">/RigidBody.hpp</text>
</a>
</g>
</g>
<!-- Node1&#45;&gt;Node29 -->
<g id="edge37" class="edge">
<title>Node1&#45;&gt;Node29</title>
<path fill="none" stroke="midnightblue" d="M1544.98,-361.01C1650.06,-347.52 1829.55,-324.46 1917.59,-313.15"/>
<polygon fill="midnightblue" stroke="midnightblue" points="1544.53,-357.54 1535.05,-362.29 1545.42,-364.49 1544.53,-357.54"/>
</g>
<!-- Node5 -->
<g id="node5" class="node">
<title>Node5</title>
<g id="a_node5"><a xlink:href="PhysicsSystem_8cpp.html" target="_top" xlink:title=" ">
<polygon fill="none" stroke="black" points="1491.36,-223.5 1491.36,-242.5 1647.36,-242.5 1647.36,-223.5 1491.36,-223.5"/>
<text text-anchor="middle" x="1569.36" y="-230.5" font-family="Helvetica,sans-Serif" font-size="10.00">src/Physics/PhysicsSystem.cpp</text>
</a>
</g>
</g>
<!-- Node4&#45;&gt;Node5 -->
<g id="edge4" class="edge">
<title>Node4&#45;&gt;Node5</title>
<path fill="none" stroke="midnightblue" d="M1493.09,-284.73C1513.99,-270.83 1540.9,-252.93 1556.53,-242.53"/>
<polygon fill="midnightblue" stroke="midnightblue" points="1490.95,-281.95 1484.56,-290.4 1494.82,-287.78 1490.95,-281.95"/>
</g>
<!-- Node6 -->
<g id="node6" class="node">
<title>Node6</title>
<g id="a_node6"><a xlink:href="Engine_8hpp.html" target="_top" xlink:title=" ">
<polygon fill="none" stroke="black" points="965.86,-218 965.86,-248 1096.86,-248 1096.86,-218 965.86,-218"/>
<text text-anchor="start" x="973.86" y="-236" font-family="Helvetica,sans-Serif" font-size="10.00">includes/platformer</text>
<text text-anchor="middle" x="1031.36" y="-225" font-family="Helvetica,sans-Serif" font-size="10.00">&#45;engine/Engine/Engine.hpp</text>
</a>
</g>
</g>
<!-- Node4&#45;&gt;Node6 -->
<g id="edge5" class="edge">
<title>Node4&#45;&gt;Node6</title>
<path fill="none" stroke="midnightblue" d="M1366.08,-289.72C1286.68,-277.59 1180.93,-261.28 1138.36,-254 1124.95,-251.71 1110.62,-249.12 1096.95,-246.59"/>
<polygon fill="midnightblue" stroke="midnightblue" points="1365.7,-293.2 1376.11,-291.25 1366.75,-286.28 1365.7,-293.2"/>
</g>
<!-- Node7 -->
<g id="node7" class="node">
<title>Node7</title>
<g id="a_node7"><a xlink:href="Animator_8cpp.html" target="_top" xlink:title=" ">
<polygon fill="none" stroke="black" points="1265.36,-145.5 1265.36,-164.5 1375.36,-164.5 1375.36,-145.5 1265.36,-145.5"/>
<text text-anchor="middle" x="1320.36" y="-152.5" font-family="Helvetica,sans-Serif" font-size="10.00">src/API/Animator.cpp</text>
</a>
</g>
</g>
<!-- Node6&#45;&gt;Node7 -->
<g id="edge6" class="edge">
<title>Node6&#45;&gt;Node7</title>
<path fill="none" stroke="midnightblue" d="M1101.29,-215.54C1145.6,-204.85 1204.03,-190.3 1255.36,-176 1267.99,-172.48 1281.88,-168.26 1293.58,-164.59"/>
<polygon fill="midnightblue" stroke="midnightblue" points="1100.39,-212.15 1091.49,-217.89 1102.03,-218.96 1100.39,-212.15"/>
</g>
<!-- Node8 -->
<g id="node8" class="node">
<title>Node8</title>
<g id="a_node8"><a xlink:href="RigidBody_8cpp.html" target="_top" xlink:title=" ">
<polygon fill="none" stroke="black" points="1950.36,-145.5 1950.36,-164.5 2064.36,-164.5 2064.36,-145.5 1950.36,-145.5"/>
<text text-anchor="middle" x="2007.36" y="-152.5" font-family="Helvetica,sans-Serif" font-size="10.00">src/API/RigidBody.cpp</text>
</a>
</g>
</g>
<!-- Node6&#45;&gt;Node8 -->
<g id="edge7" class="edge">
<title>Node6&#45;&gt;Node8</title>
<path fill="none" stroke="midnightblue" d="M1107.04,-216.5C1117.53,-214.75 1128.19,-213.17 1138.36,-212 1492.37,-171.16 1587.87,-234.7 1939.36,-176 1954.29,-173.51 1970.57,-168.79 1983.46,-164.57"/>
<polygon fill="midnightblue" stroke="midnightblue" points="1106.32,-213.07 1097.07,-218.22 1107.52,-219.97 1106.32,-213.07"/>
</g>
<!-- Node9 -->
<g id="node9" class="node">
<title>Node9</title>
<g id="a_node9"><a xlink:href="CollisionBehaviour_8cpp.html" target="_top" xlink:title=" ">
<polygon fill="none" stroke="black" points="1469.36,-145.5 1469.36,-164.5 1647.36,-164.5 1647.36,-145.5 1469.36,-145.5"/>
<text text-anchor="middle" x="1558.36" y="-152.5" font-family="Helvetica,sans-Serif" font-size="10.00">src/Behaviour/CollisionBehaviour.cpp</text>
</a>
</g>
</g>
<!-- Node6&#45;&gt;Node9 -->
<g id="edge8" class="edge">
<title>Node6&#45;&gt;Node9</title>
<path fill="none" stroke="midnightblue" d="M1106.91,-217.18C1117.45,-215.32 1128.16,-213.53 1138.36,-212 1278.59,-190.96 1315.21,-197.53 1455.36,-176 1476.25,-172.79 1499.35,-168.38 1518.38,-164.52"/>
<polygon fill="midnightblue" stroke="midnightblue" points="1106.1,-213.77 1096.88,-218.99 1107.34,-220.66 1106.1,-213.77"/>
</g>
<!-- Node10 -->
<g id="node10" class="node">
<title>Node10</title>
<g id="a_node10"><a xlink:href="FPSCounterBehaviour_8cpp.html" target="_top" xlink:title=" ">
<polygon fill="none" stroke="black" points="15.86,-140 15.86,-170 148.86,-170 148.86,-140 15.86,-140"/>
<text text-anchor="start" x="23.86" y="-158" font-family="Helvetica,sans-Serif" font-size="10.00">src/Behaviour/FPSCounter</text>
<text text-anchor="middle" x="82.36" y="-147" font-family="Helvetica,sans-Serif" font-size="10.00">Behaviour.cpp</text>
</a>
</g>
</g>
<!-- Node6&#45;&gt;Node10 -->
<g id="edge9" class="edge">
<title>Node6&#45;&gt;Node10</title>
<path fill="none" stroke="midnightblue" d="M955.47,-231.62C803.98,-229.87 453.67,-220.84 163.36,-176 153.63,-174.5 143.35,-172.38 133.5,-170.08"/>
<polygon fill="midnightblue" stroke="midnightblue" points="955.56,-235.12 965.6,-231.73 955.64,-228.12 955.56,-235.12"/>
</g>
<!-- Node11 -->
<g id="node11" class="node">
<title>Node11</title>
<g id="a_node11"><a xlink:href="Debug_8cpp.html" target="_top" xlink:title=" ">
<polygon fill="none" stroke="black" points="205.36,-145.5 205.36,-164.5 315.36,-164.5 315.36,-145.5 205.36,-145.5"/>
<text text-anchor="middle" x="260.36" y="-152.5" font-family="Helvetica,sans-Serif" font-size="10.00">src/Debug/Debug.cpp</text>
</a>
</g>
</g>
<!-- Node6&#45;&gt;Node11 -->
<g id="edge10" class="edge">
<title>Node6&#45;&gt;Node11</title>
<path fill="none" stroke="midnightblue" d="M955.12,-231.53C824.71,-229.48 550.94,-219.8 324.36,-176 310.53,-173.33 295.48,-168.71 283.45,-164.59"/>
<polygon fill="midnightblue" stroke="midnightblue" points="955.35,-235.03 965.4,-231.68 955.45,-228.03 955.35,-235.03"/>
</g>
<!-- Node12 -->
<g id="node12" class="node">
<title>Node12</title>
<g id="a_node12"><a xlink:href="GameObjectFactory_8cpp.html" target="_top" xlink:title=" ">
<polygon fill="none" stroke="black" points="1663.86,-0.5 1663.86,-19.5 1838.86,-19.5 1838.86,-0.5 1663.86,-0.5"/>
<text text-anchor="middle" x="1751.36" y="-7.5" font-family="Helvetica,sans-Serif" font-size="10.00">src/Director/GameObjectFactory.cpp</text>
</a>
</g>
</g>
<!-- Node6&#45;&gt;Node12 -->
<g id="edge11" class="edge">
<title>Node6&#45;&gt;Node12</title>
<path fill="none" stroke="midnightblue" d="M1106.96,-217.49C1117.49,-215.57 1128.19,-213.69 1138.36,-212 1247.36,-193.85 1288.75,-231.39 1384.36,-176 1404.9,-164.1 1398.48,-148.38 1417.36,-134 1488.67,-79.68 1519.04,-86.41 1603.36,-56 1643.02,-41.7 1689.7,-28.01 1719.87,-19.57"/>
<polygon fill="midnightblue" stroke="midnightblue" points="1106.14,-214.08 1096.93,-219.32 1107.4,-220.96 1106.14,-214.08"/>
</g>
<!-- Node13 -->
<g id="node13" class="node">
<title>Node13</title>
<g id="a_node13"><a xlink:href="Engine_8cpp.html" target="_top" xlink:title=" ">
<polygon fill="none" stroke="black" points="333.86,-145.5 333.86,-164.5 446.86,-164.5 446.86,-145.5 333.86,-145.5"/>
<text text-anchor="middle" x="390.36" y="-152.5" font-family="Helvetica,sans-Serif" font-size="10.00">src/Engine/Engine.cpp</text>
</a>
</g>
</g>
<!-- Node6&#45;&gt;Node13 -->
<g id="edge12" class="edge">
<title>Node6&#45;&gt;Node13</title>
<path fill="none" stroke="midnightblue" d="M955.58,-229.37C844.94,-224.47 633.1,-211.03 456.36,-176 442.27,-173.21 426.89,-168.64 414.52,-164.57"/>
<polygon fill="midnightblue" stroke="midnightblue" points="955.5,-232.87 965.65,-229.81 955.81,-225.88 955.5,-232.87"/>
</g>
<!-- Node14 -->
<g id="node14" class="node">
<title>Node14</title>
<g id="a_node14"><a xlink:href="TMXParser_8cpp.html" target="_top" xlink:title=" ">
<polygon fill="none" stroke="black" points="465.36,-145.5 465.36,-164.5 601.36,-164.5 601.36,-145.5 465.36,-145.5"/>
<text text-anchor="middle" x="533.36" y="-152.5" font-family="Helvetica,sans-Serif" font-size="10.00">src/Facade/TMXParser.cpp</text>
</a>
</g>
</g>
<!-- Node6&#45;&gt;Node14 -->
<g id="edge13" class="edge">
<title>Node6&#45;&gt;Node14</title>
<path fill="none" stroke="midnightblue" d="M955.65,-224.74C871.03,-215.97 730.14,-199.43 610.36,-176 594.5,-172.9 577.06,-168.45 562.79,-164.54"/>
<polygon fill="midnightblue" stroke="midnightblue" points="955.38,-228.23 965.69,-225.77 956.1,-221.27 955.38,-228.23"/>
</g>
<!-- Node15 -->
<g id="node15" class="node">
<title>Node15</title>
<g id="a_node15"><a xlink:href="ClientNetworkManager_8cpp.html" target="_top" xlink:title=" ">
<polygon fill="none" stroke="black" points="619.86,-140 619.86,-170 766.86,-170 766.86,-140 619.86,-140"/>
<text text-anchor="start" x="627.86" y="-158" font-family="Helvetica,sans-Serif" font-size="10.00">src/Networking/ClientNetwork</text>
<text text-anchor="middle" x="693.36" y="-147" font-family="Helvetica,sans-Serif" font-size="10.00">Manager.cpp</text>
</a>
</g>
</g>
<!-- Node6&#45;&gt;Node15 -->
<g id="edge14" class="edge">
<title>Node6&#45;&gt;Node15</title>
<path fill="none" stroke="midnightblue" d="M955.85,-215.84C905.05,-204.86 836.61,-189.87 776.36,-176 768.13,-174.1 759.45,-172.06 750.92,-170.03"/>
<polygon fill="midnightblue" stroke="midnightblue" points="955.25,-219.29 965.77,-217.98 956.73,-212.45 955.25,-219.29"/>
</g>
<!-- Node16 -->
<g id="node16" class="node">
<title>Node16</title>
<g id="a_node16"><a xlink:href="ServerNetworkManager_8cpp.html" target="_top" xlink:title=" ">
<polygon fill="none" stroke="black" points="1645.86,-62 1645.86,-92 1796.86,-92 1796.86,-62 1645.86,-62"/>
<text text-anchor="start" x="1653.86" y="-80" font-family="Helvetica,sans-Serif" font-size="10.00">src/Networking/ServerNetwork</text>
<text text-anchor="middle" x="1721.36" y="-69" font-family="Helvetica,sans-Serif" font-size="10.00">Manager.cpp</text>
</a>
</g>
</g>
<!-- Node6&#45;&gt;Node16 -->
<g id="edge15" class="edge">
<title>Node6&#45;&gt;Node16</title>
<path fill="none" stroke="midnightblue" d="M1106.93,-217.32C1117.47,-215.44 1128.18,-213.61 1138.36,-212 1261.86,-192.51 1304.83,-230.49 1417.36,-176 1441.41,-164.36 1436.82,-146.63 1460.36,-134 1518.04,-103.05 1591.53,-89.2 1645.82,-83.01"/>
<polygon fill="midnightblue" stroke="midnightblue" points="1106.12,-213.92 1096.9,-219.14 1107.37,-220.8 1106.12,-213.92"/>
</g>
<!-- Node17 -->
<g id="node17" class="node">
<title>Node17</title>
<g id="a_node17"><a xlink:href="RenderSystem_8cpp.html" target="_top" xlink:title=" ">
<polygon fill="none" stroke="black" points="785.36,-145.5 785.36,-164.5 935.36,-164.5 935.36,-145.5 785.36,-145.5"/>
<text text-anchor="middle" x="860.36" y="-152.5" font-family="Helvetica,sans-Serif" font-size="10.00">src/Texture/RenderSystem.cpp</text>
</a>
</g>
</g>
<!-- Node6&#45;&gt;Node17 -->
<g id="edge16" class="edge">
<title>Node6&#45;&gt;Node17</title>
<path fill="none" stroke="midnightblue" d="M990.11,-213.67C955.09,-198.1 906.39,-176.46 879.73,-164.61"/>
<polygon fill="midnightblue" stroke="midnightblue" points="989.04,-217.02 999.6,-217.88 991.88,-210.62 989.04,-217.02"/>
</g>
<!-- Node18 -->
<g id="node18" class="node">
<title>Node18</title>
<g id="a_node18"><a xlink:href="TextureManager_8cpp.html" target="_top" xlink:title=" ">
<polygon fill="none" stroke="black" points="953.36,-145.5 953.36,-164.5 1109.36,-164.5 1109.36,-145.5 953.36,-145.5"/>
<text text-anchor="middle" x="1031.36" y="-152.5" font-family="Helvetica,sans-Serif" font-size="10.00">src/Texture/TextureManager.cpp</text>
</a>
</g>
</g>
<!-- Node6&#45;&gt;Node18 -->
<g id="edge17" class="edge">
<title>Node6&#45;&gt;Node18</title>
<path fill="none" stroke="midnightblue" d="M1031.36,-207.67C1031.36,-192.9 1031.36,-174.95 1031.36,-164.56"/>
<polygon fill="midnightblue" stroke="midnightblue" points="1027.86,-207.7 1031.36,-217.7 1034.86,-207.71 1027.86,-207.7"/>
</g>
<!-- Node19 -->
<g id="node19" class="node">
<title>Node19</title>
<g id="a_node19"><a xlink:href="ClickSystem_8cpp.html" target="_top" xlink:title=" ">
<polygon fill="none" stroke="black" points="1127.86,-145.5 1127.86,-164.5 1246.86,-164.5 1246.86,-145.5 1127.86,-145.5"/>
<text text-anchor="middle" x="1187.36" y="-152.5" font-family="Helvetica,sans-Serif" font-size="10.00">src/UI/ClickSystem.cpp</text>
</a>
</g>
</g>
<!-- Node6&#45;&gt;Node19 -->
<g id="edge18" class="edge">
<title>Node6&#45;&gt;Node19</title>
<path fill="none" stroke="midnightblue" d="M1069.4,-213.47C1101.32,-197.92 1145.47,-176.41 1169.7,-164.61"/>
<polygon fill="midnightblue" stroke="midnightblue" points="1067.8,-210.36 1060.34,-217.88 1070.86,-216.65 1067.8,-210.36"/>
</g>
<!-- Node20 -->
<g id="node20" class="node">
<title>Node20</title>
<g id="a_node20"><a xlink:href="FPSCounter_8cpp.html" target="_top" xlink:title=" ">
<polygon fill="none" stroke="black" points="118.36,-0.5 118.36,-19.5 236.36,-19.5 236.36,-0.5 118.36,-0.5"/>
<text text-anchor="middle" x="177.36" y="-7.5" font-family="Helvetica,sans-Serif" font-size="10.00">src/UI/FPSCounter.cpp</text>
</a>
</g>
</g>
<!-- Node6&#45;&gt;Node20 -->
<g id="edge19" class="edge">
<title>Node6&#45;&gt;Node20</title>
<path fill="none" stroke="midnightblue" d="M955.67,-232.33C760.33,-232.45 250.63,-227.74 196.36,-176 151.91,-133.62 168.28,-47.54 175.03,-19.81"/>
<polygon fill="midnightblue" stroke="midnightblue" points="955.86,-235.83 965.85,-232.32 955.85,-228.83 955.86,-235.83"/>
</g>
<!-- Node21&#45;&gt;Node5 -->
<g id="edge23" class="edge">
<title>Node21&#45;&gt;Node5</title>
<path fill="none" stroke="midnightblue" d="M1605.45,-282.01C1595.47,-268.73 1583.39,-252.66 1576.05,-242.89"/>
<polygon fill="midnightblue" stroke="midnightblue" points="1602.83,-284.34 1611.64,-290.23 1608.42,-280.14 1602.83,-284.34"/>
</g>
<!-- Node21&#45;&gt;Node12 -->
<g id="edge22" class="edge">
<title>Node21&#45;&gt;Node12</title>
<path fill="none" stroke="midnightblue" d="M1641.51,-282.22C1647.48,-273.92 1653.29,-264.05 1656.36,-254 1671.93,-202.99 1669.74,-185.63 1656.36,-134 1651.77,-116.28 1640.95,-115.72 1636.36,-98 1631.68,-79.93 1625.84,-71.42 1636.36,-56 1649.41,-36.88 1671.92,-25.88 1693.58,-19.55"/>
<polygon fill="midnightblue" stroke="midnightblue" points="1638.66,-280.19 1635.35,-290.25 1644.21,-284.45 1638.66,-280.19"/>
</g>
<!-- Node22 -->
<g id="node22" class="node">
<title>Node22</title>
<g id="a_node22"><a xlink:href="BehaviourSystem_8cpp.html" target="_top" xlink:title=" ">
<polygon fill="none" stroke="black" points="1147.36,-223.5 1147.36,-242.5 1321.36,-242.5 1321.36,-223.5 1147.36,-223.5"/>
<text text-anchor="middle" x="1234.36" y="-230.5" font-family="Helvetica,sans-Serif" font-size="10.00">src/Behaviour/BehaviourSystem.cpp</text>
</a>
</g>
</g>
<!-- Node21&#45;&gt;Node22 -->
<g id="edge21" class="edge">
<title>Node21&#45;&gt;Node22</title>
<path fill="none" stroke="midnightblue" d="M1558.67,-289.96C1456.48,-270.54 1428.55,-271.93 1330.36,-254 1311.44,-250.54 1290.51,-246.24 1273.05,-242.51"/>
<polygon fill="midnightblue" stroke="midnightblue" points="1558.32,-293.45 1568.8,-291.9 1559.64,-286.58 1558.32,-293.45"/>
</g>
<!-- Node23 -->
<g id="node23" class="node">
<title>Node23</title>
<g id="a_node23"><a xlink:href="CollisionBehaviour_8hpp.html" target="_top" xlink:title=" ">
<polygon fill="none" stroke="black" points="1339.36,-212.5 1339.36,-253.5 1473.36,-253.5 1473.36,-212.5 1339.36,-212.5"/>
<text text-anchor="start" x="1347.36" y="-241.5" font-family="Helvetica,sans-Serif" font-size="10.00">includes/platformer</text>
<text text-anchor="start" x="1347.36" y="-230.5" font-family="Helvetica,sans-Serif" font-size="10.00">&#45;engine/Behaviour/Collision</text>
<text text-anchor="middle" x="1406.36" y="-219.5" font-family="Helvetica,sans-Serif" font-size="10.00">Behaviour.hpp</text>
</a>
</g>
</g>
<!-- Node21&#45;&gt;Node23 -->
<g id="edge24" class="edge">
<title>Node21&#45;&gt;Node23</title>
<path fill="none" stroke="midnightblue" d="M1569.61,-287.28C1538.41,-277.1 1498.78,-264.17 1466.39,-253.59"/>
<polygon fill="midnightblue" stroke="midnightblue" points="1568.84,-290.71 1579.43,-290.49 1571.01,-284.06 1568.84,-290.71"/>
</g>
<!-- Node24 -->
<g id="node24" class="node">
<title>Node24</title>
<g id="a_node24"><a xlink:href="FPSCounterBehaviour_8hpp.html" target="_top" xlink:title=" ">
<polygon fill="none" stroke="black" points="6.86,-212.5 6.86,-253.5 157.86,-253.5 157.86,-212.5 6.86,-212.5"/>
<text text-anchor="start" x="14.86" y="-241.5" font-family="Helvetica,sans-Serif" font-size="10.00">includes/platformer</text>
<text text-anchor="start" x="14.86" y="-230.5" font-family="Helvetica,sans-Serif" font-size="10.00">&#45;engine/Behaviour/FPSCounter</text>
<text text-anchor="middle" x="82.36" y="-219.5" font-family="Helvetica,sans-Serif" font-size="10.00">Behaviour.hpp</text>
</a>
</g>
</g>
<!-- Node21&#45;&gt;Node24 -->
<g id="edge26" class="edge">
<title>Node21&#45;&gt;Node24</title>
<path fill="none" stroke="midnightblue" d="M1558.37,-290.17C1380.36,-270.39 434.65,-243.58 158.24,-236.04"/>
<polygon fill="midnightblue" stroke="midnightblue" points="1558.18,-293.68 1568.53,-291.41 1559.02,-286.73 1558.18,-293.68"/>
</g>
<!-- Node25 -->
<g id="node25" class="node">
<title>Node25</title>
<g id="a_node25"><a xlink:href="GameObjectBuilder_8hpp.html" target="_top" xlink:title=" ">
<polygon fill="none" stroke="black" points="1791.86,-134.5 1791.86,-175.5 1930.86,-175.5 1930.86,-134.5 1791.86,-134.5"/>
<text text-anchor="start" x="1799.86" y="-163.5" font-family="Helvetica,sans-Serif" font-size="10.00">includes/platformer</text>
<text text-anchor="start" x="1799.86" y="-152.5" font-family="Helvetica,sans-Serif" font-size="10.00">&#45;engine/Builder/GameObject</text>
<text text-anchor="middle" x="1861.36" y="-141.5" font-family="Helvetica,sans-Serif" font-size="10.00">Builder.hpp</text>
</a>
</g>
</g>
<!-- Node21&#45;&gt;Node25 -->
<g id="edge29" class="edge">
<title>Node21&#45;&gt;Node25</title>
<path fill="none" stroke="midnightblue" d="M1653.63,-284.87C1683.56,-266.1 1729.99,-237.04 1770.36,-212 1789.91,-199.88 1811.87,-186.36 1829.32,-175.64"/>
<polygon fill="midnightblue" stroke="midnightblue" points="1651.51,-282.07 1644.9,-290.35 1655.23,-288 1651.51,-282.07"/>
</g>
<!-- Node28 -->
<g id="node28" class="node">
<title>Node28</title>
<g id="a_node28"><a xlink:href="ObjectBuilder_8hpp.html" target="_top" xlink:title=" ">
<polygon fill="none" stroke="black" points="1779.86,-218 1779.86,-248 1940.86,-248 1940.86,-218 1779.86,-218"/>
<text text-anchor="start" x="1787.86" y="-236" font-family="Helvetica,sans-Serif" font-size="10.00">includes/platformer</text>
<text text-anchor="middle" x="1860.36" y="-225" font-family="Helvetica,sans-Serif" font-size="10.00">&#45;engine/Builder/ObjectBuilder.hpp</text>
</a>
</g>
</g>
<!-- Node21&#45;&gt;Node28 -->
<g id="edge35" class="edge">
<title>Node21&#45;&gt;Node28</title>
<path fill="none" stroke="midnightblue" d="M1679.45,-287.59C1720.19,-275.52 1774.33,-259.48 1812.74,-248.11"/>
<polygon fill="midnightblue" stroke="midnightblue" points="1678.26,-284.29 1669.67,-290.49 1680.25,-291 1678.26,-284.29"/>
</g>
<!-- Node23&#45;&gt;Node9 -->
<g id="edge25" class="edge">
<title>Node23&#45;&gt;Node9</title>
<path fill="none" stroke="midnightblue" d="M1454.47,-207.94C1484.13,-193.12 1520.36,-175 1541.26,-164.55"/>
<polygon fill="midnightblue" stroke="midnightblue" points="1452.88,-204.83 1445.51,-212.43 1456.02,-211.09 1452.88,-204.83"/>
</g>
<!-- Node24&#45;&gt;Node10 -->
<g id="edge27" class="edge">
<title>Node24&#45;&gt;Node10</title>
<path fill="none" stroke="midnightblue" d="M82.36,-202.28C82.36,-191.25 82.36,-179.25 82.36,-170.23"/>
<polygon fill="midnightblue" stroke="midnightblue" points="78.86,-202.43 82.36,-212.43 85.86,-202.43 78.86,-202.43"/>
</g>
<!-- Node24&#45;&gt;Node20 -->
<g id="edge28" class="edge">
<title>Node24&#45;&gt;Node20</title>
<path fill="none" stroke="midnightblue" d="M33.5,-206.44C22.61,-198.27 12.49,-188.12 6.36,-176 -2.06,-159.34 -2.15,-150.61 6.36,-134 37.64,-72.98 114.83,-35.36 153.9,-19.6"/>
<polygon fill="midnightblue" stroke="midnightblue" points="31.72,-209.46 41.93,-212.31 35.72,-203.72 31.72,-209.46"/>
</g>
<!-- Node25&#45;&gt;Node16 -->
<g id="edge31" class="edge">
<title>Node25&#45;&gt;Node16</title>
<path fill="none" stroke="midnightblue" d="M1816.49,-129.64C1793.75,-117.3 1766.92,-102.73 1747.57,-92.23"/>
<polygon fill="midnightblue" stroke="midnightblue" points="1814.85,-132.73 1825.31,-134.43 1818.19,-126.58 1814.85,-132.73"/>
</g>
<!-- Node26 -->
<g id="node26" class="node">
<title>Node26</title>
<g id="a_node26"><a xlink:href="GameObjectBuilder_8cpp.html" target="_top" xlink:title=" ">
<polygon fill="none" stroke="black" points="1975.86,-67.5 1975.86,-86.5 2144.86,-86.5 2144.86,-67.5 1975.86,-67.5"/>
<text text-anchor="middle" x="2060.36" y="-74.5" font-family="Helvetica,sans-Serif" font-size="10.00">src/Builder/GameObjectBuilder.cpp</text>
</a>
</g>
</g>
<!-- Node25&#45;&gt;Node26 -->
<g id="edge30" class="edge">
<title>Node25&#45;&gt;Node26</title>
<path fill="none" stroke="midnightblue" d="M1922.35,-130.71C1961.53,-115.74 2010.14,-97.18 2037.97,-86.55"/>
<polygon fill="midnightblue" stroke="midnightblue" points="1920.7,-127.59 1912.61,-134.43 1923.2,-134.13 1920.7,-127.59"/>
</g>
<!-- Node27 -->
<g id="node27" class="node">
<title>Node27</title>
<g id="a_node27"><a xlink:href="GameObjectFactory_8hpp.html" target="_top" xlink:title=" ">
<polygon fill="none" stroke="black" points="1814.86,-56.5 1814.86,-97.5 1957.86,-97.5 1957.86,-56.5 1814.86,-56.5"/>
<text text-anchor="start" x="1822.86" y="-85.5" font-family="Helvetica,sans-Serif" font-size="10.00">includes/platformer</text>
<text text-anchor="start" x="1822.86" y="-74.5" font-family="Helvetica,sans-Serif" font-size="10.00">&#45;engine/Director/GameObject</text>
<text text-anchor="middle" x="1886.36" y="-63.5" font-family="Helvetica,sans-Serif" font-size="10.00">Factory.hpp</text>
</a>
</g>
</g>
<!-- Node25&#45;&gt;Node27 -->
<g id="edge32" class="edge">
<title>Node25&#45;&gt;Node27</title>
<path fill="none" stroke="midnightblue" d="M1870.94,-124.88C1873.95,-115.72 1877.21,-105.83 1879.95,-97.51"/>
<polygon fill="midnightblue" stroke="midnightblue" points="1867.6,-123.84 1867.8,-134.43 1874.25,-126.02 1867.6,-123.84"/>
</g>
<!-- Node27&#45;&gt;Node12 -->
<g id="edge33" class="edge">
<title>Node27&#45;&gt;Node12</title>
<path fill="none" stroke="midnightblue" d="M1836.68,-52.08C1813.14,-40.75 1786.49,-27.91 1769.33,-19.65"/>
<polygon fill="midnightblue" stroke="midnightblue" points="1835.33,-55.31 1845.86,-56.5 1838.37,-49.01 1835.33,-55.31"/>
</g>
<!-- Node27&#45;&gt;Node20 -->
<g id="edge34" class="edge">
<title>Node27&#45;&gt;Node20</title>
<path fill="none" stroke="midnightblue" d="M1804.43,-56.08C1472.66,-13.58 488.01,-10.93 236.4,-10.94"/>
<polygon fill="midnightblue" stroke="midnightblue" points="1804.16,-59.58 1814.53,-57.42 1805.07,-52.64 1804.16,-59.58"/>
</g>
<!-- Node28&#45;&gt;Node25 -->
<g id="edge36" class="edge">
<title>Node28&#45;&gt;Node25</title>
<path fill="none" stroke="midnightblue" d="M1860.68,-207.66C1860.82,-197.33 1860.97,-185.44 1861.1,-175.68"/>
<polygon fill="midnightblue" stroke="midnightblue" points="1857.18,-207.66 1860.55,-217.7 1864.18,-207.75 1857.18,-207.66"/>
</g>
<!-- Node29&#45;&gt;Node5 -->
<g id="edge41" class="edge">
<title>Node29&#45;&gt;Node5</title>
<path fill="none" stroke="midnightblue" d="M1907.56,-293.61C1827.72,-279.54 1690.38,-255.33 1617.71,-242.52"/>
<polygon fill="midnightblue" stroke="midnightblue" points="1907.02,-297.07 1917.48,-295.36 1908.24,-290.17 1907.02,-297.07"/>
</g>
<!-- Node29&#45;&gt;Node8 -->
<g id="edge38" class="edge">
<title>Node29&#45;&gt;Node8</title>
<path fill="none" stroke="midnightblue" d="M1976.17,-280.51C1978.51,-272.13 1981.1,-262.67 1983.36,-254 1991.94,-221.12 2001.3,-181.79 2005.33,-164.67"/>
<polygon fill="midnightblue" stroke="midnightblue" points="1972.73,-279.81 1973.4,-290.38 1979.47,-281.7 1972.73,-279.81"/>
</g>
<!-- Node29&#45;&gt;Node9 -->
<g id="edge39" class="edge">
<title>Node29&#45;&gt;Node9</title>
<path fill="none" stroke="midnightblue" d="M1907.64,-291.93C1867.9,-283.08 1815.42,-269.98 1770.36,-254 1694.5,-227.1 1608.82,-183 1574.16,-164.54"/>
<polygon fill="midnightblue" stroke="midnightblue" points="1906.94,-295.36 1917.46,-294.08 1908.44,-288.52 1906.94,-295.36"/>
</g>
<!-- Node29&#45;&gt;Node25 -->
<g id="edge42" class="edge">
<title>Node29&#45;&gt;Node25</title>
<path fill="none" stroke="midnightblue" d="M1969.14,-280.19C1967.86,-260.26 1963.39,-232.13 1949.36,-212 1938.7,-196.7 1922.37,-184.64 1906.66,-175.7"/>
<polygon fill="midnightblue" stroke="midnightblue" points="1965.65,-280.48 1969.57,-290.33 1972.65,-280.19 1965.65,-280.48"/>
</g>
<!-- Node29&#45;&gt;Node26 -->
<g id="edge40" class="edge">
<title>Node29&#45;&gt;Node26</title>
<path fill="none" stroke="midnightblue" d="M2031.02,-305.27C2128.77,-305.09 2312.81,-298.64 2357.36,-254 2395.17,-216.12 2401.64,-175.1 2367.36,-134 2339.51,-100.61 2225.91,-87.08 2145.03,-81.63"/>
<polygon fill="midnightblue" stroke="midnightblue" points="2030.98,-301.77 2020.98,-305.26 2030.98,-308.77 2030.98,-301.77"/>
</g>
<!-- Node29&#45;&gt;Node28 -->
<g id="edge43" class="edge">
<title>Node29&#45;&gt;Node28</title>
<path fill="none" stroke="midnightblue" d="M1939.09,-284.92C1921.01,-273.22 1898.45,-258.63 1882.12,-248.07"/>
<polygon fill="midnightblue" stroke="midnightblue" points="1937.27,-287.91 1947.57,-290.4 1941.07,-282.03 1937.27,-287.91"/>
</g>
<!-- Node30 -->
<g id="node30" class="node">
<title>Node30</title>
<g id="a_node30"><a xlink:href="IllegalCollisionBehaviourException_8hpp.html" target="_top" xlink:title=" ">
<polygon fill="none" stroke="black" points="2035.86,-212.5 2035.86,-253.5 2192.86,-253.5 2192.86,-212.5 2035.86,-212.5"/>
<text text-anchor="start" x="2043.86" y="-241.5" font-family="Helvetica,sans-Serif" font-size="10.00">includes/platformer</text>
<text text-anchor="start" x="2043.86" y="-230.5" font-family="Helvetica,sans-Serif" font-size="10.00">&#45;engine/Exceptions/Illegal</text>
<text text-anchor="middle" x="2114.36" y="-219.5" font-family="Helvetica,sans-Serif" font-size="10.00">CollisionBehaviourException.hpp</text>
</a>
</g>
</g>
<!-- Node29&#45;&gt;Node30 -->
<g id="edge44" class="edge">
<title>Node29&#45;&gt;Node30</title>
<path fill="none" stroke="midnightblue" d="M2007.42,-286C2027.96,-276.01 2053.3,-263.69 2074.16,-253.55"/>
<polygon fill="midnightblue" stroke="midnightblue" points="2005.82,-282.88 1998.36,-290.4 2008.88,-289.18 2005.82,-282.88"/>
</g>
<!-- Node31 -->
<g id="node31" class="node">
<title>Node31</title>
<g id="a_node31"><a xlink:href="PlayerRigidBody_8hpp.html" target="_top" xlink:title=" ">
<polygon fill="none" stroke="black" points="2210.86,-212.5 2210.86,-253.5 2347.86,-253.5 2347.86,-212.5 2210.86,-212.5"/>
<text text-anchor="start" x="2218.86" y="-241.5" font-family="Helvetica,sans-Serif" font-size="10.00">includes/platformer</text>
<text text-anchor="start" x="2218.86" y="-230.5" font-family="Helvetica,sans-Serif" font-size="10.00">&#45;engine/Physics/PlayerRigid</text>
<text text-anchor="middle" x="2279.36" y="-219.5" font-family="Helvetica,sans-Serif" font-size="10.00">Body.hpp</text>
</a>
</g>
</g>
<!-- Node29&#45;&gt;Node31 -->
<g id="edge46" class="edge">
<title>Node29&#45;&gt;Node31</title>
<path fill="none" stroke="midnightblue" d="M2031.07,-291.71C2077.9,-281.85 2143.81,-267.64 2201.36,-254 2204.35,-253.29 2207.41,-252.56 2210.49,-251.8"/>
<polygon fill="midnightblue" stroke="midnightblue" points="2030.15,-288.33 2021.09,-293.81 2031.59,-295.18 2030.15,-288.33"/>
</g>
<!-- Node30&#45;&gt;Node8 -->
<g id="edge45" class="edge">
<title>Node30&#45;&gt;Node8</title>
<path fill="none" stroke="midnightblue" d="M2078.59,-206.59C2058.09,-192.03 2033.67,-174.69 2019.4,-164.55"/>
<polygon fill="midnightblue" stroke="midnightblue" points="2076.63,-209.49 2086.81,-212.43 2080.68,-203.78 2076.63,-209.49"/>
</g>
<!-- Node31&#45;&gt;Node12 -->
<g id="edge47" class="edge">
<title>Node31&#45;&gt;Node12</title>
<path fill="none" stroke="midnightblue" d="M2227.1,-207.09C2213.94,-198.75 2200.87,-188.37 2191.36,-176 2157.27,-131.65 2196.59,-91.52 2153.36,-56 2129.59,-36.47 1949.97,-22.59 1839.03,-15.78"/>
<polygon fill="midnightblue" stroke="midnightblue" points="2225.35,-210.12 2235.73,-212.27 2228.96,-204.12 2225.35,-210.12"/>
</g>
<!-- Node32 -->
<g id="node32" class="node">
<title>Node32</title>
<g id="a_node32"><a xlink:href="PlayerRigidBody_8cpp.html" target="_top" xlink:title=" ">
<polygon fill="none" stroke="black" points="2199.86,-145.5 2199.86,-164.5 2358.86,-164.5 2358.86,-145.5 2199.86,-145.5"/>
<text text-anchor="middle" x="2279.36" y="-152.5" font-family="Helvetica,sans-Serif" font-size="10.00">src/Physics/PlayerRigidBody.cpp</text>
</a>
</g>
</g>
<!-- Node31&#45;&gt;Node32 -->
<g id="edge48" class="edge">
<title>Node31&#45;&gt;Node32</title>
<path fill="none" stroke="midnightblue" d="M2279.36,-202.05C2279.36,-188.56 2279.36,-173.65 2279.36,-164.55"/>
<polygon fill="midnightblue" stroke="midnightblue" points="2275.86,-202.43 2279.36,-212.43 2282.86,-202.43 2275.86,-202.43"/>
</g>
</g>
</svg>
        <g id="navigator" transform="translate(0 0)" fill="#404254">
                <rect fill="#f2f5e9" fill-opacity="0.5" stroke="#606060" stroke-width=".5" x="0" y="0" width="60" height="60"/>
                <use id="zoomplus" xlink:href="#zoomPlus" x="17" y="9" onmousedown="handleZoom(evt,'in')"/>
                <use id="zoomminus" xlink:href="#zoomMin" x="42" y="9" onmousedown="handleZoom(evt,'out')"/>
                <use id="reset" xlink:href="#resetDef" x="30" y="36" onmousedown="handleReset()"/>
                <g id="arrowUp" xlink:href="#dirArrow" transform="translate(30 24)" onmousedown="handlePan(0,-1)">
                  <use xlink:href="#rim" fill="#404040">
                        <set attributeName="fill" to="#808080" begin="arrowUp.mouseover" end="arrowUp.mouseout"/>
                  </use>
                  <path fill="none" stroke="white" stroke-width="1.5" d="M0,-3.0v7 M-2.5,-0.5L0,-3.0L2.5,-0.5"/>
                </g>
                <g id="arrowRight" xlink:href="#dirArrow" transform="rotate(90) translate(36 -43)" onmousedown="handlePan(1,0)">
                  <use xlink:href="#rim" fill="#404040">
                        <set attributeName="fill" to="#808080" begin="arrowRight.mouseover" end="arrowRight.mouseout"/>
                  </use>
                  <path fill="none" stroke="white" stroke-width="1.5" d="M0,-3.0v7 M-2.5,-0.5L0,-3.0L2.5,-0.5"/>
                </g>
                <g id="arrowDown" xlink:href="#dirArrow" transform="rotate(180) translate(-30 -48)" onmousedown="handlePan(0,1)">
                  <use xlink:href="#rim" fill="#404040">
                        <set attributeName="fill" to="#808080" begin="arrowDown.mouseover" end="arrowDown.mouseout"/>
                  </use>
                  <path fill="none" stroke="white" stroke-width="1.5" d="M0,-3.0v7 M-2.5,-0.5L0,-3.0L2.5,-0.5"/>
                </g>
                <g id="arrowLeft" xlink:href="#dirArrow" transform="rotate(270) translate(-36 17)" onmousedown="handlePan(-1,0)">
                  <use xlink:href="#rim" fill="#404040">
                        <set attributeName="fill" to="#808080" begin="arrowLeft.mouseover" end="arrowLeft.mouseout"/>
                  </use>
                  <path fill="none" stroke="white" stroke-width="1.5" d="M0,-3.0v7 M-2.5,-0.5L0,-3.0L2.5,-0.5"/>
                </g>
        </g>
        <svg viewBox="0 0 15 15" width="100%" height="30px" preserveAspectRatio="xMaxYMin meet">
         <g id="arrow_out" transform="scale(0.3 0.3)">
          <a xlink:href="Collision_8hpp__dep__incl_org.svg" target="_base">
           <rect id="button" ry="5" rx="5" y="6" x="6" height="38" width="38"
                fill="#f2f5e9" fill-opacity="0.5" stroke="#606060" stroke-width="1.0"/>
           <path id="arrow"
             d="M 11.500037,31.436501 C 11.940474,20.09759 22.043105,11.32322 32.158766,21.979434 L 37.068811,17.246167 C 37.068811,17.246167 37.088388,32 37.088388,32 L 22.160133,31.978069 C 22.160133,31.978069 26.997745,27.140456 26.997745,27.140456 C 18.528582,18.264221 13.291696,25.230495 11.500037,31.436501 z"
             style="fill:#404040;"/>
          </a>
         </g>
        </svg>
</svg>
