<?xml version="1.0" encoding="UTF-8" standalone="no"?>
<!DOCTYPE svg PUBLIC "-//W3C//DTD SVG 1.1//EN"
 "http://www.w3.org/Graphics/SVG/1.1/DTD/svg11.dtd">
<!-- Generated by graphviz version 2.44.0 ()
 -->
<!-- Title: includes/spic&#45;prj&#45;api/Collider.hpp Pages: 1 -->
<svg width="2170pt" height="463pt"
 viewBox="0.00 0.00 2170.29 463.00" xmlns="http://www.w3.org/2000/svg" xmlns:xlink="http://www.w3.org/1999/xlink">
<g id="graph0" class="graph" transform="scale(1 1) rotate(0) translate(4 459)">
<title>includes/spic&#45;prj&#45;api/Collider.hpp</title>
<!-- Node1 -->
<g id="node1" class="node">
<title>Node1</title>
<g id="a_node1"><a xlink:title=" ">
<polygon fill="#bfbfbf" stroke="black" points="909.5,-424.5 909.5,-454.5 1012.5,-454.5 1012.5,-424.5 909.5,-424.5"/>
<text text-anchor="start" x="917.5" y="-442.5" font-family="Helvetica,sans-Serif" font-size="10.00">includes/spic&#45;prj&#45;api</text>
<text text-anchor="middle" x="961" y="-431.5" font-family="Helvetica,sans-Serif" font-size="10.00">/Collider.hpp</text>
</a>
</g>
</g>
<!-- Node2 -->
<g id="node2" class="node">
<title>Node2</title>
<g id="a_node2"><a xlink:href="Collider_8cpp.html" target="_top" xlink:title=" ">
<polygon fill="none" stroke="black" points="350.5,-296 350.5,-315 453.5,-315 453.5,-296 350.5,-296"/>
<text text-anchor="middle" x="402" y="-303" font-family="Helvetica,sans-Serif" font-size="10.00">src/API/Collider.cpp</text>
</a>
</g>
</g>
<!-- Node1&#45;&gt;Node2 -->
<g id="edge1" class="edge">
<title>Node1&#45;&gt;Node2</title>
<path fill="none" stroke="midnightblue" d="M898.99,-427.41C847.2,-417.86 771.52,-403.25 706,-388 604.35,-364.34 485.16,-330.62 431.18,-315.02"/>
<polygon fill="midnightblue" stroke="midnightblue" points="898.55,-430.89 909.01,-429.25 899.81,-424 898.55,-430.89"/>
</g>
<!-- Node3 -->
<g id="node3" class="node">
<title>Node3</title>
<g id="a_node3"><a xlink:href="Collision_8hpp.html" target="_top" xlink:title=" ">
<polygon fill="none" stroke="black" points="715.5,-357.5 715.5,-387.5 858.5,-387.5 858.5,-357.5 715.5,-357.5"/>
<text text-anchor="start" x="723.5" y="-375.5" font-family="Helvetica,sans-Serif" font-size="10.00">includes/platformer</text>
<text text-anchor="middle" x="787" y="-364.5" font-family="Helvetica,sans-Serif" font-size="10.00">&#45;engine/Physics/Collision.hpp</text>
</a>
</g>
</g>
<!-- Node1&#45;&gt;Node3 -->
<g id="edge2" class="edge">
<title>Node1&#45;&gt;Node3</title>
<path fill="none" stroke="midnightblue" d="M913.67,-420.82C885.7,-410.37 850.77,-397.32 824.68,-387.58"/>
<polygon fill="midnightblue" stroke="midnightblue" points="912.65,-424.18 923.24,-424.4 915.1,-417.62 912.65,-424.18"/>
</g>
<!-- Node5 -->
<g id="node5" class="node">
<title>Node5</title>
<g id="a_node5"><a xlink:href="PhysicsSystem_8hpp.html" target="_top" xlink:title=" ">
<polygon fill="none" stroke="black" points="834,-290.5 834,-320.5 1008,-320.5 1008,-290.5 834,-290.5"/>
<text text-anchor="start" x="842" y="-308.5" font-family="Helvetica,sans-Serif" font-size="10.00">includes/platformer</text>
<text text-anchor="middle" x="921" y="-297.5" font-family="Helvetica,sans-Serif" font-size="10.00">&#45;engine/Physics/PhysicsSystem.hpp</text>
</a>
</g>
</g>
<!-- Node1&#45;&gt;Node5 -->
<g id="edge45" class="edge">
<title>Node1&#45;&gt;Node5</title>
<path fill="none" stroke="midnightblue" d="M950.26,-414.96C946.69,-406.56 942.89,-396.96 940,-388 932.52,-364.77 926.67,-336.93 923.54,-320.53"/>
<polygon fill="midnightblue" stroke="midnightblue" points="947.07,-416.4 954.29,-424.15 953.48,-413.59 947.07,-416.4"/>
</g>
<!-- Node21 -->
<g id="node21" class="node">
<title>Node21</title>
<g id="a_node21"><a xlink:href="BehaviourScript_8hpp.html" target="_top" xlink:title=" ">
<polygon fill="none" stroke="black" points="1616.5,-290.5 1616.5,-320.5 1723.5,-320.5 1723.5,-290.5 1616.5,-290.5"/>
<text text-anchor="start" x="1624.5" y="-308.5" font-family="Helvetica,sans-Serif" font-size="10.00">includes/spic&#45;prj&#45;api</text>
<text text-anchor="middle" x="1670" y="-297.5" font-family="Helvetica,sans-Serif" font-size="10.00">/BehaviourScript.hpp</text>
</a>
</g>
</g>
<!-- Node1&#45;&gt;Node21 -->
<g id="edge46" class="edge">
<title>Node1&#45;&gt;Node21</title>
<path fill="none" stroke="midnightblue" d="M1001.98,-420C1020.46,-411.11 1042.29,-399.82 1061,-388 1080.01,-375.99 1080.06,-365.22 1101,-357 1194.01,-320.5 1493.12,-310.17 1616.26,-307.43"/>
<polygon fill="midnightblue" stroke="midnightblue" points="1000.46,-416.85 992.93,-424.3 1003.46,-423.17 1000.46,-416.85"/>
</g>
<!-- Node31 -->
<g id="node31" class="node">
<title>Node31</title>
<g id="a_node31"><a xlink:href="BoxCollider_8hpp.html" target="_top" xlink:title=" ">
<polygon fill="none" stroke="black" points="949.5,-357.5 949.5,-387.5 1052.5,-387.5 1052.5,-357.5 949.5,-357.5"/>
<text text-anchor="start" x="957.5" y="-375.5" font-family="Helvetica,sans-Serif" font-size="10.00">includes/spic&#45;prj&#45;api</text>
<text text-anchor="middle" x="1001" y="-364.5" font-family="Helvetica,sans-Serif" font-size="10.00">/BoxCollider.hpp</text>
</a>
</g>
</g>
<!-- Node1&#45;&gt;Node31 -->
<g id="edge47" class="edge">
<title>Node1&#45;&gt;Node31</title>
<path fill="none" stroke="midnightblue" d="M974.93,-415.87C980.72,-406.46 987.26,-395.83 992.34,-387.58"/>
<polygon fill="midnightblue" stroke="midnightblue" points="971.94,-414.05 969.68,-424.4 977.9,-417.71 971.94,-414.05"/>
</g>
<!-- Node33 -->
<g id="node33" class="node">
<title>Node33</title>
<g id="a_node33"><a xlink:href="CircleCollider_8hpp.html" target="_top" xlink:title=" ">
<polygon fill="none" stroke="black" points="1109.5,-357.5 1109.5,-387.5 1212.5,-387.5 1212.5,-357.5 1109.5,-357.5"/>
<text text-anchor="start" x="1117.5" y="-375.5" font-family="Helvetica,sans-Serif" font-size="10.00">includes/spic&#45;prj&#45;api</text>
<text text-anchor="middle" x="1161" y="-364.5" font-family="Helvetica,sans-Serif" font-size="10.00">/CircleCollider.hpp</text>
</a>
</g>
</g>
<!-- Node1&#45;&gt;Node33 -->
<g id="edge51" class="edge">
<title>Node1&#45;&gt;Node33</title>
<path fill="none" stroke="midnightblue" d="M1014.15,-421.23C1046.5,-410.71 1087.31,-397.45 1117.69,-387.58"/>
<polygon fill="midnightblue" stroke="midnightblue" points="1012.83,-417.98 1004.4,-424.4 1014.99,-424.63 1012.83,-417.98"/>
</g>
<!-- Node3&#45;&gt;Node2 -->
<g id="edge3" class="edge">
<title>Node3&#45;&gt;Node2</title>
<path fill="none" stroke="midnightblue" d="M705.46,-360.74C639.53,-351.58 544.45,-337.34 462,-321 453.27,-319.27 443.9,-317.14 435.21,-315.05"/>
<polygon fill="midnightblue" stroke="midnightblue" points="704.99,-364.21 715.37,-362.11 705.95,-357.28 704.99,-364.21"/>
</g>
<!-- Node4 -->
<g id="node4" class="node">
<title>Node4</title>
<g id="a_node4"><a xlink:href="Collision_8cpp.html" target="_top" xlink:title=" ">
<polygon fill="none" stroke="black" points="690.5,-296 690.5,-315 815.5,-315 815.5,-296 690.5,-296"/>
<text text-anchor="middle" x="753" y="-303" font-family="Helvetica,sans-Serif" font-size="10.00">src/Physics/Collision.cpp</text>
</a>
</g>
</g>
<!-- Node3&#45;&gt;Node4 -->
<g id="edge4" class="edge">
<title>Node3&#45;&gt;Node4</title>
<path fill="none" stroke="midnightblue" d="M774.86,-348.29C768.85,-336.8 761.96,-323.63 757.55,-315.19"/>
<polygon fill="midnightblue" stroke="midnightblue" points="771.89,-350.16 779.62,-357.4 778.09,-346.91 771.89,-350.16"/>
</g>
<!-- Node3&#45;&gt;Node5 -->
<g id="edge5" class="edge">
<title>Node3&#45;&gt;Node5</title>
<path fill="none" stroke="midnightblue" d="M825.15,-352.99C846.39,-342.69 872.41,-330.07 891.98,-320.58"/>
<polygon fill="midnightblue" stroke="midnightblue" points="823.55,-349.88 816.08,-357.4 826.6,-356.18 823.55,-349.88"/>
</g>
<!-- Node3&#45;&gt;Node21 -->
<g id="edge21" class="edge">
<title>Node3&#45;&gt;Node21</title>
<path fill="none" stroke="midnightblue" d="M868.66,-363.37C891.72,-361.18 916.84,-358.9 940,-357 1192.91,-336.27 1495.59,-317.14 1616.39,-309.74"/>
<polygon fill="midnightblue" stroke="midnightblue" points="868.2,-359.9 858.58,-364.34 868.86,-366.87 868.2,-359.9"/>
</g>
<!-- Node28 -->
<g id="node28" class="node">
<title>Node28</title>
<g id="a_node28"><a xlink:href="RigidBody_8hpp.html" target="_top" xlink:title=" ">
<polygon fill="none" stroke="black" points="471.5,-290.5 471.5,-320.5 574.5,-320.5 574.5,-290.5 471.5,-290.5"/>
<text text-anchor="start" x="479.5" y="-308.5" font-family="Helvetica,sans-Serif" font-size="10.00">includes/spic&#45;prj&#45;api</text>
<text text-anchor="middle" x="523" y="-297.5" font-family="Helvetica,sans-Serif" font-size="10.00">/RigidBody.hpp</text>
</a>
</g>
</g>
<!-- Node3&#45;&gt;Node28 -->
<g id="edge35" class="edge">
<title>Node3&#45;&gt;Node28</title>
<path fill="none" stroke="midnightblue" d="M720.06,-355.02C675.01,-343.93 616.47,-329.51 574.93,-319.29"/>
<polygon fill="midnightblue" stroke="midnightblue" points="719.49,-358.48 730.04,-357.48 721.17,-351.69 719.49,-358.48"/>
</g>
<!-- Node6 -->
<g id="node6" class="node">
<title>Node6</title>
<g id="a_node6"><a xlink:href="PhysicsSystem_8cpp.html" target="_top" xlink:title=" ">
<polygon fill="none" stroke="black" points="170,-145.5 170,-164.5 326,-164.5 326,-145.5 170,-145.5"/>
<text text-anchor="middle" x="248" y="-152.5" font-family="Helvetica,sans-Serif" font-size="10.00">src/Physics/PhysicsSystem.cpp</text>
</a>
</g>
</g>
<!-- Node5&#45;&gt;Node6 -->
<g id="edge6" class="edge">
<title>Node5&#45;&gt;Node6</title>
<path fill="none" stroke="midnightblue" d="M846.11,-288.33C734.64,-264.21 518.48,-217.21 335,-176 318.52,-172.3 300.3,-168.12 284.81,-164.55"/>
<polygon fill="midnightblue" stroke="midnightblue" points="845.4,-291.76 855.92,-290.45 846.88,-284.92 845.4,-291.76"/>
</g>
<!-- Node7 -->
<g id="node7" class="node">
<title>Node7</title>
<g id="a_node7"><a xlink:href="Engine_8hpp.html" target="_top" xlink:title=" ">
<polygon fill="none" stroke="black" points="855.5,-218 855.5,-248 986.5,-248 986.5,-218 855.5,-218"/>
<text text-anchor="start" x="863.5" y="-236" font-family="Helvetica,sans-Serif" font-size="10.00">includes/platformer</text>
<text text-anchor="middle" x="921" y="-225" font-family="Helvetica,sans-Serif" font-size="10.00">&#45;engine/Engine/Engine.hpp</text>
</a>
</g>
</g>
<!-- Node5&#45;&gt;Node7 -->
<g id="edge7" class="edge">
<title>Node5&#45;&gt;Node7</title>
<path fill="none" stroke="midnightblue" d="M921,-280.23C921,-269.57 921,-257.41 921,-248.25"/>
<polygon fill="midnightblue" stroke="midnightblue" points="917.5,-280.23 921,-290.23 924.5,-280.23 917.5,-280.23"/>
</g>
<!-- Node8 -->
<g id="node8" class="node">
<title>Node8</title>
<g id="a_node8"><a xlink:href="Animator_8cpp.html" target="_top" xlink:title=" ">
<polygon fill="none" stroke="black" points="697,-145.5 697,-164.5 807,-164.5 807,-145.5 697,-145.5"/>
<text text-anchor="middle" x="752" y="-152.5" font-family="Helvetica,sans-Serif" font-size="10.00">src/API/Animator.cpp</text>
</a>
</g>
</g>
<!-- Node7&#45;&gt;Node8 -->
<g id="edge8" class="edge">
<title>Node7&#45;&gt;Node8</title>
<path fill="none" stroke="midnightblue" d="M880.23,-213.67C845.62,-198.1 797.49,-176.46 771.14,-164.61"/>
<polygon fill="midnightblue" stroke="midnightblue" points="879.05,-216.97 889.61,-217.88 881.92,-210.59 879.05,-216.97"/>
</g>
<!-- Node9 -->
<g id="node9" class="node">
<title>Node9</title>
<g id="a_node9"><a xlink:href="RigidBody_8cpp.html" target="_top" xlink:title=" ">
<polygon fill="none" stroke="black" points="0,-145.5 0,-164.5 114,-164.5 114,-145.5 0,-145.5"/>
<text text-anchor="middle" x="57" y="-152.5" font-family="Helvetica,sans-Serif" font-size="10.00">src/API/RigidBody.cpp</text>
</a>
</g>
</g>
<!-- Node7&#45;&gt;Node9 -->
<g id="edge9" class="edge">
<title>Node7&#45;&gt;Node9</title>
<path fill="none" stroke="midnightblue" d="M845.03,-229.33C707.9,-223.87 410.1,-209.02 161,-176 139.31,-173.13 115.31,-168.6 95.84,-164.58"/>
<polygon fill="midnightblue" stroke="midnightblue" points="845.29,-232.84 855.42,-229.74 845.57,-225.85 845.29,-232.84"/>
</g>
<!-- Node10 -->
<g id="node10" class="node">
<title>Node10</title>
<g id="a_node10"><a xlink:href="CollisionBehaviour_8cpp.html" target="_top" xlink:title=" ">
<polygon fill="none" stroke="black" points="1653,-145.5 1653,-164.5 1831,-164.5 1831,-145.5 1653,-145.5"/>
<text text-anchor="middle" x="1742" y="-152.5" font-family="Helvetica,sans-Serif" font-size="10.00">src/Behaviour/CollisionBehaviour.cpp</text>
</a>
</g>
</g>
<!-- Node7&#45;&gt;Node10 -->
<g id="edge10" class="edge">
<title>Node7&#45;&gt;Node10</title>
<path fill="none" stroke="midnightblue" d="M980.88,-215.73C987.63,-214.29 994.44,-212.99 1001,-212 1283.99,-169.1 1360.14,-212.71 1644,-176 1664.84,-173.3 1687.87,-168.69 1706.37,-164.57"/>
<polygon fill="midnightblue" stroke="midnightblue" points="980.05,-212.33 971.06,-217.95 981.59,-219.16 980.05,-212.33"/>
</g>
<!-- Node11 -->
<g id="node11" class="node">
<title>Node11</title>
<g id="a_node11"><a xlink:href="Debug_8cpp.html" target="_top" xlink:title=" ">
<polygon fill="none" stroke="black" points="825,-145.5 825,-164.5 935,-164.5 935,-145.5 825,-145.5"/>
<text text-anchor="middle" x="880" y="-152.5" font-family="Helvetica,sans-Serif" font-size="10.00">src/Debug/Debug.cpp</text>
</a>
</g>
</g>
<!-- Node7&#45;&gt;Node11 -->
<g id="edge11" class="edge">
<title>Node7&#45;&gt;Node11</title>
<path fill="none" stroke="midnightblue" d="M908.33,-208.52C900.28,-193.6 890.33,-175.15 884.62,-164.56"/>
<polygon fill="midnightblue" stroke="midnightblue" points="905.46,-210.57 913.29,-217.7 911.62,-207.24 905.46,-210.57"/>
</g>
<!-- Node12 -->
<g id="node12" class="node">
<title>Node12</title>
<g id="a_node12"><a xlink:href="GameObjectDirector_8cpp.html" target="_top" xlink:title=" ">
<polygon fill="none" stroke="black" points="1108,-0.5 1108,-19.5 1284,-19.5 1284,-0.5 1108,-0.5"/>
<text text-anchor="middle" x="1196" y="-7.5" font-family="Helvetica,sans-Serif" font-size="10.00">src/Director/GameObjectDirector.cpp</text>
</a>
</g>
</g>
<!-- Node7&#45;&gt;Node12 -->
<g id="edge12" class="edge">
<title>Node7&#45;&gt;Node12</title>
<path fill="none" stroke="midnightblue" d="M845.18,-223.1C739.47,-210.33 559.57,-187.12 550,-176 537.83,-161.85 538.1,-148.38 550,-134 619.83,-49.62 947.89,-22.63 1107.85,-14.4"/>
<polygon fill="midnightblue" stroke="midnightblue" points="844.82,-226.58 855.17,-224.3 845.66,-219.63 844.82,-226.58"/>
</g>
<!-- Node13 -->
<g id="node13" class="node">
<title>Node13</title>
<g id="a_node13"><a xlink:href="Engine_8cpp.html" target="_top" xlink:title=" ">
<polygon fill="none" stroke="black" points="1849.5,-145.5 1849.5,-164.5 1962.5,-164.5 1962.5,-145.5 1849.5,-145.5"/>
<text text-anchor="middle" x="1906" y="-152.5" font-family="Helvetica,sans-Serif" font-size="10.00">src/Engine/Engine.cpp</text>
</a>
</g>
</g>
<!-- Node7&#45;&gt;Node13 -->
<g id="edge13" class="edge">
<title>Node7&#45;&gt;Node13</title>
<path fill="none" stroke="midnightblue" d="M996.75,-229.66C1186.54,-223.44 1678.75,-204.93 1840,-176 1854.38,-173.42 1870.04,-168.76 1882.5,-164.58"/>
<polygon fill="midnightblue" stroke="midnightblue" points="996.46,-226.17 986.58,-229.99 996.69,-233.16 996.46,-226.17"/>
</g>
<!-- Node14 -->
<g id="node14" class="node">
<title>Node14</title>
<g id="a_node14"><a xlink:href="TMXParser_8cpp.html" target="_top" xlink:title=" ">
<polygon fill="none" stroke="black" points="991,-145.5 991,-164.5 1127,-164.5 1127,-145.5 991,-145.5"/>
<text text-anchor="middle" x="1059" y="-152.5" font-family="Helvetica,sans-Serif" font-size="10.00">src/Facade/TMXParser.cpp</text>
</a>
</g>
</g>
<!-- Node7&#45;&gt;Node14 -->
<g id="edge14" class="edge">
<title>Node7&#45;&gt;Node14</title>
<path fill="none" stroke="midnightblue" d="M955.75,-212.86C983.89,-197.36 1022.22,-176.26 1043.37,-164.61"/>
<polygon fill="midnightblue" stroke="midnightblue" points="953.7,-209.99 946.63,-217.88 957.08,-216.12 953.7,-209.99"/>
</g>
<!-- Node15 -->
<g id="node15" class="node">
<title>Node15</title>
<g id="a_node15"><a xlink:href="ClientNetworkManager_8cpp.html" target="_top" xlink:title=" ">
<polygon fill="none" stroke="black" points="1145.5,-140 1145.5,-170 1292.5,-170 1292.5,-140 1145.5,-140"/>
<text text-anchor="start" x="1153.5" y="-158" font-family="Helvetica,sans-Serif" font-size="10.00">src/Networking/ClientNetwork</text>
<text text-anchor="middle" x="1219" y="-147" font-family="Helvetica,sans-Serif" font-size="10.00">Manager.cpp</text>
</a>
</g>
</g>
<!-- Node7&#45;&gt;Node15 -->
<g id="edge15" class="edge">
<title>Node7&#45;&gt;Node15</title>
<path fill="none" stroke="midnightblue" d="M986.02,-215.42C1039.27,-201.84 1113.77,-182.84 1164.06,-170.01"/>
<polygon fill="midnightblue" stroke="midnightblue" points="984.83,-212.11 976.01,-217.97 986.56,-218.89 984.83,-212.11"/>
</g>
<!-- Node16 -->
<g id="node16" class="node">
<title>Node16</title>
<g id="a_node16"><a xlink:href="ServerNetworkManager_8cpp.html" target="_top" xlink:title=" ">
<polygon fill="none" stroke="black" points="1071.5,-62 1071.5,-92 1222.5,-92 1222.5,-62 1071.5,-62"/>
<text text-anchor="start" x="1079.5" y="-80" font-family="Helvetica,sans-Serif" font-size="10.00">src/Networking/ServerNetwork</text>
<text text-anchor="middle" x="1147" y="-69" font-family="Helvetica,sans-Serif" font-size="10.00">Manager.cpp</text>
</a>
</g>
</g>
<!-- Node7&#45;&gt;Node16 -->
<g id="edge16" class="edge">
<title>Node7&#45;&gt;Node16</title>
<path fill="none" stroke="midnightblue" d="M930.1,-208.49C939.81,-186.33 957.22,-153.66 982,-134 1007.71,-113.6 1041.27,-100.44 1071.4,-92.03"/>
<polygon fill="midnightblue" stroke="midnightblue" points="926.81,-207.27 926.18,-217.85 933.27,-209.98 926.81,-207.27"/>
</g>
<!-- Node17 -->
<g id="node17" class="node">
<title>Node17</title>
<g id="a_node17"><a xlink:href="PlayerRigidBody_8cpp.html" target="_top" xlink:title=" ">
<polygon fill="none" stroke="black" points="344.5,-145.5 344.5,-164.5 503.5,-164.5 503.5,-145.5 344.5,-145.5"/>
<text text-anchor="middle" x="424" y="-152.5" font-family="Helvetica,sans-Serif" font-size="10.00">src/Physics/PlayerRigidBody.cpp</text>
</a>
</g>
</g>
<!-- Node7&#45;&gt;Node17 -->
<g id="edge17" class="edge">
<title>Node7&#45;&gt;Node17</title>
<path fill="none" stroke="midnightblue" d="M845.48,-221.68C733.02,-206.29 532.97,-178.82 517,-176 498.3,-172.7 477.63,-168.33 460.54,-164.51"/>
<polygon fill="midnightblue" stroke="midnightblue" points="845.03,-225.15 855.41,-223.04 845.98,-218.21 845.03,-225.15"/>
</g>
<!-- Node18 -->
<g id="node18" class="node">
<title>Node18</title>
<g id="a_node18"><a xlink:href="RenderSystem_8cpp.html" target="_top" xlink:title=" ">
<polygon fill="none" stroke="black" points="1311,-145.5 1311,-164.5 1461,-164.5 1461,-145.5 1311,-145.5"/>
<text text-anchor="middle" x="1386" y="-152.5" font-family="Helvetica,sans-Serif" font-size="10.00">src/Texture/RenderSystem.cpp</text>
</a>
</g>
</g>
<!-- Node7&#45;&gt;Node18 -->
<g id="edge18" class="edge">
<title>Node7&#45;&gt;Node18</title>
<path fill="none" stroke="midnightblue" d="M983.29,-215.62C989.25,-214.3 995.23,-213.06 1001,-212 1133.51,-187.61 1169.36,-199.64 1302,-176 1319.27,-172.92 1338.3,-168.48 1353.87,-164.56"/>
<polygon fill="midnightblue" stroke="midnightblue" points="982.25,-212.27 973.29,-217.92 983.82,-219.09 982.25,-212.27"/>
</g>
<!-- Node19 -->
<g id="node19" class="node">
<title>Node19</title>
<g id="a_node19"><a xlink:href="TextureManager_8cpp.html" target="_top" xlink:title=" ">
<polygon fill="none" stroke="black" points="1479,-145.5 1479,-164.5 1635,-164.5 1635,-145.5 1479,-145.5"/>
<text text-anchor="middle" x="1557" y="-152.5" font-family="Helvetica,sans-Serif" font-size="10.00">src/Texture/TextureManager.cpp</text>
</a>
</g>
</g>
<!-- Node7&#45;&gt;Node19 -->
<g id="edge19" class="edge">
<title>Node7&#45;&gt;Node19</title>
<path fill="none" stroke="midnightblue" d="M981.94,-215.64C988.35,-214.26 994.79,-213.01 1001,-212 1207.36,-178.53 1263.33,-207.51 1470,-176 1488.39,-173.2 1508.65,-168.63 1524.99,-164.56"/>
<polygon fill="midnightblue" stroke="midnightblue" points="980.93,-212.28 971.95,-217.9 982.47,-219.11 980.93,-212.28"/>
</g>
<!-- Node20 -->
<g id="node20" class="node">
<title>Node20</title>
<g id="a_node20"><a xlink:href="ClickSystem_8cpp.html" target="_top" xlink:title=" ">
<polygon fill="none" stroke="black" points="559.5,-145.5 559.5,-164.5 678.5,-164.5 678.5,-145.5 559.5,-145.5"/>
<text text-anchor="middle" x="619" y="-152.5" font-family="Helvetica,sans-Serif" font-size="10.00">src/UI/ClickSystem.cpp</text>
</a>
</g>
</g>
<!-- Node7&#45;&gt;Node20 -->
<g id="edge20" class="edge">
<title>Node7&#45;&gt;Node20</title>
<path fill="none" stroke="midnightblue" d="M849.08,-215.62C802.92,-204.88 741.76,-190.24 688,-176 674.62,-172.45 659.87,-168.22 647.45,-164.57"/>
<polygon fill="midnightblue" stroke="midnightblue" points="848.46,-219.07 858.99,-217.92 850.04,-212.25 848.46,-219.07"/>
</g>
<!-- Node21&#45;&gt;Node6 -->
<g id="edge25" class="edge">
<title>Node21&#45;&gt;Node6</title>
<path fill="none" stroke="midnightblue" d="M1606.27,-303.12C1467.58,-299.56 1128.17,-287.85 846,-254 741.09,-241.41 716.42,-228.15 612,-212 489.31,-193.03 457.19,-197.93 335,-176 317.3,-172.82 297.78,-168.42 281.72,-164.55"/>
<polygon fill="midnightblue" stroke="midnightblue" points="1606.22,-306.62 1616.3,-303.37 1606.39,-299.62 1606.22,-306.62"/>
</g>
<!-- Node21&#45;&gt;Node12 -->
<g id="edge23" class="edge">
<title>Node21&#45;&gt;Node12</title>
<path fill="none" stroke="midnightblue" d="M1733.57,-303.23C1834.05,-300.16 2023.9,-289.66 2080,-254 2156.6,-205.31 2192.62,-121.7 2130,-56 2101.09,-25.66 1511.1,-14.99 1284.01,-11.99"/>
<polygon fill="midnightblue" stroke="midnightblue" points="1733.44,-299.73 1723.55,-303.52 1733.65,-306.73 1733.44,-299.73"/>
</g>
<!-- Node21&#45;&gt;Node13 -->
<g id="edge24" class="edge">
<title>Node21&#45;&gt;Node13</title>
<path fill="none" stroke="midnightblue" d="M1668.28,-280.49C1668.15,-259.64 1671.51,-230.05 1689,-212 1737.01,-162.45 1773.4,-194.01 1840,-176 1852.94,-172.5 1867.2,-168.23 1879.13,-164.54"/>
<polygon fill="midnightblue" stroke="midnightblue" points="1664.78,-280.61 1668.6,-290.49 1671.77,-280.38 1664.78,-280.61"/>
</g>
<!-- Node22 -->
<g id="node22" class="node">
<title>Node22</title>
<g id="a_node22"><a xlink:href="BehaviourSystem_8cpp.html" target="_top" xlink:title=" ">
<polygon fill="none" stroke="black" points="1698,-223.5 1698,-242.5 1872,-242.5 1872,-223.5 1698,-223.5"/>
<text text-anchor="middle" x="1785" y="-230.5" font-family="Helvetica,sans-Serif" font-size="10.00">src/Behaviour/BehaviourSystem.cpp</text>
</a>
</g>
</g>
<!-- Node21&#45;&gt;Node22 -->
<g id="edge22" class="edge">
<title>Node21&#45;&gt;Node22</title>
<path fill="none" stroke="midnightblue" d="M1701.65,-285.1C1724.4,-271.15 1753.97,-253.02 1771.08,-242.53"/>
<polygon fill="midnightblue" stroke="midnightblue" points="1699.69,-282.19 1693,-290.4 1703.35,-288.16 1699.69,-282.19"/>
</g>
<!-- Node23 -->
<g id="node23" class="node">
<title>Node23</title>
<g id="a_node23"><a xlink:href="CollisionBehaviour_8hpp.html" target="_top" xlink:title=" ">
<polygon fill="none" stroke="black" points="1508,-212.5 1508,-253.5 1642,-253.5 1642,-212.5 1508,-212.5"/>
<text text-anchor="start" x="1516" y="-241.5" font-family="Helvetica,sans-Serif" font-size="10.00">includes/platformer</text>
<text text-anchor="start" x="1516" y="-230.5" font-family="Helvetica,sans-Serif" font-size="10.00">&#45;engine/Behaviour/Collision</text>
<text text-anchor="middle" x="1575" y="-219.5" font-family="Helvetica,sans-Serif" font-size="10.00">Behaviour.hpp</text>
</a>
</g>
</g>
<!-- Node21&#45;&gt;Node23 -->
<g id="edge26" class="edge">
<title>Node21&#45;&gt;Node23</title>
<path fill="none" stroke="midnightblue" d="M1642.66,-284.21C1629.68,-274.58 1614.25,-263.12 1601.4,-253.59"/>
<polygon fill="midnightblue" stroke="midnightblue" points="1640.66,-287.08 1650.78,-290.23 1644.83,-281.46 1640.66,-287.08"/>
</g>
<!-- Node24 -->
<g id="node24" class="node">
<title>Node24</title>
<g id="a_node24"><a xlink:href="GameObjectBuilder_8hpp.html" target="_top" xlink:title=" ">
<polygon fill="none" stroke="black" points="1980.5,-134.5 1980.5,-175.5 2119.5,-175.5 2119.5,-134.5 1980.5,-134.5"/>
<text text-anchor="start" x="1988.5" y="-163.5" font-family="Helvetica,sans-Serif" font-size="10.00">includes/platformer</text>
<text text-anchor="start" x="1988.5" y="-152.5" font-family="Helvetica,sans-Serif" font-size="10.00">&#45;engine/Builder/GameObject</text>
<text text-anchor="middle" x="2050" y="-141.5" font-family="Helvetica,sans-Serif" font-size="10.00">Builder.hpp</text>
</a>
</g>
</g>
<!-- Node21&#45;&gt;Node24 -->
<g id="edge28" class="edge">
<title>Node21&#45;&gt;Node24</title>
<path fill="none" stroke="midnightblue" d="M1734.03,-300.79C1839.39,-294.03 2039.79,-278.13 2061,-254 2079.88,-232.53 2069.45,-197.37 2059.91,-175.51"/>
<polygon fill="midnightblue" stroke="midnightblue" points="1733.6,-297.31 1723.84,-301.44 1734.04,-304.3 1733.6,-297.31"/>
</g>
<!-- Node27 -->
<g id="node27" class="node">
<title>Node27</title>
<g id="a_node27"><a xlink:href="ObjectBuilder_8hpp.html" target="_top" xlink:title=" ">
<polygon fill="none" stroke="black" points="1890.5,-218 1890.5,-248 2051.5,-248 2051.5,-218 1890.5,-218"/>
<text text-anchor="start" x="1898.5" y="-236" font-family="Helvetica,sans-Serif" font-size="10.00">includes/platformer</text>
<text text-anchor="middle" x="1971" y="-225" font-family="Helvetica,sans-Serif" font-size="10.00">&#45;engine/Builder/ObjectBuilder.hpp</text>
</a>
</g>
</g>
<!-- Node21&#45;&gt;Node27 -->
<g id="edge33" class="edge">
<title>Node21&#45;&gt;Node27</title>
<path fill="none" stroke="midnightblue" d="M1733.67,-289.59C1786.09,-277.31 1859.87,-260.03 1911.2,-248.01"/>
<polygon fill="midnightblue" stroke="midnightblue" points="1732.75,-286.21 1723.81,-291.9 1734.35,-293.02 1732.75,-286.21"/>
</g>
<!-- Node23&#45;&gt;Node10 -->
<g id="edge27" class="edge">
<title>Node23&#45;&gt;Node10</title>
<path fill="none" stroke="midnightblue" d="M1627.44,-208.14C1660.1,-193.27 1700.15,-175.05 1723.21,-164.55"/>
<polygon fill="midnightblue" stroke="midnightblue" points="1625.66,-205.1 1618.01,-212.43 1628.56,-211.47 1625.66,-205.1"/>
</g>
<!-- Node24&#45;&gt;Node16 -->
<g id="edge30" class="edge">
<title>Node24&#45;&gt;Node16</title>
<path fill="none" stroke="midnightblue" d="M1970.24,-133.9C1810.45,-110.07 1394.18,-89.25 1222.53,-81.35"/>
<polygon fill="midnightblue" stroke="midnightblue" points="1969.97,-137.4 1980.39,-135.48 1971.05,-130.49 1969.97,-137.4"/>
</g>
<!-- Node25 -->
<g id="node25" class="node">
<title>Node25</title>
<g id="a_node25"><a xlink:href="GameObjectBuilder_8cpp.html" target="_top" xlink:title=" ">
<polygon fill="none" stroke="black" points="1951.5,-67.5 1951.5,-86.5 2120.5,-86.5 2120.5,-67.5 1951.5,-67.5"/>
<text text-anchor="middle" x="2036" y="-74.5" font-family="Helvetica,sans-Serif" font-size="10.00">src/Builder/GameObjectBuilder.cpp</text>
</a>
</g>
</g>
<!-- Node24&#45;&gt;Node25 -->
<g id="edge29" class="edge">
<title>Node24&#45;&gt;Node25</title>
<path fill="none" stroke="midnightblue" d="M2044.56,-124.45C2042.05,-110.86 2039.27,-95.74 2037.58,-86.55"/>
<polygon fill="midnightblue" stroke="midnightblue" points="2041.14,-125.23 2046.39,-134.43 2048.03,-123.96 2041.14,-125.23"/>
</g>
<!-- Node26 -->
<g id="node26" class="node">
<title>Node26</title>
<g id="a_node26"><a xlink:href="GameObjectDirector_8hpp.html" target="_top" xlink:title=" ">
<polygon fill="none" stroke="black" points="1607.5,-56.5 1607.5,-97.5 1750.5,-97.5 1750.5,-56.5 1607.5,-56.5"/>
<text text-anchor="start" x="1615.5" y="-85.5" font-family="Helvetica,sans-Serif" font-size="10.00">includes/platformer</text>
<text text-anchor="start" x="1615.5" y="-74.5" font-family="Helvetica,sans-Serif" font-size="10.00">&#45;engine/Director/GameObject</text>
<text text-anchor="middle" x="1679" y="-63.5" font-family="Helvetica,sans-Serif" font-size="10.00">Director.hpp</text>
</a>
</g>
</g>
<!-- Node24&#45;&gt;Node26 -->
<g id="edge31" class="edge">
<title>Node24&#45;&gt;Node26</title>
<path fill="none" stroke="midnightblue" d="M1970.51,-133.72C1890.08,-115.94 1807.76,-100.6 1750.6,-90.4"/>
<polygon fill="midnightblue" stroke="midnightblue" points="1969.79,-137.15 1980.31,-135.9 1971.31,-130.31 1969.79,-137.15"/>
</g>
<!-- Node26&#45;&gt;Node12 -->
<g id="edge32" class="edge">
<title>Node26&#45;&gt;Node12</title>
<path fill="none" stroke="midnightblue" d="M1597.29,-65C1501.89,-52.16 1346.13,-31.2 1259.39,-19.53"/>
<polygon fill="midnightblue" stroke="midnightblue" points="1597.09,-68.51 1607.47,-66.37 1598.03,-61.57 1597.09,-68.51"/>
</g>
<!-- Node27&#45;&gt;Node24 -->
<g id="edge34" class="edge">
<title>Node27&#45;&gt;Node24</title>
<path fill="none" stroke="midnightblue" d="M1993.3,-210.55C2004.68,-199.6 2018.43,-186.37 2029.54,-175.68"/>
<polygon fill="midnightblue" stroke="midnightblue" points="1990.64,-208.25 1985.86,-217.7 1995.49,-213.29 1990.64,-208.25"/>
</g>
<!-- Node28&#45;&gt;Node6 -->
<g id="edge38" class="edge">
<title>Node28&#45;&gt;Node6</title>
<path fill="none" stroke="midnightblue" d="M461.58,-289.75C405.97,-276.25 331.87,-257.8 326,-254 289.5,-230.36 262.42,-183.84 252.32,-164.62"/>
<polygon fill="midnightblue" stroke="midnightblue" points="460.83,-293.18 471.37,-292.13 462.48,-286.37 460.83,-293.18"/>
</g>
<!-- Node28&#45;&gt;Node9 -->
<g id="edge36" class="edge">
<title>Node28&#45;&gt;Node9</title>
<path fill="none" stroke="midnightblue" d="M461.25,-289.92C380.01,-272.94 356.19,-277.62 281,-254 239.49,-240.96 120.82,-185.96 75.19,-164.57"/>
<polygon fill="midnightblue" stroke="midnightblue" points="460.94,-293.43 471.45,-292.1 462.4,-286.59 460.94,-293.43"/>
</g>
<!-- Node28&#45;&gt;Node10 -->
<g id="edge37" class="edge">
<title>Node28&#45;&gt;Node10</title>
<path fill="none" stroke="midnightblue" d="M584.79,-298.41C710.67,-285.93 985.79,-258.27 995,-254 1019.52,-242.62 1014.21,-222.8 1039,-212 1162.48,-158.22 1510.46,-193.51 1644,-176 1664.83,-173.27 1687.87,-168.65 1706.36,-164.54"/>
<polygon fill="midnightblue" stroke="midnightblue" points="584.15,-294.96 574.54,-299.42 584.84,-301.92 584.15,-294.96"/>
</g>
<!-- Node29 -->
<g id="node29" class="node">
<title>Node29</title>
<g id="a_node29"><a xlink:href="IllegalCollisionBehaviourException_8hpp.html" target="_top" xlink:title=" ">
<polygon fill="none" stroke="black" points="10.5,-212.5 10.5,-253.5 167.5,-253.5 167.5,-212.5 10.5,-212.5"/>
<text text-anchor="start" x="18.5" y="-241.5" font-family="Helvetica,sans-Serif" font-size="10.00">includes/platformer</text>
<text text-anchor="start" x="18.5" y="-230.5" font-family="Helvetica,sans-Serif" font-size="10.00">&#45;engine/Exceptions/Illegal</text>
<text text-anchor="middle" x="89" y="-219.5" font-family="Helvetica,sans-Serif" font-size="10.00">CollisionBehaviourException.hpp</text>
</a>
</g>
</g>
<!-- Node28&#45;&gt;Node29 -->
<g id="edge39" class="edge">
<title>Node28&#45;&gt;Node29</title>
<path fill="none" stroke="midnightblue" d="M461.62,-290.05C346.97,-268.8 315.84,-271.31 205,-254 192.89,-252.11 180.08,-250 167.57,-247.89"/>
<polygon fill="midnightblue" stroke="midnightblue" points="461.01,-293.49 471.49,-291.9 462.3,-286.61 461.01,-293.49"/>
</g>
<!-- Node30 -->
<g id="node30" class="node">
<title>Node30</title>
<g id="a_node30"><a xlink:href="PlayerRigidBody_8hpp.html" target="_top" xlink:title=" ">
<polygon fill="none" stroke="black" points="335.5,-212.5 335.5,-253.5 472.5,-253.5 472.5,-212.5 335.5,-212.5"/>
<text text-anchor="start" x="343.5" y="-241.5" font-family="Helvetica,sans-Serif" font-size="10.00">includes/platformer</text>
<text text-anchor="start" x="343.5" y="-230.5" font-family="Helvetica,sans-Serif" font-size="10.00">&#45;engine/Physics/PlayerRigid</text>
<text text-anchor="middle" x="404" y="-219.5" font-family="Helvetica,sans-Serif" font-size="10.00">Body.hpp</text>
</a>
</g>
</g>
<!-- Node28&#45;&gt;Node30 -->
<g id="edge41" class="edge">
<title>Node28&#45;&gt;Node30</title>
<path fill="none" stroke="midnightblue" d="M490.42,-285.2C473.89,-275.41 453.84,-263.53 437.22,-253.68"/>
<polygon fill="midnightblue" stroke="midnightblue" points="488.82,-288.32 499.2,-290.4 492.39,-282.29 488.82,-288.32"/>
</g>
<!-- Node29&#45;&gt;Node9 -->
<g id="edge40" class="edge">
<title>Node29&#45;&gt;Node9</title>
<path fill="none" stroke="midnightblue" d="M76.73,-202.85C70.96,-189.15 64.51,-173.83 60.6,-164.55"/>
<polygon fill="midnightblue" stroke="midnightblue" points="73.65,-204.57 80.76,-212.43 80.1,-201.85 73.65,-204.57"/>
</g>
<!-- Node30&#45;&gt;Node6 -->
<g id="edge43" class="edge">
<title>Node30&#45;&gt;Node6</title>
<path fill="none" stroke="midnightblue" d="M354.62,-207.94C324.19,-193.12 287,-175 265.55,-164.55"/>
<polygon fill="midnightblue" stroke="midnightblue" points="353.3,-211.19 363.83,-212.43 356.37,-204.9 353.3,-211.19"/>
</g>
<!-- Node30&#45;&gt;Node12 -->
<g id="edge42" class="edge">
<title>Node30&#45;&gt;Node12</title>
<path fill="none" stroke="midnightblue" d="M325.37,-224.4C262.41,-216.5 181.37,-201.6 161,-176 149.38,-161.39 149,-148.3 161,-134 221.55,-61.83 868.49,-25.68 1107.73,-14.71"/>
<polygon fill="midnightblue" stroke="midnightblue" points="324.96,-227.87 335.31,-225.61 325.8,-220.93 324.96,-227.87"/>
</g>
<!-- Node30&#45;&gt;Node17 -->
<g id="edge44" class="edge">
<title>Node30&#45;&gt;Node17</title>
<path fill="none" stroke="midnightblue" d="M411.78,-202.45C415.35,-188.86 419.33,-173.74 421.75,-164.55"/>
<polygon fill="midnightblue" stroke="midnightblue" points="408.31,-201.87 409.15,-212.43 415.08,-203.65 408.31,-201.87"/>
</g>
<!-- Node31&#45;&gt;Node5 -->
<g id="edge50" class="edge">
<title>Node31&#45;&gt;Node5</title>
<path fill="none" stroke="midnightblue" d="M975.63,-350.88C963.47,-341.01 949.22,-329.43 938.32,-320.58"/>
<polygon fill="midnightblue" stroke="midnightblue" points="973.67,-353.81 983.64,-357.4 978.09,-348.37 973.67,-353.81"/>
</g>
<!-- Node31&#45;&gt;Node10 -->
<g id="edge49" class="edge">
<title>Node31&#45;&gt;Node10</title>
<path fill="none" stroke="midnightblue" d="M1014.6,-348.88C1027.12,-330.1 1047.45,-304.24 1072,-290 1296.25,-159.98 1389.89,-227.25 1644,-176 1662.55,-172.26 1683.07,-168.08 1700.52,-164.51"/>
<polygon fill="midnightblue" stroke="midnightblue" points="1011.56,-347.15 1009.1,-357.45 1017.45,-350.93 1011.56,-347.15"/>
</g>
<!-- Node32 -->
<g id="node32" class="node">
<title>Node32</title>
<g id="a_node32"><a xlink:href="BoxCollider_8cpp.html" target="_top" xlink:title=" ">
<polygon fill="none" stroke="black" points="1081.5,-296 1081.5,-315 1200.5,-315 1200.5,-296 1081.5,-296"/>
<text text-anchor="middle" x="1141" y="-303" font-family="Helvetica,sans-Serif" font-size="10.00">src/API/BoxCollider.cpp</text>
</a>
</g>
</g>
<!-- Node31&#45;&gt;Node32 -->
<g id="edge48" class="edge">
<title>Node31&#45;&gt;Node32</title>
<path fill="none" stroke="midnightblue" d="M1040.56,-353.13C1067.51,-340.62 1101.93,-324.64 1122.68,-315.01"/>
<polygon fill="midnightblue" stroke="midnightblue" points="1038.97,-350.01 1031.38,-357.4 1041.92,-356.36 1038.97,-350.01"/>
</g>
</g>
</svg>
