<svg xmlns="http://www.w3.org/2000/svg" xmlns:xlink="http://www.w3.org/1999/xlink" id="main" onload="init(evt)" version="1.1" xml:space="preserve"><style type="text/css">.edge:hover path{stroke:red}.edge:hover polygon{stroke:red;fill:red}</style><script type="text/javascript"><![CDATA[
var edges = document.getElementsByTagName('g');
if (edges && edges.length) {
  for (var i=0;i<edges.length;i++) {
    if (edges[i].id.substr(0,4)=='edge') {
      edges[i].setAttribute('class','edge');
    }
  }
}
]]></script><defs><circle id="rim" cx="0" cy="0" r="7"/><circle id="rim2" cx="0" cy="0" r="3.5"/><g id="zoomPlus"><use fill="#404040" xlink:href="#rim"><set attributeName="fill" begin="zoomplus.mouseover" end="zoomplus.mouseout" to="#808080"/></use><path fill="none" stroke="#fff" stroke-width="1.5" d="M-4,0h8M0,-4v8" pointer-events="none"/></g><g id="zoomMin"><use fill="#404040" xlink:href="#rim"><set attributeName="fill" begin="zoomminus.mouseover" end="zoomminus.mouseout" to="#808080"/></use><path fill="none" stroke="#fff" stroke-width="1.5" d="M-4,0h8" pointer-events="none"/></g><g id="dirArrow"><path fill="none" stroke="#fff" stroke-width="1.5" d="M0,-3.0v7 M-2.5,-0.5L0,-3.0L2.5,-0.5"/></g><g id="resetDef"><use fill="#404040" xlink:href="#rim2"><set attributeName="fill" begin="reset.mouseover" end="reset.mouseout" to="#808080"/></use></g></defs><script type="text/javascript">var viewWidth = 1917; var viewHeight = 586; var sectionId = &apos;dynsection-0&apos;;</script><script xlink:href="svgpan.js"/><svg id="graph" class="graph"><g id="viewport"><title>includes/spic-prj-api/Color.hpp</title><g id="node1" class="node"><title>Node1</title><g id="a_node1"><a><polygon fill="#bfbfbf" stroke="#000" points="667.5 -547.5 667.5 -577.5 770.5 -577.5 770.5 -547.5 667.5 -547.5"/><text x="675.5" y="-565.5" font-family="Helvetica,sans-Serif" font-size="10" text-anchor="start">includes/spic-prj-api</text><text x="719" y="-554.5" font-family="Helvetica,sans-Serif" font-size="10" text-anchor="middle">/Color.hpp</text></a></g></g><g id="node2" class="node"><title>Node2</title><g id="a_node2"><a target="_top" xlink:href="GraphicsFacade_8hpp.html"><polygon fill="none" stroke="#000" points="416 -480.5 416 -510.5 592 -510.5 592 -480.5 416 -480.5"/><text x="424" y="-498.5" font-family="Helvetica,sans-Serif" font-size="10" text-anchor="start">includes/platformer</text><text x="504" y="-487.5" font-family="Helvetica,sans-Serif" font-size="10" text-anchor="middle">-engine/Facade/GraphicsFacade.hpp</text></a></g></g><g id="edge1" class="edge"><title>Node1-&gt;Node2</title><path fill="none" stroke="#191970" d="M663.03,-544.58C628.11,-534.02 583.69,-520.59 550.67,-510.61"/><polygon fill="#191970" stroke="#191970" points="662.03 -547.93 672.61 -547.48 664.05 -541.23 662.03 -547.93"/></g><g id="node4" class="node"><title>Node4</title><g id="a_node4"><a target="_top" xlink:href="Window_8hpp.html"><polygon fill="none" stroke="#000" points="534.5 -346.5 534.5 -376.5 671.5 -376.5 671.5 -346.5 534.5 -346.5"/><text x="542.5" y="-364.5" font-family="Helvetica,sans-Serif" font-size="10" text-anchor="start">includes/platformer</text><text x="603" y="-353.5" font-family="Helvetica,sans-Serif" font-size="10" text-anchor="middle">-engine/Render/Window.hpp</text></a></g></g><g id="edge34" class="edge"><title>Node1-&gt;Node4</title><path fill="none" stroke="#191970" d="M688.87,-541.11C678.3,-532.77 667.07,-522.4 659,-511 628.12,-467.37 611.88,-404.59 605.83,-376.73"/><polygon fill="#191970" stroke="#191970" points="687.04 -544.11 697.13 -547.34 691.26 -538.53 687.04 -544.11"/></g><g id="node24" class="node"><title>Node24</title><g id="a_node24"><a target="_top" xlink:href="Sprite_8hpp.html"><polygon fill="none" stroke="#000" points=".5 -346.5 .5 -376.5 103.5 -376.5 103.5 -346.5 .5 -346.5"/><text x="8.5" y="-364.5" font-family="Helvetica,sans-Serif" font-size="10" text-anchor="start">includes/spic-prj-api</text><text x="52" y="-353.5" font-family="Helvetica,sans-Serif" font-size="10" text-anchor="middle">/Sprite.hpp</text></a></g></g><g id="edge65" class="edge"><title>Node1-&gt;Node24</title><path fill="none" stroke="#191970" d="M656.96,-556.37C554.17,-546.06 343.83,-517.18 182,-444 140.01,-425.01 95.4,-394.47 70.89,-376.66"/><polygon fill="#191970" stroke="#191970" points="656.87 -559.88 667.17 -557.37 657.56 -552.91 656.87 -559.88"/></g><g id="node26" class="node"><title>Node26</title><g id="a_node26"><a target="_top" xlink:href="Camera_8hpp.html"><polygon fill="none" stroke="#000" points="667.5 -480.5 667.5 -510.5 770.5 -510.5 770.5 -480.5 667.5 -480.5"/><text x="675.5" y="-498.5" font-family="Helvetica,sans-Serif" font-size="10" text-anchor="start">includes/spic-prj-api</text><text x="719" y="-487.5" font-family="Helvetica,sans-Serif" font-size="10" text-anchor="middle">/Camera.hpp</text></a></g></g><g id="edge35" class="edge"><title>Node1-&gt;Node26</title><path fill="none" stroke="#191970" d="M719,-537.11C719,-528.15 719,-518.32 719,-510.58"/><polygon fill="#191970" stroke="#191970" points="715.5 -537.4 719 -547.4 722.5 -537.4 715.5 -537.4"/></g><g id="node32" class="node"><title>Node32</title><g id="a_node32"><a target="_top" xlink:href="Color_8cpp.html"><polygon fill="none" stroke="#000" points="788.5 -480.5 788.5 -510.5 891.5 -510.5 891.5 -480.5 788.5 -480.5"/><text x="796.5" y="-498.5" font-family="Helvetica,sans-Serif" font-size="10" text-anchor="start">includes/spic-prj-api</text><text x="840" y="-487.5" font-family="Helvetica,sans-Serif" font-size="10" text-anchor="middle">/Color.cpp</text></a></g></g><g id="edge47" class="edge"><title>Node1-&gt;Node32</title><path fill="none" stroke="#191970" d="M754.23,-542.57C773.26,-532.35 796.37,-519.94 813.8,-510.58"/><polygon fill="#191970" stroke="#191970" points="752.41 -539.58 745.26 -547.4 755.72 -545.75 752.41 -539.58"/></g><g id="node33" class="node"><title>Node33</title><g id="a_node33"><a target="_top" xlink:href="Debug_8hpp.html"><polygon fill="none" stroke="#000" points="1306.5 -346.5 1306.5 -376.5 1409.5 -376.5 1409.5 -346.5 1306.5 -346.5"/><text x="1314.5" y="-364.5" font-family="Helvetica,sans-Serif" font-size="10" text-anchor="start">includes/spic-prj-api</text><text x="1358" y="-353.5" font-family="Helvetica,sans-Serif" font-size="10" text-anchor="middle">/Debug.hpp</text></a></g></g><g id="edge48" class="edge"><title>Node1-&gt;Node33</title><path fill="none" stroke="#191970" d="M780.38,-547.93C816.18,-539.17 861.85,-526.51 901,-511 928.54,-500.09 932.55,-491.14 960,-480 1080.67,-431.04 1229.35,-392.64 1306.33,-374.3"/><polygon fill="#191970" stroke="#191970" points="779.46 -544.55 770.56 -550.3 781.1 -551.36 779.46 -544.55"/></g><g id="node42" class="node"><title>Node42</title><g id="a_node42"><a target="_top" xlink:href="Text_8hpp.html"><polygon fill="none" stroke="#000" points="968.5 -480.5 968.5 -510.5 1071.5 -510.5 1071.5 -480.5 968.5 -480.5"/><text x="976.5" y="-498.5" font-family="Helvetica,sans-Serif" font-size="10" text-anchor="start">includes/spic-prj-api</text><text x="1020" y="-487.5" font-family="Helvetica,sans-Serif" font-size="10" text-anchor="middle">/Text.hpp</text></a></g></g><g id="edge66" class="edge"><title>Node1-&gt;Node42</title><path fill="none" stroke="#191970" d="M780.63,-548.34C828.04,-538.19 895.18,-523.78 954,-511 958.7,-509.98 963.59,-508.91 968.48,-507.84"/><polygon fill="#191970" stroke="#191970" points="779.87 -544.92 770.82 -550.44 781.33 -551.77 779.87 -544.92"/></g><g id="node3" class="node"><title>Node3</title><g id="a_node3"><a target="_top" xlink:href="GraphicsFacade_8cpp.html"><polygon fill="none" stroke="#000" points="338 -285 338 -304 496 -304 496 -285 338 -285"/><text x="417" y="-292" font-family="Helvetica,sans-Serif" font-size="10" text-anchor="middle">src/Facade/GraphicsFacade.cpp</text></a></g></g><g id="edge2" class="edge"><title>Node2-&gt;Node3</title><path fill="none" stroke="#191970" d="M501.36,-469.9C497.24,-439.25 487.3,-386.02 465,-346 455.46,-328.88 438.77,-313.21 427.8,-304"/><polygon fill="#191970" stroke="#191970" points="497.92 -470.62 502.63 -480.11 504.87 -469.76 497.92 -470.62"/></g><g id="edge3" class="edge"><title>Node2-&gt;Node4</title><path fill="none" stroke="#191970" d="M520.73,-472.19C541.23,-444.86 575.34,-399.38 592.48,-376.52"/><polygon fill="#191970" stroke="#191970" points="517.79 -470.27 514.59 -480.37 523.39 -474.47 517.79 -470.27"/></g><g id="node21" class="node"><title>Node21</title><g id="a_node21"><a target="_top" xlink:href="TextureManager_8hpp.html"><polygon fill="none" stroke="#000" points="290 -413.5 290 -443.5 464 -443.5 464 -413.5 290 -413.5"/><text x="298" y="-431.5" font-family="Helvetica,sans-Serif" font-size="10" text-anchor="start">includes/platformer</text><text x="377" y="-420.5" font-family="Helvetica,sans-Serif" font-size="10" text-anchor="middle">-engine/Texture/TextureManager.hpp</text></a></g></g><g id="edge24" class="edge"><title>Node2-&gt;Node21</title><path fill="none" stroke="#191970" d="M467.3,-475.71C447.27,-465.46 422.88,-452.98 404.5,-443.58"/><polygon fill="#191970" stroke="#191970" points="465.95 -478.96 476.44 -480.4 469.14 -472.72 465.95 -478.96"/></g><g id="edge33" class="edge"><title>Node2-&gt;Node24</title><path fill="none" stroke="#191970" d="M422.14,-478.41C379.71,-469.45 327.24,-457.41 281,-444 211.29,-423.78 131.88,-393.94 87.27,-376.53"/><polygon fill="#191970" stroke="#191970" points="421.64 -481.88 432.14 -480.5 423.07 -475.02 421.64 -481.88"/></g><g id="node5" class="node"><title>Node5</title><g id="a_node5"><a target="_top" xlink:href="Window_8cpp.html"><polygon fill="none" stroke="#000" points="552.5 -285 552.5 -304 671.5 -304 671.5 -285 552.5 -285"/><text x="612" y="-292" font-family="Helvetica,sans-Serif" font-size="10" text-anchor="middle">src/Render/Window.cpp</text></a></g></g><g id="edge4" class="edge"><title>Node4-&gt;Node5</title><path fill="none" stroke="#191970" d="M606.36,-336.25C607.91,-325.02 609.66,-312.38 610.8,-304.19"/><polygon fill="#191970" stroke="#191970" points="602.86 -336.01 604.95 -346.4 609.79 -336.97 602.86 -336.01"/></g><g id="node6" class="node"><title>Node6</title><g id="a_node6"><a target="_top" xlink:href="Timer_8cpp.html"><polygon fill="none" stroke="#000" points="964 -285 964 -304 1068 -304 1068 -285 964 -285"/><text x="1016" y="-292" font-family="Helvetica,sans-Serif" font-size="10" text-anchor="middle">src/Timer/Timer.cpp</text></a></g></g><g id="edge5" class="edge"><title>Node4-&gt;Node6</title><path fill="none" stroke="#191970" d="M682.06,-351.24C753.62,-342.37 861.79,-327.73 955,-310 963.98,-308.29 973.64,-306.14 982.56,-304.03"/><polygon fill="#191970" stroke="#191970" points="681.27 -347.81 671.77 -352.51 682.13 -354.76 681.27 -347.81"/></g><g id="node7" class="node"><title>Node7</title><g id="a_node7"><a target="_top" xlink:href="Engine_8hpp.html"><polygon fill="none" stroke="#000" points="672.5 -67.5 672.5 -97.5 803.5 -97.5 803.5 -67.5 672.5 -67.5"/><text x="680.5" y="-85.5" font-family="Helvetica,sans-Serif" font-size="10" text-anchor="start">includes/platformer</text><text x="738" y="-74.5" font-family="Helvetica,sans-Serif" font-size="10" text-anchor="middle">-engine/Engine/Engine.hpp</text></a></g></g><g id="edge6" class="edge"><title>Node4-&gt;Node7</title><path fill="none" stroke="#191970" d="M569.83,-340.41C559.6,-332.35 549.56,-322.08 544,-310 518.62,-254.88 533.15,-192.87 591,-134 612.56,-112.06 644.07,-99.64 672.39,-92.62"/><polygon fill="#191970" stroke="#191970" points="567.86 -343.3 578 -346.39 572 -337.66 567.86 -343.3"/></g><g id="node12" class="node"><title>Node12</title><g id="a_node12"><a target="_top" xlink:href="AnimatedSprite_8hpp.html"><polygon fill="none" stroke="#000" points="148.5 -279.5 148.5 -309.5 319.5 -309.5 319.5 -279.5 148.5 -279.5"/><text x="156.5" y="-297.5" font-family="Helvetica,sans-Serif" font-size="10" text-anchor="start">includes/platformer</text><text x="234" y="-286.5" font-family="Helvetica,sans-Serif" font-size="10" text-anchor="middle">-engine/Texture/AnimatedSprite.hpp</text></a></g></g><g id="edge11" class="edge"><title>Node4-&gt;Node12</title><path fill="none" stroke="#191970" d="M524.33,-346.64C462.26,-335.71 376.05,-320.52 313.72,-309.54"/><polygon fill="#191970" stroke="#191970" points="524 -350.14 534.46 -348.43 525.22 -343.24 524 -350.14"/></g><g id="node8" class="node"><title>Node8</title><g id="a_node8"><a target="_top" xlink:href="Engine_8cpp.html"><polygon fill="none" stroke="#000" points="643.5 -6 643.5 -25 756.5 -25 756.5 -6 643.5 -6"/><text x="700" y="-13" font-family="Helvetica,sans-Serif" font-size="10" text-anchor="middle">src/Engine/Engine.cpp</text></a></g></g><g id="edge7" class="edge"><title>Node7-&gt;Node8</title><path fill="none" stroke="#191970" d="M724.63,-58.63C717.87,-47.07 710.06,-33.71 705.08,-25.19"/><polygon fill="#191970" stroke="#191970" points="721.69 -60.53 729.75 -67.4 727.73 -57 721.69 -60.53"/></g><g id="node9" class="node"><title>Node9</title><g id="a_node9"><a target="_top" xlink:href="ClientNetworkManager_8cpp.html"><polygon fill="none" stroke="#000" points="1031.5 -.5 1031.5 -30.5 1178.5 -30.5 1178.5 -.5 1031.5 -.5"/><text x="1039.5" y="-18.5" font-family="Helvetica,sans-Serif" font-size="10" text-anchor="start">src/Networking/ClientNetwork</text><text x="1105" y="-7.5" font-family="Helvetica,sans-Serif" font-size="10" text-anchor="middle">Manager.cpp</text></a></g></g><g id="edge8" class="edge"><title>Node7-&gt;Node9</title><path fill="none" stroke="#191970" d="M813.61,-68.11C877.42,-56.81 968.23,-40.72 1031.45,-29.53"/><polygon fill="#191970" stroke="#191970" points="812.85 -64.69 803.61 -69.88 814.07 -71.58 812.85 -64.69"/></g><g id="node10" class="node"><title>Node10</title><g id="a_node10"><a target="_top" xlink:href="ServerNetworkManager_8cpp.html"><polygon fill="none" stroke="#000" points="774.5 -.5 774.5 -30.5 925.5 -30.5 925.5 -.5 774.5 -.5"/><text x="782.5" y="-18.5" font-family="Helvetica,sans-Serif" font-size="10" text-anchor="start">src/Networking/ServerNetwork</text><text x="850" y="-7.5" font-family="Helvetica,sans-Serif" font-size="10" text-anchor="middle">Manager.cpp</text></a></g></g><g id="edge9" class="edge"><title>Node7-&gt;Node10</title><path fill="none" stroke="#191970" d="M771.09,-62.3C788.62,-52.12 809.76,-39.85 825.75,-30.58"/><polygon fill="#191970" stroke="#191970" points="769.19 -59.35 762.3 -67.4 772.71 -65.4 769.19 -59.35"/></g><g id="node11" class="node"><title>Node11</title><g id="a_node11"><a target="_top" xlink:href="RenderSystem_8cpp.html"><polygon fill="none" stroke="#000" points="337 -6 337 -25 487 -25 487 -6 337 -6"/><text x="412" y="-13" font-family="Helvetica,sans-Serif" font-size="10" text-anchor="middle">src/Texture/RenderSystem.cpp</text></a></g></g><g id="edge10" class="edge"><title>Node7-&gt;Node11</title><path fill="none" stroke="#191970" d="M662.29,-66.41C597.74,-53.53 507.29,-35.5 454.65,-25"/><polygon fill="#191970" stroke="#191970" points="661.93 -69.9 672.42 -68.42 663.3 -63.04 661.93 -69.9"/></g><g id="node13" class="node"><title>Node13</title><g id="a_node13"><a target="_top" xlink:href="AnimatedSprite_8cpp.html"><polygon fill="none" stroke="#000" points="124.5 -218 124.5 -237 277.5 -237 277.5 -218 124.5 -218"/><text x="201" y="-225" font-family="Helvetica,sans-Serif" font-size="10" text-anchor="middle">src/Texture/AnimatedSprite.cpp</text></a></g></g><g id="edge12" class="edge"><title>Node12-&gt;Node13</title><path fill="none" stroke="#191970" d="M222.22,-270.29C216.38,-258.8 209.7,-245.63 205.41,-237.19"/><polygon fill="#191970" stroke="#191970" points="219.19 -272.06 226.84 -279.4 225.43 -268.89 219.19 -272.06"/></g><g id="node14" class="node"><title>Node14</title><g id="a_node14"><a target="_top" xlink:href="GameObjectBuilder_8hpp.html"><polygon fill="none" stroke="#000" points="330.5 -134.5 330.5 -175.5 469.5 -175.5 469.5 -134.5 330.5 -134.5"/><text x="338.5" y="-163.5" font-family="Helvetica,sans-Serif" font-size="10" text-anchor="start">includes/platformer</text><text x="338.5" y="-152.5" font-family="Helvetica,sans-Serif" font-size="10" text-anchor="start">-engine/Builder/GameObject</text><text x="400" y="-141.5" font-family="Helvetica,sans-Serif" font-size="10" text-anchor="middle">Builder.hpp</text></a></g></g><g id="edge13" class="edge"><title>Node12-&gt;Node14</title><path fill="none" stroke="#191970" d="M256.81,-272.04C274.92,-255.26 301.09,-231.57 325,-212 340.34,-199.44 358.09,-186.14 372.48,-175.65"/><polygon fill="#191970" stroke="#191970" points="254.03 -269.85 249.09 -279.23 258.8 -274.98 254.03 -269.85"/></g><g id="node16" class="node"><title>Node16</title><g id="a_node16"><a target="_top" xlink:href="ObjectBuilder_8hpp.html"><polygon fill="none" stroke="#000" points="334.5 -212.5 334.5 -242.5 495.5 -242.5 495.5 -212.5 334.5 -212.5"/><text x="342.5" y="-230.5" font-family="Helvetica,sans-Serif" font-size="10" text-anchor="start">includes/platformer</text><text x="415" y="-219.5" font-family="Helvetica,sans-Serif" font-size="10" text-anchor="middle">-engine/Builder/ObjectBuilder.hpp</text></a></g></g><g id="edge15" class="edge"><title>Node12-&gt;Node16</title><path fill="none" stroke="#191970" d="M282.86,-275.96C312.01,-265.48 348.54,-252.37 375.8,-242.58"/><polygon fill="#191970" stroke="#191970" points="281.5 -272.72 273.27 -279.4 283.87 -279.31 281.5 -272.72"/></g><g id="node17" class="node"><title>Node17</title><g id="a_node17"><a target="_top" xlink:href="Animator_8hpp.html"><polygon fill="none" stroke="#000" points="3.5 -212.5 3.5 -242.5 106.5 -242.5 106.5 -212.5 3.5 -212.5"/><text x="11.5" y="-230.5" font-family="Helvetica,sans-Serif" font-size="10" text-anchor="start">includes/spic-prj-api</text><text x="55" y="-219.5" font-family="Helvetica,sans-Serif" font-size="10" text-anchor="middle">/Animator.hpp</text></a></g></g><g id="edge17" class="edge"><title>Node12-&gt;Node17</title><path fill="none" stroke="#191970" d="M185.68,-275.96C156.85,-265.48 120.72,-252.37 93.76,-242.58"/><polygon fill="#191970" stroke="#191970" points="184.57 -279.27 195.16 -279.4 186.95 -272.69 184.57 -279.27"/></g><g id="node15" class="node"><title>Node15</title><g id="a_node15"><a target="_top" xlink:href="GameObjectBuilder_8cpp.html"><polygon fill="none" stroke="#000" points="315.5 -73 315.5 -92 484.5 -92 484.5 -73 315.5 -73"/><text x="400" y="-80" font-family="Helvetica,sans-Serif" font-size="10" text-anchor="middle">src/Builder/GameObjectBuilder.cpp</text></a></g></g><g id="edge14" class="edge"><title>Node14-&gt;Node15</title><path fill="none" stroke="#191970" d="M400,-124.1C400,-112.53 400,-100.18 400,-92.17"/><polygon fill="#191970" stroke="#191970" points="396.5 -124.36 400 -134.36 403.5 -124.36 396.5 -124.36"/></g><g id="edge16" class="edge"><title>Node16-&gt;Node14</title><path fill="none" stroke="#191970" d="M409.84,-202.27C407.99,-193.56 405.93,-183.85 404.17,-175.59"/><polygon fill="#191970" stroke="#191970" points="406.46 -203.18 411.96 -212.23 413.31 -201.72 406.46 -203.18"/></g><g id="edge20" class="edge"><title>Node17-&gt;Node14</title><path fill="none" stroke="#191970" d="M116.59,-211.75C207.72,-193.21 233.21,-194.76 321,-176 324.04,-175.35 327.15,-174.66 330.28,-173.95"/><polygon fill="#191970" stroke="#191970" points="115.75 -208.35 106.66 -213.79 117.16 -215.2 115.75 -208.35"/></g><g id="node18" class="node"><title>Node18</title><g id="a_node18"><a target="_top" xlink:href="Animator_8cpp.html"><polygon fill="none" stroke="#000" points="0 -145.5 0 -164.5 110 -164.5 110 -145.5 0 -145.5"/><text x="55" y="-152.5" font-family="Helvetica,sans-Serif" font-size="10" text-anchor="middle">src/API/Animator.cpp</text></a></g></g><g id="edge18" class="edge"><title>Node17-&gt;Node18</title><path fill="none" stroke="#191970" d="M55,-202.09C55,-189.21 55,-174.2 55,-164.89"/><polygon fill="#191970" stroke="#191970" points="51.5 -202.23 55 -212.23 58.5 -202.23 51.5 -202.23"/></g><g id="node19" class="node"><title>Node19</title><g id="a_node19"><a target="_top" xlink:href="Scene_8cpp.html"><polygon fill="none" stroke="#000" points="600 -145.5 600 -164.5 710 -164.5 710 -145.5 600 -145.5"/><text x="655" y="-152.5" font-family="Helvetica,sans-Serif" font-size="10" text-anchor="middle">src/Scene/Scene.cpp</text></a></g></g><g id="edge19" class="edge"><title>Node17-&gt;Node19</title><path fill="none" stroke="#191970" d="M116.81,-211.83C276.61,-185.22 320.09,-192.75 478,-176 518.75,-171.68 564.73,-166.47 599.61,-162.46"/><polygon fill="#191970" stroke="#191970" points="115.9 -208.43 106.62 -213.55 117.06 -215.34 115.9 -208.43"/></g><g id="node20" class="node"><title>Node20</title><g id="a_node20"><a target="_top" xlink:href="RenderSystem_8hpp.html"><polygon fill="none" stroke="#000" points="144 -140 144 -170 312 -170 312 -140 144 -140"/><text x="152" y="-158" font-family="Helvetica,sans-Serif" font-size="10" text-anchor="start">includes/platformer</text><text x="228" y="-147" font-family="Helvetica,sans-Serif" font-size="10" text-anchor="middle">-engine/Texture/RenderSystem.hpp</text></a></g></g><g id="edge21" class="edge"><title>Node17-&gt;Node20</title><path fill="none" stroke="#191970" d="M99.17,-208.5C128.47,-196.56 166.37,-181.11 193.47,-170.07"/><polygon fill="#191970" stroke="#191970" points="97.53 -205.39 89.59 -212.4 100.17 -211.87 97.53 -205.39"/></g><g id="edge23" class="edge"><title>Node20-&gt;Node7</title><path fill="none" stroke="#191970" d="M299.31,-137.97C306.62,-136.54 313.95,-135.18 321,-134 444.52,-113.28 590,-97.63 672.37,-89.58"/><polygon fill="#191970" stroke="#191970" points="298.49 -134.57 289.38 -139.97 299.87 -141.43 298.49 -134.57"/></g><g id="edge22" class="edge"><title>Node20-&gt;Node11</title><path fill="none" stroke="#191970" d="M244,-131.64C258.51,-112.59 281.35,-85.44 306,-67 331.3,-48.07 364.82,-33.55 387.34,-25.04"/><polygon fill="#191970" stroke="#191970" points="241.12 -129.66 237.95 -139.77 246.73 -133.84 241.12 -129.66"/></g><g id="edge25" class="edge"><title>Node21-&gt;Node3</title><path fill="none" stroke="#191970" d="M418.39,-408.16C430.48,-400.3 442.25,-389.97 449,-377 462.19,-351.65 438.75,-319.58 425.36,-304.33"/><polygon fill="#191970" stroke="#191970" points="416.36 -405.29 409.59 -413.44 419.96 -411.29 416.36 -405.29"/></g><g id="edge28" class="edge"><title>Node21-&gt;Node4</title><path fill="none" stroke="#191970" d="M435.83,-410.58C472.54,-400.02 519.23,-386.59 553.94,-376.61"/><polygon fill="#191970" stroke="#191970" points="434.4 -407.35 425.76 -413.48 436.34 -414.08 434.4 -407.35"/></g><g id="node22" class="node"><title>Node22</title><g id="a_node22"><a target="_top" xlink:href="TileLayer_8cpp.html"><polygon fill="none" stroke="#000" points="122 -352 122 -371 266 -371 266 -352 122 -352"/><text x="194" y="-359" font-family="Helvetica,sans-Serif" font-size="10" text-anchor="middle">src/GameLevel/TileLayer.cpp</text></a></g></g><g id="edge26" class="edge"><title>Node21-&gt;Node22</title><path fill="none" stroke="#191970" d="M327.58,-409.95C292.04,-397.32 245.66,-380.85 217.95,-371.01"/><polygon fill="#191970" stroke="#191970" points="326.7 -413.35 337.29 -413.4 329.04 -406.75 326.7 -413.35"/></g><g id="node23" class="node"><title>Node23</title><g id="a_node23"><a target="_top" xlink:href="TextureManager_8cpp.html"><polygon fill="none" stroke="#000" points="284 -352 284 -371 440 -371 440 -352 284 -352"/><text x="362" y="-359" font-family="Helvetica,sans-Serif" font-size="10" text-anchor="middle">src/Texture/TextureManager.cpp</text></a></g></g><g id="edge27" class="edge"><title>Node21-&gt;Node23</title><path fill="none" stroke="#191970" d="M371.48,-403.6C368.87,-392.28 365.91,-379.46 364.01,-371.19"/><polygon fill="#191970" stroke="#191970" points="368.09 -404.44 373.75 -413.4 374.91 -402.87 368.09 -404.44"/></g><g id="edge29" class="edge"><title>Node21-&gt;Node24</title><path fill="none" stroke="#191970" d="M288.76,-411.63C237.37,-402.14 171.39,-389.52 113,-377 109.91,-376.34 106.74,-375.64 103.55,-374.92"/><polygon fill="#191970" stroke="#191970" points="288.37 -415.12 298.84 -413.49 289.64 -408.24 288.37 -415.12"/></g><g id="edge31" class="edge"><title>Node24-&gt;Node12</title><path fill="none" stroke="#191970" d="M101.13,-342.96C130.44,-332.48 167.18,-319.37 194.59,-309.58"/><polygon fill="#191970" stroke="#191970" points="99.73 -339.74 91.49 -346.4 102.09 -346.33 99.73 -339.74"/></g><g id="edge32" class="edge"><title>Node24-&gt;Node17</title><path fill="none" stroke="#191970" d="M36.66,-337.54C31.95,-329.23 27.39,-319.53 25,-310 21.65,-296.64 21.35,-292.29 25,-279 28.67,-265.63 36.91,-252.21 43.83,-242.57"/><polygon fill="#191970" stroke="#191970" points="33.76 -339.51 41.93 -346.26 39.75 -335.89 33.76 -339.51"/></g><g id="node25" class="node"><title>Node25</title><g id="a_node25"><a target="_top" xlink:href="Sprite_8cpp.html"><polygon fill="none" stroke="#000" points="34 -285 34 -304 130 -304 130 -285 34 -285"/><text x="82" y="-292" font-family="Helvetica,sans-Serif" font-size="10" text-anchor="middle">src/API/Sprite.cpp</text></a></g></g><g id="edge30" class="edge"><title>Node24-&gt;Node25</title><path fill="none" stroke="#191970" d="M62.71,-337.29C68.01,-325.8 74.09,-312.63 77.99,-304.19"/><polygon fill="#191970" stroke="#191970" points="59.52 -335.85 58.51 -346.4 65.88 -338.78 59.52 -335.85"/></g><g id="node27" class="node"><title>Node27</title><g id="a_node27"><a target="_top" xlink:href="Camera_8cpp.html"><polygon fill="none" stroke="#000" points="770 -419 770 -438 874 -438 874 -419 770 -419"/><text x="822" y="-426" font-family="Helvetica,sans-Serif" font-size="10" text-anchor="middle">src/API/Camera.cpp</text></a></g></g><g id="edge36" class="edge"><title>Node26-&gt;Node27</title><path fill="none" stroke="#191970" d="M749.94,-474.97C769.47,-462.65 793.72,-447.35 808.52,-438.01"/><polygon fill="#191970" stroke="#191970" points="747.94 -472.1 741.35 -480.4 751.67 -478.02 747.94 -472.1"/></g><g id="node28" class="node"><title>Node28</title><g id="a_node28"><a target="_top" xlink:href="SceneBuilder_8hpp.html"><polygon fill="none" stroke="#000" points="804 -346.5 804 -376.5 964 -376.5 964 -346.5 804 -346.5"/><text x="812" y="-364.5" font-family="Helvetica,sans-Serif" font-size="10" text-anchor="start">includes/platformer</text><text x="884" y="-353.5" font-family="Helvetica,sans-Serif" font-size="10" text-anchor="middle">-engine/Builder/SceneBuilder.hpp</text></a></g></g><g id="edge37" class="edge"><title>Node26-&gt;Node28</title><path fill="none" stroke="#191970" d="M780.66,-479.25C824.42,-467.8 876.51,-452.68 883,-444 897.58,-424.51 893.02,-394.42 888.46,-376.77"/><polygon fill="#191970" stroke="#191970" points="779.7 -475.88 770.9 -481.77 781.46 -482.65 779.7 -475.88"/></g><g id="node30" class="node"><title>Node30</title><g id="a_node30"><a target="_top" xlink:href="Scene_8hpp.html"><polygon fill="none" stroke="#000" points="648.5 -413.5 648.5 -443.5 751.5 -443.5 751.5 -413.5 648.5 -413.5"/><text x="656.5" y="-431.5" font-family="Helvetica,sans-Serif" font-size="10" text-anchor="start">includes/spic-prj-api</text><text x="700" y="-420.5" font-family="Helvetica,sans-Serif" font-size="10" text-anchor="middle">/Scene.hpp</text></a></g></g><g id="edge39" class="edge"><title>Node26-&gt;Node30</title><path fill="none" stroke="#191970" d="M712.04,-470.7C709.38,-461.59 706.43,-451.49 704.11,-443.58"/><polygon fill="#191970" stroke="#191970" points="708.71 -471.78 714.88 -480.4 715.43 -469.82 708.71 -471.78"/></g><g id="node29" class="node"><title>Node29</title><g id="a_node29"><a target="_top" xlink:href="SceneBuilder_8cpp.html"><polygon fill="none" stroke="#000" points="804 -285 804 -304 946 -304 946 -285 804 -285"/><text x="875" y="-292" font-family="Helvetica,sans-Serif" font-size="10" text-anchor="middle">src/Builder/SceneBuilder.cpp</text></a></g></g><g id="edge38" class="edge"><title>Node28-&gt;Node29</title><path fill="none" stroke="#191970" d="M880.64,-336.25C879.09,-325.02 877.34,-312.38 876.2,-304.19"/><polygon fill="#191970" stroke="#191970" points="877.21 -336.97 882.05 -346.4 884.14 -336.01 877.21 -336.97"/></g><g id="edge46" class="edge"><title>Node30-&gt;Node4</title><path fill="none" stroke="#191970" d="M670.5,-407.73C655.49,-397.68 637.6,-385.68 624.01,-376.58"/><polygon fill="#191970" stroke="#191970" points="668.7 -410.74 678.95 -413.4 672.59 -404.92 668.7 -410.74"/></g><g id="edge42" class="edge"><title>Node30-&gt;Node7</title><path fill="none" stroke="#191970" d="M711.15,-403.86C722.37,-377.89 738,-334.66 738,-295.5 738,-295.5 738,-295.5 738,-226.5 738,-179.33 738,-123.41 738,-97.71"/><polygon fill="#191970" stroke="#191970" points="707.85 -402.68 706.97 -413.24 714.24 -405.53 707.85 -402.68"/></g><g id="edge40" class="edge"><title>Node30-&gt;Node19</title><path fill="none" stroke="#191970" d="M697.47,-402.9C694.29,-373.37 688.35,-322.4 681,-279 673.67,-235.75 661.82,-184.59 657.07,-164.6"/><polygon fill="#191970" stroke="#191970" points="694.02 -403.53 698.55 -413.11 700.98 -402.79 694.02 -403.53"/></g><g id="edge41" class="edge"><title>Node30-&gt;Node28</title><path fill="none" stroke="#191970" d="M749.67,-409.96C779.3,-399.48 816.44,-386.37 844.15,-376.58"/><polygon fill="#191970" stroke="#191970" points="748.19 -406.76 739.93 -413.4 750.52 -413.37 748.19 -406.76"/></g><g id="node31" class="node"><title>Node31</title><g id="a_node31"><a target="_top" xlink:href="ServerNetworkManager_8hpp.html"><polygon fill="none" stroke="#000" points="765.5 -134.5 765.5 -175.5 934.5 -175.5 934.5 -134.5 765.5 -134.5"/><text x="773.5" y="-163.5" font-family="Helvetica,sans-Serif" font-size="10" text-anchor="start">includes/platformer</text><text x="773.5" y="-152.5" font-family="Helvetica,sans-Serif" font-size="10" text-anchor="start">-engine/Networking/ServerNetwork</text><text x="850" y="-141.5" font-family="Helvetica,sans-Serif" font-size="10" text-anchor="middle">Manager.hpp</text></a></g></g><g id="edge43" class="edge"><title>Node30-&gt;Node31</title><path fill="none" stroke="#191970" d="M725.15,-406.77C734.42,-398.24 744.49,-387.82 752,-377 779.12,-337.93 775.74,-322.49 795,-279 811.2,-242.43 830.3,-199.83 841.19,-175.58"/><polygon fill="#191970" stroke="#191970" points="722.77 -404.2 717.62 -413.46 727.42 -409.44 722.77 -404.2"/></g><g id="edge45" class="edge"><title>Node31-&gt;Node7</title><path fill="none" stroke="#191970" d="M810.29,-129.01C793.59,-118.49 774.76,-106.64 760.51,-97.67"/><polygon fill="#191970" stroke="#191970" points="808.47 -132 818.8 -134.36 812.2 -126.07 808.47 -132"/></g><g id="edge44" class="edge"><title>Node31-&gt;Node10</title><path fill="none" stroke="#191970" d="M850,-123.96C850,-95.05 850,-52.6 850,-30.72"/><polygon fill="#191970" stroke="#191970" points="846.5 -124.3 850 -134.3 853.5 -124.3 846.5 -124.3"/></g><g id="edge51" class="edge"><title>Node33-&gt;Node3</title><path fill="none" stroke="#191970" d="M1295.78,-357.74C1159.43,-351.45 824.08,-334.66 544,-310 525.1,-308.34 504.66,-306.17 485.81,-304.01"/><polygon fill="#191970" stroke="#191970" points="1295.88 -361.25 1306.03 -358.21 1296.2 -354.25 1295.88 -361.25"/></g><g id="edge57" class="edge"><title>Node33-&gt;Node6</title><path fill="none" stroke="#191970" d="M1296.15,-349.83C1240.13,-340.01 1155.39,-324.77 1082,-310 1072.8,-308.15 1062.9,-306.04 1053.65,-304.01"/><polygon fill="#191970" stroke="#191970" points="1295.81 -353.32 1306.26 -351.6 1297.02 -346.43 1295.81 -353.32"/></g><g id="edge55" class="edge"><title>Node33-&gt;Node9</title><path fill="none" stroke="#191970" d="M1419.51,-354.78C1480.96,-347.8 1569.68,-333.88 1594,-310 1620.54,-283.94 1613,-265.69 1613,-228.5 1613,-228.5 1613,-228.5 1613,-154 1613,-65.09 1319.38,-31.89 1178.6,-21.09"/><polygon fill="#191970" stroke="#191970" points="1419.07 -351.31 1409.52 -355.88 1419.84 -358.27 1419.07 -351.31"/></g><g id="edge56" class="edge"><title>Node33-&gt;Node19</title><path fill="none" stroke="#191970" d="M1296.26,-355.85C1245.53,-350.15 1172.86,-337.57 1115,-310 1095.32,-300.63 1096.29,-289.14 1077,-279 1007.93,-242.69 779.92,-185.9 690.98,-164.52"/><polygon fill="#191970" stroke="#191970" points="1296.1 -359.35 1306.42 -356.93 1296.84 -352.39 1296.1 -359.35"/></g><g id="node34" class="node"><title>Node34</title><g id="a_node34"><a target="_top" xlink:href="Input_8cpp.html"><polygon fill="none" stroke="#000" points="1493 -285 1493 -304 1585 -304 1585 -285 1493 -285"/><text x="1539" y="-292" font-family="Helvetica,sans-Serif" font-size="10" text-anchor="middle">src/API/Input.cpp</text></a></g></g><g id="edge49" class="edge"><title>Node33-&gt;Node34</title><path fill="none" stroke="#191970" d="M1406.88,-342.95C1442.04,-330.32 1487.9,-313.85 1515.31,-304.01"/><polygon fill="#191970" stroke="#191970" points="1405.5 -339.72 1397.27 -346.4 1407.87 -346.31 1405.5 -339.72"/></g><g id="node35" class="node"><title>Node35</title><g id="a_node35"><a target="_top" xlink:href="Debug_8cpp.html"><polygon fill="none" stroke="#000" points="1641 -285 1641 -304 1751 -304 1751 -285 1641 -285"/><text x="1696" y="-292" font-family="Helvetica,sans-Serif" font-size="10" text-anchor="middle">src/Debug/Debug.cpp</text></a></g></g><g id="edge50" class="edge"><title>Node33-&gt;Node35</title><path fill="none" stroke="#191970" d="M1419.5,-349.34C1474.07,-339.35 1555.92,-324.14 1627,-310 1636.48,-308.11 1646.69,-306.01 1656.26,-304"/><polygon fill="#191970" stroke="#191970" points="1418.84 -345.91 1409.63 -351.15 1420.1 -352.79 1418.84 -345.91"/></g><g id="node36" class="node"><title>Node36</title><g id="a_node36"><a target="_top" xlink:href="InputFacade_8cpp.html"><polygon fill="none" stroke="#000" points="1769 -285 1769 -304 1909 -304 1909 -285 1769 -285"/><text x="1839" y="-292" font-family="Helvetica,sans-Serif" font-size="10" text-anchor="middle">src/Facade/InputFacade.cpp</text></a></g></g><g id="edge52" class="edge"><title>Node33-&gt;Node36</title><path fill="none" stroke="#191970" d="M1419.8,-353.84C1498.85,-345.06 1639.92,-328.55 1760,-310 1771.3,-308.25 1783.47,-306.14 1794.79,-304.07"/><polygon fill="#191970" stroke="#191970" points="1419.09 -350.39 1409.53 -354.97 1419.86 -357.35 1419.09 -350.39"/></g><g id="node37" class="node"><title>Node37</title><g id="a_node37"><a target="_top" xlink:href="TMXParser_8cpp.html"><polygon fill="none" stroke="#000" points="1124 -285 1124 -304 1260 -304 1260 -285 1124 -285"/><text x="1192" y="-292" font-family="Helvetica,sans-Serif" font-size="10" text-anchor="middle">src/Facade/TMXParser.cpp</text></a></g></g><g id="edge53" class="edge"><title>Node33-&gt;Node37</title><path fill="none" stroke="#191970" d="M1312.34,-342.62C1280.21,-330.04 1238.65,-313.77 1213.73,-304.01"/><polygon fill="#191970" stroke="#191970" points="1311.39 -346.01 1321.98 -346.4 1313.95 -339.49 1311.39 -346.01"/></g><g id="node38" class="node"><title>Node38</title><g id="a_node38"><a target="_top" xlink:href="LevelParser_8cpp.html"><polygon fill="none" stroke="#000" points="1278.5 -285 1278.5 -304 1437.5 -304 1437.5 -285 1278.5 -285"/><text x="1358" y="-292" font-family="Helvetica,sans-Serif" font-size="10" text-anchor="middle">src/LevelParser/LevelParser.cpp</text></a></g></g><g id="edge54" class="edge"><title>Node33-&gt;Node38</title><path fill="none" stroke="#191970" d="M1358,-336.25C1358,-325.02 1358,-312.38 1358,-304.19"/><polygon fill="#191970" stroke="#191970" points="1354.5 -336.4 1358 -346.4 1361.5 -336.4 1354.5 -336.4"/></g><g id="node39" class="node"><title>Node39</title><g id="a_node39"><a target="_top" xlink:href="NetworkingFacade_8hpp.html"><polygon fill="none" stroke="#000" points="1124 -212.5 1124 -242.5 1310 -242.5 1310 -212.5 1124 -212.5"/><text x="1132" y="-230.5" font-family="Helvetica,sans-Serif" font-size="10" text-anchor="start">includes/platformer</text><text x="1217" y="-219.5" font-family="Helvetica,sans-Serif" font-size="10" text-anchor="middle">-engine/Facade/NetworkingFacade.hpp</text></a></g></g><g id="edge58" class="edge"><title>Node33-&gt;Node39</title><path fill="none" stroke="#191970" d="M1411.48,-341.82C1425.5,-334.21 1438.93,-323.85 1447,-310 1453.93,-298.09 1455.63,-289.74 1447,-279 1429.61,-257.38 1365.99,-244.49 1310.06,-237.15"/><polygon fill="#191970" stroke="#191970" points="1409.61 -338.84 1402.23 -346.44 1412.74 -345.1 1409.61 -338.84"/></g><g id="edge64" class="edge"><title>Node39-&gt;Node31</title><path fill="none" stroke="#191970" d="M1133.94,-210.54C1074.44,-199.11 994.57,-183.77 934.7,-172.27"/><polygon fill="#191970" stroke="#191970" points="1133.57 -214.04 1144.05 -212.49 1134.89 -207.16 1133.57 -214.04"/></g><g id="node40" class="node"><title>Node40</title><g id="a_node40"><a target="_top" xlink:href="NetworkingFacade_8cpp.html"><polygon fill="none" stroke="#000" points="1133 -73 1133 -92 1301 -92 1301 -73 1133 -73"/><text x="1217" y="-80" font-family="Helvetica,sans-Serif" font-size="10" text-anchor="middle">src/Facade/NetworkingFacade.cpp</text></a></g></g><g id="edge59" class="edge"><title>Node39-&gt;Node40</title><path fill="none" stroke="#191970" d="M1217,-202.24C1217,-169.78 1217,-113.81 1217,-92.28"/><polygon fill="#191970" stroke="#191970" points="1213.5 -202.27 1217 -212.27 1220.5 -202.27 1213.5 -202.27"/></g><g id="node41" class="node"><title>Node41</title><g id="a_node41"><a target="_top" xlink:href="ClientNetworkManager_8hpp.html"><polygon fill="none" stroke="#000" points="1023.5 -134.5 1023.5 -175.5 1188.5 -175.5 1188.5 -134.5 1023.5 -134.5"/><text x="1031.5" y="-163.5" font-family="Helvetica,sans-Serif" font-size="10" text-anchor="start">includes/platformer</text><text x="1031.5" y="-152.5" font-family="Helvetica,sans-Serif" font-size="10" text-anchor="start">-engine/Networking/ClientNetwork</text><text x="1106" y="-141.5" font-family="Helvetica,sans-Serif" font-size="10" text-anchor="middle">Manager.hpp</text></a></g></g><g id="edge60" class="edge"><title>Node39-&gt;Node41</title><path fill="none" stroke="#191970" d="M1186.19,-206.93C1170.85,-197.19 1152.35,-185.44 1136.99,-175.68"/><polygon fill="#191970" stroke="#191970" points="1184.49 -210 1194.8 -212.4 1188.24 -204.09 1184.49 -210"/></g><g id="edge63" class="edge"><title>Node41-&gt;Node7</title><path fill="none" stroke="#191970" d="M1013.52,-136.28C948.18,-123.77 862.19,-107.29 803.77,-96.1"/><polygon fill="#191970" stroke="#191970" points="1012.93 -139.73 1023.41 -138.18 1014.25 -132.86 1012.93 -139.73"/></g><g id="edge62" class="edge"><title>Node41-&gt;Node9</title><path fill="none" stroke="#191970" d="M1105.78,-123.96C1105.57,-95.05 1105.26,-52.6 1105.1,-30.72"/><polygon fill="#191970" stroke="#191970" points="1102.28 -124.33 1105.86 -134.3 1109.28 -124.27 1102.28 -124.33"/></g><g id="edge61" class="edge"><title>Node41-&gt;Node40</title><path fill="none" stroke="#191970" d="M1145.63,-128.83C1165.8,-116.02 1189.01,-101.28 1203.34,-92.17"/><polygon fill="#191970" stroke="#191970" points="1143.48 -126.05 1136.92 -134.36 1147.24 -131.95 1143.48 -126.05"/></g></g></svg><g id="navigator" fill="#404254" transform="translate(0 0)"><rect width="60" height="60" x="0" y="0" fill="#f2f5e9" fill-opacity=".5" stroke="#606060" stroke-width=".5"/><use id="zoomplus" x="17" y="9" onmousedown="handleZoom(evt,'in')" xlink:href="#zoomPlus"/><use id="zoomminus" x="42" y="9" onmousedown="handleZoom(evt,'out')" xlink:href="#zoomMin"/><use id="reset" x="30" y="36" onmousedown="handleReset()" xlink:href="#resetDef"/><g id="arrowUp" onmousedown="handlePan(0,-1)" transform="translate(30 24)" xlink:href="#dirArrow"><use fill="#404040" xlink:href="#rim"><set attributeName="fill" begin="arrowUp.mouseover" end="arrowUp.mouseout" to="#808080"/></use><path fill="none" stroke="#fff" stroke-width="1.5" d="M0,-3.0v7 M-2.5,-0.5L0,-3.0L2.5,-0.5"/></g><g id="arrowRight" onmousedown="handlePan(1,0)" transform="rotate(90) translate(36 -43)" xlink:href="#dirArrow"><use fill="#404040" xlink:href="#rim"><set attributeName="fill" begin="arrowRight.mouseover" end="arrowRight.mouseout" to="#808080"/></use><path fill="none" stroke="#fff" stroke-width="1.5" d="M0,-3.0v7 M-2.5,-0.5L0,-3.0L2.5,-0.5"/></g><g id="arrowDown" onmousedown="handlePan(0,1)" transform="rotate(180) translate(-30 -48)" xlink:href="#dirArrow"><use fill="#404040" xlink:href="#rim"><set attributeName="fill" begin="arrowDown.mouseover" end="arrowDown.mouseout" to="#808080"/></use><path fill="none" stroke="#fff" stroke-width="1.5" d="M0,-3.0v7 M-2.5,-0.5L0,-3.0L2.5,-0.5"/></g><g id="arrowLeft" onmousedown="handlePan(-1,0)" transform="rotate(270) translate(-36 17)" xlink:href="#dirArrow"><use fill="#404040" xlink:href="#rim"><set attributeName="fill" begin="arrowLeft.mouseover" end="arrowLeft.mouseout" to="#808080"/></use><path fill="none" stroke="#fff" stroke-width="1.5" d="M0,-3.0v7 M-2.5,-0.5L0,-3.0L2.5,-0.5"/></g></g><svg width="100%" height="30" preserveAspectRatio="xMaxYMin meet" viewBox="0 0 15 15"><g id="arrow_out" transform="scale(0.3 0.3)"><a target="_base" xlink:href="Color_8hpp__dep__incl_org.svg"><rect id="button" width="38" height="38" x="6" y="6" fill="#f2f5e9" fill-opacity=".5" stroke="#606060" stroke-width="1" rx="5" ry="5"/><path id="arrow" d="M 11.500037,31.436501 C 11.940474,20.09759 22.043105,11.32322 32.158766,21.979434 L 37.068811,17.246167 C 37.068811,17.246167 37.088388,32 37.088388,32 L 22.160133,31.978069 C 22.160133,31.978069 26.997745,27.140456 26.997745,27.140456 C 18.528582,18.264221 13.291696,25.230495 11.500037,31.436501 z" style="fill:#404040"/></a></g></svg></svg>