<?xml version="1.0" encoding="UTF-8" standalone="no"?>
<!DOCTYPE svg PUBLIC "-//W3C//DTD SVG 1.1//EN"
 "http://www.w3.org/Graphics/SVG/1.1/DTD/svg11.dtd">
<!-- Generated by graphviz version 2.44.0 ()
 -->
<!-- Title: includes/spic&#45;prj&#45;api/Component.hpp Pages: 1 -->
<!--zoomable 441 -->
<svg id="main" version="1.1" xmlns="http://www.w3.org/2000/svg" xmlns:xlink="http://www.w3.org/1999/xlink" xml:space="preserve" onload="init(evt)">
<style type="text/css"><![CDATA[
.edge:hover path { stroke: red; }
.edge:hover polygon { stroke: red; fill: red; }
]]></style>
<script type="text/javascript"><![CDATA[
var edges = document.getElementsByTagName('g');
if (edges && edges.length) {
  for (var i=0;i<edges.length;i++) {
    if (edges[i].id.substr(0,4)=='edge') {
      edges[i].setAttribute('class','edge');
    }
  }
}
]]></script>
        <defs>
                <circle id="rim" cx="0" cy="0" r="7"/>
                <circle id="rim2" cx="0" cy="0" r="3.5"/>
                <g id="zoomPlus">
                        <use xlink:href="#rim" fill="#404040">
                                <set attributeName="fill" to="#808080" begin="zoomplus.mouseover" end="zoomplus.mouseout"/>
                        </use>
                        <path d="M-4,0h8M0,-4v8" fill="none" stroke="white" stroke-width="1.5" pointer-events="none"/>
                </g>
                <g id="zoomMin">
                        <use xlink:href="#rim" fill="#404040">
                                <set attributeName="fill" to="#808080" begin="zoomminus.mouseover" end="zoomminus.mouseout"/>
                        </use>
                        <path d="M-4,0h8" fill="none" stroke="white" stroke-width="1.5" pointer-events="none"/>
                </g>
                <g id="dirArrow">
                        <path fill="none" stroke="white" stroke-width="1.5" d="M0,-3.0v7 M-2.5,-0.5L0,-3.0L2.5,-0.5"/>
                </g>
               <g id="resetDef">
                       <use xlink:href="#rim2" fill="#404040">
                               <set attributeName="fill" to="#808080" begin="reset.mouseover" end="reset.mouseout"/>
                       </use>
               </g>
        </defs>

<script type="text/javascript">
var viewWidth = 1784;
var viewHeight = 441;
var sectionId = 'dynsection-1';
</script>
<script xlink:href="svgpan.js"/>
<svg id="graph" class="graph">
<g id="viewport">
<title>includes/spic&#45;prj&#45;api/Component.hpp</title>
<!-- Node1 -->
<g id="node1" class="node">
<title>Node1</title>
<g id="a_node1"><a xlink:title=" ">
<polygon fill="#bfbfbf" stroke="black" points="240,-402.5 240,-432.5 343,-432.5 343,-402.5 240,-402.5"/>
<text text-anchor="start" x="248" y="-420.5" font-family="Helvetica,sans-Serif" font-size="10.00">includes/spic&#45;prj&#45;api</text>
<text text-anchor="middle" x="291.5" y="-409.5" font-family="Helvetica,sans-Serif" font-size="10.00">/Component.hpp</text>
</a>
</g>
</g>
<!-- Node2 -->
<g id="node2" class="node">
<title>Node2</title>
<g id="a_node2"><a xlink:href="Animator_8hpp.html" target="_top" xlink:title=" ">
<polygon fill="none" stroke="black" points="40,-263 40,-293 143,-293 143,-263 40,-263"/>
<text text-anchor="start" x="48" y="-281" font-family="Helvetica,sans-Serif" font-size="10.00">includes/spic&#45;prj&#45;api</text>
<text text-anchor="middle" x="91.5" y="-270" font-family="Helvetica,sans-Serif" font-size="10.00">/Animator.hpp</text>
</a>
</g>
</g>
<!-- Node1&#45;&gt;Node2 -->
<g id="edge1" class="edge">
<title>Node1&#45;&gt;Node2</title>
<path fill="none" stroke="midnightblue" d="M229.82,-403.51C203.47,-395.77 173.55,-383.87 150.5,-366 124.97,-346.21 106.54,-312.2 97.59,-293.09"/>
<polygon fill="midnightblue" stroke="midnightblue" points="229.15,-406.96 239.72,-406.28 231.03,-400.21 229.15,-406.96"/>
</g>
<!-- Node3 -->
<g id="node3" class="node">
<title>Node3</title>
<g id="a_node3"><a xlink:href="AudioSource_8hpp.html" target="_top" xlink:title=" ">
<polygon fill="none" stroke="black" points="160,-335.5 160,-365.5 263,-365.5 263,-335.5 160,-335.5"/>
<text text-anchor="start" x="168" y="-353.5" font-family="Helvetica,sans-Serif" font-size="10.00">includes/spic&#45;prj&#45;api</text>
<text text-anchor="middle" x="211.5" y="-342.5" font-family="Helvetica,sans-Serif" font-size="10.00">/AudioSource.hpp</text>
</a>
</g>
</g>
<!-- Node1&#45;&gt;Node3 -->
<g id="edge2" class="edge">
<title>Node1&#45;&gt;Node3</title>
<path fill="none" stroke="midnightblue" d="M266.13,-395.88C253.97,-386.01 239.72,-374.43 228.82,-365.58"/>
<polygon fill="midnightblue" stroke="midnightblue" points="264.17,-398.81 274.14,-402.4 268.59,-393.37 264.17,-398.81"/>
</g>
<!-- Node4 -->
<g id="node4" class="node">
<title>Node4</title>
<g id="a_node4"><a xlink:href="BehaviourScript_8hpp.html" target="_top" xlink:title=" ">
<polygon fill="none" stroke="black" points="320,-190.5 320,-220.5 427,-220.5 427,-190.5 320,-190.5"/>
<text text-anchor="start" x="328" y="-208.5" font-family="Helvetica,sans-Serif" font-size="10.00">includes/spic&#45;prj&#45;api</text>
<text text-anchor="middle" x="373.5" y="-197.5" font-family="Helvetica,sans-Serif" font-size="10.00">/BehaviourScript.hpp</text>
</a>
</g>
</g>
<!-- Node1&#45;&gt;Node4 -->
<g id="edge3" class="edge">
<title>Node1&#45;&gt;Node4</title>
<path fill="none" stroke="midnightblue" d="M296.15,-392.08C302.83,-360 316.76,-302.42 338.5,-257 344.76,-243.91 354.25,-230.48 361.77,-220.76"/>
<polygon fill="midnightblue" stroke="midnightblue" points="292.64,-391.8 294.1,-402.3 299.5,-393.18 292.64,-391.8"/>
</g>
<!-- Node6 -->
<g id="node6" class="node">
<title>Node6</title>
<g id="a_node6"><a xlink:href="Collider_8hpp.html" target="_top" xlink:title=" ">
<polygon fill="none" stroke="black" points="429,-335.5 429,-365.5 532,-365.5 532,-335.5 429,-335.5"/>
<text text-anchor="start" x="437" y="-353.5" font-family="Helvetica,sans-Serif" font-size="10.00">includes/spic&#45;prj&#45;api</text>
<text text-anchor="middle" x="480.5" y="-342.5" font-family="Helvetica,sans-Serif" font-size="10.00">/Collider.hpp</text>
</a>
</g>
</g>
<!-- Node1&#45;&gt;Node6 -->
<g id="edge5" class="edge">
<title>Node1&#45;&gt;Node6</title>
<path fill="none" stroke="midnightblue" d="M342.12,-399.09C372.63,-388.6 410.98,-375.41 439.57,-365.58"/>
<polygon fill="midnightblue" stroke="midnightblue" points="340.83,-395.83 332.51,-402.4 343.1,-402.45 340.83,-395.83"/>
</g>
<!-- Node14 -->
<g id="node14" class="node">
<title>Node14</title>
<g id="a_node14"><a xlink:href="GameObject_8hpp.html" target="_top" xlink:title=" ">
<polygon fill="none" stroke="black" points="952,-335.5 952,-365.5 1055,-365.5 1055,-335.5 952,-335.5"/>
<text text-anchor="start" x="960" y="-353.5" font-family="Helvetica,sans-Serif" font-size="10.00">includes/spic&#45;prj&#45;api</text>
<text text-anchor="middle" x="1003.5" y="-342.5" font-family="Helvetica,sans-Serif" font-size="10.00">/GameObject.hpp</text>
</a>
</g>
</g>
<!-- Node1&#45;&gt;Node14 -->
<g id="edge18" class="edge">
<title>Node1&#45;&gt;Node14</title>
<path fill="none" stroke="midnightblue" d="M353.29,-410.86C491.56,-398.24 823.81,-367.9 951.92,-356.21"/>
<polygon fill="midnightblue" stroke="midnightblue" points="352.92,-407.38 343.28,-411.77 353.56,-414.35 352.92,-407.38"/>
</g>
<!-- Node31 -->
<g id="node31" class="node">
<title>Node31</title>
<g id="a_node31"><a xlink:href="RigidBody_8hpp.html" target="_top" xlink:title=" ">
<polygon fill="none" stroke="black" points="673,-335.5 673,-365.5 776,-365.5 776,-335.5 673,-335.5"/>
<text text-anchor="start" x="681" y="-353.5" font-family="Helvetica,sans-Serif" font-size="10.00">includes/spic&#45;prj&#45;api</text>
<text text-anchor="middle" x="724.5" y="-342.5" font-family="Helvetica,sans-Serif" font-size="10.00">/RigidBody.hpp</text>
</a>
</g>
</g>
<!-- Node1&#45;&gt;Node31 -->
<g id="edge42" class="edge">
<title>Node1&#45;&gt;Node31</title>
<path fill="none" stroke="midnightblue" d="M353.43,-407.2C439.31,-394.31 593.01,-371.24 672.98,-359.23"/>
<polygon fill="midnightblue" stroke="midnightblue" points="352.67,-403.78 343.3,-408.72 353.71,-410.7 352.67,-403.78"/>
</g>
<!-- Node32 -->
<g id="node32" class="node">
<title>Node32</title>
<g id="a_node32"><a xlink:href="Sprite_8hpp.html" target="_top" xlink:title=" ">
<polygon fill="none" stroke="black" points="0,-335.5 0,-365.5 103,-365.5 103,-335.5 0,-335.5"/>
<text text-anchor="start" x="8" y="-353.5" font-family="Helvetica,sans-Serif" font-size="10.00">includes/spic&#45;prj&#45;api</text>
<text text-anchor="middle" x="51.5" y="-342.5" font-family="Helvetica,sans-Serif" font-size="10.00">/Sprite.hpp</text>
</a>
</g>
</g>
<!-- Node1&#45;&gt;Node32 -->
<g id="edge44" class="edge">
<title>Node1&#45;&gt;Node32</title>
<path fill="none" stroke="midnightblue" d="M229.99,-399.84C190.72,-389.21 140.39,-375.57 103.19,-365.5"/>
<polygon fill="midnightblue" stroke="midnightblue" points="229.15,-403.24 239.72,-402.48 230.98,-396.48 229.15,-403.24"/>
</g>
<!-- Node5 -->
<g id="node5" class="node">
<title>Node5</title>
<g id="a_node5"><a xlink:href="PhysicsSystem_8cpp.html" target="_top" xlink:title=" ">
<polygon fill="none" stroke="black" points="707.5,-129 707.5,-148 863.5,-148 863.5,-129 707.5,-129"/>
<text text-anchor="middle" x="785.5" y="-136" font-family="Helvetica,sans-Serif" font-size="10.00">src/Physics/PhysicsSystem.cpp</text>
</a>
</g>
</g>
<!-- Node4&#45;&gt;Node5 -->
<g id="edge4" class="edge">
<title>Node4&#45;&gt;Node5</title>
<path fill="none" stroke="midnightblue" d="M437.39,-194.42C518.08,-181.69 655.5,-160.01 731.3,-148.05"/>
<polygon fill="midnightblue" stroke="midnightblue" points="436.69,-190.99 427.36,-196 437.79,-197.9 436.69,-190.99"/>
</g>
<!-- Node6&#45;&gt;Node4 -->
<g id="edge14" class="edge">
<title>Node6&#45;&gt;Node4</title>
<path fill="none" stroke="midnightblue" d="M418.92,-341.54C392.67,-334.76 364.47,-322.21 348.5,-299 331.81,-274.74 350.15,-239.81 363.06,-220.56"/>
<polygon fill="midnightblue" stroke="midnightblue" points="418.32,-345 428.85,-343.87 419.92,-338.18 418.32,-345"/>
</g>
<!-- Node7 -->
<g id="node7" class="node">
<title>Node7</title>
<g id="a_node7"><a xlink:href="Collision_8hpp.html" target="_top" xlink:title=" ">
<polygon fill="none" stroke="black" points="479,-263 479,-293 622,-293 622,-263 479,-263"/>
<text text-anchor="start" x="487" y="-281" font-family="Helvetica,sans-Serif" font-size="10.00">includes/platformer</text>
<text text-anchor="middle" x="550.5" y="-270" font-family="Helvetica,sans-Serif" font-size="10.00">&#45;engine/Physics/Collision.hpp</text>
</a>
</g>
</g>
<!-- Node6&#45;&gt;Node7 -->
<g id="edge6" class="edge">
<title>Node6&#45;&gt;Node7</title>
<path fill="none" stroke="midnightblue" d="M501.98,-327.86C513.15,-316.61 526.49,-303.18 536.36,-293.25"/>
<polygon fill="midnightblue" stroke="midnightblue" points="499.23,-325.67 494.67,-335.23 504.2,-330.6 499.23,-325.67"/>
</g>
<!-- Node9 -->
<g id="node9" class="node">
<title>Node9</title>
<g id="a_node9"><a xlink:href="PhysicsSystem_8hpp.html" target="_top" xlink:title=" ">
<polygon fill="none" stroke="black" points="638.5,-190.5 638.5,-220.5 812.5,-220.5 812.5,-190.5 638.5,-190.5"/>
<text text-anchor="start" x="646.5" y="-208.5" font-family="Helvetica,sans-Serif" font-size="10.00">includes/platformer</text>
<text text-anchor="middle" x="725.5" y="-197.5" font-family="Helvetica,sans-Serif" font-size="10.00">&#45;engine/Physics/PhysicsSystem.hpp</text>
</a>
</g>
</g>
<!-- Node6&#45;&gt;Node9 -->
<g id="edge13" class="edge">
<title>Node6&#45;&gt;Node9</title>
<path fill="none" stroke="midnightblue" d="M542.43,-346.85C614.04,-342.34 725.45,-330.36 751.5,-299 770.48,-276.16 750.49,-240.36 736.56,-220.67"/>
<polygon fill="midnightblue" stroke="midnightblue" points="541.94,-343.38 532.17,-347.47 542.36,-350.36 541.94,-343.38"/>
</g>
<!-- Node12 -->
<g id="node12" class="node">
<title>Node12</title>
<g id="a_node12"><a xlink:href="BoxCollider_8hpp.html" target="_top" xlink:title=" ">
<polygon fill="none" stroke="black" points="640,-263 640,-293 743,-293 743,-263 640,-263"/>
<text text-anchor="start" x="648" y="-281" font-family="Helvetica,sans-Serif" font-size="10.00">includes/spic&#45;prj&#45;api</text>
<text text-anchor="middle" x="691.5" y="-270" font-family="Helvetica,sans-Serif" font-size="10.00">/BoxCollider.hpp</text>
</a>
</g>
</g>
<!-- Node6&#45;&gt;Node12 -->
<g id="edge15" class="edge">
<title>Node6&#45;&gt;Node12</title>
<path fill="none" stroke="midnightblue" d="M532.26,-332.2C568.24,-320.18 615.59,-304.36 649.28,-293.11"/>
<polygon fill="midnightblue" stroke="midnightblue" points="530.81,-329 522.44,-335.49 533.03,-335.64 530.81,-329"/>
</g>
<!-- Node13 -->
<g id="node13" class="node">
<title>Node13</title>
<g id="a_node13"><a xlink:href="CircleCollider_8hpp.html" target="_top" xlink:title=" ">
<polygon fill="none" stroke="black" points="358,-263 358,-293 461,-293 461,-263 358,-263"/>
<text text-anchor="start" x="366" y="-281" font-family="Helvetica,sans-Serif" font-size="10.00">includes/spic&#45;prj&#45;api</text>
<text text-anchor="middle" x="409.5" y="-270" font-family="Helvetica,sans-Serif" font-size="10.00">/CircleCollider.hpp</text>
</a>
</g>
</g>
<!-- Node6&#45;&gt;Node13 -->
<g id="edge17" class="edge">
<title>Node6&#45;&gt;Node13</title>
<path fill="none" stroke="midnightblue" d="M458.71,-327.86C447.38,-316.61 433.85,-303.18 423.85,-293.25"/>
<polygon fill="midnightblue" stroke="midnightblue" points="456.57,-330.67 466.13,-335.23 461.5,-325.7 456.57,-330.67"/>
</g>
<!-- Node7&#45;&gt;Node4 -->
<g id="edge12" class="edge">
<title>Node7&#45;&gt;Node4</title>
<path fill="none" stroke="midnightblue" d="M505.7,-259.15C475.67,-247.19 436.67,-231.66 408.83,-220.57"/>
<polygon fill="midnightblue" stroke="midnightblue" points="504.52,-262.45 515.11,-262.9 507.11,-255.95 504.52,-262.45"/>
</g>
<!-- Node8 -->
<g id="node8" class="node">
<title>Node8</title>
<g id="a_node8"><a xlink:href="Collision_8cpp.html" target="_top" xlink:title=" ">
<polygon fill="none" stroke="black" points="488,-196 488,-215 613,-215 613,-196 488,-196"/>
<text text-anchor="middle" x="550.5" y="-203" font-family="Helvetica,sans-Serif" font-size="10.00">src/Physics/Collision.cpp</text>
</a>
</g>
</g>
<!-- Node7&#45;&gt;Node8 -->
<g id="edge7" class="edge">
<title>Node7&#45;&gt;Node8</title>
<path fill="none" stroke="midnightblue" d="M550.5,-252.59C550.5,-239.71 550.5,-224.7 550.5,-215.39"/>
<polygon fill="midnightblue" stroke="midnightblue" points="547,-252.73 550.5,-262.73 554,-252.73 547,-252.73"/>
</g>
<!-- Node7&#45;&gt;Node9 -->
<g id="edge8" class="edge">
<title>Node7&#45;&gt;Node9</title>
<path fill="none" stroke="midnightblue" d="M594.8,-259.15C624.49,-247.19 663.04,-231.66 690.57,-220.57"/>
<polygon fill="midnightblue" stroke="midnightblue" points="593.46,-255.92 585.49,-262.9 596.08,-262.41 593.46,-255.92"/>
</g>
<!-- Node9&#45;&gt;Node5 -->
<g id="edge9" class="edge">
<title>Node9&#45;&gt;Node5</title>
<path fill="none" stroke="midnightblue" d="M745.35,-183C756.3,-171.13 769.3,-157.05 777.47,-148.19"/>
<polygon fill="midnightblue" stroke="midnightblue" points="742.73,-180.67 738.52,-190.4 747.87,-185.42 742.73,-180.67"/>
</g>
<!-- Node10 -->
<g id="node10" class="node">
<title>Node10</title>
<g id="a_node10"><a xlink:href="Engine_8hpp.html" target="_top" xlink:title=" ">
<polygon fill="none" stroke="black" points="1086,-56.5 1086,-86.5 1217,-86.5 1217,-56.5 1086,-56.5"/>
<text text-anchor="start" x="1094" y="-74.5" font-family="Helvetica,sans-Serif" font-size="10.00">includes/platformer</text>
<text text-anchor="middle" x="1151.5" y="-63.5" font-family="Helvetica,sans-Serif" font-size="10.00">&#45;engine/Engine/Engine.hpp</text>
</a>
</g>
</g>
<!-- Node9&#45;&gt;Node10 -->
<g id="edge10" class="edge">
<title>Node9&#45;&gt;Node10</title>
<path fill="none" stroke="midnightblue" d="M707.42,-182.22C695.17,-164.3 683.67,-139.47 698.5,-123 724.14,-94.52 1003.45,-91.5 1041.5,-87 1055.85,-85.3 1071.23,-83.35 1085.81,-81.45"/>
<polygon fill="midnightblue" stroke="midnightblue" points="704.66,-184.38 713.38,-190.4 710.32,-180.25 704.66,-184.38"/>
</g>
<!-- Node11 -->
<g id="node11" class="node">
<title>Node11</title>
<g id="a_node11"><a xlink:href="Engine_8cpp.html" target="_top" xlink:title=" ">
<polygon fill="none" stroke="black" points="1095,-0.5 1095,-19.5 1208,-19.5 1208,-0.5 1095,-0.5"/>
<text text-anchor="middle" x="1151.5" y="-7.5" font-family="Helvetica,sans-Serif" font-size="10.00">src/Engine/Engine.cpp</text>
</a>
</g>
</g>
<!-- Node10&#45;&gt;Node11 -->
<g id="edge11" class="edge">
<title>Node10&#45;&gt;Node11</title>
<path fill="none" stroke="midnightblue" d="M1151.5,-46.29C1151.5,-36.86 1151.5,-26.65 1151.5,-19.66"/>
<polygon fill="midnightblue" stroke="midnightblue" points="1148,-46.4 1151.5,-56.4 1155,-46.4 1148,-46.4"/>
</g>
<!-- Node12&#45;&gt;Node9 -->
<g id="edge16" class="edge">
<title>Node12&#45;&gt;Node9</title>
<path fill="none" stroke="midnightblue" d="M702.88,-253.4C708.1,-242.58 714.12,-230.11 718.63,-220.75"/>
<polygon fill="midnightblue" stroke="midnightblue" points="699.57,-252.21 698.38,-262.73 705.88,-255.25 699.57,-252.21"/>
</g>
<!-- Node14&#45;&gt;Node5 -->
<g id="edge20" class="edge">
<title>Node14&#45;&gt;Node5</title>
<path fill="none" stroke="midnightblue" d="M970.84,-329.9C957.43,-321.18 942.13,-310.34 929.5,-299 882.12,-256.46 879.83,-236.67 836.5,-190 822.43,-174.84 805.16,-158.11 794.76,-148.22"/>
<polygon fill="midnightblue" stroke="midnightblue" points="969.01,-332.88 979.33,-335.3 972.77,-326.98 969.01,-332.88"/>
</g>
<!-- Node14&#45;&gt;Node9 -->
<g id="edge25" class="edge">
<title>Node14&#45;&gt;Node9</title>
<path fill="none" stroke="midnightblue" d="M950.85,-332.08C926.25,-323.26 896.86,-311.73 871.5,-299 824.03,-275.18 772.41,-240.08 745.07,-220.68"/>
<polygon fill="midnightblue" stroke="midnightblue" points="949.77,-335.42 960.37,-335.45 952.11,-328.82 949.77,-335.42"/>
</g>
<!-- Node15 -->
<g id="node15" class="node">
<title>Node15</title>
<g id="a_node15"><a xlink:href="GameObject_8cpp.html" target="_top" xlink:title=" ">
<polygon fill="none" stroke="black" points="1112,-268.5 1112,-287.5 1237,-287.5 1237,-268.5 1112,-268.5"/>
<text text-anchor="middle" x="1174.5" y="-275.5" font-family="Helvetica,sans-Serif" font-size="10.00">src/API/GameObject.cpp</text>
</a>
</g>
</g>
<!-- Node14&#45;&gt;Node15 -->
<g id="edge19" class="edge">
<title>Node14&#45;&gt;Node15</title>
<path fill="none" stroke="midnightblue" d="M1047.01,-331.56C1081.25,-317.44 1127.45,-298.4 1153.8,-287.53"/>
<polygon fill="midnightblue" stroke="midnightblue" points="1045.6,-328.36 1037.69,-335.4 1048.27,-334.83 1045.6,-328.36"/>
</g>
<!-- Node16 -->
<g id="node16" class="node">
<title>Node16</title>
<g id="a_node16"><a xlink:href="GameObjectBuilder_8hpp.html" target="_top" xlink:title=" ">
<polygon fill="none" stroke="black" points="1255,-257.5 1255,-298.5 1394,-298.5 1394,-257.5 1255,-257.5"/>
<text text-anchor="start" x="1263" y="-286.5" font-family="Helvetica,sans-Serif" font-size="10.00">includes/platformer</text>
<text text-anchor="start" x="1263" y="-275.5" font-family="Helvetica,sans-Serif" font-size="10.00">&#45;engine/Builder/GameObject</text>
<text text-anchor="middle" x="1324.5" y="-264.5" font-family="Helvetica,sans-Serif" font-size="10.00">Builder.hpp</text>
</a>
</g>
</g>
<!-- Node14&#45;&gt;Node16 -->
<g id="edge21" class="edge">
<title>Node14&#45;&gt;Node16</title>
<path fill="none" stroke="midnightblue" d="M1065.18,-337.5C1114.4,-327.72 1185.04,-313.26 1246.5,-299 1249.22,-298.37 1252,-297.71 1254.8,-297.04"/>
<polygon fill="midnightblue" stroke="midnightblue" points="1064.45,-334.07 1055.32,-339.45 1065.81,-340.94 1064.45,-334.07"/>
</g>
<!-- Node18 -->
<g id="node18" class="node">
<title>Node18</title>
<g id="a_node18"><a xlink:href="SceneBuilder_8hpp.html" target="_top" xlink:title=" ">
<polygon fill="none" stroke="black" points="881.5,-123.5 881.5,-153.5 1041.5,-153.5 1041.5,-123.5 881.5,-123.5"/>
<text text-anchor="start" x="889.5" y="-141.5" font-family="Helvetica,sans-Serif" font-size="10.00">includes/platformer</text>
<text text-anchor="middle" x="961.5" y="-130.5" font-family="Helvetica,sans-Serif" font-size="10.00">&#45;engine/Builder/SceneBuilder.hpp</text>
</a>
</g>
</g>
<!-- Node14&#45;&gt;Node18 -->
<g id="edge23" class="edge">
<title>Node14&#45;&gt;Node18</title>
<path fill="none" stroke="midnightblue" d="M969.78,-329.51C959.37,-321.46 949.17,-311.18 943.5,-299 920.45,-249.48 943.25,-182.29 955.2,-153.52"/>
<polygon fill="midnightblue" stroke="midnightblue" points="967.92,-332.49 978.09,-335.48 972.01,-326.81 967.92,-332.49"/>
</g>
<!-- Node20 -->
<g id="node20" class="node">
<title>Node20</title>
<g id="a_node20"><a xlink:href="Camera_8hpp.html" target="_top" xlink:title=" ">
<polygon fill="none" stroke="black" points="952,-263 952,-293 1055,-293 1055,-263 952,-263"/>
<text text-anchor="start" x="960" y="-281" font-family="Helvetica,sans-Serif" font-size="10.00">includes/spic&#45;prj&#45;api</text>
<text text-anchor="middle" x="1003.5" y="-270" font-family="Helvetica,sans-Serif" font-size="10.00">/Camera.hpp</text>
</a>
</g>
</g>
<!-- Node14&#45;&gt;Node20 -->
<g id="edge26" class="edge">
<title>Node14&#45;&gt;Node20</title>
<path fill="none" stroke="midnightblue" d="M1003.5,-325.23C1003.5,-314.57 1003.5,-302.41 1003.5,-293.25"/>
<polygon fill="midnightblue" stroke="midnightblue" points="1000,-325.23 1003.5,-335.23 1007,-325.23 1000,-325.23"/>
</g>
<!-- Node22 -->
<g id="node22" class="node">
<title>Node22</title>
<g id="a_node22"><a xlink:href="Scene_8hpp.html" target="_top" xlink:title=" ">
<polygon fill="none" stroke="black" points="1112,-190.5 1112,-220.5 1215,-220.5 1215,-190.5 1112,-190.5"/>
<text text-anchor="start" x="1120" y="-208.5" font-family="Helvetica,sans-Serif" font-size="10.00">includes/spic&#45;prj&#45;api</text>
<text text-anchor="middle" x="1163.5" y="-197.5" font-family="Helvetica,sans-Serif" font-size="10.00">/Scene.hpp</text>
</a>
</g>
</g>
<!-- Node14&#45;&gt;Node22 -->
<g id="edge37" class="edge">
<title>Node14&#45;&gt;Node22</title>
<path fill="none" stroke="midnightblue" d="M1029.91,-328.89C1040.89,-320.01 1053.59,-309.31 1064.5,-299 1083.02,-281.51 1085.05,-274.57 1103.5,-257 1117.11,-244.04 1133.48,-230.38 1145.68,-220.54"/>
<polygon fill="midnightblue" stroke="midnightblue" points="1027.53,-326.31 1021.91,-335.29 1031.91,-331.78 1027.53,-326.31"/>
</g>
<!-- Node27 -->
<g id="node27" class="node">
<title>Node27</title>
<g id="a_node27"><a xlink:href="UIObject_8hpp.html" target="_top" xlink:title=" ">
<polygon fill="none" stroke="black" points="1490,-263 1490,-293 1593,-293 1593,-263 1490,-263"/>
<text text-anchor="start" x="1498" y="-281" font-family="Helvetica,sans-Serif" font-size="10.00">includes/spic&#45;prj&#45;api</text>
<text text-anchor="middle" x="1541.5" y="-270" font-family="Helvetica,sans-Serif" font-size="10.00">/UIObject.hpp</text>
</a>
</g>
</g>
<!-- Node14&#45;&gt;Node27 -->
<g id="edge38" class="edge">
<title>Node14&#45;&gt;Node27</title>
<path fill="none" stroke="midnightblue" d="M1065.21,-342.07C1143.82,-332.51 1283.85,-315.22 1403.5,-299 1432.05,-295.13 1463.87,-290.54 1489.76,-286.73"/>
<polygon fill="midnightblue" stroke="midnightblue" points="1064.51,-338.62 1055,-343.3 1065.35,-345.57 1064.51,-338.62"/>
</g>
<!-- Node17 -->
<g id="node17" class="node">
<title>Node17</title>
<g id="a_node17"><a xlink:href="GameObjectBuilder_8cpp.html" target="_top" xlink:title=" ">
<polygon fill="none" stroke="black" points="1236,-196 1236,-215 1405,-215 1405,-196 1236,-196"/>
<text text-anchor="middle" x="1320.5" y="-203" font-family="Helvetica,sans-Serif" font-size="10.00">src/Builder/GameObjectBuilder.cpp</text>
</a>
</g>
</g>
<!-- Node16&#45;&gt;Node17 -->
<g id="edge22" class="edge">
<title>Node16&#45;&gt;Node17</title>
<path fill="none" stroke="midnightblue" d="M1322.8,-247.1C1322.15,-235.53 1321.45,-223.18 1320.99,-215.17"/>
<polygon fill="midnightblue" stroke="midnightblue" points="1319.32,-247.58 1323.39,-257.36 1326.31,-247.18 1319.32,-247.58"/>
</g>
<!-- Node19 -->
<g id="node19" class="node">
<title>Node19</title>
<g id="a_node19"><a xlink:href="SceneBuilder_8cpp.html" target="_top" xlink:title=" ">
<polygon fill="none" stroke="black" points="890.5,-62 890.5,-81 1032.5,-81 1032.5,-62 890.5,-62"/>
<text text-anchor="middle" x="961.5" y="-69" font-family="Helvetica,sans-Serif" font-size="10.00">src/Builder/SceneBuilder.cpp</text>
</a>
</g>
</g>
<!-- Node18&#45;&gt;Node19 -->
<g id="edge24" class="edge">
<title>Node18&#45;&gt;Node19</title>
<path fill="none" stroke="midnightblue" d="M961.5,-113.25C961.5,-102.02 961.5,-89.38 961.5,-81.19"/>
<polygon fill="midnightblue" stroke="midnightblue" points="958,-113.4 961.5,-123.4 965,-113.4 958,-113.4"/>
</g>
<!-- Node20&#45;&gt;Node18 -->
<g id="edge28" class="edge">
<title>Node20&#45;&gt;Node18</title>
<path fill="none" stroke="midnightblue" d="M992.97,-253.74C988.72,-243.79 984,-231.96 980.5,-221 973.07,-197.75 967.21,-169.92 964.06,-153.53"/>
<polygon fill="midnightblue" stroke="midnightblue" points="989.79,-255.2 997,-262.96 996.2,-252.4 989.79,-255.2"/>
</g>
<!-- Node21 -->
<g id="node21" class="node">
<title>Node21</title>
<g id="a_node21"><a xlink:href="Camera_8cpp.html" target="_top" xlink:title=" ">
<polygon fill="none" stroke="black" points="989.5,-196 989.5,-215 1093.5,-215 1093.5,-196 989.5,-196"/>
<text text-anchor="middle" x="1041.5" y="-203" font-family="Helvetica,sans-Serif" font-size="10.00">src/API/Camera.cpp</text>
</a>
</g>
</g>
<!-- Node20&#45;&gt;Node21 -->
<g id="edge27" class="edge">
<title>Node20&#45;&gt;Node21</title>
<path fill="none" stroke="midnightblue" d="M1016.03,-253.74C1023.11,-240.62 1031.54,-224.98 1036.71,-215.39"/>
<polygon fill="midnightblue" stroke="midnightblue" points="1012.85,-252.27 1011.19,-262.73 1019.02,-255.59 1012.85,-252.27"/>
</g>
<!-- Node20&#45;&gt;Node22 -->
<g id="edge29" class="edge">
<title>Node20&#45;&gt;Node22</title>
<path fill="none" stroke="midnightblue" d="M1044.71,-258.84C1071.76,-246.92 1106.61,-231.57 1131.56,-220.57"/>
<polygon fill="midnightblue" stroke="midnightblue" points="1043.23,-255.67 1035.49,-262.9 1046.06,-262.07 1043.23,-255.67"/>
</g>
<!-- Node22&#45;&gt;Node10 -->
<g id="edge32" class="edge">
<title>Node22&#45;&gt;Node10</title>
<path fill="none" stroke="midnightblue" d="M1173.32,-180.43C1178.66,-164.11 1183.29,-142.12 1178.5,-123 1175.21,-109.88 1167.8,-96.45 1161.57,-86.74"/>
<polygon fill="midnightblue" stroke="midnightblue" points="1169.88,-179.65 1169.8,-190.25 1176.47,-182.02 1169.88,-179.65"/>
</g>
<!-- Node22&#45;&gt;Node18 -->
<g id="edge31" class="edge">
<title>Node22&#45;&gt;Node18</title>
<path fill="none" stroke="midnightblue" d="M1109.82,-187.23C1077.15,-176.71 1035.93,-163.45 1005.25,-153.58"/>
<polygon fill="midnightblue" stroke="midnightblue" points="1109.08,-190.66 1119.67,-190.4 1111.22,-184 1109.08,-190.66"/>
</g>
<!-- Node23 -->
<g id="node23" class="node">
<title>Node23</title>
<g id="a_node23"><a xlink:href="Scene_8cpp.html" target="_top" xlink:title=" ">
<polygon fill="none" stroke="black" points="1059.5,-129 1059.5,-148 1169.5,-148 1169.5,-129 1059.5,-129"/>
<text text-anchor="middle" x="1114.5" y="-136" font-family="Helvetica,sans-Serif" font-size="10.00">src/Scene/Scene.cpp</text>
</a>
</g>
</g>
<!-- Node22&#45;&gt;Node23 -->
<g id="edge30" class="edge">
<title>Node22&#45;&gt;Node23</title>
<path fill="none" stroke="midnightblue" d="M1146.78,-182.32C1137.94,-170.6 1127.6,-156.88 1121.05,-148.19"/>
<polygon fill="midnightblue" stroke="midnightblue" points="1144.05,-184.52 1152.87,-190.4 1149.64,-180.3 1144.05,-184.52"/>
</g>
<!-- Node24 -->
<g id="node24" class="node">
<title>Node24</title>
<g id="a_node24"><a xlink:href="Window_8hpp.html" target="_top" xlink:title=" ">
<polygon fill="none" stroke="black" points="1226,-123.5 1226,-153.5 1363,-153.5 1363,-123.5 1226,-123.5"/>
<text text-anchor="start" x="1234" y="-141.5" font-family="Helvetica,sans-Serif" font-size="10.00">includes/platformer</text>
<text text-anchor="middle" x="1294.5" y="-130.5" font-family="Helvetica,sans-Serif" font-size="10.00">&#45;engine/Render/Window.hpp</text>
</a>
</g>
</g>
<!-- Node22&#45;&gt;Node24 -->
<g id="edge33" class="edge">
<title>Node22&#45;&gt;Node24</title>
<path fill="none" stroke="midnightblue" d="M1201.08,-185.85C1221.79,-175.58 1247.09,-163.03 1266.13,-153.58"/>
<polygon fill="midnightblue" stroke="midnightblue" points="1199.33,-182.82 1191.93,-190.4 1202.44,-189.09 1199.33,-182.82"/>
</g>
<!-- Node24&#45;&gt;Node10 -->
<g id="edge36" class="edge">
<title>Node24&#45;&gt;Node10</title>
<path fill="none" stroke="midnightblue" d="M1254.09,-119.13C1231.37,-108.8 1203.44,-96.11 1182.47,-86.58"/>
<polygon fill="midnightblue" stroke="midnightblue" points="1252.92,-122.44 1263.47,-123.4 1255.82,-116.07 1252.92,-122.44"/>
</g>
<!-- Node25 -->
<g id="node25" class="node">
<title>Node25</title>
<g id="a_node25"><a xlink:href="Window_8cpp.html" target="_top" xlink:title=" ">
<polygon fill="none" stroke="black" points="1235,-62 1235,-81 1354,-81 1354,-62 1235,-62"/>
<text text-anchor="middle" x="1294.5" y="-69" font-family="Helvetica,sans-Serif" font-size="10.00">src/Render/Window.cpp</text>
</a>
</g>
</g>
<!-- Node24&#45;&gt;Node25 -->
<g id="edge34" class="edge">
<title>Node24&#45;&gt;Node25</title>
<path fill="none" stroke="midnightblue" d="M1294.5,-113.25C1294.5,-102.02 1294.5,-89.38 1294.5,-81.19"/>
<polygon fill="midnightblue" stroke="midnightblue" points="1291,-113.4 1294.5,-123.4 1298,-113.4 1291,-113.4"/>
</g>
<!-- Node26 -->
<g id="node26" class="node">
<title>Node26</title>
<g id="a_node26"><a xlink:href="Timer_8cpp.html" target="_top" xlink:title=" ">
<polygon fill="none" stroke="black" points="1372.5,-62 1372.5,-81 1476.5,-81 1476.5,-62 1372.5,-62"/>
<text text-anchor="middle" x="1424.5" y="-69" font-family="Helvetica,sans-Serif" font-size="10.00">src/Timer/Timer.cpp</text>
</a>
</g>
</g>
<!-- Node24&#45;&gt;Node26 -->
<g id="edge35" class="edge">
<title>Node24&#45;&gt;Node26</title>
<path fill="none" stroke="midnightblue" d="M1331.89,-118.8C1356.82,-106.34 1388.39,-90.56 1407.49,-81.01"/>
<polygon fill="midnightblue" stroke="midnightblue" points="1330.09,-115.79 1322.71,-123.4 1333.22,-122.05 1330.09,-115.79"/>
</g>
<!-- Node28 -->
<g id="node28" class="node">
<title>Node28</title>
<g id="a_node28"><a xlink:href="UIObject_8cpp.html" target="_top" xlink:title=" ">
<polygon fill="none" stroke="black" points="1423.5,-196 1423.5,-215 1533.5,-215 1533.5,-196 1423.5,-196"/>
<text text-anchor="middle" x="1478.5" y="-203" font-family="Helvetica,sans-Serif" font-size="10.00">src/API/UIObject.cpp</text>
</a>
</g>
</g>
<!-- Node27&#45;&gt;Node28 -->
<g id="edge39" class="edge">
<title>Node27&#45;&gt;Node28</title>
<path fill="none" stroke="midnightblue" d="M1522.07,-255.26C1510.08,-241.84 1495.34,-225.35 1486.45,-215.39"/>
<polygon fill="midnightblue" stroke="midnightblue" points="1519.48,-257.61 1528.75,-262.73 1524.7,-252.94 1519.48,-257.61"/>
</g>
<!-- Node29 -->
<g id="node29" class="node">
<title>Node29</title>
<g id="a_node29"><a xlink:href="Button_8hpp.html" target="_top" xlink:title=" ">
<polygon fill="none" stroke="black" points="1552,-190.5 1552,-220.5 1655,-220.5 1655,-190.5 1552,-190.5"/>
<text text-anchor="start" x="1560" y="-208.5" font-family="Helvetica,sans-Serif" font-size="10.00">includes/spic&#45;prj&#45;api</text>
<text text-anchor="middle" x="1603.5" y="-197.5" font-family="Helvetica,sans-Serif" font-size="10.00">/Button.hpp</text>
</a>
</g>
</g>
<!-- Node27&#45;&gt;Node29 -->
<g id="edge40" class="edge">
<title>Node27&#45;&gt;Node29</title>
<path fill="none" stroke="midnightblue" d="M1560.81,-255.04C1570.65,-243.86 1582.32,-230.58 1590.97,-220.75"/>
<polygon fill="midnightblue" stroke="midnightblue" points="1558.02,-252.91 1554.05,-262.73 1563.28,-257.54 1558.02,-252.91"/>
</g>
<!-- Node30 -->
<g id="node30" class="node">
<title>Node30</title>
<g id="a_node30"><a xlink:href="Text_8hpp.html" target="_top" xlink:title=" ">
<polygon fill="none" stroke="black" points="1673,-190.5 1673,-220.5 1776,-220.5 1776,-190.5 1673,-190.5"/>
<text text-anchor="start" x="1681" y="-208.5" font-family="Helvetica,sans-Serif" font-size="10.00">includes/spic&#45;prj&#45;api</text>
<text text-anchor="middle" x="1724.5" y="-197.5" font-family="Helvetica,sans-Serif" font-size="10.00">/Text.hpp</text>
</a>
</g>
</g>
<!-- Node27&#45;&gt;Node30 -->
<g id="edge41" class="edge">
<title>Node27&#45;&gt;Node30</title>
<path fill="none" stroke="midnightblue" d="M1587.82,-259.15C1618.87,-247.19 1659.19,-231.66 1687.97,-220.57"/>
<polygon fill="midnightblue" stroke="midnightblue" points="1586.17,-256.04 1578.09,-262.9 1588.68,-262.57 1586.17,-256.04"/>
</g>
<!-- Node31&#45;&gt;Node5 -->
<g id="edge43" class="edge">
<title>Node31&#45;&gt;Node5</title>
<path fill="none" stroke="midnightblue" d="M748.23,-328.35C772.44,-304.94 808.27,-264.69 821.5,-221 825.49,-207.81 825.7,-203.12 821.5,-190 816.18,-173.39 803.18,-157.58 794.35,-148.21"/>
<polygon fill="midnightblue" stroke="midnightblue" points="745.69,-325.93 740.82,-335.34 750.5,-331.02 745.69,-325.93"/>
</g>
<!-- Node32&#45;&gt;Node2 -->
<g id="edge45" class="edge">
<title>Node32&#45;&gt;Node2</title>
<path fill="none" stroke="midnightblue" d="M64.7,-326.23C70.89,-315.33 78.05,-302.7 83.42,-293.25"/>
<polygon fill="midnightblue" stroke="midnightblue" points="61.49,-324.81 59.59,-335.23 67.57,-328.26 61.49,-324.81"/>
</g>
</g>
</svg>
        <g id="navigator" transform="translate(0 0)" fill="#404254">
                <rect fill="#f2f5e9" fill-opacity="0.5" stroke="#606060" stroke-width=".5" x="0" y="0" width="60" height="60"/>
                <use id="zoomplus" xlink:href="#zoomPlus" x="17" y="9" onmousedown="handleZoom(evt,'in')"/>
                <use id="zoomminus" xlink:href="#zoomMin" x="42" y="9" onmousedown="handleZoom(evt,'out')"/>
                <use id="reset" xlink:href="#resetDef" x="30" y="36" onmousedown="handleReset()"/>
                <g id="arrowUp" xlink:href="#dirArrow" transform="translate(30 24)" onmousedown="handlePan(0,-1)">
                  <use xlink:href="#rim" fill="#404040">
                        <set attributeName="fill" to="#808080" begin="arrowUp.mouseover" end="arrowUp.mouseout"/>
                  </use>
                  <path fill="none" stroke="white" stroke-width="1.5" d="M0,-3.0v7 M-2.5,-0.5L0,-3.0L2.5,-0.5"/>
                </g>
                <g id="arrowRight" xlink:href="#dirArrow" transform="rotate(90) translate(36 -43)" onmousedown="handlePan(1,0)">
                  <use xlink:href="#rim" fill="#404040">
                        <set attributeName="fill" to="#808080" begin="arrowRight.mouseover" end="arrowRight.mouseout"/>
                  </use>
                  <path fill="none" stroke="white" stroke-width="1.5" d="M0,-3.0v7 M-2.5,-0.5L0,-3.0L2.5,-0.5"/>
                </g>
                <g id="arrowDown" xlink:href="#dirArrow" transform="rotate(180) translate(-30 -48)" onmousedown="handlePan(0,1)">
                  <use xlink:href="#rim" fill="#404040">
                        <set attributeName="fill" to="#808080" begin="arrowDown.mouseover" end="arrowDown.mouseout"/>
                  </use>
                  <path fill="none" stroke="white" stroke-width="1.5" d="M0,-3.0v7 M-2.5,-0.5L0,-3.0L2.5,-0.5"/>
                </g>
                <g id="arrowLeft" xlink:href="#dirArrow" transform="rotate(270) translate(-36 17)" onmousedown="handlePan(-1,0)">
                  <use xlink:href="#rim" fill="#404040">
                        <set attributeName="fill" to="#808080" begin="arrowLeft.mouseover" end="arrowLeft.mouseout"/>
                  </use>
                  <path fill="none" stroke="white" stroke-width="1.5" d="M0,-3.0v7 M-2.5,-0.5L0,-3.0L2.5,-0.5"/>
                </g>
        </g>
        <svg viewBox="0 0 15 15" width="100%" height="30px" preserveAspectRatio="xMaxYMin meet">
         <g id="arrow_out" transform="scale(0.3 0.3)">
          <a xlink:href="Component_8hpp__dep__incl_org.svg" target="_base">
           <rect id="button" ry="5" rx="5" y="6" x="6" height="38" width="38"
                fill="#f2f5e9" fill-opacity="0.5" stroke="#606060" stroke-width="1.0"/>
           <path id="arrow"
             d="M 11.500037,31.436501 C 11.940474,20.09759 22.043105,11.32322 32.158766,21.979434 L 37.068811,17.246167 C 37.068811,17.246167 37.088388,32 37.088388,32 L 22.160133,31.978069 C 22.160133,31.978069 26.997745,27.140456 26.997745,27.140456 C 18.528582,18.264221 13.291696,25.230495 11.500037,31.436501 z"
             style="fill:#404040;"/>
          </a>
         </g>
        </svg>
</svg>
