<?xml version="1.0" encoding="UTF-8" standalone="no"?>
<!DOCTYPE svg PUBLIC "-//W3C//DTD SVG 1.1//EN"
 "http://www.w3.org/Graphics/SVG/1.1/DTD/svg11.dtd">
<!-- Generated by graphviz version 2.44.0 ()
 -->
<!-- Title: includes/spic&#45;prj&#45;api/Component.hpp Pages: 1 -->
<!--zoomable 642 -->
<svg id="main" version="1.1" xmlns="http://www.w3.org/2000/svg" xmlns:xlink="http://www.w3.org/1999/xlink" xml:space="preserve" onload="init(evt)">
<style type="text/css"><![CDATA[
.edge:hover path { stroke: red; }
.edge:hover polygon { stroke: red; fill: red; }
]]></style>
<script type="text/javascript"><![CDATA[
var edges = document.getElementsByTagName('g');
if (edges && edges.length) {
  for (var i=0;i<edges.length;i++) {
    if (edges[i].id.substr(0,4)=='edge') {
      edges[i].setAttribute('class','edge');
    }
  }
}
]]></script>
        <defs>
                <circle id="rim" cx="0" cy="0" r="7"/>
                <circle id="rim2" cx="0" cy="0" r="3.5"/>
                <g id="zoomPlus">
                        <use xlink:href="#rim" fill="#404040">
                                <set attributeName="fill" to="#808080" begin="zoomplus.mouseover" end="zoomplus.mouseout"/>
                        </use>
                        <path d="M-4,0h8M0,-4v8" fill="none" stroke="white" stroke-width="1.5" pointer-events="none"/>
                </g>
                <g id="zoomMin">
                        <use xlink:href="#rim" fill="#404040">
                                <set attributeName="fill" to="#808080" begin="zoomminus.mouseover" end="zoomminus.mouseout"/>
                        </use>
                        <path d="M-4,0h8" fill="none" stroke="white" stroke-width="1.5" pointer-events="none"/>
                </g>
                <g id="dirArrow">
                        <path fill="none" stroke="white" stroke-width="1.5" d="M0,-3.0v7 M-2.5,-0.5L0,-3.0L2.5,-0.5"/>
                </g>
               <g id="resetDef">
                       <use xlink:href="#rim2" fill="#404040">
                               <set attributeName="fill" to="#808080" begin="reset.mouseover" end="reset.mouseout"/>
                       </use>
               </g>
        </defs>

<script type="text/javascript">
var viewWidth = 1737;
var viewHeight = 642;
var sectionId = 'dynsection-1';
</script>
<script xlink:href="svgpan.js"/>
<svg id="graph" class="graph">
<g id="viewport">
<title>includes/spic&#45;prj&#45;api/Component.hpp</title>
<!-- Node1 -->
<g id="node1" class="node">
<title>Node1</title>
<g id="a_node1"><a xlink:title=" ">
<polygon fill="#bfbfbf" stroke="black" points="440,-603.5 440,-633.5 543,-633.5 543,-603.5 440,-603.5"/>
<text text-anchor="start" x="448" y="-621.5" font-family="Helvetica,sans-Serif" font-size="10.00">includes/spic&#45;prj&#45;api</text>
<text text-anchor="middle" x="491.5" y="-610.5" font-family="Helvetica,sans-Serif" font-size="10.00">/Component.hpp</text>
</a>
</g>
</g>
<!-- Node2 -->
<g id="node2" class="node">
<title>Node2</title>
<g id="a_node2"><a xlink:href="Animator_8hpp.html" target="_top" xlink:title=" ">
<polygon fill="none" stroke="black" points="1211,-201.5 1211,-231.5 1314,-231.5 1314,-201.5 1211,-201.5"/>
<text text-anchor="start" x="1219" y="-219.5" font-family="Helvetica,sans-Serif" font-size="10.00">includes/spic&#45;prj&#45;api</text>
<text text-anchor="middle" x="1262.5" y="-208.5" font-family="Helvetica,sans-Serif" font-size="10.00">/Animator.hpp</text>
</a>
</g>
</g>
<!-- Node1&#45;&gt;Node2 -->
<g id="edge1" class="edge">
<title>Node1&#45;&gt;Node2</title>
<path fill="none" stroke="midnightblue" d="M553.26,-617.32C760.43,-615.19 1424.03,-595.61 1538.5,-433 1602.17,-342.55 1536.53,-416.82 1365.5,-299 1333.76,-277.14 1299.04,-248.62 1279.11,-231.77"/>
<polygon fill="midnightblue" stroke="midnightblue" points="553.13,-613.82 543.17,-617.41 553.2,-620.82 553.13,-613.82"/>
</g>
<!-- Node11 -->
<g id="node11" class="node">
<title>Node11</title>
<g id="a_node11"><a xlink:href="AudioSource_8hpp.html" target="_top" xlink:title=" ">
<polygon fill="none" stroke="black" points="121,-536.5 121,-566.5 224,-566.5 224,-536.5 121,-536.5"/>
<text text-anchor="start" x="129" y="-554.5" font-family="Helvetica,sans-Serif" font-size="10.00">includes/spic&#45;prj&#45;api</text>
<text text-anchor="middle" x="172.5" y="-543.5" font-family="Helvetica,sans-Serif" font-size="10.00">/AudioSource.hpp</text>
</a>
</g>
</g>
<!-- Node1&#45;&gt;Node11 -->
<g id="edge11" class="edge">
<title>Node1&#45;&gt;Node11</title>
<path fill="none" stroke="midnightblue" d="M429.66,-605.5C378.4,-595.47 303.64,-580.66 238.5,-567 233.79,-566.01 228.9,-564.97 224,-563.92"/>
<polygon fill="midnightblue" stroke="midnightblue" points="429.11,-608.96 439.59,-607.44 430.45,-602.09 429.11,-608.96"/>
</g>
<!-- Node12 -->
<g id="node12" class="node">
<title>Node12</title>
<g id="a_node12"><a xlink:href="BehaviourScript_8hpp.html" target="_top" xlink:title=" ">
<polygon fill="none" stroke="black" points="197,-402.5 197,-432.5 304,-432.5 304,-402.5 197,-402.5"/>
<text text-anchor="start" x="205" y="-420.5" font-family="Helvetica,sans-Serif" font-size="10.00">includes/spic&#45;prj&#45;api</text>
<text text-anchor="middle" x="250.5" y="-409.5" font-family="Helvetica,sans-Serif" font-size="10.00">/BehaviourScript.hpp</text>
</a>
</g>
</g>
<!-- Node1&#45;&gt;Node12 -->
<g id="edge12" class="edge">
<title>Node1&#45;&gt;Node12</title>
<path fill="none" stroke="midnightblue" d="M429.74,-606.45C372.16,-592.51 289.48,-562.37 250.5,-500 237.68,-479.48 241.98,-450.01 246.26,-432.7"/>
<polygon fill="midnightblue" stroke="midnightblue" points="429.29,-609.94 439.82,-608.79 430.87,-603.12 429.29,-609.94"/>
</g>
<!-- Node14 -->
<g id="node14" class="node">
<title>Node14</title>
<g id="a_node14"><a xlink:href="Collider_8hpp.html" target="_top" xlink:title=" ">
<polygon fill="none" stroke="black" points="440,-536.5 440,-566.5 543,-566.5 543,-536.5 440,-536.5"/>
<text text-anchor="start" x="448" y="-554.5" font-family="Helvetica,sans-Serif" font-size="10.00">includes/spic&#45;prj&#45;api</text>
<text text-anchor="middle" x="491.5" y="-543.5" font-family="Helvetica,sans-Serif" font-size="10.00">/Collider.hpp</text>
</a>
</g>
</g>
<!-- Node1&#45;&gt;Node14 -->
<g id="edge14" class="edge">
<title>Node1&#45;&gt;Node14</title>
<path fill="none" stroke="midnightblue" d="M491.5,-593.11C491.5,-584.15 491.5,-574.32 491.5,-566.58"/>
<polygon fill="midnightblue" stroke="midnightblue" points="488,-593.4 491.5,-603.4 495,-593.4 488,-593.4"/>
</g>
<!-- Node20 -->
<g id="node20" class="node">
<title>Node20</title>
<g id="a_node20"><a xlink:href="GameObject_8hpp.html" target="_top" xlink:title=" ">
<polygon fill="none" stroke="black" points="839,-536.5 839,-566.5 942,-566.5 942,-536.5 839,-536.5"/>
<text text-anchor="start" x="847" y="-554.5" font-family="Helvetica,sans-Serif" font-size="10.00">includes/spic&#45;prj&#45;api</text>
<text text-anchor="middle" x="890.5" y="-543.5" font-family="Helvetica,sans-Serif" font-size="10.00">/GameObject.hpp</text>
</a>
</g>
</g>
<!-- Node1&#45;&gt;Node20 -->
<g id="edge26" class="edge">
<title>Node1&#45;&gt;Node20</title>
<path fill="none" stroke="midnightblue" d="M553.48,-607.4C631.92,-594.62 765.64,-572.84 838.84,-560.92"/>
<polygon fill="midnightblue" stroke="midnightblue" points="552.56,-604.01 543.25,-609.07 553.69,-610.92 552.56,-604.01"/>
</g>
<!-- Node37 -->
<g id="node37" class="node">
<title>Node37</title>
<g id="a_node37"><a xlink:href="RigidBody_8hpp.html" target="_top" xlink:title=" ">
<polygon fill="none" stroke="black" points="0,-536.5 0,-566.5 103,-566.5 103,-536.5 0,-536.5"/>
<text text-anchor="start" x="8" y="-554.5" font-family="Helvetica,sans-Serif" font-size="10.00">includes/spic&#45;prj&#45;api</text>
<text text-anchor="middle" x="51.5" y="-543.5" font-family="Helvetica,sans-Serif" font-size="10.00">/RigidBody.hpp</text>
</a>
</g>
</g>
<!-- Node1&#45;&gt;Node37 -->
<g id="edge56" class="edge">
<title>Node1&#45;&gt;Node37</title>
<path fill="none" stroke="midnightblue" d="M429.64,-611.3C354.17,-603.27 222.87,-587.8 111.5,-567 108.76,-566.49 105.96,-565.93 103.14,-565.34"/>
<polygon fill="midnightblue" stroke="midnightblue" points="429.59,-614.81 439.91,-612.38 430.33,-607.85 429.59,-614.81"/>
</g>
<!-- Node38 -->
<g id="node38" class="node">
<title>Node38</title>
<g id="a_node38"><a xlink:href="Sprite_8hpp.html" target="_top" xlink:title=" ">
<polygon fill="none" stroke="black" points="1527,-335.5 1527,-365.5 1630,-365.5 1630,-335.5 1527,-335.5"/>
<text text-anchor="start" x="1535" y="-353.5" font-family="Helvetica,sans-Serif" font-size="10.00">includes/spic&#45;prj&#45;api</text>
<text text-anchor="middle" x="1578.5" y="-342.5" font-family="Helvetica,sans-Serif" font-size="10.00">/Sprite.hpp</text>
</a>
</g>
</g>
<!-- Node1&#45;&gt;Node38 -->
<g id="edge58" class="edge">
<title>Node1&#45;&gt;Node38</title>
<path fill="none" stroke="midnightblue" d="M553.33,-616.9C777.4,-614.44 1535.58,-603.43 1571.5,-567 1626.16,-511.55 1596.62,-403.94 1583.62,-365.54"/>
<polygon fill="midnightblue" stroke="midnightblue" points="553.03,-613.4 543.07,-617.01 553.11,-620.4 553.03,-613.4"/>
</g>
<!-- Node3 -->
<g id="node3" class="node">
<title>Node3</title>
<g id="a_node3"><a xlink:href="Animator_8cpp.html" target="_top" xlink:title=" ">
<polygon fill="none" stroke="black" points="1284.5,-134.5 1284.5,-153.5 1394.5,-153.5 1394.5,-134.5 1284.5,-134.5"/>
<text text-anchor="middle" x="1339.5" y="-141.5" font-family="Helvetica,sans-Serif" font-size="10.00">src/API/Animator.cpp</text>
</a>
</g>
</g>
<!-- Node2&#45;&gt;Node3 -->
<g id="edge2" class="edge">
<title>Node2&#45;&gt;Node3</title>
<path fill="none" stroke="midnightblue" d="M1285.83,-194.14C1300.56,-180.65 1318.81,-163.94 1329.79,-153.89"/>
<polygon fill="midnightblue" stroke="midnightblue" points="1283.09,-191.9 1278.08,-201.23 1287.82,-197.06 1283.09,-191.9"/>
</g>
<!-- Node4 -->
<g id="node4" class="node">
<title>Node4</title>
<g id="a_node4"><a xlink:href="Scene_8cpp.html" target="_top" xlink:title=" ">
<polygon fill="none" stroke="black" points="970.5,-134.5 970.5,-153.5 1080.5,-153.5 1080.5,-134.5 970.5,-134.5"/>
<text text-anchor="middle" x="1025.5" y="-141.5" font-family="Helvetica,sans-Serif" font-size="10.00">src/Scene/Scene.cpp</text>
</a>
</g>
</g>
<!-- Node2&#45;&gt;Node4 -->
<g id="edge3" class="edge">
<title>Node2&#45;&gt;Node4</title>
<path fill="none" stroke="midnightblue" d="M1203.94,-198.7C1170.39,-189.01 1127.53,-176.49 1089.5,-165 1077.35,-161.33 1063.95,-157.16 1052.56,-153.58"/>
<polygon fill="midnightblue" stroke="midnightblue" points="1203.01,-202.08 1213.58,-201.49 1204.95,-195.35 1203.01,-202.08"/>
</g>
<!-- Node5 -->
<g id="node5" class="node">
<title>Node5</title>
<g id="a_node5"><a xlink:href="GameObjectBuilder_8hpp.html" target="_top" xlink:title=" ">
<polygon fill="none" stroke="black" points="1498,-123.5 1498,-164.5 1637,-164.5 1637,-123.5 1498,-123.5"/>
<text text-anchor="start" x="1506" y="-152.5" font-family="Helvetica,sans-Serif" font-size="10.00">includes/platformer</text>
<text text-anchor="start" x="1506" y="-141.5" font-family="Helvetica,sans-Serif" font-size="10.00">&#45;engine/Builder/GameObject</text>
<text text-anchor="middle" x="1567.5" y="-130.5" font-family="Helvetica,sans-Serif" font-size="10.00">Builder.hpp</text>
</a>
</g>
</g>
<!-- Node2&#45;&gt;Node5 -->
<g id="edge4" class="edge">
<title>Node2&#45;&gt;Node5</title>
<path fill="none" stroke="midnightblue" d="M1324.06,-200.65C1388.05,-185.63 1451.09,-171.26 1497.75,-160.7"/>
<polygon fill="midnightblue" stroke="midnightblue" points="1323.14,-197.27 1314.2,-202.96 1324.74,-204.08 1323.14,-197.27"/>
</g>
<!-- Node7 -->
<g id="node7" class="node">
<title>Node7</title>
<g id="a_node7"><a xlink:href="RenderSystem_8hpp.html" target="_top" xlink:title=" ">
<polygon fill="none" stroke="black" points="1098.5,-129 1098.5,-159 1266.5,-159 1266.5,-129 1098.5,-129"/>
<text text-anchor="start" x="1106.5" y="-147" font-family="Helvetica,sans-Serif" font-size="10.00">includes/platformer</text>
<text text-anchor="middle" x="1182.5" y="-136" font-family="Helvetica,sans-Serif" font-size="10.00">&#45;engine/Texture/RenderSystem.hpp</text>
</a>
</g>
</g>
<!-- Node2&#45;&gt;Node7 -->
<g id="edge6" class="edge">
<title>Node2&#45;&gt;Node7</title>
<path fill="none" stroke="midnightblue" d="M1238.63,-194.46C1225.63,-183 1209.89,-169.14 1198.39,-159"/>
<polygon fill="midnightblue" stroke="midnightblue" points="1236.49,-197.25 1246.31,-201.23 1241.12,-192 1236.49,-197.25"/>
</g>
<!-- Node6 -->
<g id="node6" class="node">
<title>Node6</title>
<g id="a_node6"><a xlink:href="GameObjectBuilder_8cpp.html" target="_top" xlink:title=" ">
<polygon fill="none" stroke="black" points="1483,-62 1483,-81 1652,-81 1652,-62 1483,-62"/>
<text text-anchor="middle" x="1567.5" y="-69" font-family="Helvetica,sans-Serif" font-size="10.00">src/Builder/GameObjectBuilder.cpp</text>
</a>
</g>
</g>
<!-- Node5&#45;&gt;Node6 -->
<g id="edge5" class="edge">
<title>Node5&#45;&gt;Node6</title>
<path fill="none" stroke="midnightblue" d="M1567.5,-113.1C1567.5,-101.53 1567.5,-89.18 1567.5,-81.17"/>
<polygon fill="midnightblue" stroke="midnightblue" points="1564,-113.36 1567.5,-123.36 1571,-113.36 1564,-113.36"/>
</g>
<!-- Node8 -->
<g id="node8" class="node">
<title>Node8</title>
<g id="a_node8"><a xlink:href="RenderSystem_8cpp.html" target="_top" xlink:title=" ">
<polygon fill="none" stroke="black" points="968.5,-0.5 968.5,-19.5 1118.5,-19.5 1118.5,-0.5 968.5,-0.5"/>
<text text-anchor="middle" x="1043.5" y="-7.5" font-family="Helvetica,sans-Serif" font-size="10.00">src/Texture/RenderSystem.cpp</text>
</a>
</g>
</g>
<!-- Node7&#45;&gt;Node8 -->
<g id="edge7" class="edge">
<title>Node7&#45;&gt;Node8</title>
<path fill="none" stroke="midnightblue" d="M1160.28,-121.89C1129.2,-92.38 1074.15,-40.11 1052.55,-19.6"/>
<polygon fill="midnightblue" stroke="midnightblue" points="1157.96,-124.53 1167.62,-128.87 1162.78,-119.45 1157.96,-124.53"/>
</g>
<!-- Node9 -->
<g id="node9" class="node">
<title>Node9</title>
<g id="a_node9"><a xlink:href="Engine_8hpp.html" target="_top" xlink:title=" ">
<polygon fill="none" stroke="black" points="781,-56.5 781,-86.5 912,-86.5 912,-56.5 781,-56.5"/>
<text text-anchor="start" x="789" y="-74.5" font-family="Helvetica,sans-Serif" font-size="10.00">includes/platformer</text>
<text text-anchor="middle" x="846.5" y="-63.5" font-family="Helvetica,sans-Serif" font-size="10.00">&#45;engine/Engine/Engine.hpp</text>
</a>
</g>
</g>
<!-- Node7&#45;&gt;Node9 -->
<g id="edge8" class="edge">
<title>Node7&#45;&gt;Node9</title>
<path fill="none" stroke="midnightblue" d="M1107.32,-126.79C1101.29,-125.5 1095.3,-124.23 1089.5,-123 1029.43,-110.3 960.94,-96.09 912.02,-85.99"/>
<polygon fill="midnightblue" stroke="midnightblue" points="1106.96,-130.29 1117.47,-128.96 1108.42,-123.44 1106.96,-130.29"/>
</g>
<!-- Node9&#45;&gt;Node8 -->
<g id="edge10" class="edge">
<title>Node9&#45;&gt;Node8</title>
<path fill="none" stroke="midnightblue" d="M902.78,-53.5C939.5,-42.41 985.88,-28.4 1015.12,-19.57"/>
<polygon fill="midnightblue" stroke="midnightblue" points="901.75,-50.16 893.19,-56.4 903.77,-56.86 901.75,-50.16"/>
</g>
<!-- Node10 -->
<g id="node10" class="node">
<title>Node10</title>
<g id="a_node10"><a xlink:href="Engine_8cpp.html" target="_top" xlink:title=" ">
<polygon fill="none" stroke="black" points="790,-0.5 790,-19.5 903,-19.5 903,-0.5 790,-0.5"/>
<text text-anchor="middle" x="846.5" y="-7.5" font-family="Helvetica,sans-Serif" font-size="10.00">src/Engine/Engine.cpp</text>
</a>
</g>
</g>
<!-- Node9&#45;&gt;Node10 -->
<g id="edge9" class="edge">
<title>Node9&#45;&gt;Node10</title>
<path fill="none" stroke="midnightblue" d="M846.5,-46.29C846.5,-36.86 846.5,-26.65 846.5,-19.66"/>
<polygon fill="midnightblue" stroke="midnightblue" points="843,-46.4 846.5,-56.4 850,-46.4 843,-46.4"/>
</g>
<!-- Node13 -->
<g id="node13" class="node">
<title>Node13</title>
<g id="a_node13"><a xlink:href="PhysicsSystem_8cpp.html" target="_top" xlink:title=" ">
<polygon fill="none" stroke="black" points="298.5,-341 298.5,-360 454.5,-360 454.5,-341 298.5,-341"/>
<text text-anchor="middle" x="376.5" y="-348" font-family="Helvetica,sans-Serif" font-size="10.00">src/Physics/PhysicsSystem.cpp</text>
</a>
</g>
</g>
<!-- Node12&#45;&gt;Node13 -->
<g id="edge13" class="edge">
<title>Node12&#45;&gt;Node13</title>
<path fill="none" stroke="midnightblue" d="M286.74,-397.8C310.9,-385.34 341.5,-369.56 360.01,-360.01"/>
<polygon fill="midnightblue" stroke="midnightblue" points="285.12,-394.7 277.84,-402.4 288.33,-400.92 285.12,-394.7"/>
</g>
<!-- Node14&#45;&gt;Node12 -->
<g id="edge22" class="edge">
<title>Node14&#45;&gt;Node12</title>
<path fill="none" stroke="midnightblue" d="M429.84,-543.82C372.22,-536.31 291.81,-522.19 269.5,-500 251.58,-482.17 249.24,-450.93 249.58,-432.74"/>
<polygon fill="midnightblue" stroke="midnightblue" points="429.6,-547.31 439.96,-545.1 430.47,-540.37 429.6,-547.31"/>
</g>
<!-- Node15 -->
<g id="node15" class="node">
<title>Node15</title>
<g id="a_node15"><a xlink:href="Collision_8hpp.html" target="_top" xlink:title=" ">
<polygon fill="none" stroke="black" points="279,-469.5 279,-499.5 422,-499.5 422,-469.5 279,-469.5"/>
<text text-anchor="start" x="287" y="-487.5" font-family="Helvetica,sans-Serif" font-size="10.00">includes/platformer</text>
<text text-anchor="middle" x="350.5" y="-476.5" font-family="Helvetica,sans-Serif" font-size="10.00">&#45;engine/Physics/Collision.hpp</text>
</a>
</g>
</g>
<!-- Node14&#45;&gt;Node15 -->
<g id="edge15" class="edge">
<title>Node14&#45;&gt;Node15</title>
<path fill="none" stroke="midnightblue" d="M451.65,-532.13C429.25,-521.8 401.72,-509.11 381.04,-499.58"/>
<polygon fill="midnightblue" stroke="midnightblue" points="450.36,-535.39 460.91,-536.4 453.29,-529.03 450.36,-535.39"/>
</g>
<!-- Node17 -->
<g id="node17" class="node">
<title>Node17</title>
<g id="a_node17"><a xlink:href="PhysicsSystem_8hpp.html" target="_top" xlink:title=" ">
<polygon fill="none" stroke="black" points="525.5,-402.5 525.5,-432.5 699.5,-432.5 699.5,-402.5 525.5,-402.5"/>
<text text-anchor="start" x="533.5" y="-420.5" font-family="Helvetica,sans-Serif" font-size="10.00">includes/platformer</text>
<text text-anchor="middle" x="612.5" y="-409.5" font-family="Helvetica,sans-Serif" font-size="10.00">&#45;engine/Physics/PhysicsSystem.hpp</text>
</a>
</g>
</g>
<!-- Node14&#45;&gt;Node17 -->
<g id="edge21" class="edge">
<title>Node14&#45;&gt;Node17</title>
<path fill="none" stroke="midnightblue" d="M553.04,-541.41C599.58,-533.13 657.89,-519.25 672.5,-500 690.24,-476.63 659.3,-449.07 635.65,-432.73"/>
<polygon fill="midnightblue" stroke="midnightblue" points="552.27,-537.99 543.01,-543.14 553.46,-544.89 552.27,-537.99"/>
</g>
<!-- Node18 -->
<g id="node18" class="node">
<title>Node18</title>
<g id="a_node18"><a xlink:href="BoxCollider_8hpp.html" target="_top" xlink:title=" ">
<polygon fill="none" stroke="black" points="561,-469.5 561,-499.5 664,-499.5 664,-469.5 561,-469.5"/>
<text text-anchor="start" x="569" y="-487.5" font-family="Helvetica,sans-Serif" font-size="10.00">includes/spic&#45;prj&#45;api</text>
<text text-anchor="middle" x="612.5" y="-476.5" font-family="Helvetica,sans-Serif" font-size="10.00">/BoxCollider.hpp</text>
</a>
</g>
</g>
<!-- Node14&#45;&gt;Node18 -->
<g id="edge23" class="edge">
<title>Node14&#45;&gt;Node18</title>
<path fill="none" stroke="midnightblue" d="M526.73,-531.57C545.76,-521.35 568.87,-508.94 586.3,-499.58"/>
<polygon fill="midnightblue" stroke="midnightblue" points="524.91,-528.58 517.76,-536.4 528.22,-534.75 524.91,-528.58"/>
</g>
<!-- Node19 -->
<g id="node19" class="node">
<title>Node19</title>
<g id="a_node19"><a xlink:href="CircleCollider_8hpp.html" target="_top" xlink:title=" ">
<polygon fill="none" stroke="black" points="440,-469.5 440,-499.5 543,-499.5 543,-469.5 440,-469.5"/>
<text text-anchor="start" x="448" y="-487.5" font-family="Helvetica,sans-Serif" font-size="10.00">includes/spic&#45;prj&#45;api</text>
<text text-anchor="middle" x="491.5" y="-476.5" font-family="Helvetica,sans-Serif" font-size="10.00">/CircleCollider.hpp</text>
</a>
</g>
</g>
<!-- Node14&#45;&gt;Node19 -->
<g id="edge25" class="edge">
<title>Node14&#45;&gt;Node19</title>
<path fill="none" stroke="midnightblue" d="M491.5,-526.11C491.5,-517.15 491.5,-507.32 491.5,-499.58"/>
<polygon fill="midnightblue" stroke="midnightblue" points="488,-526.4 491.5,-536.4 495,-526.4 488,-526.4"/>
</g>
<!-- Node15&#45;&gt;Node12 -->
<g id="edge20" class="edge">
<title>Node15&#45;&gt;Node12</title>
<path fill="none" stroke="midnightblue" d="M320.09,-463.73C304.62,-453.68 286.17,-441.68 272.16,-432.58"/>
<polygon fill="midnightblue" stroke="midnightblue" points="318.51,-466.88 328.8,-469.4 322.32,-461.01 318.51,-466.88"/>
</g>
<!-- Node16 -->
<g id="node16" class="node">
<title>Node16</title>
<g id="a_node16"><a xlink:href="Collision_8cpp.html" target="_top" xlink:title=" ">
<polygon fill="none" stroke="black" points="322,-408 322,-427 447,-427 447,-408 322,-408"/>
<text text-anchor="middle" x="384.5" y="-415" font-family="Helvetica,sans-Serif" font-size="10.00">src/Physics/Collision.cpp</text>
</a>
</g>
</g>
<!-- Node15&#45;&gt;Node16 -->
<g id="edge16" class="edge">
<title>Node15&#45;&gt;Node16</title>
<path fill="none" stroke="midnightblue" d="M362.64,-460.29C368.65,-448.8 375.54,-435.63 379.95,-427.19"/>
<polygon fill="midnightblue" stroke="midnightblue" points="359.41,-458.91 357.88,-469.4 365.61,-462.16 359.41,-458.91"/>
</g>
<!-- Node15&#45;&gt;Node17 -->
<g id="edge17" class="edge">
<title>Node15&#45;&gt;Node17</title>
<path fill="none" stroke="midnightblue" d="M416.8,-467.05C459.63,-456.43 514.79,-442.74 555.62,-432.61"/>
<polygon fill="midnightblue" stroke="midnightblue" points="415.89,-463.67 407.03,-469.48 417.58,-470.47 415.89,-463.67"/>
</g>
<!-- Node17&#45;&gt;Node9 -->
<g id="edge19" class="edge">
<title>Node17&#45;&gt;Node9</title>
<path fill="none" stroke="midnightblue" d="M611.91,-391.99C611.32,-365.49 610.5,-322 610.5,-284.5 610.5,-284.5 610.5,-284.5 610.5,-215.5 610.5,-135.5 710.93,-99.02 780.76,-83.32"/>
<polygon fill="midnightblue" stroke="midnightblue" points="608.41,-392.32 612.14,-402.24 615.41,-392.16 608.41,-392.32"/>
</g>
<!-- Node17&#45;&gt;Node13 -->
<g id="edge18" class="edge">
<title>Node17&#45;&gt;Node13</title>
<path fill="none" stroke="midnightblue" d="M551.69,-399.75C505.53,-387.04 443.98,-370.09 407.47,-360.03"/>
<polygon fill="midnightblue" stroke="midnightblue" points="551.01,-403.19 561.58,-402.48 552.87,-396.45 551.01,-403.19"/>
</g>
<!-- Node18&#45;&gt;Node17 -->
<g id="edge24" class="edge">
<title>Node18&#45;&gt;Node17</title>
<path fill="none" stroke="midnightblue" d="M612.5,-459.11C612.5,-450.15 612.5,-440.32 612.5,-432.58"/>
<polygon fill="midnightblue" stroke="midnightblue" points="609,-459.4 612.5,-469.4 616,-459.4 609,-459.4"/>
</g>
<!-- Node20&#45;&gt;Node5 -->
<g id="edge29" class="edge">
<title>Node20&#45;&gt;Node5</title>
<path fill="none" stroke="midnightblue" d="M952.4,-550.64C1072.1,-548.54 1340.88,-532.11 1538.5,-433 1625.75,-389.24 1673.22,-388.36 1712.5,-299 1730.03,-259.13 1737.13,-236.92 1712.5,-201 1695.41,-176.07 1665.52,-162.24 1637.3,-154.56"/>
<polygon fill="midnightblue" stroke="midnightblue" points="952.27,-547.14 942.32,-550.79 952.37,-554.14 952.27,-547.14"/>
</g>
<!-- Node20&#45;&gt;Node7 -->
<g id="edge33" class="edge">
<title>Node20&#45;&gt;Node7</title>
<path fill="none" stroke="midnightblue" d="M952.09,-545.23C1014.12,-538.6 1103.92,-524.94 1127.5,-500 1175.16,-449.58 1181.52,-218.63 1182.37,-159.06"/>
<polygon fill="midnightblue" stroke="midnightblue" points="951.59,-541.77 942.01,-546.28 952.31,-548.73 951.59,-541.77"/>
</g>
<!-- Node20&#45;&gt;Node13 -->
<g id="edge28" class="edge">
<title>Node20&#45;&gt;Node13</title>
<path fill="none" stroke="midnightblue" d="M866.12,-530.04C818.64,-490.26 717.6,-406.04 708.5,-402 626.83,-365.76 523.97,-354.81 454.55,-351.86"/>
<polygon fill="midnightblue" stroke="midnightblue" points="863.88,-532.73 873.8,-536.47 868.38,-527.36 863.88,-532.73"/>
</g>
<!-- Node20&#45;&gt;Node17 -->
<g id="edge32" class="edge">
<title>Node20&#45;&gt;Node17</title>
<path fill="none" stroke="midnightblue" d="M837.68,-533.18C812.14,-524.23 781.29,-512.56 754.5,-500 710.49,-479.37 661.92,-449.94 634.51,-432.67"/>
<polygon fill="midnightblue" stroke="midnightblue" points="836.59,-536.5 847.18,-536.47 838.88,-529.89 836.59,-536.5"/>
</g>
<!-- Node21 -->
<g id="node21" class="node">
<title>Node21</title>
<g id="a_node21"><a xlink:href="GameObject_8cpp.html" target="_top" xlink:title=" ">
<polygon fill="none" stroke="black" points="873,-475 873,-494 998,-494 998,-475 873,-475"/>
<text text-anchor="middle" x="935.5" y="-482" font-family="Helvetica,sans-Serif" font-size="10.00">src/API/GameObject.cpp</text>
</a>
</g>
</g>
<!-- Node20&#45;&gt;Node21 -->
<g id="edge27" class="edge">
<title>Node20&#45;&gt;Node21</title>
<path fill="none" stroke="midnightblue" d="M906.09,-527.97C914.15,-516.33 923.52,-502.8 929.48,-494.19"/>
<polygon fill="midnightblue" stroke="midnightblue" points="903.08,-526.18 900.26,-536.4 908.83,-530.17 903.08,-526.18"/>
</g>
<!-- Node22 -->
<g id="node22" class="node">
<title>Node22</title>
<g id="a_node22"><a xlink:href="SceneBuilder_8hpp.html" target="_top" xlink:title=" ">
<polygon fill="none" stroke="black" points="638.5,-335.5 638.5,-365.5 798.5,-365.5 798.5,-335.5 638.5,-335.5"/>
<text text-anchor="start" x="646.5" y="-353.5" font-family="Helvetica,sans-Serif" font-size="10.00">includes/platformer</text>
<text text-anchor="middle" x="718.5" y="-342.5" font-family="Helvetica,sans-Serif" font-size="10.00">&#45;engine/Builder/SceneBuilder.hpp</text>
</a>
</g>
</g>
<!-- Node20&#45;&gt;Node22 -->
<g id="edge30" class="edge">
<title>Node20&#45;&gt;Node22</title>
<path fill="none" stroke="midnightblue" d="M875.02,-527.65C850.39,-491.56 802.97,-423.29 782.5,-402 769.35,-388.33 752.44,-375.13 739.3,-365.66"/>
<polygon fill="midnightblue" stroke="midnightblue" points="872.24,-529.78 880.76,-536.08 878.03,-525.84 872.24,-529.78"/>
</g>
<!-- Node24 -->
<g id="node24" class="node">
<title>Node24</title>
<g id="a_node24"><a xlink:href="Camera_8hpp.html" target="_top" xlink:title=" ">
<polygon fill="none" stroke="black" points="1016,-469.5 1016,-499.5 1119,-499.5 1119,-469.5 1016,-469.5"/>
<text text-anchor="start" x="1024" y="-487.5" font-family="Helvetica,sans-Serif" font-size="10.00">includes/spic&#45;prj&#45;api</text>
<text text-anchor="middle" x="1067.5" y="-476.5" font-family="Helvetica,sans-Serif" font-size="10.00">/Camera.hpp</text>
</a>
</g>
</g>
<!-- Node20&#45;&gt;Node24 -->
<g id="edge34" class="edge">
<title>Node20&#45;&gt;Node24</title>
<path fill="none" stroke="midnightblue" d="M938.65,-532.82C967.1,-522.37 1002.63,-509.32 1029.17,-499.58"/>
<polygon fill="midnightblue" stroke="midnightblue" points="937.09,-529.66 928.91,-536.4 939.5,-536.23 937.09,-529.66"/>
</g>
<!-- Node26 -->
<g id="node26" class="node">
<title>Node26</title>
<g id="a_node26"><a xlink:href="Scene_8hpp.html" target="_top" xlink:title=" ">
<polygon fill="none" stroke="black" points="874,-402.5 874,-432.5 977,-432.5 977,-402.5 874,-402.5"/>
<text text-anchor="start" x="882" y="-420.5" font-family="Helvetica,sans-Serif" font-size="10.00">includes/spic&#45;prj&#45;api</text>
<text text-anchor="middle" x="925.5" y="-409.5" font-family="Helvetica,sans-Serif" font-size="10.00">/Scene.hpp</text>
</a>
</g>
</g>
<!-- Node20&#45;&gt;Node26 -->
<g id="edge51" class="edge">
<title>Node20&#45;&gt;Node26</title>
<path fill="none" stroke="midnightblue" d="M873.75,-527.69C863.68,-511.02 854.43,-488.08 863.5,-469 870.89,-453.45 885.67,-441.12 898.94,-432.53"/>
<polygon fill="midnightblue" stroke="midnightblue" points="870.93,-529.77 879.31,-536.25 876.79,-525.96 870.93,-529.77"/>
</g>
<!-- Node33 -->
<g id="node33" class="node">
<title>Node33</title>
<g id="a_node33"><a xlink:href="UIObject_8hpp.html" target="_top" xlink:title=" ">
<polygon fill="none" stroke="black" points="1239,-469.5 1239,-499.5 1342,-499.5 1342,-469.5 1239,-469.5"/>
<text text-anchor="start" x="1247" y="-487.5" font-family="Helvetica,sans-Serif" font-size="10.00">includes/spic&#45;prj&#45;api</text>
<text text-anchor="middle" x="1290.5" y="-476.5" font-family="Helvetica,sans-Serif" font-size="10.00">/UIObject.hpp</text>
</a>
</g>
</g>
<!-- Node20&#45;&gt;Node33 -->
<g id="edge52" class="edge">
<title>Node20&#45;&gt;Node33</title>
<path fill="none" stroke="midnightblue" d="M952.63,-540.4C1031.28,-527.62 1165.32,-505.84 1238.71,-493.92"/>
<polygon fill="midnightblue" stroke="midnightblue" points="951.69,-537.01 942.38,-542.07 952.81,-543.92 951.69,-537.01"/>
</g>
<!-- Node23 -->
<g id="node23" class="node">
<title>Node23</title>
<g id="a_node23"><a xlink:href="SceneBuilder_8cpp.html" target="_top" xlink:title=" ">
<polygon fill="none" stroke="black" points="638.5,-274 638.5,-293 780.5,-293 780.5,-274 638.5,-274"/>
<text text-anchor="middle" x="709.5" y="-281" font-family="Helvetica,sans-Serif" font-size="10.00">src/Builder/SceneBuilder.cpp</text>
</a>
</g>
</g>
<!-- Node22&#45;&gt;Node23 -->
<g id="edge31" class="edge">
<title>Node22&#45;&gt;Node23</title>
<path fill="none" stroke="midnightblue" d="M715.14,-325.25C713.59,-314.02 711.84,-301.38 710.7,-293.19"/>
<polygon fill="midnightblue" stroke="midnightblue" points="711.71,-325.97 716.55,-335.4 718.64,-325.01 711.71,-325.97"/>
</g>
<!-- Node24&#45;&gt;Node22 -->
<g id="edge36" class="edge">
<title>Node24&#45;&gt;Node22</title>
<path fill="none" stroke="midnightblue" d="M1006.05,-468.79C948.75,-454.99 871.11,-436.02 864.5,-433 842.74,-423.05 841.06,-414.23 820.5,-402 797.58,-388.36 770.46,-375.06 749.96,-365.54"/>
<polygon fill="midnightblue" stroke="midnightblue" points="1005.23,-472.2 1015.77,-471.13 1006.87,-465.39 1005.23,-472.2"/>
</g>
<!-- Node25 -->
<g id="node25" class="node">
<title>Node25</title>
<g id="a_node25"><a xlink:href="Camera_8cpp.html" target="_top" xlink:title=" ">
<polygon fill="none" stroke="black" points="1015.5,-408 1015.5,-427 1119.5,-427 1119.5,-408 1015.5,-408"/>
<text text-anchor="middle" x="1067.5" y="-415" font-family="Helvetica,sans-Serif" font-size="10.00">src/API/Camera.cpp</text>
</a>
</g>
</g>
<!-- Node24&#45;&gt;Node25 -->
<g id="edge35" class="edge">
<title>Node24&#45;&gt;Node25</title>
<path fill="none" stroke="midnightblue" d="M1067.5,-459.25C1067.5,-448.02 1067.5,-435.38 1067.5,-427.19"/>
<polygon fill="midnightblue" stroke="midnightblue" points="1064,-459.4 1067.5,-469.4 1071,-459.4 1064,-459.4"/>
</g>
<!-- Node24&#45;&gt;Node26 -->
<g id="edge37" class="edge">
<title>Node24&#45;&gt;Node26</title>
<path fill="none" stroke="midnightblue" d="M1027.37,-465.13C1004.81,-454.8 977.08,-442.11 956.25,-432.58"/>
<polygon fill="midnightblue" stroke="midnightblue" points="1026.14,-468.42 1036.69,-469.4 1029.05,-462.05 1026.14,-468.42"/>
</g>
<!-- Node26&#45;&gt;Node4 -->
<g id="edge38" class="edge">
<title>Node26&#45;&gt;Node4</title>
<path fill="none" stroke="midnightblue" d="M985.88,-399.04C1032.91,-381.9 1095.01,-350.67 1124.5,-299 1156.96,-242.14 1073.08,-177.07 1039.07,-153.82"/>
<polygon fill="midnightblue" stroke="midnightblue" points="984.66,-395.76 976.39,-402.38 986.99,-402.36 984.66,-395.76"/>
</g>
<!-- Node26&#45;&gt;Node9 -->
<g id="edge40" class="edge">
<title>Node26&#45;&gt;Node9</title>
<path fill="none" stroke="midnightblue" d="M882.06,-397.38C869.15,-389.53 856.38,-379.15 848.5,-366 792.71,-272.9 828.37,-131.54 841.93,-86.68"/>
<polygon fill="midnightblue" stroke="midnightblue" points="880.52,-400.53 890.95,-402.4 883.97,-394.44 880.52,-400.53"/>
</g>
<!-- Node26&#45;&gt;Node22 -->
<g id="edge39" class="edge">
<title>Node26&#45;&gt;Node22</title>
<path fill="none" stroke="midnightblue" d="M871.18,-399.44C837.63,-388.91 795.09,-375.55 763.44,-365.61"/>
<polygon fill="midnightblue" stroke="midnightblue" points="870.25,-402.82 880.84,-402.48 872.35,-396.14 870.25,-402.82"/>
</g>
<!-- Node27 -->
<g id="node27" class="node">
<title>Node27</title>
<g id="a_node27"><a xlink:href="Window_8hpp.html" target="_top" xlink:title=" ">
<polygon fill="none" stroke="black" points="858,-335.5 858,-365.5 995,-365.5 995,-335.5 858,-335.5"/>
<text text-anchor="start" x="866" y="-353.5" font-family="Helvetica,sans-Serif" font-size="10.00">includes/platformer</text>
<text text-anchor="middle" x="926.5" y="-342.5" font-family="Helvetica,sans-Serif" font-size="10.00">&#45;engine/Render/Window.hpp</text>
</a>
</g>
</g>
<!-- Node26&#45;&gt;Node27 -->
<g id="edge41" class="edge">
<title>Node26&#45;&gt;Node27</title>
<path fill="none" stroke="midnightblue" d="M925.88,-392.11C926.01,-383.15 926.16,-373.32 926.28,-365.58"/>
<polygon fill="midnightblue" stroke="midnightblue" points="922.37,-392.34 925.72,-402.4 929.37,-392.45 922.37,-392.34"/>
</g>
<!-- Node27&#45;&gt;Node9 -->
<g id="edge44" class="edge">
<title>Node27&#45;&gt;Node9</title>
<path fill="none" stroke="midnightblue" d="M892.81,-329.34C882.28,-321.27 871.78,-311.02 865.5,-299 827.76,-226.78 838.54,-123.69 844.12,-86.53"/>
<polygon fill="midnightblue" stroke="midnightblue" points="891.01,-332.36 901.18,-335.33 895.08,-326.66 891.01,-332.36"/>
</g>
<!-- Node28 -->
<g id="node28" class="node">
<title>Node28</title>
<g id="a_node28"><a xlink:href="Window_8cpp.html" target="_top" xlink:title=" ">
<polygon fill="none" stroke="black" points="997,-274 997,-293 1116,-293 1116,-274 997,-274"/>
<text text-anchor="middle" x="1056.5" y="-281" font-family="Helvetica,sans-Serif" font-size="10.00">src/Render/Window.cpp</text>
</a>
</g>
</g>
<!-- Node27&#45;&gt;Node28 -->
<g id="edge42" class="edge">
<title>Node27&#45;&gt;Node28</title>
<path fill="none" stroke="midnightblue" d="M963.89,-330.8C988.82,-318.34 1020.39,-302.56 1039.49,-293.01"/>
<polygon fill="midnightblue" stroke="midnightblue" points="962.09,-327.79 954.71,-335.4 965.22,-334.05 962.09,-327.79"/>
</g>
<!-- Node29 -->
<g id="node29" class="node">
<title>Node29</title>
<g id="a_node29"><a xlink:href="Timer_8cpp.html" target="_top" xlink:title=" ">
<polygon fill="none" stroke="black" points="874.5,-274 874.5,-293 978.5,-293 978.5,-274 874.5,-274"/>
<text text-anchor="middle" x="926.5" y="-281" font-family="Helvetica,sans-Serif" font-size="10.00">src/Timer/Timer.cpp</text>
</a>
</g>
</g>
<!-- Node27&#45;&gt;Node29 -->
<g id="edge43" class="edge">
<title>Node27&#45;&gt;Node29</title>
<path fill="none" stroke="midnightblue" d="M926.5,-325.25C926.5,-314.02 926.5,-301.38 926.5,-293.19"/>
<polygon fill="midnightblue" stroke="midnightblue" points="923,-325.4 926.5,-335.4 930,-325.4 923,-325.4"/>
</g>
<!-- Node30 -->
<g id="node30" class="node">
<title>Node30</title>
<g id="a_node30"><a xlink:href="AnimatedSprite_8hpp.html" target="_top" xlink:title=" ">
<polygon fill="none" stroke="black" points="1418,-268.5 1418,-298.5 1589,-298.5 1589,-268.5 1418,-268.5"/>
<text text-anchor="start" x="1426" y="-286.5" font-family="Helvetica,sans-Serif" font-size="10.00">includes/platformer</text>
<text text-anchor="middle" x="1503.5" y="-275.5" font-family="Helvetica,sans-Serif" font-size="10.00">&#45;engine/Texture/AnimatedSprite.hpp</text>
</a>
</g>
</g>
<!-- Node27&#45;&gt;Node30 -->
<g id="edge45" class="edge">
<title>Node27&#45;&gt;Node30</title>
<path fill="none" stroke="midnightblue" d="M1005.42,-340.61C1113.42,-328.44 1306.52,-306.69 1417.9,-294.14"/>
<polygon fill="midnightblue" stroke="midnightblue" points="1004.79,-337.16 995.24,-341.76 1005.57,-344.11 1004.79,-337.16"/>
</g>
<!-- Node30&#45;&gt;Node2 -->
<g id="edge50" class="edge">
<title>Node30&#45;&gt;Node2</title>
<path fill="none" stroke="midnightblue" d="M1441.73,-265.84C1402.3,-255.21 1351.76,-241.57 1314.4,-231.5"/>
<polygon fill="midnightblue" stroke="midnightblue" points="1440.94,-269.25 1451.5,-268.48 1442.76,-262.49 1440.94,-269.25"/>
</g>
<!-- Node30&#45;&gt;Node5 -->
<g id="edge47" class="edge">
<title>Node30&#45;&gt;Node5</title>
<path fill="none" stroke="midnightblue" d="M1511.01,-258.39C1516.48,-241.9 1524.48,-219.72 1533.5,-201 1539.53,-188.5 1547.53,-175.2 1554.26,-164.69"/>
<polygon fill="midnightblue" stroke="midnightblue" points="1507.55,-257.73 1507.8,-268.32 1514.21,-259.88 1507.55,-257.73"/>
</g>
<!-- Node31 -->
<g id="node31" class="node">
<title>Node31</title>
<g id="a_node31"><a xlink:href="AnimatedSprite_8cpp.html" target="_top" xlink:title=" ">
<polygon fill="none" stroke="black" points="1332,-207 1332,-226 1485,-226 1485,-207 1332,-207"/>
<text text-anchor="middle" x="1408.5" y="-214" font-family="Helvetica,sans-Serif" font-size="10.00">src/Texture/AnimatedSprite.cpp</text>
</a>
</g>
</g>
<!-- Node30&#45;&gt;Node31 -->
<g id="edge46" class="edge">
<title>Node30&#45;&gt;Node31</title>
<path fill="none" stroke="midnightblue" d="M1474.48,-262.64C1456.55,-250.37 1434.46,-235.26 1420.93,-226.01"/>
<polygon fill="midnightblue" stroke="midnightblue" points="1472.66,-265.64 1482.89,-268.4 1476.61,-259.86 1472.66,-265.64"/>
</g>
<!-- Node32 -->
<g id="node32" class="node">
<title>Node32</title>
<g id="a_node32"><a xlink:href="ObjectBuilder_8hpp.html" target="_top" xlink:title=" ">
<polygon fill="none" stroke="black" points="1542,-201.5 1542,-231.5 1703,-231.5 1703,-201.5 1542,-201.5"/>
<text text-anchor="start" x="1550" y="-219.5" font-family="Helvetica,sans-Serif" font-size="10.00">includes/platformer</text>
<text text-anchor="middle" x="1622.5" y="-208.5" font-family="Helvetica,sans-Serif" font-size="10.00">&#45;engine/Builder/ObjectBuilder.hpp</text>
</a>
</g>
</g>
<!-- Node30&#45;&gt;Node32 -->
<g id="edge48" class="edge">
<title>Node30&#45;&gt;Node32</title>
<path fill="none" stroke="midnightblue" d="M1538.15,-263.57C1556.87,-253.35 1579.59,-240.94 1596.73,-231.58"/>
<polygon fill="midnightblue" stroke="midnightblue" points="1536.42,-260.53 1529.32,-268.4 1539.78,-266.67 1536.42,-260.53"/>
</g>
<!-- Node32&#45;&gt;Node5 -->
<g id="edge49" class="edge">
<title>Node32&#45;&gt;Node5</title>
<path fill="none" stroke="midnightblue" d="M1605.15,-193.26C1597.97,-184.06 1589.73,-173.49 1582.78,-164.59"/>
<polygon fill="midnightblue" stroke="midnightblue" points="1602.46,-195.5 1611.37,-201.23 1607.98,-191.2 1602.46,-195.5"/>
</g>
<!-- Node34 -->
<g id="node34" class="node">
<title>Node34</title>
<g id="a_node34"><a xlink:href="UIObject_8cpp.html" target="_top" xlink:title=" ">
<polygon fill="none" stroke="black" points="1297.5,-408 1297.5,-427 1407.5,-427 1407.5,-408 1297.5,-408"/>
<text text-anchor="middle" x="1352.5" y="-415" font-family="Helvetica,sans-Serif" font-size="10.00">src/API/UIObject.cpp</text>
</a>
</g>
</g>
<!-- Node33&#45;&gt;Node34 -->
<g id="edge53" class="edge">
<title>Node33&#45;&gt;Node34</title>
<path fill="none" stroke="midnightblue" d="M1311.01,-462C1322.33,-450.13 1335.76,-436.05 1344.21,-427.19"/>
<polygon fill="midnightblue" stroke="midnightblue" points="1308.32,-459.74 1303.95,-469.4 1313.39,-464.58 1308.32,-459.74"/>
</g>
<!-- Node35 -->
<g id="node35" class="node">
<title>Node35</title>
<g id="a_node35"><a xlink:href="Button_8hpp.html" target="_top" xlink:title=" ">
<polygon fill="none" stroke="black" points="1426,-402.5 1426,-432.5 1529,-432.5 1529,-402.5 1426,-402.5"/>
<text text-anchor="start" x="1434" y="-420.5" font-family="Helvetica,sans-Serif" font-size="10.00">includes/spic&#45;prj&#45;api</text>
<text text-anchor="middle" x="1477.5" y="-409.5" font-family="Helvetica,sans-Serif" font-size="10.00">/Button.hpp</text>
</a>
</g>
</g>
<!-- Node33&#45;&gt;Node35 -->
<g id="edge54" class="edge">
<title>Node33&#45;&gt;Node35</title>
<path fill="none" stroke="midnightblue" d="M1340.58,-466.09C1370.77,-455.6 1408.72,-442.41 1437,-432.58"/>
<polygon fill="midnightblue" stroke="midnightblue" points="1339.37,-462.81 1331.08,-469.4 1341.67,-469.42 1339.37,-462.81"/>
</g>
<!-- Node36 -->
<g id="node36" class="node">
<title>Node36</title>
<g id="a_node36"><a xlink:href="Text_8hpp.html" target="_top" xlink:title=" ">
<polygon fill="none" stroke="black" points="1176,-402.5 1176,-432.5 1279,-432.5 1279,-402.5 1176,-402.5"/>
<text text-anchor="start" x="1184" y="-420.5" font-family="Helvetica,sans-Serif" font-size="10.00">includes/spic&#45;prj&#45;api</text>
<text text-anchor="middle" x="1227.5" y="-409.5" font-family="Helvetica,sans-Serif" font-size="10.00">/Text.hpp</text>
</a>
</g>
</g>
<!-- Node33&#45;&gt;Node36 -->
<g id="edge55" class="edge">
<title>Node33&#45;&gt;Node36</title>
<path fill="none" stroke="midnightblue" d="M1269.69,-462.02C1260.3,-452.34 1249.48,-441.17 1241.14,-432.58"/>
<polygon fill="midnightblue" stroke="midnightblue" points="1267.36,-464.65 1276.83,-469.4 1272.38,-459.78 1267.36,-464.65"/>
</g>
<!-- Node37&#45;&gt;Node13 -->
<g id="edge57" class="edge">
<title>Node37&#45;&gt;Node13</title>
<path fill="none" stroke="midnightblue" d="M66.09,-527.67C88.28,-494.84 133.68,-434.65 187.5,-402 224.38,-379.63 271.18,-367.03 308.99,-360.01"/>
<polygon fill="midnightblue" stroke="midnightblue" points="63.07,-525.9 60.46,-536.16 68.9,-529.77 63.07,-525.9"/>
</g>
<!-- Node38&#45;&gt;Node2 -->
<g id="edge61" class="edge">
<title>Node38&#45;&gt;Node2</title>
<path fill="none" stroke="midnightblue" d="M1517.05,-336.24C1484.18,-327.89 1443.58,-315.55 1409.5,-299 1387.98,-288.55 1386.08,-280.19 1365.5,-268 1342.54,-254.4 1315.4,-241.2 1294.74,-231.71"/>
<polygon fill="midnightblue" stroke="midnightblue" points="1516.44,-339.69 1526.98,-338.7 1518.12,-332.9 1516.44,-339.69"/>
</g>
<!-- Node38&#45;&gt;Node30 -->
<g id="edge60" class="edge">
<title>Node38&#45;&gt;Node30</title>
<path fill="none" stroke="midnightblue" d="M1554.38,-328.6C1543.06,-318.78 1529.86,-307.34 1519.74,-298.58"/>
<polygon fill="midnightblue" stroke="midnightblue" points="1552.38,-331.49 1562.23,-335.4 1556.96,-326.2 1552.38,-331.49"/>
</g>
<!-- Node39 -->
<g id="node39" class="node">
<title>Node39</title>
<g id="a_node39"><a xlink:href="Sprite_8cpp.html" target="_top" xlink:title=" ">
<polygon fill="none" stroke="black" points="1607.5,-274 1607.5,-293 1703.5,-293 1703.5,-274 1607.5,-274"/>
<text text-anchor="middle" x="1655.5" y="-281" font-family="Helvetica,sans-Serif" font-size="10.00">src/API/Sprite.cpp</text>
</a>
</g>
</g>
<!-- Node38&#45;&gt;Node39 -->
<g id="edge59" class="edge">
<title>Node38&#45;&gt;Node39</title>
<path fill="none" stroke="midnightblue" d="M1603.17,-328.67C1617.39,-316.67 1634.51,-302.22 1645.2,-293.19"/>
<polygon fill="midnightblue" stroke="midnightblue" points="1600.59,-326.27 1595.21,-335.4 1605.11,-331.62 1600.59,-326.27"/>
</g>
</g>
</svg>
        <g id="navigator" transform="translate(0 0)" fill="#404254">
                <rect fill="#f2f5e9" fill-opacity="0.5" stroke="#606060" stroke-width=".5" x="0" y="0" width="60" height="60"/>
                <use id="zoomplus" xlink:href="#zoomPlus" x="17" y="9" onmousedown="handleZoom(evt,'in')"/>
                <use id="zoomminus" xlink:href="#zoomMin" x="42" y="9" onmousedown="handleZoom(evt,'out')"/>
                <use id="reset" xlink:href="#resetDef" x="30" y="36" onmousedown="handleReset()"/>
                <g id="arrowUp" xlink:href="#dirArrow" transform="translate(30 24)" onmousedown="handlePan(0,-1)">
                  <use xlink:href="#rim" fill="#404040">
                        <set attributeName="fill" to="#808080" begin="arrowUp.mouseover" end="arrowUp.mouseout"/>
                  </use>
                  <path fill="none" stroke="white" stroke-width="1.5" d="M0,-3.0v7 M-2.5,-0.5L0,-3.0L2.5,-0.5"/>
                </g>
                <g id="arrowRight" xlink:href="#dirArrow" transform="rotate(90) translate(36 -43)" onmousedown="handlePan(1,0)">
                  <use xlink:href="#rim" fill="#404040">
                        <set attributeName="fill" to="#808080" begin="arrowRight.mouseover" end="arrowRight.mouseout"/>
                  </use>
                  <path fill="none" stroke="white" stroke-width="1.5" d="M0,-3.0v7 M-2.5,-0.5L0,-3.0L2.5,-0.5"/>
                </g>
                <g id="arrowDown" xlink:href="#dirArrow" transform="rotate(180) translate(-30 -48)" onmousedown="handlePan(0,1)">
                  <use xlink:href="#rim" fill="#404040">
                        <set attributeName="fill" to="#808080" begin="arrowDown.mouseover" end="arrowDown.mouseout"/>
                  </use>
                  <path fill="none" stroke="white" stroke-width="1.5" d="M0,-3.0v7 M-2.5,-0.5L0,-3.0L2.5,-0.5"/>
                </g>
                <g id="arrowLeft" xlink:href="#dirArrow" transform="rotate(270) translate(-36 17)" onmousedown="handlePan(-1,0)">
                  <use xlink:href="#rim" fill="#404040">
                        <set attributeName="fill" to="#808080" begin="arrowLeft.mouseover" end="arrowLeft.mouseout"/>
                  </use>
                  <path fill="none" stroke="white" stroke-width="1.5" d="M0,-3.0v7 M-2.5,-0.5L0,-3.0L2.5,-0.5"/>
                </g>
        </g>
        <svg viewBox="0 0 15 15" width="100%" height="30px" preserveAspectRatio="xMaxYMin meet">
         <g id="arrow_out" transform="scale(0.3 0.3)">
          <a xlink:href="Component_8hpp__dep__incl_org.svg" target="_base">
           <rect id="button" ry="5" rx="5" y="6" x="6" height="38" width="38"
                fill="#f2f5e9" fill-opacity="0.5" stroke="#606060" stroke-width="1.0"/>
           <path id="arrow"
             d="M 11.500037,31.436501 C 11.940474,20.09759 22.043105,11.32322 32.158766,21.979434 L 37.068811,17.246167 C 37.068811,17.246167 37.088388,32 37.088388,32 L 22.160133,31.978069 C 22.160133,31.978069 26.997745,27.140456 26.997745,27.140456 C 18.528582,18.264221 13.291696,25.230495 11.500037,31.436501 z"
             style="fill:#404040;"/>
          </a>
         </g>
        </svg>
</svg>
