<?xml version="1.0" encoding="UTF-8" standalone="no"?>
<!DOCTYPE svg PUBLIC "-//W3C//DTD SVG 1.1//EN"
 "http://www.w3.org/Graphics/SVG/1.1/DTD/svg11.dtd">
<!-- Generated by graphviz version 2.44.0 ()
 -->
<!-- Title: includes/platformer&#45;engine/Networking/ConnectionStatus.hpp Pages: 1 -->
<!--zoomable 329 -->
<svg id="main" version="1.1" xmlns="http://www.w3.org/2000/svg" xmlns:xlink="http://www.w3.org/1999/xlink" xml:space="preserve" onload="init(evt)">
<style type="text/css"><![CDATA[
.edge:hover path { stroke: red; }
.edge:hover polygon { stroke: red; fill: red; }
]]></style>
<script type="text/javascript"><![CDATA[
var edges = document.getElementsByTagName('g');
if (edges && edges.length) {
  for (var i=0;i<edges.length;i++) {
    if (edges[i].id.substr(0,4)=='edge') {
      edges[i].setAttribute('class','edge');
    }
  }
}
]]></script>
        <defs>
                <circle id="rim" cx="0" cy="0" r="7"/>
                <circle id="rim2" cx="0" cy="0" r="3.5"/>
                <g id="zoomPlus">
                        <use xlink:href="#rim" fill="#404040">
                                <set attributeName="fill" to="#808080" begin="zoomplus.mouseover" end="zoomplus.mouseout"/>
                        </use>
                        <path d="M-4,0h8M0,-4v8" fill="none" stroke="white" stroke-width="1.5" pointer-events="none"/>
                </g>
                <g id="zoomMin">
                        <use xlink:href="#rim" fill="#404040">
                                <set attributeName="fill" to="#808080" begin="zoomminus.mouseover" end="zoomminus.mouseout"/>
                        </use>
                        <path d="M-4,0h8" fill="none" stroke="white" stroke-width="1.5" pointer-events="none"/>
                </g>
                <g id="dirArrow">
                        <path fill="none" stroke="white" stroke-width="1.5" d="M0,-3.0v7 M-2.5,-0.5L0,-3.0L2.5,-0.5"/>
                </g>
               <g id="resetDef">
                       <use xlink:href="#rim2" fill="#404040">
                               <set attributeName="fill" to="#808080" begin="reset.mouseover" end="reset.mouseout"/>
                       </use>
               </g>
        </defs>

<script type="text/javascript">
var viewWidth = 1284;
var viewHeight = 329;
var sectionId = 'dynsection-0';
</script>
<script xlink:href="svgpan.js"/>
<svg id="graph" class="graph">
<g id="viewport">
<title>includes/platformer&#45;engine/Networking/ConnectionStatus.hpp</title>
<!-- Node1 -->
<g id="node1" class="node">
<title>Node1</title>
<g id="a_node1"><a xlink:title=" ">
<polygon fill="#bfbfbf" stroke="black" points="423.5,-279.5 423.5,-320.5 575.5,-320.5 575.5,-279.5 423.5,-279.5"/>
<text text-anchor="start" x="431.5" y="-308.5" font-family="Helvetica,sans-Serif" font-size="10.00">includes/platformer</text>
<text text-anchor="start" x="431.5" y="-297.5" font-family="Helvetica,sans-Serif" font-size="10.00">&#45;engine/Networking/Connection</text>
<text text-anchor="middle" x="499.5" y="-286.5" font-family="Helvetica,sans-Serif" font-size="10.00">Status.hpp</text>
</a>
</g>
</g>
<!-- Node2 -->
<g id="node2" class="node">
<title>Node2</title>
<g id="a_node2"><a xlink:href="NetworkingFacade_8hpp.html" target="_top" xlink:title=" ">
<polygon fill="none" stroke="black" points="406.5,-212.5 406.5,-242.5 592.5,-242.5 592.5,-212.5 406.5,-212.5"/>
<text text-anchor="start" x="414.5" y="-230.5" font-family="Helvetica,sans-Serif" font-size="10.00">includes/platformer</text>
<text text-anchor="middle" x="499.5" y="-219.5" font-family="Helvetica,sans-Serif" font-size="10.00">&#45;engine/Facade/NetworkingFacade.hpp</text>
</a>
</g>
</g>
<!-- Node1&#45;&gt;Node2 -->
<g id="edge1" class="edge">
<title>Node1&#45;&gt;Node2</title>
<path fill="none" stroke="midnightblue" d="M499.5,-269.08C499.5,-260.01 499.5,-250.45 499.5,-242.89"/>
<polygon fill="midnightblue" stroke="midnightblue" points="496,-269.36 499.5,-279.36 503,-269.36 496,-269.36"/>
</g>
<!-- Node3 -->
<g id="node3" class="node">
<title>Node3</title>
<g id="a_node3"><a xlink:href="NetworkingFacade_8cpp.html" target="_top" xlink:title=" ">
<polygon fill="none" stroke="black" points="303.5,-73 303.5,-92 471.5,-92 471.5,-73 303.5,-73"/>
<text text-anchor="middle" x="387.5" y="-80" font-family="Helvetica,sans-Serif" font-size="10.00">src/Facade/NetworkingFacade.cpp</text>
</a>
</g>
</g>
<!-- Node2&#45;&gt;Node3 -->
<g id="edge2" class="edge">
<title>Node2&#45;&gt;Node3</title>
<path fill="none" stroke="midnightblue" d="M448.1,-208.02C432.99,-200.27 417.78,-189.79 407.5,-176 388.25,-150.19 386.75,-109.68 387.11,-92.11"/>
<polygon fill="midnightblue" stroke="midnightblue" points="446.92,-211.33 457.45,-212.49 449.94,-205.02 446.92,-211.33"/>
</g>
<!-- Node4 -->
<g id="node4" class="node">
<title>Node4</title>
<g id="a_node4"><a xlink:href="ClientNetworkManager_8hpp.html" target="_top" xlink:title=" ">
<polygon fill="none" stroke="black" points="417,-134.5 417,-175.5 582,-175.5 582,-134.5 417,-134.5"/>
<text text-anchor="start" x="425" y="-163.5" font-family="Helvetica,sans-Serif" font-size="10.00">includes/platformer</text>
<text text-anchor="start" x="425" y="-152.5" font-family="Helvetica,sans-Serif" font-size="10.00">&#45;engine/Networking/ClientNetwork</text>
<text text-anchor="middle" x="499.5" y="-141.5" font-family="Helvetica,sans-Serif" font-size="10.00">Manager.hpp</text>
</a>
</g>
</g>
<!-- Node2&#45;&gt;Node4 -->
<g id="edge3" class="edge">
<title>Node2&#45;&gt;Node4</title>
<path fill="none" stroke="midnightblue" d="M499.5,-201.98C499.5,-193.35 499.5,-183.76 499.5,-175.59"/>
<polygon fill="midnightblue" stroke="midnightblue" points="496,-202.23 499.5,-212.23 503,-202.23 496,-202.23"/>
</g>
<!-- Node14 -->
<g id="node14" class="node">
<title>Node14</title>
<g id="a_node14"><a xlink:href="ServerNetworkManager_8hpp.html" target="_top" xlink:title=" ">
<polygon fill="none" stroke="black" points="600,-134.5 600,-175.5 769,-175.5 769,-134.5 600,-134.5"/>
<text text-anchor="start" x="608" y="-163.5" font-family="Helvetica,sans-Serif" font-size="10.00">includes/platformer</text>
<text text-anchor="start" x="608" y="-152.5" font-family="Helvetica,sans-Serif" font-size="10.00">&#45;engine/Networking/ServerNetwork</text>
<text text-anchor="middle" x="684.5" y="-141.5" font-family="Helvetica,sans-Serif" font-size="10.00">Manager.hpp</text>
</a>
</g>
</g>
<!-- Node2&#45;&gt;Node14 -->
<g id="edge15" class="edge">
<title>Node2&#45;&gt;Node14</title>
<path fill="none" stroke="midnightblue" d="M545.95,-208.8C572.51,-198.68 605.88,-185.96 633.21,-175.55"/>
<polygon fill="midnightblue" stroke="midnightblue" points="544.59,-205.57 536.49,-212.4 547.08,-212.11 544.59,-205.57"/>
</g>
<!-- Node4&#45;&gt;Node3 -->
<g id="edge4" class="edge">
<title>Node4&#45;&gt;Node3</title>
<path fill="none" stroke="midnightblue" d="M459.78,-129C439.38,-116.15 415.81,-101.32 401.28,-92.17"/>
<polygon fill="midnightblue" stroke="midnightblue" points="457.97,-132 468.3,-134.36 461.7,-126.07 457.97,-132"/>
</g>
<!-- Node5 -->
<g id="node5" class="node">
<title>Node5</title>
<g id="a_node5"><a xlink:href="ClientNetworkManager_8cpp.html" target="_top" xlink:title=" ">
<polygon fill="none" stroke="black" points="0,-0.5 0,-30.5 147,-30.5 147,-0.5 0,-0.5"/>
<text text-anchor="start" x="8" y="-18.5" font-family="Helvetica,sans-Serif" font-size="10.00">src/Networking/ClientNetwork</text>
<text text-anchor="middle" x="73.5" y="-7.5" font-family="Helvetica,sans-Serif" font-size="10.00">Manager.cpp</text>
</a>
</g>
</g>
<!-- Node4&#45;&gt;Node5 -->
<g id="edge5" class="edge">
<title>Node4&#45;&gt;Node5</title>
<path fill="none" stroke="midnightblue" d="M501.2,-124.14C500.55,-104.99 496.2,-81.14 480.5,-67 426.67,-18.52 228.22,-41.24 156.5,-31 153.46,-30.57 150.36,-30.11 147.23,-29.63"/>
<polygon fill="midnightblue" stroke="midnightblue" points="497.7,-124.21 501.22,-134.2 504.7,-124.2 497.7,-124.21"/>
</g>
<!-- Node6 -->
<g id="node6" class="node">
<title>Node6</title>
<g id="a_node6"><a xlink:href="Engine_8hpp.html" target="_top" xlink:title=" ">
<polygon fill="none" stroke="black" points="574,-67.5 574,-97.5 705,-97.5 705,-67.5 574,-67.5"/>
<text text-anchor="start" x="582" y="-85.5" font-family="Helvetica,sans-Serif" font-size="10.00">includes/platformer</text>
<text text-anchor="middle" x="639.5" y="-74.5" font-family="Helvetica,sans-Serif" font-size="10.00">&#45;engine/Engine/Engine.hpp</text>
</a>
</g>
</g>
<!-- Node4&#45;&gt;Node6 -->
<g id="edge6" class="edge">
<title>Node4&#45;&gt;Node6</title>
<path fill="none" stroke="midnightblue" d="M547.7,-129.73C568.93,-119.04 593.14,-106.85 611.36,-97.67"/>
<polygon fill="midnightblue" stroke="midnightblue" points="545.86,-126.74 538.5,-134.36 549,-132.99 545.86,-126.74"/>
</g>
<!-- Node6&#45;&gt;Node5 -->
<g id="edge10" class="edge">
<title>Node6&#45;&gt;Node5</title>
<path fill="none" stroke="midnightblue" d="M563.64,-72.6C547.12,-70.7 529.73,-68.75 513.5,-67 354.95,-49.88 314.48,-52.74 156.5,-31 153.46,-30.58 150.35,-30.13 147.22,-29.66"/>
<polygon fill="midnightblue" stroke="midnightblue" points="563.46,-76.1 573.8,-73.76 564.26,-69.14 563.46,-76.1"/>
</g>
<!-- Node7 -->
<g id="node7" class="node">
<title>Node7</title>
<g id="a_node7"><a xlink:href="GameObjectDirector_8cpp.html" target="_top" xlink:title=" ">
<polygon fill="none" stroke="black" points="165.5,-6 165.5,-25 341.5,-25 341.5,-6 165.5,-6"/>
<text text-anchor="middle" x="253.5" y="-13" font-family="Helvetica,sans-Serif" font-size="10.00">src/Director/GameObjectDirector.cpp</text>
</a>
</g>
</g>
<!-- Node6&#45;&gt;Node7 -->
<g id="edge7" class="edge">
<title>Node6&#45;&gt;Node7</title>
<path fill="none" stroke="midnightblue" d="M563.49,-68.7C486.69,-55.77 370.2,-36.15 304.06,-25.01"/>
<polygon fill="midnightblue" stroke="midnightblue" points="563.14,-72.19 573.58,-70.4 564.3,-65.29 563.14,-72.19"/>
</g>
<!-- Node8 -->
<g id="node8" class="node">
<title>Node8</title>
<g id="a_node8"><a xlink:href="Engine_8cpp.html" target="_top" xlink:title=" ">
<polygon fill="none" stroke="black" points="360,-6 360,-25 473,-25 473,-6 360,-6"/>
<text text-anchor="middle" x="416.5" y="-13" font-family="Helvetica,sans-Serif" font-size="10.00">src/Engine/Engine.cpp</text>
</a>
</g>
</g>
<!-- Node6&#45;&gt;Node8 -->
<g id="edge8" class="edge">
<title>Node6&#45;&gt;Node8</title>
<path fill="none" stroke="midnightblue" d="M581.76,-64.67C538.18,-51.97 480.19,-35.06 445.76,-25.03"/>
<polygon fill="midnightblue" stroke="midnightblue" points="580.81,-68.04 591.39,-67.48 582.77,-61.32 580.81,-68.04"/>
</g>
<!-- Node9 -->
<g id="node9" class="node">
<title>Node9</title>
<g id="a_node9"><a xlink:href="TMXParser_8cpp.html" target="_top" xlink:title=" ">
<polygon fill="none" stroke="black" points="491.5,-6 491.5,-25 627.5,-25 627.5,-6 491.5,-6"/>
<text text-anchor="middle" x="559.5" y="-13" font-family="Helvetica,sans-Serif" font-size="10.00">src/Facade/TMXParser.cpp</text>
</a>
</g>
</g>
<!-- Node6&#45;&gt;Node9 -->
<g id="edge9" class="edge">
<title>Node6&#45;&gt;Node9</title>
<path fill="none" stroke="midnightblue" d="M614.28,-61.01C599.43,-48.94 581.41,-34.3 570.2,-25.19"/>
<polygon fill="midnightblue" stroke="midnightblue" points="612.17,-63.81 622.14,-67.4 616.59,-58.37 612.17,-63.81"/>
</g>
<!-- Node10 -->
<g id="node10" class="node">
<title>Node10</title>
<g id="a_node10"><a xlink:href="ServerNetworkManager_8cpp.html" target="_top" xlink:title=" ">
<polygon fill="none" stroke="black" points="1125,-0.5 1125,-30.5 1276,-30.5 1276,-0.5 1125,-0.5"/>
<text text-anchor="start" x="1133" y="-18.5" font-family="Helvetica,sans-Serif" font-size="10.00">src/Networking/ServerNetwork</text>
<text text-anchor="middle" x="1200.5" y="-7.5" font-family="Helvetica,sans-Serif" font-size="10.00">Manager.cpp</text>
</a>
</g>
</g>
<!-- Node6&#45;&gt;Node10 -->
<g id="edge11" class="edge">
<title>Node6&#45;&gt;Node10</title>
<path fill="none" stroke="midnightblue" d="M715.26,-75.02C809.51,-66.61 975.24,-50.65 1116.5,-31 1119.29,-30.61 1122.12,-30.2 1124.98,-29.78"/>
<polygon fill="midnightblue" stroke="midnightblue" points="714.9,-71.54 705.25,-75.91 715.52,-78.51 714.9,-71.54"/>
</g>
<!-- Node11 -->
<g id="node11" class="node">
<title>Node11</title>
<g id="a_node11"><a xlink:href="RenderSystem_8cpp.html" target="_top" xlink:title=" ">
<polygon fill="none" stroke="black" points="645.5,-6 645.5,-25 795.5,-25 795.5,-6 645.5,-6"/>
<text text-anchor="middle" x="720.5" y="-13" font-family="Helvetica,sans-Serif" font-size="10.00">src/Texture/RenderSystem.cpp</text>
</a>
</g>
</g>
<!-- Node6&#45;&gt;Node11 -->
<g id="edge12" class="edge">
<title>Node6&#45;&gt;Node11</title>
<path fill="none" stroke="midnightblue" d="M665.04,-61.01C680.07,-48.94 698.31,-34.3 709.67,-25.19"/>
<polygon fill="midnightblue" stroke="midnightblue" points="662.68,-58.41 657.08,-67.4 667.07,-63.87 662.68,-58.41"/>
</g>
<!-- Node12 -->
<g id="node12" class="node">
<title>Node12</title>
<g id="a_node12"><a xlink:href="TextureManager_8cpp.html" target="_top" xlink:title=" ">
<polygon fill="none" stroke="black" points="813.5,-6 813.5,-25 969.5,-25 969.5,-6 813.5,-6"/>
<text text-anchor="middle" x="891.5" y="-13" font-family="Helvetica,sans-Serif" font-size="10.00">src/Texture/TextureManager.cpp</text>
</a>
</g>
</g>
<!-- Node6&#45;&gt;Node12 -->
<g id="edge13" class="edge">
<title>Node6&#45;&gt;Node12</title>
<path fill="none" stroke="midnightblue" d="M703.82,-64.91C753.17,-52.18 819.28,-35.13 858.44,-25.03"/>
<polygon fill="midnightblue" stroke="midnightblue" points="702.68,-61.59 693.87,-67.48 704.43,-68.37 702.68,-61.59"/>
</g>
<!-- Node13 -->
<g id="node13" class="node">
<title>Node13</title>
<g id="a_node13"><a xlink:href="ClickSystem_8cpp.html" target="_top" xlink:title=" ">
<polygon fill="none" stroke="black" points="988,-6 988,-25 1107,-25 1107,-6 988,-6"/>
<text text-anchor="middle" x="1047.5" y="-13" font-family="Helvetica,sans-Serif" font-size="10.00">src/UI/ClickSystem.cpp</text>
</a>
</g>
</g>
<!-- Node6&#45;&gt;Node13 -->
<g id="edge14" class="edge">
<title>Node6&#45;&gt;Node13</title>
<path fill="none" stroke="midnightblue" d="M715.63,-71.47C784.47,-62.09 888.53,-47.14 978.5,-31 988.38,-29.23 999.01,-27.1 1008.9,-25.03"/>
<polygon fill="midnightblue" stroke="midnightblue" points="714.75,-68.06 705.31,-72.87 715.69,-75 714.75,-68.06"/>
</g>
<!-- Node14&#45;&gt;Node6 -->
<g id="edge17" class="edge">
<title>Node14&#45;&gt;Node6</title>
<path fill="none" stroke="midnightblue" d="M666.53,-125.85C660.41,-116.26 653.83,-105.94 648.69,-97.89"/>
<polygon fill="midnightblue" stroke="midnightblue" points="663.63,-127.82 671.96,-134.36 669.53,-124.05 663.63,-127.82"/>
</g>
<!-- Node14&#45;&gt;Node10 -->
<g id="edge16" class="edge">
<title>Node14&#45;&gt;Node10</title>
<path fill="none" stroke="midnightblue" d="M767.69,-131.83C874.86,-103.27 1058,-54.47 1147.76,-30.55"/>
<polygon fill="midnightblue" stroke="midnightblue" points="766.64,-128.49 757.88,-134.45 768.45,-135.25 766.64,-128.49"/>
</g>
</g>
</svg>
        <g id="navigator" transform="translate(0 0)" fill="#404254">
                <rect fill="#f2f5e9" fill-opacity="0.5" stroke="#606060" stroke-width=".5" x="0" y="0" width="60" height="60"/>
                <use id="zoomplus" xlink:href="#zoomPlus" x="17" y="9" onmousedown="handleZoom(evt,'in')"/>
                <use id="zoomminus" xlink:href="#zoomMin" x="42" y="9" onmousedown="handleZoom(evt,'out')"/>
                <use id="reset" xlink:href="#resetDef" x="30" y="36" onmousedown="handleReset()"/>
                <g id="arrowUp" xlink:href="#dirArrow" transform="translate(30 24)" onmousedown="handlePan(0,-1)">
                  <use xlink:href="#rim" fill="#404040">
                        <set attributeName="fill" to="#808080" begin="arrowUp.mouseover" end="arrowUp.mouseout"/>
                  </use>
                  <path fill="none" stroke="white" stroke-width="1.5" d="M0,-3.0v7 M-2.5,-0.5L0,-3.0L2.5,-0.5"/>
                </g>
                <g id="arrowRight" xlink:href="#dirArrow" transform="rotate(90) translate(36 -43)" onmousedown="handlePan(1,0)">
                  <use xlink:href="#rim" fill="#404040">
                        <set attributeName="fill" to="#808080" begin="arrowRight.mouseover" end="arrowRight.mouseout"/>
                  </use>
                  <path fill="none" stroke="white" stroke-width="1.5" d="M0,-3.0v7 M-2.5,-0.5L0,-3.0L2.5,-0.5"/>
                </g>
                <g id="arrowDown" xlink:href="#dirArrow" transform="rotate(180) translate(-30 -48)" onmousedown="handlePan(0,1)">
                  <use xlink:href="#rim" fill="#404040">
                        <set attributeName="fill" to="#808080" begin="arrowDown.mouseover" end="arrowDown.mouseout"/>
                  </use>
                  <path fill="none" stroke="white" stroke-width="1.5" d="M0,-3.0v7 M-2.5,-0.5L0,-3.0L2.5,-0.5"/>
                </g>
                <g id="arrowLeft" xlink:href="#dirArrow" transform="rotate(270) translate(-36 17)" onmousedown="handlePan(-1,0)">
                  <use xlink:href="#rim" fill="#404040">
                        <set attributeName="fill" to="#808080" begin="arrowLeft.mouseover" end="arrowLeft.mouseout"/>
                  </use>
                  <path fill="none" stroke="white" stroke-width="1.5" d="M0,-3.0v7 M-2.5,-0.5L0,-3.0L2.5,-0.5"/>
                </g>
        </g>
        <svg viewBox="0 0 15 15" width="100%" height="30px" preserveAspectRatio="xMaxYMin meet">
         <g id="arrow_out" transform="scale(0.3 0.3)">
          <a xlink:href="ConnectionStatus_8hpp__dep__incl_org.svg" target="_base">
           <rect id="button" ry="5" rx="5" y="6" x="6" height="38" width="38"
                fill="#f2f5e9" fill-opacity="0.5" stroke="#606060" stroke-width="1.0"/>
           <path id="arrow"
             d="M 11.500037,31.436501 C 11.940474,20.09759 22.043105,11.32322 32.158766,21.979434 L 37.068811,17.246167 C 37.068811,17.246167 37.088388,32 37.088388,32 L 22.160133,31.978069 C 22.160133,31.978069 26.997745,27.140456 26.997745,27.140456 C 18.528582,18.264221 13.291696,25.230495 11.500037,31.436501 z"
             style="fill:#404040;"/>
          </a>
         </g>
        </svg>
</svg>
