<svg xmlns="http://www.w3.org/2000/svg" xmlns:xlink="http://www.w3.org/1999/xlink" width="960" height="329pt" viewBox="0 0 719.5 329"><g id="graph0" class="graph" transform="scale(1 1) rotate(0) translate(4 325)"><title>includes/platformer-engine/Networking/ConnectionStatus.hpp</title><g id="node1" class="node"><title>Node1</title><g id="a_node1"><a><polygon fill="#bfbfbf" stroke="#000" points="119 -279.5 119 -320.5 271 -320.5 271 -279.5 119 -279.5"/><text x="127" y="-308.5" font-family="Helvetica,sans-Serif" font-size="10" text-anchor="start">includes/platformer</text><text x="127" y="-297.5" font-family="Helvetica,sans-Serif" font-size="10" text-anchor="start">-engine/Networking/Connection</text><text x="195" y="-286.5" font-family="Helvetica,sans-Serif" font-size="10" text-anchor="middle">Status.hpp</text></a></g></g><g id="node2" class="node"><title>Node2</title><g id="a_node2"><a target="_top" xlink:href="NetworkingFacade_8hpp.html"><polygon fill="none" stroke="#000" points="102 -212.5 102 -242.5 288 -242.5 288 -212.5 102 -212.5"/><text x="110" y="-230.5" font-family="Helvetica,sans-Serif" font-size="10" text-anchor="start">includes/platformer</text><text x="195" y="-219.5" font-family="Helvetica,sans-Serif" font-size="10" text-anchor="middle">-engine/Facade/NetworkingFacade.hpp</text></a></g></g><g id="edge1" class="edge"><title>Node1-&gt;Node2</title><path fill="none" stroke="#191970" d="M195,-269.08C195,-260.01 195,-250.45 195,-242.89"/><polygon fill="#191970" stroke="#191970" points="191.5 -269.36 195 -279.36 198.5 -269.36 191.5 -269.36"/></g><g id="node3" class="node"><title>Node3</title><g id="a_node3"><a target="_top" xlink:href="NetworkingFacade_8cpp.html"><polygon fill="none" stroke="#000" points="0 -73 0 -92 168 -92 168 -73 0 -73"/><text x="84" y="-80" font-family="Helvetica,sans-Serif" font-size="10" text-anchor="middle">src/Facade/NetworkingFacade.cpp</text></a></g></g><g id="edge2" class="edge"><title>Node2-&gt;Node3</title><path fill="none" stroke="#191970" d="M143.12,-207.88C128.14,-200.16 113.12,-189.72 103,-176 83.92,-150.14 82.92,-109.66 83.5,-92.1"/><polygon fill="#191970" stroke="#191970" points="141.87 -211.16 152.39 -212.34 144.9 -204.85 141.87 -211.16"/></g><g id="node4" class="node"><title>Node4</title><g id="a_node4"><a target="_top" xlink:href="ClientNetworkManager_8hpp.html"><polygon fill="none" stroke="#000" points="112.5 -134.5 112.5 -175.5 277.5 -175.5 277.5 -134.5 112.5 -134.5"/><text x="120.5" y="-163.5" font-family="Helvetica,sans-Serif" font-size="10" text-anchor="start">includes/platformer</text><text x="120.5" y="-152.5" font-family="Helvetica,sans-Serif" font-size="10" text-anchor="start">-engine/Networking/ClientNetwork</text><text x="195" y="-141.5" font-family="Helvetica,sans-Serif" font-size="10" text-anchor="middle">Manager.hpp</text></a></g></g><g id="edge3" class="edge"><title>Node2-&gt;Node4</title><path fill="none" stroke="#191970" d="M195,-201.98C195,-193.35 195,-183.76 195,-175.59"/><polygon fill="#191970" stroke="#191970" points="191.5 -202.23 195 -212.23 198.5 -202.23 191.5 -202.23"/></g><g id="node10" class="node"><title>Node10</title><g id="a_node10"><a target="_top" xlink:href="ServerNetworkManager_8hpp.html"><polygon fill="none" stroke="#000" points="295.5 -134.5 295.5 -175.5 464.5 -175.5 464.5 -134.5 295.5 -134.5"/><text x="303.5" y="-163.5" font-family="Helvetica,sans-Serif" font-size="10" text-anchor="start">includes/platformer</text><text x="303.5" y="-152.5" font-family="Helvetica,sans-Serif" font-size="10" text-anchor="start">-engine/Networking/ServerNetwork</text><text x="380" y="-141.5" font-family="Helvetica,sans-Serif" font-size="10" text-anchor="middle">Manager.hpp</text></a></g></g><g id="edge11" class="edge"><title>Node2-&gt;Node10</title><path fill="none" stroke="#191970" d="M241.45,-208.8C268.01,-198.68 301.38,-185.96 328.71,-175.55"/><polygon fill="#191970" stroke="#191970" points="240.09 -205.57 231.99 -212.4 242.58 -212.11 240.09 -205.57"/></g><g id="edge4" class="edge"><title>Node4-&gt;Node3</title><path fill="none" stroke="#191970" d="M155.37,-128.83C135.2,-116.02 111.99,-101.28 97.66,-92.17"/><polygon fill="#191970" stroke="#191970" points="153.76 -131.95 164.08 -134.36 157.52 -126.05 153.76 -131.95"/></g><g id="node5" class="node"><title>Node5</title><g id="a_node5"><a target="_top" xlink:href="ClientNetworkManager_8cpp.html"><polygon fill="none" stroke="#000" points="95.5 -.5 95.5 -30.5 242.5 -30.5 242.5 -.5 95.5 -.5"/><text x="103.5" y="-18.5" font-family="Helvetica,sans-Serif" font-size="10" text-anchor="start">src/Networking/ClientNetwork</text><text x="169" y="-7.5" font-family="Helvetica,sans-Serif" font-size="10" text-anchor="middle">Manager.cpp</text></a></g></g><g id="edge5" class="edge"><title>Node4-&gt;Node5</title><path fill="none" stroke="#191970" d="M189.39,-124.34C183.92,-95.42 175.84,-52.7 171.69,-30.72"/><polygon fill="#191970" stroke="#191970" points="185.98 -125.12 191.27 -134.3 192.86 -123.82 185.98 -125.12"/></g><g id="node6" class="node"><title>Node6</title><g id="a_node6"><a target="_top" xlink:href="Engine_8hpp.html"><polygon fill="none" stroke="#000" points="282.5 -67.5 282.5 -97.5 413.5 -97.5 413.5 -67.5 282.5 -67.5"/><text x="290.5" y="-85.5" font-family="Helvetica,sans-Serif" font-size="10" text-anchor="start">includes/platformer</text><text x="348" y="-74.5" font-family="Helvetica,sans-Serif" font-size="10" text-anchor="middle">-engine/Engine/Engine.hpp</text></a></g></g><g id="edge6" class="edge"><title>Node4-&gt;Node6</title><path fill="none" stroke="#191970" d="M246.74,-130.16C270.17,-119.36 297.06,-106.97 317.25,-97.67"/><polygon fill="#191970" stroke="#191970" points="245.24 -127 237.62 -134.36 248.17 -133.36 245.24 -127"/></g><g id="edge8" class="edge"><title>Node6-&gt;Node5</title><path fill="none" stroke="#191970" d="M299.68,-63.96C270.85,-53.48 234.72,-40.37 207.76,-30.58"/><polygon fill="#191970" stroke="#191970" points="298.57 -67.27 309.16 -67.4 300.95 -60.69 298.57 -67.27"/></g><g id="node7" class="node"><title>Node7</title><g id="a_node7"><a target="_top" xlink:href="Engine_8cpp.html"><polygon fill="none" stroke="#000" points="260.5 -6 260.5 -25 373.5 -25 373.5 -6 260.5 -6"/><text x="317" y="-13" font-family="Helvetica,sans-Serif" font-size="10" text-anchor="middle">src/Engine/Engine.cpp</text></a></g></g><g id="edge7" class="edge"><title>Node6-&gt;Node7</title><path fill="none" stroke="#191970" d="M336.93,-58.29C331.45,-46.8 325.17,-33.63 321.15,-25.19"/><polygon fill="#191970" stroke="#191970" points="333.81 -59.88 341.27 -67.4 340.13 -56.86 333.81 -59.88"/></g><g id="node8" class="node"><title>Node8</title><g id="a_node8"><a target="_top" xlink:href="ServerNetworkManager_8cpp.html"><polygon fill="none" stroke="#000" points="560.5 -.5 560.5 -30.5 711.5 -30.5 711.5 -.5 560.5 -.5"/><text x="568.5" y="-18.5" font-family="Helvetica,sans-Serif" font-size="10" text-anchor="start">src/Networking/ServerNetwork</text><text x="636" y="-7.5" font-family="Helvetica,sans-Serif" font-size="10" text-anchor="middle">Manager.cpp</text></a></g></g><g id="edge9" class="edge"><title>Node6-&gt;Node8</title><path fill="none" stroke="#191970" d="M419.99,-65.25C467.2,-54.6 528.31,-40.81 573.48,-30.61"/><polygon fill="#191970" stroke="#191970" points="419.12 -61.86 410.14 -67.48 420.66 -68.69 419.12 -61.86"/></g><g id="node9" class="node"><title>Node9</title><g id="a_node9"><a target="_top" xlink:href="RenderSystem_8cpp.html"><polygon fill="none" stroke="#000" points="392 -6 392 -25 542 -25 542 -6 392 -6"/><text x="467" y="-13" font-family="Helvetica,sans-Serif" font-size="10" text-anchor="middle">src/Texture/RenderSystem.cpp</text></a></g></g><g id="edge10" class="edge"><title>Node6-&gt;Node9</title><path fill="none" stroke="#191970" d="M382.83,-62.47C405.55,-50.06 434.1,-34.47 451.43,-25.01"/><polygon fill="#191970" stroke="#191970" points="380.92 -59.53 373.82 -67.4 384.28 -65.67 380.92 -59.53"/></g><g id="edge13" class="edge"><title>Node10-&gt;Node6</title><path fill="none" stroke="#191970" d="M366.82,-124.97C362.58,-115.63 358.07,-105.7 354.53,-97.89"/><polygon fill="#191970" stroke="#191970" points="363.77 -126.7 371.09 -134.36 370.14 -123.81 363.77 -126.7"/></g><g id="edge12" class="edge"><title>Node10-&gt;Node8</title><path fill="none" stroke="#191970" d="M425.36,-129.64C478.99,-100.83 566.42,-53.87 609.84,-30.55"/><polygon fill="#191970" stroke="#191970" points="423.56 -126.63 416.41 -134.45 426.87 -132.8 423.56 -126.63"/></g></g></svg>