<?xml version="1.0" encoding="UTF-8" standalone="no"?>
<!DOCTYPE svg PUBLIC "-//W3C//DTD SVG 1.1//EN"
 "http://www.w3.org/Graphics/SVG/1.1/DTD/svg11.dtd">
<!-- Generated by graphviz version 2.44.0 ()
 -->
<!-- Title: includes/platformer&#45;engine/Networking/ConnectionStatus.hpp Pages: 1 -->
<svg width="660pt" height="318pt"
 viewBox="0.00 0.00 659.50 318.00" xmlns="http://www.w3.org/2000/svg" xmlns:xlink="http://www.w3.org/1999/xlink">
<g id="graph0" class="graph" transform="scale(1 1) rotate(0) translate(4 314)">
<title>includes/platformer&#45;engine/Networking/ConnectionStatus.hpp</title>
<!-- Node1 -->
<g id="node1" class="node">
<title>Node1</title>
<g id="a_node1"><a xlink:title=" ">
<polygon fill="#bfbfbf" stroke="black" points="170,-268.5 170,-309.5 322,-309.5 322,-268.5 170,-268.5"/>
<text text-anchor="start" x="178" y="-297.5" font-family="Helvetica,sans-Serif" font-size="10.00">includes/platformer</text>
<text text-anchor="start" x="178" y="-286.5" font-family="Helvetica,sans-Serif" font-size="10.00">&#45;engine/Networking/Connection</text>
<text text-anchor="middle" x="246" y="-275.5" font-family="Helvetica,sans-Serif" font-size="10.00">Status.hpp</text>
</a>
</g>
</g>
<!-- Node2 -->
<g id="node2" class="node">
<title>Node2</title>
<g id="a_node2"><a xlink:href="NetworkingFacade_8hpp.html" target="_top" xlink:title=" ">
<polygon fill="none" stroke="black" points="153,-201.5 153,-231.5 339,-231.5 339,-201.5 153,-201.5"/>
<text text-anchor="start" x="161" y="-219.5" font-family="Helvetica,sans-Serif" font-size="10.00">includes/platformer</text>
<text text-anchor="middle" x="246" y="-208.5" font-family="Helvetica,sans-Serif" font-size="10.00">&#45;engine/Facade/NetworkingFacade.hpp</text>
</a>
</g>
</g>
<!-- Node1&#45;&gt;Node2 -->
<g id="edge1" class="edge">
<title>Node1&#45;&gt;Node2</title>
<path fill="none" stroke="midnightblue" d="M246,-258.08C246,-249.01 246,-239.45 246,-231.89"/>
<polygon fill="midnightblue" stroke="midnightblue" points="242.5,-258.36 246,-268.36 249.5,-258.36 242.5,-258.36"/>
</g>
<!-- Node3 -->
<g id="node3" class="node">
<title>Node3</title>
<g id="a_node3"><a xlink:href="NetworkingFacade_8cpp.html" target="_top" xlink:title=" ">
<polygon fill="none" stroke="black" points="0,-62 0,-81 168,-81 168,-62 0,-62"/>
<text text-anchor="middle" x="84" y="-69" font-family="Helvetica,sans-Serif" font-size="10.00">src/Facade/NetworkingFacade.cpp</text>
</a>
</g>
</g>
<!-- Node2&#45;&gt;Node3 -->
<g id="edge2" class="edge">
<title>Node2&#45;&gt;Node3</title>
<path fill="none" stroke="midnightblue" d="M203.39,-196.85C186.96,-188.49 168.64,-177.65 154,-165 124.13,-139.2 98.97,-98.68 88.81,-81.11"/>
<polygon fill="midnightblue" stroke="midnightblue" points="202.28,-200.2 212.8,-201.48 205.37,-193.92 202.28,-200.2"/>
</g>
<!-- Node4 -->
<g id="node4" class="node">
<title>Node4</title>
<g id="a_node4"><a xlink:href="ClientNetworkManager_8hpp.html" target="_top" xlink:title=" ">
<polygon fill="none" stroke="black" points="163.5,-123.5 163.5,-164.5 328.5,-164.5 328.5,-123.5 163.5,-123.5"/>
<text text-anchor="start" x="171.5" y="-152.5" font-family="Helvetica,sans-Serif" font-size="10.00">includes/platformer</text>
<text text-anchor="start" x="171.5" y="-141.5" font-family="Helvetica,sans-Serif" font-size="10.00">&#45;engine/Networking/ClientNetwork</text>
<text text-anchor="middle" x="246" y="-130.5" font-family="Helvetica,sans-Serif" font-size="10.00">Manager.hpp</text>
</a>
</g>
</g>
<!-- Node2&#45;&gt;Node4 -->
<g id="edge3" class="edge">
<title>Node2&#45;&gt;Node4</title>
<path fill="none" stroke="midnightblue" d="M246,-190.98C246,-182.35 246,-172.76 246,-164.59"/>
<polygon fill="midnightblue" stroke="midnightblue" points="242.5,-191.23 246,-201.23 249.5,-191.23 242.5,-191.23"/>
</g>
<!-- Node9 -->
<g id="node9" class="node">
<title>Node9</title>
<g id="a_node9"><a xlink:href="ServerNetworkManager_8hpp.html" target="_top" xlink:title=" ">
<polygon fill="none" stroke="black" points="346.5,-123.5 346.5,-164.5 515.5,-164.5 515.5,-123.5 346.5,-123.5"/>
<text text-anchor="start" x="354.5" y="-152.5" font-family="Helvetica,sans-Serif" font-size="10.00">includes/platformer</text>
<text text-anchor="start" x="354.5" y="-141.5" font-family="Helvetica,sans-Serif" font-size="10.00">&#45;engine/Networking/ServerNetwork</text>
<text text-anchor="middle" x="431" y="-130.5" font-family="Helvetica,sans-Serif" font-size="10.00">Manager.hpp</text>
</a>
</g>
</g>
<!-- Node2&#45;&gt;Node9 -->
<g id="edge9" class="edge">
<title>Node2&#45;&gt;Node9</title>
<path fill="none" stroke="midnightblue" d="M292.45,-197.8C319.01,-187.68 352.38,-174.96 379.71,-164.55"/>
<polygon fill="midnightblue" stroke="midnightblue" points="291.09,-194.57 282.99,-201.4 293.58,-201.11 291.09,-194.57"/>
</g>
<!-- Node4&#45;&gt;Node3 -->
<g id="edge4" class="edge">
<title>Node4&#45;&gt;Node3</title>
<path fill="none" stroke="midnightblue" d="M191.7,-119.37C161.49,-106.22 125.7,-90.65 103.93,-81.17"/>
<polygon fill="midnightblue" stroke="midnightblue" points="190.31,-122.58 200.87,-123.36 193.1,-116.16 190.31,-122.58"/>
</g>
<!-- Node5 -->
<g id="node5" class="node">
<title>Node5</title>
<g id="a_node5"><a xlink:href="ClientNetworkManager_8cpp.html" target="_top" xlink:title=" ">
<polygon fill="none" stroke="black" points="186.5,-56.5 186.5,-86.5 333.5,-86.5 333.5,-56.5 186.5,-56.5"/>
<text text-anchor="start" x="194.5" y="-74.5" font-family="Helvetica,sans-Serif" font-size="10.00">src/Networking/ClientNetwork</text>
<text text-anchor="middle" x="260" y="-63.5" font-family="Helvetica,sans-Serif" font-size="10.00">Manager.cpp</text>
</a>
</g>
</g>
<!-- Node4&#45;&gt;Node5 -->
<g id="edge5" class="edge">
<title>Node4&#45;&gt;Node5</title>
<path fill="none" stroke="midnightblue" d="M251.88,-113.38C253.7,-104.21 255.62,-94.53 257.14,-86.89"/>
<polygon fill="midnightblue" stroke="midnightblue" points="248.41,-112.87 249.9,-123.36 255.28,-114.24 248.41,-112.87"/>
</g>
<!-- Node6 -->
<g id="node6" class="node">
<title>Node6</title>
<g id="a_node6"><a xlink:href="Engine_8hpp.html" target="_top" xlink:title=" ">
<polygon fill="none" stroke="black" points="351.5,-56.5 351.5,-86.5 482.5,-86.5 482.5,-56.5 351.5,-56.5"/>
<text text-anchor="start" x="359.5" y="-74.5" font-family="Helvetica,sans-Serif" font-size="10.00">includes/platformer</text>
<text text-anchor="middle" x="417" y="-63.5" font-family="Helvetica,sans-Serif" font-size="10.00">&#45;engine/Engine/Engine.hpp</text>
</a>
</g>
</g>
<!-- Node4&#45;&gt;Node6 -->
<g id="edge6" class="edge">
<title>Node4&#45;&gt;Node6</title>
<path fill="none" stroke="midnightblue" d="M303.17,-119.43C329.61,-108.53 360.12,-95.95 382.9,-86.56"/>
<polygon fill="midnightblue" stroke="midnightblue" points="301.54,-116.31 293.63,-123.36 304.21,-122.79 301.54,-116.31"/>
</g>
<!-- Node7 -->
<g id="node7" class="node">
<title>Node7</title>
<g id="a_node7"><a xlink:href="Engine_8cpp.html" target="_top" xlink:title=" ">
<polygon fill="none" stroke="black" points="285.5,-0.5 285.5,-19.5 398.5,-19.5 398.5,-0.5 285.5,-0.5"/>
<text text-anchor="middle" x="342" y="-7.5" font-family="Helvetica,sans-Serif" font-size="10.00">src/Engine/Engine.cpp</text>
</a>
</g>
</g>
<!-- Node6&#45;&gt;Node7 -->
<g id="edge7" class="edge">
<title>Node6&#45;&gt;Node7</title>
<path fill="none" stroke="midnightblue" d="M391.03,-49.89C377.98,-39.54 362.87,-27.56 352.91,-19.66"/>
<polygon fill="midnightblue" stroke="midnightblue" points="389.22,-52.93 399.23,-56.4 393.57,-47.44 389.22,-52.93"/>
</g>
<!-- Node8 -->
<g id="node8" class="node">
<title>Node8</title>
<g id="a_node8"><a xlink:href="RenderSystem_8cpp.html" target="_top" xlink:title=" ">
<polygon fill="none" stroke="black" points="417,-0.5 417,-19.5 567,-19.5 567,-0.5 417,-0.5"/>
<text text-anchor="middle" x="492" y="-7.5" font-family="Helvetica,sans-Serif" font-size="10.00">src/Texture/RenderSystem.cpp</text>
</a>
</g>
</g>
<!-- Node6&#45;&gt;Node8 -->
<g id="edge8" class="edge">
<title>Node6&#45;&gt;Node8</title>
<path fill="none" stroke="midnightblue" d="M442.97,-49.89C456.02,-39.54 471.13,-27.56 481.09,-19.66"/>
<polygon fill="midnightblue" stroke="midnightblue" points="440.43,-47.44 434.77,-56.4 444.78,-52.93 440.43,-47.44"/>
</g>
<!-- Node9&#45;&gt;Node6 -->
<g id="edge11" class="edge">
<title>Node9&#45;&gt;Node6</title>
<path fill="none" stroke="midnightblue" d="M425.12,-113.38C423.3,-104.21 421.38,-94.53 419.86,-86.89"/>
<polygon fill="midnightblue" stroke="midnightblue" points="421.72,-114.24 427.1,-123.36 428.59,-112.87 421.72,-114.24"/>
</g>
<!-- Node10 -->
<g id="node10" class="node">
<title>Node10</title>
<g id="a_node10"><a xlink:href="ServerNetworkManager_8cpp.html" target="_top" xlink:title=" ">
<polygon fill="none" stroke="black" points="500.5,-56.5 500.5,-86.5 651.5,-86.5 651.5,-56.5 500.5,-56.5"/>
<text text-anchor="start" x="508.5" y="-74.5" font-family="Helvetica,sans-Serif" font-size="10.00">src/Networking/ServerNetwork</text>
<text text-anchor="middle" x="576" y="-63.5" font-family="Helvetica,sans-Serif" font-size="10.00">Manager.cpp</text>
</a>
</g>
</g>
<!-- Node9&#45;&gt;Node10 -->
<g id="edge10" class="edge">
<title>Node9&#45;&gt;Node10</title>
<path fill="none" stroke="midnightblue" d="M480.63,-118.87C502.69,-108.15 527.9,-95.89 546.86,-86.67"/>
<polygon fill="midnightblue" stroke="midnightblue" points="478.85,-115.84 471.39,-123.36 481.91,-122.14 478.85,-115.84"/>
</g>
</g>
</svg>
