<?xml version="1.0" encoding="UTF-8" standalone="no"?>
<!DOCTYPE svg PUBLIC "-//W3C//DTD SVG 1.1//EN"
 "http://www.w3.org/Graphics/SVG/1.1/DTD/svg11.dtd">
<!-- Generated by graphviz version 2.44.0 ()
 -->
<!-- Title: includes/spic&#45;prj&#45;api/Debug.hpp Pages: 1 -->
<svg width="1144pt" height="95pt"
 viewBox="0.00 0.00 1144.00 95.00" xmlns="http://www.w3.org/2000/svg" xmlns:xlink="http://www.w3.org/1999/xlink">
<g id="graph0" class="graph" transform="scale(1 1) rotate(0) translate(4 91)">
<title>includes/spic&#45;prj&#45;api/Debug.hpp</title>
<!-- Node1 -->
<g id="node1" class="node">
<title>Node1</title>
<g id="a_node1"><a xlink:title=" ">
<polygon fill="#bfbfbf" stroke="black" points="510.5,-56.5 510.5,-86.5 613.5,-86.5 613.5,-56.5 510.5,-56.5"/>
<text text-anchor="start" x="518.5" y="-74.5" font-family="Helvetica,sans-Serif" font-size="10.00">includes/spic&#45;prj&#45;api</text>
<text text-anchor="middle" x="562" y="-63.5" font-family="Helvetica,sans-Serif" font-size="10.00">/Debug.hpp</text>
</a>
</g>
</g>
<!-- Node2 -->
<g id="node2" class="node">
<title>Node2</title>
<g id="a_node2"><a xlink:href="Input_8cpp.html" target="_top" xlink:title=" ">
<polygon fill="none" stroke="black" points="0,-0.5 0,-19.5 92,-19.5 92,-0.5 0,-0.5"/>
<text text-anchor="middle" x="46" y="-7.5" font-family="Helvetica,sans-Serif" font-size="10.00">src/API/Input.cpp</text>
</a>
</g>
</g>
<!-- Node1&#45;&gt;Node2 -->
<g id="edge1" class="edge">
<title>Node1&#45;&gt;Node2</title>
<path fill="none" stroke="midnightblue" d="M500.24,-64.79C411.68,-56.35 243.54,-39.46 101,-20 98.12,-19.61 95.17,-19.18 92.19,-18.74"/>
<polygon fill="midnightblue" stroke="midnightblue" points="500.1,-68.29 510.38,-65.75 500.76,-61.32 500.1,-68.29"/>
</g>
<!-- Node3 -->
<g id="node3" class="node">
<title>Node3</title>
<g id="a_node3"><a xlink:href="Debug_8cpp.html" target="_top" xlink:title=" ">
<polygon fill="none" stroke="black" points="110,-0.5 110,-19.5 220,-19.5 220,-0.5 110,-0.5"/>
<text text-anchor="middle" x="165" y="-7.5" font-family="Helvetica,sans-Serif" font-size="10.00">src/Debug/Debug.cpp</text>
</a>
</g>
</g>
<!-- Node1&#45;&gt;Node3 -->
<g id="edge2" class="edge">
<title>Node1&#45;&gt;Node3</title>
<path fill="none" stroke="midnightblue" d="M500.09,-61.22C423.3,-49.71 293.59,-30.27 220.1,-19.26"/>
<polygon fill="midnightblue" stroke="midnightblue" points="499.69,-64.7 510.1,-62.72 500.73,-57.78 499.69,-64.7"/>
</g>
<!-- Node4 -->
<g id="node4" class="node">
<title>Node4</title>
<g id="a_node4"><a xlink:href="GraphicsFacade_8cpp.html" target="_top" xlink:title=" ">
<polygon fill="none" stroke="black" points="238,-0.5 238,-19.5 396,-19.5 396,-0.5 238,-0.5"/>
<text text-anchor="middle" x="317" y="-7.5" font-family="Helvetica,sans-Serif" font-size="10.00">src/Facade/GraphicsFacade.cpp</text>
</a>
</g>
</g>
<!-- Node1&#45;&gt;Node4 -->
<g id="edge3" class="edge">
<title>Node1&#45;&gt;Node4</title>
<path fill="none" stroke="midnightblue" d="M500.59,-55.59C453.66,-44.19 390.67,-28.89 352,-19.5"/>
<polygon fill="midnightblue" stroke="midnightblue" points="499.8,-59 510.34,-57.95 501.45,-52.19 499.8,-59"/>
</g>
<!-- Node5 -->
<g id="node5" class="node">
<title>Node5</title>
<g id="a_node5"><a xlink:href="InputFacade_8cpp.html" target="_top" xlink:title=" ">
<polygon fill="none" stroke="black" points="414,-0.5 414,-19.5 554,-19.5 554,-0.5 414,-0.5"/>
<text text-anchor="middle" x="484" y="-7.5" font-family="Helvetica,sans-Serif" font-size="10.00">src/Facade/InputFacade.cpp</text>
</a>
</g>
</g>
<!-- Node1&#45;&gt;Node5 -->
<g id="edge4" class="edge">
<title>Node1&#45;&gt;Node5</title>
<path fill="none" stroke="midnightblue" d="M535.37,-50.19C521.72,-39.77 505.8,-27.63 495.35,-19.66"/>
<polygon fill="midnightblue" stroke="midnightblue" points="533.44,-53.12 543.52,-56.4 537.69,-47.55 533.44,-53.12"/>
</g>
<!-- Node6 -->
<g id="node6" class="node">
<title>Node6</title>
<g id="a_node6"><a xlink:href="TMXParser_8cpp.html" target="_top" xlink:title=" ">
<polygon fill="none" stroke="black" points="572,-0.5 572,-19.5 708,-19.5 708,-0.5 572,-0.5"/>
<text text-anchor="middle" x="640" y="-7.5" font-family="Helvetica,sans-Serif" font-size="10.00">src/Facade/TMXParser.cpp</text>
</a>
</g>
</g>
<!-- Node1&#45;&gt;Node6 -->
<g id="edge5" class="edge">
<title>Node1&#45;&gt;Node6</title>
<path fill="none" stroke="midnightblue" d="M588.63,-50.19C602.28,-39.77 618.2,-27.63 628.65,-19.66"/>
<polygon fill="midnightblue" stroke="midnightblue" points="586.31,-47.55 580.48,-56.4 590.56,-53.12 586.31,-47.55"/>
</g>
<!-- Node7 -->
<g id="node7" class="node">
<title>Node7</title>
<g id="a_node7"><a xlink:href="LevelParser_8cpp.html" target="_top" xlink:title=" ">
<polygon fill="none" stroke="black" points="726.5,-0.5 726.5,-19.5 885.5,-19.5 885.5,-0.5 726.5,-0.5"/>
<text text-anchor="middle" x="806" y="-7.5" font-family="Helvetica,sans-Serif" font-size="10.00">src/LevelParser/LevelParser.cpp</text>
</a>
</g>
</g>
<!-- Node1&#45;&gt;Node7 -->
<g id="edge6" class="edge">
<title>Node1&#45;&gt;Node7</title>
<path fill="none" stroke="midnightblue" d="M623.73,-55.45C670.29,-44.09 732.49,-28.93 770.86,-19.57"/>
<polygon fill="midnightblue" stroke="midnightblue" points="622.63,-52.11 613.75,-57.88 624.29,-58.91 622.63,-52.11"/>
</g>
<!-- Node8 -->
<g id="node8" class="node">
<title>Node8</title>
<g id="a_node8"><a xlink:href="Scene_8cpp.html" target="_top" xlink:title=" ">
<polygon fill="none" stroke="black" points="904,-0.5 904,-19.5 1014,-19.5 1014,-0.5 904,-0.5"/>
<text text-anchor="middle" x="959" y="-7.5" font-family="Helvetica,sans-Serif" font-size="10.00">src/Scene/Scene.cpp</text>
</a>
</g>
</g>
<!-- Node1&#45;&gt;Node8 -->
<g id="edge7" class="edge">
<title>Node1&#45;&gt;Node8</title>
<path fill="none" stroke="midnightblue" d="M623.91,-61.22C700.7,-49.71 830.41,-30.27 903.9,-19.26"/>
<polygon fill="midnightblue" stroke="midnightblue" points="623.27,-57.78 613.9,-62.72 624.31,-64.7 623.27,-57.78"/>
</g>
<!-- Node9 -->
<g id="node9" class="node">
<title>Node9</title>
<g id="a_node9"><a xlink:href="Timer_8cpp.html" target="_top" xlink:title=" ">
<polygon fill="none" stroke="black" points="1032,-0.5 1032,-19.5 1136,-19.5 1136,-0.5 1032,-0.5"/>
<text text-anchor="middle" x="1084" y="-7.5" font-family="Helvetica,sans-Serif" font-size="10.00">src/Timer/Timer.cpp</text>
</a>
</g>
</g>
<!-- Node1&#45;&gt;Node9 -->
<g id="edge8" class="edge">
<title>Node1&#45;&gt;Node9</title>
<path fill="none" stroke="midnightblue" d="M623.72,-64.48C712.23,-55.68 880.32,-38.33 1023,-20 1025.87,-19.63 1028.81,-19.24 1031.77,-18.84"/>
<polygon fill="midnightblue" stroke="midnightblue" points="623.19,-61.01 613.58,-65.48 623.88,-67.98 623.19,-61.01"/>
</g>
</g>
</svg>
