<svg xmlns="http://www.w3.org/2000/svg" xmlns:xlink="http://www.w3.org/1999/xlink" id="main" onload="init(evt)" version="1.1" xml:space="preserve"><style type="text/css">.edge:hover path{stroke:red}.edge:hover polygon{stroke:red;fill:red}</style><script type="text/javascript"><![CDATA[
var edges = document.getElementsByTagName('g');
if (edges && edges.length) {
  for (var i=0;i<edges.length;i++) {
    if (edges[i].id.substr(0,4)=='edge') {
      edges[i].setAttribute('class','edge');
    }
  }
}
]]></script><defs><circle id="rim" cx="0" cy="0" r="7"/><circle id="rim2" cx="0" cy="0" r="3.5"/><g id="zoomPlus"><use fill="#404040" xlink:href="#rim"><set attributeName="fill" begin="zoomplus.mouseover" end="zoomplus.mouseout" to="#808080"/></use><path fill="none" stroke="#fff" stroke-width="1.5" d="M-4,0h8M0,-4v8" pointer-events="none"/></g><g id="zoomMin"><use fill="#404040" xlink:href="#rim"><set attributeName="fill" begin="zoomminus.mouseover" end="zoomminus.mouseout" to="#808080"/></use><path fill="none" stroke="#fff" stroke-width="1.5" d="M-4,0h8" pointer-events="none"/></g><g id="dirArrow"><path fill="none" stroke="#fff" stroke-width="1.5" d="M0,-3.0v7 M-2.5,-0.5L0,-3.0L2.5,-0.5"/></g><g id="resetDef"><use fill="#404040" xlink:href="#rim2"><set attributeName="fill" begin="reset.mouseover" end="reset.mouseout" to="#808080"/></use></g></defs><script type="text/javascript">var viewWidth = 1557; var viewHeight = 318; var sectionId = &apos;dynsection-1&apos;;</script><script xlink:href="svgpan.js"/><svg id="graph" class="graph"><g id="viewport"><title>includes/spic-prj-api/Debug.hpp</title><g id="node1" class="node"><title>Node1</title><g id="a_node1"><a><polygon fill="#bfbfbf" stroke="#000" points="671.5 -279.5 671.5 -309.5 774.5 -309.5 774.5 -279.5 671.5 -279.5"/><text x="679.5" y="-297.5" font-family="Helvetica,sans-Serif" font-size="10" text-anchor="start">includes/spic-prj-api</text><text x="723" y="-286.5" font-family="Helvetica,sans-Serif" font-size="10" text-anchor="middle">/Debug.hpp</text></a></g></g><g id="node2" class="node"><title>Node2</title><g id="a_node2"><a target="_top" xlink:href="Input_8cpp.html"><polygon fill="none" stroke="#000" points="0 -218 0 -237 92 -237 92 -218 0 -218"/><text x="46" y="-225" font-family="Helvetica,sans-Serif" font-size="10" text-anchor="middle">src/API/Input.cpp</text></a></g></g><g id="edge1" class="edge"><title>Node1-&gt;Node2</title><path fill="none" stroke="#191970" d="M661.3,-292.1C549.04,-288.75 304.23,-277.76 101,-243 92.34,-241.52 83.05,-239.31 74.62,-237.07"/><polygon fill="#191970" stroke="#191970" points="661.32 -295.6 671.42 -292.39 661.52 -288.6 661.32 -295.6"/></g><g id="node3" class="node"><title>Node3</title><g id="a_node3"><a target="_top" xlink:href="Debug_8cpp.html"><polygon fill="none" stroke="#000" points="110 -218 110 -237 220 -237 220 -218 110 -218"/><text x="165" y="-225" font-family="Helvetica,sans-Serif" font-size="10" text-anchor="middle">src/Debug/Debug.cpp</text></a></g></g><g id="edge2" class="edge"><title>Node1-&gt;Node3</title><path fill="none" stroke="#191970" d="M660.99,-289.58C567.08,-283.1 383.37,-268.28 229,-243 219.22,-241.4 208.69,-239.21 199.06,-237.02"/><polygon fill="#191970" stroke="#191970" points="660.95 -293.08 671.17 -290.27 661.43 -286.1 660.95 -293.08"/></g><g id="node4" class="node"><title>Node4</title><g id="a_node4"><a target="_top" xlink:href="GraphicsFacade_8cpp.html"><polygon fill="none" stroke="#000" points="238 -218 238 -237 396 -237 396 -218 238 -218"/><text x="317" y="-225" font-family="Helvetica,sans-Serif" font-size="10" text-anchor="middle">src/Facade/GraphicsFacade.cpp</text></a></g></g><g id="edge3" class="edge"><title>Node1-&gt;Node4</title><path fill="none" stroke="#191970" d="M661.55,-283.85C597.49,-273.76 494.18,-257.43 405,-243 393.23,-241.1 380.58,-239.03 368.64,-237.06"/><polygon fill="#191970" stroke="#191970" points="661.06 -287.32 671.49 -285.41 662.15 -280.4 661.06 -287.32"/></g><g id="node5" class="node"><title>Node5</title><g id="a_node5"><a target="_top" xlink:href="InputFacade_8cpp.html"><polygon fill="none" stroke="#000" points="414 -218 414 -237 554 -237 554 -218 414 -218"/><text x="484" y="-225" font-family="Helvetica,sans-Serif" font-size="10" text-anchor="middle">src/Facade/InputFacade.cpp</text></a></g></g><g id="edge4" class="edge"><title>Node1-&gt;Node5</title><path fill="none" stroke="#191970" d="M661.71,-276.83C614.93,-264.11 552.41,-247.11 515.36,-237.03"/><polygon fill="#191970" stroke="#191970" points="660.87 -280.23 671.43 -279.48 662.7 -273.47 660.87 -280.23"/></g><g id="node6" class="node"><title>Node6</title><g id="a_node6"><a target="_top" xlink:href="TMXParser_8cpp.html"><polygon fill="none" stroke="#000" points="572 -218 572 -237 708 -237 708 -218 572 -218"/><text x="640" y="-225" font-family="Helvetica,sans-Serif" font-size="10" text-anchor="middle">src/Facade/TMXParser.cpp</text></a></g></g><g id="edge5" class="edge"><title>Node1-&gt;Node6</title><path fill="none" stroke="#191970" d="M696.83,-273.01C681.42,-260.94 662.74,-246.3 651.1,-237.19"/><polygon fill="#191970" stroke="#191970" points="694.96 -275.99 704.99 -279.4 699.28 -270.47 694.96 -275.99"/></g><g id="node7" class="node"><title>Node7</title><g id="a_node7"><a target="_top" xlink:href="LevelParser_8cpp.html"><polygon fill="none" stroke="#000" points="726.5 -218 726.5 -237 885.5 -237 885.5 -218 726.5 -218"/><text x="806" y="-225" font-family="Helvetica,sans-Serif" font-size="10" text-anchor="middle">src/LevelParser/LevelParser.cpp</text></a></g></g><g id="edge6" class="edge"><title>Node1-&gt;Node7</title><path fill="none" stroke="#191970" d="M749.17,-273.01C764.58,-260.94 783.26,-246.3 794.9,-237.19"/><polygon fill="#191970" stroke="#191970" points="746.72 -270.47 741.01 -279.4 751.04 -275.99 746.72 -270.47"/></g><g id="node8" class="node"><title>Node8</title><g id="a_node8"><a target="_top" xlink:href="ClientNetworkManager_8cpp.html"><polygon fill="none" stroke="#000" points="932.5 -.5 932.5 -30.5 1079.5 -30.5 1079.5 -.5 932.5 -.5"/><text x="940.5" y="-18.5" font-family="Helvetica,sans-Serif" font-size="10" text-anchor="start">src/Networking/ClientNetwork</text><text x="1006" y="-7.5" font-family="Helvetica,sans-Serif" font-size="10" text-anchor="middle">Manager.cpp</text></a></g></g><g id="edge7" class="edge"><title>Node1-&gt;Node8</title><path fill="none" stroke="#191970" d="M784.74,-287.56C820.1,-281.38 863.38,-268.75 894,-243 964.16,-183.98 994.41,-70.36 1003.16,-30.63"/><polygon fill="#191970" stroke="#191970" points="783.83 -284.16 774.52 -289.21 784.95 -291.07 783.83 -284.16"/></g><g id="node9" class="node"><title>Node9</title><g id="a_node9"><a target="_top" xlink:href="Scene_8cpp.html"><polygon fill="none" stroke="#000" points="941 -218 941 -237 1051 -237 1051 -218 941 -218"/><text x="996" y="-225" font-family="Helvetica,sans-Serif" font-size="10" text-anchor="middle">src/Scene/Scene.cpp</text></a></g></g><g id="edge8" class="edge"><title>Node1-&gt;Node9</title><path fill="none" stroke="#191970" d="M784.5,-278.86C838.63,-265.97 915.59,-247.65 960.2,-237.02"/><polygon fill="#191970" stroke="#191970" points="783.59 -275.48 774.67 -281.2 785.21 -282.29 783.59 -275.48"/></g><g id="node10" class="node"><title>Node10</title><g id="a_node10"><a target="_top" xlink:href="Timer_8cpp.html"><polygon fill="none" stroke="#000" points="1069 -218 1069 -237 1173 -237 1173 -218 1069 -218"/><text x="1121" y="-225" font-family="Helvetica,sans-Serif" font-size="10" text-anchor="middle">src/Timer/Timer.cpp</text></a></g></g><g id="edge9" class="edge"><title>Node1-&gt;Node10</title><path fill="none" stroke="#191970" d="M784.7,-285.85C852.48,-277.07 964.42,-261.49 1060,-243 1068.87,-241.28 1078.4,-239.16 1087.23,-237.07"/><polygon fill="#191970" stroke="#191970" points="784.09 -282.4 774.62 -287.15 784.98 -289.34 784.09 -282.4"/></g><g id="node11" class="node"><title>Node11</title><g id="a_node11"><a target="_top" xlink:href="NetworkingFacade_8hpp.html"><polygon fill="none" stroke="#000" points="1191 -212.5 1191 -242.5 1377 -242.5 1377 -212.5 1191 -212.5"/><text x="1199" y="-230.5" font-family="Helvetica,sans-Serif" font-size="10" text-anchor="start">includes/platformer</text><text x="1284" y="-219.5" font-family="Helvetica,sans-Serif" font-size="10" text-anchor="middle">-engine/Facade/NetworkingFacade.hpp</text></a></g></g><g id="edge10" class="edge"><title>Node1-&gt;Node11</title><path fill="none" stroke="#191970" d="M784.79,-287.33C873,-278.38 1040.07,-260.89 1182,-243 1184.93,-242.63 1187.9,-242.25 1190.9,-241.86"/><polygon fill="#191970" stroke="#191970" points="784.29 -283.86 774.69 -288.35 784.99 -290.83 784.29 -283.86"/></g><g id="node12" class="node"><title>Node12</title><g id="a_node12"><a target="_top" xlink:href="NetworkingFacade_8cpp.html"><polygon fill="none" stroke="#000" points="1014 -73 1014 -92 1182 -92 1182 -73 1014 -73"/><text x="1098" y="-80" font-family="Helvetica,sans-Serif" font-size="10" text-anchor="middle">src/Facade/NetworkingFacade.cpp</text></a></g></g><g id="edge11" class="edge"><title>Node11-&gt;Node12</title><path fill="none" stroke="#191970" d="M1202.95,-209.98C1167.04,-201.08 1130.17,-189.22 1118,-176 1096.07,-152.19 1096.05,-110.25 1097.2,-92.18"/><polygon fill="#191970" stroke="#191970" points="1202.49 -213.47 1213.03 -212.41 1204.13 -206.67 1202.49 -213.47"/></g><g id="node13" class="node"><title>Node13</title><g id="a_node13"><a target="_top" xlink:href="ClientNetworkManager_8hpp.html"><polygon fill="none" stroke="#000" points="1127.5 -134.5 1127.5 -175.5 1292.5 -175.5 1292.5 -134.5 1127.5 -134.5"/><text x="1135.5" y="-163.5" font-family="Helvetica,sans-Serif" font-size="10" text-anchor="start">includes/platformer</text><text x="1135.5" y="-152.5" font-family="Helvetica,sans-Serif" font-size="10" text-anchor="start">-engine/Networking/ClientNetwork</text><text x="1210" y="-141.5" font-family="Helvetica,sans-Serif" font-size="10" text-anchor="middle">Manager.hpp</text></a></g></g><g id="edge12" class="edge"><title>Node11-&gt;Node13</title><path fill="none" stroke="#191970" d="M1261.54,-205.1C1251.68,-195.71 1240.19,-184.76 1230.56,-175.59"/><polygon fill="#191970" stroke="#191970" points="1259.37 -207.87 1269.02 -212.23 1264.2 -202.8 1259.37 -207.87"/></g><g id="node18" class="node"><title>Node18</title><g id="a_node18"><a target="_top" xlink:href="ServerNetworkManager_8hpp.html"><polygon fill="none" stroke="#000" points="1310.5 -134.5 1310.5 -175.5 1479.5 -175.5 1479.5 -134.5 1310.5 -134.5"/><text x="1318.5" y="-163.5" font-family="Helvetica,sans-Serif" font-size="10" text-anchor="start">includes/platformer</text><text x="1318.5" y="-152.5" font-family="Helvetica,sans-Serif" font-size="10" text-anchor="start">-engine/Networking/ServerNetwork</text><text x="1395" y="-141.5" font-family="Helvetica,sans-Serif" font-size="10" text-anchor="middle">Manager.hpp</text></a></g></g><g id="edge20" class="edge"><title>Node11-&gt;Node18</title><path fill="none" stroke="#191970" d="M1314.81,-206.93C1330.15,-197.19 1348.65,-185.44 1364.01,-175.68"/><polygon fill="#191970" stroke="#191970" points="1312.76 -204.09 1306.2 -212.4 1316.51 -210 1312.76 -204.09"/></g><g id="edge14" class="edge"><title>Node13-&gt;Node8</title><path fill="none" stroke="#191970" d="M1210.92,-124.3C1209.89,-105.57 1205.4,-82.16 1191,-67 1182.37,-57.92 1119.95,-42.06 1069.97,-30.53"/><polygon fill="#191970" stroke="#191970" points="1207.42 -124.5 1211.17 -134.41 1214.42 -124.32 1207.42 -124.5"/></g><g id="edge13" class="edge"><title>Node13-&gt;Node12</title><path fill="none" stroke="#191970" d="M1170.28,-129C1149.88,-116.15 1126.31,-101.32 1111.78,-92.17"/><polygon fill="#191970" stroke="#191970" points="1168.47 -132 1178.8 -134.36 1172.2 -126.07 1168.47 -132"/></g><g id="node14" class="node"><title>Node14</title><g id="a_node14"><a target="_top" xlink:href="Engine_8hpp.html"><polygon fill="none" stroke="#000" points="1238.5 -67.5 1238.5 -97.5 1369.5 -97.5 1369.5 -67.5 1238.5 -67.5"/><text x="1246.5" y="-85.5" font-family="Helvetica,sans-Serif" font-size="10" text-anchor="start">includes/platformer</text><text x="1304" y="-74.5" font-family="Helvetica,sans-Serif" font-size="10" text-anchor="middle">-engine/Engine/Engine.hpp</text></a></g></g><g id="edge15" class="edge"><title>Node13-&gt;Node14</title><path fill="none" stroke="#191970" d="M1244.49,-128.14C1258.21,-117.84 1273.47,-106.39 1285.11,-97.67"/><polygon fill="#191970" stroke="#191970" points="1242.08 -125.56 1236.18 -134.36 1246.28 -131.16 1242.08 -125.56"/></g><g id="edge17" class="edge"><title>Node14-&gt;Node8</title><path fill="none" stroke="#191970" d="M1229.8,-65.32C1180.82,-54.63 1117.29,-40.77 1070.44,-30.55"/><polygon fill="#191970" stroke="#191970" points="1229.19 -68.76 1239.71 -67.48 1230.68 -61.93 1229.19 -68.76"/></g><g id="node15" class="node"><title>Node15</title><g id="a_node15"><a target="_top" xlink:href="Engine_8cpp.html"><polygon fill="none" stroke="#000" points="1097.5 -6 1097.5 -25 1210.5 -25 1210.5 -6 1097.5 -6"/><text x="1154" y="-13" font-family="Helvetica,sans-Serif" font-size="10" text-anchor="middle">src/Engine/Engine.cpp</text></a></g></g><g id="edge16" class="edge"><title>Node14-&gt;Node15</title><path fill="none" stroke="#191970" d="M1261.99,-63.3C1233.06,-50.76 1195.96,-34.68 1173.63,-25.01"/><polygon fill="#191970" stroke="#191970" points="1260.89 -66.63 1271.45 -67.4 1263.67 -60.21 1260.89 -66.63"/></g><g id="node16" class="node"><title>Node16</title><g id="a_node16"><a target="_top" xlink:href="ServerNetworkManager_8cpp.html"><polygon fill="none" stroke="#000" points="1397.5 -.5 1397.5 -30.5 1548.5 -30.5 1548.5 -.5 1397.5 -.5"/><text x="1405.5" y="-18.5" font-family="Helvetica,sans-Serif" font-size="10" text-anchor="start">src/Networking/ServerNetwork</text><text x="1473" y="-7.5" font-family="Helvetica,sans-Serif" font-size="10" text-anchor="middle">Manager.cpp</text></a></g></g><g id="edge18" class="edge"><title>Node14-&gt;Node16</title><path fill="none" stroke="#191970" d="M1350.33,-63.68C1377.43,-53.26 1411.17,-40.28 1436.4,-30.58"/><polygon fill="#191970" stroke="#191970" points="1348.75 -60.54 1340.67 -67.4 1351.26 -67.07 1348.75 -60.54"/></g><g id="node17" class="node"><title>Node17</title><g id="a_node17"><a target="_top" xlink:href="RenderSystem_8cpp.html"><polygon fill="none" stroke="#000" points="1229 -6 1229 -25 1379 -25 1379 -6 1229 -6"/><text x="1304" y="-13" font-family="Helvetica,sans-Serif" font-size="10" text-anchor="middle">src/Texture/RenderSystem.cpp</text></a></g></g><g id="edge19" class="edge"><title>Node14-&gt;Node17</title><path fill="none" stroke="#191970" d="M1304,-57.25C1304,-46.02 1304,-33.38 1304,-25.19"/><polygon fill="#191970" stroke="#191970" points="1300.5 -57.4 1304 -67.4 1307.5 -57.4 1300.5 -57.4"/></g><g id="edge22" class="edge"><title>Node18-&gt;Node14</title><path fill="none" stroke="#191970" d="M1361.61,-128.14C1348.33,-117.84 1333.55,-106.39 1322.29,-97.67"/><polygon fill="#191970" stroke="#191970" points="1359.6 -131 1369.65 -134.36 1363.89 -125.47 1359.6 -131"/></g><g id="edge21" class="edge"><title>Node18-&gt;Node16</title><path fill="none" stroke="#191970" d="M1411.18,-125.47C1427.59,-96.55 1452.3,-52.99 1464.94,-30.72"/><polygon fill="#191970" stroke="#191970" points="1408.07 -123.87 1406.18 -134.3 1414.15 -127.33 1408.07 -123.87"/></g></g></svg><g id="navigator" fill="#404254" transform="translate(0 0)"><rect width="60" height="60" x="0" y="0" fill="#f2f5e9" fill-opacity=".5" stroke="#606060" stroke-width=".5"/><use id="zoomplus" x="17" y="9" onmousedown="handleZoom(evt,'in')" xlink:href="#zoomPlus"/><use id="zoomminus" x="42" y="9" onmousedown="handleZoom(evt,'out')" xlink:href="#zoomMin"/><use id="reset" x="30" y="36" onmousedown="handleReset()" xlink:href="#resetDef"/><g id="arrowUp" onmousedown="handlePan(0,-1)" transform="translate(30 24)" xlink:href="#dirArrow"><use fill="#404040" xlink:href="#rim"><set attributeName="fill" begin="arrowUp.mouseover" end="arrowUp.mouseout" to="#808080"/></use><path fill="none" stroke="#fff" stroke-width="1.5" d="M0,-3.0v7 M-2.5,-0.5L0,-3.0L2.5,-0.5"/></g><g id="arrowRight" onmousedown="handlePan(1,0)" transform="rotate(90) translate(36 -43)" xlink:href="#dirArrow"><use fill="#404040" xlink:href="#rim"><set attributeName="fill" begin="arrowRight.mouseover" end="arrowRight.mouseout" to="#808080"/></use><path fill="none" stroke="#fff" stroke-width="1.5" d="M0,-3.0v7 M-2.5,-0.5L0,-3.0L2.5,-0.5"/></g><g id="arrowDown" onmousedown="handlePan(0,1)" transform="rotate(180) translate(-30 -48)" xlink:href="#dirArrow"><use fill="#404040" xlink:href="#rim"><set attributeName="fill" begin="arrowDown.mouseover" end="arrowDown.mouseout" to="#808080"/></use><path fill="none" stroke="#fff" stroke-width="1.5" d="M0,-3.0v7 M-2.5,-0.5L0,-3.0L2.5,-0.5"/></g><g id="arrowLeft" onmousedown="handlePan(-1,0)" transform="rotate(270) translate(-36 17)" xlink:href="#dirArrow"><use fill="#404040" xlink:href="#rim"><set attributeName="fill" begin="arrowLeft.mouseover" end="arrowLeft.mouseout" to="#808080"/></use><path fill="none" stroke="#fff" stroke-width="1.5" d="M0,-3.0v7 M-2.5,-0.5L0,-3.0L2.5,-0.5"/></g></g><svg width="100%" height="30" preserveAspectRatio="xMaxYMin meet" viewBox="0 0 15 15"><g id="arrow_out" transform="scale(0.3 0.3)"><a target="_base" xlink:href="Debug_8hpp__dep__incl_org.svg"><rect id="button" width="38" height="38" x="6" y="6" fill="#f2f5e9" fill-opacity=".5" stroke="#606060" stroke-width="1" rx="5" ry="5"/><path id="arrow" d="M 11.500037,31.436501 C 11.940474,20.09759 22.043105,11.32322 32.158766,21.979434 L 37.068811,17.246167 C 37.068811,17.246167 37.088388,32 37.088388,32 L 22.160133,31.978069 C 22.160133,31.978069 26.997745,27.140456 26.997745,27.140456 C 18.528582,18.264221 13.291696,25.230495 11.500037,31.436501 z" style="fill:#404040"/></a></g></svg></svg>