<?xml version="1.0" encoding="UTF-8" standalone="no"?>
<!DOCTYPE svg PUBLIC "-//W3C//DTD SVG 1.1//EN"
 "http://www.w3.org/Graphics/SVG/1.1/DTD/svg11.dtd">
<!-- Generated by graphviz version 2.44.0 ()
 -->
<!-- Title: includes/spic&#45;prj&#45;api/Debug.hpp Pages: 1 -->
<svg width="1016pt" height="95pt"
 viewBox="0.00 0.00 1016.00 95.00" xmlns="http://www.w3.org/2000/svg" xmlns:xlink="http://www.w3.org/1999/xlink">
<g id="graph0" class="graph" transform="scale(1 1) rotate(0) translate(4 91)">
<title>includes/spic&#45;prj&#45;api/Debug.hpp</title>
<!-- Node1 -->
<g id="node1" class="node">
<title>Node1</title>
<g id="a_node1"><a xlink:title=" ">
<polygon fill="#bfbfbf" stroke="black" points="432.5,-56.5 432.5,-86.5 535.5,-86.5 535.5,-56.5 432.5,-56.5"/>
<text text-anchor="start" x="440.5" y="-74.5" font-family="Helvetica,sans-Serif" font-size="10.00">includes/spic&#45;prj&#45;api</text>
<text text-anchor="middle" x="484" y="-63.5" font-family="Helvetica,sans-Serif" font-size="10.00">/Debug.hpp</text>
</a>
</g>
</g>
<!-- Node2 -->
<g id="node2" class="node">
<title>Node2</title>
<g id="a_node2"><a xlink:href="Input_8cpp.html" target="_top" xlink:title=" ">
<polygon fill="none" stroke="black" points="0,-0.5 0,-19.5 92,-19.5 92,-0.5 0,-0.5"/>
<text text-anchor="middle" x="46" y="-7.5" font-family="Helvetica,sans-Serif" font-size="10.00">src/API/Input.cpp</text>
</a>
</g>
</g>
<!-- Node1&#45;&gt;Node2 -->
<g id="edge1" class="edge">
<title>Node1&#45;&gt;Node2</title>
<path fill="none" stroke="midnightblue" d="M421.88,-62.91C346.05,-53.51 213.95,-36.68 101,-20 98.13,-19.58 95.17,-19.13 92.2,-18.67"/>
<polygon fill="midnightblue" stroke="midnightblue" points="421.85,-66.43 432.2,-64.19 422.71,-59.49 421.85,-66.43"/>
</g>
<!-- Node3 -->
<g id="node3" class="node">
<title>Node3</title>
<g id="a_node3"><a xlink:href="Debug_8cpp.html" target="_top" xlink:title=" ">
<polygon fill="none" stroke="black" points="110,-0.5 110,-19.5 220,-19.5 220,-0.5 110,-0.5"/>
<text text-anchor="middle" x="165" y="-7.5" font-family="Helvetica,sans-Serif" font-size="10.00">src/Debug/Debug.cpp</text>
</a>
</g>
</g>
<!-- Node1&#45;&gt;Node3 -->
<g id="edge2" class="edge">
<title>Node1&#45;&gt;Node3</title>
<path fill="none" stroke="midnightblue" d="M422.35,-59C360.34,-47.43 266.17,-29.87 210.59,-19.5"/>
<polygon fill="midnightblue" stroke="midnightblue" points="421.92,-62.48 432.39,-60.87 423.2,-55.6 421.92,-62.48"/>
</g>
<!-- Node4 -->
<g id="node4" class="node">
<title>Node4</title>
<g id="a_node4"><a xlink:href="GraphicsFacade_8cpp.html" target="_top" xlink:title=" ">
<polygon fill="none" stroke="black" points="238,-0.5 238,-19.5 396,-19.5 396,-0.5 238,-0.5"/>
<text text-anchor="middle" x="317" y="-7.5" font-family="Helvetica,sans-Serif" font-size="10.00">src/Facade/GraphicsFacade.cpp</text>
</a>
</g>
</g>
<!-- Node1&#45;&gt;Node4 -->
<g id="edge3" class="edge">
<title>Node1&#45;&gt;Node4</title>
<path fill="none" stroke="midnightblue" d="M434.72,-52.94C403.96,-41.98 365.69,-28.35 341.3,-19.66"/>
<polygon fill="midnightblue" stroke="midnightblue" points="433.83,-56.34 444.42,-56.4 436.18,-49.75 433.83,-56.34"/>
</g>
<!-- Node5 -->
<g id="node5" class="node">
<title>Node5</title>
<g id="a_node5"><a xlink:href="InputFacade_8cpp.html" target="_top" xlink:title=" ">
<polygon fill="none" stroke="black" points="414,-0.5 414,-19.5 554,-19.5 554,-0.5 414,-0.5"/>
<text text-anchor="middle" x="484" y="-7.5" font-family="Helvetica,sans-Serif" font-size="10.00">src/Facade/InputFacade.cpp</text>
</a>
</g>
</g>
<!-- Node1&#45;&gt;Node5 -->
<g id="edge4" class="edge">
<title>Node1&#45;&gt;Node5</title>
<path fill="none" stroke="midnightblue" d="M484,-46.29C484,-36.86 484,-26.65 484,-19.66"/>
<polygon fill="midnightblue" stroke="midnightblue" points="480.5,-46.4 484,-56.4 487.5,-46.4 480.5,-46.4"/>
</g>
<!-- Node6 -->
<g id="node6" class="node">
<title>Node6</title>
<g id="a_node6"><a xlink:href="TMXParser_8cpp.html" target="_top" xlink:title=" ">
<polygon fill="none" stroke="black" points="572,-0.5 572,-19.5 708,-19.5 708,-0.5 572,-0.5"/>
<text text-anchor="middle" x="640" y="-7.5" font-family="Helvetica,sans-Serif" font-size="10.00">src/Facade/TMXParser.cpp</text>
</a>
</g>
</g>
<!-- Node1&#45;&gt;Node6 -->
<g id="edge5" class="edge">
<title>Node1&#45;&gt;Node6</title>
<path fill="none" stroke="midnightblue" d="M530.4,-52.8C559.08,-41.86 594.62,-28.31 617.3,-19.66"/>
<polygon fill="midnightblue" stroke="midnightblue" points="529.07,-49.57 520.97,-56.4 531.56,-56.11 529.07,-49.57"/>
</g>
<!-- Node7 -->
<g id="node7" class="node">
<title>Node7</title>
<g id="a_node7"><a xlink:href="LevelParser_8cpp.html" target="_top" xlink:title=" ">
<polygon fill="none" stroke="black" points="726.5,-0.5 726.5,-19.5 885.5,-19.5 885.5,-0.5 726.5,-0.5"/>
<text text-anchor="middle" x="806" y="-7.5" font-family="Helvetica,sans-Serif" font-size="10.00">src/LevelParser/LevelParser.cpp</text>
</a>
</g>
</g>
<!-- Node1&#45;&gt;Node7 -->
<g id="edge6" class="edge">
<title>Node1&#45;&gt;Node7</title>
<path fill="none" stroke="midnightblue" d="M545.87,-59.07C608.41,-47.51 703.65,-29.91 759.87,-19.52"/>
<polygon fill="midnightblue" stroke="midnightblue" points="544.93,-55.68 535.73,-60.94 546.2,-62.56 544.93,-55.68"/>
</g>
<!-- Node8 -->
<g id="node8" class="node">
<title>Node8</title>
<g id="a_node8"><a xlink:href="Timer_8cpp.html" target="_top" xlink:title=" ">
<polygon fill="none" stroke="black" points="904,-0.5 904,-19.5 1008,-19.5 1008,-0.5 904,-0.5"/>
<text text-anchor="middle" x="956" y="-7.5" font-family="Helvetica,sans-Serif" font-size="10.00">src/Timer/Timer.cpp</text>
</a>
</g>
</g>
<!-- Node1&#45;&gt;Node8 -->
<g id="edge7" class="edge">
<title>Node1&#45;&gt;Node8</title>
<path fill="none" stroke="midnightblue" d="M545.59,-63.4C626.02,-54.03 771.17,-36.74 895,-20 897.86,-19.61 900.8,-19.21 903.77,-18.79"/>
<polygon fill="midnightblue" stroke="midnightblue" points="545.16,-59.93 535.63,-64.56 545.97,-66.88 545.16,-59.93"/>
</g>
</g>
</svg>
