<?xml version="1.0" encoding="UTF-8" standalone="no"?>
<!DOCTYPE svg PUBLIC "-//W3C//DTD SVG 1.1//EN"
 "http://www.w3.org/Graphics/SVG/1.1/DTD/svg11.dtd">
<!-- Generated by graphviz version 2.44.0 ()
 -->
<!-- Title: includes/platformer&#45;engine/Engine Pages: 1 -->
<svg width="514pt" height="239pt"
 viewBox="0.00 0.00 514.00 239.00" xmlns="http://www.w3.org/2000/svg" xmlns:xlink="http://www.w3.org/1999/xlink">
<g id="graph0" class="graph" transform="scale(1 1) rotate(0) translate(4 235)">
<title>includes/platformer&#45;engine/Engine</title>
<g id="clust1" class="cluster">
<title>clusterdir_1587a151464512ea3626aba36cd93a86</title>
<g id="a_clust1"><a xlink:href="dir_1587a151464512ea3626aba36cd93a86.html" target="_top" xlink:title="platformer&#45;engine">
<polygon fill="#ddddee" stroke="black" points="8,-8 8,-223 434,-223 434,-8 8,-8"/>
<text text-anchor="middle" x="221" y="-211" font-family="Helvetica,sans-Serif" font-size="10.00">platformer&#45;engine</text>
</a>
</g>
</g>
<!-- dir_123f1f7ecbbeeb7ce6bbb34d36fe9b6f -->
<g id="node1" class="node">
<title>dir_123f1f7ecbbeeb7ce6bbb34d36fe9b6f</title>
<g id="a_node1"><a xlink:href="dir_123f1f7ecbbeeb7ce6bbb34d36fe9b6f.html" target="_top" xlink:title="Timer">
<polygon fill="none" stroke="black" points="70,-52 16,-52 16,-16 70,-16 70,-52"/>
<text text-anchor="middle" x="43" y="-31.5" font-family="Helvetica,sans-Serif" font-size="10.00">Timer</text>
</a>
</g>
</g>
<!-- dir_366a47d27432147542e5f7548d7df575 -->
<g id="node2" class="node">
<title>dir_366a47d27432147542e5f7548d7df575</title>
<g id="a_node2"><a xlink:href="dir_366a47d27432147542e5f7548d7df575.html" target="_top" xlink:title="Texture">
<polygon fill="none" stroke="black" points="110,-124 56,-124 56,-88 110,-88 110,-124"/>
<text text-anchor="middle" x="83" y="-103.5" font-family="Helvetica,sans-Serif" font-size="10.00">Texture</text>
</a>
</g>
</g>
<!-- dir_366a47d27432147542e5f7548d7df575&#45;&gt;dir_123f1f7ecbbeeb7ce6bbb34d36fe9b6f -->
<g id="edge16" class="edge">
<title>dir_366a47d27432147542e5f7548d7df575&#45;&gt;dir_123f1f7ecbbeeb7ce6bbb34d36fe9b6f</title>
<path fill="none" stroke="black" d="M73.11,-87.7C68.51,-79.64 62.94,-69.89 57.85,-60.98"/>
<polygon fill="black" stroke="black" points="60.77,-59.05 52.77,-52.1 54.7,-62.52 60.77,-59.05"/>
<g id="a_edge16&#45;headlabel"><a xlink:href="dir_000013_000014.html" target="_top" xlink:title="1">
<text text-anchor="middle" x="65.02" y="-58.26" font-family="Helvetica,sans-Serif" font-size="10.00">1</text>
</a>
</g>
</g>
<!-- dir_dee7b2cf51f0719d61c9bcb7f2f06001 -->
<g id="node6" class="node">
<title>dir_dee7b2cf51f0719d61c9bcb7f2f06001</title>
<g id="a_node6"><a xlink:href="dir_dee7b2cf51f0719d61c9bcb7f2f06001.html" target="_top" xlink:title="Render">
<polygon fill="none" stroke="black" points="142,-52 88,-52 88,-16 142,-16 142,-52"/>
<text text-anchor="middle" x="115" y="-31.5" font-family="Helvetica,sans-Serif" font-size="10.00">Render</text>
</a>
</g>
</g>
<!-- dir_366a47d27432147542e5f7548d7df575&#45;&gt;dir_dee7b2cf51f0719d61c9bcb7f2f06001 -->
<g id="edge18" class="edge">
<title>dir_366a47d27432147542e5f7548d7df575&#45;&gt;dir_dee7b2cf51f0719d61c9bcb7f2f06001</title>
<path fill="none" stroke="black" d="M84.99,-87.7C87.85,-79.64 92.09,-69.89 96.58,-60.98"/>
<polygon fill="black" stroke="black" points="99.69,-62.58 101.29,-52.1 93.51,-59.3 99.69,-62.58"/>
<g id="a_edge18&#45;headlabel"><a xlink:href="dir_000013_000012.html" target="_top" xlink:title="1">
<text text-anchor="middle" x="100.51" y="-64.58" font-family="Helvetica,sans-Serif" font-size="10.00">1</text>
</a>
</g>
</g>
<!-- dir_de77370fa4c160312bb88f5d1919228b -->
<g id="node9" class="node">
<title>dir_de77370fa4c160312bb88f5d1919228b</title>
<g id="a_node9"><a xlink:href="dir_de77370fa4c160312bb88f5d1919228b.html" target="_top" xlink:title="spic&#45;prj&#45;api">
<polygon fill="none" stroke="black" points="506,-52 442,-52 442,-16 506,-16 506,-52"/>
<text text-anchor="middle" x="474" y="-31.5" font-family="Helvetica,sans-Serif" font-size="10.00">spic&#45;prj&#45;api</text>
</a>
</g>
</g>
<!-- dir_366a47d27432147542e5f7548d7df575&#45;&gt;dir_de77370fa4c160312bb88f5d1919228b -->
<g id="edge17" class="edge">
<title>dir_366a47d27432147542e5f7548d7df575&#45;&gt;dir_de77370fa4c160312bb88f5d1919228b</title>
<path fill="none" stroke="black" d="M110.4,-87.89C247.33,-49.09 291.89,-90.95 429,-52 430.06,-51.7 431.14,-51.37 432.21,-51.01"/>
<polygon fill="black" stroke="black" points="433.85,-54.13 441.95,-47.3 431.36,-47.59 433.85,-54.13"/>
<g id="a_edge17&#45;headlabel"><a xlink:href="dir_000013_000016.html" target="_top" xlink:title="6">
<text text-anchor="middle" x="431.5" y="-55.57" font-family="Helvetica,sans-Serif" font-size="10.00">6</text>
</a>
</g>
</g>
<!-- dir_72722e64122ba09534fd16b67552a996 -->
<g id="node3" class="node">
<title>dir_72722e64122ba09534fd16b67552a996</title>
<g id="a_node3"><a xlink:href="dir_72722e64122ba09534fd16b67552a996.html" target="_top" xlink:title="Physics">
<polygon fill="none" stroke="black" points="348,-124 294,-124 294,-88 348,-88 348,-124"/>
<text text-anchor="middle" x="321" y="-103.5" font-family="Helvetica,sans-Serif" font-size="10.00">Physics</text>
</a>
</g>
</g>
<!-- dir_72722e64122ba09534fd16b67552a996&#45;&gt;dir_de77370fa4c160312bb88f5d1919228b -->
<g id="edge1" class="edge">
<title>dir_72722e64122ba09534fd16b67552a996&#45;&gt;dir_de77370fa4c160312bb88f5d1919228b</title>
<path fill="none" stroke="black" d="M348.42,-87.81C383.89,-71.56 393.33,-68.35 429,-52 430.17,-51.47 431.35,-50.92 432.55,-50.37"/>
<polygon fill="black" stroke="black" points="434.32,-53.4 441.95,-46.05 431.4,-47.04 434.32,-53.4"/>
<g id="a_edge1&#45;headlabel"><a xlink:href="dir_000011_000016.html" target="_top" xlink:title="7">
<text text-anchor="middle" x="432.24" y="-54.98" font-family="Helvetica,sans-Serif" font-size="10.00">7</text>
</a>
</g>
</g>
<!-- dir_ad5ef619f038a25d047111bf855feef3 -->
<g id="node4" class="node">
<title>dir_ad5ef619f038a25d047111bf855feef3</title>
<g id="a_node4"><a xlink:href="dir_ad5ef619f038a25d047111bf855feef3.html" target="_top" xlink:title="Behaviour">
<polygon fill="none" stroke="black" points="426,-124 366,-124 366,-88 426,-88 426,-124"/>
<text text-anchor="middle" x="396" y="-103.5" font-family="Helvetica,sans-Serif" font-size="10.00">Behaviour</text>
</a>
</g>
</g>
<!-- dir_ad5ef619f038a25d047111bf855feef3&#45;&gt;dir_de77370fa4c160312bb88f5d1919228b -->
<g id="edge2" class="edge">
<title>dir_ad5ef619f038a25d047111bf855feef3&#45;&gt;dir_de77370fa4c160312bb88f5d1919228b</title>
<path fill="none" stroke="black" d="M415.28,-87.7C424.92,-79.05 436.73,-68.45 447.23,-59.03"/>
<polygon fill="black" stroke="black" points="449.84,-61.39 454.94,-52.1 445.16,-56.18 449.84,-61.39"/>
<g id="a_edge2&#45;headlabel"><a xlink:href="dir_000002_000016.html" target="_top" xlink:title="1">
<text text-anchor="middle" x="449.06" y="-63.4" font-family="Helvetica,sans-Serif" font-size="10.00">1</text>
</a>
</g>
</g>
<!-- dir_cac8883e60e9501f6ec47f21e507278d -->
<g id="node5" class="node">
<title>dir_cac8883e60e9501f6ec47f21e507278d</title>
<g id="a_node5"><a xlink:href="dir_cac8883e60e9501f6ec47f21e507278d.html" target="_top" xlink:title="Exceptions">
<polygon fill="none" stroke="black" points="192,-124 128,-124 128,-88 192,-88 192,-124"/>
<text text-anchor="middle" x="160" y="-103.5" font-family="Helvetica,sans-Serif" font-size="10.00">Exceptions</text>
</a>
</g>
</g>
<!-- dir_cac8883e60e9501f6ec47f21e507278d&#45;&gt;dir_de77370fa4c160312bb88f5d1919228b -->
<g id="edge19" class="edge">
<title>dir_cac8883e60e9501f6ec47f21e507278d&#45;&gt;dir_de77370fa4c160312bb88f5d1919228b</title>
<path fill="none" stroke="black" d="M192.42,-90.72C195.29,-89.71 198.18,-88.79 201,-88 300.42,-60.28 333.99,-81.64 432.28,-53.55"/>
<polygon fill="black" stroke="black" points="433.4,-56.87 442,-50.68 431.41,-50.16 433.4,-56.87"/>
<g id="a_edge19&#45;headlabel"><a xlink:href="dir_000006_000016.html" target="_top" xlink:title="1">
<text text-anchor="middle" x="430.76" y="-58.11" font-family="Helvetica,sans-Serif" font-size="10.00">1</text>
</a>
</g>
</g>
<!-- dir_dee7b2cf51f0719d61c9bcb7f2f06001&#45;&gt;dir_366a47d27432147542e5f7548d7df575 -->
<g id="edge14" class="edge">
<title>dir_dee7b2cf51f0719d61c9bcb7f2f06001&#45;&gt;dir_366a47d27432147542e5f7548d7df575</title>
<path fill="none" stroke="black" d="M113.08,-52.1C110.25,-60.13 106.02,-69.87 101.54,-78.8"/>
<polygon fill="black" stroke="black" points="98.41,-77.22 96.83,-87.7 104.6,-80.49 98.41,-77.22"/>
<g id="a_edge14&#45;headlabel"><a xlink:href="dir_000012_000013.html" target="_top" xlink:title="1">
<text text-anchor="middle" x="97.58" y="-70.22" font-family="Helvetica,sans-Serif" font-size="10.00">1</text>
</a>
</g>
</g>
<!-- dir_dee7b2cf51f0719d61c9bcb7f2f06001&#45;&gt;dir_de77370fa4c160312bb88f5d1919228b -->
<g id="edge15" class="edge">
<title>dir_dee7b2cf51f0719d61c9bcb7f2f06001&#45;&gt;dir_de77370fa4c160312bb88f5d1919228b</title>
<path fill="none" stroke="black" d="M142.35,-34C238.8,-34 335.25,-34 431.7,-34"/>
<polygon fill="black" stroke="black" points="431.94,-37.5 441.94,-34 431.94,-30.5 431.94,-37.5"/>
<g id="a_edge15&#45;headlabel"><a xlink:href="dir_000012_000016.html" target="_top" xlink:title="2">
<text text-anchor="middle" x="428.34" y="-37.84" font-family="Helvetica,sans-Serif" font-size="10.00">2</text>
</a>
</g>
</g>
<!-- dir_eb4af4e99dee9ee973ff499f28504984 -->
<g id="node7" class="node">
<title>dir_eb4af4e99dee9ee973ff499f28504984</title>
<g id="a_node7"><a xlink:href="dir_eb4af4e99dee9ee973ff499f28504984.html" target="_top" xlink:title="Networking">
<polygon fill="none" stroke="red" points="276,-124 210,-124 210,-88 276,-88 276,-124"/>
<text text-anchor="middle" x="243" y="-103.5" font-family="Helvetica,sans-Serif" font-size="10.00">Networking</text>
</a>
</g>
</g>
<!-- dir_eb4af4e99dee9ee973ff499f28504984&#45;&gt;dir_de77370fa4c160312bb88f5d1919228b -->
<g id="edge20" class="edge">
<title>dir_eb4af4e99dee9ee973ff499f28504984&#45;&gt;dir_de77370fa4c160312bb88f5d1919228b</title>
<path fill="none" stroke="black" d="M276.39,-87.88C342.65,-66.86 363.18,-75 429,-52 430.17,-51.59 431.36,-51.15 432.56,-50.7"/>
<polygon fill="black" stroke="black" points="433.9,-53.93 441.81,-46.88 431.23,-47.46 433.9,-53.93"/>
<g id="a_edge20&#45;headlabel"><a xlink:href="dir_000009_000016.html" target="_top" xlink:title="3">
<text text-anchor="middle" x="431.66" y="-55.42" font-family="Helvetica,sans-Serif" font-size="10.00">3</text>
</a>
</g>
</g>
<!-- dir_255073caeab54e3c715574845ba4b898 -->
<g id="node8" class="node">
<title>dir_255073caeab54e3c715574845ba4b898</title>
<g id="a_node8"><a xlink:href="dir_255073caeab54e3c715574845ba4b898.html" target="_top" xlink:title="Engine">
<polygon fill="#eeeeff" stroke="black" points="228,-196 174,-196 174,-160 228,-160 228,-196"/>
<text text-anchor="middle" x="201" y="-175.5" font-family="Helvetica,sans-Serif" font-size="10.00">Engine</text>
</a>
</g>
</g>
<!-- dir_255073caeab54e3c715574845ba4b898&#45;&gt;dir_123f1f7ecbbeeb7ce6bbb34d36fe9b6f -->
<g id="edge6" class="edge">
<title>dir_255073caeab54e3c715574845ba4b898&#45;&gt;dir_123f1f7ecbbeeb7ce6bbb34d36fe9b6f</title>
<path fill="none" stroke="black" d="M173.97,-177.25C136.14,-175.96 68.52,-167.31 37,-124 24.1,-106.27 27.3,-80.94 32.74,-61.83"/>
<polygon fill="black" stroke="black" points="36.11,-62.8 35.81,-52.21 29.44,-60.67 36.11,-62.8"/>
<g id="a_edge6&#45;headlabel"><a xlink:href="dir_000005_000014.html" target="_top" xlink:title="1">
<text text-anchor="middle" x="37.72" y="-64.59" font-family="Helvetica,sans-Serif" font-size="10.00">1</text>
</a>
</g>
</g>
<!-- dir_255073caeab54e3c715574845ba4b898&#45;&gt;dir_366a47d27432147542e5f7548d7df575 -->
<g id="edge7" class="edge">
<title>dir_255073caeab54e3c715574845ba4b898&#45;&gt;dir_366a47d27432147542e5f7548d7df575</title>
<path fill="none" stroke="black" d="M173.93,-160.94C157.7,-151.32 136.87,-138.96 119.24,-128.5"/>
<polygon fill="black" stroke="black" points="120.74,-125.32 110.35,-123.23 117.17,-131.34 120.74,-125.32"/>
<g id="a_edge7&#45;headlabel"><a xlink:href="dir_000005_000013.html" target="_top" xlink:title="1">
<text text-anchor="middle" x="125.28" y="-122.21" font-family="Helvetica,sans-Serif" font-size="10.00">1</text>
</a>
</g>
</g>
<!-- dir_255073caeab54e3c715574845ba4b898&#45;&gt;dir_72722e64122ba09534fd16b67552a996 -->
<g id="edge8" class="edge">
<title>dir_255073caeab54e3c715574845ba4b898&#45;&gt;dir_72722e64122ba09534fd16b67552a996</title>
<path fill="none" stroke="black" d="M228.23,-161.12C245.11,-151.27 266.97,-138.52 285.24,-127.86"/>
<polygon fill="black" stroke="black" points="287,-130.88 293.88,-122.82 283.48,-124.84 287,-130.88"/>
<g id="a_edge8&#45;headlabel"><a xlink:href="dir_000005_000011.html" target="_top" xlink:title="1">
<text text-anchor="middle" x="285.33" y="-132.65" font-family="Helvetica,sans-Serif" font-size="10.00">1</text>
</a>
</g>
</g>
<!-- dir_255073caeab54e3c715574845ba4b898&#45;&gt;dir_ad5ef619f038a25d047111bf855feef3 -->
<g id="edge9" class="edge">
<title>dir_255073caeab54e3c715574845ba4b898&#45;&gt;dir_ad5ef619f038a25d047111bf855feef3</title>
<path fill="none" stroke="black" d="M228.02,-168.58C257.49,-159.23 306.18,-143.3 356.47,-124.06"/>
<polygon fill="black" stroke="black" points="357.8,-127.3 365.87,-120.43 355.28,-120.77 357.8,-127.3"/>
<g id="a_edge9&#45;headlabel"><a xlink:href="dir_000005_000002.html" target="_top" xlink:title="1">
<text text-anchor="middle" x="355.47" y="-128.74" font-family="Helvetica,sans-Serif" font-size="10.00">1</text>
</a>
</g>
</g>
<!-- dir_255073caeab54e3c715574845ba4b898&#45;&gt;dir_cac8883e60e9501f6ec47f21e507278d -->
<g id="edge10" class="edge">
<title>dir_255073caeab54e3c715574845ba4b898&#45;&gt;dir_cac8883e60e9501f6ec47f21e507278d</title>
<path fill="none" stroke="black" d="M190.87,-159.7C186.15,-151.64 180.44,-141.89 175.22,-132.98"/>
<polygon fill="black" stroke="black" points="178.09,-130.96 170.02,-124.1 172.05,-134.5 178.09,-130.96"/>
<g id="a_edge10&#45;headlabel"><a xlink:href="dir_000005_000006.html" target="_top" xlink:title="1">
<text text-anchor="middle" x="182.36" y="-130.13" font-family="Helvetica,sans-Serif" font-size="10.00">1</text>
</a>
</g>
</g>
<!-- dir_255073caeab54e3c715574845ba4b898&#45;&gt;dir_dee7b2cf51f0719d61c9bcb7f2f06001 -->
<g id="edge12" class="edge">
<title>dir_255073caeab54e3c715574845ba4b898&#45;&gt;dir_dee7b2cf51f0719d61c9bcb7f2f06001</title>
<path fill="none" stroke="black" d="M173.75,-176.58C137.85,-174.37 75.9,-164.51 47,-124 37.71,-110.97 39.98,-102.38 47,-88 53.89,-73.9 66.53,-62.47 79.07,-53.87"/>
<polygon fill="black" stroke="black" points="81.12,-56.72 87.66,-48.38 77.35,-50.82 81.12,-56.72"/>
<g id="a_edge12&#45;headlabel"><a xlink:href="dir_000005_000012.html" target="_top" xlink:title="1">
<text text-anchor="middle" x="79.62" y="-58.54" font-family="Helvetica,sans-Serif" font-size="10.00">1</text>
</a>
</g>
</g>
<!-- dir_255073caeab54e3c715574845ba4b898&#45;&gt;dir_eb4af4e99dee9ee973ff499f28504984 -->
<g id="edge13" class="edge">
<title>dir_255073caeab54e3c715574845ba4b898&#45;&gt;dir_eb4af4e99dee9ee973ff499f28504984</title>
<path fill="none" stroke="black" d="M211.38,-159.7C216.26,-151.56 222.19,-141.69 227.58,-132.7"/>
<polygon fill="black" stroke="black" points="230.59,-134.48 232.74,-124.1 224.59,-130.88 230.59,-134.48"/>
<g id="a_edge13&#45;headlabel"><a xlink:href="dir_000005_000009.html" target="_top" xlink:title="2">
<text text-anchor="middle" x="231.18" y="-136.52" font-family="Helvetica,sans-Serif" font-size="10.00">2</text>
</a>
</g>
</g>
<!-- dir_255073caeab54e3c715574845ba4b898&#45;&gt;dir_de77370fa4c160312bb88f5d1919228b -->
<g id="edge11" class="edge">
<title>dir_255073caeab54e3c715574845ba4b898&#45;&gt;dir_de77370fa4c160312bb88f5d1919228b</title>
<path fill="none" stroke="black" d="M228.35,-173.91C283.08,-167.25 403.52,-149.99 435,-124 453.83,-108.45 463.84,-82.03 468.98,-62"/>
<polygon fill="black" stroke="black" points="472.4,-62.73 471.24,-52.2 465.58,-61.16 472.4,-62.73"/>
<g id="a_edge11&#45;headlabel"><a xlink:href="dir_000005_000016.html" target="_top" xlink:title="1">
<text text-anchor="middle" x="474.35" y="-64.37" font-family="Helvetica,sans-Serif" font-size="10.00">1</text>
</a>
</g>
</g>
<!-- dir_de77370fa4c160312bb88f5d1919228b&#45;&gt;dir_366a47d27432147542e5f7548d7df575 -->
<g id="edge3" class="edge">
<title>dir_de77370fa4c160312bb88f5d1919228b&#45;&gt;dir_366a47d27432147542e5f7548d7df575</title>
<path fill="none" stroke="black" d="M446.6,-52.11C309.67,-90.91 265.11,-49.05 128,-88 125.26,-88.78 122.46,-89.75 119.67,-90.83"/>
<polygon fill="black" stroke="black" points="118.1,-87.69 110.24,-94.79 120.81,-94.14 118.1,-87.69"/>
<g id="a_edge3&#45;headlabel"><a xlink:href="dir_000016_000013.html" target="_top" xlink:title="2">
<text text-anchor="middle" x="120.31" y="-81.18" font-family="Helvetica,sans-Serif" font-size="10.00">2</text>
</a>
</g>
</g>
<!-- dir_de77370fa4c160312bb88f5d1919228b&#45;&gt;dir_72722e64122ba09534fd16b67552a996 -->
<g id="edge4" class="edge">
<title>dir_de77370fa4c160312bb88f5d1919228b&#45;&gt;dir_72722e64122ba09534fd16b67552a996</title>
<path fill="none" stroke="black" d="M446.58,-52.19C411.11,-68.44 401.67,-71.65 366,-88 363.26,-89.26 360.41,-90.58 357.52,-91.9"/>
<polygon fill="black" stroke="black" points="355.92,-88.78 348.26,-96.1 358.81,-95.16 355.92,-88.78"/>
<g id="a_edge4&#45;headlabel"><a xlink:href="dir_000016_000011.html" target="_top" xlink:title="2">
<text text-anchor="middle" x="358.03" y="-82.22" font-family="Helvetica,sans-Serif" font-size="10.00">2</text>
</a>
</g>
</g>
<!-- dir_de77370fa4c160312bb88f5d1919228b&#45;&gt;dir_eb4af4e99dee9ee973ff499f28504984 -->
<g id="edge5" class="edge">
<title>dir_de77370fa4c160312bb88f5d1919228b&#45;&gt;dir_eb4af4e99dee9ee973ff499f28504984</title>
<path fill="none" stroke="black" d="M446.61,-52.13C380.97,-75.01 360.44,-66.87 294,-88 291.33,-88.85 288.59,-89.79 285.82,-90.78"/>
<polygon fill="black" stroke="black" points="284.56,-87.52 276.41,-94.29 287,-94.08 284.56,-87.52"/>
<g id="a_edge5&#45;headlabel"><a xlink:href="dir_000016_000009.html" target="_top" xlink:title="2">
<text text-anchor="middle" x="286.93" y="-81.11" font-family="Helvetica,sans-Serif" font-size="10.00">2</text>
</a>
</g>
</g>
</g>
</svg>
