<?xml version="1.0" encoding="UTF-8" standalone="no"?>
<!DOCTYPE svg PUBLIC "-//W3C//DTD SVG 1.1//EN"
 "http://www.w3.org/Graphics/SVG/1.1/DTD/svg11.dtd">
<!-- Generated by graphviz version 2.44.0 ()
 -->
<!-- Title: src Pages: 1 -->
<!--zoomable 132 -->
<svg id="main" version="1.1" xmlns="http://www.w3.org/2000/svg" xmlns:xlink="http://www.w3.org/1999/xlink" xml:space="preserve" onload="init(evt)">
<style type="text/css"><![CDATA[
.edge:hover path { stroke: red; }
.edge:hover polygon { stroke: red; fill: red; }
]]></style>
<script type="text/javascript"><![CDATA[
var edges = document.getElementsByTagName('g');
if (edges && edges.length) {
  for (var i=0;i<edges.length;i++) {
    if (edges[i].id.substr(0,4)=='edge') {
      edges[i].setAttribute('class','edge');
    }
  }
}
]]></script>
        <defs>
                <circle id="rim" cx="0" cy="0" r="7"/>
                <circle id="rim2" cx="0" cy="0" r="3.5"/>
                <g id="zoomPlus">
                        <use xlink:href="#rim" fill="#404040">
                                <set attributeName="fill" to="#808080" begin="zoomplus.mouseover" end="zoomplus.mouseout"/>
                        </use>
                        <path d="M-4,0h8M0,-4v8" fill="none" stroke="white" stroke-width="1.5" pointer-events="none"/>
                </g>
                <g id="zoomMin">
                        <use xlink:href="#rim" fill="#404040">
                                <set attributeName="fill" to="#808080" begin="zoomminus.mouseover" end="zoomminus.mouseout"/>
                        </use>
                        <path d="M-4,0h8" fill="none" stroke="white" stroke-width="1.5" pointer-events="none"/>
                </g>
                <g id="dirArrow">
                        <path fill="none" stroke="white" stroke-width="1.5" d="M0,-3.0v7 M-2.5,-0.5L0,-3.0L2.5,-0.5"/>
                </g>
               <g id="resetDef">
                       <use xlink:href="#rim2" fill="#404040">
                               <set attributeName="fill" to="#808080" begin="reset.mouseover" end="reset.mouseout"/>
                       </use>
               </g>
        </defs>

<script type="text/javascript">
var viewWidth = 1280;
var viewHeight = 132;
var sectionId = 'dynsection-0';
</script>
<script xlink:href="svgpan.js"/>
<svg id="graph" class="graph">
<g id="viewport">
<title>src</title>
<g id="clust1" class="cluster">
<title>clusterdir_68267d1309a1af8e8297ef4c3efbcdba</title>
<g id="a_clust1"><a xlink:href="dir_68267d1309a1af8e8297ef4c3efbcdba.html" target="_top">
<polygon fill="#eeeeff" stroke="black" points="8,-64 8,-116 1264,-116 1264,-64 8,-64"/>
</a>
</g>
</g>
<!-- dir_68267d1309a1af8e8297ef4c3efbcdba -->
<g id="node1" class="node">
<title>dir_68267d1309a1af8e8297ef4c3efbcdba</title>
<text text-anchor="middle" x="1229" y="-87.5" font-family="Helvetica,sans-Serif" font-size="10.00">src</text>
</g>
<!-- dir_32137984f496da46263d816e0d6dc804 -->
<g id="node2" class="node">
<title>dir_32137984f496da46263d816e0d6dc804</title>
<g id="a_node2"><a xlink:href="dir_32137984f496da46263d816e0d6dc804.html" target="_top" xlink:title="API">
<polygon fill="white" stroke="black" points="1184,-108 1130,-108 1130,-72 1184,-72 1184,-108"/>
<text text-anchor="middle" x="1157" y="-87.5" font-family="Helvetica,sans-Serif" font-size="10.00">API</text>
</a>
</g>
</g>
<!-- dir_09e761304027c904456130627fd4dcf5 -->
<g id="node18" class="node">
<title>dir_09e761304027c904456130627fd4dcf5</title>
<g id="a_node18"><a xlink:href="dir_09e761304027c904456130627fd4dcf5.html" target="_top" xlink:title="includes">
<polygon fill="none" stroke="red" points="623,-36 569,-36 569,0 623,0 623,-36"/>
<text text-anchor="middle" x="596" y="-15.5" font-family="Helvetica,sans-Serif" font-size="10.00">includes</text>
</a>
</g>
</g>
<!-- dir_32137984f496da46263d816e0d6dc804&#45;&gt;dir_09e761304027c904456130627fd4dcf5 -->
<g id="edge16" class="edge">
<title>dir_32137984f496da46263d816e0d6dc804&#45;&gt;dir_09e761304027c904456130627fd4dcf5</title>
<path fill="none" stroke="black" d="M1136.32,-71.96C1131.54,-68.81 1126.3,-65.91 1121,-64 1031.05,-31.55 737.86,-22.09 633.39,-19.71"/>
<polygon fill="black" stroke="black" points="633.39,-16.21 623.31,-19.49 633.23,-23.21 633.39,-16.21"/>
<g id="a_edge16&#45;headlabel"><a xlink:href="dir_000021_000000.html" target="_top" xlink:title="21">
<text text-anchor="middle" x="637.04" y="-10.95" font-family="Helvetica,sans-Serif" font-size="10.00">21</text>
</a>
</g>
</g>
<!-- dir_3390abd4dd4868e8097d526120a85902 -->
<g id="node3" class="node">
<title>dir_3390abd4dd4868e8097d526120a85902</title>
<g id="a_node3"><a xlink:href="dir_3390abd4dd4868e8097d526120a85902.html" target="_top" xlink:title="Behaviour">
<polygon fill="white" stroke="black" points="1112,-108 1052,-108 1052,-72 1112,-72 1112,-108"/>
<text text-anchor="middle" x="1082" y="-87.5" font-family="Helvetica,sans-Serif" font-size="10.00">Behaviour</text>
</a>
</g>
</g>
<!-- dir_3390abd4dd4868e8097d526120a85902&#45;&gt;dir_09e761304027c904456130627fd4dcf5 -->
<g id="edge4" class="edge">
<title>dir_3390abd4dd4868e8097d526120a85902&#45;&gt;dir_09e761304027c904456130627fd4dcf5</title>
<path fill="none" stroke="black" d="M1058.99,-71.77C1053.95,-68.72 1048.47,-65.9 1043,-64 967.56,-37.72 726.62,-24.68 633.36,-20.52"/>
<polygon fill="black" stroke="black" points="633.4,-17.02 623.26,-20.08 633.09,-24.02 633.4,-17.02"/>
<g id="a_edge4&#45;headlabel"><a xlink:href="dir_000022_000000.html" target="_top" xlink:title="8">
<text text-anchor="middle" x="637.11" y="-11.84" font-family="Helvetica,sans-Serif" font-size="10.00">8</text>
</a>
</g>
</g>
<!-- dir_96711deda0d7ee481a09206bc6c79536 -->
<g id="node4" class="node">
<title>dir_96711deda0d7ee481a09206bc6c79536</title>
<g id="a_node4"><a xlink:href="dir_96711deda0d7ee481a09206bc6c79536.html" target="_top" xlink:title="Builder">
<polygon fill="white" stroke="black" points="1034,-108 980,-108 980,-72 1034,-72 1034,-108"/>
<text text-anchor="middle" x="1007" y="-87.5" font-family="Helvetica,sans-Serif" font-size="10.00">Builder</text>
</a>
</g>
</g>
<!-- dir_96711deda0d7ee481a09206bc6c79536&#45;&gt;dir_09e761304027c904456130627fd4dcf5 -->
<g id="edge2" class="edge">
<title>dir_96711deda0d7ee481a09206bc6c79536&#45;&gt;dir_09e761304027c904456130627fd4dcf5</title>
<path fill="none" stroke="black" d="M985.88,-71.84C981.21,-68.78 976.12,-65.95 971,-64 909.71,-40.71 715.33,-26.34 633.2,-21.17"/>
<polygon fill="black" stroke="black" points="633.27,-17.67 623.07,-20.55 632.84,-24.66 633.27,-17.67"/>
<g id="a_edge2&#45;headlabel"><a xlink:href="dir_000023_000000.html" target="_top" xlink:title="2">
<text text-anchor="middle" x="637.03" y="-12.56" font-family="Helvetica,sans-Serif" font-size="10.00">2</text>
</a>
</g>
</g>
<!-- dir_3624c3011e0f2f30fa93f2c3df0f9e35 -->
<g id="node5" class="node">
<title>dir_3624c3011e0f2f30fa93f2c3df0f9e35</title>
<g id="a_node5"><a xlink:href="dir_3624c3011e0f2f30fa93f2c3df0f9e35.html" target="_top" xlink:title="Debug">
<polygon fill="white" stroke="black" points="962,-108 908,-108 908,-72 962,-72 962,-108"/>
<text text-anchor="middle" x="935" y="-87.5" font-family="Helvetica,sans-Serif" font-size="10.00">Debug</text>
</a>
</g>
</g>
<!-- dir_3624c3011e0f2f30fa93f2c3df0f9e35&#45;&gt;dir_09e761304027c904456130627fd4dcf5 -->
<g id="edge1" class="edge">
<title>dir_3624c3011e0f2f30fa93f2c3df0f9e35&#45;&gt;dir_09e761304027c904456130627fd4dcf5</title>
<path fill="none" stroke="black" d="M913.84,-71.95C909.17,-68.88 904.09,-66.02 899,-64 808.47,-28.13 692.43,-20.55 633.69,-19.14"/>
<polygon fill="black" stroke="black" points="633.47,-15.64 623.41,-18.95 633.34,-22.64 633.47,-15.64"/>
<g id="a_edge1&#45;headlabel"><a xlink:href="dir_000024_000000.html" target="_top" xlink:title="2">
<text text-anchor="middle" x="637.12" y="-10.37" font-family="Helvetica,sans-Serif" font-size="10.00">2</text>
</a>
</g>
</g>
<!-- dir_330611eaa039e68d4efdcc31981c6755 -->
<g id="node6" class="node">
<title>dir_330611eaa039e68d4efdcc31981c6755</title>
<g id="a_node6"><a xlink:href="dir_330611eaa039e68d4efdcc31981c6755.html" target="_top" xlink:title="Director">
<polygon fill="white" stroke="black" points="890,-108 836,-108 836,-72 890,-72 890,-108"/>
<text text-anchor="middle" x="863" y="-87.5" font-family="Helvetica,sans-Serif" font-size="10.00">Director</text>
</a>
</g>
</g>
<!-- dir_330611eaa039e68d4efdcc31981c6755&#45;&gt;dir_09e761304027c904456130627fd4dcf5 -->
<g id="edge10" class="edge">
<title>dir_330611eaa039e68d4efdcc31981c6755&#45;&gt;dir_09e761304027c904456130627fd4dcf5</title>
<path fill="none" stroke="black" d="M841.37,-71.87C836.82,-68.88 831.91,-66.07 827,-64 762.09,-36.58 679.8,-25.68 633.01,-21.49"/>
<polygon fill="black" stroke="black" points="633.28,-18 623.02,-20.65 632.69,-24.97 633.28,-18"/>
<g id="a_edge10&#45;headlabel"><a xlink:href="dir_000025_000000.html" target="_top" xlink:title="6">
<text text-anchor="middle" x="637.1" y="-12.97" font-family="Helvetica,sans-Serif" font-size="10.00">6</text>
</a>
</g>
</g>
<!-- dir_3072bc1f55ed1280fe4fbe6b21c78379 -->
<g id="node7" class="node">
<title>dir_3072bc1f55ed1280fe4fbe6b21c78379</title>
<g id="a_node7"><a xlink:href="dir_3072bc1f55ed1280fe4fbe6b21c78379.html" target="_top" xlink:title="Engine">
<polygon fill="white" stroke="black" points="818,-108 764,-108 764,-72 818,-72 818,-108"/>
<text text-anchor="middle" x="791" y="-87.5" font-family="Helvetica,sans-Serif" font-size="10.00">Engine</text>
</a>
</g>
</g>
<!-- dir_3072bc1f55ed1280fe4fbe6b21c78379&#45;&gt;dir_09e761304027c904456130627fd4dcf5 -->
<g id="edge12" class="edge">
<title>dir_3072bc1f55ed1280fe4fbe6b21c78379&#45;&gt;dir_09e761304027c904456130627fd4dcf5</title>
<path fill="none" stroke="black" d="M768.84,-71.93C764.41,-69.01 759.68,-66.21 755,-64 715.33,-45.26 666.31,-32.85 633.27,-25.89"/>
<polygon fill="black" stroke="black" points="633.63,-22.4 623.13,-23.83 632.23,-29.25 633.63,-22.4"/>
<g id="a_edge12&#45;headlabel"><a xlink:href="dir_000026_000000.html" target="_top" xlink:title="8">
<text text-anchor="middle" x="637.72" y="-17.83" font-family="Helvetica,sans-Serif" font-size="10.00">8</text>
</a>
</g>
</g>
<!-- dir_f9ab0b6dc9229052dbade29aa876c209 -->
<g id="node8" class="node">
<title>dir_f9ab0b6dc9229052dbade29aa876c209</title>
<g id="a_node8"><a xlink:href="dir_f9ab0b6dc9229052dbade29aa876c209.html" target="_top" xlink:title="Facade">
<polygon fill="white" stroke="black" points="746,-108 692,-108 692,-72 746,-72 746,-108"/>
<text text-anchor="middle" x="719" y="-87.5" font-family="Helvetica,sans-Serif" font-size="10.00">Facade</text>
</a>
</g>
</g>
<!-- dir_f9ab0b6dc9229052dbade29aa876c209&#45;&gt;dir_09e761304027c904456130627fd4dcf5 -->
<g id="edge3" class="edge">
<title>dir_f9ab0b6dc9229052dbade29aa876c209&#45;&gt;dir_09e761304027c904456130627fd4dcf5</title>
<path fill="none" stroke="black" d="M695.27,-71.88C691.24,-69.16 687.04,-66.43 683,-64 666.68,-54.17 647.99,-44.33 632.12,-36.37"/>
<polygon fill="black" stroke="black" points="633.66,-33.22 623.14,-31.91 630.54,-39.49 633.66,-33.22"/>
<g id="a_edge3&#45;headlabel"><a xlink:href="dir_000027_000000.html" target="_top" xlink:title="17">
<text text-anchor="middle" x="638.14" y="-29.78" font-family="Helvetica,sans-Serif" font-size="10.00">17</text>
</a>
</g>
</g>
<!-- dir_72264bd4eb08aca2edb77b06492552d6 -->
<g id="node9" class="node">
<title>dir_72264bd4eb08aca2edb77b06492552d6</title>
<g id="a_node9"><a xlink:href="dir_72264bd4eb08aca2edb77b06492552d6.html" target="_top" xlink:title="LevelParser">
<polygon fill="white" stroke="black" points="673.5,-108 604.5,-108 604.5,-72 673.5,-72 673.5,-108"/>
<text text-anchor="middle" x="639" y="-87.5" font-family="Helvetica,sans-Serif" font-size="10.00">LevelParser</text>
</a>
</g>
</g>
<!-- dir_72264bd4eb08aca2edb77b06492552d6&#45;&gt;dir_09e761304027c904456130627fd4dcf5 -->
<g id="edge6" class="edge">
<title>dir_72264bd4eb08aca2edb77b06492552d6&#45;&gt;dir_09e761304027c904456130627fd4dcf5</title>
<path fill="none" stroke="black" d="M628.37,-71.7C623.37,-63.56 617.31,-53.69 611.79,-44.7"/>
<polygon fill="black" stroke="black" points="614.72,-42.79 606.51,-36.1 608.76,-46.46 614.72,-42.79"/>
<g id="a_edge6&#45;headlabel"><a xlink:href="dir_000028_000000.html" target="_top" xlink:title="4">
<text text-anchor="middle" x="619.02" y="-41.87" font-family="Helvetica,sans-Serif" font-size="10.00">4</text>
</a>
</g>
</g>
<!-- dir_bd51a612c92e41a52efc1573706495c8 -->
<g id="node10" class="node">
<title>dir_bd51a612c92e41a52efc1573706495c8</title>
<g id="a_node10"><a xlink:href="dir_bd51a612c92e41a52efc1573706495c8.html" target="_top" xlink:title="Networking">
<polygon fill="white" stroke="red" points="586,-108 520,-108 520,-72 586,-72 586,-108"/>
<text text-anchor="middle" x="553" y="-87.5" font-family="Helvetica,sans-Serif" font-size="10.00">Networking</text>
</a>
</g>
</g>
<!-- dir_bd51a612c92e41a52efc1573706495c8&#45;&gt;dir_09e761304027c904456130627fd4dcf5 -->
<g id="edge15" class="edge">
<title>dir_bd51a612c92e41a52efc1573706495c8&#45;&gt;dir_09e761304027c904456130627fd4dcf5</title>
<path fill="none" stroke="black" d="M563.63,-71.7C568.63,-63.56 574.69,-53.69 580.21,-44.7"/>
<polygon fill="black" stroke="black" points="583.24,-46.46 585.49,-36.1 577.28,-42.79 583.24,-46.46"/>
<g id="a_edge15&#45;headlabel"><a xlink:href="dir_000029_000000.html" target="_top" xlink:title="17">
<text text-anchor="middle" x="583.78" y="-48.51" font-family="Helvetica,sans-Serif" font-size="10.00">17</text>
</a>
</g>
</g>
<!-- dir_0df09a091a4eb5e56719829019e3d2f9 -->
<g id="node11" class="node">
<title>dir_0df09a091a4eb5e56719829019e3d2f9</title>
<g id="a_node11"><a xlink:href="dir_0df09a091a4eb5e56719829019e3d2f9.html" target="_top" xlink:title="Physics">
<polygon fill="white" stroke="black" points="502,-108 448,-108 448,-72 502,-72 502,-108"/>
<text text-anchor="middle" x="475" y="-87.5" font-family="Helvetica,sans-Serif" font-size="10.00">Physics</text>
</a>
</g>
</g>
<!-- dir_0df09a091a4eb5e56719829019e3d2f9&#45;&gt;dir_09e761304027c904456130627fd4dcf5 -->
<g id="edge8" class="edge">
<title>dir_0df09a091a4eb5e56719829019e3d2f9&#45;&gt;dir_09e761304027c904456130627fd4dcf5</title>
<path fill="none" stroke="black" d="M498.75,-71.92C502.78,-69.19 506.97,-66.45 511,-64 526.59,-54.51 544.36,-44.92 559.61,-37.04"/>
<polygon fill="black" stroke="black" points="561.43,-40.04 568.74,-32.38 558.24,-33.81 561.43,-40.04"/>
<g id="a_edge8&#45;headlabel"><a xlink:href="dir_000032_000000.html" target="_top" xlink:title="10">
<text text-anchor="middle" x="559.52" y="-41.71" font-family="Helvetica,sans-Serif" font-size="10.00">10</text>
</a>
</g>
</g>
<!-- dir_4c7ee98193a6cba0af9aae7f963a60da -->
<g id="node12" class="node">
<title>dir_4c7ee98193a6cba0af9aae7f963a60da</title>
<g id="a_node12"><a xlink:href="dir_4c7ee98193a6cba0af9aae7f963a60da.html" target="_top" xlink:title="Render">
<polygon fill="white" stroke="black" points="430,-108 376,-108 376,-72 430,-72 430,-108"/>
<text text-anchor="middle" x="403" y="-87.5" font-family="Helvetica,sans-Serif" font-size="10.00">Render</text>
</a>
</g>
</g>
<!-- dir_4c7ee98193a6cba0af9aae7f963a60da&#45;&gt;dir_09e761304027c904456130627fd4dcf5 -->
<g id="edge11" class="edge">
<title>dir_4c7ee98193a6cba0af9aae7f963a60da&#45;&gt;dir_09e761304027c904456130627fd4dcf5</title>
<path fill="none" stroke="black" d="M425.17,-71.94C429.59,-69.02 434.33,-66.22 439,-64 478.06,-45.46 526.3,-33.04 558.92,-26.03"/>
<polygon fill="black" stroke="black" points="559.85,-29.41 568.93,-23.94 558.42,-22.56 559.85,-29.41"/>
<g id="a_edge11&#45;headlabel"><a xlink:href="dir_000033_000000.html" target="_top" xlink:title="3">
<text text-anchor="middle" x="556.91" y="-30.42" font-family="Helvetica,sans-Serif" font-size="10.00">3</text>
</a>
</g>
</g>
<!-- dir_204260ac86670e69c647eaba8962e745 -->
<g id="node13" class="node">
<title>dir_204260ac86670e69c647eaba8962e745</title>
<g id="a_node13"><a xlink:href="dir_204260ac86670e69c647eaba8962e745.html" target="_top" xlink:title="Scene">
<polygon fill="white" stroke="black" points="358,-108 304,-108 304,-72 358,-72 358,-108"/>
<text text-anchor="middle" x="331" y="-87.5" font-family="Helvetica,sans-Serif" font-size="10.00">Scene</text>
</a>
</g>
</g>
<!-- dir_204260ac86670e69c647eaba8962e745&#45;&gt;dir_09e761304027c904456130627fd4dcf5 -->
<g id="edge14" class="edge">
<title>dir_204260ac86670e69c647eaba8962e745&#45;&gt;dir_09e761304027c904456130627fd4dcf5</title>
<path fill="none" stroke="black" d="M352.63,-71.87C357.18,-68.89 362.1,-66.08 367,-64 431.04,-36.89 512.14,-25.9 558.64,-21.61"/>
<polygon fill="black" stroke="black" points="559.2,-25.07 568.85,-20.72 558.59,-18.1 559.2,-25.07"/>
<g id="a_edge14&#45;headlabel"><a xlink:href="dir_000034_000000.html" target="_top" xlink:title="7">
<text text-anchor="middle" x="555.86" y="-25.71" font-family="Helvetica,sans-Serif" font-size="10.00">7</text>
</a>
</g>
</g>
<!-- dir_e61c19fe538542bbffa80d70b1734032 -->
<g id="node14" class="node">
<title>dir_e61c19fe538542bbffa80d70b1734032</title>
<g id="a_node14"><a xlink:href="dir_e61c19fe538542bbffa80d70b1734032.html" target="_top" xlink:title="Storage">
<polygon fill="white" stroke="black" points="286,-108 232,-108 232,-72 286,-72 286,-108"/>
<text text-anchor="middle" x="259" y="-87.5" font-family="Helvetica,sans-Serif" font-size="10.00">Storage</text>
</a>
</g>
</g>
<!-- dir_64cece8721923da8192b70f373152c4b -->
<g id="node15" class="node">
<title>dir_64cece8721923da8192b70f373152c4b</title>
<g id="a_node15"><a xlink:href="dir_64cece8721923da8192b70f373152c4b.html" target="_top" xlink:title="Texture">
<polygon fill="white" stroke="black" points="214,-108 160,-108 160,-72 214,-72 214,-108"/>
<text text-anchor="middle" x="187" y="-87.5" font-family="Helvetica,sans-Serif" font-size="10.00">Texture</text>
</a>
</g>
</g>
<!-- dir_64cece8721923da8192b70f373152c4b&#45;&gt;dir_09e761304027c904456130627fd4dcf5 -->
<g id="edge9" class="edge">
<title>dir_64cece8721923da8192b70f373152c4b&#45;&gt;dir_09e761304027c904456130627fd4dcf5</title>
<path fill="none" stroke="black" d="M208.12,-71.84C212.79,-68.78 217.88,-65.95 223,-64 283.89,-40.84 476.84,-26.42 558.7,-21.21"/>
<polygon fill="black" stroke="black" points="559.04,-24.69 568.81,-20.58 558.61,-17.71 559.04,-24.69"/>
<g id="a_edge9&#45;headlabel"><a xlink:href="dir_000036_000000.html" target="_top" xlink:title="6">
<text text-anchor="middle" x="555.63" y="-25.25" font-family="Helvetica,sans-Serif" font-size="10.00">6</text>
</a>
</g>
</g>
<!-- dir_6acd24eea7f3fe579df422711269a2fc -->
<g id="node16" class="node">
<title>dir_6acd24eea7f3fe579df422711269a2fc</title>
<g id="a_node16"><a xlink:href="dir_6acd24eea7f3fe579df422711269a2fc.html" target="_top" xlink:title="Timer">
<polygon fill="white" stroke="black" points="142,-108 88,-108 88,-72 142,-72 142,-108"/>
<text text-anchor="middle" x="115" y="-87.5" font-family="Helvetica,sans-Serif" font-size="10.00">Timer</text>
</a>
</g>
</g>
<!-- dir_6acd24eea7f3fe579df422711269a2fc&#45;&gt;dir_09e761304027c904456130627fd4dcf5 -->
<g id="edge7" class="edge">
<title>dir_6acd24eea7f3fe579df422711269a2fc&#45;&gt;dir_09e761304027c904456130627fd4dcf5</title>
<path fill="none" stroke="black" d="M136.09,-71.76C140.76,-68.71 145.86,-65.9 151,-64 225.61,-36.44 465.76,-24.17 558.75,-20.37"/>
<polygon fill="black" stroke="black" points="558.97,-23.86 568.82,-19.97 558.69,-16.87 558.97,-23.86"/>
<g id="a_edge7&#45;headlabel"><a xlink:href="dir_000037_000000.html" target="_top" xlink:title="3">
<text text-anchor="middle" x="555.49" y="-24.34" font-family="Helvetica,sans-Serif" font-size="10.00">3</text>
</a>
</g>
</g>
<!-- dir_7ad25bca70c4d3d9103f75d82f41ef94 -->
<g id="node17" class="node">
<title>dir_7ad25bca70c4d3d9103f75d82f41ef94</title>
<g id="a_node17"><a xlink:href="dir_7ad25bca70c4d3d9103f75d82f41ef94.html" target="_top" xlink:title="UI">
<polygon fill="white" stroke="black" points="70,-108 16,-108 16,-72 70,-72 70,-108"/>
<text text-anchor="middle" x="43" y="-87.5" font-family="Helvetica,sans-Serif" font-size="10.00">UI</text>
</a>
</g>
</g>
<!-- dir_7ad25bca70c4d3d9103f75d82f41ef94&#45;&gt;dir_09e761304027c904456130627fd4dcf5 -->
<g id="edge13" class="edge">
<title>dir_7ad25bca70c4d3d9103f75d82f41ef94&#45;&gt;dir_09e761304027c904456130627fd4dcf5</title>
<path fill="none" stroke="black" d="M63.69,-71.96C68.46,-68.81 73.7,-65.91 79,-64 167.38,-32.05 455.05,-22.29 558.51,-19.77"/>
<polygon fill="black" stroke="black" points="558.87,-23.26 568.78,-19.53 558.7,-16.26 558.87,-23.26"/>
<g id="a_edge13&#45;headlabel"><a xlink:href="dir_000038_000000.html" target="_top" xlink:title="4">
<text text-anchor="middle" x="555.34" y="-23.69" font-family="Helvetica,sans-Serif" font-size="10.00">4</text>
</a>
</g>
</g>
<!-- dir_09e761304027c904456130627fd4dcf5&#45;&gt;dir_e61c19fe538542bbffa80d70b1734032 -->
<g id="edge5" class="edge">
<title>dir_09e761304027c904456130627fd4dcf5&#45;&gt;dir_e61c19fe538542bbffa80d70b1734032</title>
<path fill="none" stroke="black" d="M568.77,-18.98C514.65,-19.81 390.53,-26.1 295,-64 292.93,-64.82 290.87,-65.78 288.83,-66.84"/>
<polygon fill="black" stroke="black" points="287,-63.85 280.17,-71.95 290.56,-69.88 287,-63.85"/>
<g id="a_edge5&#45;headlabel"><a xlink:href="dir_000000_000035.html" target="_top" xlink:title="1">
<text text-anchor="middle" x="288.65" y="-57.08" font-family="Helvetica,sans-Serif" font-size="10.00">1</text>
</a>
</g>
</g>
</g>
</svg>
        <g id="navigator" transform="translate(0 0)" fill="#404254">
                <rect fill="#f2f5e9" fill-opacity="0.5" stroke="#606060" stroke-width=".5" x="0" y="0" width="60" height="60"/>
                <use id="zoomplus" xlink:href="#zoomPlus" x="17" y="9" onmousedown="handleZoom(evt,'in')"/>
                <use id="zoomminus" xlink:href="#zoomMin" x="42" y="9" onmousedown="handleZoom(evt,'out')"/>
                <use id="reset" xlink:href="#resetDef" x="30" y="36" onmousedown="handleReset()"/>
                <g id="arrowUp" xlink:href="#dirArrow" transform="translate(30 24)" onmousedown="handlePan(0,-1)">
                  <use xlink:href="#rim" fill="#404040">
                        <set attributeName="fill" to="#808080" begin="arrowUp.mouseover" end="arrowUp.mouseout"/>
                  </use>
                  <path fill="none" stroke="white" stroke-width="1.5" d="M0,-3.0v7 M-2.5,-0.5L0,-3.0L2.5,-0.5"/>
                </g>
                <g id="arrowRight" xlink:href="#dirArrow" transform="rotate(90) translate(36 -43)" onmousedown="handlePan(1,0)">
                  <use xlink:href="#rim" fill="#404040">
                        <set attributeName="fill" to="#808080" begin="arrowRight.mouseover" end="arrowRight.mouseout"/>
                  </use>
                  <path fill="none" stroke="white" stroke-width="1.5" d="M0,-3.0v7 M-2.5,-0.5L0,-3.0L2.5,-0.5"/>
                </g>
                <g id="arrowDown" xlink:href="#dirArrow" transform="rotate(180) translate(-30 -48)" onmousedown="handlePan(0,1)">
                  <use xlink:href="#rim" fill="#404040">
                        <set attributeName="fill" to="#808080" begin="arrowDown.mouseover" end="arrowDown.mouseout"/>
                  </use>
                  <path fill="none" stroke="white" stroke-width="1.5" d="M0,-3.0v7 M-2.5,-0.5L0,-3.0L2.5,-0.5"/>
                </g>
                <g id="arrowLeft" xlink:href="#dirArrow" transform="rotate(270) translate(-36 17)" onmousedown="handlePan(-1,0)">
                  <use xlink:href="#rim" fill="#404040">
                        <set attributeName="fill" to="#808080" begin="arrowLeft.mouseover" end="arrowLeft.mouseout"/>
                  </use>
                  <path fill="none" stroke="white" stroke-width="1.5" d="M0,-3.0v7 M-2.5,-0.5L0,-3.0L2.5,-0.5"/>
                </g>
        </g>
        <svg viewBox="0 0 15 15" width="100%" height="30px" preserveAspectRatio="xMaxYMin meet">
         <g id="arrow_out" transform="scale(0.3 0.3)">
          <a xlink:href="dir_68267d1309a1af8e8297ef4c3efbcdba_dep_org.svg" target="_base">
           <rect id="button" ry="5" rx="5" y="6" x="6" height="38" width="38"
                fill="#f2f5e9" fill-opacity="0.5" stroke="#606060" stroke-width="1.0"/>
           <path id="arrow"
             d="M 11.500037,31.436501 C 11.940474,20.09759 22.043105,11.32322 32.158766,21.979434 L 37.068811,17.246167 C 37.068811,17.246167 37.088388,32 37.088388,32 L 22.160133,31.978069 C 22.160133,31.978069 26.997745,27.140456 26.997745,27.140456 C 18.528582,18.264221 13.291696,25.230495 11.500037,31.436501 z"
             style="fill:#404040;"/>
          </a>
         </g>
        </svg>
</svg>
