<?xml version="1.0" encoding="UTF-8" standalone="no"?>
<!DOCTYPE svg PUBLIC "-//W3C//DTD SVG 1.1//EN"
 "http://www.w3.org/Graphics/SVG/1.1/DTD/svg11.dtd">
<!-- Generated by graphviz version 2.44.0 ()
 -->
<!-- Title: includes/platformer&#45;engine Pages: 1 -->
<!--zoomable 399 -->
<svg id="main" version="1.1" xmlns="http://www.w3.org/2000/svg" xmlns:xlink="http://www.w3.org/1999/xlink" xml:space="preserve" onload="init(evt)">
<style type="text/css"><![CDATA[
.edge:hover path { stroke: red; }
.edge:hover polygon { stroke: red; fill: red; }
]]></style>
<script type="text/javascript"><![CDATA[
var edges = document.getElementsByTagName('g');
if (edges && edges.length) {
  for (var i=0;i<edges.length;i++) {
    if (edges[i].id.substr(0,4)=='edge') {
      edges[i].setAttribute('class','edge');
    }
  }
}
]]></script>
        <defs>
                <circle id="rim" cx="0" cy="0" r="7"/>
                <circle id="rim2" cx="0" cy="0" r="3.5"/>
                <g id="zoomPlus">
                        <use xlink:href="#rim" fill="#404040">
                                <set attributeName="fill" to="#808080" begin="zoomplus.mouseover" end="zoomplus.mouseout"/>
                        </use>
                        <path d="M-4,0h8M0,-4v8" fill="none" stroke="white" stroke-width="1.5" pointer-events="none"/>
                </g>
                <g id="zoomMin">
                        <use xlink:href="#rim" fill="#404040">
                                <set attributeName="fill" to="#808080" begin="zoomminus.mouseover" end="zoomminus.mouseout"/>
                        </use>
                        <path d="M-4,0h8" fill="none" stroke="white" stroke-width="1.5" pointer-events="none"/>
                </g>
                <g id="dirArrow">
                        <path fill="none" stroke="white" stroke-width="1.5" d="M0,-3.0v7 M-2.5,-0.5L0,-3.0L2.5,-0.5"/>
                </g>
               <g id="resetDef">
                       <use xlink:href="#rim2" fill="#404040">
                               <set attributeName="fill" to="#808080" begin="reset.mouseover" end="reset.mouseout"/>
                       </use>
               </g>
        </defs>

<script type="text/javascript">
var viewWidth = 618;
var viewHeight = 399;
var sectionId = 'dynsection-0';
</script>
<script xlink:href="svgpan.js"/>
<svg id="graph" class="graph">
<g id="viewport">
<title>includes/platformer&#45;engine</title>
<g id="clust1" class="cluster">
<title>clusterdir_09e761304027c904456130627fd4dcf5</title>
<g id="a_clust1"><a xlink:href="dir_09e761304027c904456130627fd4dcf5.html" target="_top" xlink:title="includes">
<polygon fill="#ddddee" stroke="black" points="8,-8 8,-383 602,-383 602,-8 8,-8"/>
<text text-anchor="middle" x="305" y="-371" font-family="Helvetica,sans-Serif" font-size="10.00">includes</text>
</a>
</g>
</g>
<g id="clust2" class="cluster">
<title>clusterdir_1587a151464512ea3626aba36cd93a86</title>
<g id="a_clust2"><a xlink:href="dir_1587a151464512ea3626aba36cd93a86.html" target="_top">
<polygon fill="#eeeeff" stroke="black" points="16,-16 16,-356 522,-356 522,-16 16,-16"/>
</a>
</g>
</g>
<!-- dir_de77370fa4c160312bb88f5d1919228b -->
<g id="node1" class="node">
<title>dir_de77370fa4c160312bb88f5d1919228b</title>
<g id="a_node1"><a xlink:href="dir_de77370fa4c160312bb88f5d1919228b.html" target="_top" xlink:title="spic&#45;prj&#45;api">
<polygon fill="none" stroke="black" points="594,-204 530,-204 530,-168 594,-168 594,-204"/>
<text text-anchor="middle" x="562" y="-183.5" font-family="Helvetica,sans-Serif" font-size="10.00">spic&#45;prj&#45;api</text>
</a>
</g>
</g>
<!-- dir_1587a151464512ea3626aba36cd93a86 -->
<g id="node2" class="node">
<title>dir_1587a151464512ea3626aba36cd93a86</title>
<text text-anchor="middle" x="396" y="-327.5" font-family="Helvetica,sans-Serif" font-size="10.00">platformer&#45;engine</text>
</g>
<!-- dir_de77370fa4c160312bb88f5d1919228b&#45;&gt;dir_1587a151464512ea3626aba36cd93a86 -->
<g id="edge9" class="edge">
<title>dir_de77370fa4c160312bb88f5d1919228b&#45;&gt;dir_1587a151464512ea3626aba36cd93a86</title>
<path fill="none" stroke="black" d="M561.86,-204.27C560.78,-224 556.1,-256.12 538,-276 531.72,-282.9 488.81,-298.42 451.79,-310.89"/>
<polygon fill="black" stroke="black" points="450.41,-307.67 442.04,-314.16 452.63,-314.3 450.41,-307.67"/>
<g id="a_edge9&#45;headlabel"><a xlink:href="dir_000017_000001.html" target="_top" xlink:title="8">
<text text-anchor="middle" x="452.92" y="-301.33" font-family="Helvetica,sans-Serif" font-size="10.00">8</text>
</a>
</g>
</g>
<!-- dir_4ad73661ceecee2f59b8c0b0178f9787 -->
<g id="node8" class="node">
<title>dir_4ad73661ceecee2f59b8c0b0178f9787</title>
<g id="a_node8"><a xlink:href="dir_4ad73661ceecee2f59b8c0b0178f9787.html" target="_top" xlink:title="Facade">
<polygon fill="white" stroke="black" points="262,-132 208,-132 208,-96 262,-96 262,-132"/>
<text text-anchor="middle" x="235" y="-111.5" font-family="Helvetica,sans-Serif" font-size="10.00">Facade</text>
</a>
</g>
</g>
<!-- dir_de77370fa4c160312bb88f5d1919228b&#45;&gt;dir_4ad73661ceecee2f59b8c0b0178f9787 -->
<g id="edge11" class="edge">
<title>dir_de77370fa4c160312bb88f5d1919228b&#45;&gt;dir_4ad73661ceecee2f59b8c0b0178f9787</title>
<path fill="none" stroke="black" d="M534.67,-167.9C423.12,-134.78 385.64,-168.62 275,-132 273.82,-131.61 272.63,-131.17 271.44,-130.7"/>
<polygon fill="black" stroke="black" points="272.87,-127.51 262.32,-126.57 269.98,-133.89 272.87,-127.51"/>
<g id="a_edge11&#45;headlabel"><a xlink:href="dir_000017_000007.html" target="_top" xlink:title="2">
<text text-anchor="middle" x="277.32" y="-123.91" font-family="Helvetica,sans-Serif" font-size="10.00">2</text>
</a>
</g>
</g>
<!-- dir_eb4af4e99dee9ee973ff499f28504984 -->
<g id="node10" class="node">
<title>dir_eb4af4e99dee9ee973ff499f28504984</title>
<g id="a_node10"><a xlink:href="dir_eb4af4e99dee9ee973ff499f28504984.html" target="_top" xlink:title="Networking">
<polygon fill="white" stroke="red" points="150,-204 84,-204 84,-168 150,-168 150,-204"/>
<text text-anchor="middle" x="117" y="-183.5" font-family="Helvetica,sans-Serif" font-size="10.00">Networking</text>
</a>
</g>
</g>
<!-- dir_de77370fa4c160312bb88f5d1919228b&#45;&gt;dir_eb4af4e99dee9ee973ff499f28504984 -->
<g id="edge13" class="edge">
<title>dir_de77370fa4c160312bb88f5d1919228b&#45;&gt;dir_eb4af4e99dee9ee973ff499f28504984</title>
<path fill="none" stroke="black" d="M544.92,-204.22C537.15,-211.2 527.38,-218.36 517,-222 480.41,-234.84 204.96,-233.73 168,-222 160.01,-219.46 152.19,-215.17 145.17,-210.42"/>
<polygon fill="black" stroke="black" points="146.89,-207.34 136.76,-204.25 142.75,-212.99 146.89,-207.34"/>
<g id="a_edge13&#45;headlabel"><a xlink:href="dir_000017_000009.html" target="_top" xlink:title="2">
<text text-anchor="middle" x="151.47" y="-204.68" font-family="Helvetica,sans-Serif" font-size="10.00">2</text>
</a>
</g>
</g>
<!-- dir_72722e64122ba09534fd16b67552a996 -->
<g id="node11" class="node">
<title>dir_72722e64122ba09534fd16b67552a996</title>
<g id="a_node11"><a xlink:href="dir_72722e64122ba09534fd16b67552a996.html" target="_top" xlink:title="Physics">
<polygon fill="white" stroke="black" points="436,-276 382,-276 382,-240 436,-240 436,-276"/>
<text text-anchor="middle" x="409" y="-255.5" font-family="Helvetica,sans-Serif" font-size="10.00">Physics</text>
</a>
</g>
</g>
<!-- dir_de77370fa4c160312bb88f5d1919228b&#45;&gt;dir_72722e64122ba09534fd16b67552a996 -->
<g id="edge12" class="edge">
<title>dir_de77370fa4c160312bb88f5d1919228b&#45;&gt;dir_72722e64122ba09534fd16b67552a996</title>
<path fill="none" stroke="black" d="M534.58,-204.19C499.11,-220.44 489.67,-223.65 454,-240 451.26,-241.26 448.41,-242.58 445.52,-243.9"/>
<polygon fill="black" stroke="black" points="443.92,-240.78 436.26,-248.1 446.81,-247.16 443.92,-240.78"/>
<g id="a_edge12&#45;headlabel"><a xlink:href="dir_000017_000011.html" target="_top" xlink:title="2">
<text text-anchor="middle" x="446.03" y="-234.22" font-family="Helvetica,sans-Serif" font-size="10.00">2</text>
</a>
</g>
</g>
<!-- dir_366a47d27432147542e5f7548d7df575 -->
<g id="node13" class="node">
<title>dir_366a47d27432147542e5f7548d7df575</title>
<g id="a_node13"><a xlink:href="dir_366a47d27432147542e5f7548d7df575.html" target="_top" xlink:title="Texture">
<polygon fill="white" stroke="black" points="222,-204 168,-204 168,-168 222,-168 222,-204"/>
<text text-anchor="middle" x="195" y="-183.5" font-family="Helvetica,sans-Serif" font-size="10.00">Texture</text>
</a>
</g>
</g>
<!-- dir_de77370fa4c160312bb88f5d1919228b&#45;&gt;dir_366a47d27432147542e5f7548d7df575 -->
<g id="edge10" class="edge">
<title>dir_de77370fa4c160312bb88f5d1919228b&#45;&gt;dir_366a47d27432147542e5f7548d7df575</title>
<path fill="none" stroke="black" d="M529.82,-186C430.69,-186 331.57,-186 232.45,-186"/>
<polygon fill="black" stroke="black" points="232.24,-182.5 222.24,-186 232.24,-189.5 232.24,-182.5"/>
<g id="a_edge10&#45;headlabel"><a xlink:href="dir_000017_000013.html" target="_top" xlink:title="2">
<text text-anchor="middle" x="235.83" y="-177.16" font-family="Helvetica,sans-Serif" font-size="10.00">2</text>
</a>
</g>
</g>
<!-- dir_ad5ef619f038a25d047111bf855feef3 -->
<g id="node3" class="node">
<title>dir_ad5ef619f038a25d047111bf855feef3</title>
<g id="a_node3"><a xlink:href="dir_ad5ef619f038a25d047111bf855feef3.html" target="_top" xlink:title="Behaviour">
<polygon fill="white" stroke="black" points="514,-276 454,-276 454,-240 514,-240 514,-276"/>
<text text-anchor="middle" x="484" y="-255.5" font-family="Helvetica,sans-Serif" font-size="10.00">Behaviour</text>
</a>
</g>
</g>
<!-- dir_ad5ef619f038a25d047111bf855feef3&#45;&gt;dir_de77370fa4c160312bb88f5d1919228b -->
<g id="edge8" class="edge">
<title>dir_ad5ef619f038a25d047111bf855feef3&#45;&gt;dir_de77370fa4c160312bb88f5d1919228b</title>
<path fill="none" stroke="black" d="M503.28,-239.7C512.92,-231.05 524.73,-220.45 535.23,-211.03"/>
<polygon fill="black" stroke="black" points="537.84,-213.39 542.94,-204.1 533.16,-208.18 537.84,-213.39"/>
<g id="a_edge8&#45;headlabel"><a xlink:href="dir_000002_000017.html" target="_top" xlink:title="1">
<text text-anchor="middle" x="537.06" y="-215.4" font-family="Helvetica,sans-Serif" font-size="10.00">1</text>
</a>
</g>
</g>
<!-- dir_7e105e953f4c25411b2b0fde6dcccccb -->
<g id="node4" class="node">
<title>dir_7e105e953f4c25411b2b0fde6dcccccb</title>
<g id="a_node4"><a xlink:href="dir_7e105e953f4c25411b2b0fde6dcccccb.html" target="_top" xlink:title="Builder">
<polygon fill="white" stroke="black" points="282,-276 228,-276 228,-240 282,-240 282,-276"/>
<text text-anchor="middle" x="255" y="-255.5" font-family="Helvetica,sans-Serif" font-size="10.00">Builder</text>
</a>
</g>
</g>
<!-- dir_7e105e953f4c25411b2b0fde6dcccccb&#45;&gt;dir_de77370fa4c160312bb88f5d1919228b -->
<g id="edge29" class="edge">
<title>dir_7e105e953f4c25411b2b0fde6dcccccb&#45;&gt;dir_de77370fa4c160312bb88f5d1919228b</title>
<path fill="none" stroke="black" d="M282.19,-243.16C285.12,-241.97 288.09,-240.89 291,-240 388.89,-210.08 422.83,-233.33 520.35,-205.53"/>
<polygon fill="black" stroke="black" points="521.4,-208.87 530,-202.67 519.41,-202.16 521.4,-208.87"/>
<g id="a_edge29&#45;headlabel"><a xlink:href="dir_000003_000017.html" target="_top" xlink:title="7">
<text text-anchor="middle" x="518.76" y="-210.11" font-family="Helvetica,sans-Serif" font-size="10.00">7</text>
</a>
</g>
</g>
<!-- dir_7e105e953f4c25411b2b0fde6dcccccb&#45;&gt;dir_366a47d27432147542e5f7548d7df575 -->
<g id="edge28" class="edge">
<title>dir_7e105e953f4c25411b2b0fde6dcccccb&#45;&gt;dir_366a47d27432147542e5f7548d7df575</title>
<path fill="none" stroke="black" d="M240.17,-239.7C232.98,-231.3 224.2,-221.07 216.31,-211.86"/>
<polygon fill="black" stroke="black" points="218.83,-209.42 209.66,-204.1 213.51,-213.97 218.83,-209.42"/>
<g id="a_edge28&#45;headlabel"><a xlink:href="dir_000003_000013.html" target="_top" xlink:title="2">
<text text-anchor="middle" x="223.32" y="-207.8" font-family="Helvetica,sans-Serif" font-size="10.00">2</text>
</a>
</g>
</g>
<!-- dir_ca5933703c7eb05541db25cfb30e14ec -->
<g id="node5" class="node">
<title>dir_ca5933703c7eb05541db25cfb30e14ec</title>
<g id="a_node5"><a xlink:href="dir_ca5933703c7eb05541db25cfb30e14ec.html" target="_top" xlink:title="Director">
<polygon fill="white" stroke="black" points="514,-348 460,-348 460,-312 514,-312 514,-348"/>
<text text-anchor="middle" x="487" y="-327.5" font-family="Helvetica,sans-Serif" font-size="10.00">Director</text>
</a>
</g>
</g>
<!-- dir_ca5933703c7eb05541db25cfb30e14ec&#45;&gt;dir_de77370fa4c160312bb88f5d1919228b -->
<g id="edge27" class="edge">
<title>dir_ca5933703c7eb05541db25cfb30e14ec&#45;&gt;dir_de77370fa4c160312bb88f5d1919228b</title>
<path fill="none" stroke="black" d="M514.15,-316.37C529.91,-307.47 548.49,-293.94 558,-276 567.99,-257.15 568.37,-232.78 566.61,-214.3"/>
<polygon fill="black" stroke="black" points="570.06,-213.7 565.37,-204.19 563.11,-214.54 570.06,-213.7"/>
<g id="a_edge27&#45;headlabel"><a xlink:href="dir_000004_000017.html" target="_top" xlink:title="3">
<text text-anchor="middle" x="573.31" y="-214.42" font-family="Helvetica,sans-Serif" font-size="10.00">3</text>
</a>
</g>
</g>
<!-- dir_ca5933703c7eb05541db25cfb30e14ec&#45;&gt;dir_7e105e953f4c25411b2b0fde6dcccccb -->
<g id="edge26" class="edge">
<title>dir_ca5933703c7eb05541db25cfb30e14ec&#45;&gt;dir_7e105e953f4c25411b2b0fde6dcccccb</title>
<path fill="none" stroke="black" d="M459.74,-315.37C456.83,-314.14 453.88,-312.99 451,-312 385.04,-289.31 361.92,-298.79 291.97,-275.91"/>
<polygon fill="black" stroke="black" points="292.85,-272.52 282.26,-272.63 290.61,-279.15 292.85,-272.52"/>
<g id="a_edge26&#45;headlabel"><a xlink:href="dir_000004_000003.html" target="_top" xlink:title="1">
<text text-anchor="middle" x="297.17" y="-268.48" font-family="Helvetica,sans-Serif" font-size="10.00">1</text>
</a>
</g>
</g>
<!-- dir_255073caeab54e3c715574845ba4b898 -->
<g id="node6" class="node">
<title>dir_255073caeab54e3c715574845ba4b898</title>
<g id="a_node6"><a xlink:href="dir_255073caeab54e3c715574845ba4b898.html" target="_top" xlink:title="Engine">
<polygon fill="white" stroke="black" points="210,-348 156,-348 156,-312 210,-312 210,-348"/>
<text text-anchor="middle" x="183" y="-327.5" font-family="Helvetica,sans-Serif" font-size="10.00">Engine</text>
</a>
</g>
</g>
<!-- dir_255073caeab54e3c715574845ba4b898&#45;&gt;dir_de77370fa4c160312bb88f5d1919228b -->
<g id="edge20" class="edge">
<title>dir_255073caeab54e3c715574845ba4b898&#45;&gt;dir_de77370fa4c160312bb88f5d1919228b</title>
<path fill="none" stroke="black" d="M210.14,-326.3C286.36,-318.51 498.38,-295.32 523,-276 536.64,-265.3 531.09,-255.9 538,-240 541.8,-231.25 546.07,-221.74 549.93,-213.23"/>
<polygon fill="black" stroke="black" points="553.12,-214.68 554.09,-204.13 546.75,-211.77 553.12,-214.68"/>
<g id="a_edge20&#45;headlabel"><a xlink:href="dir_000005_000017.html" target="_top" xlink:title="1">
<text text-anchor="middle" x="554.21" y="-216.63" font-family="Helvetica,sans-Serif" font-size="10.00">1</text>
</a>
</g>
</g>
<!-- dir_255073caeab54e3c715574845ba4b898&#45;&gt;dir_ad5ef619f038a25d047111bf855feef3 -->
<g id="edge17" class="edge">
<title>dir_255073caeab54e3c715574845ba4b898&#45;&gt;dir_ad5ef619f038a25d047111bf855feef3</title>
<path fill="none" stroke="black" d="M210.25,-325.43C256.71,-318.93 354.18,-303.5 443.81,-276.04"/>
<polygon fill="black" stroke="black" points="445.08,-279.31 453.58,-272.99 442.99,-272.63 445.08,-279.31"/>
<g id="a_edge17&#45;headlabel"><a xlink:href="dir_000005_000002.html" target="_top" xlink:title="1">
<text text-anchor="middle" x="442.49" y="-280.59" font-family="Helvetica,sans-Serif" font-size="10.00">1</text>
</a>
</g>
</g>
<!-- dir_cac8883e60e9501f6ec47f21e507278d -->
<g id="node7" class="node">
<title>dir_cac8883e60e9501f6ec47f21e507278d</title>
<g id="a_node7"><a xlink:href="dir_cac8883e60e9501f6ec47f21e507278d.html" target="_top" xlink:title="Exceptions">
<polygon fill="white" stroke="black" points="364,-276 300,-276 300,-240 364,-240 364,-276"/>
<text text-anchor="middle" x="332" y="-255.5" font-family="Helvetica,sans-Serif" font-size="10.00">Exceptions</text>
</a>
</g>
</g>
<!-- dir_255073caeab54e3c715574845ba4b898&#45;&gt;dir_cac8883e60e9501f6ec47f21e507278d -->
<g id="edge19" class="edge">
<title>dir_255073caeab54e3c715574845ba4b898&#45;&gt;dir_cac8883e60e9501f6ec47f21e507278d</title>
<path fill="none" stroke="black" d="M210.33,-316.16C232.85,-305.58 265.14,-290.41 290.8,-278.35"/>
<polygon fill="black" stroke="black" points="292.36,-281.49 299.92,-274.07 289.39,-275.15 292.36,-281.49"/>
<g id="a_edge19&#45;headlabel"><a xlink:href="dir_000005_000006.html" target="_top" xlink:title="1">
<text text-anchor="middle" x="290.32" y="-283.09" font-family="Helvetica,sans-Serif" font-size="10.00">1</text>
</a>
</g>
</g>
<!-- dir_255073caeab54e3c715574845ba4b898&#45;&gt;dir_eb4af4e99dee9ee973ff499f28504984 -->
<g id="edge22" class="edge">
<title>dir_255073caeab54e3c715574845ba4b898&#45;&gt;dir_eb4af4e99dee9ee973ff499f28504984</title>
<path fill="none" stroke="black" d="M165.77,-311.72C156.91,-301.96 146.62,-289.12 140,-276 130.15,-256.47 124.25,-232.33 120.9,-214.12"/>
<polygon fill="black" stroke="black" points="124.33,-213.44 119.21,-204.17 117.43,-214.61 124.33,-213.44"/>
<g id="a_edge22&#45;headlabel"><a xlink:href="dir_000005_000009.html" target="_top" xlink:title="2">
<text text-anchor="middle" x="127.73" y="-214.01" font-family="Helvetica,sans-Serif" font-size="10.00">2</text>
</a>
</g>
</g>
<!-- dir_255073caeab54e3c715574845ba4b898&#45;&gt;dir_72722e64122ba09534fd16b67552a996 -->
<g id="edge16" class="edge">
<title>dir_255073caeab54e3c715574845ba4b898&#45;&gt;dir_72722e64122ba09534fd16b67552a996</title>
<path fill="none" stroke="black" d="M210.2,-322.95C245.68,-314.72 309.71,-298.76 372.1,-276.03"/>
<polygon fill="black" stroke="black" points="373.53,-279.24 381.69,-272.48 371.1,-272.67 373.53,-279.24"/>
<g id="a_edge16&#45;headlabel"><a xlink:href="dir_000005_000011.html" target="_top" xlink:title="1">
<text text-anchor="middle" x="371.14" y="-280.65" font-family="Helvetica,sans-Serif" font-size="10.00">1</text>
</a>
</g>
</g>
<!-- dir_dee7b2cf51f0719d61c9bcb7f2f06001 -->
<g id="node12" class="node">
<title>dir_dee7b2cf51f0719d61c9bcb7f2f06001</title>
<g id="a_node12"><a xlink:href="dir_dee7b2cf51f0719d61c9bcb7f2f06001.html" target="_top" xlink:title="Render">
<polygon fill="white" stroke="black" points="210,-276 156,-276 156,-240 210,-240 210,-276"/>
<text text-anchor="middle" x="183" y="-255.5" font-family="Helvetica,sans-Serif" font-size="10.00">Render</text>
</a>
</g>
</g>
<!-- dir_255073caeab54e3c715574845ba4b898&#45;&gt;dir_dee7b2cf51f0719d61c9bcb7f2f06001 -->
<g id="edge21" class="edge">
<title>dir_255073caeab54e3c715574845ba4b898&#45;&gt;dir_dee7b2cf51f0719d61c9bcb7f2f06001</title>
<path fill="none" stroke="black" d="M183,-311.7C183,-303.98 183,-294.71 183,-286.11"/>
<polygon fill="black" stroke="black" points="186.5,-286.1 183,-276.1 179.5,-286.1 186.5,-286.1"/>
<g id="a_edge21&#45;headlabel"><a xlink:href="dir_000005_000012.html" target="_top" xlink:title="1">
<text text-anchor="middle" x="189.34" y="-287.2" font-family="Helvetica,sans-Serif" font-size="10.00">1</text>
</a>
</g>
</g>
<!-- dir_255073caeab54e3c715574845ba4b898&#45;&gt;dir_366a47d27432147542e5f7548d7df575 -->
<g id="edge15" class="edge">
<title>dir_255073caeab54e3c715574845ba4b898&#45;&gt;dir_366a47d27432147542e5f7548d7df575</title>
<path fill="none" stroke="black" d="M167.39,-311.77C159.63,-302.03 151.05,-289.18 147,-276 142.3,-260.71 141.24,-254.93 147,-240 151.1,-229.36 158.44,-219.53 166.17,-211.3"/>
<polygon fill="black" stroke="black" points="168.67,-213.75 173.29,-204.21 163.73,-208.78 168.67,-213.75"/>
<g id="a_edge15&#45;headlabel"><a xlink:href="dir_000005_000013.html" target="_top" xlink:title="1">
<text text-anchor="middle" x="168.12" y="-215.79" font-family="Helvetica,sans-Serif" font-size="10.00">1</text>
</a>
</g>
</g>
<!-- dir_123f1f7ecbbeeb7ce6bbb34d36fe9b6f -->
<g id="node14" class="node">
<title>dir_123f1f7ecbbeeb7ce6bbb34d36fe9b6f</title>
<g id="a_node14"><a xlink:href="dir_123f1f7ecbbeeb7ce6bbb34d36fe9b6f.html" target="_top" xlink:title="Timer">
<polygon fill="white" stroke="black" points="190,-132 136,-132 136,-96 190,-96 190,-132"/>
<text text-anchor="middle" x="163" y="-111.5" font-family="Helvetica,sans-Serif" font-size="10.00">Timer</text>
</a>
</g>
</g>
<!-- dir_255073caeab54e3c715574845ba4b898&#45;&gt;dir_123f1f7ecbbeeb7ce6bbb34d36fe9b6f -->
<g id="edge14" class="edge">
<title>dir_255073caeab54e3c715574845ba4b898&#45;&gt;dir_123f1f7ecbbeeb7ce6bbb34d36fe9b6f</title>
<path fill="none" stroke="black" d="M155.89,-328.15C121.22,-325.42 62.42,-314.94 35,-276 5.53,-234.15 39.44,-204.82 75,-168 89.63,-152.84 109.5,-140.39 126.65,-131.37"/>
<polygon fill="black" stroke="black" points="128.51,-134.36 135.85,-126.72 125.35,-128.11 128.51,-134.36"/>
<g id="a_edge14&#45;headlabel"><a xlink:href="dir_000005_000014.html" target="_top" xlink:title="1">
<text text-anchor="middle" x="126.58" y="-136.01" font-family="Helvetica,sans-Serif" font-size="10.00">1</text>
</a>
</g>
</g>
<!-- dir_afa0e7c544746d5dcce2c81f3b1ae555 -->
<g id="node15" class="node">
<title>dir_afa0e7c544746d5dcce2c81f3b1ae555</title>
<g id="a_node15"><a xlink:href="dir_afa0e7c544746d5dcce2c81f3b1ae555.html" target="_top" xlink:title="UI">
<polygon fill="white" stroke="black" points="98,-276 44,-276 44,-240 98,-240 98,-276"/>
<text text-anchor="middle" x="71" y="-255.5" font-family="Helvetica,sans-Serif" font-size="10.00">UI</text>
</a>
</g>
</g>
<!-- dir_255073caeab54e3c715574845ba4b898&#45;&gt;dir_afa0e7c544746d5dcce2c81f3b1ae555 -->
<g id="edge18" class="edge">
<title>dir_255073caeab54e3c715574845ba4b898&#45;&gt;dir_afa0e7c544746d5dcce2c81f3b1ae555</title>
<path fill="none" stroke="black" d="M155.89,-312.05C141.14,-302.84 122.71,-291.32 106.79,-281.37"/>
<polygon fill="black" stroke="black" points="108.59,-278.36 98.25,-276.03 104.88,-284.3 108.59,-278.36"/>
<g id="a_edge18&#45;headlabel"><a xlink:href="dir_000005_000015.html" target="_top" xlink:title="1">
<text text-anchor="middle" x="113.14" y="-275.36" font-family="Helvetica,sans-Serif" font-size="10.00">1</text>
</a>
</g>
</g>
<!-- dir_cac8883e60e9501f6ec47f21e507278d&#45;&gt;dir_de77370fa4c160312bb88f5d1919228b -->
<g id="edge34" class="edge">
<title>dir_cac8883e60e9501f6ec47f21e507278d&#45;&gt;dir_de77370fa4c160312bb88f5d1919228b</title>
<path fill="none" stroke="black" d="M364.04,-243.14C367.05,-242.01 370.07,-240.95 373,-240 436.37,-219.56 458.02,-226.31 520.44,-205.78"/>
<polygon fill="black" stroke="black" points="521.61,-209.07 529.95,-202.54 519.36,-202.45 521.61,-209.07"/>
<g id="a_edge34&#45;headlabel"><a xlink:href="dir_000006_000017.html" target="_top" xlink:title="1">
<text text-anchor="middle" x="519.12" y="-210.42" font-family="Helvetica,sans-Serif" font-size="10.00">1</text>
</a>
</g>
</g>
<!-- dir_4ad73661ceecee2f59b8c0b0178f9787&#45;&gt;dir_de77370fa4c160312bb88f5d1919228b -->
<g id="edge5" class="edge">
<title>dir_4ad73661ceecee2f59b8c0b0178f9787&#45;&gt;dir_de77370fa4c160312bb88f5d1919228b</title>
<path fill="none" stroke="black" d="M257.32,-132.11C367.82,-168.59 405.3,-134.74 517,-168 518.06,-168.32 519.13,-168.66 520.2,-169.02"/>
<polygon fill="black" stroke="black" points="519.33,-172.44 529.92,-172.79 521.86,-165.91 519.33,-172.44"/>
<g id="a_edge5&#45;headlabel"><a xlink:href="dir_000007_000017.html" target="_top" xlink:title="3">
<text text-anchor="middle" x="514.95" y="-171.29" font-family="Helvetica,sans-Serif" font-size="10.00">3</text>
</a>
</g>
</g>
<!-- dir_28e29a0aa9a4f72dd894b881b26f9dfb -->
<g id="node9" class="node">
<title>dir_28e29a0aa9a4f72dd894b881b26f9dfb</title>
<g id="a_node9"><a xlink:href="dir_28e29a0aa9a4f72dd894b881b26f9dfb.html" target="_top" xlink:title="LevelParser">
<polygon fill="white" stroke="black" points="318.5,-60 249.5,-60 249.5,-24 318.5,-24 318.5,-60"/>
<text text-anchor="middle" x="284" y="-39.5" font-family="Helvetica,sans-Serif" font-size="10.00">LevelParser</text>
</a>
</g>
</g>
<!-- dir_4ad73661ceecee2f59b8c0b0178f9787&#45;&gt;dir_28e29a0aa9a4f72dd894b881b26f9dfb -->
<g id="edge3" class="edge">
<title>dir_4ad73661ceecee2f59b8c0b0178f9787&#45;&gt;dir_28e29a0aa9a4f72dd894b881b26f9dfb</title>
<path fill="none" stroke="black" d="M247.11,-95.7C252.87,-87.47 259.86,-77.48 266.21,-68.42"/>
<polygon fill="black" stroke="black" points="269.16,-70.3 272.03,-60.1 263.42,-66.29 269.16,-70.3"/>
<g id="a_edge3&#45;headlabel"><a xlink:href="dir_000007_000008.html" target="_top" xlink:title="1">
<text text-anchor="middle" x="269.42" y="-72.38" font-family="Helvetica,sans-Serif" font-size="10.00">1</text>
</a>
</g>
</g>
<!-- dir_4ad73661ceecee2f59b8c0b0178f9787&#45;&gt;dir_eb4af4e99dee9ee973ff499f28504984 -->
<g id="edge6" class="edge">
<title>dir_4ad73661ceecee2f59b8c0b0178f9787&#45;&gt;dir_eb4af4e99dee9ee973ff499f28504984</title>
<path fill="none" stroke="black" d="M212.03,-132.12C196.99,-141.63 177.03,-153.55 159.24,-163.66"/>
<polygon fill="black" stroke="black" points="157.17,-160.81 150.17,-168.76 160.6,-166.91 157.17,-160.81"/>
<g id="a_edge6&#45;headlabel"><a xlink:href="dir_000007_000009.html" target="_top" xlink:title="2">
<text text-anchor="middle" x="158.91" y="-154.07" font-family="Helvetica,sans-Serif" font-size="10.00">2</text>
</a>
</g>
</g>
<!-- dir_87059d60c7dfcd3dc8f50ab725effb95 -->
<g id="node16" class="node">
<title>dir_87059d60c7dfcd3dc8f50ab725effb95</title>
<g id="a_node16"><a xlink:href="dir_87059d60c7dfcd3dc8f50ab725effb95.html" target="_top" xlink:title="Utility">
<polygon fill="white" stroke="black" points="212,-60 158,-60 158,-24 212,-24 212,-60"/>
<text text-anchor="middle" x="185" y="-39.5" font-family="Helvetica,sans-Serif" font-size="10.00">Utility</text>
</a>
</g>
</g>
<!-- dir_4ad73661ceecee2f59b8c0b0178f9787&#45;&gt;dir_87059d60c7dfcd3dc8f50ab725effb95 -->
<g id="edge4" class="edge">
<title>dir_4ad73661ceecee2f59b8c0b0178f9787&#45;&gt;dir_87059d60c7dfcd3dc8f50ab725effb95</title>
<path fill="none" stroke="black" d="M222.64,-95.7C216.77,-87.47 209.63,-77.48 203.16,-68.42"/>
<polygon fill="black" stroke="black" points="205.88,-66.21 197.22,-60.1 200.18,-70.28 205.88,-66.21"/>
<g id="a_edge4&#45;headlabel"><a xlink:href="dir_000007_000016.html" target="_top" xlink:title="2">
<text text-anchor="middle" x="210.28" y="-64.98" font-family="Helvetica,sans-Serif" font-size="10.00">2</text>
</a>
</g>
</g>
<!-- dir_28e29a0aa9a4f72dd894b881b26f9dfb&#45;&gt;dir_de77370fa4c160312bb88f5d1919228b -->
<g id="edge7" class="edge">
<title>dir_28e29a0aa9a4f72dd894b881b26f9dfb&#45;&gt;dir_de77370fa4c160312bb88f5d1919228b</title>
<path fill="none" stroke="black" d="M317.6,-60.16C368.6,-86.21 465.45,-135.68 520.69,-163.9"/>
<polygon fill="black" stroke="black" points="519.34,-167.14 529.84,-168.57 522.52,-160.91 519.34,-167.14"/>
<g id="a_edge7&#45;headlabel"><a xlink:href="dir_000008_000017.html" target="_top" xlink:title="2">
<text text-anchor="middle" x="514.85" y="-165.53" font-family="Helvetica,sans-Serif" font-size="10.00">2</text>
</a>
</g>
</g>
<!-- dir_eb4af4e99dee9ee973ff499f28504984&#45;&gt;dir_de77370fa4c160312bb88f5d1919228b -->
<g id="edge36" class="edge">
<title>dir_eb4af4e99dee9ee973ff499f28504984&#45;&gt;dir_de77370fa4c160312bb88f5d1919228b</title>
<path fill="none" stroke="black" d="M136.76,-204.25C145.62,-211.24 156.64,-218.39 168,-222 204.96,-233.73 480.41,-234.84 517,-222 524.14,-219.5 530.99,-215.33 537.09,-210.7"/>
<polygon fill="black" stroke="black" points="539.45,-213.29 544.92,-204.22 534.99,-207.9 539.45,-213.29"/>
<g id="a_edge36&#45;headlabel"><a xlink:href="dir_000009_000017.html" target="_top" xlink:title="3">
<text text-anchor="middle" x="538.5" y="-215.27" font-family="Helvetica,sans-Serif" font-size="10.00">3</text>
</a>
</g>
</g>
<!-- dir_eb4af4e99dee9ee973ff499f28504984&#45;&gt;dir_4ad73661ceecee2f59b8c0b0178f9787 -->
<g id="edge35" class="edge">
<title>dir_eb4af4e99dee9ee973ff499f28504984&#45;&gt;dir_4ad73661ceecee2f59b8c0b0178f9787</title>
<path fill="none" stroke="black" d="M139.97,-167.88C156.76,-157.25 179.71,-143.63 198.9,-132.87"/>
<polygon fill="black" stroke="black" points="200.65,-135.9 207.7,-128 197.26,-129.78 200.65,-135.9"/>
<g id="a_edge35&#45;headlabel"><a xlink:href="dir_000009_000007.html" target="_top" xlink:title="2">
<text text-anchor="middle" x="198.88" y="-137.63" font-family="Helvetica,sans-Serif" font-size="10.00">2</text>
</a>
</g>
</g>
<!-- dir_72722e64122ba09534fd16b67552a996&#45;&gt;dir_de77370fa4c160312bb88f5d1919228b -->
<g id="edge2" class="edge">
<title>dir_72722e64122ba09534fd16b67552a996&#45;&gt;dir_de77370fa4c160312bb88f5d1919228b</title>
<path fill="none" stroke="black" d="M436.42,-239.81C471.89,-223.56 481.33,-220.35 517,-204 518.17,-203.47 519.35,-202.92 520.55,-202.37"/>
<polygon fill="black" stroke="black" points="522.32,-205.4 529.95,-198.05 519.4,-199.04 522.32,-205.4"/>
<g id="a_edge2&#45;headlabel"><a xlink:href="dir_000011_000017.html" target="_top" xlink:title="7">
<text text-anchor="middle" x="520.24" y="-206.98" font-family="Helvetica,sans-Serif" font-size="10.00">7</text>
</a>
</g>
</g>
<!-- dir_dee7b2cf51f0719d61c9bcb7f2f06001&#45;&gt;dir_de77370fa4c160312bb88f5d1919228b -->
<g id="edge25" class="edge">
<title>dir_dee7b2cf51f0719d61c9bcb7f2f06001&#45;&gt;dir_de77370fa4c160312bb88f5d1919228b</title>
<path fill="none" stroke="black" d="M210.16,-243.06C213.09,-241.89 216.08,-240.84 219,-240 347.84,-203.1 391.79,-239.94 519.84,-205.59"/>
<polygon fill="black" stroke="black" points="520.91,-208.92 529.61,-202.87 519.04,-202.18 520.91,-208.92"/>
<g id="a_edge25&#45;headlabel"><a xlink:href="dir_000012_000017.html" target="_top" xlink:title="2">
<text text-anchor="middle" x="518.21" y="-210.12" font-family="Helvetica,sans-Serif" font-size="10.00">2</text>
</a>
</g>
</g>
<!-- dir_dee7b2cf51f0719d61c9bcb7f2f06001&#45;&gt;dir_4ad73661ceecee2f59b8c0b0178f9787 -->
<g id="edge24" class="edge">
<title>dir_dee7b2cf51f0719d61c9bcb7f2f06001&#45;&gt;dir_4ad73661ceecee2f59b8c0b0178f9787</title>
<path fill="none" stroke="black" d="M204.45,-239.68C214.43,-230.28 225.33,-217.78 231,-204 239.03,-184.48 239.64,-160.49 238.45,-142.33"/>
<polygon fill="black" stroke="black" points="241.92,-141.79 237.56,-132.13 234.95,-142.4 241.92,-141.79"/>
<g id="a_edge24&#45;headlabel"><a xlink:href="dir_000012_000007.html" target="_top" xlink:title="1">
<text text-anchor="middle" x="245.06" y="-142.62" font-family="Helvetica,sans-Serif" font-size="10.00">1</text>
</a>
</g>
</g>
<!-- dir_dee7b2cf51f0719d61c9bcb7f2f06001&#45;&gt;dir_366a47d27432147542e5f7548d7df575 -->
<g id="edge23" class="edge">
<title>dir_dee7b2cf51f0719d61c9bcb7f2f06001&#45;&gt;dir_366a47d27432147542e5f7548d7df575</title>
<path fill="none" stroke="black" d="M180.05,-239.7C180.58,-231.9 181.97,-222.51 183.82,-213.83"/>
<polygon fill="black" stroke="black" points="187.22,-214.65 186.17,-204.1 180.42,-213 187.22,-214.65"/>
<g id="a_edge23&#45;headlabel"><a xlink:href="dir_000012_000013.html" target="_top" xlink:title="1">
<text text-anchor="middle" x="189.13" y="-216.31" font-family="Helvetica,sans-Serif" font-size="10.00">1</text>
</a>
</g>
</g>
<!-- dir_366a47d27432147542e5f7548d7df575&#45;&gt;dir_de77370fa4c160312bb88f5d1919228b -->
<g id="edge32" class="edge">
<title>dir_366a47d27432147542e5f7548d7df575&#45;&gt;dir_de77370fa4c160312bb88f5d1919228b</title>
<path fill="none" stroke="black" d="M222.24,-186C321.36,-186 420.48,-186 519.6,-186"/>
<polygon fill="black" stroke="black" points="519.82,-189.5 529.82,-186 519.82,-182.5 519.82,-189.5"/>
<g id="a_edge32&#45;headlabel"><a xlink:href="dir_000013_000017.html" target="_top" xlink:title="6">
<text text-anchor="middle" x="516.22" y="-189.84" font-family="Helvetica,sans-Serif" font-size="10.00">6</text>
</a>
</g>
</g>
<!-- dir_366a47d27432147542e5f7548d7df575&#45;&gt;dir_4ad73661ceecee2f59b8c0b0178f9787 -->
<g id="edge31" class="edge">
<title>dir_366a47d27432147542e5f7548d7df575&#45;&gt;dir_4ad73661ceecee2f59b8c0b0178f9787</title>
<path fill="none" stroke="black" d="M204.89,-167.7C209.49,-159.64 215.06,-149.89 220.15,-140.98"/>
<polygon fill="black" stroke="black" points="223.3,-142.52 225.23,-132.1 217.23,-139.05 223.3,-142.52"/>
<g id="a_edge31&#45;headlabel"><a xlink:href="dir_000013_000007.html" target="_top" xlink:title="1">
<text text-anchor="middle" x="223.99" y="-144.55" font-family="Helvetica,sans-Serif" font-size="10.00">1</text>
</a>
</g>
</g>
<!-- dir_366a47d27432147542e5f7548d7df575&#45;&gt;dir_dee7b2cf51f0719d61c9bcb7f2f06001 -->
<g id="edge33" class="edge">
<title>dir_366a47d27432147542e5f7548d7df575&#45;&gt;dir_dee7b2cf51f0719d61c9bcb7f2f06001</title>
<path fill="none" stroke="black" d="M197.96,-204.1C197.44,-211.88 196.07,-221.26 194.23,-229.95"/>
<polygon fill="black" stroke="black" points="190.82,-229.16 191.88,-239.7 197.63,-230.79 190.82,-229.16"/>
<g id="a_edge33&#45;headlabel"><a xlink:href="dir_000013_000012.html" target="_top" xlink:title="1">
<text text-anchor="middle" x="188.9" y="-222.5" font-family="Helvetica,sans-Serif" font-size="10.00">1</text>
</a>
</g>
</g>
<!-- dir_366a47d27432147542e5f7548d7df575&#45;&gt;dir_123f1f7ecbbeeb7ce6bbb34d36fe9b6f -->
<g id="edge30" class="edge">
<title>dir_366a47d27432147542e5f7548d7df575&#45;&gt;dir_123f1f7ecbbeeb7ce6bbb34d36fe9b6f</title>
<path fill="none" stroke="black" d="M187.09,-167.7C183.45,-159.73 179.05,-150.1 175.01,-141.26"/>
<polygon fill="black" stroke="black" points="178.16,-139.74 170.82,-132.1 171.79,-142.65 178.16,-139.74"/>
<g id="a_edge30&#45;headlabel"><a xlink:href="dir_000013_000014.html" target="_top" xlink:title="1">
<text text-anchor="middle" x="182.24" y="-139.33" font-family="Helvetica,sans-Serif" font-size="10.00">1</text>
</a>
</g>
</g>
<!-- dir_87059d60c7dfcd3dc8f50ab725effb95&#45;&gt;dir_eb4af4e99dee9ee973ff499f28504984 -->
<g id="edge1" class="edge">
<title>dir_87059d60c7dfcd3dc8f50ab725effb95&#45;&gt;dir_eb4af4e99dee9ee973ff499f28504984</title>
<path fill="none" stroke="black" d="M158.98,-60.1C147.2,-69.28 134.31,-81.66 127,-96 117.27,-115.11 115.12,-139.46 115.21,-157.86"/>
<polygon fill="black" stroke="black" points="111.71,-158.02 115.48,-167.92 118.71,-157.83 111.71,-158.02"/>
<g id="a_edge1&#45;headlabel"><a xlink:href="dir_000016_000009.html" target="_top" xlink:title="2">
<text text-anchor="middle" x="108.78" y="-152" font-family="Helvetica,sans-Serif" font-size="10.00">2</text>
</a>
</g>
</g>
</g>
</svg>
        <g id="navigator" transform="translate(0 0)" fill="#404254">
                <rect fill="#f2f5e9" fill-opacity="0.5" stroke="#606060" stroke-width=".5" x="0" y="0" width="60" height="60"/>
                <use id="zoomplus" xlink:href="#zoomPlus" x="17" y="9" onmousedown="handleZoom(evt,'in')"/>
                <use id="zoomminus" xlink:href="#zoomMin" x="42" y="9" onmousedown="handleZoom(evt,'out')"/>
                <use id="reset" xlink:href="#resetDef" x="30" y="36" onmousedown="handleReset()"/>
                <g id="arrowUp" xlink:href="#dirArrow" transform="translate(30 24)" onmousedown="handlePan(0,-1)">
                  <use xlink:href="#rim" fill="#404040">
                        <set attributeName="fill" to="#808080" begin="arrowUp.mouseover" end="arrowUp.mouseout"/>
                  </use>
                  <path fill="none" stroke="white" stroke-width="1.5" d="M0,-3.0v7 M-2.5,-0.5L0,-3.0L2.5,-0.5"/>
                </g>
                <g id="arrowRight" xlink:href="#dirArrow" transform="rotate(90) translate(36 -43)" onmousedown="handlePan(1,0)">
                  <use xlink:href="#rim" fill="#404040">
                        <set attributeName="fill" to="#808080" begin="arrowRight.mouseover" end="arrowRight.mouseout"/>
                  </use>
                  <path fill="none" stroke="white" stroke-width="1.5" d="M0,-3.0v7 M-2.5,-0.5L0,-3.0L2.5,-0.5"/>
                </g>
                <g id="arrowDown" xlink:href="#dirArrow" transform="rotate(180) translate(-30 -48)" onmousedown="handlePan(0,1)">
                  <use xlink:href="#rim" fill="#404040">
                        <set attributeName="fill" to="#808080" begin="arrowDown.mouseover" end="arrowDown.mouseout"/>
                  </use>
                  <path fill="none" stroke="white" stroke-width="1.5" d="M0,-3.0v7 M-2.5,-0.5L0,-3.0L2.5,-0.5"/>
                </g>
                <g id="arrowLeft" xlink:href="#dirArrow" transform="rotate(270) translate(-36 17)" onmousedown="handlePan(-1,0)">
                  <use xlink:href="#rim" fill="#404040">
                        <set attributeName="fill" to="#808080" begin="arrowLeft.mouseover" end="arrowLeft.mouseout"/>
                  </use>
                  <path fill="none" stroke="white" stroke-width="1.5" d="M0,-3.0v7 M-2.5,-0.5L0,-3.0L2.5,-0.5"/>
                </g>
        </g>
        <svg viewBox="0 0 15 15" width="100%" height="30px" preserveAspectRatio="xMaxYMin meet">
         <g id="arrow_out" transform="scale(0.3 0.3)">
          <a xlink:href="dir_1587a151464512ea3626aba36cd93a86_dep_org.svg" target="_base">
           <rect id="button" ry="5" rx="5" y="6" x="6" height="38" width="38"
                fill="#f2f5e9" fill-opacity="0.5" stroke="#606060" stroke-width="1.0"/>
           <path id="arrow"
             d="M 11.500037,31.436501 C 11.940474,20.09759 22.043105,11.32322 32.158766,21.979434 L 37.068811,17.246167 C 37.068811,17.246167 37.088388,32 37.088388,32 L 22.160133,31.978069 C 22.160133,31.978069 26.997745,27.140456 26.997745,27.140456 C 18.528582,18.264221 13.291696,25.230495 11.500037,31.436501 z"
             style="fill:#404040;"/>
          </a>
         </g>
        </svg>
</svg>
