<?xml version="1.0" encoding="UTF-8" standalone="no"?>
<!DOCTYPE svg PUBLIC "-//W3C//DTD SVG 1.1//EN"
 "http://www.w3.org/Graphics/SVG/1.1/DTD/svg11.dtd">
<!-- Generated by graphviz version 2.44.0 ()
 -->
<!-- Title: src Pages: 1 -->
<!--zoomable 132 -->
<svg id="main" version="1.1" xmlns="http://www.w3.org/2000/svg" xmlns:xlink="http://www.w3.org/1999/xlink" xml:space="preserve" onload="init(evt)">
<style type="text/css"><![CDATA[
.edge:hover path { stroke: red; }
.edge:hover polygon { stroke: red; fill: red; }
]]></style>
<script type="text/javascript"><![CDATA[
var edges = document.getElementsByTagName('g');
if (edges && edges.length) {
  for (var i=0;i<edges.length;i++) {
    if (edges[i].id.substr(0,4)=='edge') {
      edges[i].setAttribute('class','edge');
    }
  }
}
]]></script>
        <defs>
                <circle id="rim" cx="0" cy="0" r="7"/>
                <circle id="rim2" cx="0" cy="0" r="3.5"/>
                <g id="zoomPlus">
                        <use xlink:href="#rim" fill="#404040">
                                <set attributeName="fill" to="#808080" begin="zoomplus.mouseover" end="zoomplus.mouseout"/>
                        </use>
                        <path d="M-4,0h8M0,-4v8" fill="none" stroke="white" stroke-width="1.5" pointer-events="none"/>
                </g>
                <g id="zoomMin">
                        <use xlink:href="#rim" fill="#404040">
                                <set attributeName="fill" to="#808080" begin="zoomminus.mouseover" end="zoomminus.mouseout"/>
                        </use>
                        <path d="M-4,0h8" fill="none" stroke="white" stroke-width="1.5" pointer-events="none"/>
                </g>
                <g id="dirArrow">
                        <path fill="none" stroke="white" stroke-width="1.5" d="M0,-3.0v7 M-2.5,-0.5L0,-3.0L2.5,-0.5"/>
                </g>
               <g id="resetDef">
                       <use xlink:href="#rim2" fill="#404040">
                               <set attributeName="fill" to="#808080" begin="reset.mouseover" end="reset.mouseout"/>
                       </use>
               </g>
        </defs>

<script type="text/javascript">
var viewWidth = 1149;
var viewHeight = 132;
var sectionId = 'dynsection-0';
</script>
<script xlink:href="svgpan.js"/>
<svg id="graph" class="graph">
<g id="viewport">
<title>src</title>
<g id="clust1" class="cluster">
<title>clusterdir_68267d1309a1af8e8297ef4c3efbcdba</title>
<g id="a_clust1"><a xlink:href="dir_68267d1309a1af8e8297ef4c3efbcdba.html" target="_top">
<polygon fill="#eeeeff" stroke="black" points="8,-64 8,-116 1133,-116 1133,-64 8,-64"/>
</a>
</g>
</g>
<!-- dir_68267d1309a1af8e8297ef4c3efbcdba -->
<g id="node1" class="node">
<title>dir_68267d1309a1af8e8297ef4c3efbcdba</title>
<text text-anchor="middle" x="1098" y="-87.5" font-family="Helvetica,sans-Serif" font-size="10.00">src</text>
</g>
<!-- dir_32137984f496da46263d816e0d6dc804 -->
<g id="node2" class="node">
<title>dir_32137984f496da46263d816e0d6dc804</title>
<g id="a_node2"><a xlink:href="dir_32137984f496da46263d816e0d6dc804.html" target="_top" xlink:title="API">
<polygon fill="white" stroke="black" points="1053,-108 999,-108 999,-72 1053,-72 1053,-108"/>
<text text-anchor="middle" x="1026" y="-87.5" font-family="Helvetica,sans-Serif" font-size="10.00">API</text>
</a>
</g>
</g>
<!-- dir_09e761304027c904456130627fd4dcf5 -->
<g id="node16" class="node">
<title>dir_09e761304027c904456130627fd4dcf5</title>
<g id="a_node16"><a xlink:href="dir_09e761304027c904456130627fd4dcf5.html" target="_top" xlink:title="includes">
<polygon fill="none" stroke="red" points="522,-36 468,-36 468,0 522,0 522,-36"/>
<text text-anchor="middle" x="495" y="-15.5" font-family="Helvetica,sans-Serif" font-size="10.00">includes</text>
</a>
</g>
</g>
<!-- dir_32137984f496da46263d816e0d6dc804&#45;&gt;dir_09e761304027c904456130627fd4dcf5 -->
<g id="edge15" class="edge">
<title>dir_32137984f496da46263d816e0d6dc804&#45;&gt;dir_09e761304027c904456130627fd4dcf5</title>
<path fill="none" stroke="black" d="M1005.31,-71.98C1000.53,-68.83 995.29,-65.92 990,-64 905.89,-33.41 633.07,-22.85 532.59,-19.94"/>
<polygon fill="black" stroke="black" points="532.41,-16.43 522.32,-19.65 532.21,-23.43 532.41,-16.43"/>
<g id="a_edge15&#45;headlabel"><a xlink:href="dir_000017_000000.html" target="_top" xlink:title="14">
<text text-anchor="middle" x="536.08" y="-11.2" font-family="Helvetica,sans-Serif" font-size="10.00">14</text>
</a>
</g>
</g>
<!-- dir_3390abd4dd4868e8097d526120a85902 -->
<g id="node3" class="node">
<title>dir_3390abd4dd4868e8097d526120a85902</title>
<g id="a_node3"><a xlink:href="dir_3390abd4dd4868e8097d526120a85902.html" target="_top" xlink:title="Behaviour">
<polygon fill="white" stroke="black" points="981,-108 921,-108 921,-72 981,-72 981,-108"/>
<text text-anchor="middle" x="951" y="-87.5" font-family="Helvetica,sans-Serif" font-size="10.00">Behaviour</text>
</a>
</g>
</g>
<!-- dir_3390abd4dd4868e8097d526120a85902&#45;&gt;dir_09e761304027c904456130627fd4dcf5 -->
<g id="edge5" class="edge">
<title>dir_3390abd4dd4868e8097d526120a85902&#45;&gt;dir_09e761304027c904456130627fd4dcf5</title>
<path fill="none" stroke="black" d="M927.98,-71.8C922.94,-68.74 917.46,-65.92 912,-64 842.29,-39.44 620.93,-25.53 532.26,-20.83"/>
<polygon fill="black" stroke="black" points="532.29,-17.33 522.12,-20.3 531.93,-24.32 532.29,-17.33"/>
<g id="a_edge5&#45;headlabel"><a xlink:href="dir_000018_000000.html" target="_top" xlink:title="4">
<text text-anchor="middle" x="536.03" y="-12.18" font-family="Helvetica,sans-Serif" font-size="10.00">4</text>
</a>
</g>
</g>
<!-- dir_96711deda0d7ee481a09206bc6c79536 -->
<g id="node4" class="node">
<title>dir_96711deda0d7ee481a09206bc6c79536</title>
<g id="a_node4"><a xlink:href="dir_96711deda0d7ee481a09206bc6c79536.html" target="_top" xlink:title="Builder">
<polygon fill="white" stroke="black" points="903,-108 849,-108 849,-72 903,-72 903,-108"/>
<text text-anchor="middle" x="876" y="-87.5" font-family="Helvetica,sans-Serif" font-size="10.00">Builder</text>
</a>
</g>
</g>
<!-- dir_96711deda0d7ee481a09206bc6c79536&#45;&gt;dir_09e761304027c904456130627fd4dcf5 -->
<g id="edge3" class="edge">
<title>dir_96711deda0d7ee481a09206bc6c79536&#45;&gt;dir_09e761304027c904456130627fd4dcf5</title>
<path fill="none" stroke="black" d="M854.86,-71.88C850.19,-68.81 845.11,-65.97 840,-64 733.77,-23 596.92,-17.98 532.15,-18.18"/>
<polygon fill="black" stroke="black" points="531.99,-14.69 522.02,-18.26 532.04,-21.69 531.99,-14.69"/>
<g id="a_edge3&#45;headlabel"><a xlink:href="dir_000019_000000.html" target="_top" xlink:title="2">
<text text-anchor="middle" x="535.56" y="-9.32" font-family="Helvetica,sans-Serif" font-size="10.00">2</text>
</a>
</g>
</g>
<!-- dir_3624c3011e0f2f30fa93f2c3df0f9e35 -->
<g id="node5" class="node">
<title>dir_3624c3011e0f2f30fa93f2c3df0f9e35</title>
<g id="a_node5"><a xlink:href="dir_3624c3011e0f2f30fa93f2c3df0f9e35.html" target="_top" xlink:title="Debug">
<polygon fill="white" stroke="black" points="831,-108 777,-108 777,-72 831,-72 831,-108"/>
<text text-anchor="middle" x="804" y="-87.5" font-family="Helvetica,sans-Serif" font-size="10.00">Debug</text>
</a>
</g>
</g>
<!-- dir_3624c3011e0f2f30fa93f2c3df0f9e35&#45;&gt;dir_09e761304027c904456130627fd4dcf5 -->
<g id="edge1" class="edge">
<title>dir_3624c3011e0f2f30fa93f2c3df0f9e35&#45;&gt;dir_09e761304027c904456130627fd4dcf5</title>
<path fill="none" stroke="black" d="M782.42,-71.75C777.86,-68.78 772.94,-66 768,-64 688.08,-31.6 585.99,-22.51 532.13,-19.97"/>
<polygon fill="black" stroke="black" points="532.16,-16.47 522.02,-19.55 531.87,-23.47 532.16,-16.47"/>
<g id="a_edge1&#45;headlabel"><a xlink:href="dir_000020_000000.html" target="_top" xlink:title="1">
<text text-anchor="middle" x="535.87" y="-11.29" font-family="Helvetica,sans-Serif" font-size="10.00">1</text>
</a>
</g>
</g>
<!-- dir_3072bc1f55ed1280fe4fbe6b21c78379 -->
<g id="node6" class="node">
<title>dir_3072bc1f55ed1280fe4fbe6b21c78379</title>
<g id="a_node6"><a xlink:href="dir_3072bc1f55ed1280fe4fbe6b21c78379.html" target="_top" xlink:title="Engine">
<polygon fill="white" stroke="black" points="759,-108 705,-108 705,-72 759,-72 759,-108"/>
<text text-anchor="middle" x="732" y="-87.5" font-family="Helvetica,sans-Serif" font-size="10.00">Engine</text>
</a>
</g>
</g>
<!-- dir_3072bc1f55ed1280fe4fbe6b21c78379&#45;&gt;dir_09e761304027c904456130627fd4dcf5 -->
<g id="edge12" class="edge">
<title>dir_3072bc1f55ed1280fe4fbe6b21c78379&#45;&gt;dir_09e761304027c904456130627fd4dcf5</title>
<path fill="none" stroke="black" d="M710.33,-71.98C705.78,-68.98 700.88,-66.14 696,-64 641.78,-40.2 573.61,-28.36 532.22,-22.97"/>
<polygon fill="black" stroke="black" points="532.4,-19.46 522.04,-21.7 531.53,-26.41 532.4,-19.46"/>
<g id="a_edge12&#45;headlabel"><a xlink:href="dir_000021_000000.html" target="_top" xlink:title="7">
<text text-anchor="middle" x="536.32" y="-14.59" font-family="Helvetica,sans-Serif" font-size="10.00">7</text>
</a>
</g>
</g>
<!-- dir_f9ab0b6dc9229052dbade29aa876c209 -->
<g id="node7" class="node">
<title>dir_f9ab0b6dc9229052dbade29aa876c209</title>
<g id="a_node7"><a xlink:href="dir_f9ab0b6dc9229052dbade29aa876c209.html" target="_top" xlink:title="Facade">
<polygon fill="white" stroke="black" points="687,-108 633,-108 633,-72 687,-72 687,-108"/>
<text text-anchor="middle" x="660" y="-87.5" font-family="Helvetica,sans-Serif" font-size="10.00">Facade</text>
</a>
</g>
</g>
<!-- dir_f9ab0b6dc9229052dbade29aa876c209&#45;&gt;dir_09e761304027c904456130627fd4dcf5 -->
<g id="edge4" class="edge">
<title>dir_f9ab0b6dc9229052dbade29aa876c209&#45;&gt;dir_09e761304027c904456130627fd4dcf5</title>
<path fill="none" stroke="black" d="M637.34,-71.9C633.03,-69.05 628.47,-66.28 624,-64 594.2,-48.82 558.1,-36.71 531.67,-28.89"/>
<polygon fill="black" stroke="black" points="532.63,-25.53 522.05,-26.11 530.69,-32.25 532.63,-25.53"/>
<g id="a_edge4&#45;headlabel"><a xlink:href="dir_000022_000000.html" target="_top" xlink:title="16">
<text text-anchor="middle" x="536.87" y="-21.3" font-family="Helvetica,sans-Serif" font-size="10.00">16</text>
</a>
</g>
</g>
<!-- dir_478e71b012c2141737dda928c5fa854e -->
<g id="node8" class="node">
<title>dir_478e71b012c2141737dda928c5fa854e</title>
<g id="a_node8"><a xlink:href="dir_478e71b012c2141737dda928c5fa854e.html" target="_top" xlink:title="GameLevel">
<polygon fill="white" stroke="black" points="614.5,-108 547.5,-108 547.5,-72 614.5,-72 614.5,-108"/>
<text text-anchor="middle" x="581" y="-87.5" font-family="Helvetica,sans-Serif" font-size="10.00">GameLevel</text>
</a>
</g>
</g>
<!-- dir_478e71b012c2141737dda928c5fa854e&#45;&gt;dir_09e761304027c904456130627fd4dcf5 -->
<g id="edge2" class="edge">
<title>dir_478e71b012c2141737dda928c5fa854e&#45;&gt;dir_09e761304027c904456130627fd4dcf5</title>
<path fill="none" stroke="black" d="M559.74,-71.7C548.91,-62.88 535.58,-52.03 523.84,-42.47"/>
<polygon fill="black" stroke="black" points="525.98,-39.7 516.01,-36.1 521.56,-45.13 525.98,-39.7"/>
<g id="a_edge2&#45;headlabel"><a xlink:href="dir_000023_000000.html" target="_top" xlink:title="2">
<text text-anchor="middle" x="530.56" y="-37.27" font-family="Helvetica,sans-Serif" font-size="10.00">2</text>
</a>
</g>
</g>
<!-- dir_72264bd4eb08aca2edb77b06492552d6 -->
<g id="node9" class="node">
<title>dir_72264bd4eb08aca2edb77b06492552d6</title>
<g id="a_node9"><a xlink:href="dir_72264bd4eb08aca2edb77b06492552d6.html" target="_top" xlink:title="LevelParser">
<polygon fill="white" stroke="black" points="529.5,-108 460.5,-108 460.5,-72 529.5,-72 529.5,-108"/>
<text text-anchor="middle" x="495" y="-87.5" font-family="Helvetica,sans-Serif" font-size="10.00">LevelParser</text>
</a>
</g>
</g>
<!-- dir_72264bd4eb08aca2edb77b06492552d6&#45;&gt;dir_09e761304027c904456130627fd4dcf5 -->
<g id="edge7" class="edge">
<title>dir_72264bd4eb08aca2edb77b06492552d6&#45;&gt;dir_09e761304027c904456130627fd4dcf5</title>
<path fill="none" stroke="black" d="M495,-71.7C495,-63.98 495,-54.71 495,-46.11"/>
<polygon fill="black" stroke="black" points="498.5,-46.1 495,-36.1 491.5,-46.1 498.5,-46.1"/>
<g id="a_edge7&#45;headlabel"><a xlink:href="dir_000024_000000.html" target="_top" xlink:title="4">
<text text-anchor="middle" x="501.34" y="-47.2" font-family="Helvetica,sans-Serif" font-size="10.00">4</text>
</a>
</g>
</g>
<!-- dir_bd51a612c92e41a52efc1573706495c8 -->
<g id="node10" class="node">
<title>dir_bd51a612c92e41a52efc1573706495c8</title>
<g id="a_node10"><a xlink:href="dir_bd51a612c92e41a52efc1573706495c8.html" target="_top" xlink:title="Networking">
<polygon fill="white" stroke="black" points="442,-108 376,-108 376,-72 442,-72 442,-108"/>
<text text-anchor="middle" x="409" y="-87.5" font-family="Helvetica,sans-Serif" font-size="10.00">Networking</text>
</a>
</g>
</g>
<!-- dir_bd51a612c92e41a52efc1573706495c8&#45;&gt;dir_09e761304027c904456130627fd4dcf5 -->
<g id="edge14" class="edge">
<title>dir_bd51a612c92e41a52efc1573706495c8&#45;&gt;dir_09e761304027c904456130627fd4dcf5</title>
<path fill="none" stroke="black" d="M424.34,-71.7C434.36,-62.8 447.68,-51.82 460.1,-42.2"/>
<polygon fill="black" stroke="black" points="462.26,-44.95 468.09,-36.1 458.02,-39.39 462.26,-44.95"/>
<g id="a_edge14&#45;headlabel"><a xlink:href="dir_000025_000000.html" target="_top" xlink:title="10">
<text text-anchor="middle" x="461.13" y="-46.89" font-family="Helvetica,sans-Serif" font-size="10.00">10</text>
</a>
</g>
</g>
<!-- dir_0df09a091a4eb5e56719829019e3d2f9 -->
<g id="node11" class="node">
<title>dir_0df09a091a4eb5e56719829019e3d2f9</title>
<g id="a_node11"><a xlink:href="dir_0df09a091a4eb5e56719829019e3d2f9.html" target="_top" xlink:title="Physics">
<polygon fill="white" stroke="black" points="358,-108 304,-108 304,-72 358,-72 358,-108"/>
<text text-anchor="middle" x="331" y="-87.5" font-family="Helvetica,sans-Serif" font-size="10.00">Physics</text>
</a>
</g>
</g>
<!-- dir_0df09a091a4eb5e56719829019e3d2f9&#45;&gt;dir_09e761304027c904456130627fd4dcf5 -->
<g id="edge9" class="edge">
<title>dir_0df09a091a4eb5e56719829019e3d2f9&#45;&gt;dir_09e761304027c904456130627fd4dcf5</title>
<path fill="none" stroke="black" d="M353.67,-71.91C357.97,-69.05 362.53,-66.29 367,-64 396.35,-49 431.85,-36.95 458.02,-29.11"/>
<polygon fill="black" stroke="black" points="459.3,-32.39 467.91,-26.22 457.33,-25.67 459.3,-32.39"/>
<g id="a_edge9&#45;headlabel"><a xlink:href="dir_000026_000000.html" target="_top" xlink:title="11">
<text text-anchor="middle" x="456.64" y="-33.62" font-family="Helvetica,sans-Serif" font-size="10.00">11</text>
</a>
</g>
</g>
<!-- dir_4c7ee98193a6cba0af9aae7f963a60da -->
<g id="node12" class="node">
<title>dir_4c7ee98193a6cba0af9aae7f963a60da</title>
<g id="a_node12"><a xlink:href="dir_4c7ee98193a6cba0af9aae7f963a60da.html" target="_top" xlink:title="Render">
<polygon fill="white" stroke="black" points="286,-108 232,-108 232,-72 286,-72 286,-108"/>
<text text-anchor="middle" x="259" y="-87.5" font-family="Helvetica,sans-Serif" font-size="10.00">Render</text>
</a>
</g>
</g>
<!-- dir_4c7ee98193a6cba0af9aae7f963a60da&#45;&gt;dir_09e761304027c904456130627fd4dcf5 -->
<g id="edge11" class="edge">
<title>dir_4c7ee98193a6cba0af9aae7f963a60da&#45;&gt;dir_09e761304027c904456130627fd4dcf5</title>
<path fill="none" stroke="black" d="M280.67,-71.98C285.22,-68.98 290.12,-66.14 295,-64 348.8,-40.35 416.41,-28.49 457.62,-23.05"/>
<polygon fill="black" stroke="black" points="458.28,-26.49 467.76,-21.77 457.4,-19.55 458.28,-26.49"/>
<g id="a_edge11&#45;headlabel"><a xlink:href="dir_000027_000000.html" target="_top" xlink:title="3">
<text text-anchor="middle" x="455.07" y="-27.26" font-family="Helvetica,sans-Serif" font-size="10.00">3</text>
</a>
</g>
</g>
<!-- dir_204260ac86670e69c647eaba8962e745 -->
<g id="node13" class="node">
<title>dir_204260ac86670e69c647eaba8962e745</title>
<g id="a_node13"><a xlink:href="dir_204260ac86670e69c647eaba8962e745.html" target="_top" xlink:title="Scene">
<polygon fill="white" stroke="black" points="214,-108 160,-108 160,-72 214,-72 214,-108"/>
<text text-anchor="middle" x="187" y="-87.5" font-family="Helvetica,sans-Serif" font-size="10.00">Scene</text>
</a>
</g>
</g>
<!-- dir_204260ac86670e69c647eaba8962e745&#45;&gt;dir_09e761304027c904456130627fd4dcf5 -->
<g id="edge13" class="edge">
<title>dir_204260ac86670e69c647eaba8962e745&#45;&gt;dir_09e761304027c904456130627fd4dcf5</title>
<path fill="none" stroke="black" d="M208.58,-71.76C213.14,-68.78 218.06,-66 223,-64 302.42,-31.77 403.81,-22.61 457.58,-20.02"/>
<polygon fill="black" stroke="black" points="457.84,-23.51 467.68,-19.58 457.54,-16.52 457.84,-23.51"/>
<g id="a_edge13&#45;headlabel"><a xlink:href="dir_000028_000000.html" target="_top" xlink:title="7">
<text text-anchor="middle" x="454.37" y="-24" font-family="Helvetica,sans-Serif" font-size="10.00">7</text>
</a>
</g>
</g>
<!-- dir_64cece8721923da8192b70f373152c4b -->
<g id="node14" class="node">
<title>dir_64cece8721923da8192b70f373152c4b</title>
<g id="a_node14"><a xlink:href="dir_64cece8721923da8192b70f373152c4b.html" target="_top" xlink:title="Texture">
<polygon fill="white" stroke="black" points="142,-108 88,-108 88,-72 142,-72 142,-108"/>
<text text-anchor="middle" x="115" y="-87.5" font-family="Helvetica,sans-Serif" font-size="10.00">Texture</text>
</a>
</g>
</g>
<!-- dir_64cece8721923da8192b70f373152c4b&#45;&gt;dir_09e761304027c904456130627fd4dcf5 -->
<g id="edge10" class="edge">
<title>dir_64cece8721923da8192b70f373152c4b&#45;&gt;dir_09e761304027c904456130627fd4dcf5</title>
<path fill="none" stroke="black" d="M136.14,-71.88C140.81,-68.81 145.89,-65.97 151,-64 256.65,-23.2 392.68,-18.06 457.47,-18.2"/>
<polygon fill="black" stroke="black" points="457.59,-21.7 467.61,-18.27 457.64,-14.7 457.59,-21.7"/>
<g id="a_edge10&#45;headlabel"><a xlink:href="dir_000029_000000.html" target="_top" xlink:title="4">
<text text-anchor="middle" x="453.98" y="-22.02" font-family="Helvetica,sans-Serif" font-size="10.00">4</text>
</a>
</g>
</g>
<!-- dir_6acd24eea7f3fe579df422711269a2fc -->
<g id="node15" class="node">
<title>dir_6acd24eea7f3fe579df422711269a2fc</title>
<g id="a_node15"><a xlink:href="dir_6acd24eea7f3fe579df422711269a2fc.html" target="_top" xlink:title="Timer">
<polygon fill="white" stroke="black" points="70,-108 16,-108 16,-72 70,-72 70,-108"/>
<text text-anchor="middle" x="43" y="-87.5" font-family="Helvetica,sans-Serif" font-size="10.00">Timer</text>
</a>
</g>
</g>
<!-- dir_6acd24eea7f3fe579df422711269a2fc&#45;&gt;dir_09e761304027c904456130627fd4dcf5 -->
<g id="edge8" class="edge">
<title>dir_6acd24eea7f3fe579df422711269a2fc&#45;&gt;dir_09e761304027c904456130627fd4dcf5</title>
<path fill="none" stroke="black" d="M64.1,-71.79C68.77,-68.73 73.87,-65.92 79,-64 148.07,-38.21 369.18,-25.02 457.77,-20.67"/>
<polygon fill="black" stroke="black" points="458.08,-24.16 467.9,-20.18 457.74,-17.17 458.08,-24.16"/>
<g id="a_edge8&#45;headlabel"><a xlink:href="dir_000030_000000.html" target="_top" xlink:title="3">
<text text-anchor="middle" x="454.62" y="-24.67" font-family="Helvetica,sans-Serif" font-size="10.00">3</text>
</a>
</g>
</g>
<!-- dir_09e761304027c904456130627fd4dcf5&#45;&gt;dir_bd51a612c92e41a52efc1573706495c8 -->
<g id="edge6" class="edge">
<title>dir_09e761304027c904456130627fd4dcf5&#45;&gt;dir_bd51a612c92e41a52efc1573706495c8</title>
<path fill="none" stroke="black" d="M479.88,-36.1C469.91,-44.97 456.61,-55.94 444.18,-65.59"/>
<polygon fill="black" stroke="black" points="442,-62.85 436.17,-71.7 446.25,-68.41 442,-62.85"/>
<g id="a_edge6&#45;headlabel"><a xlink:href="dir_000000_000025.html" target="_top" xlink:title="2">
<text text-anchor="middle" x="443.13" y="-55.91" font-family="Helvetica,sans-Serif" font-size="10.00">2</text>
</a>
</g>
</g>
</g>
</svg>
        <g id="navigator" transform="translate(0 0)" fill="#404254">
                <rect fill="#f2f5e9" fill-opacity="0.5" stroke="#606060" stroke-width=".5" x="0" y="0" width="60" height="60"/>
                <use id="zoomplus" xlink:href="#zoomPlus" x="17" y="9" onmousedown="handleZoom(evt,'in')"/>
                <use id="zoomminus" xlink:href="#zoomMin" x="42" y="9" onmousedown="handleZoom(evt,'out')"/>
                <use id="reset" xlink:href="#resetDef" x="30" y="36" onmousedown="handleReset()"/>
                <g id="arrowUp" xlink:href="#dirArrow" transform="translate(30 24)" onmousedown="handlePan(0,-1)">
                  <use xlink:href="#rim" fill="#404040">
                        <set attributeName="fill" to="#808080" begin="arrowUp.mouseover" end="arrowUp.mouseout"/>
                  </use>
                  <path fill="none" stroke="white" stroke-width="1.5" d="M0,-3.0v7 M-2.5,-0.5L0,-3.0L2.5,-0.5"/>
                </g>
                <g id="arrowRight" xlink:href="#dirArrow" transform="rotate(90) translate(36 -43)" onmousedown="handlePan(1,0)">
                  <use xlink:href="#rim" fill="#404040">
                        <set attributeName="fill" to="#808080" begin="arrowRight.mouseover" end="arrowRight.mouseout"/>
                  </use>
                  <path fill="none" stroke="white" stroke-width="1.5" d="M0,-3.0v7 M-2.5,-0.5L0,-3.0L2.5,-0.5"/>
                </g>
                <g id="arrowDown" xlink:href="#dirArrow" transform="rotate(180) translate(-30 -48)" onmousedown="handlePan(0,1)">
                  <use xlink:href="#rim" fill="#404040">
                        <set attributeName="fill" to="#808080" begin="arrowDown.mouseover" end="arrowDown.mouseout"/>
                  </use>
                  <path fill="none" stroke="white" stroke-width="1.5" d="M0,-3.0v7 M-2.5,-0.5L0,-3.0L2.5,-0.5"/>
                </g>
                <g id="arrowLeft" xlink:href="#dirArrow" transform="rotate(270) translate(-36 17)" onmousedown="handlePan(-1,0)">
                  <use xlink:href="#rim" fill="#404040">
                        <set attributeName="fill" to="#808080" begin="arrowLeft.mouseover" end="arrowLeft.mouseout"/>
                  </use>
                  <path fill="none" stroke="white" stroke-width="1.5" d="M0,-3.0v7 M-2.5,-0.5L0,-3.0L2.5,-0.5"/>
                </g>
        </g>
        <svg viewBox="0 0 15 15" width="100%" height="30px" preserveAspectRatio="xMaxYMin meet">
         <g id="arrow_out" transform="scale(0.3 0.3)">
          <a xlink:href="dir_68267d1309a1af8e8297ef4c3efbcdba_dep_org.svg" target="_base">
           <rect id="button" ry="5" rx="5" y="6" x="6" height="38" width="38"
                fill="#f2f5e9" fill-opacity="0.5" stroke="#606060" stroke-width="1.0"/>
           <path id="arrow"
             d="M 11.500037,31.436501 C 11.940474,20.09759 22.043105,11.32322 32.158766,21.979434 L 37.068811,17.246167 C 37.068811,17.246167 37.088388,32 37.088388,32 L 22.160133,31.978069 C 22.160133,31.978069 26.997745,27.140456 26.997745,27.140456 C 18.528582,18.264221 13.291696,25.230495 11.500037,31.436501 z"
             style="fill:#404040;"/>
          </a>
         </g>
        </svg>
</svg>
