<?xml version="1.0" encoding="UTF-8" standalone="no"?>
<!DOCTYPE svg PUBLIC "-//W3C//DTD SVG 1.1//EN"
 "http://www.w3.org/Graphics/SVG/1.1/DTD/svg11.dtd">
<!-- Generated by graphviz version 2.44.0 ()
 -->
<!-- Title: includes Pages: 1 -->
<svg width="260pt" height="165pt"
 viewBox="0.00 0.00 260.00 164.71" xmlns="http://www.w3.org/2000/svg" xmlns:xlink="http://www.w3.org/1999/xlink">
<g id="graph0" class="graph" transform="scale(1 1) rotate(0) translate(4 160.71)">
<title>includes</title>
<g id="clust1" class="cluster">
<title>clusterdir_09e761304027c904456130627fd4dcf5</title>
<g id="a_clust1"><a xlink:href="dir_09e761304027c904456130627fd4dcf5.html" target="_top">
<polygon fill="#eeeeff" stroke="black" points="8,-8 8,-132 188,-132 188,-8 8,-8"/>
</a>
</g>
</g>
<!-- dir_09e761304027c904456130627fd4dcf5 -->
<g id="node1" class="node">
<title>dir_09e761304027c904456130627fd4dcf5</title>
<text text-anchor="middle" x="153" y="-103.5" font-family="Helvetica,sans-Serif" font-size="10.00">includes</text>
</g>
<!-- dir_1587a151464512ea3626aba36cd93a86 -->
<g id="node2" class="node">
<title>dir_1587a151464512ea3626aba36cd93a86</title>
<g id="a_node2"><a xlink:href="dir_1587a151464512ea3626aba36cd93a86.html" target="_top" xlink:title="platformer&#45;engine">
<polygon fill="white" stroke="red" points="108,-124 16,-124 16,-88 108,-88 108,-124"/>
<text text-anchor="middle" x="62" y="-103.5" font-family="Helvetica,sans-Serif" font-size="10.00">platformer&#45;engine</text>
</a>
</g>
</g>
<!-- dir_de77370fa4c160312bb88f5d1919228b -->
<g id="node3" class="node">
<title>dir_de77370fa4c160312bb88f5d1919228b</title>
<g id="a_node3"><a xlink:href="dir_de77370fa4c160312bb88f5d1919228b.html" target="_top" xlink:title="spic&#45;prj&#45;api">
<polygon fill="white" stroke="black" points="94,-52 30,-52 30,-16 94,-16 94,-52"/>
<text text-anchor="middle" x="62" y="-31.5" font-family="Helvetica,sans-Serif" font-size="10.00">spic&#45;prj&#45;api</text>
</a>
</g>
</g>
<!-- dir_1587a151464512ea3626aba36cd93a86&#45;&gt;dir_de77370fa4c160312bb88f5d1919228b -->
<g id="edge4" class="edge">
<title>dir_1587a151464512ea3626aba36cd93a86&#45;&gt;dir_de77370fa4c160312bb88f5d1919228b</title>
<path fill="none" stroke="black" d="M56.08,-87.7C55.29,-79.98 55.06,-70.71 55.4,-62.11"/>
<polygon fill="black" stroke="black" points="58.9,-62.32 56.1,-52.1 51.92,-61.84 58.9,-62.32"/>
<g id="a_edge4&#45;headlabel"><a xlink:href="dir_000001_000012.html" target="_top" xlink:title="9">
<text text-anchor="middle" x="61.48" y="-63.61" font-family="Helvetica,sans-Serif" font-size="10.00">9</text>
</a>
</g>
</g>
<!-- dir_68267d1309a1af8e8297ef4c3efbcdba -->
<g id="node4" class="node">
<title>dir_68267d1309a1af8e8297ef4c3efbcdba</title>
<g id="a_node4"><a xlink:href="dir_68267d1309a1af8e8297ef4c3efbcdba.html" target="_top" xlink:title="src">
<polygon fill="none" stroke="red" points="252,-124 198,-124 198,-88 252,-88 252,-124"/>
<text text-anchor="middle" x="225" y="-103.5" font-family="Helvetica,sans-Serif" font-size="10.00">src</text>
</a>
</g>
</g>
<!-- dir_1587a151464512ea3626aba36cd93a86&#45;&gt;dir_68267d1309a1af8e8297ef4c3efbcdba -->
<g id="edge5" class="edge">
<title>dir_1587a151464512ea3626aba36cd93a86&#45;&gt;dir_68267d1309a1af8e8297ef4c3efbcdba</title>
<path fill="none" stroke="black" d="M81.64,-124.16C93.52,-133.88 109.52,-144.88 126,-150 150.19,-157.51 159.71,-159.97 183,-150 192.13,-146.09 200.21,-139.13 206.79,-131.87"/>
<polygon fill="black" stroke="black" points="209.62,-133.94 213.32,-124.01 204.24,-129.47 209.62,-133.94"/>
<g id="a_edge5&#45;headlabel"><a xlink:href="dir_000001_000013.html" target="_top" xlink:title="1">
<text text-anchor="middle" x="209.51" y="-136.02" font-family="Helvetica,sans-Serif" font-size="10.00">1</text>
</a>
</g>
</g>
<!-- dir_de77370fa4c160312bb88f5d1919228b&#45;&gt;dir_1587a151464512ea3626aba36cd93a86 -->
<g id="edge3" class="edge">
<title>dir_de77370fa4c160312bb88f5d1919228b&#45;&gt;dir_1587a151464512ea3626aba36cd93a86</title>
<path fill="none" stroke="black" d="M67.9,-52.1C68.7,-59.79 68.94,-69.05 68.6,-77.67"/>
<polygon fill="black" stroke="black" points="65.11,-77.48 67.92,-87.7 72.09,-77.96 65.11,-77.48"/>
<g id="a_edge3&#45;headlabel"><a xlink:href="dir_000012_000001.html" target="_top" xlink:title="1">
<text text-anchor="middle" x="62.52" y="-71.2" font-family="Helvetica,sans-Serif" font-size="10.00">1</text>
</a>
</g>
</g>
<!-- dir_68267d1309a1af8e8297ef4c3efbcdba&#45;&gt;dir_1587a151464512ea3626aba36cd93a86 -->
<g id="edge1" class="edge">
<title>dir_68267d1309a1af8e8297ef4c3efbcdba&#45;&gt;dir_1587a151464512ea3626aba36cd93a86</title>
<path fill="none" stroke="black" d="M213.32,-124.01C205.93,-133.68 195.43,-144.68 183,-150 159.71,-159.97 150.19,-157.51 126,-150 112.99,-145.96 100.29,-138.26 89.67,-130.42"/>
<polygon fill="black" stroke="black" points="91.68,-127.54 81.64,-124.16 87.38,-133.07 91.68,-127.54"/>
<g id="a_edge1&#45;headlabel"><a xlink:href="dir_000013_000001.html" target="_top" xlink:title="17">
<text text-anchor="middle" x="96.26" y="-125.01" font-family="Helvetica,sans-Serif" font-size="10.00">17</text>
</a>
</g>
</g>
<!-- dir_68267d1309a1af8e8297ef4c3efbcdba&#45;&gt;dir_de77370fa4c160312bb88f5d1919228b -->
<g id="edge2" class="edge">
<title>dir_68267d1309a1af8e8297ef4c3efbcdba&#45;&gt;dir_de77370fa4c160312bb88f5d1919228b</title>
<path fill="none" stroke="black" d="M197.72,-90.71C195.79,-89.77 193.87,-88.86 192,-88 162.85,-74.58 129.29,-60.94 103.57,-50.86"/>
<polygon fill="black" stroke="black" points="104.71,-47.55 94.13,-47.18 102.17,-54.07 104.71,-47.55"/>
<g id="a_edge2&#45;headlabel"><a xlink:href="dir_000013_000012.html" target="_top" xlink:title="18">
<text text-anchor="middle" x="109.09" y="-43.71" font-family="Helvetica,sans-Serif" font-size="10.00">18</text>
</a>
</g>
</g>
</g>
</svg>
