<?xml version="1.0" encoding="UTF-8" standalone="no"?>
<!DOCTYPE svg PUBLIC "-//W3C//DTD SVG 1.1//EN"
 "http://www.w3.org/Graphics/SVG/1.1/DTD/svg11.dtd">
<!-- Generated by graphviz version 2.44.0 ()
 -->
<!-- Title: includes/platformer&#45;engine Pages: 1 -->
<svg width="596pt" height="507pt"
 viewBox="0.00 0.00 596.00 507.00" xmlns="http://www.w3.org/2000/svg" xmlns:xlink="http://www.w3.org/1999/xlink">
<g id="graph0" class="graph" transform="scale(1 1) rotate(0) translate(4 503)">
<title>includes/platformer&#45;engine</title>
<g id="clust1" class="cluster">
<title>clusterdir_09e761304027c904456130627fd4dcf5</title>
<g id="a_clust1"><a xlink:href="dir_09e761304027c904456130627fd4dcf5.html" target="_top" xlink:title="includes">
<polygon fill="#ddddee" stroke="black" points="8,-8 8,-455 348,-455 348,-8 8,-8"/>
<text text-anchor="middle" x="178" y="-443" font-family="Helvetica,sans-Serif" font-size="10.00">includes</text>
</a>
</g>
</g>
<g id="clust2" class="cluster">
<title>clusterdir_1587a151464512ea3626aba36cd93a86</title>
<g id="a_clust2"><a xlink:href="dir_1587a151464512ea3626aba36cd93a86.html" target="_top">
<polygon fill="#eeeeff" stroke="black" points="88,-16 88,-428 340,-428 340,-16 88,-16"/>
</a>
</g>
</g>
<!-- dir_de77370fa4c160312bb88f5d1919228b -->
<g id="node1" class="node">
<title>dir_de77370fa4c160312bb88f5d1919228b</title>
<g id="a_node1"><a xlink:href="dir_de77370fa4c160312bb88f5d1919228b.html" target="_top" xlink:title="spic&#45;prj&#45;api">
<polygon fill="none" stroke="black" points="80,-276 16,-276 16,-240 80,-240 80,-276"/>
<text text-anchor="middle" x="48" y="-255.5" font-family="Helvetica,sans-Serif" font-size="10.00">spic&#45;prj&#45;api</text>
</a>
</g>
</g>
<!-- dir_1587a151464512ea3626aba36cd93a86 -->
<g id="node2" class="node">
<title>dir_1587a151464512ea3626aba36cd93a86</title>
<text text-anchor="middle" x="142" y="-399.5" font-family="Helvetica,sans-Serif" font-size="10.00">platformer&#45;engine</text>
</g>
<!-- dir_de77370fa4c160312bb88f5d1919228b&#45;&gt;dir_1587a151464512ea3626aba36cd93a86 -->
<g id="edge17" class="edge">
<title>dir_de77370fa4c160312bb88f5d1919228b&#45;&gt;dir_1587a151464512ea3626aba36cd93a86</title>
<path fill="none" stroke="black" d="M49.31,-276.1C51.47,-295.09 57.15,-325.97 72,-348 79.88,-359.68 91.19,-369.84 102.43,-378.05"/>
<polygon fill="black" stroke="black" points="100.74,-381.14 110.96,-383.94 104.72,-375.38 100.74,-381.14"/>
<g id="a_edge17&#45;headlabel"><a xlink:href="dir_000012_000001.html" target="_top" xlink:title="1">
<text text-anchor="middle" x="96.17" y="-378.93" font-family="Helvetica,sans-Serif" font-size="10.00">1</text>
</a>
</g>
</g>
<!-- dir_72722e64122ba09534fd16b67552a996 -->
<g id="node8" class="node">
<title>dir_72722e64122ba09534fd16b67552a996</title>
<g id="a_node8"><a xlink:href="dir_72722e64122ba09534fd16b67552a996.html" target="_top" xlink:title="Physics">
<polygon fill="white" stroke="black" points="150,-348 96,-348 96,-312 150,-312 150,-348"/>
<text text-anchor="middle" x="123" y="-327.5" font-family="Helvetica,sans-Serif" font-size="10.00">Physics</text>
</a>
</g>
</g>
<!-- dir_de77370fa4c160312bb88f5d1919228b&#45;&gt;dir_72722e64122ba09534fd16b67552a996 -->
<g id="edge18" class="edge">
<title>dir_de77370fa4c160312bb88f5d1919228b&#45;&gt;dir_72722e64122ba09534fd16b67552a996</title>
<path fill="none" stroke="black" d="M72.22,-276.1C82.26,-284.64 93.67,-295.11 103.2,-304.48"/>
<polygon fill="black" stroke="black" points="100.84,-307.07 110.38,-311.7 105.81,-302.14 100.84,-307.07"/>
<g id="a_edge18&#45;headlabel"><a xlink:href="dir_000012_000007.html" target="_top" xlink:title="1">
<text text-anchor="middle" x="96.3" y="-304.02" font-family="Helvetica,sans-Serif" font-size="10.00">1</text>
</a>
</g>
</g>
<!-- dir_7e105e953f4c25411b2b0fde6dcccccb -->
<g id="node3" class="node">
<title>dir_7e105e953f4c25411b2b0fde6dcccccb</title>
<g id="a_node3"><a xlink:href="dir_7e105e953f4c25411b2b0fde6dcccccb.html" target="_top" xlink:title="Builder">
<polygon fill="white" stroke="black" points="260,-420 206,-420 206,-384 260,-384 260,-420"/>
<text text-anchor="middle" x="233" y="-399.5" font-family="Helvetica,sans-Serif" font-size="10.00">Builder</text>
</a>
</g>
</g>
<!-- dir_7e105e953f4c25411b2b0fde6dcccccb&#45;&gt;dir_de77370fa4c160312bb88f5d1919228b -->
<g id="edge27" class="edge">
<title>dir_7e105e953f4c25411b2b0fde6dcccccb&#45;&gt;dir_de77370fa4c160312bb88f5d1919228b</title>
<path fill="none" stroke="black" d="M205.64,-387.65C202.74,-386.36 199.83,-385.12 197,-384 149.2,-364.98 125.09,-382.57 87,-348 84.49,-345.72 69.77,-311.25 59.15,-285.88"/>
<polygon fill="black" stroke="black" points="62.26,-284.24 55.18,-276.36 55.8,-286.94 62.26,-284.24"/>
<g id="a_edge27&#45;headlabel"><a xlink:href="dir_000002_000012.html" target="_top" xlink:title="1">
<text text-anchor="middle" x="66.27" y="-283.97" font-family="Helvetica,sans-Serif" font-size="10.00">1</text>
</a>
</g>
</g>
<!-- dir_255073caeab54e3c715574845ba4b898 -->
<g id="node4" class="node">
<title>dir_255073caeab54e3c715574845ba4b898</title>
<g id="a_node4"><a xlink:href="dir_255073caeab54e3c715574845ba4b898.html" target="_top" xlink:title="Engine">
<polygon fill="white" stroke="black" points="332,-420 278,-420 278,-384 332,-384 332,-420"/>
<text text-anchor="middle" x="305" y="-399.5" font-family="Helvetica,sans-Serif" font-size="10.00">Engine</text>
</a>
</g>
</g>
<!-- dir_aa66564905a6f376a034b306e4a9b039 -->
<g id="node6" class="node">
<title>dir_aa66564905a6f376a034b306e4a9b039</title>
<g id="a_node6"><a xlink:href="dir_aa66564905a6f376a034b306e4a9b039.html" target="_top" xlink:title="GameLevel">
<polygon fill="white" stroke="black" points="267.5,-60 200.5,-60 200.5,-24 267.5,-24 267.5,-60"/>
<text text-anchor="middle" x="234" y="-39.5" font-family="Helvetica,sans-Serif" font-size="10.00">GameLevel</text>
</a>
</g>
</g>
<!-- dir_255073caeab54e3c715574845ba4b898&#45;&gt;dir_aa66564905a6f376a034b306e4a9b039 -->
<g id="edge21" class="edge">
<title>dir_255073caeab54e3c715574845ba4b898&#45;&gt;dir_aa66564905a6f376a034b306e4a9b039</title>
<path fill="none" stroke="black" d="M277.9,-388.14C274.9,-386.73 271.89,-385.33 269,-384 233.59,-367.67 211.44,-379.89 189,-348 156.7,-302.1 148.51,-146.98 172,-96 177.32,-84.44 186.55,-74.47 196.28,-66.4"/>
<polygon fill="black" stroke="black" points="198.71,-68.94 204.5,-60.06 194.44,-63.39 198.71,-68.94"/>
<g id="a_edge21&#45;headlabel"><a xlink:href="dir_000003_000005.html" target="_top" xlink:title="1">
<text text-anchor="middle" x="197.6" y="-70.88" font-family="Helvetica,sans-Serif" font-size="10.00">1</text>
</a>
</g>
</g>
<!-- dir_255073caeab54e3c715574845ba4b898&#45;&gt;dir_72722e64122ba09534fd16b67552a996 -->
<g id="edge20" class="edge">
<title>dir_255073caeab54e3c715574845ba4b898&#45;&gt;dir_72722e64122ba09534fd16b67552a996</title>
<path fill="none" stroke="black" d="M277.62,-387.69C274.73,-386.4 271.82,-385.14 269,-384 223.29,-365.44 210.14,-365.46 164,-348 162.6,-347.47 161.18,-346.93 159.75,-346.37"/>
<polygon fill="black" stroke="black" points="160.84,-343.03 150.25,-342.58 158.24,-349.54 160.84,-343.03"/>
<g id="a_edge20&#45;headlabel"><a xlink:href="dir_000003_000007.html" target="_top" xlink:title="1">
<text text-anchor="middle" x="165.23" y="-339.23" font-family="Helvetica,sans-Serif" font-size="10.00">1</text>
</a>
</g>
</g>
<!-- dir_dee7b2cf51f0719d61c9bcb7f2f06001 -->
<g id="node9" class="node">
<title>dir_dee7b2cf51f0719d61c9bcb7f2f06001</title>
<g id="a_node9"><a xlink:href="dir_dee7b2cf51f0719d61c9bcb7f2f06001.html" target="_top" xlink:title="Render">
<polygon fill="white" stroke="black" points="252,-348 198,-348 198,-312 252,-312 252,-348"/>
<text text-anchor="middle" x="225" y="-327.5" font-family="Helvetica,sans-Serif" font-size="10.00">Render</text>
</a>
</g>
</g>
<!-- dir_255073caeab54e3c715574845ba4b898&#45;&gt;dir_dee7b2cf51f0719d61c9bcb7f2f06001 -->
<g id="edge22" class="edge">
<title>dir_255073caeab54e3c715574845ba4b898&#45;&gt;dir_dee7b2cf51f0719d61c9bcb7f2f06001</title>
<path fill="none" stroke="black" d="M285.22,-383.7C275.25,-374.97 262.99,-364.24 252.14,-354.75"/>
<polygon fill="black" stroke="black" points="254.38,-352.06 244.55,-348.1 249.77,-357.32 254.38,-352.06"/>
<g id="a_edge22&#45;headlabel"><a xlink:href="dir_000003_000008.html" target="_top" xlink:title="1">
<text text-anchor="middle" x="258.95" y="-349.79" font-family="Helvetica,sans-Serif" font-size="10.00">1</text>
</a>
</g>
</g>
<!-- dir_123f1f7ecbbeeb7ce6bbb34d36fe9b6f -->
<g id="node11" class="node">
<title>dir_123f1f7ecbbeeb7ce6bbb34d36fe9b6f</title>
<g id="a_node11"><a xlink:href="dir_123f1f7ecbbeeb7ce6bbb34d36fe9b6f.html" target="_top" xlink:title="Timer">
<polygon fill="white" stroke="black" points="332,-348 278,-348 278,-312 332,-312 332,-348"/>
<text text-anchor="middle" x="305" y="-327.5" font-family="Helvetica,sans-Serif" font-size="10.00">Timer</text>
</a>
</g>
</g>
<!-- dir_255073caeab54e3c715574845ba4b898&#45;&gt;dir_123f1f7ecbbeeb7ce6bbb34d36fe9b6f -->
<g id="edge19" class="edge">
<title>dir_255073caeab54e3c715574845ba4b898&#45;&gt;dir_123f1f7ecbbeeb7ce6bbb34d36fe9b6f</title>
<path fill="none" stroke="black" d="M305,-383.7C305,-375.98 305,-366.71 305,-358.11"/>
<polygon fill="black" stroke="black" points="308.5,-358.1 305,-348.1 301.5,-358.1 308.5,-358.1"/>
<g id="a_edge19&#45;headlabel"><a xlink:href="dir_000003_000010.html" target="_top" xlink:title="1">
<text text-anchor="middle" x="311.34" y="-359.2" font-family="Helvetica,sans-Serif" font-size="10.00">1</text>
</a>
</g>
</g>
<!-- dir_4ad73661ceecee2f59b8c0b0178f9787 -->
<g id="node5" class="node">
<title>dir_4ad73661ceecee2f59b8c0b0178f9787</title>
<g id="a_node5"><a xlink:href="dir_4ad73661ceecee2f59b8c0b0178f9787.html" target="_top" xlink:title="Facade">
<polygon fill="white" stroke="black" points="248,-204 194,-204 194,-168 248,-168 248,-204"/>
<text text-anchor="middle" x="221" y="-183.5" font-family="Helvetica,sans-Serif" font-size="10.00">Facade</text>
</a>
</g>
</g>
<!-- dir_4ad73661ceecee2f59b8c0b0178f9787&#45;&gt;dir_de77370fa4c160312bb88f5d1919228b -->
<g id="edge15" class="edge">
<title>dir_4ad73661ceecee2f59b8c0b0178f9787&#45;&gt;dir_de77370fa4c160312bb88f5d1919228b</title>
<path fill="none" stroke="black" d="M193.99,-196.79C168.26,-206.27 128.24,-221.36 89.44,-237.73"/>
<polygon fill="black" stroke="black" points="87.97,-234.55 80.14,-241.68 90.71,-240.99 87.97,-234.55"/>
<g id="a_edge15&#45;headlabel"><a xlink:href="dir_000004_000012.html" target="_top" xlink:title="1">
<text text-anchor="middle" x="90.16" y="-228.03" font-family="Helvetica,sans-Serif" font-size="10.00">1</text>
</a>
</g>
</g>
<!-- dir_4ad73661ceecee2f59b8c0b0178f9787&#45;&gt;dir_aa66564905a6f376a034b306e4a9b039 -->
<g id="edge14" class="edge">
<title>dir_4ad73661ceecee2f59b8c0b0178f9787&#45;&gt;dir_aa66564905a6f376a034b306e4a9b039</title>
<path fill="none" stroke="black" d="M203.27,-167.6C194.76,-158 185.47,-145.34 181,-132 175.92,-116.83 174.88,-110.78 181,-96 185.54,-85.03 193.59,-75.14 202.05,-66.96"/>
<polygon fill="black" stroke="black" points="204.44,-69.53 209.52,-60.23 199.75,-64.33 204.44,-69.53"/>
<g id="a_edge14&#45;headlabel"><a xlink:href="dir_000004_000005.html" target="_top" xlink:title="2">
<text text-anchor="middle" x="203.67" y="-71.54" font-family="Helvetica,sans-Serif" font-size="10.00">2</text>
</a>
</g>
</g>
<!-- dir_28e29a0aa9a4f72dd894b881b26f9dfb -->
<g id="node7" class="node">
<title>dir_28e29a0aa9a4f72dd894b881b26f9dfb</title>
<g id="a_node7"><a xlink:href="dir_28e29a0aa9a4f72dd894b881b26f9dfb.html" target="_top" xlink:title="LevelParser">
<polygon fill="white" stroke="black" points="331.5,-132 262.5,-132 262.5,-96 331.5,-96 331.5,-132"/>
<text text-anchor="middle" x="297" y="-111.5" font-family="Helvetica,sans-Serif" font-size="10.00">LevelParser</text>
</a>
</g>
</g>
<!-- dir_4ad73661ceecee2f59b8c0b0178f9787&#45;&gt;dir_28e29a0aa9a4f72dd894b881b26f9dfb -->
<g id="edge12" class="edge">
<title>dir_4ad73661ceecee2f59b8c0b0178f9787&#45;&gt;dir_28e29a0aa9a4f72dd894b881b26f9dfb</title>
<path fill="none" stroke="black" d="M239.79,-167.7C249.17,-159.05 260.68,-148.45 270.91,-139.03"/>
<polygon fill="black" stroke="black" points="273.45,-141.45 278.43,-132.1 268.7,-136.3 273.45,-141.45"/>
<g id="a_edge12&#45;headlabel"><a xlink:href="dir_000004_000006.html" target="_top" xlink:title="1">
<text text-anchor="middle" x="272.72" y="-143.48" font-family="Helvetica,sans-Serif" font-size="10.00">1</text>
</a>
</g>
</g>
<!-- dir_87059d60c7dfcd3dc8f50ab725effb95 -->
<g id="node12" class="node">
<title>dir_87059d60c7dfcd3dc8f50ab725effb95</title>
<g id="a_node12"><a xlink:href="dir_87059d60c7dfcd3dc8f50ab725effb95.html" target="_top" xlink:title="Utility">
<polygon fill="white" stroke="black" points="244,-132 190,-132 190,-96 244,-96 244,-132"/>
<text text-anchor="middle" x="217" y="-111.5" font-family="Helvetica,sans-Serif" font-size="10.00">Utility</text>
</a>
</g>
</g>
<!-- dir_4ad73661ceecee2f59b8c0b0178f9787&#45;&gt;dir_87059d60c7dfcd3dc8f50ab725effb95 -->
<g id="edge13" class="edge">
<title>dir_4ad73661ceecee2f59b8c0b0178f9787&#45;&gt;dir_87059d60c7dfcd3dc8f50ab725effb95</title>
<path fill="none" stroke="black" d="M220.01,-167.7C219.57,-159.98 219.04,-150.71 218.55,-142.11"/>
<polygon fill="black" stroke="black" points="222.04,-141.89 217.98,-132.1 215.05,-142.29 222.04,-141.89"/>
<g id="a_edge13&#45;headlabel"><a xlink:href="dir_000004_000011.html" target="_top" xlink:title="1">
<text text-anchor="middle" x="225.08" y="-142.82" font-family="Helvetica,sans-Serif" font-size="10.00">1</text>
</a>
</g>
</g>
<!-- dir_28e29a0aa9a4f72dd894b881b26f9dfb&#45;&gt;dir_aa66564905a6f376a034b306e4a9b039 -->
<g id="edge16" class="edge">
<title>dir_28e29a0aa9a4f72dd894b881b26f9dfb&#45;&gt;dir_aa66564905a6f376a034b306e4a9b039</title>
<path fill="none" stroke="black" d="M281.43,-95.7C273.8,-87.22 264.48,-76.86 256.12,-67.58"/>
<polygon fill="black" stroke="black" points="258.69,-65.2 249.39,-60.1 253.48,-69.88 258.69,-65.2"/>
<g id="a_edge16&#45;headlabel"><a xlink:href="dir_000006_000005.html" target="_top" xlink:title="2">
<text text-anchor="middle" x="263.2" y="-63.47" font-family="Helvetica,sans-Serif" font-size="10.00">2</text>
</a>
</g>
</g>
<!-- dir_72722e64122ba09534fd16b67552a996&#45;&gt;dir_de77370fa4c160312bb88f5d1919228b -->
<g id="edge11" class="edge">
<title>dir_72722e64122ba09534fd16b67552a996&#45;&gt;dir_de77370fa4c160312bb88f5d1919228b</title>
<path fill="none" stroke="black" d="M98.54,-311.7C88.49,-303.14 77.08,-292.66 67.58,-283.3"/>
<polygon fill="black" stroke="black" points="69.96,-280.74 60.43,-276.1 64.99,-285.67 69.96,-280.74"/>
<g id="a_edge11&#45;headlabel"><a xlink:href="dir_000007_000012.html" target="_top" xlink:title="6">
<text text-anchor="middle" x="74.51" y="-278.79" font-family="Helvetica,sans-Serif" font-size="10.00">6</text>
</a>
</g>
</g>
<!-- dir_dee7b2cf51f0719d61c9bcb7f2f06001&#45;&gt;dir_de77370fa4c160312bb88f5d1919228b -->
<g id="edge26" class="edge">
<title>dir_dee7b2cf51f0719d61c9bcb7f2f06001&#45;&gt;dir_de77370fa4c160312bb88f5d1919228b</title>
<path fill="none" stroke="black" d="M197.97,-319.58C171.46,-310.19 129.73,-294.97 89.5,-278.26"/>
<polygon fill="black" stroke="black" points="90.7,-274.97 80.13,-274.33 88,-281.43 90.7,-274.97"/>
<g id="a_edge26&#45;headlabel"><a xlink:href="dir_000008_000012.html" target="_top" xlink:title="1">
<text text-anchor="middle" x="95.12" y="-271.24" font-family="Helvetica,sans-Serif" font-size="10.00">1</text>
</a>
</g>
</g>
<!-- dir_dee7b2cf51f0719d61c9bcb7f2f06001&#45;&gt;dir_4ad73661ceecee2f59b8c0b0178f9787 -->
<g id="edge24" class="edge">
<title>dir_dee7b2cf51f0719d61c9bcb7f2f06001&#45;&gt;dir_4ad73661ceecee2f59b8c0b0178f9787</title>
<path fill="none" stroke="black" d="M224.52,-311.87C223.84,-287.67 222.58,-243.21 221.77,-214.39"/>
<polygon fill="black" stroke="black" points="225.26,-214.09 221.48,-204.19 218.27,-214.28 225.26,-214.09"/>
<g id="a_edge24&#45;headlabel"><a xlink:href="dir_000008_000004.html" target="_top" xlink:title="1">
<text text-anchor="middle" x="228.2" y="-215.1" font-family="Helvetica,sans-Serif" font-size="10.00">1</text>
</a>
</g>
</g>
<!-- dir_366a47d27432147542e5f7548d7df575 -->
<g id="node10" class="node">
<title>dir_366a47d27432147542e5f7548d7df575</title>
<g id="a_node10"><a xlink:href="dir_366a47d27432147542e5f7548d7df575.html" target="_top" xlink:title="Texture">
<polygon fill="white" stroke="black" points="294,-276 240,-276 240,-240 294,-240 294,-276"/>
<text text-anchor="middle" x="267" y="-255.5" font-family="Helvetica,sans-Serif" font-size="10.00">Texture</text>
</a>
</g>
</g>
<!-- dir_dee7b2cf51f0719d61c9bcb7f2f06001&#45;&gt;dir_366a47d27432147542e5f7548d7df575 -->
<g id="edge23" class="edge">
<title>dir_dee7b2cf51f0719d61c9bcb7f2f06001&#45;&gt;dir_366a47d27432147542e5f7548d7df575</title>
<path fill="none" stroke="black" d="M235.38,-311.7C240.26,-303.56 246.19,-293.69 251.58,-284.7"/>
<polygon fill="black" stroke="black" points="254.59,-286.48 256.74,-276.1 248.59,-282.88 254.59,-286.48"/>
<g id="a_edge23&#45;headlabel"><a xlink:href="dir_000008_000009.html" target="_top" xlink:title="1">
<text text-anchor="middle" x="255.18" y="-288.52" font-family="Helvetica,sans-Serif" font-size="10.00">1</text>
</a>
</g>
</g>
<!-- dir_68267d1309a1af8e8297ef4c3efbcdba -->
<g id="node13" class="node">
<title>dir_68267d1309a1af8e8297ef4c3efbcdba</title>
<g id="a_node13"><a xlink:href="dir_68267d1309a1af8e8297ef4c3efbcdba.html" target="_top" xlink:title="src">
<polygon fill="none" stroke="red" points="425,-499 371,-499 371,-463 425,-463 425,-499"/>
<text text-anchor="middle" x="398" y="-478.5" font-family="Helvetica,sans-Serif" font-size="10.00">src</text>
</a>
</g>
</g>
<!-- dir_dee7b2cf51f0719d61c9bcb7f2f06001&#45;&gt;dir_68267d1309a1af8e8297ef4c3efbcdba -->
<g id="edge25" class="edge">
<title>dir_dee7b2cf51f0719d61c9bcb7f2f06001&#45;&gt;dir_68267d1309a1af8e8297ef4c3efbcdba</title>
<path fill="none" stroke="black" d="M197.98,-337.52C161.6,-346.9 99.94,-365.17 87,-384 69.13,-410.01 65.6,-431.81 87,-455 105.2,-474.72 281.6,-478.89 360.36,-479.77"/>
<polygon fill="black" stroke="black" points="360.76,-483.27 370.79,-479.87 360.83,-476.27 360.76,-483.27"/>
<g id="a_edge25&#45;headlabel"><a xlink:href="dir_000008_000013.html" target="_top" xlink:title="1">
<text text-anchor="middle" x="357.14" y="-483.58" font-family="Helvetica,sans-Serif" font-size="10.00">1</text>
</a>
</g>
</g>
<!-- dir_366a47d27432147542e5f7548d7df575&#45;&gt;dir_4ad73661ceecee2f59b8c0b0178f9787 -->
<g id="edge28" class="edge">
<title>dir_366a47d27432147542e5f7548d7df575&#45;&gt;dir_4ad73661ceecee2f59b8c0b0178f9787</title>
<path fill="none" stroke="black" d="M255.63,-239.7C250.28,-231.56 243.8,-221.69 237.89,-212.7"/>
<polygon fill="black" stroke="black" points="240.66,-210.54 232.24,-204.1 234.81,-214.38 240.66,-210.54"/>
<g id="a_edge28&#45;headlabel"><a xlink:href="dir_000009_000004.html" target="_top" xlink:title="1">
<text text-anchor="middle" x="245" y="-209.48" font-family="Helvetica,sans-Serif" font-size="10.00">1</text>
</a>
</g>
</g>
<!-- dir_68267d1309a1af8e8297ef4c3efbcdba&#45;&gt;dir_de77370fa4c160312bb88f5d1919228b -->
<g id="edge8" class="edge">
<title>dir_68267d1309a1af8e8297ef4c3efbcdba&#45;&gt;dir_de77370fa4c160312bb88f5d1919228b</title>
<path fill="none" stroke="black" d="M370.75,-479.84C295.84,-479.14 90.89,-475.36 69,-455 22.68,-411.92 32.3,-328.88 41.23,-286.03"/>
<polygon fill="black" stroke="black" points="44.69,-286.58 43.45,-276.05 37.86,-285.05 44.69,-286.58"/>
<g id="a_edge8&#45;headlabel"><a xlink:href="dir_000013_000012.html" target="_top" xlink:title="18">
<text text-anchor="middle" x="46.68" y="-288.2" font-family="Helvetica,sans-Serif" font-size="10.00">18</text>
</a>
</g>
</g>
<!-- dir_68267d1309a1af8e8297ef4c3efbcdba&#45;&gt;dir_7e105e953f4c25411b2b0fde6dcccccb -->
<g id="edge6" class="edge">
<title>dir_68267d1309a1af8e8297ef4c3efbcdba&#45;&gt;dir_7e105e953f4c25411b2b0fde6dcccccb</title>
<path fill="none" stroke="black" d="M370.85,-480.53C343.12,-479.82 299.85,-475.14 269,-455 259.25,-448.63 251.39,-438.61 245.54,-429.06"/>
<polygon fill="black" stroke="black" points="248.5,-427.18 240.55,-420.18 242.4,-430.61 248.5,-427.18"/>
<g id="a_edge6&#45;headlabel"><a xlink:href="dir_000013_000002.html" target="_top" xlink:title="1">
<text text-anchor="middle" x="252.74" y="-426.42" font-family="Helvetica,sans-Serif" font-size="10.00">1</text>
</a>
</g>
</g>
<!-- dir_68267d1309a1af8e8297ef4c3efbcdba&#45;&gt;dir_255073caeab54e3c715574845ba4b898 -->
<g id="edge1" class="edge">
<title>dir_68267d1309a1af8e8297ef4c3efbcdba&#45;&gt;dir_255073caeab54e3c715574845ba4b898</title>
<path fill="none" stroke="black" d="M370.98,-469.83C362.5,-465.93 353.43,-460.95 346,-455 336.75,-447.59 328.31,-437.72 321.52,-428.57"/>
<polygon fill="black" stroke="black" points="324.17,-426.26 315.54,-420.12 318.46,-430.3 324.17,-426.26"/>
<g id="a_edge1&#45;headlabel"><a xlink:href="dir_000013_000003.html" target="_top" xlink:title="1">
<text text-anchor="middle" x="328.57" y="-425.06" font-family="Helvetica,sans-Serif" font-size="10.00">1</text>
</a>
</g>
</g>
<!-- dir_68267d1309a1af8e8297ef4c3efbcdba&#45;&gt;dir_4ad73661ceecee2f59b8c0b0178f9787 -->
<g id="edge4" class="edge">
<title>dir_68267d1309a1af8e8297ef4c3efbcdba&#45;&gt;dir_4ad73661ceecee2f59b8c0b0178f9787</title>
<path fill="none" stroke="black" d="M425.12,-473.12C434.32,-469.35 443.63,-463.62 449,-455 465.7,-428.22 458.43,-414.11 449,-384 420.11,-291.74 314.11,-230.02 257.39,-202.83"/>
<polygon fill="black" stroke="black" points="258.6,-199.53 248.06,-198.45 255.63,-205.87 258.6,-199.53"/>
<g id="a_edge4&#45;headlabel"><a xlink:href="dir_000013_000004.html" target="_top" xlink:title="3">
<text text-anchor="middle" x="263.06" y="-195.99" font-family="Helvetica,sans-Serif" font-size="10.00">3</text>
</a>
</g>
</g>
<!-- dir_68267d1309a1af8e8297ef4c3efbcdba&#45;&gt;dir_aa66564905a6f376a034b306e4a9b039 -->
<g id="edge7" class="edge">
<title>dir_68267d1309a1af8e8297ef4c3efbcdba&#45;&gt;dir_aa66564905a6f376a034b306e4a9b039</title>
<path fill="none" stroke="black" d="M425.11,-480.44C451.02,-479.55 490.03,-474.62 517,-455 568.35,-417.64 588,-394.51 588,-331 588,-331 588,-331 588,-185 588,-118.79 372.01,-69.38 277.46,-50.92"/>
<polygon fill="black" stroke="black" points="278.1,-47.48 267.62,-49.02 276.78,-54.35 278.1,-47.48"/>
<g id="a_edge7&#45;headlabel"><a xlink:href="dir_000013_000005.html" target="_top" xlink:title="1">
<text text-anchor="middle" x="282.17" y="-42.87" font-family="Helvetica,sans-Serif" font-size="10.00">1</text>
</a>
</g>
</g>
<!-- dir_68267d1309a1af8e8297ef4c3efbcdba&#45;&gt;dir_28e29a0aa9a4f72dd894b881b26f9dfb -->
<g id="edge2" class="edge">
<title>dir_68267d1309a1af8e8297ef4c3efbcdba&#45;&gt;dir_28e29a0aa9a4f72dd894b881b26f9dfb</title>
<path fill="none" stroke="black" d="M425.2,-474.4C438.78,-470.61 454.86,-464.5 467,-455 519.22,-414.12 550,-397.32 550,-331 550,-331 550,-331 550,-257 550,-162.66 414.59,-130.36 341.89,-119.81"/>
<polygon fill="black" stroke="black" points="342.03,-116.3 331.65,-118.41 341.08,-123.23 342.03,-116.3"/>
<g id="a_edge2&#45;headlabel"><a xlink:href="dir_000013_000006.html" target="_top" xlink:title="3">
<text text-anchor="middle" x="345.98" y="-111.47" font-family="Helvetica,sans-Serif" font-size="10.00">3</text>
</a>
</g>
</g>
<!-- dir_68267d1309a1af8e8297ef4c3efbcdba&#45;&gt;dir_72722e64122ba09534fd16b67552a996 -->
<g id="edge5" class="edge">
<title>dir_68267d1309a1af8e8297ef4c3efbcdba&#45;&gt;dir_72722e64122ba09534fd16b67552a996</title>
<path fill="none" stroke="black" d="M380.18,-462.88C377.96,-460.34 375.83,-457.68 374,-455 354.35,-426.28 367.97,-405.99 341,-384 287.2,-340.12 256.4,-364.66 189,-348 179.64,-345.69 169.54,-343.12 160.14,-340.7"/>
<polygon fill="black" stroke="black" points="160.82,-337.26 150.26,-338.15 159.07,-344.04 160.82,-337.26"/>
<g id="a_edge5&#45;headlabel"><a xlink:href="dir_000013_000007.html" target="_top" xlink:title="2">
<text text-anchor="middle" x="165.01" y="-332.91" font-family="Helvetica,sans-Serif" font-size="10.00">2</text>
</a>
</g>
</g>
<!-- dir_68267d1309a1af8e8297ef4c3efbcdba&#45;&gt;dir_dee7b2cf51f0719d61c9bcb7f2f06001 -->
<g id="edge9" class="edge">
<title>dir_68267d1309a1af8e8297ef4c3efbcdba&#45;&gt;dir_dee7b2cf51f0719d61c9bcb7f2f06001</title>
<path fill="none" stroke="black" d="M398.4,-462.81C397.95,-441.62 393.98,-405.77 374,-384 340.64,-347.66 315.35,-364.89 269,-348 266.64,-347.14 264.22,-346.24 261.78,-345.33"/>
<polygon fill="black" stroke="black" points="262.99,-342.05 252.4,-341.77 260.51,-348.59 262.99,-342.05"/>
<g id="a_edge9&#45;headlabel"><a xlink:href="dir_000013_000008.html" target="_top" xlink:title="2">
<text text-anchor="middle" x="267.36" y="-338.17" font-family="Helvetica,sans-Serif" font-size="10.00">2</text>
</a>
</g>
</g>
<!-- dir_68267d1309a1af8e8297ef4c3efbcdba&#45;&gt;dir_366a47d27432147542e5f7548d7df575 -->
<g id="edge3" class="edge">
<title>dir_68267d1309a1af8e8297ef4c3efbcdba&#45;&gt;dir_366a47d27432147542e5f7548d7df575</title>
<path fill="none" stroke="black" d="M424.69,-462.7C426.8,-460.36 428.64,-457.79 430,-455 443.83,-426.64 443.59,-412.48 430,-384 404.4,-330.37 343.06,-293.59 303.36,-274.45"/>
<polygon fill="black" stroke="black" points="304.8,-271.26 294.26,-270.19 301.83,-277.6 304.8,-271.26"/>
<g id="a_edge3&#45;headlabel"><a xlink:href="dir_000013_000009.html" target="_top" xlink:title="3">
<text text-anchor="middle" x="309.26" y="-267.72" font-family="Helvetica,sans-Serif" font-size="10.00">3</text>
</a>
</g>
</g>
<!-- dir_68267d1309a1af8e8297ef4c3efbcdba&#45;&gt;dir_123f1f7ecbbeeb7ce6bbb34d36fe9b6f -->
<g id="edge10" class="edge">
<title>dir_68267d1309a1af8e8297ef4c3efbcdba&#45;&gt;dir_123f1f7ecbbeeb7ce6bbb34d36fe9b6f</title>
<path fill="none" stroke="black" d="M409.13,-462.72C410.31,-460.21 411.32,-457.6 412,-455 419.97,-424.47 428.64,-410.81 412,-384 396.82,-359.54 366.62,-346.02 342.17,-338.77"/>
<polygon fill="black" stroke="black" points="343.01,-335.37 332.44,-336.12 341.17,-342.13 343.01,-335.37"/>
<g id="a_edge10&#45;headlabel"><a xlink:href="dir_000013_000010.html" target="_top" xlink:title="1">
<text text-anchor="middle" x="347.23" y="-331.08" font-family="Helvetica,sans-Serif" font-size="10.00">1</text>
</a>
</g>
</g>
</g>
</svg>
