<?xml version="1.0" encoding="UTF-8" standalone="no"?>
<!DOCTYPE svg PUBLIC "-//W3C//DTD SVG 1.1//EN"
 "http://www.w3.org/Graphics/SVG/1.1/DTD/svg11.dtd">
<!-- Generated by graphviz version 2.44.0 ()
 -->
<!-- Title: includes/platformer&#45;engine Pages: 1 -->
<!--zoomable 471 -->
<svg id="main" version="1.1" xmlns="http://www.w3.org/2000/svg" xmlns:xlink="http://www.w3.org/1999/xlink" xml:space="preserve" onload="init(evt)">
<style type="text/css"><![CDATA[
.edge:hover path { stroke: red; }
.edge:hover polygon { stroke: red; fill: red; }
]]></style>
<script type="text/javascript"><![CDATA[
var edges = document.getElementsByTagName('g');
if (edges && edges.length) {
  for (var i=0;i<edges.length;i++) {
    if (edges[i].id.substr(0,4)=='edge') {
      edges[i].setAttribute('class','edge');
    }
  }
}
]]></script>
        <defs>
                <circle id="rim" cx="0" cy="0" r="7"/>
                <circle id="rim2" cx="0" cy="0" r="3.5"/>
                <g id="zoomPlus">
                        <use xlink:href="#rim" fill="#404040">
                                <set attributeName="fill" to="#808080" begin="zoomplus.mouseover" end="zoomplus.mouseout"/>
                        </use>
                        <path d="M-4,0h8M0,-4v8" fill="none" stroke="white" stroke-width="1.5" pointer-events="none"/>
                </g>
                <g id="zoomMin">
                        <use xlink:href="#rim" fill="#404040">
                                <set attributeName="fill" to="#808080" begin="zoomminus.mouseover" end="zoomminus.mouseout"/>
                        </use>
                        <path d="M-4,0h8" fill="none" stroke="white" stroke-width="1.5" pointer-events="none"/>
                </g>
                <g id="dirArrow">
                        <path fill="none" stroke="white" stroke-width="1.5" d="M0,-3.0v7 M-2.5,-0.5L0,-3.0L2.5,-0.5"/>
                </g>
               <g id="resetDef">
                       <use xlink:href="#rim2" fill="#404040">
                               <set attributeName="fill" to="#808080" begin="reset.mouseover" end="reset.mouseout"/>
                       </use>
               </g>
        </defs>

<script type="text/javascript">
var viewWidth = 530;
var viewHeight = 471;
var sectionId = 'dynsection-0';
</script>
<script xlink:href="svgpan.js"/>
<svg id="graph" class="graph">
<g id="viewport">
<title>includes/platformer&#45;engine</title>
<g id="clust1" class="cluster">
<title>clusterdir_09e761304027c904456130627fd4dcf5</title>
<g id="a_clust1"><a xlink:href="dir_09e761304027c904456130627fd4dcf5.html" target="_top" xlink:title="includes">
<polygon fill="#ddddee" stroke="black" points="8,-8 8,-455 514,-455 514,-8 8,-8"/>
<text text-anchor="middle" x="261" y="-443" font-family="Helvetica,sans-Serif" font-size="10.00">includes</text>
</a>
</g>
</g>
<g id="clust2" class="cluster">
<title>clusterdir_1587a151464512ea3626aba36cd93a86</title>
<g id="a_clust2"><a xlink:href="dir_1587a151464512ea3626aba36cd93a86.html" target="_top">
<polygon fill="#eeeeff" stroke="black" points="16,-16 16,-428 434,-428 434,-16 16,-16"/>
</a>
</g>
</g>
<!-- dir_de77370fa4c160312bb88f5d1919228b -->
<g id="node1" class="node">
<title>dir_de77370fa4c160312bb88f5d1919228b</title>
<g id="a_node1"><a xlink:href="dir_de77370fa4c160312bb88f5d1919228b.html" target="_top" xlink:title="spic&#45;prj&#45;api">
<polygon fill="none" stroke="black" points="506,-276 442,-276 442,-240 506,-240 506,-276"/>
<text text-anchor="middle" x="474" y="-255.5" font-family="Helvetica,sans-Serif" font-size="10.00">spic&#45;prj&#45;api</text>
</a>
</g>
</g>
<!-- dir_1587a151464512ea3626aba36cd93a86 -->
<g id="node2" class="node">
<title>dir_1587a151464512ea3626aba36cd93a86</title>
<text text-anchor="middle" x="214" y="-399.5" font-family="Helvetica,sans-Serif" font-size="10.00">platformer&#45;engine</text>
</g>
<!-- dir_de77370fa4c160312bb88f5d1919228b&#45;&gt;dir_1587a151464512ea3626aba36cd93a86 -->
<g id="edge7" class="edge">
<title>dir_de77370fa4c160312bb88f5d1919228b&#45;&gt;dir_1587a151464512ea3626aba36cd93a86</title>
<path fill="none" stroke="black" d="M461.99,-276.45C455.07,-286.68 446.32,-299.93 439,-312 429.51,-327.65 433.58,-336.93 419,-348 366.86,-387.61 337.8,-367.86 269.98,-383.98"/>
<polygon fill="black" stroke="black" points="268.97,-380.62 260.15,-386.5 270.71,-387.4 268.97,-380.62"/>
<g id="a_edge7&#45;headlabel"><a xlink:href="dir_000014_000001.html" target="_top" xlink:title="5">
<text text-anchor="middle" x="271.74" y="-374.48" font-family="Helvetica,sans-Serif" font-size="10.00">5</text>
</a>
</g>
</g>
<!-- dir_4ad73661ceecee2f59b8c0b0178f9787 -->
<g id="node6" class="node">
<title>dir_4ad73661ceecee2f59b8c0b0178f9787</title>
<g id="a_node6"><a xlink:href="dir_4ad73661ceecee2f59b8c0b0178f9787.html" target="_top" xlink:title="Facade">
<polygon fill="white" stroke="black" points="216,-204 162,-204 162,-168 216,-168 216,-204"/>
<text text-anchor="middle" x="189" y="-183.5" font-family="Helvetica,sans-Serif" font-size="10.00">Facade</text>
</a>
</g>
</g>
<!-- dir_de77370fa4c160312bb88f5d1919228b&#45;&gt;dir_4ad73661ceecee2f59b8c0b0178f9787 -->
<g id="edge9" class="edge">
<title>dir_de77370fa4c160312bb88f5d1919228b&#45;&gt;dir_4ad73661ceecee2f59b8c0b0178f9787</title>
<path fill="none" stroke="black" d="M446.69,-239.89C370.67,-214.29 277.37,-198.39 226.34,-191.32"/>
<polygon fill="black" stroke="black" points="226.49,-187.81 216.11,-189.94 225.56,-194.74 226.49,-187.81"/>
<g id="a_edge9&#45;headlabel"><a xlink:href="dir_000014_000005.html" target="_top" xlink:title="1">
<text text-anchor="middle" x="230.43" y="-182.97" font-family="Helvetica,sans-Serif" font-size="10.00">1</text>
</a>
</g>
</g>
<!-- dir_72722e64122ba09534fd16b67552a996 -->
<g id="node10" class="node">
<title>dir_72722e64122ba09534fd16b67552a996</title>
<g id="a_node10"><a xlink:href="dir_72722e64122ba09534fd16b67552a996.html" target="_top" xlink:title="Physics">
<polygon fill="white" stroke="black" points="375,-348 321,-348 321,-312 375,-312 375,-348"/>
<text text-anchor="middle" x="348" y="-327.5" font-family="Helvetica,sans-Serif" font-size="10.00">Physics</text>
</a>
</g>
</g>
<!-- dir_de77370fa4c160312bb88f5d1919228b&#45;&gt;dir_72722e64122ba09534fd16b67552a996 -->
<g id="edge10" class="edge">
<title>dir_de77370fa4c160312bb88f5d1919228b&#45;&gt;dir_72722e64122ba09534fd16b67552a996</title>
<path fill="none" stroke="black" d="M449.23,-276.03C430.61,-287.02 405,-301.24 384.13,-312.19"/>
<polygon fill="black" stroke="black" points="382.48,-309.1 375.21,-316.81 385.7,-315.31 382.48,-309.1"/>
<g id="a_edge10&#45;headlabel"><a xlink:href="dir_000014_000009.html" target="_top" xlink:title="2">
<text text-anchor="middle" x="384.37" y="-302.42" font-family="Helvetica,sans-Serif" font-size="10.00">2</text>
</a>
</g>
</g>
<!-- dir_366a47d27432147542e5f7548d7df575 -->
<g id="node12" class="node">
<title>dir_366a47d27432147542e5f7548d7df575</title>
<g id="a_node12"><a xlink:href="dir_366a47d27432147542e5f7548d7df575.html" target="_top" xlink:title="Texture">
<polygon fill="white" stroke="black" points="196,-348 142,-348 142,-312 196,-312 196,-348"/>
<text text-anchor="middle" x="169" y="-327.5" font-family="Helvetica,sans-Serif" font-size="10.00">Texture</text>
</a>
</g>
</g>
<!-- dir_de77370fa4c160312bb88f5d1919228b&#45;&gt;dir_366a47d27432147542e5f7548d7df575 -->
<g id="edge8" class="edge">
<title>dir_de77370fa4c160312bb88f5d1919228b&#45;&gt;dir_366a47d27432147542e5f7548d7df575</title>
<path fill="none" stroke="black" d="M446.74,-276.09C363.49,-303.44 260.92,-318.82 206.58,-325.3"/>
<polygon fill="black" stroke="black" points="205.9,-321.86 196.37,-326.48 206.71,-328.81 205.9,-321.86"/>
<g id="a_edge8&#45;headlabel"><a xlink:href="dir_000014_000011.html" target="_top" xlink:title="2">
<text text-anchor="middle" x="209.15" y="-316.12" font-family="Helvetica,sans-Serif" font-size="10.00">2</text>
</a>
</g>
</g>
<!-- dir_7e105e953f4c25411b2b0fde6dcccccb -->
<g id="node3" class="node">
<title>dir_7e105e953f4c25411b2b0fde6dcccccb</title>
<g id="a_node3"><a xlink:href="dir_7e105e953f4c25411b2b0fde6dcccccb.html" target="_top" xlink:title="Builder">
<polygon fill="white" stroke="black" points="150,-420 96,-420 96,-384 150,-384 150,-420"/>
<text text-anchor="middle" x="123" y="-399.5" font-family="Helvetica,sans-Serif" font-size="10.00">Builder</text>
</a>
</g>
</g>
<!-- dir_7e105e953f4c25411b2b0fde6dcccccb&#45;&gt;dir_de77370fa4c160312bb88f5d1919228b -->
<g id="edge21" class="edge">
<title>dir_7e105e953f4c25411b2b0fde6dcccccb&#45;&gt;dir_de77370fa4c160312bb88f5d1919228b</title>
<path fill="none" stroke="black" d="M150.19,-387.15C153.12,-385.97 156.09,-384.88 159,-384 262.2,-352.64 310.36,-409.46 399,-348 414.04,-337.57 407.84,-326.51 419,-312 426.89,-301.73 436.77,-291.59 445.96,-282.96"/>
<polygon fill="black" stroke="black" points="448.45,-285.44 453.47,-276.11 443.73,-280.27 448.45,-285.44"/>
<g id="a_edge21&#45;headlabel"><a xlink:href="dir_000002_000014.html" target="_top" xlink:title="5">
<text text-anchor="middle" x="447.71" y="-287.46" font-family="Helvetica,sans-Serif" font-size="10.00">5</text>
</a>
</g>
</g>
<!-- dir_7e105e953f4c25411b2b0fde6dcccccb&#45;&gt;dir_366a47d27432147542e5f7548d7df575 -->
<g id="edge20" class="edge">
<title>dir_7e105e953f4c25411b2b0fde6dcccccb&#45;&gt;dir_366a47d27432147542e5f7548d7df575</title>
<path fill="none" stroke="black" d="M134.37,-383.7C139.72,-375.56 146.2,-365.69 152.11,-356.7"/>
<polygon fill="black" stroke="black" points="155.19,-358.38 157.76,-348.1 149.34,-354.54 155.19,-358.38"/>
<g id="a_edge20&#45;headlabel"><a xlink:href="dir_000002_000011.html" target="_top" xlink:title="2">
<text text-anchor="middle" x="155.59" y="-360.45" font-family="Helvetica,sans-Serif" font-size="10.00">2</text>
</a>
</g>
</g>
<!-- dir_255073caeab54e3c715574845ba4b898 -->
<g id="node4" class="node">
<title>dir_255073caeab54e3c715574845ba4b898</title>
<g id="a_node4"><a xlink:href="dir_255073caeab54e3c715574845ba4b898.html" target="_top" xlink:title="Engine">
<polygon fill="white" stroke="black" points="78,-420 24,-420 24,-384 78,-384 78,-420"/>
<text text-anchor="middle" x="51" y="-399.5" font-family="Helvetica,sans-Serif" font-size="10.00">Engine</text>
</a>
</g>
</g>
<!-- dir_255073caeab54e3c715574845ba4b898&#45;&gt;dir_de77370fa4c160312bb88f5d1919228b -->
<g id="edge15" class="edge">
<title>dir_255073caeab54e3c715574845ba4b898&#45;&gt;dir_de77370fa4c160312bb88f5d1919228b</title>
<path fill="none" stroke="black" d="M78.16,-387.07C81.1,-385.9 84.08,-384.84 87,-384 150.88,-365.57 331.01,-388.15 384,-348 397.82,-337.53 388.17,-325.53 399,-312 408.47,-300.17 421.25,-289.82 433.58,-281.48"/>
<polygon fill="black" stroke="black" points="435.5,-284.4 441.99,-276.03 431.69,-278.53 435.5,-284.4"/>
<g id="a_edge15&#45;headlabel"><a xlink:href="dir_000003_000014.html" target="_top" xlink:title="1">
<text text-anchor="middle" x="434.02" y="-286.24" font-family="Helvetica,sans-Serif" font-size="10.00">1</text>
</a>
</g>
</g>
<!-- dir_aa66564905a6f376a034b306e4a9b039 -->
<g id="node7" class="node">
<title>dir_aa66564905a6f376a034b306e4a9b039</title>
<g id="a_node7"><a xlink:href="dir_aa66564905a6f376a034b306e4a9b039.html" target="_top" xlink:title="GameLevel">
<polygon fill="white" stroke="black" points="143.5,-60 76.5,-60 76.5,-24 143.5,-24 143.5,-60"/>
<text text-anchor="middle" x="110" y="-39.5" font-family="Helvetica,sans-Serif" font-size="10.00">GameLevel</text>
</a>
</g>
</g>
<!-- dir_255073caeab54e3c715574845ba4b898&#45;&gt;dir_aa66564905a6f376a034b306e4a9b039 -->
<g id="edge14" class="edge">
<title>dir_255073caeab54e3c715574845ba4b898&#45;&gt;dir_aa66564905a6f376a034b306e4a9b039</title>
<path fill="none" stroke="black" d="M51,-383.95C51,-357.29 51,-304.11 51,-259 51,-259 51,-259 51,-185 51,-144.89 49.28,-132.46 66,-96 70.61,-85.95 77.63,-76.25 84.71,-67.95"/>
<polygon fill="black" stroke="black" points="87.37,-70.24 91.45,-60.46 82.16,-65.55 87.37,-70.24"/>
<g id="a_edge14&#45;headlabel"><a xlink:href="dir_000003_000006.html" target="_top" xlink:title="1">
<text text-anchor="middle" x="87.07" y="-72.31" font-family="Helvetica,sans-Serif" font-size="10.00">1</text>
</a>
</g>
</g>
<!-- dir_255073caeab54e3c715574845ba4b898&#45;&gt;dir_72722e64122ba09534fd16b67552a996 -->
<g id="edge13" class="edge">
<title>dir_255073caeab54e3c715574845ba4b898&#45;&gt;dir_72722e64122ba09534fd16b67552a996</title>
<path fill="none" stroke="black" d="M78.24,-387.31C81.16,-386.09 84.11,-384.96 87,-384 164.59,-358.22 259.51,-342.77 310.81,-335.68"/>
<polygon fill="black" stroke="black" points="311.33,-339.14 320.77,-334.33 310.39,-332.2 311.33,-339.14"/>
<g id="a_edge13&#45;headlabel"><a xlink:href="dir_000003_000009.html" target="_top" xlink:title="1">
<text text-anchor="middle" x="308.14" y="-339.93" font-family="Helvetica,sans-Serif" font-size="10.00">1</text>
</a>
</g>
</g>
<!-- dir_dee7b2cf51f0719d61c9bcb7f2f06001 -->
<g id="node11" class="node">
<title>dir_dee7b2cf51f0719d61c9bcb7f2f06001</title>
<g id="a_node11"><a xlink:href="dir_dee7b2cf51f0719d61c9bcb7f2f06001.html" target="_top" xlink:title="Render">
<polygon fill="white" stroke="black" points="196,-276 142,-276 142,-240 196,-240 196,-276"/>
<text text-anchor="middle" x="169" y="-255.5" font-family="Helvetica,sans-Serif" font-size="10.00">Render</text>
</a>
</g>
</g>
<!-- dir_255073caeab54e3c715574845ba4b898&#45;&gt;dir_dee7b2cf51f0719d61c9bcb7f2f06001 -->
<g id="edge16" class="edge">
<title>dir_255073caeab54e3c715574845ba4b898&#45;&gt;dir_dee7b2cf51f0719d61c9bcb7f2f06001</title>
<path fill="none" stroke="black" d="M65.23,-383.87C85.88,-359.03 124.25,-312.85 148.11,-284.14"/>
<polygon fill="black" stroke="black" points="151.02,-286.12 154.72,-276.19 145.63,-281.64 151.02,-286.12"/>
<g id="a_edge16&#45;headlabel"><a xlink:href="dir_000003_000010.html" target="_top" xlink:title="1">
<text text-anchor="middle" x="150.9" y="-288.2" font-family="Helvetica,sans-Serif" font-size="10.00">1</text>
</a>
</g>
</g>
<!-- dir_255073caeab54e3c715574845ba4b898&#45;&gt;dir_366a47d27432147542e5f7548d7df575 -->
<g id="edge12" class="edge">
<title>dir_255073caeab54e3c715574845ba4b898&#45;&gt;dir_366a47d27432147542e5f7548d7df575</title>
<path fill="none" stroke="black" d="M78.07,-384.94C94.3,-375.32 115.13,-362.96 132.76,-352.5"/>
<polygon fill="black" stroke="black" points="134.83,-355.34 141.65,-347.23 131.26,-349.32 134.83,-355.34"/>
<g id="a_edge12&#45;headlabel"><a xlink:href="dir_000003_000011.html" target="_top" xlink:title="1">
<text text-anchor="middle" x="133.19" y="-357.12" font-family="Helvetica,sans-Serif" font-size="10.00">1</text>
</a>
</g>
</g>
<!-- dir_123f1f7ecbbeeb7ce6bbb34d36fe9b6f -->
<g id="node13" class="node">
<title>dir_123f1f7ecbbeeb7ce6bbb34d36fe9b6f</title>
<g id="a_node13"><a xlink:href="dir_123f1f7ecbbeeb7ce6bbb34d36fe9b6f.html" target="_top" xlink:title="Timer">
<polygon fill="white" stroke="black" points="124,-276 70,-276 70,-240 124,-240 124,-276"/>
<text text-anchor="middle" x="97" y="-255.5" font-family="Helvetica,sans-Serif" font-size="10.00">Timer</text>
</a>
</g>
</g>
<!-- dir_255073caeab54e3c715574845ba4b898&#45;&gt;dir_123f1f7ecbbeeb7ce6bbb34d36fe9b6f -->
<g id="edge11" class="edge">
<title>dir_255073caeab54e3c715574845ba4b898&#45;&gt;dir_123f1f7ecbbeeb7ce6bbb34d36fe9b6f</title>
<path fill="none" stroke="black" d="M56.55,-383.87C64.42,-359.56 78.92,-314.82 88.25,-286.01"/>
<polygon fill="black" stroke="black" points="91.68,-286.78 91.43,-276.19 85.02,-284.62 91.68,-286.78"/>
<g id="a_edge11&#45;headlabel"><a xlink:href="dir_000003_000012.html" target="_top" xlink:title="1">
<text text-anchor="middle" x="93.27" y="-288.58" font-family="Helvetica,sans-Serif" font-size="10.00">1</text>
</a>
</g>
</g>
<!-- dir_cac8883e60e9501f6ec47f21e507278d -->
<g id="node5" class="node">
<title>dir_cac8883e60e9501f6ec47f21e507278d</title>
<g id="a_node5"><a xlink:href="dir_cac8883e60e9501f6ec47f21e507278d.html" target="_top" xlink:title="Exceptions">
<polygon fill="white" stroke="black" points="342,-420 278,-420 278,-384 342,-384 342,-420"/>
<text text-anchor="middle" x="310" y="-399.5" font-family="Helvetica,sans-Serif" font-size="10.00">Exceptions</text>
</a>
</g>
</g>
<!-- dir_cac8883e60e9501f6ec47f21e507278d&#45;&gt;dir_de77370fa4c160312bb88f5d1919228b -->
<g id="edge26" class="edge">
<title>dir_cac8883e60e9501f6ec47f21e507278d&#45;&gt;dir_de77370fa4c160312bb88f5d1919228b</title>
<path fill="none" stroke="black" d="M342.22,-387.62C345.19,-386.4 348.15,-385.17 351,-384 390.07,-367.91 409.32,-378.08 439,-348 447.95,-338.93 458.75,-308.74 465.96,-286.02"/>
<polygon fill="black" stroke="black" points="469.39,-286.79 469.01,-276.21 462.7,-284.72 469.39,-286.79"/>
<g id="a_edge26&#45;headlabel"><a xlink:href="dir_000004_000014.html" target="_top" xlink:title="1">
<text text-anchor="middle" x="471.03" y="-288.57" font-family="Helvetica,sans-Serif" font-size="10.00">1</text>
</a>
</g>
</g>
<!-- dir_4ad73661ceecee2f59b8c0b0178f9787&#45;&gt;dir_de77370fa4c160312bb88f5d1919228b -->
<g id="edge5" class="edge">
<title>dir_4ad73661ceecee2f59b8c0b0178f9787&#45;&gt;dir_de77370fa4c160312bb88f5d1919228b</title>
<path fill="none" stroke="black" d="M216,-191.51C261.14,-198.69 353.62,-214.56 429,-240 430.18,-240.4 431.37,-240.82 432.57,-241.27"/>
<polygon fill="black" stroke="black" points="431.26,-244.52 441.84,-245.04 433.89,-238.03 431.26,-244.52"/>
<g id="a_edge5&#45;headlabel"><a xlink:href="dir_000005_000014.html" target="_top" xlink:title="2">
<text text-anchor="middle" x="426.86" y="-243.29" font-family="Helvetica,sans-Serif" font-size="10.00">2</text>
</a>
</g>
</g>
<!-- dir_4ad73661ceecee2f59b8c0b0178f9787&#45;&gt;dir_aa66564905a6f376a034b306e4a9b039 -->
<g id="edge4" class="edge">
<title>dir_4ad73661ceecee2f59b8c0b0178f9787&#45;&gt;dir_aa66564905a6f376a034b306e4a9b039</title>
<path fill="none" stroke="black" d="M183.77,-167.9C177.76,-149.45 166.89,-119.54 153,-96 147.25,-86.26 139.81,-76.41 132.74,-67.89"/>
<polygon fill="black" stroke="black" points="135.3,-65.5 126.14,-60.17 129.98,-70.05 135.3,-65.5"/>
<g id="a_edge4&#45;headlabel"><a xlink:href="dir_000005_000006.html" target="_top" xlink:title="2">
<text text-anchor="middle" x="139.79" y="-63.88" font-family="Helvetica,sans-Serif" font-size="10.00">2</text>
</a>
</g>
</g>
<!-- dir_28e29a0aa9a4f72dd894b881b26f9dfb -->
<g id="node8" class="node">
<title>dir_28e29a0aa9a4f72dd894b881b26f9dfb</title>
<g id="a_node8"><a xlink:href="dir_28e29a0aa9a4f72dd894b881b26f9dfb.html" target="_top" xlink:title="LevelParser">
<polygon fill="white" stroke="black" points="144.5,-132 75.5,-132 75.5,-96 144.5,-96 144.5,-132"/>
<text text-anchor="middle" x="110" y="-111.5" font-family="Helvetica,sans-Serif" font-size="10.00">LevelParser</text>
</a>
</g>
</g>
<!-- dir_4ad73661ceecee2f59b8c0b0178f9787&#45;&gt;dir_28e29a0aa9a4f72dd894b881b26f9dfb -->
<g id="edge2" class="edge">
<title>dir_4ad73661ceecee2f59b8c0b0178f9787&#45;&gt;dir_28e29a0aa9a4f72dd894b881b26f9dfb</title>
<path fill="none" stroke="black" d="M169.47,-167.7C159.62,-158.97 147.51,-148.24 136.8,-138.75"/>
<polygon fill="black" stroke="black" points="139.11,-136.12 129.3,-132.1 134.47,-141.36 139.11,-136.12"/>
<g id="a_edge2&#45;headlabel"><a xlink:href="dir_000005_000007.html" target="_top" xlink:title="1">
<text text-anchor="middle" x="143.68" y="-133.88" font-family="Helvetica,sans-Serif" font-size="10.00">1</text>
</a>
</g>
</g>
<!-- dir_87059d60c7dfcd3dc8f50ab725effb95 -->
<g id="node14" class="node">
<title>dir_87059d60c7dfcd3dc8f50ab725effb95</title>
<g id="a_node14"><a xlink:href="dir_87059d60c7dfcd3dc8f50ab725effb95.html" target="_top" xlink:title="Utility">
<polygon fill="white" stroke="black" points="237,-132 183,-132 183,-96 237,-96 237,-132"/>
<text text-anchor="middle" x="210" y="-111.5" font-family="Helvetica,sans-Serif" font-size="10.00">Utility</text>
</a>
</g>
</g>
<!-- dir_4ad73661ceecee2f59b8c0b0178f9787&#45;&gt;dir_87059d60c7dfcd3dc8f50ab725effb95 -->
<g id="edge3" class="edge">
<title>dir_4ad73661ceecee2f59b8c0b0178f9787&#45;&gt;dir_87059d60c7dfcd3dc8f50ab725effb95</title>
<path fill="none" stroke="black" d="M194.19,-167.7C196.53,-159.9 199.35,-150.51 201.95,-141.83"/>
<polygon fill="black" stroke="black" points="205.35,-142.69 204.87,-132.1 198.64,-140.68 205.35,-142.69"/>
<g id="a_edge3&#45;headlabel"><a xlink:href="dir_000005_000013.html" target="_top" xlink:title="1">
<text text-anchor="middle" x="207.03" y="-144.45" font-family="Helvetica,sans-Serif" font-size="10.00">1</text>
</a>
</g>
</g>
<!-- dir_28e29a0aa9a4f72dd894b881b26f9dfb&#45;&gt;dir_aa66564905a6f376a034b306e4a9b039 -->
<g id="edge6" class="edge">
<title>dir_28e29a0aa9a4f72dd894b881b26f9dfb&#45;&gt;dir_aa66564905a6f376a034b306e4a9b039</title>
<path fill="none" stroke="black" d="M110,-95.7C110,-87.98 110,-78.71 110,-70.11"/>
<polygon fill="black" stroke="black" points="113.5,-70.1 110,-60.1 106.5,-70.1 113.5,-70.1"/>
<g id="a_edge6&#45;headlabel"><a xlink:href="dir_000007_000006.html" target="_top" xlink:title="2">
<text text-anchor="middle" x="116.34" y="-71.2" font-family="Helvetica,sans-Serif" font-size="10.00">2</text>
</a>
</g>
</g>
<!-- dir_eb4af4e99dee9ee973ff499f28504984 -->
<g id="node9" class="node">
<title>dir_eb4af4e99dee9ee973ff499f28504984</title>
<g id="a_node9"><a xlink:href="dir_eb4af4e99dee9ee973ff499f28504984.html" target="_top" xlink:title="Networking">
<polygon fill="white" stroke="black" points="426,-420 360,-420 360,-384 426,-384 426,-420"/>
<text text-anchor="middle" x="393" y="-399.5" font-family="Helvetica,sans-Serif" font-size="10.00">Networking</text>
</a>
</g>
</g>
<!-- dir_eb4af4e99dee9ee973ff499f28504984&#45;&gt;dir_de77370fa4c160312bb88f5d1919228b -->
<g id="edge27" class="edge">
<title>dir_eb4af4e99dee9ee973ff499f28504984&#45;&gt;dir_de77370fa4c160312bb88f5d1919228b</title>
<path fill="none" stroke="black" d="M422.89,-383.98C436.01,-374.96 450.37,-362.7 459,-348 469.94,-329.36 473.44,-304.97 474.35,-286.44"/>
<polygon fill="black" stroke="black" points="477.85,-286.38 474.62,-276.29 470.86,-286.19 477.85,-286.38"/>
<g id="a_edge27&#45;headlabel"><a xlink:href="dir_000008_000014.html" target="_top" xlink:title="2">
<text text-anchor="middle" x="480.6" y="-287.55" font-family="Helvetica,sans-Serif" font-size="10.00">2</text>
</a>
</g>
</g>
<!-- dir_72722e64122ba09534fd16b67552a996&#45;&gt;dir_de77370fa4c160312bb88f5d1919228b -->
<g id="edge1" class="edge">
<title>dir_72722e64122ba09534fd16b67552a996&#45;&gt;dir_de77370fa4c160312bb88f5d1919228b</title>
<path fill="none" stroke="black" d="M372.93,-311.88C389.99,-301.81 412.87,-289.05 432.6,-278.59"/>
<polygon fill="black" stroke="black" points="434.48,-281.56 441.7,-273.81 431.22,-275.36 434.48,-281.56"/>
<g id="a_edge1&#45;headlabel"><a xlink:href="dir_000009_000014.html" target="_top" xlink:title="6">
<text text-anchor="middle" x="432.62" y="-283.25" font-family="Helvetica,sans-Serif" font-size="10.00">6</text>
</a>
</g>
</g>
<!-- dir_dee7b2cf51f0719d61c9bcb7f2f06001&#45;&gt;dir_de77370fa4c160312bb88f5d1919228b -->
<g id="edge19" class="edge">
<title>dir_dee7b2cf51f0719d61c9bcb7f2f06001&#45;&gt;dir_de77370fa4c160312bb88f5d1919228b</title>
<path fill="none" stroke="black" d="M196.1,-258C274.7,-258 353.3,-258 431.89,-258"/>
<polygon fill="black" stroke="black" points="431.98,-261.5 441.98,-258 431.98,-254.5 431.98,-261.5"/>
<g id="a_edge19&#45;headlabel"><a xlink:href="dir_000010_000014.html" target="_top" xlink:title="2">
<text text-anchor="middle" x="428.38" y="-261.84" font-family="Helvetica,sans-Serif" font-size="10.00">2</text>
</a>
</g>
</g>
<!-- dir_dee7b2cf51f0719d61c9bcb7f2f06001&#45;&gt;dir_4ad73661ceecee2f59b8c0b0178f9787 -->
<g id="edge18" class="edge">
<title>dir_dee7b2cf51f0719d61c9bcb7f2f06001&#45;&gt;dir_4ad73661ceecee2f59b8c0b0178f9787</title>
<path fill="none" stroke="black" d="M173.94,-239.7C176.17,-231.9 178.85,-222.51 181.33,-213.83"/>
<polygon fill="black" stroke="black" points="184.73,-214.68 184.11,-204.1 178,-212.76 184.73,-214.68"/>
<g id="a_edge18&#45;headlabel"><a xlink:href="dir_000010_000005.html" target="_top" xlink:title="2">
<text text-anchor="middle" x="186.47" y="-216.42" font-family="Helvetica,sans-Serif" font-size="10.00">2</text>
</a>
</g>
</g>
<!-- dir_dee7b2cf51f0719d61c9bcb7f2f06001&#45;&gt;dir_366a47d27432147542e5f7548d7df575 -->
<g id="edge17" class="edge">
<title>dir_dee7b2cf51f0719d61c9bcb7f2f06001&#45;&gt;dir_366a47d27432147542e5f7548d7df575</title>
<path fill="none" stroke="black" d="M174.9,-276.1C175.7,-283.79 175.94,-293.05 175.6,-301.67"/>
<polygon fill="black" stroke="black" points="172.11,-301.48 174.92,-311.7 179.09,-301.96 172.11,-301.48"/>
<g id="a_edge17&#45;headlabel"><a xlink:href="dir_000010_000011.html" target="_top" xlink:title="1">
<text text-anchor="middle" x="169.52" y="-295.2" font-family="Helvetica,sans-Serif" font-size="10.00">1</text>
</a>
</g>
</g>
<!-- dir_366a47d27432147542e5f7548d7df575&#45;&gt;dir_de77370fa4c160312bb88f5d1919228b -->
<g id="edge24" class="edge">
<title>dir_366a47d27432147542e5f7548d7df575&#45;&gt;dir_de77370fa4c160312bb88f5d1919228b</title>
<path fill="none" stroke="black" d="M196.25,-325.17C244.35,-318.61 346.26,-303.22 429,-276 430.18,-275.61 431.38,-275.19 432.58,-274.75"/>
<polygon fill="black" stroke="black" points="433.89,-278 441.86,-271.01 431.27,-271.5 433.89,-278"/>
<g id="a_edge24&#45;headlabel"><a xlink:href="dir_000011_000014.html" target="_top" xlink:title="5">
<text text-anchor="middle" x="431.62" y="-279.47" font-family="Helvetica,sans-Serif" font-size="10.00">5</text>
</a>
</g>
</g>
<!-- dir_366a47d27432147542e5f7548d7df575&#45;&gt;dir_4ad73661ceecee2f59b8c0b0178f9787 -->
<g id="edge23" class="edge">
<title>dir_366a47d27432147542e5f7548d7df575&#45;&gt;dir_4ad73661ceecee2f59b8c0b0178f9787</title>
<path fill="none" stroke="black" d="M184.61,-311.77C192.37,-302.03 200.95,-289.18 205,-276 211.32,-255.46 206.3,-231.44 200.27,-213.53"/>
<polygon fill="black" stroke="black" points="203.51,-212.2 196.78,-204.02 196.94,-214.61 203.51,-212.2"/>
<g id="a_edge23&#45;headlabel"><a xlink:href="dir_000011_000005.html" target="_top" xlink:title="1">
<text text-anchor="middle" x="207.41" y="-212.1" font-family="Helvetica,sans-Serif" font-size="10.00">1</text>
</a>
</g>
</g>
<!-- dir_366a47d27432147542e5f7548d7df575&#45;&gt;dir_dee7b2cf51f0719d61c9bcb7f2f06001 -->
<g id="edge25" class="edge">
<title>dir_366a47d27432147542e5f7548d7df575&#45;&gt;dir_dee7b2cf51f0719d61c9bcb7f2f06001</title>
<path fill="none" stroke="black" d="M163.08,-311.7C162.29,-303.98 162.06,-294.71 162.4,-286.11"/>
<polygon fill="black" stroke="black" points="165.9,-286.32 163.1,-276.1 158.92,-285.84 165.9,-286.32"/>
<g id="a_edge25&#45;headlabel"><a xlink:href="dir_000011_000010.html" target="_top" xlink:title="1">
<text text-anchor="middle" x="168.48" y="-287.61" font-family="Helvetica,sans-Serif" font-size="10.00">1</text>
</a>
</g>
</g>
<!-- dir_366a47d27432147542e5f7548d7df575&#45;&gt;dir_123f1f7ecbbeeb7ce6bbb34d36fe9b6f -->
<g id="edge22" class="edge">
<title>dir_366a47d27432147542e5f7548d7df575&#45;&gt;dir_123f1f7ecbbeeb7ce6bbb34d36fe9b6f</title>
<path fill="none" stroke="black" d="M151.2,-311.7C142.4,-303.14 131.62,-292.66 122,-283.3"/>
<polygon fill="black" stroke="black" points="124.2,-280.57 114.59,-276.1 119.32,-285.58 124.2,-280.57"/>
<g id="a_edge22&#45;headlabel"><a xlink:href="dir_000011_000012.html" target="_top" xlink:title="1">
<text text-anchor="middle" x="128.76" y="-278.54" font-family="Helvetica,sans-Serif" font-size="10.00">1</text>
</a>
</g>
</g>
</g>
</svg>
        <g id="navigator" transform="translate(0 0)" fill="#404254">
                <rect fill="#f2f5e9" fill-opacity="0.5" stroke="#606060" stroke-width=".5" x="0" y="0" width="60" height="60"/>
                <use id="zoomplus" xlink:href="#zoomPlus" x="17" y="9" onmousedown="handleZoom(evt,'in')"/>
                <use id="zoomminus" xlink:href="#zoomMin" x="42" y="9" onmousedown="handleZoom(evt,'out')"/>
                <use id="reset" xlink:href="#resetDef" x="30" y="36" onmousedown="handleReset()"/>
                <g id="arrowUp" xlink:href="#dirArrow" transform="translate(30 24)" onmousedown="handlePan(0,-1)">
                  <use xlink:href="#rim" fill="#404040">
                        <set attributeName="fill" to="#808080" begin="arrowUp.mouseover" end="arrowUp.mouseout"/>
                  </use>
                  <path fill="none" stroke="white" stroke-width="1.5" d="M0,-3.0v7 M-2.5,-0.5L0,-3.0L2.5,-0.5"/>
                </g>
                <g id="arrowRight" xlink:href="#dirArrow" transform="rotate(90) translate(36 -43)" onmousedown="handlePan(1,0)">
                  <use xlink:href="#rim" fill="#404040">
                        <set attributeName="fill" to="#808080" begin="arrowRight.mouseover" end="arrowRight.mouseout"/>
                  </use>
                  <path fill="none" stroke="white" stroke-width="1.5" d="M0,-3.0v7 M-2.5,-0.5L0,-3.0L2.5,-0.5"/>
                </g>
                <g id="arrowDown" xlink:href="#dirArrow" transform="rotate(180) translate(-30 -48)" onmousedown="handlePan(0,1)">
                  <use xlink:href="#rim" fill="#404040">
                        <set attributeName="fill" to="#808080" begin="arrowDown.mouseover" end="arrowDown.mouseout"/>
                  </use>
                  <path fill="none" stroke="white" stroke-width="1.5" d="M0,-3.0v7 M-2.5,-0.5L0,-3.0L2.5,-0.5"/>
                </g>
                <g id="arrowLeft" xlink:href="#dirArrow" transform="rotate(270) translate(-36 17)" onmousedown="handlePan(-1,0)">
                  <use xlink:href="#rim" fill="#404040">
                        <set attributeName="fill" to="#808080" begin="arrowLeft.mouseover" end="arrowLeft.mouseout"/>
                  </use>
                  <path fill="none" stroke="white" stroke-width="1.5" d="M0,-3.0v7 M-2.5,-0.5L0,-3.0L2.5,-0.5"/>
                </g>
        </g>
        <svg viewBox="0 0 15 15" width="100%" height="30px" preserveAspectRatio="xMaxYMin meet">
         <g id="arrow_out" transform="scale(0.3 0.3)">
          <a xlink:href="dir_1587a151464512ea3626aba36cd93a86_dep_org.svg" target="_base">
           <rect id="button" ry="5" rx="5" y="6" x="6" height="38" width="38"
                fill="#f2f5e9" fill-opacity="0.5" stroke="#606060" stroke-width="1.0"/>
           <path id="arrow"
             d="M 11.500037,31.436501 C 11.940474,20.09759 22.043105,11.32322 32.158766,21.979434 L 37.068811,17.246167 C 37.068811,17.246167 37.088388,32 37.088388,32 L 22.160133,31.978069 C 22.160133,31.978069 26.997745,27.140456 26.997745,27.140456 C 18.528582,18.264221 13.291696,25.230495 11.500037,31.436501 z"
             style="fill:#404040;"/>
          </a>
         </g>
        </svg>
</svg>
