<?xml version="1.0" encoding="UTF-8" standalone="no"?>
<!DOCTYPE svg PUBLIC "-//W3C//DTD SVG 1.1//EN"
 "http://www.w3.org/Graphics/SVG/1.1/DTD/svg11.dtd">
<!-- Generated by graphviz version 2.44.0 ()
 -->
<!-- Title: includes/platformer&#45;engine/Facade Pages: 1 -->
<svg width="181pt" height="167pt"
 viewBox="0.00 0.00 181.00 167.00" xmlns="http://www.w3.org/2000/svg" xmlns:xlink="http://www.w3.org/1999/xlink">
<g id="graph0" class="graph" transform="scale(1 1) rotate(0) translate(4 163)">
<title>includes/platformer&#45;engine/Facade</title>
<g id="clust1" class="cluster">
<title>clusterdir_1587a151464512ea3626aba36cd93a86</title>
<g id="a_clust1"><a xlink:href="dir_1587a151464512ea3626aba36cd93a86.html" target="_top" xlink:title="platformer&#45;engine">
<polygon fill="#ddddee" stroke="black" points="8,-8 8,-151 100,-151 100,-8 8,-8"/>
<text text-anchor="middle" x="54" y="-139" font-family="Helvetica,sans-Serif" font-size="10.00">platformer&#45;engine</text>
</a>
</g>
</g>
<!-- dir_87059d60c7dfcd3dc8f50ab725effb95 -->
<g id="node1" class="node">
<title>dir_87059d60c7dfcd3dc8f50ab725effb95</title>
<g id="a_node1"><a xlink:href="dir_87059d60c7dfcd3dc8f50ab725effb95.html" target="_top" xlink:title="Utility">
<polygon fill="none" stroke="black" points="91,-52 37,-52 37,-16 91,-16 91,-52"/>
<text text-anchor="middle" x="64" y="-31.5" font-family="Helvetica,sans-Serif" font-size="10.00">Utility</text>
</a>
</g>
</g>
<!-- dir_4ad73661ceecee2f59b8c0b0178f9787 -->
<g id="node2" class="node">
<title>dir_4ad73661ceecee2f59b8c0b0178f9787</title>
<g id="a_node2"><a xlink:href="dir_4ad73661ceecee2f59b8c0b0178f9787.html" target="_top" xlink:title="Facade">
<polygon fill="#eeeeff" stroke="black" points="91,-124 37,-124 37,-88 91,-88 91,-124"/>
<text text-anchor="middle" x="64" y="-103.5" font-family="Helvetica,sans-Serif" font-size="10.00">Facade</text>
</a>
</g>
</g>
<!-- dir_4ad73661ceecee2f59b8c0b0178f9787&#45;&gt;dir_87059d60c7dfcd3dc8f50ab725effb95 -->
<g id="edge1" class="edge">
<title>dir_4ad73661ceecee2f59b8c0b0178f9787&#45;&gt;dir_87059d60c7dfcd3dc8f50ab725effb95</title>
<path fill="none" stroke="black" d="M64,-87.7C64,-79.98 64,-70.71 64,-62.11"/>
<polygon fill="black" stroke="black" points="67.5,-62.1 64,-52.1 60.5,-62.1 67.5,-62.1"/>
<g id="a_edge1&#45;headlabel"><a xlink:href="dir_000004_000007.html" target="_top" xlink:title="1">
<text text-anchor="middle" x="70.34" y="-63.2" font-family="Helvetica,sans-Serif" font-size="10.00">1</text>
</a>
</g>
</g>
<!-- dir_de77370fa4c160312bb88f5d1919228b -->
<g id="node3" class="node">
<title>dir_de77370fa4c160312bb88f5d1919228b</title>
<g id="a_node3"><a xlink:href="dir_de77370fa4c160312bb88f5d1919228b.html" target="_top" xlink:title="spic&#45;prj&#45;api">
<polygon fill="none" stroke="black" points="173,-52 109,-52 109,-16 173,-16 173,-52"/>
<text text-anchor="middle" x="141" y="-31.5" font-family="Helvetica,sans-Serif" font-size="10.00">spic&#45;prj&#45;api</text>
</a>
</g>
</g>
<!-- dir_4ad73661ceecee2f59b8c0b0178f9787&#45;&gt;dir_de77370fa4c160312bb88f5d1919228b -->
<g id="edge2" class="edge">
<title>dir_4ad73661ceecee2f59b8c0b0178f9787&#45;&gt;dir_de77370fa4c160312bb88f5d1919228b</title>
<path fill="none" stroke="black" d="M83.03,-87.7C92.54,-79.05 104.21,-68.45 114.57,-59.03"/>
<polygon fill="black" stroke="black" points="117.14,-61.42 122.19,-52.1 112.43,-56.24 117.14,-61.42"/>
<g id="a_edge2&#45;headlabel"><a xlink:href="dir_000004_000008.html" target="_top" xlink:title="1">
<text text-anchor="middle" x="116.39" y="-63.44" font-family="Helvetica,sans-Serif" font-size="10.00">1</text>
</a>
</g>
</g>
</g>
</svg>
