<?xml version="1.0" encoding="UTF-8" standalone="no"?>
<!DOCTYPE svg PUBLIC "-//W3C//DTD SVG 1.1//EN"
 "http://www.w3.org/Graphics/SVG/1.1/DTD/svg11.dtd">
<!-- Generated by graphviz version 2.44.0 ()
 -->
<!-- Title: src Pages: 1 -->
<svg width="1149pt" height="132pt"
 viewBox="0.00 0.00 1149.00 132.00" xmlns="http://www.w3.org/2000/svg" xmlns:xlink="http://www.w3.org/1999/xlink">
<g id="graph0" class="graph" transform="scale(1 1) rotate(0) translate(4 128)">
<title>src</title>
<g id="clust1" class="cluster">
<title>clusterdir_68267d1309a1af8e8297ef4c3efbcdba</title>
<g id="a_clust1"><a xlink:href="dir_68267d1309a1af8e8297ef4c3efbcdba.html" target="_top">
<polygon fill="#eeeeff" stroke="black" points="8,-64 8,-116 1133,-116 1133,-64 8,-64"/>
</a>
</g>
</g>
<!-- dir_68267d1309a1af8e8297ef4c3efbcdba -->
<g id="node1" class="node">
<title>dir_68267d1309a1af8e8297ef4c3efbcdba</title>
<text text-anchor="middle" x="1098" y="-87.5" font-family="Helvetica,sans-Serif" font-size="10.00">src</text>
</g>
<!-- dir_32137984f496da46263d816e0d6dc804 -->
<g id="node2" class="node">
<title>dir_32137984f496da46263d816e0d6dc804</title>
<g id="a_node2"><a xlink:href="dir_32137984f496da46263d816e0d6dc804.html" target="_top" xlink:title="API">
<polygon fill="white" stroke="black" points="1053,-108 999,-108 999,-72 1053,-72 1053,-108"/>
<text text-anchor="middle" x="1026" y="-87.5" font-family="Helvetica,sans-Serif" font-size="10.00">API</text>
</a>
</g>
</g>
<!-- dir_09e761304027c904456130627fd4dcf5 -->
<g id="node16" class="node">
<title>dir_09e761304027c904456130627fd4dcf5</title>
<g id="a_node16"><a xlink:href="dir_09e761304027c904456130627fd4dcf5.html" target="_top" xlink:title="includes">
<polygon fill="none" stroke="red" points="565,-36 511,-36 511,0 565,0 565,-36"/>
<text text-anchor="middle" x="538" y="-15.5" font-family="Helvetica,sans-Serif" font-size="10.00">includes</text>
</a>
</g>
</g>
<!-- dir_32137984f496da46263d816e0d6dc804&#45;&gt;dir_09e761304027c904456130627fd4dcf5 -->
<g id="edge14" class="edge">
<title>dir_32137984f496da46263d816e0d6dc804&#45;&gt;dir_09e761304027c904456130627fd4dcf5</title>
<path fill="none" stroke="black" d="M1004.91,-71.76C1000.24,-68.7 995.14,-65.89 990,-64 914.03,-36 669.13,-23.97 575.18,-20.3"/>
<polygon fill="black" stroke="black" points="575.13,-16.8 565,-19.91 574.86,-23.79 575.13,-16.8"/>
<g id="a_edge14&#45;headlabel"><a xlink:href="dir_000017_000000.html" target="_top" xlink:title="15">
<text text-anchor="middle" x="578.83" y="-11.6" font-family="Helvetica,sans-Serif" font-size="10.00">15</text>
</a>
</g>
</g>
<!-- dir_3390abd4dd4868e8097d526120a85902 -->
<g id="node3" class="node">
<title>dir_3390abd4dd4868e8097d526120a85902</title>
<g id="a_node3"><a xlink:href="dir_3390abd4dd4868e8097d526120a85902.html" target="_top" xlink:title="Behaviour">
<polygon fill="white" stroke="black" points="981,-108 921,-108 921,-72 981,-72 981,-108"/>
<text text-anchor="middle" x="951" y="-87.5" font-family="Helvetica,sans-Serif" font-size="10.00">Behaviour</text>
</a>
</g>
</g>
<!-- dir_3390abd4dd4868e8097d526120a85902&#45;&gt;dir_09e761304027c904456130627fd4dcf5 -->
<g id="edge5" class="edge">
<title>dir_3390abd4dd4868e8097d526120a85902&#45;&gt;dir_09e761304027c904456130627fd4dcf5</title>
<path fill="none" stroke="black" d="M927.97,-71.85C922.92,-68.79 917.45,-65.96 912,-64 794.57,-21.81 644.44,-17.51 575.58,-18.06"/>
<polygon fill="black" stroke="black" points="575.2,-14.56 565.24,-18.18 575.28,-21.56 575.2,-14.56"/>
<g id="a_edge5&#45;headlabel"><a xlink:href="dir_000018_000000.html" target="_top" xlink:title="4">
<text text-anchor="middle" x="578.76" y="-9.18" font-family="Helvetica,sans-Serif" font-size="10.00">4</text>
</a>
</g>
</g>
<!-- dir_96711deda0d7ee481a09206bc6c79536 -->
<g id="node4" class="node">
<title>dir_96711deda0d7ee481a09206bc6c79536</title>
<g id="a_node4"><a xlink:href="dir_96711deda0d7ee481a09206bc6c79536.html" target="_top" xlink:title="Builder">
<polygon fill="white" stroke="black" points="903,-108 849,-108 849,-72 903,-72 903,-108"/>
<text text-anchor="middle" x="876" y="-87.5" font-family="Helvetica,sans-Serif" font-size="10.00">Builder</text>
</a>
</g>
</g>
<!-- dir_96711deda0d7ee481a09206bc6c79536&#45;&gt;dir_09e761304027c904456130627fd4dcf5 -->
<g id="edge3" class="edge">
<title>dir_96711deda0d7ee481a09206bc6c79536&#45;&gt;dir_09e761304027c904456130627fd4dcf5</title>
<path fill="none" stroke="black" d="M854.83,-71.95C850.17,-68.88 845.09,-66.02 840,-64 749.77,-28.23 634.12,-20.61 575.57,-19.17"/>
<polygon fill="black" stroke="black" points="575.39,-15.66 565.32,-18.96 575.25,-22.66 575.39,-15.66"/>
<g id="a_edge3&#45;headlabel"><a xlink:href="dir_000019_000000.html" target="_top" xlink:title="2">
<text text-anchor="middle" x="579.04" y="-10.39" font-family="Helvetica,sans-Serif" font-size="10.00">2</text>
</a>
</g>
</g>
<!-- dir_3624c3011e0f2f30fa93f2c3df0f9e35 -->
<g id="node5" class="node">
<title>dir_3624c3011e0f2f30fa93f2c3df0f9e35</title>
<g id="a_node5"><a xlink:href="dir_3624c3011e0f2f30fa93f2c3df0f9e35.html" target="_top" xlink:title="Debug">
<polygon fill="white" stroke="black" points="831,-108 777,-108 777,-72 831,-72 831,-108"/>
<text text-anchor="middle" x="804" y="-87.5" font-family="Helvetica,sans-Serif" font-size="10.00">Debug</text>
</a>
</g>
</g>
<!-- dir_3624c3011e0f2f30fa93f2c3df0f9e35&#45;&gt;dir_09e761304027c904456130627fd4dcf5 -->
<g id="edge1" class="edge">
<title>dir_3624c3011e0f2f30fa93f2c3df0f9e35&#45;&gt;dir_09e761304027c904456130627fd4dcf5</title>
<path fill="none" stroke="black" d="M782.37,-71.87C777.82,-68.88 772.91,-66.07 768,-64 703.68,-36.8 622.23,-25.84 575.52,-21.58"/>
<polygon fill="black" stroke="black" points="575.53,-18.07 565.26,-20.7 574.93,-25.04 575.53,-18.07"/>
<g id="a_edge1&#45;headlabel"><a xlink:href="dir_000020_000000.html" target="_top" xlink:title="1">
<text text-anchor="middle" x="579.35" y="-13.04" font-family="Helvetica,sans-Serif" font-size="10.00">1</text>
</a>
</g>
</g>
<!-- dir_3072bc1f55ed1280fe4fbe6b21c78379 -->
<g id="node6" class="node">
<title>dir_3072bc1f55ed1280fe4fbe6b21c78379</title>
<g id="a_node6"><a xlink:href="dir_3072bc1f55ed1280fe4fbe6b21c78379.html" target="_top" xlink:title="Engine">
<polygon fill="white" stroke="black" points="759,-108 705,-108 705,-72 759,-72 759,-108"/>
<text text-anchor="middle" x="732" y="-87.5" font-family="Helvetica,sans-Serif" font-size="10.00">Engine</text>
</a>
</g>
</g>
<!-- dir_3072bc1f55ed1280fe4fbe6b21c78379&#45;&gt;dir_09e761304027c904456130627fd4dcf5 -->
<g id="edge11" class="edge">
<title>dir_3072bc1f55ed1280fe4fbe6b21c78379&#45;&gt;dir_09e761304027c904456130627fd4dcf5</title>
<path fill="none" stroke="black" d="M709.84,-71.94C705.41,-69.02 700.68,-66.21 696,-64 656.69,-45.39 608.15,-32.98 575.32,-25.99"/>
<polygon fill="black" stroke="black" points="575.75,-22.51 565.25,-23.91 574.33,-29.36 575.75,-22.51"/>
<g id="a_edge11&#45;headlabel"><a xlink:href="dir_000021_000000.html" target="_top" xlink:title="2">
<text text-anchor="middle" x="579.84" y="-17.95" font-family="Helvetica,sans-Serif" font-size="10.00">2</text>
</a>
</g>
</g>
<!-- dir_f9ab0b6dc9229052dbade29aa876c209 -->
<g id="node7" class="node">
<title>dir_f9ab0b6dc9229052dbade29aa876c209</title>
<g id="a_node7"><a xlink:href="dir_f9ab0b6dc9229052dbade29aa876c209.html" target="_top" xlink:title="Facade">
<polygon fill="white" stroke="black" points="687,-108 633,-108 633,-72 687,-72 687,-108"/>
<text text-anchor="middle" x="660" y="-87.5" font-family="Helvetica,sans-Serif" font-size="10.00">Facade</text>
</a>
</g>
</g>
<!-- dir_f9ab0b6dc9229052dbade29aa876c209&#45;&gt;dir_09e761304027c904456130627fd4dcf5 -->
<g id="edge4" class="edge">
<title>dir_f9ab0b6dc9229052dbade29aa876c209&#45;&gt;dir_09e761304027c904456130627fd4dcf5</title>
<path fill="none" stroke="black" d="M636.26,-71.9C632.23,-69.17 628.04,-66.44 624,-64 608.12,-54.39 589.99,-44.71 574.48,-36.82"/>
<polygon fill="black" stroke="black" points="575.71,-33.52 565.21,-32.14 572.56,-39.77 575.71,-33.52"/>
<g id="a_edge4&#45;headlabel"><a xlink:href="dir_000022_000000.html" target="_top" xlink:title="10">
<text text-anchor="middle" x="580.2" y="-30.1" font-family="Helvetica,sans-Serif" font-size="10.00">10</text>
</a>
</g>
</g>
<!-- dir_478e71b012c2141737dda928c5fa854e -->
<g id="node8" class="node">
<title>dir_478e71b012c2141737dda928c5fa854e</title>
<g id="a_node8"><a xlink:href="dir_478e71b012c2141737dda928c5fa854e.html" target="_top" xlink:title="GameLevel">
<polygon fill="white" stroke="black" points="614.5,-108 547.5,-108 547.5,-72 614.5,-72 614.5,-108"/>
<text text-anchor="middle" x="581" y="-87.5" font-family="Helvetica,sans-Serif" font-size="10.00">GameLevel</text>
</a>
</g>
</g>
<!-- dir_478e71b012c2141737dda928c5fa854e&#45;&gt;dir_09e761304027c904456130627fd4dcf5 -->
<g id="edge2" class="edge">
<title>dir_478e71b012c2141737dda928c5fa854e&#45;&gt;dir_09e761304027c904456130627fd4dcf5</title>
<path fill="none" stroke="black" d="M570.37,-71.7C565.37,-63.56 559.31,-53.69 553.79,-44.7"/>
<polygon fill="black" stroke="black" points="556.72,-42.79 548.51,-36.1 550.76,-46.46 556.72,-42.79"/>
<g id="a_edge2&#45;headlabel"><a xlink:href="dir_000023_000000.html" target="_top" xlink:title="2">
<text text-anchor="middle" x="561.02" y="-41.87" font-family="Helvetica,sans-Serif" font-size="10.00">2</text>
</a>
</g>
</g>
<!-- dir_72264bd4eb08aca2edb77b06492552d6 -->
<g id="node9" class="node">
<title>dir_72264bd4eb08aca2edb77b06492552d6</title>
<g id="a_node9"><a xlink:href="dir_72264bd4eb08aca2edb77b06492552d6.html" target="_top" xlink:title="LevelParser">
<polygon fill="white" stroke="black" points="529.5,-108 460.5,-108 460.5,-72 529.5,-72 529.5,-108"/>
<text text-anchor="middle" x="495" y="-87.5" font-family="Helvetica,sans-Serif" font-size="10.00">LevelParser</text>
</a>
</g>
</g>
<!-- dir_72264bd4eb08aca2edb77b06492552d6&#45;&gt;dir_09e761304027c904456130627fd4dcf5 -->
<g id="edge6" class="edge">
<title>dir_72264bd4eb08aca2edb77b06492552d6&#45;&gt;dir_09e761304027c904456130627fd4dcf5</title>
<path fill="none" stroke="black" d="M505.63,-71.7C510.63,-63.56 516.69,-53.69 522.21,-44.7"/>
<polygon fill="black" stroke="black" points="525.24,-46.46 527.49,-36.1 519.28,-42.79 525.24,-46.46"/>
<g id="a_edge6&#45;headlabel"><a xlink:href="dir_000024_000000.html" target="_top" xlink:title="4">
<text text-anchor="middle" x="525.78" y="-48.51" font-family="Helvetica,sans-Serif" font-size="10.00">4</text>
</a>
</g>
</g>
<!-- dir_bd51a612c92e41a52efc1573706495c8 -->
<g id="node10" class="node">
<title>dir_bd51a612c92e41a52efc1573706495c8</title>
<g id="a_node10"><a xlink:href="dir_bd51a612c92e41a52efc1573706495c8.html" target="_top" xlink:title="Networking">
<polygon fill="white" stroke="black" points="442,-108 376,-108 376,-72 442,-72 442,-108"/>
<text text-anchor="middle" x="409" y="-87.5" font-family="Helvetica,sans-Serif" font-size="10.00">Networking</text>
</a>
</g>
</g>
<!-- dir_bd51a612c92e41a52efc1573706495c8&#45;&gt;dir_09e761304027c904456130627fd4dcf5 -->
<g id="edge13" class="edge">
<title>dir_bd51a612c92e41a52efc1573706495c8&#45;&gt;dir_09e761304027c904456130627fd4dcf5</title>
<path fill="none" stroke="black" d="M438.04,-71.88C442.69,-69.21 447.46,-66.5 452,-64 468.13,-55.1 486.16,-45.59 501.53,-37.62"/>
<polygon fill="black" stroke="black" points="503.44,-40.58 510.72,-32.88 500.23,-34.36 503.44,-40.58"/>
<g id="a_edge13&#45;headlabel"><a xlink:href="dir_000025_000000.html" target="_top" xlink:title="5">
<text text-anchor="middle" x="501.55" y="-42.25" font-family="Helvetica,sans-Serif" font-size="10.00">5</text>
</a>
</g>
</g>
<!-- dir_0df09a091a4eb5e56719829019e3d2f9 -->
<g id="node11" class="node">
<title>dir_0df09a091a4eb5e56719829019e3d2f9</title>
<g id="a_node11"><a xlink:href="dir_0df09a091a4eb5e56719829019e3d2f9.html" target="_top" xlink:title="Physics">
<polygon fill="white" stroke="black" points="358,-108 304,-108 304,-72 358,-72 358,-108"/>
<text text-anchor="middle" x="331" y="-87.5" font-family="Helvetica,sans-Serif" font-size="10.00">Physics</text>
</a>
</g>
</g>
<!-- dir_0df09a091a4eb5e56719829019e3d2f9&#45;&gt;dir_09e761304027c904456130627fd4dcf5 -->
<g id="edge8" class="edge">
<title>dir_0df09a091a4eb5e56719829019e3d2f9&#45;&gt;dir_09e761304027c904456130627fd4dcf5</title>
<path fill="none" stroke="black" d="M353.13,-71.86C357.56,-68.95 362.3,-66.17 367,-64 410.89,-43.76 465.48,-31.39 501,-24.87"/>
<polygon fill="black" stroke="black" points="501.7,-28.3 510.94,-23.11 500.48,-21.41 501.7,-28.3"/>
<g id="a_edge8&#45;headlabel"><a xlink:href="dir_000026_000000.html" target="_top" xlink:title="12">
<text text-anchor="middle" x="498.66" y="-29.23" font-family="Helvetica,sans-Serif" font-size="10.00">12</text>
</a>
</g>
</g>
<!-- dir_4c7ee98193a6cba0af9aae7f963a60da -->
<g id="node12" class="node">
<title>dir_4c7ee98193a6cba0af9aae7f963a60da</title>
<g id="a_node12"><a xlink:href="dir_4c7ee98193a6cba0af9aae7f963a60da.html" target="_top" xlink:title="Render">
<polygon fill="white" stroke="black" points="286,-108 232,-108 232,-72 286,-72 286,-108"/>
<text text-anchor="middle" x="259" y="-87.5" font-family="Helvetica,sans-Serif" font-size="10.00">Render</text>
</a>
</g>
</g>
<!-- dir_4c7ee98193a6cba0af9aae7f963a60da&#45;&gt;dir_09e761304027c904456130627fd4dcf5 -->
<g id="edge10" class="edge">
<title>dir_4c7ee98193a6cba0af9aae7f963a60da&#45;&gt;dir_09e761304027c904456130627fd4dcf5</title>
<path fill="none" stroke="black" d="M280.61,-71.83C285.16,-68.85 290.08,-66.05 295,-64 363.99,-35.23 451.62,-24.78 500.57,-21.04"/>
<polygon fill="black" stroke="black" points="500.97,-24.52 510.7,-20.32 500.47,-17.53 500.97,-24.52"/>
<g id="a_edge10&#45;headlabel"><a xlink:href="dir_000027_000000.html" target="_top" xlink:title="2">
<text text-anchor="middle" x="497.58" y="-25.1" font-family="Helvetica,sans-Serif" font-size="10.00">2</text>
</a>
</g>
</g>
<!-- dir_204260ac86670e69c647eaba8962e745 -->
<g id="node13" class="node">
<title>dir_204260ac86670e69c647eaba8962e745</title>
<g id="a_node13"><a xlink:href="dir_204260ac86670e69c647eaba8962e745.html" target="_top" xlink:title="Scene">
<polygon fill="white" stroke="black" points="214,-108 160,-108 160,-72 214,-72 214,-108"/>
<text text-anchor="middle" x="187" y="-87.5" font-family="Helvetica,sans-Serif" font-size="10.00">Scene</text>
</a>
</g>
</g>
<!-- dir_204260ac86670e69c647eaba8962e745&#45;&gt;dir_09e761304027c904456130627fd4dcf5 -->
<g id="edge12" class="edge">
<title>dir_204260ac86670e69c647eaba8962e745&#45;&gt;dir_09e761304027c904456130627fd4dcf5</title>
<path fill="none" stroke="black" d="M208.16,-71.93C212.82,-68.86 217.9,-66 223,-64 318.07,-26.64 440.13,-19.77 500.6,-18.84"/>
<polygon fill="black" stroke="black" points="500.85,-22.34 510.81,-18.73 500.77,-15.34 500.85,-22.34"/>
<g id="a_edge12&#45;headlabel"><a xlink:href="dir_000028_000000.html" target="_top" xlink:title="7">
<text text-anchor="middle" x="497.28" y="-22.72" font-family="Helvetica,sans-Serif" font-size="10.00">7</text>
</a>
</g>
</g>
<!-- dir_64cece8721923da8192b70f373152c4b -->
<g id="node14" class="node">
<title>dir_64cece8721923da8192b70f373152c4b</title>
<g id="a_node14"><a xlink:href="dir_64cece8721923da8192b70f373152c4b.html" target="_top" xlink:title="Texture">
<polygon fill="white" stroke="black" points="142,-108 88,-108 88,-72 142,-72 142,-108"/>
<text text-anchor="middle" x="115" y="-87.5" font-family="Helvetica,sans-Serif" font-size="10.00">Texture</text>
</a>
</g>
</g>
<!-- dir_64cece8721923da8192b70f373152c4b&#45;&gt;dir_09e761304027c904456130627fd4dcf5 -->
<g id="edge9" class="edge">
<title>dir_64cece8721923da8192b70f373152c4b&#45;&gt;dir_09e761304027c904456130627fd4dcf5</title>
<path fill="none" stroke="black" d="M136.12,-71.82C140.79,-68.76 145.88,-65.94 151,-64 214.56,-39.98 416.71,-25.94 500.78,-21.02"/>
<polygon fill="black" stroke="black" points="501.11,-24.5 510.89,-20.44 500.71,-17.52 501.11,-24.5"/>
<g id="a_edge9&#45;headlabel"><a xlink:href="dir_000029_000000.html" target="_top" xlink:title="4">
<text text-anchor="middle" x="497.69" y="-25.05" font-family="Helvetica,sans-Serif" font-size="10.00">4</text>
</a>
</g>
</g>
<!-- dir_6acd24eea7f3fe579df422711269a2fc -->
<g id="node15" class="node">
<title>dir_6acd24eea7f3fe579df422711269a2fc</title>
<g id="a_node15"><a xlink:href="dir_6acd24eea7f3fe579df422711269a2fc.html" target="_top" xlink:title="Timer">
<polygon fill="white" stroke="black" points="70,-108 16,-108 16,-72 70,-72 70,-108"/>
<text text-anchor="middle" x="43" y="-87.5" font-family="Helvetica,sans-Serif" font-size="10.00">Timer</text>
</a>
</g>
</g>
<!-- dir_6acd24eea7f3fe579df422711269a2fc&#45;&gt;dir_09e761304027c904456130627fd4dcf5 -->
<g id="edge7" class="edge">
<title>dir_6acd24eea7f3fe579df422711269a2fc&#45;&gt;dir_09e761304027c904456130627fd4dcf5</title>
<path fill="none" stroke="black" d="M64.09,-71.75C68.76,-68.7 73.86,-65.89 79,-64 156.32,-35.57 405.93,-23.77 500.87,-20.23"/>
<polygon fill="black" stroke="black" points="501.02,-23.73 510.88,-19.87 500.76,-16.73 501.02,-23.73"/>
<g id="a_edge7&#45;headlabel"><a xlink:href="dir_000030_000000.html" target="_top" xlink:title="3">
<text text-anchor="middle" x="497.53" y="-24.2" font-family="Helvetica,sans-Serif" font-size="10.00">3</text>
</a>
</g>
</g>
</g>
</svg>
