<?xml version="1.0" encoding="UTF-8" standalone="no"?>
<!DOCTYPE svg PUBLIC "-//W3C//DTD SVG 1.1//EN"
 "http://www.w3.org/Graphics/SVG/1.1/DTD/svg11.dtd">
<!-- Generated by graphviz version 2.44.0 ()
 -->
<!-- Title: src Pages: 1 -->
<!--zoomable 132 -->
<svg id="main" version="1.1" xmlns="http://www.w3.org/2000/svg" xmlns:xlink="http://www.w3.org/1999/xlink" xml:space="preserve" onload="init(evt)">
<style type="text/css"><![CDATA[
.edge:hover path { stroke: red; }
.edge:hover polygon { stroke: red; fill: red; }
]]></style>
<script type="text/javascript"><![CDATA[
var edges = document.getElementsByTagName('g');
if (edges && edges.length) {
  for (var i=0;i<edges.length;i++) {
    if (edges[i].id.substr(0,4)=='edge') {
      edges[i].setAttribute('class','edge');
    }
  }
}
]]></script>
        <defs>
                <circle id="rim" cx="0" cy="0" r="7"/>
                <circle id="rim2" cx="0" cy="0" r="3.5"/>
                <g id="zoomPlus">
                        <use xlink:href="#rim" fill="#404040">
                                <set attributeName="fill" to="#808080" begin="zoomplus.mouseover" end="zoomplus.mouseout"/>
                        </use>
                        <path d="M-4,0h8M0,-4v8" fill="none" stroke="white" stroke-width="1.5" pointer-events="none"/>
                </g>
                <g id="zoomMin">
                        <use xlink:href="#rim" fill="#404040">
                                <set attributeName="fill" to="#808080" begin="zoomminus.mouseover" end="zoomminus.mouseout"/>
                        </use>
                        <path d="M-4,0h8" fill="none" stroke="white" stroke-width="1.5" pointer-events="none"/>
                </g>
                <g id="dirArrow">
                        <path fill="none" stroke="white" stroke-width="1.5" d="M0,-3.0v7 M-2.5,-0.5L0,-3.0L2.5,-0.5"/>
                </g>
               <g id="resetDef">
                       <use xlink:href="#rim2" fill="#404040">
                               <set attributeName="fill" to="#808080" begin="reset.mouseover" end="reset.mouseout"/>
                       </use>
               </g>
        </defs>

<script type="text/javascript">
var viewWidth = 1136;
var viewHeight = 132;
var sectionId = 'dynsection-0';
</script>
<script xlink:href="svgpan.js"/>
<svg id="graph" class="graph">
<g id="viewport">
<title>src</title>
<g id="clust1" class="cluster">
<title>clusterdir_68267d1309a1af8e8297ef4c3efbcdba</title>
<g id="a_clust1"><a xlink:href="dir_68267d1309a1af8e8297ef4c3efbcdba.html" target="_top">
<polygon fill="#eeeeff" stroke="black" points="8,-64 8,-116 1120,-116 1120,-64 8,-64"/>
</a>
</g>
</g>
<!-- dir_68267d1309a1af8e8297ef4c3efbcdba -->
<g id="node1" class="node">
<title>dir_68267d1309a1af8e8297ef4c3efbcdba</title>
<text text-anchor="middle" x="1085" y="-87.5" font-family="Helvetica,sans-Serif" font-size="10.00">src</text>
</g>
<!-- dir_32137984f496da46263d816e0d6dc804 -->
<g id="node2" class="node">
<title>dir_32137984f496da46263d816e0d6dc804</title>
<g id="a_node2"><a xlink:href="dir_32137984f496da46263d816e0d6dc804.html" target="_top" xlink:title="API">
<polygon fill="white" stroke="black" points="1040,-108 986,-108 986,-72 1040,-72 1040,-108"/>
<text text-anchor="middle" x="1013" y="-87.5" font-family="Helvetica,sans-Serif" font-size="10.00">API</text>
</a>
</g>
</g>
<!-- dir_09e761304027c904456130627fd4dcf5 -->
<g id="node16" class="node">
<title>dir_09e761304027c904456130627fd4dcf5</title>
<g id="a_node16"><a xlink:href="dir_09e761304027c904456130627fd4dcf5.html" target="_top" xlink:title="includes">
<polygon fill="none" stroke="red" points="562,-36 508,-36 508,0 562,0 562,-36"/>
<text text-anchor="middle" x="535" y="-15.5" font-family="Helvetica,sans-Serif" font-size="10.00">includes</text>
</a>
</g>
</g>
<!-- dir_32137984f496da46263d816e0d6dc804&#45;&gt;dir_09e761304027c904456130627fd4dcf5 -->
<g id="edge14" class="edge">
<title>dir_32137984f496da46263d816e0d6dc804&#45;&gt;dir_09e761304027c904456130627fd4dcf5</title>
<path fill="none" stroke="black" d="M991.9,-71.77C987.23,-68.71 982.14,-65.9 977,-64 902.99,-36.63 664.92,-24.26 572.33,-20.4"/>
<polygon fill="black" stroke="black" points="572.43,-16.9 562.29,-19.99 572.14,-23.9 572.43,-16.9"/>
<g id="a_edge14&#45;headlabel"><a xlink:href="dir_000018_000000.html" target="_top" xlink:title="14">
<text text-anchor="middle" x="576.13" y="-11.71" font-family="Helvetica,sans-Serif" font-size="10.00">14</text>
</a>
</g>
</g>
<!-- dir_3390abd4dd4868e8097d526120a85902 -->
<g id="node3" class="node">
<title>dir_3390abd4dd4868e8097d526120a85902</title>
<g id="a_node3"><a xlink:href="dir_3390abd4dd4868e8097d526120a85902.html" target="_top" xlink:title="Behaviour">
<polygon fill="white" stroke="black" points="968,-108 908,-108 908,-72 968,-72 968,-108"/>
<text text-anchor="middle" x="938" y="-87.5" font-family="Helvetica,sans-Serif" font-size="10.00">Behaviour</text>
</a>
</g>
</g>
<!-- dir_3390abd4dd4868e8097d526120a85902&#45;&gt;dir_09e761304027c904456130627fd4dcf5 -->
<g id="edge4" class="edge">
<title>dir_3390abd4dd4868e8097d526120a85902&#45;&gt;dir_09e761304027c904456130627fd4dcf5</title>
<path fill="none" stroke="black" d="M914.96,-71.87C909.91,-68.8 904.45,-65.97 899,-64 785.3,-22.94 640.06,-18.03 572.58,-18.24"/>
<polygon fill="black" stroke="black" points="572.41,-14.74 562.44,-18.31 572.46,-21.74 572.41,-14.74"/>
<g id="a_edge4&#45;headlabel"><a xlink:href="dir_000019_000000.html" target="_top" xlink:title="7">
<text text-anchor="middle" x="575.99" y="-9.37" font-family="Helvetica,sans-Serif" font-size="10.00">7</text>
</a>
</g>
</g>
<!-- dir_96711deda0d7ee481a09206bc6c79536 -->
<g id="node4" class="node">
<title>dir_96711deda0d7ee481a09206bc6c79536</title>
<g id="a_node4"><a xlink:href="dir_96711deda0d7ee481a09206bc6c79536.html" target="_top" xlink:title="Builder">
<polygon fill="white" stroke="black" points="890,-108 836,-108 836,-72 890,-72 890,-108"/>
<text text-anchor="middle" x="863" y="-87.5" font-family="Helvetica,sans-Serif" font-size="10.00">Builder</text>
</a>
</g>
</g>
<!-- dir_96711deda0d7ee481a09206bc6c79536&#45;&gt;dir_09e761304027c904456130627fd4dcf5 -->
<g id="edge2" class="edge">
<title>dir_96711deda0d7ee481a09206bc6c79536&#45;&gt;dir_09e761304027c904456130627fd4dcf5</title>
<path fill="none" stroke="black" d="M841.83,-71.97C837.16,-68.9 832.09,-66.03 827,-64 740.41,-29.42 629.56,-21.26 572.56,-19.43"/>
<polygon fill="black" stroke="black" points="572.32,-15.93 562.23,-19.15 572.14,-22.92 572.32,-15.93"/>
<g id="a_edge2&#45;headlabel"><a xlink:href="dir_000020_000000.html" target="_top" xlink:title="2">
<text text-anchor="middle" x="575.99" y="-10.69" font-family="Helvetica,sans-Serif" font-size="10.00">2</text>
</a>
</g>
</g>
<!-- dir_3624c3011e0f2f30fa93f2c3df0f9e35 -->
<g id="node5" class="node">
<title>dir_3624c3011e0f2f30fa93f2c3df0f9e35</title>
<g id="a_node5"><a xlink:href="dir_3624c3011e0f2f30fa93f2c3df0f9e35.html" target="_top" xlink:title="Debug">
<polygon fill="white" stroke="black" points="818,-108 764,-108 764,-72 818,-72 818,-108"/>
<text text-anchor="middle" x="791" y="-87.5" font-family="Helvetica,sans-Serif" font-size="10.00">Debug</text>
</a>
</g>
</g>
<!-- dir_3624c3011e0f2f30fa93f2c3df0f9e35&#45;&gt;dir_09e761304027c904456130627fd4dcf5 -->
<g id="edge1" class="edge">
<title>dir_3624c3011e0f2f30fa93f2c3df0f9e35&#45;&gt;dir_09e761304027c904456130627fd4dcf5</title>
<path fill="none" stroke="black" d="M769.36,-71.9C764.81,-68.91 759.9,-66.1 755,-64 694.11,-37.94 617.16,-26.65 572.27,-22"/>
<polygon fill="black" stroke="black" points="572.41,-18.5 562.12,-21.01 571.73,-25.47 572.41,-18.5"/>
<g id="a_edge1&#45;headlabel"><a xlink:href="dir_000021_000000.html" target="_top" xlink:title="1">
<text text-anchor="middle" x="576.26" y="-13.53" font-family="Helvetica,sans-Serif" font-size="10.00">1</text>
</a>
</g>
</g>
<!-- dir_330611eaa039e68d4efdcc31981c6755 -->
<g id="node6" class="node">
<title>dir_330611eaa039e68d4efdcc31981c6755</title>
<g id="a_node6"><a xlink:href="dir_330611eaa039e68d4efdcc31981c6755.html" target="_top" xlink:title="Director">
<polygon fill="white" stroke="black" points="746,-108 692,-108 692,-72 746,-72 746,-108"/>
<text text-anchor="middle" x="719" y="-87.5" font-family="Helvetica,sans-Serif" font-size="10.00">Director</text>
</a>
</g>
</g>
<!-- dir_330611eaa039e68d4efdcc31981c6755&#45;&gt;dir_09e761304027c904456130627fd4dcf5 -->
<g id="edge9" class="edge">
<title>dir_330611eaa039e68d4efdcc31981c6755&#45;&gt;dir_09e761304027c904456130627fd4dcf5</title>
<path fill="none" stroke="black" d="M696.41,-71.75C692.1,-68.91 687.52,-66.19 683,-64 646.95,-46.54 602.68,-34.15 571.99,-26.85"/>
<polygon fill="black" stroke="black" points="572.67,-23.41 562.14,-24.57 571.09,-30.23 572.67,-23.41"/>
<g id="a_edge9&#45;headlabel"><a xlink:href="dir_000022_000000.html" target="_top" xlink:title="4">
<text text-anchor="middle" x="576.81" y="-18.96" font-family="Helvetica,sans-Serif" font-size="10.00">4</text>
</a>
</g>
</g>
<!-- dir_3072bc1f55ed1280fe4fbe6b21c78379 -->
<g id="node7" class="node">
<title>dir_3072bc1f55ed1280fe4fbe6b21c78379</title>
<g id="a_node7"><a xlink:href="dir_3072bc1f55ed1280fe4fbe6b21c78379.html" target="_top" xlink:title="Engine">
<polygon fill="white" stroke="black" points="674,-108 620,-108 620,-72 674,-72 674,-108"/>
<text text-anchor="middle" x="647" y="-87.5" font-family="Helvetica,sans-Serif" font-size="10.00">Engine</text>
</a>
</g>
</g>
<!-- dir_3072bc1f55ed1280fe4fbe6b21c78379&#45;&gt;dir_09e761304027c904456130627fd4dcf5 -->
<g id="edge11" class="edge">
<title>dir_3072bc1f55ed1280fe4fbe6b21c78379&#45;&gt;dir_09e761304027c904456130627fd4dcf5</title>
<path fill="none" stroke="black" d="M622.76,-71.81C618.86,-69.15 614.84,-66.47 611,-64 598.13,-55.73 583.74,-47.07 570.98,-39.58"/>
<polygon fill="black" stroke="black" points="572.42,-36.37 562.02,-34.36 568.89,-42.42 572.42,-36.37"/>
<g id="a_edge11&#45;headlabel"><a xlink:href="dir_000023_000000.html" target="_top" xlink:title="8">
<text text-anchor="middle" x="576.96" y="-33.23" font-family="Helvetica,sans-Serif" font-size="10.00">8</text>
</a>
</g>
</g>
<!-- dir_f9ab0b6dc9229052dbade29aa876c209 -->
<g id="node8" class="node">
<title>dir_f9ab0b6dc9229052dbade29aa876c209</title>
<g id="a_node8"><a xlink:href="dir_f9ab0b6dc9229052dbade29aa876c209.html" target="_top" xlink:title="Facade">
<polygon fill="white" stroke="black" points="602,-108 548,-108 548,-72 602,-72 602,-108"/>
<text text-anchor="middle" x="575" y="-87.5" font-family="Helvetica,sans-Serif" font-size="10.00">Facade</text>
</a>
</g>
</g>
<!-- dir_f9ab0b6dc9229052dbade29aa876c209&#45;&gt;dir_09e761304027c904456130627fd4dcf5 -->
<g id="edge3" class="edge">
<title>dir_f9ab0b6dc9229052dbade29aa876c209&#45;&gt;dir_09e761304027c904456130627fd4dcf5</title>
<path fill="none" stroke="black" d="M565.11,-71.7C560.51,-63.64 554.94,-53.89 549.85,-44.98"/>
<polygon fill="black" stroke="black" points="552.77,-43.05 544.77,-36.1 546.7,-46.52 552.77,-43.05"/>
<g id="a_edge3&#45;headlabel"><a xlink:href="dir_000024_000000.html" target="_top" xlink:title="17">
<text text-anchor="middle" x="557.02" y="-42.26" font-family="Helvetica,sans-Serif" font-size="10.00">17</text>
</a>
</g>
</g>
<!-- dir_72264bd4eb08aca2edb77b06492552d6 -->
<g id="node9" class="node">
<title>dir_72264bd4eb08aca2edb77b06492552d6</title>
<g id="a_node9"><a xlink:href="dir_72264bd4eb08aca2edb77b06492552d6.html" target="_top" xlink:title="LevelParser">
<polygon fill="white" stroke="black" points="529.5,-108 460.5,-108 460.5,-72 529.5,-72 529.5,-108"/>
<text text-anchor="middle" x="495" y="-87.5" font-family="Helvetica,sans-Serif" font-size="10.00">LevelParser</text>
</a>
</g>
</g>
<!-- dir_72264bd4eb08aca2edb77b06492552d6&#45;&gt;dir_09e761304027c904456130627fd4dcf5 -->
<g id="edge5" class="edge">
<title>dir_72264bd4eb08aca2edb77b06492552d6&#45;&gt;dir_09e761304027c904456130627fd4dcf5</title>
<path fill="none" stroke="black" d="M504.89,-71.7C509.49,-63.64 515.06,-53.89 520.15,-44.98"/>
<polygon fill="black" stroke="black" points="523.3,-46.52 525.23,-36.1 517.23,-43.05 523.3,-46.52"/>
<g id="a_edge5&#45;headlabel"><a xlink:href="dir_000025_000000.html" target="_top" xlink:title="4">
<text text-anchor="middle" x="523.99" y="-48.55" font-family="Helvetica,sans-Serif" font-size="10.00">4</text>
</a>
</g>
</g>
<!-- dir_bd51a612c92e41a52efc1573706495c8 -->
<g id="node10" class="node">
<title>dir_bd51a612c92e41a52efc1573706495c8</title>
<g id="a_node10"><a xlink:href="dir_bd51a612c92e41a52efc1573706495c8.html" target="_top" xlink:title="Networking">
<polygon fill="white" stroke="red" points="442,-108 376,-108 376,-72 442,-72 442,-108"/>
<text text-anchor="middle" x="409" y="-87.5" font-family="Helvetica,sans-Serif" font-size="10.00">Networking</text>
</a>
</g>
</g>
<!-- dir_bd51a612c92e41a52efc1573706495c8&#45;&gt;dir_09e761304027c904456130627fd4dcf5 -->
<g id="edge13" class="edge">
<title>dir_bd51a612c92e41a52efc1573706495c8&#45;&gt;dir_09e761304027c904456130627fd4dcf5</title>
<path fill="none" stroke="black" d="M438.08,-71.94C442.72,-69.26 447.48,-66.54 452,-64 467.24,-55.44 484.19,-46.2 498.77,-38.34"/>
<polygon fill="black" stroke="black" points="500.83,-41.21 507.97,-33.39 497.51,-35.04 500.83,-41.21"/>
<g id="a_edge13&#45;headlabel"><a xlink:href="dir_000026_000000.html" target="_top" xlink:title="13">
<text text-anchor="middle" x="499" y="-42.91" font-family="Helvetica,sans-Serif" font-size="10.00">13</text>
</a>
</g>
</g>
<!-- dir_0df09a091a4eb5e56719829019e3d2f9 -->
<g id="node11" class="node">
<title>dir_0df09a091a4eb5e56719829019e3d2f9</title>
<g id="a_node11"><a xlink:href="dir_0df09a091a4eb5e56719829019e3d2f9.html" target="_top" xlink:title="Physics">
<polygon fill="white" stroke="black" points="358,-108 304,-108 304,-72 358,-72 358,-108"/>
<text text-anchor="middle" x="331" y="-87.5" font-family="Helvetica,sans-Serif" font-size="10.00">Physics</text>
</a>
</g>
</g>
<!-- dir_0df09a091a4eb5e56719829019e3d2f9&#45;&gt;dir_09e761304027c904456130627fd4dcf5 -->
<g id="edge7" class="edge">
<title>dir_0df09a091a4eb5e56719829019e3d2f9&#45;&gt;dir_09e761304027c904456130627fd4dcf5</title>
<path fill="none" stroke="black" d="M353.14,-71.88C357.57,-68.96 362.31,-66.18 367,-64 409.7,-44.19 462.68,-31.82 497.6,-25.18"/>
<polygon fill="black" stroke="black" points="498.62,-28.55 507.82,-23.3 497.36,-21.66 498.62,-28.55"/>
<g id="a_edge7&#45;headlabel"><a xlink:href="dir_000028_000000.html" target="_top" xlink:title="11">
<text text-anchor="middle" x="495.6" y="-29.49" font-family="Helvetica,sans-Serif" font-size="10.00">11</text>
</a>
</g>
</g>
<!-- dir_4c7ee98193a6cba0af9aae7f963a60da -->
<g id="node12" class="node">
<title>dir_4c7ee98193a6cba0af9aae7f963a60da</title>
<g id="a_node12"><a xlink:href="dir_4c7ee98193a6cba0af9aae7f963a60da.html" target="_top" xlink:title="Render">
<polygon fill="white" stroke="black" points="286,-108 232,-108 232,-72 286,-72 286,-108"/>
<text text-anchor="middle" x="259" y="-87.5" font-family="Helvetica,sans-Serif" font-size="10.00">Render</text>
</a>
</g>
</g>
<!-- dir_4c7ee98193a6cba0af9aae7f963a60da&#45;&gt;dir_09e761304027c904456130627fd4dcf5 -->
<g id="edge10" class="edge">
<title>dir_4c7ee98193a6cba0af9aae7f963a60da&#45;&gt;dir_09e761304027c904456130627fd4dcf5</title>
<path fill="none" stroke="black" d="M280.61,-71.84C285.17,-68.86 290.09,-66.06 295,-64 362.95,-35.58 449.22,-25.01 497.64,-21.15"/>
<polygon fill="black" stroke="black" points="497.95,-24.64 507.67,-20.4 497.43,-17.65 497.95,-24.64"/>
<g id="a_edge10&#45;headlabel"><a xlink:href="dir_000029_000000.html" target="_top" xlink:title="3">
<text text-anchor="middle" x="494.58" y="-25.23" font-family="Helvetica,sans-Serif" font-size="10.00">3</text>
</a>
</g>
</g>
<!-- dir_204260ac86670e69c647eaba8962e745 -->
<g id="node13" class="node">
<title>dir_204260ac86670e69c647eaba8962e745</title>
<g id="a_node13"><a xlink:href="dir_204260ac86670e69c647eaba8962e745.html" target="_top" xlink:title="Scene">
<polygon fill="white" stroke="black" points="214,-108 160,-108 160,-72 214,-72 214,-108"/>
<text text-anchor="middle" x="187" y="-87.5" font-family="Helvetica,sans-Serif" font-size="10.00">Scene</text>
</a>
</g>
</g>
<!-- dir_204260ac86670e69c647eaba8962e745&#45;&gt;dir_09e761304027c904456130627fd4dcf5 -->
<g id="edge12" class="edge">
<title>dir_204260ac86670e69c647eaba8962e745&#45;&gt;dir_09e761304027c904456130627fd4dcf5</title>
<path fill="none" stroke="black" d="M208.16,-71.93C212.82,-68.86 217.9,-66.01 223,-64 316.91,-27.02 437.44,-19.97 497.5,-18.91"/>
<polygon fill="black" stroke="black" points="497.69,-22.41 507.64,-18.78 497.6,-15.41 497.69,-22.41"/>
<g id="a_edge12&#45;headlabel"><a xlink:href="dir_000030_000000.html" target="_top" xlink:title="7">
<text text-anchor="middle" x="494.13" y="-22.8" font-family="Helvetica,sans-Serif" font-size="10.00">7</text>
</a>
</g>
</g>
<!-- dir_64cece8721923da8192b70f373152c4b -->
<g id="node14" class="node">
<title>dir_64cece8721923da8192b70f373152c4b</title>
<g id="a_node14"><a xlink:href="dir_64cece8721923da8192b70f373152c4b.html" target="_top" xlink:title="Texture">
<polygon fill="white" stroke="black" points="142,-108 88,-108 88,-72 142,-72 142,-108"/>
<text text-anchor="middle" x="115" y="-87.5" font-family="Helvetica,sans-Serif" font-size="10.00">Texture</text>
</a>
</g>
</g>
<!-- dir_64cece8721923da8192b70f373152c4b&#45;&gt;dir_09e761304027c904456130627fd4dcf5 -->
<g id="edge8" class="edge">
<title>dir_64cece8721923da8192b70f373152c4b&#45;&gt;dir_09e761304027c904456130627fd4dcf5</title>
<path fill="none" stroke="black" d="M136.12,-71.83C140.79,-68.77 145.88,-65.94 151,-64 213.99,-40.16 414.17,-26.05 497.76,-21.06"/>
<polygon fill="black" stroke="black" points="498.05,-24.55 507.83,-20.47 497.64,-17.56 498.05,-24.55"/>
<g id="a_edge8&#45;headlabel"><a xlink:href="dir_000031_000000.html" target="_top" xlink:title="5">
<text text-anchor="middle" x="494.63" y="-25.09" font-family="Helvetica,sans-Serif" font-size="10.00">5</text>
</a>
</g>
</g>
<!-- dir_6acd24eea7f3fe579df422711269a2fc -->
<g id="node15" class="node">
<title>dir_6acd24eea7f3fe579df422711269a2fc</title>
<g id="a_node15"><a xlink:href="dir_6acd24eea7f3fe579df422711269a2fc.html" target="_top" xlink:title="Timer">
<polygon fill="white" stroke="black" points="70,-108 16,-108 16,-72 70,-72 70,-108"/>
<text text-anchor="middle" x="43" y="-87.5" font-family="Helvetica,sans-Serif" font-size="10.00">Timer</text>
</a>
</g>
</g>
<!-- dir_6acd24eea7f3fe579df422711269a2fc&#45;&gt;dir_09e761304027c904456130627fd4dcf5 -->
<g id="edge6" class="edge">
<title>dir_6acd24eea7f3fe579df422711269a2fc&#45;&gt;dir_09e761304027c904456130627fd4dcf5</title>
<path fill="none" stroke="black" d="M64.09,-71.75C68.76,-68.7 73.86,-65.89 79,-64 155.65,-35.79 402.71,-23.88 497.5,-20.28"/>
<polygon fill="black" stroke="black" points="497.89,-23.76 507.76,-19.89 497.63,-16.77 497.89,-23.76"/>
<g id="a_edge6&#45;headlabel"><a xlink:href="dir_000032_000000.html" target="_top" xlink:title="3">
<text text-anchor="middle" x="494.41" y="-24.23" font-family="Helvetica,sans-Serif" font-size="10.00">3</text>
</a>
</g>
</g>
</g>
</svg>
        <g id="navigator" transform="translate(0 0)" fill="#404254">
                <rect fill="#f2f5e9" fill-opacity="0.5" stroke="#606060" stroke-width=".5" x="0" y="0" width="60" height="60"/>
                <use id="zoomplus" xlink:href="#zoomPlus" x="17" y="9" onmousedown="handleZoom(evt,'in')"/>
                <use id="zoomminus" xlink:href="#zoomMin" x="42" y="9" onmousedown="handleZoom(evt,'out')"/>
                <use id="reset" xlink:href="#resetDef" x="30" y="36" onmousedown="handleReset()"/>
                <g id="arrowUp" xlink:href="#dirArrow" transform="translate(30 24)" onmousedown="handlePan(0,-1)">
                  <use xlink:href="#rim" fill="#404040">
                        <set attributeName="fill" to="#808080" begin="arrowUp.mouseover" end="arrowUp.mouseout"/>
                  </use>
                  <path fill="none" stroke="white" stroke-width="1.5" d="M0,-3.0v7 M-2.5,-0.5L0,-3.0L2.5,-0.5"/>
                </g>
                <g id="arrowRight" xlink:href="#dirArrow" transform="rotate(90) translate(36 -43)" onmousedown="handlePan(1,0)">
                  <use xlink:href="#rim" fill="#404040">
                        <set attributeName="fill" to="#808080" begin="arrowRight.mouseover" end="arrowRight.mouseout"/>
                  </use>
                  <path fill="none" stroke="white" stroke-width="1.5" d="M0,-3.0v7 M-2.5,-0.5L0,-3.0L2.5,-0.5"/>
                </g>
                <g id="arrowDown" xlink:href="#dirArrow" transform="rotate(180) translate(-30 -48)" onmousedown="handlePan(0,1)">
                  <use xlink:href="#rim" fill="#404040">
                        <set attributeName="fill" to="#808080" begin="arrowDown.mouseover" end="arrowDown.mouseout"/>
                  </use>
                  <path fill="none" stroke="white" stroke-width="1.5" d="M0,-3.0v7 M-2.5,-0.5L0,-3.0L2.5,-0.5"/>
                </g>
                <g id="arrowLeft" xlink:href="#dirArrow" transform="rotate(270) translate(-36 17)" onmousedown="handlePan(-1,0)">
                  <use xlink:href="#rim" fill="#404040">
                        <set attributeName="fill" to="#808080" begin="arrowLeft.mouseover" end="arrowLeft.mouseout"/>
                  </use>
                  <path fill="none" stroke="white" stroke-width="1.5" d="M0,-3.0v7 M-2.5,-0.5L0,-3.0L2.5,-0.5"/>
                </g>
        </g>
        <svg viewBox="0 0 15 15" width="100%" height="30px" preserveAspectRatio="xMaxYMin meet">
         <g id="arrow_out" transform="scale(0.3 0.3)">
          <a xlink:href="dir_68267d1309a1af8e8297ef4c3efbcdba_dep_org.svg" target="_base">
           <rect id="button" ry="5" rx="5" y="6" x="6" height="38" width="38"
                fill="#f2f5e9" fill-opacity="0.5" stroke="#606060" stroke-width="1.0"/>
           <path id="arrow"
             d="M 11.500037,31.436501 C 11.940474,20.09759 22.043105,11.32322 32.158766,21.979434 L 37.068811,17.246167 C 37.068811,17.246167 37.088388,32 37.088388,32 L 22.160133,31.978069 C 22.160133,31.978069 26.997745,27.140456 26.997745,27.140456 C 18.528582,18.264221 13.291696,25.230495 11.500037,31.436501 z"
             style="fill:#404040;"/>
          </a>
         </g>
        </svg>
</svg>
