<?xml version="1.0" encoding="UTF-8" standalone="no"?>
<!DOCTYPE svg PUBLIC "-//W3C//DTD SVG 1.1//EN"
 "http://www.w3.org/Graphics/SVG/1.1/DTD/svg11.dtd">
<!-- Generated by graphviz version 2.44.0 ()
 -->
<!-- Title: includes/platformer&#45;engine/Engine Pages: 1 -->
<svg width="252pt" height="167pt"
 viewBox="0.00 0.00 252.00 167.00" xmlns="http://www.w3.org/2000/svg" xmlns:xlink="http://www.w3.org/1999/xlink">
<g id="graph0" class="graph" transform="scale(1 1) rotate(0) translate(4 163)">
<title>includes/platformer&#45;engine/Engine</title>
<g id="clust1" class="cluster">
<title>clusterdir_1587a151464512ea3626aba36cd93a86</title>
<g id="a_clust1"><a xlink:href="dir_1587a151464512ea3626aba36cd93a86.html" target="_top" xlink:title="platformer&#45;engine">
<polygon fill="#ddddee" stroke="black" points="8,-8 8,-151 236,-151 236,-8 8,-8"/>
<text text-anchor="middle" x="122" y="-139" font-family="Helvetica,sans-Serif" font-size="10.00">platformer&#45;engine</text>
</a>
</g>
</g>
<!-- dir_123f1f7ecbbeeb7ce6bbb34d36fe9b6f -->
<g id="node1" class="node">
<title>dir_123f1f7ecbbeeb7ce6bbb34d36fe9b6f</title>
<g id="a_node1"><a xlink:href="dir_123f1f7ecbbeeb7ce6bbb34d36fe9b6f.html" target="_top" xlink:title="Timer">
<polygon fill="none" stroke="black" points="70,-52 16,-52 16,-16 70,-16 70,-52"/>
<text text-anchor="middle" x="43" y="-31.5" font-family="Helvetica,sans-Serif" font-size="10.00">Timer</text>
</a>
</g>
</g>
<!-- dir_aa66564905a6f376a034b306e4a9b039 -->
<g id="node2" class="node">
<title>dir_aa66564905a6f376a034b306e4a9b039</title>
<g id="a_node2"><a xlink:href="dir_aa66564905a6f376a034b306e4a9b039.html" target="_top" xlink:title="GameLevel">
<polygon fill="none" stroke="black" points="155.5,-52 88.5,-52 88.5,-16 155.5,-16 155.5,-52"/>
<text text-anchor="middle" x="122" y="-31.5" font-family="Helvetica,sans-Serif" font-size="10.00">GameLevel</text>
</a>
</g>
</g>
<!-- dir_dee7b2cf51f0719d61c9bcb7f2f06001 -->
<g id="node3" class="node">
<title>dir_dee7b2cf51f0719d61c9bcb7f2f06001</title>
<g id="a_node3"><a xlink:href="dir_dee7b2cf51f0719d61c9bcb7f2f06001.html" target="_top" xlink:title="Render">
<polygon fill="none" stroke="black" points="228,-52 174,-52 174,-16 228,-16 228,-52"/>
<text text-anchor="middle" x="201" y="-31.5" font-family="Helvetica,sans-Serif" font-size="10.00">Render</text>
</a>
</g>
</g>
<!-- dir_255073caeab54e3c715574845ba4b898 -->
<g id="node4" class="node">
<title>dir_255073caeab54e3c715574845ba4b898</title>
<g id="a_node4"><a xlink:href="dir_255073caeab54e3c715574845ba4b898.html" target="_top" xlink:title="Engine">
<polygon fill="#eeeeff" stroke="black" points="149,-124 95,-124 95,-88 149,-88 149,-124"/>
<text text-anchor="middle" x="122" y="-103.5" font-family="Helvetica,sans-Serif" font-size="10.00">Engine</text>
</a>
</g>
</g>
<!-- dir_255073caeab54e3c715574845ba4b898&#45;&gt;dir_123f1f7ecbbeeb7ce6bbb34d36fe9b6f -->
<g id="edge1" class="edge">
<title>dir_255073caeab54e3c715574845ba4b898&#45;&gt;dir_123f1f7ecbbeeb7ce6bbb34d36fe9b6f</title>
<path fill="none" stroke="black" d="M102.47,-87.7C92.62,-78.97 80.51,-68.24 69.8,-58.75"/>
<polygon fill="black" stroke="black" points="72.11,-56.12 62.3,-52.1 67.47,-61.36 72.11,-56.12"/>
<g id="a_edge1&#45;headlabel"><a xlink:href="dir_000003_000009.html" target="_top" xlink:title="1">
<text text-anchor="middle" x="76.68" y="-53.88" font-family="Helvetica,sans-Serif" font-size="10.00">1</text>
</a>
</g>
</g>
<!-- dir_255073caeab54e3c715574845ba4b898&#45;&gt;dir_aa66564905a6f376a034b306e4a9b039 -->
<g id="edge2" class="edge">
<title>dir_255073caeab54e3c715574845ba4b898&#45;&gt;dir_aa66564905a6f376a034b306e4a9b039</title>
<path fill="none" stroke="black" d="M122,-87.7C122,-79.98 122,-70.71 122,-62.11"/>
<polygon fill="black" stroke="black" points="125.5,-62.1 122,-52.1 118.5,-62.1 125.5,-62.1"/>
<g id="a_edge2&#45;headlabel"><a xlink:href="dir_000003_000005.html" target="_top" xlink:title="1">
<text text-anchor="middle" x="128.34" y="-63.2" font-family="Helvetica,sans-Serif" font-size="10.00">1</text>
</a>
</g>
</g>
<!-- dir_255073caeab54e3c715574845ba4b898&#45;&gt;dir_dee7b2cf51f0719d61c9bcb7f2f06001 -->
<g id="edge3" class="edge">
<title>dir_255073caeab54e3c715574845ba4b898&#45;&gt;dir_dee7b2cf51f0719d61c9bcb7f2f06001</title>
<path fill="none" stroke="black" d="M141.53,-87.7C151.38,-78.97 163.49,-68.24 174.2,-58.75"/>
<polygon fill="black" stroke="black" points="176.53,-61.36 181.7,-52.1 171.89,-56.12 176.53,-61.36"/>
<g id="a_edge3&#45;headlabel"><a xlink:href="dir_000003_000007.html" target="_top" xlink:title="1">
<text text-anchor="middle" x="175.73" y="-63.36" font-family="Helvetica,sans-Serif" font-size="10.00">1</text>
</a>
</g>
</g>
</g>
</svg>
