<?xml version="1.0" encoding="UTF-8" standalone="no"?>
<!DOCTYPE svg PUBLIC "-//W3C//DTD SVG 1.1//EN"
 "http://www.w3.org/Graphics/SVG/1.1/DTD/svg11.dtd">
<!-- Generated by graphviz version 2.44.0 ()
 -->
<!-- Title: includes/platformer&#45;engine/Networking/PackedObjects Pages: 1 -->
<svg width="178pt" height="167pt"
 viewBox="0.00 0.00 178.00 167.00" xmlns="http://www.w3.org/2000/svg" xmlns:xlink="http://www.w3.org/1999/xlink">
<g id="graph0" class="graph" transform="scale(1 1) rotate(0) translate(4 163)">
<title>includes/platformer&#45;engine/Networking/PackedObjects</title>
<g id="clust1" class="cluster">
<title>clusterdir_eb4af4e99dee9ee973ff499f28504984</title>
<g id="a_clust1"><a xlink:href="dir_eb4af4e99dee9ee973ff499f28504984.html" target="_top" xlink:title="Networking">
<polygon fill="#ddddee" stroke="black" points="8,-8 8,-151 108,-151 108,-8 8,-8"/>
<text text-anchor="middle" x="58" y="-139" font-family="Helvetica,sans-Serif" font-size="10.00">Networking</text>
</a>
</g>
</g>
<!-- dir_58fb91fe3a33ed7c3d11c975b7bd78ba -->
<g id="node1" class="node">
<title>dir_58fb91fe3a33ed7c3d11c975b7bd78ba</title>
<g id="a_node1"><a xlink:href="dir_58fb91fe3a33ed7c3d11c975b7bd78ba.html" target="_top" xlink:title="boost">
<polygon fill="none" stroke="black" points="85,-52 31,-52 31,-16 85,-16 85,-52"/>
<text text-anchor="middle" x="58" y="-31.5" font-family="Helvetica,sans-Serif" font-size="10.00">boost</text>
</a>
</g>
</g>
<!-- dir_0104f74ac2f7f8541b2457e8f4295e86 -->
<g id="node2" class="node">
<title>dir_0104f74ac2f7f8541b2457e8f4295e86</title>
<g id="a_node2"><a xlink:href="dir_0104f74ac2f7f8541b2457e8f4295e86.html" target="_top" xlink:title="PackedObjects">
<polygon fill="#eeeeff" stroke="black" points="99.5,-124 16.5,-124 16.5,-88 99.5,-88 99.5,-124"/>
<text text-anchor="middle" x="58" y="-103.5" font-family="Helvetica,sans-Serif" font-size="10.00">PackedObjects</text>
</a>
</g>
</g>
<!-- dir_0104f74ac2f7f8541b2457e8f4295e86&#45;&gt;dir_58fb91fe3a33ed7c3d11c975b7bd78ba -->
<g id="edge2" class="edge">
<title>dir_0104f74ac2f7f8541b2457e8f4295e86&#45;&gt;dir_58fb91fe3a33ed7c3d11c975b7bd78ba</title>
<path fill="none" stroke="black" d="M58,-87.7C58,-79.98 58,-70.71 58,-62.11"/>
<polygon fill="black" stroke="black" points="61.5,-62.1 58,-52.1 54.5,-62.1 61.5,-62.1"/>
<g id="a_edge2&#45;headlabel"><a xlink:href="dir_000014_000013.html" target="_top" xlink:title="2">
<text text-anchor="middle" x="64.34" y="-63.2" font-family="Helvetica,sans-Serif" font-size="10.00">2</text>
</a>
</g>
</g>
<!-- dir_366a47d27432147542e5f7548d7df575 -->
<g id="node3" class="node">
<title>dir_366a47d27432147542e5f7548d7df575</title>
<g id="a_node3"><a xlink:href="dir_366a47d27432147542e5f7548d7df575.html" target="_top" xlink:title="Texture">
<polygon fill="none" stroke="black" points="170,-52 116,-52 116,-16 170,-16 170,-52"/>
<text text-anchor="middle" x="143" y="-31.5" font-family="Helvetica,sans-Serif" font-size="10.00">Texture</text>
</a>
</g>
</g>
<!-- dir_0104f74ac2f7f8541b2457e8f4295e86&#45;&gt;dir_366a47d27432147542e5f7548d7df575 -->
<g id="edge1" class="edge">
<title>dir_0104f74ac2f7f8541b2457e8f4295e86&#45;&gt;dir_366a47d27432147542e5f7548d7df575</title>
<path fill="none" stroke="black" d="M79.01,-87.7C89.72,-78.88 102.89,-68.03 114.5,-58.47"/>
<polygon fill="black" stroke="black" points="116.74,-61.16 122.23,-52.1 112.29,-55.76 116.74,-61.16"/>
<g id="a_edge1&#45;headlabel"><a xlink:href="dir_000014_000020.html" target="_top" xlink:title="1">
<text text-anchor="middle" x="115.77" y="-63.14" font-family="Helvetica,sans-Serif" font-size="10.00">1</text>
</a>
</g>
</g>
</g>
</svg>
