<?xml version="1.0" encoding="UTF-8" standalone="no"?>
<!DOCTYPE svg PUBLIC "-//W3C//DTD SVG 1.1//EN"
 "http://www.w3.org/Graphics/SVG/1.1/DTD/svg11.dtd">
<!-- Generated by graphviz version 2.44.0 ()
 -->
<!-- Title: includes/platformer&#45;engine/Behaviour Pages: 1 -->
<svg width="232pt" height="167pt"
 viewBox="0.00 0.00 232.00 167.00" xmlns="http://www.w3.org/2000/svg" xmlns:xlink="http://www.w3.org/1999/xlink">
<g id="graph0" class="graph" transform="scale(1 1) rotate(0) translate(4 163)">
<title>includes/platformer&#45;engine/Behaviour</title>
<g id="clust1" class="cluster">
<title>clusterdir_1587a151464512ea3626aba36cd93a86</title>
<g id="a_clust1"><a xlink:href="dir_1587a151464512ea3626aba36cd93a86.html" target="_top" xlink:title="platformer&#45;engine">
<polygon fill="#ddddee" stroke="black" points="8,-8 8,-151 150,-151 150,-8 8,-8"/>
<text text-anchor="middle" x="79" y="-139" font-family="Helvetica,sans-Serif" font-size="10.00">platformer&#45;engine</text>
</a>
</g>
</g>
<!-- dir_2c92a674004dfb15c669cf5abeb55170 -->
<g id="node1" class="node">
<title>dir_2c92a674004dfb15c669cf5abeb55170</title>
<g id="a_node1"><a xlink:href="dir_2c92a674004dfb15c669cf5abeb55170.html" target="_top" xlink:title="System">
<polygon fill="none" stroke="black" points="70,-52 16,-52 16,-16 70,-16 70,-52"/>
<text text-anchor="middle" x="43" y="-31.5" font-family="Helvetica,sans-Serif" font-size="10.00">System</text>
</a>
</g>
</g>
<!-- dir_87059d60c7dfcd3dc8f50ab725effb95 -->
<g id="node2" class="node">
<title>dir_87059d60c7dfcd3dc8f50ab725effb95</title>
<g id="a_node2"><a xlink:href="dir_87059d60c7dfcd3dc8f50ab725effb95.html" target="_top" xlink:title="Utility">
<polygon fill="none" stroke="black" points="142,-52 88,-52 88,-16 142,-16 142,-52"/>
<text text-anchor="middle" x="115" y="-31.5" font-family="Helvetica,sans-Serif" font-size="10.00">Utility</text>
</a>
</g>
</g>
<!-- dir_ad5ef619f038a25d047111bf855feef3 -->
<g id="node3" class="node">
<title>dir_ad5ef619f038a25d047111bf855feef3</title>
<g id="a_node3"><a xlink:href="dir_ad5ef619f038a25d047111bf855feef3.html" target="_top" xlink:title="Behaviour">
<polygon fill="#eeeeff" stroke="black" points="142,-124 82,-124 82,-88 142,-88 142,-124"/>
<text text-anchor="middle" x="112" y="-103.5" font-family="Helvetica,sans-Serif" font-size="10.00">Behaviour</text>
</a>
</g>
</g>
<!-- dir_ad5ef619f038a25d047111bf855feef3&#45;&gt;dir_2c92a674004dfb15c669cf5abeb55170 -->
<g id="edge1" class="edge">
<title>dir_ad5ef619f038a25d047111bf855feef3&#45;&gt;dir_2c92a674004dfb15c669cf5abeb55170</title>
<path fill="none" stroke="black" d="M94.94,-87.7C86.5,-79.14 76.18,-68.66 66.96,-59.3"/>
<polygon fill="black" stroke="black" points="69.37,-56.77 59.86,-52.1 64.39,-61.68 69.37,-56.77"/>
<g id="a_edge1&#45;headlabel"><a xlink:href="dir_000003_000019.html" target="_top" xlink:title="1">
<text text-anchor="middle" x="73.92" y="-54.84" font-family="Helvetica,sans-Serif" font-size="10.00">1</text>
</a>
</g>
</g>
<!-- dir_ad5ef619f038a25d047111bf855feef3&#45;&gt;dir_87059d60c7dfcd3dc8f50ab725effb95 -->
<g id="edge2" class="edge">
<title>dir_ad5ef619f038a25d047111bf855feef3&#45;&gt;dir_87059d60c7dfcd3dc8f50ab725effb95</title>
<path fill="none" stroke="black" d="M112.74,-87.7C113.07,-79.98 113.47,-70.71 113.84,-62.11"/>
<polygon fill="black" stroke="black" points="117.34,-62.25 114.27,-52.1 110.34,-61.95 117.34,-62.25"/>
<g id="a_edge2&#45;headlabel"><a xlink:href="dir_000003_000023.html" target="_top" xlink:title="1">
<text text-anchor="middle" x="120.02" y="-63.46" font-family="Helvetica,sans-Serif" font-size="10.00">1</text>
</a>
</g>
</g>
<!-- dir_de77370fa4c160312bb88f5d1919228b -->
<g id="node4" class="node">
<title>dir_de77370fa4c160312bb88f5d1919228b</title>
<g id="a_node4"><a xlink:href="dir_de77370fa4c160312bb88f5d1919228b.html" target="_top" xlink:title="spic&#45;prj&#45;api">
<polygon fill="none" stroke="black" points="224,-52 160,-52 160,-16 224,-16 224,-52"/>
<text text-anchor="middle" x="192" y="-31.5" font-family="Helvetica,sans-Serif" font-size="10.00">spic&#45;prj&#45;api</text>
</a>
</g>
</g>
<!-- dir_ad5ef619f038a25d047111bf855feef3&#45;&gt;dir_de77370fa4c160312bb88f5d1919228b -->
<g id="edge3" class="edge">
<title>dir_ad5ef619f038a25d047111bf855feef3&#45;&gt;dir_de77370fa4c160312bb88f5d1919228b</title>
<path fill="none" stroke="black" d="M131.78,-87.7C141.75,-78.97 154.01,-68.24 164.86,-58.75"/>
<polygon fill="black" stroke="black" points="167.23,-61.32 172.45,-52.1 162.62,-56.06 167.23,-61.32"/>
<g id="a_edge3&#45;headlabel"><a xlink:href="dir_000003_000024.html" target="_top" xlink:title="3">
<text text-anchor="middle" x="166.4" y="-63.33" font-family="Helvetica,sans-Serif" font-size="10.00">3</text>
</a>
</g>
</g>
</g>
</svg>
