<?xml version="1.0" encoding="UTF-8" standalone="no"?>
<!DOCTYPE svg PUBLIC "-//W3C//DTD SVG 1.1//EN"
 "http://www.w3.org/Graphics/SVG/1.1/DTD/svg11.dtd">
<!-- Generated by graphviz version 2.44.0 ()
 -->
<!-- Title: src Pages: 1 -->
<svg width="598pt" height="132pt"
 viewBox="0.00 0.00 598.00 132.00" xmlns="http://www.w3.org/2000/svg" xmlns:xlink="http://www.w3.org/1999/xlink">
<g id="graph0" class="graph" transform="scale(1 1) rotate(0) translate(4 128)">
<title>src</title>
<g id="clust1" class="cluster">
<title>clusterdir_68267d1309a1af8e8297ef4c3efbcdba</title>
<g id="a_clust1"><a xlink:href="dir_68267d1309a1af8e8297ef4c3efbcdba.html" target="_top">
<polygon fill="#eeeeff" stroke="black" points="8,-64 8,-116 582,-116 582,-64 8,-64"/>
</a>
</g>
</g>
<!-- dir_68267d1309a1af8e8297ef4c3efbcdba -->
<g id="node1" class="node">
<title>dir_68267d1309a1af8e8297ef4c3efbcdba</title>
<text text-anchor="middle" x="547" y="-87.5" font-family="Helvetica,sans-Serif" font-size="10.00">src</text>
</g>
<!-- dir_32137984f496da46263d816e0d6dc804 -->
<g id="node2" class="node">
<title>dir_32137984f496da46263d816e0d6dc804</title>
<g id="a_node2"><a xlink:href="dir_32137984f496da46263d816e0d6dc804.html" target="_top" xlink:title="API">
<polygon fill="white" stroke="black" points="502,-108 448,-108 448,-72 502,-72 502,-108"/>
<text text-anchor="middle" x="475" y="-87.5" font-family="Helvetica,sans-Serif" font-size="10.00">API</text>
</a>
</g>
</g>
<!-- dir_09e761304027c904456130627fd4dcf5 -->
<g id="node9" class="node">
<title>dir_09e761304027c904456130627fd4dcf5</title>
<g id="a_node9"><a xlink:href="dir_09e761304027c904456130627fd4dcf5.html" target="_top" xlink:title="includes">
<polygon fill="none" stroke="red" points="286,-36 232,-36 232,0 286,0 286,-36"/>
<text text-anchor="middle" x="259" y="-15.5" font-family="Helvetica,sans-Serif" font-size="10.00">includes</text>
</a>
</g>
</g>
<!-- dir_32137984f496da46263d816e0d6dc804&#45;&gt;dir_09e761304027c904456130627fd4dcf5 -->
<g id="edge7" class="edge">
<title>dir_32137984f496da46263d816e0d6dc804&#45;&gt;dir_09e761304027c904456130627fd4dcf5</title>
<path fill="none" stroke="black" d="M452.89,-71.81C448.46,-68.9 443.71,-66.14 439,-64 392.08,-42.71 333.52,-30.46 296.18,-24.26"/>
<polygon fill="black" stroke="black" points="296.67,-20.79 286.24,-22.67 295.56,-27.7 296.67,-20.79"/>
<g id="a_edge7&#45;headlabel"><a xlink:href="dir_000010_000000.html" target="_top" xlink:title="1">
<text text-anchor="middle" x="300.67" y="-16.06" font-family="Helvetica,sans-Serif" font-size="10.00">1</text>
</a>
</g>
</g>
<!-- dir_96711deda0d7ee481a09206bc6c79536 -->
<g id="node3" class="node">
<title>dir_96711deda0d7ee481a09206bc6c79536</title>
<g id="a_node3"><a xlink:href="dir_96711deda0d7ee481a09206bc6c79536.html" target="_top" xlink:title="Builder">
<polygon fill="white" stroke="black" points="430,-108 376,-108 376,-72 430,-72 430,-108"/>
<text text-anchor="middle" x="403" y="-87.5" font-family="Helvetica,sans-Serif" font-size="10.00">Builder</text>
</a>
</g>
</g>
<!-- dir_96711deda0d7ee481a09206bc6c79536&#45;&gt;dir_09e761304027c904456130627fd4dcf5 -->
<g id="edge2" class="edge">
<title>dir_96711deda0d7ee481a09206bc6c79536&#45;&gt;dir_09e761304027c904456130627fd4dcf5</title>
<path fill="none" stroke="black" d="M379.83,-71.85C375.66,-69.07 371.27,-66.34 367,-64 344.24,-51.54 317.29,-40.31 296.01,-32.18"/>
<polygon fill="black" stroke="black" points="296.96,-28.8 286.37,-28.56 294.5,-35.35 296.96,-28.8"/>
<g id="a_edge2&#45;headlabel"><a xlink:href="dir_000011_000000.html" target="_top" xlink:title="1">
<text text-anchor="middle" x="301.32" y="-24.9" font-family="Helvetica,sans-Serif" font-size="10.00">1</text>
</a>
</g>
</g>
<!-- dir_3624c3011e0f2f30fa93f2c3df0f9e35 -->
<g id="node4" class="node">
<title>dir_3624c3011e0f2f30fa93f2c3df0f9e35</title>
<g id="a_node4"><a xlink:href="dir_3624c3011e0f2f30fa93f2c3df0f9e35.html" target="_top" xlink:title="Debug">
<polygon fill="white" stroke="black" points="358,-108 304,-108 304,-72 358,-72 358,-108"/>
<text text-anchor="middle" x="331" y="-87.5" font-family="Helvetica,sans-Serif" font-size="10.00">Debug</text>
</a>
</g>
</g>
<!-- dir_3624c3011e0f2f30fa93f2c3df0f9e35&#45;&gt;dir_09e761304027c904456130627fd4dcf5 -->
<g id="edge1" class="edge">
<title>dir_3624c3011e0f2f30fa93f2c3df0f9e35&#45;&gt;dir_09e761304027c904456130627fd4dcf5</title>
<path fill="none" stroke="black" d="M313.2,-71.7C304.4,-63.14 293.62,-52.66 284,-43.3"/>
<polygon fill="black" stroke="black" points="286.2,-40.57 276.59,-36.1 281.32,-45.58 286.2,-40.57"/>
<g id="a_edge1&#45;headlabel"><a xlink:href="dir_000012_000000.html" target="_top" xlink:title="1">
<text text-anchor="middle" x="290.76" y="-38.54" font-family="Helvetica,sans-Serif" font-size="10.00">1</text>
</a>
</g>
</g>
<!-- dir_3072bc1f55ed1280fe4fbe6b21c78379 -->
<g id="node5" class="node">
<title>dir_3072bc1f55ed1280fe4fbe6b21c78379</title>
<g id="a_node5"><a xlink:href="dir_3072bc1f55ed1280fe4fbe6b21c78379.html" target="_top" xlink:title="Engine">
<polygon fill="white" stroke="black" points="286,-108 232,-108 232,-72 286,-72 286,-108"/>
<text text-anchor="middle" x="259" y="-87.5" font-family="Helvetica,sans-Serif" font-size="10.00">Engine</text>
</a>
</g>
</g>
<!-- dir_3072bc1f55ed1280fe4fbe6b21c78379&#45;&gt;dir_09e761304027c904456130627fd4dcf5 -->
<g id="edge6" class="edge">
<title>dir_3072bc1f55ed1280fe4fbe6b21c78379&#45;&gt;dir_09e761304027c904456130627fd4dcf5</title>
<path fill="none" stroke="black" d="M259,-71.7C259,-63.98 259,-54.71 259,-46.11"/>
<polygon fill="black" stroke="black" points="262.5,-46.1 259,-36.1 255.5,-46.1 262.5,-46.1"/>
<g id="a_edge6&#45;headlabel"><a xlink:href="dir_000013_000000.html" target="_top" xlink:title="1">
<text text-anchor="middle" x="265.34" y="-47.2" font-family="Helvetica,sans-Serif" font-size="10.00">1</text>
</a>
</g>
</g>
<!-- dir_f9ab0b6dc9229052dbade29aa876c209 -->
<g id="node6" class="node">
<title>dir_f9ab0b6dc9229052dbade29aa876c209</title>
<g id="a_node6"><a xlink:href="dir_f9ab0b6dc9229052dbade29aa876c209.html" target="_top" xlink:title="Facade">
<polygon fill="white" stroke="black" points="214,-108 160,-108 160,-72 214,-72 214,-108"/>
<text text-anchor="middle" x="187" y="-87.5" font-family="Helvetica,sans-Serif" font-size="10.00">Facade</text>
</a>
</g>
</g>
<!-- dir_f9ab0b6dc9229052dbade29aa876c209&#45;&gt;dir_09e761304027c904456130627fd4dcf5 -->
<g id="edge3" class="edge">
<title>dir_f9ab0b6dc9229052dbade29aa876c209&#45;&gt;dir_09e761304027c904456130627fd4dcf5</title>
<path fill="none" stroke="black" d="M204.8,-71.7C213.6,-63.14 224.38,-52.66 234,-43.3"/>
<polygon fill="black" stroke="black" points="236.68,-45.58 241.41,-36.1 231.8,-40.57 236.68,-45.58"/>
<g id="a_edge3&#45;headlabel"><a xlink:href="dir_000014_000000.html" target="_top" xlink:title="2">
<text text-anchor="middle" x="236.08" y="-47.63" font-family="Helvetica,sans-Serif" font-size="10.00">2</text>
</a>
</g>
</g>
<!-- dir_4c7ee98193a6cba0af9aae7f963a60da -->
<g id="node7" class="node">
<title>dir_4c7ee98193a6cba0af9aae7f963a60da</title>
<g id="a_node7"><a xlink:href="dir_4c7ee98193a6cba0af9aae7f963a60da.html" target="_top" xlink:title="Render">
<polygon fill="white" stroke="black" points="142,-108 88,-108 88,-72 142,-72 142,-108"/>
<text text-anchor="middle" x="115" y="-87.5" font-family="Helvetica,sans-Serif" font-size="10.00">Render</text>
</a>
</g>
</g>
<!-- dir_4c7ee98193a6cba0af9aae7f963a60da&#45;&gt;dir_09e761304027c904456130627fd4dcf5 -->
<g id="edge5" class="edge">
<title>dir_4c7ee98193a6cba0af9aae7f963a60da&#45;&gt;dir_09e761304027c904456130627fd4dcf5</title>
<path fill="none" stroke="black" d="M138.17,-71.85C142.34,-69.07 146.73,-66.34 151,-64 173.76,-51.54 200.71,-40.31 221.99,-32.18"/>
<polygon fill="black" stroke="black" points="223.5,-35.35 231.63,-28.56 221.04,-28.8 223.5,-35.35"/>
<g id="a_edge5&#45;headlabel"><a xlink:href="dir_000015_000000.html" target="_top" xlink:title="1">
<text text-anchor="middle" x="221.13" y="-36.77" font-family="Helvetica,sans-Serif" font-size="10.00">1</text>
</a>
</g>
</g>
<!-- dir_6acd24eea7f3fe579df422711269a2fc -->
<g id="node8" class="node">
<title>dir_6acd24eea7f3fe579df422711269a2fc</title>
<g id="a_node8"><a xlink:href="dir_6acd24eea7f3fe579df422711269a2fc.html" target="_top" xlink:title="Timer">
<polygon fill="white" stroke="black" points="70,-108 16,-108 16,-72 70,-72 70,-108"/>
<text text-anchor="middle" x="43" y="-87.5" font-family="Helvetica,sans-Serif" font-size="10.00">Timer</text>
</a>
</g>
</g>
<!-- dir_6acd24eea7f3fe579df422711269a2fc&#45;&gt;dir_09e761304027c904456130627fd4dcf5 -->
<g id="edge4" class="edge">
<title>dir_6acd24eea7f3fe579df422711269a2fc&#45;&gt;dir_09e761304027c904456130627fd4dcf5</title>
<path fill="none" stroke="black" d="M65.11,-71.81C69.54,-68.9 74.29,-66.14 79,-64 125.92,-42.71 184.48,-30.46 221.82,-24.26"/>
<polygon fill="black" stroke="black" points="222.44,-27.7 231.76,-22.67 221.33,-20.79 222.44,-27.7"/>
<g id="a_edge4&#45;headlabel"><a xlink:href="dir_000016_000000.html" target="_top" xlink:title="3">
<text text-anchor="middle" x="219.34" y="-28.58" font-family="Helvetica,sans-Serif" font-size="10.00">3</text>
</a>
</g>
</g>
</g>
</svg>
