<svg xmlns="http://www.w3.org/2000/svg" xmlns:xlink="http://www.w3.org/1999/xlink" width="488" height="239pt" viewBox="0 0 366.29 239"><g id="graph0" class="graph" transform="scale(1 1) rotate(0) translate(4 235)"><title>includes/platformer-engine/Facade</title><g id="clust1" class="cluster"><title>clusterdir_1587a151464512ea3626aba36cd93a86</title><g id="a_clust1"><a target="_top" xlink:href="dir_1587a151464512ea3626aba36cd93a86.html" xlink:title="platformer-engine"><polygon fill="#dde" stroke="#000" points="88.29 -8 88.29 -223 350.29 -223 350.29 -8 88.29 -8"/><text x="219.29" y="-211" font-family="Helvetica,sans-Serif" font-size="10" text-anchor="middle">platformer-engine</text></a></g></g><g id="node1" class="node"><title>dir_28e29a0aa9a4f72dd894b881b26f9dfb</title><g id="a_node1"><a target="_top" xlink:href="dir_28e29a0aa9a4f72dd894b881b26f9dfb.html" xlink:title="LevelParser"><polygon fill="none" stroke="#000" points="165.79 -124 96.79 -124 96.79 -88 165.79 -88 165.79 -124"/><text x="131.29" y="-103.5" font-family="Helvetica,sans-Serif" font-size="10" text-anchor="middle">LevelParser</text></a></g></g><g id="node3" class="node"><title>dir_aa66564905a6f376a034b306e4a9b039</title><g id="a_node3"><a target="_top" xlink:href="dir_aa66564905a6f376a034b306e4a9b039.html" xlink:title="GameLevel"><polygon fill="none" stroke="#000" points="164.79 -52 97.79 -52 97.79 -16 164.79 -16 164.79 -52"/><text x="131.29" y="-31.5" font-family="Helvetica,sans-Serif" font-size="10" text-anchor="middle">GameLevel</text></a></g></g><g id="edge12" class="edge"><title>dir_28e29a0aa9a4f72dd894b881b26f9dfb-&gt;dir_aa66564905a6f376a034b306e4a9b039</title><path fill="none" stroke="#000" d="M131.29,-87.7C131.29,-79.98 131.29,-70.71 131.29,-62.11"/><polygon fill="#000" stroke="#000" points="134.79 -62.1 131.29 -52.1 127.79 -62.1 134.79 -62.1"/><g id="a_edge12-headlabel"><a target="_top" xlink:href="dir_000008_000007.html" xlink:title="2"><text x="137.63" y="-63.2" font-family="Helvetica,sans-Serif" font-size="10" text-anchor="middle">2</text></a></g></g><g id="node2" class="node"><title>dir_87059d60c7dfcd3dc8f50ab725effb95</title><g id="a_node2"><a target="_top" xlink:href="dir_87059d60c7dfcd3dc8f50ab725effb95.html" xlink:title="Utility"><polygon fill="none" stroke="#000" points="238.29 -124 184.29 -124 184.29 -88 238.29 -88 238.29 -124"/><text x="211.29" y="-103.5" font-family="Helvetica,sans-Serif" font-size="10" text-anchor="middle">Utility</text></a></g></g><g id="node4" class="node"><title>dir_eb4af4e99dee9ee973ff499f28504984</title><g id="a_node4"><a target="_top" xlink:href="dir_eb4af4e99dee9ee973ff499f28504984.html" xlink:title="Networking"><polygon fill="none" stroke="#000" points="322.29 -124 256.29 -124 256.29 -88 322.29 -88 322.29 -124"/><text x="289.29" y="-103.5" font-family="Helvetica,sans-Serif" font-size="10" text-anchor="middle">Networking</text></a></g></g><g id="node5" class="node"><title>dir_4ad73661ceecee2f59b8c0b0178f9787</title><g id="a_node5"><a target="_top" xlink:href="dir_4ad73661ceecee2f59b8c0b0178f9787.html" xlink:title="Facade"><polygon fill="#eef" stroke="#000" points="238.29 -196 184.29 -196 184.29 -160 238.29 -160 238.29 -196"/><text x="211.29" y="-175.5" font-family="Helvetica,sans-Serif" font-size="10" text-anchor="middle">Facade</text></a></g></g><g id="edge14" class="edge"><title>dir_eb4af4e99dee9ee973ff499f28504984-&gt;dir_4ad73661ceecee2f59b8c0b0178f9787</title><path fill="none" stroke="#000" d="M276.12,-124.1C267.34,-132.8 255.58,-143.52 244.44,-153.03"/><polygon fill="#000" stroke="#000" points="241.9 -150.59 236.48 -159.7 246.4 -155.96 241.9 -150.59"/><g id="a_edge14-headlabel"><a target="_top" xlink:href="dir_000009_000006.html" xlink:title="2"><text x="242.83" y="-143.61" font-family="Helvetica,sans-Serif" font-size="10" text-anchor="middle">2</text></a></g></g><g id="node6" class="node"><title>dir_68267d1309a1af8e8297ef4c3efbcdba</title><g id="a_node6"><a target="_top" xlink:href="dir_68267d1309a1af8e8297ef4c3efbcdba.html" xlink:title="src"><polygon fill="none" stroke="red" points="80.29 -196 26.29 -196 26.29 -160 80.29 -160 80.29 -196"/><text x="53.29" y="-175.5" font-family="Helvetica,sans-Serif" font-size="10" text-anchor="middle">src</text></a></g></g><g id="edge15" class="edge"><title>dir_eb4af4e99dee9ee973ff499f28504984-&gt;dir_68267d1309a1af8e8297ef4c3efbcdba</title><path fill="none" stroke="#000" d="M255.9,-117.77C250.02,-120.01 244,-122.23 238.29,-124 170.88,-144.92 147.06,-135 85.12,-156.45"/><polygon fill="#000" stroke="#000" points="83.91 -153.16 75.69 -159.85 86.29 -159.75 83.91 -153.16"/><g id="a_edge15-headlabel"><a target="_top" xlink:href="dir_000009_000016.html" xlink:title="1"><text x="86.33" y="-146.77" font-family="Helvetica,sans-Serif" font-size="10" text-anchor="middle">1</text></a></g></g><g id="node7" class="node"><title>dir_de77370fa4c160312bb88f5d1919228b</title><g id="a_node7"><a target="_top" xlink:href="dir_de77370fa4c160312bb88f5d1919228b.html" xlink:title="spic-prj-api"><polygon fill="none" stroke="#000" points="78.29 -124 14.29 -124 14.29 -88 78.29 -88 78.29 -124"/><text x="46.29" y="-103.5" font-family="Helvetica,sans-Serif" font-size="10" text-anchor="middle">spic-prj-api</text></a></g></g><g id="edge16" class="edge"><title>dir_eb4af4e99dee9ee973ff499f28504984-&gt;dir_de77370fa4c160312bb88f5d1919228b</title><path fill="none" stroke="#000" d="M269.53,-124.25C260.66,-131.24 249.65,-138.39 238.29,-142 176.86,-161.5 154.32,-162.69 93.29,-142 85.93,-139.5 78.81,-135.34 72.44,-130.71"/><polygon fill="#000" stroke="#000" points="74.27 -127.7 64.26 -124.23 69.92 -133.19 74.27 -127.7"/><g id="a_edge16-headlabel"><a target="_top" xlink:href="dir_000009_000015.html" xlink:title="3"><text x="78.85" y="-125.21" font-family="Helvetica,sans-Serif" font-size="10" text-anchor="middle">3</text></a></g></g><g id="edge6" class="edge"><title>dir_4ad73661ceecee2f59b8c0b0178f9787-&gt;dir_28e29a0aa9a4f72dd894b881b26f9dfb</title><path fill="none" stroke="#000" d="M191.51,-159.7C181.53,-150.97 169.28,-140.24 158.43,-130.75"/><polygon fill="#000" stroke="#000" points="160.67 -128.06 150.83 -124.1 156.06 -133.32 160.67 -128.06"/><g id="a_edge6-headlabel"><a target="_top" xlink:href="dir_000006_000008.html" xlink:title="1"><text x="165.24" y="-125.79" font-family="Helvetica,sans-Serif" font-size="10" text-anchor="middle">1</text></a></g></g><g id="edge8" class="edge"><title>dir_4ad73661ceecee2f59b8c0b0178f9787-&gt;dir_87059d60c7dfcd3dc8f50ab725effb95</title><path fill="none" stroke="#000" d="M211.29,-159.7C211.29,-151.98 211.29,-142.71 211.29,-134.11"/><polygon fill="#000" stroke="#000" points="214.79 -134.1 211.29 -124.1 207.79 -134.1 214.79 -134.1"/><g id="a_edge8-headlabel"><a target="_top" xlink:href="dir_000006_000014.html" xlink:title="2"><text x="217.63" y="-135.2" font-family="Helvetica,sans-Serif" font-size="10" text-anchor="middle">2</text></a></g></g><g id="edge9" class="edge"><title>dir_4ad73661ceecee2f59b8c0b0178f9787-&gt;dir_aa66564905a6f376a034b306e4a9b039</title><path fill="none" stroke="#000" d="M238.48,-173.56C267.12,-168.32 310.84,-155.39 331.29,-124 340.02,-110.59 341.04,-100.68 331.29,-88 312.39,-63.45 228.15,-47.92 175.21,-40.4"/><polygon fill="#000" stroke="#000" points="175.45 -36.9 165.07 -39 174.5 -43.84 175.45 -36.9"/><g id="a_edge9-headlabel"><a target="_top" xlink:href="dir_000006_000007.html" xlink:title="2"><text x="179.4" y="-32.08" font-family="Helvetica,sans-Serif" font-size="10" text-anchor="middle">2</text></a></g></g><g id="edge11" class="edge"><title>dir_4ad73661ceecee2f59b8c0b0178f9787-&gt;dir_eb4af4e99dee9ee973ff499f28504984</title><path fill="none" stroke="#000" d="M224.65,-159.7C233.48,-150.97 245.26,-140.24 256.39,-130.75"/><polygon fill="#000" stroke="#000" points="258.91 -133.21 264.33 -124.1 254.42 -127.84 258.91 -133.21"/><g id="a_edge11-headlabel"><a target="_top" xlink:href="dir_000006_000009.html" xlink:title="1"><text x="257.98" y="-135.19" font-family="Helvetica,sans-Serif" font-size="10" text-anchor="middle">1</text></a></g></g><g id="edge7" class="edge"><title>dir_4ad73661ceecee2f59b8c0b0178f9787-&gt;dir_68267d1309a1af8e8297ef4c3efbcdba</title><path fill="none" stroke="#000" d="M184.2,-178C152.99,-178 121.78,-178 90.58,-178"/><polygon fill="#000" stroke="#000" points="90.44 -174.5 80.44 -178 90.44 -181.5 90.44 -174.5"/><g id="a_edge7-headlabel"><a target="_top" xlink:href="dir_000006_000016.html" xlink:title="1"><text x="94.04" y="-169.16" font-family="Helvetica,sans-Serif" font-size="10" text-anchor="middle">1</text></a></g></g><g id="edge10" class="edge"><title>dir_4ad73661ceecee2f59b8c0b0178f9787-&gt;dir_de77370fa4c160312bb88f5d1919228b</title><path fill="none" stroke="#000" d="M184.18,-168.53C158.72,-159.08 119.95,-143.16 84.99,-128.18"/><polygon fill="#000" stroke="#000" points="86.29 -124.93 75.72 -124.19 83.53 -131.36 86.29 -124.93"/><g id="a_edge10-headlabel"><a target="_top" xlink:href="dir_000006_000015.html" xlink:title="2"><text x="90.72" y="-121.24" font-family="Helvetica,sans-Serif" font-size="10" text-anchor="middle">2</text></a></g></g><g id="edge1" class="edge"><title>dir_68267d1309a1af8e8297ef4c3efbcdba-&gt;dir_28e29a0aa9a4f72dd894b881b26f9dfb</title><path fill="none" stroke="#000" d="M72.57,-159.7C82.2,-151.05 94.02,-140.45 104.51,-131.03"/><polygon fill="#000" stroke="#000" points="107.12 -133.39 112.23 -124.1 102.45 -128.18 107.12 -133.39"/><g id="a_edge1-headlabel"><a target="_top" xlink:href="dir_000016_000008.html" xlink:title="4"><text x="106.34" y="-135.4" font-family="Helvetica,sans-Serif" font-size="10" text-anchor="middle">4</text></a></g></g><g id="edge2" class="edge"><title>dir_68267d1309a1af8e8297ef4c3efbcdba-&gt;dir_87059d60c7dfcd3dc8f50ab725effb95</title><path fill="none" stroke="#000" d="M80.58,-161.79C81.82,-161.18 83.06,-160.57 84.29,-160 121.04,-142.74 133.7,-141.4 174.98,-123.97"/><polygon fill="#000" stroke="#000" points="176.44 -127.16 184.25 -120 173.68 -120.73 176.44 -127.16"/><g id="a_edge2-headlabel"><a target="_top" xlink:href="dir_000016_000014.html" xlink:title="2"><text x="174.25" y="-128.69" font-family="Helvetica,sans-Serif" font-size="10" text-anchor="middle">2</text></a></g></g><g id="edge3" class="edge"><title>dir_68267d1309a1af8e8297ef4c3efbcdba-&gt;dir_aa66564905a6f376a034b306e4a9b039</title><path fill="none" stroke="#000" d="M32.62,-159.73C13.24,-141.4 -10.55,-111.84 5.29,-88 23.55,-60.5 59.17,-47.24 87.89,-40.86"/><polygon fill="#000" stroke="#000" points="88.61 -44.29 97.72 -38.88 87.22 -37.42 88.61 -44.29"/><g id="a_edge3-headlabel"><a target="_top" xlink:href="dir_000016_000007.html" xlink:title="1"><text x="85.64" y="-45.28" font-family="Helvetica,sans-Serif" font-size="10" text-anchor="middle">1</text></a></g></g><g id="edge5" class="edge"><title>dir_68267d1309a1af8e8297ef4c3efbcdba-&gt;dir_eb4af4e99dee9ee973ff499f28504984</title><path fill="none" stroke="#000" d="M80.35,-165.86C84.65,-163.69 89.03,-161.6 93.29,-160 159.35,-135.17 183.11,-144.91 246.26,-126.98"/><polygon fill="#000" stroke="#000" points="247.28 -130.33 255.87 -124.13 245.29 -123.62 247.28 -130.33"/><g id="a_edge5-headlabel"><a target="_top" xlink:href="dir_000016_000009.html" xlink:title="5"><text x="244.64" y="-131.57" font-family="Helvetica,sans-Serif" font-size="10" text-anchor="middle">5</text></a></g></g><g id="edge4" class="edge"><title>dir_68267d1309a1af8e8297ef4c3efbcdba-&gt;dir_de77370fa4c160312bb88f5d1919228b</title><path fill="none" stroke="#000" d="M51.56,-159.7C50.79,-151.98 49.86,-142.71 49,-134.11"/><polygon fill="#000" stroke="#000" points="52.47 -133.71 48 -124.1 45.51 -134.4 52.47 -133.71"/><g id="a_edge4-headlabel"><a target="_top" xlink:href="dir_000016_000015.html" xlink:title="30"><text x="55.66" y="-134.5" font-family="Helvetica,sans-Serif" font-size="10" text-anchor="middle">30</text></a></g></g><g id="edge13" class="edge"><title>dir_de77370fa4c160312bb88f5d1919228b-&gt;dir_4ad73661ceecee2f59b8c0b0178f9787</title><path fill="none" stroke="#000" d="M78.36,-117.52C83.41,-119.69 88.51,-121.94 93.29,-124 120.66,-135.83 151.52,-148.72 174.93,-158.83"/><polygon fill="#000" stroke="#000" points="173.59 -162.06 184.15 -162.84 176.38 -155.64 173.59 -162.06"/><g id="a_edge13-headlabel"><a target="_top" xlink:href="dir_000015_000006.html" xlink:title="2"><text x="169.16" y="-160.73" font-family="Helvetica,sans-Serif" font-size="10" text-anchor="middle">2</text></a></g></g></g></svg>