<svg xmlns="http://www.w3.org/2000/svg" xmlns:xlink="http://www.w3.org/1999/xlink" width="110pt" height="151pt" viewBox="0 0 110 151"><g id="graph0" class="graph" transform="scale(1 1) rotate(0) translate(4 147)"><title>src/LevelParser</title><g id="clust1" class="cluster"><title>clusterdir_68267d1309a1af8e8297ef4c3efbcdba</title><g id="a_clust1"><a target="_top" xlink:href="dir_68267d1309a1af8e8297ef4c3efbcdba.html" xlink:title="src"><polygon fill="#dde" stroke="#000" points="8 -64 8 -135 94 -135 94 -64 8 -64"/><text x="51" y="-123" font-family="Helvetica,sans-Serif" font-size="10" text-anchor="middle">src</text></a></g></g><g id="node1" class="node"><title>dir_72264bd4eb08aca2edb77b06492552d6</title><g id="a_node1"><a target="_top" xlink:href="dir_72264bd4eb08aca2edb77b06492552d6.html" xlink:title="LevelParser"><polygon fill="#eef" stroke="#000" points="85.5 -108 16.5 -108 16.5 -72 85.5 -72 85.5 -108"/><text x="51" y="-87.5" font-family="Helvetica,sans-Serif" font-size="10" text-anchor="middle">LevelParser</text></a></g></g><g id="node2" class="node"><title>dir_09e761304027c904456130627fd4dcf5</title><g id="a_node2"><a target="_top" xlink:href="dir_09e761304027c904456130627fd4dcf5.html" xlink:title="includes"><polygon fill="none" stroke="red" points="78 -36 24 -36 24 0 78 0 78 -36"/><text x="51" y="-15.5" font-family="Helvetica,sans-Serif" font-size="10" text-anchor="middle">includes</text></a></g></g><g id="edge1" class="edge"><title>dir_72264bd4eb08aca2edb77b06492552d6-&gt;dir_09e761304027c904456130627fd4dcf5</title><path fill="none" stroke="#000" d="M51,-71.7C51,-63.98 51,-54.71 51,-46.11"/><polygon fill="#000" stroke="#000" points="54.5 -46.1 51 -36.1 47.5 -46.1 54.5 -46.1"/><g id="a_edge1-headlabel"><a target="_top" xlink:href="dir_000024_000000.html" xlink:title="4"><text x="57.34" y="-47.2" font-family="Helvetica,sans-Serif" font-size="10" text-anchor="middle">4</text></a></g></g></g></svg>