<?xml version="1.0" encoding="UTF-8" standalone="no"?>
<!DOCTYPE svg PUBLIC "-//W3C//DTD SVG 1.1//EN"
 "http://www.w3.org/Graphics/SVG/1.1/DTD/svg11.dtd">
<!-- Generated by graphviz version 2.44.0 ()
 -->
<!-- Title: includes/platformer&#45;engine/Networking Pages: 1 -->
<svg width="354pt" height="204pt"
 viewBox="0.00 0.00 354.00 203.68" xmlns="http://www.w3.org/2000/svg" xmlns:xlink="http://www.w3.org/1999/xlink">
<g id="graph0" class="graph" transform="scale(1 1) rotate(0) translate(4 199.68)">
<title>includes/platformer&#45;engine/Networking</title>
<g id="clust1" class="cluster">
<title>clusterdir_1587a151464512ea3626aba36cd93a86</title>
<g id="a_clust1"><a xlink:href="dir_1587a151464512ea3626aba36cd93a86.html" target="_top" xlink:title="platformer&#45;engine">
<polygon fill="#ddddee" stroke="black" points="8,-8 8,-167 272,-167 272,-8 8,-8"/>
<text text-anchor="middle" x="140" y="-155" font-family="Helvetica,sans-Serif" font-size="10.00">platformer&#45;engine</text>
</a>
</g>
</g>
<g id="clust2" class="cluster">
<title>clusterdir_eb4af4e99dee9ee973ff499f28504984</title>
<g id="a_clust2"><a xlink:href="dir_eb4af4e99dee9ee973ff499f28504984.html" target="_top">
<polygon fill="#eeeeff" stroke="black" points="16,-16 16,-140 200,-140 200,-16 16,-16"/>
</a>
</g>
</g>
<!-- dir_4ad73661ceecee2f59b8c0b0178f9787 -->
<g id="node1" class="node">
<title>dir_4ad73661ceecee2f59b8c0b0178f9787</title>
<g id="a_node1"><a xlink:href="dir_4ad73661ceecee2f59b8c0b0178f9787.html" target="_top" xlink:title="Facade">
<polygon fill="none" stroke="black" points="264,-60 210,-60 210,-24 264,-24 264,-60"/>
<text text-anchor="middle" x="237" y="-39.5" font-family="Helvetica,sans-Serif" font-size="10.00">Facade</text>
</a>
</g>
</g>
<!-- dir_eb4af4e99dee9ee973ff499f28504984 -->
<g id="node3" class="node">
<title>dir_eb4af4e99dee9ee973ff499f28504984</title>
<text text-anchor="middle" x="159" y="-111.5" font-family="Helvetica,sans-Serif" font-size="10.00">Networking</text>
</g>
<!-- dir_4ad73661ceecee2f59b8c0b0178f9787&#45;&gt;dir_eb4af4e99dee9ee973ff499f28504984 -->
<g id="edge2" class="edge">
<title>dir_4ad73661ceecee2f59b8c0b0178f9787&#45;&gt;dir_eb4af4e99dee9ee973ff499f28504984</title>
<path fill="none" stroke="black" d="M223.84,-60.1C215.05,-68.8 203.29,-79.52 192.15,-89.03"/>
<polygon fill="black" stroke="black" points="189.61,-86.59 184.2,-95.7 194.11,-91.96 189.61,-86.59"/>
<g id="a_edge2&#45;headlabel"><a xlink:href="dir_000010_000012.html" target="_top" xlink:title="2">
<text text-anchor="middle" x="190.54" y="-79.61" font-family="Helvetica,sans-Serif" font-size="10.00">2</text>
</a>
</g>
</g>
<!-- dir_de77370fa4c160312bb88f5d1919228b -->
<g id="node6" class="node">
<title>dir_de77370fa4c160312bb88f5d1919228b</title>
<g id="a_node6"><a xlink:href="dir_de77370fa4c160312bb88f5d1919228b.html" target="_top" xlink:title="spic&#45;prj&#45;api">
<polygon fill="none" stroke="black" points="346,-132 282,-132 282,-96 346,-96 346,-132"/>
<text text-anchor="middle" x="314" y="-111.5" font-family="Helvetica,sans-Serif" font-size="10.00">spic&#45;prj&#45;api</text>
</a>
</g>
</g>
<!-- dir_4ad73661ceecee2f59b8c0b0178f9787&#45;&gt;dir_de77370fa4c160312bb88f5d1919228b -->
<g id="edge1" class="edge">
<title>dir_4ad73661ceecee2f59b8c0b0178f9787&#45;&gt;dir_de77370fa4c160312bb88f5d1919228b</title>
<path fill="none" stroke="black" d="M249.92,-60.1C258.58,-68.8 270.19,-79.52 281.19,-89.03"/>
<polygon fill="black" stroke="black" points="279.16,-91.9 289.05,-95.7 283.69,-86.56 279.16,-91.9"/>
<g id="a_edge1&#45;headlabel"><a xlink:href="dir_000010_000024.html" target="_top" xlink:title="3">
<text text-anchor="middle" x="274.58" y="-89.24" font-family="Helvetica,sans-Serif" font-size="10.00">3</text>
</a>
</g>
</g>
<!-- dir_366a47d27432147542e5f7548d7df575 -->
<g id="node2" class="node">
<title>dir_366a47d27432147542e5f7548d7df575</title>
<g id="a_node2"><a xlink:href="dir_366a47d27432147542e5f7548d7df575.html" target="_top" xlink:title="Texture">
<polygon fill="none" stroke="black" points="264,-132 210,-132 210,-96 264,-96 264,-132"/>
<text text-anchor="middle" x="237" y="-111.5" font-family="Helvetica,sans-Serif" font-size="10.00">Texture</text>
</a>
</g>
</g>
<!-- dir_366a47d27432147542e5f7548d7df575&#45;&gt;dir_4ad73661ceecee2f59b8c0b0178f9787 -->
<g id="edge9" class="edge">
<title>dir_366a47d27432147542e5f7548d7df575&#45;&gt;dir_4ad73661ceecee2f59b8c0b0178f9787</title>
<path fill="none" stroke="black" d="M237,-95.7C237,-87.98 237,-78.71 237,-70.11"/>
<polygon fill="black" stroke="black" points="240.5,-70.1 237,-60.1 233.5,-70.1 240.5,-70.1"/>
<g id="a_edge9&#45;headlabel"><a xlink:href="dir_000020_000010.html" target="_top" xlink:title="1">
<text text-anchor="middle" x="243.34" y="-71.2" font-family="Helvetica,sans-Serif" font-size="10.00">1</text>
</a>
</g>
</g>
<!-- dir_366a47d27432147542e5f7548d7df575&#45;&gt;dir_de77370fa4c160312bb88f5d1919228b -->
<g id="edge10" class="edge">
<title>dir_366a47d27432147542e5f7548d7df575&#45;&gt;dir_de77370fa4c160312bb88f5d1919228b</title>
<path fill="none" stroke="black" d="M264.07,-114C266.54,-114 269.01,-114 271.48,-114"/>
<polygon fill="black" stroke="black" points="271.62,-117.5 281.62,-114 271.62,-110.5 271.62,-117.5"/>
<g id="a_edge10&#45;headlabel"><a xlink:href="dir_000020_000024.html" target="_top" xlink:title="6">
<text text-anchor="middle" x="268.03" y="-117.84" font-family="Helvetica,sans-Serif" font-size="10.00">6</text>
</a>
</g>
</g>
<!-- dir_eb4af4e99dee9ee973ff499f28504984&#45;&gt;dir_4ad73661ceecee2f59b8c0b0178f9787 -->
<g id="edge11" class="edge">
<title>dir_eb4af4e99dee9ee973ff499f28504984&#45;&gt;dir_4ad73661ceecee2f59b8c0b0178f9787</title>
<path fill="none" stroke="black" d="M172.37,-95.7C181.19,-86.97 192.97,-76.24 204.11,-66.75"/>
<polygon fill="black" stroke="black" points="206.62,-69.21 212.05,-60.1 202.13,-63.84 206.62,-69.21"/>
<g id="a_edge11&#45;headlabel"><a xlink:href="dir_000012_000010.html" target="_top" xlink:title="2">
<text text-anchor="middle" x="205.69" y="-71.19" font-family="Helvetica,sans-Serif" font-size="10.00">2</text>
</a>
</g>
</g>
<!-- dir_eb4af4e99dee9ee973ff499f28504984&#45;&gt;dir_de77370fa4c160312bb88f5d1919228b -->
<g id="edge12" class="edge">
<title>dir_eb4af4e99dee9ee973ff499f28504984&#45;&gt;dir_de77370fa4c160312bb88f5d1919228b</title>
<path fill="none" stroke="black" d="M164.97,-132.05C171.71,-149.16 184.48,-173.85 205,-185 229.21,-198.16 242.73,-198.04 267,-185 284.15,-175.79 296.09,-157.27 303.64,-141.45"/>
<polygon fill="black" stroke="black" points="306.95,-142.63 307.79,-132.06 300.55,-139.8 306.95,-142.63"/>
<g id="a_edge12&#45;headlabel"><a xlink:href="dir_000012_000024.html" target="_top" xlink:title="3">
<text text-anchor="middle" x="308.1" y="-144.56" font-family="Helvetica,sans-Serif" font-size="10.00">3</text>
</a>
</g>
</g>
<!-- dir_58fb91fe3a33ed7c3d11c975b7bd78ba -->
<g id="node4" class="node">
<title>dir_58fb91fe3a33ed7c3d11c975b7bd78ba</title>
<g id="a_node4"><a xlink:href="dir_58fb91fe3a33ed7c3d11c975b7bd78ba.html" target="_top" xlink:title="boost">
<polygon fill="white" stroke="black" points="142,-60 88,-60 88,-24 142,-24 142,-60"/>
<text text-anchor="middle" x="115" y="-39.5" font-family="Helvetica,sans-Serif" font-size="10.00">boost</text>
</a>
</g>
</g>
<!-- dir_0104f74ac2f7f8541b2457e8f4295e86 -->
<g id="node5" class="node">
<title>dir_0104f74ac2f7f8541b2457e8f4295e86</title>
<g id="a_node5"><a xlink:href="dir_0104f74ac2f7f8541b2457e8f4295e86.html" target="_top" xlink:title="PackedObjects">
<polygon fill="white" stroke="black" points="107.5,-132 24.5,-132 24.5,-96 107.5,-96 107.5,-132"/>
<text text-anchor="middle" x="66" y="-111.5" font-family="Helvetica,sans-Serif" font-size="10.00">PackedObjects</text>
</a>
</g>
</g>
<!-- dir_0104f74ac2f7f8541b2457e8f4295e86&#45;&gt;dir_366a47d27432147542e5f7548d7df575 -->
<g id="edge7" class="edge">
<title>dir_0104f74ac2f7f8541b2457e8f4295e86&#45;&gt;dir_366a47d27432147542e5f7548d7df575</title>
<path fill="none" stroke="black" d="M75.29,-132.2C85.22,-149.42 102.73,-174.2 126,-185 153.82,-197.91 168.36,-200.19 195,-185 211.12,-175.8 221.69,-157.72 228.19,-142.11"/>
<polygon fill="black" stroke="black" points="231.62,-142.91 231.89,-132.32 225.08,-140.43 231.62,-142.91"/>
<g id="a_edge7&#45;headlabel"><a xlink:href="dir_000014_000020.html" target="_top" xlink:title="1">
<text text-anchor="middle" x="233.01" y="-144.78" font-family="Helvetica,sans-Serif" font-size="10.00">1</text>
</a>
</g>
</g>
<!-- dir_0104f74ac2f7f8541b2457e8f4295e86&#45;&gt;dir_58fb91fe3a33ed7c3d11c975b7bd78ba -->
<g id="edge8" class="edge">
<title>dir_0104f74ac2f7f8541b2457e8f4295e86&#45;&gt;dir_58fb91fe3a33ed7c3d11c975b7bd78ba</title>
<path fill="none" stroke="black" d="M78.11,-95.7C83.87,-87.47 90.86,-77.48 97.21,-68.42"/>
<polygon fill="black" stroke="black" points="100.16,-70.3 103.03,-60.1 94.42,-66.29 100.16,-70.3"/>
<g id="a_edge8&#45;headlabel"><a xlink:href="dir_000014_000013.html" target="_top" xlink:title="2">
<text text-anchor="middle" x="100.42" y="-72.38" font-family="Helvetica,sans-Serif" font-size="10.00">2</text>
</a>
</g>
</g>
<!-- dir_de77370fa4c160312bb88f5d1919228b&#45;&gt;dir_4ad73661ceecee2f59b8c0b0178f9787 -->
<g id="edge4" class="edge">
<title>dir_de77370fa4c160312bb88f5d1919228b&#45;&gt;dir_4ad73661ceecee2f59b8c0b0178f9787</title>
<path fill="none" stroke="black" d="M300.88,-95.7C292.18,-86.97 280.55,-76.24 269.56,-66.75"/>
<polygon fill="black" stroke="black" points="271.6,-63.9 261.71,-60.1 267.08,-69.24 271.6,-63.9"/>
<g id="a_edge4&#45;headlabel"><a xlink:href="dir_000024_000010.html" target="_top" xlink:title="2">
<text text-anchor="middle" x="276.18" y="-61.55" font-family="Helvetica,sans-Serif" font-size="10.00">2</text>
</a>
</g>
</g>
<!-- dir_de77370fa4c160312bb88f5d1919228b&#45;&gt;dir_366a47d27432147542e5f7548d7df575 -->
<g id="edge3" class="edge">
<title>dir_de77370fa4c160312bb88f5d1919228b&#45;&gt;dir_366a47d27432147542e5f7548d7df575</title>
<path fill="none" stroke="black" d="M281.62,-114C279.16,-114 276.69,-114 274.22,-114"/>
<polygon fill="black" stroke="black" points="274.07,-110.5 264.07,-114 274.07,-117.5 274.07,-110.5"/>
<g id="a_edge3&#45;headlabel"><a xlink:href="dir_000024_000020.html" target="_top" xlink:title="2">
<text text-anchor="middle" x="277.66" y="-105.16" font-family="Helvetica,sans-Serif" font-size="10.00">2</text>
</a>
</g>
</g>
<!-- dir_de77370fa4c160312bb88f5d1919228b&#45;&gt;dir_eb4af4e99dee9ee973ff499f28504984 -->
<g id="edge6" class="edge">
<title>dir_de77370fa4c160312bb88f5d1919228b&#45;&gt;dir_eb4af4e99dee9ee973ff499f28504984</title>
<path fill="none" stroke="black" d="M307.79,-132.06C300.82,-149.18 287.7,-173.88 267,-185 242.73,-198.04 229.21,-198.16 205,-185 188.01,-175.76 176.33,-157.25 168.99,-141.44"/>
<polygon fill="black" stroke="black" points="172.12,-139.87 164.97,-132.05 165.69,-142.62 172.12,-139.87"/>
<g id="a_edge6&#45;headlabel"><a xlink:href="dir_000024_000012.html" target="_top" xlink:title="8">
<text text-anchor="middle" x="176.15" y="-139.55" font-family="Helvetica,sans-Serif" font-size="10.00">8</text>
</a>
</g>
</g>
<!-- dir_de77370fa4c160312bb88f5d1919228b&#45;&gt;dir_58fb91fe3a33ed7c3d11c975b7bd78ba -->
<g id="edge5" class="edge">
<title>dir_de77370fa4c160312bb88f5d1919228b&#45;&gt;dir_58fb91fe3a33ed7c3d11c975b7bd78ba</title>
<path fill="none" stroke="black" d="M281.8,-98.2C279.85,-97.42 277.9,-96.69 276,-96 222.67,-76.81 203.63,-81.9 151.59,-62.07"/>
<polygon fill="black" stroke="black" points="152.8,-58.79 142.22,-58.37 150.23,-65.3 152.8,-58.79"/>
<g id="a_edge5&#45;headlabel"><a xlink:href="dir_000024_000013.html" target="_top" xlink:title="8">
<text text-anchor="middle" x="157.19" y="-54.96" font-family="Helvetica,sans-Serif" font-size="10.00">8</text>
</a>
</g>
</g>
</g>
</svg>
