<?xml version="1.0" encoding="UTF-8" standalone="no"?>
<!DOCTYPE svg PUBLIC "-//W3C//DTD SVG 1.1//EN"
 "http://www.w3.org/Graphics/SVG/1.1/DTD/svg11.dtd">
<!-- Generated by graphviz version 2.44.0 ()
 -->
<!-- Title: includes/platformer&#45;engine Pages: 1 -->
<svg width="464pt" height="399pt"
 viewBox="0.00 0.00 464.00 399.00" xmlns="http://www.w3.org/2000/svg" xmlns:xlink="http://www.w3.org/1999/xlink">
<g id="graph0" class="graph" transform="scale(1 1) rotate(0) translate(4 395)">
<title>includes/platformer&#45;engine</title>
<g id="clust1" class="cluster">
<title>clusterdir_09e761304027c904456130627fd4dcf5</title>
<g id="a_clust1"><a xlink:href="dir_09e761304027c904456130627fd4dcf5.html" target="_top" xlink:title="includes">
<polygon fill="#ddddee" stroke="black" points="8,-8 8,-383 448,-383 448,-8 8,-8"/>
<text text-anchor="middle" x="228" y="-371" font-family="Helvetica,sans-Serif" font-size="10.00">includes</text>
</a>
</g>
</g>
<g id="clust2" class="cluster">
<title>clusterdir_1587a151464512ea3626aba36cd93a86</title>
<g id="a_clust2"><a xlink:href="dir_1587a151464512ea3626aba36cd93a86.html" target="_top">
<polygon fill="#eeeeff" stroke="black" points="16,-16 16,-356 368,-356 368,-16 16,-16"/>
</a>
</g>
</g>
<!-- dir_de77370fa4c160312bb88f5d1919228b -->
<g id="node1" class="node">
<title>dir_de77370fa4c160312bb88f5d1919228b</title>
<g id="a_node1"><a xlink:href="dir_de77370fa4c160312bb88f5d1919228b.html" target="_top" xlink:title="spic&#45;prj&#45;api">
<polygon fill="none" stroke="black" points="440,-204 376,-204 376,-168 440,-168 440,-204"/>
<text text-anchor="middle" x="408" y="-183.5" font-family="Helvetica,sans-Serif" font-size="10.00">spic&#45;prj&#45;api</text>
</a>
</g>
</g>
<!-- dir_1587a151464512ea3626aba36cd93a86 -->
<g id="node2" class="node">
<title>dir_1587a151464512ea3626aba36cd93a86</title>
<text text-anchor="middle" x="232" y="-327.5" font-family="Helvetica,sans-Serif" font-size="10.00">platformer&#45;engine</text>
</g>
<!-- dir_de77370fa4c160312bb88f5d1919228b&#45;&gt;dir_1587a151464512ea3626aba36cd93a86 -->
<g id="edge8" class="edge">
<title>dir_de77370fa4c160312bb88f5d1919228b&#45;&gt;dir_1587a151464512ea3626aba36cd93a86</title>
<path fill="none" stroke="black" d="M407.93,-204.34C406.93,-224.14 402.31,-256.32 384,-276 380.46,-279.81 329.61,-297.12 287.69,-310.93"/>
<polygon fill="black" stroke="black" points="286.49,-307.64 278.08,-314.09 288.68,-314.29 286.49,-307.64"/>
<g id="a_edge8&#45;headlabel"><a xlink:href="dir_000015_000001.html" target="_top" xlink:title="6">
<text text-anchor="middle" x="289.02" y="-301.32" font-family="Helvetica,sans-Serif" font-size="10.00">6</text>
</a>
</g>
</g>
<!-- dir_4ad73661ceecee2f59b8c0b0178f9787 -->
<g id="node8" class="node">
<title>dir_4ad73661ceecee2f59b8c0b0178f9787</title>
<g id="a_node8"><a xlink:href="dir_4ad73661ceecee2f59b8c0b0178f9787.html" target="_top" xlink:title="Facade">
<polygon fill="white" stroke="black" points="280,-132 226,-132 226,-96 280,-96 280,-132"/>
<text text-anchor="middle" x="253" y="-111.5" font-family="Helvetica,sans-Serif" font-size="10.00">Facade</text>
</a>
</g>
</g>
<!-- dir_de77370fa4c160312bb88f5d1919228b&#45;&gt;dir_4ad73661ceecee2f59b8c0b0178f9787 -->
<g id="edge10" class="edge">
<title>dir_de77370fa4c160312bb88f5d1919228b&#45;&gt;dir_4ad73661ceecee2f59b8c0b0178f9787</title>
<path fill="none" stroke="black" d="M380.55,-167.8C342.24,-150.97 330.99,-150.12 293,-132 291.85,-131.45 290.68,-130.88 289.49,-130.29"/>
<polygon fill="black" stroke="black" points="290.79,-127.02 280.29,-125.6 287.61,-133.26 290.79,-127.02"/>
<g id="a_edge10&#45;headlabel"><a xlink:href="dir_000015_000007.html" target="_top" xlink:title="2">
<text text-anchor="middle" x="295.28" y="-123.63" font-family="Helvetica,sans-Serif" font-size="10.00">2</text>
</a>
</g>
</g>
<!-- dir_72722e64122ba09534fd16b67552a996 -->
<g id="node11" class="node">
<title>dir_72722e64122ba09534fd16b67552a996</title>
<g id="a_node11"><a xlink:href="dir_72722e64122ba09534fd16b67552a996.html" target="_top" xlink:title="Physics">
<polygon fill="white" stroke="black" points="282,-276 228,-276 228,-240 282,-240 282,-276"/>
<text text-anchor="middle" x="255" y="-255.5" font-family="Helvetica,sans-Serif" font-size="10.00">Physics</text>
</a>
</g>
</g>
<!-- dir_de77370fa4c160312bb88f5d1919228b&#45;&gt;dir_72722e64122ba09534fd16b67552a996 -->
<g id="edge11" class="edge">
<title>dir_de77370fa4c160312bb88f5d1919228b&#45;&gt;dir_72722e64122ba09534fd16b67552a996</title>
<path fill="none" stroke="black" d="M380.58,-204.19C345.11,-220.44 335.67,-223.65 300,-240 297.26,-241.26 294.41,-242.58 291.52,-243.9"/>
<polygon fill="black" stroke="black" points="289.92,-240.78 282.26,-248.1 292.81,-247.16 289.92,-240.78"/>
<g id="a_edge11&#45;headlabel"><a xlink:href="dir_000015_000010.html" target="_top" xlink:title="2">
<text text-anchor="middle" x="292.03" y="-234.22" font-family="Helvetica,sans-Serif" font-size="10.00">2</text>
</a>
</g>
</g>
<!-- dir_366a47d27432147542e5f7548d7df575 -->
<g id="node13" class="node">
<title>dir_366a47d27432147542e5f7548d7df575</title>
<g id="a_node13"><a xlink:href="dir_366a47d27432147542e5f7548d7df575.html" target="_top" xlink:title="Texture">
<polygon fill="white" stroke="black" points="182,-204 128,-204 128,-168 182,-168 182,-204"/>
<text text-anchor="middle" x="155" y="-183.5" font-family="Helvetica,sans-Serif" font-size="10.00">Texture</text>
</a>
</g>
</g>
<!-- dir_de77370fa4c160312bb88f5d1919228b&#45;&gt;dir_366a47d27432147542e5f7548d7df575 -->
<g id="edge9" class="edge">
<title>dir_de77370fa4c160312bb88f5d1919228b&#45;&gt;dir_366a47d27432147542e5f7548d7df575</title>
<path fill="none" stroke="black" d="M390.92,-204.22C383.15,-211.2 373.38,-218.36 363,-222 303.03,-243.04 281.53,-237.9 220,-222 209.49,-219.28 198.87,-214.47 189.35,-209.22"/>
<polygon fill="black" stroke="black" points="191,-206.13 180.59,-204.12 187.47,-212.18 191,-206.13"/>
<g id="a_edge9&#45;headlabel"><a xlink:href="dir_000015_000012.html" target="_top" xlink:title="2">
<text text-anchor="middle" x="195.53" y="-202.99" font-family="Helvetica,sans-Serif" font-size="10.00">2</text>
</a>
</g>
</g>
<!-- dir_ad5ef619f038a25d047111bf855feef3 -->
<g id="node3" class="node">
<title>dir_ad5ef619f038a25d047111bf855feef3</title>
<g id="a_node3"><a xlink:href="dir_ad5ef619f038a25d047111bf855feef3.html" target="_top" xlink:title="Behaviour">
<polygon fill="white" stroke="black" points="360,-276 300,-276 300,-240 360,-240 360,-276"/>
<text text-anchor="middle" x="330" y="-255.5" font-family="Helvetica,sans-Serif" font-size="10.00">Behaviour</text>
</a>
</g>
</g>
<!-- dir_ad5ef619f038a25d047111bf855feef3&#45;&gt;dir_de77370fa4c160312bb88f5d1919228b -->
<g id="edge7" class="edge">
<title>dir_ad5ef619f038a25d047111bf855feef3&#45;&gt;dir_de77370fa4c160312bb88f5d1919228b</title>
<path fill="none" stroke="black" d="M349.28,-239.7C358.92,-231.05 370.73,-220.45 381.23,-211.03"/>
<polygon fill="black" stroke="black" points="383.84,-213.39 388.94,-204.1 379.16,-208.18 383.84,-213.39"/>
<g id="a_edge7&#45;headlabel"><a xlink:href="dir_000002_000015.html" target="_top" xlink:title="1">
<text text-anchor="middle" x="383.06" y="-215.4" font-family="Helvetica,sans-Serif" font-size="10.00">1</text>
</a>
</g>
</g>
<!-- dir_7e105e953f4c25411b2b0fde6dcccccb -->
<g id="node4" class="node">
<title>dir_7e105e953f4c25411b2b0fde6dcccccb</title>
<g id="a_node4"><a xlink:href="dir_7e105e953f4c25411b2b0fde6dcccccb.html" target="_top" xlink:title="Builder">
<polygon fill="white" stroke="black" points="98,-276 44,-276 44,-240 98,-240 98,-276"/>
<text text-anchor="middle" x="71" y="-255.5" font-family="Helvetica,sans-Serif" font-size="10.00">Builder</text>
</a>
</g>
</g>
<!-- dir_7e105e953f4c25411b2b0fde6dcccccb&#45;&gt;dir_de77370fa4c160312bb88f5d1919228b -->
<g id="edge24" class="edge">
<title>dir_7e105e953f4c25411b2b0fde6dcccccb&#45;&gt;dir_de77370fa4c160312bb88f5d1919228b</title>
<path fill="none" stroke="black" d="M98.13,-247.88C107.23,-245.06 117.48,-242.13 127,-240 231.15,-216.68 264.63,-234.68 366.28,-205.55"/>
<polygon fill="black" stroke="black" points="367.4,-208.87 376,-202.69 365.42,-202.16 367.4,-208.87"/>
<g id="a_edge24&#45;headlabel"><a xlink:href="dir_000003_000015.html" target="_top" xlink:title="7">
<text text-anchor="middle" x="364.75" y="-210.11" font-family="Helvetica,sans-Serif" font-size="10.00">7</text>
</a>
</g>
</g>
<!-- dir_7e105e953f4c25411b2b0fde6dcccccb&#45;&gt;dir_366a47d27432147542e5f7548d7df575 -->
<g id="edge23" class="edge">
<title>dir_7e105e953f4c25411b2b0fde6dcccccb&#45;&gt;dir_366a47d27432147542e5f7548d7df575</title>
<path fill="none" stroke="black" d="M91.76,-239.7C102.24,-230.97 115.11,-220.24 126.5,-210.75"/>
<polygon fill="black" stroke="black" points="129.03,-213.19 134.47,-204.1 124.55,-207.82 129.03,-213.19"/>
<g id="a_edge23&#45;headlabel"><a xlink:href="dir_000003_000012.html" target="_top" xlink:title="2">
<text text-anchor="middle" x="128.09" y="-215.18" font-family="Helvetica,sans-Serif" font-size="10.00">2</text>
</a>
</g>
</g>
<!-- dir_ca5933703c7eb05541db25cfb30e14ec -->
<g id="node5" class="node">
<title>dir_ca5933703c7eb05541db25cfb30e14ec</title>
<g id="a_node5"><a xlink:href="dir_ca5933703c7eb05541db25cfb30e14ec.html" target="_top" xlink:title="Director">
<polygon fill="white" stroke="black" points="96,-348 42,-348 42,-312 96,-312 96,-348"/>
<text text-anchor="middle" x="69" y="-327.5" font-family="Helvetica,sans-Serif" font-size="10.00">Director</text>
</a>
</g>
</g>
<!-- dir_ca5933703c7eb05541db25cfb30e14ec&#45;&gt;dir_7e105e953f4c25411b2b0fde6dcccccb -->
<g id="edge22" class="edge">
<title>dir_ca5933703c7eb05541db25cfb30e14ec&#45;&gt;dir_7e105e953f4c25411b2b0fde6dcccccb</title>
<path fill="none" stroke="black" d="M69.49,-311.7C69.71,-303.98 69.98,-294.71 70.23,-286.11"/>
<polygon fill="black" stroke="black" points="73.72,-286.2 70.51,-276.1 66.73,-286 73.72,-286.2"/>
<g id="a_edge22&#45;headlabel"><a xlink:href="dir_000004_000003.html" target="_top" xlink:title="1">
<text text-anchor="middle" x="76.46" y="-287.37" font-family="Helvetica,sans-Serif" font-size="10.00">1</text>
</a>
</g>
</g>
<!-- dir_255073caeab54e3c715574845ba4b898 -->
<g id="node6" class="node">
<title>dir_255073caeab54e3c715574845ba4b898</title>
<g id="a_node6"><a xlink:href="dir_255073caeab54e3c715574845ba4b898.html" target="_top" xlink:title="Engine">
<polygon fill="white" stroke="black" points="168,-348 114,-348 114,-312 168,-312 168,-348"/>
<text text-anchor="middle" x="141" y="-327.5" font-family="Helvetica,sans-Serif" font-size="10.00">Engine</text>
</a>
</g>
</g>
<!-- dir_255073caeab54e3c715574845ba4b898&#45;&gt;dir_de77370fa4c160312bb88f5d1919228b -->
<g id="edge16" class="edge">
<title>dir_255073caeab54e3c715574845ba4b898&#45;&gt;dir_de77370fa4c160312bb88f5d1919228b</title>
<path fill="none" stroke="black" d="M168.22,-315.26C171.14,-314.05 174.11,-312.94 177,-312 259.6,-285.24 301.53,-330.64 369,-276 382.47,-265.09 377.09,-255.9 384,-240 387.8,-231.25 392.07,-221.74 395.93,-213.23"/>
<polygon fill="black" stroke="black" points="399.12,-214.68 400.09,-204.13 392.75,-211.77 399.12,-214.68"/>
<g id="a_edge16&#45;headlabel"><a xlink:href="dir_000005_000015.html" target="_top" xlink:title="1">
<text text-anchor="middle" x="400.21" y="-216.63" font-family="Helvetica,sans-Serif" font-size="10.00">1</text>
</a>
</g>
</g>
<!-- dir_255073caeab54e3c715574845ba4b898&#45;&gt;dir_ad5ef619f038a25d047111bf855feef3 -->
<g id="edge15" class="edge">
<title>dir_255073caeab54e3c715574845ba4b898&#45;&gt;dir_ad5ef619f038a25d047111bf855feef3</title>
<path fill="none" stroke="black" d="M168.35,-315.62C171.25,-314.34 174.17,-313.11 177,-312 223.67,-293.71 239.46,-294.48 290.34,-276.03"/>
<polygon fill="black" stroke="black" points="291.73,-279.25 299.89,-272.5 289.3,-272.69 291.73,-279.25"/>
<g id="a_edge15&#45;headlabel"><a xlink:href="dir_000005_000002.html" target="_top" xlink:title="1">
<text text-anchor="middle" x="289.35" y="-280.66" font-family="Helvetica,sans-Serif" font-size="10.00">1</text>
</a>
</g>
</g>
<!-- dir_eb4af4e99dee9ee973ff499f28504984 -->
<g id="node10" class="node">
<title>dir_eb4af4e99dee9ee973ff499f28504984</title>
<g id="a_node10"><a xlink:href="dir_eb4af4e99dee9ee973ff499f28504984.html" target="_top" xlink:title="Networking">
<polygon fill="white" stroke="black" points="286,-204 220,-204 220,-168 286,-168 286,-204"/>
<text text-anchor="middle" x="253" y="-183.5" font-family="Helvetica,sans-Serif" font-size="10.00">Networking</text>
</a>
</g>
</g>
<!-- dir_255073caeab54e3c715574845ba4b898&#45;&gt;dir_eb4af4e99dee9ee973ff499f28504984 -->
<g id="edge18" class="edge">
<title>dir_255073caeab54e3c715574845ba4b898&#45;&gt;dir_eb4af4e99dee9ee973ff499f28504984</title>
<path fill="none" stroke="black" d="M162.99,-311.84C174.58,-302.12 188.51,-289.27 199,-276 210.35,-261.64 209.61,-255.71 219,-240 224.41,-230.95 230.57,-221.19 236.15,-212.54"/>
<polygon fill="black" stroke="black" points="239.18,-214.31 241.7,-204.01 233.31,-210.49 239.18,-214.31"/>
<g id="a_edge18&#45;headlabel"><a xlink:href="dir_000005_000009.html" target="_top" xlink:title="2">
<text text-anchor="middle" x="239.6" y="-216.37" font-family="Helvetica,sans-Serif" font-size="10.00">2</text>
</a>
</g>
</g>
<!-- dir_255073caeab54e3c715574845ba4b898&#45;&gt;dir_72722e64122ba09534fd16b67552a996 -->
<g id="edge14" class="edge">
<title>dir_255073caeab54e3c715574845ba4b898&#45;&gt;dir_72722e64122ba09534fd16b67552a996</title>
<path fill="none" stroke="black" d="M168.02,-312.41C183.24,-303.06 202.45,-291.27 218.94,-281.14"/>
<polygon fill="black" stroke="black" points="221.09,-283.93 227.78,-275.71 217.43,-277.96 221.09,-283.93"/>
<g id="a_edge14&#45;headlabel"><a xlink:href="dir_000005_000010.html" target="_top" xlink:title="1">
<text text-anchor="middle" x="219.51" y="-285.73" font-family="Helvetica,sans-Serif" font-size="10.00">1</text>
</a>
</g>
</g>
<!-- dir_dee7b2cf51f0719d61c9bcb7f2f06001 -->
<g id="node12" class="node">
<title>dir_dee7b2cf51f0719d61c9bcb7f2f06001</title>
<g id="a_node12"><a xlink:href="dir_dee7b2cf51f0719d61c9bcb7f2f06001.html" target="_top" xlink:title="Render">
<polygon fill="white" stroke="black" points="190,-276 136,-276 136,-240 190,-240 190,-276"/>
<text text-anchor="middle" x="163" y="-255.5" font-family="Helvetica,sans-Serif" font-size="10.00">Render</text>
</a>
</g>
</g>
<!-- dir_255073caeab54e3c715574845ba4b898&#45;&gt;dir_dee7b2cf51f0719d61c9bcb7f2f06001 -->
<g id="edge17" class="edge">
<title>dir_255073caeab54e3c715574845ba4b898&#45;&gt;dir_dee7b2cf51f0719d61c9bcb7f2f06001</title>
<path fill="none" stroke="black" d="M146.44,-311.7C148.89,-303.9 151.84,-294.51 154.57,-285.83"/>
<polygon fill="black" stroke="black" points="157.96,-286.69 157.62,-276.1 151.29,-284.59 157.96,-286.69"/>
<g id="a_edge17&#45;headlabel"><a xlink:href="dir_000005_000011.html" target="_top" xlink:title="1">
<text text-anchor="middle" x="159.6" y="-288.47" font-family="Helvetica,sans-Serif" font-size="10.00">1</text>
</a>
</g>
</g>
<!-- dir_255073caeab54e3c715574845ba4b898&#45;&gt;dir_366a47d27432147542e5f7548d7df575 -->
<g id="edge13" class="edge">
<title>dir_255073caeab54e3c715574845ba4b898&#45;&gt;dir_366a47d27432147542e5f7548d7df575</title>
<path fill="none" stroke="black" d="M134.26,-311.76C128.13,-293.7 120.9,-264.59 127,-240 129.29,-230.75 133.53,-221.34 138.02,-213.07"/>
<polygon fill="black" stroke="black" points="141.13,-214.68 143.11,-204.28 135.07,-211.17 141.13,-214.68"/>
<g id="a_edge13&#45;headlabel"><a xlink:href="dir_000005_000012.html" target="_top" xlink:title="1">
<text text-anchor="middle" x="141.78" y="-216.72" font-family="Helvetica,sans-Serif" font-size="10.00">1</text>
</a>
</g>
</g>
<!-- dir_123f1f7ecbbeeb7ce6bbb34d36fe9b6f -->
<g id="node14" class="node">
<title>dir_123f1f7ecbbeeb7ce6bbb34d36fe9b6f</title>
<g id="a_node14"><a xlink:href="dir_123f1f7ecbbeeb7ce6bbb34d36fe9b6f.html" target="_top" xlink:title="Timer">
<polygon fill="white" stroke="black" points="134,-132 80,-132 80,-96 134,-96 134,-132"/>
<text text-anchor="middle" x="107" y="-111.5" font-family="Helvetica,sans-Serif" font-size="10.00">Timer</text>
</a>
</g>
</g>
<!-- dir_255073caeab54e3c715574845ba4b898&#45;&gt;dir_123f1f7ecbbeeb7ce6bbb34d36fe9b6f -->
<g id="edge12" class="edge">
<title>dir_255073caeab54e3c715574845ba4b898&#45;&gt;dir_123f1f7ecbbeeb7ce6bbb34d36fe9b6f</title>
<path fill="none" stroke="black" d="M113.81,-315.84C82.79,-300.76 36.15,-277.87 35,-276 6.83,-230.43 50.81,-171.94 81.46,-139.48"/>
<polygon fill="black" stroke="black" points="84.08,-141.81 88.53,-132.2 79.06,-136.93 84.08,-141.81"/>
<g id="a_edge12&#45;headlabel"><a xlink:href="dir_000005_000013.html" target="_top" xlink:title="1">
<text text-anchor="middle" x="83.61" y="-143.87" font-family="Helvetica,sans-Serif" font-size="10.00">1</text>
</a>
</g>
</g>
<!-- dir_cac8883e60e9501f6ec47f21e507278d -->
<g id="node7" class="node">
<title>dir_cac8883e60e9501f6ec47f21e507278d</title>
<g id="a_node7"><a xlink:href="dir_cac8883e60e9501f6ec47f21e507278d.html" target="_top" xlink:title="Exceptions">
<polygon fill="white" stroke="black" points="360,-348 296,-348 296,-312 360,-312 360,-348"/>
<text text-anchor="middle" x="328" y="-327.5" font-family="Helvetica,sans-Serif" font-size="10.00">Exceptions</text>
</a>
</g>
</g>
<!-- dir_cac8883e60e9501f6ec47f21e507278d&#45;&gt;dir_de77370fa4c160312bb88f5d1919228b -->
<g id="edge29" class="edge">
<title>dir_cac8883e60e9501f6ec47f21e507278d&#45;&gt;dir_de77370fa4c160312bb88f5d1919228b</title>
<path fill="none" stroke="black" d="M360.11,-315.19C376.25,-306.45 394.38,-293.47 404,-276 414.29,-257.31 414.65,-232.93 412.8,-214.41"/>
<polygon fill="black" stroke="black" points="416.24,-213.75 411.51,-204.27 409.3,-214.63 416.24,-213.75"/>
<g id="a_edge29&#45;headlabel"><a xlink:href="dir_000006_000015.html" target="_top" xlink:title="1">
<text text-anchor="middle" x="419.51" y="-214.45" font-family="Helvetica,sans-Serif" font-size="10.00">1</text>
</a>
</g>
</g>
<!-- dir_4ad73661ceecee2f59b8c0b0178f9787&#45;&gt;dir_de77370fa4c160312bb88f5d1919228b -->
<g id="edge4" class="edge">
<title>dir_4ad73661ceecee2f59b8c0b0178f9787&#45;&gt;dir_de77370fa4c160312bb88f5d1919228b</title>
<path fill="none" stroke="black" d="M275.45,-132.21C313.23,-150.19 324.48,-151.04 363,-168 364.17,-168.52 365.37,-169.05 366.57,-169.59"/>
<polygon fill="black" stroke="black" points="365.44,-172.92 376,-173.84 368.32,-166.54 365.44,-172.92"/>
<g id="a_edge4&#45;headlabel"><a xlink:href="dir_000007_000015.html" target="_top" xlink:title="3">
<text text-anchor="middle" x="361" y="-171.53" font-family="Helvetica,sans-Serif" font-size="10.00">3</text>
</a>
</g>
</g>
<!-- dir_28e29a0aa9a4f72dd894b881b26f9dfb -->
<g id="node9" class="node">
<title>dir_28e29a0aa9a4f72dd894b881b26f9dfb</title>
<g id="a_node9"><a xlink:href="dir_28e29a0aa9a4f72dd894b881b26f9dfb.html" target="_top" xlink:title="LevelParser">
<polygon fill="white" stroke="black" points="359.5,-60 290.5,-60 290.5,-24 359.5,-24 359.5,-60"/>
<text text-anchor="middle" x="325" y="-39.5" font-family="Helvetica,sans-Serif" font-size="10.00">LevelParser</text>
</a>
</g>
</g>
<!-- dir_4ad73661ceecee2f59b8c0b0178f9787&#45;&gt;dir_28e29a0aa9a4f72dd894b881b26f9dfb -->
<g id="edge2" class="edge">
<title>dir_4ad73661ceecee2f59b8c0b0178f9787&#45;&gt;dir_28e29a0aa9a4f72dd894b881b26f9dfb</title>
<path fill="none" stroke="black" d="M270.8,-95.7C279.6,-87.14 290.38,-76.66 300,-67.3"/>
<polygon fill="black" stroke="black" points="302.68,-69.58 307.41,-60.1 297.8,-64.57 302.68,-69.58"/>
<g id="a_edge2&#45;headlabel"><a xlink:href="dir_000007_000008.html" target="_top" xlink:title="1">
<text text-anchor="middle" x="302.08" y="-71.63" font-family="Helvetica,sans-Serif" font-size="10.00">1</text>
</a>
</g>
</g>
<!-- dir_4ad73661ceecee2f59b8c0b0178f9787&#45;&gt;dir_eb4af4e99dee9ee973ff499f28504984 -->
<g id="edge5" class="edge">
<title>dir_4ad73661ceecee2f59b8c0b0178f9787&#45;&gt;dir_eb4af4e99dee9ee973ff499f28504984</title>
<path fill="none" stroke="black" d="M258.9,-132.1C259.7,-139.79 259.94,-149.05 259.6,-157.67"/>
<polygon fill="black" stroke="black" points="256.11,-157.48 258.92,-167.7 263.09,-157.96 256.11,-157.48"/>
<g id="a_edge5&#45;headlabel"><a xlink:href="dir_000007_000009.html" target="_top" xlink:title="2">
<text text-anchor="middle" x="253.52" y="-151.2" font-family="Helvetica,sans-Serif" font-size="10.00">2</text>
</a>
</g>
</g>
<!-- dir_87059d60c7dfcd3dc8f50ab725effb95 -->
<g id="node15" class="node">
<title>dir_87059d60c7dfcd3dc8f50ab725effb95</title>
<g id="a_node15"><a xlink:href="dir_87059d60c7dfcd3dc8f50ab725effb95.html" target="_top" xlink:title="Utility">
<polygon fill="white" stroke="black" points="272,-60 218,-60 218,-24 272,-24 272,-60"/>
<text text-anchor="middle" x="245" y="-39.5" font-family="Helvetica,sans-Serif" font-size="10.00">Utility</text>
</a>
</g>
</g>
<!-- dir_4ad73661ceecee2f59b8c0b0178f9787&#45;&gt;dir_87059d60c7dfcd3dc8f50ab725effb95 -->
<g id="edge3" class="edge">
<title>dir_4ad73661ceecee2f59b8c0b0178f9787&#45;&gt;dir_87059d60c7dfcd3dc8f50ab725effb95</title>
<path fill="none" stroke="black" d="M251.02,-95.7C250.14,-87.98 249.08,-78.71 248.1,-70.11"/>
<polygon fill="black" stroke="black" points="251.57,-69.64 246.95,-60.1 244.61,-70.44 251.57,-69.64"/>
<g id="a_edge3&#45;headlabel"><a xlink:href="dir_000007_000014.html" target="_top" xlink:title="2">
<text text-anchor="middle" x="254.8" y="-70.39" font-family="Helvetica,sans-Serif" font-size="10.00">2</text>
</a>
</g>
</g>
<!-- dir_28e29a0aa9a4f72dd894b881b26f9dfb&#45;&gt;dir_de77370fa4c160312bb88f5d1919228b -->
<g id="edge6" class="edge">
<title>dir_28e29a0aa9a4f72dd894b881b26f9dfb&#45;&gt;dir_de77370fa4c160312bb88f5d1919228b</title>
<path fill="none" stroke="black" d="M335.05,-60.19C349.46,-84.85 376.12,-130.46 392.91,-159.19"/>
<polygon fill="black" stroke="black" points="389.92,-161 397.99,-167.87 395.96,-157.47 389.92,-161"/>
<g id="a_edge6&#45;headlabel"><a xlink:href="dir_000008_000015.html" target="_top" xlink:title="2">
<text text-anchor="middle" x="385.66" y="-156.83" font-family="Helvetica,sans-Serif" font-size="10.00">2</text>
</a>
</g>
</g>
<!-- dir_eb4af4e99dee9ee973ff499f28504984&#45;&gt;dir_de77370fa4c160312bb88f5d1919228b -->
<g id="edge31" class="edge">
<title>dir_eb4af4e99dee9ee973ff499f28504984&#45;&gt;dir_de77370fa4c160312bb88f5d1919228b</title>
<path fill="none" stroke="black" d="M286.3,-186C312.72,-186 339.13,-186 365.55,-186"/>
<polygon fill="black" stroke="black" points="365.67,-189.5 375.67,-186 365.67,-182.5 365.67,-189.5"/>
<g id="a_edge31&#45;headlabel"><a xlink:href="dir_000009_000015.html" target="_top" xlink:title="3">
<text text-anchor="middle" x="362.08" y="-189.84" font-family="Helvetica,sans-Serif" font-size="10.00">3</text>
</a>
</g>
</g>
<!-- dir_eb4af4e99dee9ee973ff499f28504984&#45;&gt;dir_4ad73661ceecee2f59b8c0b0178f9787 -->
<g id="edge30" class="edge">
<title>dir_eb4af4e99dee9ee973ff499f28504984&#45;&gt;dir_4ad73661ceecee2f59b8c0b0178f9787</title>
<path fill="none" stroke="black" d="M247.08,-167.7C246.29,-159.98 246.06,-150.71 246.4,-142.11"/>
<polygon fill="black" stroke="black" points="249.9,-142.32 247.1,-132.1 242.92,-141.84 249.9,-142.32"/>
<g id="a_edge30&#45;headlabel"><a xlink:href="dir_000009_000007.html" target="_top" xlink:title="2">
<text text-anchor="middle" x="252.48" y="-143.61" font-family="Helvetica,sans-Serif" font-size="10.00">2</text>
</a>
</g>
</g>
<!-- dir_72722e64122ba09534fd16b67552a996&#45;&gt;dir_de77370fa4c160312bb88f5d1919228b -->
<g id="edge1" class="edge">
<title>dir_72722e64122ba09534fd16b67552a996&#45;&gt;dir_de77370fa4c160312bb88f5d1919228b</title>
<path fill="none" stroke="black" d="M282.42,-239.81C317.89,-223.56 327.33,-220.35 363,-204 364.17,-203.47 365.35,-202.92 366.55,-202.37"/>
<polygon fill="black" stroke="black" points="368.32,-205.4 375.95,-198.05 365.4,-199.04 368.32,-205.4"/>
<g id="a_edge1&#45;headlabel"><a xlink:href="dir_000010_000015.html" target="_top" xlink:title="7">
<text text-anchor="middle" x="366.24" y="-206.98" font-family="Helvetica,sans-Serif" font-size="10.00">7</text>
</a>
</g>
</g>
<!-- dir_dee7b2cf51f0719d61c9bcb7f2f06001&#45;&gt;dir_de77370fa4c160312bb88f5d1919228b -->
<g id="edge21" class="edge">
<title>dir_dee7b2cf51f0719d61c9bcb7f2f06001&#45;&gt;dir_de77370fa4c160312bb88f5d1919228b</title>
<path fill="none" stroke="black" d="M190.24,-248.35C199.35,-245.56 209.58,-242.53 219,-240 283.29,-222.7 304.11,-226.61 366.44,-205.8"/>
<polygon fill="black" stroke="black" points="367.62,-209.09 375.95,-202.54 365.36,-202.47 367.62,-209.09"/>
<g id="a_edge21&#45;headlabel"><a xlink:href="dir_000011_000015.html" target="_top" xlink:title="2">
<text text-anchor="middle" x="365.14" y="-210.44" font-family="Helvetica,sans-Serif" font-size="10.00">2</text>
</a>
</g>
</g>
<!-- dir_dee7b2cf51f0719d61c9bcb7f2f06001&#45;&gt;dir_4ad73661ceecee2f59b8c0b0178f9787 -->
<g id="edge20" class="edge">
<title>dir_dee7b2cf51f0719d61c9bcb7f2f06001&#45;&gt;dir_4ad73661ceecee2f59b8c0b0178f9787</title>
<path fill="none" stroke="black" d="M172.03,-239.87C184.69,-215.92 206.66,-174.6 211,-168 217.26,-158.49 224.81,-148.58 231.77,-139.93"/>
<polygon fill="black" stroke="black" points="234.57,-142.04 238.2,-132.09 229.15,-137.6 234.57,-142.04"/>
<g id="a_edge20&#45;headlabel"><a xlink:href="dir_000011_000007.html" target="_top" xlink:title="1">
<text text-anchor="middle" x="234.48" y="-144.12" font-family="Helvetica,sans-Serif" font-size="10.00">1</text>
</a>
</g>
</g>
<!-- dir_dee7b2cf51f0719d61c9bcb7f2f06001&#45;&gt;dir_366a47d27432147542e5f7548d7df575 -->
<g id="edge19" class="edge">
<title>dir_dee7b2cf51f0719d61c9bcb7f2f06001&#45;&gt;dir_366a47d27432147542e5f7548d7df575</title>
<path fill="none" stroke="black" d="M155.11,-239.7C153.43,-231.98 152.14,-222.71 151.5,-214.11"/>
<polygon fill="black" stroke="black" points="155,-213.94 151.06,-204.1 148.01,-214.25 155,-213.94"/>
<g id="a_edge19&#45;headlabel"><a xlink:href="dir_000011_000012.html" target="_top" xlink:title="1">
<text text-anchor="middle" x="157.99" y="-214.9" font-family="Helvetica,sans-Serif" font-size="10.00">1</text>
</a>
</g>
</g>
<!-- dir_366a47d27432147542e5f7548d7df575&#45;&gt;dir_de77370fa4c160312bb88f5d1919228b -->
<g id="edge27" class="edge">
<title>dir_366a47d27432147542e5f7548d7df575&#45;&gt;dir_de77370fa4c160312bb88f5d1919228b</title>
<path fill="none" stroke="black" d="M180.59,-204.12C192.08,-211.17 206.14,-218.42 220,-222 281.53,-237.9 303.03,-243.04 363,-222 370.14,-219.5 376.99,-215.33 383.09,-210.7"/>
<polygon fill="black" stroke="black" points="385.45,-213.29 390.92,-204.22 380.99,-207.9 385.45,-213.29"/>
<g id="a_edge27&#45;headlabel"><a xlink:href="dir_000012_000015.html" target="_top" xlink:title="5">
<text text-anchor="middle" x="384.5" y="-215.27" font-family="Helvetica,sans-Serif" font-size="10.00">5</text>
</a>
</g>
</g>
<!-- dir_366a47d27432147542e5f7548d7df575&#45;&gt;dir_4ad73661ceecee2f59b8c0b0178f9787 -->
<g id="edge26" class="edge">
<title>dir_366a47d27432147542e5f7548d7df575&#45;&gt;dir_4ad73661ceecee2f59b8c0b0178f9787</title>
<path fill="none" stroke="black" d="M178.97,-167.88C191.55,-158.89 207.13,-147.76 220.75,-138.03"/>
<polygon fill="black" stroke="black" points="222.83,-140.85 228.93,-132.19 218.76,-135.15 222.83,-140.85"/>
<g id="a_edge26&#45;headlabel"><a xlink:href="dir_000012_000007.html" target="_top" xlink:title="1">
<text text-anchor="middle" x="221.56" y="-142.75" font-family="Helvetica,sans-Serif" font-size="10.00">1</text>
</a>
</g>
</g>
<!-- dir_366a47d27432147542e5f7548d7df575&#45;&gt;dir_dee7b2cf51f0719d61c9bcb7f2f06001 -->
<g id="edge28" class="edge">
<title>dir_366a47d27432147542e5f7548d7df575&#45;&gt;dir_dee7b2cf51f0719d61c9bcb7f2f06001</title>
<path fill="none" stroke="black" d="M162.85,-204.1C164.53,-211.79 165.83,-221.05 166.48,-229.67"/>
<polygon fill="black" stroke="black" points="162.99,-229.87 166.94,-239.7 169.98,-229.55 162.99,-229.87"/>
<g id="a_edge28&#45;headlabel"><a xlink:href="dir_000012_000011.html" target="_top" xlink:title="1">
<text text-anchor="middle" x="159.99" y="-223.91" font-family="Helvetica,sans-Serif" font-size="10.00">1</text>
</a>
</g>
</g>
<!-- dir_366a47d27432147542e5f7548d7df575&#45;&gt;dir_123f1f7ecbbeeb7ce6bbb34d36fe9b6f -->
<g id="edge25" class="edge">
<title>dir_366a47d27432147542e5f7548d7df575&#45;&gt;dir_123f1f7ecbbeeb7ce6bbb34d36fe9b6f</title>
<path fill="none" stroke="black" d="M143.13,-167.7C137.5,-159.47 130.65,-149.48 124.43,-140.42"/>
<polygon fill="black" stroke="black" points="127.27,-138.37 118.73,-132.1 121.5,-142.33 127.27,-138.37"/>
<g id="a_edge25&#45;headlabel"><a xlink:href="dir_000012_000013.html" target="_top" xlink:title="1">
<text text-anchor="middle" x="131.65" y="-137.23" font-family="Helvetica,sans-Serif" font-size="10.00">1</text>
</a>
</g>
</g>
</g>
</svg>
