<?xml version="1.0" encoding="UTF-8" standalone="no"?>
<!DOCTYPE svg PUBLIC "-//W3C//DTD SVG 1.1//EN"
 "http://www.w3.org/Graphics/SVG/1.1/DTD/svg11.dtd">
<!-- Generated by graphviz version 2.44.0 ()
 -->
<!-- Title: includes/platformer&#45;engine/Behaviour Pages: 1 -->
<svg width="180pt" height="167pt"
 viewBox="0.00 0.00 180.00 167.00" xmlns="http://www.w3.org/2000/svg" xmlns:xlink="http://www.w3.org/1999/xlink">
<g id="graph0" class="graph" transform="scale(1 1) rotate(0) translate(4 163)">
<title>includes/platformer&#45;engine/Behaviour</title>
<g id="clust1" class="cluster">
<title>clusterdir_1587a151464512ea3626aba36cd93a86</title>
<g id="a_clust1"><a xlink:href="dir_1587a151464512ea3626aba36cd93a86.html" target="_top" xlink:title="platformer&#45;engine">
<polygon fill="#ddddee" stroke="black" points="8,-8 8,-151 100,-151 100,-8 8,-8"/>
<text text-anchor="middle" x="54" y="-139" font-family="Helvetica,sans-Serif" font-size="10.00">platformer&#45;engine</text>
</a>
</g>
</g>
<!-- dir_87059d60c7dfcd3dc8f50ab725effb95 -->
<g id="node1" class="node">
<title>dir_87059d60c7dfcd3dc8f50ab725effb95</title>
<g id="a_node1"><a xlink:href="dir_87059d60c7dfcd3dc8f50ab725effb95.html" target="_top" xlink:title="Utility">
<polygon fill="none" stroke="black" points="89,-52 35,-52 35,-16 89,-16 89,-52"/>
<text text-anchor="middle" x="62" y="-31.5" font-family="Helvetica,sans-Serif" font-size="10.00">Utility</text>
</a>
</g>
</g>
<!-- dir_ad5ef619f038a25d047111bf855feef3 -->
<g id="node2" class="node">
<title>dir_ad5ef619f038a25d047111bf855feef3</title>
<g id="a_node2"><a xlink:href="dir_ad5ef619f038a25d047111bf855feef3.html" target="_top" xlink:title="Behaviour">
<polygon fill="#eeeeff" stroke="black" points="92,-124 32,-124 32,-88 92,-88 92,-124"/>
<text text-anchor="middle" x="62" y="-103.5" font-family="Helvetica,sans-Serif" font-size="10.00">Behaviour</text>
</a>
</g>
</g>
<!-- dir_ad5ef619f038a25d047111bf855feef3&#45;&gt;dir_87059d60c7dfcd3dc8f50ab725effb95 -->
<g id="edge1" class="edge">
<title>dir_ad5ef619f038a25d047111bf855feef3&#45;&gt;dir_87059d60c7dfcd3dc8f50ab725effb95</title>
<path fill="none" stroke="black" d="M62,-87.7C62,-79.98 62,-70.71 62,-62.11"/>
<polygon fill="black" stroke="black" points="65.5,-62.1 62,-52.1 58.5,-62.1 65.5,-62.1"/>
<g id="a_edge1&#45;headlabel"><a xlink:href="dir_000003_000020.html" target="_top" xlink:title="1">
<text text-anchor="middle" x="68.34" y="-63.2" font-family="Helvetica,sans-Serif" font-size="10.00">1</text>
</a>
</g>
</g>
<!-- dir_de77370fa4c160312bb88f5d1919228b -->
<g id="node3" class="node">
<title>dir_de77370fa4c160312bb88f5d1919228b</title>
<g id="a_node3"><a xlink:href="dir_de77370fa4c160312bb88f5d1919228b.html" target="_top" xlink:title="spic&#45;prj&#45;api">
<polygon fill="none" stroke="black" points="172,-52 108,-52 108,-16 172,-16 172,-52"/>
<text text-anchor="middle" x="140" y="-31.5" font-family="Helvetica,sans-Serif" font-size="10.00">spic&#45;prj&#45;api</text>
</a>
</g>
</g>
<!-- dir_ad5ef619f038a25d047111bf855feef3&#45;&gt;dir_de77370fa4c160312bb88f5d1919228b -->
<g id="edge2" class="edge">
<title>dir_ad5ef619f038a25d047111bf855feef3&#45;&gt;dir_de77370fa4c160312bb88f5d1919228b</title>
<path fill="none" stroke="black" d="M81.28,-87.7C90.92,-79.05 102.73,-68.45 113.23,-59.03"/>
<polygon fill="black" stroke="black" points="115.84,-61.39 120.94,-52.1 111.16,-56.18 115.84,-61.39"/>
<g id="a_edge2&#45;headlabel"><a xlink:href="dir_000003_000021.html" target="_top" xlink:title="3">
<text text-anchor="middle" x="115.06" y="-63.4" font-family="Helvetica,sans-Serif" font-size="10.00">3</text>
</a>
</g>
</g>
</g>
</svg>
