<?xml version="1.0" encoding="UTF-8" standalone="no"?>
<!DOCTYPE svg PUBLIC "-//W3C//DTD SVG 1.1//EN"
 "http://www.w3.org/Graphics/SVG/1.1/DTD/svg11.dtd">
<!-- Generated by graphviz version 2.44.0 ()
 -->
<!-- Title: includes/platformer&#45;engine/Engine/Engine.hpp Pages: 1 -->
<!--zoomable 319 -->
<svg id="main" version="1.1" xmlns="http://www.w3.org/2000/svg" xmlns:xlink="http://www.w3.org/1999/xlink" xml:space="preserve" onload="init(evt)">
<style type="text/css"><![CDATA[
.edge:hover path { stroke: red; }
.edge:hover polygon { stroke: red; fill: red; }
]]></style>
<script type="text/javascript"><![CDATA[
var edges = document.getElementsByTagName('g');
if (edges && edges.length) {
  for (var i=0;i<edges.length;i++) {
    if (edges[i].id.substr(0,4)=='edge') {
      edges[i].setAttribute('class','edge');
    }
  }
}
]]></script>
        <defs>
                <circle id="rim" cx="0" cy="0" r="7"/>
                <circle id="rim2" cx="0" cy="0" r="3.5"/>
                <g id="zoomPlus">
                        <use xlink:href="#rim" fill="#404040">
                                <set attributeName="fill" to="#808080" begin="zoomplus.mouseover" end="zoomplus.mouseout"/>
                        </use>
                        <path d="M-4,0h8M0,-4v8" fill="none" stroke="white" stroke-width="1.5" pointer-events="none"/>
                </g>
                <g id="zoomMin">
                        <use xlink:href="#rim" fill="#404040">
                                <set attributeName="fill" to="#808080" begin="zoomminus.mouseover" end="zoomminus.mouseout"/>
                        </use>
                        <path d="M-4,0h8" fill="none" stroke="white" stroke-width="1.5" pointer-events="none"/>
                </g>
                <g id="dirArrow">
                        <path fill="none" stroke="white" stroke-width="1.5" d="M0,-3.0v7 M-2.5,-0.5L0,-3.0L2.5,-0.5"/>
                </g>
               <g id="resetDef">
                       <use xlink:href="#rim2" fill="#404040">
                               <set attributeName="fill" to="#808080" begin="reset.mouseover" end="reset.mouseout"/>
                       </use>
               </g>
        </defs>

<script type="text/javascript">
var viewWidth = 1516;
var viewHeight = 319;
var sectionId = 'dynsection-0';
</script>
<script xlink:href="svgpan.js"/>
<svg id="graph" class="graph">
<g id="viewport">
<title>includes/platformer&#45;engine/Engine/Engine.hpp</title>
<!-- Node1 -->
<g id="node1" class="node">
<title>Node1</title>
<g id="a_node1"><a xlink:title=" ">
<polygon fill="#bfbfbf" stroke="black" points="937,-280.5 937,-310.5 1068,-310.5 1068,-280.5 937,-280.5"/>
<text text-anchor="start" x="945" y="-298.5" font-family="Helvetica,sans-Serif" font-size="10.00">includes/platformer</text>
<text text-anchor="middle" x="1002.5" y="-287.5" font-family="Helvetica,sans-Serif" font-size="10.00">&#45;engine/Engine/Engine.hpp</text>
</a>
</g>
</g>
<!-- Node2 -->
<g id="node2" class="node">
<title>Node2</title>
<g id="a_node2"><a xlink:href="Window_8hpp.html" target="_top" xlink:title=" ">
<polygon fill="none" stroke="black" points="336,-224.5 336,-243.5 439,-243.5 439,-224.5 336,-224.5"/>
<text text-anchor="middle" x="387.5" y="-231.5" font-family="Helvetica,sans-Serif" font-size="10.00">Render/Window.hpp</text>
</a>
</g>
</g>
<!-- Node1&#45;&gt;Node2 -->
<g id="edge1" class="edge">
<title>Node1&#45;&gt;Node2</title>
<path fill="none" stroke="midnightblue" d="M936.98,-288.16C817.55,-276.61 566.06,-252.27 449.38,-240.99"/>
<polygon fill="midnightblue" stroke="midnightblue" points="449.48,-237.48 439.19,-240 448.81,-244.45 449.48,-237.48"/>
</g>
<!-- Node10 -->
<g id="node10" class="node">
<title>Node10</title>
<g id="a_node10"><a xlink:title=" ">
<polygon fill="none" stroke="#bfbfbf" points="1045,-56.5 1045,-75.5 1096,-75.5 1096,-56.5 1045,-56.5"/>
<text text-anchor="middle" x="1070.5" y="-63.5" font-family="Helvetica,sans-Serif" font-size="10.00">memory</text>
</a>
</g>
</g>
<!-- Node1&#45;&gt;Node10 -->
<g id="edge54" class="edge">
<title>Node1&#45;&gt;Node10</title>
<path fill="none" stroke="midnightblue" d="M1023.03,-280.36C1034.36,-271.36 1047.51,-258.65 1054.5,-244 1079.69,-191.19 1076.34,-119.49 1072.91,-85.87"/>
<polygon fill="midnightblue" stroke="midnightblue" points="1076.36,-85.19 1071.74,-75.66 1069.4,-85.99 1076.36,-85.19"/>
</g>
<!-- Node21 -->
<g id="node21" class="node">
<title>Node21</title>
<g id="a_node21"><a xlink:href="Timer_8hpp.html" target="_top" xlink:title=" ">
<polygon fill="none" stroke="black" points="959,-224.5 959,-243.5 1046,-243.5 1046,-224.5 959,-224.5"/>
<text text-anchor="middle" x="1002.5" y="-231.5" font-family="Helvetica,sans-Serif" font-size="10.00">Timer/Timer.hpp</text>
</a>
</g>
</g>
<!-- Node1&#45;&gt;Node21 -->
<g id="edge27" class="edge">
<title>Node1&#45;&gt;Node21</title>
<path fill="none" stroke="midnightblue" d="M1002.5,-280.4C1002.5,-272.47 1002.5,-262.46 1002.5,-253.86"/>
<polygon fill="midnightblue" stroke="midnightblue" points="1006,-253.66 1002.5,-243.66 999,-253.66 1006,-253.66"/>
</g>
<!-- Node23 -->
<g id="node23" class="node">
<title>Node23</title>
<g id="a_node23"><a xlink:href="PhysicsSystem_8hpp.html" target="_top" xlink:title=" ">
<polygon fill="none" stroke="black" points="842.5,-168.5 842.5,-187.5 982.5,-187.5 982.5,-168.5 842.5,-168.5"/>
<text text-anchor="middle" x="912.5" y="-175.5" font-family="Helvetica,sans-Serif" font-size="10.00">Physics/PhysicsSystem.hpp</text>
</a>
</g>
</g>
<!-- Node1&#45;&gt;Node23 -->
<g id="edge29" class="edge">
<title>Node1&#45;&gt;Node23</title>
<path fill="none" stroke="midnightblue" d="M985.01,-280.17C974.02,-270.62 959.99,-257.42 949.5,-244 938.03,-229.33 927.8,-210.69 921.02,-197.14"/>
<polygon fill="midnightblue" stroke="midnightblue" points="924.06,-195.38 916.54,-187.92 917.76,-198.44 924.06,-195.38"/>
</g>
<!-- Node30 -->
<g id="node30" class="node">
<title>Node30</title>
<g id="a_node30"><a xlink:href="GameLevel_8hpp.html" target="_top" xlink:title=" ">
<polygon fill="none" stroke="black" points="1102.5,-112.5 1102.5,-131.5 1240.5,-131.5 1240.5,-112.5 1102.5,-112.5"/>
<text text-anchor="middle" x="1171.5" y="-119.5" font-family="Helvetica,sans-Serif" font-size="10.00">GameLevel/GameLevel.hpp</text>
</a>
</g>
</g>
<!-- Node1&#45;&gt;Node30 -->
<g id="edge50" class="edge">
<title>Node1&#45;&gt;Node30</title>
<path fill="none" stroke="midnightblue" d="M1033.75,-280.38C1051.12,-271.54 1072.41,-258.99 1088.5,-244 1121.91,-212.86 1149.24,-165.98 1162.61,-140.69"/>
<polygon fill="midnightblue" stroke="midnightblue" points="1165.84,-142.05 1167.32,-131.56 1159.63,-138.84 1165.84,-142.05"/>
</g>
<!-- Node3 -->
<g id="node3" class="node">
<title>Node3</title>
<g id="a_node3"><a xlink:title=" ">
<polygon fill="none" stroke="#bfbfbf" points="565,-56.5 565,-75.5 606,-75.5 606,-56.5 565,-56.5"/>
<text text-anchor="middle" x="585.5" y="-63.5" font-family="Helvetica,sans-Serif" font-size="10.00">string</text>
</a>
</g>
</g>
<!-- Node2&#45;&gt;Node3 -->
<g id="edge2" class="edge">
<title>Node2&#45;&gt;Node3</title>
<path fill="none" stroke="midnightblue" d="M379.29,-224.18C371.96,-215.66 361.74,-202.02 357.5,-188 346.98,-153.24 358.48,-133.83 387.5,-112 446.02,-67.97 478.78,-92.74 554.89,-75.82"/>
<polygon fill="midnightblue" stroke="midnightblue" points="556,-79.16 564.9,-73.42 554.36,-72.35 556,-79.16"/>
</g>
<!-- Node4 -->
<g id="node4" class="node">
<title>Node4</title>
<g id="a_node4"><a xlink:href="Color_8hpp.html" target="_top" xlink:title=" ">
<polygon fill="none" stroke="black" points="0,-56.5 0,-75.5 57,-75.5 57,-56.5 0,-56.5"/>
<text text-anchor="middle" x="28.5" y="-63.5" font-family="Helvetica,sans-Serif" font-size="10.00">Color.hpp</text>
</a>
</g>
</g>
<!-- Node2&#45;&gt;Node4 -->
<g id="edge3" class="edge">
<title>Node2&#45;&gt;Node4</title>
<path fill="none" stroke="midnightblue" d="M367.24,-224.38C327.26,-207.29 235.53,-167.68 159.5,-132 122.65,-114.71 80.58,-93.58 54.28,-80.21"/>
<polygon fill="midnightblue" stroke="midnightblue" points="55.84,-77.07 45.34,-75.65 52.66,-83.31 55.84,-77.07"/>
</g>
<!-- Node5 -->
<g id="node5" class="node">
<title>Node5</title>
<g id="a_node5"><a xlink:href="GraphicsFacade_8hpp.html" target="_top" xlink:title=" ">
<polygon fill="none" stroke="black" points="169,-112.5 169,-131.5 310,-131.5 310,-112.5 169,-112.5"/>
<text text-anchor="middle" x="239.5" y="-119.5" font-family="Helvetica,sans-Serif" font-size="10.00">Facade/GraphicsFacade.hpp</text>
</a>
</g>
</g>
<!-- Node2&#45;&gt;Node5 -->
<g id="edge4" class="edge">
<title>Node2&#45;&gt;Node5</title>
<path fill="none" stroke="midnightblue" d="M375.34,-224.49C362.59,-215.53 342.01,-200.94 324.5,-188 301.6,-171.07 275.65,-151.11 258.51,-137.82"/>
<polygon fill="midnightblue" stroke="midnightblue" points="260.46,-134.9 250.42,-131.53 256.16,-140.43 260.46,-134.9"/>
</g>
<!-- Node14 -->
<g id="node14" class="node">
<title>Node14</title>
<g id="a_node14"><a xlink:href="TextureManager_8hpp.html" target="_top" xlink:title=" ">
<polygon fill="none" stroke="black" points="366.5,-168.5 366.5,-187.5 506.5,-187.5 506.5,-168.5 366.5,-168.5"/>
<text text-anchor="middle" x="436.5" y="-175.5" font-family="Helvetica,sans-Serif" font-size="10.00">Texture/TextureManager.hpp</text>
</a>
</g>
</g>
<!-- Node2&#45;&gt;Node14 -->
<g id="edge15" class="edge">
<title>Node2&#45;&gt;Node14</title>
<path fill="none" stroke="midnightblue" d="M395.59,-224.08C402.66,-216.3 413.09,-204.8 421.65,-195.37"/>
<polygon fill="midnightblue" stroke="midnightblue" points="424.43,-197.51 428.56,-187.75 419.25,-192.8 424.43,-197.51"/>
</g>
<!-- Node16 -->
<g id="node16" class="node">
<title>Node16</title>
<g id="a_node16"><a xlink:href="InputFacade_8hpp.html" target="_top" xlink:title=" ">
<polygon fill="none" stroke="black" points="572.5,-168.5 572.5,-187.5 696.5,-187.5 696.5,-168.5 572.5,-168.5"/>
<text text-anchor="middle" x="634.5" y="-175.5" font-family="Helvetica,sans-Serif" font-size="10.00">Facade/InputFacade.hpp</text>
</a>
</g>
</g>
<!-- Node2&#45;&gt;Node16 -->
<g id="edge19" class="edge">
<title>Node2&#45;&gt;Node16</title>
<path fill="none" stroke="midnightblue" d="M426.64,-224.44C469.73,-215.02 539.06,-199.87 585.67,-189.68"/>
<polygon fill="midnightblue" stroke="midnightblue" points="586.52,-193.07 595.55,-187.52 585.03,-186.23 586.52,-193.07"/>
</g>
<!-- Node5&#45;&gt;Node3 -->
<g id="edge12" class="edge">
<title>Node5&#45;&gt;Node3</title>
<path fill="none" stroke="midnightblue" d="M307.99,-112.47C381.9,-103.06 495.87,-87.91 554.93,-75.76"/>
<polygon fill="midnightblue" stroke="midnightblue" points="555.91,-79.13 564.95,-73.61 554.44,-72.29 555.91,-79.13"/>
</g>
<!-- Node5&#45;&gt;Node4 -->
<g id="edge8" class="edge">
<title>Node5&#45;&gt;Node4</title>
<path fill="none" stroke="midnightblue" d="M206.07,-112.44C168.22,-102.76 106.69,-87.01 66.9,-76.83"/>
<polygon fill="midnightblue" stroke="midnightblue" points="67.6,-73.39 57.04,-74.3 65.86,-80.17 67.6,-73.39"/>
</g>
<!-- Node6 -->
<g id="node6" class="node">
<title>Node6</title>
<g id="a_node6"><a xlink:title=" ">
<polygon fill="none" stroke="#bfbfbf" points="152,-56.5 152,-75.5 223,-75.5 223,-56.5 152,-56.5"/>
<text text-anchor="middle" x="187.5" y="-63.5" font-family="Helvetica,sans-Serif" font-size="10.00">SDL2/SDL.h</text>
</a>
</g>
</g>
<!-- Node5&#45;&gt;Node6 -->
<g id="edge5" class="edge">
<title>Node5&#45;&gt;Node6</title>
<path fill="none" stroke="midnightblue" d="M230.91,-112.08C223.34,-104.22 212.12,-92.57 202.99,-83.08"/>
<polygon fill="midnightblue" stroke="midnightblue" points="205.38,-80.53 195.93,-75.75 200.34,-85.38 205.38,-80.53"/>
</g>
<!-- Node7 -->
<g id="node7" class="node">
<title>Node7</title>
<g id="a_node7"><a xlink:title=" ">
<polygon fill="none" stroke="#bfbfbf" points="241,-56.5 241,-75.5 344,-75.5 344,-56.5 241,-56.5"/>
<text text-anchor="middle" x="292.5" y="-63.5" font-family="Helvetica,sans-Serif" font-size="10.00">SDL2/SDL_image.h</text>
</a>
</g>
</g>
<!-- Node5&#45;&gt;Node7 -->
<g id="edge6" class="edge">
<title>Node5&#45;&gt;Node7</title>
<path fill="none" stroke="midnightblue" d="M248.25,-112.08C255.97,-104.22 267.4,-92.57 276.72,-83.08"/>
<polygon fill="midnightblue" stroke="midnightblue" points="279.4,-85.34 283.91,-75.75 274.41,-80.44 279.4,-85.34"/>
</g>
<!-- Node8 -->
<g id="node8" class="node">
<title>Node8</title>
<g id="a_node8"><a xlink:title=" ">
<polygon fill="none" stroke="#bfbfbf" points="362.5,-56.5 362.5,-75.5 416.5,-75.5 416.5,-56.5 362.5,-56.5"/>
<text text-anchor="middle" x="389.5" y="-63.5" font-family="Helvetica,sans-Serif" font-size="10.00">iostream</text>
</a>
</g>
</g>
<!-- Node5&#45;&gt;Node8 -->
<g id="edge7" class="edge">
<title>Node5&#45;&gt;Node8</title>
<path fill="none" stroke="midnightblue" d="M263.27,-112.44C288.39,-103.4 328.21,-89.06 356.4,-78.92"/>
<polygon fill="midnightblue" stroke="midnightblue" points="357.62,-82.2 365.84,-75.52 355.25,-75.61 357.62,-82.2"/>
</g>
<!-- Node9 -->
<g id="node9" class="node">
<title>Node9</title>
<g id="a_node9"><a xlink:href="NumberUtil_8hpp.html" target="_top" xlink:title=" ">
<polygon fill="none" stroke="black" points="434.5,-56.5 434.5,-75.5 546.5,-75.5 546.5,-56.5 434.5,-56.5"/>
<text text-anchor="middle" x="490.5" y="-63.5" font-family="Helvetica,sans-Serif" font-size="10.00">Utility/NumberUtil.hpp</text>
</a>
</g>
</g>
<!-- Node5&#45;&gt;Node9 -->
<g id="edge9" class="edge">
<title>Node5&#45;&gt;Node9</title>
<path fill="none" stroke="midnightblue" d="M279.27,-112.44C323.06,-103.02 393.51,-87.87 440.88,-77.68"/>
<polygon fill="midnightblue" stroke="midnightblue" points="441.87,-81.04 450.91,-75.52 440.4,-74.2 441.87,-81.04"/>
</g>
<!-- Node5&#45;&gt;Node10 -->
<g id="edge10" class="edge">
<title>Node5&#45;&gt;Node10</title>
<path fill="none" stroke="midnightblue" d="M310.17,-116.91C336.9,-115.36 367.6,-113.59 395.5,-112 678.16,-95.85 751.22,-115.98 1031.5,-76 1032.57,-75.85 1033.65,-75.68 1034.73,-75.5"/>
<polygon fill="midnightblue" stroke="midnightblue" points="1035.43,-78.93 1044.6,-73.62 1034.12,-72.06 1035.43,-78.93"/>
</g>
<!-- Node11 -->
<g id="node11" class="node">
<title>Node11</title>
<g id="a_node11"><a xlink:title=" ">
<polygon fill="none" stroke="#bfbfbf" points="75,-56.5 75,-75.5 134,-75.5 134,-56.5 75,-56.5"/>
<text text-anchor="middle" x="104.5" y="-63.5" font-family="Helvetica,sans-Serif" font-size="10.00">functional</text>
</a>
</g>
</g>
<!-- Node5&#45;&gt;Node11 -->
<g id="edge11" class="edge">
<title>Node5&#45;&gt;Node11</title>
<path fill="none" stroke="midnightblue" d="M218.11,-112.44C195.79,-103.52 160.6,-89.44 135.29,-79.32"/>
<polygon fill="midnightblue" stroke="midnightblue" points="136.38,-75.98 125.79,-75.52 133.78,-82.48 136.38,-75.98"/>
</g>
<!-- Node12 -->
<g id="node12" class="node">
<title>Node12</title>
<g id="a_node12"><a xlink:title=" ">
<polygon fill="none" stroke="#bfbfbf" points="978.5,-56.5 978.5,-75.5 1022.5,-75.5 1022.5,-56.5 978.5,-56.5"/>
<text text-anchor="middle" x="1000.5" y="-63.5" font-family="Helvetica,sans-Serif" font-size="10.00">vector</text>
</a>
</g>
</g>
<!-- Node5&#45;&gt;Node12 -->
<g id="edge13" class="edge">
<title>Node5&#45;&gt;Node12</title>
<path fill="none" stroke="midnightblue" d="M310.16,-116.96C461.26,-108.24 811.66,-87.5 930.5,-76 942.95,-74.8 956.6,-73.12 968.52,-71.54"/>
<polygon fill="midnightblue" stroke="midnightblue" points="969.03,-75 978.47,-70.19 968.09,-68.07 969.03,-75"/>
</g>
<!-- Node13 -->
<g id="node13" class="node">
<title>Node13</title>
<g id="a_node13"><a xlink:title=" ">
<polygon fill="none" stroke="#bfbfbf" points="742,-56.5 742,-75.5 777,-75.5 777,-56.5 742,-56.5"/>
<text text-anchor="middle" x="759.5" y="-63.5" font-family="Helvetica,sans-Serif" font-size="10.00">map</text>
</a>
</g>
</g>
<!-- Node5&#45;&gt;Node13 -->
<g id="edge14" class="edge">
<title>Node5&#45;&gt;Node13</title>
<path fill="none" stroke="midnightblue" d="M310.17,-113.66C426.34,-101.6 652.63,-78.1 731.55,-69.9"/>
<polygon fill="midnightblue" stroke="midnightblue" points="732.09,-73.37 741.68,-68.85 731.37,-66.4 732.09,-73.37"/>
</g>
<!-- Node14&#45;&gt;Node3 -->
<g id="edge16" class="edge">
<title>Node14&#45;&gt;Node3</title>
<path fill="none" stroke="midnightblue" d="M424.12,-168.39C407.16,-155.54 380.41,-130.86 395.5,-112 439.08,-57.53 481.21,-91.28 554.79,-75.78"/>
<polygon fill="midnightblue" stroke="midnightblue" points="555.97,-79.1 564.9,-73.39 554.36,-72.29 555.97,-79.1"/>
</g>
<!-- Node14&#45;&gt;Node5 -->
<g id="edge18" class="edge">
<title>Node14&#45;&gt;Node5</title>
<path fill="none" stroke="midnightblue" d="M405.28,-168.44C371.57,-159.2 317.7,-144.44 280.57,-134.26"/>
<polygon fill="midnightblue" stroke="midnightblue" points="281.14,-130.78 270.57,-131.52 279.29,-137.54 281.14,-130.78"/>
</g>
<!-- Node15 -->
<g id="node15" class="node">
<title>Node15</title>
<g id="a_node15"><a xlink:title=" ">
<polygon fill="none" stroke="#bfbfbf" points="405,-112.5 405,-131.5 444,-131.5 444,-112.5 405,-112.5"/>
<text text-anchor="middle" x="424.5" y="-119.5" font-family="Helvetica,sans-Serif" font-size="10.00">utility</text>
</a>
</g>
</g>
<!-- Node14&#45;&gt;Node15 -->
<g id="edge17" class="edge">
<title>Node14&#45;&gt;Node15</title>
<path fill="none" stroke="midnightblue" d="M434.52,-168.08C432.93,-160.93 430.64,-150.64 428.65,-141.69"/>
<polygon fill="midnightblue" stroke="midnightblue" points="432.03,-140.75 426.44,-131.75 425.2,-142.27 432.03,-140.75"/>
</g>
<!-- Node16&#45;&gt;Node12 -->
<g id="edge20" class="edge">
<title>Node16&#45;&gt;Node12</title>
<path fill="none" stroke="midnightblue" d="M696.52,-172.77C773.4,-166.69 899.31,-153.75 940.5,-132 961.42,-120.96 978.89,-99.67 989.48,-84.47"/>
<polygon fill="midnightblue" stroke="midnightblue" points="992.54,-86.2 995.16,-75.93 986.71,-82.32 992.54,-86.2"/>
</g>
<!-- Node16&#45;&gt;Node13 -->
<g id="edge21" class="edge">
<title>Node16&#45;&gt;Node13</title>
<path fill="none" stroke="midnightblue" d="M658.24,-168.45C676.57,-160.96 701.71,-148.67 719.5,-132 733.81,-118.58 744.95,-98.94 751.8,-84.77"/>
<polygon fill="midnightblue" stroke="midnightblue" points="755.03,-86.13 756.01,-75.58 748.66,-83.21 755.03,-86.13"/>
</g>
<!-- Node17 -->
<g id="node17" class="node">
<title>Node17</title>
<g id="a_node17"><a xlink:title=" ">
<polygon fill="none" stroke="#bfbfbf" points="462.5,-112.5 462.5,-131.5 506.5,-131.5 506.5,-112.5 462.5,-112.5"/>
<text text-anchor="middle" x="484.5" y="-119.5" font-family="Helvetica,sans-Serif" font-size="10.00">SDL.h</text>
</a>
</g>
</g>
<!-- Node16&#45;&gt;Node17 -->
<g id="edge22" class="edge">
<title>Node16&#45;&gt;Node17</title>
<path fill="none" stroke="midnightblue" d="M610.73,-168.44C585.16,-159.24 544.38,-144.56 516.12,-134.38"/>
<polygon fill="midnightblue" stroke="midnightblue" points="517.28,-131.08 506.69,-130.99 514.91,-137.67 517.28,-131.08"/>
</g>
<!-- Node18 -->
<g id="node18" class="node">
<title>Node18</title>
<g id="a_node18"><a xlink:title=" ">
<polygon fill="none" stroke="#bfbfbf" points="524.5,-112.5 524.5,-131.5 636.5,-131.5 636.5,-112.5 524.5,-112.5"/>
<text text-anchor="middle" x="580.5" y="-119.5" font-family="Helvetica,sans-Serif" font-size="10.00">Events/EventsEnum.h</text>
</a>
</g>
</g>
<!-- Node16&#45;&gt;Node18 -->
<g id="edge23" class="edge">
<title>Node16&#45;&gt;Node18</title>
<path fill="none" stroke="midnightblue" d="M625.58,-168.08C617.72,-160.22 606.07,-148.57 596.58,-139.08"/>
<polygon fill="midnightblue" stroke="midnightblue" points="598.8,-136.35 589.25,-131.75 593.85,-141.3 598.8,-136.35"/>
</g>
<!-- Node19 -->
<g id="node19" class="node">
<title>Node19</title>
<g id="a_node19"><a xlink:href="Input_8hpp.html" target="_top" xlink:title=" ">
<polygon fill="none" stroke="black" points="654.5,-112.5 654.5,-131.5 710.5,-131.5 710.5,-112.5 654.5,-112.5"/>
<text text-anchor="middle" x="682.5" y="-119.5" font-family="Helvetica,sans-Serif" font-size="10.00">Input.hpp</text>
</a>
</g>
</g>
<!-- Node16&#45;&gt;Node19 -->
<g id="edge24" class="edge">
<title>Node16&#45;&gt;Node19</title>
<path fill="none" stroke="midnightblue" d="M642.43,-168.08C649.35,-160.3 659.57,-148.8 667.95,-139.37"/>
<polygon fill="midnightblue" stroke="midnightblue" points="670.69,-141.55 674.72,-131.75 665.46,-136.9 670.69,-141.55"/>
</g>
<!-- Node19&#45;&gt;Node3 -->
<g id="edge26" class="edge">
<title>Node19&#45;&gt;Node3</title>
<path fill="none" stroke="midnightblue" d="M666.92,-112.32C651.5,-103.74 627.69,-90.49 609.79,-80.52"/>
<polygon fill="midnightblue" stroke="midnightblue" points="611.49,-77.46 601.05,-75.65 608.08,-83.58 611.49,-77.46"/>
</g>
<!-- Node20 -->
<g id="node20" class="node">
<title>Node20</title>
<g id="a_node20"><a xlink:href="Point_8hpp.html" target="_top" xlink:title=" ">
<polygon fill="none" stroke="black" points="832,-0.5 832,-19.5 889,-19.5 889,-0.5 832,-0.5"/>
<text text-anchor="middle" x="860.5" y="-7.5" font-family="Helvetica,sans-Serif" font-size="10.00">Point.hpp</text>
</a>
</g>
</g>
<!-- Node19&#45;&gt;Node20 -->
<g id="edge25" class="edge">
<title>Node19&#45;&gt;Node20</title>
<path fill="none" stroke="midnightblue" d="M687.1,-112.11C694.73,-98.22 711.28,-71.36 732.5,-56 759.23,-36.65 795.04,-25 821.99,-18.42"/>
<polygon fill="midnightblue" stroke="midnightblue" points="822.89,-21.8 831.84,-16.14 821.31,-14.98 822.89,-21.8"/>
</g>
<!-- Node22 -->
<g id="node22" class="node">
<title>Node22</title>
<g id="a_node22"><a xlink:title=" ">
<polygon fill="none" stroke="#bfbfbf" points="1000.5,-168.5 1000.5,-187.5 1046.5,-187.5 1046.5,-168.5 1000.5,-168.5"/>
<text text-anchor="middle" x="1023.5" y="-175.5" font-family="Helvetica,sans-Serif" font-size="10.00">cstdint</text>
</a>
</g>
</g>
<!-- Node21&#45;&gt;Node22 -->
<g id="edge28" class="edge">
<title>Node21&#45;&gt;Node22</title>
<path fill="none" stroke="midnightblue" d="M1005.97,-224.08C1008.81,-216.77 1012.93,-206.18 1016.46,-197.1"/>
<polygon fill="midnightblue" stroke="midnightblue" points="1019.73,-198.34 1020.1,-187.75 1013.21,-195.8 1019.73,-198.34"/>
</g>
<!-- Node23&#45;&gt;Node10 -->
<g id="edge30" class="edge">
<title>Node23&#45;&gt;Node10</title>
<path fill="none" stroke="midnightblue" d="M930.72,-168.36C947.77,-159.96 973.66,-146.4 994.5,-132 1016.43,-116.84 1039.4,-96.48 1054.27,-82.61"/>
<polygon fill="midnightblue" stroke="midnightblue" points="1056.77,-85.06 1061.64,-75.65 1051.96,-79.97 1056.77,-85.06"/>
</g>
<!-- Node23&#45;&gt;Node12 -->
<g id="edge32" class="edge">
<title>Node23&#45;&gt;Node12</title>
<path fill="none" stroke="midnightblue" d="M929.01,-168.5C942.81,-160.65 962.16,-147.84 974.5,-132 985.23,-118.23 992.1,-99.45 996.07,-85.62"/>
<polygon fill="midnightblue" stroke="midnightblue" points="999.5,-86.34 998.65,-75.78 992.73,-84.57 999.5,-86.34"/>
</g>
<!-- Node23&#45;&gt;Node13 -->
<g id="edge31" class="edge">
<title>Node23&#45;&gt;Node13</title>
<path fill="none" stroke="midnightblue" d="M875.65,-168.49C852.19,-161.64 822.23,-150.12 800.5,-132 785.33,-119.35 773.99,-99.59 767.13,-85.17"/>
<polygon fill="midnightblue" stroke="midnightblue" points="770.21,-83.5 762.93,-75.8 763.82,-86.36 770.21,-83.5"/>
</g>
<!-- Node23&#45;&gt;Node20 -->
<g id="edge33" class="edge">
<title>Node23&#45;&gt;Node20</title>
<path fill="none" stroke="midnightblue" d="M882.62,-168.39C864.96,-161.59 844.05,-150.15 833.5,-132 816.53,-102.8 824.48,-88.55 833.5,-56 836.29,-45.92 842.01,-35.83 847.47,-27.77"/>
<polygon fill="midnightblue" stroke="midnightblue" points="850.32,-29.79 853.35,-19.64 844.65,-25.69 850.32,-29.79"/>
</g>
<!-- Node24 -->
<g id="node24" class="node">
<title>Node24</title>
<g id="a_node24"><a xlink:href="Collider_8hpp.html" target="_top" xlink:title=" ">
<polygon fill="none" stroke="black" points="1316,-56.5 1316,-75.5 1383,-75.5 1383,-56.5 1316,-56.5"/>
<text text-anchor="middle" x="1349.5" y="-63.5" font-family="Helvetica,sans-Serif" font-size="10.00">Collider.hpp</text>
</a>
</g>
</g>
<!-- Node23&#45;&gt;Node24 -->
<g id="edge34" class="edge">
<title>Node23&#45;&gt;Node24</title>
<path fill="none" stroke="midnightblue" d="M982.7,-168.93C985.67,-168.61 988.62,-168.3 991.5,-168 1034.35,-163.56 1348.49,-163.84 1377.5,-132 1390.23,-118.03 1377.55,-97.38 1365.41,-83.12"/>
<polygon fill="midnightblue" stroke="midnightblue" points="1367.84,-80.6 1358.51,-75.57 1362.67,-85.31 1367.84,-80.6"/>
</g>
<!-- Node26 -->
<g id="node26" class="node">
<title>Node26</title>
<g id="a_node26"><a xlink:href="BoxCollider_8hpp.html" target="_top" xlink:title=" ">
<polygon fill="none" stroke="black" points="1425,-112.5 1425,-131.5 1508,-131.5 1508,-112.5 1425,-112.5"/>
<text text-anchor="middle" x="1466.5" y="-119.5" font-family="Helvetica,sans-Serif" font-size="10.00">BoxCollider.hpp</text>
</a>
</g>
</g>
<!-- Node23&#45;&gt;Node26 -->
<g id="edge36" class="edge">
<title>Node23&#45;&gt;Node26</title>
<path fill="none" stroke="midnightblue" d="M982.7,-168.9C985.67,-168.59 988.62,-168.29 991.5,-168 1177.48,-149.42 1224.99,-154.84 1410.5,-132 1411.97,-131.82 1413.45,-131.63 1414.95,-131.43"/>
<polygon fill="midnightblue" stroke="midnightblue" points="1415.54,-134.88 1424.96,-130.03 1414.57,-127.95 1415.54,-134.88"/>
</g>
<!-- Node27 -->
<g id="node27" class="node">
<title>Node27</title>
<g id="a_node27"><a xlink:href="GameObject_8hpp.html" target="_top" xlink:title=" ">
<polygon fill="none" stroke="black" points="843,-112.5 843,-131.5 932,-131.5 932,-112.5 843,-112.5"/>
<text text-anchor="middle" x="887.5" y="-119.5" font-family="Helvetica,sans-Serif" font-size="10.00">GameObject.hpp</text>
</a>
</g>
</g>
<!-- Node23&#45;&gt;Node27 -->
<g id="edge38" class="edge">
<title>Node23&#45;&gt;Node27</title>
<path fill="none" stroke="midnightblue" d="M908.37,-168.08C904.99,-160.77 900.08,-150.18 895.88,-141.1"/>
<polygon fill="midnightblue" stroke="midnightblue" points="898.93,-139.36 891.55,-131.75 892.58,-142.3 898.93,-139.36"/>
</g>
<!-- Node29 -->
<g id="node29" class="node">
<title>Node29</title>
<g id="a_node29"><a xlink:href="Collision_8hpp.html" target="_top" xlink:title=" ">
<polygon fill="none" stroke="black" points="1259,-112.5 1259,-131.5 1368,-131.5 1368,-112.5 1259,-112.5"/>
<text text-anchor="middle" x="1313.5" y="-119.5" font-family="Helvetica,sans-Serif" font-size="10.00">Physics/Collision.hpp</text>
</a>
</g>
</g>
<!-- Node23&#45;&gt;Node29 -->
<g id="edge46" class="edge">
<title>Node23&#45;&gt;Node29</title>
<path fill="none" stroke="midnightblue" d="M977.44,-168.47C1043.13,-159.8 1147.89,-145.9 1248.64,-132.11"/>
<polygon fill="midnightblue" stroke="midnightblue" points="1249.26,-135.56 1258.69,-130.73 1248.31,-128.62 1249.26,-135.56"/>
</g>
<!-- Node25 -->
<g id="node25" class="node">
<title>Node25</title>
<g id="a_node25"><a xlink:href="Component_8hpp.html" target="_top" xlink:title=" ">
<polygon fill="none" stroke="black" points="930.5,-0.5 930.5,-19.5 1014.5,-19.5 1014.5,-0.5 930.5,-0.5"/>
<text text-anchor="middle" x="972.5" y="-7.5" font-family="Helvetica,sans-Serif" font-size="10.00">Component.hpp</text>
</a>
</g>
</g>
<!-- Node24&#45;&gt;Node25 -->
<g id="edge35" class="edge">
<title>Node24&#45;&gt;Node25</title>
<path fill="none" stroke="midnightblue" d="M1315.81,-59.8C1307.54,-58.54 1298.7,-57.21 1290.5,-56 1196.96,-42.25 1087.83,-26.97 1024.79,-18.22"/>
<polygon fill="midnightblue" stroke="midnightblue" points="1025.09,-14.73 1014.7,-16.82 1024.13,-21.66 1025.09,-14.73"/>
</g>
<!-- Node26&#45;&gt;Node24 -->
<g id="edge37" class="edge">
<title>Node26&#45;&gt;Node24</title>
<path fill="none" stroke="midnightblue" d="M1447.96,-112.44C1428.88,-103.64 1398.93,-89.81 1377.06,-79.72"/>
<polygon fill="midnightblue" stroke="midnightblue" points="1378.5,-76.53 1367.95,-75.52 1375.57,-82.88 1378.5,-76.53"/>
</g>
<!-- Node27&#45;&gt;Node3 -->
<g id="edge42" class="edge">
<title>Node27&#45;&gt;Node3</title>
<path fill="none" stroke="midnightblue" d="M842.94,-113.03C780.8,-101.92 669.72,-82.06 616.11,-72.47"/>
<polygon fill="midnightblue" stroke="midnightblue" points="616.64,-69.01 606.18,-70.7 615.41,-75.9 616.64,-69.01"/>
</g>
<!-- Node27&#45;&gt;Node10 -->
<g id="edge44" class="edge">
<title>Node27&#45;&gt;Node10</title>
<path fill="none" stroke="midnightblue" d="M916.5,-112.44C948.69,-102.94 1000.67,-87.61 1035.2,-77.41"/>
<polygon fill="midnightblue" stroke="midnightblue" points="1036.29,-80.75 1044.89,-74.56 1034.31,-74.03 1036.29,-80.75"/>
</g>
<!-- Node27&#45;&gt;Node12 -->
<g id="edge43" class="edge">
<title>Node27&#45;&gt;Node12</title>
<path fill="none" stroke="midnightblue" d="M905.41,-112.44C923.75,-103.68 952.51,-89.94 973.59,-79.86"/>
<polygon fill="midnightblue" stroke="midnightblue" points="975.17,-82.99 982.68,-75.52 972.15,-76.67 975.17,-82.99"/>
</g>
<!-- Node27&#45;&gt;Node13 -->
<g id="edge45" class="edge">
<title>Node27&#45;&gt;Node13</title>
<path fill="none" stroke="midnightblue" d="M867.22,-112.44C845.41,-103.24 810.63,-88.57 786.51,-78.4"/>
<polygon fill="midnightblue" stroke="midnightblue" points="787.79,-75.14 777.21,-74.47 785.07,-81.58 787.79,-75.14"/>
</g>
<!-- Node27&#45;&gt;Node25 -->
<g id="edge39" class="edge">
<title>Node27&#45;&gt;Node25</title>
<path fill="none" stroke="midnightblue" d="M896.59,-112.49C905.67,-103.76 919.79,-89.57 930.5,-76 942.56,-60.72 954.42,-41.93 962.44,-28.48"/>
<polygon fill="midnightblue" stroke="midnightblue" points="965.51,-30.16 967.55,-19.77 959.48,-26.62 965.51,-30.16"/>
</g>
<!-- Node28 -->
<g id="node28" class="node">
<title>Node28</title>
<g id="a_node28"><a xlink:href="Transform_8hpp.html" target="_top" xlink:title=" ">
<polygon fill="none" stroke="black" points="843,-56.5 843,-75.5 922,-75.5 922,-56.5 843,-56.5"/>
<text text-anchor="middle" x="882.5" y="-63.5" font-family="Helvetica,sans-Serif" font-size="10.00">Transform.hpp</text>
</a>
</g>
</g>
<!-- Node27&#45;&gt;Node28 -->
<g id="edge40" class="edge">
<title>Node27&#45;&gt;Node28</title>
<path fill="none" stroke="midnightblue" d="M886.67,-112.08C886.02,-105.01 885.08,-94.86 884.26,-85.99"/>
<polygon fill="midnightblue" stroke="midnightblue" points="887.72,-85.39 883.31,-75.75 880.75,-86.03 887.72,-85.39"/>
</g>
<!-- Node28&#45;&gt;Node20 -->
<g id="edge41" class="edge">
<title>Node28&#45;&gt;Node20</title>
<path fill="none" stroke="midnightblue" d="M878.87,-56.08C875.89,-48.77 871.57,-38.18 867.88,-29.1"/>
<polygon fill="midnightblue" stroke="midnightblue" points="871.08,-27.69 864.07,-19.75 864.6,-30.33 871.08,-27.69"/>
</g>
<!-- Node29&#45;&gt;Node10 -->
<g id="edge47" class="edge">
<title>Node29&#45;&gt;Node10</title>
<path fill="none" stroke="midnightblue" d="M1275,-112.44C1228.56,-102.12 1151.15,-84.92 1106.07,-74.9"/>
<polygon fill="midnightblue" stroke="midnightblue" points="1106.67,-71.45 1096.15,-72.7 1105.15,-78.29 1106.67,-71.45"/>
</g>
<!-- Node29&#45;&gt;Node20 -->
<g id="edge49" class="edge">
<title>Node29&#45;&gt;Node20</title>
<path fill="none" stroke="midnightblue" d="M1303.2,-112.28C1285.53,-97.86 1247.73,-69.31 1210.5,-56 1088.62,-12.41 1049.76,-37.45 921.5,-20 914.21,-19.01 906.43,-17.9 898.96,-16.81"/>
<polygon fill="midnightblue" stroke="midnightblue" points="899.44,-13.34 889.03,-15.35 898.41,-20.27 899.44,-13.34"/>
</g>
<!-- Node29&#45;&gt;Node24 -->
<g id="edge48" class="edge">
<title>Node29&#45;&gt;Node24</title>
<path fill="none" stroke="midnightblue" d="M1319.44,-112.08C1324.48,-104.53 1331.84,-93.49 1338.01,-84.23"/>
<polygon fill="midnightblue" stroke="midnightblue" points="1341.03,-86.01 1343.67,-75.75 1335.21,-82.13 1341.03,-86.01"/>
</g>
<!-- Node30&#45;&gt;Node10 -->
<g id="edge53" class="edge">
<title>Node30&#45;&gt;Node10</title>
<path fill="none" stroke="midnightblue" d="M1155.27,-112.32C1139.15,-103.7 1114.2,-90.36 1095.54,-80.39"/>
<polygon fill="midnightblue" stroke="midnightblue" points="1097.16,-77.28 1086.69,-75.65 1093.86,-83.46 1097.16,-77.28"/>
</g>
<!-- Node30&#45;&gt;Node12 -->
<g id="edge52" class="edge">
<title>Node30&#45;&gt;Node12</title>
<path fill="none" stroke="midnightblue" d="M1144.4,-112.44C1113.98,-102.84 1064.66,-87.26 1032.4,-77.07"/>
<polygon fill="midnightblue" stroke="midnightblue" points="1033.16,-73.64 1022.57,-73.97 1031.06,-80.32 1033.16,-73.64"/>
</g>
<!-- Node31 -->
<g id="node31" class="node">
<title>Node31</title>
<g id="a_node31"><a xlink:href="Layer_8hpp.html" target="_top" xlink:title=" ">
<polygon fill="none" stroke="black" points="1142,-56.5 1142,-75.5 1201,-75.5 1201,-56.5 1142,-56.5"/>
<text text-anchor="middle" x="1171.5" y="-63.5" font-family="Helvetica,sans-Serif" font-size="10.00">Layer.hpp</text>
</a>
</g>
</g>
<!-- Node30&#45;&gt;Node31 -->
<g id="edge51" class="edge">
<title>Node30&#45;&gt;Node31</title>
<path fill="none" stroke="midnightblue" d="M1171.5,-112.08C1171.5,-105.01 1171.5,-94.86 1171.5,-85.99"/>
<polygon fill="midnightblue" stroke="midnightblue" points="1175,-85.75 1171.5,-75.75 1168,-85.75 1175,-85.75"/>
</g>
</g>
</svg>
        <g id="navigator" transform="translate(0 0)" fill="#404254">
                <rect fill="#f2f5e9" fill-opacity="0.5" stroke="#606060" stroke-width=".5" x="0" y="0" width="60" height="60"/>
                <use id="zoomplus" xlink:href="#zoomPlus" x="17" y="9" onmousedown="handleZoom(evt,'in')"/>
                <use id="zoomminus" xlink:href="#zoomMin" x="42" y="9" onmousedown="handleZoom(evt,'out')"/>
                <use id="reset" xlink:href="#resetDef" x="30" y="36" onmousedown="handleReset()"/>
                <g id="arrowUp" xlink:href="#dirArrow" transform="translate(30 24)" onmousedown="handlePan(0,-1)">
                  <use xlink:href="#rim" fill="#404040">
                        <set attributeName="fill" to="#808080" begin="arrowUp.mouseover" end="arrowUp.mouseout"/>
                  </use>
                  <path fill="none" stroke="white" stroke-width="1.5" d="M0,-3.0v7 M-2.5,-0.5L0,-3.0L2.5,-0.5"/>
                </g>
                <g id="arrowRight" xlink:href="#dirArrow" transform="rotate(90) translate(36 -43)" onmousedown="handlePan(1,0)">
                  <use xlink:href="#rim" fill="#404040">
                        <set attributeName="fill" to="#808080" begin="arrowRight.mouseover" end="arrowRight.mouseout"/>
                  </use>
                  <path fill="none" stroke="white" stroke-width="1.5" d="M0,-3.0v7 M-2.5,-0.5L0,-3.0L2.5,-0.5"/>
                </g>
                <g id="arrowDown" xlink:href="#dirArrow" transform="rotate(180) translate(-30 -48)" onmousedown="handlePan(0,1)">
                  <use xlink:href="#rim" fill="#404040">
                        <set attributeName="fill" to="#808080" begin="arrowDown.mouseover" end="arrowDown.mouseout"/>
                  </use>
                  <path fill="none" stroke="white" stroke-width="1.5" d="M0,-3.0v7 M-2.5,-0.5L0,-3.0L2.5,-0.5"/>
                </g>
                <g id="arrowLeft" xlink:href="#dirArrow" transform="rotate(270) translate(-36 17)" onmousedown="handlePan(-1,0)">
                  <use xlink:href="#rim" fill="#404040">
                        <set attributeName="fill" to="#808080" begin="arrowLeft.mouseover" end="arrowLeft.mouseout"/>
                  </use>
                  <path fill="none" stroke="white" stroke-width="1.5" d="M0,-3.0v7 M-2.5,-0.5L0,-3.0L2.5,-0.5"/>
                </g>
        </g>
        <svg viewBox="0 0 15 15" width="100%" height="30px" preserveAspectRatio="xMaxYMin meet">
         <g id="arrow_out" transform="scale(0.3 0.3)">
          <a xlink:href="Engine_8hpp__incl_org.svg" target="_base">
           <rect id="button" ry="5" rx="5" y="6" x="6" height="38" width="38"
                fill="#f2f5e9" fill-opacity="0.5" stroke="#606060" stroke-width="1.0"/>
           <path id="arrow"
             d="M 11.500037,31.436501 C 11.940474,20.09759 22.043105,11.32322 32.158766,21.979434 L 37.068811,17.246167 C 37.068811,17.246167 37.088388,32 37.088388,32 L 22.160133,31.978069 C 22.160133,31.978069 26.997745,27.140456 26.997745,27.140456 C 18.528582,18.264221 13.291696,25.230495 11.500037,31.436501 z"
             style="fill:#404040;"/>
          </a>
         </g>
        </svg>
</svg>
