<?xml version="1.0" encoding="UTF-8" standalone="no"?>
<!DOCTYPE svg PUBLIC "-//W3C//DTD SVG 1.1//EN"
 "http://www.w3.org/Graphics/SVG/1.1/DTD/svg11.dtd">
<!-- Generated by graphviz version 2.44.0 ()
 -->
<!-- Title: includes/platformer&#45;engine/Engine/Engine.hpp Pages: 1 -->
<!--zoomable 543 -->
<svg id="main" version="1.1" xmlns="http://www.w3.org/2000/svg" xmlns:xlink="http://www.w3.org/1999/xlink" xml:space="preserve" onload="init(evt)">
<style type="text/css"><![CDATA[
.edge:hover path { stroke: red; }
.edge:hover polygon { stroke: red; fill: red; }
]]></style>
<script type="text/javascript"><![CDATA[
var edges = document.getElementsByTagName('g');
if (edges && edges.length) {
  for (var i=0;i<edges.length;i++) {
    if (edges[i].id.substr(0,4)=='edge') {
      edges[i].setAttribute('class','edge');
    }
  }
}
]]></script>
        <defs>
                <circle id="rim" cx="0" cy="0" r="7"/>
                <circle id="rim2" cx="0" cy="0" r="3.5"/>
                <g id="zoomPlus">
                        <use xlink:href="#rim" fill="#404040">
                                <set attributeName="fill" to="#808080" begin="zoomplus.mouseover" end="zoomplus.mouseout"/>
                        </use>
                        <path d="M-4,0h8M0,-4v8" fill="none" stroke="white" stroke-width="1.5" pointer-events="none"/>
                </g>
                <g id="zoomMin">
                        <use xlink:href="#rim" fill="#404040">
                                <set attributeName="fill" to="#808080" begin="zoomminus.mouseover" end="zoomminus.mouseout"/>
                        </use>
                        <path d="M-4,0h8" fill="none" stroke="white" stroke-width="1.5" pointer-events="none"/>
                </g>
                <g id="dirArrow">
                        <path fill="none" stroke="white" stroke-width="1.5" d="M0,-3.0v7 M-2.5,-0.5L0,-3.0L2.5,-0.5"/>
                </g>
               <g id="resetDef">
                       <use xlink:href="#rim2" fill="#404040">
                               <set attributeName="fill" to="#808080" begin="reset.mouseover" end="reset.mouseout"/>
                       </use>
               </g>
        </defs>

<script type="text/javascript">
var viewWidth = 1759;
var viewHeight = 543;
var sectionId = 'dynsection-0';
</script>
<script xlink:href="svgpan.js"/>
<svg id="graph" class="graph">
<g id="viewport">
<title>includes/platformer&#45;engine/Engine/Engine.hpp</title>
<!-- Node1 -->
<g id="node1" class="node">
<title>Node1</title>
<g id="a_node1"><a xlink:title=" ">
<polygon fill="#bfbfbf" stroke="black" points="621.5,-504.5 621.5,-534.5 752.5,-534.5 752.5,-504.5 621.5,-504.5"/>
<text text-anchor="start" x="629.5" y="-522.5" font-family="Helvetica,sans-Serif" font-size="10.00">includes/platformer</text>
<text text-anchor="middle" x="687" y="-511.5" font-family="Helvetica,sans-Serif" font-size="10.00">&#45;engine/Engine/Engine.hpp</text>
</a>
</g>
</g>
<!-- Node2 -->
<g id="node2" class="node">
<title>Node2</title>
<g id="a_node2"><a xlink:href="Window_8hpp.html" target="_top" xlink:title=" ">
<polygon fill="none" stroke="black" points="955.5,-280.5 955.5,-299.5 1058.5,-299.5 1058.5,-280.5 955.5,-280.5"/>
<text text-anchor="middle" x="1007" y="-287.5" font-family="Helvetica,sans-Serif" font-size="10.00">Render/Window.hpp</text>
</a>
</g>
</g>
<!-- Node1&#45;&gt;Node2 -->
<g id="edge1" class="edge">
<title>Node1&#45;&gt;Node2</title>
<path fill="none" stroke="midnightblue" d="M696.24,-504.28C706.59,-489.09 724.5,-464.91 744,-448 820.07,-382.01 927.52,-327.74 978.29,-303.96"/>
<polygon fill="midnightblue" stroke="midnightblue" points="980.06,-306.99 987.66,-299.61 977.12,-300.64 980.06,-306.99"/>
</g>
<!-- Node10 -->
<g id="node10" class="node">
<title>Node10</title>
<g id="a_node10"><a xlink:title=" ">
<polygon fill="none" stroke="#bfbfbf" points="206.5,-0.5 206.5,-19.5 257.5,-19.5 257.5,-0.5 206.5,-0.5"/>
<text text-anchor="middle" x="232" y="-7.5" font-family="Helvetica,sans-Serif" font-size="10.00">memory</text>
</a>
</g>
</g>
<!-- Node1&#45;&gt;Node10 -->
<g id="edge61" class="edge">
<title>Node1&#45;&gt;Node10</title>
<path fill="none" stroke="midnightblue" d="M621.48,-515.69C494.44,-509.73 219.07,-494.19 128,-468 66.68,-450.37 0,-466.8 0,-403 0,-403 0,-403 0,-121 0,-35.28 130.9,-16.27 196.05,-12.12"/>
<polygon fill="midnightblue" stroke="midnightblue" points="196.49,-15.6 206.29,-11.56 196.11,-8.61 196.49,-15.6"/>
</g>
<!-- Node21 -->
<g id="node21" class="node">
<title>Node21</title>
<g id="a_node21"><a xlink:href="Scene_8hpp.html" target="_top" xlink:title=" ">
<polygon fill="none" stroke="black" points="671,-224.5 671,-243.5 733,-243.5 733,-224.5 671,-224.5"/>
<text text-anchor="middle" x="702" y="-231.5" font-family="Helvetica,sans-Serif" font-size="10.00">Scene.hpp</text>
</a>
</g>
</g>
<!-- Node1&#45;&gt;Node21 -->
<g id="edge62" class="edge">
<title>Node1&#45;&gt;Node21</title>
<path fill="none" stroke="midnightblue" d="M687,-504.28C687,-482.48 687,-439.49 687,-403 687,-403 687,-403 687,-345 687,-312.5 693.51,-275.1 697.95,-253.34"/>
<polygon fill="midnightblue" stroke="midnightblue" points="701.39,-254.01 700.04,-243.5 694.54,-252.56 701.39,-254.01"/>
</g>
<!-- Node26 -->
<g id="node26" class="node">
<title>Node26</title>
<g id="a_node26"><a xlink:href="Timer_8hpp.html" target="_top" xlink:title=" ">
<polygon fill="none" stroke="black" points="1584.5,-280.5 1584.5,-299.5 1671.5,-299.5 1671.5,-280.5 1584.5,-280.5"/>
<text text-anchor="middle" x="1628" y="-287.5" font-family="Helvetica,sans-Serif" font-size="10.00">Timer/Timer.hpp</text>
</a>
</g>
</g>
<!-- Node1&#45;&gt;Node26 -->
<g id="edge40" class="edge">
<title>Node1&#45;&gt;Node26</title>
<path fill="none" stroke="midnightblue" d="M752.67,-519.23C893.35,-518.81 1232.49,-507.07 1496,-412 1539.96,-396.14 1551.58,-388.67 1585,-356 1599.17,-342.15 1611.2,-322.87 1618.9,-308.91"/>
<polygon fill="midnightblue" stroke="midnightblue" points="1622.12,-310.31 1623.71,-299.84 1615.94,-307.03 1622.12,-310.31"/>
</g>
<!-- Node28 -->
<g id="node28" class="node">
<title>Node28</title>
<g id="a_node28"><a xlink:href="PhysicsSystem_8hpp.html" target="_top" xlink:title=" ">
<polygon fill="none" stroke="black" points="346,-224.5 346,-243.5 486,-243.5 486,-224.5 346,-224.5"/>
<text text-anchor="middle" x="416" y="-231.5" font-family="Helvetica,sans-Serif" font-size="10.00">Physics/PhysicsSystem.hpp</text>
</a>
</g>
</g>
<!-- Node1&#45;&gt;Node28 -->
<g id="edge42" class="edge">
<title>Node1&#45;&gt;Node28</title>
<path fill="none" stroke="midnightblue" d="M622.49,-504.45C571.55,-489.11 509,-458.9 509,-403 509,-403 509,-403 509,-345 509,-302.31 467.65,-267.64 440.09,-249.28"/>
<polygon fill="midnightblue" stroke="midnightblue" points="441.67,-246.13 431.36,-243.69 437.89,-252.03 441.67,-246.13"/>
</g>
<!-- Node32 -->
<g id="node32" class="node">
<title>Node32</title>
<g id="a_node32"><a xlink:href="GameLevel_8hpp.html" target="_top" xlink:title=" ">
<polygon fill="none" stroke="black" points="28,-112.5 28,-131.5 166,-131.5 166,-112.5 28,-112.5"/>
<text text-anchor="middle" x="97" y="-119.5" font-family="Helvetica,sans-Serif" font-size="10.00">GameLevel/GameLevel.hpp</text>
</a>
</g>
</g>
<!-- Node1&#45;&gt;Node32 -->
<g id="edge57" class="edge">
<title>Node1&#45;&gt;Node32</title>
<path fill="none" stroke="midnightblue" d="M621.37,-519.25C468.2,-519.25 100,-508.29 100,-403 100,-403 100,-403 100,-233 100,-200.94 98.71,-163.63 97.82,-141.74"/>
<polygon fill="midnightblue" stroke="midnightblue" points="101.31,-141.4 97.39,-131.56 94.32,-141.69 101.31,-141.4"/>
</g>
<!-- Node34 -->
<g id="node34" class="node">
<title>Node34</title>
<g id="a_node34"><a xlink:href="RenderSystem_8hpp.html" target="_top" xlink:title=" ">
<polygon fill="none" stroke="black" points="753,-448.5 753,-467.5 887,-467.5 887,-448.5 753,-448.5"/>
<text text-anchor="middle" x="820" y="-455.5" font-family="Helvetica,sans-Serif" font-size="10.00">Texture/RenderSystem.hpp</text>
</a>
</g>
</g>
<!-- Node1&#45;&gt;Node34 -->
<g id="edge63" class="edge">
<title>Node1&#45;&gt;Node34</title>
<path fill="none" stroke="midnightblue" d="M718.52,-504.4C740.64,-494.51 769.97,-481.38 791.41,-471.79"/>
<polygon fill="midnightblue" stroke="midnightblue" points="792.95,-474.94 800.65,-467.66 790.09,-468.55 792.95,-474.94"/>
</g>
<!-- Node3 -->
<g id="node3" class="node">
<title>Node3</title>
<g id="a_node3"><a xlink:title=" ">
<polygon fill="none" stroke="#bfbfbf" points="943.5,-56.5 943.5,-75.5 984.5,-75.5 984.5,-56.5 943.5,-56.5"/>
<text text-anchor="middle" x="964" y="-63.5" font-family="Helvetica,sans-Serif" font-size="10.00">string</text>
</a>
</g>
</g>
<!-- Node2&#45;&gt;Node3 -->
<g id="edge2" class="edge">
<title>Node2&#45;&gt;Node3</title>
<path fill="none" stroke="midnightblue" d="M1007.38,-280.17C1007.93,-267.66 1008.99,-244.08 1010,-224 1012.5,-174.24 1035.5,-157.42 1015,-112 1009.38,-99.56 998.44,-89.17 988.12,-81.53"/>
<polygon fill="midnightblue" stroke="midnightblue" points="989.96,-78.54 979.73,-75.76 985.99,-84.31 989.96,-78.54"/>
</g>
<!-- Node4 -->
<g id="node4" class="node">
<title>Node4</title>
<g id="a_node4"><a xlink:href="Color_8hpp.html" target="_top" xlink:title=" ">
<polygon fill="none" stroke="black" points="1002.5,-56.5 1002.5,-75.5 1059.5,-75.5 1059.5,-56.5 1002.5,-56.5"/>
<text text-anchor="middle" x="1031" y="-63.5" font-family="Helvetica,sans-Serif" font-size="10.00">Color.hpp</text>
</a>
</g>
</g>
<!-- Node2&#45;&gt;Node4 -->
<g id="edge3" class="edge">
<title>Node2&#45;&gt;Node4</title>
<path fill="none" stroke="midnightblue" d="M1007.98,-280.31C1010.41,-260.16 1017.52,-208.88 1031,-168 1036.54,-151.2 1044.13,-149.27 1048,-132 1051.58,-116.01 1046.12,-98 1040.45,-85"/>
<polygon fill="midnightblue" stroke="midnightblue" points="1043.51,-83.29 1036.04,-75.78 1037.2,-86.31 1043.51,-83.29"/>
</g>
<!-- Node5 -->
<g id="node5" class="node">
<title>Node5</title>
<g id="a_node5"><a xlink:href="GraphicsFacade_8hpp.html" target="_top" xlink:title=" ">
<polygon fill="none" stroke="black" points="1310.5,-112.5 1310.5,-131.5 1451.5,-131.5 1451.5,-112.5 1310.5,-112.5"/>
<text text-anchor="middle" x="1381" y="-119.5" font-family="Helvetica,sans-Serif" font-size="10.00">Facade/GraphicsFacade.hpp</text>
</a>
</g>
</g>
<!-- Node2&#45;&gt;Node5 -->
<g id="edge4" class="edge">
<title>Node2&#45;&gt;Node5</title>
<path fill="none" stroke="midnightblue" d="M1026.32,-280.42C1087.75,-253.16 1278.83,-168.35 1352.05,-135.85"/>
<polygon fill="midnightblue" stroke="midnightblue" points="1353.85,-138.88 1361.57,-131.62 1351.01,-132.48 1353.85,-138.88"/>
</g>
<!-- Node14 -->
<g id="node14" class="node">
<title>Node14</title>
<g id="a_node14"><a xlink:href="TextureManager_8hpp.html" target="_top" xlink:title=" ">
<polygon fill="none" stroke="black" points="1040,-168.5 1040,-187.5 1180,-187.5 1180,-168.5 1040,-168.5"/>
<text text-anchor="middle" x="1110" y="-175.5" font-family="Helvetica,sans-Serif" font-size="10.00">Texture/TextureManager.hpp</text>
</a>
</g>
</g>
<!-- Node2&#45;&gt;Node14 -->
<g id="edge15" class="edge">
<title>Node2&#45;&gt;Node14</title>
<path fill="none" stroke="midnightblue" d="M1015.08,-280.37C1032.31,-261.97 1072.85,-218.67 1094.97,-195.05"/>
<polygon fill="midnightblue" stroke="midnightblue" points="1097.68,-197.28 1101.96,-187.59 1092.57,-192.5 1097.68,-197.28"/>
</g>
<!-- Node16 -->
<g id="node16" class="node">
<title>Node16</title>
<g id="a_node16"><a xlink:href="InputFacade_8hpp.html" target="_top" xlink:title=" ">
<polygon fill="none" stroke="black" points="768,-168.5 768,-187.5 892,-187.5 892,-168.5 768,-168.5"/>
<text text-anchor="middle" x="830" y="-175.5" font-family="Helvetica,sans-Serif" font-size="10.00">Facade/InputFacade.hpp</text>
</a>
</g>
</g>
<!-- Node2&#45;&gt;Node16 -->
<g id="edge19" class="edge">
<title>Node2&#45;&gt;Node16</title>
<path fill="none" stroke="midnightblue" d="M993.11,-280.37C962.61,-261.41 889.54,-216 852.43,-192.94"/>
<polygon fill="midnightblue" stroke="midnightblue" points="854.17,-189.9 843.82,-187.59 850.47,-195.84 854.17,-189.9"/>
</g>
<!-- Node2&#45;&gt;Node21 -->
<g id="edge27" class="edge">
<title>Node2&#45;&gt;Node21</title>
<path fill="none" stroke="midnightblue" d="M958.67,-280.44C899.21,-269.92 799.29,-252.23 743.27,-242.31"/>
<polygon fill="midnightblue" stroke="midnightblue" points="743.8,-238.85 733.34,-240.55 742.58,-245.74 743.8,-238.85"/>
</g>
<!-- Node5&#45;&gt;Node3 -->
<g id="edge12" class="edge">
<title>Node5&#45;&gt;Node3</title>
<path fill="none" stroke="midnightblue" d="M1310.13,-114.37C1219.63,-105.64 1066.97,-89.98 994.83,-76.01"/>
<polygon fill="midnightblue" stroke="midnightblue" points="995.28,-72.53 984.79,-73.96 993.89,-79.39 995.28,-72.53"/>
</g>
<!-- Node5&#45;&gt;Node4 -->
<g id="edge8" class="edge">
<title>Node5&#45;&gt;Node4</title>
<path fill="none" stroke="midnightblue" d="M1314.94,-112.5C1252.64,-104.2 1156.74,-90.71 1074,-76 1072.55,-75.74 1071.06,-75.47 1069.57,-75.19"/>
<polygon fill="midnightblue" stroke="midnightblue" points="1070.12,-71.73 1059.63,-73.25 1068.78,-78.6 1070.12,-71.73"/>
</g>
<!-- Node6 -->
<g id="node6" class="node">
<title>Node6</title>
<g id="a_node6"><a xlink:title=" ">
<polygon fill="none" stroke="#bfbfbf" points="1193.5,-56.5 1193.5,-75.5 1264.5,-75.5 1264.5,-56.5 1193.5,-56.5"/>
<text text-anchor="middle" x="1229" y="-63.5" font-family="Helvetica,sans-Serif" font-size="10.00">SDL2/SDL.h</text>
</a>
</g>
</g>
<!-- Node5&#45;&gt;Node6 -->
<g id="edge5" class="edge">
<title>Node5&#45;&gt;Node6</title>
<path fill="none" stroke="midnightblue" d="M1356.92,-112.44C1331.46,-103.4 1291.11,-89.06 1262.54,-78.92"/>
<polygon fill="midnightblue" stroke="midnightblue" points="1263.57,-75.57 1252.97,-75.52 1261.22,-82.16 1263.57,-75.57"/>
</g>
<!-- Node7 -->
<g id="node7" class="node">
<title>Node7</title>
<g id="a_node7"><a xlink:title=" ">
<polygon fill="none" stroke="#bfbfbf" points="1282.5,-56.5 1282.5,-75.5 1385.5,-75.5 1385.5,-56.5 1282.5,-56.5"/>
<text text-anchor="middle" x="1334" y="-63.5" font-family="Helvetica,sans-Serif" font-size="10.00">SDL2/SDL_image.h</text>
</a>
</g>
</g>
<!-- Node5&#45;&gt;Node7 -->
<g id="edge6" class="edge">
<title>Node5&#45;&gt;Node7</title>
<path fill="none" stroke="midnightblue" d="M1373.24,-112.08C1366.46,-104.3 1356.46,-92.8 1348.24,-83.37"/>
<polygon fill="midnightblue" stroke="midnightblue" points="1350.82,-81 1341.62,-75.75 1345.54,-85.59 1350.82,-81"/>
</g>
<!-- Node8 -->
<g id="node8" class="node">
<title>Node8</title>
<g id="a_node8"><a xlink:title=" ">
<polygon fill="none" stroke="#bfbfbf" points="1404,-56.5 1404,-75.5 1458,-75.5 1458,-56.5 1404,-56.5"/>
<text text-anchor="middle" x="1431" y="-63.5" font-family="Helvetica,sans-Serif" font-size="10.00">iostream</text>
</a>
</g>
</g>
<!-- Node5&#45;&gt;Node8 -->
<g id="edge7" class="edge">
<title>Node5&#45;&gt;Node8</title>
<path fill="none" stroke="midnightblue" d="M1389.26,-112.08C1396.46,-104.3 1407.11,-92.8 1415.85,-83.37"/>
<polygon fill="midnightblue" stroke="midnightblue" points="1418.67,-85.47 1422.9,-75.75 1413.53,-80.71 1418.67,-85.47"/>
</g>
<!-- Node9 -->
<g id="node9" class="node">
<title>Node9</title>
<g id="a_node9"><a xlink:href="NumberUtil_8hpp.html" target="_top" xlink:title=" ">
<polygon fill="none" stroke="black" points="1476,-56.5 1476,-75.5 1588,-75.5 1588,-56.5 1476,-56.5"/>
<text text-anchor="middle" x="1532" y="-63.5" font-family="Helvetica,sans-Serif" font-size="10.00">Utility/NumberUtil.hpp</text>
</a>
</g>
</g>
<!-- Node5&#45;&gt;Node9 -->
<g id="edge9" class="edge">
<title>Node5&#45;&gt;Node9</title>
<path fill="none" stroke="midnightblue" d="M1404.93,-112.44C1430.22,-103.4 1470.3,-89.06 1498.68,-78.92"/>
<polygon fill="midnightblue" stroke="midnightblue" points="1499.95,-82.18 1508.19,-75.52 1497.59,-75.59 1499.95,-82.18"/>
</g>
<!-- Node5&#45;&gt;Node10 -->
<g id="edge10" class="edge">
<title>Node5&#45;&gt;Node10</title>
<path fill="none" stroke="midnightblue" d="M1314.51,-112.49C1246.12,-103.31 1144.49,-88.35 1107,-76 1088.5,-69.9 1086.81,-61.08 1068,-56 913.63,-14.3 407.1,-11.04 267.76,-10.95"/>
<polygon fill="midnightblue" stroke="midnightblue" points="267.63,-7.45 257.63,-10.94 267.62,-14.45 267.63,-7.45"/>
</g>
<!-- Node11 -->
<g id="node11" class="node">
<title>Node11</title>
<g id="a_node11"><a xlink:title=" ">
<polygon fill="none" stroke="#bfbfbf" points="1116.5,-56.5 1116.5,-75.5 1175.5,-75.5 1175.5,-56.5 1116.5,-56.5"/>
<text text-anchor="middle" x="1146" y="-63.5" font-family="Helvetica,sans-Serif" font-size="10.00">functional</text>
</a>
</g>
</g>
<!-- Node5&#45;&gt;Node11 -->
<g id="edge11" class="edge">
<title>Node5&#45;&gt;Node11</title>
<path fill="none" stroke="midnightblue" d="M1343.21,-112.46C1305.63,-103.95 1246.06,-90.4 1185.91,-76.43"/>
<polygon fill="midnightblue" stroke="midnightblue" points="1186.4,-72.95 1175.87,-74.1 1184.81,-79.77 1186.4,-72.95"/>
</g>
<!-- Node12 -->
<g id="node12" class="node">
<title>Node12</title>
<g id="a_node12"><a xlink:title=" ">
<polygon fill="none" stroke="#bfbfbf" points="389,-56.5 389,-75.5 433,-75.5 433,-56.5 389,-56.5"/>
<text text-anchor="middle" x="411" y="-63.5" font-family="Helvetica,sans-Serif" font-size="10.00">vector</text>
</a>
</g>
</g>
<!-- Node5&#45;&gt;Node12 -->
<g id="edge13" class="edge">
<title>Node5&#45;&gt;Node12</title>
<path fill="none" stroke="midnightblue" d="M1310.46,-117.36C1167.66,-109.96 834.09,-92.43 554,-76 516.13,-73.78 472.62,-71.01 443.64,-69.13"/>
<polygon fill="midnightblue" stroke="midnightblue" points="443.49,-65.62 433.29,-68.46 443.04,-72.6 443.49,-65.62"/>
</g>
<!-- Node13 -->
<g id="node13" class="node">
<title>Node13</title>
<g id="a_node13"><a xlink:title=" ">
<polygon fill="none" stroke="#bfbfbf" points="563.5,-56.5 563.5,-75.5 598.5,-75.5 598.5,-56.5 563.5,-56.5"/>
<text text-anchor="middle" x="581" y="-63.5" font-family="Helvetica,sans-Serif" font-size="10.00">map</text>
</a>
</g>
</g>
<!-- Node5&#45;&gt;Node13 -->
<g id="edge14" class="edge">
<title>Node5&#45;&gt;Node13</title>
<path fill="none" stroke="midnightblue" d="M1310.3,-117.39C1135.26,-108.39 690.5,-85.1 608.49,-75.08"/>
<polygon fill="midnightblue" stroke="midnightblue" points="608.95,-71.61 598.54,-73.59 607.91,-78.53 608.95,-71.61"/>
</g>
<!-- Node14&#45;&gt;Node3 -->
<g id="edge16" class="edge">
<title>Node14&#45;&gt;Node3</title>
<path fill="none" stroke="midnightblue" d="M1103.12,-168.15C1092.4,-154.79 1070.59,-129.19 1048,-112 1031.16,-99.19 1010.18,-87.95 993.4,-79.9"/>
<polygon fill="midnightblue" stroke="midnightblue" points="994.61,-76.6 984.07,-75.55 991.65,-82.95 994.61,-76.6"/>
</g>
<!-- Node14&#45;&gt;Node5 -->
<g id="edge18" class="edge">
<title>Node14&#45;&gt;Node5</title>
<path fill="none" stroke="midnightblue" d="M1152.94,-168.44C1200.51,-158.96 1277.24,-143.67 1328.39,-133.48"/>
<polygon fill="midnightblue" stroke="midnightblue" points="1329.14,-136.9 1338.26,-131.52 1327.77,-130.04 1329.14,-136.9"/>
</g>
<!-- Node15 -->
<g id="node15" class="node">
<title>Node15</title>
<g id="a_node15"><a xlink:title=" ">
<polygon fill="none" stroke="#bfbfbf" points="1138.5,-112.5 1138.5,-131.5 1177.5,-131.5 1177.5,-112.5 1138.5,-112.5"/>
<text text-anchor="middle" x="1158" y="-119.5" font-family="Helvetica,sans-Serif" font-size="10.00">utility</text>
</a>
</g>
</g>
<!-- Node14&#45;&gt;Node15 -->
<g id="edge17" class="edge">
<title>Node14&#45;&gt;Node15</title>
<path fill="none" stroke="midnightblue" d="M1117.93,-168.08C1124.85,-160.3 1135.07,-148.8 1143.45,-139.37"/>
<polygon fill="midnightblue" stroke="midnightblue" points="1146.19,-141.55 1150.22,-131.75 1140.96,-136.9 1146.19,-141.55"/>
</g>
<!-- Node16&#45;&gt;Node12 -->
<g id="edge20" class="edge">
<title>Node16&#45;&gt;Node12</title>
<path fill="none" stroke="midnightblue" d="M767.95,-169.01C685.98,-158.26 549.3,-139.62 527,-132 491.09,-119.74 453.48,-96.43 431.15,-81.31"/>
<polygon fill="midnightblue" stroke="midnightblue" points="433.05,-78.37 422.84,-75.58 429.08,-84.14 433.05,-78.37"/>
</g>
<!-- Node16&#45;&gt;Node13 -->
<g id="edge21" class="edge">
<title>Node16&#45;&gt;Node13</title>
<path fill="none" stroke="midnightblue" d="M805.09,-168.42C780.81,-159.86 742.97,-145.99 711,-132 673.69,-115.67 631.76,-94.1 605.86,-80.38"/>
<polygon fill="midnightblue" stroke="midnightblue" points="607.23,-77.15 596.76,-75.54 603.94,-83.33 607.23,-77.15"/>
</g>
<!-- Node17 -->
<g id="node17" class="node">
<title>Node17</title>
<g id="a_node17"><a xlink:title=" ">
<polygon fill="none" stroke="#bfbfbf" points="720,-112.5 720,-131.5 764,-131.5 764,-112.5 720,-112.5"/>
<text text-anchor="middle" x="742" y="-119.5" font-family="Helvetica,sans-Serif" font-size="10.00">SDL.h</text>
</a>
</g>
</g>
<!-- Node16&#45;&gt;Node17 -->
<g id="edge22" class="edge">
<title>Node16&#45;&gt;Node17</title>
<path fill="none" stroke="midnightblue" d="M815.86,-168.32C802.13,-159.9 781.06,-146.97 764.94,-137.07"/>
<polygon fill="midnightblue" stroke="midnightblue" points="766.46,-133.9 756.1,-131.65 762.8,-139.87 766.46,-133.9"/>
</g>
<!-- Node18 -->
<g id="node18" class="node">
<title>Node18</title>
<g id="a_node18"><a xlink:title=" ">
<polygon fill="none" stroke="#bfbfbf" points="782,-112.5 782,-131.5 894,-131.5 894,-112.5 782,-112.5"/>
<text text-anchor="middle" x="838" y="-119.5" font-family="Helvetica,sans-Serif" font-size="10.00">Events/EventsEnum.h</text>
</a>
</g>
</g>
<!-- Node16&#45;&gt;Node18 -->
<g id="edge23" class="edge">
<title>Node16&#45;&gt;Node18</title>
<path fill="none" stroke="midnightblue" d="M831.32,-168.08C832.38,-160.93 833.91,-150.64 835.23,-141.69"/>
<polygon fill="midnightblue" stroke="midnightblue" points="838.7,-142.16 836.7,-131.75 831.78,-141.13 838.7,-142.16"/>
</g>
<!-- Node19 -->
<g id="node19" class="node">
<title>Node19</title>
<g id="a_node19"><a xlink:href="Input_8hpp.html" target="_top" xlink:title=" ">
<polygon fill="none" stroke="black" points="950,-112.5 950,-131.5 1006,-131.5 1006,-112.5 950,-112.5"/>
<text text-anchor="middle" x="978" y="-119.5" font-family="Helvetica,sans-Serif" font-size="10.00">Input.hpp</text>
</a>
</g>
</g>
<!-- Node16&#45;&gt;Node19 -->
<g id="edge24" class="edge">
<title>Node16&#45;&gt;Node19</title>
<path fill="none" stroke="midnightblue" d="M853.45,-168.44C878.13,-159.44 917.19,-145.19 944.98,-135.05"/>
<polygon fill="midnightblue" stroke="midnightblue" points="946.46,-138.23 954.66,-131.52 944.06,-131.66 946.46,-138.23"/>
</g>
<!-- Node19&#45;&gt;Node3 -->
<g id="edge26" class="edge">
<title>Node19&#45;&gt;Node3</title>
<path fill="none" stroke="midnightblue" d="M975.69,-112.08C973.83,-104.93 971.16,-94.64 968.85,-85.69"/>
<polygon fill="midnightblue" stroke="midnightblue" points="972.17,-84.55 966.27,-75.75 965.39,-86.31 972.17,-84.55"/>
</g>
<!-- Node20 -->
<g id="node20" class="node">
<title>Node20</title>
<g id="a_node20"><a xlink:href="Point_8hpp.html" target="_top" xlink:title=" ">
<polygon fill="none" stroke="black" points="1251.5,-0.5 1251.5,-19.5 1308.5,-19.5 1308.5,-0.5 1251.5,-0.5"/>
<text text-anchor="middle" x="1280" y="-7.5" font-family="Helvetica,sans-Serif" font-size="10.00">Point.hpp</text>
</a>
</g>
</g>
<!-- Node19&#45;&gt;Node20 -->
<g id="edge25" class="edge">
<title>Node19&#45;&gt;Node20</title>
<path fill="none" stroke="midnightblue" d="M964.69,-112.3C946.46,-99.35 917.72,-74.53 934,-56 954.05,-33.17 1155.19,-18.49 1241.26,-13.2"/>
<polygon fill="midnightblue" stroke="midnightblue" points="1241.64,-16.68 1251.41,-12.59 1241.21,-9.7 1241.64,-16.68"/>
</g>
<!-- Node22 -->
<g id="node22" class="node">
<title>Node22</title>
<g id="a_node22"><a xlink:href="GameObject_8hpp.html" target="_top" xlink:title=" ">
<polygon fill="none" stroke="black" points="536.5,-112.5 536.5,-131.5 625.5,-131.5 625.5,-112.5 536.5,-112.5"/>
<text text-anchor="middle" x="581" y="-119.5" font-family="Helvetica,sans-Serif" font-size="10.00">GameObject.hpp</text>
</a>
</g>
</g>
<!-- Node21&#45;&gt;Node22 -->
<g id="edge28" class="edge">
<title>Node21&#45;&gt;Node22</title>
<path fill="none" stroke="midnightblue" d="M692.51,-224.37C672.1,-205.81 623.8,-161.91 597.98,-138.44"/>
<polygon fill="midnightblue" stroke="midnightblue" points="600.2,-135.73 590.45,-131.59 595.5,-140.91 600.2,-135.73"/>
</g>
<!-- Node25 -->
<g id="node25" class="node">
<title>Node25</title>
<g id="a_node25"><a xlink:href="Camera_8hpp.html" target="_top" xlink:title=" ">
<polygon fill="none" stroke="black" points="678,-168.5 678,-187.5 746,-187.5 746,-168.5 678,-168.5"/>
<text text-anchor="middle" x="712" y="-175.5" font-family="Helvetica,sans-Serif" font-size="10.00">Camera.hpp</text>
</a>
</g>
</g>
<!-- Node21&#45;&gt;Node25 -->
<g id="edge37" class="edge">
<title>Node21&#45;&gt;Node25</title>
<path fill="none" stroke="midnightblue" d="M703.65,-224.08C704.98,-216.93 706.88,-206.64 708.54,-197.69"/>
<polygon fill="midnightblue" stroke="midnightblue" points="712,-198.22 710.38,-187.75 705.12,-196.95 712,-198.22"/>
</g>
<!-- Node22&#45;&gt;Node3 -->
<g id="edge33" class="edge">
<title>Node22&#45;&gt;Node3</title>
<path fill="none" stroke="midnightblue" d="M625.77,-114.11C630.57,-113.39 635.39,-112.67 640,-112 747.66,-96.31 875.63,-78.9 933.22,-71.13"/>
<polygon fill="midnightblue" stroke="midnightblue" points="933.7,-74.6 943.14,-69.8 932.76,-67.67 933.7,-74.6"/>
</g>
<!-- Node22&#45;&gt;Node10 -->
<g id="edge35" class="edge">
<title>Node22&#45;&gt;Node10</title>
<path fill="none" stroke="midnightblue" d="M565.64,-112.4C540.5,-98.65 488.72,-71.7 442,-56 382.38,-35.96 310.14,-22.79 267.8,-16.14"/>
<polygon fill="midnightblue" stroke="midnightblue" points="268.13,-12.65 257.71,-14.59 267.06,-19.57 268.13,-12.65"/>
</g>
<!-- Node22&#45;&gt;Node12 -->
<g id="edge34" class="edge">
<title>Node22&#45;&gt;Node12</title>
<path fill="none" stroke="midnightblue" d="M554.06,-112.44C523.9,-102.86 475.06,-87.35 442.99,-77.16"/>
<polygon fill="midnightblue" stroke="midnightblue" points="443.8,-73.75 433.21,-74.05 441.68,-80.42 443.8,-73.75"/>
</g>
<!-- Node22&#45;&gt;Node13 -->
<g id="edge36" class="edge">
<title>Node22&#45;&gt;Node13</title>
<path fill="none" stroke="midnightblue" d="M581,-112.08C581,-105.01 581,-94.86 581,-85.99"/>
<polygon fill="midnightblue" stroke="midnightblue" points="584.5,-85.75 581,-75.75 577.5,-85.75 584.5,-85.75"/>
</g>
<!-- Node23 -->
<g id="node23" class="node">
<title>Node23</title>
<g id="a_node23"><a xlink:href="Component_8hpp.html" target="_top" xlink:title=" ">
<polygon fill="none" stroke="black" points="617,-56.5 617,-75.5 701,-75.5 701,-56.5 617,-56.5"/>
<text text-anchor="middle" x="659" y="-63.5" font-family="Helvetica,sans-Serif" font-size="10.00">Component.hpp</text>
</a>
</g>
</g>
<!-- Node22&#45;&gt;Node23 -->
<g id="edge29" class="edge">
<title>Node22&#45;&gt;Node23</title>
<path fill="none" stroke="midnightblue" d="M593.53,-112.32C605.59,-103.98 624.03,-91.21 638.27,-81.35"/>
<polygon fill="midnightblue" stroke="midnightblue" points="640.27,-84.22 646.5,-75.65 636.28,-78.47 640.27,-84.22"/>
</g>
<!-- Node24 -->
<g id="node24" class="node">
<title>Node24</title>
<g id="a_node24"><a xlink:href="Transform_8hpp.html" target="_top" xlink:title=" ">
<polygon fill="none" stroke="black" points="1605.5,-56.5 1605.5,-75.5 1684.5,-75.5 1684.5,-56.5 1605.5,-56.5"/>
<text text-anchor="middle" x="1645" y="-63.5" font-family="Helvetica,sans-Serif" font-size="10.00">Transform.hpp</text>
</a>
</g>
</g>
<!-- Node22&#45;&gt;Node24 -->
<g id="edge31" class="edge">
<title>Node22&#45;&gt;Node24</title>
<path fill="none" stroke="midnightblue" d="M625.5,-117.6C650.6,-115.77 682.54,-113.56 711,-112 1101.15,-90.57 1203.66,-119.92 1595.07,-76.06"/>
<polygon fill="midnightblue" stroke="midnightblue" points="1595.71,-79.51 1605.25,-74.91 1594.92,-72.56 1595.71,-79.51"/>
</g>
<!-- Node23&#45;&gt;Node10 -->
<g id="edge30" class="edge">
<title>Node23&#45;&gt;Node10</title>
<path fill="none" stroke="midnightblue" d="M616.74,-57.5C613.45,-56.97 610.17,-56.46 607,-56 482.6,-37.78 334.18,-21.61 267.51,-14.64"/>
<polygon fill="midnightblue" stroke="midnightblue" points="267.83,-11.15 257.52,-13.6 267.11,-18.12 267.83,-11.15"/>
</g>
<!-- Node24&#45;&gt;Node20 -->
<g id="edge32" class="edge">
<title>Node24&#45;&gt;Node20</title>
<path fill="none" stroke="midnightblue" d="M1605.47,-57.44C1602.61,-56.94 1599.76,-56.45 1597,-56 1497.14,-39.56 1378.98,-23.74 1319.06,-15.98"/>
<polygon fill="midnightblue" stroke="midnightblue" points="1319.28,-12.48 1308.91,-14.67 1318.38,-19.42 1319.28,-12.48"/>
</g>
<!-- Node25&#45;&gt;Node4 -->
<g id="edge39" class="edge">
<title>Node25&#45;&gt;Node4</title>
<path fill="none" stroke="midnightblue" d="M708.55,-168.17C703.8,-154.35 697.28,-127.59 711,-112 750.87,-66.71 915.12,-85.4 992.16,-75.68"/>
<polygon fill="midnightblue" stroke="midnightblue" points="993.08,-79.08 1002.43,-74.11 992.02,-72.16 993.08,-79.08"/>
</g>
<!-- Node25&#45;&gt;Node22 -->
<g id="edge38" class="edge">
<title>Node25&#45;&gt;Node22</title>
<path fill="none" stroke="midnightblue" d="M691.24,-168.44C669.68,-159.56 635.74,-145.56 611.21,-135.45"/>
<polygon fill="midnightblue" stroke="midnightblue" points="612.24,-132.09 601.66,-131.52 609.57,-138.56 612.24,-132.09"/>
</g>
<!-- Node27 -->
<g id="node27" class="node">
<title>Node27</title>
<g id="a_node27"><a xlink:title=" ">
<polygon fill="none" stroke="#bfbfbf" points="1605,-224.5 1605,-243.5 1651,-243.5 1651,-224.5 1605,-224.5"/>
<text text-anchor="middle" x="1628" y="-231.5" font-family="Helvetica,sans-Serif" font-size="10.00">cstdint</text>
</a>
</g>
</g>
<!-- Node26&#45;&gt;Node27 -->
<g id="edge41" class="edge">
<title>Node26&#45;&gt;Node27</title>
<path fill="none" stroke="midnightblue" d="M1628,-280.08C1628,-273.01 1628,-262.86 1628,-253.99"/>
<polygon fill="midnightblue" stroke="midnightblue" points="1631.5,-253.75 1628,-243.75 1624.5,-253.75 1631.5,-253.75"/>
</g>
<!-- Node28&#45;&gt;Node10 -->
<g id="edge43" class="edge">
<title>Node28&#45;&gt;Node10</title>
<path fill="none" stroke="midnightblue" d="M345.7,-230.42C278.53,-226.31 184.19,-215.64 161,-188 155.29,-181.19 159.13,-176.69 161,-168 164.13,-153.5 205.03,-67.22 223.3,-29.09"/>
<polygon fill="midnightblue" stroke="midnightblue" points="226.62,-30.25 227.8,-19.72 220.31,-27.22 226.62,-30.25"/>
</g>
<!-- Node28&#45;&gt;Node12 -->
<g id="edge45" class="edge">
<title>Node28&#45;&gt;Node12</title>
<path fill="none" stroke="midnightblue" d="M383.01,-224.44C364.54,-217.77 343.05,-206.45 332,-188 314.65,-159.02 315.03,-141.2 332,-112 342.14,-94.55 361.87,-83.3 379.07,-76.42"/>
<polygon fill="midnightblue" stroke="midnightblue" points="380.63,-79.57 388.82,-72.85 378.22,-73 380.63,-79.57"/>
</g>
<!-- Node28&#45;&gt;Node13 -->
<g id="edge44" class="edge">
<title>Node28&#45;&gt;Node13</title>
<path fill="none" stroke="midnightblue" d="M400.27,-224.24C388.11,-216.48 372.19,-203.93 365,-188 351.11,-157.21 343.69,-138.21 365,-112 388.46,-83.15 500.54,-72.18 553.36,-68.56"/>
<polygon fill="midnightblue" stroke="midnightblue" points="553.63,-72.05 563.38,-67.91 553.17,-65.06 553.63,-72.05"/>
</g>
<!-- Node28&#45;&gt;Node20 -->
<g id="edge46" class="edge">
<title>Node28&#45;&gt;Node20</title>
<path fill="none" stroke="midnightblue" d="M432.82,-224.49C447.24,-216.56 467.85,-203.63 482,-188 526.86,-138.46 497.62,-91.87 554,-56 612.14,-19 1098.98,-12.38 1241.16,-11.23"/>
<polygon fill="midnightblue" stroke="midnightblue" points="1241.2,-14.73 1251.18,-11.16 1241.15,-7.73 1241.2,-14.73"/>
</g>
<!-- Node28&#45;&gt;Node22 -->
<g id="edge52" class="edge">
<title>Node28&#45;&gt;Node22</title>
<path fill="none" stroke="midnightblue" d="M458.27,-224.42C483.41,-217.71 514.82,-206.36 538,-188 553.7,-175.56 565.63,-155.77 572.89,-141.29"/>
<polygon fill="midnightblue" stroke="midnightblue" points="576.23,-142.4 577.34,-131.86 569.9,-139.41 576.23,-142.4"/>
</g>
<!-- Node29 -->
<g id="node29" class="node">
<title>Node29</title>
<g id="a_node29"><a xlink:href="Collider_8hpp.html" target="_top" xlink:title=" ">
<polygon fill="none" stroke="black" points="374.5,-112.5 374.5,-131.5 441.5,-131.5 441.5,-112.5 374.5,-112.5"/>
<text text-anchor="middle" x="408" y="-119.5" font-family="Helvetica,sans-Serif" font-size="10.00">Collider.hpp</text>
</a>
</g>
</g>
<!-- Node28&#45;&gt;Node29 -->
<g id="edge47" class="edge">
<title>Node28&#45;&gt;Node29</title>
<path fill="none" stroke="midnightblue" d="M431.14,-224.32C449.57,-212.53 476.96,-190.38 466,-168 459.48,-154.68 446.9,-144.18 435.13,-136.68"/>
<polygon fill="midnightblue" stroke="midnightblue" points="436.78,-133.59 426.39,-131.53 433.23,-139.62 436.78,-133.59"/>
</g>
<!-- Node30 -->
<g id="node30" class="node">
<title>Node30</title>
<g id="a_node30"><a xlink:href="BoxCollider_8hpp.html" target="_top" xlink:title=" ">
<polygon fill="none" stroke="black" points="374.5,-168.5 374.5,-187.5 457.5,-187.5 457.5,-168.5 374.5,-168.5"/>
<text text-anchor="middle" x="416" y="-175.5" font-family="Helvetica,sans-Serif" font-size="10.00">BoxCollider.hpp</text>
</a>
</g>
</g>
<!-- Node28&#45;&gt;Node30 -->
<g id="edge50" class="edge">
<title>Node28&#45;&gt;Node30</title>
<path fill="none" stroke="midnightblue" d="M416,-224.08C416,-217.01 416,-206.86 416,-197.99"/>
<polygon fill="midnightblue" stroke="midnightblue" points="419.5,-197.75 416,-187.75 412.5,-197.75 419.5,-197.75"/>
</g>
<!-- Node31 -->
<g id="node31" class="node">
<title>Node31</title>
<g id="a_node31"><a xlink:href="Collision_8hpp.html" target="_top" xlink:title=" ">
<polygon fill="none" stroke="black" points="170.5,-168.5 170.5,-187.5 279.5,-187.5 279.5,-168.5 170.5,-168.5"/>
<text text-anchor="middle" x="225" y="-175.5" font-family="Helvetica,sans-Serif" font-size="10.00">Physics/Collision.hpp</text>
</a>
</g>
</g>
<!-- Node28&#45;&gt;Node31 -->
<g id="edge53" class="edge">
<title>Node28&#45;&gt;Node31</title>
<path fill="none" stroke="midnightblue" d="M385.74,-224.44C353.04,-215.2 300.82,-200.44 264.82,-190.26"/>
<polygon fill="midnightblue" stroke="midnightblue" points="265.7,-186.87 255.12,-187.52 263.79,-193.61 265.7,-186.87"/>
</g>
<!-- Node29&#45;&gt;Node12 -->
<g id="edge49" class="edge">
<title>Node29&#45;&gt;Node12</title>
<path fill="none" stroke="midnightblue" d="M408.5,-112.08C408.89,-105.01 409.45,-94.86 409.95,-85.99"/>
<polygon fill="midnightblue" stroke="midnightblue" points="413.45,-85.93 410.51,-75.75 406.46,-85.54 413.45,-85.93"/>
</g>
<!-- Node29&#45;&gt;Node23 -->
<g id="edge48" class="edge">
<title>Node29&#45;&gt;Node23</title>
<path fill="none" stroke="midnightblue" d="M441.59,-113.77C484.71,-104.5 559.86,-88.33 609.53,-77.64"/>
<polygon fill="midnightblue" stroke="midnightblue" points="610.37,-81.04 619.41,-75.52 608.9,-74.2 610.37,-81.04"/>
</g>
<!-- Node30&#45;&gt;Node29 -->
<g id="edge51" class="edge">
<title>Node30&#45;&gt;Node29</title>
<path fill="none" stroke="midnightblue" d="M414.68,-168.08C413.62,-160.93 412.09,-150.64 410.77,-141.69"/>
<polygon fill="midnightblue" stroke="midnightblue" points="414.22,-141.13 409.3,-131.75 407.3,-142.16 414.22,-141.13"/>
</g>
<!-- Node31&#45;&gt;Node10 -->
<g id="edge54" class="edge">
<title>Node31&#45;&gt;Node10</title>
<path fill="none" stroke="midnightblue" d="M225.38,-168.08C226.48,-141.95 229.71,-65.21 231.22,-29.58"/>
<polygon fill="midnightblue" stroke="midnightblue" points="234.71,-29.71 231.64,-19.57 227.72,-29.41 234.71,-29.71"/>
</g>
<!-- Node31&#45;&gt;Node20 -->
<g id="edge55" class="edge">
<title>Node31&#45;&gt;Node20</title>
<path fill="none" stroke="midnightblue" d="M232.29,-168.45C252.72,-145.17 313.45,-80.77 380,-56 461.42,-25.69 1079.11,-14.1 1241.17,-11.56"/>
<polygon fill="midnightblue" stroke="midnightblue" points="1241.23,-15.06 1251.17,-11.41 1241.12,-8.06 1241.23,-15.06"/>
</g>
<!-- Node31&#45;&gt;Node29 -->
<g id="edge56" class="edge">
<title>Node31&#45;&gt;Node29</title>
<path fill="none" stroke="midnightblue" d="M254,-168.44C285.18,-159.24 334.93,-144.56 369.41,-134.39"/>
<polygon fill="midnightblue" stroke="midnightblue" points="370.54,-137.7 379.14,-131.52 368.56,-130.99 370.54,-137.7"/>
</g>
<!-- Node32&#45;&gt;Node10 -->
<g id="edge60" class="edge">
<title>Node32&#45;&gt;Node10</title>
<path fill="none" stroke="midnightblue" d="M94.12,-112.46C90.17,-99.05 84.86,-72.84 97,-56 119.39,-24.94 164.15,-14.99 195.98,-11.98"/>
<polygon fill="midnightblue" stroke="midnightblue" points="196.53,-15.45 206.24,-11.21 196,-8.47 196.53,-15.45"/>
</g>
<!-- Node32&#45;&gt;Node12 -->
<g id="edge59" class="edge">
<title>Node32&#45;&gt;Node12</title>
<path fill="none" stroke="midnightblue" d="M146.75,-112.44C211.76,-101.26 323.77,-82 378.71,-72.55"/>
<polygon fill="midnightblue" stroke="midnightblue" points="379.64,-75.94 388.9,-70.8 378.45,-69.05 379.64,-75.94"/>
</g>
<!-- Node33 -->
<g id="node33" class="node">
<title>Node33</title>
<g id="a_node33"><a xlink:href="Layer_8hpp.html" target="_top" xlink:title=" ">
<polygon fill="none" stroke="black" points="106.5,-56.5 106.5,-75.5 165.5,-75.5 165.5,-56.5 106.5,-56.5"/>
<text text-anchor="middle" x="136" y="-63.5" font-family="Helvetica,sans-Serif" font-size="10.00">Layer.hpp</text>
</a>
</g>
</g>
<!-- Node32&#45;&gt;Node33 -->
<g id="edge58" class="edge">
<title>Node32&#45;&gt;Node33</title>
<path fill="none" stroke="midnightblue" d="M103.44,-112.08C108.95,-104.46 117.03,-93.26 123.76,-83.94"/>
<polygon fill="midnightblue" stroke="midnightblue" points="126.66,-85.91 129.68,-75.75 120.99,-81.81 126.66,-85.91"/>
</g>
<!-- Node34&#45;&gt;Node22 -->
<g id="edge64" class="edge">
<title>Node34&#45;&gt;Node22</title>
<path fill="none" stroke="midnightblue" d="M813.22,-448.18C791.04,-419.27 718.77,-324.53 662,-244 636.27,-207.5 607.48,-163.75 592.1,-140.15"/>
<polygon fill="midnightblue" stroke="midnightblue" points="594.94,-138.08 586.56,-131.6 589.07,-141.9 594.94,-138.08"/>
</g>
<!-- Node35 -->
<g id="node35" class="node">
<title>Node35</title>
<g id="a_node35"><a xlink:href="Animator_8hpp.html" target="_top" xlink:title=" ">
<polygon fill="none" stroke="black" points="1413,-392.5 1413,-411.5 1487,-411.5 1487,-392.5 1413,-392.5"/>
<text text-anchor="middle" x="1450" y="-399.5" font-family="Helvetica,sans-Serif" font-size="10.00">Animator.hpp</text>
</a>
</g>
</g>
<!-- Node34&#45;&gt;Node35 -->
<g id="edge65" class="edge">
<title>Node34&#45;&gt;Node35</title>
<path fill="none" stroke="midnightblue" d="M887.12,-451.25C1015.2,-440.27 1291.58,-416.58 1402.5,-407.07"/>
<polygon fill="midnightblue" stroke="midnightblue" points="1403.05,-410.54 1412.71,-406.2 1402.45,-403.56 1403.05,-410.54"/>
</g>
<!-- Node35&#45;&gt;Node20 -->
<g id="edge80" class="edge">
<title>Node35&#45;&gt;Node20</title>
<path fill="none" stroke="midnightblue" d="M1487.21,-395.45C1567.74,-382.39 1751,-346.57 1751,-291 1751,-291 1751,-291 1751,-121 1751,-86.61 1738.31,-74 1709,-56 1644.1,-16.14 1411.49,-11.21 1318.66,-10.87"/>
<polygon fill="midnightblue" stroke="midnightblue" points="1318.57,-7.37 1308.56,-10.85 1318.56,-14.37 1318.57,-7.37"/>
</g>
<!-- Node35&#45;&gt;Node23 -->
<g id="edge66" class="edge">
<title>Node35&#45;&gt;Node23</title>
<path fill="none" stroke="midnightblue" d="M1412.87,-401.18C1292.69,-400.79 922,-391.42 922,-291 922,-291 922,-291 922,-177 922,-146.9 925.34,-132.17 903,-112 875.44,-87.12 774.34,-75.34 711.25,-70.3"/>
<polygon fill="midnightblue" stroke="midnightblue" points="711.32,-66.8 701.08,-69.52 710.79,-73.78 711.32,-66.8"/>
</g>
<!-- Node35&#45;&gt;Node24 -->
<g id="edge81" class="edge">
<title>Node35&#45;&gt;Node24</title>
<path fill="none" stroke="midnightblue" d="M1487.12,-397.78C1541.53,-390.77 1640.73,-368.73 1680,-300 1720.78,-228.62 1675.96,-125.72 1654.81,-84.78"/>
<polygon fill="midnightblue" stroke="midnightblue" points="1657.8,-82.94 1650.01,-75.76 1651.62,-86.23 1657.8,-82.94"/>
</g>
<!-- Node36 -->
<g id="node36" class="node">
<title>Node36</title>
<g id="a_node36"><a xlink:href="Sprite_8hpp.html" target="_top" xlink:title=" ">
<polygon fill="none" stroke="black" points="1351,-224.5 1351,-243.5 1411,-243.5 1411,-224.5 1351,-224.5"/>
<text text-anchor="middle" x="1381" y="-231.5" font-family="Helvetica,sans-Serif" font-size="10.00">Sprite.hpp</text>
</a>
</g>
</g>
<!-- Node35&#45;&gt;Node36 -->
<g id="edge67" class="edge">
<title>Node35&#45;&gt;Node36</title>
<path fill="none" stroke="midnightblue" d="M1446.08,-392.41C1441.98,-383.38 1435.41,-368.75 1430,-356 1414.56,-319.64 1397.43,-276.7 1388.07,-252.99"/>
<polygon fill="midnightblue" stroke="midnightblue" points="1391.27,-251.57 1384.35,-243.55 1384.76,-254.14 1391.27,-251.57"/>
</g>
<!-- Node37 -->
<g id="node37" class="node">
<title>Node37</title>
<g id="a_node37"><a xlink:href="AnimatedSprite_8hpp.html" target="_top" xlink:title=" ">
<polygon fill="none" stroke="black" points="1439.5,-336.5 1439.5,-355.5 1576.5,-355.5 1576.5,-336.5 1439.5,-336.5"/>
<text text-anchor="middle" x="1508" y="-343.5" font-family="Helvetica,sans-Serif" font-size="10.00">Texture/AnimatedSprite.hpp</text>
</a>
</g>
</g>
<!-- Node35&#45;&gt;Node37 -->
<g id="edge74" class="edge">
<title>Node35&#45;&gt;Node37</title>
<path fill="none" stroke="midnightblue" d="M1459.32,-392.32C1467.89,-384.34 1480.81,-372.31 1491.19,-362.65"/>
<polygon fill="midnightblue" stroke="midnightblue" points="1493.58,-365.21 1498.51,-355.83 1488.81,-360.09 1493.58,-365.21"/>
</g>
<!-- Node36&#45;&gt;Node3 -->
<g id="edge70" class="edge">
<title>Node36&#45;&gt;Node3</title>
<path fill="none" stroke="midnightblue" d="M1369.88,-224.15C1336.28,-197.47 1237.06,-119.23 1220,-112 1128.89,-73.38 1094.63,-97.57 994.69,-76.08"/>
<polygon fill="midnightblue" stroke="midnightblue" points="995.34,-72.63 984.81,-73.85 993.8,-79.46 995.34,-72.63"/>
</g>
<!-- Node36&#45;&gt;Node4 -->
<g id="edge69" class="edge">
<title>Node36&#45;&gt;Node4</title>
<path fill="none" stroke="midnightblue" d="M1375.02,-224.22C1359.02,-201.49 1312.72,-140.51 1258,-112 1183.19,-73.02 1151.9,-93.81 1069.76,-77.16"/>
<polygon fill="midnightblue" stroke="midnightblue" points="1070.27,-73.69 1059.76,-74.99 1068.8,-80.53 1070.27,-73.69"/>
</g>
<!-- Node36&#45;&gt;Node5 -->
<g id="edge71" class="edge">
<title>Node36&#45;&gt;Node5</title>
<path fill="none" stroke="midnightblue" d="M1381,-224.37C1381,-206.62 1381,-165.67 1381,-141.6"/>
<polygon fill="midnightblue" stroke="midnightblue" points="1384.5,-141.59 1381,-131.59 1377.5,-141.59 1384.5,-141.59"/>
</g>
<!-- Node36&#45;&gt;Node14 -->
<g id="edge73" class="edge">
<title>Node36&#45;&gt;Node14</title>
<path fill="none" stroke="midnightblue" d="M1350.96,-227.01C1305.69,-217.99 1219.29,-200.78 1163.2,-189.6"/>
<polygon fill="midnightblue" stroke="midnightblue" points="1163.58,-186.11 1153.09,-187.59 1162.22,-192.97 1163.58,-186.11"/>
</g>
<!-- Node36&#45;&gt;Node23 -->
<g id="edge68" class="edge">
<title>Node36&#45;&gt;Node23</title>
<path fill="none" stroke="midnightblue" d="M1362.85,-224.34C1345.19,-215.72 1317.76,-201.81 1295,-188 1269.76,-172.68 1213.77,-122.04 1186,-112 1099.66,-80.77 826.66,-70.87 711.29,-68.04"/>
<polygon fill="midnightblue" stroke="midnightblue" points="711.36,-64.54 701.28,-67.8 711.19,-71.53 711.36,-64.54"/>
</g>
<!-- Node36&#45;&gt;Node24 -->
<g id="edge72" class="edge">
<title>Node36&#45;&gt;Node24</title>
<path fill="none" stroke="midnightblue" d="M1387.44,-224.28C1404.18,-202.23 1451.43,-143.73 1504,-112 1532.02,-95.09 1567.06,-83.87 1595.19,-76.86"/>
<polygon fill="midnightblue" stroke="midnightblue" points="1596.31,-80.19 1605.22,-74.46 1594.68,-73.38 1596.31,-80.19"/>
</g>
<!-- Node37&#45;&gt;Node2 -->
<g id="edge78" class="edge">
<title>Node37&#45;&gt;Node2</title>
<path fill="none" stroke="midnightblue" d="M1439.39,-337.6C1341.49,-327.05 1163.18,-307.83 1069.03,-297.69"/>
<polygon fill="midnightblue" stroke="midnightblue" points="1069.13,-294.18 1058.81,-296.58 1068.38,-301.14 1069.13,-294.18"/>
</g>
<!-- Node37&#45;&gt;Node20 -->
<g id="edge76" class="edge">
<title>Node37&#45;&gt;Node20</title>
<path fill="none" stroke="midnightblue" d="M1514.19,-336.31C1545.83,-291.87 1688.22,-91.39 1693,-76 1695.64,-67.51 1698.94,-62.62 1693,-56 1668.23,-28.38 1416.49,-16.09 1318.62,-12.33"/>
<polygon fill="midnightblue" stroke="midnightblue" points="1318.68,-8.83 1308.56,-11.95 1318.42,-15.82 1318.68,-8.83"/>
</g>
<!-- Node37&#45;&gt;Node24 -->
<g id="edge79" class="edge">
<title>Node37&#45;&gt;Node24</title>
<path fill="none" stroke="midnightblue" d="M1509.31,-336.47C1512.02,-318.01 1518,-272.97 1518,-235 1518,-235 1518,-235 1518,-177 1518,-127.87 1572.99,-95.77 1610.6,-79.56"/>
<polygon fill="midnightblue" stroke="midnightblue" points="1612.3,-82.64 1620.21,-75.59 1609.63,-76.17 1612.3,-82.64"/>
</g>
<!-- Node37&#45;&gt;Node26 -->
<g id="edge77" class="edge">
<title>Node37&#45;&gt;Node26</title>
<path fill="none" stroke="midnightblue" d="M1527.01,-336.44C1546.59,-327.64 1577.31,-313.81 1599.73,-303.72"/>
<polygon fill="midnightblue" stroke="midnightblue" points="1601.39,-306.81 1609.07,-299.52 1598.52,-300.43 1601.39,-306.81"/>
</g>
<!-- Node37&#45;&gt;Node36 -->
<g id="edge75" class="edge">
<title>Node37&#45;&gt;Node36</title>
<path fill="none" stroke="midnightblue" d="M1498.03,-336.37C1476.61,-317.81 1425.93,-273.91 1398.82,-250.44"/>
<polygon fill="midnightblue" stroke="midnightblue" points="1400.77,-247.49 1390.92,-243.59 1396.19,-252.78 1400.77,-247.49"/>
</g>
</g>
</svg>
        <g id="navigator" transform="translate(0 0)" fill="#404254">
                <rect fill="#f2f5e9" fill-opacity="0.5" stroke="#606060" stroke-width=".5" x="0" y="0" width="60" height="60"/>
                <use id="zoomplus" xlink:href="#zoomPlus" x="17" y="9" onmousedown="handleZoom(evt,'in')"/>
                <use id="zoomminus" xlink:href="#zoomMin" x="42" y="9" onmousedown="handleZoom(evt,'out')"/>
                <use id="reset" xlink:href="#resetDef" x="30" y="36" onmousedown="handleReset()"/>
                <g id="arrowUp" xlink:href="#dirArrow" transform="translate(30 24)" onmousedown="handlePan(0,-1)">
                  <use xlink:href="#rim" fill="#404040">
                        <set attributeName="fill" to="#808080" begin="arrowUp.mouseover" end="arrowUp.mouseout"/>
                  </use>
                  <path fill="none" stroke="white" stroke-width="1.5" d="M0,-3.0v7 M-2.5,-0.5L0,-3.0L2.5,-0.5"/>
                </g>
                <g id="arrowRight" xlink:href="#dirArrow" transform="rotate(90) translate(36 -43)" onmousedown="handlePan(1,0)">
                  <use xlink:href="#rim" fill="#404040">
                        <set attributeName="fill" to="#808080" begin="arrowRight.mouseover" end="arrowRight.mouseout"/>
                  </use>
                  <path fill="none" stroke="white" stroke-width="1.5" d="M0,-3.0v7 M-2.5,-0.5L0,-3.0L2.5,-0.5"/>
                </g>
                <g id="arrowDown" xlink:href="#dirArrow" transform="rotate(180) translate(-30 -48)" onmousedown="handlePan(0,1)">
                  <use xlink:href="#rim" fill="#404040">
                        <set attributeName="fill" to="#808080" begin="arrowDown.mouseover" end="arrowDown.mouseout"/>
                  </use>
                  <path fill="none" stroke="white" stroke-width="1.5" d="M0,-3.0v7 M-2.5,-0.5L0,-3.0L2.5,-0.5"/>
                </g>
                <g id="arrowLeft" xlink:href="#dirArrow" transform="rotate(270) translate(-36 17)" onmousedown="handlePan(-1,0)">
                  <use xlink:href="#rim" fill="#404040">
                        <set attributeName="fill" to="#808080" begin="arrowLeft.mouseover" end="arrowLeft.mouseout"/>
                  </use>
                  <path fill="none" stroke="white" stroke-width="1.5" d="M0,-3.0v7 M-2.5,-0.5L0,-3.0L2.5,-0.5"/>
                </g>
        </g>
        <svg viewBox="0 0 15 15" width="100%" height="30px" preserveAspectRatio="xMaxYMin meet">
         <g id="arrow_out" transform="scale(0.3 0.3)">
          <a xlink:href="Engine_8hpp__incl_org.svg" target="_base">
           <rect id="button" ry="5" rx="5" y="6" x="6" height="38" width="38"
                fill="#f2f5e9" fill-opacity="0.5" stroke="#606060" stroke-width="1.0"/>
           <path id="arrow"
             d="M 11.500037,31.436501 C 11.940474,20.09759 22.043105,11.32322 32.158766,21.979434 L 37.068811,17.246167 C 37.068811,17.246167 37.088388,32 37.088388,32 L 22.160133,31.978069 C 22.160133,31.978069 26.997745,27.140456 26.997745,27.140456 C 18.528582,18.264221 13.291696,25.230495 11.500037,31.436501 z"
             style="fill:#404040;"/>
          </a>
         </g>
        </svg>
</svg>
