<?xml version="1.0" encoding="UTF-8" standalone="no"?>
<!DOCTYPE svg PUBLIC "-//W3C//DTD SVG 1.1//EN"
 "http://www.w3.org/Graphics/SVG/1.1/DTD/svg11.dtd">
<!-- Generated by graphviz version 2.44.0 ()
 -->
<!-- Title: includes/platformer&#45;engine/Engine/Engine.hpp Pages: 1 -->
<svg width="2188pt" height="106pt"
 viewBox="0.00 0.00 2188.00 106.00" xmlns="http://www.w3.org/2000/svg" xmlns:xlink="http://www.w3.org/1999/xlink">
<g id="graph0" class="graph" transform="scale(1 1) rotate(0) translate(4 102)">
<title>includes/platformer&#45;engine/Engine/Engine.hpp</title>
<!-- Node1 -->
<g id="node1" class="node">
<title>Node1</title>
<g id="a_node1"><a xlink:title=" ">
<polygon fill="#bfbfbf" stroke="black" points="1011.5,-67.5 1011.5,-97.5 1142.5,-97.5 1142.5,-67.5 1011.5,-67.5"/>
<text text-anchor="start" x="1019.5" y="-85.5" font-family="Helvetica,sans-Serif" font-size="10.00">includes/platformer</text>
<text text-anchor="middle" x="1077" y="-74.5" font-family="Helvetica,sans-Serif" font-size="10.00">&#45;engine/Engine/Engine.hpp</text>
</a>
</g>
</g>
<!-- Node2 -->
<g id="node2" class="node">
<title>Node2</title>
<g id="a_node2"><a xlink:href="Animator_8cpp.html" target="_top" xlink:title=" ">
<polygon fill="none" stroke="black" points="0,-6 0,-25 110,-25 110,-6 0,-6"/>
<text text-anchor="middle" x="55" y="-13" font-family="Helvetica,sans-Serif" font-size="10.00">src/API/Animator.cpp</text>
</a>
</g>
</g>
<!-- Node1&#45;&gt;Node2 -->
<g id="edge1" class="edge">
<title>Node1&#45;&gt;Node2</title>
<path fill="none" stroke="midnightblue" d="M1000.92,-81.87C838.25,-81.7 444.88,-76.17 119,-31 108.73,-29.58 97.68,-27.33 87.69,-25.03"/>
<polygon fill="midnightblue" stroke="midnightblue" points="1001.3,-85.37 1011.3,-81.87 1001.3,-78.37 1001.3,-85.37"/>
</g>
<!-- Node3 -->
<g id="node3" class="node">
<title>Node3</title>
<g id="a_node3"><a xlink:href="CollisionBehaviour_8cpp.html" target="_top" xlink:title=" ">
<polygon fill="none" stroke="black" points="128,-6 128,-25 306,-25 306,-6 128,-6"/>
<text text-anchor="middle" x="217" y="-13" font-family="Helvetica,sans-Serif" font-size="10.00">src/Behaviour/CollisionBehaviour.cpp</text>
</a>
</g>
</g>
<!-- Node1&#45;&gt;Node3 -->
<g id="edge2" class="edge">
<title>Node1&#45;&gt;Node3</title>
<path fill="none" stroke="midnightblue" d="M1000.96,-78.5C863.66,-72.62 565.38,-57.78 315,-31 300.12,-29.41 284.04,-27.22 269.29,-25.03"/>
<polygon fill="midnightblue" stroke="midnightblue" points="1001.22,-82.01 1011.36,-78.94 1001.51,-75.02 1001.22,-82.01"/>
</g>
<!-- Node4 -->
<g id="node4" class="node">
<title>Node4</title>
<g id="a_node4"><a xlink:href="FPSCounterBehaviour_8cpp.html" target="_top" xlink:title=" ">
<polygon fill="none" stroke="black" points="324.5,-0.5 324.5,-30.5 457.5,-30.5 457.5,-0.5 324.5,-0.5"/>
<text text-anchor="start" x="332.5" y="-18.5" font-family="Helvetica,sans-Serif" font-size="10.00">src/Behaviour/FPSCounter</text>
<text text-anchor="middle" x="391" y="-7.5" font-family="Helvetica,sans-Serif" font-size="10.00">Behaviour.cpp</text>
</a>
</g>
</g>
<!-- Node1&#45;&gt;Node4 -->
<g id="edge3" class="edge">
<title>Node1&#45;&gt;Node4</title>
<path fill="none" stroke="midnightblue" d="M1001.14,-77.81C885.51,-71.6 658.38,-57.1 467,-31 463.94,-30.58 460.81,-30.12 457.66,-29.63"/>
<polygon fill="midnightblue" stroke="midnightblue" points="1001.13,-81.31 1011.3,-78.35 1001.5,-74.32 1001.13,-81.31"/>
</g>
<!-- Node5 -->
<g id="node5" class="node">
<title>Node5</title>
<g id="a_node5"><a xlink:href="Debug_8cpp.html" target="_top" xlink:title=" ">
<polygon fill="none" stroke="black" points="476,-6 476,-25 586,-25 586,-6 476,-6"/>
<text text-anchor="middle" x="531" y="-13" font-family="Helvetica,sans-Serif" font-size="10.00">src/Debug/Debug.cpp</text>
</a>
</g>
</g>
<!-- Node1&#45;&gt;Node5 -->
<g id="edge4" class="edge">
<title>Node1&#45;&gt;Node5</title>
<path fill="none" stroke="midnightblue" d="M1001.06,-76.34C905.78,-69.22 737.57,-54.53 595,-31 585.22,-29.39 574.7,-27.19 565.06,-25"/>
<polygon fill="midnightblue" stroke="midnightblue" points="1000.95,-79.84 1011.18,-77.09 1001.47,-72.86 1000.95,-79.84"/>
</g>
<!-- Node6 -->
<g id="node6" class="node">
<title>Node6</title>
<g id="a_node6"><a xlink:href="GameObjectFactory_8cpp.html" target="_top" xlink:title=" ">
<polygon fill="none" stroke="black" points="604.5,-6 604.5,-25 779.5,-25 779.5,-6 604.5,-6"/>
<text text-anchor="middle" x="692" y="-13" font-family="Helvetica,sans-Serif" font-size="10.00">src/Director/GameObjectFactory.cpp</text>
</a>
</g>
</g>
<!-- Node1&#45;&gt;Node6 -->
<g id="edge5" class="edge">
<title>Node1&#45;&gt;Node6</title>
<path fill="none" stroke="midnightblue" d="M1001.18,-68.7C924.58,-55.77 808.4,-36.15 742.43,-25.01"/>
<polygon fill="midnightblue" stroke="midnightblue" points="1000.81,-72.19 1011.25,-70.4 1001.98,-65.28 1000.81,-72.19"/>
</g>
<!-- Node7 -->
<g id="node7" class="node">
<title>Node7</title>
<g id="a_node7"><a xlink:href="Engine_8cpp.html" target="_top" xlink:title=" ">
<polygon fill="none" stroke="black" points="797.5,-6 797.5,-25 910.5,-25 910.5,-6 797.5,-6"/>
<text text-anchor="middle" x="854" y="-13" font-family="Helvetica,sans-Serif" font-size="10.00">src/Engine/Engine.cpp</text>
</a>
</g>
</g>
<!-- Node1&#45;&gt;Node7 -->
<g id="edge6" class="edge">
<title>Node1&#45;&gt;Node7</title>
<path fill="none" stroke="midnightblue" d="M1019.26,-64.67C975.68,-51.97 917.69,-35.06 883.26,-25.03"/>
<polygon fill="midnightblue" stroke="midnightblue" points="1018.31,-68.04 1028.89,-67.48 1020.27,-61.32 1018.31,-68.04"/>
</g>
<!-- Node8 -->
<g id="node8" class="node">
<title>Node8</title>
<g id="a_node8"><a xlink:href="TMXParser_8cpp.html" target="_top" xlink:title=" ">
<polygon fill="none" stroke="black" points="929,-6 929,-25 1065,-25 1065,-6 929,-6"/>
<text text-anchor="middle" x="997" y="-13" font-family="Helvetica,sans-Serif" font-size="10.00">src/Facade/TMXParser.cpp</text>
</a>
</g>
</g>
<!-- Node1&#45;&gt;Node8 -->
<g id="edge7" class="edge">
<title>Node1&#45;&gt;Node8</title>
<path fill="none" stroke="midnightblue" d="M1051.78,-61.01C1036.93,-48.94 1018.91,-34.3 1007.7,-25.19"/>
<polygon fill="midnightblue" stroke="midnightblue" points="1049.67,-63.81 1059.64,-67.4 1054.09,-58.37 1049.67,-63.81"/>
</g>
<!-- Node9 -->
<g id="node9" class="node">
<title>Node9</title>
<g id="a_node9"><a xlink:href="ClientNetworkManager_8cpp.html" target="_top" xlink:title=" ">
<polygon fill="none" stroke="black" points="1083.5,-0.5 1083.5,-30.5 1230.5,-30.5 1230.5,-0.5 1083.5,-0.5"/>
<text text-anchor="start" x="1091.5" y="-18.5" font-family="Helvetica,sans-Serif" font-size="10.00">src/Networking/ClientNetwork</text>
<text text-anchor="middle" x="1157" y="-7.5" font-family="Helvetica,sans-Serif" font-size="10.00">Manager.cpp</text>
</a>
</g>
</g>
<!-- Node1&#45;&gt;Node9 -->
<g id="edge8" class="edge">
<title>Node1&#45;&gt;Node9</title>
<path fill="none" stroke="midnightblue" d="M1102.37,-60.88C1114.53,-51.01 1128.78,-39.43 1139.68,-30.58"/>
<polygon fill="midnightblue" stroke="midnightblue" points="1099.91,-58.37 1094.36,-67.4 1104.33,-63.81 1099.91,-58.37"/>
</g>
<!-- Node10 -->
<g id="node10" class="node">
<title>Node10</title>
<g id="a_node10"><a xlink:href="ServerNetworkManager_8cpp.html" target="_top" xlink:title=" ">
<polygon fill="none" stroke="black" points="1248.5,-0.5 1248.5,-30.5 1399.5,-30.5 1399.5,-0.5 1248.5,-0.5"/>
<text text-anchor="start" x="1256.5" y="-18.5" font-family="Helvetica,sans-Serif" font-size="10.00">src/Networking/ServerNetwork</text>
<text text-anchor="middle" x="1324" y="-7.5" font-family="Helvetica,sans-Serif" font-size="10.00">Manager.cpp</text>
</a>
</g>
</g>
<!-- Node1&#45;&gt;Node10 -->
<g id="edge9" class="edge">
<title>Node1&#45;&gt;Node10</title>
<path fill="none" stroke="midnightblue" d="M1140.01,-64.92C1180.32,-54.31 1232.04,-40.7 1270.38,-30.61"/>
<polygon fill="midnightblue" stroke="midnightblue" points="1139.07,-61.55 1130.29,-67.48 1140.85,-68.32 1139.07,-61.55"/>
</g>
<!-- Node11 -->
<g id="node11" class="node">
<title>Node11</title>
<g id="a_node11"><a xlink:href="MoveSystem_8cpp.html" target="_top" xlink:title=" ">
<polygon fill="none" stroke="black" points="1418,-6 1418,-25 1564,-25 1564,-6 1418,-6"/>
<text text-anchor="middle" x="1491" y="-13" font-family="Helvetica,sans-Serif" font-size="10.00">src/Physics/MoveSystem.cpp</text>
</a>
</g>
</g>
<!-- Node1&#45;&gt;Node11 -->
<g id="edge10" class="edge">
<title>Node1&#45;&gt;Node11</title>
<path fill="none" stroke="midnightblue" d="M1152.68,-70.52C1220.03,-60.62 1321.17,-45.44 1409,-31 1420.27,-29.15 1432.39,-27.06 1443.77,-25.05"/>
<polygon fill="midnightblue" stroke="midnightblue" points="1151.97,-67.08 1142.59,-72 1152.99,-74.01 1151.97,-67.08"/>
</g>
<!-- Node12 -->
<g id="node12" class="node">
<title>Node12</title>
<g id="a_node12"><a xlink:href="RenderSystem_8cpp.html" target="_top" xlink:title=" ">
<polygon fill="none" stroke="black" points="1582,-6 1582,-25 1732,-25 1732,-6 1582,-6"/>
<text text-anchor="middle" x="1657" y="-13" font-family="Helvetica,sans-Serif" font-size="10.00">src/Texture/RenderSystem.cpp</text>
</a>
</g>
</g>
<!-- Node1&#45;&gt;Node12 -->
<g id="edge11" class="edge">
<title>Node1&#45;&gt;Node12</title>
<path fill="none" stroke="midnightblue" d="M1152.61,-75.45C1250.04,-67.27 1424.54,-51.35 1573,-31 1585.32,-29.31 1598.59,-27.17 1610.88,-25.06"/>
<polygon fill="midnightblue" stroke="midnightblue" points="1152.24,-71.97 1142.56,-76.28 1152.82,-78.94 1152.24,-71.97"/>
</g>
<!-- Node13 -->
<g id="node13" class="node">
<title>Node13</title>
<g id="a_node13"><a xlink:href="TextureManager_8cpp.html" target="_top" xlink:title=" ">
<polygon fill="none" stroke="black" points="1750,-6 1750,-25 1906,-25 1906,-6 1750,-6"/>
<text text-anchor="middle" x="1828" y="-13" font-family="Helvetica,sans-Serif" font-size="10.00">src/Texture/TextureManager.cpp</text>
</a>
</g>
</g>
<!-- Node1&#45;&gt;Node13 -->
<g id="edge12" class="edge">
<title>Node1&#45;&gt;Node13</title>
<path fill="none" stroke="midnightblue" d="M1152.8,-77.94C1276.33,-71.64 1528.62,-56.72 1741,-31 1754.23,-29.4 1768.51,-27.21 1781.61,-25.02"/>
<polygon fill="midnightblue" stroke="midnightblue" points="1152.5,-74.45 1142.69,-78.45 1152.86,-81.44 1152.5,-74.45"/>
</g>
<!-- Node14 -->
<g id="node14" class="node">
<title>Node14</title>
<g id="a_node14"><a xlink:href="ClickSystem_8cpp.html" target="_top" xlink:title=" ">
<polygon fill="none" stroke="black" points="1924.5,-6 1924.5,-25 2043.5,-25 2043.5,-6 1924.5,-6"/>
<text text-anchor="middle" x="1984" y="-13" font-family="Helvetica,sans-Serif" font-size="10.00">src/UI/ClickSystem.cpp</text>
</a>
</g>
</g>
<!-- Node1&#45;&gt;Node14 -->
<g id="edge13" class="edge">
<title>Node1&#45;&gt;Node14</title>
<path fill="none" stroke="midnightblue" d="M1152.8,-80.65C1300.24,-78.19 1635.69,-68.56 1915,-31 1925.92,-29.53 1937.69,-27.3 1948.36,-25.03"/>
<polygon fill="midnightblue" stroke="midnightblue" points="1152.45,-77.16 1142.51,-80.82 1152.57,-84.16 1152.45,-77.16"/>
</g>
<!-- Node15 -->
<g id="node15" class="node">
<title>Node15</title>
<g id="a_node15"><a xlink:href="FPSCounter_8cpp.html" target="_top" xlink:title=" ">
<polygon fill="none" stroke="black" points="2062,-6 2062,-25 2180,-25 2180,-6 2062,-6"/>
<text text-anchor="middle" x="2121" y="-13" font-family="Helvetica,sans-Serif" font-size="10.00">src/UI/FPSCounter.cpp</text>
</a>
</g>
</g>
<!-- Node1&#45;&gt;Node15 -->
<g id="edge14" class="edge">
<title>Node1&#45;&gt;Node15</title>
<path fill="none" stroke="midnightblue" d="M1152.74,-81.65C1317.31,-81.09 1719.55,-74.9 2053,-31 2063.89,-29.57 2075.63,-27.32 2086.24,-25.02"/>
<polygon fill="midnightblue" stroke="midnightblue" points="1152.71,-78.15 1142.72,-81.68 1152.73,-85.15 1152.71,-78.15"/>
</g>
</g>
</svg>
