<?xml version="1.0" encoding="UTF-8" standalone="no"?>
<!DOCTYPE svg PUBLIC "-//W3C//DTD SVG 1.1//EN"
 "http://www.w3.org/Graphics/SVG/1.1/DTD/svg11.dtd">
<!-- Generated by graphviz version 2.44.0 ()
 -->
<!-- Title: includes/platformer&#45;engine/EntityState/EntityWanderState.hpp Pages: 1 -->
<svg width="332pt" height="117pt"
 viewBox="0.00 0.00 331.50 117.00" xmlns="http://www.w3.org/2000/svg" xmlns:xlink="http://www.w3.org/1999/xlink">
<g id="graph0" class="graph" transform="scale(1 1) rotate(0) translate(4 113)">
<title>includes/platformer&#45;engine/EntityState/EntityWanderState.hpp</title>
<!-- Node1 -->
<g id="node1" class="node">
<title>Node1</title>
<g id="a_node1"><a xlink:title=" ">
<polygon fill="#bfbfbf" stroke="black" points="96,-67.5 96,-108.5 214,-108.5 214,-67.5 96,-67.5"/>
<text text-anchor="start" x="104" y="-96.5" font-family="Helvetica,sans-Serif" font-size="10.00">includes/platformer</text>
<text text-anchor="start" x="104" y="-85.5" font-family="Helvetica,sans-Serif" font-size="10.00">&#45;engine/EntityState</text>
<text text-anchor="middle" x="155" y="-74.5" font-family="Helvetica,sans-Serif" font-size="10.00">/EntityWanderState.hpp</text>
</a>
</g>
</g>
<!-- Node2 -->
<g id="node2" class="node">
<title>Node2</title>
<g id="a_node2"><a xlink:href="EntityWanderState_8cpp.html" target="_top" xlink:title=" ">
<polygon fill="none" stroke="black" points="0,-0.5 0,-30.5 140,-30.5 140,-0.5 0,-0.5"/>
<text text-anchor="start" x="8" y="-18.5" font-family="Helvetica,sans-Serif" font-size="10.00">src/EntityState/EntityWander</text>
<text text-anchor="middle" x="70" y="-7.5" font-family="Helvetica,sans-Serif" font-size="10.00">State.cpp</text>
</a>
</g>
</g>
<!-- Node1&#45;&gt;Node2 -->
<g id="edge1" class="edge">
<title>Node1&#45;&gt;Node2</title>
<path fill="none" stroke="midnightblue" d="M123.46,-60.84C111.14,-50.62 97.5,-39.31 87.08,-30.67"/>
<polygon fill="midnightblue" stroke="midnightblue" points="121.39,-63.67 131.32,-67.36 125.86,-58.28 121.39,-63.67"/>
</g>
<!-- Node3 -->
<g id="node3" class="node">
<title>Node3</title>
<g id="a_node3"><a xlink:href="ForceDrivenEntity_8cpp.html" target="_top" xlink:title=" ">
<polygon fill="none" stroke="black" points="158.5,-6 158.5,-25 323.5,-25 323.5,-6 158.5,-6"/>
<text text-anchor="middle" x="241" y="-13" font-family="Helvetica,sans-Serif" font-size="10.00">src/Physics/ForceDrivenEntity.cpp</text>
</a>
</g>
</g>
<!-- Node1&#45;&gt;Node3 -->
<g id="edge2" class="edge">
<title>Node1&#45;&gt;Node3</title>
<path fill="none" stroke="midnightblue" d="M186.76,-60.96C202.13,-48.36 219.56,-34.07 230.42,-25.17"/>
<polygon fill="midnightblue" stroke="midnightblue" points="184.47,-58.32 178.96,-67.36 188.91,-63.73 184.47,-58.32"/>
</g>
</g>
</svg>
