<?xml version="1.0" encoding="UTF-8" standalone="no"?>
<!DOCTYPE svg PUBLIC "-//W3C//DTD SVG 1.1//EN"
 "http://www.w3.org/Graphics/SVG/1.1/DTD/svg11.dtd">
<!-- Generated by graphviz version 2.44.0 ()
 -->
<!-- Title: includes/platformer&#45;engine/EntityState/EntityStateMachine.hpp Pages: 1 -->
<svg width="1607pt" height="564pt"
 viewBox="0.00 0.00 1606.50 564.00" xmlns="http://www.w3.org/2000/svg" xmlns:xlink="http://www.w3.org/1999/xlink">
<g id="graph0" class="graph" transform="scale(1 1) rotate(0) translate(4 560)">
<title>includes/platformer&#45;engine/EntityState/EntityStateMachine.hpp</title>
<!-- Node1 -->
<g id="node1" class="node">
<title>Node1</title>
<g id="a_node1"><a xlink:title=" ">
<polygon fill="#bfbfbf" stroke="black" points="1265,-514.5 1265,-555.5 1387,-555.5 1387,-514.5 1265,-514.5"/>
<text text-anchor="start" x="1273" y="-543.5" font-family="Helvetica,sans-Serif" font-size="10.00">includes/platformer</text>
<text text-anchor="start" x="1273" y="-532.5" font-family="Helvetica,sans-Serif" font-size="10.00">&#45;engine/EntityState</text>
<text text-anchor="middle" x="1326" y="-521.5" font-family="Helvetica,sans-Serif" font-size="10.00">/EntityStateMachine.hpp</text>
</a>
</g>
</g>
<!-- Node2 -->
<g id="node2" class="node">
<title>Node2</title>
<g id="a_node2"><a xlink:title=" ">
<polygon fill="none" stroke="#bfbfbf" points="1281.5,-140 1281.5,-159 1332.5,-159 1332.5,-140 1281.5,-140"/>
<text text-anchor="middle" x="1307" y="-147" font-family="Helvetica,sans-Serif" font-size="10.00">memory</text>
</a>
</g>
</g>
<!-- Node1&#45;&gt;Node2 -->
<g id="edge1" class="edge">
<title>Node1&#45;&gt;Node2</title>
<path fill="none" stroke="midnightblue" d="M1326,-514.32C1326,-488.53 1326,-441.88 1326,-402 1326,-402 1326,-402 1326,-344 1326,-279.71 1315.48,-203.97 1310.1,-169.41"/>
<polygon fill="midnightblue" stroke="midnightblue" points="1313.52,-168.66 1308.49,-159.34 1306.61,-169.77 1313.52,-168.66"/>
</g>
<!-- Node3 -->
<g id="node3" class="node">
<title>Node3</title>
<g id="a_node3"><a xlink:href="RigidBody_8hpp.html" target="_top" xlink:title=" ">
<polygon fill="none" stroke="black" points="247,-391.5 247,-410.5 325,-410.5 325,-391.5 247,-391.5"/>
<text text-anchor="middle" x="286" y="-398.5" font-family="Helvetica,sans-Serif" font-size="10.00">RigidBody.hpp</text>
</a>
</g>
</g>
<!-- Node1&#45;&gt;Node3 -->
<g id="edge2" class="edge">
<title>Node1&#45;&gt;Node3</title>
<path fill="none" stroke="midnightblue" d="M1264.94,-527.34C1109.91,-510.23 688.58,-462.44 339,-411 337.73,-410.81 336.44,-410.62 335.14,-410.42"/>
<polygon fill="midnightblue" stroke="midnightblue" points="335.47,-406.93 325.04,-408.83 334.38,-413.85 335.47,-406.93"/>
</g>
<!-- Node5 -->
<g id="node5" class="node">
<title>Node5</title>
<g id="a_node5"><a xlink:title=" ">
<polygon fill="none" stroke="#bfbfbf" points="1350.5,-134.5 1350.5,-164.5 1445.5,-164.5 1445.5,-134.5 1350.5,-134.5"/>
<text text-anchor="start" x="1358.5" y="-152.5" font-family="Helvetica,sans-Serif" font-size="10.00">boost/serialization</text>
<text text-anchor="middle" x="1398" y="-141.5" font-family="Helvetica,sans-Serif" font-size="10.00">/access.hpp</text>
</a>
</g>
</g>
<!-- Node1&#45;&gt;Node5 -->
<g id="edge69" class="edge">
<title>Node1&#45;&gt;Node5</title>
<path fill="none" stroke="midnightblue" d="M1340.68,-514.12C1357.57,-489.24 1383,-444.69 1383,-402 1383,-402 1383,-402 1383,-282.5 1383,-244.59 1389.18,-200.95 1393.61,-174.56"/>
<polygon fill="midnightblue" stroke="midnightblue" points="1397.06,-175.15 1395.32,-164.7 1390.16,-173.95 1397.06,-175.15"/>
</g>
<!-- Node41 -->
<g id="node41" class="node">
<title>Node41</title>
<g id="a_node41"><a xlink:href="EntityState_8hpp.html" target="_top" xlink:title=" ">
<polygon fill="none" stroke="black" points="1209,-453 1209,-472 1291,-472 1291,-453 1209,-453"/>
<text text-anchor="middle" x="1250" y="-460" font-family="Helvetica,sans-Serif" font-size="10.00">EntityState.hpp</text>
</a>
</g>
</g>
<!-- Node1&#45;&gt;Node41 -->
<g id="edge64" class="edge">
<title>Node1&#45;&gt;Node41</title>
<path fill="none" stroke="midnightblue" d="M1304.83,-514.36C1292.81,-503.21 1277.98,-489.46 1266.78,-479.06"/>
<polygon fill="midnightblue" stroke="midnightblue" points="1269.06,-476.41 1259.35,-472.17 1264.3,-481.54 1269.06,-476.41"/>
</g>
<!-- Node42 -->
<g id="node42" class="node">
<title>Node42</title>
<g id="a_node42"><a xlink:title=" ">
<polygon fill="none" stroke="#bfbfbf" points="1411.5,-447.5 1411.5,-477.5 1506.5,-477.5 1506.5,-447.5 1411.5,-447.5"/>
<text text-anchor="start" x="1419.5" y="-465.5" font-family="Helvetica,sans-Serif" font-size="10.00">boost/serialization</text>
<text text-anchor="middle" x="1459" y="-454.5" font-family="Helvetica,sans-Serif" font-size="10.00">/unique_ptr.hpp</text>
</a>
</g>
</g>
<!-- Node1&#45;&gt;Node42 -->
<g id="edge70" class="edge">
<title>Node1&#45;&gt;Node42</title>
<path fill="none" stroke="midnightblue" d="M1363.05,-514.36C1381.85,-504.39 1404.6,-492.34 1423.22,-482.47"/>
<polygon fill="midnightblue" stroke="midnightblue" points="1425.07,-485.45 1432.27,-477.67 1421.79,-479.26 1425.07,-485.45"/>
</g>
<!-- Node4 -->
<g id="node4" class="node">
<title>Node4</title>
<g id="a_node4"><a xlink:href="Component_8hpp.html" target="_top" xlink:title=" ">
<polygon fill="none" stroke="black" points="763,-207 763,-226 847,-226 847,-207 763,-207"/>
<text text-anchor="middle" x="805" y="-214" font-family="Helvetica,sans-Serif" font-size="10.00">Component.hpp</text>
</a>
</g>
</g>
<!-- Node3&#45;&gt;Node4 -->
<g id="edge3" class="edge">
<title>Node3&#45;&gt;Node4</title>
<path fill="none" stroke="midnightblue" d="M325.24,-400.33C419.67,-400.45 656.62,-396.47 722,-355 766.04,-327.07 790.03,-266.56 799.76,-235.98"/>
<polygon fill="midnightblue" stroke="midnightblue" points="803.18,-236.77 802.71,-226.19 796.48,-234.75 803.18,-236.77"/>
</g>
<!-- Node3&#45;&gt;Node5 -->
<g id="edge62" class="edge">
<title>Node3&#45;&gt;Node5</title>
<path fill="none" stroke="midnightblue" d="M325.24,-398.36C405.29,-394.53 592.98,-383.12 748,-355 982.83,-312.4 1251.21,-209.94 1354.43,-168.42"/>
<polygon fill="midnightblue" stroke="midnightblue" points="1355.93,-171.59 1363.89,-164.6 1353.31,-165.1 1355.93,-171.59"/>
</g>
<!-- Node9 -->
<g id="node9" class="node">
<title>Node9</title>
<g id="a_node9"><a xlink:title=" ">
<polygon fill="none" stroke="#bfbfbf" points="62.5,-134.5 62.5,-164.5 157.5,-164.5 157.5,-134.5 62.5,-134.5"/>
<text text-anchor="start" x="70.5" y="-152.5" font-family="Helvetica,sans-Serif" font-size="10.00">boost/serialization</text>
<text text-anchor="middle" x="110" y="-141.5" font-family="Helvetica,sans-Serif" font-size="10.00">/export.hpp</text>
</a>
</g>
</g>
<!-- Node3&#45;&gt;Node9 -->
<g id="edge63" class="edge">
<title>Node3&#45;&gt;Node9</title>
<path fill="none" stroke="midnightblue" d="M287.45,-391.19C291.93,-360.79 302.49,-258.98 254,-201 248.01,-193.84 204.99,-179.26 167.52,-167.6"/>
<polygon fill="midnightblue" stroke="midnightblue" points="168.22,-164.16 157.63,-164.55 166.16,-170.85 168.22,-164.16"/>
</g>
<!-- Node33 -->
<g id="node33" class="node">
<title>Node33</title>
<g id="a_node33"><a xlink:href="Point_8hpp.html" target="_top" xlink:title=" ">
<polygon fill="none" stroke="black" points="188.5,-207 188.5,-226 245.5,-226 245.5,-207 188.5,-207"/>
<text text-anchor="middle" x="217" y="-214" font-family="Helvetica,sans-Serif" font-size="10.00">Point.hpp</text>
</a>
</g>
</g>
<!-- Node3&#45;&gt;Node33 -->
<g id="edge37" class="edge">
<title>Node3&#45;&gt;Node33</title>
<path fill="none" stroke="midnightblue" d="M262.21,-391.5C246.28,-384.41 226.54,-372.61 217,-355 196.41,-317 204.95,-263.97 211.71,-236.18"/>
<polygon fill="midnightblue" stroke="midnightblue" points="215.16,-236.8 214.32,-226.24 208.39,-235.02 215.16,-236.8"/>
</g>
<!-- Node35 -->
<g id="node35" class="node">
<title>Node35</title>
<g id="a_node35"><a xlink:href="Collision_8hpp.html" target="_top" xlink:title=" ">
<polygon fill="none" stroke="black" points="604.5,-335.5 604.5,-354.5 713.5,-354.5 713.5,-335.5 604.5,-335.5"/>
<text text-anchor="middle" x="659" y="-342.5" font-family="Helvetica,sans-Serif" font-size="10.00">Physics/Collision.hpp</text>
</a>
</g>
</g>
<!-- Node3&#45;&gt;Node35 -->
<g id="edge39" class="edge">
<title>Node3&#45;&gt;Node35</title>
<path fill="none" stroke="midnightblue" d="M325.21,-394.32C389.21,-385.06 516.73,-366.6 594.29,-355.37"/>
<polygon fill="midnightblue" stroke="midnightblue" points="595.03,-358.8 604.43,-353.9 594.03,-351.87 595.03,-358.8"/>
</g>
<!-- Node39 -->
<g id="node39" class="node">
<title>Node39</title>
<g id="a_node39"><a xlink:href="PhysicsTemplate_8hpp.html" target="_top" xlink:title=" ">
<polygon fill="none" stroke="black" points="32.5,-268.5 32.5,-298.5 169.5,-298.5 169.5,-268.5 32.5,-268.5"/>
<text text-anchor="start" x="40.5" y="-286.5" font-family="Helvetica,sans-Serif" font-size="10.00">Physics/Templates/Physics</text>
<text text-anchor="middle" x="101" y="-275.5" font-family="Helvetica,sans-Serif" font-size="10.00">Template.hpp</text>
</a>
</g>
</g>
<!-- Node3&#45;&gt;Node39 -->
<g id="edge59" class="edge">
<title>Node3&#45;&gt;Node39</title>
<path fill="none" stroke="midnightblue" d="M261.52,-391.49C240.21,-383.56 208.93,-370.62 184,-355 161.28,-340.76 138.27,-320.67 122.25,-305.57"/>
<polygon fill="midnightblue" stroke="midnightblue" points="124.63,-303 114.99,-298.61 119.79,-308.06 124.63,-303"/>
</g>
<!-- Node40 -->
<g id="node40" class="node">
<title>Node40</title>
<g id="a_node40"><a xlink:title=" ">
<polygon fill="none" stroke="#bfbfbf" points="226.5,-335.5 226.5,-354.5 261.5,-354.5 261.5,-335.5 226.5,-335.5"/>
<text text-anchor="middle" x="244" y="-342.5" font-family="Helvetica,sans-Serif" font-size="10.00">map</text>
</a>
</g>
</g>
<!-- Node3&#45;&gt;Node40 -->
<g id="edge61" class="edge">
<title>Node3&#45;&gt;Node40</title>
<path fill="none" stroke="midnightblue" d="M279.06,-391.08C273.07,-383.38 264.25,-372.03 256.95,-362.65"/>
<polygon fill="midnightblue" stroke="midnightblue" points="259.71,-360.5 250.81,-354.75 254.18,-364.79 259.71,-360.5"/>
</g>
<!-- Node4&#45;&gt;Node2 -->
<g id="edge4" class="edge">
<title>Node4&#45;&gt;Node2</title>
<path fill="none" stroke="midnightblue" d="M847.32,-211.65C954.73,-201.79 1232.33,-175.62 1273,-165 1275.36,-164.38 1277.76,-163.63 1280.15,-162.8"/>
<polygon fill="midnightblue" stroke="midnightblue" points="1281.68,-165.96 1289.7,-159.04 1279.11,-159.45 1281.68,-165.96"/>
</g>
<!-- Node4&#45;&gt;Node5 -->
<g id="edge5" class="edge">
<title>Node4&#45;&gt;Node5</title>
<path fill="none" stroke="midnightblue" d="M847.18,-212.41C953.16,-204.51 1229.47,-183.03 1340.54,-165.04"/>
<polygon fill="midnightblue" stroke="midnightblue" points="1341.18,-168.48 1350.45,-163.36 1340.01,-161.58 1341.18,-168.48"/>
</g>
<!-- Node6 -->
<g id="node6" class="node">
<title>Node6</title>
<g id="a_node6"><a xlink:title=" ">
<polygon fill="none" stroke="#bfbfbf" points="757.5,-134.5 757.5,-164.5 852.5,-164.5 852.5,-134.5 757.5,-134.5"/>
<text text-anchor="start" x="765.5" y="-152.5" font-family="Helvetica,sans-Serif" font-size="10.00">boost/serialization</text>
<text text-anchor="middle" x="805" y="-141.5" font-family="Helvetica,sans-Serif" font-size="10.00">/map.hpp</text>
</a>
</g>
</g>
<!-- Node4&#45;&gt;Node6 -->
<g id="edge6" class="edge">
<title>Node4&#45;&gt;Node6</title>
<path fill="none" stroke="midnightblue" d="M805,-206.73C805,-198.54 805,-185.92 805,-174.71"/>
<polygon fill="midnightblue" stroke="midnightblue" points="808.5,-174.59 805,-164.59 801.5,-174.59 808.5,-174.59"/>
</g>
<!-- Node7 -->
<g id="node7" class="node">
<title>Node7</title>
<g id="a_node7"><a xlink:title=" ">
<polygon fill="none" stroke="#bfbfbf" points="175.5,-134.5 175.5,-164.5 270.5,-164.5 270.5,-134.5 175.5,-134.5"/>
<text text-anchor="start" x="183.5" y="-152.5" font-family="Helvetica,sans-Serif" font-size="10.00">boost/serialization</text>
<text text-anchor="middle" x="223" y="-141.5" font-family="Helvetica,sans-Serif" font-size="10.00">/vector.hpp</text>
</a>
</g>
</g>
<!-- Node4&#45;&gt;Node7 -->
<g id="edge7" class="edge">
<title>Node4&#45;&gt;Node7</title>
<path fill="none" stroke="midnightblue" d="M762.76,-211.81C652.14,-202.1 357.78,-175.93 280.85,-164.81"/>
<polygon fill="midnightblue" stroke="midnightblue" points="281.2,-161.32 270.78,-163.22 280.11,-168.24 281.2,-161.32"/>
</g>
<!-- Node8 -->
<g id="node8" class="node">
<title>Node8</title>
<g id="a_node8"><a xlink:title=" ">
<polygon fill="none" stroke="#bfbfbf" points="1168.5,-134.5 1168.5,-164.5 1263.5,-164.5 1263.5,-134.5 1168.5,-134.5"/>
<text text-anchor="start" x="1176.5" y="-152.5" font-family="Helvetica,sans-Serif" font-size="10.00">boost/serialization</text>
<text text-anchor="middle" x="1216" y="-141.5" font-family="Helvetica,sans-Serif" font-size="10.00">/shared_ptr.hpp</text>
</a>
</g>
</g>
<!-- Node4&#45;&gt;Node8 -->
<g id="edge8" class="edge">
<title>Node4&#45;&gt;Node8</title>
<path fill="none" stroke="midnightblue" d="M847.21,-210.97C912,-203.68 1040,-188.01 1158.24,-165.02"/>
<polygon fill="midnightblue" stroke="midnightblue" points="1159.05,-168.42 1168.19,-163.06 1157.7,-161.55 1159.05,-168.42"/>
</g>
<!-- Node4&#45;&gt;Node9 -->
<g id="edge9" class="edge">
<title>Node4&#45;&gt;Node9</title>
<path fill="none" stroke="midnightblue" d="M762.96,-211.67C729.63,-208.66 681.84,-204.43 640,-201 432.72,-184.02 376.18,-199.13 167.58,-165.08"/>
<polygon fill="midnightblue" stroke="midnightblue" points="167.97,-161.6 157.54,-163.42 166.83,-168.5 167.97,-161.6"/>
</g>
<!-- Node10 -->
<g id="node10" class="node">
<title>Node10</title>
<g id="a_node10"><a xlink:title=" ">
<polygon fill="none" stroke="#bfbfbf" points="289,-134.5 289,-164.5 393,-164.5 393,-134.5 289,-134.5"/>
<text text-anchor="start" x="297" y="-152.5" font-family="Helvetica,sans-Serif" font-size="10.00">boost/archive/binary</text>
<text text-anchor="middle" x="341" y="-141.5" font-family="Helvetica,sans-Serif" font-size="10.00">_iarchive.hpp</text>
</a>
</g>
</g>
<!-- Node4&#45;&gt;Node10 -->
<g id="edge10" class="edge">
<title>Node4&#45;&gt;Node10</title>
<path fill="none" stroke="midnightblue" d="M762.71,-211.73C690.85,-204.99 540.21,-189.42 403.41,-165.13"/>
<polygon fill="midnightblue" stroke="midnightblue" points="403.63,-161.62 393.16,-163.29 402.39,-168.51 403.63,-161.62"/>
</g>
<!-- Node11 -->
<g id="node11" class="node">
<title>Node11</title>
<g id="a_node11"><a xlink:title=" ">
<polygon fill="none" stroke="#bfbfbf" points="411,-134.5 411,-164.5 515,-164.5 515,-134.5 411,-134.5"/>
<text text-anchor="start" x="419" y="-152.5" font-family="Helvetica,sans-Serif" font-size="10.00">boost/archive/binary</text>
<text text-anchor="middle" x="463" y="-141.5" font-family="Helvetica,sans-Serif" font-size="10.00">_oarchive.hpp</text>
</a>
</g>
</g>
<!-- Node4&#45;&gt;Node11 -->
<g id="edge11" class="edge">
<title>Node4&#45;&gt;Node11</title>
<path fill="none" stroke="midnightblue" d="M762.96,-208.69C709.84,-199.93 615.37,-183.79 525.05,-165.16"/>
<polygon fill="midnightblue" stroke="midnightblue" points="525.7,-161.72 515.2,-163.11 524.28,-168.57 525.7,-161.72"/>
</g>
<!-- Node12 -->
<g id="node12" class="node">
<title>Node12</title>
<g id="a_node12"><a xlink:title=" ">
<polygon fill="none" stroke="#bfbfbf" points="533,-134.5 533,-164.5 627,-164.5 627,-134.5 533,-134.5"/>
<text text-anchor="start" x="541" y="-152.5" font-family="Helvetica,sans-Serif" font-size="10.00">boost/archive/text</text>
<text text-anchor="middle" x="580" y="-141.5" font-family="Helvetica,sans-Serif" font-size="10.00">_iarchive.hpp</text>
</a>
</g>
</g>
<!-- Node4&#45;&gt;Node12 -->
<g id="edge12" class="edge">
<title>Node4&#45;&gt;Node12</title>
<path fill="none" stroke="midnightblue" d="M775.12,-206.87C740,-196.72 680.94,-179.66 636.98,-166.96"/>
<polygon fill="midnightblue" stroke="midnightblue" points="637.86,-163.57 627.28,-164.16 635.92,-170.3 637.86,-163.57"/>
</g>
<!-- Node13 -->
<g id="node13" class="node">
<title>Node13</title>
<g id="a_node13"><a xlink:title=" ">
<polygon fill="none" stroke="#bfbfbf" points="645,-134.5 645,-164.5 739,-164.5 739,-134.5 645,-134.5"/>
<text text-anchor="start" x="653" y="-152.5" font-family="Helvetica,sans-Serif" font-size="10.00">boost/archive/text</text>
<text text-anchor="middle" x="692" y="-141.5" font-family="Helvetica,sans-Serif" font-size="10.00">_oarchive.hpp</text>
</a>
</g>
</g>
<!-- Node4&#45;&gt;Node13 -->
<g id="edge13" class="edge">
<title>Node4&#45;&gt;Node13</title>
<path fill="none" stroke="midnightblue" d="M789.76,-206.73C773.31,-197.27 746.61,-181.91 725.27,-169.64"/>
<polygon fill="midnightblue" stroke="midnightblue" points="726.91,-166.54 716.49,-164.59 723.42,-172.61 726.91,-166.54"/>
</g>
<!-- Node14 -->
<g id="node14" class="node">
<title>Node14</title>
<g id="a_node14"><a xlink:href="portable__binary__iarchive_8hpp.html" target="_top" xlink:title=" ">
<polygon fill="none" stroke="black" points="870.5,-134.5 870.5,-164.5 1001.5,-164.5 1001.5,-134.5 870.5,-134.5"/>
<text text-anchor="start" x="878.5" y="-152.5" font-family="Helvetica,sans-Serif" font-size="10.00">Networking/boost/portable</text>
<text text-anchor="middle" x="936" y="-141.5" font-family="Helvetica,sans-Serif" font-size="10.00">_binary_iarchive.hpp</text>
</a>
</g>
</g>
<!-- Node4&#45;&gt;Node14 -->
<g id="edge14" class="edge">
<title>Node4&#45;&gt;Node14</title>
<path fill="none" stroke="midnightblue" d="M822.4,-206.87C841.65,-197.31 873.27,-181.63 898.26,-169.22"/>
<polygon fill="midnightblue" stroke="midnightblue" points="900.08,-172.23 907.48,-164.65 896.97,-165.96 900.08,-172.23"/>
</g>
<!-- Node29 -->
<g id="node29" class="node">
<title>Node29</title>
<g id="a_node29"><a xlink:href="portable__binary__oarchive_8hpp.html" target="_top" xlink:title=" ">
<polygon fill="none" stroke="black" points="1019.5,-134.5 1019.5,-164.5 1150.5,-164.5 1150.5,-134.5 1019.5,-134.5"/>
<text text-anchor="start" x="1027.5" y="-152.5" font-family="Helvetica,sans-Serif" font-size="10.00">Networking/boost/portable</text>
<text text-anchor="middle" x="1085" y="-141.5" font-family="Helvetica,sans-Serif" font-size="10.00">_binary_oarchive.hpp</text>
</a>
</g>
</g>
<!-- Node4&#45;&gt;Node29 -->
<g id="edge29" class="edge">
<title>Node4&#45;&gt;Node29</title>
<path fill="none" stroke="midnightblue" d="M841.89,-206.94C885.65,-196.78 959.56,-179.62 1014.43,-166.88"/>
<polygon fill="midnightblue" stroke="midnightblue" points="1015.49,-170.23 1024.44,-164.56 1013.91,-163.41 1015.49,-170.23"/>
</g>
<!-- Node15 -->
<g id="node15" class="node">
<title>Node15</title>
<g id="a_node15"><a xlink:title=" ">
<polygon fill="none" stroke="#bfbfbf" points="428.5,-73 428.5,-92 477.5,-92 477.5,-73 428.5,-73"/>
<text text-anchor="middle" x="453" y="-80" font-family="Helvetica,sans-Serif" font-size="10.00">istream</text>
</a>
</g>
</g>
<!-- Node14&#45;&gt;Node15 -->
<g id="edge15" class="edge">
<title>Node14&#45;&gt;Node15</title>
<path fill="none" stroke="midnightblue" d="M870.21,-135.41C867.1,-134.91 864.02,-134.44 861,-134 695.28,-110.08 648.02,-140.21 486,-98 483.7,-97.4 481.36,-96.66 479.03,-95.83"/>
<polygon fill="midnightblue" stroke="midnightblue" points="480.34,-92.59 469.76,-92.09 477.72,-99.08 480.34,-92.59"/>
</g>
<!-- Node16 -->
<g id="node16" class="node">
<title>Node16</title>
<g id="a_node16"><a xlink:title=" ">
<polygon fill="none" stroke="#bfbfbf" points="1037.5,-67.5 1037.5,-97.5 1132.5,-97.5 1132.5,-67.5 1037.5,-67.5"/>
<text text-anchor="start" x="1045.5" y="-85.5" font-family="Helvetica,sans-Serif" font-size="10.00">boost/serialization</text>
<text text-anchor="middle" x="1085" y="-74.5" font-family="Helvetica,sans-Serif" font-size="10.00">/string.hpp</text>
</a>
</g>
</g>
<!-- Node14&#45;&gt;Node16 -->
<g id="edge16" class="edge">
<title>Node14&#45;&gt;Node16</title>
<path fill="none" stroke="midnightblue" d="M968.33,-134.4C990.3,-124.81 1019.56,-112.05 1043.28,-101.7"/>
<polygon fill="midnightblue" stroke="midnightblue" points="1044.97,-104.78 1052.73,-97.58 1042.17,-98.37 1044.97,-104.78"/>
</g>
<!-- Node17 -->
<g id="node17" class="node">
<title>Node17</title>
<g id="a_node17"><a xlink:title=" ">
<polygon fill="none" stroke="#bfbfbf" points="495,-67.5 495,-97.5 611,-97.5 611,-67.5 495,-67.5"/>
<text text-anchor="start" x="503" y="-85.5" font-family="Helvetica,sans-Serif" font-size="10.00">boost/serialization</text>
<text text-anchor="middle" x="553" y="-74.5" font-family="Helvetica,sans-Serif" font-size="10.00">/item_version_type.hpp</text>
</a>
</g>
</g>
<!-- Node14&#45;&gt;Node17 -->
<g id="edge17" class="edge">
<title>Node14&#45;&gt;Node17</title>
<path fill="none" stroke="midnightblue" d="M870.18,-135.61C867.08,-135.05 864.01,-134.51 861,-134 757.38,-116.25 728.23,-117.38 620.99,-98.11"/>
<polygon fill="midnightblue" stroke="midnightblue" points="621.52,-94.65 611.06,-96.31 620.27,-101.54 621.52,-94.65"/>
</g>
<!-- Node18 -->
<g id="node18" class="node">
<title>Node18</title>
<g id="a_node18"><a xlink:title=" ">
<polygon fill="none" stroke="#bfbfbf" points="1151,-67.5 1151,-97.5 1261,-97.5 1261,-67.5 1151,-67.5"/>
<text text-anchor="start" x="1159" y="-85.5" font-family="Helvetica,sans-Serif" font-size="10.00">boost/archive/archive</text>
<text text-anchor="middle" x="1206" y="-74.5" font-family="Helvetica,sans-Serif" font-size="10.00">_exception.hpp</text>
</a>
</g>
</g>
<!-- Node14&#45;&gt;Node18 -->
<g id="edge18" class="edge">
<title>Node14&#45;&gt;Node18</title>
<path fill="none" stroke="midnightblue" d="M994.25,-134.48C1037.35,-124.1 1096.06,-109.97 1140.74,-99.21"/>
<polygon fill="midnightblue" stroke="midnightblue" points="1141.71,-102.58 1150.62,-96.83 1140.08,-95.77 1141.71,-102.58"/>
</g>
<!-- Node19 -->
<g id="node19" class="node">
<title>Node19</title>
<g id="a_node19"><a xlink:title=" ">
<polygon fill="none" stroke="#bfbfbf" points="629,-67.5 629,-97.5 739,-97.5 739,-67.5 629,-67.5"/>
<text text-anchor="start" x="637" y="-85.5" font-family="Helvetica,sans-Serif" font-size="10.00">boost/archive/basic</text>
<text text-anchor="middle" x="684" y="-74.5" font-family="Helvetica,sans-Serif" font-size="10.00">_binary_iprimitive.hpp</text>
</a>
</g>
</g>
<!-- Node14&#45;&gt;Node19 -->
<g id="edge19" class="edge">
<title>Node14&#45;&gt;Node19</title>
<path fill="none" stroke="midnightblue" d="M881.63,-134.48C842.6,-124.41 789.84,-110.8 748.65,-100.17"/>
<polygon fill="midnightblue" stroke="midnightblue" points="749.26,-96.72 738.71,-97.61 747.52,-103.5 749.26,-96.72"/>
</g>
<!-- Node20 -->
<g id="node20" class="node">
<title>Node20</title>
<g id="a_node20"><a xlink:title=" ">
<polygon fill="none" stroke="#bfbfbf" points="296,-67.5 296,-97.5 410,-97.5 410,-67.5 296,-67.5"/>
<text text-anchor="start" x="304" y="-85.5" font-family="Helvetica,sans-Serif" font-size="10.00">boost/archive/detail</text>
<text text-anchor="middle" x="353" y="-74.5" font-family="Helvetica,sans-Serif" font-size="10.00">/common_iarchive.hpp</text>
</a>
</g>
</g>
<!-- Node14&#45;&gt;Node20 -->
<g id="edge20" class="edge">
<title>Node14&#45;&gt;Node20</title>
<path fill="none" stroke="midnightblue" d="M870.22,-135.36C867.11,-134.87 864.02,-134.41 861,-134 668.97,-107.7 615.68,-126.56 420.17,-98.04"/>
<polygon fill="midnightblue" stroke="midnightblue" points="420.55,-94.55 410.15,-96.55 419.53,-101.48 420.55,-94.55"/>
</g>
<!-- Node21 -->
<g id="node21" class="node">
<title>Node21</title>
<g id="a_node21"><a xlink:title=" ">
<polygon fill="none" stroke="#bfbfbf" points="757.5,-67.5 757.5,-97.5 864.5,-97.5 864.5,-67.5 757.5,-67.5"/>
<text text-anchor="start" x="765.5" y="-85.5" font-family="Helvetica,sans-Serif" font-size="10.00">boost/archive/detail</text>
<text text-anchor="middle" x="811" y="-74.5" font-family="Helvetica,sans-Serif" font-size="10.00">/register_archive.hpp</text>
</a>
</g>
</g>
<!-- Node14&#45;&gt;Node21 -->
<g id="edge21" class="edge">
<title>Node14&#45;&gt;Node21</title>
<path fill="none" stroke="midnightblue" d="M908.88,-134.4C890.78,-124.98 866.77,-112.5 847.07,-102.26"/>
<polygon fill="midnightblue" stroke="midnightblue" points="848.56,-99.08 838.07,-97.58 845.33,-105.3 848.56,-99.08"/>
</g>
<!-- Node22 -->
<g id="node22" class="node">
<title>Node22</title>
<g id="a_node22"><a xlink:href="portable__binary__archive_8hpp.html" target="_top" xlink:title=" ">
<polygon fill="none" stroke="black" points="882.5,-73 882.5,-92 1019.5,-92 1019.5,-73 882.5,-73"/>
<text text-anchor="middle" x="951" y="-80" font-family="Helvetica,sans-Serif" font-size="10.00">portable_binary_archive.hpp</text>
</a>
</g>
</g>
<!-- Node14&#45;&gt;Node22 -->
<g id="edge22" class="edge">
<title>Node14&#45;&gt;Node22</title>
<path fill="none" stroke="midnightblue" d="M939.25,-134.4C941.43,-124.96 944.32,-112.45 946.69,-102.19"/>
<polygon fill="midnightblue" stroke="midnightblue" points="950.16,-102.73 948.99,-92.19 943.33,-101.15 950.16,-102.73"/>
</g>
<!-- Node23 -->
<g id="node23" class="node">
<title>Node23</title>
<g id="a_node23"><a xlink:title=" ">
<polygon fill="none" stroke="#bfbfbf" points="627.5,-6 627.5,-25 714.5,-25 714.5,-6 627.5,-6"/>
<text text-anchor="middle" x="671" y="-13" font-family="Helvetica,sans-Serif" font-size="10.00">boost/config.hpp</text>
</a>
</g>
</g>
<!-- Node22&#45;&gt;Node23 -->
<g id="edge23" class="edge">
<title>Node22&#45;&gt;Node23</title>
<path fill="none" stroke="midnightblue" d="M909.24,-72.96C863.39,-63.41 787.7,-47.17 723,-31 718.91,-29.98 714.65,-28.87 710.41,-27.73"/>
<polygon fill="midnightblue" stroke="midnightblue" points="711.19,-24.32 700.63,-25.06 709.35,-31.07 711.19,-24.32"/>
</g>
<!-- Node24 -->
<g id="node24" class="node">
<title>Node24</title>
<g id="a_node24"><a xlink:title=" ">
<polygon fill="none" stroke="#bfbfbf" points="732.5,-6 732.5,-25 823.5,-25 823.5,-6 732.5,-6"/>
<text text-anchor="middle" x="778" y="-13" font-family="Helvetica,sans-Serif" font-size="10.00">boost/cstdint.hpp</text>
</a>
</g>
</g>
<!-- Node22&#45;&gt;Node24 -->
<g id="edge24" class="edge">
<title>Node22&#45;&gt;Node24</title>
<path fill="none" stroke="midnightblue" d="M928.03,-72.87C897.83,-61.52 844.6,-41.52 810.34,-28.65"/>
<polygon fill="midnightblue" stroke="midnightblue" points="811.38,-25.3 800.79,-25.06 808.92,-31.86 811.38,-25.3"/>
</g>
<!-- Node25 -->
<g id="node25" class="node">
<title>Node25</title>
<g id="a_node25"><a xlink:title=" ">
<polygon fill="none" stroke="#bfbfbf" points="842,-6 842,-25 960,-25 960,-6 842,-6"/>
<text text-anchor="middle" x="901" y="-13" font-family="Helvetica,sans-Serif" font-size="10.00">boost/static_assert.hpp</text>
</a>
</g>
</g>
<!-- Node22&#45;&gt;Node25 -->
<g id="edge25" class="edge">
<title>Node22&#45;&gt;Node25</title>
<path fill="none" stroke="midnightblue" d="M944.26,-72.73C936.46,-62.6 923.45,-45.69 913.74,-33.06"/>
<polygon fill="midnightblue" stroke="midnightblue" points="916.51,-30.92 907.64,-25.13 910.96,-35.19 916.51,-30.92"/>
</g>
<!-- Node26 -->
<g id="node26" class="node">
<title>Node26</title>
<g id="a_node26"><a xlink:title=" ">
<polygon fill="none" stroke="#bfbfbf" points="978.5,-6 978.5,-25 1023.5,-25 1023.5,-6 978.5,-6"/>
<text text-anchor="middle" x="1001" y="-13" font-family="Helvetica,sans-Serif" font-size="10.00">climits</text>
</a>
</g>
</g>
<!-- Node22&#45;&gt;Node26 -->
<g id="edge26" class="edge">
<title>Node22&#45;&gt;Node26</title>
<path fill="none" stroke="midnightblue" d="M957.74,-72.73C965.54,-62.6 978.55,-45.69 988.26,-33.06"/>
<polygon fill="midnightblue" stroke="midnightblue" points="991.04,-35.19 994.36,-25.13 985.49,-30.92 991.04,-35.19"/>
</g>
<!-- Node27 -->
<g id="node27" class="node">
<title>Node27</title>
<g id="a_node27"><a xlink:title=" ">
<polygon fill="none" stroke="#bfbfbf" points="1041.5,-0.5 1041.5,-30.5 1142.5,-30.5 1142.5,-0.5 1041.5,-0.5"/>
<text text-anchor="start" x="1049.5" y="-18.5" font-family="Helvetica,sans-Serif" font-size="10.00">boost/archive/basic</text>
<text text-anchor="middle" x="1092" y="-7.5" font-family="Helvetica,sans-Serif" font-size="10.00">_archive.hpp</text>
</a>
</g>
</g>
<!-- Node22&#45;&gt;Node27 -->
<g id="edge27" class="edge">
<title>Node22&#45;&gt;Node27</title>
<path fill="none" stroke="midnightblue" d="M969.72,-72.87C990.7,-63.2 1025.3,-47.25 1052.35,-34.78"/>
<polygon fill="midnightblue" stroke="midnightblue" points="1053.95,-37.89 1061.57,-30.53 1051.02,-31.54 1053.95,-37.89"/>
</g>
<!-- Node28 -->
<g id="node28" class="node">
<title>Node28</title>
<g id="a_node28"><a xlink:title=" ">
<polygon fill="none" stroke="#bfbfbf" points="1160.5,-0.5 1160.5,-30.5 1255.5,-30.5 1255.5,-0.5 1160.5,-0.5"/>
<text text-anchor="start" x="1168.5" y="-18.5" font-family="Helvetica,sans-Serif" font-size="10.00">boost/predef/other</text>
<text text-anchor="middle" x="1208" y="-7.5" font-family="Helvetica,sans-Serif" font-size="10.00">/endian.h</text>
</a>
</g>
</g>
<!-- Node22&#45;&gt;Node28 -->
<g id="edge28" class="edge">
<title>Node22&#45;&gt;Node28</title>
<path fill="none" stroke="midnightblue" d="M984.98,-72.94C1022.83,-63.4 1086.12,-47.44 1150.5,-31.13"/>
<polygon fill="midnightblue" stroke="midnightblue" points="1151.58,-34.46 1160.42,-28.61 1149.86,-27.68 1151.58,-34.46"/>
</g>
<!-- Node29&#45;&gt;Node16 -->
<g id="edge31" class="edge">
<title>Node29&#45;&gt;Node16</title>
<path fill="none" stroke="midnightblue" d="M1085,-134.4C1085,-126.64 1085,-116.81 1085,-107.86"/>
<polygon fill="midnightblue" stroke="midnightblue" points="1088.5,-107.58 1085,-97.58 1081.5,-107.58 1088.5,-107.58"/>
</g>
<!-- Node29&#45;&gt;Node18 -->
<g id="edge32" class="edge">
<title>Node29&#45;&gt;Node18</title>
<path fill="none" stroke="midnightblue" d="M1111.26,-134.4C1128.7,-125.03 1151.8,-112.62 1170.83,-102.39"/>
<polygon fill="midnightblue" stroke="midnightblue" points="1172.64,-105.39 1179.8,-97.58 1169.33,-99.23 1172.64,-105.39"/>
</g>
<!-- Node29&#45;&gt;Node21 -->
<g id="edge35" class="edge">
<title>Node29&#45;&gt;Node21</title>
<path fill="none" stroke="midnightblue" d="M1025.88,-134.48C981.33,-123.91 920.31,-109.43 874.68,-98.61"/>
<polygon fill="midnightblue" stroke="midnightblue" points="875.44,-95.19 864.9,-96.29 873.82,-102 875.44,-95.19"/>
</g>
<!-- Node29&#45;&gt;Node22 -->
<g id="edge36" class="edge">
<title>Node29&#45;&gt;Node22</title>
<path fill="none" stroke="midnightblue" d="M1055.92,-134.4C1032.62,-123.09 1000.19,-107.36 977.57,-96.39"/>
<polygon fill="midnightblue" stroke="midnightblue" points="979.06,-93.22 968.54,-92.01 976.01,-99.52 979.06,-93.22"/>
</g>
<!-- Node30 -->
<g id="node30" class="node">
<title>Node30</title>
<g id="a_node30"><a xlink:title=" ">
<polygon fill="none" stroke="#bfbfbf" points="1415,-73 1415,-92 1467,-92 1467,-73 1415,-73"/>
<text text-anchor="middle" x="1441" y="-80" font-family="Helvetica,sans-Serif" font-size="10.00">ostream</text>
</a>
</g>
</g>
<!-- Node29&#45;&gt;Node30 -->
<g id="edge30" class="edge">
<title>Node29&#45;&gt;Node30</title>
<path fill="none" stroke="midnightblue" d="M1150.74,-135.45C1153.53,-134.95 1156.29,-134.46 1159,-134 1268.36,-115.33 1299.04,-127.46 1406,-98 1408.44,-97.33 1410.94,-96.53 1413.42,-95.66"/>
<polygon fill="midnightblue" stroke="midnightblue" points="1414.7,-98.92 1422.77,-92.05 1412.18,-92.39 1414.7,-98.92"/>
</g>
<!-- Node31 -->
<g id="node31" class="node">
<title>Node31</title>
<g id="a_node31"><a xlink:title=" ">
<polygon fill="none" stroke="#bfbfbf" points="1485.5,-67.5 1485.5,-97.5 1598.5,-97.5 1598.5,-67.5 1485.5,-67.5"/>
<text text-anchor="start" x="1493.5" y="-85.5" font-family="Helvetica,sans-Serif" font-size="10.00">boost/archive/basic</text>
<text text-anchor="middle" x="1542" y="-74.5" font-family="Helvetica,sans-Serif" font-size="10.00">_binary_oprimitive.hpp</text>
</a>
</g>
</g>
<!-- Node29&#45;&gt;Node31 -->
<g id="edge33" class="edge">
<title>Node29&#45;&gt;Node31</title>
<path fill="none" stroke="midnightblue" d="M1150.72,-135.34C1153.51,-134.87 1156.28,-134.42 1159,-134 1295.98,-112.84 1334.41,-120.86 1475.31,-98"/>
<polygon fill="midnightblue" stroke="midnightblue" points="1475.89,-101.45 1485.19,-96.37 1474.75,-94.54 1475.89,-101.45"/>
</g>
<!-- Node32 -->
<g id="node32" class="node">
<title>Node32</title>
<g id="a_node32"><a xlink:title=" ">
<polygon fill="none" stroke="#bfbfbf" points="1279.5,-67.5 1279.5,-97.5 1396.5,-97.5 1396.5,-67.5 1279.5,-67.5"/>
<text text-anchor="start" x="1287.5" y="-85.5" font-family="Helvetica,sans-Serif" font-size="10.00">boost/archive/detail</text>
<text text-anchor="middle" x="1338" y="-74.5" font-family="Helvetica,sans-Serif" font-size="10.00">/common_oarchive.hpp</text>
</a>
</g>
</g>
<!-- Node29&#45;&gt;Node32 -->
<g id="edge34" class="edge">
<title>Node29&#45;&gt;Node32</title>
<path fill="none" stroke="midnightblue" d="M1139.59,-134.48C1178.85,-124.39 1231.97,-110.74 1273.36,-100.11"/>
<polygon fill="midnightblue" stroke="midnightblue" points="1274.26,-103.49 1283.08,-97.61 1272.52,-96.71 1274.26,-103.49"/>
</g>
<!-- Node34 -->
<g id="node34" class="node">
<title>Node34</title>
<g id="a_node34"><a xlink:title=" ">
<polygon fill="none" stroke="#bfbfbf" points="0,-140 0,-159 44,-159 44,-140 0,-140"/>
<text text-anchor="middle" x="22" y="-147" font-family="Helvetica,sans-Serif" font-size="10.00">cmath</text>
</a>
</g>
</g>
<!-- Node33&#45;&gt;Node34 -->
<g id="edge38" class="edge">
<title>Node33&#45;&gt;Node34</title>
<path fill="none" stroke="midnightblue" d="M188.44,-208.01C155.4,-199.03 99.56,-182.96 53,-165 51.58,-164.45 50.13,-163.87 48.68,-163.26"/>
<polygon fill="midnightblue" stroke="midnightblue" points="49.76,-159.91 39.2,-159.06 46.92,-166.31 49.76,-159.91"/>
</g>
<!-- Node35&#45;&gt;Node2 -->
<g id="edge40" class="edge">
<title>Node35&#45;&gt;Node2</title>
<path fill="none" stroke="midnightblue" d="M695,-335.47C730.15,-326.94 785.04,-313.1 832,-299 961.09,-260.23 989.44,-238.16 1119,-201 1186.56,-181.62 1206.2,-186.87 1273,-165 1274.92,-164.37 1276.88,-163.68 1278.85,-162.94"/>
<polygon fill="midnightblue" stroke="midnightblue" points="1280.54,-166.04 1288.52,-159.07 1277.93,-159.54 1280.54,-166.04"/>
</g>
<!-- Node35&#45;&gt;Node5 -->
<g id="edge56" class="edge">
<title>Node35&#45;&gt;Node5</title>
<path fill="none" stroke="midnightblue" d="M713.6,-335.57C761.12,-327.73 831.64,-314.88 892,-299 1024.39,-264.17 1052.21,-238.03 1184,-201 1250.36,-182.36 1270.32,-182.02 1340.59,-165.29"/>
<polygon fill="midnightblue" stroke="midnightblue" points="1341.46,-168.68 1350.37,-162.94 1339.82,-161.88 1341.46,-168.68"/>
</g>
<!-- Node35&#45;&gt;Node8 -->
<g id="edge58" class="edge">
<title>Node35&#45;&gt;Node8</title>
<path fill="none" stroke="midnightblue" d="M683.82,-335.45C732.11,-318.43 841.58,-277.96 928,-232 950.09,-220.25 951.84,-210.47 975,-201 1049.27,-170.63 1075.73,-182.32 1158.62,-164.95"/>
<polygon fill="midnightblue" stroke="midnightblue" points="1159.44,-168.35 1168.46,-162.8 1157.95,-161.51 1159.44,-168.35"/>
</g>
<!-- Node35&#45;&gt;Node9 -->
<g id="edge57" class="edge">
<title>Node35&#45;&gt;Node9</title>
<path fill="none" stroke="midnightblue" d="M622.93,-335.44C562.7,-320.23 439.02,-285.02 345,-232 326.01,-221.29 326.46,-210.82 307,-201 252.07,-173.3 230.74,-180.3 167.7,-165.34"/>
<polygon fill="midnightblue" stroke="midnightblue" points="168.2,-161.85 157.66,-162.85 166.52,-168.65 168.2,-161.85"/>
</g>
<!-- Node35&#45;&gt;Node33 -->
<g id="edge41" class="edge">
<title>Node35&#45;&gt;Node33</title>
<path fill="none" stroke="midnightblue" d="M604.33,-343.2C540.1,-340.69 431.24,-331.46 344,-299 301.54,-283.2 258.5,-251.56 235.03,-232.69"/>
<polygon fill="midnightblue" stroke="midnightblue" points="236.99,-229.77 227.04,-226.14 232.56,-235.19 236.99,-229.77"/>
</g>
<!-- Node36 -->
<g id="node36" class="node">
<title>Node36</title>
<g id="a_node36"><a xlink:href="Collider_8hpp.html" target="_top" xlink:title=" ">
<polygon fill="none" stroke="black" points="625.5,-274 625.5,-293 692.5,-293 692.5,-274 625.5,-274"/>
<text text-anchor="middle" x="659" y="-281" font-family="Helvetica,sans-Serif" font-size="10.00">Collider.hpp</text>
</a>
</g>
</g>
<!-- Node35&#45;&gt;Node36 -->
<g id="edge42" class="edge">
<title>Node35&#45;&gt;Node36</title>
<path fill="none" stroke="midnightblue" d="M659,-335.48C659,-327.08 659,-313.98 659,-303.16"/>
<polygon fill="midnightblue" stroke="midnightblue" points="662.5,-303.01 659,-293.01 655.5,-303.01 662.5,-303.01"/>
</g>
<!-- Node36&#45;&gt;Node4 -->
<g id="edge43" class="edge">
<title>Node36&#45;&gt;Node4</title>
<path fill="none" stroke="midnightblue" d="M678.39,-273.87C703.48,-262.7 747.39,-243.15 776.34,-230.26"/>
<polygon fill="midnightblue" stroke="midnightblue" points="777.82,-233.43 785.53,-226.17 774.97,-227.04 777.82,-233.43"/>
</g>
<!-- Node36&#45;&gt;Node5 -->
<g id="edge45" class="edge">
<title>Node36&#45;&gt;Node5</title>
<path fill="none" stroke="midnightblue" d="M692.73,-276.34C768.74,-262.5 959.27,-228.04 1119,-201 1214.8,-184.78 1242.01,-185.54 1340.35,-165.24"/>
<polygon fill="midnightblue" stroke="midnightblue" points="1341.34,-168.61 1350.41,-163.14 1339.91,-161.76 1341.34,-168.61"/>
</g>
<!-- Node36&#45;&gt;Node7 -->
<g id="edge47" class="edge">
<title>Node36&#45;&gt;Node7</title>
<path fill="none" stroke="midnightblue" d="M625.47,-280.37C577.88,-276.27 489,-264.57 421,-232 401.34,-222.58 402.18,-211.35 383,-201 365.06,-191.31 318.89,-177.12 280.74,-166.25"/>
<polygon fill="midnightblue" stroke="midnightblue" points="281.3,-162.77 270.73,-163.42 279.4,-169.5 281.3,-162.77"/>
</g>
<!-- Node36&#45;&gt;Node9 -->
<g id="edge46" class="edge">
<title>Node36&#45;&gt;Node9</title>
<path fill="none" stroke="midnightblue" d="M625.09,-281.68C571.35,-279.23 464.37,-269.58 383,-232 363.21,-222.86 364.71,-210.31 345,-201 274.49,-167.69 247.23,-181.94 167.59,-165.22"/>
<polygon fill="midnightblue" stroke="midnightblue" points="168.13,-161.75 157.62,-163.02 166.63,-168.59 168.13,-161.75"/>
</g>
<!-- Node36&#45;&gt;Node10 -->
<g id="edge49" class="edge">
<title>Node36&#45;&gt;Node10</title>
<path fill="none" stroke="midnightblue" d="M625.28,-277.67C585.34,-271.08 517.5,-257.12 464,-232 442.67,-221.99 440.53,-214.18 421,-201 405.44,-190.5 387.83,-179.31 373.1,-170.14"/>
<polygon fill="midnightblue" stroke="midnightblue" points="374.69,-167 364.35,-164.71 371.01,-172.96 374.69,-167"/>
</g>
<!-- Node36&#45;&gt;Node11 -->
<g id="edge50" class="edge">
<title>Node36&#45;&gt;Node11</title>
<path fill="none" stroke="midnightblue" d="M659.63,-273.81C660.32,-257.32 659.34,-221.31 640,-201 635.82,-196.61 574.3,-179.65 524.95,-166.59"/>
<polygon fill="midnightblue" stroke="midnightblue" points="525.82,-163.2 515.26,-164.03 524.04,-169.97 525.82,-163.2"/>
</g>
<!-- Node36&#45;&gt;Node12 -->
<g id="edge51" class="edge">
<title>Node36&#45;&gt;Node12</title>
<path fill="none" stroke="midnightblue" d="M663.96,-273.96C672.33,-258.33 687.02,-224.57 673,-201 664.6,-186.88 650.72,-176.46 636.21,-168.88"/>
<polygon fill="midnightblue" stroke="midnightblue" points="637.67,-165.7 627.14,-164.52 634.63,-172.01 637.67,-165.7"/>
</g>
<!-- Node36&#45;&gt;Node13 -->
<g id="edge52" class="edge">
<title>Node36&#45;&gt;Node13</title>
<path fill="none" stroke="midnightblue" d="M673.11,-273.68C685.72,-264.88 703.35,-250.08 711,-232 718.99,-213.1 712.38,-190.24 704.84,-173.54"/>
<polygon fill="midnightblue" stroke="midnightblue" points="707.95,-171.94 700.4,-164.5 701.67,-175.02 707.95,-171.94"/>
</g>
<!-- Node36&#45;&gt;Node14 -->
<g id="edge53" class="edge">
<title>Node36&#45;&gt;Node14</title>
<path fill="none" stroke="midnightblue" d="M692.79,-279.42C733.78,-274.48 803.84,-262.06 856,-232 882.07,-216.98 905.34,-191.12 919.98,-172.56"/>
<polygon fill="midnightblue" stroke="midnightblue" points="922.76,-174.68 926.07,-164.61 917.21,-170.42 922.76,-174.68"/>
</g>
<!-- Node36&#45;&gt;Node29 -->
<g id="edge54" class="edge">
<title>Node36&#45;&gt;Node29</title>
<path fill="none" stroke="midnightblue" d="M692.68,-279.06C738.73,-273.49 823.24,-260.16 890,-232 913.06,-222.27 914.53,-212.02 937,-201 964.46,-187.53 996.42,-176.14 1023.59,-167.6"/>
<polygon fill="midnightblue" stroke="midnightblue" points="1024.85,-170.88 1033.37,-164.58 1022.78,-164.19 1024.85,-170.88"/>
</g>
<!-- Node36&#45;&gt;Node33 -->
<g id="edge44" class="edge">
<title>Node36&#45;&gt;Node33</title>
<path fill="none" stroke="midnightblue" d="M625.42,-277.56C544.87,-265.72 341.06,-235.74 255.62,-223.18"/>
<polygon fill="midnightblue" stroke="midnightblue" points="255.97,-219.69 245.57,-221.7 254.95,-226.62 255.97,-219.69"/>
</g>
<!-- Node37 -->
<g id="node37" class="node">
<title>Node37</title>
<g id="a_node37"><a xlink:title=" ">
<polygon fill="none" stroke="#bfbfbf" points="473.5,-201.5 473.5,-231.5 568.5,-231.5 568.5,-201.5 473.5,-201.5"/>
<text text-anchor="start" x="481.5" y="-219.5" font-family="Helvetica,sans-Serif" font-size="10.00">boost/serialization</text>
<text text-anchor="middle" x="521" y="-208.5" font-family="Helvetica,sans-Serif" font-size="10.00">/weak_ptr.hpp</text>
</a>
</g>
</g>
<!-- Node36&#45;&gt;Node37 -->
<g id="edge48" class="edge">
<title>Node36&#45;&gt;Node37</title>
<path fill="none" stroke="midnightblue" d="M640.67,-273.87C620.24,-264.24 586.58,-248.39 560.15,-235.94"/>
<polygon fill="midnightblue" stroke="midnightblue" points="561.32,-232.62 550.78,-231.53 558.34,-238.96 561.32,-232.62"/>
</g>
<!-- Node38 -->
<g id="node38" class="node">
<title>Node38</title>
<g id="a_node38"><a xlink:title=" ">
<polygon fill="none" stroke="#bfbfbf" points="587,-207 587,-226 631,-226 631,-207 587,-207"/>
<text text-anchor="middle" x="609" y="-214" font-family="Helvetica,sans-Serif" font-size="10.00">vector</text>
</a>
</g>
</g>
<!-- Node36&#45;&gt;Node38 -->
<g id="edge55" class="edge">
<title>Node36&#45;&gt;Node38</title>
<path fill="none" stroke="midnightblue" d="M652.26,-273.73C644.46,-263.6 631.45,-246.69 621.74,-234.06"/>
<polygon fill="midnightblue" stroke="midnightblue" points="624.51,-231.92 615.64,-226.13 618.96,-236.19 624.51,-231.92"/>
</g>
<!-- Node39&#45;&gt;Node33 -->
<g id="edge60" class="edge">
<title>Node39&#45;&gt;Node33</title>
<path fill="none" stroke="midnightblue" d="M126.17,-268.4C145.98,-257.29 173.42,-241.92 192.94,-230.98"/>
<polygon fill="midnightblue" stroke="midnightblue" points="194.81,-233.95 201.82,-226.01 191.38,-227.84 194.81,-233.95"/>
</g>
<!-- Node41&#45;&gt;Node2 -->
<g id="edge66" class="edge">
<title>Node41&#45;&gt;Node2</title>
<path fill="none" stroke="midnightblue" d="M1250,-452.81C1250,-433.56 1250,-385.9 1250,-346 1250,-346 1250,-346 1250,-282.5 1250,-238.21 1277.39,-191.9 1294.19,-167.65"/>
<polygon fill="midnightblue" stroke="midnightblue" points="1297.26,-169.38 1300.24,-159.21 1291.57,-165.3 1297.26,-169.38"/>
</g>
<!-- Node41&#45;&gt;Node3 -->
<g id="edge67" class="edge">
<title>Node41&#45;&gt;Node3</title>
<path fill="none" stroke="midnightblue" d="M1208.55,-460.87C1079.43,-458.53 673.11,-448.51 339,-411 337.72,-410.86 336.43,-410.7 335.12,-410.54"/>
<polygon fill="midnightblue" stroke="midnightblue" points="335.39,-407.04 325,-409.14 334.43,-413.98 335.39,-407.04"/>
</g>
<!-- Node41&#45;&gt;Node5 -->
<g id="edge68" class="edge">
<title>Node41&#45;&gt;Node5</title>
<path fill="none" stroke="midnightblue" d="M1253.62,-452.82C1267.52,-419.63 1319.21,-297.84 1369,-201 1373.68,-191.89 1379.21,-182.08 1384.17,-173.55"/>
<polygon fill="midnightblue" stroke="midnightblue" points="1387.21,-175.28 1389.26,-164.89 1381.17,-171.73 1387.21,-175.28"/>
</g>
<!-- Node41&#45;&gt;Node33 -->
<g id="edge65" class="edge">
<title>Node41&#45;&gt;Node33</title>
<path fill="none" stroke="midnightblue" d="M1208.91,-458.56C1045.59,-446.28 443.49,-395.21 282,-299 256.18,-283.62 236.51,-253.9 225.87,-234.92"/>
<polygon fill="midnightblue" stroke="midnightblue" points="228.96,-233.26 221.15,-226.1 222.79,-236.57 228.96,-233.26"/>
</g>
</g>
</svg>
