<?xml version="1.0" encoding="UTF-8" standalone="no"?>
<!DOCTYPE svg PUBLIC "-//W3C//DTD SVG 1.1//EN"
 "http://www.w3.org/Graphics/SVG/1.1/DTD/svg11.dtd">
<!-- Generated by graphviz version 2.44.0 ()
 -->
<!-- Title: includes/platformer&#45;engine/EntityState/EntityWanderState.hpp Pages: 1 -->
<svg width="1490pt" height="553pt"
 viewBox="0.00 0.00 1489.50 553.00" xmlns="http://www.w3.org/2000/svg" xmlns:xlink="http://www.w3.org/1999/xlink">
<g id="graph0" class="graph" transform="scale(1 1) rotate(0) translate(4 549)">
<title>includes/platformer&#45;engine/EntityState/EntityWanderState.hpp</title>
<!-- Node1 -->
<g id="node1" class="node">
<title>Node1</title>
<g id="a_node1"><a xlink:title=" ">
<polygon fill="#bfbfbf" stroke="black" points="484.5,-503.5 484.5,-544.5 602.5,-544.5 602.5,-503.5 484.5,-503.5"/>
<text text-anchor="start" x="492.5" y="-532.5" font-family="Helvetica,sans-Serif" font-size="10.00">includes/platformer</text>
<text text-anchor="start" x="492.5" y="-521.5" font-family="Helvetica,sans-Serif" font-size="10.00">&#45;engine/EntityState</text>
<text text-anchor="middle" x="543.5" y="-510.5" font-family="Helvetica,sans-Serif" font-size="10.00">/EntityWanderState.hpp</text>
</a>
</g>
</g>
<!-- Node2 -->
<g id="node2" class="node">
<title>Node2</title>
<g id="a_node2"><a xlink:href="EntityState_8hpp.html" target="_top" xlink:title=" ">
<polygon fill="none" stroke="black" points="468.5,-447.5 468.5,-466.5 550.5,-466.5 550.5,-447.5 468.5,-447.5"/>
<text text-anchor="middle" x="509.5" y="-454.5" font-family="Helvetica,sans-Serif" font-size="10.00">EntityState.hpp</text>
</a>
</g>
</g>
<!-- Node1&#45;&gt;Node2 -->
<g id="edge1" class="edge">
<title>Node1&#45;&gt;Node2</title>
<path fill="none" stroke="midnightblue" d="M533.3,-503.5C528.69,-494.68 523.28,-484.34 518.78,-475.74"/>
<polygon fill="midnightblue" stroke="midnightblue" points="521.76,-473.89 514.03,-466.65 515.56,-477.14 521.76,-473.89"/>
</g>
<!-- Node6 -->
<g id="node6" class="node">
<title>Node6</title>
<g id="a_node6"><a xlink:href="RigidBody_8hpp.html" target="_top" xlink:title=" ">
<polygon fill="none" stroke="black" points="539.5,-391.5 539.5,-410.5 617.5,-410.5 617.5,-391.5 539.5,-391.5"/>
<text text-anchor="middle" x="578.5" y="-398.5" font-family="Helvetica,sans-Serif" font-size="10.00">RigidBody.hpp</text>
</a>
</g>
</g>
<!-- Node1&#45;&gt;Node6 -->
<g id="edge67" class="edge">
<title>Node1&#45;&gt;Node6</title>
<path fill="none" stroke="midnightblue" d="M549.2,-503.29C555.83,-480.37 566.68,-442.85 573.16,-420.47"/>
<polygon fill="midnightblue" stroke="midnightblue" points="576.6,-421.15 576.02,-410.57 569.88,-419.21 576.6,-421.15"/>
</g>
<!-- Node3 -->
<g id="node3" class="node">
<title>Node3</title>
<g id="a_node3"><a xlink:href="Point_8hpp.html" target="_top" xlink:title=" ">
<polygon fill="none" stroke="black" points="1115,-207 1115,-226 1172,-226 1172,-207 1115,-207"/>
<text text-anchor="middle" x="1143.5" y="-214" font-family="Helvetica,sans-Serif" font-size="10.00">Point.hpp</text>
</a>
</g>
</g>
<!-- Node2&#45;&gt;Node3 -->
<g id="edge2" class="edge">
<title>Node2&#45;&gt;Node3</title>
<path fill="none" stroke="midnightblue" d="M550.94,-454.58C696.63,-448.56 1180.89,-419.62 1260.5,-299 1268.09,-287.5 1268.07,-279.51 1260.5,-268 1243.2,-241.69 1208.98,-229.03 1181.99,-222.97"/>
<polygon fill="midnightblue" stroke="midnightblue" points="1182.55,-219.51 1172.05,-220.95 1181.16,-226.37 1182.55,-219.51"/>
</g>
<!-- Node5 -->
<g id="node5" class="node">
<title>Node5</title>
<g id="a_node5"><a xlink:title=" ">
<polygon fill="none" stroke="#bfbfbf" points="0,-140 0,-159 51,-159 51,-140 0,-140"/>
<text text-anchor="middle" x="25.5" y="-147" font-family="Helvetica,sans-Serif" font-size="10.00">memory</text>
</a>
</g>
</g>
<!-- Node2&#45;&gt;Node5 -->
<g id="edge4" class="edge">
<title>Node2&#45;&gt;Node5</title>
<path fill="none" stroke="midnightblue" d="M468.28,-454.32C359.95,-448.77 75.5,-426.55 75.5,-346 75.5,-346 75.5,-346 75.5,-282.5 75.5,-238.99 51.45,-192.34 36.71,-167.84"/>
<polygon fill="midnightblue" stroke="midnightblue" points="39.49,-165.68 31.24,-159.03 33.55,-169.37 39.49,-165.68"/>
</g>
<!-- Node2&#45;&gt;Node6 -->
<g id="edge5" class="edge">
<title>Node2&#45;&gt;Node6</title>
<path fill="none" stroke="midnightblue" d="M520.59,-447.32C530.99,-439.18 546.76,-426.84 559.22,-417.09"/>
<polygon fill="midnightblue" stroke="midnightblue" points="561.49,-419.75 567.21,-410.83 557.18,-414.24 561.49,-419.75"/>
</g>
<!-- Node8 -->
<g id="node8" class="node">
<title>Node8</title>
<g id="a_node8"><a xlink:title=" ">
<polygon fill="none" stroke="#bfbfbf" points="69,-134.5 69,-164.5 164,-164.5 164,-134.5 69,-134.5"/>
<text text-anchor="start" x="77" y="-152.5" font-family="Helvetica,sans-Serif" font-size="10.00">boost/serialization</text>
<text text-anchor="middle" x="116.5" y="-141.5" font-family="Helvetica,sans-Serif" font-size="10.00">/access.hpp</text>
</a>
</g>
</g>
<!-- Node2&#45;&gt;Node8 -->
<g id="edge66" class="edge">
<title>Node2&#45;&gt;Node8</title>
<path fill="none" stroke="midnightblue" d="M468.33,-452.27C373.45,-442.55 147.5,-412.42 147.5,-346 147.5,-346 147.5,-346 147.5,-282.5 147.5,-243.64 134.61,-200.01 125.45,-173.92"/>
<polygon fill="midnightblue" stroke="midnightblue" points="128.74,-172.71 122.04,-164.51 122.16,-175.1 128.74,-172.71"/>
</g>
<!-- Node4 -->
<g id="node4" class="node">
<title>Node4</title>
<g id="a_node4"><a xlink:title=" ">
<polygon fill="none" stroke="#bfbfbf" points="1402.5,-140 1402.5,-159 1446.5,-159 1446.5,-140 1402.5,-140"/>
<text text-anchor="middle" x="1424.5" y="-147" font-family="Helvetica,sans-Serif" font-size="10.00">cmath</text>
</a>
</g>
</g>
<!-- Node3&#45;&gt;Node4 -->
<g id="edge3" class="edge">
<title>Node3&#45;&gt;Node4</title>
<path fill="none" stroke="midnightblue" d="M1172.19,-211.97C1219.27,-205.68 1315.49,-190.71 1393.5,-165 1395.17,-164.45 1396.86,-163.83 1398.56,-163.17"/>
<polygon fill="midnightblue" stroke="midnightblue" points="1400.27,-166.25 1408.06,-159.07 1397.5,-159.82 1400.27,-166.25"/>
</g>
<!-- Node6&#45;&gt;Node3 -->
<g id="edge40" class="edge">
<title>Node6&#45;&gt;Node3</title>
<path fill="none" stroke="midnightblue" d="M617.68,-398.51C726.22,-394.09 1025.13,-379.76 1061.5,-355 1097.32,-330.61 1082.61,-304.79 1105.5,-268 1112.87,-256.16 1122.29,-243.63 1129.9,-234.01"/>
<polygon fill="midnightblue" stroke="midnightblue" points="1132.73,-236.08 1136.28,-226.1 1127.28,-231.69 1132.73,-236.08"/>
</g>
<!-- Node7 -->
<g id="node7" class="node">
<title>Node7</title>
<g id="a_node7"><a xlink:href="Component_8hpp.html" target="_top" xlink:title=" ">
<polygon fill="none" stroke="black" points="555.5,-207 555.5,-226 639.5,-226 639.5,-207 555.5,-207"/>
<text text-anchor="middle" x="597.5" y="-214" font-family="Helvetica,sans-Serif" font-size="10.00">Component.hpp</text>
</a>
</g>
</g>
<!-- Node6&#45;&gt;Node7 -->
<g id="edge6" class="edge">
<title>Node6&#45;&gt;Node7</title>
<path fill="none" stroke="midnightblue" d="M579.42,-391.2C582.33,-363.19 591.44,-275.71 595.51,-236.66"/>
<polygon fill="midnightblue" stroke="midnightblue" points="599.04,-236.52 596.59,-226.21 592.08,-235.8 599.04,-236.52"/>
</g>
<!-- Node6&#45;&gt;Node8 -->
<g id="edge64" class="edge">
<title>Node6&#45;&gt;Node8</title>
<path fill="none" stroke="midnightblue" d="M539.46,-394.38C502.62,-388.1 446.49,-375.94 401.5,-355 293.95,-304.93 185.05,-212.65 139.13,-171.39"/>
<polygon fill="midnightblue" stroke="midnightblue" points="141.32,-168.65 131.56,-164.53 136.62,-173.83 141.32,-168.65"/>
</g>
<!-- Node12 -->
<g id="node12" class="node">
<title>Node12</title>
<g id="a_node12"><a xlink:title=" ">
<polygon fill="none" stroke="#bfbfbf" points="1289,-134.5 1289,-164.5 1384,-164.5 1384,-134.5 1289,-134.5"/>
<text text-anchor="start" x="1297" y="-152.5" font-family="Helvetica,sans-Serif" font-size="10.00">boost/serialization</text>
<text text-anchor="middle" x="1336.5" y="-141.5" font-family="Helvetica,sans-Serif" font-size="10.00">/export.hpp</text>
</a>
</g>
</g>
<!-- Node6&#45;&gt;Node12 -->
<g id="edge65" class="edge">
<title>Node6&#45;&gt;Node12</title>
<path fill="none" stroke="midnightblue" d="M601.25,-391.44C666.89,-366.74 862.32,-293.2 1024.5,-232 1060.95,-218.24 1069.09,-211.89 1106.5,-201 1178.96,-179.9 1201.25,-182.44 1279.17,-164.99"/>
<polygon fill="midnightblue" stroke="midnightblue" points="1279.98,-168.4 1288.95,-162.76 1278.42,-161.57 1279.98,-168.4"/>
</g>
<!-- Node36 -->
<g id="node36" class="node">
<title>Node36</title>
<g id="a_node36"><a xlink:href="Collision_8hpp.html" target="_top" xlink:title=" ">
<polygon fill="none" stroke="black" points="411,-335.5 411,-354.5 520,-354.5 520,-335.5 411,-335.5"/>
<text text-anchor="middle" x="465.5" y="-342.5" font-family="Helvetica,sans-Serif" font-size="10.00">Physics/Collision.hpp</text>
</a>
</g>
</g>
<!-- Node6&#45;&gt;Node36 -->
<g id="edge41" class="edge">
<title>Node6&#45;&gt;Node36</title>
<path fill="none" stroke="midnightblue" d="M560.59,-391.44C542.25,-382.68 513.49,-368.94 492.41,-358.86"/>
<polygon fill="midnightblue" stroke="midnightblue" points="493.85,-355.67 483.32,-354.52 490.83,-361.99 493.85,-355.67"/>
</g>
<!-- Node40 -->
<g id="node40" class="node">
<title>Node40</title>
<g id="a_node40"><a xlink:href="PhysicsTemplate_8hpp.html" target="_top" xlink:title=" ">
<polygon fill="none" stroke="black" points="1114,-268.5 1114,-298.5 1251,-298.5 1251,-268.5 1114,-268.5"/>
<text text-anchor="start" x="1122" y="-286.5" font-family="Helvetica,sans-Serif" font-size="10.00">Physics/Templates/Physics</text>
<text text-anchor="middle" x="1182.5" y="-275.5" font-family="Helvetica,sans-Serif" font-size="10.00">Template.hpp</text>
</a>
</g>
</g>
<!-- Node6&#45;&gt;Node40 -->
<g id="edge61" class="edge">
<title>Node6&#45;&gt;Node40</title>
<path fill="none" stroke="midnightblue" d="M617.77,-399.68C723.58,-398.32 1012.46,-391.3 1099.5,-355 1125.14,-344.3 1148.7,-322.66 1164.11,-306.16"/>
<polygon fill="midnightblue" stroke="midnightblue" points="1166.88,-308.3 1170.99,-298.54 1161.69,-303.61 1166.88,-308.3"/>
</g>
<!-- Node41 -->
<g id="node41" class="node">
<title>Node41</title>
<g id="a_node41"><a xlink:title=" ">
<polygon fill="none" stroke="#bfbfbf" points="538,-335.5 538,-354.5 573,-354.5 573,-335.5 538,-335.5"/>
<text text-anchor="middle" x="555.5" y="-342.5" font-family="Helvetica,sans-Serif" font-size="10.00">map</text>
</a>
</g>
</g>
<!-- Node6&#45;&gt;Node41 -->
<g id="edge63" class="edge">
<title>Node6&#45;&gt;Node41</title>
<path fill="none" stroke="midnightblue" d="M574.7,-391.08C571.59,-383.77 567.08,-373.18 563.21,-364.1"/>
<polygon fill="midnightblue" stroke="midnightblue" points="566.37,-362.58 559.23,-354.75 559.93,-365.32 566.37,-362.58"/>
</g>
<!-- Node7&#45;&gt;Node5 -->
<g id="edge7" class="edge">
<title>Node7&#45;&gt;Node5</title>
<path fill="none" stroke="midnightblue" d="M555.49,-210.42C530.76,-207.5 498.87,-203.86 470.5,-201 288.06,-182.6 237.38,-209.52 59.5,-165 57.14,-164.41 54.73,-163.67 52.33,-162.85"/>
<polygon fill="midnightblue" stroke="midnightblue" points="53.37,-159.5 42.78,-159.11 50.82,-166.02 53.37,-159.5"/>
</g>
<!-- Node7&#45;&gt;Node8 -->
<g id="edge8" class="edge">
<title>Node7&#45;&gt;Node8</title>
<path fill="none" stroke="midnightblue" d="M555.47,-210.66C459.74,-199.62 229.99,-173.01 174.15,-164.89"/>
<polygon fill="midnightblue" stroke="midnightblue" points="174.49,-161.4 164.06,-163.28 173.38,-168.31 174.49,-161.4"/>
</g>
<!-- Node9 -->
<g id="node9" class="node">
<title>Node9</title>
<g id="a_node9"><a xlink:title=" ">
<polygon fill="none" stroke="#bfbfbf" points="520,-134.5 520,-164.5 615,-164.5 615,-134.5 520,-134.5"/>
<text text-anchor="start" x="528" y="-152.5" font-family="Helvetica,sans-Serif" font-size="10.00">boost/serialization</text>
<text text-anchor="middle" x="567.5" y="-141.5" font-family="Helvetica,sans-Serif" font-size="10.00">/map.hpp</text>
</a>
</g>
</g>
<!-- Node7&#45;&gt;Node9 -->
<g id="edge9" class="edge">
<title>Node7&#45;&gt;Node9</title>
<path fill="none" stroke="midnightblue" d="M593.45,-206.73C589.56,-198.29 583.49,-185.14 578.2,-173.68"/>
<polygon fill="midnightblue" stroke="midnightblue" points="581.37,-172.2 574,-164.59 575.02,-175.14 581.37,-172.2"/>
</g>
<!-- Node10 -->
<g id="node10" class="node">
<title>Node10</title>
<g id="a_node10"><a xlink:title=" ">
<polygon fill="none" stroke="#bfbfbf" points="931,-134.5 931,-164.5 1026,-164.5 1026,-134.5 931,-134.5"/>
<text text-anchor="start" x="939" y="-152.5" font-family="Helvetica,sans-Serif" font-size="10.00">boost/serialization</text>
<text text-anchor="middle" x="978.5" y="-141.5" font-family="Helvetica,sans-Serif" font-size="10.00">/vector.hpp</text>
</a>
</g>
</g>
<!-- Node7&#45;&gt;Node10 -->
<g id="edge10" class="edge">
<title>Node7&#45;&gt;Node10</title>
<path fill="none" stroke="midnightblue" d="M639.67,-210.22C699.83,-202.41 813.93,-186.54 920.99,-164.98"/>
<polygon fill="midnightblue" stroke="midnightblue" points="921.89,-168.37 930.99,-162.94 920.49,-161.51 921.89,-168.37"/>
</g>
<!-- Node11 -->
<g id="node11" class="node">
<title>Node11</title>
<g id="a_node11"><a xlink:title=" ">
<polygon fill="none" stroke="#bfbfbf" points="182,-134.5 182,-164.5 277,-164.5 277,-134.5 182,-134.5"/>
<text text-anchor="start" x="190" y="-152.5" font-family="Helvetica,sans-Serif" font-size="10.00">boost/serialization</text>
<text text-anchor="middle" x="229.5" y="-141.5" font-family="Helvetica,sans-Serif" font-size="10.00">/shared_ptr.hpp</text>
</a>
</g>
</g>
<!-- Node7&#45;&gt;Node11 -->
<g id="edge11" class="edge">
<title>Node7&#45;&gt;Node11</title>
<path fill="none" stroke="midnightblue" d="M555.28,-209.85C497.14,-201.8 388.99,-185.89 286.87,-164.96"/>
<polygon fill="midnightblue" stroke="midnightblue" points="287.51,-161.52 277.01,-162.92 286.1,-168.37 287.51,-161.52"/>
</g>
<!-- Node7&#45;&gt;Node12 -->
<g id="edge12" class="edge">
<title>Node7&#45;&gt;Node12</title>
<path fill="none" stroke="midnightblue" d="M639.56,-212.49C776.31,-202.67 1203.4,-171.92 1278.45,-164.49"/>
<polygon fill="midnightblue" stroke="midnightblue" points="1279.2,-167.92 1288.73,-163.3 1278.4,-160.97 1279.2,-167.92"/>
</g>
<!-- Node13 -->
<g id="node13" class="node">
<title>Node13</title>
<g id="a_node13"><a xlink:title=" ">
<polygon fill="none" stroke="#bfbfbf" points="1044.5,-134.5 1044.5,-164.5 1148.5,-164.5 1148.5,-134.5 1044.5,-134.5"/>
<text text-anchor="start" x="1052.5" y="-152.5" font-family="Helvetica,sans-Serif" font-size="10.00">boost/archive/binary</text>
<text text-anchor="middle" x="1096.5" y="-141.5" font-family="Helvetica,sans-Serif" font-size="10.00">_iarchive.hpp</text>
</a>
</g>
</g>
<!-- Node7&#45;&gt;Node13 -->
<g id="edge13" class="edge">
<title>Node7&#45;&gt;Node13</title>
<path fill="none" stroke="midnightblue" d="M639.61,-212.25C717.81,-205.86 890.6,-190.06 1034.5,-165 1034.6,-164.98 1034.7,-164.96 1034.81,-164.95"/>
<polygon fill="midnightblue" stroke="midnightblue" points="1035.32,-168.41 1044.49,-163.12 1034.02,-161.53 1035.32,-168.41"/>
</g>
<!-- Node14 -->
<g id="node14" class="node">
<title>Node14</title>
<g id="a_node14"><a xlink:title=" ">
<polygon fill="none" stroke="#bfbfbf" points="1166.5,-134.5 1166.5,-164.5 1270.5,-164.5 1270.5,-134.5 1166.5,-134.5"/>
<text text-anchor="start" x="1174.5" y="-152.5" font-family="Helvetica,sans-Serif" font-size="10.00">boost/archive/binary</text>
<text text-anchor="middle" x="1218.5" y="-141.5" font-family="Helvetica,sans-Serif" font-size="10.00">_oarchive.hpp</text>
</a>
</g>
</g>
<!-- Node7&#45;&gt;Node14 -->
<g id="edge14" class="edge">
<title>Node7&#45;&gt;Node14</title>
<path fill="none" stroke="midnightblue" d="M639.83,-212.47C749.15,-204.54 1039.95,-182.62 1156.31,-165"/>
<polygon fill="midnightblue" stroke="midnightblue" points="1157.02,-168.43 1166.36,-163.41 1155.93,-161.51 1157.02,-168.43"/>
</g>
<!-- Node15 -->
<g id="node15" class="node">
<title>Node15</title>
<g id="a_node15"><a xlink:title=" ">
<polygon fill="none" stroke="#bfbfbf" points="295.5,-134.5 295.5,-164.5 389.5,-164.5 389.5,-134.5 295.5,-134.5"/>
<text text-anchor="start" x="303.5" y="-152.5" font-family="Helvetica,sans-Serif" font-size="10.00">boost/archive/text</text>
<text text-anchor="middle" x="342.5" y="-141.5" font-family="Helvetica,sans-Serif" font-size="10.00">_iarchive.hpp</text>
</a>
</g>
</g>
<!-- Node7&#45;&gt;Node15 -->
<g id="edge15" class="edge">
<title>Node7&#45;&gt;Node15</title>
<path fill="none" stroke="midnightblue" d="M563.68,-206.97C526.01,-197.46 463.04,-181.52 399.36,-165.21"/>
<polygon fill="midnightblue" stroke="midnightblue" points="400.11,-161.79 389.55,-162.7 398.37,-168.57 400.11,-161.79"/>
</g>
<!-- Node16 -->
<g id="node16" class="node">
<title>Node16</title>
<g id="a_node16"><a xlink:title=" ">
<polygon fill="none" stroke="#bfbfbf" points="407.5,-134.5 407.5,-164.5 501.5,-164.5 501.5,-134.5 407.5,-134.5"/>
<text text-anchor="start" x="415.5" y="-152.5" font-family="Helvetica,sans-Serif" font-size="10.00">boost/archive/text</text>
<text text-anchor="middle" x="454.5" y="-141.5" font-family="Helvetica,sans-Serif" font-size="10.00">_oarchive.hpp</text>
</a>
</g>
</g>
<!-- Node7&#45;&gt;Node16 -->
<g id="edge16" class="edge">
<title>Node7&#45;&gt;Node16</title>
<path fill="none" stroke="midnightblue" d="M578.51,-206.87C557.24,-197.2 522.15,-181.25 494.71,-168.78"/>
<polygon fill="midnightblue" stroke="midnightblue" points="495.91,-165.48 485.36,-164.53 493.02,-171.85 495.91,-165.48"/>
</g>
<!-- Node17 -->
<g id="node17" class="node">
<title>Node17</title>
<g id="a_node17"><a xlink:href="portable__binary__iarchive_8hpp.html" target="_top" xlink:title=" ">
<polygon fill="none" stroke="black" points="782,-134.5 782,-164.5 913,-164.5 913,-134.5 782,-134.5"/>
<text text-anchor="start" x="790" y="-152.5" font-family="Helvetica,sans-Serif" font-size="10.00">Networking/boost/portable</text>
<text text-anchor="middle" x="847.5" y="-141.5" font-family="Helvetica,sans-Serif" font-size="10.00">_binary_iarchive.hpp</text>
</a>
</g>
</g>
<!-- Node7&#45;&gt;Node17 -->
<g id="edge17" class="edge">
<title>Node7&#45;&gt;Node17</title>
<path fill="none" stroke="midnightblue" d="M630.44,-206.94C669.27,-196.84 734.68,-179.83 783.57,-167.12"/>
<polygon fill="midnightblue" stroke="midnightblue" points="784.63,-170.46 793.43,-164.56 782.87,-163.69 784.63,-170.46"/>
</g>
<!-- Node32 -->
<g id="node32" class="node">
<title>Node32</title>
<g id="a_node32"><a xlink:href="portable__binary__oarchive_8hpp.html" target="_top" xlink:title=" ">
<polygon fill="none" stroke="black" points="633,-134.5 633,-164.5 764,-164.5 764,-134.5 633,-134.5"/>
<text text-anchor="start" x="641" y="-152.5" font-family="Helvetica,sans-Serif" font-size="10.00">Networking/boost/portable</text>
<text text-anchor="middle" x="698.5" y="-141.5" font-family="Helvetica,sans-Serif" font-size="10.00">_binary_oarchive.hpp</text>
</a>
</g>
</g>
<!-- Node7&#45;&gt;Node32 -->
<g id="edge32" class="edge">
<title>Node7&#45;&gt;Node32</title>
<path fill="none" stroke="midnightblue" d="M611.12,-206.73C625.62,-197.4 649.05,-182.32 668,-170.13"/>
<polygon fill="midnightblue" stroke="midnightblue" points="670.09,-172.94 676.61,-164.59 666.3,-167.06 670.09,-172.94"/>
</g>
<!-- Node18 -->
<g id="node18" class="node">
<title>Node18</title>
<g id="a_node18"><a xlink:title=" ">
<polygon fill="none" stroke="#bfbfbf" points="1299,-73 1299,-92 1348,-92 1348,-73 1299,-73"/>
<text text-anchor="middle" x="1323.5" y="-80" font-family="Helvetica,sans-Serif" font-size="10.00">istream</text>
</a>
</g>
</g>
<!-- Node17&#45;&gt;Node18 -->
<g id="edge18" class="edge">
<title>Node17&#45;&gt;Node18</title>
<path fill="none" stroke="midnightblue" d="M913.21,-135.28C916.01,-134.83 918.78,-134.4 921.5,-134 1084.1,-110.17 1130.29,-138.71 1289.5,-98 1291.86,-97.4 1294.27,-96.65 1296.66,-95.82"/>
<polygon fill="midnightblue" stroke="midnightblue" points="1298.18,-98.99 1306.21,-92.08 1295.62,-92.47 1298.18,-98.99"/>
</g>
<!-- Node19 -->
<g id="node19" class="node">
<title>Node19</title>
<g id="a_node19"><a xlink:title=" ">
<polygon fill="none" stroke="#bfbfbf" points="925,-67.5 925,-97.5 1020,-97.5 1020,-67.5 925,-67.5"/>
<text text-anchor="start" x="933" y="-85.5" font-family="Helvetica,sans-Serif" font-size="10.00">boost/serialization</text>
<text text-anchor="middle" x="972.5" y="-74.5" font-family="Helvetica,sans-Serif" font-size="10.00">/string.hpp</text>
</a>
</g>
</g>
<!-- Node17&#45;&gt;Node19 -->
<g id="edge19" class="edge">
<title>Node17&#45;&gt;Node19</title>
<path fill="none" stroke="midnightblue" d="M874.62,-134.4C892.72,-124.98 916.73,-112.5 936.43,-102.26"/>
<polygon fill="midnightblue" stroke="midnightblue" points="938.17,-105.3 945.43,-97.58 934.94,-99.08 938.17,-105.3"/>
</g>
<!-- Node20 -->
<g id="node20" class="node">
<title>Node20</title>
<g id="a_node20"><a xlink:title=" ">
<polygon fill="none" stroke="#bfbfbf" points="1365.5,-67.5 1365.5,-97.5 1481.5,-97.5 1481.5,-67.5 1365.5,-67.5"/>
<text text-anchor="start" x="1373.5" y="-85.5" font-family="Helvetica,sans-Serif" font-size="10.00">boost/serialization</text>
<text text-anchor="middle" x="1423.5" y="-74.5" font-family="Helvetica,sans-Serif" font-size="10.00">/item_version_type.hpp</text>
</a>
</g>
</g>
<!-- Node17&#45;&gt;Node20 -->
<g id="edge20" class="edge">
<title>Node17&#45;&gt;Node20</title>
<path fill="none" stroke="midnightblue" d="M913.2,-135.23C916,-134.79 918.78,-134.38 921.5,-134 1110.8,-107.72 1163.44,-126.27 1355.15,-98.24"/>
<polygon fill="midnightblue" stroke="midnightblue" points="1355.9,-101.67 1365.28,-96.73 1354.87,-94.74 1355.9,-101.67"/>
</g>
<!-- Node21 -->
<g id="node21" class="node">
<title>Node21</title>
<g id="a_node21"><a xlink:title=" ">
<polygon fill="none" stroke="#bfbfbf" points="516.5,-67.5 516.5,-97.5 626.5,-97.5 626.5,-67.5 516.5,-67.5"/>
<text text-anchor="start" x="524.5" y="-85.5" font-family="Helvetica,sans-Serif" font-size="10.00">boost/archive/archive</text>
<text text-anchor="middle" x="571.5" y="-74.5" font-family="Helvetica,sans-Serif" font-size="10.00">_exception.hpp</text>
</a>
</g>
</g>
<!-- Node17&#45;&gt;Node21 -->
<g id="edge21" class="edge">
<title>Node17&#45;&gt;Node21</title>
<path fill="none" stroke="midnightblue" d="M787.95,-134.48C743.37,-123.98 682.42,-109.62 636.56,-98.82"/>
<polygon fill="midnightblue" stroke="midnightblue" points="637.25,-95.39 626.72,-96.5 635.65,-102.2 637.25,-95.39"/>
</g>
<!-- Node22 -->
<g id="node22" class="node">
<title>Node22</title>
<g id="a_node22"><a xlink:title=" ">
<polygon fill="none" stroke="#bfbfbf" points="1038.5,-67.5 1038.5,-97.5 1148.5,-97.5 1148.5,-67.5 1038.5,-67.5"/>
<text text-anchor="start" x="1046.5" y="-85.5" font-family="Helvetica,sans-Serif" font-size="10.00">boost/archive/basic</text>
<text text-anchor="middle" x="1093.5" y="-74.5" font-family="Helvetica,sans-Serif" font-size="10.00">_binary_iprimitive.hpp</text>
</a>
</g>
</g>
<!-- Node17&#45;&gt;Node22 -->
<g id="edge22" class="edge">
<title>Node17&#45;&gt;Node22</title>
<path fill="none" stroke="midnightblue" d="M900.58,-134.48C938.68,-124.41 990.18,-110.8 1030.39,-100.17"/>
<polygon fill="midnightblue" stroke="midnightblue" points="1031.32,-103.55 1040.1,-97.61 1029.53,-96.78 1031.32,-103.55"/>
</g>
<!-- Node23 -->
<g id="node23" class="node">
<title>Node23</title>
<g id="a_node23"><a xlink:title=" ">
<polygon fill="none" stroke="#bfbfbf" points="1166.5,-67.5 1166.5,-97.5 1280.5,-97.5 1280.5,-67.5 1166.5,-67.5"/>
<text text-anchor="start" x="1174.5" y="-85.5" font-family="Helvetica,sans-Serif" font-size="10.00">boost/archive/detail</text>
<text text-anchor="middle" x="1223.5" y="-74.5" font-family="Helvetica,sans-Serif" font-size="10.00">/common_iarchive.hpp</text>
</a>
</g>
</g>
<!-- Node17&#45;&gt;Node23 -->
<g id="edge23" class="edge">
<title>Node17&#45;&gt;Node23</title>
<path fill="none" stroke="midnightblue" d="M913.24,-135.47C916.03,-134.96 918.79,-134.47 921.5,-134 1022.86,-116.35 1051.47,-117.32 1156.27,-98.16"/>
<polygon fill="midnightblue" stroke="midnightblue" points="1157.11,-101.56 1166.31,-96.3 1155.84,-94.68 1157.11,-101.56"/>
</g>
<!-- Node24 -->
<g id="node24" class="node">
<title>Node24</title>
<g id="a_node24"><a xlink:title=" ">
<polygon fill="none" stroke="#bfbfbf" points="645,-67.5 645,-97.5 752,-97.5 752,-67.5 645,-67.5"/>
<text text-anchor="start" x="653" y="-85.5" font-family="Helvetica,sans-Serif" font-size="10.00">boost/archive/detail</text>
<text text-anchor="middle" x="698.5" y="-74.5" font-family="Helvetica,sans-Serif" font-size="10.00">/register_archive.hpp</text>
</a>
</g>
</g>
<!-- Node17&#45;&gt;Node24 -->
<g id="edge24" class="edge">
<title>Node17&#45;&gt;Node24</title>
<path fill="none" stroke="midnightblue" d="M815.17,-134.4C793.2,-124.81 763.94,-112.05 740.22,-101.7"/>
<polygon fill="midnightblue" stroke="midnightblue" points="741.33,-98.37 730.77,-97.58 738.53,-104.78 741.33,-98.37"/>
</g>
<!-- Node25 -->
<g id="node25" class="node">
<title>Node25</title>
<g id="a_node25"><a xlink:href="portable__binary__archive_8hpp.html" target="_top" xlink:title=" ">
<polygon fill="none" stroke="black" points="770,-73 770,-92 907,-92 907,-73 770,-73"/>
<text text-anchor="middle" x="838.5" y="-80" font-family="Helvetica,sans-Serif" font-size="10.00">portable_binary_archive.hpp</text>
</a>
</g>
</g>
<!-- Node17&#45;&gt;Node25 -->
<g id="edge25" class="edge">
<title>Node17&#45;&gt;Node25</title>
<path fill="none" stroke="midnightblue" d="M845.55,-134.4C844.24,-124.96 842.51,-112.45 841.09,-102.19"/>
<polygon fill="midnightblue" stroke="midnightblue" points="844.54,-101.62 839.7,-92.19 837.61,-102.58 844.54,-101.62"/>
</g>
<!-- Node26 -->
<g id="node26" class="node">
<title>Node26</title>
<g id="a_node26"><a xlink:title=" ">
<polygon fill="none" stroke="#bfbfbf" points="515,-6 515,-25 602,-25 602,-6 515,-6"/>
<text text-anchor="middle" x="558.5" y="-13" font-family="Helvetica,sans-Serif" font-size="10.00">boost/config.hpp</text>
</a>
</g>
</g>
<!-- Node25&#45;&gt;Node26 -->
<g id="edge26" class="edge">
<title>Node25&#45;&gt;Node26</title>
<path fill="none" stroke="midnightblue" d="M796.74,-72.96C750.89,-63.41 675.2,-47.17 610.5,-31 606.41,-29.98 602.15,-28.87 597.91,-27.73"/>
<polygon fill="midnightblue" stroke="midnightblue" points="598.69,-24.32 588.13,-25.06 596.85,-31.07 598.69,-24.32"/>
</g>
<!-- Node27 -->
<g id="node27" class="node">
<title>Node27</title>
<g id="a_node27"><a xlink:title=" ">
<polygon fill="none" stroke="#bfbfbf" points="620,-6 620,-25 711,-25 711,-6 620,-6"/>
<text text-anchor="middle" x="665.5" y="-13" font-family="Helvetica,sans-Serif" font-size="10.00">boost/cstdint.hpp</text>
</a>
</g>
</g>
<!-- Node25&#45;&gt;Node27 -->
<g id="edge27" class="edge">
<title>Node25&#45;&gt;Node27</title>
<path fill="none" stroke="midnightblue" d="M815.53,-72.87C785.33,-61.52 732.1,-41.52 697.84,-28.65"/>
<polygon fill="midnightblue" stroke="midnightblue" points="698.88,-25.3 688.29,-25.06 696.42,-31.86 698.88,-25.3"/>
</g>
<!-- Node28 -->
<g id="node28" class="node">
<title>Node28</title>
<g id="a_node28"><a xlink:title=" ">
<polygon fill="none" stroke="#bfbfbf" points="729.5,-6 729.5,-25 847.5,-25 847.5,-6 729.5,-6"/>
<text text-anchor="middle" x="788.5" y="-13" font-family="Helvetica,sans-Serif" font-size="10.00">boost/static_assert.hpp</text>
</a>
</g>
</g>
<!-- Node25&#45;&gt;Node28 -->
<g id="edge28" class="edge">
<title>Node25&#45;&gt;Node28</title>
<path fill="none" stroke="midnightblue" d="M831.76,-72.73C823.96,-62.6 810.95,-45.69 801.24,-33.06"/>
<polygon fill="midnightblue" stroke="midnightblue" points="804.01,-30.92 795.14,-25.13 798.46,-35.19 804.01,-30.92"/>
</g>
<!-- Node29 -->
<g id="node29" class="node">
<title>Node29</title>
<g id="a_node29"><a xlink:title=" ">
<polygon fill="none" stroke="#bfbfbf" points="866,-6 866,-25 911,-25 911,-6 866,-6"/>
<text text-anchor="middle" x="888.5" y="-13" font-family="Helvetica,sans-Serif" font-size="10.00">climits</text>
</a>
</g>
</g>
<!-- Node25&#45;&gt;Node29 -->
<g id="edge29" class="edge">
<title>Node25&#45;&gt;Node29</title>
<path fill="none" stroke="midnightblue" d="M845.24,-72.73C853.04,-62.6 866.05,-45.69 875.76,-33.06"/>
<polygon fill="midnightblue" stroke="midnightblue" points="878.54,-35.19 881.86,-25.13 872.99,-30.92 878.54,-35.19"/>
</g>
<!-- Node30 -->
<g id="node30" class="node">
<title>Node30</title>
<g id="a_node30"><a xlink:title=" ">
<polygon fill="none" stroke="#bfbfbf" points="929,-0.5 929,-30.5 1030,-30.5 1030,-0.5 929,-0.5"/>
<text text-anchor="start" x="937" y="-18.5" font-family="Helvetica,sans-Serif" font-size="10.00">boost/archive/basic</text>
<text text-anchor="middle" x="979.5" y="-7.5" font-family="Helvetica,sans-Serif" font-size="10.00">_archive.hpp</text>
</a>
</g>
</g>
<!-- Node25&#45;&gt;Node30 -->
<g id="edge30" class="edge">
<title>Node25&#45;&gt;Node30</title>
<path fill="none" stroke="midnightblue" d="M857.22,-72.87C878.2,-63.2 912.8,-47.25 939.85,-34.78"/>
<polygon fill="midnightblue" stroke="midnightblue" points="941.45,-37.89 949.07,-30.53 938.52,-31.54 941.45,-37.89"/>
</g>
<!-- Node31 -->
<g id="node31" class="node">
<title>Node31</title>
<g id="a_node31"><a xlink:title=" ">
<polygon fill="none" stroke="#bfbfbf" points="1048,-0.5 1048,-30.5 1143,-30.5 1143,-0.5 1048,-0.5"/>
<text text-anchor="start" x="1056" y="-18.5" font-family="Helvetica,sans-Serif" font-size="10.00">boost/predef/other</text>
<text text-anchor="middle" x="1095.5" y="-7.5" font-family="Helvetica,sans-Serif" font-size="10.00">/endian.h</text>
</a>
</g>
</g>
<!-- Node25&#45;&gt;Node31 -->
<g id="edge31" class="edge">
<title>Node25&#45;&gt;Node31</title>
<path fill="none" stroke="midnightblue" d="M872.48,-72.94C910.33,-63.4 973.62,-47.44 1038,-31.13"/>
<polygon fill="midnightblue" stroke="midnightblue" points="1039.08,-34.46 1047.92,-28.61 1037.36,-27.68 1039.08,-34.46"/>
</g>
<!-- Node32&#45;&gt;Node19 -->
<g id="edge34" class="edge">
<title>Node32&#45;&gt;Node19</title>
<path fill="none" stroke="midnightblue" d="M760.31,-134.47C801.48,-125.04 857.03,-112.17 915.2,-98.05"/>
<polygon fill="midnightblue" stroke="midnightblue" points="916.04,-101.44 924.93,-95.68 914.39,-94.64 916.04,-101.44"/>
</g>
<!-- Node32&#45;&gt;Node21 -->
<g id="edge35" class="edge">
<title>Node32&#45;&gt;Node21</title>
<path fill="none" stroke="midnightblue" d="M670.94,-134.4C652.55,-124.98 628.17,-112.5 608.15,-102.26"/>
<polygon fill="midnightblue" stroke="midnightblue" points="609.5,-99.02 599,-97.58 606.31,-105.25 609.5,-99.02"/>
</g>
<!-- Node32&#45;&gt;Node24 -->
<g id="edge38" class="edge">
<title>Node32&#45;&gt;Node24</title>
<path fill="none" stroke="midnightblue" d="M698.5,-134.4C698.5,-126.64 698.5,-116.81 698.5,-107.86"/>
<polygon fill="midnightblue" stroke="midnightblue" points="702,-107.58 698.5,-97.58 695,-107.58 702,-107.58"/>
</g>
<!-- Node32&#45;&gt;Node25 -->
<g id="edge39" class="edge">
<title>Node32&#45;&gt;Node25</title>
<path fill="none" stroke="midnightblue" d="M728.88,-134.4C753.33,-123.04 787.41,-107.22 811.05,-96.24"/>
<polygon fill="midnightblue" stroke="midnightblue" points="812.58,-99.39 820.18,-92.01 809.63,-93.04 812.58,-99.39"/>
</g>
<!-- Node33 -->
<g id="node33" class="node">
<title>Node33</title>
<g id="a_node33"><a xlink:title=" ">
<polygon fill="none" stroke="#bfbfbf" points="446.5,-73 446.5,-92 498.5,-92 498.5,-73 446.5,-73"/>
<text text-anchor="middle" x="472.5" y="-80" font-family="Helvetica,sans-Serif" font-size="10.00">ostream</text>
</a>
</g>
</g>
<!-- Node32&#45;&gt;Node33 -->
<g id="edge33" class="edge">
<title>Node32&#45;&gt;Node33</title>
<path fill="none" stroke="midnightblue" d="M636.81,-134.42C599.09,-125.26 550.07,-112.37 507.5,-98 505.58,-97.35 503.62,-96.65 501.66,-95.92"/>
<polygon fill="midnightblue" stroke="midnightblue" points="502.53,-92.5 491.95,-92.1 499.97,-99.02 502.53,-92.5"/>
</g>
<!-- Node34 -->
<g id="node34" class="node">
<title>Node34</title>
<g id="a_node34"><a xlink:title=" ">
<polygon fill="none" stroke="#bfbfbf" points="180,-67.5 180,-97.5 293,-97.5 293,-67.5 180,-67.5"/>
<text text-anchor="start" x="188" y="-85.5" font-family="Helvetica,sans-Serif" font-size="10.00">boost/archive/basic</text>
<text text-anchor="middle" x="236.5" y="-74.5" font-family="Helvetica,sans-Serif" font-size="10.00">_binary_oprimitive.hpp</text>
</a>
</g>
</g>
<!-- Node32&#45;&gt;Node34 -->
<g id="edge36" class="edge">
<title>Node32&#45;&gt;Node34</title>
<path fill="none" stroke="midnightblue" d="M632.7,-135.47C629.59,-134.95 626.52,-134.46 623.5,-134 484.34,-112.8 445.28,-121.3 303.11,-98.16"/>
<polygon fill="midnightblue" stroke="midnightblue" points="303.59,-94.69 293.15,-96.52 302.45,-101.6 303.59,-94.69"/>
</g>
<!-- Node35 -->
<g id="node35" class="node">
<title>Node35</title>
<g id="a_node35"><a xlink:title=" ">
<polygon fill="none" stroke="#bfbfbf" points="311,-67.5 311,-97.5 428,-97.5 428,-67.5 311,-67.5"/>
<text text-anchor="start" x="319" y="-85.5" font-family="Helvetica,sans-Serif" font-size="10.00">boost/archive/detail</text>
<text text-anchor="middle" x="369.5" y="-74.5" font-family="Helvetica,sans-Serif" font-size="10.00">/common_oarchive.hpp</text>
</a>
</g>
</g>
<!-- Node32&#45;&gt;Node35 -->
<g id="edge37" class="edge">
<title>Node32&#45;&gt;Node35</title>
<path fill="none" stroke="midnightblue" d="M632.76,-135.79C566.4,-122.95 470.12,-104.33 438,-98.03"/>
<polygon fill="midnightblue" stroke="midnightblue" points="438.58,-94.58 428.09,-96.07 437.22,-101.44 438.58,-94.58"/>
</g>
<!-- Node36&#45;&gt;Node3 -->
<g id="edge43" class="edge">
<title>Node36&#45;&gt;Node3</title>
<path fill="none" stroke="midnightblue" d="M520.11,-335.98C522.94,-335.63 525.75,-335.3 528.5,-335 731,-312.58 789.55,-354.8 985.5,-299 1038,-284.05 1093.37,-250.86 1122.59,-231.76"/>
<polygon fill="midnightblue" stroke="midnightblue" points="1124.72,-234.55 1131.12,-226.1 1120.85,-228.72 1124.72,-234.55"/>
</g>
<!-- Node36&#45;&gt;Node5 -->
<g id="edge42" class="edge">
<title>Node36&#45;&gt;Node5</title>
<path fill="none" stroke="midnightblue" d="M440.71,-335.43C416.09,-326.77 377.38,-312.74 344.5,-299 234.13,-252.87 105.97,-190.43 51.81,-163.62"/>
<polygon fill="midnightblue" stroke="midnightblue" points="53.09,-160.35 42.57,-159.04 49.98,-166.62 53.09,-160.35"/>
</g>
<!-- Node36&#45;&gt;Node8 -->
<g id="edge58" class="edge">
<title>Node36&#45;&gt;Node8</title>
<path fill="none" stroke="midnightblue" d="M452.14,-335.46C405.3,-305.51 250.69,-206.78 239.5,-201 215.63,-188.67 188.05,-177.11 165.06,-168.18"/>
<polygon fill="midnightblue" stroke="midnightblue" points="166.1,-164.83 155.51,-164.51 163.59,-171.36 166.1,-164.83"/>
</g>
<!-- Node36&#45;&gt;Node11 -->
<g id="edge60" class="edge">
<title>Node36&#45;&gt;Node11</title>
<path fill="none" stroke="midnightblue" d="M458.47,-335.41C438.84,-311.79 381.01,-244.7 322.5,-201 306.23,-188.85 286.67,-177.78 269.7,-169.12"/>
<polygon fill="midnightblue" stroke="midnightblue" points="271.08,-165.9 260.57,-164.56 267.96,-172.16 271.08,-165.9"/>
</g>
<!-- Node36&#45;&gt;Node12 -->
<g id="edge59" class="edge">
<title>Node36&#45;&gt;Node12</title>
<path fill="none" stroke="midnightblue" d="M520.16,-336.03C573.53,-327.92 656.94,-314.38 728.5,-299 844.32,-274.1 878.26,-280.15 986.5,-232 1009.36,-221.83 1010.12,-209.91 1033.5,-201 1133.73,-162.79 1169.07,-185.24 1278.85,-164.93"/>
<polygon fill="midnightblue" stroke="midnightblue" points="1279.84,-168.31 1289,-162.98 1278.52,-161.43 1279.84,-168.31"/>
</g>
<!-- Node37 -->
<g id="node37" class="node">
<title>Node37</title>
<g id="a_node37"><a xlink:href="Collider_8hpp.html" target="_top" xlink:title=" ">
<polygon fill="none" stroke="black" points="653,-274 653,-293 720,-293 720,-274 653,-274"/>
<text text-anchor="middle" x="686.5" y="-281" font-family="Helvetica,sans-Serif" font-size="10.00">Collider.hpp</text>
</a>
</g>
</g>
<!-- Node36&#45;&gt;Node37 -->
<g id="edge44" class="edge">
<title>Node36&#45;&gt;Node37</title>
<path fill="none" stroke="midnightblue" d="M497.16,-335.48C536.06,-325 602.14,-307.21 645.05,-295.66"/>
<polygon fill="midnightblue" stroke="midnightblue" points="646.15,-298.99 654.89,-293.01 644.33,-292.23 646.15,-298.99"/>
</g>
<!-- Node37&#45;&gt;Node3 -->
<g id="edge46" class="edge">
<title>Node37&#45;&gt;Node3</title>
<path fill="none" stroke="midnightblue" d="M720.1,-277.72C803,-265.93 1016.88,-235.51 1104.84,-223"/>
<polygon fill="midnightblue" stroke="midnightblue" points="1105.52,-226.44 1114.93,-221.56 1104.53,-219.51 1105.52,-226.44"/>
</g>
<!-- Node37&#45;&gt;Node7 -->
<g id="edge45" class="edge">
<title>Node37&#45;&gt;Node7</title>
<path fill="none" stroke="midnightblue" d="M674.5,-273.73C659.95,-263.11 635.22,-245.05 617.72,-232.26"/>
<polygon fill="midnightblue" stroke="midnightblue" points="619.45,-229.2 609.31,-226.13 615.32,-234.85 619.45,-229.2"/>
</g>
<!-- Node37&#45;&gt;Node8 -->
<g id="edge47" class="edge">
<title>Node37&#45;&gt;Node8</title>
<path fill="none" stroke="midnightblue" d="M652.72,-278.21C600,-271.11 495.19,-255.32 408.5,-232 369.27,-221.44 361.42,-212.65 322.5,-201 259.77,-182.23 240.72,-181.61 173.9,-165.31"/>
<polygon fill="midnightblue" stroke="midnightblue" points="174.69,-161.9 164.14,-162.9 173.01,-168.69 174.69,-161.9"/>
</g>
<!-- Node37&#45;&gt;Node10 -->
<g id="edge49" class="edge">
<title>Node37&#45;&gt;Node10</title>
<path fill="none" stroke="midnightblue" d="M693.93,-273.9C710.44,-255 750.08,-210.72 767.5,-201 826.12,-168.28 850.95,-180.42 920.77,-165.04"/>
<polygon fill="midnightblue" stroke="midnightblue" points="921.98,-168.35 930.93,-162.67 920.4,-161.53 921.98,-168.35"/>
</g>
<!-- Node37&#45;&gt;Node12 -->
<g id="edge48" class="edge">
<title>Node37&#45;&gt;Node12</title>
<path fill="none" stroke="midnightblue" d="M720.11,-280.37C771.35,-276.18 871.28,-264.28 949.5,-232 972.29,-222.6 972.42,-209.67 995.5,-201 1111.57,-157.37 1152.42,-187.13 1278.66,-164.95"/>
<polygon fill="midnightblue" stroke="midnightblue" points="1279.5,-168.36 1288.7,-163.11 1278.23,-161.47 1279.5,-168.36"/>
</g>
<!-- Node37&#45;&gt;Node13 -->
<g id="edge51" class="edge">
<title>Node37&#45;&gt;Node13</title>
<path fill="none" stroke="midnightblue" d="M701.52,-273.85C717.77,-264.29 744.2,-248.09 765.5,-232 782.08,-219.48 781.69,-209.83 800.5,-201 895.76,-156.3 931.19,-185 1034.5,-165 1034.6,-164.98 1034.7,-164.96 1034.81,-164.94"/>
<polygon fill="midnightblue" stroke="midnightblue" points="1035.37,-168.4 1044.47,-162.98 1033.97,-161.54 1035.37,-168.4"/>
</g>
<!-- Node37&#45;&gt;Node14 -->
<g id="edge52" class="edge">
<title>Node37&#45;&gt;Node14</title>
<path fill="none" stroke="midnightblue" d="M720.11,-279.21C765.59,-273.83 848.51,-260.74 913.5,-232 935.38,-222.33 935.43,-210.23 957.5,-201 1037.9,-167.39 1067.03,-182.3 1156.3,-165.12"/>
<polygon fill="midnightblue" stroke="midnightblue" points="1157.18,-168.51 1166.3,-163.11 1155.81,-161.65 1157.18,-168.51"/>
</g>
<!-- Node37&#45;&gt;Node15 -->
<g id="edge53" class="edge">
<title>Node37&#45;&gt;Node15</title>
<path fill="none" stroke="midnightblue" d="M652.93,-278.21C614.74,-272.23 551.49,-258.95 503.5,-232 485.95,-222.15 487.5,-211.77 470.5,-201 448.61,-187.12 422.28,-175.94 399.21,-167.65"/>
<polygon fill="midnightblue" stroke="midnightblue" points="400.14,-164.27 389.54,-164.28 397.83,-170.88 400.14,-164.27"/>
</g>
<!-- Node37&#45;&gt;Node16 -->
<g id="edge54" class="edge">
<title>Node37&#45;&gt;Node16</title>
<path fill="none" stroke="midnightblue" d="M652.97,-274.27C623.58,-266.18 580.39,-252.11 546.5,-232 518.97,-215.66 492.11,-190.48 474.59,-172.44"/>
<polygon fill="midnightblue" stroke="midnightblue" points="476.66,-169.53 467.23,-164.71 471.59,-174.36 476.66,-169.53"/>
</g>
<!-- Node37&#45;&gt;Node17 -->
<g id="edge55" class="edge">
<title>Node37&#45;&gt;Node17</title>
<path fill="none" stroke="midnightblue" d="M688.98,-273.67C694.02,-257.25 706.92,-221.82 729.5,-201 745.2,-186.53 765.68,-175.81 785.16,-168.07"/>
<polygon fill="midnightblue" stroke="midnightblue" points="786.49,-171.31 794.61,-164.51 784.02,-164.76 786.49,-171.31"/>
</g>
<!-- Node37&#45;&gt;Node32 -->
<g id="edge56" class="edge">
<title>Node37&#45;&gt;Node32</title>
<path fill="none" stroke="midnightblue" d="M686.81,-273.92C687.4,-259.04 688.85,-227.52 691.5,-201 692.36,-192.43 693.57,-183.07 694.75,-174.77"/>
<polygon fill="midnightblue" stroke="midnightblue" points="698.25,-175.02 696.25,-164.61 691.33,-174 698.25,-175.02"/>
</g>
<!-- Node38 -->
<g id="node38" class="node">
<title>Node38</title>
<g id="a_node38"><a xlink:title=" ">
<polygon fill="none" stroke="#bfbfbf" points="810,-201.5 810,-231.5 905,-231.5 905,-201.5 810,-201.5"/>
<text text-anchor="start" x="818" y="-219.5" font-family="Helvetica,sans-Serif" font-size="10.00">boost/serialization</text>
<text text-anchor="middle" x="857.5" y="-208.5" font-family="Helvetica,sans-Serif" font-size="10.00">/weak_ptr.hpp</text>
</a>
</g>
</g>
<!-- Node37&#45;&gt;Node38 -->
<g id="edge50" class="edge">
<title>Node37&#45;&gt;Node38</title>
<path fill="none" stroke="midnightblue" d="M709.21,-273.87C735.09,-264.03 778.08,-247.69 811.13,-235.13"/>
<polygon fill="midnightblue" stroke="midnightblue" points="812.49,-238.35 820.6,-231.53 810,-231.81 812.49,-238.35"/>
</g>
<!-- Node39 -->
<g id="node39" class="node">
<title>Node39</title>
<g id="a_node39"><a xlink:title=" ">
<polygon fill="none" stroke="#bfbfbf" points="417.5,-207 417.5,-226 461.5,-226 461.5,-207 417.5,-207"/>
<text text-anchor="middle" x="439.5" y="-214" font-family="Helvetica,sans-Serif" font-size="10.00">vector</text>
</a>
</g>
</g>
<!-- Node37&#45;&gt;Node39 -->
<g id="edge57" class="edge">
<title>Node37&#45;&gt;Node39</title>
<path fill="none" stroke="midnightblue" d="M652.82,-276.05C610.82,-267.63 537.04,-251.64 475.5,-232 473.23,-231.27 470.89,-230.47 468.56,-229.63"/>
<polygon fill="midnightblue" stroke="midnightblue" points="469.7,-226.32 459.11,-226.01 467.2,-232.86 469.7,-226.32"/>
</g>
<!-- Node40&#45;&gt;Node3 -->
<g id="edge62" class="edge">
<title>Node40&#45;&gt;Node3</title>
<path fill="none" stroke="midnightblue" d="M1174.04,-268.4C1168.14,-258.56 1160.23,-245.38 1153.94,-234.89"/>
<polygon fill="midnightblue" stroke="midnightblue" points="1156.86,-232.97 1148.72,-226.19 1150.86,-236.57 1156.86,-232.97"/>
</g>
</g>
</svg>
