<?xml version="1.0" encoding="UTF-8" standalone="no"?>
<!DOCTYPE svg PUBLIC "-//W3C//DTD SVG 1.1//EN"
 "http://www.w3.org/Graphics/SVG/1.1/DTD/svg11.dtd">
<!-- Generated by graphviz version 2.44.0 ()
 -->
<!-- Title: src/API/GameObject.cpp Pages: 1 -->
<svg width="433pt" height="196pt"
 viewBox="0.00 0.00 432.50 196.00" xmlns="http://www.w3.org/2000/svg" xmlns:xlink="http://www.w3.org/1999/xlink">
<g id="graph0" class="graph" transform="scale(1 1) rotate(0) translate(4 192)">
<title>src/API/GameObject.cpp</title>
<!-- Node1 -->
<g id="node1" class="node">
<title>Node1</title>
<g id="a_node1"><a xlink:title=" ">
<polygon fill="#bfbfbf" stroke="black" points="140.5,-168.5 140.5,-187.5 265.5,-187.5 265.5,-168.5 140.5,-168.5"/>
<text text-anchor="middle" x="203" y="-175.5" font-family="Helvetica,sans-Serif" font-size="10.00">src/API/GameObject.cpp</text>
</a>
</g>
</g>
<!-- Node2 -->
<g id="node2" class="node">
<title>Node2</title>
<g id="a_node2"><a xlink:title=" ">
<polygon fill="none" stroke="#bfbfbf" points="127.5,-112.5 127.5,-131.5 186.5,-131.5 186.5,-112.5 127.5,-112.5"/>
<text text-anchor="middle" x="157" y="-119.5" font-family="Helvetica,sans-Serif" font-size="10.00">stdexcept</text>
</a>
</g>
</g>
<!-- Node1&#45;&gt;Node2 -->
<g id="edge1" class="edge">
<title>Node1&#45;&gt;Node2</title>
<path fill="none" stroke="midnightblue" d="M195.4,-168.08C188.77,-160.3 178.98,-148.8 170.94,-139.37"/>
<polygon fill="midnightblue" stroke="midnightblue" points="173.6,-137.09 164.45,-131.75 168.27,-141.63 173.6,-137.09"/>
</g>
<!-- Node3 -->
<g id="node3" class="node">
<title>Node3</title>
<g id="a_node3"><a xlink:href="GameObject_8hpp.html" target="_top" xlink:title=" ">
<polygon fill="none" stroke="black" points="204.5,-112.5 204.5,-131.5 293.5,-131.5 293.5,-112.5 204.5,-112.5"/>
<text text-anchor="middle" x="249" y="-119.5" font-family="Helvetica,sans-Serif" font-size="10.00">GameObject.hpp</text>
</a>
</g>
</g>
<!-- Node1&#45;&gt;Node3 -->
<g id="edge2" class="edge">
<title>Node1&#45;&gt;Node3</title>
<path fill="none" stroke="midnightblue" d="M210.6,-168.08C217.23,-160.3 227.02,-148.8 235.06,-139.37"/>
<polygon fill="midnightblue" stroke="midnightblue" points="237.73,-141.63 241.55,-131.75 232.4,-137.09 237.73,-141.63"/>
</g>
<!-- Node4 -->
<g id="node4" class="node">
<title>Node4</title>
<g id="a_node4"><a xlink:href="Component_8hpp.html" target="_top" xlink:title=" ">
<polygon fill="none" stroke="black" points="0,-56.5 0,-75.5 84,-75.5 84,-56.5 0,-56.5"/>
<text text-anchor="middle" x="42" y="-63.5" font-family="Helvetica,sans-Serif" font-size="10.00">Component.hpp</text>
</a>
</g>
</g>
<!-- Node3&#45;&gt;Node4 -->
<g id="edge3" class="edge">
<title>Node3&#45;&gt;Node4</title>
<path fill="none" stroke="midnightblue" d="M216.2,-112.44C180.62,-103.16 123.69,-88.31 84.65,-78.13"/>
<polygon fill="midnightblue" stroke="midnightblue" points="85.21,-74.65 74.65,-75.52 83.44,-81.43 85.21,-74.65"/>
</g>
<!-- Node5 -->
<g id="node5" class="node">
<title>Node5</title>
<g id="a_node5"><a xlink:href="Transform_8hpp.html" target="_top" xlink:title=" ">
<polygon fill="none" stroke="black" points="101.5,-56.5 101.5,-75.5 180.5,-75.5 180.5,-56.5 101.5,-56.5"/>
<text text-anchor="middle" x="141" y="-63.5" font-family="Helvetica,sans-Serif" font-size="10.00">Transform.hpp</text>
</a>
</g>
</g>
<!-- Node3&#45;&gt;Node5 -->
<g id="edge4" class="edge">
<title>Node3&#45;&gt;Node5</title>
<path fill="none" stroke="midnightblue" d="M231.65,-112.32C214.33,-103.66 187.48,-90.24 167.5,-80.25"/>
<polygon fill="midnightblue" stroke="midnightblue" points="168.82,-77 158.31,-75.65 165.69,-83.26 168.82,-77"/>
</g>
<!-- Node7 -->
<g id="node7" class="node">
<title>Node7</title>
<g id="a_node7"><a xlink:title=" ">
<polygon fill="none" stroke="#bfbfbf" points="198.5,-56.5 198.5,-75.5 239.5,-75.5 239.5,-56.5 198.5,-56.5"/>
<text text-anchor="middle" x="219" y="-63.5" font-family="Helvetica,sans-Serif" font-size="10.00">string</text>
</a>
</g>
</g>
<!-- Node3&#45;&gt;Node7 -->
<g id="edge6" class="edge">
<title>Node3&#45;&gt;Node7</title>
<path fill="none" stroke="midnightblue" d="M244.05,-112.08C239.9,-104.61 233.85,-93.72 228.73,-84.52"/>
<polygon fill="midnightblue" stroke="midnightblue" points="231.78,-82.79 223.86,-75.75 225.66,-86.19 231.78,-82.79"/>
</g>
<!-- Node8 -->
<g id="node8" class="node">
<title>Node8</title>
<g id="a_node8"><a xlink:title=" ">
<polygon fill="none" stroke="#bfbfbf" points="258,-56.5 258,-75.5 302,-75.5 302,-56.5 258,-56.5"/>
<text text-anchor="middle" x="280" y="-63.5" font-family="Helvetica,sans-Serif" font-size="10.00">vector</text>
</a>
</g>
</g>
<!-- Node3&#45;&gt;Node8 -->
<g id="edge7" class="edge">
<title>Node3&#45;&gt;Node8</title>
<path fill="none" stroke="midnightblue" d="M254.12,-112.08C258.41,-104.61 264.66,-93.72 269.94,-84.52"/>
<polygon fill="midnightblue" stroke="midnightblue" points="273.03,-86.17 274.98,-75.75 266.96,-82.68 273.03,-86.17"/>
</g>
<!-- Node9 -->
<g id="node9" class="node">
<title>Node9</title>
<g id="a_node9"><a xlink:title=" ">
<polygon fill="none" stroke="#bfbfbf" points="320.5,-56.5 320.5,-75.5 371.5,-75.5 371.5,-56.5 320.5,-56.5"/>
<text text-anchor="middle" x="346" y="-63.5" font-family="Helvetica,sans-Serif" font-size="10.00">memory</text>
</a>
</g>
</g>
<!-- Node3&#45;&gt;Node9 -->
<g id="edge8" class="edge">
<title>Node3&#45;&gt;Node9</title>
<path fill="none" stroke="midnightblue" d="M264.58,-112.32C280,-103.74 303.81,-90.49 321.71,-80.52"/>
<polygon fill="midnightblue" stroke="midnightblue" points="323.42,-83.58 330.45,-75.65 320.01,-77.46 323.42,-83.58"/>
</g>
<!-- Node10 -->
<g id="node10" class="node">
<title>Node10</title>
<g id="a_node10"><a xlink:title=" ">
<polygon fill="none" stroke="#bfbfbf" points="389.5,-56.5 389.5,-75.5 424.5,-75.5 424.5,-56.5 389.5,-56.5"/>
<text text-anchor="middle" x="407" y="-63.5" font-family="Helvetica,sans-Serif" font-size="10.00">map</text>
</a>
</g>
</g>
<!-- Node3&#45;&gt;Node10 -->
<g id="edge9" class="edge">
<title>Node3&#45;&gt;Node10</title>
<path fill="none" stroke="midnightblue" d="M274.32,-112.41C299.03,-104.01 337.94,-90.77 379.83,-76.39"/>
<polygon fill="midnightblue" stroke="midnightblue" points="381.06,-79.67 389.38,-73.11 378.79,-73.05 381.06,-79.67"/>
</g>
<!-- Node6 -->
<g id="node6" class="node">
<title>Node6</title>
<g id="a_node6"><a xlink:href="Point_8hpp.html" target="_top" xlink:title=" ">
<polygon fill="none" stroke="black" points="112.5,-0.5 112.5,-19.5 169.5,-19.5 169.5,-0.5 112.5,-0.5"/>
<text text-anchor="middle" x="141" y="-7.5" font-family="Helvetica,sans-Serif" font-size="10.00">Point.hpp</text>
</a>
</g>
</g>
<!-- Node5&#45;&gt;Node6 -->
<g id="edge5" class="edge">
<title>Node5&#45;&gt;Node6</title>
<path fill="none" stroke="midnightblue" d="M141,-56.08C141,-49.01 141,-38.86 141,-29.99"/>
<polygon fill="midnightblue" stroke="midnightblue" points="144.5,-29.75 141,-19.75 137.5,-29.75 144.5,-29.75"/>
</g>
</g>
</svg>
