<?xml version="1.0" encoding="UTF-8" standalone="no"?>
<!DOCTYPE svg PUBLIC "-//W3C//DTD SVG 1.1//EN"
 "http://www.w3.org/Graphics/SVG/1.1/DTD/svg11.dtd">
<!-- Generated by graphviz version 2.44.0 ()
 -->
<!-- Title: includes/spic&#45;prj&#45;api/GameObject.hpp Pages: 1 -->
<svg width="1027pt" height="240pt"
 viewBox="0.00 0.00 1026.50 240.00" xmlns="http://www.w3.org/2000/svg" xmlns:xlink="http://www.w3.org/1999/xlink">
<g id="graph0" class="graph" transform="scale(1 1) rotate(0) translate(4 236)">
<title>includes/spic&#45;prj&#45;api/GameObject.hpp</title>
<!-- Node1 -->
<g id="node1" class="node">
<title>Node1</title>
<g id="a_node1"><a xlink:title=" ">
<polygon fill="#bfbfbf" stroke="black" points="374,-201.5 374,-231.5 477,-231.5 477,-201.5 374,-201.5"/>
<text text-anchor="start" x="382" y="-219.5" font-family="Helvetica,sans-Serif" font-size="10.00">includes/spic&#45;prj&#45;api</text>
<text text-anchor="middle" x="425.5" y="-208.5" font-family="Helvetica,sans-Serif" font-size="10.00">/GameObject.hpp</text>
</a>
</g>
</g>
<!-- Node2 -->
<g id="node2" class="node">
<title>Node2</title>
<g id="a_node2"><a xlink:href="GameObject_8cpp.html" target="_top" xlink:title=" ">
<polygon fill="none" stroke="black" points="0,-134.5 0,-153.5 125,-153.5 125,-134.5 0,-134.5"/>
<text text-anchor="middle" x="62.5" y="-141.5" font-family="Helvetica,sans-Serif" font-size="10.00">src/API/GameObject.cpp</text>
</a>
</g>
</g>
<!-- Node1&#45;&gt;Node2 -->
<g id="edge1" class="edge">
<title>Node1&#45;&gt;Node2</title>
<path fill="none" stroke="midnightblue" d="M363.79,-206.72C304.44,-197.83 212.35,-182.87 133.5,-165 119.14,-161.74 103.35,-157.38 90.32,-153.56"/>
<polygon fill="midnightblue" stroke="midnightblue" points="363.35,-210.2 373.75,-208.2 364.38,-203.27 363.35,-210.2"/>
</g>
<!-- Node3 -->
<g id="node3" class="node">
<title>Node3</title>
<g id="a_node3"><a xlink:href="PhysicsSystem_8cpp.html" target="_top" xlink:title=" ">
<polygon fill="none" stroke="black" points="219.5,-62 219.5,-81 375.5,-81 375.5,-62 219.5,-62"/>
<text text-anchor="middle" x="297.5" y="-69" font-family="Helvetica,sans-Serif" font-size="10.00">src/Physics/PhysicsSystem.cpp</text>
</a>
</g>
</g>
<!-- Node1&#45;&gt;Node3 -->
<g id="edge2" class="edge">
<title>Node1&#45;&gt;Node3</title>
<path fill="none" stroke="midnightblue" d="M373.75,-197.08C357.77,-189.27 341.3,-178.73 329.5,-165 307.8,-139.74 300.57,-98.94 298.37,-81.2"/>
<polygon fill="midnightblue" stroke="midnightblue" points="372.51,-200.36 383.06,-201.37 375.44,-194 372.51,-200.36"/>
</g>
<!-- Node4 -->
<g id="node4" class="node">
<title>Node4</title>
<g id="a_node4"><a xlink:href="GameObjectBuilder_8hpp.html" target="_top" xlink:title=" ">
<polygon fill="none" stroke="black" points="143,-123.5 143,-164.5 282,-164.5 282,-123.5 143,-123.5"/>
<text text-anchor="start" x="151" y="-152.5" font-family="Helvetica,sans-Serif" font-size="10.00">includes/platformer</text>
<text text-anchor="start" x="151" y="-141.5" font-family="Helvetica,sans-Serif" font-size="10.00">&#45;engine/Builder/GameObject</text>
<text text-anchor="middle" x="212.5" y="-130.5" font-family="Helvetica,sans-Serif" font-size="10.00">Builder.hpp</text>
</a>
</g>
</g>
<!-- Node1&#45;&gt;Node4 -->
<g id="edge3" class="edge">
<title>Node1&#45;&gt;Node4</title>
<path fill="none" stroke="midnightblue" d="M373.48,-198.28C342.71,-188.1 303.64,-175.17 271.69,-164.59"/>
<polygon fill="midnightblue" stroke="midnightblue" points="372.57,-201.67 383.16,-201.49 374.77,-195.02 372.57,-201.67"/>
</g>
<!-- Node6 -->
<g id="node6" class="node">
<title>Node6</title>
<g id="a_node6"><a xlink:href="PhysicsSystem_8hpp.html" target="_top" xlink:title=" ">
<polygon fill="none" stroke="black" points="338.5,-129 338.5,-159 512.5,-159 512.5,-129 338.5,-129"/>
<text text-anchor="start" x="346.5" y="-147" font-family="Helvetica,sans-Serif" font-size="10.00">includes/platformer</text>
<text text-anchor="middle" x="425.5" y="-136" font-family="Helvetica,sans-Serif" font-size="10.00">&#45;engine/Physics/PhysicsSystem.hpp</text>
</a>
</g>
</g>
<!-- Node1&#45;&gt;Node6 -->
<g id="edge5" class="edge">
<title>Node1&#45;&gt;Node6</title>
<path fill="none" stroke="midnightblue" d="M425.5,-191.23C425.5,-180.57 425.5,-168.41 425.5,-159.25"/>
<polygon fill="midnightblue" stroke="midnightblue" points="422,-191.23 425.5,-201.23 429,-191.23 422,-191.23"/>
</g>
<!-- Node9 -->
<g id="node9" class="node">
<title>Node9</title>
<g id="a_node9"><a xlink:href="Camera_8hpp.html" target="_top" xlink:title=" ">
<polygon fill="none" stroke="black" points="531,-129 531,-159 634,-159 634,-129 531,-129"/>
<text text-anchor="start" x="539" y="-147" font-family="Helvetica,sans-Serif" font-size="10.00">includes/spic&#45;prj&#45;api</text>
<text text-anchor="middle" x="582.5" y="-136" font-family="Helvetica,sans-Serif" font-size="10.00">/Camera.hpp</text>
</a>
</g>
</g>
<!-- Node1&#45;&gt;Node9 -->
<g id="edge9" class="edge">
<title>Node1&#45;&gt;Node9</title>
<path fill="none" stroke="midnightblue" d="M466.28,-197.19C492.78,-185.29 526.79,-170.02 551.16,-159.07"/>
<polygon fill="midnightblue" stroke="midnightblue" points="464.58,-194.11 456.89,-201.4 467.45,-200.5 464.58,-194.11"/>
</g>
<!-- Node11 -->
<g id="node11" class="node">
<title>Node11</title>
<g id="a_node11"><a xlink:href="Scene_8hpp.html" target="_top" xlink:title=" ">
<polygon fill="none" stroke="black" points="652,-129 652,-159 755,-159 755,-129 652,-129"/>
<text text-anchor="start" x="660" y="-147" font-family="Helvetica,sans-Serif" font-size="10.00">includes/spic&#45;prj&#45;api</text>
<text text-anchor="middle" x="703.5" y="-136" font-family="Helvetica,sans-Serif" font-size="10.00">/Scene.hpp</text>
</a>
</g>
</g>
<!-- Node1&#45;&gt;Node11 -->
<g id="edge11" class="edge">
<title>Node1&#45;&gt;Node11</title>
<path fill="none" stroke="midnightblue" d="M487.02,-202.7C530.66,-193.25 590.49,-179.55 642.5,-165 648.94,-163.2 655.71,-161.14 662.31,-159.05"/>
<polygon fill="midnightblue" stroke="midnightblue" points="486.16,-199.3 477.12,-204.83 487.64,-206.15 486.16,-199.3"/>
</g>
<!-- Node12 -->
<g id="node12" class="node">
<title>Node12</title>
<g id="a_node12"><a xlink:href="UIObject_8hpp.html" target="_top" xlink:title=" ">
<polygon fill="none" stroke="black" points="787,-129 787,-159 890,-159 890,-129 787,-129"/>
<text text-anchor="start" x="795" y="-147" font-family="Helvetica,sans-Serif" font-size="10.00">includes/spic&#45;prj&#45;api</text>
<text text-anchor="middle" x="838.5" y="-136" font-family="Helvetica,sans-Serif" font-size="10.00">/UIObject.hpp</text>
</a>
</g>
</g>
<!-- Node1&#45;&gt;Node12 -->
<g id="edge12" class="edge">
<title>Node1&#45;&gt;Node12</title>
<path fill="none" stroke="midnightblue" d="M487.38,-208.47C555.63,-200.21 668.52,-185.05 764.5,-165 772.71,-163.29 781.36,-161.2 789.73,-159.04"/>
<polygon fill="midnightblue" stroke="midnightblue" points="486.74,-205.02 477.23,-209.69 487.58,-211.97 486.74,-205.02"/>
</g>
<!-- Node5 -->
<g id="node5" class="node">
<title>Node5</title>
<g id="a_node5"><a xlink:href="GameObjectBuilder_8cpp.html" target="_top" xlink:title=" ">
<polygon fill="none" stroke="black" points="32,-62 32,-81 201,-81 201,-62 32,-62"/>
<text text-anchor="middle" x="116.5" y="-69" font-family="Helvetica,sans-Serif" font-size="10.00">src/Builder/GameObjectBuilder.cpp</text>
</a>
</g>
</g>
<!-- Node4&#45;&gt;Node5 -->
<g id="edge4" class="edge">
<title>Node4&#45;&gt;Node5</title>
<path fill="none" stroke="midnightblue" d="M177.52,-117.31C160.25,-104.63 140.54,-90.16 128.31,-81.17"/>
<polygon fill="midnightblue" stroke="midnightblue" points="175.63,-120.26 185.76,-123.36 179.77,-114.62 175.63,-120.26"/>
</g>
<!-- Node6&#45;&gt;Node3 -->
<g id="edge6" class="edge">
<title>Node6&#45;&gt;Node3</title>
<path fill="none" stroke="midnightblue" d="M390.94,-123.97C365.53,-109.97 332.21,-91.62 312.99,-81.03"/>
<polygon fill="midnightblue" stroke="midnightblue" points="389.46,-127.14 399.9,-128.9 392.83,-121.01 389.46,-127.14"/>
</g>
<!-- Node7 -->
<g id="node7" class="node">
<title>Node7</title>
<g id="a_node7"><a xlink:href="Engine_8hpp.html" target="_top" xlink:title=" ">
<polygon fill="none" stroke="black" points="394,-56.5 394,-86.5 525,-86.5 525,-56.5 394,-56.5"/>
<text text-anchor="start" x="402" y="-74.5" font-family="Helvetica,sans-Serif" font-size="10.00">includes/platformer</text>
<text text-anchor="middle" x="459.5" y="-63.5" font-family="Helvetica,sans-Serif" font-size="10.00">&#45;engine/Engine/Engine.hpp</text>
</a>
</g>
</g>
<!-- Node6&#45;&gt;Node7 -->
<g id="edge7" class="edge">
<title>Node6&#45;&gt;Node7</title>
<path fill="none" stroke="midnightblue" d="M436.88,-119.4C442.1,-108.58 448.12,-96.11 452.63,-86.75"/>
<polygon fill="midnightblue" stroke="midnightblue" points="433.57,-118.21 432.38,-128.73 439.88,-121.25 433.57,-118.21"/>
</g>
<!-- Node8 -->
<g id="node8" class="node">
<title>Node8</title>
<g id="a_node8"><a xlink:href="Engine_8cpp.html" target="_top" xlink:title=" ">
<polygon fill="none" stroke="black" points="403,-0.5 403,-19.5 516,-19.5 516,-0.5 403,-0.5"/>
<text text-anchor="middle" x="459.5" y="-7.5" font-family="Helvetica,sans-Serif" font-size="10.00">src/Engine/Engine.cpp</text>
</a>
</g>
</g>
<!-- Node7&#45;&gt;Node8 -->
<g id="edge8" class="edge">
<title>Node7&#45;&gt;Node8</title>
<path fill="none" stroke="midnightblue" d="M459.5,-46.29C459.5,-36.86 459.5,-26.65 459.5,-19.66"/>
<polygon fill="midnightblue" stroke="midnightblue" points="456,-46.4 459.5,-56.4 463,-46.4 456,-46.4"/>
</g>
<!-- Node10 -->
<g id="node10" class="node">
<title>Node10</title>
<g id="a_node10"><a xlink:href="Camera_8cpp.html" target="_top" xlink:title=" ">
<polygon fill="none" stroke="black" points="543.5,-62 543.5,-81 647.5,-81 647.5,-62 543.5,-62"/>
<text text-anchor="middle" x="595.5" y="-69" font-family="Helvetica,sans-Serif" font-size="10.00">src/API/Camera.cpp</text>
</a>
</g>
</g>
<!-- Node9&#45;&gt;Node10 -->
<g id="edge10" class="edge">
<title>Node9&#45;&gt;Node10</title>
<path fill="none" stroke="midnightblue" d="M587,-118.59C589.38,-105.71 592.14,-90.7 593.86,-81.39"/>
<polygon fill="midnightblue" stroke="midnightblue" points="583.5,-118.26 585.13,-128.73 590.39,-119.53 583.5,-118.26"/>
</g>
<!-- Node13 -->
<g id="node13" class="node">
<title>Node13</title>
<g id="a_node13"><a xlink:href="UIObject_8cpp.html" target="_top" xlink:title=" ">
<polygon fill="none" stroke="black" points="908.5,-62 908.5,-81 1018.5,-81 1018.5,-62 908.5,-62"/>
<text text-anchor="middle" x="963.5" y="-69" font-family="Helvetica,sans-Serif" font-size="10.00">src/API/UIObject.cpp</text>
</a>
</g>
</g>
<!-- Node12&#45;&gt;Node13 -->
<g id="edge13" class="edge">
<title>Node12&#45;&gt;Node13</title>
<path fill="none" stroke="midnightblue" d="M872.25,-123.97C897.06,-109.97 929.6,-91.62 948.37,-81.03"/>
<polygon fill="midnightblue" stroke="midnightblue" points="870.49,-120.94 863.5,-128.9 873.92,-127.04 870.49,-120.94"/>
</g>
<!-- Node14 -->
<g id="node14" class="node">
<title>Node14</title>
<g id="a_node14"><a xlink:href="Button_8hpp.html" target="_top" xlink:title=" ">
<polygon fill="none" stroke="black" points="666,-56.5 666,-86.5 769,-86.5 769,-56.5 666,-56.5"/>
<text text-anchor="start" x="674" y="-74.5" font-family="Helvetica,sans-Serif" font-size="10.00">includes/spic&#45;prj&#45;api</text>
<text text-anchor="middle" x="717.5" y="-63.5" font-family="Helvetica,sans-Serif" font-size="10.00">/Button.hpp</text>
</a>
</g>
</g>
<!-- Node12&#45;&gt;Node14 -->
<g id="edge14" class="edge">
<title>Node12&#45;&gt;Node14</title>
<path fill="none" stroke="midnightblue" d="M805.45,-123.74C785.28,-111.99 759.94,-97.23 741.65,-86.57"/>
<polygon fill="midnightblue" stroke="midnightblue" points="803.9,-126.89 814.3,-128.9 807.43,-120.84 803.9,-126.89"/>
</g>
<!-- Node15 -->
<g id="node15" class="node">
<title>Node15</title>
<g id="a_node15"><a xlink:href="Text_8hpp.html" target="_top" xlink:title=" ">
<polygon fill="none" stroke="black" points="787,-56.5 787,-86.5 890,-86.5 890,-56.5 787,-56.5"/>
<text text-anchor="start" x="795" y="-74.5" font-family="Helvetica,sans-Serif" font-size="10.00">includes/spic&#45;prj&#45;api</text>
<text text-anchor="middle" x="838.5" y="-63.5" font-family="Helvetica,sans-Serif" font-size="10.00">/Text.hpp</text>
</a>
</g>
</g>
<!-- Node12&#45;&gt;Node15 -->
<g id="edge15" class="edge">
<title>Node12&#45;&gt;Node15</title>
<path fill="none" stroke="midnightblue" d="M838.5,-118.73C838.5,-108.07 838.5,-95.91 838.5,-86.75"/>
<polygon fill="midnightblue" stroke="midnightblue" points="835,-118.73 838.5,-128.73 842,-118.73 835,-118.73"/>
</g>
</g>
</svg>
