<?xml version="1.0" encoding="UTF-8" standalone="no"?>
<!DOCTYPE svg PUBLIC "-//W3C//DTD SVG 1.1//EN"
 "http://www.w3.org/Graphics/SVG/1.1/DTD/svg11.dtd">
<!-- Generated by graphviz version 2.44.0 ()
 -->
<!-- Title: includes/spic&#45;prj&#45;api/GameObject.hpp Pages: 1 -->
<svg width="403pt" height="151pt"
 viewBox="0.00 0.00 402.50 151.00" xmlns="http://www.w3.org/2000/svg" xmlns:xlink="http://www.w3.org/1999/xlink">
<g id="graph0" class="graph" transform="scale(1 1) rotate(0) translate(4 147)">
<title>includes/spic&#45;prj&#45;api/GameObject.hpp</title>
<!-- Node1 -->
<g id="node1" class="node">
<title>Node1</title>
<g id="a_node1"><a xlink:title=" ">
<polygon fill="#bfbfbf" stroke="black" points="167.5,-112.5 167.5,-142.5 270.5,-142.5 270.5,-112.5 167.5,-112.5"/>
<text text-anchor="start" x="175.5" y="-130.5" font-family="Helvetica,sans-Serif" font-size="10.00">includes/spic&#45;prj&#45;api</text>
<text text-anchor="middle" x="219" y="-119.5" font-family="Helvetica,sans-Serif" font-size="10.00">/GameObject.hpp</text>
</a>
</g>
</g>
<!-- Node2 -->
<g id="node2" class="node">
<title>Node2</title>
<g id="a_node2"><a xlink:href="Component_8hpp.html" target="_top" xlink:title=" ">
<polygon fill="none" stroke="black" points="0,-56.5 0,-75.5 84,-75.5 84,-56.5 0,-56.5"/>
<text text-anchor="middle" x="42" y="-63.5" font-family="Helvetica,sans-Serif" font-size="10.00">Component.hpp</text>
</a>
</g>
</g>
<!-- Node1&#45;&gt;Node2 -->
<g id="edge1" class="edge">
<title>Node1&#45;&gt;Node2</title>
<path fill="none" stroke="midnightblue" d="M177.05,-112.4C146.6,-102.16 105.87,-88.47 77.13,-78.81"/>
<polygon fill="midnightblue" stroke="midnightblue" points="78.09,-75.44 67.5,-75.57 75.86,-82.07 78.09,-75.44"/>
</g>
<!-- Node3 -->
<g id="node3" class="node">
<title>Node3</title>
<g id="a_node3"><a xlink:title=" ">
<polygon fill="none" stroke="#bfbfbf" points="49.5,-0.5 49.5,-19.5 100.5,-19.5 100.5,-0.5 49.5,-0.5"/>
<text text-anchor="middle" x="75" y="-7.5" font-family="Helvetica,sans-Serif" font-size="10.00">memory</text>
</a>
</g>
</g>
<!-- Node1&#45;&gt;Node3 -->
<g id="edge7" class="edge">
<title>Node1&#45;&gt;Node3</title>
<path fill="none" stroke="midnightblue" d="M189.26,-112.32C171.69,-103.22 149.53,-90.42 132,-76 114.7,-61.76 98.19,-42.03 87.43,-28.04"/>
<polygon fill="midnightblue" stroke="midnightblue" points="90.05,-25.7 81.25,-19.8 84.45,-29.9 90.05,-25.7"/>
</g>
<!-- Node4 -->
<g id="node4" class="node">
<title>Node4</title>
<g id="a_node4"><a xlink:href="Transform_8hpp.html" target="_top" xlink:title=" ">
<polygon fill="none" stroke="black" points="140.5,-56.5 140.5,-75.5 219.5,-75.5 219.5,-56.5 140.5,-56.5"/>
<text text-anchor="middle" x="180" y="-63.5" font-family="Helvetica,sans-Serif" font-size="10.00">Transform.hpp</text>
</a>
</g>
</g>
<!-- Node1&#45;&gt;Node4 -->
<g id="edge3" class="edge">
<title>Node1&#45;&gt;Node4</title>
<path fill="none" stroke="midnightblue" d="M209.76,-112.4C204.21,-103.93 197.11,-93.1 191.23,-84.14"/>
<polygon fill="midnightblue" stroke="midnightblue" points="194.08,-82.1 185.67,-75.66 188.23,-85.94 194.08,-82.1"/>
</g>
<!-- Node6 -->
<g id="node6" class="node">
<title>Node6</title>
<g id="a_node6"><a xlink:title=" ">
<polygon fill="none" stroke="#bfbfbf" points="237.5,-56.5 237.5,-75.5 278.5,-75.5 278.5,-56.5 237.5,-56.5"/>
<text text-anchor="middle" x="258" y="-63.5" font-family="Helvetica,sans-Serif" font-size="10.00">string</text>
</a>
</g>
</g>
<!-- Node1&#45;&gt;Node6 -->
<g id="edge5" class="edge">
<title>Node1&#45;&gt;Node6</title>
<path fill="none" stroke="midnightblue" d="M228.24,-112.4C233.79,-103.93 240.89,-93.1 246.77,-84.14"/>
<polygon fill="midnightblue" stroke="midnightblue" points="249.77,-85.94 252.33,-75.66 243.92,-82.1 249.77,-85.94"/>
</g>
<!-- Node7 -->
<g id="node7" class="node">
<title>Node7</title>
<g id="a_node7"><a xlink:title=" ">
<polygon fill="none" stroke="#bfbfbf" points="297,-56.5 297,-75.5 341,-75.5 341,-56.5 297,-56.5"/>
<text text-anchor="middle" x="319" y="-63.5" font-family="Helvetica,sans-Serif" font-size="10.00">vector</text>
</a>
</g>
</g>
<!-- Node1&#45;&gt;Node7 -->
<g id="edge6" class="edge">
<title>Node1&#45;&gt;Node7</title>
<path fill="none" stroke="midnightblue" d="M242.7,-112.4C258.73,-102.86 279.8,-90.32 295.74,-80.84"/>
<polygon fill="midnightblue" stroke="midnightblue" points="297.64,-83.78 304.45,-75.66 294.07,-77.76 297.64,-83.78"/>
</g>
<!-- Node8 -->
<g id="node8" class="node">
<title>Node8</title>
<g id="a_node8"><a xlink:title=" ">
<polygon fill="none" stroke="#bfbfbf" points="359.5,-56.5 359.5,-75.5 394.5,-75.5 394.5,-56.5 359.5,-56.5"/>
<text text-anchor="middle" x="377" y="-63.5" font-family="Helvetica,sans-Serif" font-size="10.00">map</text>
</a>
</g>
</g>
<!-- Node1&#45;&gt;Node8 -->
<g id="edge8" class="edge">
<title>Node1&#45;&gt;Node8</title>
<path fill="none" stroke="midnightblue" d="M256.44,-112.4C285.12,-101.6 324.02,-86.95 349.78,-77.25"/>
<polygon fill="midnightblue" stroke="midnightblue" points="351.17,-80.47 359.29,-73.67 348.7,-73.92 351.17,-80.47"/>
</g>
<!-- Node2&#45;&gt;Node3 -->
<g id="edge2" class="edge">
<title>Node2&#45;&gt;Node3</title>
<path fill="none" stroke="midnightblue" d="M47.45,-56.08C52.01,-48.61 58.67,-37.72 64.29,-28.52"/>
<polygon fill="midnightblue" stroke="midnightblue" points="67.42,-30.11 69.65,-19.75 61.45,-26.46 67.42,-30.11"/>
</g>
<!-- Node5 -->
<g id="node5" class="node">
<title>Node5</title>
<g id="a_node5"><a xlink:href="Point_8hpp.html" target="_top" xlink:title=" ">
<polygon fill="none" stroke="black" points="151.5,-0.5 151.5,-19.5 208.5,-19.5 208.5,-0.5 151.5,-0.5"/>
<text text-anchor="middle" x="180" y="-7.5" font-family="Helvetica,sans-Serif" font-size="10.00">Point.hpp</text>
</a>
</g>
</g>
<!-- Node4&#45;&gt;Node5 -->
<g id="edge4" class="edge">
<title>Node4&#45;&gt;Node5</title>
<path fill="none" stroke="midnightblue" d="M180,-56.08C180,-49.01 180,-38.86 180,-29.99"/>
<polygon fill="midnightblue" stroke="midnightblue" points="183.5,-29.75 180,-19.75 176.5,-29.75 183.5,-29.75"/>
</g>
</g>
</svg>
