<svg xmlns="http://www.w3.org/2000/svg" xmlns:xlink="http://www.w3.org/1999/xlink" width="1420pt" height="509pt" viewBox="0 0 1419.5 509"><g id="graph0" class="graph" transform="scale(1 1) rotate(0) translate(4 505)"><title>includes/platformer-engine/Builder/GameObjectBuilder.hpp</title><g id="node1" class="node"><title>Node1</title><g id="a_node1"><a><polygon fill="#bfbfbf" stroke="#000" points="215.5 -459.5 215.5 -500.5 354.5 -500.5 354.5 -459.5 215.5 -459.5"/><text x="223.5" y="-488.5" font-family="Helvetica,sans-Serif" font-size="10" text-anchor="start">includes/platformer</text><text x="223.5" y="-477.5" font-family="Helvetica,sans-Serif" font-size="10" text-anchor="start">-engine/Builder/GameObject</text><text x="285" y="-466.5" font-family="Helvetica,sans-Serif" font-size="10" text-anchor="middle">Builder.hpp</text></a></g></g><g id="node2" class="node"><title>Node2</title><g id="a_node2"><a target="_top" xlink:href="GameObject_8hpp.html"><polygon fill="none" stroke="#000" points="1015.5 -123.5 1015.5 -142.5 1104.5 -142.5 1104.5 -123.5 1015.5 -123.5"/><text x="1060" y="-130.5" font-family="Helvetica,sans-Serif" font-size="10" text-anchor="middle">GameObject.hpp</text></a></g></g><g id="edge1" class="edge"><title>Node1-&gt;Node2</title><path fill="none" stroke="#191970" d="M354.76,-475.88C551.24,-466.17 1095,-432.56 1095,-358 1095,-358 1095,-358 1095,-244 1095,-210.07 1079.69,-172.91 1069.32,-151.63"/><polygon fill="#191970" stroke="#191970" points="1072.36 -149.88 1064.72 -142.54 1066.12 -153.05 1072.36 -149.88"/></g><g id="node14" class="node"><title>Node14</title><g id="a_node14"><a target="_top" xlink:href="ObjectBuilder_8hpp.html"><polygon fill="none" stroke="#000" points="276.5 -403.5 276.5 -422.5 369.5 -422.5 369.5 -403.5 276.5 -403.5"/><text x="323" y="-410.5" font-family="Helvetica,sans-Serif" font-size="10" text-anchor="middle">ObjectBuilder.hpp</text></a></g></g><g id="edge18" class="edge"><title>Node1-&gt;Node14</title><path fill="none" stroke="#191970" d="M296.4,-459.5C301.61,-450.59 307.73,-440.11 312.79,-431.46"/><polygon fill="#191970" stroke="#191970" points="315.92 -433.05 317.94 -422.65 309.87 -429.52 315.92 -433.05"/></g><g id="node15" class="node"><title>Node15</title><g id="a_node15"><a target="_top" xlink:href="AnimatedSprite_8hpp.html"><polygon fill="none" stroke="#000" points="179.5 -347.5 179.5 -366.5 316.5 -366.5 316.5 -347.5 179.5 -347.5"/><text x="248" y="-354.5" font-family="Helvetica,sans-Serif" font-size="10" text-anchor="middle">Texture/AnimatedSprite.hpp</text></a></g></g><g id="edge64" class="edge"><title>Node1-&gt;Node15</title><path fill="none" stroke="#191970" d="M278.54,-459.34C275.05,-448.62 270.71,-435.11 267,-423 262.2,-407.37 257.01,-389.54 253.27,-376.51"/><polygon fill="#191970" stroke="#191970" points="256.62 -375.51 250.51 -366.85 249.89 -377.43 256.62 -375.51"/></g><g id="node32" class="node"><title>Node32</title><g id="a_node32"><a target="_top" xlink:href="Animator_8hpp.html"><polygon fill="none" stroke="#000" points="146 -403.5 146 -422.5 220 -422.5 220 -403.5 146 -403.5"/><text x="183" y="-410.5" font-family="Helvetica,sans-Serif" font-size="10" text-anchor="middle">Animator.hpp</text></a></g></g><g id="edge57" class="edge"><title>Node1-&gt;Node32</title><path fill="none" stroke="#191970" d="M254.4,-459.5C238.61,-449.44 219.7,-437.38 205.3,-428.21"/><polygon fill="#191970" stroke="#191970" points="206.89 -425.08 196.58 -422.65 203.13 -430.98 206.89 -425.08"/></g><g id="node3" class="node"><title>Node3</title><g id="a_node3"><a target="_top" xlink:href="Component_8hpp.html"><polygon fill="none" stroke="#000" points="1209 -67.5 1209 -86.5 1293 -86.5 1293 -67.5 1209 -67.5"/><text x="1251" y="-74.5" font-family="Helvetica,sans-Serif" font-size="10" text-anchor="middle">Component.hpp</text></a></g></g><g id="edge2" class="edge"><title>Node2-&gt;Node3</title><path fill="none" stroke="#191970" d="M1090.26,-123.44C1122.96,-114.2 1175.18,-99.44 1211.18,-89.26"/><polygon fill="#191970" stroke="#191970" points="1212.21 -92.61 1220.88 -86.52 1210.3 -85.87 1212.21 -92.61"/></g><g id="node4" class="node"><title>Node4</title><g id="a_node4"><a><polygon fill="none" stroke="#bfbfbf" points="1021.5 -6 1021.5 -25 1072.5 -25 1072.5 -6 1021.5 -6"/><text x="1047" y="-13" font-family="Helvetica,sans-Serif" font-size="10" text-anchor="middle">memory</text></a></g></g><g id="edge12" class="edge"><title>Node2-&gt;Node4</title><path fill="none" stroke="#191970" d="M1066.38,-123.2C1074.6,-110.73 1087.16,-87.19 1081,-67 1077.21,-54.59 1069.24,-42.47 1061.96,-33.21"/><polygon fill="#191970" stroke="#191970" points="1064.46 -30.74 1055.36 -25.3 1059.08 -35.22 1064.46 -30.74"/></g><g id="node5" class="node"><title>Node5</title><g id="a_node5"><a><polygon fill="none" stroke="#bfbfbf" points="202.5 -.5 202.5 -30.5 297.5 -30.5 297.5 -.5 202.5 -.5"/><text x="210.5" y="-18.5" font-family="Helvetica,sans-Serif" font-size="10" text-anchor="start">boost/serialization</text><text x="250" y="-7.5" font-family="Helvetica,sans-Serif" font-size="10" text-anchor="middle">/access.hpp</text></a></g></g><g id="edge14" class="edge"><title>Node2-&gt;Node5</title><path fill="none" stroke="#191970" d="M1061.38,-123.26C1063.07,-109.06 1063.97,-81.17 1048,-67 992.99,-18.19 482.2,-15.58 307.94,-16.13"/><polygon fill="#191970" stroke="#191970" points="307.67 -12.64 297.68 -16.17 307.7 -19.64 307.67 -12.64"/></g><g id="node6" class="node"><title>Node6</title><g id="a_node6"><a><polygon fill="none" stroke="#bfbfbf" points="1090.5 -.5 1090.5 -30.5 1185.5 -30.5 1185.5 -.5 1090.5 -.5"/><text x="1098.5" y="-18.5" font-family="Helvetica,sans-Serif" font-size="10" text-anchor="start">boost/serialization</text><text x="1138" y="-7.5" font-family="Helvetica,sans-Serif" font-size="10" text-anchor="middle">/map.hpp</text></a></g></g><g id="edge15" class="edge"><title>Node2-&gt;Node6</title><path fill="none" stroke="#191970" d="M1067.54,-123.31C1075.1,-114.45 1086.88,-100.16 1096,-87 1106.62,-71.68 1117.35,-53.61 1125.31,-39.6"/><polygon fill="#191970" stroke="#191970" points="1128.5 -41.07 1130.34 -30.63 1122.39 -37.64 1128.5 -41.07"/></g><g id="node7" class="node"><title>Node7</title><g id="a_node7"><a><polygon fill="none" stroke="#bfbfbf" points="1316.5 -.5 1316.5 -30.5 1411.5 -30.5 1411.5 -.5 1316.5 -.5"/><text x="1324.5" y="-18.5" font-family="Helvetica,sans-Serif" font-size="10" text-anchor="start">boost/serialization</text><text x="1364" y="-7.5" font-family="Helvetica,sans-Serif" font-size="10" text-anchor="middle">/vector.hpp</text></a></g></g><g id="edge16" class="edge"><title>Node2-&gt;Node7</title><path fill="none" stroke="#191970" d="M1104.91,-132.25C1155.87,-130.66 1239.95,-122.25 1302,-87 1322.02,-75.63 1338.83,-55.34 1349.87,-39.43"/><polygon fill="#191970" stroke="#191970" points="1353.07 -40.94 1355.68 -30.68 1347.23 -37.07 1353.07 -40.94"/></g><g id="node8" class="node"><title>Node8</title><g id="a_node8"><a><polygon fill="none" stroke="#bfbfbf" points="1203.5 -.5 1203.5 -30.5 1298.5 -30.5 1298.5 -.5 1203.5 -.5"/><text x="1211.5" y="-18.5" font-family="Helvetica,sans-Serif" font-size="10" text-anchor="start">boost/serialization</text><text x="1251" y="-7.5" font-family="Helvetica,sans-Serif" font-size="10" text-anchor="middle">/shared_ptr.hpp</text></a></g></g><g id="edge17" class="edge"><title>Node2-&gt;Node8</title><path fill="none" stroke="#191970" d="M1074.36,-123.32C1104.91,-104.84 1177,-61.25 1219.03,-35.83"/><polygon fill="#191970" stroke="#191970" points="1221.03 -38.71 1227.77 -30.55 1217.41 -32.72 1221.03 -38.71"/></g><g id="node9" class="node"><title>Node9</title><g id="a_node9"><a target="_top" xlink:href="Transform_8hpp.html"><polygon fill="none" stroke="#000" points="104.5 -67.5 104.5 -86.5 183.5 -86.5 183.5 -67.5 104.5 -67.5"/><text x="144" y="-74.5" font-family="Helvetica,sans-Serif" font-size="10" text-anchor="middle">Transform.hpp</text></a></g></g><g id="edge8" class="edge"><title>Node2-&gt;Node9</title><path fill="none" stroke="#191970" d="M1015.38,-129.7C894.95,-123.43 553.14,-105.31 269,-87 244.24,-85.4 216.74,-83.44 193.84,-81.76"/><polygon fill="#191970" stroke="#191970" points="193.91 -78.26 183.68 -81.01 193.39 -85.24 193.91 -78.26"/></g><g id="node11" class="node"><title>Node11</title><g id="a_node11"><a><polygon fill="none" stroke="#bfbfbf" points="807.5 -67.5 807.5 -86.5 848.5 -86.5 848.5 -67.5 807.5 -67.5"/><text x="828" y="-74.5" font-family="Helvetica,sans-Serif" font-size="10" text-anchor="middle">string</text></a></g></g><g id="edge10" class="edge"><title>Node2-&gt;Node11</title><path fill="none" stroke="#191970" d="M1016.58,-123.46C977.49,-115.53 918.26,-102.92 858.51,-87.25"/><polygon fill="#191970" stroke="#191970" points="859.1 -83.78 848.53 -84.6 857.3 -90.55 859.1 -83.78"/></g><g id="node12" class="node"><title>Node12</title><g id="a_node12"><a><polygon fill="none" stroke="#bfbfbf" points="995 -67.5 995 -86.5 1039 -86.5 1039 -67.5 995 -67.5"/><text x="1017" y="-74.5" font-family="Helvetica,sans-Serif" font-size="10" text-anchor="middle">vector</text></a></g></g><g id="edge11" class="edge"><title>Node2-&gt;Node12</title><path fill="none" stroke="#191970" d="M1052.9,-123.08C1046.76,-115.38 1037.73,-104.03 1030.26,-94.65"/><polygon fill="#191970" stroke="#191970" points="1032.94 -92.39 1023.97 -86.75 1027.46 -96.75 1032.94 -92.39"/></g><g id="node13" class="node"><title>Node13</title><g id="a_node13"><a><polygon fill="none" stroke="#bfbfbf" points="941.5 -67.5 941.5 -86.5 976.5 -86.5 976.5 -67.5 941.5 -67.5"/><text x="959" y="-74.5" font-family="Helvetica,sans-Serif" font-size="10" text-anchor="middle">map</text></a></g></g><g id="edge13" class="edge"><title>Node2-&gt;Node13</title><path fill="none" stroke="#191970" d="M1043.77,-123.32C1027.65,-114.7 1002.7,-101.36 984.04,-91.39"/><polygon fill="#191970" stroke="#191970" points="985.66 -88.28 975.19 -86.65 982.36 -94.46 985.66 -88.28"/></g><g id="edge3" class="edge"><title>Node3-&gt;Node4</title><path fill="none" stroke="#191970" d="M1212.38,-67.46C1177.61,-59.37 1125.32,-46.23 1081,-31 1079.13,-30.36 1077.23,-29.66 1075.31,-28.93"/><polygon fill="#191970" stroke="#191970" points="1076.46 -25.62 1065.87 -25.12 1073.83 -32.11 1076.46 -25.62"/></g><g id="edge4" class="edge"><title>Node3-&gt;Node5</title><path fill="none" stroke="#191970" d="M1208.95,-73.5C1050.6,-64.09 490.11,-30.77 307.78,-19.93"/><polygon fill="#191970" stroke="#191970" points="307.78 -16.43 297.59 -19.33 307.37 -23.42 307.78 -16.43"/></g><g id="edge5" class="edge"><title>Node3-&gt;Node6</title><path fill="none" stroke="#191970" d="M1234.81,-67.48C1218.93,-59.12 1194.2,-46.09 1173.7,-35.3"/><polygon fill="#191970" stroke="#191970" points="1175.11 -32.09 1164.63 -30.52 1171.85 -38.28 1175.11 -32.09"/></g><g id="edge6" class="edge"><title>Node3-&gt;Node7</title><path fill="none" stroke="#191970" d="M1267.19,-67.48C1283.07,-59.12 1307.8,-46.09 1328.3,-35.3"/><polygon fill="#191970" stroke="#191970" points="1330.15 -38.28 1337.37 -30.52 1326.89 -32.09 1330.15 -38.28"/></g><g id="edge7" class="edge"><title>Node3-&gt;Node8</title><path fill="none" stroke="#191970" d="M1251,-67.48C1251,-60.47 1251,-50.19 1251,-40.7"/><polygon fill="#191970" stroke="#191970" points="1254.5 -40.52 1251 -30.52 1247.5 -40.52 1254.5 -40.52"/></g><g id="node10" class="node"><title>Node10</title><g id="a_node10"><a target="_top" xlink:href="Point_8hpp.html"><polygon fill="none" stroke="#000" points="9.5 -6 9.5 -25 66.5 -25 66.5 -6 9.5 -6"/><text x="38" y="-13" font-family="Helvetica,sans-Serif" font-size="10" text-anchor="middle">Point.hpp</text></a></g></g><g id="edge9" class="edge"><title>Node9-&gt;Node10</title><path fill="none" stroke="#191970" d="M128.81,-67.48C111.34,-57.67 82.42,-41.43 61.92,-29.92"/><polygon fill="#191970" stroke="#191970" points="63.59 -26.85 53.16 -25.01 60.17 -32.96 63.59 -26.85"/></g><g id="edge19" class="edge"><title>Node14-&gt;Node15</title><path fill="none" stroke="#191970" d="M310.95,-403.32C299.54,-395.11 282.17,-382.6 268.57,-372.81"/><polygon fill="#191970" stroke="#191970" points="270.43 -369.84 260.27 -366.83 266.34 -375.52 270.43 -369.84"/></g><g id="edge56" class="edge"><title>Node15-&gt;Node5</title><path fill="none" stroke="#191970" d="M243.14,-347.47C233.32,-329.39 212,-285.59 212,-246 212,-246 212,-246 212,-132 212,-98.72 226.41,-62.62 237.49,-39.8"/><polygon fill="#191970" stroke="#191970" points="240.75 -41.1 242.13 -30.59 234.5 -37.95 240.75 -41.1"/></g><g id="edge55" class="edge"><title>Node15-&gt;Node9</title><path fill="none" stroke="#191970" d="M235.32,-347.35C224.14,-339.15 208.09,-325.89 198,-311 180.72,-285.51 174,-276.8 174,-246 174,-246 174,-246 174,-188 174,-154.64 161,-117.53 152.11,-96.07"/><polygon fill="#191970" stroke="#191970" points="155.22 -94.42 148.05 -86.62 148.79 -97.19 155.22 -94.42"/></g><g id="edge41" class="edge"><title>Node15-&gt;Node10</title><path fill="none" stroke="#191970" d="M230.86,-347.36C216.44,-339.43 196,-326.58 182,-311 103.13,-223.24 57.56,-84.48 43.08,-34.88"/><polygon fill="#191970" stroke="#191970" points="46.44 -33.87 40.33 -25.21 39.71 -35.79 46.44 -33.87"/></g><g id="node16" class="node"><title>Node16</title><g id="a_node16"><a target="_top" xlink:href="Sprite_8hpp.html"><polygon fill="none" stroke="#000" points="601 -235.5 601 -254.5 661 -254.5 661 -235.5 601 -235.5"/><text x="631" y="-242.5" font-family="Helvetica,sans-Serif" font-size="10" text-anchor="middle">Sprite.hpp</text></a></g></g><g id="edge20" class="edge"><title>Node15-&gt;Node16</title><path fill="none" stroke="#191970" d="M277.73,-347.46C346.11,-327.82 514.53,-279.45 591.49,-257.35"/><polygon fill="#191970" stroke="#191970" points="592.64 -260.66 601.28 -254.53 590.71 -253.93 592.64 -260.66"/></g><g id="node26" class="node"><title>Node26</title><g id="a_node26"><a target="_top" xlink:href="Timer_8hpp.html"><polygon fill="none" stroke="#000" points="240.5 -291.5 240.5 -310.5 327.5 -310.5 327.5 -291.5 240.5 -291.5"/><text x="284" y="-298.5" font-family="Helvetica,sans-Serif" font-size="10" text-anchor="middle">Timer/Timer.hpp</text></a></g></g><g id="edge42" class="edge"><title>Node15-&gt;Node26</title><path fill="none" stroke="#191970" d="M253.94,-347.08C258.98,-339.53 266.34,-328.49 272.51,-319.23"/><polygon fill="#191970" stroke="#191970" points="275.53 -321.01 278.17 -310.75 269.71 -317.13 275.53 -321.01"/></g><g id="node28" class="node"><title>Node28</title><g id="a_node28"><a target="_top" xlink:href="Window_8hpp.html"><polygon fill="none" stroke="#000" points="767.5 -291.5 767.5 -310.5 870.5 -310.5 870.5 -291.5 767.5 -291.5"/><text x="819" y="-298.5" font-family="Helvetica,sans-Serif" font-size="10" text-anchor="middle">Render/Window.hpp</text></a></g></g><g id="edge44" class="edge"><title>Node15-&gt;Node28</title><path fill="none" stroke="#191970" d="M316.59,-349.51C428.83,-338.9 649.98,-317.98 757.46,-307.82"/><polygon fill="#191970" stroke="#191970" points="757.87 -311.3 767.5 -306.87 757.21 -304.33 757.87 -311.3"/></g><g id="edge21" class="edge"><title>Node16-&gt;Node3</title><path fill="none" stroke="#191970" d="M661.16,-236.64C664.13,-236.03 667.12,-235.47 670,-235 832.18,-208.47 882.69,-252.71 1038,-199 1097.31,-178.49 1102.15,-153.49 1157,-123 1178.28,-111.17 1203.15,-99.35 1221.97,-90.79"/><polygon fill="#191970" stroke="#191970" points="1223.52 -93.93 1231.21 -86.63 1220.65 -87.54 1223.52 -93.93"/></g><g id="edge40" class="edge"><title>Node16-&gt;Node5</title><path fill="none" stroke="#191970" d="M600.77,-239.84C531.26,-228.65 359.12,-191.33 269,-87 257.93,-74.19 253.24,-55.55 251.29,-40.66"/><polygon fill="#191970" stroke="#191970" points="254.76 -40.22 250.29 -30.61 247.79 -40.9 254.76 -40.22"/></g><g id="edge35" class="edge"><title>Node16-&gt;Node9</title><path fill="none" stroke="#191970" d="M600.77,-242.57C525.56,-238.63 331.93,-226.09 274,-199 260.29,-192.59 191.13,-124.82 159.65,-93.6"/><polygon fill="#191970" stroke="#191970" points="162.07 -91.07 152.51 -86.51 157.14 -96.04 162.07 -91.07"/></g><g id="edge23" class="edge"><title>Node16-&gt;Node11</title><path fill="none" stroke="#191970" d="M636.25,-235.3C644.47,-222.12 661.39,-196.75 680,-179 718.76,-142.03 772.33,-109.1 803.26,-91.5"/><polygon fill="#191970" stroke="#191970" points="805.08 -94.49 812.09 -86.54 801.66 -88.39 805.08 -94.49"/></g><g id="node17" class="node"><title>Node17</title><g id="a_node17"><a target="_top" xlink:href="Color_8hpp.html"><polygon fill="none" stroke="#000" points="866.5 -67.5 866.5 -86.5 923.5 -86.5 923.5 -67.5 866.5 -67.5"/><text x="895" y="-74.5" font-family="Helvetica,sans-Serif" font-size="10" text-anchor="middle">Color.hpp</text></a></g></g><g id="edge22" class="edge"><title>Node16-&gt;Node17</title><path fill="none" stroke="#191970" d="M661.22,-236.98C664.19,-236.3 667.15,-235.63 670,-235 744.54,-218.41 778.19,-246.47 838,-199 870.79,-172.98 885.66,-123.62 891.59,-96.68"/><polygon fill="#191970" stroke="#191970" points="895.07 -97.14 893.61 -86.64 888.21 -95.75 895.07 -97.14"/></g><g id="node18" class="node"><title>Node18</title><g id="a_node18"><a target="_top" xlink:href="GraphicsFacade_8hpp.html"><polygon fill="none" stroke="#000" points="552.5 -123.5 552.5 -142.5 693.5 -142.5 693.5 -123.5 552.5 -123.5"/><text x="623" y="-130.5" font-family="Helvetica,sans-Serif" font-size="10" text-anchor="middle">Facade/GraphicsFacade.hpp</text></a></g></g><g id="edge24" class="edge"><title>Node16-&gt;Node18</title><path fill="none" stroke="#191970" d="M630.37,-235.37C629.08,-217.62 626.1,-176.67 624.35,-152.6"/><polygon fill="#191970" stroke="#191970" points="627.84 -152.31 623.62 -142.59 620.86 -152.82 627.84 -152.31"/></g><g id="node24" class="node"><title>Node24</title><g id="a_node24"><a target="_top" xlink:href="TextureManager_8hpp.html"><polygon fill="none" stroke="#000" points="689 -179.5 689 -198.5 829 -198.5 829 -179.5 689 -179.5"/><text x="759" y="-186.5" font-family="Helvetica,sans-Serif" font-size="10" text-anchor="middle">Texture/TextureManager.hpp</text></a></g></g><g id="edge36" class="edge"><title>Node16-&gt;Node24</title><path fill="none" stroke="#191970" d="M651.28,-235.44C672.35,-226.56 705.52,-212.56 729.49,-202.45"/><polygon fill="#191970" stroke="#191970" points="730.96 -205.63 738.81 -198.52 728.24 -199.18 730.96 -205.63"/></g><g id="edge30" class="edge"><title>Node18-&gt;Node4</title><path fill="none" stroke="#191970" d="M653.2,-123.47C681.09,-115.25 723.45,-101.89 759,-87 776.97,-79.47 779.62,-73.44 798,-67 871.49,-41.25 962.04,-27 1011.17,-20.63"/><polygon fill="#191970" stroke="#191970" points="1011.81 -24.08 1021.29 -19.36 1010.93 -17.14 1011.81 -24.08"/></g><g id="edge32" class="edge"><title>Node18-&gt;Node11</title><path fill="none" stroke="#191970" d="M655.48,-123.44C694.39,-113.2 759.07,-96.16 797.21,-86.11"/><polygon fill="#191970" stroke="#191970" points="798.44 -89.41 807.22 -83.47 796.66 -82.64 798.44 -89.41"/></g><g id="edge33" class="edge"><title>Node18-&gt;Node12</title><path fill="none" stroke="#191970" d="M693.58,-126.39C764.69,-120.03 877.64,-107.97 984.72,-86.74"/><polygon fill="#191970" stroke="#191970" points="985.61 -90.13 994.72 -84.73 984.23 -83.27 985.61 -90.13"/></g><g id="edge34" class="edge"><title>Node18-&gt;Node13</title><path fill="none" stroke="#191970" d="M693.62,-125.32C754.41,-118.74 844.5,-107.05 931.63,-86.69"/><polygon fill="#191970" stroke="#191970" points="932.49 -90.08 941.41 -84.36 930.87 -83.27 932.49 -90.08"/></g><g id="edge28" class="edge"><title>Node18-&gt;Node17</title><path fill="none" stroke="#191970" d="M670.63,-123.46C715.87,-115.2 786.03,-102.04 856.46,-87.04"/><polygon fill="#191970" stroke="#191970" points="857.35 -90.43 866.4 -84.91 855.88 -83.58 857.35 -90.43"/></g><g id="node19" class="node"><title>Node19</title><g id="a_node19"><a><polygon fill="none" stroke="#bfbfbf" points="679.5 -67.5 679.5 -86.5 750.5 -86.5 750.5 -67.5 679.5 -67.5"/><text x="715" y="-74.5" font-family="Helvetica,sans-Serif" font-size="10" text-anchor="middle">SDL2/SDL.h</text></a></g></g><g id="edge25" class="edge"><title>Node18-&gt;Node19</title><path fill="none" stroke="#191970" d="M637.78,-123.32C652.27,-114.82 674.57,-101.73 691.49,-91.8"/><polygon fill="#191970" stroke="#191970" points="693.4 -94.74 700.26 -86.65 689.86 -88.7 693.4 -94.74"/></g><g id="node20" class="node"><title>Node20</title><g id="a_node20"><a><polygon fill="none" stroke="#bfbfbf" points="278.5 -67.5 278.5 -86.5 381.5 -86.5 381.5 -67.5 278.5 -67.5"/><text x="330" y="-74.5" font-family="Helvetica,sans-Serif" font-size="10" text-anchor="middle">SDL2/SDL_image.h</text></a></g></g><g id="edge26" class="edge"><title>Node18-&gt;Node20</title><path fill="none" stroke="#191970" d="M576.57,-123.44C524.92,-113.92 441.49,-98.55 386.19,-88.36"/><polygon fill="#191970" stroke="#191970" points="386.68 -84.89 376.21 -86.52 385.41 -91.77 386.68 -84.89"/></g><g id="node21" class="node"><title>Node21</title><g id="a_node21"><a><polygon fill="none" stroke="#bfbfbf" points="400 -67.5 400 -86.5 454 -86.5 454 -67.5 400 -67.5"/><text x="427" y="-74.5" font-family="Helvetica,sans-Serif" font-size="10" text-anchor="middle">iostream</text></a></g></g><g id="edge27" class="edge"><title>Node18-&gt;Node21</title><path fill="none" stroke="#191970" d="M591.94,-123.44C557.21,-113.87 501,-98.39 464.01,-88.2"/><polygon fill="#191970" stroke="#191970" points="464.69 -84.75 454.12 -85.47 462.84 -91.5 464.69 -84.75"/></g><g id="node22" class="node"><title>Node22</title><g id="a_node22"><a target="_top" xlink:href="NumberUtil_8hpp.html"><polygon fill="none" stroke="#000" points="472 -67.5 472 -86.5 584 -86.5 584 -67.5 472 -67.5"/><text x="528" y="-74.5" font-family="Helvetica,sans-Serif" font-size="10" text-anchor="middle">Utility/NumberUtil.hpp</text></a></g></g><g id="edge29" class="edge"><title>Node18-&gt;Node22</title><path fill="none" stroke="#191970" d="M607.74,-123.32C592.78,-114.82 569.75,-101.73 552.27,-91.8"/><polygon fill="#191970" stroke="#191970" points="553.65 -88.55 543.23 -86.65 550.19 -94.64 553.65 -88.55"/></g><g id="node23" class="node"><title>Node23</title><g id="a_node23"><a><polygon fill="none" stroke="#bfbfbf" points="602.5 -67.5 602.5 -86.5 661.5 -86.5 661.5 -67.5 602.5 -67.5"/><text x="632" y="-74.5" font-family="Helvetica,sans-Serif" font-size="10" text-anchor="middle">functional</text></a></g></g><g id="edge31" class="edge"><title>Node18-&gt;Node23</title><path fill="none" stroke="#191970" d="M624.49,-123.08C625.68,-115.93 627.39,-105.64 628.88,-96.69"/><polygon fill="#191970" stroke="#191970" points="632.35 -97.19 630.54 -86.75 625.45 -96.04 632.35 -97.19"/></g><g id="edge37" class="edge"><title>Node24-&gt;Node11</title><path fill="none" stroke="#191970" d="M760.17,-179.4C762.26,-166.36 767.53,-141.17 779,-123 786.35,-111.37 797.46,-100.82 807.25,-92.86"/><polygon fill="#191970" stroke="#191970" points="809.61 -95.46 815.39 -86.58 805.33 -89.92 809.61 -95.46"/></g><g id="edge39" class="edge"><title>Node24-&gt;Node18</title><path fill="none" stroke="#191970" d="M737.45,-179.44C714.97,-170.52 679.51,-156.44 654.02,-146.32"/><polygon fill="#191970" stroke="#191970" points="655.03 -142.95 644.45 -142.52 652.45 -149.46 655.03 -142.95"/></g><g id="node25" class="node"><title>Node25</title><g id="a_node25"><a><polygon fill="none" stroke="#bfbfbf" points="788.5 -123.5 788.5 -142.5 827.5 -142.5 827.5 -123.5 788.5 -123.5"/><text x="808" y="-130.5" font-family="Helvetica,sans-Serif" font-size="10" text-anchor="middle">utility</text></a></g></g><g id="edge38" class="edge"><title>Node24-&gt;Node25</title><path fill="none" stroke="#191970" d="M767.09,-179.08C774.16,-171.3 784.59,-159.8 793.15,-150.37"/><polygon fill="#191970" stroke="#191970" points="795.93 -152.51 800.06 -142.75 790.75 -147.8 795.93 -152.51"/></g><g id="node27" class="node"><title>Node27</title><g id="a_node27"><a><polygon fill="none" stroke="#bfbfbf" points="261 -235.5 261 -254.5 307 -254.5 307 -235.5 261 -235.5"/><text x="284" y="-242.5" font-family="Helvetica,sans-Serif" font-size="10" text-anchor="middle">cstdint</text></a></g></g><g id="edge43" class="edge"><title>Node26-&gt;Node27</title><path fill="none" stroke="#191970" d="M284,-291.08C284,-284.01 284,-273.86 284,-264.99"/><polygon fill="#191970" stroke="#191970" points="287.5 -264.75 284 -254.75 280.5 -264.75 287.5 -264.75"/></g><g id="edge45" class="edge"><title>Node28-&gt;Node11</title><path fill="none" stroke="#191970" d="M821.17,-291.43C825.44,-274.11 834.77,-233.64 838,-199 838.83,-190.15 838.16,-187.89 838,-179 837.56,-154.1 838.63,-147.77 836,-123 835.07,-114.21 833.43,-104.55 831.88,-96.44"/><polygon fill="#191970" stroke="#191970" points="835.3 -95.69 829.89 -86.58 828.44 -97.07 835.3 -95.69"/></g><g id="edge46" class="edge"><title>Node28-&gt;Node17</title><path fill="none" stroke="#191970" d="M825.1,-291.36C840.8,-268.51 882.23,-204.06 895,-143 898.22,-127.62 897.93,-109.75 897.01,-96.64"/><polygon fill="#191970" stroke="#191970" points="900.48 -96.17 896.1 -86.53 893.51 -96.8 900.48 -96.17"/></g><g id="edge47" class="edge"><title>Node28-&gt;Node18</title><path fill="none" stroke="#191970" d="M767.49,-297.17C707.49,-292.67 613.77,-281.51 592,-255 567,-224.55 593.1,-176.38 610.36,-150.97"/><polygon fill="#191970" stroke="#191970" points="613.28 -152.9 616.21 -142.72 607.57 -148.85 613.28 -152.9"/></g><g id="edge48" class="edge"><title>Node28-&gt;Node24</title><path fill="none" stroke="#191970" d="M817.71,-291.09C815.55,-278.09 810.36,-253.45 800,-235 793.88,-224.11 784.67,-213.68 776.53,-205.61"/><polygon fill="#191970" stroke="#191970" points="778.85 -202.99 769.19 -198.65 774.04 -208.07 778.85 -202.99"/></g><g id="node29" class="node"><title>Node29</title><g id="a_node29"><a target="_top" xlink:href="Scene_8hpp.html"><polygon fill="none" stroke="#000" points="964 -235.5 964 -254.5 1026 -254.5 1026 -235.5 964 -235.5"/><text x="995" y="-242.5" font-family="Helvetica,sans-Serif" font-size="10" text-anchor="middle">Scene.hpp</text></a></g></g><g id="edge49" class="edge"><title>Node28-&gt;Node29</title><path fill="none" stroke="#191970" d="M846.89,-291.44C876.75,-282.28 924.31,-267.69 957.46,-257.52"/><polygon fill="#191970" stroke="#191970" points="958.71 -260.8 967.24 -254.52 956.66 -254.1 958.71 -260.8"/></g><g id="node31" class="node"><title>Node31</title><g id="a_node31"><a><polygon fill="none" stroke="#bfbfbf" points="679 -235.5 679 -254.5 791 -254.5 791 -235.5 679 -235.5"/><text x="735" y="-242.5" font-family="Helvetica,sans-Serif" font-size="10" text-anchor="middle">Events/EventsEnum.h</text></a></g></g><g id="edge54" class="edge"><title>Node28-&gt;Node31</title><path fill="none" stroke="#191970" d="M805.5,-291.32C792.4,-282.9 772.29,-269.97 756.89,-260.07"/><polygon fill="#191970" stroke="#191970" points="758.77 -257.12 748.46 -254.65 754.98 -263.01 758.77 -257.12"/></g><g id="edge50" class="edge"><title>Node29-&gt;Node2</title><path fill="none" stroke="#191970" d="M1005.56,-235.37C1015.21,-226.98 1029.27,-213.42 1038,-199 1046.77,-184.51 1052.59,-166.06 1056.02,-152.53"/><polygon fill="#191970" stroke="#191970" points="1059.5 -153.04 1058.36 -142.5 1052.68 -151.45 1059.5 -153.04"/></g><g id="node30" class="node"><title>Node30</title><g id="a_node30"><a target="_top" xlink:href="Camera_8hpp.html"><polygon fill="none" stroke="#000" points="961 -179.5 961 -198.5 1029 -198.5 1029 -179.5 961 -179.5"/><text x="995" y="-186.5" font-family="Helvetica,sans-Serif" font-size="10" text-anchor="middle">Camera.hpp</text></a></g></g><g id="edge51" class="edge"><title>Node29-&gt;Node30</title><path fill="none" stroke="#191970" d="M995,-235.08C995,-228.01 995,-217.86 995,-208.99"/><polygon fill="#191970" stroke="#191970" points="998.5 -208.75 995 -198.75 991.5 -208.75 998.5 -208.75"/></g><g id="edge52" class="edge"><title>Node30-&gt;Node2</title><path fill="none" stroke="#191970" d="M1005.44,-179.32C1015.15,-171.26 1029.82,-159.08 1041.5,-149.37"/><polygon fill="#191970" stroke="#191970" points="1043.91 -151.92 1049.37 -142.83 1039.44 -146.53 1043.91 -151.92"/></g><g id="edge53" class="edge"><title>Node30-&gt;Node17</title><path fill="none" stroke="#191970" d="M989.36,-179.11C980.91,-166.14 964.15,-141.53 947,-123 936.99,-112.18 924.54,-101.34 914.34,-93"/><polygon fill="#191970" stroke="#191970" points="916.39 -90.16 906.39 -86.65 912.02 -95.63 916.39 -90.16"/></g><g id="edge58" class="edge"><title>Node32-&gt;Node3</title><path fill="none" stroke="#191970" d="M220.16,-407.61C345.41,-392.64 751.35,-342.83 879,-311 950.48,-293.18 970.91,-291.32 1035,-255 1118.57,-207.64 1202.15,-127.58 1235.68,-93.79"/><polygon fill="#191970" stroke="#191970" points="1238.24 -96.18 1242.75 -86.6 1233.25 -91.28 1238.24 -96.18"/></g><g id="edge63" class="edge"><title>Node32-&gt;Node5</title><path fill="none" stroke="#191970" d="M176.06,-403.28C143.77,-361.57 13.11,-179.8 95,-67 117.09,-36.57 158.01,-24.12 192.26,-19.19"/><polygon fill="#191970" stroke="#191970" points="192.7 -22.66 202.19 -17.94 191.83 -15.72 192.7 -22.66"/></g><g id="edge62" class="edge"><title>Node32-&gt;Node9</title><path fill="none" stroke="#191970" d="M180.01,-403.49C176.99,-394.53 172.43,-379.95 170,-367 151.07,-266.13 145.8,-142.77 144.44,-96.61"/><polygon fill="#191970" stroke="#191970" points="147.94 -96.5 144.17 -86.59 140.94 -96.68 147.94 -96.5"/></g><g id="edge61" class="edge"><title>Node32-&gt;Node10</title><path fill="none" stroke="#191970" d="M145.97,-406.65C92.49,-396.6 0,-369.47 0,-302 0,-302 0,-302 0,-132 0,-95.75 17.09,-56.17 28.35,-34.03"/><polygon fill="#191970" stroke="#191970" points="31.46 -35.64 33.03 -25.16 25.27 -32.37 31.46 -35.64"/></g><g id="edge60" class="edge"><title>Node32-&gt;Node15</title><path fill="none" stroke="#191970" d="M193.44,-403.32C203.15,-395.26 217.82,-383.08 229.5,-373.37"/><polygon fill="#191970" stroke="#191970" points="231.91 -375.92 237.37 -366.83 227.44 -370.53 231.91 -375.92"/></g><g id="edge59" class="edge"><title>Node32-&gt;Node16</title><path fill="none" stroke="#191970" d="M212.02,-403.45C240.86,-394.8 286.26,-380.78 325,-367 427.61,-330.5 547.08,-281.27 601.41,-258.5"/><polygon fill="#191970" stroke="#191970" points="602.91 -261.66 610.77 -254.57 600.2 -255.21 602.91 -261.66"/></g></g></svg>