<?xml version="1.0" encoding="UTF-8" standalone="no"?>
<!DOCTYPE svg PUBLIC "-//W3C//DTD SVG 1.1//EN"
 "http://www.w3.org/Graphics/SVG/1.1/DTD/svg11.dtd">
<!-- Generated by graphviz version 2.44.0 ()
 -->
<!-- Title: includes/platformer&#45;engine/GameLevel/GameLevel.hpp Pages: 1 -->
<svg width="569pt" height="251pt"
 viewBox="0.00 0.00 569.00 251.00" xmlns="http://www.w3.org/2000/svg" xmlns:xlink="http://www.w3.org/1999/xlink">
<g id="graph0" class="graph" transform="scale(1 1) rotate(0) translate(4 247)">
<title>includes/platformer&#45;engine/GameLevel/GameLevel.hpp</title>
<!-- Node1 -->
<g id="node1" class="node">
<title>Node1</title>
<g id="a_node1"><a xlink:title=" ">
<polygon fill="#bfbfbf" stroke="black" points="125,-212.5 125,-242.5 298,-242.5 298,-212.5 125,-212.5"/>
<text text-anchor="start" x="133" y="-230.5" font-family="Helvetica,sans-Serif" font-size="10.00">includes/platformer</text>
<text text-anchor="middle" x="211.5" y="-219.5" font-family="Helvetica,sans-Serif" font-size="10.00">&#45;engine/GameLevel/GameLevel.hpp</text>
</a>
</g>
</g>
<!-- Node2 -->
<g id="node2" class="node">
<title>Node2</title>
<g id="a_node2"><a xlink:href="Engine_8hpp.html" target="_top" xlink:title=" ">
<polygon fill="none" stroke="black" points="1,-140 1,-170 132,-170 132,-140 1,-140"/>
<text text-anchor="start" x="9" y="-158" font-family="Helvetica,sans-Serif" font-size="10.00">includes/platformer</text>
<text text-anchor="middle" x="66.5" y="-147" font-family="Helvetica,sans-Serif" font-size="10.00">&#45;engine/Engine/Engine.hpp</text>
</a>
</g>
</g>
<!-- Node1&#45;&gt;Node2 -->
<g id="edge1" class="edge">
<title>Node1&#45;&gt;Node2</title>
<path fill="none" stroke="midnightblue" d="M173.51,-208.03C149.09,-196.16 117.86,-180.97 95.44,-170.07"/>
<polygon fill="midnightblue" stroke="midnightblue" points="171.98,-211.18 182.51,-212.4 175.04,-204.88 171.98,-211.18"/>
</g>
<!-- Node4 -->
<g id="node4" class="node">
<title>Node4</title>
<g id="a_node4"><a xlink:href="TMXParser_8hpp.html" target="_top" xlink:title=" ">
<polygon fill="none" stroke="black" points="131.5,-62 131.5,-92 285.5,-92 285.5,-62 131.5,-62"/>
<text text-anchor="start" x="139.5" y="-80" font-family="Helvetica,sans-Serif" font-size="10.00">includes/platformer</text>
<text text-anchor="middle" x="208.5" y="-69" font-family="Helvetica,sans-Serif" font-size="10.00">&#45;engine/Facade/TMXParser.hpp</text>
</a>
</g>
</g>
<!-- Node1&#45;&gt;Node4 -->
<g id="edge3" class="edge">
<title>Node1&#45;&gt;Node4</title>
<path fill="none" stroke="midnightblue" d="M196.16,-203.54C191.45,-195.23 186.89,-185.53 184.5,-176 179.96,-157.89 180.75,-152.29 184.5,-134 187.56,-119.08 194.77,-103.23 200.5,-92.21"/>
<polygon fill="midnightblue" stroke="midnightblue" points="193.26,-205.51 201.43,-212.26 199.25,-201.89 193.26,-205.51"/>
</g>
<!-- Node7 -->
<g id="node7" class="node">
<title>Node7</title>
<g id="a_node7"><a xlink:href="AbstractLevelParser_8hpp.html" target="_top" xlink:title=" ">
<polygon fill="none" stroke="black" points="194,-134.5 194,-175.5 321,-175.5 321,-134.5 194,-134.5"/>
<text text-anchor="start" x="202" y="-163.5" font-family="Helvetica,sans-Serif" font-size="10.00">includes/platformer</text>
<text text-anchor="start" x="202" y="-152.5" font-family="Helvetica,sans-Serif" font-size="10.00">&#45;engine/LevelParser</text>
<text text-anchor="middle" x="257.5" y="-141.5" font-family="Helvetica,sans-Serif" font-size="10.00">/AbstractLevelParser.hpp</text>
</a>
</g>
</g>
<!-- Node1&#45;&gt;Node7 -->
<g id="edge6" class="edge">
<title>Node1&#45;&gt;Node7</title>
<path fill="none" stroke="midnightblue" d="M226.38,-203.7C232.29,-194.63 239.03,-184.31 244.72,-175.59"/>
<polygon fill="midnightblue" stroke="midnightblue" points="223.34,-201.95 220.81,-212.23 229.2,-205.77 223.34,-201.95"/>
</g>
<!-- Node8 -->
<g id="node8" class="node">
<title>Node8</title>
<g id="a_node8"><a xlink:href="LevelParser_8hpp.html" target="_top" xlink:title=" ">
<polygon fill="none" stroke="black" points="303.5,-56.5 303.5,-97.5 407.5,-97.5 407.5,-56.5 303.5,-56.5"/>
<text text-anchor="start" x="311.5" y="-85.5" font-family="Helvetica,sans-Serif" font-size="10.00">includes/platformer</text>
<text text-anchor="start" x="311.5" y="-74.5" font-family="Helvetica,sans-Serif" font-size="10.00">&#45;engine/LevelParser</text>
<text text-anchor="middle" x="355.5" y="-63.5" font-family="Helvetica,sans-Serif" font-size="10.00">/LevelParser.hpp</text>
</a>
</g>
</g>
<!-- Node1&#45;&gt;Node8 -->
<g id="edge8" class="edge">
<title>Node1&#45;&gt;Node8</title>
<path fill="none" stroke="midnightblue" d="M281.13,-208.78C299.02,-201.26 316.78,-190.71 329.5,-176 348.61,-153.9 353.87,-119.25 355.2,-97.62"/>
<polygon fill="midnightblue" stroke="midnightblue" points="279.82,-205.53 271.79,-212.44 282.37,-212.05 279.82,-205.53"/>
</g>
<!-- Node3 -->
<g id="node3" class="node">
<title>Node3</title>
<g id="a_node3"><a xlink:href="Engine_8cpp.html" target="_top" xlink:title=" ">
<polygon fill="none" stroke="black" points="0,-67.5 0,-86.5 113,-86.5 113,-67.5 0,-67.5"/>
<text text-anchor="middle" x="56.5" y="-74.5" font-family="Helvetica,sans-Serif" font-size="10.00">src/Engine/Engine.cpp</text>
</a>
</g>
</g>
<!-- Node2&#45;&gt;Node3 -->
<g id="edge2" class="edge">
<title>Node2&#45;&gt;Node3</title>
<path fill="none" stroke="midnightblue" d="M63.3,-129.67C61.35,-114.9 58.99,-96.95 57.63,-86.56"/>
<polygon fill="midnightblue" stroke="midnightblue" points="59.84,-130.25 64.62,-139.7 66.78,-129.33 59.84,-130.25"/>
</g>
<!-- Node5 -->
<g id="node5" class="node">
<title>Node5</title>
<g id="a_node5"><a xlink:href="TMXParser_8cpp.html" target="_top" xlink:title=" ">
<polygon fill="none" stroke="black" points="287.5,-0.5 287.5,-19.5 423.5,-19.5 423.5,-0.5 287.5,-0.5"/>
<text text-anchor="middle" x="355.5" y="-7.5" font-family="Helvetica,sans-Serif" font-size="10.00">src/Facade/TMXParser.cpp</text>
</a>
</g>
</g>
<!-- Node4&#45;&gt;Node5 -->
<g id="edge4" class="edge">
<title>Node4&#45;&gt;Node5</title>
<path fill="none" stroke="midnightblue" d="M249.67,-57.8C278.02,-45.26 314.38,-29.18 336.26,-19.51"/>
<polygon fill="midnightblue" stroke="midnightblue" points="248.13,-54.65 240.4,-61.9 250.96,-61.05 248.13,-54.65"/>
</g>
<!-- Node6 -->
<g id="node6" class="node">
<title>Node6</title>
<g id="a_node6"><a xlink:href="LevelParser_8cpp.html" target="_top" xlink:title=" ">
<polygon fill="none" stroke="black" points="110,-0.5 110,-19.5 269,-19.5 269,-0.5 110,-0.5"/>
<text text-anchor="middle" x="189.5" y="-7.5" font-family="Helvetica,sans-Serif" font-size="10.00">src/LevelParser/LevelParser.cpp</text>
</a>
</g>
</g>
<!-- Node4&#45;&gt;Node6 -->
<g id="edge5" class="edge">
<title>Node4&#45;&gt;Node6</title>
<path fill="none" stroke="midnightblue" d="M201.51,-52.1C198.2,-40.78 194.46,-27.96 192.04,-19.69"/>
<polygon fill="midnightblue" stroke="midnightblue" points="198.21,-53.28 204.38,-61.9 204.93,-51.32 198.21,-53.28"/>
</g>
<!-- Node7&#45;&gt;Node4 -->
<g id="edge7" class="edge">
<title>Node7&#45;&gt;Node4</title>
<path fill="none" stroke="midnightblue" d="M239.43,-125.98C232.03,-114.5 223.79,-101.71 217.67,-92.23"/>
<polygon fill="midnightblue" stroke="midnightblue" points="236.52,-127.92 244.88,-134.43 242.4,-124.13 236.52,-127.92"/>
</g>
<!-- Node8&#45;&gt;Node5 -->
<g id="edge9" class="edge">
<title>Node8&#45;&gt;Node5</title>
<path fill="none" stroke="midnightblue" d="M355.5,-46.26C355.5,-36.56 355.5,-26.52 355.5,-19.65"/>
<polygon fill="midnightblue" stroke="midnightblue" points="352,-46.5 355.5,-56.5 359,-46.5 352,-46.5"/>
</g>
<!-- Node8&#45;&gt;Node6 -->
<g id="edge10" class="edge">
<title>Node8&#45;&gt;Node6</title>
<path fill="none" stroke="midnightblue" d="M296.32,-52.83C266.92,-41.32 233.16,-28.1 211.6,-19.65"/>
<polygon fill="midnightblue" stroke="midnightblue" points="295.11,-56.11 305.69,-56.5 297.66,-49.59 295.11,-56.11"/>
</g>
<!-- Node9 -->
<g id="node9" class="node">
<title>Node9</title>
<g id="a_node9"><a xlink:href="Window_8cpp.html" target="_top" xlink:title=" ">
<polygon fill="none" stroke="black" points="442,-0.5 442,-19.5 561,-19.5 561,-0.5 442,-0.5"/>
<text text-anchor="middle" x="501.5" y="-7.5" font-family="Helvetica,sans-Serif" font-size="10.00">src/Render/Window.cpp</text>
</a>
</g>
</g>
<!-- Node8&#45;&gt;Node9 -->
<g id="edge11" class="edge">
<title>Node8&#45;&gt;Node9</title>
<path fill="none" stroke="midnightblue" d="M408.56,-52.38C434.18,-40.97 463.35,-27.99 482.07,-19.65"/>
<polygon fill="midnightblue" stroke="midnightblue" points="407.02,-49.23 399.3,-56.5 409.86,-55.63 407.02,-49.23"/>
</g>
</g>
</svg>
