<svg xmlns="http://www.w3.org/2000/svg" xmlns:xlink="http://www.w3.org/1999/xlink" width="199pt" height="95pt" viewBox="0 0 199 95"><g id="graph0" class="graph" transform="scale(1 1) rotate(0) translate(4 91)"><title>includes/platformer-engine/GameLevel/GameLevel.hpp</title><g id="node1" class="node"><title>Node1</title><g id="a_node1"><a><polygon fill="#bfbfbf" stroke="#000" points="13 -56.5 13 -86.5 186 -86.5 186 -56.5 13 -56.5"/><text x="21" y="-74.5" font-family="Helvetica,sans-Serif" font-size="10" text-anchor="start">includes/platformer</text><text x="99.5" y="-63.5" font-family="Helvetica,sans-Serif" font-size="10" text-anchor="middle">-engine/GameLevel/GameLevel.hpp</text></a></g></g><g id="node2" class="node"><title>Node2</title><g id="a_node2"><a target="_top" xlink:href="Layer_8hpp.html"><polygon fill="none" stroke="#000" points="0 -.5 0 -19.5 59 -19.5 59 -.5 0 -.5"/><text x="29.5" y="-7.5" font-family="Helvetica,sans-Serif" font-size="10" text-anchor="middle">Layer.hpp</text></a></g></g><g id="edge1" class="edge"><title>Node1-&gt;Node2</title><path fill="none" stroke="#191970" d="M82.91,-56.4C72.21,-47.31 58.31,-35.49 47.37,-26.19"/><polygon fill="#191970" stroke="#191970" points="49.57 -23.47 39.69 -19.66 45.04 -28.8 49.57 -23.47"/></g><g id="node3" class="node"><title>Node3</title><g id="a_node3"><a><polygon fill="none" stroke="#bfbfbf" points="77.5 -.5 77.5 -19.5 121.5 -19.5 121.5 -.5 77.5 -.5"/><text x="99.5" y="-7.5" font-family="Helvetica,sans-Serif" font-size="10" text-anchor="middle">vector</text></a></g></g><g id="edge2" class="edge"><title>Node1-&gt;Node3</title><path fill="none" stroke="#191970" d="M99.5,-56.4C99.5,-48.47 99.5,-38.46 99.5,-29.86"/><polygon fill="#191970" stroke="#191970" points="103 -29.66 99.5 -19.66 96 -29.66 103 -29.66"/></g><g id="node4" class="node"><title>Node4</title><g id="a_node4"><a><polygon fill="none" stroke="#bfbfbf" points="140 -.5 140 -19.5 191 -19.5 191 -.5 140 -.5"/><text x="165.5" y="-7.5" font-family="Helvetica,sans-Serif" font-size="10" text-anchor="middle">memory</text></a></g></g><g id="edge3" class="edge"><title>Node1-&gt;Node4</title><path fill="none" stroke="#191970" d="M115.14,-56.4C125.13,-47.4 138.08,-35.72 148.35,-26.47"/><polygon fill="#191970" stroke="#191970" points="150.81 -28.95 155.9 -19.66 146.13 -23.75 150.81 -28.95"/></g></g></svg>