<?xml version="1.0" encoding="UTF-8" standalone="no"?>
<!DOCTYPE svg PUBLIC "-//W3C//DTD SVG 1.1//EN"
 "http://www.w3.org/Graphics/SVG/1.1/DTD/svg11.dtd">
<!-- Generated by graphviz version 2.44.0 ()
 -->
<!-- Title: includes/platformer&#45;engine/Facade/GraphicsFacade.hpp Pages: 1 -->
<svg width="799pt" height="95pt"
 viewBox="0.00 0.00 799.00 95.00" xmlns="http://www.w3.org/2000/svg" xmlns:xlink="http://www.w3.org/1999/xlink">
<g id="graph0" class="graph" transform="scale(1 1) rotate(0) translate(4 91)">
<title>includes/platformer&#45;engine/Facade/GraphicsFacade.hpp</title>
<!-- Node1 -->
<g id="node1" class="node">
<title>Node1</title>
<g id="a_node1"><a xlink:title=" ">
<polygon fill="#bfbfbf" stroke="black" points="375.5,-56.5 375.5,-86.5 551.5,-86.5 551.5,-56.5 375.5,-56.5"/>
<text text-anchor="start" x="383.5" y="-74.5" font-family="Helvetica,sans-Serif" font-size="10.00">includes/platformer</text>
<text text-anchor="middle" x="463.5" y="-63.5" font-family="Helvetica,sans-Serif" font-size="10.00">&#45;engine/Facade/GraphicsFacade.hpp</text>
</a>
</g>
</g>
<!-- Node2 -->
<g id="node2" class="node">
<title>Node2</title>
<g id="a_node2"><a xlink:title=" ">
<polygon fill="none" stroke="#bfbfbf" points="0,-0.5 0,-19.5 71,-19.5 71,-0.5 0,-0.5"/>
<text text-anchor="middle" x="35.5" y="-7.5" font-family="Helvetica,sans-Serif" font-size="10.00">SDL2/SDL.h</text>
</a>
</g>
</g>
<!-- Node1&#45;&gt;Node2 -->
<g id="edge1" class="edge">
<title>Node1&#45;&gt;Node2</title>
<path fill="none" stroke="midnightblue" d="M375.16,-60.69C299.52,-51.87 187.49,-37.82 80.96,-20.15"/>
<polygon fill="midnightblue" stroke="midnightblue" points="81.44,-16.68 71,-18.49 80.29,-23.59 81.44,-16.68"/>
</g>
<!-- Node3 -->
<g id="node3" class="node">
<title>Node3</title>
<g id="a_node3"><a xlink:title=" ">
<polygon fill="none" stroke="#bfbfbf" points="89,-0.5 89,-19.5 192,-19.5 192,-0.5 89,-0.5"/>
<text text-anchor="middle" x="140.5" y="-7.5" font-family="Helvetica,sans-Serif" font-size="10.00">SDL2/SDL_image.h</text>
</a>
</g>
</g>
<!-- Node1&#45;&gt;Node3 -->
<g id="edge2" class="edge">
<title>Node1&#45;&gt;Node3</title>
<path fill="none" stroke="midnightblue" d="M387.36,-56.47C328.84,-45.69 249.33,-31.05 196.54,-21.32"/>
<polygon fill="midnightblue" stroke="midnightblue" points="197.15,-17.88 186.68,-19.51 195.88,-24.76 197.15,-17.88"/>
</g>
<!-- Node4 -->
<g id="node4" class="node">
<title>Node4</title>
<g id="a_node4"><a xlink:title=" ">
<polygon fill="none" stroke="#bfbfbf" points="210.5,-0.5 210.5,-19.5 264.5,-19.5 264.5,-0.5 210.5,-0.5"/>
<text text-anchor="middle" x="237.5" y="-7.5" font-family="Helvetica,sans-Serif" font-size="10.00">iostream</text>
</a>
</g>
</g>
<!-- Node1&#45;&gt;Node4 -->
<g id="edge3" class="edge">
<title>Node1&#45;&gt;Node4</title>
<path fill="none" stroke="midnightblue" d="M410.23,-56.47C368.48,-45.48 311.46,-30.47 274.56,-20.76"/>
<polygon fill="midnightblue" stroke="midnightblue" points="275.28,-17.33 264.72,-18.17 273.5,-24.1 275.28,-17.33"/>
</g>
<!-- Node5 -->
<g id="node5" class="node">
<title>Node5</title>
<g id="a_node5"><a xlink:href="Color_8hpp.html" target="_top" xlink:title=" ">
<polygon fill="none" stroke="black" points="283,-0.5 283,-19.5 340,-19.5 340,-0.5 283,-0.5"/>
<text text-anchor="middle" x="311.5" y="-7.5" font-family="Helvetica,sans-Serif" font-size="10.00">Color.hpp</text>
</a>
</g>
</g>
<!-- Node1&#45;&gt;Node5 -->
<g id="edge4" class="edge">
<title>Node1&#45;&gt;Node5</title>
<path fill="none" stroke="midnightblue" d="M427.48,-56.4C401.86,-46.37 367.77,-33.03 343.19,-23.4"/>
<polygon fill="midnightblue" stroke="midnightblue" points="344.21,-20.04 333.62,-19.66 341.65,-26.56 344.21,-20.04"/>
</g>
<!-- Node6 -->
<g id="node6" class="node">
<title>Node6</title>
<g id="a_node6"><a xlink:href="NumberUtil_8hpp.html" target="_top" xlink:title=" ">
<polygon fill="none" stroke="black" points="358.5,-0.5 358.5,-19.5 470.5,-19.5 470.5,-0.5 358.5,-0.5"/>
<text text-anchor="middle" x="414.5" y="-7.5" font-family="Helvetica,sans-Serif" font-size="10.00">Utility/NumberUtil.hpp</text>
</a>
</g>
</g>
<!-- Node1&#45;&gt;Node6 -->
<g id="edge5" class="edge">
<title>Node1&#45;&gt;Node6</title>
<path fill="none" stroke="midnightblue" d="M451.89,-56.4C444.77,-47.75 435.62,-36.64 428.15,-27.58"/>
<polygon fill="midnightblue" stroke="midnightblue" points="430.69,-25.15 421.63,-19.66 425.29,-29.6 430.69,-25.15"/>
</g>
<!-- Node7 -->
<g id="node7" class="node">
<title>Node7</title>
<g id="a_node7"><a xlink:title=" ">
<polygon fill="none" stroke="#bfbfbf" points="488,-0.5 488,-19.5 539,-19.5 539,-0.5 488,-0.5"/>
<text text-anchor="middle" x="513.5" y="-7.5" font-family="Helvetica,sans-Serif" font-size="10.00">memory</text>
</a>
</g>
</g>
<!-- Node1&#45;&gt;Node7 -->
<g id="edge6" class="edge">
<title>Node1&#45;&gt;Node7</title>
<path fill="none" stroke="midnightblue" d="M475.35,-56.4C482.61,-47.75 491.95,-36.64 499.57,-27.58"/>
<polygon fill="midnightblue" stroke="midnightblue" points="502.47,-29.57 506.22,-19.66 497.11,-25.06 502.47,-29.57"/>
</g>
<!-- Node8 -->
<g id="node8" class="node">
<title>Node8</title>
<g id="a_node8"><a xlink:title=" ">
<polygon fill="none" stroke="#bfbfbf" points="557,-0.5 557,-19.5 616,-19.5 616,-0.5 557,-0.5"/>
<text text-anchor="middle" x="586.5" y="-7.5" font-family="Helvetica,sans-Serif" font-size="10.00">functional</text>
</a>
</g>
</g>
<!-- Node1&#45;&gt;Node8 -->
<g id="edge7" class="edge">
<title>Node1&#45;&gt;Node8</title>
<path fill="none" stroke="midnightblue" d="M492.65,-56.4C512.92,-46.59 539.74,-33.62 559.52,-24.05"/>
<polygon fill="midnightblue" stroke="midnightblue" points="561.12,-27.16 568.6,-19.66 558.08,-20.86 561.12,-27.16"/>
</g>
<!-- Node9 -->
<g id="node9" class="node">
<title>Node9</title>
<g id="a_node9"><a xlink:title=" ">
<polygon fill="none" stroke="#bfbfbf" points="634,-0.5 634,-19.5 675,-19.5 675,-0.5 634,-0.5"/>
<text text-anchor="middle" x="654.5" y="-7.5" font-family="Helvetica,sans-Serif" font-size="10.00">string</text>
</a>
</g>
</g>
<!-- Node1&#45;&gt;Node9 -->
<g id="edge8" class="edge">
<title>Node1&#45;&gt;Node9</title>
<path fill="none" stroke="midnightblue" d="M508.76,-56.4C544.35,-45.32 592.93,-30.18 624.02,-20.5"/>
<polygon fill="midnightblue" stroke="midnightblue" points="625.34,-23.75 633.85,-17.43 623.26,-17.07 625.34,-23.75"/>
</g>
<!-- Node10 -->
<g id="node10" class="node">
<title>Node10</title>
<g id="a_node10"><a xlink:title=" ">
<polygon fill="none" stroke="#bfbfbf" points="693.5,-0.5 693.5,-19.5 737.5,-19.5 737.5,-0.5 693.5,-0.5"/>
<text text-anchor="middle" x="715.5" y="-7.5" font-family="Helvetica,sans-Serif" font-size="10.00">vector</text>
</a>
</g>
</g>
<!-- Node1&#45;&gt;Node10 -->
<g id="edge9" class="edge">
<title>Node1&#45;&gt;Node10</title>
<path fill="none" stroke="midnightblue" d="M529.5,-56.47C571.14,-47.37 626.26,-34.88 683.28,-20.21"/>
<polygon fill="midnightblue" stroke="midnightblue" points="684.39,-23.54 693.19,-17.64 682.63,-16.76 684.39,-23.54"/>
</g>
<!-- Node11 -->
<g id="node11" class="node">
<title>Node11</title>
<g id="a_node11"><a xlink:title=" ">
<polygon fill="none" stroke="#bfbfbf" points="756,-0.5 756,-19.5 791,-19.5 791,-0.5 756,-0.5"/>
<text text-anchor="middle" x="773.5" y="-7.5" font-family="Helvetica,sans-Serif" font-size="10.00">map</text>
</a>
</g>
</g>
<!-- Node1&#45;&gt;Node11 -->
<g id="edge10" class="edge">
<title>Node1&#45;&gt;Node11</title>
<path fill="none" stroke="midnightblue" d="M551.53,-58.16C605.22,-49.85 675.3,-37.59 745.92,-19.82"/>
<polygon fill="midnightblue" stroke="midnightblue" points="747.07,-23.14 755.89,-17.28 745.34,-16.36 747.07,-23.14"/>
</g>
</g>
</svg>
