<?xml version="1.0" encoding="UTF-8" standalone="no"?>
<!DOCTYPE svg PUBLIC "-//W3C//DTD SVG 1.1//EN"
 "http://www.w3.org/Graphics/SVG/1.1/DTD/svg11.dtd">
<!-- Generated by graphviz version 2.44.0 ()
 -->
<!-- Title: src/Facade/GraphicsFacade.cpp Pages: 1 -->
<svg width="1088pt" height="263pt"
 viewBox="0.00 0.00 1088.00 263.00" xmlns="http://www.w3.org/2000/svg" xmlns:xlink="http://www.w3.org/1999/xlink">
<g id="graph0" class="graph" transform="scale(1 1) rotate(0) translate(4 259)">
<title>src/Facade/GraphicsFacade.cpp</title>
<!-- Node1 -->
<g id="node1" class="node">
<title>Node1</title>
<g id="a_node1"><a xlink:title=" ">
<polygon fill="#bfbfbf" stroke="black" points="589.5,-235.5 589.5,-254.5 747.5,-254.5 747.5,-235.5 589.5,-235.5"/>
<text text-anchor="middle" x="668.5" y="-242.5" font-family="Helvetica,sans-Serif" font-size="10.00">src/Facade/GraphicsFacade.cpp</text>
</a>
</g>
</g>
<!-- Node2 -->
<g id="node2" class="node">
<title>Node2</title>
<g id="a_node2"><a xlink:title=" ">
<polygon fill="none" stroke="#bfbfbf" points="535.5,-179.5 535.5,-198.5 621.5,-198.5 621.5,-179.5 535.5,-179.5"/>
<text text-anchor="middle" x="578.5" y="-186.5" font-family="Helvetica,sans-Serif" font-size="10.00">SDL2/SDL_ttf.h</text>
</a>
</g>
</g>
<!-- Node1&#45;&gt;Node2 -->
<g id="edge1" class="edge">
<title>Node1&#45;&gt;Node2</title>
<path fill="none" stroke="midnightblue" d="M654.04,-235.32C640,-226.9 618.45,-213.97 601.96,-204.07"/>
<polygon fill="midnightblue" stroke="midnightblue" points="603.3,-200.8 592.92,-198.65 599.7,-206.8 603.3,-200.8"/>
</g>
<!-- Node3 -->
<g id="node3" class="node">
<title>Node3</title>
<g id="a_node3"><a xlink:href="GraphicsFacade_8hpp.html" target="_top" xlink:title=" ">
<polygon fill="none" stroke="black" points="466,-123.5 466,-142.5 607,-142.5 607,-123.5 466,-123.5"/>
<text text-anchor="middle" x="536.5" y="-130.5" font-family="Helvetica,sans-Serif" font-size="10.00">Facade/GraphicsFacade.hpp</text>
</a>
</g>
</g>
<!-- Node1&#45;&gt;Node3 -->
<g id="edge2" class="edge">
<title>Node1&#45;&gt;Node3</title>
<path fill="none" stroke="midnightblue" d="M665.37,-235.33C660.08,-221.74 648.19,-195.29 630.5,-179 614.59,-164.35 593.05,-153.57 574.6,-146.24"/>
<polygon fill="midnightblue" stroke="midnightblue" points="575.59,-142.88 565,-142.62 573.12,-149.43 575.59,-142.88"/>
</g>
<!-- Node18 -->
<g id="node18" class="node">
<title>Node18</title>
<g id="a_node18"><a xlink:href="Debug_8hpp.html" target="_top" xlink:title=" ">
<polygon fill="none" stroke="black" points="656.5,-123.5 656.5,-142.5 718.5,-142.5 718.5,-123.5 656.5,-123.5"/>
<text text-anchor="middle" x="687.5" y="-130.5" font-family="Helvetica,sans-Serif" font-size="10.00">Debug.hpp</text>
</a>
</g>
</g>
<!-- Node1&#45;&gt;Node18 -->
<g id="edge17" class="edge">
<title>Node1&#45;&gt;Node18</title>
<path fill="none" stroke="midnightblue" d="M669.99,-235.37C673.06,-217.62 680.13,-176.67 684.29,-152.6"/>
<polygon fill="midnightblue" stroke="midnightblue" points="687.76,-153.04 686.02,-142.59 680.86,-151.85 687.76,-153.04"/>
</g>
<!-- Node20 -->
<g id="node20" class="node">
<title>Node20</title>
<g id="a_node20"><a xlink:href="TextureManager_8hpp.html" target="_top" xlink:title=" ">
<polygon fill="none" stroke="black" points="744.5,-179.5 744.5,-198.5 884.5,-198.5 884.5,-179.5 744.5,-179.5"/>
<text text-anchor="middle" x="814.5" y="-186.5" font-family="Helvetica,sans-Serif" font-size="10.00">Texture/TextureManager.hpp</text>
</a>
</g>
</g>
<!-- Node1&#45;&gt;Node20 -->
<g id="edge21" class="edge">
<title>Node1&#45;&gt;Node20</title>
<path fill="none" stroke="midnightblue" d="M691.63,-235.44C715.98,-226.44 754.51,-212.19 781.92,-202.05"/>
<polygon fill="midnightblue" stroke="midnightblue" points="783.31,-205.27 791.47,-198.52 780.88,-198.7 783.31,-205.27"/>
</g>
<!-- Node4 -->
<g id="node4" class="node">
<title>Node4</title>
<g id="a_node4"><a xlink:title=" ">
<polygon fill="none" stroke="#bfbfbf" points="53,-67.5 53,-86.5 124,-86.5 124,-67.5 53,-67.5"/>
<text text-anchor="middle" x="88.5" y="-74.5" font-family="Helvetica,sans-Serif" font-size="10.00">SDL2/SDL.h</text>
</a>
</g>
</g>
<!-- Node3&#45;&gt;Node4 -->
<g id="edge3" class="edge">
<title>Node3&#45;&gt;Node4</title>
<path fill="none" stroke="midnightblue" d="M465.81,-126.09C387.17,-119.07 256.15,-106.06 134.69,-87.24"/>
<polygon fill="midnightblue" stroke="midnightblue" points="134.89,-83.72 124.47,-85.63 133.81,-90.64 134.89,-83.72"/>
</g>
<!-- Node5 -->
<g id="node5" class="node">
<title>Node5</title>
<g id="a_node5"><a xlink:title=" ">
<polygon fill="none" stroke="#bfbfbf" points="142,-67.5 142,-86.5 245,-86.5 245,-67.5 142,-67.5"/>
<text text-anchor="middle" x="193.5" y="-74.5" font-family="Helvetica,sans-Serif" font-size="10.00">SDL2/SDL_image.h</text>
</a>
</g>
</g>
<!-- Node3&#45;&gt;Node5 -->
<g id="edge4" class="edge">
<title>Node3&#45;&gt;Node5</title>
<path fill="none" stroke="midnightblue" d="M482.15,-123.44C420.38,-113.72 319.77,-97.88 255.13,-87.7"/>
<polygon fill="midnightblue" stroke="midnightblue" points="255.49,-84.22 245.07,-86.12 254.41,-91.13 255.49,-84.22"/>
</g>
<!-- Node6 -->
<g id="node6" class="node">
<title>Node6</title>
<g id="a_node6"><a xlink:title=" ">
<polygon fill="none" stroke="#bfbfbf" points="263.5,-67.5 263.5,-86.5 317.5,-86.5 317.5,-67.5 263.5,-67.5"/>
<text text-anchor="middle" x="290.5" y="-74.5" font-family="Helvetica,sans-Serif" font-size="10.00">iostream</text>
</a>
</g>
</g>
<!-- Node3&#45;&gt;Node6 -->
<g id="edge5" class="edge">
<title>Node3&#45;&gt;Node6</title>
<path fill="none" stroke="midnightblue" d="M494.57,-123.45C454.19,-115.12 391.15,-101.86 327.42,-87.16"/>
<polygon fill="midnightblue" stroke="midnightblue" points="328.14,-83.73 317.6,-84.88 326.55,-90.55 328.14,-83.73"/>
</g>
<!-- Node7 -->
<g id="node7" class="node">
<title>Node7</title>
<g id="a_node7"><a xlink:href="Color_8hpp.html" target="_top" xlink:title=" ">
<polygon fill="none" stroke="black" points="674,-67.5 674,-86.5 731,-86.5 731,-67.5 674,-67.5"/>
<text text-anchor="middle" x="702.5" y="-74.5" font-family="Helvetica,sans-Serif" font-size="10.00">Color.hpp</text>
</a>
</g>
</g>
<!-- Node3&#45;&gt;Node7 -->
<g id="edge6" class="edge">
<title>Node3&#45;&gt;Node7</title>
<path fill="none" stroke="midnightblue" d="M562.8,-123.44C590.85,-114.32 635.44,-99.81 666.68,-89.65"/>
<polygon fill="midnightblue" stroke="midnightblue" points="667.89,-92.94 676.32,-86.52 665.73,-86.28 667.89,-92.94"/>
</g>
<!-- Node12 -->
<g id="node12" class="node">
<title>Node12</title>
<g id="a_node12"><a xlink:href="NumberUtil_8hpp.html" target="_top" xlink:title=" ">
<polygon fill="none" stroke="black" points="335.5,-67.5 335.5,-86.5 447.5,-86.5 447.5,-67.5 335.5,-67.5"/>
<text text-anchor="middle" x="391.5" y="-74.5" font-family="Helvetica,sans-Serif" font-size="10.00">Utility/NumberUtil.hpp</text>
</a>
</g>
</g>
<!-- Node3&#45;&gt;Node12 -->
<g id="edge11" class="edge">
<title>Node3&#45;&gt;Node12</title>
<path fill="none" stroke="midnightblue" d="M513.52,-123.44C489.34,-114.44 451.08,-100.19 423.85,-90.05"/>
<polygon fill="midnightblue" stroke="midnightblue" points="424.96,-86.73 414.37,-86.52 422.52,-93.29 424.96,-86.73"/>
</g>
<!-- Node13 -->
<g id="node13" class="node">
<title>Node13</title>
<g id="a_node13"><a xlink:title=" ">
<polygon fill="none" stroke="#bfbfbf" points="465,-67.5 465,-86.5 516,-86.5 516,-67.5 465,-67.5"/>
<text text-anchor="middle" x="490.5" y="-74.5" font-family="Helvetica,sans-Serif" font-size="10.00">memory</text>
</a>
</g>
</g>
<!-- Node3&#45;&gt;Node13 -->
<g id="edge12" class="edge">
<title>Node3&#45;&gt;Node13</title>
<path fill="none" stroke="midnightblue" d="M528.9,-123.08C522.27,-115.3 512.48,-103.8 504.44,-94.37"/>
<polygon fill="midnightblue" stroke="midnightblue" points="507.1,-92.09 497.95,-86.75 501.77,-96.63 507.1,-92.09"/>
</g>
<!-- Node14 -->
<g id="node14" class="node">
<title>Node14</title>
<g id="a_node14"><a xlink:title=" ">
<polygon fill="none" stroke="#bfbfbf" points="534,-67.5 534,-86.5 593,-86.5 593,-67.5 534,-67.5"/>
<text text-anchor="middle" x="563.5" y="-74.5" font-family="Helvetica,sans-Serif" font-size="10.00">functional</text>
</a>
</g>
</g>
<!-- Node3&#45;&gt;Node14 -->
<g id="edge13" class="edge">
<title>Node3&#45;&gt;Node14</title>
<path fill="none" stroke="midnightblue" d="M540.96,-123.08C544.65,-115.69 550.02,-104.95 554.59,-95.81"/>
<polygon fill="midnightblue" stroke="midnightblue" points="557.78,-97.26 559.12,-86.75 551.52,-94.13 557.78,-97.26"/>
</g>
<!-- Node15 -->
<g id="node15" class="node">
<title>Node15</title>
<g id="a_node15"><a xlink:title=" ">
<polygon fill="none" stroke="#bfbfbf" points="824,-67.5 824,-86.5 865,-86.5 865,-67.5 824,-67.5"/>
<text text-anchor="middle" x="844.5" y="-74.5" font-family="Helvetica,sans-Serif" font-size="10.00">string</text>
</a>
</g>
</g>
<!-- Node3&#45;&gt;Node15 -->
<g id="edge14" class="edge">
<title>Node3&#45;&gt;Node15</title>
<path fill="none" stroke="midnightblue" d="M604.96,-123.46C659.21,-116.12 737.04,-104.29 814.06,-86.83"/>
<polygon fill="midnightblue" stroke="midnightblue" points="814.98,-90.21 823.94,-84.56 813.41,-83.39 814.98,-90.21"/>
</g>
<!-- Node16 -->
<g id="node16" class="node">
<title>Node16</title>
<g id="a_node16"><a xlink:title=" ">
<polygon fill="none" stroke="#bfbfbf" points="611.5,-67.5 611.5,-86.5 655.5,-86.5 655.5,-67.5 611.5,-67.5"/>
<text text-anchor="middle" x="633.5" y="-74.5" font-family="Helvetica,sans-Serif" font-size="10.00">vector</text>
</a>
</g>
</g>
<!-- Node3&#45;&gt;Node16 -->
<g id="edge15" class="edge">
<title>Node3&#45;&gt;Node16</title>
<path fill="none" stroke="midnightblue" d="M552.08,-123.32C567.5,-114.74 591.31,-101.49 609.21,-91.52"/>
<polygon fill="midnightblue" stroke="midnightblue" points="610.92,-94.58 617.95,-86.65 607.51,-88.46 610.92,-94.58"/>
</g>
<!-- Node17 -->
<g id="node17" class="node">
<title>Node17</title>
<g id="a_node17"><a xlink:title=" ">
<polygon fill="none" stroke="#bfbfbf" points="0,-67.5 0,-86.5 35,-86.5 35,-67.5 0,-67.5"/>
<text text-anchor="middle" x="17.5" y="-74.5" font-family="Helvetica,sans-Serif" font-size="10.00">map</text>
</a>
</g>
</g>
<!-- Node3&#45;&gt;Node17 -->
<g id="edge16" class="edge">
<title>Node3&#45;&gt;Node17</title>
<path fill="none" stroke="midnightblue" d="M465.89,-130.91C371.52,-128.26 199.19,-119.29 45.35,-86.94"/>
<polygon fill="midnightblue" stroke="midnightblue" points="45.75,-83.45 35.24,-84.78 44.29,-90.29 45.75,-83.45"/>
</g>
<!-- Node8 -->
<g id="node8" class="node">
<title>Node8</title>
<g id="a_node8"><a xlink:title=" ">
<polygon fill="none" stroke="#bfbfbf" points="781,-0.5 781,-30.5 876,-30.5 876,-0.5 781,-0.5"/>
<text text-anchor="start" x="789" y="-18.5" font-family="Helvetica,sans-Serif" font-size="10.00">boost/serialization</text>
<text text-anchor="middle" x="828.5" y="-7.5" font-family="Helvetica,sans-Serif" font-size="10.00">/access.hpp</text>
</a>
</g>
</g>
<!-- Node7&#45;&gt;Node8 -->
<g id="edge7" class="edge">
<title>Node7&#45;&gt;Node8</title>
<path fill="none" stroke="midnightblue" d="M720.55,-67.48C738.49,-59 766.59,-45.74 789.61,-34.86"/>
<polygon fill="midnightblue" stroke="midnightblue" points="791.26,-37.96 798.8,-30.52 788.27,-31.63 791.26,-37.96"/>
</g>
<!-- Node9 -->
<g id="node9" class="node">
<title>Node9</title>
<g id="a_node9"><a xlink:title=" ">
<polygon fill="none" stroke="#bfbfbf" points="898,-0.5 898,-30.5 993,-30.5 993,-0.5 898,-0.5"/>
<text text-anchor="start" x="906" y="-18.5" font-family="Helvetica,sans-Serif" font-size="10.00">boost/serialization</text>
<text text-anchor="middle" x="945.5" y="-7.5" font-family="Helvetica,sans-Serif" font-size="10.00">/export.hpp</text>
</a>
</g>
</g>
<!-- Node7&#45;&gt;Node9 -->
<g id="edge8" class="edge">
<title>Node7&#45;&gt;Node9</title>
<path fill="none" stroke="midnightblue" d="M731.33,-68.94C769.79,-59.52 838.75,-42.64 888.03,-30.57"/>
<polygon fill="midnightblue" stroke="midnightblue" points="889.04,-33.93 897.92,-28.15 887.38,-27.13 889.04,-33.93"/>
</g>
<!-- Node10 -->
<g id="node10" class="node">
<title>Node10</title>
<g id="a_node10"><a xlink:title=" ">
<polygon fill="none" stroke="#bfbfbf" points="529.5,-0.5 529.5,-30.5 633.5,-30.5 633.5,-0.5 529.5,-0.5"/>
<text text-anchor="start" x="537.5" y="-18.5" font-family="Helvetica,sans-Serif" font-size="10.00">boost/archive/binary</text>
<text text-anchor="middle" x="581.5" y="-7.5" font-family="Helvetica,sans-Serif" font-size="10.00">_iarchive.hpp</text>
</a>
</g>
</g>
<!-- Node7&#45;&gt;Node10 -->
<g id="edge9" class="edge">
<title>Node7&#45;&gt;Node10</title>
<path fill="none" stroke="midnightblue" d="M685.16,-67.48C668.01,-59.04 641.2,-45.86 619.14,-35.01"/>
<polygon fill="midnightblue" stroke="midnightblue" points="620.54,-31.79 610.02,-30.52 617.45,-38.08 620.54,-31.79"/>
</g>
<!-- Node11 -->
<g id="node11" class="node">
<title>Node11</title>
<g id="a_node11"><a xlink:title=" ">
<polygon fill="none" stroke="#bfbfbf" points="651.5,-0.5 651.5,-30.5 755.5,-30.5 755.5,-0.5 651.5,-0.5"/>
<text text-anchor="start" x="659.5" y="-18.5" font-family="Helvetica,sans-Serif" font-size="10.00">boost/archive/binary</text>
<text text-anchor="middle" x="703.5" y="-7.5" font-family="Helvetica,sans-Serif" font-size="10.00">_oarchive.hpp</text>
</a>
</g>
</g>
<!-- Node7&#45;&gt;Node11 -->
<g id="edge10" class="edge">
<title>Node7&#45;&gt;Node11</title>
<path fill="none" stroke="midnightblue" d="M702.64,-67.48C702.76,-60.47 702.93,-50.19 703.09,-40.7"/>
<polygon fill="midnightblue" stroke="midnightblue" points="706.6,-40.58 703.26,-30.52 699.6,-40.46 706.6,-40.58"/>
</g>
<!-- Node18&#45;&gt;Node7 -->
<g id="edge19" class="edge">
<title>Node18&#45;&gt;Node7</title>
<path fill="none" stroke="midnightblue" d="M689.98,-123.08C691.99,-115.85 694.89,-105.41 697.39,-96.4"/>
<polygon fill="midnightblue" stroke="midnightblue" points="700.76,-97.32 700.07,-86.75 694.02,-95.45 700.76,-97.32"/>
</g>
<!-- Node18&#45;&gt;Node15 -->
<g id="edge20" class="edge">
<title>Node18&#45;&gt;Node15</title>
<path fill="none" stroke="midnightblue" d="M712.38,-123.44C739.91,-113.97 784.31,-98.7 813.94,-88.51"/>
<polygon fill="midnightblue" stroke="midnightblue" points="815.43,-91.7 823.75,-85.14 813.16,-85.08 815.43,-91.7"/>
</g>
<!-- Node19 -->
<g id="node19" class="node">
<title>Node19</title>
<g id="a_node19"><a xlink:href="Point_8hpp.html" target="_top" xlink:title=" ">
<polygon fill="none" stroke="black" points="749,-67.5 749,-86.5 806,-86.5 806,-67.5 749,-67.5"/>
<text text-anchor="middle" x="777.5" y="-74.5" font-family="Helvetica,sans-Serif" font-size="10.00">Point.hpp</text>
</a>
</g>
</g>
<!-- Node18&#45;&gt;Node19 -->
<g id="edge18" class="edge">
<title>Node18&#45;&gt;Node19</title>
<path fill="none" stroke="midnightblue" d="M701.96,-123.32C716,-114.9 737.55,-101.97 754.04,-92.07"/>
<polygon fill="midnightblue" stroke="midnightblue" points="756.3,-94.8 763.08,-86.65 752.7,-88.8 756.3,-94.8"/>
</g>
<!-- Node20&#45;&gt;Node3 -->
<g id="edge24" class="edge">
<title>Node20&#45;&gt;Node3</title>
<path fill="none" stroke="midnightblue" d="M770.45,-179.44C721.65,-169.96 642.94,-154.67 590.47,-144.48"/>
<polygon fill="midnightblue" stroke="midnightblue" points="590.83,-140.99 580.34,-142.52 589.49,-147.86 590.83,-140.99"/>
</g>
<!-- Node20&#45;&gt;Node15 -->
<g id="edge22" class="edge">
<title>Node20&#45;&gt;Node15</title>
<path fill="none" stroke="midnightblue" d="M816.85,-179.37C821.72,-161.54 832.96,-120.3 839.52,-96.27"/>
<polygon fill="midnightblue" stroke="midnightblue" points="842.9,-97.16 842.16,-86.59 836.15,-95.32 842.9,-97.16"/>
</g>
<!-- Node21 -->
<g id="node21" class="node">
<title>Node21</title>
<g id="a_node21"><a xlink:title=" ">
<polygon fill="none" stroke="#bfbfbf" points="1041,-123.5 1041,-142.5 1080,-142.5 1080,-123.5 1041,-123.5"/>
<text text-anchor="middle" x="1060.5" y="-130.5" font-family="Helvetica,sans-Serif" font-size="10.00">utility</text>
</a>
</g>
</g>
<!-- Node20&#45;&gt;Node21 -->
<g id="edge23" class="edge">
<title>Node20&#45;&gt;Node21</title>
<path fill="none" stroke="midnightblue" d="M863.33,-179.47C905.58,-171.75 968.44,-159.42 1031.32,-143.11"/>
<polygon fill="midnightblue" stroke="midnightblue" points="1032.21,-146.49 1041,-140.56 1030.44,-139.72 1032.21,-146.49"/>
</g>
<!-- Node22 -->
<g id="node22" class="node">
<title>Node22</title>
<g id="a_node22"><a xlink:href="LoadedTextureInfo_8hpp.html" target="_top" xlink:title=" ">
<polygon fill="none" stroke="black" points="872,-123.5 872,-142.5 1023,-142.5 1023,-123.5 872,-123.5"/>
<text text-anchor="middle" x="947.5" y="-130.5" font-family="Helvetica,sans-Serif" font-size="10.00">Texture/LoadedTextureInfo.hpp</text>
</a>
</g>
</g>
<!-- Node20&#45;&gt;Node22 -->
<g id="edge25" class="edge">
<title>Node20&#45;&gt;Node22</title>
<path fill="none" stroke="midnightblue" d="M835.57,-179.44C857.56,-170.52 892.23,-156.44 917.16,-146.32"/>
<polygon fill="midnightblue" stroke="midnightblue" points="918.58,-149.52 926.52,-142.52 915.94,-143.04 918.58,-149.52"/>
</g>
<!-- Node23 -->
<g id="node23" class="node">
<title>Node23</title>
<g id="a_node23"><a xlink:href="Transform_8hpp.html" target="_top" xlink:title=" ">
<polygon fill="none" stroke="black" points="736,-123.5 736,-142.5 815,-142.5 815,-123.5 736,-123.5"/>
<text text-anchor="middle" x="775.5" y="-130.5" font-family="Helvetica,sans-Serif" font-size="10.00">Transform.hpp</text>
</a>
</g>
</g>
<!-- Node20&#45;&gt;Node23 -->
<g id="edge29" class="edge">
<title>Node20&#45;&gt;Node23</title>
<path fill="none" stroke="midnightblue" d="M808.06,-179.08C802.55,-171.46 794.47,-160.26 787.74,-150.94"/>
<polygon fill="midnightblue" stroke="midnightblue" points="790.51,-148.81 781.82,-142.75 784.84,-152.91 790.51,-148.81"/>
</g>
<!-- Node22&#45;&gt;Node8 -->
<g id="edge27" class="edge">
<title>Node22&#45;&gt;Node8</title>
<path fill="none" stroke="midnightblue" d="M938.56,-123.32C919.96,-105.27 876.66,-63.25 850.26,-37.62"/>
<polygon fill="midnightblue" stroke="midnightblue" points="852.58,-35 842.97,-30.55 847.71,-40.02 852.58,-35"/>
</g>
<!-- Node22&#45;&gt;Node9 -->
<g id="edge28" class="edge">
<title>Node22&#45;&gt;Node9</title>
<path fill="none" stroke="midnightblue" d="M947.35,-123.32C947.05,-105.97 946.37,-66.46 945.92,-40.66"/>
<polygon fill="midnightblue" stroke="midnightblue" points="949.42,-40.48 945.74,-30.55 942.42,-40.6 949.42,-40.48"/>
</g>
<!-- Node22&#45;&gt;Node15 -->
<g id="edge26" class="edge">
<title>Node22&#45;&gt;Node15</title>
<path fill="none" stroke="midnightblue" d="M930.95,-123.32C914.51,-114.7 889.07,-101.36 870.03,-91.39"/>
<polygon fill="midnightblue" stroke="midnightblue" points="871.49,-88.2 861.01,-86.65 868.24,-94.4 871.49,-88.2"/>
</g>
<!-- Node23&#45;&gt;Node19 -->
<g id="edge30" class="edge">
<title>Node23&#45;&gt;Node19</title>
<path fill="none" stroke="midnightblue" d="M775.83,-123.08C776.09,-116.01 776.47,-105.86 776.8,-96.99"/>
<polygon fill="midnightblue" stroke="midnightblue" points="780.3,-96.87 777.18,-86.75 773.31,-96.61 780.3,-96.87"/>
</g>
</g>
</svg>
