<?xml version="1.0" encoding="UTF-8" standalone="no"?>
<!DOCTYPE svg PUBLIC "-//W3C//DTD SVG 1.1//EN"
 "http://www.w3.org/Graphics/SVG/1.1/DTD/svg11.dtd">
<!-- Generated by graphviz version 2.44.0 ()
 -->
<!-- Title: includes/platformer&#45;engine/Networking/INetworkManager.hpp Pages: 1 -->
<svg width="1147pt" height="329pt"
 viewBox="0.00 0.00 1147.00 329.00" xmlns="http://www.w3.org/2000/svg" xmlns:xlink="http://www.w3.org/1999/xlink">
<g id="graph0" class="graph" transform="scale(1 1) rotate(0) translate(4 325)">
<title>includes/platformer&#45;engine/Networking/INetworkManager.hpp</title>
<!-- Node1 -->
<g id="node1" class="node">
<title>Node1</title>
<g id="a_node1"><a xlink:title=" ">
<polygon fill="#bfbfbf" stroke="black" points="645,-279.5 645,-320.5 788,-320.5 788,-279.5 645,-279.5"/>
<text text-anchor="start" x="653" y="-308.5" font-family="Helvetica,sans-Serif" font-size="10.00">includes/platformer</text>
<text text-anchor="start" x="653" y="-297.5" font-family="Helvetica,sans-Serif" font-size="10.00">&#45;engine/Networking/INetwork</text>
<text text-anchor="middle" x="716.5" y="-286.5" font-family="Helvetica,sans-Serif" font-size="10.00">Manager.hpp</text>
</a>
</g>
</g>
<!-- Node2 -->
<g id="node2" class="node">
<title>Node2</title>
<g id="a_node2"><a xlink:href="NetworkingFacade_8hpp.html" target="_top" xlink:title=" ">
<polygon fill="none" stroke="black" points="563.5,-212.5 563.5,-242.5 749.5,-242.5 749.5,-212.5 563.5,-212.5"/>
<text text-anchor="start" x="571.5" y="-230.5" font-family="Helvetica,sans-Serif" font-size="10.00">includes/platformer</text>
<text text-anchor="middle" x="656.5" y="-219.5" font-family="Helvetica,sans-Serif" font-size="10.00">&#45;engine/Facade/NetworkingFacade.hpp</text>
</a>
</g>
</g>
<!-- Node1&#45;&gt;Node2 -->
<g id="edge1" class="edge">
<title>Node1&#45;&gt;Node2</title>
<path fill="none" stroke="midnightblue" d="M693.29,-271.73C684.92,-261.89 675.81,-251.19 668.75,-242.89"/>
<polygon fill="midnightblue" stroke="midnightblue" points="690.64,-274.01 699.79,-279.36 695.97,-269.48 690.64,-274.01"/>
</g>
<!-- Node4 -->
<g id="node4" class="node">
<title>Node4</title>
<g id="a_node4"><a xlink:href="ClientNetworkManager_8hpp.html" target="_top" xlink:title=" ">
<polygon fill="none" stroke="black" points="690,-134.5 690,-175.5 855,-175.5 855,-134.5 690,-134.5"/>
<text text-anchor="start" x="698" y="-163.5" font-family="Helvetica,sans-Serif" font-size="10.00">includes/platformer</text>
<text text-anchor="start" x="698" y="-152.5" font-family="Helvetica,sans-Serif" font-size="10.00">&#45;engine/Networking/ClientNetwork</text>
<text text-anchor="middle" x="772.5" y="-141.5" font-family="Helvetica,sans-Serif" font-size="10.00">Manager.hpp</text>
</a>
</g>
</g>
<!-- Node1&#45;&gt;Node4 -->
<g id="edge17" class="edge">
<title>Node1&#45;&gt;Node4</title>
<path fill="none" stroke="midnightblue" d="M741.15,-271.65C747.74,-263.02 754.22,-253.09 758.5,-243 767.77,-221.17 770.94,-193.88 772.01,-175.75"/>
<polygon fill="midnightblue" stroke="midnightblue" points="738.38,-269.5 734.86,-279.49 743.84,-273.88 738.38,-269.5"/>
</g>
<!-- Node3 -->
<g id="node3" class="node">
<title>Node3</title>
<g id="a_node3"><a xlink:href="NetworkingFacade_8cpp.html" target="_top" xlink:title=" ">
<polygon fill="none" stroke="black" points="674.5,-73 674.5,-92 842.5,-92 842.5,-73 674.5,-73"/>
<text text-anchor="middle" x="758.5" y="-80" font-family="Helvetica,sans-Serif" font-size="10.00">src/Facade/NetworkingFacade.cpp</text>
</a>
</g>
</g>
<!-- Node2&#45;&gt;Node3 -->
<g id="edge2" class="edge">
<title>Node2&#45;&gt;Node3</title>
<path fill="none" stroke="midnightblue" d="M658.31,-202.19C660.84,-182.24 666.92,-154.12 681.5,-134 695.67,-114.45 719.91,-100.4 737.41,-92.15"/>
<polygon fill="midnightblue" stroke="midnightblue" points="654.81,-202.01 657.24,-212.32 661.77,-202.75 654.81,-202.01"/>
</g>
<!-- Node2&#45;&gt;Node4 -->
<g id="edge3" class="edge">
<title>Node2&#45;&gt;Node4</title>
<path fill="none" stroke="midnightblue" d="M688.25,-207.2C704.37,-197.41 723.91,-185.53 740.12,-175.68"/>
<polygon fill="midnightblue" stroke="midnightblue" points="686.42,-204.22 679.7,-212.4 690.06,-210.2 686.42,-204.22"/>
</g>
<!-- Node13 -->
<g id="node13" class="node">
<title>Node13</title>
<g id="a_node13"><a xlink:href="ServerNetworkManager_8hpp.html" target="_top" xlink:title=" ">
<polygon fill="none" stroke="black" points="465,-134.5 465,-175.5 634,-175.5 634,-134.5 465,-134.5"/>
<text text-anchor="start" x="473" y="-163.5" font-family="Helvetica,sans-Serif" font-size="10.00">includes/platformer</text>
<text text-anchor="start" x="473" y="-152.5" font-family="Helvetica,sans-Serif" font-size="10.00">&#45;engine/Networking/ServerNetwork</text>
<text text-anchor="middle" x="549.5" y="-141.5" font-family="Helvetica,sans-Serif" font-size="10.00">Manager.hpp</text>
</a>
</g>
</g>
<!-- Node2&#45;&gt;Node13 -->
<g id="edge14" class="edge">
<title>Node2&#45;&gt;Node13</title>
<path fill="none" stroke="midnightblue" d="M626.38,-206.65C611.68,-196.97 594.04,-185.35 579.37,-175.68"/>
<polygon fill="midnightblue" stroke="midnightblue" points="624.83,-209.82 635.1,-212.4 628.68,-203.98 624.83,-209.82"/>
</g>
<!-- Node4&#45;&gt;Node3 -->
<g id="edge4" class="edge">
<title>Node4&#45;&gt;Node3</title>
<path fill="none" stroke="midnightblue" d="M766.63,-124.46C764.32,-112.79 761.83,-100.26 760.22,-92.17"/>
<polygon fill="midnightblue" stroke="midnightblue" points="763.22,-125.24 768.6,-134.36 770.09,-123.87 763.22,-125.24"/>
</g>
<!-- Node5 -->
<g id="node5" class="node">
<title>Node5</title>
<g id="a_node5"><a xlink:href="ClientNetworkManager_8cpp.html" target="_top" xlink:title=" ">
<polygon fill="none" stroke="black" points="992,-0.5 992,-30.5 1139,-30.5 1139,-0.5 992,-0.5"/>
<text text-anchor="start" x="1000" y="-18.5" font-family="Helvetica,sans-Serif" font-size="10.00">src/Networking/ClientNetwork</text>
<text text-anchor="middle" x="1065.5" y="-7.5" font-family="Helvetica,sans-Serif" font-size="10.00">Manager.cpp</text>
</a>
</g>
</g>
<!-- Node4&#45;&gt;Node5 -->
<g id="edge5" class="edge">
<title>Node4&#45;&gt;Node5</title>
<path fill="none" stroke="midnightblue" d="M823.28,-130.17C884.55,-101.42 985.56,-54.01 1035.55,-30.55"/>
<polygon fill="midnightblue" stroke="midnightblue" points="821.73,-127.03 814.17,-134.45 824.71,-133.37 821.73,-127.03"/>
</g>
<!-- Node6 -->
<g id="node6" class="node">
<title>Node6</title>
<g id="a_node6"><a xlink:href="Engine_8hpp.html" target="_top" xlink:title=" ">
<polygon fill="none" stroke="black" points="498,-67.5 498,-97.5 629,-97.5 629,-67.5 498,-67.5"/>
<text text-anchor="start" x="506" y="-85.5" font-family="Helvetica,sans-Serif" font-size="10.00">includes/platformer</text>
<text text-anchor="middle" x="563.5" y="-74.5" font-family="Helvetica,sans-Serif" font-size="10.00">&#45;engine/Engine/Engine.hpp</text>
</a>
</g>
</g>
<!-- Node4&#45;&gt;Node6 -->
<g id="edge6" class="edge">
<title>Node4&#45;&gt;Node6</title>
<path fill="none" stroke="midnightblue" d="M705.02,-131.24C672.21,-120.17 633.81,-107.22 605.29,-97.6"/>
<polygon fill="midnightblue" stroke="midnightblue" points="703.97,-134.58 714.56,-134.46 706.2,-127.94 703.97,-134.58"/>
</g>
<!-- Node6&#45;&gt;Node5 -->
<g id="edge10" class="edge">
<title>Node6&#45;&gt;Node5</title>
<path fill="none" stroke="midnightblue" d="M639.05,-70.52C647.96,-69.29 656.93,-68.1 665.5,-67 806.15,-49.02 842.15,-51.21 982.5,-31 985.54,-30.56 988.64,-30.1 991.77,-29.62"/>
<polygon fill="midnightblue" stroke="midnightblue" points="638.46,-67.07 629.03,-71.91 639.42,-74 638.46,-67.07"/>
</g>
<!-- Node7 -->
<g id="node7" class="node">
<title>Node7</title>
<g id="a_node7"><a xlink:href="GameObjectDirector_8cpp.html" target="_top" xlink:title=" ">
<polygon fill="none" stroke="black" points="169.5,-6 169.5,-25 345.5,-25 345.5,-6 169.5,-6"/>
<text text-anchor="middle" x="257.5" y="-13" font-family="Helvetica,sans-Serif" font-size="10.00">src/Director/GameObjectDirector.cpp</text>
</a>
</g>
</g>
<!-- Node6&#45;&gt;Node7 -->
<g id="edge7" class="edge">
<title>Node6&#45;&gt;Node7</title>
<path fill="none" stroke="midnightblue" d="M488.02,-65.47C427.87,-52.69 346,-35.3 297.75,-25.05"/>
<polygon fill="midnightblue" stroke="midnightblue" points="487.35,-68.9 497.86,-67.56 488.8,-62.05 487.35,-68.9"/>
</g>
<!-- Node8 -->
<g id="node8" class="node">
<title>Node8</title>
<g id="a_node8"><a xlink:href="Engine_8cpp.html" target="_top" xlink:title=" ">
<polygon fill="none" stroke="black" points="364,-6 364,-25 477,-25 477,-6 364,-6"/>
<text text-anchor="middle" x="420.5" y="-13" font-family="Helvetica,sans-Serif" font-size="10.00">src/Engine/Engine.cpp</text>
</a>
</g>
</g>
<!-- Node6&#45;&gt;Node8 -->
<g id="edge8" class="edge">
<title>Node6&#45;&gt;Node8</title>
<path fill="none" stroke="midnightblue" d="M523.09,-63.13C495.57,-50.62 460.41,-34.64 439.22,-25.01"/>
<polygon fill="midnightblue" stroke="midnightblue" points="521.92,-66.44 532.47,-67.4 524.82,-60.07 521.92,-66.44"/>
</g>
<!-- Node9 -->
<g id="node9" class="node">
<title>Node9</title>
<g id="a_node9"><a xlink:href="TMXParser_8cpp.html" target="_top" xlink:title=" ">
<polygon fill="none" stroke="black" points="495.5,-6 495.5,-25 631.5,-25 631.5,-6 495.5,-6"/>
<text text-anchor="middle" x="563.5" y="-13" font-family="Helvetica,sans-Serif" font-size="10.00">src/Facade/TMXParser.cpp</text>
</a>
</g>
</g>
<!-- Node6&#45;&gt;Node9 -->
<g id="edge9" class="edge">
<title>Node6&#45;&gt;Node9</title>
<path fill="none" stroke="midnightblue" d="M563.5,-57.25C563.5,-46.02 563.5,-33.38 563.5,-25.19"/>
<polygon fill="midnightblue" stroke="midnightblue" points="560,-57.4 563.5,-67.4 567,-57.4 560,-57.4"/>
</g>
<!-- Node10 -->
<g id="node10" class="node">
<title>Node10</title>
<g id="a_node10"><a xlink:href="ServerNetworkManager_8cpp.html" target="_top" xlink:title=" ">
<polygon fill="none" stroke="black" points="0,-0.5 0,-30.5 151,-30.5 151,-0.5 0,-0.5"/>
<text text-anchor="start" x="8" y="-18.5" font-family="Helvetica,sans-Serif" font-size="10.00">src/Networking/ServerNetwork</text>
<text text-anchor="middle" x="75.5" y="-7.5" font-family="Helvetica,sans-Serif" font-size="10.00">Manager.cpp</text>
</a>
</g>
</g>
<!-- Node6&#45;&gt;Node10 -->
<g id="edge11" class="edge">
<title>Node6&#45;&gt;Node10</title>
<path fill="none" stroke="midnightblue" d="M487.64,-73.01C406.53,-63.69 274.22,-47.82 160.5,-31 157.39,-30.54 154.22,-30.06 151.02,-29.56"/>
<polygon fill="midnightblue" stroke="midnightblue" points="487.43,-76.51 497.76,-74.17 488.23,-69.55 487.43,-76.51"/>
</g>
<!-- Node11 -->
<g id="node11" class="node">
<title>Node11</title>
<g id="a_node11"><a xlink:href="RenderSystem_8cpp.html" target="_top" xlink:title=" ">
<polygon fill="none" stroke="black" points="649.5,-6 649.5,-25 799.5,-25 799.5,-6 649.5,-6"/>
<text text-anchor="middle" x="724.5" y="-13" font-family="Helvetica,sans-Serif" font-size="10.00">src/Texture/RenderSystem.cpp</text>
</a>
</g>
</g>
<!-- Node6&#45;&gt;Node11 -->
<g id="edge12" class="edge">
<title>Node6&#45;&gt;Node11</title>
<path fill="none" stroke="midnightblue" d="M607.78,-63.62C638.95,-51.04 679.26,-34.77 703.43,-25.01"/>
<polygon fill="midnightblue" stroke="midnightblue" points="606.4,-60.41 598.43,-67.4 609.02,-66.9 606.4,-60.41"/>
</g>
<!-- Node12 -->
<g id="node12" class="node">
<title>Node12</title>
<g id="a_node12"><a xlink:href="TextureManager_8cpp.html" target="_top" xlink:title=" ">
<polygon fill="none" stroke="black" points="817.5,-6 817.5,-25 973.5,-25 973.5,-6 817.5,-6"/>
<text text-anchor="middle" x="895.5" y="-13" font-family="Helvetica,sans-Serif" font-size="10.00">src/Texture/TextureManager.cpp</text>
</a>
</g>
</g>
<!-- Node6&#45;&gt;Node12 -->
<g id="edge13" class="edge">
<title>Node6&#45;&gt;Node12</title>
<path fill="none" stroke="midnightblue" d="M638.99,-66.72C704.69,-53.86 797.64,-35.66 851.74,-25.07"/>
<polygon fill="midnightblue" stroke="midnightblue" points="638.23,-63.3 629.09,-68.66 639.58,-70.17 638.23,-63.3"/>
</g>
<!-- Node13&#45;&gt;Node6 -->
<g id="edge16" class="edge">
<title>Node13&#45;&gt;Node6</title>
<path fill="none" stroke="midnightblue" d="M555.38,-124.38C557.2,-115.21 559.12,-105.53 560.64,-97.89"/>
<polygon fill="midnightblue" stroke="midnightblue" points="551.91,-123.87 553.4,-134.36 558.78,-125.24 551.91,-123.87"/>
</g>
<!-- Node13&#45;&gt;Node10 -->
<g id="edge15" class="edge">
<title>Node13&#45;&gt;Node10</title>
<path fill="none" stroke="midnightblue" d="M472.48,-131.66C373.96,-103.08 206.23,-54.42 123.94,-30.55"/>
<polygon fill="midnightblue" stroke="midnightblue" points="471.51,-135.02 482.09,-134.45 473.46,-128.3 471.51,-135.02"/>
</g>
</g>
</svg>
