<?xml version="1.0" encoding="UTF-8" standalone="no"?>
<!DOCTYPE svg PUBLIC "-//W3C//DTD SVG 1.1//EN"
 "http://www.w3.org/Graphics/SVG/1.1/DTD/svg11.dtd">
<!-- Generated by graphviz version 2.44.0 ()
 -->
<!-- Title: src/Networking/INetworkManager.hpp Pages: 1 -->
<svg width="660pt" height="296pt"
 viewBox="0.00 0.00 660.00 296.00" xmlns="http://www.w3.org/2000/svg" xmlns:xlink="http://www.w3.org/1999/xlink">
<g id="graph0" class="graph" transform="scale(1 1) rotate(0) translate(4 292)">
<title>src/Networking/INetworkManager.hpp</title>
<!-- Node1 -->
<g id="node1" class="node">
<title>Node1</title>
<g id="a_node1"><a xlink:title=" ">
<polygon fill="#bfbfbf" stroke="black" points="283,-268.5 283,-287.5 464,-287.5 464,-268.5 283,-268.5"/>
<text text-anchor="middle" x="373.5" y="-275.5" font-family="Helvetica,sans-Serif" font-size="10.00">src/Networking/INetworkManager.hpp</text>
</a>
</g>
</g>
<!-- Node2 -->
<g id="node2" class="node">
<title>Node2</title>
<g id="a_node2"><a xlink:href="NetworkingFacade_8hpp.html" target="_top" xlink:title=" ">
<polygon fill="none" stroke="black" points="220.5,-201.5 220.5,-231.5 406.5,-231.5 406.5,-201.5 220.5,-201.5"/>
<text text-anchor="start" x="228.5" y="-219.5" font-family="Helvetica,sans-Serif" font-size="10.00">includes/platformer</text>
<text text-anchor="middle" x="313.5" y="-208.5" font-family="Helvetica,sans-Serif" font-size="10.00">&#45;engine/Facade/NetworkingFacade.hpp</text>
</a>
</g>
</g>
<!-- Node1&#45;&gt;Node2 -->
<g id="edge1" class="edge">
<title>Node1&#45;&gt;Node2</title>
<path fill="none" stroke="midnightblue" d="M357.74,-261.37C348.4,-252.11 336.68,-240.48 327.64,-231.52"/>
<polygon fill="midnightblue" stroke="midnightblue" points="355.34,-263.92 364.9,-268.48 360.27,-258.95 355.34,-263.92"/>
</g>
<!-- Node4 -->
<g id="node4" class="node">
<title>Node4</title>
<g id="a_node4"><a xlink:href="ClientNetworkManager_8hpp.html" target="_top" xlink:title=" ">
<polygon fill="none" stroke="black" points="347,-123.5 347,-164.5 512,-164.5 512,-123.5 347,-123.5"/>
<text text-anchor="start" x="355" y="-152.5" font-family="Helvetica,sans-Serif" font-size="10.00">includes/platformer</text>
<text text-anchor="start" x="355" y="-141.5" font-family="Helvetica,sans-Serif" font-size="10.00">&#45;engine/Networking/ClientNetwork</text>
<text text-anchor="middle" x="429.5" y="-130.5" font-family="Helvetica,sans-Serif" font-size="10.00">Manager.hpp</text>
</a>
</g>
</g>
<!-- Node1&#45;&gt;Node4 -->
<g id="edge12" class="edge">
<title>Node1&#45;&gt;Node4</title>
<path fill="none" stroke="midnightblue" d="M392.4,-261.48C400.8,-253.54 410.02,-243.2 415.5,-232 425.99,-210.56 428.9,-182.95 429.56,-164.64"/>
<polygon fill="midnightblue" stroke="midnightblue" points="389.88,-259.04 384.74,-268.3 394.54,-264.26 389.88,-259.04"/>
</g>
<!-- Node3 -->
<g id="node3" class="node">
<title>Node3</title>
<g id="a_node3"><a xlink:href="NetworkingFacade_8cpp.html" target="_top" xlink:title=" ">
<polygon fill="none" stroke="black" points="318.5,-62 318.5,-81 486.5,-81 486.5,-62 318.5,-62"/>
<text text-anchor="middle" x="402.5" y="-69" font-family="Helvetica,sans-Serif" font-size="10.00">src/Facade/NetworkingFacade.cpp</text>
</a>
</g>
</g>
<!-- Node2&#45;&gt;Node3 -->
<g id="edge2" class="edge">
<title>Node2&#45;&gt;Node3</title>
<path fill="none" stroke="midnightblue" d="M315.48,-191.15C318.05,-171.41 323.96,-143.58 337.5,-123 349.76,-104.38 371.21,-89.7 386.1,-81.07"/>
<polygon fill="midnightblue" stroke="midnightblue" points="311.99,-190.87 314.36,-201.19 318.94,-191.64 311.99,-190.87"/>
</g>
<!-- Node2&#45;&gt;Node4 -->
<g id="edge3" class="edge">
<title>Node2&#45;&gt;Node4</title>
<path fill="none" stroke="midnightblue" d="M345.25,-196.2C361.37,-186.41 380.91,-174.53 397.12,-164.68"/>
<polygon fill="midnightblue" stroke="midnightblue" points="343.42,-193.22 336.7,-201.4 347.06,-199.2 343.42,-193.22"/>
</g>
<!-- Node9 -->
<g id="node9" class="node">
<title>Node9</title>
<g id="a_node9"><a xlink:href="ServerNetworkManager_8hpp.html" target="_top" xlink:title=" ">
<polygon fill="none" stroke="black" points="122,-123.5 122,-164.5 291,-164.5 291,-123.5 122,-123.5"/>
<text text-anchor="start" x="130" y="-152.5" font-family="Helvetica,sans-Serif" font-size="10.00">includes/platformer</text>
<text text-anchor="start" x="130" y="-141.5" font-family="Helvetica,sans-Serif" font-size="10.00">&#45;engine/Networking/ServerNetwork</text>
<text text-anchor="middle" x="206.5" y="-130.5" font-family="Helvetica,sans-Serif" font-size="10.00">Manager.hpp</text>
</a>
</g>
</g>
<!-- Node2&#45;&gt;Node9 -->
<g id="edge9" class="edge">
<title>Node2&#45;&gt;Node9</title>
<path fill="none" stroke="midnightblue" d="M283.38,-195.65C268.68,-185.97 251.04,-174.35 236.37,-164.68"/>
<polygon fill="midnightblue" stroke="midnightblue" points="281.83,-198.82 292.1,-201.4 285.68,-192.98 281.83,-198.82"/>
</g>
<!-- Node4&#45;&gt;Node3 -->
<g id="edge4" class="edge">
<title>Node4&#45;&gt;Node3</title>
<path fill="none" stroke="midnightblue" d="M418.32,-113.81C413.81,-102.04 408.95,-89.34 405.82,-81.17"/>
<polygon fill="midnightblue" stroke="midnightblue" points="415.13,-115.28 421.98,-123.36 421.67,-112.77 415.13,-115.28"/>
</g>
<!-- Node5 -->
<g id="node5" class="node">
<title>Node5</title>
<g id="a_node5"><a xlink:href="ClientNetworkManager_8cpp.html" target="_top" xlink:title=" ">
<polygon fill="none" stroke="black" points="505,-56.5 505,-86.5 652,-86.5 652,-56.5 505,-56.5"/>
<text text-anchor="start" x="513" y="-74.5" font-family="Helvetica,sans-Serif" font-size="10.00">src/Networking/ClientNetwork</text>
<text text-anchor="middle" x="578.5" y="-63.5" font-family="Helvetica,sans-Serif" font-size="10.00">Manager.cpp</text>
</a>
</g>
</g>
<!-- Node4&#45;&gt;Node5 -->
<g id="edge5" class="edge">
<title>Node4&#45;&gt;Node5</title>
<path fill="none" stroke="midnightblue" d="M480.19,-119.02C502.93,-108.25 528.98,-95.93 548.55,-86.67"/>
<polygon fill="midnightblue" stroke="midnightblue" points="478.55,-115.92 471,-123.36 481.54,-122.25 478.55,-115.92"/>
</g>
<!-- Node6 -->
<g id="node6" class="node">
<title>Node6</title>
<g id="a_node6"><a xlink:href="Engine_8hpp.html" target="_top" xlink:title=" ">
<polygon fill="none" stroke="black" points="169,-56.5 169,-86.5 300,-86.5 300,-56.5 169,-56.5"/>
<text text-anchor="start" x="177" y="-74.5" font-family="Helvetica,sans-Serif" font-size="10.00">includes/platformer</text>
<text text-anchor="middle" x="234.5" y="-63.5" font-family="Helvetica,sans-Serif" font-size="10.00">&#45;engine/Engine/Engine.hpp</text>
</a>
</g>
</g>
<!-- Node4&#45;&gt;Node6 -->
<g id="edge6" class="edge">
<title>Node4&#45;&gt;Node6</title>
<path fill="none" stroke="midnightblue" d="M365.75,-119.95C335.31,-108.95 299.87,-96.13 273.49,-86.6"/>
<polygon fill="midnightblue" stroke="midnightblue" points="364.85,-123.35 375.44,-123.46 367.23,-116.76 364.85,-123.35"/>
</g>
<!-- Node7 -->
<g id="node7" class="node">
<title>Node7</title>
<g id="a_node7"><a xlink:href="Engine_8cpp.html" target="_top" xlink:title=" ">
<polygon fill="none" stroke="black" points="103,-0.5 103,-19.5 216,-19.5 216,-0.5 103,-0.5"/>
<text text-anchor="middle" x="159.5" y="-7.5" font-family="Helvetica,sans-Serif" font-size="10.00">src/Engine/Engine.cpp</text>
</a>
</g>
</g>
<!-- Node6&#45;&gt;Node7 -->
<g id="edge7" class="edge">
<title>Node6&#45;&gt;Node7</title>
<path fill="none" stroke="midnightblue" d="M208.53,-49.89C195.48,-39.54 180.37,-27.56 170.41,-19.66"/>
<polygon fill="midnightblue" stroke="midnightblue" points="206.72,-52.93 216.73,-56.4 211.07,-47.44 206.72,-52.93"/>
</g>
<!-- Node8 -->
<g id="node8" class="node">
<title>Node8</title>
<g id="a_node8"><a xlink:href="RenderSystem_8cpp.html" target="_top" xlink:title=" ">
<polygon fill="none" stroke="black" points="234.5,-0.5 234.5,-19.5 384.5,-19.5 384.5,-0.5 234.5,-0.5"/>
<text text-anchor="middle" x="309.5" y="-7.5" font-family="Helvetica,sans-Serif" font-size="10.00">src/Texture/RenderSystem.cpp</text>
</a>
</g>
</g>
<!-- Node6&#45;&gt;Node8 -->
<g id="edge8" class="edge">
<title>Node6&#45;&gt;Node8</title>
<path fill="none" stroke="midnightblue" d="M260.47,-49.89C273.52,-39.54 288.63,-27.56 298.59,-19.66"/>
<polygon fill="midnightblue" stroke="midnightblue" points="257.93,-47.44 252.27,-56.4 262.28,-52.93 257.93,-47.44"/>
</g>
<!-- Node9&#45;&gt;Node6 -->
<g id="edge11" class="edge">
<title>Node9&#45;&gt;Node6</title>
<path fill="none" stroke="midnightblue" d="M218.03,-113.97C221.74,-104.63 225.68,-94.7 228.78,-86.89"/>
<polygon fill="midnightblue" stroke="midnightblue" points="214.74,-112.78 214.3,-123.36 221.24,-115.36 214.74,-112.78"/>
</g>
<!-- Node10 -->
<g id="node10" class="node">
<title>Node10</title>
<g id="a_node10"><a xlink:href="ServerNetworkManager_8cpp.html" target="_top" xlink:title=" ">
<polygon fill="none" stroke="black" points="0,-56.5 0,-86.5 151,-86.5 151,-56.5 0,-56.5"/>
<text text-anchor="start" x="8" y="-74.5" font-family="Helvetica,sans-Serif" font-size="10.00">src/Networking/ServerNetwork</text>
<text text-anchor="middle" x="75.5" y="-63.5" font-family="Helvetica,sans-Serif" font-size="10.00">Manager.cpp</text>
</a>
</g>
</g>
<!-- Node9&#45;&gt;Node10 -->
<g id="edge10" class="edge">
<title>Node9&#45;&gt;Node10</title>
<path fill="none" stroke="midnightblue" d="M161.13,-118.58C141.33,-107.93 118.81,-95.81 101.83,-86.67"/>
<polygon fill="midnightblue" stroke="midnightblue" points="159.54,-121.7 170.01,-123.36 162.86,-115.54 159.54,-121.7"/>
</g>
</g>
</svg>
