<?xml version="1.0" encoding="UTF-8" standalone="no"?>
<!DOCTYPE svg PUBLIC "-//W3C//DTD SVG 1.1//EN"
 "http://www.w3.org/Graphics/SVG/1.1/DTD/svg11.dtd">
<!-- Generated by graphviz version 2.44.0 ()
 -->
<!-- Title: Graphical Class Hierarchy Pages: 1 -->
<svg width="291pt" height="192pt"
 viewBox="0.00 0.00 291.00 192.00" xmlns="http://www.w3.org/2000/svg" xmlns:xlink="http://www.w3.org/1999/xlink">
<g id="graph0" class="graph" transform="scale(1 1) rotate(0) translate(4 188)">
<title>Graphical Class Hierarchy</title>
<!-- Node28 -->
<g id="node1" class="node">
<title>Node28</title>
<g id="a_node1"><a xlink:title=" ">
<polygon fill="none" stroke="#bfbfbf" points="0,-76.5 0,-95.5 80,-95.5 80,-76.5 0,-76.5"/>
<text text-anchor="middle" x="40" y="-83.5" font-family="Helvetica,sans-Serif" font-size="10.00">std::logic_error</text>
</a>
</g>
</g>
<!-- Node0 -->
<g id="node2" class="node">
<title>Node0</title>
<g id="a_node2"><a xlink:href="classspic_1_1CameraNotInSceneException.html" target="_top" xlink:title=" ">
<polygon fill="none" stroke="black" points="116,-164.5 116,-183.5 283,-183.5 283,-164.5 116,-164.5"/>
<text text-anchor="middle" x="199.5" y="-171.5" font-family="Helvetica,sans-Serif" font-size="10.00">spic::CameraNotInSceneException</text>
</a>
</g>
</g>
<!-- Node28&#45;&gt;Node0 -->
<g id="edge1" class="edge">
<title>Node28&#45;&gt;Node0</title>
<path fill="none" stroke="midnightblue" d="M55.41,-103.7C69.29,-119.54 91.7,-142.19 116,-155 123.41,-158.91 131.61,-162.01 139.88,-164.49"/>
<polygon fill="midnightblue" stroke="midnightblue" points="57.77,-101.06 48.63,-95.7 52.43,-105.59 57.77,-101.06"/>
</g>
<!-- Node30 -->
<g id="node3" class="node">
<title>Node30</title>
<g id="a_node3"><a xlink:href="classspic_1_1GameObjectAlreadyInSceneException.html" target="_top" xlink:title=" ">
<polygon fill="none" stroke="black" points="132.5,-115 132.5,-145 266.5,-145 266.5,-115 132.5,-115"/>
<text text-anchor="start" x="140.5" y="-133" font-family="Helvetica,sans-Serif" font-size="10.00">spic::GameObjectAlreadyIn</text>
<text text-anchor="middle" x="199.5" y="-122" font-family="Helvetica,sans-Serif" font-size="10.00">SceneException</text>
</a>
</g>
</g>
<!-- Node28&#45;&gt;Node30 -->
<g id="edge2" class="edge">
<title>Node28&#45;&gt;Node30</title>
<path fill="none" stroke="midnightblue" d="M84.81,-98.24C103.33,-103.41 125.08,-109.49 144.57,-114.93"/>
<polygon fill="midnightblue" stroke="midnightblue" points="85.75,-94.87 75.18,-95.55 83.86,-101.61 85.75,-94.87"/>
</g>
<!-- Node31 -->
<g id="node4" class="node">
<title>Node31</title>
<g id="a_node4"><a xlink:href="classspic_1_1InvalidSizeException.html" target="_top" xlink:title=" ">
<polygon fill="none" stroke="black" points="135.5,-76.5 135.5,-95.5 263.5,-95.5 263.5,-76.5 135.5,-76.5"/>
<text text-anchor="middle" x="199.5" y="-83.5" font-family="Helvetica,sans-Serif" font-size="10.00">spic::InvalidSizeException</text>
</a>
</g>
</g>
<!-- Node28&#45;&gt;Node31 -->
<g id="edge3" class="edge">
<title>Node28&#45;&gt;Node31</title>
<path fill="none" stroke="midnightblue" d="M90.44,-86C104.72,-86 120.5,-86 135.49,-86"/>
<polygon fill="midnightblue" stroke="midnightblue" points="90.34,-82.5 80.34,-86 90.34,-89.5 90.34,-82.5"/>
</g>
<!-- Node32 -->
<g id="node5" class="node">
<title>Node32</title>
<g id="a_node5"><a xlink:href="classspic_1_1NoWindowException.html" target="_top" xlink:title=" ">
<polygon fill="none" stroke="black" points="135.5,-38.5 135.5,-57.5 263.5,-57.5 263.5,-38.5 135.5,-38.5"/>
<text text-anchor="middle" x="199.5" y="-45.5" font-family="Helvetica,sans-Serif" font-size="10.00">spic::NoWindowException</text>
</a>
</g>
</g>
<!-- Node28&#45;&gt;Node32 -->
<g id="edge4" class="edge">
<title>Node28&#45;&gt;Node32</title>
<path fill="none" stroke="midnightblue" d="M87.86,-73.96C97.18,-71.62 106.89,-69.2 116,-67 129,-63.86 143.18,-60.55 156.06,-57.59"/>
<polygon fill="midnightblue" stroke="midnightblue" points="86.8,-70.62 77.96,-76.47 88.52,-77.41 86.8,-70.62"/>
</g>
<!-- Node33 -->
<g id="node6" class="node">
<title>Node33</title>
<g id="a_node6"><a xlink:href="classspic_1_1NotImplementedException.html" target="_top" xlink:title=" ">
<polygon fill="none" stroke="black" points="123,-0.5 123,-19.5 276,-19.5 276,-0.5 123,-0.5"/>
<text text-anchor="middle" x="199.5" y="-7.5" font-family="Helvetica,sans-Serif" font-size="10.00">spic::NotImplementedException</text>
</a>
</g>
</g>
<!-- Node28&#45;&gt;Node33 -->
<g id="edge5" class="edge">
<title>Node28&#45;&gt;Node33</title>
<path fill="none" stroke="midnightblue" d="M58.33,-69.38C72.69,-56.51 94.21,-39.21 116,-29 124.25,-25.13 133.35,-22.03 142.39,-19.54"/>
<polygon fill="midnightblue" stroke="midnightblue" points="55.74,-67.01 50.76,-76.36 60.49,-72.16 55.74,-67.01"/>
</g>
</g>
</svg>
