<?xml version="1.0" encoding="UTF-8" standalone="no"?>
<!DOCTYPE svg PUBLIC "-//W3C//DTD SVG 1.1//EN"
 "http://www.w3.org/Graphics/SVG/1.1/DTD/svg11.dtd">
<!-- Generated by graphviz version 2.44.0 ()
 -->
<!-- Title: Graphical Class Hierarchy Pages: 1 -->
<svg width="261pt" height="88pt"
 viewBox="0.00 0.00 261.00 88.00" xmlns="http://www.w3.org/2000/svg" xmlns:xlink="http://www.w3.org/1999/xlink">
<g id="graph0" class="graph" transform="scale(1 1) rotate(0) translate(4 84)">
<title>Graphical Class Hierarchy</title>
<!-- Node0 -->
<g id="node1" class="node">
<title>Node0</title>
<g id="a_node1"><a xlink:href="classplatformer__engine_1_1NetworkManager.html" target="_top" xlink:title="NetworkManager interface.">
<polygon fill="none" stroke="black" points="0,-24.5 0,-54.5 98,-54.5 98,-24.5 0,-24.5"/>
<text text-anchor="start" x="8" y="-42.5" font-family="Helvetica,sans-Serif" font-size="10.00">platformer_engine::</text>
<text text-anchor="middle" x="49" y="-31.5" font-family="Helvetica,sans-Serif" font-size="10.00">NetworkManager</text>
</a>
</g>
</g>
<!-- Node1 -->
<g id="node2" class="node">
<title>Node1</title>
<g id="a_node2"><a xlink:href="classplatformer__engine_1_1ClientNetworkManager.html" target="_top" xlink:title="The ClientNetworkManager class, handles the client side of the network.">
<polygon fill="none" stroke="black" points="135.5,-49.5 135.5,-79.5 251.5,-79.5 251.5,-49.5 135.5,-49.5"/>
<text text-anchor="start" x="143.5" y="-67.5" font-family="Helvetica,sans-Serif" font-size="10.00">platformer_engine::</text>
<text text-anchor="middle" x="193.5" y="-56.5" font-family="Helvetica,sans-Serif" font-size="10.00">ClientNetworkManager</text>
</a>
</g>
</g>
<!-- Node0&#45;&gt;Node1 -->
<g id="edge1" class="edge">
<title>Node0&#45;&gt;Node1</title>
<path fill="none" stroke="midnightblue" d="M108.23,-49.72C117.21,-51.29 126.48,-52.92 135.44,-54.49"/>
<polygon fill="midnightblue" stroke="midnightblue" points="108.7,-46.24 98.24,-47.96 107.49,-53.14 108.7,-46.24"/>
</g>
<!-- Node2 -->
<g id="node3" class="node">
<title>Node2</title>
<g id="a_node3"><a xlink:href="classplatformer__engine_1_1ServerNetworkManager.html" target="_top" xlink:title="The ServerNetworkManager class, handles all the networking for the server.">
<polygon fill="none" stroke="black" points="134,-0.5 134,-30.5 253,-30.5 253,-0.5 134,-0.5"/>
<text text-anchor="start" x="142" y="-18.5" font-family="Helvetica,sans-Serif" font-size="10.00">platformer_engine::</text>
<text text-anchor="middle" x="193.5" y="-7.5" font-family="Helvetica,sans-Serif" font-size="10.00">ServerNetworkManager</text>
</a>
</g>
</g>
<!-- Node0&#45;&gt;Node2 -->
<g id="edge2" class="edge">
<title>Node0&#45;&gt;Node2</title>
<path fill="none" stroke="midnightblue" d="M108.38,-29.67C116.81,-28.25 125.5,-26.78 133.94,-25.36"/>
<polygon fill="midnightblue" stroke="midnightblue" points="107.52,-26.26 98.24,-31.37 108.69,-33.17 107.52,-26.26"/>
</g>
</g>
</svg>
