<svg xmlns="http://www.w3.org/2000/svg" xmlns:xlink="http://www.w3.org/1999/xlink" width="320pt" height="85pt" viewBox="0 0 320 85"><g id="graph0" class="graph" transform="scale(1 1) rotate(0) translate(4 81)"><title>Graphical Class Hierarchy</title><g id="node1" class="node"><title>Node0</title><g id="a_node1"><a target="_top" xlink:href="classspic_1_1GameObject.html" xlink:title="Any object which should be represented on screen."><polygon fill="none" stroke="#000" points="0 -38.5 0 -57.5 94 -57.5 94 -38.5 0 -38.5"/><text x="47" y="-45.5" font-family="Helvetica,sans-Serif" font-size="10" text-anchor="middle">spic::GameObject</text></a></g></g><g id="node2" class="node"><title>Node1</title><g id="a_node2"><a target="_top" xlink:href="classspic_1_1Camera.html" xlink:title="Class representing a point of view towards the game scene. @spicapi."><polygon fill="none" stroke="#000" points="132.5 -57.5 132.5 -76.5 205.5 -76.5 205.5 -57.5 132.5 -57.5"/><text x="169" y="-64.5" font-family="Helvetica,sans-Serif" font-size="10" text-anchor="middle">spic::Camera</text></a></g></g><g id="edge1" class="edge"><title>Node0-&gt;Node1</title><path fill="none" stroke="#191970" d="M104,-56.87C113.64,-58.39 123.41,-59.94 132.32,-61.35"/><polygon fill="#191970" stroke="#191970" points="104.48 -53.4 94.05 -55.29 103.38 -60.31 104.48 -53.4"/></g><g id="node3" class="node"><title>Node2</title><g id="a_node3"><a target="_top" xlink:href="classspic_1_1UIObject.html" xlink:title="Base class for a user interface object like Button or Text. @spicapi."><polygon fill="none" stroke="#000" points="130 -19.5 130 -38.5 208 -38.5 208 -19.5 130 -19.5"/><text x="169" y="-26.5" font-family="Helvetica,sans-Serif" font-size="10" text-anchor="middle">spic::UIObject</text></a></g></g><g id="edge2" class="edge"><title>Node0-&gt;Node2</title><path fill="none" stroke="#191970" d="M104.11,-39.12C112.77,-37.75 121.53,-36.36 129.67,-35.07"/><polygon fill="#191970" stroke="#191970" points="103.38 -35.69 94.05 -40.71 104.48 -42.6 103.38 -35.69"/></g><g id="node4" class="node"><title>Node3</title><g id="a_node4"><a target="_top" xlink:href="classspic_1_1Button.html" xlink:title="Instances of this class are clickable user interface items."><polygon fill="none" stroke="#000" points="244 -38.5 244 -57.5 312 -57.5 312 -38.5 244 -38.5"/><text x="278" y="-45.5" font-family="Helvetica,sans-Serif" font-size="10" text-anchor="middle">spic::Button</text></a></g></g><g id="edge3" class="edge"><title>Node2-&gt;Node3</title><path fill="none" stroke="#191970" d="M218.06,-37.53C226.72,-39.07 235.58,-40.65 243.72,-42.09"/><polygon fill="#191970" stroke="#191970" points="218.48 -34.05 208.03 -35.75 217.26 -40.95 218.48 -34.05"/></g><g id="node5" class="node"><title>Node4</title><g id="a_node5"><a target="_top" xlink:href="classspic_1_1Text.html" xlink:title="Class representing a piece of text which can be rendered. @spicapi."><polygon fill="none" stroke="#000" points="249 -.5 249 -19.5 307 -19.5 307 -.5 249 -.5"/><text x="278" y="-7.5" font-family="Helvetica,sans-Serif" font-size="10" text-anchor="middle">spic::Text</text></a></g></g><g id="edge4" class="edge"><title>Node2-&gt;Node4</title><path fill="none" stroke="#191970" d="M218,-20.48C228.55,-18.6 239.39,-16.68 248.85,-15"/><polygon fill="#191970" stroke="#191970" points="217.26 -17.05 208.03 -22.25 218.48 -23.95 217.26 -17.05"/></g></g></svg>