<?xml version="1.0" encoding="UTF-8" standalone="no"?>
<!DOCTYPE svg PUBLIC "-//W3C//DTD SVG 1.1//EN"
 "http://www.w3.org/Graphics/SVG/1.1/DTD/svg11.dtd">
<!-- Generated by graphviz version 2.44.0 ()
 -->
<!-- Title: includes/spic&#45;prj&#45;api/Input.hpp Pages: 1 -->
<svg width="474pt" height="296pt"
 viewBox="0.00 0.00 473.50 296.00" xmlns="http://www.w3.org/2000/svg" xmlns:xlink="http://www.w3.org/1999/xlink">
<g id="graph0" class="graph" transform="scale(1 1) rotate(0) translate(4 292)">
<title>includes/spic&#45;prj&#45;api/Input.hpp</title>
<!-- Node1 -->
<g id="node1" class="node">
<title>Node1</title>
<g id="a_node1"><a xlink:title=" ">
<polygon fill="#bfbfbf" stroke="black" points="217.5,-257.5 217.5,-287.5 320.5,-287.5 320.5,-257.5 217.5,-257.5"/>
<text text-anchor="start" x="225.5" y="-275.5" font-family="Helvetica,sans-Serif" font-size="10.00">includes/spic&#45;prj&#45;api</text>
<text text-anchor="middle" x="269" y="-264.5" font-family="Helvetica,sans-Serif" font-size="10.00">/Input.hpp</text>
</a>
</g>
</g>
<!-- Node2 -->
<g id="node2" class="node">
<title>Node2</title>
<g id="a_node2"><a xlink:href="Input_8cpp.html" target="_top" xlink:title=" ">
<polygon fill="none" stroke="black" points="0,-129 0,-148 92,-148 92,-129 0,-129"/>
<text text-anchor="middle" x="46" y="-136" font-family="Helvetica,sans-Serif" font-size="10.00">src/API/Input.cpp</text>
</a>
</g>
</g>
<!-- Node1&#45;&gt;Node2 -->
<g id="edge1" class="edge">
<title>Node1&#45;&gt;Node2</title>
<path fill="none" stroke="midnightblue" d="M207.07,-262.75C173.8,-255.69 133.49,-243.13 103,-221 75.89,-201.32 57.14,-164.66 49.64,-148.06"/>
<polygon fill="midnightblue" stroke="midnightblue" points="206.66,-266.24 217.15,-264.77 208.03,-259.37 206.66,-266.24"/>
</g>
<!-- Node3 -->
<g id="node3" class="node">
<title>Node3</title>
<g id="a_node3"><a xlink:href="InputFacade_8cpp.html" target="_top" xlink:title=" ">
<polygon fill="none" stroke="black" points="266,-129 266,-148 406,-148 406,-129 266,-129"/>
<text text-anchor="middle" x="336" y="-136" font-family="Helvetica,sans-Serif" font-size="10.00">src/Facade/InputFacade.cpp</text>
</a>
</g>
</g>
<!-- Node1&#45;&gt;Node3 -->
<g id="edge2" class="edge">
<title>Node1&#45;&gt;Node3</title>
<path fill="none" stroke="midnightblue" d="M280.88,-248.1C296.03,-218.25 321.49,-168.08 331.64,-148.1"/>
<polygon fill="midnightblue" stroke="midnightblue" points="277.58,-246.87 276.17,-257.37 283.82,-250.04 277.58,-246.87"/>
</g>
<!-- Node4 -->
<g id="node4" class="node">
<title>Node4</title>
<g id="a_node4"><a xlink:href="Window_8cpp.html" target="_top" xlink:title=" ">
<polygon fill="none" stroke="black" points="346.5,-62 346.5,-81 465.5,-81 465.5,-62 346.5,-62"/>
<text text-anchor="middle" x="406" y="-69" font-family="Helvetica,sans-Serif" font-size="10.00">src/Render/Window.cpp</text>
</a>
</g>
</g>
<!-- Node1&#45;&gt;Node4 -->
<g id="edge3" class="edge">
<title>Node1&#45;&gt;Node4</title>
<path fill="none" stroke="midnightblue" d="M308.67,-252.53C343.92,-233.22 393.14,-199.66 415,-154 426.68,-129.61 416.07,-96.53 409.82,-81.09"/>
<polygon fill="midnightblue" stroke="midnightblue" points="306.77,-249.57 299.58,-257.36 310.06,-255.75 306.77,-249.57"/>
</g>
<!-- Node5 -->
<g id="node5" class="node">
<title>Node5</title>
<g id="a_node5"><a xlink:href="InputFacade_8hpp.html" target="_top" xlink:title=" ">
<polygon fill="none" stroke="black" points="112,-190.5 112,-220.5 270,-220.5 270,-190.5 112,-190.5"/>
<text text-anchor="start" x="120" y="-208.5" font-family="Helvetica,sans-Serif" font-size="10.00">includes/platformer</text>
<text text-anchor="middle" x="191" y="-197.5" font-family="Helvetica,sans-Serif" font-size="10.00">&#45;engine/Facade/InputFacade.hpp</text>
</a>
</g>
</g>
<!-- Node1&#45;&gt;Node5 -->
<g id="edge4" class="edge">
<title>Node1&#45;&gt;Node5</title>
<path fill="none" stroke="midnightblue" d="M244.26,-250.88C232.41,-241.01 218.52,-229.43 207.89,-220.58"/>
<polygon fill="midnightblue" stroke="midnightblue" points="242.15,-253.68 252.08,-257.4 246.63,-248.31 242.15,-253.68"/>
</g>
<!-- Node5&#45;&gt;Node2 -->
<g id="edge5" class="edge">
<title>Node5&#45;&gt;Node2</title>
<path fill="none" stroke="midnightblue" d="M150.39,-186.3C122.43,-173.76 86.56,-157.68 64.98,-148.01"/>
<polygon fill="midnightblue" stroke="midnightblue" points="148.98,-189.5 159.54,-190.4 151.84,-183.11 148.98,-189.5"/>
</g>
<!-- Node5&#45;&gt;Node3 -->
<g id="edge6" class="edge">
<title>Node5&#45;&gt;Node3</title>
<path fill="none" stroke="midnightblue" d="M231.61,-186.3C259.57,-173.76 295.44,-157.68 317.02,-148.01"/>
<polygon fill="midnightblue" stroke="midnightblue" points="230.16,-183.11 222.46,-190.4 233.02,-189.5 230.16,-183.11"/>
</g>
<!-- Node6 -->
<g id="node6" class="node">
<title>Node6</title>
<g id="a_node6"><a xlink:href="Window_8hpp.html" target="_top" xlink:title=" ">
<polygon fill="none" stroke="black" points="110.5,-123.5 110.5,-153.5 247.5,-153.5 247.5,-123.5 110.5,-123.5"/>
<text text-anchor="start" x="118.5" y="-141.5" font-family="Helvetica,sans-Serif" font-size="10.00">includes/platformer</text>
<text text-anchor="middle" x="179" y="-130.5" font-family="Helvetica,sans-Serif" font-size="10.00">&#45;engine/Render/Window.hpp</text>
</a>
</g>
</g>
<!-- Node5&#45;&gt;Node6 -->
<g id="edge7" class="edge">
<title>Node5&#45;&gt;Node6</title>
<path fill="none" stroke="midnightblue" d="M186.55,-180.4C184.88,-171.37 183.04,-161.41 181.6,-153.58"/>
<polygon fill="midnightblue" stroke="midnightblue" points="183.14,-181.2 188.4,-190.4 190.02,-179.93 183.14,-181.2"/>
</g>
<!-- Node6&#45;&gt;Node4 -->
<g id="edge8" class="edge">
<title>Node6&#45;&gt;Node4</title>
<path fill="none" stroke="midnightblue" d="M237.77,-120.67C282.14,-107.97 341.17,-91.06 376.22,-81.03"/>
<polygon fill="midnightblue" stroke="midnightblue" points="236.63,-117.36 227.98,-123.48 238.55,-124.09 236.63,-117.36"/>
</g>
<!-- Node7 -->
<g id="node7" class="node">
<title>Node7</title>
<g id="a_node7"><a xlink:href="Timer_8cpp.html" target="_top" xlink:title=" ">
<polygon fill="none" stroke="black" points="19,-62 19,-81 123,-81 123,-62 19,-62"/>
<text text-anchor="middle" x="71" y="-69" font-family="Helvetica,sans-Serif" font-size="10.00">src/Timer/Timer.cpp</text>
</a>
</g>
</g>
<!-- Node6&#45;&gt;Node7 -->
<g id="edge9" class="edge">
<title>Node6&#45;&gt;Node7</title>
<path fill="none" stroke="midnightblue" d="M146.83,-118.14C126.31,-105.79 100.72,-90.39 85.13,-81.01"/>
<polygon fill="midnightblue" stroke="midnightblue" points="145.19,-121.24 155.57,-123.4 148.8,-115.24 145.19,-121.24"/>
</g>
<!-- Node8 -->
<g id="node8" class="node">
<title>Node8</title>
<g id="a_node8"><a xlink:href="Engine_8hpp.html" target="_top" xlink:title=" ">
<polygon fill="none" stroke="black" points="141.5,-56.5 141.5,-86.5 272.5,-86.5 272.5,-56.5 141.5,-56.5"/>
<text text-anchor="start" x="149.5" y="-74.5" font-family="Helvetica,sans-Serif" font-size="10.00">includes/platformer</text>
<text text-anchor="middle" x="207" y="-63.5" font-family="Helvetica,sans-Serif" font-size="10.00">&#45;engine/Engine/Engine.hpp</text>
</a>
</g>
</g>
<!-- Node6&#45;&gt;Node8 -->
<g id="edge10" class="edge">
<title>Node6&#45;&gt;Node8</title>
<path fill="none" stroke="midnightblue" d="M189.13,-113.99C193.08,-104.8 197.49,-94.58 200.94,-86.58"/>
<polygon fill="midnightblue" stroke="midnightblue" points="185.82,-112.83 185.08,-123.4 192.25,-115.6 185.82,-112.83"/>
</g>
<!-- Node9 -->
<g id="node9" class="node">
<title>Node9</title>
<g id="a_node9"><a xlink:href="Engine_8cpp.html" target="_top" xlink:title=" ">
<polygon fill="none" stroke="black" points="150.5,-0.5 150.5,-19.5 263.5,-19.5 263.5,-0.5 150.5,-0.5"/>
<text text-anchor="middle" x="207" y="-7.5" font-family="Helvetica,sans-Serif" font-size="10.00">src/Engine/Engine.cpp</text>
</a>
</g>
</g>
<!-- Node8&#45;&gt;Node9 -->
<g id="edge11" class="edge">
<title>Node8&#45;&gt;Node9</title>
<path fill="none" stroke="midnightblue" d="M207,-46.29C207,-36.86 207,-26.65 207,-19.66"/>
<polygon fill="midnightblue" stroke="midnightblue" points="203.5,-46.4 207,-56.4 210.5,-46.4 203.5,-46.4"/>
</g>
</g>
</svg>
