<?xml version="1.0" encoding="UTF-8" standalone="no"?>
<!DOCTYPE svg PUBLIC "-//W3C//DTD SVG 1.1//EN"
 "http://www.w3.org/Graphics/SVG/1.1/DTD/svg11.dtd">
<!-- Generated by graphviz version 2.44.0 ()
 -->
<!-- Title: includes/platformer&#45;engine/Facade/InputFacade.hpp Pages: 1 -->
<svg width="1037pt" height="441pt"
 viewBox="0.00 0.00 1036.50 441.00" xmlns="http://www.w3.org/2000/svg" xmlns:xlink="http://www.w3.org/1999/xlink">
<g id="graph0" class="graph" transform="scale(1 1) rotate(0) translate(4 437)">
<title>includes/platformer&#45;engine/Facade/InputFacade.hpp</title>
<!-- Node1 -->
<g id="node1" class="node">
<title>Node1</title>
<g id="a_node1"><a xlink:title=" ">
<polygon fill="#bfbfbf" stroke="black" points="101,-402.5 101,-432.5 259,-432.5 259,-402.5 101,-402.5"/>
<text text-anchor="start" x="109" y="-420.5" font-family="Helvetica,sans-Serif" font-size="10.00">includes/platformer</text>
<text text-anchor="middle" x="180" y="-409.5" font-family="Helvetica,sans-Serif" font-size="10.00">&#45;engine/Facade/InputFacade.hpp</text>
</a>
</g>
</g>
<!-- Node2 -->
<g id="node2" class="node">
<title>Node2</title>
<g id="a_node2"><a xlink:href="Input_8cpp.html" target="_top" xlink:title=" ">
<polygon fill="none" stroke="black" points="0,-341 0,-360 92,-360 92,-341 0,-341"/>
<text text-anchor="middle" x="46" y="-348" font-family="Helvetica,sans-Serif" font-size="10.00">src/API/Input.cpp</text>
</a>
</g>
</g>
<!-- Node1&#45;&gt;Node2 -->
<g id="edge1" class="edge">
<title>Node1&#45;&gt;Node2</title>
<path fill="none" stroke="midnightblue" d="M141.79,-397.97C116.05,-385.48 83.31,-369.6 63.54,-360.01"/>
<polygon fill="midnightblue" stroke="midnightblue" points="140.4,-401.18 150.92,-402.4 143.45,-394.88 140.4,-401.18"/>
</g>
<!-- Node3 -->
<g id="node3" class="node">
<title>Node3</title>
<g id="a_node3"><a xlink:href="InputFacade_8cpp.html" target="_top" xlink:title=" ">
<polygon fill="none" stroke="black" points="110,-341 110,-360 250,-360 250,-341 110,-341"/>
<text text-anchor="middle" x="180" y="-348" font-family="Helvetica,sans-Serif" font-size="10.00">src/Facade/InputFacade.cpp</text>
</a>
</g>
</g>
<!-- Node1&#45;&gt;Node3 -->
<g id="edge2" class="edge">
<title>Node1&#45;&gt;Node3</title>
<path fill="none" stroke="midnightblue" d="M180,-392.25C180,-381.02 180,-368.38 180,-360.19"/>
<polygon fill="midnightblue" stroke="midnightblue" points="176.5,-392.4 180,-402.4 183.5,-392.4 176.5,-392.4"/>
</g>
<!-- Node4 -->
<g id="node4" class="node">
<title>Node4</title>
<g id="a_node4"><a xlink:href="Window_8hpp.html" target="_top" xlink:title=" ">
<polygon fill="none" stroke="black" points="268.5,-335.5 268.5,-365.5 405.5,-365.5 405.5,-335.5 268.5,-335.5"/>
<text text-anchor="start" x="276.5" y="-353.5" font-family="Helvetica,sans-Serif" font-size="10.00">includes/platformer</text>
<text text-anchor="middle" x="337" y="-342.5" font-family="Helvetica,sans-Serif" font-size="10.00">&#45;engine/Render/Window.hpp</text>
</a>
</g>
</g>
<!-- Node1&#45;&gt;Node4 -->
<g id="edge3" class="edge">
<title>Node1&#45;&gt;Node4</title>
<path fill="none" stroke="midnightblue" d="M223.37,-398.54C248.49,-388.14 279.66,-375.24 303,-365.58"/>
<polygon fill="midnightblue" stroke="midnightblue" points="221.97,-395.34 214.07,-402.4 224.64,-401.8 221.97,-395.34"/>
</g>
<!-- Node5 -->
<g id="node5" class="node">
<title>Node5</title>
<g id="a_node5"><a xlink:href="Window_8cpp.html" target="_top" xlink:title=" ">
<polygon fill="none" stroke="black" points="107.5,-274 107.5,-293 226.5,-293 226.5,-274 107.5,-274"/>
<text text-anchor="middle" x="167" y="-281" font-family="Helvetica,sans-Serif" font-size="10.00">src/Render/Window.cpp</text>
</a>
</g>
</g>
<!-- Node4&#45;&gt;Node5 -->
<g id="edge4" class="edge">
<title>Node4&#45;&gt;Node5</title>
<path fill="none" stroke="midnightblue" d="M290.67,-331.78C257.7,-319.18 214.88,-302.81 189.25,-293.01"/>
<polygon fill="midnightblue" stroke="midnightblue" points="289.52,-335.09 300.11,-335.4 292.02,-328.56 289.52,-335.09"/>
</g>
<!-- Node6 -->
<g id="node6" class="node">
<title>Node6</title>
<g id="a_node6"><a xlink:href="Timer_8cpp.html" target="_top" xlink:title=" ">
<polygon fill="none" stroke="black" points="245,-274 245,-293 349,-293 349,-274 245,-274"/>
<text text-anchor="middle" x="297" y="-281" font-family="Helvetica,sans-Serif" font-size="10.00">src/Timer/Timer.cpp</text>
</a>
</g>
</g>
<!-- Node4&#45;&gt;Node6 -->
<g id="edge5" class="edge">
<title>Node4&#45;&gt;Node6</title>
<path fill="none" stroke="midnightblue" d="M322.93,-326.63C315.81,-315.07 307.59,-301.71 302.35,-293.19"/>
<polygon fill="midnightblue" stroke="midnightblue" points="320.1,-328.71 328.32,-335.4 326.06,-325.05 320.1,-328.71"/>
</g>
<!-- Node7 -->
<g id="node7" class="node">
<title>Node7</title>
<g id="a_node7"><a xlink:href="Engine_8hpp.html" target="_top" xlink:title=" ">
<polygon fill="none" stroke="black" points="557.5,-56.5 557.5,-86.5 688.5,-86.5 688.5,-56.5 557.5,-56.5"/>
<text text-anchor="start" x="565.5" y="-74.5" font-family="Helvetica,sans-Serif" font-size="10.00">includes/platformer</text>
<text text-anchor="middle" x="623" y="-63.5" font-family="Helvetica,sans-Serif" font-size="10.00">&#45;engine/Engine/Engine.hpp</text>
</a>
</g>
</g>
<!-- Node4&#45;&gt;Node7 -->
<g id="edge6" class="edge">
<title>Node4&#45;&gt;Node7</title>
<path fill="none" stroke="midnightblue" d="M347.82,-325.99C351.4,-317.59 355.19,-307.99 358,-299 381.91,-222.63 339.59,-179.76 396,-123 418.34,-100.52 498.66,-86.62 557.44,-79.23"/>
<polygon fill="midnightblue" stroke="midnightblue" points="344.6,-324.61 343.78,-335.17 351.01,-327.43 344.6,-324.61"/>
</g>
<!-- Node10 -->
<g id="node10" class="node">
<title>Node10</title>
<g id="a_node10"><a xlink:href="AnimatedSprite_8hpp.html" target="_top" xlink:title=" ">
<polygon fill="none" stroke="black" points="648.5,-268.5 648.5,-298.5 819.5,-298.5 819.5,-268.5 648.5,-268.5"/>
<text text-anchor="start" x="656.5" y="-286.5" font-family="Helvetica,sans-Serif" font-size="10.00">includes/platformer</text>
<text text-anchor="middle" x="734" y="-275.5" font-family="Helvetica,sans-Serif" font-size="10.00">&#45;engine/Texture/AnimatedSprite.hpp</text>
</a>
</g>
</g>
<!-- Node4&#45;&gt;Node10 -->
<g id="edge9" class="edge">
<title>Node4&#45;&gt;Node10</title>
<path fill="none" stroke="midnightblue" d="M415.79,-336.6C482.89,-325.61 579.12,-309.86 648.16,-298.55"/>
<polygon fill="midnightblue" stroke="midnightblue" points="415,-333.18 405.7,-338.25 416.13,-340.09 415,-333.18"/>
</g>
<!-- Node8 -->
<g id="node8" class="node">
<title>Node8</title>
<g id="a_node8"><a xlink:href="Engine_8cpp.html" target="_top" xlink:title=" ">
<polygon fill="none" stroke="black" points="538.5,-0.5 538.5,-19.5 651.5,-19.5 651.5,-0.5 538.5,-0.5"/>
<text text-anchor="middle" x="595" y="-7.5" font-family="Helvetica,sans-Serif" font-size="10.00">src/Engine/Engine.cpp</text>
</a>
</g>
</g>
<!-- Node7&#45;&gt;Node8 -->
<g id="edge7" class="edge">
<title>Node7&#45;&gt;Node8</title>
<path fill="none" stroke="midnightblue" d="M612.04,-47.2C607.48,-37.52 602.47,-26.88 599.07,-19.66"/>
<polygon fill="midnightblue" stroke="midnightblue" points="608.94,-48.84 616.36,-56.4 615.27,-45.86 608.94,-48.84"/>
</g>
<!-- Node9 -->
<g id="node9" class="node">
<title>Node9</title>
<g id="a_node9"><a xlink:href="RenderSystem_8cpp.html" target="_top" xlink:title=" ">
<polygon fill="none" stroke="black" points="670,-0.5 670,-19.5 820,-19.5 820,-0.5 670,-0.5"/>
<text text-anchor="middle" x="745" y="-7.5" font-family="Helvetica,sans-Serif" font-size="10.00">src/Texture/RenderSystem.cpp</text>
</a>
</g>
</g>
<!-- Node7&#45;&gt;Node9 -->
<g id="edge8" class="edge">
<title>Node7&#45;&gt;Node9</title>
<path fill="none" stroke="midnightblue" d="M661.06,-51.94C683.16,-41.16 709.97,-28.08 727.25,-19.66"/>
<polygon fill="midnightblue" stroke="midnightblue" points="659.37,-48.87 651.91,-56.4 662.43,-55.16 659.37,-48.87"/>
</g>
<!-- Node11 -->
<g id="node11" class="node">
<title>Node11</title>
<g id="a_node11"><a xlink:href="AnimatedSprite_8cpp.html" target="_top" xlink:title=" ">
<polygon fill="none" stroke="black" points="657.5,-207 657.5,-226 810.5,-226 810.5,-207 657.5,-207"/>
<text text-anchor="middle" x="734" y="-214" font-family="Helvetica,sans-Serif" font-size="10.00">src/Texture/AnimatedSprite.cpp</text>
</a>
</g>
</g>
<!-- Node10&#45;&gt;Node11 -->
<g id="edge10" class="edge">
<title>Node10&#45;&gt;Node11</title>
<path fill="none" stroke="midnightblue" d="M734,-258.25C734,-247.02 734,-234.38 734,-226.19"/>
<polygon fill="midnightblue" stroke="midnightblue" points="730.5,-258.4 734,-268.4 737.5,-258.4 730.5,-258.4"/>
</g>
<!-- Node12 -->
<g id="node12" class="node">
<title>Node12</title>
<g id="a_node12"><a xlink:href="GameObjectBuilder_8hpp.html" target="_top" xlink:title=" ">
<polygon fill="none" stroke="black" points="847.5,-123.5 847.5,-164.5 986.5,-164.5 986.5,-123.5 847.5,-123.5"/>
<text text-anchor="start" x="855.5" y="-152.5" font-family="Helvetica,sans-Serif" font-size="10.00">includes/platformer</text>
<text text-anchor="start" x="855.5" y="-141.5" font-family="Helvetica,sans-Serif" font-size="10.00">&#45;engine/Builder/GameObject</text>
<text text-anchor="middle" x="917" y="-130.5" font-family="Helvetica,sans-Serif" font-size="10.00">Builder.hpp</text>
</a>
</g>
</g>
<!-- Node10&#45;&gt;Node12 -->
<g id="edge11" class="edge">
<title>Node10&#45;&gt;Node12</title>
<path fill="none" stroke="midnightblue" d="M770.15,-263.4C785.92,-254.54 804.34,-243.44 820,-232 848.68,-211.05 878.66,-183.07 897.57,-164.57"/>
<polygon fill="midnightblue" stroke="midnightblue" points="768.27,-260.45 761.22,-268.35 771.66,-266.57 768.27,-260.45"/>
</g>
<!-- Node14 -->
<g id="node14" class="node">
<title>Node14</title>
<g id="a_node14"><a xlink:href="ObjectBuilder_8hpp.html" target="_top" xlink:title=" ">
<polygon fill="none" stroke="black" points="867.5,-201.5 867.5,-231.5 1028.5,-231.5 1028.5,-201.5 867.5,-201.5"/>
<text text-anchor="start" x="875.5" y="-219.5" font-family="Helvetica,sans-Serif" font-size="10.00">includes/platformer</text>
<text text-anchor="middle" x="948" y="-208.5" font-family="Helvetica,sans-Serif" font-size="10.00">&#45;engine/Builder/ObjectBuilder.hpp</text>
</a>
</g>
</g>
<!-- Node10&#45;&gt;Node14 -->
<g id="edge13" class="edge">
<title>Node10&#45;&gt;Node14</title>
<path fill="none" stroke="midnightblue" d="M790.15,-265.44C824.84,-254.91 868.82,-241.55 901.54,-231.61"/>
<polygon fill="midnightblue" stroke="midnightblue" points="788.72,-262.22 780.17,-268.48 790.76,-268.92 788.72,-262.22"/>
</g>
<!-- Node15 -->
<g id="node15" class="node">
<title>Node15</title>
<g id="a_node15"><a xlink:href="Animator_8hpp.html" target="_top" xlink:title=" ">
<polygon fill="none" stroke="black" points="536.5,-201.5 536.5,-231.5 639.5,-231.5 639.5,-201.5 536.5,-201.5"/>
<text text-anchor="start" x="544.5" y="-219.5" font-family="Helvetica,sans-Serif" font-size="10.00">includes/spic&#45;prj&#45;api</text>
<text text-anchor="middle" x="588" y="-208.5" font-family="Helvetica,sans-Serif" font-size="10.00">/Animator.hpp</text>
</a>
</g>
</g>
<!-- Node10&#45;&gt;Node15 -->
<g id="edge15" class="edge">
<title>Node10&#45;&gt;Node15</title>
<path fill="none" stroke="midnightblue" d="M693.05,-264.27C669.8,-253.92 641.13,-241.15 619.62,-231.58"/>
<polygon fill="midnightblue" stroke="midnightblue" points="691.76,-267.53 702.32,-268.4 694.61,-261.13 691.76,-267.53"/>
</g>
<!-- Node13 -->
<g id="node13" class="node">
<title>Node13</title>
<g id="a_node13"><a xlink:href="GameObjectBuilder_8cpp.html" target="_top" xlink:title=" ">
<polygon fill="none" stroke="black" points="832.5,-62 832.5,-81 1001.5,-81 1001.5,-62 832.5,-62"/>
<text text-anchor="middle" x="917" y="-69" font-family="Helvetica,sans-Serif" font-size="10.00">src/Builder/GameObjectBuilder.cpp</text>
</a>
</g>
</g>
<!-- Node12&#45;&gt;Node13 -->
<g id="edge12" class="edge">
<title>Node12&#45;&gt;Node13</title>
<path fill="none" stroke="midnightblue" d="M917,-113.1C917,-101.53 917,-89.18 917,-81.17"/>
<polygon fill="midnightblue" stroke="midnightblue" points="913.5,-113.36 917,-123.36 920.5,-113.36 913.5,-113.36"/>
</g>
<!-- Node14&#45;&gt;Node12 -->
<g id="edge14" class="edge">
<title>Node14&#45;&gt;Node12</title>
<path fill="none" stroke="midnightblue" d="M937.6,-191.84C933.7,-182.99 929.33,-173.03 925.61,-164.59"/>
<polygon fill="midnightblue" stroke="midnightblue" points="934.5,-193.49 941.73,-201.23 940.91,-190.67 934.5,-193.49"/>
</g>
<!-- Node15&#45;&gt;Node12 -->
<g id="edge18" class="edge">
<title>Node15&#45;&gt;Node12</title>
<path fill="none" stroke="midnightblue" d="M649.36,-200.99C734.28,-183.11 757.53,-182.83 838,-165 841.04,-164.33 844.14,-163.62 847.27,-162.89"/>
<polygon fill="midnightblue" stroke="midnightblue" points="648.6,-197.57 639.55,-203.07 650.06,-204.42 648.6,-197.57"/>
</g>
<!-- Node16 -->
<g id="node16" class="node">
<title>Node16</title>
<g id="a_node16"><a xlink:href="Animator_8cpp.html" target="_top" xlink:title=" ">
<polygon fill="none" stroke="black" points="405,-134.5 405,-153.5 515,-153.5 515,-134.5 405,-134.5"/>
<text text-anchor="middle" x="460" y="-141.5" font-family="Helvetica,sans-Serif" font-size="10.00">src/API/Animator.cpp</text>
</a>
</g>
</g>
<!-- Node15&#45;&gt;Node16 -->
<g id="edge16" class="edge">
<title>Node15&#45;&gt;Node16</title>
<path fill="none" stroke="midnightblue" d="M553.44,-196.47C528.03,-182.47 494.71,-164.12 475.49,-153.53"/>
<polygon fill="midnightblue" stroke="midnightblue" points="551.96,-199.64 562.4,-201.4 555.33,-193.51 551.96,-199.64"/>
</g>
<!-- Node17 -->
<g id="node17" class="node">
<title>Node17</title>
<g id="a_node17"><a xlink:href="Scene_8cpp.html" target="_top" xlink:title=" ">
<polygon fill="none" stroke="black" points="533,-134.5 533,-153.5 643,-153.5 643,-134.5 533,-134.5"/>
<text text-anchor="middle" x="588" y="-141.5" font-family="Helvetica,sans-Serif" font-size="10.00">src/Scene/Scene.cpp</text>
</a>
</g>
</g>
<!-- Node15&#45;&gt;Node17 -->
<g id="edge17" class="edge">
<title>Node15&#45;&gt;Node17</title>
<path fill="none" stroke="midnightblue" d="M588,-191.09C588,-178.21 588,-163.2 588,-153.89"/>
<polygon fill="midnightblue" stroke="midnightblue" points="584.5,-191.23 588,-201.23 591.5,-191.23 584.5,-191.23"/>
</g>
<!-- Node18 -->
<g id="node18" class="node">
<title>Node18</title>
<g id="a_node18"><a xlink:href="RenderSystem_8hpp.html" target="_top" xlink:title=" ">
<polygon fill="none" stroke="black" points="661,-129 661,-159 829,-159 829,-129 661,-129"/>
<text text-anchor="start" x="669" y="-147" font-family="Helvetica,sans-Serif" font-size="10.00">includes/platformer</text>
<text text-anchor="middle" x="745" y="-136" font-family="Helvetica,sans-Serif" font-size="10.00">&#45;engine/Texture/RenderSystem.hpp</text>
</a>
</g>
</g>
<!-- Node15&#45;&gt;Node18 -->
<g id="edge19" class="edge">
<title>Node15&#45;&gt;Node18</title>
<path fill="none" stroke="midnightblue" d="M628.78,-197.19C655.28,-185.29 689.29,-170.02 713.66,-159.07"/>
<polygon fill="midnightblue" stroke="midnightblue" points="627.08,-194.11 619.39,-201.4 629.95,-200.5 627.08,-194.11"/>
</g>
<!-- Node18&#45;&gt;Node7 -->
<g id="edge21" class="edge">
<title>Node18&#45;&gt;Node7</title>
<path fill="none" stroke="midnightblue" d="M711.95,-123.9C691.57,-112.12 665.88,-97.28 647.35,-86.57"/>
<polygon fill="midnightblue" stroke="midnightblue" points="710.2,-126.93 720.6,-128.9 713.7,-120.87 710.2,-126.93"/>
</g>
<!-- Node18&#45;&gt;Node9 -->
<g id="edge20" class="edge">
<title>Node18&#45;&gt;Node9</title>
<path fill="none" stroke="midnightblue" d="M745,-118.82C745,-88.88 745,-39.41 745,-19.6"/>
<polygon fill="midnightblue" stroke="midnightblue" points="741.5,-118.87 745,-128.87 748.5,-118.87 741.5,-118.87"/>
</g>
</g>
</svg>
