<?xml version="1.0" encoding="UTF-8" standalone="no"?>
<!DOCTYPE svg PUBLIC "-//W3C//DTD SVG 1.1//EN"
 "http://www.w3.org/Graphics/SVG/1.1/DTD/svg11.dtd">
<!-- Generated by graphviz version 2.44.0 ()
 -->
<!-- Title: includes/spic&#45;prj&#45;api/Input.hpp Pages: 1 -->
<svg width="929pt" height="508pt"
 viewBox="0.00 0.00 929.00 508.00" xmlns="http://www.w3.org/2000/svg" xmlns:xlink="http://www.w3.org/1999/xlink">
<g id="graph0" class="graph" transform="scale(1 1) rotate(0) translate(4 504)">
<title>includes/spic&#45;prj&#45;api/Input.hpp</title>
<!-- Node1 -->
<g id="node1" class="node">
<title>Node1</title>
<g id="a_node1"><a xlink:title=" ">
<polygon fill="#bfbfbf" stroke="black" points="178,-469.5 178,-499.5 281,-499.5 281,-469.5 178,-469.5"/>
<text text-anchor="start" x="186" y="-487.5" font-family="Helvetica,sans-Serif" font-size="10.00">includes/spic&#45;prj&#45;api</text>
<text text-anchor="middle" x="229.5" y="-476.5" font-family="Helvetica,sans-Serif" font-size="10.00">/Input.hpp</text>
</a>
</g>
</g>
<!-- Node2 -->
<g id="node2" class="node">
<title>Node2</title>
<g id="a_node2"><a xlink:href="Input_8cpp.html" target="_top" xlink:title=" ">
<polygon fill="none" stroke="black" points="50.5,-341 50.5,-360 142.5,-360 142.5,-341 50.5,-341"/>
<text text-anchor="middle" x="96.5" y="-348" font-family="Helvetica,sans-Serif" font-size="10.00">src/API/Input.cpp</text>
</a>
</g>
</g>
<!-- Node1&#45;&gt;Node2 -->
<g id="edge1" class="edge">
<title>Node1&#45;&gt;Node2</title>
<path fill="none" stroke="midnightblue" d="M186.7,-464.96C171.17,-456.77 154.3,-446.02 141.5,-433 119.74,-410.88 105.31,-376.09 99.45,-360.09"/>
<polygon fill="midnightblue" stroke="midnightblue" points="185.15,-468.1 195.66,-469.49 188.31,-461.85 185.15,-468.1"/>
</g>
<!-- Node3 -->
<g id="node3" class="node">
<title>Node3</title>
<g id="a_node3"><a xlink:href="InputFacade_8cpp.html" target="_top" xlink:title=" ">
<polygon fill="none" stroke="black" points="316.5,-341 316.5,-360 456.5,-360 456.5,-341 316.5,-341"/>
<text text-anchor="middle" x="386.5" y="-348" font-family="Helvetica,sans-Serif" font-size="10.00">src/Facade/InputFacade.cpp</text>
</a>
</g>
</g>
<!-- Node1&#45;&gt;Node3 -->
<g id="edge2" class="edge">
<title>Node1&#45;&gt;Node3</title>
<path fill="none" stroke="midnightblue" d="M268.78,-464.75C284.71,-456.2 302.79,-445.25 317.5,-433 344.71,-410.33 369.72,-376.12 380.68,-360.21"/>
<polygon fill="midnightblue" stroke="midnightblue" points="266.93,-461.77 259.68,-469.49 270.17,-467.97 266.93,-461.77"/>
</g>
<!-- Node4 -->
<g id="node4" class="node">
<title>Node4</title>
<g id="a_node4"><a xlink:href="InputFacade_8hpp.html" target="_top" xlink:title=" ">
<polygon fill="none" stroke="black" points="150.5,-402.5 150.5,-432.5 308.5,-432.5 308.5,-402.5 150.5,-402.5"/>
<text text-anchor="start" x="158.5" y="-420.5" font-family="Helvetica,sans-Serif" font-size="10.00">includes/platformer</text>
<text text-anchor="middle" x="229.5" y="-409.5" font-family="Helvetica,sans-Serif" font-size="10.00">&#45;engine/Facade/InputFacade.hpp</text>
</a>
</g>
</g>
<!-- Node1&#45;&gt;Node4 -->
<g id="edge3" class="edge">
<title>Node1&#45;&gt;Node4</title>
<path fill="none" stroke="midnightblue" d="M229.5,-459.11C229.5,-450.15 229.5,-440.32 229.5,-432.58"/>
<polygon fill="midnightblue" stroke="midnightblue" points="226,-459.4 229.5,-469.4 233,-459.4 226,-459.4"/>
</g>
<!-- Node4&#45;&gt;Node2 -->
<g id="edge4" class="edge">
<title>Node4&#45;&gt;Node2</title>
<path fill="none" stroke="midnightblue" d="M191.58,-397.97C166.03,-385.48 133.53,-369.6 113.91,-360.01"/>
<polygon fill="midnightblue" stroke="midnightblue" points="190.12,-401.15 200.64,-402.4 193.19,-394.86 190.12,-401.15"/>
</g>
<!-- Node4&#45;&gt;Node3 -->
<g id="edge5" class="edge">
<title>Node4&#45;&gt;Node3</title>
<path fill="none" stroke="midnightblue" d="M273.08,-398.46C303.41,-385.9 342.48,-369.72 365.95,-360.01"/>
<polygon fill="midnightblue" stroke="midnightblue" points="271.47,-395.34 263.57,-402.4 274.14,-401.8 271.47,-395.34"/>
</g>
<!-- Node5 -->
<g id="node5" class="node">
<title>Node5</title>
<g id="a_node5"><a xlink:href="Window_8hpp.html" target="_top" xlink:title=" ">
<polygon fill="none" stroke="black" points="161,-335.5 161,-365.5 298,-365.5 298,-335.5 161,-335.5"/>
<text text-anchor="start" x="169" y="-353.5" font-family="Helvetica,sans-Serif" font-size="10.00">includes/platformer</text>
<text text-anchor="middle" x="229.5" y="-342.5" font-family="Helvetica,sans-Serif" font-size="10.00">&#45;engine/Render/Window.hpp</text>
</a>
</g>
</g>
<!-- Node4&#45;&gt;Node5 -->
<g id="edge6" class="edge">
<title>Node4&#45;&gt;Node5</title>
<path fill="none" stroke="midnightblue" d="M229.5,-392.11C229.5,-383.15 229.5,-373.32 229.5,-365.58"/>
<polygon fill="midnightblue" stroke="midnightblue" points="226,-392.4 229.5,-402.4 233,-392.4 226,-392.4"/>
</g>
<!-- Node6 -->
<g id="node6" class="node">
<title>Node6</title>
<g id="a_node6"><a xlink:href="Window_8cpp.html" target="_top" xlink:title=" ">
<polygon fill="none" stroke="black" points="0,-274 0,-293 119,-293 119,-274 0,-274"/>
<text text-anchor="middle" x="59.5" y="-281" font-family="Helvetica,sans-Serif" font-size="10.00">src/Render/Window.cpp</text>
</a>
</g>
</g>
<!-- Node5&#45;&gt;Node6 -->
<g id="edge7" class="edge">
<title>Node5&#45;&gt;Node6</title>
<path fill="none" stroke="midnightblue" d="M183.17,-331.78C150.2,-319.18 107.38,-302.81 81.75,-293.01"/>
<polygon fill="midnightblue" stroke="midnightblue" points="182.02,-335.09 192.61,-335.4 184.52,-328.56 182.02,-335.09"/>
</g>
<!-- Node7 -->
<g id="node7" class="node">
<title>Node7</title>
<g id="a_node7"><a xlink:href="Timer_8cpp.html" target="_top" xlink:title=" ">
<polygon fill="none" stroke="black" points="137.5,-274 137.5,-293 241.5,-293 241.5,-274 137.5,-274"/>
<text text-anchor="middle" x="189.5" y="-281" font-family="Helvetica,sans-Serif" font-size="10.00">src/Timer/Timer.cpp</text>
</a>
</g>
</g>
<!-- Node5&#45;&gt;Node7 -->
<g id="edge8" class="edge">
<title>Node5&#45;&gt;Node7</title>
<path fill="none" stroke="midnightblue" d="M215.43,-326.63C208.31,-315.07 200.09,-301.71 194.85,-293.19"/>
<polygon fill="midnightblue" stroke="midnightblue" points="212.6,-328.71 220.82,-335.4 218.56,-325.05 212.6,-328.71"/>
</g>
<!-- Node8 -->
<g id="node8" class="node">
<title>Node8</title>
<g id="a_node8"><a xlink:href="Engine_8hpp.html" target="_top" xlink:title=" ">
<polygon fill="none" stroke="black" points="450,-56.5 450,-86.5 581,-86.5 581,-56.5 450,-56.5"/>
<text text-anchor="start" x="458" y="-74.5" font-family="Helvetica,sans-Serif" font-size="10.00">includes/platformer</text>
<text text-anchor="middle" x="515.5" y="-63.5" font-family="Helvetica,sans-Serif" font-size="10.00">&#45;engine/Engine/Engine.hpp</text>
</a>
</g>
</g>
<!-- Node5&#45;&gt;Node8 -->
<g id="edge9" class="edge">
<title>Node5&#45;&gt;Node8</title>
<path fill="none" stroke="midnightblue" d="M240.32,-325.99C243.9,-317.59 247.69,-307.99 250.5,-299 274.41,-222.63 232.09,-179.76 288.5,-123 310.84,-100.52 391.16,-86.62 449.94,-79.23"/>
<polygon fill="midnightblue" stroke="midnightblue" points="237.1,-324.61 236.28,-335.17 243.51,-327.43 237.1,-324.61"/>
</g>
<!-- Node11 -->
<g id="node11" class="node">
<title>Node11</title>
<g id="a_node11"><a xlink:href="AnimatedSprite_8hpp.html" target="_top" xlink:title=" ">
<polygon fill="none" stroke="black" points="541,-268.5 541,-298.5 712,-298.5 712,-268.5 541,-268.5"/>
<text text-anchor="start" x="549" y="-286.5" font-family="Helvetica,sans-Serif" font-size="10.00">includes/platformer</text>
<text text-anchor="middle" x="626.5" y="-275.5" font-family="Helvetica,sans-Serif" font-size="10.00">&#45;engine/Texture/AnimatedSprite.hpp</text>
</a>
</g>
</g>
<!-- Node5&#45;&gt;Node11 -->
<g id="edge12" class="edge">
<title>Node5&#45;&gt;Node11</title>
<path fill="none" stroke="midnightblue" d="M308.45,-334.86C393.21,-320.36 478.93,-306.91 540.76,-297.44"/>
<polygon fill="midnightblue" stroke="midnightblue" points="307.65,-331.45 298.39,-336.59 308.83,-338.35 307.65,-331.45"/>
</g>
<!-- Node9 -->
<g id="node9" class="node">
<title>Node9</title>
<g id="a_node9"><a xlink:href="Engine_8cpp.html" target="_top" xlink:title=" ">
<polygon fill="none" stroke="black" points="431,-0.5 431,-19.5 544,-19.5 544,-0.5 431,-0.5"/>
<text text-anchor="middle" x="487.5" y="-7.5" font-family="Helvetica,sans-Serif" font-size="10.00">src/Engine/Engine.cpp</text>
</a>
</g>
</g>
<!-- Node8&#45;&gt;Node9 -->
<g id="edge10" class="edge">
<title>Node8&#45;&gt;Node9</title>
<path fill="none" stroke="midnightblue" d="M504.54,-47.2C499.98,-37.52 494.97,-26.88 491.57,-19.66"/>
<polygon fill="midnightblue" stroke="midnightblue" points="501.44,-48.84 508.86,-56.4 507.77,-45.86 501.44,-48.84"/>
</g>
<!-- Node10 -->
<g id="node10" class="node">
<title>Node10</title>
<g id="a_node10"><a xlink:href="RenderSystem_8cpp.html" target="_top" xlink:title=" ">
<polygon fill="none" stroke="black" points="562.5,-0.5 562.5,-19.5 712.5,-19.5 712.5,-0.5 562.5,-0.5"/>
<text text-anchor="middle" x="637.5" y="-7.5" font-family="Helvetica,sans-Serif" font-size="10.00">src/Texture/RenderSystem.cpp</text>
</a>
</g>
</g>
<!-- Node8&#45;&gt;Node10 -->
<g id="edge11" class="edge">
<title>Node8&#45;&gt;Node10</title>
<path fill="none" stroke="midnightblue" d="M553.56,-51.94C575.66,-41.16 602.47,-28.08 619.75,-19.66"/>
<polygon fill="midnightblue" stroke="midnightblue" points="551.87,-48.87 544.41,-56.4 554.93,-55.16 551.87,-48.87"/>
</g>
<!-- Node12 -->
<g id="node12" class="node">
<title>Node12</title>
<g id="a_node12"><a xlink:href="AnimatedSprite_8cpp.html" target="_top" xlink:title=" ">
<polygon fill="none" stroke="black" points="550,-207 550,-226 703,-226 703,-207 550,-207"/>
<text text-anchor="middle" x="626.5" y="-214" font-family="Helvetica,sans-Serif" font-size="10.00">src/Texture/AnimatedSprite.cpp</text>
</a>
</g>
</g>
<!-- Node11&#45;&gt;Node12 -->
<g id="edge13" class="edge">
<title>Node11&#45;&gt;Node12</title>
<path fill="none" stroke="midnightblue" d="M626.5,-258.25C626.5,-247.02 626.5,-234.38 626.5,-226.19"/>
<polygon fill="midnightblue" stroke="midnightblue" points="623,-258.4 626.5,-268.4 630,-258.4 623,-258.4"/>
</g>
<!-- Node13 -->
<g id="node13" class="node">
<title>Node13</title>
<g id="a_node13"><a xlink:href="GameObjectBuilder_8hpp.html" target="_top" xlink:title=" ">
<polygon fill="none" stroke="black" points="740,-123.5 740,-164.5 879,-164.5 879,-123.5 740,-123.5"/>
<text text-anchor="start" x="748" y="-152.5" font-family="Helvetica,sans-Serif" font-size="10.00">includes/platformer</text>
<text text-anchor="start" x="748" y="-141.5" font-family="Helvetica,sans-Serif" font-size="10.00">&#45;engine/Builder/GameObject</text>
<text text-anchor="middle" x="809.5" y="-130.5" font-family="Helvetica,sans-Serif" font-size="10.00">Builder.hpp</text>
</a>
</g>
</g>
<!-- Node11&#45;&gt;Node13 -->
<g id="edge14" class="edge">
<title>Node11&#45;&gt;Node13</title>
<path fill="none" stroke="midnightblue" d="M662.65,-263.4C678.42,-254.54 696.84,-243.44 712.5,-232 741.18,-211.05 771.16,-183.07 790.07,-164.57"/>
<polygon fill="midnightblue" stroke="midnightblue" points="660.77,-260.45 653.72,-268.35 664.16,-266.57 660.77,-260.45"/>
</g>
<!-- Node15 -->
<g id="node15" class="node">
<title>Node15</title>
<g id="a_node15"><a xlink:href="ObjectBuilder_8hpp.html" target="_top" xlink:title=" ">
<polygon fill="none" stroke="black" points="760,-201.5 760,-231.5 921,-231.5 921,-201.5 760,-201.5"/>
<text text-anchor="start" x="768" y="-219.5" font-family="Helvetica,sans-Serif" font-size="10.00">includes/platformer</text>
<text text-anchor="middle" x="840.5" y="-208.5" font-family="Helvetica,sans-Serif" font-size="10.00">&#45;engine/Builder/ObjectBuilder.hpp</text>
</a>
</g>
</g>
<!-- Node11&#45;&gt;Node15 -->
<g id="edge16" class="edge">
<title>Node11&#45;&gt;Node15</title>
<path fill="none" stroke="midnightblue" d="M682.65,-265.44C717.34,-254.91 761.32,-241.55 794.04,-231.61"/>
<polygon fill="midnightblue" stroke="midnightblue" points="681.22,-262.22 672.67,-268.48 683.26,-268.92 681.22,-262.22"/>
</g>
<!-- Node16 -->
<g id="node16" class="node">
<title>Node16</title>
<g id="a_node16"><a xlink:href="Animator_8hpp.html" target="_top" xlink:title=" ">
<polygon fill="none" stroke="black" points="429,-201.5 429,-231.5 532,-231.5 532,-201.5 429,-201.5"/>
<text text-anchor="start" x="437" y="-219.5" font-family="Helvetica,sans-Serif" font-size="10.00">includes/spic&#45;prj&#45;api</text>
<text text-anchor="middle" x="480.5" y="-208.5" font-family="Helvetica,sans-Serif" font-size="10.00">/Animator.hpp</text>
</a>
</g>
</g>
<!-- Node11&#45;&gt;Node16 -->
<g id="edge18" class="edge">
<title>Node11&#45;&gt;Node16</title>
<path fill="none" stroke="midnightblue" d="M585.55,-264.27C562.3,-253.92 533.63,-241.15 512.12,-231.58"/>
<polygon fill="midnightblue" stroke="midnightblue" points="584.26,-267.53 594.82,-268.4 587.11,-261.13 584.26,-267.53"/>
</g>
<!-- Node14 -->
<g id="node14" class="node">
<title>Node14</title>
<g id="a_node14"><a xlink:href="GameObjectBuilder_8cpp.html" target="_top" xlink:title=" ">
<polygon fill="none" stroke="black" points="725,-62 725,-81 894,-81 894,-62 725,-62"/>
<text text-anchor="middle" x="809.5" y="-69" font-family="Helvetica,sans-Serif" font-size="10.00">src/Builder/GameObjectBuilder.cpp</text>
</a>
</g>
</g>
<!-- Node13&#45;&gt;Node14 -->
<g id="edge15" class="edge">
<title>Node13&#45;&gt;Node14</title>
<path fill="none" stroke="midnightblue" d="M809.5,-113.1C809.5,-101.53 809.5,-89.18 809.5,-81.17"/>
<polygon fill="midnightblue" stroke="midnightblue" points="806,-113.36 809.5,-123.36 813,-113.36 806,-113.36"/>
</g>
<!-- Node15&#45;&gt;Node13 -->
<g id="edge17" class="edge">
<title>Node15&#45;&gt;Node13</title>
<path fill="none" stroke="midnightblue" d="M830.1,-191.84C826.2,-182.99 821.83,-173.03 818.11,-164.59"/>
<polygon fill="midnightblue" stroke="midnightblue" points="827,-193.49 834.23,-201.23 833.41,-190.67 827,-193.49"/>
</g>
<!-- Node16&#45;&gt;Node13 -->
<g id="edge21" class="edge">
<title>Node16&#45;&gt;Node13</title>
<path fill="none" stroke="midnightblue" d="M541.86,-200.99C626.78,-183.11 650.03,-182.83 730.5,-165 733.54,-164.33 736.64,-163.62 739.77,-162.89"/>
<polygon fill="midnightblue" stroke="midnightblue" points="541.1,-197.57 532.05,-203.07 542.56,-204.42 541.1,-197.57"/>
</g>
<!-- Node17 -->
<g id="node17" class="node">
<title>Node17</title>
<g id="a_node17"><a xlink:href="Animator_8cpp.html" target="_top" xlink:title=" ">
<polygon fill="none" stroke="black" points="297.5,-134.5 297.5,-153.5 407.5,-153.5 407.5,-134.5 297.5,-134.5"/>
<text text-anchor="middle" x="352.5" y="-141.5" font-family="Helvetica,sans-Serif" font-size="10.00">src/API/Animator.cpp</text>
</a>
</g>
</g>
<!-- Node16&#45;&gt;Node17 -->
<g id="edge19" class="edge">
<title>Node16&#45;&gt;Node17</title>
<path fill="none" stroke="midnightblue" d="M445.94,-196.47C420.53,-182.47 387.21,-164.12 367.99,-153.53"/>
<polygon fill="midnightblue" stroke="midnightblue" points="444.46,-199.64 454.9,-201.4 447.83,-193.51 444.46,-199.64"/>
</g>
<!-- Node18 -->
<g id="node18" class="node">
<title>Node18</title>
<g id="a_node18"><a xlink:href="Scene_8cpp.html" target="_top" xlink:title=" ">
<polygon fill="none" stroke="black" points="425.5,-134.5 425.5,-153.5 535.5,-153.5 535.5,-134.5 425.5,-134.5"/>
<text text-anchor="middle" x="480.5" y="-141.5" font-family="Helvetica,sans-Serif" font-size="10.00">src/Scene/Scene.cpp</text>
</a>
</g>
</g>
<!-- Node16&#45;&gt;Node18 -->
<g id="edge20" class="edge">
<title>Node16&#45;&gt;Node18</title>
<path fill="none" stroke="midnightblue" d="M480.5,-191.09C480.5,-178.21 480.5,-163.2 480.5,-153.89"/>
<polygon fill="midnightblue" stroke="midnightblue" points="477,-191.23 480.5,-201.23 484,-191.23 477,-191.23"/>
</g>
<!-- Node19 -->
<g id="node19" class="node">
<title>Node19</title>
<g id="a_node19"><a xlink:href="RenderSystem_8hpp.html" target="_top" xlink:title=" ">
<polygon fill="none" stroke="black" points="553.5,-129 553.5,-159 721.5,-159 721.5,-129 553.5,-129"/>
<text text-anchor="start" x="561.5" y="-147" font-family="Helvetica,sans-Serif" font-size="10.00">includes/platformer</text>
<text text-anchor="middle" x="637.5" y="-136" font-family="Helvetica,sans-Serif" font-size="10.00">&#45;engine/Texture/RenderSystem.hpp</text>
</a>
</g>
</g>
<!-- Node16&#45;&gt;Node19 -->
<g id="edge22" class="edge">
<title>Node16&#45;&gt;Node19</title>
<path fill="none" stroke="midnightblue" d="M521.28,-197.19C547.78,-185.29 581.79,-170.02 606.16,-159.07"/>
<polygon fill="midnightblue" stroke="midnightblue" points="519.58,-194.11 511.89,-201.4 522.45,-200.5 519.58,-194.11"/>
</g>
<!-- Node19&#45;&gt;Node8 -->
<g id="edge24" class="edge">
<title>Node19&#45;&gt;Node8</title>
<path fill="none" stroke="midnightblue" d="M604.45,-123.9C584.07,-112.12 558.38,-97.28 539.85,-86.57"/>
<polygon fill="midnightblue" stroke="midnightblue" points="602.7,-126.93 613.1,-128.9 606.2,-120.87 602.7,-126.93"/>
</g>
<!-- Node19&#45;&gt;Node10 -->
<g id="edge23" class="edge">
<title>Node19&#45;&gt;Node10</title>
<path fill="none" stroke="midnightblue" d="M637.5,-118.82C637.5,-88.88 637.5,-39.41 637.5,-19.6"/>
<polygon fill="midnightblue" stroke="midnightblue" points="634,-118.87 637.5,-128.87 641,-118.87 634,-118.87"/>
</g>
</g>
</svg>
