<svg xmlns="http://www.w3.org/2000/svg" xmlns:xlink="http://www.w3.org/1999/xlink" width="568" height="95pt" viewBox="0 0 425.5 95"><g id="graph0" class="graph" transform="scale(1 1) rotate(0) translate(4 91)"><title>includes/platformer-engine/Facade/InputFacade.hpp</title><g id="node1" class="node"><title>Node1</title><g id="a_node1"><a><polygon fill="#bfbfbf" stroke="#000" points="59 -56.5 59 -86.5 217 -86.5 217 -56.5 59 -56.5"/><text x="67" y="-74.5" font-family="Helvetica,sans-Serif" font-size="10" text-anchor="start">includes/platformer</text><text x="138" y="-63.5" font-family="Helvetica,sans-Serif" font-size="10" text-anchor="middle">-engine/Facade/InputFacade.hpp</text></a></g></g><g id="node2" class="node"><title>Node2</title><g id="a_node2"><a><polygon fill="none" stroke="#bfbfbf" points="0 -.5 0 -19.5 44 -19.5 44 -.5 0 -.5"/><text x="22" y="-7.5" font-family="Helvetica,sans-Serif" font-size="10" text-anchor="middle">vector</text></a></g></g><g id="edge1" class="edge"><title>Node1-&gt;Node2</title><path fill="none" stroke="#191970" d="M110.51,-56.4C91.57,-46.68 66.56,-33.86 47.96,-24.31"/><polygon fill="#191970" stroke="#191970" points="49.37 -21.11 38.88 -19.66 46.18 -27.34 49.37 -21.11"/></g><g id="node3" class="node"><title>Node3</title><g id="a_node3"><a><polygon fill="none" stroke="#bfbfbf" points="62.5 -.5 62.5 -19.5 97.5 -19.5 97.5 -.5 62.5 -.5"/><text x="80" y="-7.5" font-family="Helvetica,sans-Serif" font-size="10" text-anchor="middle">map</text></a></g></g><g id="edge2" class="edge"><title>Node1-&gt;Node3</title><path fill="none" stroke="#191970" d="M124.25,-56.4C115.65,-47.58 104.55,-36.18 95.61,-27.02"/><polygon fill="#191970" stroke="#191970" points="97.93 -24.38 88.44 -19.66 92.91 -29.26 97.93 -24.38"/></g><g id="node4" class="node"><title>Node4</title><g id="a_node4"><a><polygon fill="none" stroke="#bfbfbf" points="116 -.5 116 -19.5 160 -19.5 160 -.5 116 -.5"/><text x="138" y="-7.5" font-family="Helvetica,sans-Serif" font-size="10" text-anchor="middle">SDL.h</text></a></g></g><g id="edge3" class="edge"><title>Node1-&gt;Node4</title><path fill="none" stroke="#191970" d="M138,-56.4C138,-48.47 138,-38.46 138,-29.86"/><polygon fill="#191970" stroke="#191970" points="141.5 -29.66 138 -19.66 134.5 -29.66 141.5 -29.66"/></g><g id="node5" class="node"><title>Node5</title><g id="a_node5"><a><polygon fill="none" stroke="#bfbfbf" points="178 -.5 178 -19.5 290 -19.5 290 -.5 178 -.5"/><text x="234" y="-7.5" font-family="Helvetica,sans-Serif" font-size="10" text-anchor="middle">Events/EventsEnum.h</text></a></g></g><g id="edge4" class="edge"><title>Node1-&gt;Node5</title><path fill="none" stroke="#191970" d="M160.75,-56.4C175.99,-46.95 195.99,-34.56 211.24,-25.11"/><polygon fill="#191970" stroke="#191970" points="213.38 -27.9 220.03 -19.66 209.69 -21.95 213.38 -27.9"/></g><g id="node6" class="node"><title>Node6</title><g id="a_node6"><a target="_top" xlink:href="InputEnum_8hpp.html"><polygon fill="none" stroke="#000" points="308.5 -.5 308.5 -19.5 417.5 -19.5 417.5 -.5 308.5 -.5"/><text x="363" y="-7.5" font-family="Helvetica,sans-Serif" font-size="10" text-anchor="middle">Utility/InputEnum.hpp</text></a></g></g><g id="edge5" class="edge"><title>Node1-&gt;Node6</title><path fill="none" stroke="#191970" d="M191.04,-56.47C230.7,-45.99 284.21,-31.84 320.94,-22.12"/><polygon fill="#191970" stroke="#191970" points="322.06 -25.45 330.83 -19.51 320.27 -18.68 322.06 -25.45"/></g></g></svg>