<?xml version="1.0" encoding="UTF-8" standalone="no"?>
<!DOCTYPE svg PUBLIC "-//W3C//DTD SVG 1.1//EN"
 "http://www.w3.org/Graphics/SVG/1.1/DTD/svg11.dtd">
<!-- Generated by graphviz version 2.44.0 ()
 -->
<!-- Title: src/Facade/InputFacade.cpp Pages: 1 -->
<svg width="635pt" height="140pt"
 viewBox="0.00 0.00 634.50 140.00" xmlns="http://www.w3.org/2000/svg" xmlns:xlink="http://www.w3.org/1999/xlink">
<g id="graph0" class="graph" transform="scale(1 1) rotate(0) translate(4 136)">
<title>src/Facade/InputFacade.cpp</title>
<!-- Node1 -->
<g id="node1" class="node">
<title>Node1</title>
<g id="a_node1"><a xlink:title=" ">
<polygon fill="#bfbfbf" stroke="black" points="48,-112.5 48,-131.5 188,-131.5 188,-112.5 48,-112.5"/>
<text text-anchor="middle" x="118" y="-119.5" font-family="Helvetica,sans-Serif" font-size="10.00">src/Facade/InputFacade.cpp</text>
</a>
</g>
</g>
<!-- Node2 -->
<g id="node2" class="node">
<title>Node2</title>
<g id="a_node2"><a xlink:title=" ">
<polygon fill="none" stroke="#bfbfbf" points="0,-0.5 0,-19.5 44,-19.5 44,-0.5 0,-0.5"/>
<text text-anchor="middle" x="22" y="-7.5" font-family="Helvetica,sans-Serif" font-size="10.00">vector</text>
</a>
</g>
</g>
<!-- Node1&#45;&gt;Node2 -->
<g id="edge1" class="edge">
<title>Node1&#45;&gt;Node2</title>
<path fill="none" stroke="midnightblue" d="M93.84,-112.48C76.75,-105.28 54.54,-93.33 41,-76 30.61,-62.69 25.89,-43.86 23.76,-29.89"/>
<polygon fill="midnightblue" stroke="midnightblue" points="27.23,-29.43 22.54,-19.93 20.28,-30.28 27.23,-29.43"/>
</g>
<!-- Node3 -->
<g id="node3" class="node">
<title>Node3</title>
<g id="a_node3"><a xlink:title=" ">
<polygon fill="none" stroke="#bfbfbf" points="50,-56.5 50,-75.5 88,-75.5 88,-56.5 50,-56.5"/>
<text text-anchor="middle" x="69" y="-63.5" font-family="Helvetica,sans-Serif" font-size="10.00">tuple</text>
</a>
</g>
</g>
<!-- Node1&#45;&gt;Node3 -->
<g id="edge2" class="edge">
<title>Node1&#45;&gt;Node3</title>
<path fill="none" stroke="midnightblue" d="M109.91,-112.08C102.84,-104.3 92.41,-92.8 83.85,-83.37"/>
<polygon fill="midnightblue" stroke="midnightblue" points="86.25,-80.8 76.94,-75.75 81.07,-85.51 86.25,-80.8"/>
</g>
<!-- Node4 -->
<g id="node4" class="node">
<title>Node4</title>
<g id="a_node4"><a xlink:href="InputFacade_8hpp.html" target="_top" xlink:title=" ">
<polygon fill="none" stroke="black" points="106,-56.5 106,-75.5 230,-75.5 230,-56.5 106,-56.5"/>
<text text-anchor="middle" x="168" y="-63.5" font-family="Helvetica,sans-Serif" font-size="10.00">Facade/InputFacade.hpp</text>
</a>
</g>
</g>
<!-- Node1&#45;&gt;Node4 -->
<g id="edge3" class="edge">
<title>Node1&#45;&gt;Node4</title>
<path fill="none" stroke="midnightblue" d="M126.26,-112.08C133.46,-104.3 144.11,-92.8 152.85,-83.37"/>
<polygon fill="midnightblue" stroke="midnightblue" points="155.67,-85.47 159.9,-75.75 150.53,-80.71 155.67,-85.47"/>
</g>
<!-- Node9 -->
<g id="node9" class="node">
<title>Node9</title>
<g id="a_node9"><a xlink:href="Debug_8hpp.html" target="_top" xlink:title=" ">
<polygon fill="none" stroke="black" points="470,-56.5 470,-75.5 532,-75.5 532,-56.5 470,-56.5"/>
<text text-anchor="middle" x="501" y="-63.5" font-family="Helvetica,sans-Serif" font-size="10.00">Debug.hpp</text>
</a>
</g>
</g>
<!-- Node1&#45;&gt;Node9 -->
<g id="edge9" class="edge">
<title>Node1&#45;&gt;Node9</title>
<path fill="none" stroke="midnightblue" d="M178.69,-112.44C257.17,-101.38 391.81,-82.39 459.53,-72.85"/>
<polygon fill="midnightblue" stroke="midnightblue" points="460.4,-76.26 469.81,-71.4 459.42,-69.33 460.4,-76.26"/>
</g>
<!-- Node4&#45;&gt;Node2 -->
<g id="edge4" class="edge">
<title>Node4&#45;&gt;Node2</title>
<path fill="none" stroke="midnightblue" d="M144.87,-56.44C120.23,-47.33 81.08,-32.85 53.61,-22.69"/>
<polygon fill="midnightblue" stroke="midnightblue" points="54.66,-19.35 44.07,-19.16 52.24,-25.91 54.66,-19.35"/>
</g>
<!-- Node5 -->
<g id="node5" class="node">
<title>Node5</title>
<g id="a_node5"><a xlink:title=" ">
<polygon fill="none" stroke="#bfbfbf" points="62.5,-0.5 62.5,-19.5 97.5,-19.5 97.5,-0.5 62.5,-0.5"/>
<text text-anchor="middle" x="80" y="-7.5" font-family="Helvetica,sans-Serif" font-size="10.00">map</text>
</a>
</g>
</g>
<!-- Node4&#45;&gt;Node5 -->
<g id="edge5" class="edge">
<title>Node4&#45;&gt;Node5</title>
<path fill="none" stroke="midnightblue" d="M153.86,-56.32C140.13,-47.9 119.06,-34.97 102.94,-25.07"/>
<polygon fill="midnightblue" stroke="midnightblue" points="104.46,-21.9 94.1,-19.65 100.8,-27.87 104.46,-21.9"/>
</g>
<!-- Node6 -->
<g id="node6" class="node">
<title>Node6</title>
<g id="a_node6"><a xlink:title=" ">
<polygon fill="none" stroke="#bfbfbf" points="116,-0.5 116,-19.5 160,-19.5 160,-0.5 116,-0.5"/>
<text text-anchor="middle" x="138" y="-7.5" font-family="Helvetica,sans-Serif" font-size="10.00">SDL.h</text>
</a>
</g>
</g>
<!-- Node4&#45;&gt;Node6 -->
<g id="edge6" class="edge">
<title>Node4&#45;&gt;Node6</title>
<path fill="none" stroke="midnightblue" d="M163.05,-56.08C158.9,-48.61 152.85,-37.72 147.73,-28.52"/>
<polygon fill="midnightblue" stroke="midnightblue" points="150.78,-26.79 142.86,-19.75 144.66,-30.19 150.78,-26.79"/>
</g>
<!-- Node7 -->
<g id="node7" class="node">
<title>Node7</title>
<g id="a_node7"><a xlink:title=" ">
<polygon fill="none" stroke="#bfbfbf" points="178,-0.5 178,-19.5 290,-19.5 290,-0.5 178,-0.5"/>
<text text-anchor="middle" x="234" y="-7.5" font-family="Helvetica,sans-Serif" font-size="10.00">Events/EventsEnum.h</text>
</a>
</g>
</g>
<!-- Node4&#45;&gt;Node7 -->
<g id="edge7" class="edge">
<title>Node4&#45;&gt;Node7</title>
<path fill="none" stroke="midnightblue" d="M178.6,-56.32C188.46,-48.26 203.35,-36.08 215.22,-26.37"/>
<polygon fill="midnightblue" stroke="midnightblue" points="217.68,-28.88 223.2,-19.83 213.25,-23.46 217.68,-28.88"/>
</g>
<!-- Node8 -->
<g id="node8" class="node">
<title>Node8</title>
<g id="a_node8"><a xlink:href="InputEnum_8hpp.html" target="_top" xlink:title=" ">
<polygon fill="none" stroke="black" points="308.5,-0.5 308.5,-19.5 417.5,-19.5 417.5,-0.5 308.5,-0.5"/>
<text text-anchor="middle" x="363" y="-7.5" font-family="Helvetica,sans-Serif" font-size="10.00">Utility/InputEnum.hpp</text>
</a>
</g>
</g>
<!-- Node4&#45;&gt;Node8 -->
<g id="edge8" class="edge">
<title>Node4&#45;&gt;Node8</title>
<path fill="none" stroke="midnightblue" d="M198.9,-56.44C232.27,-47.2 285.59,-32.44 322.35,-22.26"/>
<polygon fill="midnightblue" stroke="midnightblue" points="323.54,-25.56 332.25,-19.52 321.67,-18.81 323.54,-25.56"/>
</g>
<!-- Node10 -->
<g id="node10" class="node">
<title>Node10</title>
<g id="a_node10"><a xlink:href="Point_8hpp.html" target="_top" xlink:title=" ">
<polygon fill="none" stroke="black" points="435.5,-0.5 435.5,-19.5 492.5,-19.5 492.5,-0.5 435.5,-0.5"/>
<text text-anchor="middle" x="464" y="-7.5" font-family="Helvetica,sans-Serif" font-size="10.00">Point.hpp</text>
</a>
</g>
</g>
<!-- Node9&#45;&gt;Node10 -->
<g id="edge10" class="edge">
<title>Node9&#45;&gt;Node10</title>
<path fill="none" stroke="midnightblue" d="M494.89,-56.08C489.72,-48.53 482.15,-37.49 475.81,-28.23"/>
<polygon fill="midnightblue" stroke="midnightblue" points="478.54,-26.02 470,-19.75 472.76,-29.98 478.54,-26.02"/>
</g>
<!-- Node11 -->
<g id="node11" class="node">
<title>Node11</title>
<g id="a_node11"><a xlink:href="Color_8hpp.html" target="_top" xlink:title=" ">
<polygon fill="none" stroke="black" points="510.5,-0.5 510.5,-19.5 567.5,-19.5 567.5,-0.5 510.5,-0.5"/>
<text text-anchor="middle" x="539" y="-7.5" font-family="Helvetica,sans-Serif" font-size="10.00">Color.hpp</text>
</a>
</g>
</g>
<!-- Node9&#45;&gt;Node11 -->
<g id="edge11" class="edge">
<title>Node9&#45;&gt;Node11</title>
<path fill="none" stroke="midnightblue" d="M507.27,-56.08C512.64,-48.46 520.52,-37.26 527.08,-27.94"/>
<polygon fill="midnightblue" stroke="midnightblue" points="529.95,-29.94 532.84,-19.75 524.22,-25.91 529.95,-29.94"/>
</g>
<!-- Node12 -->
<g id="node12" class="node">
<title>Node12</title>
<g id="a_node12"><a xlink:title=" ">
<polygon fill="none" stroke="#bfbfbf" points="585.5,-0.5 585.5,-19.5 626.5,-19.5 626.5,-0.5 585.5,-0.5"/>
<text text-anchor="middle" x="606" y="-7.5" font-family="Helvetica,sans-Serif" font-size="10.00">string</text>
</a>
</g>
</g>
<!-- Node9&#45;&gt;Node12 -->
<g id="edge12" class="edge">
<title>Node9&#45;&gt;Node12</title>
<path fill="none" stroke="midnightblue" d="M517.87,-56.32C534.71,-47.66 560.81,-34.24 580.24,-24.25"/>
<polygon fill="midnightblue" stroke="midnightblue" points="581.88,-27.34 589.17,-19.65 578.68,-21.12 581.88,-27.34"/>
</g>
</g>
</svg>
