<?xml version="1.0" encoding="UTF-8" standalone="no"?>
<!DOCTYPE svg PUBLIC "-//W3C//DTD SVG 1.1//EN"
 "http://www.w3.org/Graphics/SVG/1.1/DTD/svg11.dtd">
<!-- Generated by graphviz version 2.44.0 ()
 -->
<!-- Title: includes/spic&#45;prj&#45;api/Input.hpp Pages: 1 -->
<svg width="474pt" height="285pt"
 viewBox="0.00 0.00 473.50 285.00" xmlns="http://www.w3.org/2000/svg" xmlns:xlink="http://www.w3.org/1999/xlink">
<g id="graph0" class="graph" transform="scale(1 1) rotate(0) translate(4 281)">
<title>includes/spic&#45;prj&#45;api/Input.hpp</title>
<!-- Node1 -->
<g id="node1" class="node">
<title>Node1</title>
<g id="a_node1"><a xlink:title=" ">
<polygon fill="#bfbfbf" stroke="black" points="220.5,-246.5 220.5,-276.5 323.5,-276.5 323.5,-246.5 220.5,-246.5"/>
<text text-anchor="start" x="228.5" y="-264.5" font-family="Helvetica,sans-Serif" font-size="10.00">includes/spic&#45;prj&#45;api</text>
<text text-anchor="middle" x="272" y="-253.5" font-family="Helvetica,sans-Serif" font-size="10.00">/Input.hpp</text>
</a>
</g>
</g>
<!-- Node2 -->
<g id="node2" class="node">
<title>Node2</title>
<g id="a_node2"><a xlink:href="Input_8cpp.html" target="_top" xlink:title=" ">
<polygon fill="none" stroke="black" points="0,-129 0,-148 92,-148 92,-129 0,-129"/>
<text text-anchor="middle" x="46" y="-136" font-family="Helvetica,sans-Serif" font-size="10.00">src/API/Input.cpp</text>
</a>
</g>
</g>
<!-- Node1&#45;&gt;Node2 -->
<g id="edge1" class="edge">
<title>Node1&#45;&gt;Node2</title>
<path fill="none" stroke="midnightblue" d="M210.17,-247.99C179.97,-240.1 143.99,-227.92 115,-210 87.61,-193.07 63.24,-162.98 52.22,-148.2"/>
<polygon fill="midnightblue" stroke="midnightblue" points="209.62,-251.46 220.17,-250.51 211.32,-244.67 209.62,-251.46"/>
</g>
<!-- Node3 -->
<g id="node3" class="node">
<title>Node3</title>
<g id="a_node3"><a xlink:href="InputFacade_8cpp.html" target="_top" xlink:title=" ">
<polygon fill="none" stroke="black" points="266,-129 266,-148 406,-148 406,-129 266,-129"/>
<text text-anchor="middle" x="336" y="-136" font-family="Helvetica,sans-Serif" font-size="10.00">src/Facade/InputFacade.cpp</text>
</a>
</g>
</g>
<!-- Node1&#45;&gt;Node3 -->
<g id="edge2" class="edge">
<title>Node1&#45;&gt;Node3</title>
<path fill="none" stroke="midnightblue" d="M284.28,-237.28C298.67,-210.08 321.77,-166.4 331.48,-148.05"/>
<polygon fill="midnightblue" stroke="midnightblue" points="281.17,-235.67 279.59,-246.14 287.36,-238.94 281.17,-235.67"/>
</g>
<!-- Node4 -->
<g id="node4" class="node">
<title>Node4</title>
<g id="a_node4"><a xlink:href="InputFacade_8hpp.html" target="_top" xlink:title=" ">
<polygon fill="none" stroke="black" points="124,-190.5 124,-209.5 264,-209.5 264,-190.5 124,-190.5"/>
<text text-anchor="middle" x="194" y="-197.5" font-family="Helvetica,sans-Serif" font-size="10.00">src/Facade/InputFacade.hpp</text>
</a>
</g>
</g>
<!-- Node1&#45;&gt;Node4 -->
<g id="edge3" class="edge">
<title>Node1&#45;&gt;Node4</title>
<path fill="none" stroke="midnightblue" d="M245.37,-240.19C231.72,-229.77 215.8,-217.63 205.35,-209.66"/>
<polygon fill="midnightblue" stroke="midnightblue" points="243.44,-243.12 253.52,-246.4 247.69,-237.55 243.44,-243.12"/>
</g>
<!-- Node6 -->
<g id="node6" class="node">
<title>Node6</title>
<g id="a_node6"><a xlink:href="Window_8cpp.html" target="_top" xlink:title=" ">
<polygon fill="none" stroke="black" points="346.5,-62 346.5,-81 465.5,-81 465.5,-62 346.5,-62"/>
<text text-anchor="middle" x="406" y="-69" font-family="Helvetica,sans-Serif" font-size="10.00">src/Render/Window.cpp</text>
</a>
</g>
</g>
<!-- Node1&#45;&gt;Node6 -->
<g id="edge11" class="edge">
<title>Node1&#45;&gt;Node6</title>
<path fill="none" stroke="midnightblue" d="M315.22,-241.84C349.26,-224.53 394.3,-195.22 415,-154 427.14,-129.83 416.3,-96.64 409.91,-81.14"/>
<polygon fill="midnightblue" stroke="midnightblue" points="313.37,-238.85 305.94,-246.4 316.46,-245.13 313.37,-238.85"/>
</g>
<!-- Node4&#45;&gt;Node2 -->
<g id="edge4" class="edge">
<title>Node4&#45;&gt;Node2</title>
<path fill="none" stroke="midnightblue" d="M163.23,-186.63C134.48,-175.07 92.32,-158.12 67.17,-148.01"/>
<polygon fill="midnightblue" stroke="midnightblue" points="162.21,-189.99 172.8,-190.48 164.82,-183.5 162.21,-189.99"/>
</g>
<!-- Node4&#45;&gt;Node3 -->
<g id="edge5" class="edge">
<title>Node4&#45;&gt;Node3</title>
<path fill="none" stroke="midnightblue" d="M223.88,-186.48C251.46,-174.92 291.67,-158.08 315.69,-148.01"/>
<polygon fill="midnightblue" stroke="midnightblue" points="222.22,-183.38 214.35,-190.48 224.92,-189.84 222.22,-183.38"/>
</g>
<!-- Node5 -->
<g id="node5" class="node">
<title>Node5</title>
<g id="a_node5"><a xlink:href="Window_8hpp.html" target="_top" xlink:title=" ">
<polygon fill="none" stroke="black" points="110.5,-123.5 110.5,-153.5 247.5,-153.5 247.5,-123.5 110.5,-123.5"/>
<text text-anchor="start" x="118.5" y="-141.5" font-family="Helvetica,sans-Serif" font-size="10.00">includes/platformer</text>
<text text-anchor="middle" x="179" y="-130.5" font-family="Helvetica,sans-Serif" font-size="10.00">&#45;engine/Render/Window.hpp</text>
</a>
</g>
</g>
<!-- Node4&#45;&gt;Node5 -->
<g id="edge6" class="edge">
<title>Node4&#45;&gt;Node5</title>
<path fill="none" stroke="midnightblue" d="M189.34,-180.53C187.15,-171.81 184.57,-161.59 182.54,-153.52"/>
<polygon fill="midnightblue" stroke="midnightblue" points="186.01,-181.63 191.85,-190.48 192.8,-179.92 186.01,-181.63"/>
</g>
<!-- Node5&#45;&gt;Node6 -->
<g id="edge7" class="edge">
<title>Node5&#45;&gt;Node6</title>
<path fill="none" stroke="midnightblue" d="M237.77,-120.67C282.14,-107.97 341.17,-91.06 376.22,-81.03"/>
<polygon fill="midnightblue" stroke="midnightblue" points="236.63,-117.36 227.98,-123.48 238.55,-124.09 236.63,-117.36"/>
</g>
<!-- Node7 -->
<g id="node7" class="node">
<title>Node7</title>
<g id="a_node7"><a xlink:href="Timer_8cpp.html" target="_top" xlink:title=" ">
<polygon fill="none" stroke="black" points="19,-62 19,-81 123,-81 123,-62 19,-62"/>
<text text-anchor="middle" x="71" y="-69" font-family="Helvetica,sans-Serif" font-size="10.00">src/Timer/Timer.cpp</text>
</a>
</g>
</g>
<!-- Node5&#45;&gt;Node7 -->
<g id="edge8" class="edge">
<title>Node5&#45;&gt;Node7</title>
<path fill="none" stroke="midnightblue" d="M146.83,-118.14C126.31,-105.79 100.72,-90.39 85.13,-81.01"/>
<polygon fill="midnightblue" stroke="midnightblue" points="145.19,-121.24 155.57,-123.4 148.8,-115.24 145.19,-121.24"/>
</g>
<!-- Node8 -->
<g id="node8" class="node">
<title>Node8</title>
<g id="a_node8"><a xlink:href="Engine_8hpp.html" target="_top" xlink:title=" ">
<polygon fill="none" stroke="black" points="141.5,-56.5 141.5,-86.5 272.5,-86.5 272.5,-56.5 141.5,-56.5"/>
<text text-anchor="start" x="149.5" y="-74.5" font-family="Helvetica,sans-Serif" font-size="10.00">includes/platformer</text>
<text text-anchor="middle" x="207" y="-63.5" font-family="Helvetica,sans-Serif" font-size="10.00">&#45;engine/Engine/Engine.hpp</text>
</a>
</g>
</g>
<!-- Node5&#45;&gt;Node8 -->
<g id="edge9" class="edge">
<title>Node5&#45;&gt;Node8</title>
<path fill="none" stroke="midnightblue" d="M189.13,-113.99C193.08,-104.8 197.49,-94.58 200.94,-86.58"/>
<polygon fill="midnightblue" stroke="midnightblue" points="185.82,-112.83 185.08,-123.4 192.25,-115.6 185.82,-112.83"/>
</g>
<!-- Node9 -->
<g id="node9" class="node">
<title>Node9</title>
<g id="a_node9"><a xlink:href="Engine_8cpp.html" target="_top" xlink:title=" ">
<polygon fill="none" stroke="black" points="150.5,-0.5 150.5,-19.5 263.5,-19.5 263.5,-0.5 150.5,-0.5"/>
<text text-anchor="middle" x="207" y="-7.5" font-family="Helvetica,sans-Serif" font-size="10.00">src/Engine/Engine.cpp</text>
</a>
</g>
</g>
<!-- Node8&#45;&gt;Node9 -->
<g id="edge10" class="edge">
<title>Node8&#45;&gt;Node9</title>
<path fill="none" stroke="midnightblue" d="M207,-46.29C207,-36.86 207,-26.65 207,-19.66"/>
<polygon fill="midnightblue" stroke="midnightblue" points="203.5,-46.4 207,-56.4 210.5,-46.4 203.5,-46.4"/>
</g>
</g>
</svg>
