<?xml version="1.0" encoding="UTF-8" standalone="no"?>
<!DOCTYPE svg PUBLIC "-//W3C//DTD SVG 1.1//EN"
 "http://www.w3.org/Graphics/SVG/1.1/DTD/svg11.dtd">
<!-- Generated by graphviz version 2.44.0 ()
 -->
<!-- Title: src/API/Input.cpp Pages: 1 -->
<svg width="559pt" height="196pt"
 viewBox="0.00 0.00 559.00 196.00" xmlns="http://www.w3.org/2000/svg" xmlns:xlink="http://www.w3.org/1999/xlink">
<g id="graph0" class="graph" transform="scale(1 1) rotate(0) translate(4 192)">
<title>src/API/Input.cpp</title>
<!-- Node1 -->
<g id="node1" class="node">
<title>Node1</title>
<g id="a_node1"><a xlink:title=" ">
<polygon fill="#bfbfbf" stroke="black" points="52.5,-168.5 52.5,-187.5 144.5,-187.5 144.5,-168.5 52.5,-168.5"/>
<text text-anchor="middle" x="98.5" y="-175.5" font-family="Helvetica,sans-Serif" font-size="10.00">src/API/Input.cpp</text>
</a>
</g>
</g>
<!-- Node2 -->
<g id="node2" class="node">
<title>Node2</title>
<g id="a_node2"><a xlink:title=" ">
<polygon fill="none" stroke="#bfbfbf" points="11.5,-112.5 11.5,-131.5 49.5,-131.5 49.5,-112.5 11.5,-112.5"/>
<text text-anchor="middle" x="30.5" y="-119.5" font-family="Helvetica,sans-Serif" font-size="10.00">tuple</text>
</a>
</g>
</g>
<!-- Node1&#45;&gt;Node2 -->
<g id="edge1" class="edge">
<title>Node1&#45;&gt;Node2</title>
<path fill="none" stroke="midnightblue" d="M87.57,-168.32C77.33,-160.18 61.78,-147.84 49.5,-138.09"/>
<polygon fill="midnightblue" stroke="midnightblue" points="51.63,-135.31 41.62,-131.83 47.28,-140.79 51.63,-135.31"/>
</g>
<!-- Node3 -->
<g id="node3" class="node">
<title>Node3</title>
<g id="a_node3"><a xlink:href="Input_8hpp.html" target="_top" xlink:title=" ">
<polygon fill="none" stroke="black" points="147.5,-112.5 147.5,-131.5 203.5,-131.5 203.5,-112.5 147.5,-112.5"/>
<text text-anchor="middle" x="175.5" y="-119.5" font-family="Helvetica,sans-Serif" font-size="10.00">Input.hpp</text>
</a>
</g>
</g>
<!-- Node1&#45;&gt;Node3 -->
<g id="edge2" class="edge">
<title>Node1&#45;&gt;Node3</title>
<path fill="none" stroke="midnightblue" d="M110.87,-168.32C122.66,-160.06 140.63,-147.45 154.64,-137.63"/>
<polygon fill="midnightblue" stroke="midnightblue" points="156.98,-140.26 163.16,-131.65 152.96,-134.53 156.98,-140.26"/>
</g>
<!-- Node12 -->
<g id="node12" class="node">
<title>Node12</title>
<g id="a_node12"><a xlink:href="Debug_8hpp.html" target="_top" xlink:title=" ">
<polygon fill="none" stroke="black" points="67.5,-112.5 67.5,-131.5 129.5,-131.5 129.5,-112.5 67.5,-112.5"/>
<text text-anchor="middle" x="98.5" y="-119.5" font-family="Helvetica,sans-Serif" font-size="10.00">Debug.hpp</text>
</a>
</g>
</g>
<!-- Node1&#45;&gt;Node12 -->
<g id="edge11" class="edge">
<title>Node1&#45;&gt;Node12</title>
<path fill="none" stroke="midnightblue" d="M98.5,-168.08C98.5,-161.01 98.5,-150.86 98.5,-141.99"/>
<polygon fill="midnightblue" stroke="midnightblue" points="102,-141.75 98.5,-131.75 95,-141.75 102,-141.75"/>
</g>
<!-- Node4 -->
<g id="node4" class="node">
<title>Node4</title>
<g id="a_node4"><a xlink:href="Point_8hpp.html" target="_top" xlink:title=" ">
<polygon fill="none" stroke="black" points="75,-56.5 75,-75.5 132,-75.5 132,-56.5 75,-56.5"/>
<text text-anchor="middle" x="103.5" y="-63.5" font-family="Helvetica,sans-Serif" font-size="10.00">Point.hpp</text>
</a>
</g>
</g>
<!-- Node3&#45;&gt;Node4 -->
<g id="edge3" class="edge">
<title>Node3&#45;&gt;Node4</title>
<path fill="none" stroke="midnightblue" d="M163.93,-112.32C153.08,-104.18 136.62,-91.84 123.62,-82.09"/>
<polygon fill="midnightblue" stroke="midnightblue" points="125.38,-79.03 115.28,-75.83 121.18,-84.63 125.38,-79.03"/>
</g>
<!-- Node5 -->
<g id="node5" class="node">
<title>Node5</title>
<g id="a_node5"><a xlink:title=" ">
<polygon fill="none" stroke="#bfbfbf" points="150,-56.5 150,-75.5 191,-75.5 191,-56.5 150,-56.5"/>
<text text-anchor="middle" x="170.5" y="-63.5" font-family="Helvetica,sans-Serif" font-size="10.00">string</text>
</a>
</g>
</g>
<!-- Node3&#45;&gt;Node5 -->
<g id="edge4" class="edge">
<title>Node3&#45;&gt;Node5</title>
<path fill="none" stroke="midnightblue" d="M174.67,-112.08C174.02,-105.01 173.08,-94.86 172.26,-85.99"/>
<polygon fill="midnightblue" stroke="midnightblue" points="175.72,-85.39 171.31,-75.75 168.75,-86.03 175.72,-85.39"/>
</g>
<!-- Node6 -->
<g id="node6" class="node">
<title>Node6</title>
<g id="a_node6"><a xlink:href="InputFacade_8hpp.html" target="_top" xlink:title=" ">
<polygon fill="none" stroke="black" points="209.5,-56.5 209.5,-75.5 333.5,-75.5 333.5,-56.5 209.5,-56.5"/>
<text text-anchor="middle" x="271.5" y="-63.5" font-family="Helvetica,sans-Serif" font-size="10.00">Facade/InputFacade.hpp</text>
</a>
</g>
</g>
<!-- Node3&#45;&gt;Node6 -->
<g id="edge5" class="edge">
<title>Node3&#45;&gt;Node6</title>
<path fill="none" stroke="midnightblue" d="M190.92,-112.32C206.04,-103.82 229.32,-90.73 246.97,-80.8"/>
<polygon fill="midnightblue" stroke="midnightblue" points="249.11,-83.61 256.11,-75.65 245.68,-77.51 249.11,-83.61"/>
</g>
<!-- Node7 -->
<g id="node7" class="node">
<title>Node7</title>
<g id="a_node7"><a xlink:title=" ">
<polygon fill="none" stroke="#bfbfbf" points="133.5,-0.5 133.5,-19.5 177.5,-19.5 177.5,-0.5 133.5,-0.5"/>
<text text-anchor="middle" x="155.5" y="-7.5" font-family="Helvetica,sans-Serif" font-size="10.00">vector</text>
</a>
</g>
</g>
<!-- Node6&#45;&gt;Node7 -->
<g id="edge6" class="edge">
<title>Node6&#45;&gt;Node7</title>
<path fill="none" stroke="midnightblue" d="M253.12,-56.44C234.28,-47.68 204.77,-33.94 183.12,-23.86"/>
<polygon fill="midnightblue" stroke="midnightblue" points="184.34,-20.56 173.79,-19.52 181.38,-26.91 184.34,-20.56"/>
</g>
<!-- Node8 -->
<g id="node8" class="node">
<title>Node8</title>
<g id="a_node8"><a xlink:title=" ">
<polygon fill="none" stroke="#bfbfbf" points="196,-0.5 196,-19.5 231,-19.5 231,-0.5 196,-0.5"/>
<text text-anchor="middle" x="213.5" y="-7.5" font-family="Helvetica,sans-Serif" font-size="10.00">map</text>
</a>
</g>
</g>
<!-- Node6&#45;&gt;Node8 -->
<g id="edge7" class="edge">
<title>Node6&#45;&gt;Node8</title>
<path fill="none" stroke="midnightblue" d="M262.18,-56.32C253.61,-48.34 240.69,-36.31 230.31,-26.65"/>
<polygon fill="midnightblue" stroke="midnightblue" points="232.69,-24.09 222.99,-19.83 227.92,-29.21 232.69,-24.09"/>
</g>
<!-- Node9 -->
<g id="node9" class="node">
<title>Node9</title>
<g id="a_node9"><a xlink:title=" ">
<polygon fill="none" stroke="#bfbfbf" points="249.5,-0.5 249.5,-19.5 293.5,-19.5 293.5,-0.5 249.5,-0.5"/>
<text text-anchor="middle" x="271.5" y="-7.5" font-family="Helvetica,sans-Serif" font-size="10.00">SDL.h</text>
</a>
</g>
</g>
<!-- Node6&#45;&gt;Node9 -->
<g id="edge8" class="edge">
<title>Node6&#45;&gt;Node9</title>
<path fill="none" stroke="midnightblue" d="M271.5,-56.08C271.5,-49.01 271.5,-38.86 271.5,-29.99"/>
<polygon fill="midnightblue" stroke="midnightblue" points="275,-29.75 271.5,-19.75 268,-29.75 275,-29.75"/>
</g>
<!-- Node10 -->
<g id="node10" class="node">
<title>Node10</title>
<g id="a_node10"><a xlink:title=" ">
<polygon fill="none" stroke="#bfbfbf" points="311.5,-0.5 311.5,-19.5 423.5,-19.5 423.5,-0.5 311.5,-0.5"/>
<text text-anchor="middle" x="367.5" y="-7.5" font-family="Helvetica,sans-Serif" font-size="10.00">Events/EventsEnum.h</text>
</a>
</g>
</g>
<!-- Node6&#45;&gt;Node10 -->
<g id="edge9" class="edge">
<title>Node6&#45;&gt;Node10</title>
<path fill="none" stroke="midnightblue" d="M286.92,-56.32C302.04,-47.82 325.32,-34.73 342.97,-24.8"/>
<polygon fill="midnightblue" stroke="midnightblue" points="345.11,-27.61 352.11,-19.65 341.68,-21.51 345.11,-27.61"/>
</g>
<!-- Node11 -->
<g id="node11" class="node">
<title>Node11</title>
<g id="a_node11"><a xlink:href="InputEnum_8hpp.html" target="_top" xlink:title=" ">
<polygon fill="none" stroke="black" points="442,-0.5 442,-19.5 551,-19.5 551,-0.5 442,-0.5"/>
<text text-anchor="middle" x="496.5" y="-7.5" font-family="Helvetica,sans-Serif" font-size="10.00">Utility/InputEnum.hpp</text>
</a>
</g>
</g>
<!-- Node6&#45;&gt;Node11 -->
<g id="edge10" class="edge">
<title>Node6&#45;&gt;Node11</title>
<path fill="none" stroke="midnightblue" d="M307.15,-56.44C346.16,-47.08 408.77,-32.06 451.22,-21.87"/>
<polygon fill="midnightblue" stroke="midnightblue" points="452.11,-25.25 461.01,-19.52 450.47,-18.45 452.11,-25.25"/>
</g>
<!-- Node12&#45;&gt;Node4 -->
<g id="edge12" class="edge">
<title>Node12&#45;&gt;Node4</title>
<path fill="none" stroke="midnightblue" d="M99.33,-112.08C99.98,-105.01 100.92,-94.86 101.74,-85.99"/>
<polygon fill="midnightblue" stroke="midnightblue" points="105.25,-86.03 102.69,-75.75 98.28,-85.39 105.25,-86.03"/>
</g>
<!-- Node12&#45;&gt;Node5 -->
<g id="edge14" class="edge">
<title>Node12&#45;&gt;Node5</title>
<path fill="none" stroke="midnightblue" d="M110.07,-112.32C120.92,-104.18 137.38,-91.84 150.38,-82.09"/>
<polygon fill="midnightblue" stroke="midnightblue" points="152.82,-84.63 158.72,-75.83 148.62,-79.03 152.82,-84.63"/>
</g>
<!-- Node13 -->
<g id="node13" class="node">
<title>Node13</title>
<g id="a_node13"><a xlink:href="Color_8hpp.html" target="_top" xlink:title=" ">
<polygon fill="none" stroke="black" points="0,-56.5 0,-75.5 57,-75.5 57,-56.5 0,-56.5"/>
<text text-anchor="middle" x="28.5" y="-63.5" font-family="Helvetica,sans-Serif" font-size="10.00">Color.hpp</text>
</a>
</g>
</g>
<!-- Node12&#45;&gt;Node13 -->
<g id="edge13" class="edge">
<title>Node12&#45;&gt;Node13</title>
<path fill="none" stroke="midnightblue" d="M87.25,-112.32C76.7,-104.18 60.7,-91.84 48.06,-82.09"/>
<polygon fill="midnightblue" stroke="midnightblue" points="50.01,-79.17 39.95,-75.83 45.73,-84.71 50.01,-79.17"/>
</g>
</g>
</svg>
