<?xml version="1.0" encoding="UTF-8" standalone="no"?>
<!DOCTYPE svg PUBLIC "-//W3C//DTD SVG 1.1//EN"
 "http://www.w3.org/Graphics/SVG/1.1/DTD/svg11.dtd">
<!-- Generated by graphviz version 2.44.0 ()
 -->
<!-- Title: includes/platformer&#45;engine/System/ISystem.hpp Pages: 1 -->
<!--zoomable 251 -->
<svg id="main" version="1.1" xmlns="http://www.w3.org/2000/svg" xmlns:xlink="http://www.w3.org/1999/xlink" xml:space="preserve" onload="init(evt)">
<style type="text/css"><![CDATA[
.edge:hover path { stroke: red; }
.edge:hover polygon { stroke: red; fill: red; }
]]></style>
<script type="text/javascript"><![CDATA[
var edges = document.getElementsByTagName('g');
if (edges && edges.length) {
  for (var i=0;i<edges.length;i++) {
    if (edges[i].id.substr(0,4)=='edge') {
      edges[i].setAttribute('class','edge');
    }
  }
}
]]></script>
        <defs>
                <circle id="rim" cx="0" cy="0" r="7"/>
                <circle id="rim2" cx="0" cy="0" r="3.5"/>
                <g id="zoomPlus">
                        <use xlink:href="#rim" fill="#404040">
                                <set attributeName="fill" to="#808080" begin="zoomplus.mouseover" end="zoomplus.mouseout"/>
                        </use>
                        <path d="M-4,0h8M0,-4v8" fill="none" stroke="white" stroke-width="1.5" pointer-events="none"/>
                </g>
                <g id="zoomMin">
                        <use xlink:href="#rim" fill="#404040">
                                <set attributeName="fill" to="#808080" begin="zoomminus.mouseover" end="zoomminus.mouseout"/>
                        </use>
                        <path d="M-4,0h8" fill="none" stroke="white" stroke-width="1.5" pointer-events="none"/>
                </g>
                <g id="dirArrow">
                        <path fill="none" stroke="white" stroke-width="1.5" d="M0,-3.0v7 M-2.5,-0.5L0,-3.0L2.5,-0.5"/>
                </g>
               <g id="resetDef">
                       <use xlink:href="#rim2" fill="#404040">
                               <set attributeName="fill" to="#808080" begin="reset.mouseover" end="reset.mouseout"/>
                       </use>
               </g>
        </defs>

<script type="text/javascript">
var viewWidth = 2187;
var viewHeight = 251;
var sectionId = 'dynsection-0';
</script>
<script xlink:href="svgpan.js"/>
<svg id="graph" class="graph">
<g id="viewport">
<title>includes/platformer&#45;engine/System/ISystem.hpp</title>
<!-- Node1 -->
<g id="node1" class="node">
<title>Node1</title>
<g id="a_node1"><a xlink:title=" ">
<polygon fill="#bfbfbf" stroke="black" points="1049.5,-212.5 1049.5,-242.5 1190.5,-242.5 1190.5,-212.5 1049.5,-212.5"/>
<text text-anchor="start" x="1057.5" y="-230.5" font-family="Helvetica,sans-Serif" font-size="10.00">includes/platformer</text>
<text text-anchor="middle" x="1120" y="-219.5" font-family="Helvetica,sans-Serif" font-size="10.00">&#45;engine/System/ISystem.hpp</text>
</a>
</g>
</g>
<!-- Node2 -->
<g id="node2" class="node">
<title>Node2</title>
<g id="a_node2"><a xlink:href="BehaviourSystem_8hpp.html" target="_top" xlink:title=" ">
<polygon fill="none" stroke="black" points="791.5,-134.5 791.5,-175.5 932.5,-175.5 932.5,-134.5 791.5,-134.5"/>
<text text-anchor="start" x="799.5" y="-163.5" font-family="Helvetica,sans-Serif" font-size="10.00">includes/platformer</text>
<text text-anchor="start" x="799.5" y="-152.5" font-family="Helvetica,sans-Serif" font-size="10.00">&#45;engine/Behaviour/Behaviour</text>
<text text-anchor="middle" x="862" y="-141.5" font-family="Helvetica,sans-Serif" font-size="10.00">System.hpp</text>
</a>
</g>
</g>
<!-- Node1&#45;&gt;Node2 -->
<g id="edge1" class="edge">
<title>Node1&#45;&gt;Node2</title>
<path fill="none" stroke="midnightblue" d="M1058.85,-209.79C1020.99,-199.44 972.24,-186.12 932.72,-175.33"/>
<polygon fill="midnightblue" stroke="midnightblue" points="1058.15,-213.23 1068.72,-212.49 1060,-206.47 1058.15,-213.23"/>
</g>
<!-- Node19 -->
<g id="node19" class="node">
<title>Node19</title>
<g id="a_node19"><a xlink:href="PhysicsSystem_8hpp.html" target="_top" xlink:title=" ">
<polygon fill="none" stroke="black" points="1293,-140 1293,-170 1467,-170 1467,-140 1293,-140"/>
<text text-anchor="start" x="1301" y="-158" font-family="Helvetica,sans-Serif" font-size="10.00">includes/platformer</text>
<text text-anchor="middle" x="1380" y="-147" font-family="Helvetica,sans-Serif" font-size="10.00">&#45;engine/Physics/PhysicsSystem.hpp</text>
</a>
</g>
</g>
<!-- Node1&#45;&gt;Node19 -->
<g id="edge18" class="edge">
<title>Node1&#45;&gt;Node19</title>
<path fill="none" stroke="midnightblue" d="M1181.52,-209.82C1226.11,-197.73 1285.75,-181.56 1327.97,-170.11"/>
<polygon fill="midnightblue" stroke="midnightblue" points="1180.41,-206.49 1171.68,-212.49 1182.25,-213.25 1180.41,-206.49"/>
</g>
<!-- Node21 -->
<g id="node21" class="node">
<title>Node21</title>
<g id="a_node21"><a xlink:href="RenderSystem_8hpp.html" target="_top" xlink:title=" ">
<polygon fill="none" stroke="black" points="951,-140 951,-170 1119,-170 1119,-140 951,-140"/>
<text text-anchor="start" x="959" y="-158" font-family="Helvetica,sans-Serif" font-size="10.00">includes/platformer</text>
<text text-anchor="middle" x="1035" y="-147" font-family="Helvetica,sans-Serif" font-size="10.00">&#45;engine/Texture/RenderSystem.hpp</text>
</a>
</g>
</g>
<!-- Node1&#45;&gt;Node21 -->
<g id="edge21" class="edge">
<title>Node1&#45;&gt;Node21</title>
<path fill="none" stroke="midnightblue" d="M1095.03,-205.79C1081.14,-194.27 1064.22,-180.23 1051.89,-170"/>
<polygon fill="midnightblue" stroke="midnightblue" points="1092.87,-208.54 1102.8,-212.23 1097.34,-203.16 1092.87,-208.54"/>
</g>
<!-- Node22 -->
<g id="node22" class="node">
<title>Node22</title>
<g id="a_node22"><a xlink:href="ClickSystem_8hpp.html" target="_top" xlink:title=" ">
<polygon fill="none" stroke="black" points="1137.5,-140 1137.5,-170 1274.5,-170 1274.5,-140 1137.5,-140"/>
<text text-anchor="start" x="1145.5" y="-158" font-family="Helvetica,sans-Serif" font-size="10.00">includes/platformer</text>
<text text-anchor="middle" x="1206" y="-147" font-family="Helvetica,sans-Serif" font-size="10.00">&#45;engine/UI/ClickSystem.hpp</text>
</a>
</g>
</g>
<!-- Node1&#45;&gt;Node22 -->
<g id="edge24" class="edge">
<title>Node1&#45;&gt;Node22</title>
<path fill="none" stroke="midnightblue" d="M1145.27,-205.79C1159.32,-194.27 1176.44,-180.23 1188.92,-170"/>
<polygon fill="midnightblue" stroke="midnightblue" points="1142.92,-203.19 1137.4,-212.23 1147.36,-208.6 1142.92,-203.19"/>
</g>
<!-- Node3 -->
<g id="node3" class="node">
<title>Node3</title>
<g id="a_node3"><a xlink:href="BehaviourSystem_8cpp.html" target="_top" xlink:title=" ">
<polygon fill="none" stroke="black" points="775,-73 775,-92 949,-92 949,-73 775,-73"/>
<text text-anchor="middle" x="862" y="-80" font-family="Helvetica,sans-Serif" font-size="10.00">src/Behaviour/BehaviourSystem.cpp</text>
</a>
</g>
</g>
<!-- Node2&#45;&gt;Node3 -->
<g id="edge2" class="edge">
<title>Node2&#45;&gt;Node3</title>
<path fill="none" stroke="midnightblue" d="M862,-124.1C862,-112.53 862,-100.18 862,-92.17"/>
<polygon fill="midnightblue" stroke="midnightblue" points="858.5,-124.36 862,-134.36 865.5,-124.36 858.5,-124.36"/>
</g>
<!-- Node4 -->
<g id="node4" class="node">
<title>Node4</title>
<g id="a_node4"><a xlink:href="Engine_8hpp.html" target="_top" xlink:title=" ">
<polygon fill="none" stroke="black" points="1054.5,-67.5 1054.5,-97.5 1185.5,-97.5 1185.5,-67.5 1054.5,-67.5"/>
<text text-anchor="start" x="1062.5" y="-85.5" font-family="Helvetica,sans-Serif" font-size="10.00">includes/platformer</text>
<text text-anchor="middle" x="1120" y="-74.5" font-family="Helvetica,sans-Serif" font-size="10.00">&#45;engine/Engine/Engine.hpp</text>
</a>
</g>
</g>
<!-- Node2&#45;&gt;Node4 -->
<g id="edge3" class="edge">
<title>Node2&#45;&gt;Node4</title>
<path fill="none" stroke="midnightblue" d="M942.58,-131.98C983.71,-120.74 1032.54,-107.4 1068.55,-97.56"/>
<polygon fill="midnightblue" stroke="midnightblue" points="941.56,-128.63 932.84,-134.64 943.41,-135.38 941.56,-128.63"/>
</g>
<!-- Node5 -->
<g id="node5" class="node">
<title>Node5</title>
<g id="a_node5"><a xlink:href="Animator_8cpp.html" target="_top" xlink:title=" ">
<polygon fill="none" stroke="black" points="1131,-6 1131,-25 1241,-25 1241,-6 1131,-6"/>
<text text-anchor="middle" x="1186" y="-13" font-family="Helvetica,sans-Serif" font-size="10.00">src/API/Animator.cpp</text>
</a>
</g>
</g>
<!-- Node4&#45;&gt;Node5 -->
<g id="edge4" class="edge">
<title>Node4&#45;&gt;Node5</title>
<path fill="none" stroke="midnightblue" d="M1141.49,-60.34C1153.61,-48.4 1168.09,-34.14 1177.17,-25.19"/>
<polygon fill="midnightblue" stroke="midnightblue" points="1138.99,-57.89 1134.32,-67.4 1143.9,-62.87 1138.99,-57.89"/>
</g>
<!-- Node6 -->
<g id="node6" class="node">
<title>Node6</title>
<g id="a_node6"><a xlink:href="CollisionBehaviour_8cpp.html" target="_top" xlink:title=" ">
<polygon fill="none" stroke="black" points="1259,-6 1259,-25 1437,-25 1437,-6 1259,-6"/>
<text text-anchor="middle" x="1348" y="-13" font-family="Helvetica,sans-Serif" font-size="10.00">src/Behaviour/CollisionBehaviour.cpp</text>
</a>
</g>
</g>
<!-- Node4&#45;&gt;Node6 -->
<g id="edge5" class="edge">
<title>Node4&#45;&gt;Node6</title>
<path fill="none" stroke="midnightblue" d="M1179.03,-64.67C1223.59,-51.97 1282.88,-35.06 1318.08,-25.03"/>
<polygon fill="midnightblue" stroke="midnightblue" points="1177.85,-61.37 1169.19,-67.48 1179.77,-68.1 1177.85,-61.37"/>
</g>
<!-- Node7 -->
<g id="node7" class="node">
<title>Node7</title>
<g id="a_node7"><a xlink:href="FPSCounterBehaviour_8cpp.html" target="_top" xlink:title=" ">
<polygon fill="none" stroke="black" points="1455.5,-0.5 1455.5,-30.5 1588.5,-30.5 1588.5,-0.5 1455.5,-0.5"/>
<text text-anchor="start" x="1463.5" y="-18.5" font-family="Helvetica,sans-Serif" font-size="10.00">src/Behaviour/FPSCounter</text>
<text text-anchor="middle" x="1522" y="-7.5" font-family="Helvetica,sans-Serif" font-size="10.00">Behaviour.cpp</text>
</a>
</g>
</g>
<!-- Node4&#45;&gt;Node7 -->
<g id="edge6" class="edge">
<title>Node4&#45;&gt;Node7</title>
<path fill="none" stroke="midnightblue" d="M1195.6,-70.55C1261.75,-60.79 1360.38,-45.79 1446,-31 1449.04,-30.47 1452.16,-29.93 1455.3,-29.36"/>
<polygon fill="midnightblue" stroke="midnightblue" points="1195.06,-67.09 1185.67,-72.01 1196.08,-74.02 1195.06,-67.09"/>
</g>
<!-- Node8 -->
<g id="node8" class="node">
<title>Node8</title>
<g id="a_node8"><a xlink:href="Debug_8cpp.html" target="_top" xlink:title=" ">
<polygon fill="none" stroke="black" points="1607,-6 1607,-25 1717,-25 1717,-6 1607,-6"/>
<text text-anchor="middle" x="1662" y="-13" font-family="Helvetica,sans-Serif" font-size="10.00">src/Debug/Debug.cpp</text>
</a>
</g>
</g>
<!-- Node4&#45;&gt;Node8 -->
<g id="edge7" class="edge">
<title>Node4&#45;&gt;Node8</title>
<path fill="none" stroke="midnightblue" d="M1195.73,-72.12C1210.41,-70.36 1225.68,-68.59 1240,-67 1398.94,-49.41 1440.17,-56.72 1598,-31 1607.78,-29.41 1618.31,-27.22 1627.94,-25.03"/>
<polygon fill="midnightblue" stroke="midnightblue" points="1195.19,-68.66 1185.68,-73.32 1196.02,-75.61 1195.19,-68.66"/>
</g>
<!-- Node9 -->
<g id="node9" class="node">
<title>Node9</title>
<g id="a_node9"><a xlink:href="GameObjectFactory_8cpp.html" target="_top" xlink:title=" ">
<polygon fill="none" stroke="black" points="1735.5,-6 1735.5,-25 1910.5,-25 1910.5,-6 1735.5,-6"/>
<text text-anchor="middle" x="1823" y="-13" font-family="Helvetica,sans-Serif" font-size="10.00">src/Director/GameObjectFactory.cpp</text>
</a>
</g>
</g>
<!-- Node4&#45;&gt;Node9 -->
<g id="edge8" class="edge">
<title>Node4&#45;&gt;Node9</title>
<path fill="none" stroke="midnightblue" d="M1195.7,-71.81C1210.38,-70.09 1225.66,-68.4 1240,-67 1455.57,-46 1510.75,-55.03 1726,-31 1740.64,-29.37 1756.46,-27.18 1770.99,-25"/>
<polygon fill="midnightblue" stroke="midnightblue" points="1195.16,-68.35 1185.65,-73.01 1195.99,-75.3 1195.16,-68.35"/>
</g>
<!-- Node10 -->
<g id="node10" class="node">
<title>Node10</title>
<g id="a_node10"><a xlink:href="Engine_8cpp.html" target="_top" xlink:title=" ">
<polygon fill="none" stroke="black" points="1928.5,-6 1928.5,-25 2041.5,-25 2041.5,-6 1928.5,-6"/>
<text text-anchor="middle" x="1985" y="-13" font-family="Helvetica,sans-Serif" font-size="10.00">src/Engine/Engine.cpp</text>
</a>
</g>
</g>
<!-- Node4&#45;&gt;Node10 -->
<g id="edge9" class="edge">
<title>Node4&#45;&gt;Node10</title>
<path fill="none" stroke="midnightblue" d="M1195.68,-71.57C1210.36,-69.87 1225.65,-68.25 1240,-67 1541.51,-40.83 1620.16,-72.09 1920,-31 1930.42,-29.57 1941.65,-27.33 1951.79,-25.03"/>
<polygon fill="midnightblue" stroke="midnightblue" points="1195.14,-68.11 1185.62,-72.76 1195.97,-75.06 1195.14,-68.11"/>
</g>
<!-- Node11 -->
<g id="node11" class="node">
<title>Node11</title>
<g id="a_node11"><a xlink:href="TMXParser_8cpp.html" target="_top" xlink:title=" ">
<polygon fill="none" stroke="black" points="168,-6 168,-25 304,-25 304,-6 168,-6"/>
<text text-anchor="middle" x="236" y="-13" font-family="Helvetica,sans-Serif" font-size="10.00">src/Facade/TMXParser.cpp</text>
</a>
</g>
</g>
<!-- Node4&#45;&gt;Node11 -->
<g id="edge10" class="edge">
<title>Node4&#45;&gt;Node11</title>
<path fill="none" stroke="midnightblue" d="M1044.47,-69.79C1036.22,-68.74 1027.94,-67.78 1020,-67 706.86,-36.39 625.42,-68.2 313,-31 300.84,-29.55 287.72,-27.33 275.81,-25.06"/>
<polygon fill="midnightblue" stroke="midnightblue" points="1044.11,-73.27 1054.48,-71.11 1045.03,-66.33 1044.11,-73.27"/>
</g>
<!-- Node12 -->
<g id="node12" class="node">
<title>Node12</title>
<g id="a_node12"><a xlink:href="ClientNetworkManager_8cpp.html" target="_top" xlink:title=" ">
<polygon fill="none" stroke="black" points="322.5,-0.5 322.5,-30.5 469.5,-30.5 469.5,-0.5 322.5,-0.5"/>
<text text-anchor="start" x="330.5" y="-18.5" font-family="Helvetica,sans-Serif" font-size="10.00">src/Networking/ClientNetwork</text>
<text text-anchor="middle" x="396" y="-7.5" font-family="Helvetica,sans-Serif" font-size="10.00">Manager.cpp</text>
</a>
</g>
</g>
<!-- Node4&#45;&gt;Node12 -->
<g id="edge11" class="edge">
<title>Node4&#45;&gt;Node12</title>
<path fill="none" stroke="midnightblue" d="M1044.45,-69.91C1036.21,-68.84 1027.94,-67.84 1020,-67 779.91,-41.66 717.66,-60.06 478,-31 475.27,-30.67 472.5,-30.31 469.7,-29.92"/>
<polygon fill="midnightblue" stroke="midnightblue" points="1044.09,-73.39 1054.47,-71.25 1045.02,-66.46 1044.09,-73.39"/>
</g>
<!-- Node13 -->
<g id="node13" class="node">
<title>Node13</title>
<g id="a_node13"><a xlink:href="ServerNetworkManager_8cpp.html" target="_top" xlink:title=" ">
<polygon fill="none" stroke="black" points="487.5,-0.5 487.5,-30.5 638.5,-30.5 638.5,-0.5 487.5,-0.5"/>
<text text-anchor="start" x="495.5" y="-18.5" font-family="Helvetica,sans-Serif" font-size="10.00">src/Networking/ServerNetwork</text>
<text text-anchor="middle" x="563" y="-7.5" font-family="Helvetica,sans-Serif" font-size="10.00">Manager.cpp</text>
</a>
</g>
</g>
<!-- Node4&#45;&gt;Node13 -->
<g id="edge12" class="edge">
<title>Node4&#45;&gt;Node13</title>
<path fill="none" stroke="midnightblue" d="M1044.43,-70.15C1036.19,-69.03 1027.92,-67.96 1020,-67 855.09,-47.08 812.64,-52.98 648,-31 644.88,-30.58 641.71,-30.14 638.5,-29.67"/>
<polygon fill="midnightblue" stroke="midnightblue" points="1044.05,-73.63 1054.43,-71.54 1045.01,-66.7 1044.05,-73.63"/>
</g>
<!-- Node14 -->
<g id="node14" class="node">
<title>Node14</title>
<g id="a_node14"><a xlink:href="MoveSystem_8cpp.html" target="_top" xlink:title=" ">
<polygon fill="none" stroke="black" points="657,-6 657,-25 803,-25 803,-6 657,-6"/>
<text text-anchor="middle" x="730" y="-13" font-family="Helvetica,sans-Serif" font-size="10.00">src/Physics/MoveSystem.cpp</text>
</a>
</g>
</g>
<!-- Node4&#45;&gt;Node14 -->
<g id="edge13" class="edge">
<title>Node4&#45;&gt;Node14</title>
<path fill="none" stroke="midnightblue" d="M1044.32,-69.36C981.95,-59.29 891.19,-44.49 812,-31 800.88,-29.11 788.93,-27.02 777.68,-25.03"/>
<polygon fill="midnightblue" stroke="midnightblue" points="1044.04,-72.86 1054.47,-71 1045.15,-65.95 1044.04,-72.86"/>
</g>
<!-- Node15 -->
<g id="node15" class="node">
<title>Node15</title>
<g id="a_node15"><a xlink:href="RenderSystem_8cpp.html" target="_top" xlink:title=" ">
<polygon fill="none" stroke="black" points="0,-6 0,-25 150,-25 150,-6 0,-6"/>
<text text-anchor="middle" x="75" y="-13" font-family="Helvetica,sans-Serif" font-size="10.00">src/Texture/RenderSystem.cpp</text>
</a>
</g>
</g>
<!-- Node4&#45;&gt;Node15 -->
<g id="edge14" class="edge">
<title>Node4&#45;&gt;Node15</title>
<path fill="none" stroke="midnightblue" d="M1044.47,-69.71C1036.23,-68.68 1027.95,-67.74 1020,-67 638.65,-31.47 539.84,-71.66 159,-31 145.61,-29.57 131.12,-27.32 118.02,-25.02"/>
<polygon fill="midnightblue" stroke="midnightblue" points="1044.12,-73.2 1054.49,-71.02 1045.03,-66.26 1044.12,-73.2"/>
</g>
<!-- Node16 -->
<g id="node16" class="node">
<title>Node16</title>
<g id="a_node16"><a xlink:href="TextureManager_8cpp.html" target="_top" xlink:title=" ">
<polygon fill="none" stroke="black" points="821,-6 821,-25 977,-25 977,-6 821,-6"/>
<text text-anchor="middle" x="899" y="-13" font-family="Helvetica,sans-Serif" font-size="10.00">src/Texture/TextureManager.cpp</text>
</a>
</g>
</g>
<!-- Node4&#45;&gt;Node16 -->
<g id="edge15" class="edge">
<title>Node4&#45;&gt;Node16</title>
<path fill="none" stroke="midnightblue" d="M1062.51,-64.59C1019.35,-51.9 962.05,-35.04 928,-25.03"/>
<polygon fill="midnightblue" stroke="midnightblue" points="1061.74,-68.01 1072.32,-67.48 1063.71,-61.3 1061.74,-68.01"/>
</g>
<!-- Node17 -->
<g id="node17" class="node">
<title>Node17</title>
<g id="a_node17"><a xlink:href="ClickSystem_8cpp.html" target="_top" xlink:title=" ">
<polygon fill="none" stroke="black" points="2059.5,-6 2059.5,-25 2178.5,-25 2178.5,-6 2059.5,-6"/>
<text text-anchor="middle" x="2119" y="-13" font-family="Helvetica,sans-Serif" font-size="10.00">src/UI/ClickSystem.cpp</text>
</a>
</g>
</g>
<!-- Node4&#45;&gt;Node17 -->
<g id="edge16" class="edge">
<title>Node4&#45;&gt;Node17</title>
<path fill="none" stroke="midnightblue" d="M1195.67,-71.47C1210.35,-69.78 1225.64,-68.18 1240,-67 1599.58,-37.34 1693.12,-76.78 2051,-31 2061.9,-29.61 2073.64,-27.37 2084.25,-25.07"/>
<polygon fill="midnightblue" stroke="midnightblue" points="1195.14,-68.01 1185.61,-72.66 1195.96,-74.96 1195.14,-68.01"/>
</g>
<!-- Node18 -->
<g id="node18" class="node">
<title>Node18</title>
<g id="a_node18"><a xlink:href="FPSCounter_8cpp.html" target="_top" xlink:title=" ">
<polygon fill="none" stroke="black" points="995,-6 995,-25 1113,-25 1113,-6 995,-6"/>
<text text-anchor="middle" x="1054" y="-13" font-family="Helvetica,sans-Serif" font-size="10.00">src/UI/FPSCounter.cpp</text>
</a>
</g>
</g>
<!-- Node4&#45;&gt;Node18 -->
<g id="edge17" class="edge">
<title>Node4&#45;&gt;Node18</title>
<path fill="none" stroke="midnightblue" d="M1098.51,-60.34C1086.39,-48.4 1071.91,-34.14 1062.83,-25.19"/>
<polygon fill="midnightblue" stroke="midnightblue" points="1096.1,-62.87 1105.68,-67.4 1101.01,-57.89 1096.1,-62.87"/>
</g>
<!-- Node19&#45;&gt;Node4 -->
<g id="edge20" class="edge">
<title>Node19&#45;&gt;Node4</title>
<path fill="none" stroke="midnightblue" d="M1318.48,-137.32C1273.89,-125.23 1214.25,-109.06 1172.03,-97.61"/>
<polygon fill="midnightblue" stroke="midnightblue" points="1317.75,-140.75 1328.32,-139.99 1319.59,-133.99 1317.75,-140.75"/>
</g>
<!-- Node20 -->
<g id="node20" class="node">
<title>Node20</title>
<g id="a_node20"><a xlink:href="PhysicsSystem_8cpp.html" target="_top" xlink:title=" ">
<polygon fill="none" stroke="black" points="1302,-73 1302,-92 1458,-92 1458,-73 1302,-73"/>
<text text-anchor="middle" x="1380" y="-80" font-family="Helvetica,sans-Serif" font-size="10.00">src/Physics/PhysicsSystem.cpp</text>
</a>
</g>
</g>
<!-- Node19&#45;&gt;Node20 -->
<g id="edge19" class="edge">
<title>Node19&#45;&gt;Node20</title>
<path fill="none" stroke="midnightblue" d="M1380,-129.59C1380,-116.71 1380,-101.7 1380,-92.39"/>
<polygon fill="midnightblue" stroke="midnightblue" points="1376.5,-129.73 1380,-139.73 1383.5,-129.73 1376.5,-129.73"/>
</g>
<!-- Node21&#45;&gt;Node4 -->
<g id="edge23" class="edge">
<title>Node21&#45;&gt;Node4</title>
<path fill="none" stroke="midnightblue" d="M1059.97,-133.29C1073.86,-121.77 1090.78,-107.73 1103.11,-97.5"/>
<polygon fill="midnightblue" stroke="midnightblue" points="1057.66,-130.66 1052.2,-139.73 1062.13,-136.04 1057.66,-130.66"/>
</g>
<!-- Node21&#45;&gt;Node15 -->
<g id="edge22" class="edge">
<title>Node21&#45;&gt;Node15</title>
<path fill="none" stroke="midnightblue" d="M1022.13,-131.07C1009,-110.2 986.54,-80.63 958,-67 877.81,-28.69 247.35,-40.58 159,-31 145.76,-29.56 131.45,-27.35 118.45,-25.07"/>
<polygon fill="midnightblue" stroke="midnightblue" points="1019.17,-132.94 1027.33,-139.69 1025.16,-129.32 1019.17,-132.94"/>
</g>
<!-- Node22&#45;&gt;Node4 -->
<g id="edge26" class="edge">
<title>Node22&#45;&gt;Node4</title>
<path fill="none" stroke="midnightblue" d="M1180.73,-133.29C1166.68,-121.77 1149.56,-107.73 1137.08,-97.5"/>
<polygon fill="midnightblue" stroke="midnightblue" points="1178.64,-136.1 1188.6,-139.73 1183.08,-130.69 1178.64,-136.1"/>
</g>
<!-- Node22&#45;&gt;Node17 -->
<g id="edge25" class="edge">
<title>Node22&#45;&gt;Node17</title>
<path fill="none" stroke="midnightblue" d="M1221.06,-131.32C1236.39,-110.4 1262.23,-80.61 1293,-67 1447.22,1.21 1883.76,-52.66 2051,-31 2061.89,-29.59 2073.63,-27.35 2084.24,-25.05"/>
<polygon fill="midnightblue" stroke="midnightblue" points="1218.08,-129.48 1215.15,-139.66 1223.79,-133.52 1218.08,-129.48"/>
</g>
</g>
</svg>
        <g id="navigator" transform="translate(0 0)" fill="#404254">
                <rect fill="#f2f5e9" fill-opacity="0.5" stroke="#606060" stroke-width=".5" x="0" y="0" width="60" height="60"/>
                <use id="zoomplus" xlink:href="#zoomPlus" x="17" y="9" onmousedown="handleZoom(evt,'in')"/>
                <use id="zoomminus" xlink:href="#zoomMin" x="42" y="9" onmousedown="handleZoom(evt,'out')"/>
                <use id="reset" xlink:href="#resetDef" x="30" y="36" onmousedown="handleReset()"/>
                <g id="arrowUp" xlink:href="#dirArrow" transform="translate(30 24)" onmousedown="handlePan(0,-1)">
                  <use xlink:href="#rim" fill="#404040">
                        <set attributeName="fill" to="#808080" begin="arrowUp.mouseover" end="arrowUp.mouseout"/>
                  </use>
                  <path fill="none" stroke="white" stroke-width="1.5" d="M0,-3.0v7 M-2.5,-0.5L0,-3.0L2.5,-0.5"/>
                </g>
                <g id="arrowRight" xlink:href="#dirArrow" transform="rotate(90) translate(36 -43)" onmousedown="handlePan(1,0)">
                  <use xlink:href="#rim" fill="#404040">
                        <set attributeName="fill" to="#808080" begin="arrowRight.mouseover" end="arrowRight.mouseout"/>
                  </use>
                  <path fill="none" stroke="white" stroke-width="1.5" d="M0,-3.0v7 M-2.5,-0.5L0,-3.0L2.5,-0.5"/>
                </g>
                <g id="arrowDown" xlink:href="#dirArrow" transform="rotate(180) translate(-30 -48)" onmousedown="handlePan(0,1)">
                  <use xlink:href="#rim" fill="#404040">
                        <set attributeName="fill" to="#808080" begin="arrowDown.mouseover" end="arrowDown.mouseout"/>
                  </use>
                  <path fill="none" stroke="white" stroke-width="1.5" d="M0,-3.0v7 M-2.5,-0.5L0,-3.0L2.5,-0.5"/>
                </g>
                <g id="arrowLeft" xlink:href="#dirArrow" transform="rotate(270) translate(-36 17)" onmousedown="handlePan(-1,0)">
                  <use xlink:href="#rim" fill="#404040">
                        <set attributeName="fill" to="#808080" begin="arrowLeft.mouseover" end="arrowLeft.mouseout"/>
                  </use>
                  <path fill="none" stroke="white" stroke-width="1.5" d="M0,-3.0v7 M-2.5,-0.5L0,-3.0L2.5,-0.5"/>
                </g>
        </g>
        <svg viewBox="0 0 15 15" width="100%" height="30px" preserveAspectRatio="xMaxYMin meet">
         <g id="arrow_out" transform="scale(0.3 0.3)">
          <a xlink:href="ISystem_8hpp__dep__incl_org.svg" target="_base">
           <rect id="button" ry="5" rx="5" y="6" x="6" height="38" width="38"
                fill="#f2f5e9" fill-opacity="0.5" stroke="#606060" stroke-width="1.0"/>
           <path id="arrow"
             d="M 11.500037,31.436501 C 11.940474,20.09759 22.043105,11.32322 32.158766,21.979434 L 37.068811,17.246167 C 37.068811,17.246167 37.088388,32 37.088388,32 L 22.160133,31.978069 C 22.160133,31.978069 26.997745,27.140456 26.997745,27.140456 C 18.528582,18.264221 13.291696,25.230495 11.500037,31.436501 z"
             style="fill:#404040;"/>
          </a>
         </g>
        </svg>
</svg>
