<?xml version="1.0" encoding="UTF-8" standalone="no"?>
<!DOCTYPE svg PUBLIC "-//W3C//DTD SVG 1.1//EN"
 "http://www.w3.org/Graphics/SVG/1.1/DTD/svg11.dtd">
<!-- Generated by graphviz version 2.44.0 ()
 -->
<!-- Title: includes/platformer&#45;engine/GameLevel/Layer.hpp Pages: 1 -->
<!--zoomable 318 -->
<svg id="main" version="1.1" xmlns="http://www.w3.org/2000/svg" xmlns:xlink="http://www.w3.org/1999/xlink" xml:space="preserve" onload="init(evt)">
<style type="text/css"><![CDATA[
.edge:hover path { stroke: red; }
.edge:hover polygon { stroke: red; fill: red; }
]]></style>
<script type="text/javascript"><![CDATA[
var edges = document.getElementsByTagName('g');
if (edges && edges.length) {
  for (var i=0;i<edges.length;i++) {
    if (edges[i].id.substr(0,4)=='edge') {
      edges[i].setAttribute('class','edge');
    }
  }
}
]]></script>
        <defs>
                <circle id="rim" cx="0" cy="0" r="7"/>
                <circle id="rim2" cx="0" cy="0" r="3.5"/>
                <g id="zoomPlus">
                        <use xlink:href="#rim" fill="#404040">
                                <set attributeName="fill" to="#808080" begin="zoomplus.mouseover" end="zoomplus.mouseout"/>
                        </use>
                        <path d="M-4,0h8M0,-4v8" fill="none" stroke="white" stroke-width="1.5" pointer-events="none"/>
                </g>
                <g id="zoomMin">
                        <use xlink:href="#rim" fill="#404040">
                                <set attributeName="fill" to="#808080" begin="zoomminus.mouseover" end="zoomminus.mouseout"/>
                        </use>
                        <path d="M-4,0h8" fill="none" stroke="white" stroke-width="1.5" pointer-events="none"/>
                </g>
                <g id="dirArrow">
                        <path fill="none" stroke="white" stroke-width="1.5" d="M0,-3.0v7 M-2.5,-0.5L0,-3.0L2.5,-0.5"/>
                </g>
               <g id="resetDef">
                       <use xlink:href="#rim2" fill="#404040">
                               <set attributeName="fill" to="#808080" begin="reset.mouseover" end="reset.mouseout"/>
                       </use>
               </g>
        </defs>

<script type="text/javascript">
var viewWidth = 754;
var viewHeight = 318;
var sectionId = 'dynsection-0';
</script>
<script xlink:href="svgpan.js"/>
<svg id="graph" class="graph">
<g id="viewport">
<title>includes/platformer&#45;engine/GameLevel/Layer.hpp</title>
<!-- Node1 -->
<g id="node1" class="node">
<title>Node1</title>
<g id="a_node1"><a xlink:title=" ">
<polygon fill="#bfbfbf" stroke="black" points="409,-279.5 409,-309.5 555,-309.5 555,-279.5 409,-279.5"/>
<text text-anchor="start" x="417" y="-297.5" font-family="Helvetica,sans-Serif" font-size="10.00">includes/platformer</text>
<text text-anchor="middle" x="482" y="-286.5" font-family="Helvetica,sans-Serif" font-size="10.00">&#45;engine/GameLevel/Layer.hpp</text>
</a>
</g>
</g>
<!-- Node2 -->
<g id="node2" class="node">
<title>Node2</title>
<g id="a_node2"><a xlink:href="GameLevel_8hpp.html" target="_top" xlink:title=" ">
<polygon fill="none" stroke="black" points="302.5,-212.5 302.5,-242.5 475.5,-242.5 475.5,-212.5 302.5,-212.5"/>
<text text-anchor="start" x="310.5" y="-230.5" font-family="Helvetica,sans-Serif" font-size="10.00">includes/platformer</text>
<text text-anchor="middle" x="389" y="-219.5" font-family="Helvetica,sans-Serif" font-size="10.00">&#45;engine/GameLevel/GameLevel.hpp</text>
</a>
</g>
</g>
<!-- Node1&#45;&gt;Node2 -->
<g id="edge1" class="edge">
<title>Node1&#45;&gt;Node2</title>
<path fill="none" stroke="midnightblue" d="M453.31,-273.45C439.01,-263.45 422.05,-251.6 409.14,-242.58"/>
<polygon fill="midnightblue" stroke="midnightblue" points="451.62,-276.54 461.82,-279.4 455.63,-270.8 451.62,-276.54"/>
</g>
<!-- Node13 -->
<g id="node13" class="node">
<title>Node13</title>
<g id="a_node13"><a xlink:href="TileLayer_8hpp.html" target="_top" xlink:title=" ">
<polygon fill="none" stroke="black" points="494,-212.5 494,-242.5 656,-242.5 656,-212.5 494,-212.5"/>
<text text-anchor="start" x="502" y="-230.5" font-family="Helvetica,sans-Serif" font-size="10.00">includes/platformer</text>
<text text-anchor="middle" x="575" y="-219.5" font-family="Helvetica,sans-Serif" font-size="10.00">&#45;engine/GameLevel/TileLayer.hpp</text>
</a>
</g>
</g>
<!-- Node1&#45;&gt;Node13 -->
<g id="edge15" class="edge">
<title>Node1&#45;&gt;Node13</title>
<path fill="none" stroke="midnightblue" d="M510.69,-273.45C524.99,-263.45 541.95,-251.6 554.86,-242.58"/>
<polygon fill="midnightblue" stroke="midnightblue" points="508.37,-270.8 502.18,-279.4 512.38,-276.54 508.37,-270.8"/>
</g>
<!-- Node3 -->
<g id="node3" class="node">
<title>Node3</title>
<g id="a_node3"><a xlink:href="Engine_8hpp.html" target="_top" xlink:title=" ">
<polygon fill="none" stroke="black" points="159.5,-140 159.5,-170 290.5,-170 290.5,-140 159.5,-140"/>
<text text-anchor="start" x="167.5" y="-158" font-family="Helvetica,sans-Serif" font-size="10.00">includes/platformer</text>
<text text-anchor="middle" x="225" y="-147" font-family="Helvetica,sans-Serif" font-size="10.00">&#45;engine/Engine/Engine.hpp</text>
</a>
</g>
</g>
<!-- Node2&#45;&gt;Node3 -->
<g id="edge2" class="edge">
<title>Node2&#45;&gt;Node3</title>
<path fill="none" stroke="midnightblue" d="M346.76,-208.34C319.04,-196.42 283.31,-181.07 257.74,-170.07"/>
<polygon fill="midnightblue" stroke="midnightblue" points="345.64,-211.67 356.21,-212.4 348.4,-205.24 345.64,-211.67"/>
</g>
<!-- Node6 -->
<g id="node6" class="node">
<title>Node6</title>
<g id="a_node6"><a xlink:href="TMXParser_8hpp.html" target="_top" xlink:title=" ">
<polygon fill="none" stroke="black" points="422,-62 422,-92 576,-92 576,-62 422,-62"/>
<text text-anchor="start" x="430" y="-80" font-family="Helvetica,sans-Serif" font-size="10.00">includes/platformer</text>
<text text-anchor="middle" x="499" y="-69" font-family="Helvetica,sans-Serif" font-size="10.00">&#45;engine/Facade/TMXParser.hpp</text>
</a>
</g>
</g>
<!-- Node2&#45;&gt;Node6 -->
<g id="edge5" class="edge">
<title>Node2&#45;&gt;Node6</title>
<path fill="none" stroke="midnightblue" d="M389.16,-202.16C390.42,-182.2 394.87,-154.06 409,-134 422.25,-115.19 444.01,-101.4 462.82,-92.21"/>
<polygon fill="midnightblue" stroke="midnightblue" points="385.66,-202.17 388.75,-212.3 392.66,-202.45 385.66,-202.17"/>
</g>
<!-- Node9 -->
<g id="node9" class="node">
<title>Node9</title>
<g id="a_node9"><a xlink:href="AbstractLevelParser_8hpp.html" target="_top" xlink:title=" ">
<polygon fill="none" stroke="black" points="418.5,-134.5 418.5,-175.5 545.5,-175.5 545.5,-134.5 418.5,-134.5"/>
<text text-anchor="start" x="426.5" y="-163.5" font-family="Helvetica,sans-Serif" font-size="10.00">includes/platformer</text>
<text text-anchor="start" x="426.5" y="-152.5" font-family="Helvetica,sans-Serif" font-size="10.00">&#45;engine/LevelParser</text>
<text text-anchor="middle" x="482" y="-141.5" font-family="Helvetica,sans-Serif" font-size="10.00">/AbstractLevelParser.hpp</text>
</a>
</g>
</g>
<!-- Node2&#45;&gt;Node9 -->
<g id="edge8" class="edge">
<title>Node2&#45;&gt;Node9</title>
<path fill="none" stroke="midnightblue" d="M416.13,-205.93C428.76,-196.36 443.7,-185.03 456.16,-175.59"/>
<polygon fill="midnightblue" stroke="midnightblue" points="413.67,-203.4 407.82,-212.23 417.9,-208.98 413.67,-203.4"/>
</g>
<!-- Node10 -->
<g id="node10" class="node">
<title>Node10</title>
<g id="a_node10"><a xlink:href="LevelParser_8hpp.html" target="_top" xlink:title=" ">
<polygon fill="none" stroke="black" points="300,-56.5 300,-97.5 404,-97.5 404,-56.5 300,-56.5"/>
<text text-anchor="start" x="308" y="-85.5" font-family="Helvetica,sans-Serif" font-size="10.00">includes/platformer</text>
<text text-anchor="start" x="308" y="-74.5" font-family="Helvetica,sans-Serif" font-size="10.00">&#45;engine/LevelParser</text>
<text text-anchor="middle" x="352" y="-63.5" font-family="Helvetica,sans-Serif" font-size="10.00">/LevelParser.hpp</text>
</a>
</g>
</g>
<!-- Node2&#45;&gt;Node10 -->
<g id="edge10" class="edge">
<title>Node2&#45;&gt;Node10</title>
<path fill="none" stroke="midnightblue" d="M382.76,-202.48C380.59,-194.11 378.17,-184.64 376,-176 369.17,-148.82 361.5,-117.33 356.71,-97.54"/>
<polygon fill="midnightblue" stroke="midnightblue" points="379.42,-203.56 385.31,-212.36 386.2,-201.8 379.42,-203.56"/>
</g>
<!-- Node4 -->
<g id="node4" class="node">
<title>Node4</title>
<g id="a_node4"><a xlink:href="Engine_8cpp.html" target="_top" xlink:title=" ">
<polygon fill="none" stroke="black" points="168.5,-67.5 168.5,-86.5 281.5,-86.5 281.5,-67.5 168.5,-67.5"/>
<text text-anchor="middle" x="225" y="-74.5" font-family="Helvetica,sans-Serif" font-size="10.00">src/Engine/Engine.cpp</text>
</a>
</g>
</g>
<!-- Node3&#45;&gt;Node4 -->
<g id="edge3" class="edge">
<title>Node3&#45;&gt;Node4</title>
<path fill="none" stroke="midnightblue" d="M225,-129.67C225,-114.9 225,-96.95 225,-86.56"/>
<polygon fill="midnightblue" stroke="midnightblue" points="221.5,-129.7 225,-139.7 228.5,-129.71 221.5,-129.7"/>
</g>
<!-- Node5 -->
<g id="node5" class="node">
<title>Node5</title>
<g id="a_node5"><a xlink:href="RenderSystem_8cpp.html" target="_top" xlink:title=" ">
<polygon fill="none" stroke="black" points="0,-67.5 0,-86.5 150,-86.5 150,-67.5 0,-67.5"/>
<text text-anchor="middle" x="75" y="-74.5" font-family="Helvetica,sans-Serif" font-size="10.00">src/Texture/RenderSystem.cpp</text>
</a>
</g>
</g>
<!-- Node3&#45;&gt;Node5 -->
<g id="edge4" class="edge">
<title>Node3&#45;&gt;Node5</title>
<path fill="none" stroke="midnightblue" d="M188.03,-135.27C157.37,-119.73 115.18,-98.36 91.99,-86.61"/>
<polygon fill="midnightblue" stroke="midnightblue" points="186.64,-138.49 197.14,-139.88 189.8,-132.24 186.64,-138.49"/>
</g>
<!-- Node7 -->
<g id="node7" class="node">
<title>Node7</title>
<g id="a_node7"><a xlink:href="TMXParser_8cpp.html" target="_top" xlink:title=" ">
<polygon fill="none" stroke="black" points="355,-0.5 355,-19.5 491,-19.5 491,-0.5 355,-0.5"/>
<text text-anchor="middle" x="423" y="-7.5" font-family="Helvetica,sans-Serif" font-size="10.00">src/Facade/TMXParser.cpp</text>
</a>
</g>
</g>
<!-- Node6&#45;&gt;Node7 -->
<g id="edge6" class="edge">
<title>Node6&#45;&gt;Node7</title>
<path fill="none" stroke="midnightblue" d="M474.65,-55.17C460.61,-43.17 443.72,-28.72 433.17,-19.69"/>
<polygon fill="midnightblue" stroke="midnightblue" points="472.63,-58.06 482.51,-61.9 477.18,-52.74 472.63,-58.06"/>
</g>
<!-- Node8 -->
<g id="node8" class="node">
<title>Node8</title>
<g id="a_node8"><a xlink:href="LevelParser_8cpp.html" target="_top" xlink:title=" ">
<polygon fill="none" stroke="black" points="509.5,-0.5 509.5,-19.5 668.5,-19.5 668.5,-0.5 509.5,-0.5"/>
<text text-anchor="middle" x="589" y="-7.5" font-family="Helvetica,sans-Serif" font-size="10.00">src/LevelParser/LevelParser.cpp</text>
</a>
</g>
</g>
<!-- Node6&#45;&gt;Node8 -->
<g id="edge7" class="edge">
<title>Node6&#45;&gt;Node8</title>
<path fill="none" stroke="midnightblue" d="M526.96,-55.81C543.86,-43.6 564.52,-28.68 577.22,-19.51"/>
<polygon fill="midnightblue" stroke="midnightblue" points="524.59,-53.2 518.53,-61.9 528.68,-58.88 524.59,-53.2"/>
</g>
<!-- Node9&#45;&gt;Node6 -->
<g id="edge9" class="edge">
<title>Node9&#45;&gt;Node6</title>
<path fill="none" stroke="midnightblue" d="M488.57,-124.62C491.06,-113.5 493.78,-101.34 495.82,-92.23"/>
<polygon fill="midnightblue" stroke="midnightblue" points="485.15,-123.91 486.38,-134.43 491.98,-125.43 485.15,-123.91"/>
</g>
<!-- Node10&#45;&gt;Node7 -->
<g id="edge11" class="edge">
<title>Node10&#45;&gt;Node7</title>
<path fill="none" stroke="midnightblue" d="M380.78,-49.65C392.47,-38.95 405.16,-27.33 413.55,-19.65"/>
<polygon fill="midnightblue" stroke="midnightblue" points="378.31,-47.16 373.3,-56.5 383.04,-52.33 378.31,-47.16"/>
</g>
<!-- Node10&#45;&gt;Node8 -->
<g id="edge12" class="edge">
<title>Node10&#45;&gt;Node8</title>
<path fill="none" stroke="midnightblue" d="M413.82,-55.84C467.27,-40.45 519.05,-27.61 552.74,-19.52"/>
<polygon fill="midnightblue" stroke="midnightblue" points="412.8,-52.49 404.17,-58.64 414.75,-59.22 412.8,-52.49"/>
</g>
<!-- Node11 -->
<g id="node11" class="node">
<title>Node11</title>
<g id="a_node11"><a xlink:href="Window_8cpp.html" target="_top" xlink:title=" ">
<polygon fill="none" stroke="black" points="89.5,-0.5 89.5,-19.5 208.5,-19.5 208.5,-0.5 89.5,-0.5"/>
<text text-anchor="middle" x="149" y="-7.5" font-family="Helvetica,sans-Serif" font-size="10.00">src/Render/Window.cpp</text>
</a>
</g>
</g>
<!-- Node10&#45;&gt;Node11 -->
<g id="edge13" class="edge">
<title>Node10&#45;&gt;Node11</title>
<path fill="none" stroke="midnightblue" d="M290.3,-56.1C290.2,-56.06 290.1,-56.03 290,-56 250.24,-43.24 204.14,-28.55 175.78,-19.52"/>
<polygon fill="midnightblue" stroke="midnightblue" points="289.32,-59.46 299.91,-59.18 291.46,-52.79 289.32,-59.46"/>
</g>
<!-- Node12 -->
<g id="node12" class="node">
<title>Node12</title>
<g id="a_node12"><a xlink:href="Scene_8cpp.html" target="_top" xlink:title=" ">
<polygon fill="none" stroke="black" points="227,-0.5 227,-19.5 337,-19.5 337,-0.5 227,-0.5"/>
<text text-anchor="middle" x="282" y="-7.5" font-family="Helvetica,sans-Serif" font-size="10.00">src/Scene/Scene.cpp</text>
</a>
</g>
</g>
<!-- Node10&#45;&gt;Node12 -->
<g id="edge14" class="edge">
<title>Node10&#45;&gt;Node12</title>
<path fill="none" stroke="midnightblue" d="M323.62,-49.65C312.1,-38.95 299.58,-27.33 291.32,-19.65"/>
<polygon fill="midnightblue" stroke="midnightblue" points="321.29,-52.26 331,-56.5 326.05,-47.13 321.29,-52.26"/>
</g>
<!-- Node13&#45;&gt;Node6 -->
<g id="edge17" class="edge">
<title>Node13&#45;&gt;Node6</title>
<path fill="none" stroke="midnightblue" d="M573.17,-202.35C570.86,-182.89 565.67,-155.36 554,-134 544.99,-117.5 529.71,-102.51 517.54,-92.21"/>
<polygon fill="midnightblue" stroke="midnightblue" points="569.71,-202.9 574.2,-212.5 576.67,-202.2 569.71,-202.9"/>
</g>
<!-- Node14 -->
<g id="node14" class="node">
<title>Node14</title>
<g id="a_node14"><a xlink:href="TileLayer_8cpp.html" target="_top" xlink:title=" ">
<polygon fill="none" stroke="black" points="602,-145.5 602,-164.5 746,-164.5 746,-145.5 602,-145.5"/>
<text text-anchor="middle" x="674" y="-152.5" font-family="Helvetica,sans-Serif" font-size="10.00">src/GameLevel/TileLayer.cpp</text>
</a>
</g>
</g>
<!-- Node13&#45;&gt;Node14 -->
<g id="edge16" class="edge">
<title>Node13&#45;&gt;Node14</title>
<path fill="none" stroke="midnightblue" d="M603.22,-206.4C622.57,-192.62 647.28,-175.03 661.8,-164.69"/>
<polygon fill="midnightblue" stroke="midnightblue" points="601.15,-203.58 595.03,-212.23 605.21,-209.28 601.15,-203.58"/>
</g>
</g>
</svg>
        <g id="navigator" transform="translate(0 0)" fill="#404254">
                <rect fill="#f2f5e9" fill-opacity="0.5" stroke="#606060" stroke-width=".5" x="0" y="0" width="60" height="60"/>
                <use id="zoomplus" xlink:href="#zoomPlus" x="17" y="9" onmousedown="handleZoom(evt,'in')"/>
                <use id="zoomminus" xlink:href="#zoomMin" x="42" y="9" onmousedown="handleZoom(evt,'out')"/>
                <use id="reset" xlink:href="#resetDef" x="30" y="36" onmousedown="handleReset()"/>
                <g id="arrowUp" xlink:href="#dirArrow" transform="translate(30 24)" onmousedown="handlePan(0,-1)">
                  <use xlink:href="#rim" fill="#404040">
                        <set attributeName="fill" to="#808080" begin="arrowUp.mouseover" end="arrowUp.mouseout"/>
                  </use>
                  <path fill="none" stroke="white" stroke-width="1.5" d="M0,-3.0v7 M-2.5,-0.5L0,-3.0L2.5,-0.5"/>
                </g>
                <g id="arrowRight" xlink:href="#dirArrow" transform="rotate(90) translate(36 -43)" onmousedown="handlePan(1,0)">
                  <use xlink:href="#rim" fill="#404040">
                        <set attributeName="fill" to="#808080" begin="arrowRight.mouseover" end="arrowRight.mouseout"/>
                  </use>
                  <path fill="none" stroke="white" stroke-width="1.5" d="M0,-3.0v7 M-2.5,-0.5L0,-3.0L2.5,-0.5"/>
                </g>
                <g id="arrowDown" xlink:href="#dirArrow" transform="rotate(180) translate(-30 -48)" onmousedown="handlePan(0,1)">
                  <use xlink:href="#rim" fill="#404040">
                        <set attributeName="fill" to="#808080" begin="arrowDown.mouseover" end="arrowDown.mouseout"/>
                  </use>
                  <path fill="none" stroke="white" stroke-width="1.5" d="M0,-3.0v7 M-2.5,-0.5L0,-3.0L2.5,-0.5"/>
                </g>
                <g id="arrowLeft" xlink:href="#dirArrow" transform="rotate(270) translate(-36 17)" onmousedown="handlePan(-1,0)">
                  <use xlink:href="#rim" fill="#404040">
                        <set attributeName="fill" to="#808080" begin="arrowLeft.mouseover" end="arrowLeft.mouseout"/>
                  </use>
                  <path fill="none" stroke="white" stroke-width="1.5" d="M0,-3.0v7 M-2.5,-0.5L0,-3.0L2.5,-0.5"/>
                </g>
        </g>
        <svg viewBox="0 0 15 15" width="100%" height="30px" preserveAspectRatio="xMaxYMin meet">
         <g id="arrow_out" transform="scale(0.3 0.3)">
          <a xlink:href="Layer_8hpp__dep__incl_org.svg" target="_base">
           <rect id="button" ry="5" rx="5" y="6" x="6" height="38" width="38"
                fill="#f2f5e9" fill-opacity="0.5" stroke="#606060" stroke-width="1.0"/>
           <path id="arrow"
             d="M 11.500037,31.436501 C 11.940474,20.09759 22.043105,11.32322 32.158766,21.979434 L 37.068811,17.246167 C 37.068811,17.246167 37.088388,32 37.088388,32 L 22.160133,31.978069 C 22.160133,31.978069 26.997745,27.140456 26.997745,27.140456 C 18.528582,18.264221 13.291696,25.230495 11.500037,31.436501 z"
             style="fill:#404040;"/>
          </a>
         </g>
        </svg>
</svg>
