<svg xmlns="http://www.w3.org/2000/svg" xmlns:xlink="http://www.w3.org/1999/xlink" width="1452" height="424" viewBox="0 0 1088.5 318"><g id="graph0" class="graph" transform="scale(1 1) rotate(0) translate(4 314)"><title>includes/platformer-engine/GameLevel/Layer.hpp</title><g id="node1" class="node"><title>Node1</title><g id="a_node1"><a><polygon fill="#bfbfbf" stroke="#000" points="743.5 -279.5 743.5 -309.5 889.5 -309.5 889.5 -279.5 743.5 -279.5"/><text x="751.5" y="-297.5" font-family="Helvetica,sans-Serif" font-size="10" text-anchor="start">includes/platformer</text><text x="816.5" y="-286.5" font-family="Helvetica,sans-Serif" font-size="10" text-anchor="middle">-engine/GameLevel/Layer.hpp</text></a></g></g><g id="node2" class="node"><title>Node2</title><g id="a_node2"><a target="_top" xlink:href="GameLevel_8hpp.html"><polygon fill="none" stroke="#000" points="637 -212.5 637 -242.5 810 -242.5 810 -212.5 637 -212.5"/><text x="645" y="-230.5" font-family="Helvetica,sans-Serif" font-size="10" text-anchor="start">includes/platformer</text><text x="723.5" y="-219.5" font-family="Helvetica,sans-Serif" font-size="10" text-anchor="middle">-engine/GameLevel/GameLevel.hpp</text></a></g></g><g id="edge1" class="edge"><title>Node1-&gt;Node2</title><path fill="none" stroke="#191970" d="M787.81,-273.45C773.51,-263.45 756.55,-251.6 743.64,-242.58"/><polygon fill="#191970" stroke="#191970" points="786.12 -276.54 796.32 -279.4 790.13 -270.8 786.12 -276.54"/></g><g id="node15" class="node"><title>Node15</title><g id="a_node15"><a target="_top" xlink:href="TileLayer_8hpp.html"><polygon fill="none" stroke="#000" points="828.5 -212.5 828.5 -242.5 990.5 -242.5 990.5 -212.5 828.5 -212.5"/><text x="836.5" y="-230.5" font-family="Helvetica,sans-Serif" font-size="10" text-anchor="start">includes/platformer</text><text x="909.5" y="-219.5" font-family="Helvetica,sans-Serif" font-size="10" text-anchor="middle">-engine/GameLevel/TileLayer.hpp</text></a></g></g><g id="edge17" class="edge"><title>Node1-&gt;Node15</title><path fill="none" stroke="#191970" d="M845.19,-273.45C859.49,-263.45 876.45,-251.6 889.36,-242.58"/><polygon fill="#191970" stroke="#191970" points="842.87 -270.8 836.68 -279.4 846.88 -276.54 842.87 -270.8"/></g><g id="node3" class="node"><title>Node3</title><g id="a_node3"><a target="_top" xlink:href="Engine_8hpp.html"><polygon fill="none" stroke="#000" points="344 -140 344 -170 475 -170 475 -140 344 -140"/><text x="352" y="-158" font-family="Helvetica,sans-Serif" font-size="10" text-anchor="start">includes/platformer</text><text x="409.5" y="-147" font-family="Helvetica,sans-Serif" font-size="10" text-anchor="middle">-engine/Engine/Engine.hpp</text></a></g></g><g id="edge2" class="edge"><title>Node2-&gt;Node3</title><path fill="none" stroke="#191970" d="M651.21,-210.27C597.06,-198.11 523.71,-181.64 472.06,-170.05"/><polygon fill="#191970" stroke="#191970" points="650.56 -213.71 661.09 -212.49 652.1 -206.88 650.56 -213.71"/></g><g id="node8" class="node"><title>Node8</title><g id="a_node8"><a target="_top" xlink:href="TMXParser_8hpp.html"><polygon fill="none" stroke="#000" points="756.5 -62 756.5 -92 910.5 -92 910.5 -62 756.5 -62"/><text x="764.5" y="-80" font-family="Helvetica,sans-Serif" font-size="10" text-anchor="start">includes/platformer</text><text x="833.5" y="-69" font-family="Helvetica,sans-Serif" font-size="10" text-anchor="middle">-engine/Facade/TMXParser.hpp</text></a></g></g><g id="edge7" class="edge"><title>Node2-&gt;Node8</title><path fill="none" stroke="#191970" d="M723.66,-202.16C724.92,-182.2 729.37,-154.06 743.5,-134 756.75,-115.19 778.51,-101.4 797.32,-92.21"/><polygon fill="#191970" stroke="#191970" points="720.16 -202.17 723.25 -212.3 727.16 -202.45 720.16 -202.17"/></g><g id="node11" class="node"><title>Node11</title><g id="a_node11"><a target="_top" xlink:href="AbstractLevelParser_8hpp.html"><polygon fill="none" stroke="#000" points="753 -134.5 753 -175.5 880 -175.5 880 -134.5 753 -134.5"/><text x="761" y="-163.5" font-family="Helvetica,sans-Serif" font-size="10" text-anchor="start">includes/platformer</text><text x="761" y="-152.5" font-family="Helvetica,sans-Serif" font-size="10" text-anchor="start">-engine/LevelParser</text><text x="816.5" y="-141.5" font-family="Helvetica,sans-Serif" font-size="10" text-anchor="middle">/AbstractLevelParser.hpp</text></a></g></g><g id="edge10" class="edge"><title>Node2-&gt;Node11</title><path fill="none" stroke="#191970" d="M750.63,-205.93C763.26,-196.36 778.2,-185.03 790.66,-175.59"/><polygon fill="#191970" stroke="#191970" points="748.17 -203.4 742.32 -212.23 752.4 -208.98 748.17 -203.4"/></g><g id="node12" class="node"><title>Node12</title><g id="a_node12"><a target="_top" xlink:href="LevelParser_8hpp.html"><polygon fill="none" stroke="#000" points="634.5 -56.5 634.5 -97.5 738.5 -97.5 738.5 -56.5 634.5 -56.5"/><text x="642.5" y="-85.5" font-family="Helvetica,sans-Serif" font-size="10" text-anchor="start">includes/platformer</text><text x="642.5" y="-74.5" font-family="Helvetica,sans-Serif" font-size="10" text-anchor="start">-engine/LevelParser</text><text x="686.5" y="-63.5" font-family="Helvetica,sans-Serif" font-size="10" text-anchor="middle">/LevelParser.hpp</text></a></g></g><g id="edge12" class="edge"><title>Node2-&gt;Node12</title><path fill="none" stroke="#191970" d="M717.26,-202.48C715.09,-194.11 712.67,-184.64 710.5,-176 703.67,-148.82 696,-117.33 691.21,-97.54"/><polygon fill="#191970" stroke="#191970" points="713.92 -203.56 719.81 -212.36 720.7 -201.8 713.92 -203.56"/></g><g id="node4" class="node"><title>Node4</title><g id="a_node4"><a target="_top" xlink:href="Engine_8cpp.html"><polygon fill="none" stroke="#000" points="503 -67.5 503 -86.5 616 -86.5 616 -67.5 503 -67.5"/><text x="559.5" y="-74.5" font-family="Helvetica,sans-Serif" font-size="10" text-anchor="middle">src/Engine/Engine.cpp</text></a></g></g><g id="edge3" class="edge"><title>Node3-&gt;Node4</title><path fill="none" stroke="#191970" d="M446.47,-135.27C477.13,-119.73 519.32,-98.36 542.51,-86.61"/><polygon fill="#191970" stroke="#191970" points="444.7 -132.24 437.36 -139.88 447.86 -138.49 444.7 -132.24"/></g><g id="node5" class="node"><title>Node5</title><g id="a_node5"><a target="_top" xlink:href="ClientNetworkManager_8cpp.html"><polygon fill="none" stroke="#000" points="0 -62 0 -92 147 -92 147 -62 0 -62"/><text x="8" y="-80" font-family="Helvetica,sans-Serif" font-size="10" text-anchor="start">src/Networking/ClientNetwork</text><text x="73.5" y="-69" font-family="Helvetica,sans-Serif" font-size="10" text-anchor="middle">Manager.cpp</text></a></g></g><g id="edge4" class="edge"><title>Node3-&gt;Node5</title><path fill="none" stroke="#191970" d="M334.02,-137.82C283.44,-126.86 215.4,-111.91 155.5,-98 147.36,-96.11 138.79,-94.07 130.37,-92.04"/><polygon fill="#191970" stroke="#191970" points="333.38 -141.26 343.89 -139.95 334.86 -134.42 333.38 -141.26"/></g><g id="node6" class="node"><title>Node6</title><g id="a_node6"><a target="_top" xlink:href="ServerNetworkManager_8cpp.html"><polygon fill="none" stroke="#000" points="165 -62 165 -92 316 -92 316 -62 165 -62"/><text x="173" y="-80" font-family="Helvetica,sans-Serif" font-size="10" text-anchor="start">src/Networking/ServerNetwork</text><text x="240.5" y="-69" font-family="Helvetica,sans-Serif" font-size="10" text-anchor="middle">Manager.cpp</text></a></g></g><g id="edge5" class="edge"><title>Node3-&gt;Node6</title><path fill="none" stroke="#191970" d="M368.8,-135.7C338.97,-122.28 299.06,-104.34 271.72,-92.04"/><polygon fill="#191970" stroke="#191970" points="367.55 -138.97 378.11 -139.88 370.42 -132.59 367.55 -138.97"/></g><g id="node7" class="node"><title>Node7</title><g id="a_node7"><a target="_top" xlink:href="RenderSystem_8cpp.html"><polygon fill="none" stroke="#000" points="334.5 -67.5 334.5 -86.5 484.5 -86.5 484.5 -67.5 334.5 -67.5"/><text x="409.5" y="-74.5" font-family="Helvetica,sans-Serif" font-size="10" text-anchor="middle">src/Texture/RenderSystem.cpp</text></a></g></g><g id="edge6" class="edge"><title>Node3-&gt;Node7</title><path fill="none" stroke="#191970" d="M409.5,-129.67C409.5,-114.9 409.5,-96.95 409.5,-86.56"/><polygon fill="#191970" stroke="#191970" points="406 -129.7 409.5 -139.7 413 -129.71 406 -129.7"/></g><g id="node9" class="node"><title>Node9</title><g id="a_node9"><a target="_top" xlink:href="TMXParser_8cpp.html"><polygon fill="none" stroke="#000" points="688.5 -.5 688.5 -19.5 824.5 -19.5 824.5 -.5 688.5 -.5"/><text x="756.5" y="-7.5" font-family="Helvetica,sans-Serif" font-size="10" text-anchor="middle">src/Facade/TMXParser.cpp</text></a></g></g><g id="edge8" class="edge"><title>Node8-&gt;Node9</title><path fill="none" stroke="#191970" d="M808.83,-55.17C794.61,-43.17 777.49,-28.72 766.8,-19.69"/><polygon fill="#191970" stroke="#191970" points="806.89 -58.12 816.79 -61.9 811.41 -52.77 806.89 -58.12"/></g><g id="node10" class="node"><title>Node10</title><g id="a_node10"><a target="_top" xlink:href="LevelParser_8cpp.html"><polygon fill="none" stroke="#000" points="843 -.5 843 -19.5 1002 -19.5 1002 -.5 843 -.5"/><text x="922.5" y="-7.5" font-family="Helvetica,sans-Serif" font-size="10" text-anchor="middle">src/LevelParser/LevelParser.cpp</text></a></g></g><g id="edge9" class="edge"><title>Node8-&gt;Node10</title><path fill="none" stroke="#191970" d="M861.15,-55.81C877.86,-43.6 898.3,-28.68 910.85,-19.51"/><polygon fill="#191970" stroke="#191970" points="858.82 -53.17 852.81 -61.9 862.95 -58.82 858.82 -53.17"/></g><g id="edge11" class="edge"><title>Node11-&gt;Node8</title><path fill="none" stroke="#191970" d="M823.07,-124.62C825.56,-113.5 828.28,-101.34 830.32,-92.23"/><polygon fill="#191970" stroke="#191970" points="819.65 -123.91 820.88 -134.43 826.48 -125.43 819.65 -123.91"/></g><g id="edge13" class="edge"><title>Node12-&gt;Node9</title><path fill="none" stroke="#191970" d="M714.88,-49.65C726.4,-38.95 738.92,-27.33 747.18,-19.65"/><polygon fill="#191970" stroke="#191970" points="712.45 -47.13 707.5 -56.5 717.21 -52.26 712.45 -47.13"/></g><g id="edge14" class="edge"><title>Node12-&gt;Node10</title><path fill="none" stroke="#191970" d="M748.6,-55.76C801.69,-40.44 853.02,-27.63 886.45,-19.54"/><polygon fill="#191970" stroke="#191970" points="747.3 -52.49 738.67 -58.65 749.25 -59.21 747.3 -52.49"/></g><g id="node13" class="node"><title>Node13</title><g id="a_node13"><a target="_top" xlink:href="Window_8cpp.html"><polygon fill="none" stroke="#000" points="423 -.5 423 -19.5 542 -19.5 542 -.5 423 -.5"/><text x="482.5" y="-7.5" font-family="Helvetica,sans-Serif" font-size="10" text-anchor="middle">src/Render/Window.cpp</text></a></g></g><g id="edge15" class="edge"><title>Node12-&gt;Node13</title><path fill="none" stroke="#191970" d="M624.8,-56.1C624.7,-56.06 624.6,-56.03 624.5,-56 584.47,-43.2 538.05,-28.52 509.47,-19.5"/><polygon fill="#191970" stroke="#191970" points="623.82 -59.46 634.41 -59.18 625.96 -52.79 623.82 -59.46"/></g><g id="node14" class="node"><title>Node14</title><g id="a_node14"><a target="_top" xlink:href="Scene_8cpp.html"><polygon fill="none" stroke="#000" points="560.5 -.5 560.5 -19.5 670.5 -19.5 670.5 -.5 560.5 -.5"/><text x="615.5" y="-7.5" font-family="Helvetica,sans-Serif" font-size="10" text-anchor="middle">src/Scene/Scene.cpp</text></a></g></g><g id="edge16" class="edge"><title>Node12-&gt;Node14</title><path fill="none" stroke="#191970" d="M657.72,-49.65C646.03,-38.95 633.34,-27.33 624.95,-19.65"/><polygon fill="#191970" stroke="#191970" points="655.46 -52.33 665.2 -56.5 660.19 -47.16 655.46 -52.33"/></g><g id="edge19" class="edge"><title>Node15-&gt;Node8</title><path fill="none" stroke="#191970" d="M907.67,-202.35C905.36,-182.89 900.17,-155.36 888.5,-134 879.49,-117.5 864.21,-102.51 852.04,-92.21"/><polygon fill="#191970" stroke="#191970" points="904.21 -202.9 908.7 -212.5 911.17 -202.2 904.21 -202.9"/></g><g id="node16" class="node"><title>Node16</title><g id="a_node16"><a target="_top" xlink:href="TileLayer_8cpp.html"><polygon fill="none" stroke="#000" points="936.5 -145.5 936.5 -164.5 1080.5 -164.5 1080.5 -145.5 936.5 -145.5"/><text x="1008.5" y="-152.5" font-family="Helvetica,sans-Serif" font-size="10" text-anchor="middle">src/GameLevel/TileLayer.cpp</text></a></g></g><g id="edge18" class="edge"><title>Node15-&gt;Node16</title><path fill="none" stroke="#191970" d="M937.72,-206.4C957.07,-192.62 981.78,-175.03 996.3,-164.69"/><polygon fill="#191970" stroke="#191970" points="935.65 -203.58 929.53 -212.23 939.71 -209.28 935.65 -203.58"/></g></g></svg>