<?xml version="1.0" encoding="UTF-8" standalone="no"?>
<!DOCTYPE svg PUBLIC "-//W3C//DTD SVG 1.1//EN"
 "http://www.w3.org/Graphics/SVG/1.1/DTD/svg11.dtd">
<!-- Generated by graphviz version 2.44.0 ()
 -->
<!-- Title: src/LevelParser/LevelParser.cpp Pages: 1 -->
<!--zoomable 274 -->
<svg id="main" version="1.1" xmlns="http://www.w3.org/2000/svg" xmlns:xlink="http://www.w3.org/1999/xlink" xml:space="preserve" onload="init(evt)">
<style type="text/css"><![CDATA[
.edge:hover path { stroke: red; }
.edge:hover polygon { stroke: red; fill: red; }
]]></style>
<script type="text/javascript"><![CDATA[
var edges = document.getElementsByTagName('g');
if (edges && edges.length) {
  for (var i=0;i<edges.length;i++) {
    if (edges[i].id.substr(0,4)=='edge') {
      edges[i].setAttribute('class','edge');
    }
  }
}
]]></script>
        <defs>
                <circle id="rim" cx="0" cy="0" r="7"/>
                <circle id="rim2" cx="0" cy="0" r="3.5"/>
                <g id="zoomPlus">
                        <use xlink:href="#rim" fill="#404040">
                                <set attributeName="fill" to="#808080" begin="zoomplus.mouseover" end="zoomplus.mouseout"/>
                        </use>
                        <path d="M-4,0h8M0,-4v8" fill="none" stroke="white" stroke-width="1.5" pointer-events="none"/>
                </g>
                <g id="zoomMin">
                        <use xlink:href="#rim" fill="#404040">
                                <set attributeName="fill" to="#808080" begin="zoomminus.mouseover" end="zoomminus.mouseout"/>
                        </use>
                        <path d="M-4,0h8" fill="none" stroke="white" stroke-width="1.5" pointer-events="none"/>
                </g>
                <g id="dirArrow">
                        <path fill="none" stroke="white" stroke-width="1.5" d="M0,-3.0v7 M-2.5,-0.5L0,-3.0L2.5,-0.5"/>
                </g>
               <g id="resetDef">
                       <use xlink:href="#rim2" fill="#404040">
                               <set attributeName="fill" to="#808080" begin="reset.mouseover" end="reset.mouseout"/>
                       </use>
               </g>
        </defs>

<script type="text/javascript">
var viewWidth = 893;
var viewHeight = 274;
var sectionId = 'dynsection-0';
</script>
<script xlink:href="svgpan.js"/>
<svg id="graph" class="graph">
<g id="viewport">
<title>src/LevelParser/LevelParser.cpp</title>
<!-- Node1 -->
<g id="node1" class="node">
<title>Node1</title>
<g id="a_node1"><a xlink:title=" ">
<polygon fill="#bfbfbf" stroke="black" points="367.42,-246.5 367.42,-265.5 526.42,-265.5 526.42,-246.5 367.42,-246.5"/>
<text text-anchor="middle" x="446.92" y="-253.5" font-family="Helvetica,sans-Serif" font-size="10.00">src/LevelParser/LevelParser.cpp</text>
</a>
</g>
</g>
<!-- Node2 -->
<g id="node2" class="node">
<title>Node2</title>
<g id="a_node2"><a xlink:href="LevelParser_8hpp.html" target="_top" xlink:title=" ">
<polygon fill="none" stroke="black" points="30.42,-118 30.42,-137 173.42,-137 173.42,-118 30.42,-118"/>
<text text-anchor="middle" x="101.92" y="-125" font-family="Helvetica,sans-Serif" font-size="10.00">LevelParser/LevelParser.hpp</text>
</a>
</g>
</g>
<!-- Node1&#45;&gt;Node2 -->
<g id="edge1" class="edge">
<title>Node1&#45;&gt;Node2</title>
<path fill="none" stroke="midnightblue" d="M413.51,-246.47C382.07,-238.15 333.83,-224.65 292.92,-210 233.41,-188.69 165.82,-158.34 129.14,-141.33"/>
<polygon fill="midnightblue" stroke="midnightblue" points="130.61,-138.16 120.07,-137.11 127.65,-144.5 130.61,-138.16"/>
</g>
<!-- Node9 -->
<g id="node9" class="node">
<title>Node9</title>
<g id="a_node9"><a xlink:href="TMXParser_8hpp.html" target="_top" xlink:title=" ">
<polygon fill="none" stroke="black" points="302.42,-185 302.42,-204 421.42,-204 421.42,-185 302.42,-185"/>
<text text-anchor="middle" x="361.92" y="-192" font-family="Helvetica,sans-Serif" font-size="10.00">Facade/TMXParser.hpp</text>
</a>
</g>
</g>
<!-- Node1&#45;&gt;Node9 -->
<g id="edge9" class="edge">
<title>Node1&#45;&gt;Node9</title>
<path fill="none" stroke="midnightblue" d="M434.74,-246.48C421.11,-236.93 398.79,-221.31 382.45,-209.87"/>
<polygon fill="midnightblue" stroke="midnightblue" points="384.28,-206.88 374.08,-204.01 380.26,-212.61 384.28,-206.88"/>
</g>
<!-- Node14 -->
<g id="node14" class="node">
<title>Node14</title>
<g id="a_node14"><a xlink:href="Debug_8hpp.html" target="_top" xlink:title=" ">
<polygon fill="none" stroke="black" points="530.92,-185 530.92,-204 592.92,-204 592.92,-185 530.92,-185"/>
<text text-anchor="middle" x="561.92" y="-192" font-family="Helvetica,sans-Serif" font-size="10.00">Debug.hpp</text>
</a>
</g>
</g>
<!-- Node1&#45;&gt;Node14 -->
<g id="edge25" class="edge">
<title>Node1&#45;&gt;Node14</title>
<path fill="none" stroke="midnightblue" d="M463.4,-246.48C482.53,-236.58 514.29,-220.14 536.57,-208.62"/>
<polygon fill="midnightblue" stroke="midnightblue" points="538.2,-211.71 545.47,-204.01 534.98,-205.5 538.2,-211.71"/>
</g>
<!-- Node17 -->
<g id="node17" class="node">
<title>Node17</title>
<g id="a_node17"><a xlink:href="LevelCouldNotBeParsedException_8hpp.html" target="_top" xlink:title=" ">
<polygon fill="none" stroke="black" points="730.42,-179.5 730.42,-209.5 861.42,-209.5 861.42,-179.5 730.42,-179.5"/>
<text text-anchor="start" x="738.42" y="-197.5" font-family="Helvetica,sans-Serif" font-size="10.00">Exceptions/LevelCouldNot</text>
<text text-anchor="middle" x="795.92" y="-186.5" font-family="Helvetica,sans-Serif" font-size="10.00">BeParsedException.hpp</text>
</a>
</g>
</g>
<!-- Node1&#45;&gt;Node17 -->
<g id="edge29" class="edge">
<title>Node1&#45;&gt;Node17</title>
<path fill="none" stroke="midnightblue" d="M496.92,-246.48C555.28,-236.53 652.39,-219.97 720.05,-208.44"/>
<polygon fill="midnightblue" stroke="midnightblue" points="720.96,-211.83 730.23,-206.7 719.78,-204.93 720.96,-211.83"/>
</g>
<!-- Node3 -->
<g id="node3" class="node">
<title>Node3</title>
<g id="a_node3"><a xlink:title=" ">
<polygon fill="none" stroke="#bfbfbf" points="440.42,-56.5 440.42,-75.5 481.42,-75.5 481.42,-56.5 440.42,-56.5"/>
<text text-anchor="middle" x="460.92" y="-63.5" font-family="Helvetica,sans-Serif" font-size="10.00">string</text>
</a>
</g>
</g>
<!-- Node2&#45;&gt;Node3 -->
<g id="edge2" class="edge">
<title>Node2&#45;&gt;Node3</title>
<path fill="none" stroke="midnightblue" d="M148.57,-117.94C159.81,-115.93 171.79,-113.85 182.92,-112 287.59,-94.65 314.56,-95.12 418.92,-76 422.58,-75.33 426.41,-74.58 430.21,-73.8"/>
<polygon fill="midnightblue" stroke="midnightblue" points="430.97,-77.22 440.03,-71.73 429.53,-70.37 430.97,-77.22"/>
</g>
<!-- Node4 -->
<g id="node4" class="node">
<title>Node4</title>
<g id="a_node4"><a xlink:title=" ">
<polygon fill="none" stroke="#bfbfbf" points="130.42,-56.5 130.42,-75.5 165.42,-75.5 165.42,-56.5 130.42,-56.5"/>
<text text-anchor="middle" x="147.92" y="-63.5" font-family="Helvetica,sans-Serif" font-size="10.00">map</text>
</a>
</g>
</g>
<!-- Node2&#45;&gt;Node4 -->
<g id="edge3" class="edge">
<title>Node2&#45;&gt;Node4</title>
<path fill="none" stroke="midnightblue" d="M108.51,-117.98C115.41,-109.05 126.42,-94.81 135.05,-83.64"/>
<polygon fill="midnightblue" stroke="midnightblue" points="137.99,-85.56 141.34,-75.51 132.46,-81.28 137.99,-85.56"/>
</g>
<!-- Node5 -->
<g id="node5" class="node">
<title>Node5</title>
<g id="a_node5"><a xlink:title=" ">
<polygon fill="none" stroke="#bfbfbf" points="137.42,-0.5 137.42,-19.5 188.42,-19.5 188.42,-0.5 137.42,-0.5"/>
<text text-anchor="middle" x="162.92" y="-7.5" font-family="Helvetica,sans-Serif" font-size="10.00">memory</text>
</a>
</g>
</g>
<!-- Node2&#45;&gt;Node5 -->
<g id="edge4" class="edge">
<title>Node2&#45;&gt;Node5</title>
<path fill="none" stroke="midnightblue" d="M102.9,-117.75C104.73,-103.89 109.59,-76.39 120.92,-56 127.06,-44.96 136.48,-34.52 144.85,-26.48"/>
<polygon fill="midnightblue" stroke="midnightblue" points="147.39,-28.9 152.41,-19.56 142.67,-23.73 147.39,-28.9"/>
</g>
<!-- Node6 -->
<g id="node6" class="node">
<title>Node6</title>
<g id="a_node6"><a xlink:href="GameLevel_8hpp.html" target="_top" xlink:title=" ">
<polygon fill="none" stroke="black" points="271.92,-56.5 271.92,-75.5 409.92,-75.5 409.92,-56.5 271.92,-56.5"/>
<text text-anchor="middle" x="340.92" y="-63.5" font-family="Helvetica,sans-Serif" font-size="10.00">GameLevel/GameLevel.hpp</text>
</a>
</g>
</g>
<!-- Node2&#45;&gt;Node6 -->
<g id="edge5" class="edge">
<title>Node2&#45;&gt;Node6</title>
<path fill="none" stroke="midnightblue" d="M136.16,-117.98C178.49,-107.44 250.6,-89.49 296.97,-77.94"/>
<polygon fill="midnightblue" stroke="midnightblue" points="297.88,-81.32 306.74,-75.51 296.19,-74.53 297.88,-81.32"/>
</g>
<!-- Node6&#45;&gt;Node5 -->
<g id="edge8" class="edge">
<title>Node6&#45;&gt;Node5</title>
<path fill="none" stroke="midnightblue" d="M312.72,-56.44C281.8,-47.06 232.14,-32 198.55,-21.81"/>
<polygon fill="midnightblue" stroke="midnightblue" points="199.27,-18.37 188.68,-18.82 197.23,-25.07 199.27,-18.37"/>
</g>
<!-- Node7 -->
<g id="node7" class="node">
<title>Node7</title>
<g id="a_node7"><a xlink:href="Layer_8hpp.html" target="_top" xlink:title=" ">
<polygon fill="none" stroke="black" points="342.42,-0.5 342.42,-19.5 401.42,-19.5 401.42,-0.5 342.42,-0.5"/>
<text text-anchor="middle" x="371.92" y="-7.5" font-family="Helvetica,sans-Serif" font-size="10.00">Layer.hpp</text>
</a>
</g>
</g>
<!-- Node6&#45;&gt;Node7 -->
<g id="edge6" class="edge">
<title>Node6&#45;&gt;Node7</title>
<path fill="none" stroke="midnightblue" d="M346.04,-56.08C350.33,-48.61 356.58,-37.72 361.86,-28.52"/>
<polygon fill="midnightblue" stroke="midnightblue" points="364.95,-30.17 366.9,-19.75 358.88,-26.68 364.95,-30.17"/>
</g>
<!-- Node8 -->
<g id="node8" class="node">
<title>Node8</title>
<g id="a_node8"><a xlink:title=" ">
<polygon fill="none" stroke="#bfbfbf" points="491.92,-0.5 491.92,-19.5 535.92,-19.5 535.92,-0.5 491.92,-0.5"/>
<text text-anchor="middle" x="513.92" y="-7.5" font-family="Helvetica,sans-Serif" font-size="10.00">vector</text>
</a>
</g>
</g>
<!-- Node6&#45;&gt;Node8 -->
<g id="edge7" class="edge">
<title>Node6&#45;&gt;Node8</title>
<path fill="none" stroke="midnightblue" d="M368.33,-56.44C399.2,-46.81 449.28,-31.18 481.92,-20.99"/>
<polygon fill="midnightblue" stroke="midnightblue" points="483.35,-24.21 491.85,-17.89 481.26,-17.53 483.35,-24.21"/>
</g>
<!-- Node9&#45;&gt;Node3 -->
<g id="edge11" class="edge">
<title>Node9&#45;&gt;Node3</title>
<path fill="none" stroke="midnightblue" d="M375.18,-184.71C388.3,-175.51 408.35,-160.04 421.92,-143 436.17,-125.11 447.4,-101.19 454.09,-85"/>
<polygon fill="midnightblue" stroke="midnightblue" points="457.37,-86.21 457.8,-75.62 450.87,-83.63 457.37,-86.21"/>
</g>
<!-- Node9&#45;&gt;Node4 -->
<g id="edge10" class="edge">
<title>Node9&#45;&gt;Node4</title>
<path fill="none" stroke="midnightblue" d="M302.19,-193.62C214.27,-192.39 56.55,-184.29 20.92,-143 -10.93,-106.09 74.18,-82.15 120.39,-72.22"/>
<polygon fill="midnightblue" stroke="midnightblue" points="121.31,-75.61 130.4,-70.16 119.9,-68.75 121.31,-75.61"/>
</g>
<!-- Node9&#45;&gt;Node5 -->
<g id="edge12" class="edge">
<title>Node9&#45;&gt;Node5</title>
<path fill="none" stroke="midnightblue" d="M302.31,-193.92C212.21,-193.13 47.91,-185.69 10.92,-143 -32.35,-93.06 71.2,-44.89 128.3,-23.11"/>
<polygon fill="midnightblue" stroke="midnightblue" points="129.56,-26.38 137.71,-19.6 127.12,-19.82 129.56,-26.38"/>
</g>
<!-- Node9&#45;&gt;Node6 -->
<g id="edge13" class="edge">
<title>Node9&#45;&gt;Node6</title>
<path fill="none" stroke="midnightblue" d="M372.55,-184.97C389.64,-170.18 419.95,-138.78 405.92,-112 398.64,-98.11 384.91,-87.65 371.94,-80.33"/>
<polygon fill="midnightblue" stroke="midnightblue" points="373.22,-77.05 362.73,-75.55 369.99,-83.27 373.22,-77.05"/>
</g>
<!-- Node10 -->
<g id="node10" class="node">
<title>Node10</title>
<g id="a_node10"><a xlink:href="TileLayer_8hpp.html" target="_top" xlink:title=" ">
<polygon fill="none" stroke="black" points="529.92,-118 529.92,-137 657.92,-137 657.92,-118 529.92,-118"/>
<text text-anchor="middle" x="593.92" y="-125" font-family="Helvetica,sans-Serif" font-size="10.00">GameLevel/TileLayer.hpp</text>
</a>
</g>
</g>
<!-- Node9&#45;&gt;Node10 -->
<g id="edge14" class="edge">
<title>Node9&#45;&gt;Node10</title>
<path fill="none" stroke="midnightblue" d="M392.73,-184.87C434.1,-173.28 507.68,-152.66 553.47,-139.83"/>
<polygon fill="midnightblue" stroke="midnightblue" points="554.67,-143.13 563.35,-137.06 552.78,-136.39 554.67,-143.13"/>
</g>
<!-- Node12 -->
<g id="node12" class="node">
<title>Node12</title>
<g id="a_node12"><a xlink:title=" ">
<polygon fill="none" stroke="#bfbfbf" points="191.92,-118 191.92,-137 245.92,-137 245.92,-118 191.92,-118"/>
<text text-anchor="middle" x="218.92" y="-125" font-family="Helvetica,sans-Serif" font-size="10.00">tinyxml.h</text>
</a>
</g>
</g>
<!-- Node9&#45;&gt;Node12 -->
<g id="edge19" class="edge">
<title>Node9&#45;&gt;Node12</title>
<path fill="none" stroke="midnightblue" d="M342.93,-184.87C318.46,-173.75 275.72,-154.32 247.36,-141.43"/>
<polygon fill="midnightblue" stroke="midnightblue" points="248.54,-138.12 237.99,-137.17 245.64,-144.49 248.54,-138.12"/>
</g>
<!-- Node13 -->
<g id="node13" class="node">
<title>Node13</title>
<g id="a_node13"><a xlink:href="AbstractLevelParser_8hpp.html" target="_top" xlink:title=" ">
<polygon fill="none" stroke="black" points="264.42,-112.5 264.42,-142.5 397.42,-142.5 397.42,-112.5 264.42,-112.5"/>
<text text-anchor="start" x="272.42" y="-130.5" font-family="Helvetica,sans-Serif" font-size="10.00">LevelParser/AbstractLevel</text>
<text text-anchor="middle" x="330.92" y="-119.5" font-family="Helvetica,sans-Serif" font-size="10.00">Parser.hpp</text>
</a>
</g>
</g>
<!-- Node9&#45;&gt;Node13 -->
<g id="edge20" class="edge">
<title>Node9&#45;&gt;Node13</title>
<path fill="none" stroke="midnightblue" d="M357.74,-184.73C353.71,-176.29 347.44,-163.14 341.97,-151.68"/>
<polygon fill="midnightblue" stroke="midnightblue" points="345.1,-150.11 337.64,-142.59 338.78,-153.12 345.1,-150.11"/>
</g>
<!-- Node10&#45;&gt;Node3 -->
<g id="edge16" class="edge">
<title>Node10&#45;&gt;Node3</title>
<path fill="none" stroke="midnightblue" d="M574.86,-117.98C552.45,-107.95 515.01,-91.2 489.21,-79.65"/>
<polygon fill="midnightblue" stroke="midnightblue" points="490.5,-76.4 479.94,-75.51 487.64,-82.79 490.5,-76.4"/>
</g>
<!-- Node10&#45;&gt;Node7 -->
<g id="edge15" class="edge">
<title>Node10&#45;&gt;Node7</title>
<path fill="none" stroke="midnightblue" d="M582.92,-117.77C564.5,-103.46 525.91,-74.74 489.92,-56 464.06,-42.53 433.22,-30.91 409.55,-22.86"/>
<polygon fill="midnightblue" stroke="midnightblue" points="410.48,-19.48 399.88,-19.63 408.26,-26.11 410.48,-19.48"/>
</g>
<!-- Node10&#45;&gt;Node8 -->
<g id="edge18" class="edge">
<title>Node10&#45;&gt;Node8</title>
<path fill="none" stroke="midnightblue" d="M587.91,-117.82C574.76,-98.84 543.25,-53.35 525.89,-28.29"/>
<polygon fill="midnightblue" stroke="midnightblue" points="528.57,-26.01 520,-19.78 522.82,-30 528.57,-26.01"/>
</g>
<!-- Node11 -->
<g id="node11" class="node">
<title>Node11</title>
<g id="a_node11"><a xlink:title=" ">
<polygon fill="none" stroke="#bfbfbf" points="576.42,-56.5 576.42,-75.5 615.42,-75.5 615.42,-56.5 576.42,-56.5"/>
<text text-anchor="middle" x="595.92" y="-63.5" font-family="Helvetica,sans-Serif" font-size="10.00">utility</text>
</a>
</g>
</g>
<!-- Node10&#45;&gt;Node11 -->
<g id="edge17" class="edge">
<title>Node10&#45;&gt;Node11</title>
<path fill="none" stroke="midnightblue" d="M594.21,-117.98C594.49,-109.58 594.93,-96.48 595.29,-85.66"/>
<polygon fill="midnightblue" stroke="midnightblue" points="598.8,-85.62 595.63,-75.51 591.8,-85.39 598.8,-85.62"/>
</g>
<!-- Node13&#45;&gt;Node3 -->
<g id="edge22" class="edge">
<title>Node13&#45;&gt;Node3</title>
<path fill="none" stroke="midnightblue" d="M361.73,-112.4C383.25,-102.55 411.76,-89.5 432.69,-79.92"/>
<polygon fill="midnightblue" stroke="midnightblue" points="434.37,-83 442,-75.66 431.45,-76.64 434.37,-83"/>
</g>
<!-- Node13&#45;&gt;Node4 -->
<g id="edge23" class="edge">
<title>Node13&#45;&gt;Node4</title>
<path fill="none" stroke="midnightblue" d="M287.55,-112.4C252.76,-101.09 204.98,-85.55 175.3,-75.9"/>
<polygon fill="midnightblue" stroke="midnightblue" points="176.2,-72.52 165.61,-72.75 174.04,-79.17 176.2,-72.52"/>
</g>
<!-- Node13&#45;&gt;Node5 -->
<g id="edge21" class="edge">
<title>Node13&#45;&gt;Node5</title>
<path fill="none" stroke="midnightblue" d="M310.32,-112.34C278.12,-90.2 216.22,-47.64 183.83,-25.38"/>
<polygon fill="midnightblue" stroke="midnightblue" points="185.75,-22.45 175.53,-19.67 181.79,-28.22 185.75,-22.45"/>
</g>
<!-- Node13&#45;&gt;Node6 -->
<g id="edge24" class="edge">
<title>Node13&#45;&gt;Node6</title>
<path fill="none" stroke="midnightblue" d="M333.29,-112.4C334.64,-104.38 336.34,-94.23 337.8,-85.57"/>
<polygon fill="midnightblue" stroke="midnightblue" points="341.26,-86.1 339.46,-75.66 334.36,-84.94 341.26,-86.1"/>
</g>
<!-- Node14&#45;&gt;Node3 -->
<g id="edge28" class="edge">
<title>Node14&#45;&gt;Node3</title>
<path fill="none" stroke="midnightblue" d="M554.92,-184.95C546.73,-174.93 532.78,-157.81 520.92,-143 504.76,-122.82 486.36,-99.45 474.24,-84.01"/>
<polygon fill="midnightblue" stroke="midnightblue" points="476.83,-81.63 467.9,-75.92 471.32,-85.95 476.83,-81.63"/>
</g>
<!-- Node15 -->
<g id="node15" class="node">
<title>Node15</title>
<g id="a_node15"><a xlink:href="Point_8hpp.html" target="_top" xlink:title=" ">
<polygon fill="none" stroke="black" points="676.42,-118 676.42,-137 733.42,-137 733.42,-118 676.42,-118"/>
<text text-anchor="middle" x="704.92" y="-125" font-family="Helvetica,sans-Serif" font-size="10.00">Point.hpp</text>
</a>
</g>
</g>
<!-- Node14&#45;&gt;Node15 -->
<g id="edge26" class="edge">
<title>Node14&#45;&gt;Node15</title>
<path fill="none" stroke="midnightblue" d="M580.91,-184.87C605.38,-173.75 648.12,-154.32 676.48,-141.43"/>
<polygon fill="midnightblue" stroke="midnightblue" points="678.2,-144.49 685.85,-137.17 675.3,-138.12 678.2,-144.49"/>
</g>
<!-- Node16 -->
<g id="node16" class="node">
<title>Node16</title>
<g id="a_node16"><a xlink:href="Color_8hpp.html" target="_top" xlink:title=" ">
<polygon fill="none" stroke="black" points="751.42,-118 751.42,-137 808.42,-137 808.42,-118 751.42,-118"/>
<text text-anchor="middle" x="779.92" y="-125" font-family="Helvetica,sans-Serif" font-size="10.00">Color.hpp</text>
</a>
</g>
</g>
<!-- Node14&#45;&gt;Node16 -->
<g id="edge27" class="edge">
<title>Node14&#45;&gt;Node16</title>
<path fill="none" stroke="midnightblue" d="M592.95,-185.86C629.24,-176.7 690.94,-160.39 742.92,-143 745.18,-142.24 747.51,-141.43 749.84,-140.58"/>
<polygon fill="midnightblue" stroke="midnightblue" points="751.19,-143.81 759.31,-137 748.72,-137.26 751.19,-143.81"/>
</g>
<!-- Node18 -->
<g id="node18" class="node">
<title>Node18</title>
<g id="a_node18"><a xlink:title=" ">
<polygon fill="none" stroke="#bfbfbf" points="826.42,-118 826.42,-137 885.42,-137 885.42,-118 826.42,-118"/>
<text text-anchor="middle" x="855.92" y="-125" font-family="Helvetica,sans-Serif" font-size="10.00">stdexcept</text>
</a>
</g>
</g>
<!-- Node17&#45;&gt;Node18 -->
<g id="edge30" class="edge">
<title>Node17&#45;&gt;Node18</title>
<path fill="none" stroke="midnightblue" d="M808.94,-179.4C818.39,-169.16 831.19,-155.3 841.04,-144.62"/>
<polygon fill="midnightblue" stroke="midnightblue" points="843.68,-146.92 847.89,-137.19 838.54,-142.17 843.68,-146.92"/>
</g>
</g>
</svg>
        <g id="navigator" transform="translate(0 0)" fill="#404254">
                <rect fill="#f2f5e9" fill-opacity="0.5" stroke="#606060" stroke-width=".5" x="0" y="0" width="60" height="60"/>
                <use id="zoomplus" xlink:href="#zoomPlus" x="17" y="9" onmousedown="handleZoom(evt,'in')"/>
                <use id="zoomminus" xlink:href="#zoomMin" x="42" y="9" onmousedown="handleZoom(evt,'out')"/>
                <use id="reset" xlink:href="#resetDef" x="30" y="36" onmousedown="handleReset()"/>
                <g id="arrowUp" xlink:href="#dirArrow" transform="translate(30 24)" onmousedown="handlePan(0,-1)">
                  <use xlink:href="#rim" fill="#404040">
                        <set attributeName="fill" to="#808080" begin="arrowUp.mouseover" end="arrowUp.mouseout"/>
                  </use>
                  <path fill="none" stroke="white" stroke-width="1.5" d="M0,-3.0v7 M-2.5,-0.5L0,-3.0L2.5,-0.5"/>
                </g>
                <g id="arrowRight" xlink:href="#dirArrow" transform="rotate(90) translate(36 -43)" onmousedown="handlePan(1,0)">
                  <use xlink:href="#rim" fill="#404040">
                        <set attributeName="fill" to="#808080" begin="arrowRight.mouseover" end="arrowRight.mouseout"/>
                  </use>
                  <path fill="none" stroke="white" stroke-width="1.5" d="M0,-3.0v7 M-2.5,-0.5L0,-3.0L2.5,-0.5"/>
                </g>
                <g id="arrowDown" xlink:href="#dirArrow" transform="rotate(180) translate(-30 -48)" onmousedown="handlePan(0,1)">
                  <use xlink:href="#rim" fill="#404040">
                        <set attributeName="fill" to="#808080" begin="arrowDown.mouseover" end="arrowDown.mouseout"/>
                  </use>
                  <path fill="none" stroke="white" stroke-width="1.5" d="M0,-3.0v7 M-2.5,-0.5L0,-3.0L2.5,-0.5"/>
                </g>
                <g id="arrowLeft" xlink:href="#dirArrow" transform="rotate(270) translate(-36 17)" onmousedown="handlePan(-1,0)">
                  <use xlink:href="#rim" fill="#404040">
                        <set attributeName="fill" to="#808080" begin="arrowLeft.mouseover" end="arrowLeft.mouseout"/>
                  </use>
                  <path fill="none" stroke="white" stroke-width="1.5" d="M0,-3.0v7 M-2.5,-0.5L0,-3.0L2.5,-0.5"/>
                </g>
        </g>
        <svg viewBox="0 0 15 15" width="100%" height="30px" preserveAspectRatio="xMaxYMin meet">
         <g id="arrow_out" transform="scale(0.3 0.3)">
          <a xlink:href="LevelParser_8cpp__incl_org.svg" target="_base">
           <rect id="button" ry="5" rx="5" y="6" x="6" height="38" width="38"
                fill="#f2f5e9" fill-opacity="0.5" stroke="#606060" stroke-width="1.0"/>
           <path id="arrow"
             d="M 11.500037,31.436501 C 11.940474,20.09759 22.043105,11.32322 32.158766,21.979434 L 37.068811,17.246167 C 37.068811,17.246167 37.088388,32 37.088388,32 L 22.160133,31.978069 C 22.160133,31.978069 26.997745,27.140456 26.997745,27.140456 C 18.528582,18.264221 13.291696,25.230495 11.500037,31.436501 z"
             style="fill:#404040;"/>
          </a>
         </g>
        </svg>
</svg>
