<?xml version="1.0" encoding="UTF-8" standalone="no"?>
<!DOCTYPE svg PUBLIC "-//W3C//DTD SVG 1.1//EN"
 "http://www.w3.org/Graphics/SVG/1.1/DTD/svg11.dtd">
<!-- Generated by graphviz version 2.44.0 ()
 -->
<!-- Title: src/LevelParser/LevelParser.cpp Pages: 1 -->
<svg width="740pt" height="341pt"
 viewBox="0.00 0.00 739.54 341.00" xmlns="http://www.w3.org/2000/svg" xmlns:xlink="http://www.w3.org/1999/xlink">
<g id="graph0" class="graph" transform="scale(1 1) rotate(0) translate(4 337)">
<title>src/LevelParser/LevelParser.cpp</title>
<!-- Node1 -->
<g id="node1" class="node">
<title>Node1</title>
<g id="a_node1"><a xlink:title=" ">
<polygon fill="#bfbfbf" stroke="black" points="435.54,-313.5 435.54,-332.5 594.54,-332.5 594.54,-313.5 435.54,-313.5"/>
<text text-anchor="middle" x="515.04" y="-320.5" font-family="Helvetica,sans-Serif" font-size="10.00">src/LevelParser/LevelParser.cpp</text>
</a>
</g>
</g>
<!-- Node2 -->
<g id="node2" class="node">
<title>Node2</title>
<g id="a_node2"><a xlink:href="LevelParser_8hpp.html" target="_top" xlink:title=" ">
<polygon fill="none" stroke="black" points="306.54,-185 306.54,-204 449.54,-204 449.54,-185 306.54,-185"/>
<text text-anchor="middle" x="378.04" y="-192" font-family="Helvetica,sans-Serif" font-size="10.00">LevelParser/LevelParser.hpp</text>
</a>
</g>
</g>
<!-- Node1&#45;&gt;Node2 -->
<g id="edge1" class="edge">
<title>Node1&#45;&gt;Node2</title>
<path fill="none" stroke="midnightblue" d="M505.63,-313.31C482.75,-292.18 424,-237.93 394.89,-211.06"/>
<polygon fill="midnightblue" stroke="midnightblue" points="397.25,-208.47 387.53,-204.26 392.5,-213.61 397.25,-208.47"/>
</g>
<!-- Node16 -->
<g id="node16" class="node">
<title>Node16</title>
<g id="a_node16"><a xlink:href="TMXParser_8hpp.html" target="_top" xlink:title=" ">
<polygon fill="none" stroke="black" points="174.54,-252 174.54,-271 293.54,-271 293.54,-252 174.54,-252"/>
<text text-anchor="middle" x="234.04" y="-259" font-family="Helvetica,sans-Serif" font-size="10.00">Facade/TMXParser.hpp</text>
</a>
</g>
</g>
<!-- Node1&#45;&gt;Node16 -->
<g id="edge23" class="edge">
<title>Node1&#45;&gt;Node16</title>
<path fill="none" stroke="midnightblue" d="M474.78,-313.48C424.6,-302.85 338.82,-284.68 284.35,-273.15"/>
<polygon fill="midnightblue" stroke="midnightblue" points="284.74,-269.66 274.23,-271.01 283.29,-276.5 284.74,-269.66"/>
</g>
<!-- Node19 -->
<g id="node19" class="node">
<title>Node19</title>
<g id="a_node19"><a xlink:href="Debug_8hpp.html" target="_top" xlink:title=" ">
<polygon fill="none" stroke="black" points="580.04,-123.5 580.04,-142.5 642.04,-142.5 642.04,-123.5 580.04,-123.5"/>
<text text-anchor="middle" x="611.04" y="-130.5" font-family="Helvetica,sans-Serif" font-size="10.00">Debug.hpp</text>
</a>
</g>
</g>
<!-- Node1&#45;&gt;Node19 -->
<g id="edge35" class="edge">
<title>Node1&#45;&gt;Node19</title>
<path fill="none" stroke="midnightblue" d="M519.42,-313.43C534.13,-284.62 582.02,-190.84 602.08,-151.56"/>
<polygon fill="midnightblue" stroke="midnightblue" points="605.21,-153.11 606.64,-142.62 598.98,-149.93 605.21,-153.11"/>
</g>
<!-- Node21 -->
<g id="node21" class="node">
<title>Node21</title>
<g id="a_node21"><a xlink:href="LevelCouldNotBeParsedException_8hpp.html" target="_top" xlink:title=" ">
<polygon fill="none" stroke="black" points="592.54,-246.5 592.54,-276.5 723.54,-276.5 723.54,-246.5 592.54,-246.5"/>
<text text-anchor="start" x="600.54" y="-264.5" font-family="Helvetica,sans-Serif" font-size="10.00">Exceptions/LevelCouldNot</text>
<text text-anchor="middle" x="658.04" y="-253.5" font-family="Helvetica,sans-Serif" font-size="10.00">BeParsedException.hpp</text>
</a>
</g>
</g>
<!-- Node1&#45;&gt;Node21 -->
<g id="edge39" class="edge">
<title>Node1&#45;&gt;Node21</title>
<path fill="none" stroke="midnightblue" d="M535.53,-313.48C556.17,-304.89 588.63,-291.38 614.95,-280.43"/>
<polygon fill="midnightblue" stroke="midnightblue" points="616.45,-283.6 624.34,-276.52 613.77,-277.13 616.45,-283.6"/>
</g>
<!-- Node3 -->
<g id="node3" class="node">
<title>Node3</title>
<g id="a_node3"><a xlink:title=" ">
<polygon fill="none" stroke="#bfbfbf" points="576.54,-67.5 576.54,-86.5 617.54,-86.5 617.54,-67.5 576.54,-67.5"/>
<text text-anchor="middle" x="597.04" y="-74.5" font-family="Helvetica,sans-Serif" font-size="10.00">string</text>
</a>
</g>
</g>
<!-- Node2&#45;&gt;Node3 -->
<g id="edge2" class="edge">
<title>Node2&#45;&gt;Node3</title>
<path fill="none" stroke="midnightblue" d="M381.97,-184.61C389.09,-169.54 405.6,-139.03 429.04,-123 478.81,-88.96 503.54,-102.59 566.42,-86.95"/>
<polygon fill="midnightblue" stroke="midnightblue" points="567.65,-90.24 576.42,-84.3 565.85,-83.48 567.65,-90.24"/>
</g>
<!-- Node4 -->
<g id="node4" class="node">
<title>Node4</title>
<g id="a_node4"><a xlink:title=" ">
<polygon fill="none" stroke="#bfbfbf" points="33.54,-67.5 33.54,-86.5 68.54,-86.5 68.54,-67.5 33.54,-67.5"/>
<text text-anchor="middle" x="51.04" y="-74.5" font-family="Helvetica,sans-Serif" font-size="10.00">map</text>
</a>
</g>
</g>
<!-- Node2&#45;&gt;Node4 -->
<g id="edge3" class="edge">
<title>Node2&#45;&gt;Node4</title>
<path fill="none" stroke="midnightblue" d="M330.4,-184.96C254.43,-171.28 113.87,-145.72 109.04,-143 88.76,-131.55 71.89,-110.35 61.66,-95.27"/>
<polygon fill="midnightblue" stroke="midnightblue" points="64.56,-93.31 56.19,-86.82 58.69,-97.12 64.56,-93.31"/>
</g>
<!-- Node5 -->
<g id="node5" class="node">
<title>Node5</title>
<g id="a_node5"><a xlink:title=" ">
<polygon fill="none" stroke="#bfbfbf" points="13.54,-6 13.54,-25 64.54,-25 64.54,-6 13.54,-6"/>
<text text-anchor="middle" x="39.04" y="-13" font-family="Helvetica,sans-Serif" font-size="10.00">memory</text>
</a>
</g>
</g>
<!-- Node2&#45;&gt;Node5 -->
<g id="edge4" class="edge">
<title>Node2&#45;&gt;Node5</title>
<path fill="none" stroke="midnightblue" d="M349.51,-184.98C300.88,-169.74 199.87,-134.85 124.04,-87 98.36,-70.79 71.92,-47.65 55.49,-32.36"/>
<polygon fill="midnightblue" stroke="midnightblue" points="57.54,-29.49 47.87,-25.16 52.74,-34.57 57.54,-29.49"/>
</g>
<!-- Node6 -->
<g id="node6" class="node">
<title>Node6</title>
<g id="a_node6"><a xlink:title=" ">
<polygon fill="none" stroke="#bfbfbf" points="438.54,-123.5 438.54,-142.5 497.54,-142.5 497.54,-123.5 438.54,-123.5"/>
<text text-anchor="middle" x="468.04" y="-130.5" font-family="Helvetica,sans-Serif" font-size="10.00">functional</text>
</a>
</g>
</g>
<!-- Node2&#45;&gt;Node6 -->
<g id="edge5" class="edge">
<title>Node2&#45;&gt;Node6</title>
<path fill="none" stroke="midnightblue" d="M390.94,-184.98C405.51,-175.34 429.45,-159.52 446.79,-148.05"/>
<polygon fill="midnightblue" stroke="midnightblue" points="448.76,-150.94 455.17,-142.51 444.9,-145.1 448.76,-150.94"/>
</g>
<!-- Node7 -->
<g id="node7" class="node">
<title>Node7</title>
<g id="a_node7"><a xlink:href="GameObject_8hpp.html" target="_top" xlink:title=" ">
<polygon fill="none" stroke="black" points="254.54,-123.5 254.54,-142.5 343.54,-142.5 343.54,-123.5 254.54,-123.5"/>
<text text-anchor="middle" x="299.04" y="-130.5" font-family="Helvetica,sans-Serif" font-size="10.00">GameObject.hpp</text>
</a>
</g>
</g>
<!-- Node2&#45;&gt;Node7 -->
<g id="edge6" class="edge">
<title>Node2&#45;&gt;Node7</title>
<path fill="none" stroke="midnightblue" d="M366.73,-184.98C354.17,-175.52 333.69,-160.1 318.55,-148.69"/>
<polygon fill="midnightblue" stroke="midnightblue" points="320.44,-145.73 310.34,-142.51 316.22,-151.32 320.44,-145.73"/>
</g>
<!-- Node7&#45;&gt;Node3 -->
<g id="edge15" class="edge">
<title>Node7&#45;&gt;Node3</title>
<path fill="none" stroke="midnightblue" d="M343.6,-125.21C404.46,-115.83 511.43,-98.91 566.5,-86.81"/>
<polygon fill="midnightblue" stroke="midnightblue" points="567.51,-90.18 576.48,-84.54 565.95,-83.35 567.51,-90.18"/>
</g>
<!-- Node7&#45;&gt;Node4 -->
<g id="edge18" class="edge">
<title>Node7&#45;&gt;Node4</title>
<path fill="none" stroke="midnightblue" d="M259.75,-123.44C209.28,-112.45 122.94,-93.66 78.81,-84.04"/>
<polygon fill="midnightblue" stroke="midnightblue" points="79.31,-80.57 68.79,-81.86 77.82,-87.41 79.31,-80.57"/>
</g>
<!-- Node7&#45;&gt;Node5 -->
<g id="edge17" class="edge">
<title>Node7&#45;&gt;Node5</title>
<path fill="none" stroke="midnightblue" d="M269.12,-123.44C241.99,-115.29 201.15,-102.07 167.04,-87 128.77,-70.09 86.68,-45.71 61.58,-30.5"/>
<polygon fill="midnightblue" stroke="midnightblue" points="63.2,-27.38 52.84,-25.15 59.55,-33.36 63.2,-27.38"/>
</g>
<!-- Node8 -->
<g id="node8" class="node">
<title>Node8</title>
<g id="a_node8"><a xlink:href="Component_8hpp.html" target="_top" xlink:title=" ">
<polygon fill="none" stroke="black" points="201.04,-67.5 201.04,-86.5 285.04,-86.5 285.04,-67.5 201.04,-67.5"/>
<text text-anchor="middle" x="243.04" y="-74.5" font-family="Helvetica,sans-Serif" font-size="10.00">Component.hpp</text>
</a>
</g>
</g>
<!-- Node7&#45;&gt;Node8 -->
<g id="edge7" class="edge">
<title>Node7&#45;&gt;Node8</title>
<path fill="none" stroke="midnightblue" d="M290.05,-123.32C281.85,-115.42 269.54,-103.55 259.57,-93.94"/>
<polygon fill="midnightblue" stroke="midnightblue" points="261.83,-91.26 252.21,-86.83 256.97,-96.29 261.83,-91.26"/>
</g>
<!-- Node9 -->
<g id="node9" class="node">
<title>Node9</title>
<g id="a_node9"><a xlink:title=" ">
<polygon fill="none" stroke="#bfbfbf" points="421.54,-0.5 421.54,-30.5 516.54,-30.5 516.54,-0.5 421.54,-0.5"/>
<text text-anchor="start" x="429.54" y="-18.5" font-family="Helvetica,sans-Serif" font-size="10.00">boost/serialization</text>
<text text-anchor="middle" x="469.04" y="-7.5" font-family="Helvetica,sans-Serif" font-size="10.00">/access.hpp</text>
</a>
</g>
</g>
<!-- Node7&#45;&gt;Node9 -->
<g id="edge19" class="edge">
<title>Node7&#45;&gt;Node9</title>
<path fill="none" stroke="midnightblue" d="M343.64,-125.6C371.67,-119.63 407.11,-108.29 432.04,-87 446.31,-74.82 455.84,-55.74 461.66,-40.51"/>
<polygon fill="midnightblue" stroke="midnightblue" points="465.09,-41.3 465.1,-30.7 458.49,-38.98 465.09,-41.3"/>
</g>
<!-- Node10 -->
<g id="node10" class="node">
<title>Node10</title>
<g id="a_node10"><a xlink:title=" ">
<polygon fill="none" stroke="#bfbfbf" points="82.54,-0.5 82.54,-30.5 177.54,-30.5 177.54,-0.5 82.54,-0.5"/>
<text text-anchor="start" x="90.54" y="-18.5" font-family="Helvetica,sans-Serif" font-size="10.00">boost/serialization</text>
<text text-anchor="middle" x="130.04" y="-7.5" font-family="Helvetica,sans-Serif" font-size="10.00">/map.hpp</text>
</a>
</g>
</g>
<!-- Node7&#45;&gt;Node10 -->
<g id="edge20" class="edge">
<title>Node7&#45;&gt;Node10</title>
<path fill="none" stroke="midnightblue" d="M269.05,-123.43C246.51,-116.07 215.6,-103.95 192.04,-87 173.69,-73.79 157.01,-54.19 145.59,-39"/>
<polygon fill="midnightblue" stroke="midnightblue" points="148.22,-36.67 139.5,-30.65 142.57,-40.8 148.22,-36.67"/>
</g>
<!-- Node11 -->
<g id="node11" class="node">
<title>Node11</title>
<g id="a_node11"><a xlink:title=" ">
<polygon fill="none" stroke="#bfbfbf" points="195.54,-0.5 195.54,-30.5 290.54,-30.5 290.54,-0.5 195.54,-0.5"/>
<text text-anchor="start" x="203.54" y="-18.5" font-family="Helvetica,sans-Serif" font-size="10.00">boost/serialization</text>
<text text-anchor="middle" x="243.04" y="-7.5" font-family="Helvetica,sans-Serif" font-size="10.00">/vector.hpp</text>
</a>
</g>
</g>
<!-- Node7&#45;&gt;Node11 -->
<g id="edge21" class="edge">
<title>Node7&#45;&gt;Node11</title>
<path fill="none" stroke="midnightblue" d="M300.25,-123.1C301.6,-110.11 302.6,-85.49 294.04,-67 288.82,-55.72 279.92,-45.56 271.01,-37.36"/>
<polygon fill="midnightblue" stroke="midnightblue" points="273.12,-34.56 263.26,-30.68 268.55,-39.86 273.12,-34.56"/>
</g>
<!-- Node12 -->
<g id="node12" class="node">
<title>Node12</title>
<g id="a_node12"><a xlink:title=" ">
<polygon fill="none" stroke="#bfbfbf" points="308.54,-0.5 308.54,-30.5 403.54,-30.5 403.54,-0.5 308.54,-0.5"/>
<text text-anchor="start" x="316.54" y="-18.5" font-family="Helvetica,sans-Serif" font-size="10.00">boost/serialization</text>
<text text-anchor="middle" x="356.04" y="-7.5" font-family="Helvetica,sans-Serif" font-size="10.00">/shared_ptr.hpp</text>
</a>
</g>
</g>
<!-- Node7&#45;&gt;Node12 -->
<g id="edge22" class="edge">
<title>Node7&#45;&gt;Node12</title>
<path fill="none" stroke="midnightblue" d="M303.33,-123.32C312.01,-105.73 331.91,-65.39 344.63,-39.63"/>
<polygon fill="midnightblue" stroke="midnightblue" points="347.83,-41.06 349.11,-30.55 341.55,-37.96 347.83,-41.06"/>
</g>
<!-- Node13 -->
<g id="node13" class="node">
<title>Node13</title>
<g id="a_node13"><a xlink:href="Transform_8hpp.html" target="_top" xlink:title=" ">
<polygon fill="none" stroke="black" points="479.54,-67.5 479.54,-86.5 558.54,-86.5 558.54,-67.5 479.54,-67.5"/>
<text text-anchor="middle" x="519.04" y="-74.5" font-family="Helvetica,sans-Serif" font-size="10.00">Transform.hpp</text>
</a>
</g>
</g>
<!-- Node7&#45;&gt;Node13 -->
<g id="edge13" class="edge">
<title>Node7&#45;&gt;Node13</title>
<path fill="none" stroke="midnightblue" d="M333.9,-123.44C371.96,-114.1 433,-99.12 474.5,-88.93"/>
<polygon fill="midnightblue" stroke="midnightblue" points="475.47,-92.3 484.35,-86.52 473.8,-85.5 475.47,-92.3"/>
</g>
<!-- Node15 -->
<g id="node15" class="node">
<title>Node15</title>
<g id="a_node15"><a xlink:title=" ">
<polygon fill="none" stroke="#bfbfbf" points="379.04,-67.5 379.04,-86.5 423.04,-86.5 423.04,-67.5 379.04,-67.5"/>
<text text-anchor="middle" x="401.04" y="-74.5" font-family="Helvetica,sans-Serif" font-size="10.00">vector</text>
</a>
</g>
</g>
<!-- Node7&#45;&gt;Node15 -->
<g id="edge16" class="edge">
<title>Node7&#45;&gt;Node15</title>
<path fill="none" stroke="midnightblue" d="M315.43,-123.32C331.72,-114.7 356.91,-101.36 375.76,-91.39"/>
<polygon fill="midnightblue" stroke="midnightblue" points="377.5,-94.43 384.7,-86.65 374.22,-88.24 377.5,-94.43"/>
</g>
<!-- Node8&#45;&gt;Node5 -->
<g id="edge8" class="edge">
<title>Node8&#45;&gt;Node5</title>
<path fill="none" stroke="midnightblue" d="M204.42,-67.46C169.66,-59.37 117.37,-46.23 73.04,-31 71.18,-30.36 69.27,-29.66 67.36,-28.93"/>
<polygon fill="midnightblue" stroke="midnightblue" points="68.5,-25.62 57.92,-25.12 65.88,-32.11 68.5,-25.62"/>
</g>
<!-- Node8&#45;&gt;Node9 -->
<g id="edge9" class="edge">
<title>Node8&#45;&gt;Node9</title>
<path fill="none" stroke="midnightblue" d="M275.42,-67.48C310.87,-58.14 368.39,-43 411.54,-31.64"/>
<polygon fill="midnightblue" stroke="midnightblue" points="412.57,-34.99 421.35,-29.06 410.79,-28.22 412.57,-34.99"/>
</g>
<!-- Node8&#45;&gt;Node10 -->
<g id="edge10" class="edge">
<title>Node8&#45;&gt;Node10</title>
<path fill="none" stroke="midnightblue" d="M226.85,-67.48C210.98,-59.12 186.24,-46.09 165.75,-35.3"/>
<polygon fill="midnightblue" stroke="midnightblue" points="167.16,-32.09 156.68,-30.52 163.89,-38.28 167.16,-32.09"/>
</g>
<!-- Node8&#45;&gt;Node11 -->
<g id="edge11" class="edge">
<title>Node8&#45;&gt;Node11</title>
<path fill="none" stroke="midnightblue" d="M243.04,-67.48C243.04,-60.47 243.04,-50.19 243.04,-40.7"/>
<polygon fill="midnightblue" stroke="midnightblue" points="246.54,-40.52 243.04,-30.52 239.54,-40.52 246.54,-40.52"/>
</g>
<!-- Node8&#45;&gt;Node12 -->
<g id="edge12" class="edge">
<title>Node8&#45;&gt;Node12</title>
<path fill="none" stroke="midnightblue" d="M259.23,-67.48C275.11,-59.12 299.85,-46.09 320.34,-35.3"/>
<polygon fill="midnightblue" stroke="midnightblue" points="322.2,-38.28 329.41,-30.52 318.93,-32.09 322.2,-38.28"/>
</g>
<!-- Node14 -->
<g id="node14" class="node">
<title>Node14</title>
<g id="a_node14"><a xlink:href="Point_8hpp.html" target="_top" xlink:title=" ">
<polygon fill="none" stroke="black" points="575.54,-6 575.54,-25 632.54,-25 632.54,-6 575.54,-6"/>
<text text-anchor="middle" x="604.04" y="-13" font-family="Helvetica,sans-Serif" font-size="10.00">Point.hpp</text>
</a>
</g>
</g>
<!-- Node13&#45;&gt;Node14 -->
<g id="edge14" class="edge">
<title>Node13&#45;&gt;Node14</title>
<path fill="none" stroke="midnightblue" d="M531.22,-67.48C544.86,-57.93 567.18,-42.31 583.52,-30.87"/>
<polygon fill="midnightblue" stroke="midnightblue" points="585.7,-33.61 591.89,-25.01 581.69,-27.88 585.7,-33.61"/>
</g>
<!-- Node16&#45;&gt;Node3 -->
<g id="edge25" class="edge">
<title>Node16&#45;&gt;Node3</title>
<path fill="none" stroke="midnightblue" d="M293.66,-258.61C345.69,-254.64 421.65,-243.04 479.04,-210 528.83,-181.34 568.81,-124.19 586.77,-95.41"/>
<polygon fill="midnightblue" stroke="midnightblue" points="589.79,-97.18 592,-86.82 583.81,-93.54 589.79,-97.18"/>
</g>
<!-- Node16&#45;&gt;Node4 -->
<g id="edge24" class="edge">
<title>Node16&#45;&gt;Node4</title>
<path fill="none" stroke="midnightblue" d="M174.49,-253.45C122.28,-245.9 52.12,-231.94 35.04,-210 9.03,-176.56 28.54,-123.21 41.67,-95.7"/>
<polygon fill="midnightblue" stroke="midnightblue" points="44.93,-97.02 46.29,-86.51 38.67,-93.88 44.93,-97.02"/>
</g>
<!-- Node16&#45;&gt;Node5 -->
<g id="edge26" class="edge">
<title>Node16&#45;&gt;Node5</title>
<path fill="none" stroke="midnightblue" d="M174.37,-254.59C117.93,-247.63 39.09,-233.87 20.04,-210 -21.53,-157.91 12.33,-71.07 29.99,-34.07"/>
<polygon fill="midnightblue" stroke="midnightblue" points="33.17,-35.54 34.47,-25.02 26.89,-32.43 33.17,-35.54"/>
</g>
<!-- Node16&#45;&gt;Node6 -->
<g id="edge27" class="edge">
<title>Node16&#45;&gt;Node6</title>
<path fill="none" stroke="midnightblue" d="M293.66,-254.72C352.35,-247.74 436.27,-233.85 458.04,-210 471.97,-194.75 472.69,-170.06 471.09,-152.98"/>
<polygon fill="midnightblue" stroke="midnightblue" points="474.5,-152.05 469.75,-142.58 467.56,-152.95 474.5,-152.05"/>
</g>
<!-- Node16&#45;&gt;Node7 -->
<g id="edge34" class="edge">
<title>Node16&#45;&gt;Node7</title>
<path fill="none" stroke="midnightblue" d="M230.02,-251.99C223.29,-236.4 211.72,-202.7 225.04,-179 233.27,-164.38 248.38,-153.95 262.81,-146.85"/>
<polygon fill="midnightblue" stroke="midnightblue" points="264.44,-149.95 272.12,-142.64 261.56,-143.57 264.44,-149.95"/>
</g>
<!-- Node17 -->
<g id="node17" class="node">
<title>Node17</title>
<g id="a_node17"><a xlink:title=" ">
<polygon fill="none" stroke="#bfbfbf" points="234.04,-185 234.04,-204 288.04,-204 288.04,-185 234.04,-185"/>
<text text-anchor="middle" x="261.04" y="-192" font-family="Helvetica,sans-Serif" font-size="10.00">tinyxml.h</text>
</a>
</g>
</g>
<!-- Node16&#45;&gt;Node17 -->
<g id="edge28" class="edge">
<title>Node16&#45;&gt;Node17</title>
<path fill="none" stroke="midnightblue" d="M237.69,-251.73C241.73,-241.99 248.38,-225.98 253.55,-213.53"/>
<polygon fill="midnightblue" stroke="midnightblue" points="256.86,-214.7 257.46,-204.13 250.39,-212.02 256.86,-214.7"/>
</g>
<!-- Node18 -->
<g id="node18" class="node">
<title>Node18</title>
<g id="a_node18"><a xlink:href="AbstractLevelParser_8hpp.html" target="_top" xlink:title=" ">
<polygon fill="none" stroke="black" points="44.54,-179.5 44.54,-209.5 177.54,-209.5 177.54,-179.5 44.54,-179.5"/>
<text text-anchor="start" x="52.54" y="-197.5" font-family="Helvetica,sans-Serif" font-size="10.00">LevelParser/AbstractLevel</text>
<text text-anchor="middle" x="111.04" y="-186.5" font-family="Helvetica,sans-Serif" font-size="10.00">Parser.hpp</text>
</a>
</g>
</g>
<!-- Node16&#45;&gt;Node18 -->
<g id="edge29" class="edge">
<title>Node16&#45;&gt;Node18</title>
<path fill="none" stroke="midnightblue" d="M217.71,-251.87C199.71,-242.36 170.21,-226.77 146.79,-214.39"/>
<polygon fill="midnightblue" stroke="midnightblue" points="148.3,-211.23 137.82,-209.65 145.03,-217.42 148.3,-211.23"/>
</g>
<!-- Node18&#45;&gt;Node3 -->
<g id="edge31" class="edge">
<title>Node18&#45;&gt;Node3</title>
<path fill="none" stroke="midnightblue" d="M177.7,-182.39C226.47,-173.57 293.97,-159.93 352.04,-143 376.22,-135.95 380.92,-130.19 405.04,-123 472.69,-102.83 493.87,-105.34 566.36,-87"/>
<polygon fill="midnightblue" stroke="midnightblue" points="567.63,-90.28 576.44,-84.4 565.89,-83.5 567.63,-90.28"/>
</g>
<!-- Node18&#45;&gt;Node4 -->
<g id="edge32" class="edge">
<title>Node18&#45;&gt;Node4</title>
<path fill="none" stroke="midnightblue" d="M97.58,-179.49C88.97,-169.87 78.13,-156.46 71.04,-143 63.32,-128.31 58.04,-110.14 54.86,-96.75"/>
<polygon fill="midnightblue" stroke="midnightblue" points="58.24,-95.82 52.67,-86.81 51.4,-97.33 58.24,-95.82"/>
</g>
<!-- Node18&#45;&gt;Node5 -->
<g id="edge30" class="edge">
<title>Node18&#45;&gt;Node5</title>
<path fill="none" stroke="midnightblue" d="M92.75,-179.38C70.75,-160.98 35.37,-126.47 24.04,-87 18.99,-69.38 24.63,-48.85 30.38,-34.5"/>
<polygon fill="midnightblue" stroke="midnightblue" points="33.61,-35.84 34.44,-25.28 27.21,-33.02 33.61,-35.84"/>
</g>
<!-- Node18&#45;&gt;Node7 -->
<g id="edge33" class="edge">
<title>Node18&#45;&gt;Node7</title>
<path fill="none" stroke="midnightblue" d="M155.6,-179.4C188.08,-169.12 231.58,-155.35 262.13,-145.68"/>
<polygon fill="midnightblue" stroke="midnightblue" points="263.49,-148.93 271.96,-142.57 261.37,-142.25 263.49,-148.93"/>
</g>
<!-- Node19&#45;&gt;Node3 -->
<g id="edge38" class="edge">
<title>Node19&#45;&gt;Node3</title>
<path fill="none" stroke="midnightblue" d="M608.73,-123.08C606.88,-115.93 604.21,-105.64 601.89,-96.69"/>
<polygon fill="midnightblue" stroke="midnightblue" points="605.21,-95.55 599.31,-86.75 598.44,-97.31 605.21,-95.55"/>
</g>
<!-- Node19&#45;&gt;Node14 -->
<g id="edge36" class="edge">
<title>Node19&#45;&gt;Node14</title>
<path fill="none" stroke="midnightblue" d="M615.82,-123.2C621.98,-110.74 631.43,-87.22 627.04,-67 624.53,-55.4 619.11,-43.27 614.16,-33.81"/>
<polygon fill="midnightblue" stroke="midnightblue" points="617.22,-32.1 609.32,-25.04 611.09,-35.49 617.22,-32.1"/>
</g>
<!-- Node20 -->
<g id="node20" class="node">
<title>Node20</title>
<g id="a_node20"><a xlink:href="Color_8hpp.html" target="_top" xlink:title=" ">
<polygon fill="none" stroke="black" points="674.54,-67.5 674.54,-86.5 731.54,-86.5 731.54,-67.5 674.54,-67.5"/>
<text text-anchor="middle" x="703.04" y="-74.5" font-family="Helvetica,sans-Serif" font-size="10.00">Color.hpp</text>
</a>
</g>
</g>
<!-- Node19&#45;&gt;Node20 -->
<g id="edge37" class="edge">
<title>Node19&#45;&gt;Node20</title>
<path fill="none" stroke="midnightblue" d="M625.83,-123.32C640.31,-114.82 662.62,-101.73 679.54,-91.8"/>
<polygon fill="midnightblue" stroke="midnightblue" points="681.45,-94.74 688.3,-86.65 677.9,-88.7 681.45,-94.74"/>
</g>
<!-- Node22 -->
<g id="node22" class="node">
<title>Node22</title>
<g id="a_node22"><a xlink:title=" ">
<polygon fill="none" stroke="#bfbfbf" points="628.54,-185 628.54,-204 687.54,-204 687.54,-185 628.54,-185"/>
<text text-anchor="middle" x="658.04" y="-192" font-family="Helvetica,sans-Serif" font-size="10.00">stdexcept</text>
</a>
</g>
</g>
<!-- Node21&#45;&gt;Node22 -->
<g id="edge40" class="edge">
<title>Node21&#45;&gt;Node22</title>
<path fill="none" stroke="midnightblue" d="M658.04,-246.4C658.04,-237.06 658.04,-224.71 658.04,-214.52"/>
<polygon fill="midnightblue" stroke="midnightblue" points="661.54,-214.19 658.04,-204.19 654.54,-214.19 661.54,-214.19"/>
</g>
</g>
</svg>
