<svg xmlns="http://www.w3.org/2000/svg" xmlns:xlink="http://www.w3.org/1999/xlink" width="587pt" height="106pt" viewBox="0 0 587 106"><g id="graph0" class="graph" transform="scale(1 1) rotate(0) translate(4 102)"><title>includes/platformer-engine/LevelParser/LevelParser.hpp</title><g id="node1" class="node"><title>Node1</title><g id="a_node1"><a><polygon fill="#bfbfbf" stroke="#000" points="260 -56.5 260 -97.5 364 -97.5 364 -56.5 260 -56.5"/><text x="268" y="-85.5" font-family="Helvetica,sans-Serif" font-size="10" text-anchor="start">includes/platformer</text><text x="268" y="-74.5" font-family="Helvetica,sans-Serif" font-size="10" text-anchor="start">-engine/LevelParser</text><text x="312" y="-63.5" font-family="Helvetica,sans-Serif" font-size="10" text-anchor="middle">/LevelParser.hpp</text></a></g></g><g id="node2" class="node"><title>Node2</title><g id="a_node2"><a target="_top" xlink:href="TMXParser_8cpp.html"><polygon fill="none" stroke="#000" points="0 -.5 0 -19.5 136 -19.5 136 -.5 0 -.5"/><text x="68" y="-7.5" font-family="Helvetica,sans-Serif" font-size="10" text-anchor="middle">src/Facade/TMXParser.cpp</text></a></g></g><g id="edge1" class="edge"><title>Node1-&gt;Node2</title><path fill="none" stroke="#191970" d="M250.03,-59.49C202.28,-46.77 138.19,-29.7 100.18,-19.57"/><polygon fill="#191970" stroke="#191970" points="249.39 -62.94 259.96 -62.14 251.19 -56.18 249.39 -62.94"/></g><g id="node3" class="node"><title>Node3</title><g id="a_node3"><a target="_top" xlink:href="LevelParser_8cpp.html"><polygon fill="none" stroke="#000" points="154.5 -.5 154.5 -19.5 313.5 -19.5 313.5 -.5 154.5 -.5"/><text x="234" y="-7.5" font-family="Helvetica,sans-Serif" font-size="10" text-anchor="middle">src/LevelParser/LevelParser.cpp</text></a></g></g><g id="edge2" class="edge"><title>Node1-&gt;Node3</title><path fill="none" stroke="#191970" d="M280.75,-49.96C267.81,-39.17 253.68,-27.4 244.38,-19.65"/><polygon fill="#191970" stroke="#191970" points="278.67 -52.78 288.6 -56.5 283.16 -47.41 278.67 -52.78"/></g><g id="node4" class="node"><title>Node4</title><g id="a_node4"><a target="_top" xlink:href="Window_8cpp.html"><polygon fill="none" stroke="#000" points="331.5 -.5 331.5 -19.5 450.5 -19.5 450.5 -.5 331.5 -.5"/><text x="391" y="-7.5" font-family="Helvetica,sans-Serif" font-size="10" text-anchor="middle">src/Render/Window.cpp</text></a></g></g><g id="edge3" class="edge"><title>Node1-&gt;Node4</title><path fill="none" stroke="#191970" d="M343.65,-49.96C356.76,-39.17 371.07,-27.4 380.48,-19.65"/><polygon fill="#191970" stroke="#191970" points="341.2 -47.44 335.7 -56.5 345.65 -52.85 341.2 -47.44"/></g><g id="node5" class="node"><title>Node5</title><g id="a_node5"><a target="_top" xlink:href="Scene_8cpp.html"><polygon fill="none" stroke="#000" points="469 -.5 469 -19.5 579 -19.5 579 -.5 469 -.5"/><text x="524" y="-7.5" font-family="Helvetica,sans-Serif" font-size="10" text-anchor="middle">src/Scene/Scene.cpp</text></a></g></g><g id="edge4" class="edge"><title>Node1-&gt;Node5</title><path fill="none" stroke="#191970" d="M373.9,-57.02C414.34,-44.62 465.19,-29.03 496.11,-19.55"/><polygon fill="#191970" stroke="#191970" points="372.67 -53.74 364.13 -60.02 374.72 -60.43 372.67 -53.74"/></g></g></svg>