<?xml version="1.0" encoding="UTF-8" standalone="no"?>
<!DOCTYPE svg PUBLIC "-//W3C//DTD SVG 1.1//EN"
 "http://www.w3.org/Graphics/SVG/1.1/DTD/svg11.dtd">
<!-- Generated by graphviz version 2.44.0 ()
 -->
<!-- Title: src/Facade/NetworkingFacade.cpp Pages: 1 -->
<!--zoomable 263 -->
<svg id="main" version="1.1" xmlns="http://www.w3.org/2000/svg" xmlns:xlink="http://www.w3.org/1999/xlink" xml:space="preserve" onload="init(evt)">
<style type="text/css"><![CDATA[
.edge:hover path { stroke: red; }
.edge:hover polygon { stroke: red; fill: red; }
]]></style>
<script type="text/javascript"><![CDATA[
var edges = document.getElementsByTagName('g');
if (edges && edges.length) {
  for (var i=0;i<edges.length;i++) {
    if (edges[i].id.substr(0,4)=='edge') {
      edges[i].setAttribute('class','edge');
    }
  }
}
]]></script>
        <defs>
                <circle id="rim" cx="0" cy="0" r="7"/>
                <circle id="rim2" cx="0" cy="0" r="3.5"/>
                <g id="zoomPlus">
                        <use xlink:href="#rim" fill="#404040">
                                <set attributeName="fill" to="#808080" begin="zoomplus.mouseover" end="zoomplus.mouseout"/>
                        </use>
                        <path d="M-4,0h8M0,-4v8" fill="none" stroke="white" stroke-width="1.5" pointer-events="none"/>
                </g>
                <g id="zoomMin">
                        <use xlink:href="#rim" fill="#404040">
                                <set attributeName="fill" to="#808080" begin="zoomminus.mouseover" end="zoomminus.mouseout"/>
                        </use>
                        <path d="M-4,0h8" fill="none" stroke="white" stroke-width="1.5" pointer-events="none"/>
                </g>
                <g id="dirArrow">
                        <path fill="none" stroke="white" stroke-width="1.5" d="M0,-3.0v7 M-2.5,-0.5L0,-3.0L2.5,-0.5"/>
                </g>
               <g id="resetDef">
                       <use xlink:href="#rim2" fill="#404040">
                               <set attributeName="fill" to="#808080" begin="reset.mouseover" end="reset.mouseout"/>
                       </use>
               </g>
        </defs>

<script type="text/javascript">
var viewWidth = 1538;
var viewHeight = 263;
var sectionId = 'dynsection-0';
</script>
<script xlink:href="svgpan.js"/>
<svg id="graph" class="graph">
<g id="viewport">
<title>src/Facade/NetworkingFacade.cpp</title>
<!-- Node1 -->
<g id="node1" class="node">
<title>Node1</title>
<g id="a_node1"><a xlink:title=" ">
<polygon fill="#bfbfbf" stroke="black" points="761.5,-235.5 761.5,-254.5 929.5,-254.5 929.5,-235.5 761.5,-235.5"/>
<text text-anchor="middle" x="845.5" y="-242.5" font-family="Helvetica,sans-Serif" font-size="10.00">src/Facade/NetworkingFacade.cpp</text>
</a>
</g>
</g>
<!-- Node2 -->
<g id="node2" class="node">
<title>Node2</title>
<g id="a_node2"><a xlink:href="NetworkingFacade_8hpp.html" target="_top" xlink:title=" ">
<polygon fill="none" stroke="black" points="241.5,-112.5 241.5,-131.5 393.5,-131.5 393.5,-112.5 241.5,-112.5"/>
<text text-anchor="middle" x="317.5" y="-119.5" font-family="Helvetica,sans-Serif" font-size="10.00">Facade/NetworkingFacade.hpp</text>
</a>
</g>
</g>
<!-- Node1&#45;&gt;Node2 -->
<g id="edge1" class="edge">
<title>Node1&#45;&gt;Node2</title>
<path fill="none" stroke="midnightblue" d="M761.3,-241.02C653.11,-236.2 471.93,-224.55 410.5,-199 378.44,-185.67 348.75,-157.53 331.9,-139.48"/>
<polygon fill="midnightblue" stroke="midnightblue" points="334.41,-137.05 325.1,-131.99 329.23,-141.75 334.41,-137.05"/>
</g>
<!-- Node8 -->
<g id="node8" class="node">
<title>Node8</title>
<g id="a_node8"><a xlink:title=" ">
<polygon fill="none" stroke="#bfbfbf" points="420,-0.5 420,-19.5 471,-19.5 471,-0.5 420,-0.5"/>
<text text-anchor="middle" x="445.5" y="-7.5" font-family="Helvetica,sans-Serif" font-size="10.00">memory</text>
</a>
</g>
</g>
<!-- Node1&#45;&gt;Node8 -->
<g id="edge40" class="edge">
<title>Node1&#45;&gt;Node8</title>
<path fill="none" stroke="midnightblue" d="M761.25,-239.62C654.16,-233.22 480.57,-219.79 459.5,-199 413.7,-153.81 429.99,-67.15 440.01,-29.37"/>
<polygon fill="midnightblue" stroke="midnightblue" points="443.4,-30.27 442.73,-19.7 436.66,-28.38 443.4,-30.27"/>
</g>
<!-- Node13 -->
<g id="node13" class="node">
<title>Node13</title>
<g id="a_node13"><a xlink:href="NetworkingCouldNotBeInitialized_8hpp.html" target="_top" xlink:title=" ">
<polygon fill="none" stroke="black" points="950,-168.5 950,-198.5 1091,-198.5 1091,-168.5 950,-168.5"/>
<text text-anchor="start" x="958" y="-186.5" font-family="Helvetica,sans-Serif" font-size="10.00">Exceptions/NetworkingCould</text>
<text text-anchor="middle" x="1020.5" y="-175.5" font-family="Helvetica,sans-Serif" font-size="10.00">NotBeInitialized.hpp</text>
</a>
</g>
</g>
<!-- Node1&#45;&gt;Node13 -->
<g id="edge12" class="edge">
<title>Node1&#45;&gt;Node13</title>
<path fill="none" stroke="midnightblue" d="M870.57,-235.48C896.27,-226.74 936.95,-212.91 969.46,-201.86"/>
<polygon fill="midnightblue" stroke="midnightblue" points="970.91,-205.06 979.26,-198.52 968.66,-198.43 970.91,-205.06"/>
</g>
<!-- Node15 -->
<g id="node15" class="node">
<title>Node15</title>
<g id="a_node15"><a xlink:href="FailedToStartServerException_8hpp.html" target="_top" xlink:title=" ">
<polygon fill="none" stroke="black" points="1109,-168.5 1109,-198.5 1234,-198.5 1234,-168.5 1109,-168.5"/>
<text text-anchor="start" x="1117" y="-186.5" font-family="Helvetica,sans-Serif" font-size="10.00">Exceptions/FailedToStart</text>
<text text-anchor="middle" x="1171.5" y="-175.5" font-family="Helvetica,sans-Serif" font-size="10.00">ServerException.hpp</text>
</a>
</g>
</g>
<!-- Node1&#45;&gt;Node15 -->
<g id="edge14" class="edge">
<title>Node1&#45;&gt;Node15</title>
<path fill="none" stroke="midnightblue" d="M896.37,-235.43C945.68,-227.04 1022.85,-213.66 1098.61,-199.33"/>
<polygon fill="midnightblue" stroke="midnightblue" points="1099.63,-202.7 1108.8,-197.4 1098.32,-195.83 1099.63,-202.7"/>
</g>
<!-- Node16 -->
<g id="node16" class="node">
<title>Node16</title>
<g id="a_node16"><a xlink:href="CouldNotConnectToServerException_8hpp.html" target="_top" xlink:title=" ">
<polygon fill="none" stroke="black" points="1252,-168.5 1252,-198.5 1395,-198.5 1395,-168.5 1252,-168.5"/>
<text text-anchor="start" x="1260" y="-186.5" font-family="Helvetica,sans-Serif" font-size="10.00">Exceptions/CouldNotConnect</text>
<text text-anchor="middle" x="1323.5" y="-175.5" font-family="Helvetica,sans-Serif" font-size="10.00">ToServerException.hpp</text>
</a>
</g>
</g>
<!-- Node1&#45;&gt;Node16 -->
<g id="edge16" class="edge">
<title>Node1&#45;&gt;Node16</title>
<path fill="none" stroke="midnightblue" d="M929.57,-236.14C1007.9,-228.44 1128.19,-215.65 1241.35,-199.26"/>
<polygon fill="midnightblue" stroke="midnightblue" points="1242.19,-202.68 1251.58,-197.77 1241.18,-195.75 1242.19,-202.68"/>
</g>
<!-- Node17 -->
<g id="node17" class="node">
<title>Node17</title>
<g id="a_node17"><a xlink:href="Client_8hpp.html" target="_top" xlink:title=" ">
<polygon fill="none" stroke="black" points="27.5,-112.5 27.5,-131.5 139.5,-131.5 139.5,-112.5 27.5,-112.5"/>
<text text-anchor="middle" x="83.5" y="-119.5" font-family="Helvetica,sans-Serif" font-size="10.00">Networking/Client.hpp</text>
</a>
</g>
</g>
<!-- Node1&#45;&gt;Node17 -->
<g id="edge18" class="edge">
<title>Node1&#45;&gt;Node17</title>
<path fill="none" stroke="midnightblue" d="M761.21,-240.66C663.99,-235.78 499.64,-224.34 360.5,-199 271.96,-182.88 170.6,-151.72 118.49,-134.73"/>
<polygon fill="midnightblue" stroke="midnightblue" points="119.33,-131.33 108.74,-131.53 117.15,-137.98 119.33,-131.33"/>
</g>
<!-- Node18 -->
<g id="node18" class="node">
<title>Node18</title>
<g id="a_node18"><a xlink:href="ClientNetworkManager_8hpp.html" target="_top" xlink:title=" ">
<polygon fill="none" stroke="black" points="469,-168.5 469,-198.5 600,-198.5 600,-168.5 469,-168.5"/>
<text text-anchor="start" x="477" y="-186.5" font-family="Helvetica,sans-Serif" font-size="10.00">Networking/ClientNetwork</text>
<text text-anchor="middle" x="534.5" y="-175.5" font-family="Helvetica,sans-Serif" font-size="10.00">Manager.hpp</text>
</a>
</g>
</g>
<!-- Node1&#45;&gt;Node18 -->
<g id="edge20" class="edge">
<title>Node1&#45;&gt;Node18</title>
<path fill="none" stroke="midnightblue" d="M800.69,-235.49C755.35,-226.87 682.94,-213.09 610.56,-199.2"/>
<polygon fill="midnightblue" stroke="midnightblue" points="610.83,-195.69 600.35,-197.24 609.51,-202.56 610.83,-195.69"/>
</g>
<!-- Node26 -->
<g id="node26" class="node">
<title>Node26</title>
<g id="a_node26"><a xlink:href="InvalidPlayerSlotsException_8hpp.html" target="_top" xlink:title=" ">
<polygon fill="none" stroke="black" points="618.5,-168.5 618.5,-198.5 740.5,-198.5 740.5,-168.5 618.5,-168.5"/>
<text text-anchor="start" x="626.5" y="-186.5" font-family="Helvetica,sans-Serif" font-size="10.00">Exceptions/InvalidPlayer</text>
<text text-anchor="middle" x="679.5" y="-175.5" font-family="Helvetica,sans-Serif" font-size="10.00">SlotsException.hpp</text>
</a>
</g>
</g>
<!-- Node1&#45;&gt;Node26 -->
<g id="edge36" class="edge">
<title>Node1&#45;&gt;Node26</title>
<path fill="none" stroke="midnightblue" d="M821.72,-235.48C797.45,-226.78 759.09,-213.03 728.32,-202"/>
<polygon fill="midnightblue" stroke="midnightblue" points="729.22,-198.6 718.62,-198.52 726.86,-205.19 729.22,-198.6"/>
</g>
<!-- Node27 -->
<g id="node27" class="node">
<title>Node27</title>
<g id="a_node27"><a xlink:href="InvalidPortException_8hpp.html" target="_top" xlink:title=" ">
<polygon fill="none" stroke="black" points="759,-174 759,-193 932,-193 932,-174 759,-174"/>
<text text-anchor="middle" x="845.5" y="-181" font-family="Helvetica,sans-Serif" font-size="10.00">Exceptions/InvalidPortException.hpp</text>
</a>
</g>
</g>
<!-- Node1&#45;&gt;Node27 -->
<g id="edge38" class="edge">
<title>Node1&#45;&gt;Node27</title>
<path fill="none" stroke="midnightblue" d="M845.5,-235.48C845.5,-227.08 845.5,-213.98 845.5,-203.16"/>
<polygon fill="midnightblue" stroke="midnightblue" points="849,-203.01 845.5,-193.01 842,-203.01 849,-203.01"/>
</g>
<!-- Node28 -->
<g id="node28" class="node">
<title>Node28</title>
<g id="a_node28"><a xlink:title=" ">
<polygon fill="none" stroke="#bfbfbf" points="1413.5,-174 1413.5,-193 1467.5,-193 1467.5,-174 1413.5,-174"/>
<text text-anchor="middle" x="1440.5" y="-181" font-family="Helvetica,sans-Serif" font-size="10.00">iostream</text>
</a>
</g>
</g>
<!-- Node1&#45;&gt;Node28 -->
<g id="edge41" class="edge">
<title>Node1&#45;&gt;Node28</title>
<path fill="none" stroke="midnightblue" d="M929.61,-240.34C1062.92,-234.03 1316.67,-219.72 1404.5,-199 1407.17,-198.37 1409.91,-197.57 1412.62,-196.68"/>
<polygon fill="midnightblue" stroke="midnightblue" points="1414.01,-199.89 1422.16,-193.13 1411.57,-193.33 1414.01,-199.89"/>
</g>
<!-- Node29 -->
<g id="node29" class="node">
<title>Node29</title>
<g id="a_node29"><a xlink:title=" ">
<polygon fill="none" stroke="#bfbfbf" points="1485.5,-174 1485.5,-193 1529.5,-193 1529.5,-174 1485.5,-174"/>
<text text-anchor="middle" x="1507.5" y="-181" font-family="Helvetica,sans-Serif" font-size="10.00">thread</text>
</a>
</g>
</g>
<!-- Node1&#45;&gt;Node29 -->
<g id="edge42" class="edge">
<title>Node1&#45;&gt;Node29</title>
<path fill="none" stroke="midnightblue" d="M929.56,-241.8C1076.85,-237.32 1375.52,-225.25 1476.5,-199 1478.48,-198.48 1480.5,-197.84 1482.49,-197.12"/>
<polygon fill="midnightblue" stroke="midnightblue" points="1484.3,-200.16 1492.15,-193.03 1481.57,-193.71 1484.3,-200.16"/>
</g>
<!-- Node3 -->
<g id="node3" class="node">
<title>Node3</title>
<g id="a_node3"><a xlink:title=" ">
<polygon fill="none" stroke="#bfbfbf" points="149,-56.5 149,-75.5 214,-75.5 214,-56.5 149,-56.5"/>
<text text-anchor="middle" x="181.5" y="-63.5" font-family="Helvetica,sans-Serif" font-size="10.00">enet/enet.h</text>
</a>
</g>
</g>
<!-- Node2&#45;&gt;Node3 -->
<g id="edge2" class="edge">
<title>Node2&#45;&gt;Node3</title>
<path fill="none" stroke="midnightblue" d="M295.95,-112.44C273.47,-103.52 238.01,-89.44 212.52,-79.32"/>
<polygon fill="midnightblue" stroke="midnightblue" points="213.53,-75.95 202.95,-75.52 210.95,-82.46 213.53,-75.95"/>
</g>
<!-- Node4 -->
<g id="node4" class="node">
<title>Node4</title>
<g id="a_node4"><a xlink:href="Debug_8hpp.html" target="_top" xlink:title=" ">
<polygon fill="none" stroke="black" points="30.5,-56.5 30.5,-75.5 92.5,-75.5 92.5,-56.5 30.5,-56.5"/>
<text text-anchor="middle" x="61.5" y="-63.5" font-family="Helvetica,sans-Serif" font-size="10.00">Debug.hpp</text>
</a>
</g>
</g>
<!-- Node2&#45;&gt;Node4 -->
<g id="edge3" class="edge">
<title>Node2&#45;&gt;Node4</title>
<path fill="none" stroke="midnightblue" d="M276.94,-112.44C229.26,-102.39 150.57,-85.79 102.64,-75.68"/>
<polygon fill="midnightblue" stroke="midnightblue" points="103.12,-72.2 92.61,-73.56 101.68,-79.05 103.12,-72.2"/>
</g>
<!-- Node2&#45;&gt;Node8 -->
<g id="edge7" class="edge">
<title>Node2&#45;&gt;Node8</title>
<path fill="none" stroke="midnightblue" d="M241.28,-116.71C178.92,-110.38 106.06,-94.72 139.5,-56 156.99,-35.75 332.84,-19.75 409.77,-13.66"/>
<polygon fill="midnightblue" stroke="midnightblue" points="410.25,-17.13 419.95,-12.87 409.71,-10.15 410.25,-17.13"/>
</g>
<!-- Node9 -->
<g id="node9" class="node">
<title>Node9</title>
<g id="a_node9"><a xlink:title=" ">
<polygon fill="none" stroke="#bfbfbf" points="635,-56.5 635,-75.5 670,-75.5 670,-56.5 635,-56.5"/>
<text text-anchor="middle" x="652.5" y="-63.5" font-family="Helvetica,sans-Serif" font-size="10.00">map</text>
</a>
</g>
</g>
<!-- Node2&#45;&gt;Node9 -->
<g id="edge8" class="edge">
<title>Node2&#45;&gt;Node9</title>
<path fill="none" stroke="midnightblue" d="M393.52,-113.68C453.96,-106.99 540.7,-95.46 625.16,-75.68"/>
<polygon fill="midnightblue" stroke="midnightblue" points="625.99,-79.08 634.91,-73.36 624.37,-72.27 625.99,-79.08"/>
</g>
<!-- Node10 -->
<g id="node10" class="node">
<title>Node10</title>
<g id="a_node10"><a xlink:href="INetworkManager_8hpp.html" target="_top" xlink:title=" ">
<polygon fill="none" stroke="black" points="452.5,-56.5 452.5,-75.5 616.5,-75.5 616.5,-56.5 452.5,-56.5"/>
<text text-anchor="middle" x="534.5" y="-63.5" font-family="Helvetica,sans-Serif" font-size="10.00">Networking/INetworkManager.hpp</text>
</a>
</g>
</g>
<!-- Node2&#45;&gt;Node10 -->
<g id="edge9" class="edge">
<title>Node2&#45;&gt;Node10</title>
<path fill="none" stroke="midnightblue" d="M351.88,-112.44C389.42,-103.1 449.63,-88.12 490.57,-77.93"/>
<polygon fill="midnightblue" stroke="midnightblue" points="491.42,-81.33 500.28,-75.52 489.73,-74.53 491.42,-81.33"/>
</g>
<!-- Node12 -->
<g id="node12" class="node">
<title>Node12</title>
<g id="a_node12"><a xlink:href="ConnectionStatus_8hpp.html" target="_top" xlink:title=" ">
<polygon fill="none" stroke="black" points="232.5,-56.5 232.5,-75.5 396.5,-75.5 396.5,-56.5 232.5,-56.5"/>
<text text-anchor="middle" x="314.5" y="-63.5" font-family="Helvetica,sans-Serif" font-size="10.00">Networking/ConnectionStatus.hpp</text>
</a>
</g>
</g>
<!-- Node2&#45;&gt;Node12 -->
<g id="edge11" class="edge">
<title>Node2&#45;&gt;Node12</title>
<path fill="none" stroke="midnightblue" d="M317,-112.08C316.61,-105.01 316.05,-94.86 315.55,-85.99"/>
<polygon fill="midnightblue" stroke="midnightblue" points="319.04,-85.54 314.99,-75.75 312.05,-85.93 319.04,-85.54"/>
</g>
<!-- Node5 -->
<g id="node5" class="node">
<title>Node5</title>
<g id="a_node5"><a xlink:href="Point_8hpp.html" target="_top" xlink:title=" ">
<polygon fill="none" stroke="black" points="267,-0.5 267,-19.5 324,-19.5 324,-0.5 267,-0.5"/>
<text text-anchor="middle" x="295.5" y="-7.5" font-family="Helvetica,sans-Serif" font-size="10.00">Point.hpp</text>
</a>
</g>
</g>
<!-- Node4&#45;&gt;Node5 -->
<g id="edge4" class="edge">
<title>Node4&#45;&gt;Node5</title>
<path fill="none" stroke="midnightblue" d="M92.57,-57.83C134.99,-48.04 210.99,-30.5 256.98,-19.89"/>
<polygon fill="midnightblue" stroke="midnightblue" points="257.91,-23.27 266.87,-17.61 256.34,-16.45 257.91,-23.27"/>
</g>
<!-- Node6 -->
<g id="node6" class="node">
<title>Node6</title>
<g id="a_node6"><a xlink:href="Color_8hpp.html" target="_top" xlink:title=" ">
<polygon fill="none" stroke="black" points="0,-0.5 0,-19.5 57,-19.5 57,-0.5 0,-0.5"/>
<text text-anchor="middle" x="28.5" y="-7.5" font-family="Helvetica,sans-Serif" font-size="10.00">Color.hpp</text>
</a>
</g>
</g>
<!-- Node4&#45;&gt;Node6 -->
<g id="edge5" class="edge">
<title>Node4&#45;&gt;Node6</title>
<path fill="none" stroke="midnightblue" d="M56.05,-56.08C51.49,-48.61 44.83,-37.72 39.21,-28.52"/>
<polygon fill="midnightblue" stroke="midnightblue" points="42.05,-26.46 33.85,-19.75 36.08,-30.11 42.05,-26.46"/>
</g>
<!-- Node7 -->
<g id="node7" class="node">
<title>Node7</title>
<g id="a_node7"><a xlink:title=" ">
<polygon fill="none" stroke="#bfbfbf" points="75,-0.5 75,-19.5 116,-19.5 116,-0.5 75,-0.5"/>
<text text-anchor="middle" x="95.5" y="-7.5" font-family="Helvetica,sans-Serif" font-size="10.00">string</text>
</a>
</g>
</g>
<!-- Node4&#45;&gt;Node7 -->
<g id="edge6" class="edge">
<title>Node4&#45;&gt;Node7</title>
<path fill="none" stroke="midnightblue" d="M67.11,-56.08C71.87,-48.53 78.82,-37.49 84.65,-28.23"/>
<polygon fill="midnightblue" stroke="midnightblue" points="87.62,-30.08 89.99,-19.75 81.7,-26.35 87.62,-30.08"/>
</g>
<!-- Node11 -->
<g id="node11" class="node">
<title>Node11</title>
<g id="a_node11"><a xlink:title=" ">
<polygon fill="none" stroke="#bfbfbf" points="829.5,-0.5 829.5,-19.5 875.5,-19.5 875.5,-0.5 829.5,-0.5"/>
<text text-anchor="middle" x="852.5" y="-7.5" font-family="Helvetica,sans-Serif" font-size="10.00">cstdint</text>
</a>
</g>
</g>
<!-- Node10&#45;&gt;Node11 -->
<g id="edge10" class="edge">
<title>Node10&#45;&gt;Node11</title>
<path fill="none" stroke="midnightblue" d="M584.89,-56.44C650.53,-45.3 763.5,-26.11 819.31,-16.64"/>
<polygon fill="midnightblue" stroke="midnightblue" points="820.09,-20.05 829.36,-14.93 818.91,-13.15 820.09,-20.05"/>
</g>
<!-- Node14 -->
<g id="node14" class="node">
<title>Node14</title>
<g id="a_node14"><a xlink:title=" ">
<polygon fill="none" stroke="#bfbfbf" points="1008,-112.5 1008,-131.5 1067,-131.5 1067,-112.5 1008,-112.5"/>
<text text-anchor="middle" x="1037.5" y="-119.5" font-family="Helvetica,sans-Serif" font-size="10.00">stdexcept</text>
</a>
</g>
</g>
<!-- Node13&#45;&gt;Node14 -->
<g id="edge13" class="edge">
<title>Node13&#45;&gt;Node14</title>
<path fill="none" stroke="midnightblue" d="M1024.53,-168.4C1026.85,-160.29 1029.78,-150.01 1032.28,-141.28"/>
<polygon fill="midnightblue" stroke="midnightblue" points="1035.64,-142.23 1035.03,-131.66 1028.91,-140.31 1035.64,-142.23"/>
</g>
<!-- Node15&#45;&gt;Node14 -->
<g id="edge15" class="edge">
<title>Node15&#45;&gt;Node14</title>
<path fill="none" stroke="midnightblue" d="M1139.74,-168.4C1117.46,-158.51 1087.91,-145.38 1066.31,-135.79"/>
<polygon fill="midnightblue" stroke="midnightblue" points="1067.56,-132.52 1057,-131.66 1064.72,-138.91 1067.56,-132.52"/>
</g>
<!-- Node16&#45;&gt;Node14 -->
<g id="edge17" class="edge">
<title>Node16&#45;&gt;Node14</title>
<path fill="none" stroke="midnightblue" d="M1256.08,-168.47C1200.35,-156.88 1123.12,-140.81 1076.95,-131.21"/>
<polygon fill="midnightblue" stroke="midnightblue" points="1077.53,-127.75 1067.03,-129.14 1076.11,-134.61 1077.53,-127.75"/>
</g>
<!-- Node17&#45;&gt;Node7 -->
<g id="edge19" class="edge">
<title>Node17&#45;&gt;Node7</title>
<path fill="none" stroke="midnightblue" d="M64,-112.35C41.24,-100.93 8.28,-79.52 21.5,-56 30.84,-39.39 49.06,-28.2 65.08,-21.13"/>
<polygon fill="midnightblue" stroke="midnightblue" points="66.72,-24.25 74.68,-17.25 64.09,-17.76 66.72,-24.25"/>
</g>
<!-- Node18&#45;&gt;Node2 -->
<g id="edge34" class="edge">
<title>Node18&#45;&gt;Node2</title>
<path fill="none" stroke="midnightblue" d="M483.35,-168.47C445.26,-158.03 393.93,-143.96 358.52,-134.25"/>
<polygon fill="midnightblue" stroke="midnightblue" points="359.09,-130.78 348.52,-131.51 357.24,-137.53 359.09,-130.78"/>
</g>
<!-- Node18&#45;&gt;Node10 -->
<g id="edge33" class="edge">
<title>Node18&#45;&gt;Node10</title>
<path fill="none" stroke="midnightblue" d="M534.5,-168.34C534.5,-147.62 534.5,-109.02 534.5,-85.9"/>
<polygon fill="midnightblue" stroke="midnightblue" points="538,-85.67 534.5,-75.67 531,-85.67 538,-85.67"/>
</g>
<!-- Node19 -->
<g id="node19" class="node">
<title>Node19</title>
<g id="a_node19"><a xlink:href="GameObject_8hpp.html" target="_top" xlink:title=" ">
<polygon fill="none" stroke="black" points="704,-112.5 704,-131.5 793,-131.5 793,-112.5 704,-112.5"/>
<text text-anchor="middle" x="748.5" y="-119.5" font-family="Helvetica,sans-Serif" font-size="10.00">GameObject.hpp</text>
</a>
</g>
</g>
<!-- Node18&#45;&gt;Node19 -->
<g id="edge21" class="edge">
<title>Node18&#45;&gt;Node19</title>
<path fill="none" stroke="midnightblue" d="M584.94,-168.47C622.51,-158.03 673.12,-143.96 708.05,-134.25"/>
<polygon fill="midnightblue" stroke="midnightblue" points="709.21,-137.56 717.91,-131.51 707.33,-130.81 709.21,-137.56"/>
</g>
<!-- Node23 -->
<g id="node23" class="node">
<title>Node23</title>
<g id="a_node23"><a xlink:href="ProtocolPackages_8hpp.html" target="_top" xlink:title=" ">
<polygon fill="none" stroke="black" points="811.5,-112.5 811.5,-131.5 925.5,-131.5 925.5,-112.5 811.5,-112.5"/>
<text text-anchor="middle" x="868.5" y="-119.5" font-family="Helvetica,sans-Serif" font-size="10.00">ProtocolPackages.hpp</text>
</a>
</g>
</g>
<!-- Node18&#45;&gt;Node23 -->
<g id="edge30" class="edge">
<title>Node18&#45;&gt;Node23</title>
<path fill="none" stroke="midnightblue" d="M600.34,-169.7C603.43,-169.12 606.5,-168.55 609.5,-168 677.25,-155.57 755.15,-142.15 807.67,-133.23"/>
<polygon fill="midnightblue" stroke="midnightblue" points="808.55,-136.63 817.83,-131.51 807.38,-129.73 808.55,-136.63"/>
</g>
<!-- Node25 -->
<g id="node25" class="node">
<title>Node25</title>
<g id="a_node25"><a xlink:title=" ">
<polygon fill="none" stroke="#bfbfbf" points="943.5,-112.5 943.5,-131.5 989.5,-131.5 989.5,-112.5 943.5,-112.5"/>
<text text-anchor="middle" x="966.5" y="-119.5" font-family="Helvetica,sans-Serif" font-size="10.00">cstring</text>
</a>
</g>
</g>
<!-- Node18&#45;&gt;Node25 -->
<g id="edge35" class="edge">
<title>Node18&#45;&gt;Node25</title>
<path fill="none" stroke="midnightblue" d="M600.3,-169.47C603.41,-168.95 606.48,-168.46 609.5,-168 749.95,-146.68 790.06,-159.17 933.16,-131.97"/>
<polygon fill="midnightblue" stroke="midnightblue" points="934.03,-135.37 943.19,-130.03 932.7,-128.49 934.03,-135.37"/>
</g>
<!-- Node19&#45;&gt;Node7 -->
<g id="edge26" class="edge">
<title>Node19&#45;&gt;Node7</title>
<path fill="none" stroke="midnightblue" d="M742.47,-112.33C731.75,-97.7 707.8,-68.51 679.5,-56 653.99,-44.72 243.25,-19.72 126.33,-12.8"/>
<polygon fill="midnightblue" stroke="midnightblue" points="126.45,-9.31 116.26,-12.21 126.04,-16.29 126.45,-9.31"/>
</g>
<!-- Node19&#45;&gt;Node8 -->
<g id="edge28" class="edge">
<title>Node19&#45;&gt;Node8</title>
<path fill="none" stroke="midnightblue" d="M769.14,-112.39C795.21,-100.33 834.52,-77.47 815.5,-56 793.52,-31.18 569.65,-17.26 481.19,-12.7"/>
<polygon fill="midnightblue" stroke="midnightblue" points="481.26,-9.19 471.09,-12.19 480.9,-16.19 481.26,-9.19"/>
</g>
<!-- Node19&#45;&gt;Node9 -->
<g id="edge29" class="edge">
<title>Node19&#45;&gt;Node9</title>
<path fill="none" stroke="midnightblue" d="M733.08,-112.32C717.96,-103.82 694.68,-90.73 677.03,-80.8"/>
<polygon fill="midnightblue" stroke="midnightblue" points="678.32,-77.51 667.89,-75.65 674.89,-83.61 678.32,-77.51"/>
</g>
<!-- Node20 -->
<g id="node20" class="node">
<title>Node20</title>
<g id="a_node20"><a xlink:href="Component_8hpp.html" target="_top" xlink:title=" ">
<polygon fill="none" stroke="black" points="862.5,-56.5 862.5,-75.5 946.5,-75.5 946.5,-56.5 862.5,-56.5"/>
<text text-anchor="middle" x="904.5" y="-63.5" font-family="Helvetica,sans-Serif" font-size="10.00">Component.hpp</text>
</a>
</g>
</g>
<!-- Node19&#45;&gt;Node20 -->
<g id="edge22" class="edge">
<title>Node19&#45;&gt;Node20</title>
<path fill="none" stroke="midnightblue" d="M773.22,-112.44C799.35,-103.4 840.76,-89.06 870.08,-78.92"/>
<polygon fill="midnightblue" stroke="midnightblue" points="871.59,-82.1 879.9,-75.52 869.3,-75.48 871.59,-82.1"/>
</g>
<!-- Node21 -->
<g id="node21" class="node">
<title>Node21</title>
<g id="a_node21"><a xlink:href="Transform_8hpp.html" target="_top" xlink:title=" ">
<polygon fill="none" stroke="black" points="727,-56.5 727,-75.5 806,-75.5 806,-56.5 727,-56.5"/>
<text text-anchor="middle" x="766.5" y="-63.5" font-family="Helvetica,sans-Serif" font-size="10.00">Transform.hpp</text>
</a>
</g>
</g>
<!-- Node19&#45;&gt;Node21 -->
<g id="edge24" class="edge">
<title>Node19&#45;&gt;Node21</title>
<path fill="none" stroke="midnightblue" d="M751.47,-112.08C753.88,-104.85 757.36,-94.41 760.37,-85.4"/>
<polygon fill="midnightblue" stroke="midnightblue" points="763.74,-86.34 763.58,-75.75 757.1,-84.13 763.74,-86.34"/>
</g>
<!-- Node22 -->
<g id="node22" class="node">
<title>Node22</title>
<g id="a_node22"><a xlink:title=" ">
<polygon fill="none" stroke="#bfbfbf" points="964.5,-56.5 964.5,-75.5 1008.5,-75.5 1008.5,-56.5 964.5,-56.5"/>
<text text-anchor="middle" x="986.5" y="-63.5" font-family="Helvetica,sans-Serif" font-size="10.00">vector</text>
</a>
</g>
</g>
<!-- Node19&#45;&gt;Node22 -->
<g id="edge27" class="edge">
<title>Node19&#45;&gt;Node22</title>
<path fill="none" stroke="midnightblue" d="M791.92,-112.46C831.81,-104.42 892.77,-91.62 954.32,-76.17"/>
<polygon fill="midnightblue" stroke="midnightblue" points="955.36,-79.52 964.2,-73.67 953.65,-72.73 955.36,-79.52"/>
</g>
<!-- Node20&#45;&gt;Node8 -->
<g id="edge23" class="edge">
<title>Node20&#45;&gt;Node8</title>
<path fill="none" stroke="midnightblue" d="M862.34,-58C857.67,-57.29 852.99,-56.61 848.5,-56 713.14,-37.58 551.45,-21.23 481.11,-14.39"/>
<polygon fill="midnightblue" stroke="midnightblue" points="481.3,-10.9 471.01,-13.42 480.63,-17.86 481.3,-10.9"/>
</g>
<!-- Node21&#45;&gt;Node5 -->
<g id="edge25" class="edge">
<title>Node21&#45;&gt;Node5</title>
<path fill="none" stroke="midnightblue" d="M726.73,-58.1C721.94,-57.35 717.11,-56.63 712.5,-56 573.78,-36.97 408.18,-21.14 334.35,-14.44"/>
<polygon fill="midnightblue" stroke="midnightblue" points="334.41,-10.93 324.13,-13.52 333.78,-17.9 334.41,-10.93"/>
</g>
<!-- Node23&#45;&gt;Node11 -->
<g id="edge31" class="edge">
<title>Node23&#45;&gt;Node11</title>
<path fill="none" stroke="midnightblue" d="M925.52,-112.88C1007.12,-101.12 1147.84,-80.29 1151.5,-76 1157.27,-69.24 1157.3,-62.74 1151.5,-56 1117.54,-16.55 956.76,-11.22 886.03,-10.82"/>
<polygon fill="midnightblue" stroke="midnightblue" points="885.88,-7.32 875.87,-10.79 885.87,-14.32 885.88,-7.32"/>
</g>
<!-- Node24 -->
<g id="node24" class="node">
<title>Node24</title>
<g id="a_node24"><a xlink:href="ProtocolDefinitions_8hpp.html" target="_top" xlink:title=" ">
<polygon fill="none" stroke="black" points="1026.5,-56.5 1026.5,-75.5 1142.5,-75.5 1142.5,-56.5 1026.5,-56.5"/>
<text text-anchor="middle" x="1084.5" y="-63.5" font-family="Helvetica,sans-Serif" font-size="10.00">ProtocolDefinitions.hpp</text>
</a>
</g>
</g>
<!-- Node23&#45;&gt;Node24 -->
<g id="edge32" class="edge">
<title>Node23&#45;&gt;Node24</title>
<path fill="none" stroke="midnightblue" d="M902.73,-112.44C940.01,-103.12 999.77,-88.18 1040.51,-78"/>
<polygon fill="midnightblue" stroke="midnightblue" points="1041.58,-81.34 1050.43,-75.52 1039.88,-74.55 1041.58,-81.34"/>
</g>
<!-- Node26&#45;&gt;Node14 -->
<g id="edge37" class="edge">
<title>Node26&#45;&gt;Node14</title>
<path fill="none" stroke="midnightblue" d="M740.65,-169.78C743.98,-169.16 747.28,-168.56 750.5,-168 857.11,-149.39 887.34,-152.35 997.87,-131.98"/>
<polygon fill="midnightblue" stroke="midnightblue" points="998.55,-135.41 1007.74,-130.13 997.27,-128.53 998.55,-135.41"/>
</g>
<!-- Node27&#45;&gt;Node14 -->
<g id="edge39" class="edge">
<title>Node27&#45;&gt;Node14</title>
<path fill="none" stroke="midnightblue" d="M873.01,-173.98C906.37,-163.64 962.76,-146.16 1000.06,-134.6"/>
<polygon fill="midnightblue" stroke="midnightblue" points="1001.53,-137.81 1010.04,-131.51 999.45,-131.13 1001.53,-137.81"/>
</g>
</g>
</svg>
        <g id="navigator" transform="translate(0 0)" fill="#404254">
                <rect fill="#f2f5e9" fill-opacity="0.5" stroke="#606060" stroke-width=".5" x="0" y="0" width="60" height="60"/>
                <use id="zoomplus" xlink:href="#zoomPlus" x="17" y="9" onmousedown="handleZoom(evt,'in')"/>
                <use id="zoomminus" xlink:href="#zoomMin" x="42" y="9" onmousedown="handleZoom(evt,'out')"/>
                <use id="reset" xlink:href="#resetDef" x="30" y="36" onmousedown="handleReset()"/>
                <g id="arrowUp" xlink:href="#dirArrow" transform="translate(30 24)" onmousedown="handlePan(0,-1)">
                  <use xlink:href="#rim" fill="#404040">
                        <set attributeName="fill" to="#808080" begin="arrowUp.mouseover" end="arrowUp.mouseout"/>
                  </use>
                  <path fill="none" stroke="white" stroke-width="1.5" d="M0,-3.0v7 M-2.5,-0.5L0,-3.0L2.5,-0.5"/>
                </g>
                <g id="arrowRight" xlink:href="#dirArrow" transform="rotate(90) translate(36 -43)" onmousedown="handlePan(1,0)">
                  <use xlink:href="#rim" fill="#404040">
                        <set attributeName="fill" to="#808080" begin="arrowRight.mouseover" end="arrowRight.mouseout"/>
                  </use>
                  <path fill="none" stroke="white" stroke-width="1.5" d="M0,-3.0v7 M-2.5,-0.5L0,-3.0L2.5,-0.5"/>
                </g>
                <g id="arrowDown" xlink:href="#dirArrow" transform="rotate(180) translate(-30 -48)" onmousedown="handlePan(0,1)">
                  <use xlink:href="#rim" fill="#404040">
                        <set attributeName="fill" to="#808080" begin="arrowDown.mouseover" end="arrowDown.mouseout"/>
                  </use>
                  <path fill="none" stroke="white" stroke-width="1.5" d="M0,-3.0v7 M-2.5,-0.5L0,-3.0L2.5,-0.5"/>
                </g>
                <g id="arrowLeft" xlink:href="#dirArrow" transform="rotate(270) translate(-36 17)" onmousedown="handlePan(-1,0)">
                  <use xlink:href="#rim" fill="#404040">
                        <set attributeName="fill" to="#808080" begin="arrowLeft.mouseover" end="arrowLeft.mouseout"/>
                  </use>
                  <path fill="none" stroke="white" stroke-width="1.5" d="M0,-3.0v7 M-2.5,-0.5L0,-3.0L2.5,-0.5"/>
                </g>
        </g>
        <svg viewBox="0 0 15 15" width="100%" height="30px" preserveAspectRatio="xMaxYMin meet">
         <g id="arrow_out" transform="scale(0.3 0.3)">
          <a xlink:href="NetworkingFacade_8cpp__incl_org.svg" target="_base">
           <rect id="button" ry="5" rx="5" y="6" x="6" height="38" width="38"
                fill="#f2f5e9" fill-opacity="0.5" stroke="#606060" stroke-width="1.0"/>
           <path id="arrow"
             d="M 11.500037,31.436501 C 11.940474,20.09759 22.043105,11.32322 32.158766,21.979434 L 37.068811,17.246167 C 37.068811,17.246167 37.088388,32 37.088388,32 L 22.160133,31.978069 C 22.160133,31.978069 26.997745,27.140456 26.997745,27.140456 C 18.528582,18.264221 13.291696,25.230495 11.500037,31.436501 z"
             style="fill:#404040;"/>
          </a>
         </g>
        </svg>
</svg>
