<?xml version="1.0" encoding="UTF-8" standalone="no"?>
<!DOCTYPE svg PUBLIC "-//W3C//DTD SVG 1.1//EN"
 "http://www.w3.org/Graphics/SVG/1.1/DTD/svg11.dtd">
<!-- Generated by graphviz version 2.44.0 ()
 -->
<!-- Title: includes/platformer&#45;engine/Facade/NetworkingFacade.hpp Pages: 1 -->
<svg width="749pt" height="218pt"
 viewBox="0.00 0.00 749.00 218.00" xmlns="http://www.w3.org/2000/svg" xmlns:xlink="http://www.w3.org/1999/xlink">
<g id="graph0" class="graph" transform="scale(1 1) rotate(0) translate(4 214)">
<title>includes/platformer&#45;engine/Facade/NetworkingFacade.hpp</title>
<!-- Node1 -->
<g id="node1" class="node">
<title>Node1</title>
<g id="a_node1"><a xlink:title=" ">
<polygon fill="#bfbfbf" stroke="black" points="235,-179.5 235,-209.5 421,-209.5 421,-179.5 235,-179.5"/>
<text text-anchor="start" x="243" y="-197.5" font-family="Helvetica,sans-Serif" font-size="10.00">includes/platformer</text>
<text text-anchor="middle" x="328" y="-186.5" font-family="Helvetica,sans-Serif" font-size="10.00">&#45;engine/Facade/NetworkingFacade.hpp</text>
</a>
</g>
</g>
<!-- Node2 -->
<g id="node2" class="node">
<title>Node2</title>
<g id="a_node2"><a xlink:title=" ">
<polygon fill="none" stroke="#bfbfbf" points="108.5,-123.5 108.5,-142.5 173.5,-142.5 173.5,-123.5 108.5,-123.5"/>
<text text-anchor="middle" x="141" y="-130.5" font-family="Helvetica,sans-Serif" font-size="10.00">enet/enet.h</text>
</a>
</g>
</g>
<!-- Node1&#45;&gt;Node2 -->
<g id="edge1" class="edge">
<title>Node1&#45;&gt;Node2</title>
<path fill="none" stroke="midnightblue" d="M283.68,-179.4C251.37,-169.12 208.1,-155.35 177.71,-145.68"/>
<polygon fill="midnightblue" stroke="midnightblue" points="178.53,-142.27 167.94,-142.57 176.41,-148.94 178.53,-142.27"/>
</g>
<!-- Node3 -->
<g id="node3" class="node">
<title>Node3</title>
<g id="a_node3"><a xlink:href="Debug_8hpp.html" target="_top" xlink:title=" ">
<polygon fill="none" stroke="black" points="192,-123.5 192,-142.5 254,-142.5 254,-123.5 192,-123.5"/>
<text text-anchor="middle" x="223" y="-130.5" font-family="Helvetica,sans-Serif" font-size="10.00">Debug.hpp</text>
</a>
</g>
</g>
<!-- Node1&#45;&gt;Node3 -->
<g id="edge2" class="edge">
<title>Node1&#45;&gt;Node3</title>
<path fill="none" stroke="midnightblue" d="M303.12,-179.4C286.29,-169.86 264.16,-157.32 247.43,-147.84"/>
<polygon fill="midnightblue" stroke="midnightblue" points="248.7,-144.54 238.28,-142.66 245.25,-150.63 248.7,-144.54"/>
</g>
<!-- Node12 -->
<g id="node12" class="node">
<title>Node12</title>
<g id="a_node12"><a xlink:title=" ">
<polygon fill="none" stroke="#bfbfbf" points="272.5,-123.5 272.5,-142.5 323.5,-142.5 323.5,-123.5 272.5,-123.5"/>
<text text-anchor="middle" x="298" y="-130.5" font-family="Helvetica,sans-Serif" font-size="10.00">memory</text>
</a>
</g>
</g>
<!-- Node1&#45;&gt;Node12 -->
<g id="edge11" class="edge">
<title>Node1&#45;&gt;Node12</title>
<path fill="none" stroke="midnightblue" d="M320.89,-179.4C316.71,-171.11 311.39,-160.55 306.93,-151.71"/>
<polygon fill="midnightblue" stroke="midnightblue" points="309.99,-150.01 302.37,-142.66 303.74,-153.16 309.99,-150.01"/>
</g>
<!-- Node13 -->
<g id="node13" class="node">
<title>Node13</title>
<g id="a_node13"><a xlink:title=" ">
<polygon fill="none" stroke="#bfbfbf" points="341.5,-123.5 341.5,-142.5 376.5,-142.5 376.5,-123.5 341.5,-123.5"/>
<text text-anchor="middle" x="359" y="-130.5" font-family="Helvetica,sans-Serif" font-size="10.00">map</text>
</a>
</g>
</g>
<!-- Node1&#45;&gt;Node13 -->
<g id="edge12" class="edge">
<title>Node1&#45;&gt;Node13</title>
<path fill="none" stroke="midnightblue" d="M335.35,-179.4C339.67,-171.11 345.17,-160.55 349.77,-151.71"/>
<polygon fill="midnightblue" stroke="midnightblue" points="352.97,-153.14 354.49,-142.66 346.76,-149.91 352.97,-153.14"/>
</g>
<!-- Node14 -->
<g id="node14" class="node">
<title>Node14</title>
<g id="a_node14"><a xlink:href="INetworkManager_8hpp.html" target="_top" xlink:title=" ">
<polygon fill="none" stroke="black" points="395,-123.5 395,-142.5 559,-142.5 559,-123.5 395,-123.5"/>
<text text-anchor="middle" x="477" y="-130.5" font-family="Helvetica,sans-Serif" font-size="10.00">Networking/INetworkManager.hpp</text>
</a>
</g>
</g>
<!-- Node1&#45;&gt;Node14 -->
<g id="edge13" class="edge">
<title>Node1&#45;&gt;Node14</title>
<path fill="none" stroke="midnightblue" d="M363.31,-179.4C388.42,-169.37 421.84,-156.03 445.94,-146.4"/>
<polygon fill="midnightblue" stroke="midnightblue" points="447.33,-149.62 455.32,-142.66 444.73,-143.12 447.33,-149.62"/>
</g>
<!-- Node17 -->
<g id="node17" class="node">
<title>Node17</title>
<g id="a_node17"><a xlink:href="ConnectionStatus_8hpp.html" target="_top" xlink:title=" ">
<polygon fill="none" stroke="black" points="577,-123.5 577,-142.5 741,-142.5 741,-123.5 577,-123.5"/>
<text text-anchor="middle" x="659" y="-130.5" font-family="Helvetica,sans-Serif" font-size="10.00">Networking/ConnectionStatus.hpp</text>
</a>
</g>
</g>
<!-- Node1&#45;&gt;Node17 -->
<g id="edge16" class="edge">
<title>Node1&#45;&gt;Node17</title>
<path fill="none" stroke="midnightblue" d="M406.02,-179.47C466,-168.69 547.47,-154.05 601.57,-144.32"/>
<polygon fill="midnightblue" stroke="midnightblue" points="602.46,-147.72 611.68,-142.51 601.22,-140.83 602.46,-147.72"/>
</g>
<!-- Node4 -->
<g id="node4" class="node">
<title>Node4</title>
<g id="a_node4"><a xlink:href="Point_8hpp.html" target="_top" xlink:title=" ">
<polygon fill="none" stroke="black" points="56.5,-67.5 56.5,-86.5 113.5,-86.5 113.5,-67.5 56.5,-67.5"/>
<text text-anchor="middle" x="85" y="-74.5" font-family="Helvetica,sans-Serif" font-size="10.00">Point.hpp</text>
</a>
</g>
</g>
<!-- Node3&#45;&gt;Node4 -->
<g id="edge3" class="edge">
<title>Node3&#45;&gt;Node4</title>
<path fill="none" stroke="midnightblue" d="M201.13,-123.44C178.22,-114.48 142.02,-100.31 116.13,-90.18"/>
<polygon fill="midnightblue" stroke="midnightblue" points="117.35,-86.9 106.76,-86.52 114.8,-93.42 117.35,-86.9"/>
</g>
<!-- Node6 -->
<g id="node6" class="node">
<title>Node6</title>
<g id="a_node6"><a xlink:href="Color_8hpp.html" target="_top" xlink:title=" ">
<polygon fill="none" stroke="black" points="194.5,-67.5 194.5,-86.5 251.5,-86.5 251.5,-67.5 194.5,-67.5"/>
<text text-anchor="middle" x="223" y="-74.5" font-family="Helvetica,sans-Serif" font-size="10.00">Color.hpp</text>
</a>
</g>
</g>
<!-- Node3&#45;&gt;Node6 -->
<g id="edge5" class="edge">
<title>Node3&#45;&gt;Node6</title>
<path fill="none" stroke="midnightblue" d="M223,-123.08C223,-116.01 223,-105.86 223,-96.99"/>
<polygon fill="midnightblue" stroke="midnightblue" points="226.5,-96.75 223,-86.75 219.5,-96.75 226.5,-96.75"/>
</g>
<!-- Node11 -->
<g id="node11" class="node">
<title>Node11</title>
<g id="a_node11"><a xlink:title=" ">
<polygon fill="none" stroke="#bfbfbf" points="269.5,-67.5 269.5,-86.5 310.5,-86.5 310.5,-67.5 269.5,-67.5"/>
<text text-anchor="middle" x="290" y="-74.5" font-family="Helvetica,sans-Serif" font-size="10.00">string</text>
</a>
</g>
</g>
<!-- Node3&#45;&gt;Node11 -->
<g id="edge10" class="edge">
<title>Node3&#45;&gt;Node11</title>
<path fill="none" stroke="midnightblue" d="M233.76,-123.32C243.77,-115.26 258.89,-103.08 270.93,-93.37"/>
<polygon fill="midnightblue" stroke="midnightblue" points="273.45,-95.83 279.04,-86.83 269.06,-90.38 273.45,-95.83"/>
</g>
<!-- Node5 -->
<g id="node5" class="node">
<title>Node5</title>
<g id="a_node5"><a xlink:title=" ">
<polygon fill="none" stroke="#bfbfbf" points="0,-6 0,-25 44,-25 44,-6 0,-6"/>
<text text-anchor="middle" x="22" y="-13" font-family="Helvetica,sans-Serif" font-size="10.00">cmath</text>
</a>
</g>
</g>
<!-- Node4&#45;&gt;Node5 -->
<g id="edge4" class="edge">
<title>Node4&#45;&gt;Node5</title>
<path fill="none" stroke="midnightblue" d="M75.97,-67.48C66.24,-58.28 50.54,-43.46 38.58,-32.16"/>
<polygon fill="midnightblue" stroke="midnightblue" points="40.68,-29.33 31.01,-25.01 35.88,-34.42 40.68,-29.33"/>
</g>
<!-- Node7 -->
<g id="node7" class="node">
<title>Node7</title>
<g id="a_node7"><a xlink:title=" ">
<polygon fill="none" stroke="#bfbfbf" points="62.5,-0.5 62.5,-30.5 157.5,-30.5 157.5,-0.5 62.5,-0.5"/>
<text text-anchor="start" x="70.5" y="-18.5" font-family="Helvetica,sans-Serif" font-size="10.00">boost/serialization</text>
<text text-anchor="middle" x="110" y="-7.5" font-family="Helvetica,sans-Serif" font-size="10.00">/access.hpp</text>
</a>
</g>
</g>
<!-- Node6&#45;&gt;Node7 -->
<g id="edge6" class="edge">
<title>Node6&#45;&gt;Node7</title>
<path fill="none" stroke="midnightblue" d="M206.81,-67.48C190.93,-59.12 166.2,-46.09 145.7,-35.3"/>
<polygon fill="midnightblue" stroke="midnightblue" points="147.11,-32.09 136.63,-30.52 143.85,-38.28 147.11,-32.09"/>
</g>
<!-- Node8 -->
<g id="node8" class="node">
<title>Node8</title>
<g id="a_node8"><a xlink:title=" ">
<polygon fill="none" stroke="#bfbfbf" points="175.5,-0.5 175.5,-30.5 270.5,-30.5 270.5,-0.5 175.5,-0.5"/>
<text text-anchor="start" x="183.5" y="-18.5" font-family="Helvetica,sans-Serif" font-size="10.00">boost/serialization</text>
<text text-anchor="middle" x="223" y="-7.5" font-family="Helvetica,sans-Serif" font-size="10.00">/export.hpp</text>
</a>
</g>
</g>
<!-- Node6&#45;&gt;Node8 -->
<g id="edge7" class="edge">
<title>Node6&#45;&gt;Node8</title>
<path fill="none" stroke="midnightblue" d="M223,-67.48C223,-60.47 223,-50.19 223,-40.7"/>
<polygon fill="midnightblue" stroke="midnightblue" points="226.5,-40.52 223,-30.52 219.5,-40.52 226.5,-40.52"/>
</g>
<!-- Node9 -->
<g id="node9" class="node">
<title>Node9</title>
<g id="a_node9"><a xlink:title=" ">
<polygon fill="none" stroke="#bfbfbf" points="289,-0.5 289,-30.5 393,-30.5 393,-0.5 289,-0.5"/>
<text text-anchor="start" x="297" y="-18.5" font-family="Helvetica,sans-Serif" font-size="10.00">boost/archive/binary</text>
<text text-anchor="middle" x="341" y="-7.5" font-family="Helvetica,sans-Serif" font-size="10.00">_iarchive.hpp</text>
</a>
</g>
</g>
<!-- Node6&#45;&gt;Node9 -->
<g id="edge8" class="edge">
<title>Node6&#45;&gt;Node9</title>
<path fill="none" stroke="midnightblue" d="M239.91,-67.48C256.56,-59.08 282.55,-45.97 304.01,-35.15"/>
<polygon fill="midnightblue" stroke="midnightblue" points="305.84,-38.15 313.19,-30.52 302.68,-31.9 305.84,-38.15"/>
</g>
<!-- Node10 -->
<g id="node10" class="node">
<title>Node10</title>
<g id="a_node10"><a xlink:title=" ">
<polygon fill="none" stroke="#bfbfbf" points="411,-0.5 411,-30.5 515,-30.5 515,-0.5 411,-0.5"/>
<text text-anchor="start" x="419" y="-18.5" font-family="Helvetica,sans-Serif" font-size="10.00">boost/archive/binary</text>
<text text-anchor="middle" x="463" y="-7.5" font-family="Helvetica,sans-Serif" font-size="10.00">_oarchive.hpp</text>
</a>
</g>
</g>
<!-- Node6&#45;&gt;Node10 -->
<g id="edge9" class="edge">
<title>Node6&#45;&gt;Node10</title>
<path fill="none" stroke="midnightblue" d="M251.95,-68.82C288.61,-59.73 352.79,-43.82 400.77,-31.93"/>
<polygon fill="midnightblue" stroke="midnightblue" points="401.89,-35.26 410.75,-29.45 400.2,-28.46 401.89,-35.26"/>
</g>
<!-- Node15 -->
<g id="node15" class="node">
<title>Node15</title>
<g id="a_node15"><a xlink:title=" ">
<polygon fill="none" stroke="#bfbfbf" points="418,-67.5 418,-86.5 464,-86.5 464,-67.5 418,-67.5"/>
<text text-anchor="middle" x="441" y="-74.5" font-family="Helvetica,sans-Serif" font-size="10.00">cstdint</text>
</a>
</g>
</g>
<!-- Node14&#45;&gt;Node15 -->
<g id="edge14" class="edge">
<title>Node14&#45;&gt;Node15</title>
<path fill="none" stroke="midnightblue" d="M471.06,-123.08C466.02,-115.53 458.66,-104.49 452.49,-95.23"/>
<polygon fill="midnightblue" stroke="midnightblue" points="455.29,-93.13 446.83,-86.75 449.47,-97.01 455.29,-93.13"/>
</g>
<!-- Node16 -->
<g id="node16" class="node">
<title>Node16</title>
<g id="a_node16"><a xlink:title=" ">
<polygon fill="none" stroke="#bfbfbf" points="482.5,-67.5 482.5,-86.5 541.5,-86.5 541.5,-67.5 482.5,-67.5"/>
<text text-anchor="middle" x="512" y="-74.5" font-family="Helvetica,sans-Serif" font-size="10.00">functional</text>
</a>
</g>
</g>
<!-- Node14&#45;&gt;Node16 -->
<g id="edge15" class="edge">
<title>Node14&#45;&gt;Node16</title>
<path fill="none" stroke="midnightblue" d="M482.78,-123.08C487.67,-115.53 494.83,-104.49 500.83,-95.23"/>
<polygon fill="midnightblue" stroke="midnightblue" points="503.83,-97.05 506.33,-86.75 497.95,-93.24 503.83,-97.05"/>
</g>
</g>
</svg>
