<svg xmlns="http://www.w3.org/2000/svg" xmlns:xlink="http://www.w3.org/1999/xlink" width="432" height="156" viewBox="0 0 324 117"><g id="graph0" class="graph" transform="scale(1 1) rotate(0) translate(4 113)"><title>includes/platformer-engine/Utility/NetworkingBuffer.hpp</title><g id="node1" class="node"><title>Node1</title><g id="a_node1"><a><polygon fill="#bfbfbf" stroke="#000" points="92.5 -67.5 92.5 -108.5 220.5 -108.5 220.5 -67.5 92.5 -67.5"/><text x="100.5" y="-96.5" font-family="Helvetica,sans-Serif" font-size="10" text-anchor="start">includes/platformer</text><text x="100.5" y="-85.5" font-family="Helvetica,sans-Serif" font-size="10" text-anchor="start">-engine/Utility/Networking</text><text x="156.5" y="-74.5" font-family="Helvetica,sans-Serif" font-size="10" text-anchor="middle">Buffer.hpp</text></a></g></g><g id="node2" class="node"><title>Node2</title><g id="a_node2"><a target="_top" xlink:href="ClientNetworkManager_8cpp.html"><polygon fill="none" stroke="#000" points="0 -.5 0 -30.5 147 -30.5 147 -.5 0 -.5"/><text x="8" y="-18.5" font-family="Helvetica,sans-Serif" font-size="10" text-anchor="start">src/Networking/ClientNetwork</text><text x="73.5" y="-7.5" font-family="Helvetica,sans-Serif" font-size="10" text-anchor="middle">Manager.cpp</text></a></g></g><g id="edge1" class="edge"><title>Node1-&gt;Node2</title><path fill="none" stroke="#191970" d="M125.71,-60.84C113.68,-50.62 100.36,-39.31 90.18,-30.67"/><polygon fill="#191970" stroke="#191970" points="123.49 -63.56 133.38 -67.36 128.02 -58.22 123.49 -63.56"/></g><g id="node3" class="node"><title>Node3</title><g id="a_node3"><a target="_top" xlink:href="ServerNetworkManager_8cpp.html"><polygon fill="none" stroke="#000" points="165 -.5 165 -30.5 316 -30.5 316 -.5 165 -.5"/><text x="173" y="-18.5" font-family="Helvetica,sans-Serif" font-size="10" text-anchor="start">src/Networking/ServerNetwork</text><text x="240.5" y="-7.5" font-family="Helvetica,sans-Serif" font-size="10" text-anchor="middle">Manager.cpp</text></a></g></g><g id="edge2" class="edge"><title>Node1-&gt;Node3</title><path fill="none" stroke="#191970" d="M187.66,-60.84C199.84,-50.62 213.32,-39.31 223.62,-30.67"/><polygon fill="#191970" stroke="#191970" points="185.31 -58.25 179.9 -67.36 189.81 -63.61 185.31 -58.25"/></g></g></svg>