<?xml version="1.0" encoding="UTF-8" standalone="no"?>
<!DOCTYPE svg PUBLIC "-//W3C//DTD SVG 1.1//EN"
 "http://www.w3.org/Graphics/SVG/1.1/DTD/svg11.dtd">
<!-- Generated by graphviz version 2.44.0 ()
 -->
<!-- Title: includes/platformer&#45;engine/Exceptions/NoWindowException.hpp Pages: 1 -->
<svg width="2157pt" height="184pt"
 viewBox="0.00 0.00 2156.50 184.00" xmlns="http://www.w3.org/2000/svg" xmlns:xlink="http://www.w3.org/1999/xlink">
<g id="graph0" class="graph" transform="scale(1 1) rotate(0) translate(4 180)">
<title>includes/platformer&#45;engine/Exceptions/NoWindowException.hpp</title>
<!-- Node1 -->
<g id="node1" class="node">
<title>Node1</title>
<g id="a_node1"><a xlink:title=" ">
<polygon fill="#bfbfbf" stroke="black" points="432,-134.5 432,-175.5 581,-175.5 581,-134.5 432,-134.5"/>
<text text-anchor="start" x="440" y="-163.5" font-family="Helvetica,sans-Serif" font-size="10.00">includes/platformer</text>
<text text-anchor="start" x="440" y="-152.5" font-family="Helvetica,sans-Serif" font-size="10.00">&#45;engine/Exceptions/NoWindow</text>
<text text-anchor="middle" x="506.5" y="-141.5" font-family="Helvetica,sans-Serif" font-size="10.00">Exception.hpp</text>
</a>
</g>
</g>
<!-- Node2 -->
<g id="node2" class="node">
<title>Node2</title>
<g id="a_node2"><a xlink:href="Engine_8cpp.html" target="_top" xlink:title=" ">
<polygon fill="none" stroke="black" points="0,-6 0,-25 113,-25 113,-6 0,-6"/>
<text text-anchor="middle" x="56.5" y="-13" font-family="Helvetica,sans-Serif" font-size="10.00">src/Engine/Engine.cpp</text>
</a>
</g>
</g>
<!-- Node1&#45;&gt;Node2 -->
<g id="edge1" class="edge">
<title>Node1&#45;&gt;Node2</title>
<path fill="none" stroke="midnightblue" d="M432.92,-131.52C331.4,-100.5 153.13,-46.02 84.51,-25.06"/>
<polygon fill="midnightblue" stroke="midnightblue" points="431.92,-134.87 442.5,-134.45 433.96,-128.18 431.92,-134.87"/>
</g>
<!-- Node3 -->
<g id="node3" class="node">
<title>Node3</title>
<g id="a_node3"><a xlink:href="Engine_8hpp.html" target="_top" xlink:title=" ">
<polygon fill="none" stroke="black" points="890,-67.5 890,-97.5 1021,-97.5 1021,-67.5 890,-67.5"/>
<text text-anchor="start" x="898" y="-85.5" font-family="Helvetica,sans-Serif" font-size="10.00">includes/platformer</text>
<text text-anchor="middle" x="955.5" y="-74.5" font-family="Helvetica,sans-Serif" font-size="10.00">&#45;engine/Engine/Engine.hpp</text>
</a>
</g>
</g>
<!-- Node1&#45;&gt;Node3 -->
<g id="edge2" class="edge">
<title>Node1&#45;&gt;Node3</title>
<path fill="none" stroke="midnightblue" d="M591.22,-140.7C677.91,-127.09 810.78,-106.22 889.82,-93.81"/>
<polygon fill="midnightblue" stroke="midnightblue" points="590.48,-137.27 581.15,-142.28 591.57,-144.19 590.48,-137.27"/>
</g>
<!-- Node3&#45;&gt;Node2 -->
<g id="edge9" class="edge">
<title>Node3&#45;&gt;Node2</title>
<path fill="none" stroke="midnightblue" d="M879.57,-80.84C732.67,-78.7 399.62,-69.6 122.5,-31 112.04,-29.54 100.78,-27.32 90.57,-25.05"/>
<polygon fill="midnightblue" stroke="midnightblue" points="879.77,-84.35 889.82,-80.99 879.87,-77.35 879.77,-84.35"/>
</g>
<!-- Node4 -->
<g id="node4" class="node">
<title>Node4</title>
<g id="a_node4"><a xlink:href="Animator_8cpp.html" target="_top" xlink:title=" ">
<polygon fill="none" stroke="black" points="131.5,-6 131.5,-25 241.5,-25 241.5,-6 131.5,-6"/>
<text text-anchor="middle" x="186.5" y="-13" font-family="Helvetica,sans-Serif" font-size="10.00">src/API/Animator.cpp</text>
</a>
</g>
</g>
<!-- Node3&#45;&gt;Node4 -->
<g id="edge3" class="edge">
<title>Node3&#45;&gt;Node4</title>
<path fill="none" stroke="midnightblue" d="M879.31,-79.82C749.56,-76.11 477.71,-64.68 250.5,-31 240.47,-29.51 229.68,-27.31 219.87,-25.06"/>
<polygon fill="midnightblue" stroke="midnightblue" points="879.44,-83.32 889.53,-80.1 879.63,-76.32 879.44,-83.32"/>
</g>
<!-- Node5 -->
<g id="node5" class="node">
<title>Node5</title>
<g id="a_node5"><a xlink:href="RigidBody_8cpp.html" target="_top" xlink:title=" ">
<polygon fill="none" stroke="black" points="259.5,-6 259.5,-25 373.5,-25 373.5,-6 259.5,-6"/>
<text text-anchor="middle" x="316.5" y="-13" font-family="Helvetica,sans-Serif" font-size="10.00">src/API/RigidBody.cpp</text>
</a>
</g>
</g>
<!-- Node3&#45;&gt;Node5 -->
<g id="edge4" class="edge">
<title>Node3&#45;&gt;Node5</title>
<path fill="none" stroke="midnightblue" d="M879.86,-77.93C769.87,-72.04 559.59,-58.14 382.5,-31 372.3,-29.44 361.31,-27.23 351.28,-25.02"/>
<polygon fill="midnightblue" stroke="midnightblue" points="879.69,-81.43 889.86,-78.46 880.06,-74.44 879.69,-81.43"/>
</g>
<!-- Node6 -->
<g id="node6" class="node">
<title>Node6</title>
<g id="a_node6"><a xlink:href="CollisionBehaviour_8cpp.html" target="_top" xlink:title=" ">
<polygon fill="none" stroke="black" points="391.5,-6 391.5,-25 569.5,-25 569.5,-6 391.5,-6"/>
<text text-anchor="middle" x="480.5" y="-13" font-family="Helvetica,sans-Serif" font-size="10.00">src/Behaviour/CollisionBehaviour.cpp</text>
</a>
</g>
</g>
<!-- Node3&#45;&gt;Node6 -->
<g id="edge5" class="edge">
<title>Node3&#45;&gt;Node6</title>
<path fill="none" stroke="midnightblue" d="M879.76,-71.67C803.6,-61.7 682.85,-45.71 578.5,-31 565.13,-29.12 550.75,-27.02 537.23,-25.03"/>
<polygon fill="midnightblue" stroke="midnightblue" points="879.37,-75.14 889.74,-72.97 880.28,-68.2 879.37,-75.14"/>
</g>
<!-- Node7 -->
<g id="node7" class="node">
<title>Node7</title>
<g id="a_node7"><a xlink:href="FPSCounterBehaviour_8cpp.html" target="_top" xlink:title=" ">
<polygon fill="none" stroke="black" points="588,-0.5 588,-30.5 721,-30.5 721,-0.5 588,-0.5"/>
<text text-anchor="start" x="596" y="-18.5" font-family="Helvetica,sans-Serif" font-size="10.00">src/Behaviour/FPSCounter</text>
<text text-anchor="middle" x="654.5" y="-7.5" font-family="Helvetica,sans-Serif" font-size="10.00">Behaviour.cpp</text>
</a>
</g>
</g>
<!-- Node3&#45;&gt;Node7 -->
<g id="edge6" class="edge">
<title>Node3&#45;&gt;Node7</title>
<path fill="none" stroke="midnightblue" d="M880.55,-65.32C831.08,-54.63 766.91,-40.77 719.58,-30.55"/>
<polygon fill="midnightblue" stroke="midnightblue" points="880.04,-68.79 890.56,-67.48 881.52,-61.94 880.04,-68.79"/>
</g>
<!-- Node8 -->
<g id="node8" class="node">
<title>Node8</title>
<g id="a_node8"><a xlink:href="Debug_8cpp.html" target="_top" xlink:title=" ">
<polygon fill="none" stroke="black" points="739.5,-6 739.5,-25 849.5,-25 849.5,-6 739.5,-6"/>
<text text-anchor="middle" x="794.5" y="-13" font-family="Helvetica,sans-Serif" font-size="10.00">src/Debug/Debug.cpp</text>
</a>
</g>
</g>
<!-- Node3&#45;&gt;Node8 -->
<g id="edge7" class="edge">
<title>Node3&#45;&gt;Node8</title>
<path fill="none" stroke="midnightblue" d="M911.22,-63.62C880.05,-51.04 839.74,-34.77 815.57,-25.01"/>
<polygon fill="midnightblue" stroke="midnightblue" points="909.98,-66.9 920.57,-67.4 912.6,-60.41 909.98,-66.9"/>
</g>
<!-- Node9 -->
<g id="node9" class="node">
<title>Node9</title>
<g id="a_node9"><a xlink:href="GameObjectFactory_8cpp.html" target="_top" xlink:title=" ">
<polygon fill="none" stroke="black" points="868,-6 868,-25 1043,-25 1043,-6 868,-6"/>
<text text-anchor="middle" x="955.5" y="-13" font-family="Helvetica,sans-Serif" font-size="10.00">src/Director/GameObjectFactory.cpp</text>
</a>
</g>
</g>
<!-- Node3&#45;&gt;Node9 -->
<g id="edge8" class="edge">
<title>Node3&#45;&gt;Node9</title>
<path fill="none" stroke="midnightblue" d="M955.5,-57.25C955.5,-46.02 955.5,-33.38 955.5,-25.19"/>
<polygon fill="midnightblue" stroke="midnightblue" points="952,-57.4 955.5,-67.4 959,-57.4 952,-57.4"/>
</g>
<!-- Node10 -->
<g id="node10" class="node">
<title>Node10</title>
<g id="a_node10"><a xlink:href="TMXParser_8cpp.html" target="_top" xlink:title=" ">
<polygon fill="none" stroke="black" points="1061.5,-6 1061.5,-25 1197.5,-25 1197.5,-6 1061.5,-6"/>
<text text-anchor="middle" x="1129.5" y="-13" font-family="Helvetica,sans-Serif" font-size="10.00">src/Facade/TMXParser.cpp</text>
</a>
</g>
</g>
<!-- Node3&#45;&gt;Node10 -->
<g id="edge10" class="edge">
<title>Node3&#45;&gt;Node10</title>
<path fill="none" stroke="midnightblue" d="M1002.92,-63.78C1036.66,-51.18 1080.49,-34.81 1106.73,-25.01"/>
<polygon fill="midnightblue" stroke="midnightblue" points="1001.4,-60.62 993.26,-67.4 1003.85,-67.18 1001.4,-60.62"/>
</g>
<!-- Node11 -->
<g id="node11" class="node">
<title>Node11</title>
<g id="a_node11"><a xlink:href="ClientNetworkManager_8cpp.html" target="_top" xlink:title=" ">
<polygon fill="none" stroke="black" points="1216,-0.5 1216,-30.5 1363,-30.5 1363,-0.5 1216,-0.5"/>
<text text-anchor="start" x="1224" y="-18.5" font-family="Helvetica,sans-Serif" font-size="10.00">src/Networking/ClientNetwork</text>
<text text-anchor="middle" x="1289.5" y="-7.5" font-family="Helvetica,sans-Serif" font-size="10.00">Manager.cpp</text>
</a>
</g>
</g>
<!-- Node3&#45;&gt;Node11 -->
<g id="edge11" class="edge">
<title>Node3&#45;&gt;Node11</title>
<path fill="none" stroke="midnightblue" d="M1030.92,-66.82C1086.76,-55.96 1162.37,-41.24 1217.4,-30.53"/>
<polygon fill="midnightblue" stroke="midnightblue" points="1030.24,-63.39 1021.09,-68.74 1031.57,-70.26 1030.24,-63.39"/>
</g>
<!-- Node12 -->
<g id="node12" class="node">
<title>Node12</title>
<g id="a_node12"><a xlink:href="ServerNetworkManager_8cpp.html" target="_top" xlink:title=" ">
<polygon fill="none" stroke="black" points="1381,-0.5 1381,-30.5 1532,-30.5 1532,-0.5 1381,-0.5"/>
<text text-anchor="start" x="1389" y="-18.5" font-family="Helvetica,sans-Serif" font-size="10.00">src/Networking/ServerNetwork</text>
<text text-anchor="middle" x="1456.5" y="-7.5" font-family="Helvetica,sans-Serif" font-size="10.00">Manager.cpp</text>
</a>
</g>
</g>
<!-- Node3&#45;&gt;Node12 -->
<g id="edge12" class="edge">
<title>Node3&#45;&gt;Node12</title>
<path fill="none" stroke="midnightblue" d="M1031.18,-73.5C1114.85,-64.38 1253.54,-48.46 1372.5,-31 1375.28,-30.59 1378.11,-30.16 1380.97,-29.72"/>
<polygon fill="midnightblue" stroke="midnightblue" points="1030.56,-70.04 1021,-74.6 1031.32,-77 1030.56,-70.04"/>
</g>
<!-- Node13 -->
<g id="node13" class="node">
<title>Node13</title>
<g id="a_node13"><a xlink:href="RenderSystem_8cpp.html" target="_top" xlink:title=" ">
<polygon fill="none" stroke="black" points="1550.5,-6 1550.5,-25 1700.5,-25 1700.5,-6 1550.5,-6"/>
<text text-anchor="middle" x="1625.5" y="-13" font-family="Helvetica,sans-Serif" font-size="10.00">src/Texture/RenderSystem.cpp</text>
</a>
</g>
</g>
<!-- Node3&#45;&gt;Node13 -->
<g id="edge13" class="edge">
<title>Node3&#45;&gt;Node13</title>
<path fill="none" stroke="midnightblue" d="M1031.34,-77.03C1143.25,-69.97 1359.08,-54.56 1541.5,-31 1554.12,-29.37 1567.74,-27.2 1580.27,-25.03"/>
<polygon fill="midnightblue" stroke="midnightblue" points="1030.93,-73.55 1021.17,-77.67 1031.37,-80.54 1030.93,-73.55"/>
</g>
<!-- Node14 -->
<g id="node14" class="node">
<title>Node14</title>
<g id="a_node14"><a xlink:href="TextureManager_8cpp.html" target="_top" xlink:title=" ">
<polygon fill="none" stroke="black" points="1718.5,-6 1718.5,-25 1874.5,-25 1874.5,-6 1718.5,-6"/>
<text text-anchor="middle" x="1796.5" y="-13" font-family="Helvetica,sans-Serif" font-size="10.00">src/Texture/TextureManager.cpp</text>
</a>
</g>
</g>
<!-- Node3&#45;&gt;Node14 -->
<g id="edge14" class="edge">
<title>Node3&#45;&gt;Node14</title>
<path fill="none" stroke="midnightblue" d="M1031.32,-78.89C1167.48,-73.65 1462.32,-59.81 1709.5,-31 1722.88,-29.44 1737.35,-27.24 1750.57,-25.02"/>
<polygon fill="midnightblue" stroke="midnightblue" points="1030.86,-75.4 1021,-79.28 1031.13,-82.4 1030.86,-75.4"/>
</g>
<!-- Node15 -->
<g id="node15" class="node">
<title>Node15</title>
<g id="a_node15"><a xlink:href="ClickSystem_8cpp.html" target="_top" xlink:title=" ">
<polygon fill="none" stroke="black" points="1893,-6 1893,-25 2012,-25 2012,-6 1893,-6"/>
<text text-anchor="middle" x="1952.5" y="-13" font-family="Helvetica,sans-Serif" font-size="10.00">src/UI/ClickSystem.cpp</text>
</a>
</g>
</g>
<!-- Node3&#45;&gt;Node15 -->
<g id="edge15" class="edge">
<title>Node3&#45;&gt;Node15</title>
<path fill="none" stroke="midnightblue" d="M1031.21,-81.29C1189.92,-79.98 1568.86,-72.37 1883.5,-31 1894.42,-29.56 1906.19,-27.35 1916.87,-25.07"/>
<polygon fill="midnightblue" stroke="midnightblue" points="1031.05,-77.79 1021.07,-81.36 1031.1,-84.79 1031.05,-77.79"/>
</g>
<!-- Node16 -->
<g id="node16" class="node">
<title>Node16</title>
<g id="a_node16"><a xlink:href="FPSCounter_8cpp.html" target="_top" xlink:title=" ">
<polygon fill="none" stroke="black" points="2030.5,-6 2030.5,-25 2148.5,-25 2148.5,-6 2030.5,-6"/>
<text text-anchor="middle" x="2089.5" y="-13" font-family="Helvetica,sans-Serif" font-size="10.00">src/UI/FPSCounter.cpp</text>
</a>
</g>
</g>
<!-- Node3&#45;&gt;Node16 -->
<g id="edge16" class="edge">
<title>Node3&#45;&gt;Node16</title>
<path fill="none" stroke="midnightblue" d="M1031.16,-82.13C1206.21,-82.67 1652.41,-78.77 2021.5,-31 2032.39,-29.59 2044.14,-27.35 2054.74,-25.05"/>
<polygon fill="midnightblue" stroke="midnightblue" points="1031.04,-78.63 1021.02,-82.09 1031.01,-85.63 1031.04,-78.63"/>
</g>
</g>
</svg>
