<?xml version="1.0" encoding="UTF-8" standalone="no"?>
<!DOCTYPE svg PUBLIC "-//W3C//DTD SVG 1.1//EN"
 "http://www.w3.org/Graphics/SVG/1.1/DTD/svg11.dtd">
<!-- Generated by graphviz version 2.44.0 ()
 -->
<!-- Title: includes/platformer&#45;engine/Utility/NumberUtil.hpp Pages: 1 -->
<!--zoomable 363 -->
<svg id="main" version="1.1" xmlns="http://www.w3.org/2000/svg" xmlns:xlink="http://www.w3.org/1999/xlink" xml:space="preserve" onload="init(evt)">
<style type="text/css"><![CDATA[
.edge:hover path { stroke: red; }
.edge:hover polygon { stroke: red; fill: red; }
]]></style>
<script type="text/javascript"><![CDATA[
var edges = document.getElementsByTagName('g');
if (edges && edges.length) {
  for (var i=0;i<edges.length;i++) {
    if (edges[i].id.substr(0,4)=='edge') {
      edges[i].setAttribute('class','edge');
    }
  }
}
]]></script>
        <defs>
                <circle id="rim" cx="0" cy="0" r="7"/>
                <circle id="rim2" cx="0" cy="0" r="3.5"/>
                <g id="zoomPlus">
                        <use xlink:href="#rim" fill="#404040">
                                <set attributeName="fill" to="#808080" begin="zoomplus.mouseover" end="zoomplus.mouseout"/>
                        </use>
                        <path d="M-4,0h8M0,-4v8" fill="none" stroke="white" stroke-width="1.5" pointer-events="none"/>
                </g>
                <g id="zoomMin">
                        <use xlink:href="#rim" fill="#404040">
                                <set attributeName="fill" to="#808080" begin="zoomminus.mouseover" end="zoomminus.mouseout"/>
                        </use>
                        <path d="M-4,0h8" fill="none" stroke="white" stroke-width="1.5" pointer-events="none"/>
                </g>
                <g id="dirArrow">
                        <path fill="none" stroke="white" stroke-width="1.5" d="M0,-3.0v7 M-2.5,-0.5L0,-3.0L2.5,-0.5"/>
                </g>
               <g id="resetDef">
                       <use xlink:href="#rim2" fill="#404040">
                               <set attributeName="fill" to="#808080" begin="reset.mouseover" end="reset.mouseout"/>
                       </use>
               </g>
        </defs>

<script type="text/javascript">
var viewWidth = 658;
var viewHeight = 363;
var sectionId = 'dynsection-0';
</script>
<script xlink:href="svgpan.js"/>
<svg id="graph" class="graph">
<g id="viewport">
<title>includes/platformer&#45;engine/Utility/NumberUtil.hpp</title>
<!-- Node1 -->
<g id="node1" class="node">
<title>Node1</title>
<g id="a_node1"><a xlink:title=" ">
<polygon fill="#bfbfbf" stroke="black" points="114,-324.5 114,-354.5 260,-354.5 260,-324.5 114,-324.5"/>
<text text-anchor="start" x="122" y="-342.5" font-family="Helvetica,sans-Serif" font-size="10.00">includes/platformer</text>
<text text-anchor="middle" x="187" y="-331.5" font-family="Helvetica,sans-Serif" font-size="10.00">&#45;engine/Utility/NumberUtil.hpp</text>
</a>
</g>
</g>
<!-- Node2 -->
<g id="node2" class="node">
<title>Node2</title>
<g id="a_node2"><a xlink:href="GraphicsFacade_8hpp.html" target="_top" xlink:title=" ">
<polygon fill="none" stroke="black" points="99,-257.5 99,-287.5 275,-287.5 275,-257.5 99,-257.5"/>
<text text-anchor="start" x="107" y="-275.5" font-family="Helvetica,sans-Serif" font-size="10.00">includes/platformer</text>
<text text-anchor="middle" x="187" y="-264.5" font-family="Helvetica,sans-Serif" font-size="10.00">&#45;engine/Facade/GraphicsFacade.hpp</text>
</a>
</g>
</g>
<!-- Node1&#45;&gt;Node2 -->
<g id="edge1" class="edge">
<title>Node1&#45;&gt;Node2</title>
<path fill="none" stroke="midnightblue" d="M187,-314.11C187,-305.15 187,-295.32 187,-287.58"/>
<polygon fill="midnightblue" stroke="midnightblue" points="183.5,-314.4 187,-324.4 190.5,-314.4 183.5,-314.4"/>
</g>
<!-- Node3 -->
<g id="node3" class="node">
<title>Node3</title>
<g id="a_node3"><a xlink:href="GraphicsFacade_8cpp.html" target="_top" xlink:title=" ">
<polygon fill="none" stroke="black" points="0,-129 0,-148 158,-148 158,-129 0,-129"/>
<text text-anchor="middle" x="79" y="-136" font-family="Helvetica,sans-Serif" font-size="10.00">src/Facade/GraphicsFacade.cpp</text>
</a>
</g>
</g>
<!-- Node2&#45;&gt;Node3 -->
<g id="edge2" class="edge">
<title>Node2&#45;&gt;Node3</title>
<path fill="none" stroke="midnightblue" d="M168.8,-249.26C144.5,-219.56 102.6,-168.35 86.03,-148.1"/>
<polygon fill="midnightblue" stroke="midnightblue" points="166.4,-251.85 175.44,-257.37 171.82,-247.42 166.4,-251.85"/>
</g>
<!-- Node4 -->
<g id="node4" class="node">
<title>Node4</title>
<g id="a_node4"><a xlink:href="Window_8hpp.html" target="_top" xlink:title=" ">
<polygon fill="none" stroke="black" points="176.5,-123.5 176.5,-153.5 313.5,-153.5 313.5,-123.5 176.5,-123.5"/>
<text text-anchor="start" x="184.5" y="-141.5" font-family="Helvetica,sans-Serif" font-size="10.00">includes/platformer</text>
<text text-anchor="middle" x="245" y="-130.5" font-family="Helvetica,sans-Serif" font-size="10.00">&#45;engine/Render/Window.hpp</text>
</a>
</g>
</g>
<!-- Node2&#45;&gt;Node4 -->
<g id="edge3" class="edge">
<title>Node2&#45;&gt;Node4</title>
<path fill="none" stroke="midnightblue" d="M189.87,-247.29C192.51,-230.58 197.36,-208.19 206,-190 212.37,-176.59 222.75,-163.38 231.21,-153.84"/>
<polygon fill="midnightblue" stroke="midnightblue" points="186.38,-246.95 188.44,-257.34 193.31,-247.94 186.38,-246.95"/>
</g>
<!-- Node9 -->
<g id="node9" class="node">
<title>Node9</title>
<g id="a_node9"><a xlink:href="TextureManager_8hpp.html" target="_top" xlink:title=" ">
<polygon fill="none" stroke="black" points="215,-190.5 215,-220.5 389,-220.5 389,-190.5 215,-190.5"/>
<text text-anchor="start" x="223" y="-208.5" font-family="Helvetica,sans-Serif" font-size="10.00">includes/platformer</text>
<text text-anchor="middle" x="302" y="-197.5" font-family="Helvetica,sans-Serif" font-size="10.00">&#45;engine/Texture/TextureManager.hpp</text>
</a>
</g>
</g>
<!-- Node2&#45;&gt;Node9 -->
<g id="edge8" class="edge">
<title>Node2&#45;&gt;Node9</title>
<path fill="none" stroke="midnightblue" d="M220.98,-252.3C238.97,-242.12 260.68,-229.85 277.1,-220.58"/>
<polygon fill="midnightblue" stroke="midnightblue" points="218.94,-249.43 211.95,-257.4 222.38,-255.52 218.94,-249.43"/>
</g>
<!-- Node5 -->
<g id="node5" class="node">
<title>Node5</title>
<g id="a_node5"><a xlink:href="Window_8cpp.html" target="_top" xlink:title=" ">
<polygon fill="none" stroke="black" points="55.5,-62 55.5,-81 174.5,-81 174.5,-62 55.5,-62"/>
<text text-anchor="middle" x="115" y="-69" font-family="Helvetica,sans-Serif" font-size="10.00">src/Render/Window.cpp</text>
</a>
</g>
</g>
<!-- Node4&#45;&gt;Node5 -->
<g id="edge4" class="edge">
<title>Node4&#45;&gt;Node5</title>
<path fill="none" stroke="midnightblue" d="M207.61,-118.8C182.68,-106.34 151.11,-90.56 132.01,-81.01"/>
<polygon fill="midnightblue" stroke="midnightblue" points="206.28,-122.05 216.79,-123.4 209.41,-115.79 206.28,-122.05"/>
</g>
<!-- Node6 -->
<g id="node6" class="node">
<title>Node6</title>
<g id="a_node6"><a xlink:href="Timer_8cpp.html" target="_top" xlink:title=" ">
<polygon fill="none" stroke="black" points="193,-62 193,-81 297,-81 297,-62 193,-62"/>
<text text-anchor="middle" x="245" y="-69" font-family="Helvetica,sans-Serif" font-size="10.00">src/Timer/Timer.cpp</text>
</a>
</g>
</g>
<!-- Node4&#45;&gt;Node6 -->
<g id="edge5" class="edge">
<title>Node4&#45;&gt;Node6</title>
<path fill="none" stroke="midnightblue" d="M245,-113.25C245,-102.02 245,-89.38 245,-81.19"/>
<polygon fill="midnightblue" stroke="midnightblue" points="241.5,-113.4 245,-123.4 248.5,-113.4 241.5,-113.4"/>
</g>
<!-- Node7 -->
<g id="node7" class="node">
<title>Node7</title>
<g id="a_node7"><a xlink:href="Engine_8hpp.html" target="_top" xlink:title=" ">
<polygon fill="none" stroke="black" points="315.5,-56.5 315.5,-86.5 446.5,-86.5 446.5,-56.5 315.5,-56.5"/>
<text text-anchor="start" x="323.5" y="-74.5" font-family="Helvetica,sans-Serif" font-size="10.00">includes/platformer</text>
<text text-anchor="middle" x="381" y="-63.5" font-family="Helvetica,sans-Serif" font-size="10.00">&#45;engine/Engine/Engine.hpp</text>
</a>
</g>
</g>
<!-- Node4&#45;&gt;Node7 -->
<g id="edge6" class="edge">
<title>Node4&#45;&gt;Node7</title>
<path fill="none" stroke="midnightblue" d="M283.72,-118.99C305.28,-108.69 331.69,-96.07 351.55,-86.58"/>
<polygon fill="midnightblue" stroke="midnightblue" points="282.02,-115.93 274.51,-123.4 285.04,-122.24 282.02,-115.93"/>
</g>
<!-- Node8 -->
<g id="node8" class="node">
<title>Node8</title>
<g id="a_node8"><a xlink:href="Engine_8cpp.html" target="_top" xlink:title=" ">
<polygon fill="none" stroke="black" points="324.5,-0.5 324.5,-19.5 437.5,-19.5 437.5,-0.5 324.5,-0.5"/>
<text text-anchor="middle" x="381" y="-7.5" font-family="Helvetica,sans-Serif" font-size="10.00">src/Engine/Engine.cpp</text>
</a>
</g>
</g>
<!-- Node7&#45;&gt;Node8 -->
<g id="edge7" class="edge">
<title>Node7&#45;&gt;Node8</title>
<path fill="none" stroke="midnightblue" d="M381,-46.29C381,-36.86 381,-26.65 381,-19.66"/>
<polygon fill="midnightblue" stroke="midnightblue" points="377.5,-46.4 381,-56.4 384.5,-46.4 377.5,-46.4"/>
</g>
<!-- Node9&#45;&gt;Node3 -->
<g id="edge9" class="edge">
<title>Node9&#45;&gt;Node3</title>
<path fill="none" stroke="midnightblue" d="M244.26,-187.67C200.68,-174.97 142.69,-158.06 108.26,-148.03"/>
<polygon fill="midnightblue" stroke="midnightblue" points="243.31,-191.04 253.89,-190.48 245.27,-184.32 243.31,-191.04"/>
</g>
<!-- Node9&#45;&gt;Node4 -->
<g id="edge12" class="edge">
<title>Node9&#45;&gt;Node4</title>
<path fill="none" stroke="midnightblue" d="M282.91,-182.74C274.48,-173.12 264.81,-162.09 257.34,-153.58"/>
<polygon fill="midnightblue" stroke="midnightblue" points="280.41,-185.18 289.63,-190.4 285.67,-180.57 280.41,-185.18"/>
</g>
<!-- Node10 -->
<g id="node10" class="node">
<title>Node10</title>
<g id="a_node10"><a xlink:href="TileLayer_8cpp.html" target="_top" xlink:title=" ">
<polygon fill="none" stroke="black" points="332,-129 332,-148 476,-148 476,-129 332,-129"/>
<text text-anchor="middle" x="404" y="-136" font-family="Helvetica,sans-Serif" font-size="10.00">src/GameLevel/TileLayer.cpp</text>
</a>
</g>
</g>
<!-- Node9&#45;&gt;Node10 -->
<g id="edge10" class="edge">
<title>Node9&#45;&gt;Node10</title>
<path fill="none" stroke="midnightblue" d="M332.64,-184.97C351.98,-172.65 376,-157.35 390.65,-148.01"/>
<polygon fill="midnightblue" stroke="midnightblue" points="330.68,-182.07 324.13,-190.4 334.45,-187.97 330.68,-182.07"/>
</g>
<!-- Node11 -->
<g id="node11" class="node">
<title>Node11</title>
<g id="a_node11"><a xlink:href="TextureManager_8cpp.html" target="_top" xlink:title=" ">
<polygon fill="none" stroke="black" points="494,-129 494,-148 650,-148 650,-129 494,-129"/>
<text text-anchor="middle" x="572" y="-136" font-family="Helvetica,sans-Serif" font-size="10.00">src/Texture/TextureManager.cpp</text>
</a>
</g>
</g>
<!-- Node9&#45;&gt;Node11 -->
<g id="edge11" class="edge">
<title>Node9&#45;&gt;Node11</title>
<path fill="none" stroke="midnightblue" d="M370.25,-188.07C423.2,-175.32 494.45,-158.17 536.57,-148.03"/>
<polygon fill="midnightblue" stroke="midnightblue" points="369.16,-184.73 360.25,-190.48 370.8,-191.54 369.16,-184.73"/>
</g>
</g>
</svg>
        <g id="navigator" transform="translate(0 0)" fill="#404254">
                <rect fill="#f2f5e9" fill-opacity="0.5" stroke="#606060" stroke-width=".5" x="0" y="0" width="60" height="60"/>
                <use id="zoomplus" xlink:href="#zoomPlus" x="17" y="9" onmousedown="handleZoom(evt,'in')"/>
                <use id="zoomminus" xlink:href="#zoomMin" x="42" y="9" onmousedown="handleZoom(evt,'out')"/>
                <use id="reset" xlink:href="#resetDef" x="30" y="36" onmousedown="handleReset()"/>
                <g id="arrowUp" xlink:href="#dirArrow" transform="translate(30 24)" onmousedown="handlePan(0,-1)">
                  <use xlink:href="#rim" fill="#404040">
                        <set attributeName="fill" to="#808080" begin="arrowUp.mouseover" end="arrowUp.mouseout"/>
                  </use>
                  <path fill="none" stroke="white" stroke-width="1.5" d="M0,-3.0v7 M-2.5,-0.5L0,-3.0L2.5,-0.5"/>
                </g>
                <g id="arrowRight" xlink:href="#dirArrow" transform="rotate(90) translate(36 -43)" onmousedown="handlePan(1,0)">
                  <use xlink:href="#rim" fill="#404040">
                        <set attributeName="fill" to="#808080" begin="arrowRight.mouseover" end="arrowRight.mouseout"/>
                  </use>
                  <path fill="none" stroke="white" stroke-width="1.5" d="M0,-3.0v7 M-2.5,-0.5L0,-3.0L2.5,-0.5"/>
                </g>
                <g id="arrowDown" xlink:href="#dirArrow" transform="rotate(180) translate(-30 -48)" onmousedown="handlePan(0,1)">
                  <use xlink:href="#rim" fill="#404040">
                        <set attributeName="fill" to="#808080" begin="arrowDown.mouseover" end="arrowDown.mouseout"/>
                  </use>
                  <path fill="none" stroke="white" stroke-width="1.5" d="M0,-3.0v7 M-2.5,-0.5L0,-3.0L2.5,-0.5"/>
                </g>
                <g id="arrowLeft" xlink:href="#dirArrow" transform="rotate(270) translate(-36 17)" onmousedown="handlePan(-1,0)">
                  <use xlink:href="#rim" fill="#404040">
                        <set attributeName="fill" to="#808080" begin="arrowLeft.mouseover" end="arrowLeft.mouseout"/>
                  </use>
                  <path fill="none" stroke="white" stroke-width="1.5" d="M0,-3.0v7 M-2.5,-0.5L0,-3.0L2.5,-0.5"/>
                </g>
        </g>
        <svg viewBox="0 0 15 15" width="100%" height="30px" preserveAspectRatio="xMaxYMin meet">
         <g id="arrow_out" transform="scale(0.3 0.3)">
          <a xlink:href="NumberUtil_8hpp__dep__incl_org.svg" target="_base">
           <rect id="button" ry="5" rx="5" y="6" x="6" height="38" width="38"
                fill="#f2f5e9" fill-opacity="0.5" stroke="#606060" stroke-width="1.0"/>
           <path id="arrow"
             d="M 11.500037,31.436501 C 11.940474,20.09759 22.043105,11.32322 32.158766,21.979434 L 37.068811,17.246167 C 37.068811,17.246167 37.088388,32 37.088388,32 L 22.160133,31.978069 C 22.160133,31.978069 26.997745,27.140456 26.997745,27.140456 C 18.528582,18.264221 13.291696,25.230495 11.500037,31.436501 z"
             style="fill:#404040;"/>
          </a>
         </g>
        </svg>
</svg>
