<?xml version="1.0" encoding="UTF-8" standalone="no"?>
<!DOCTYPE svg PUBLIC "-//W3C//DTD SVG 1.1//EN"
 "http://www.w3.org/Graphics/SVG/1.1/DTD/svg11.dtd">
<!-- Generated by graphviz version 2.44.0 ()
 -->
<!-- Title: includes/platformer&#45;engine/Builder/ObjectBuilder.hpp Pages: 1 -->
<!--zoomable 442 -->
<svg id="main" version="1.1" xmlns="http://www.w3.org/2000/svg" xmlns:xlink="http://www.w3.org/1999/xlink" xml:space="preserve" onload="init(evt)">
<style type="text/css"><![CDATA[
.edge:hover path { stroke: red; }
.edge:hover polygon { stroke: red; fill: red; }
]]></style>
<script type="text/javascript"><![CDATA[
var edges = document.getElementsByTagName('g');
if (edges && edges.length) {
  for (var i=0;i<edges.length;i++) {
    if (edges[i].id.substr(0,4)=='edge') {
      edges[i].setAttribute('class','edge');
    }
  }
}
]]></script>
        <defs>
                <circle id="rim" cx="0" cy="0" r="7"/>
                <circle id="rim2" cx="0" cy="0" r="3.5"/>
                <g id="zoomPlus">
                        <use xlink:href="#rim" fill="#404040">
                                <set attributeName="fill" to="#808080" begin="zoomplus.mouseover" end="zoomplus.mouseout"/>
                        </use>
                        <path d="M-4,0h8M0,-4v8" fill="none" stroke="white" stroke-width="1.5" pointer-events="none"/>
                </g>
                <g id="zoomMin">
                        <use xlink:href="#rim" fill="#404040">
                                <set attributeName="fill" to="#808080" begin="zoomminus.mouseover" end="zoomminus.mouseout"/>
                        </use>
                        <path d="M-4,0h8" fill="none" stroke="white" stroke-width="1.5" pointer-events="none"/>
                </g>
                <g id="dirArrow">
                        <path fill="none" stroke="white" stroke-width="1.5" d="M0,-3.0v7 M-2.5,-0.5L0,-3.0L2.5,-0.5"/>
                </g>
               <g id="resetDef">
                       <use xlink:href="#rim2" fill="#404040">
                               <set attributeName="fill" to="#808080" begin="reset.mouseover" end="reset.mouseout"/>
                       </use>
               </g>
        </defs>

<script type="text/javascript">
var viewWidth = 1377;
var viewHeight = 442;
var sectionId = 'dynsection-0';
</script>
<script xlink:href="svgpan.js"/>
<svg id="graph" class="graph">
<g id="viewport">
<title>includes/platformer&#45;engine/Builder/ObjectBuilder.hpp</title>
<!-- Node1 -->
<g id="node1" class="node">
<title>Node1</title>
<g id="a_node1"><a xlink:title=" ">
<polygon fill="#bfbfbf" stroke="black" points="1040,-403.5 1040,-433.5 1201,-433.5 1201,-403.5 1040,-403.5"/>
<text text-anchor="start" x="1048" y="-421.5" font-family="Helvetica,sans-Serif" font-size="10.00">includes/platformer</text>
<text text-anchor="middle" x="1120.5" y="-410.5" font-family="Helvetica,sans-Serif" font-size="10.00">&#45;engine/Builder/ObjectBuilder.hpp</text>
</a>
</g>
</g>
<!-- Node2 -->
<g id="node2" class="node">
<title>Node2</title>
<g id="a_node2"><a xlink:href="AnimatedSprite_8hpp.html" target="_top" xlink:title=" ">
<polygon fill="none" stroke="black" points="1052,-347.5 1052,-366.5 1189,-366.5 1189,-347.5 1052,-347.5"/>
<text text-anchor="middle" x="1120.5" y="-354.5" font-family="Helvetica,sans-Serif" font-size="10.00">Texture/AnimatedSprite.hpp</text>
</a>
</g>
</g>
<!-- Node1&#45;&gt;Node2 -->
<g id="edge1" class="edge">
<title>Node1&#45;&gt;Node2</title>
<path fill="none" stroke="midnightblue" d="M1120.5,-403.4C1120.5,-395.47 1120.5,-385.46 1120.5,-376.86"/>
<polygon fill="midnightblue" stroke="midnightblue" points="1124,-376.66 1120.5,-366.66 1117,-376.66 1124,-376.66"/>
</g>
<!-- Node3 -->
<g id="node3" class="node">
<title>Node3</title>
<g id="a_node3"><a xlink:href="Sprite_8hpp.html" target="_top" xlink:title=" ">
<polygon fill="none" stroke="black" points="831.5,-235.5 831.5,-254.5 891.5,-254.5 891.5,-235.5 831.5,-235.5"/>
<text text-anchor="middle" x="861.5" y="-242.5" font-family="Helvetica,sans-Serif" font-size="10.00">Sprite.hpp</text>
</a>
</g>
</g>
<!-- Node2&#45;&gt;Node3 -->
<g id="edge2" class="edge">
<title>Node2&#45;&gt;Node3</title>
<path fill="none" stroke="midnightblue" d="M1099.56,-347.48C1077.58,-338.51 1042.05,-323.92 1011.5,-311 969.23,-293.12 920.5,-271.89 890.35,-258.68"/>
<polygon fill="midnightblue" stroke="midnightblue" points="891.43,-255.33 880.87,-254.52 888.62,-261.74 891.43,-255.33"/>
</g>
<!-- Node6 -->
<g id="node6" class="node">
<title>Node6</title>
<g id="a_node6"><a xlink:title=" ">
<polygon fill="none" stroke="#bfbfbf" points="994,-0.5 994,-30.5 1089,-30.5 1089,-0.5 994,-0.5"/>
<text text-anchor="start" x="1002" y="-18.5" font-family="Helvetica,sans-Serif" font-size="10.00">boost/serialization</text>
<text text-anchor="middle" x="1041.5" y="-7.5" font-family="Helvetica,sans-Serif" font-size="10.00">/access.hpp</text>
</a>
</g>
</g>
<!-- Node2&#45;&gt;Node6 -->
<g id="edge54" class="edge">
<title>Node2&#45;&gt;Node6</title>
<path fill="none" stroke="midnightblue" d="M1104.81,-347.4C1077.83,-331.31 1025.5,-293.94 1025.5,-246 1025.5,-246 1025.5,-246 1025.5,-188 1025.5,-135.34 1033.07,-73.98 1037.8,-40.8"/>
<polygon fill="midnightblue" stroke="midnightblue" points="1041.29,-41.09 1039.28,-30.69 1034.37,-40.08 1041.29,-41.09"/>
</g>
<!-- Node20 -->
<g id="node20" class="node">
<title>Node20</title>
<g id="a_node20"><a xlink:href="Transform_8hpp.html" target="_top" xlink:title=" ">
<polygon fill="none" stroke="black" points="1146,-67.5 1146,-86.5 1225,-86.5 1225,-67.5 1146,-67.5"/>
<text text-anchor="middle" x="1185.5" y="-74.5" font-family="Helvetica,sans-Serif" font-size="10.00">Transform.hpp</text>
</a>
</g>
</g>
<!-- Node2&#45;&gt;Node20 -->
<g id="edge53" class="edge">
<title>Node2&#45;&gt;Node20</title>
<path fill="none" stroke="midnightblue" d="M1136.19,-347.4C1163.17,-331.31 1215.5,-293.94 1215.5,-246 1215.5,-246 1215.5,-246 1215.5,-188 1215.5,-154.64 1202.5,-117.53 1193.61,-96.07"/>
<polygon fill="midnightblue" stroke="midnightblue" points="1196.72,-94.42 1189.55,-86.62 1190.29,-97.19 1196.72,-94.42"/>
</g>
<!-- Node21 -->
<g id="node21" class="node">
<title>Node21</title>
<g id="a_node21"><a xlink:href="Point_8hpp.html" target="_top" xlink:title=" ">
<polygon fill="none" stroke="black" points="1191,-6 1191,-25 1248,-25 1248,-6 1191,-6"/>
<text text-anchor="middle" x="1219.5" y="-13" font-family="Helvetica,sans-Serif" font-size="10.00">Point.hpp</text>
</a>
</g>
</g>
<!-- Node2&#45;&gt;Node21 -->
<g id="edge29" class="edge">
<title>Node2&#45;&gt;Node21</title>
<path fill="none" stroke="midnightblue" d="M1147.41,-347.41C1186.28,-333.13 1253.5,-300.54 1253.5,-246 1253.5,-246 1253.5,-246 1253.5,-132 1253.5,-96.27 1238.34,-56.76 1228.27,-34.45"/>
<polygon fill="midnightblue" stroke="midnightblue" points="1231.36,-32.8 1223.94,-25.23 1225.02,-35.77 1231.36,-32.8"/>
</g>
<!-- Node24 -->
<g id="node24" class="node">
<title>Node24</title>
<g id="a_node24"><a xlink:href="Timer_8hpp.html" target="_top" xlink:title=" ">
<polygon fill="none" stroke="black" points="1282,-291.5 1282,-310.5 1369,-310.5 1369,-291.5 1282,-291.5"/>
<text text-anchor="middle" x="1325.5" y="-298.5" font-family="Helvetica,sans-Serif" font-size="10.00">Timer/Timer.hpp</text>
</a>
</g>
</g>
<!-- Node2&#45;&gt;Node24 -->
<g id="edge30" class="edge">
<title>Node2&#45;&gt;Node24</title>
<path fill="none" stroke="midnightblue" d="M1152.98,-347.44C1188.22,-338.16 1244.6,-323.31 1283.26,-313.13"/>
<polygon fill="midnightblue" stroke="midnightblue" points="1284.39,-316.45 1293.17,-310.52 1282.61,-309.68 1284.39,-316.45"/>
</g>
<!-- Node26 -->
<g id="node26" class="node">
<title>Node26</title>
<g id="a_node26"><a xlink:href="Window_8hpp.html" target="_top" xlink:title=" ">
<polygon fill="none" stroke="black" points="582,-291.5 582,-310.5 685,-310.5 685,-291.5 582,-291.5"/>
<text text-anchor="middle" x="633.5" y="-298.5" font-family="Helvetica,sans-Serif" font-size="10.00">Render/Window.hpp</text>
</a>
</g>
</g>
<!-- Node2&#45;&gt;Node26 -->
<g id="edge32" class="edge">
<title>Node2&#45;&gt;Node26</title>
<path fill="none" stroke="midnightblue" d="M1051.76,-348.38C956.71,-337.84 786.56,-318.97 695.32,-308.86"/>
<polygon fill="midnightblue" stroke="midnightblue" points="695.46,-305.35 685.14,-307.73 694.69,-312.31 695.46,-305.35"/>
</g>
<!-- Node4 -->
<g id="node4" class="node">
<title>Node4</title>
<g id="a_node4"><a xlink:href="Component_8hpp.html" target="_top" xlink:title=" ">
<polygon fill="none" stroke="black" points="816.5,-67.5 816.5,-86.5 900.5,-86.5 900.5,-67.5 816.5,-67.5"/>
<text text-anchor="middle" x="858.5" y="-74.5" font-family="Helvetica,sans-Serif" font-size="10.00">Component.hpp</text>
</a>
</g>
</g>
<!-- Node3&#45;&gt;Node4 -->
<g id="edge3" class="edge">
<title>Node3&#45;&gt;Node4</title>
<path fill="none" stroke="midnightblue" d="M861.34,-235.08C860.87,-208.95 859.48,-132.21 858.84,-96.58"/>
<polygon fill="midnightblue" stroke="midnightblue" points="862.34,-96.5 858.65,-86.57 855.34,-96.63 862.34,-96.5"/>
</g>
<!-- Node3&#45;&gt;Node6 -->
<g id="edge28" class="edge">
<title>Node3&#45;&gt;Node6</title>
<path fill="none" stroke="midnightblue" d="M868.34,-235.36C894.02,-202.9 985.26,-87.58 1023.95,-38.68"/>
<polygon fill="midnightblue" stroke="midnightblue" points="1026.87,-40.64 1030.33,-30.62 1021.38,-36.29 1026.87,-40.64"/>
</g>
<!-- Node10 -->
<g id="node10" class="node">
<title>Node10</title>
<g id="a_node10"><a xlink:href="Color_8hpp.html" target="_top" xlink:title=" ">
<polygon fill="none" stroke="black" points="1071,-67.5 1071,-86.5 1128,-86.5 1128,-67.5 1071,-67.5"/>
<text text-anchor="middle" x="1099.5" y="-74.5" font-family="Helvetica,sans-Serif" font-size="10.00">Color.hpp</text>
</a>
</g>
</g>
<!-- Node3&#45;&gt;Node10 -->
<g id="edge9" class="edge">
<title>Node3&#45;&gt;Node10</title>
<path fill="none" stroke="midnightblue" d="M891.76,-236.91C928.49,-227.91 987.84,-211.99 1006.5,-199 1046.02,-171.48 1076.31,-122.03 1090.55,-95.68"/>
<polygon fill="midnightblue" stroke="midnightblue" points="1093.66,-97.28 1095.2,-86.8 1087.46,-94.03 1093.66,-97.28"/>
</g>
<!-- Node11 -->
<g id="node11" class="node">
<title>Node11</title>
<g id="a_node11"><a xlink:title=" ">
<polygon fill="none" stroke="#bfbfbf" points="0,-67.5 0,-86.5 41,-86.5 41,-67.5 0,-67.5"/>
<text text-anchor="middle" x="20.5" y="-74.5" font-family="Helvetica,sans-Serif" font-size="10.00">string</text>
</a>
</g>
</g>
<!-- Node3&#45;&gt;Node11 -->
<g id="edge10" class="edge">
<title>Node3&#45;&gt;Node11</title>
<path fill="none" stroke="midnightblue" d="M831.35,-240.11C776.24,-232.88 655.61,-216.51 554.5,-199 429.45,-177.35 398.24,-171.19 274.5,-143 193.25,-124.49 98.32,-99.22 50.82,-86.31"/>
<polygon fill="midnightblue" stroke="midnightblue" points="51.72,-82.93 41.15,-83.68 49.88,-89.69 51.72,-82.93"/>
</g>
<!-- Node12 -->
<g id="node12" class="node">
<title>Node12</title>
<g id="a_node12"><a xlink:href="GraphicsFacade_8hpp.html" target="_top" xlink:title=" ">
<polygon fill="none" stroke="black" points="447,-123.5 447,-142.5 588,-142.5 588,-123.5 447,-123.5"/>
<text text-anchor="middle" x="517.5" y="-130.5" font-family="Helvetica,sans-Serif" font-size="10.00">Facade/GraphicsFacade.hpp</text>
</a>
</g>
</g>
<!-- Node3&#45;&gt;Node12 -->
<g id="edge11" class="edge">
<title>Node3&#45;&gt;Node12</title>
<path fill="none" stroke="midnightblue" d="M844.47,-235.33C817.21,-221.74 761.81,-195.29 712.5,-179 667.28,-164.06 614.58,-152.22 575.38,-144.44"/>
<polygon fill="midnightblue" stroke="midnightblue" points="575.94,-140.98 565.46,-142.5 574.6,-147.85 575.94,-140.98"/>
</g>
<!-- Node3&#45;&gt;Node20 -->
<g id="edge22" class="edge">
<title>Node3&#45;&gt;Node20</title>
<path fill="none" stroke="midnightblue" d="M891.85,-236.73C937.5,-225.69 1019.9,-205.29 1032.5,-199 1088.78,-170.89 1143.95,-119.85 1169.99,-93.97"/>
<polygon fill="midnightblue" stroke="midnightblue" points="1172.54,-96.36 1177.1,-86.8 1167.57,-91.44 1172.54,-96.36"/>
</g>
<!-- Node22 -->
<g id="node22" class="node">
<title>Node22</title>
<g id="a_node22"><a xlink:href="TextureManager_8hpp.html" target="_top" xlink:title=" ">
<polygon fill="none" stroke="black" points="563.5,-179.5 563.5,-198.5 703.5,-198.5 703.5,-179.5 563.5,-179.5"/>
<text text-anchor="middle" x="633.5" y="-186.5" font-family="Helvetica,sans-Serif" font-size="10.00">Texture/TextureManager.hpp</text>
</a>
</g>
</g>
<!-- Node3&#45;&gt;Node22 -->
<g id="edge24" class="edge">
<title>Node3&#45;&gt;Node22</title>
<path fill="none" stroke="midnightblue" d="M831.22,-236.83C792.37,-227.63 724.6,-211.58 679.39,-200.87"/>
<polygon fill="midnightblue" stroke="midnightblue" points="680.08,-197.44 669.55,-198.54 678.47,-204.25 680.08,-197.44"/>
</g>
<!-- Node5 -->
<g id="node5" class="node">
<title>Node5</title>
<g id="a_node5"><a xlink:title=" ">
<polygon fill="none" stroke="#bfbfbf" points="586,-6 586,-25 637,-25 637,-6 586,-6"/>
<text text-anchor="middle" x="611.5" y="-13" font-family="Helvetica,sans-Serif" font-size="10.00">memory</text>
</a>
</g>
</g>
<!-- Node4&#45;&gt;Node5 -->
<g id="edge4" class="edge">
<title>Node4&#45;&gt;Node5</title>
<path fill="none" stroke="midnightblue" d="M816.25,-69.57C772.82,-62.39 703.53,-49.31 645.5,-31 643.57,-30.39 641.6,-29.71 639.63,-28.99"/>
<polygon fill="midnightblue" stroke="midnightblue" points="640.54,-25.59 629.96,-25.14 637.96,-32.09 640.54,-25.59"/>
</g>
<!-- Node4&#45;&gt;Node6 -->
<g id="edge5" class="edge">
<title>Node4&#45;&gt;Node6</title>
<path fill="none" stroke="midnightblue" d="M884.72,-67.48C911.7,-58.7 954.5,-44.79 988.56,-33.71"/>
<polygon fill="midnightblue" stroke="midnightblue" points="989.94,-36.94 998.37,-30.52 987.78,-30.29 989.94,-36.94"/>
</g>
<!-- Node7 -->
<g id="node7" class="node">
<title>Node7</title>
<g id="a_node7"><a xlink:title=" ">
<polygon fill="none" stroke="#bfbfbf" points="655,-0.5 655,-30.5 750,-30.5 750,-0.5 655,-0.5"/>
<text text-anchor="start" x="663" y="-18.5" font-family="Helvetica,sans-Serif" font-size="10.00">boost/serialization</text>
<text text-anchor="middle" x="702.5" y="-7.5" font-family="Helvetica,sans-Serif" font-size="10.00">/map.hpp</text>
</a>
</g>
</g>
<!-- Node4&#45;&gt;Node7 -->
<g id="edge6" class="edge">
<title>Node4&#45;&gt;Node7</title>
<path fill="none" stroke="midnightblue" d="M836.15,-67.48C813.44,-58.81 777.6,-45.15 748.75,-34.14"/>
<polygon fill="midnightblue" stroke="midnightblue" points="749.86,-30.82 739.27,-30.52 747.36,-37.36 749.86,-30.82"/>
</g>
<!-- Node8 -->
<g id="node8" class="node">
<title>Node8</title>
<g id="a_node8"><a xlink:title=" ">
<polygon fill="none" stroke="#bfbfbf" points="768,-0.5 768,-30.5 863,-30.5 863,-0.5 768,-0.5"/>
<text text-anchor="start" x="776" y="-18.5" font-family="Helvetica,sans-Serif" font-size="10.00">boost/serialization</text>
<text text-anchor="middle" x="815.5" y="-7.5" font-family="Helvetica,sans-Serif" font-size="10.00">/vector.hpp</text>
</a>
</g>
</g>
<!-- Node4&#45;&gt;Node8 -->
<g id="edge7" class="edge">
<title>Node4&#45;&gt;Node8</title>
<path fill="none" stroke="midnightblue" d="M852.34,-67.48C846.95,-60.02 838.88,-48.85 831.67,-38.87"/>
<polygon fill="midnightblue" stroke="midnightblue" points="834.33,-36.58 825.63,-30.52 828.65,-40.68 834.33,-36.58"/>
</g>
<!-- Node9 -->
<g id="node9" class="node">
<title>Node9</title>
<g id="a_node9"><a xlink:title=" ">
<polygon fill="none" stroke="#bfbfbf" points="881,-0.5 881,-30.5 976,-30.5 976,-0.5 881,-0.5"/>
<text text-anchor="start" x="889" y="-18.5" font-family="Helvetica,sans-Serif" font-size="10.00">boost/serialization</text>
<text text-anchor="middle" x="928.5" y="-7.5" font-family="Helvetica,sans-Serif" font-size="10.00">/shared_ptr.hpp</text>
</a>
</g>
</g>
<!-- Node4&#45;&gt;Node9 -->
<g id="edge8" class="edge">
<title>Node4&#45;&gt;Node9</title>
<path fill="none" stroke="midnightblue" d="M868.53,-67.48C877.83,-59.57 892.05,-47.48 904.3,-37.07"/>
<polygon fill="midnightblue" stroke="midnightblue" points="906.65,-39.67 912,-30.52 902.12,-34.33 906.65,-39.67"/>
</g>
<!-- Node12&#45;&gt;Node5 -->
<g id="edge17" class="edge">
<title>Node12&#45;&gt;Node5</title>
<path fill="none" stroke="midnightblue" d="M446.69,-127.03C327.92,-118.36 100.32,-100.13 88.5,-87 82.55,-80.39 82.52,-73.58 88.5,-67 121.21,-30.98 462.71,-19.92 575.54,-17.24"/>
<polygon fill="midnightblue" stroke="midnightblue" points="575.81,-20.73 585.73,-17 575.65,-13.73 575.81,-20.73"/>
</g>
<!-- Node12&#45;&gt;Node10 -->
<g id="edge15" class="edge">
<title>Node12&#45;&gt;Node10</title>
<path fill="none" stroke="midnightblue" d="M588.24,-124.61C593.74,-124.06 599.21,-123.51 604.5,-123 774.38,-106.49 977.24,-88.63 1060.71,-81.36"/>
<polygon fill="midnightblue" stroke="midnightblue" points="1061.09,-84.84 1070.75,-80.49 1060.49,-77.87 1061.09,-84.84"/>
</g>
<!-- Node12&#45;&gt;Node11 -->
<g id="edge19" class="edge">
<title>Node12&#45;&gt;Node11</title>
<path fill="none" stroke="midnightblue" d="M446.65,-126.45C336.37,-117.58 128.71,-99.9 55.5,-87 54.03,-86.74 52.54,-86.45 51.03,-86.14"/>
<polygon fill="midnightblue" stroke="midnightblue" points="51.64,-82.69 41.11,-83.86 50.07,-89.52 51.64,-82.69"/>
</g>
<!-- Node13 -->
<g id="node13" class="node">
<title>Node13</title>
<g id="a_node13"><a xlink:title=" ">
<polygon fill="none" stroke="#bfbfbf" points="377,-67.5 377,-86.5 448,-86.5 448,-67.5 377,-67.5"/>
<text text-anchor="middle" x="412.5" y="-74.5" font-family="Helvetica,sans-Serif" font-size="10.00">SDL2/SDL.h</text>
</a>
</g>
</g>
<!-- Node12&#45;&gt;Node13 -->
<g id="edge12" class="edge">
<title>Node12&#45;&gt;Node13</title>
<path fill="none" stroke="midnightblue" d="M500.63,-123.32C483.79,-114.66 457.69,-101.24 438.26,-91.25"/>
<polygon fill="midnightblue" stroke="midnightblue" points="439.82,-88.12 429.33,-86.65 436.62,-94.34 439.82,-88.12"/>
</g>
<!-- Node14 -->
<g id="node14" class="node">
<title>Node14</title>
<g id="a_node14"><a xlink:title=" ">
<polygon fill="none" stroke="#bfbfbf" points="466,-67.5 466,-86.5 569,-86.5 569,-67.5 466,-67.5"/>
<text text-anchor="middle" x="517.5" y="-74.5" font-family="Helvetica,sans-Serif" font-size="10.00">SDL2/SDL_image.h</text>
</a>
</g>
</g>
<!-- Node12&#45;&gt;Node14 -->
<g id="edge13" class="edge">
<title>Node12&#45;&gt;Node14</title>
<path fill="none" stroke="midnightblue" d="M517.5,-123.08C517.5,-116.01 517.5,-105.86 517.5,-96.99"/>
<polygon fill="midnightblue" stroke="midnightblue" points="521,-96.75 517.5,-86.75 514,-96.75 521,-96.75"/>
</g>
<!-- Node15 -->
<g id="node15" class="node">
<title>Node15</title>
<g id="a_node15"><a xlink:title=" ">
<polygon fill="none" stroke="#bfbfbf" points="97.5,-67.5 97.5,-86.5 151.5,-86.5 151.5,-67.5 97.5,-67.5"/>
<text text-anchor="middle" x="124.5" y="-74.5" font-family="Helvetica,sans-Serif" font-size="10.00">iostream</text>
</a>
</g>
</g>
<!-- Node12&#45;&gt;Node15 -->
<g id="edge14" class="edge">
<title>Node12&#45;&gt;Node15</title>
<path fill="none" stroke="midnightblue" d="M446.67,-125.59C376.61,-118.68 266.21,-106.27 161.65,-87.02"/>
<polygon fill="midnightblue" stroke="midnightblue" points="162.02,-83.52 151.55,-85.13 160.74,-90.41 162.02,-83.52"/>
</g>
<!-- Node16 -->
<g id="node16" class="node">
<title>Node16</title>
<g id="a_node16"><a xlink:href="NumberUtil_8hpp.html" target="_top" xlink:title=" ">
<polygon fill="none" stroke="black" points="169.5,-67.5 169.5,-86.5 281.5,-86.5 281.5,-67.5 169.5,-67.5"/>
<text text-anchor="middle" x="225.5" y="-74.5" font-family="Helvetica,sans-Serif" font-size="10.00">Utility/NumberUtil.hpp</text>
</a>
</g>
</g>
<!-- Node12&#45;&gt;Node16 -->
<g id="edge16" class="edge">
<title>Node12&#45;&gt;Node16</title>
<path fill="none" stroke="midnightblue" d="M471.23,-123.44C419.76,-113.92 336.61,-98.55 281.5,-88.36"/>
<polygon fill="midnightblue" stroke="midnightblue" points="282.02,-84.89 271.55,-86.52 280.75,-91.78 282.02,-84.89"/>
</g>
<!-- Node17 -->
<g id="node17" class="node">
<title>Node17</title>
<g id="a_node17"><a xlink:title=" ">
<polygon fill="none" stroke="#bfbfbf" points="300,-67.5 300,-86.5 359,-86.5 359,-67.5 300,-67.5"/>
<text text-anchor="middle" x="329.5" y="-74.5" font-family="Helvetica,sans-Serif" font-size="10.00">functional</text>
</a>
</g>
</g>
<!-- Node12&#45;&gt;Node17 -->
<g id="edge18" class="edge">
<title>Node12&#45;&gt;Node17</title>
<path fill="none" stroke="midnightblue" d="M487.71,-123.44C455.67,-114.24 404.57,-99.56 369.15,-89.39"/>
<polygon fill="midnightblue" stroke="midnightblue" points="369.73,-85.91 359.15,-86.52 367.79,-92.64 369.73,-85.91"/>
</g>
<!-- Node18 -->
<g id="node18" class="node">
<title>Node18</title>
<g id="a_node18"><a xlink:title=" ">
<polygon fill="none" stroke="#bfbfbf" points="640.5,-67.5 640.5,-86.5 684.5,-86.5 684.5,-67.5 640.5,-67.5"/>
<text text-anchor="middle" x="662.5" y="-74.5" font-family="Helvetica,sans-Serif" font-size="10.00">vector</text>
</a>
</g>
</g>
<!-- Node12&#45;&gt;Node18 -->
<g id="edge20" class="edge">
<title>Node12&#45;&gt;Node18</title>
<path fill="none" stroke="midnightblue" d="M540.48,-123.44C564.8,-114.39 603.37,-100.02 630.63,-89.87"/>
<polygon fill="midnightblue" stroke="midnightblue" points="631.96,-93.11 640.11,-86.34 629.52,-86.55 631.96,-93.11"/>
</g>
<!-- Node19 -->
<g id="node19" class="node">
<title>Node19</title>
<g id="a_node19"><a xlink:title=" ">
<polygon fill="none" stroke="#bfbfbf" points="587,-67.5 587,-86.5 622,-86.5 622,-67.5 587,-67.5"/>
<text text-anchor="middle" x="604.5" y="-74.5" font-family="Helvetica,sans-Serif" font-size="10.00">map</text>
</a>
</g>
</g>
<!-- Node12&#45;&gt;Node19 -->
<g id="edge21" class="edge">
<title>Node12&#45;&gt;Node19</title>
<path fill="none" stroke="midnightblue" d="M531.48,-123.32C545.05,-114.9 565.88,-101.97 581.82,-92.07"/>
<polygon fill="midnightblue" stroke="midnightblue" points="583.91,-94.9 590.56,-86.65 580.21,-88.95 583.91,-94.9"/>
</g>
<!-- Node20&#45;&gt;Node21 -->
<g id="edge23" class="edge">
<title>Node20&#45;&gt;Node21</title>
<path fill="none" stroke="midnightblue" d="M1190.37,-67.48C1195.37,-58.73 1203.29,-44.87 1209.61,-33.81"/>
<polygon fill="midnightblue" stroke="midnightblue" points="1212.72,-35.43 1214.64,-25.01 1206.64,-31.96 1212.72,-35.43"/>
</g>
<!-- Node22&#45;&gt;Node11 -->
<g id="edge25" class="edge">
<title>Node22&#45;&gt;Node11</title>
<path fill="none" stroke="midnightblue" d="M586.75,-179.48C518.25,-167 386.57,-143.07 274.5,-123 193.97,-108.58 99.03,-91.82 51.25,-83.41"/>
<polygon fill="midnightblue" stroke="midnightblue" points="51.7,-79.94 41.25,-81.65 50.49,-86.83 51.7,-79.94"/>
</g>
<!-- Node22&#45;&gt;Node12 -->
<g id="edge27" class="edge">
<title>Node22&#45;&gt;Node12</title>
<path fill="none" stroke="midnightblue" d="M615.12,-179.44C596.28,-170.68 566.77,-156.94 545.12,-146.86"/>
<polygon fill="midnightblue" stroke="midnightblue" points="546.34,-143.56 535.79,-142.52 543.38,-149.91 546.34,-143.56"/>
</g>
<!-- Node23 -->
<g id="node23" class="node">
<title>Node23</title>
<g id="a_node23"><a xlink:title=" ">
<polygon fill="none" stroke="#bfbfbf" points="614,-123.5 614,-142.5 653,-142.5 653,-123.5 614,-123.5"/>
<text text-anchor="middle" x="633.5" y="-130.5" font-family="Helvetica,sans-Serif" font-size="10.00">utility</text>
</a>
</g>
</g>
<!-- Node22&#45;&gt;Node23 -->
<g id="edge26" class="edge">
<title>Node22&#45;&gt;Node23</title>
<path fill="none" stroke="midnightblue" d="M633.5,-179.08C633.5,-172.01 633.5,-161.86 633.5,-152.99"/>
<polygon fill="midnightblue" stroke="midnightblue" points="637,-152.75 633.5,-142.75 630,-152.75 637,-152.75"/>
</g>
<!-- Node25 -->
<g id="node25" class="node">
<title>Node25</title>
<g id="a_node25"><a xlink:title=" ">
<polygon fill="none" stroke="#bfbfbf" points="1302.5,-235.5 1302.5,-254.5 1348.5,-254.5 1348.5,-235.5 1302.5,-235.5"/>
<text text-anchor="middle" x="1325.5" y="-242.5" font-family="Helvetica,sans-Serif" font-size="10.00">cstdint</text>
</a>
</g>
</g>
<!-- Node24&#45;&gt;Node25 -->
<g id="edge31" class="edge">
<title>Node24&#45;&gt;Node25</title>
<path fill="none" stroke="midnightblue" d="M1325.5,-291.08C1325.5,-284.01 1325.5,-273.86 1325.5,-264.99"/>
<polygon fill="midnightblue" stroke="midnightblue" points="1329,-264.75 1325.5,-254.75 1322,-264.75 1329,-264.75"/>
</g>
<!-- Node26&#45;&gt;Node10 -->
<g id="edge34" class="edge">
<title>Node26&#45;&gt;Node10</title>
<path fill="none" stroke="midnightblue" d="M685.01,-298.47C769.31,-295.12 932.19,-284.88 980.5,-255 1042.41,-216.71 1079.41,-132.84 1093.25,-95.98"/>
<polygon fill="midnightblue" stroke="midnightblue" points="1096.56,-97.13 1096.67,-86.53 1089.98,-94.74 1096.56,-97.13"/>
</g>
<!-- Node26&#45;&gt;Node11 -->
<g id="edge33" class="edge">
<title>Node26&#45;&gt;Node11</title>
<path fill="none" stroke="midnightblue" d="M581.89,-294.71C531.21,-288.57 452.18,-276.43 386.5,-255 250.12,-210.51 99.6,-125.1 43.35,-91.79"/>
<polygon fill="midnightblue" stroke="midnightblue" points="44.94,-88.66 34.56,-86.54 41.35,-94.67 44.94,-88.66"/>
</g>
<!-- Node26&#45;&gt;Node12 -->
<g id="edge35" class="edge">
<title>Node26&#45;&gt;Node12</title>
<path fill="none" stroke="midnightblue" d="M626.08,-291.41C611.52,-274.38 578.55,-234.87 554.5,-199 544.13,-183.53 533.76,-164.99 526.65,-151.68"/>
<polygon fill="midnightblue" stroke="midnightblue" points="529.66,-149.87 521.91,-142.65 523.46,-153.13 529.66,-149.87"/>
</g>
<!-- Node26&#45;&gt;Node22 -->
<g id="edge36" class="edge">
<title>Node26&#45;&gt;Node22</title>
<path fill="none" stroke="midnightblue" d="M633.5,-291.37C633.5,-273.62 633.5,-232.67 633.5,-208.6"/>
<polygon fill="midnightblue" stroke="midnightblue" points="637,-208.59 633.5,-198.59 630,-208.59 637,-208.59"/>
</g>
<!-- Node27 -->
<g id="node27" class="node">
<title>Node27</title>
<g id="a_node27"><a xlink:href="Scene_8hpp.html" target="_top" xlink:title=" ">
<polygon fill="none" stroke="black" points="909.5,-235.5 909.5,-254.5 971.5,-254.5 971.5,-235.5 909.5,-235.5"/>
<text text-anchor="middle" x="940.5" y="-242.5" font-family="Helvetica,sans-Serif" font-size="10.00">Scene.hpp</text>
</a>
</g>
</g>
<!-- Node26&#45;&gt;Node27 -->
<g id="edge37" class="edge">
<title>Node26&#45;&gt;Node27</title>
<path fill="none" stroke="midnightblue" d="M685.09,-292.16C736.76,-284.11 818.82,-270.82 898.84,-255.25"/>
<polygon fill="midnightblue" stroke="midnightblue" points="899.95,-258.59 909.09,-253.24 898.6,-251.73 899.95,-258.59"/>
</g>
<!-- Node30 -->
<g id="node30" class="node">
<title>Node30</title>
<g id="a_node30"><a xlink:title=" ">
<polygon fill="none" stroke="#bfbfbf" points="395.5,-235.5 395.5,-254.5 507.5,-254.5 507.5,-235.5 395.5,-235.5"/>
<text text-anchor="middle" x="451.5" y="-242.5" font-family="Helvetica,sans-Serif" font-size="10.00">Events/EventsEnum.h</text>
</a>
</g>
</g>
<!-- Node26&#45;&gt;Node30 -->
<g id="edge52" class="edge">
<title>Node26&#45;&gt;Node30</title>
<path fill="none" stroke="midnightblue" d="M604.66,-291.44C573.64,-282.24 524.17,-267.56 489.88,-257.39"/>
<polygon fill="midnightblue" stroke="midnightblue" points="490.79,-254.01 480.2,-254.52 488.79,-260.72 490.79,-254.01"/>
</g>
<!-- Node28 -->
<g id="node28" class="node">
<title>Node28</title>
<g id="a_node28"><a xlink:href="GameObject_8hpp.html" target="_top" xlink:title=" ">
<polygon fill="none" stroke="black" points="744,-123.5 744,-142.5 833,-142.5 833,-123.5 744,-123.5"/>
<text text-anchor="middle" x="788.5" y="-130.5" font-family="Helvetica,sans-Serif" font-size="10.00">GameObject.hpp</text>
</a>
</g>
</g>
<!-- Node27&#45;&gt;Node28 -->
<g id="edge38" class="edge">
<title>Node27&#45;&gt;Node28</title>
<path fill="none" stroke="midnightblue" d="M928.57,-235.37C902.6,-216.57 840.69,-171.77 808.58,-148.53"/>
<polygon fill="midnightblue" stroke="midnightblue" points="810.52,-145.62 800.37,-142.59 806.42,-151.29 810.52,-145.62"/>
</g>
<!-- Node29 -->
<g id="node29" class="node">
<title>Node29</title>
<g id="a_node29"><a xlink:href="Camera_8hpp.html" target="_top" xlink:title=" ">
<polygon fill="none" stroke="black" points="929.5,-179.5 929.5,-198.5 997.5,-198.5 997.5,-179.5 929.5,-179.5"/>
<text text-anchor="middle" x="963.5" y="-186.5" font-family="Helvetica,sans-Serif" font-size="10.00">Camera.hpp</text>
</a>
</g>
</g>
<!-- Node27&#45;&gt;Node29 -->
<g id="edge49" class="edge">
<title>Node27&#45;&gt;Node29</title>
<path fill="none" stroke="midnightblue" d="M944.3,-235.08C947.41,-227.77 951.92,-217.18 955.79,-208.1"/>
<polygon fill="midnightblue" stroke="midnightblue" points="959.07,-209.32 959.77,-198.75 952.63,-206.58 959.07,-209.32"/>
</g>
<!-- Node28&#45;&gt;Node4 -->
<g id="edge39" class="edge">
<title>Node28&#45;&gt;Node4</title>
<path fill="none" stroke="midnightblue" d="M799.75,-123.32C810.3,-115.18 826.3,-102.84 838.94,-93.09"/>
<polygon fill="midnightblue" stroke="midnightblue" points="841.27,-95.71 847.05,-86.83 836.99,-90.17 841.27,-95.71"/>
</g>
<!-- Node28&#45;&gt;Node5 -->
<g id="edge43" class="edge">
<title>Node28&#45;&gt;Node5</title>
<path fill="none" stroke="midnightblue" d="M776.33,-123.4C758.38,-110.77 723.67,-86.59 693.5,-67 673.93,-54.29 651.32,-40.42 634.8,-30.44"/>
<polygon fill="midnightblue" stroke="midnightblue" points="636.22,-27.21 625.85,-25.05 632.61,-33.21 636.22,-27.21"/>
</g>
<!-- Node28&#45;&gt;Node6 -->
<g id="edge45" class="edge">
<title>Node28&#45;&gt;Node6</title>
<path fill="none" stroke="midnightblue" d="M823.61,-123.45C852.72,-115.74 894.79,-103.15 929.5,-87 960.03,-72.8 992.31,-51.75 1014.33,-36.35"/>
<polygon fill="midnightblue" stroke="midnightblue" points="1016.39,-39.18 1022.53,-30.55 1012.34,-33.47 1016.39,-39.18"/>
</g>
<!-- Node28&#45;&gt;Node7 -->
<g id="edge46" class="edge">
<title>Node28&#45;&gt;Node7</title>
<path fill="none" stroke="midnightblue" d="M782.04,-123.32C768.77,-105.5 738.11,-64.32 718.97,-38.61"/>
<polygon fill="midnightblue" stroke="midnightblue" points="721.74,-36.48 712.96,-30.55 716.12,-40.66 721.74,-36.48"/>
</g>
<!-- Node28&#45;&gt;Node8 -->
<g id="edge47" class="edge">
<title>Node28&#45;&gt;Node8</title>
<path fill="none" stroke="midnightblue" d="M790.53,-123.32C794.6,-105.89 803.9,-66.1 809.93,-40.31"/>
<polygon fill="midnightblue" stroke="midnightblue" points="813.35,-41.08 812.22,-30.55 806.53,-39.49 813.35,-41.08"/>
</g>
<!-- Node28&#45;&gt;Node9 -->
<g id="edge48" class="edge">
<title>Node28&#45;&gt;Node9</title>
<path fill="none" stroke="midnightblue" d="M833.02,-125.75C858.74,-119.89 889.8,-108.62 909.5,-87 920.91,-74.48 925.58,-55.84 927.45,-40.86"/>
<polygon fill="midnightblue" stroke="midnightblue" points="930.94,-41.02 928.36,-30.75 923.97,-40.39 930.94,-41.02"/>
</g>
<!-- Node28&#45;&gt;Node11 -->
<g id="edge41" class="edge">
<title>Node28&#45;&gt;Node11</title>
<path fill="none" stroke="midnightblue" d="M743.84,-128.75C719.5,-127 688.85,-124.83 661.5,-123 406.9,-105.98 342.47,-111.75 88.5,-87 76.34,-85.81 63.01,-84.13 51.39,-82.55"/>
<polygon fill="midnightblue" stroke="midnightblue" points="51.68,-79.05 41.29,-81.13 50.71,-85.98 51.68,-79.05"/>
</g>
<!-- Node28&#45;&gt;Node18 -->
<g id="edge42" class="edge">
<title>Node28&#45;&gt;Node18</title>
<path fill="none" stroke="midnightblue" d="M768.53,-123.44C747.89,-114.6 715.44,-100.69 691.87,-90.59"/>
<polygon fill="midnightblue" stroke="midnightblue" points="692.94,-87.24 682.37,-86.52 690.18,-93.67 692.94,-87.24"/>
</g>
<!-- Node28&#45;&gt;Node19 -->
<g id="edge44" class="edge">
<title>Node28&#45;&gt;Node19</title>
<path fill="none" stroke="midnightblue" d="M757.11,-123.43C727.32,-115.2 681.07,-102.18 632.03,-87.07"/>
<polygon fill="midnightblue" stroke="midnightblue" points="632.77,-83.63 622.18,-84.01 630.7,-90.32 632.77,-83.63"/>
</g>
<!-- Node28&#45;&gt;Node20 -->
<g id="edge40" class="edge">
<title>Node28&#45;&gt;Node20</title>
<path fill="none" stroke="midnightblue" d="M833.1,-127C897.54,-119.61 1020.63,-104.86 1135.89,-87.02"/>
<polygon fill="midnightblue" stroke="midnightblue" points="1136.61,-90.45 1145.95,-85.45 1135.53,-83.53 1136.61,-90.45"/>
</g>
<!-- Node29&#45;&gt;Node10 -->
<g id="edge51" class="edge">
<title>Node29&#45;&gt;Node10</title>
<path fill="none" stroke="midnightblue" d="M974.17,-179.37C997.21,-160.73 1051.86,-116.53 1080.79,-93.13"/>
<polygon fill="midnightblue" stroke="midnightblue" points="1083.3,-95.6 1088.88,-86.59 1078.9,-90.16 1083.3,-95.6"/>
</g>
<!-- Node29&#45;&gt;Node28 -->
<g id="edge50" class="edge">
<title>Node29&#45;&gt;Node28</title>
<path fill="none" stroke="midnightblue" d="M935.77,-179.44C906.07,-170.28 858.78,-155.69 825.83,-145.52"/>
<polygon fill="midnightblue" stroke="midnightblue" points="826.69,-142.12 816.1,-142.52 824.62,-148.81 826.69,-142.12"/>
</g>
</g>
</svg>
        <g id="navigator" transform="translate(0 0)" fill="#404254">
                <rect fill="#f2f5e9" fill-opacity="0.5" stroke="#606060" stroke-width=".5" x="0" y="0" width="60" height="60"/>
                <use id="zoomplus" xlink:href="#zoomPlus" x="17" y="9" onmousedown="handleZoom(evt,'in')"/>
                <use id="zoomminus" xlink:href="#zoomMin" x="42" y="9" onmousedown="handleZoom(evt,'out')"/>
                <use id="reset" xlink:href="#resetDef" x="30" y="36" onmousedown="handleReset()"/>
                <g id="arrowUp" xlink:href="#dirArrow" transform="translate(30 24)" onmousedown="handlePan(0,-1)">
                  <use xlink:href="#rim" fill="#404040">
                        <set attributeName="fill" to="#808080" begin="arrowUp.mouseover" end="arrowUp.mouseout"/>
                  </use>
                  <path fill="none" stroke="white" stroke-width="1.5" d="M0,-3.0v7 M-2.5,-0.5L0,-3.0L2.5,-0.5"/>
                </g>
                <g id="arrowRight" xlink:href="#dirArrow" transform="rotate(90) translate(36 -43)" onmousedown="handlePan(1,0)">
                  <use xlink:href="#rim" fill="#404040">
                        <set attributeName="fill" to="#808080" begin="arrowRight.mouseover" end="arrowRight.mouseout"/>
                  </use>
                  <path fill="none" stroke="white" stroke-width="1.5" d="M0,-3.0v7 M-2.5,-0.5L0,-3.0L2.5,-0.5"/>
                </g>
                <g id="arrowDown" xlink:href="#dirArrow" transform="rotate(180) translate(-30 -48)" onmousedown="handlePan(0,1)">
                  <use xlink:href="#rim" fill="#404040">
                        <set attributeName="fill" to="#808080" begin="arrowDown.mouseover" end="arrowDown.mouseout"/>
                  </use>
                  <path fill="none" stroke="white" stroke-width="1.5" d="M0,-3.0v7 M-2.5,-0.5L0,-3.0L2.5,-0.5"/>
                </g>
                <g id="arrowLeft" xlink:href="#dirArrow" transform="rotate(270) translate(-36 17)" onmousedown="handlePan(-1,0)">
                  <use xlink:href="#rim" fill="#404040">
                        <set attributeName="fill" to="#808080" begin="arrowLeft.mouseover" end="arrowLeft.mouseout"/>
                  </use>
                  <path fill="none" stroke="white" stroke-width="1.5" d="M0,-3.0v7 M-2.5,-0.5L0,-3.0L2.5,-0.5"/>
                </g>
        </g>
        <svg viewBox="0 0 15 15" width="100%" height="30px" preserveAspectRatio="xMaxYMin meet">
         <g id="arrow_out" transform="scale(0.3 0.3)">
          <a xlink:href="ObjectBuilder_8hpp__incl_org.svg" target="_base">
           <rect id="button" ry="5" rx="5" y="6" x="6" height="38" width="38"
                fill="#f2f5e9" fill-opacity="0.5" stroke="#606060" stroke-width="1.0"/>
           <path id="arrow"
             d="M 11.500037,31.436501 C 11.940474,20.09759 22.043105,11.32322 32.158766,21.979434 L 37.068811,17.246167 C 37.068811,17.246167 37.088388,32 37.088388,32 L 22.160133,31.978069 C 22.160133,31.978069 26.997745,27.140456 26.997745,27.140456 C 18.528582,18.264221 13.291696,25.230495 11.500037,31.436501 z"
             style="fill:#404040;"/>
          </a>
         </g>
        </svg>
</svg>
