<?xml version="1.0" encoding="UTF-8" standalone="no"?>
<!DOCTYPE svg PUBLIC "-//W3C//DTD SVG 1.1//EN"
 "http://www.w3.org/Graphics/SVG/1.1/DTD/svg11.dtd">
<!-- Generated by graphviz version 2.44.0 ()
 -->
<!-- Title: includes/platformer&#45;engine/Builder/ObjectBuilder.hpp Pages: 1 -->
<!--zoomable 431 -->
<svg id="main" version="1.1" xmlns="http://www.w3.org/2000/svg" xmlns:xlink="http://www.w3.org/1999/xlink" xml:space="preserve" onload="init(evt)">
<style type="text/css"><![CDATA[
.edge:hover path { stroke: red; }
.edge:hover polygon { stroke: red; fill: red; }
]]></style>
<script type="text/javascript"><![CDATA[
var edges = document.getElementsByTagName('g');
if (edges && edges.length) {
  for (var i=0;i<edges.length;i++) {
    if (edges[i].id.substr(0,4)=='edge') {
      edges[i].setAttribute('class','edge');
    }
  }
}
]]></script>
        <defs>
                <circle id="rim" cx="0" cy="0" r="7"/>
                <circle id="rim2" cx="0" cy="0" r="3.5"/>
                <g id="zoomPlus">
                        <use xlink:href="#rim" fill="#404040">
                                <set attributeName="fill" to="#808080" begin="zoomplus.mouseover" end="zoomplus.mouseout"/>
                        </use>
                        <path d="M-4,0h8M0,-4v8" fill="none" stroke="white" stroke-width="1.5" pointer-events="none"/>
                </g>
                <g id="zoomMin">
                        <use xlink:href="#rim" fill="#404040">
                                <set attributeName="fill" to="#808080" begin="zoomminus.mouseover" end="zoomminus.mouseout"/>
                        </use>
                        <path d="M-4,0h8" fill="none" stroke="white" stroke-width="1.5" pointer-events="none"/>
                </g>
                <g id="dirArrow">
                        <path fill="none" stroke="white" stroke-width="1.5" d="M0,-3.0v7 M-2.5,-0.5L0,-3.0L2.5,-0.5"/>
                </g>
               <g id="resetDef">
                       <use xlink:href="#rim2" fill="#404040">
                               <set attributeName="fill" to="#808080" begin="reset.mouseover" end="reset.mouseout"/>
                       </use>
               </g>
        </defs>

<script type="text/javascript">
var viewWidth = 1408;
var viewHeight = 431;
var sectionId = 'dynsection-0';
</script>
<script xlink:href="svgpan.js"/>
<svg id="graph" class="graph">
<g id="viewport">
<title>includes/platformer&#45;engine/Builder/ObjectBuilder.hpp</title>
<!-- Node1 -->
<g id="node1" class="node">
<title>Node1</title>
<g id="a_node1"><a xlink:title=" ">
<polygon fill="#bfbfbf" stroke="black" points="1166,-392.5 1166,-422.5 1327,-422.5 1327,-392.5 1166,-392.5"/>
<text text-anchor="start" x="1174" y="-410.5" font-family="Helvetica,sans-Serif" font-size="10.00">includes/platformer</text>
<text text-anchor="middle" x="1246.5" y="-399.5" font-family="Helvetica,sans-Serif" font-size="10.00">&#45;engine/Builder/ObjectBuilder.hpp</text>
</a>
</g>
</g>
<!-- Node2 -->
<g id="node2" class="node">
<title>Node2</title>
<g id="a_node2"><a xlink:href="AnimatedSprite_8hpp.html" target="_top" xlink:title=" ">
<polygon fill="none" stroke="black" points="1178,-336.5 1178,-355.5 1315,-355.5 1315,-336.5 1178,-336.5"/>
<text text-anchor="middle" x="1246.5" y="-343.5" font-family="Helvetica,sans-Serif" font-size="10.00">Texture/AnimatedSprite.hpp</text>
</a>
</g>
</g>
<!-- Node1&#45;&gt;Node2 -->
<g id="edge1" class="edge">
<title>Node1&#45;&gt;Node2</title>
<path fill="none" stroke="midnightblue" d="M1246.5,-392.4C1246.5,-384.47 1246.5,-374.46 1246.5,-365.86"/>
<polygon fill="midnightblue" stroke="midnightblue" points="1250,-365.66 1246.5,-355.66 1243,-365.66 1250,-365.66"/>
</g>
<!-- Node3 -->
<g id="node3" class="node">
<title>Node3</title>
<g id="a_node3"><a xlink:href="Sprite_8hpp.html" target="_top" xlink:title=" ">
<polygon fill="none" stroke="black" points="616.5,-224.5 616.5,-243.5 676.5,-243.5 676.5,-224.5 616.5,-224.5"/>
<text text-anchor="middle" x="646.5" y="-231.5" font-family="Helvetica,sans-Serif" font-size="10.00">Sprite.hpp</text>
</a>
</g>
</g>
<!-- Node2&#45;&gt;Node3 -->
<g id="edge2" class="edge">
<title>Node2&#45;&gt;Node3</title>
<path fill="none" stroke="midnightblue" d="M1199.92,-336.46C1085.87,-315.55 794.15,-262.07 686.87,-242.4"/>
<polygon fill="midnightblue" stroke="midnightblue" points="687.25,-238.91 676.78,-240.55 685.99,-245.8 687.25,-238.91"/>
</g>
<!-- Node16 -->
<g id="node16" class="node">
<title>Node16</title>
<g id="a_node16"><a xlink:href="Transform_8hpp.html" target="_top" xlink:title=" ">
<polygon fill="none" stroke="black" points="1150,-56.5 1150,-75.5 1229,-75.5 1229,-56.5 1150,-56.5"/>
<text text-anchor="middle" x="1189.5" y="-63.5" font-family="Helvetica,sans-Serif" font-size="10.00">Transform.hpp</text>
</a>
</g>
</g>
<!-- Node2&#45;&gt;Node16 -->
<g id="edge51" class="edge">
<title>Node2&#45;&gt;Node16</title>
<path fill="none" stroke="midnightblue" d="M1246.5,-336.44C1246.5,-317.94 1246.5,-272.81 1246.5,-235 1246.5,-235 1246.5,-235 1246.5,-177 1246.5,-140.3 1221.18,-103.66 1204.29,-83.3"/>
<polygon fill="midnightblue" stroke="midnightblue" points="1206.85,-80.9 1197.67,-75.62 1201.55,-85.48 1206.85,-80.9"/>
</g>
<!-- Node17 -->
<g id="node17" class="node">
<title>Node17</title>
<g id="a_node17"><a xlink:href="Point_8hpp.html" target="_top" xlink:title=" ">
<polygon fill="none" stroke="black" points="1161,-0.5 1161,-19.5 1218,-19.5 1218,-0.5 1161,-0.5"/>
<text text-anchor="middle" x="1189.5" y="-7.5" font-family="Helvetica,sans-Serif" font-size="10.00">Point.hpp</text>
</a>
</g>
</g>
<!-- Node2&#45;&gt;Node17 -->
<g id="edge24" class="edge">
<title>Node2&#45;&gt;Node17</title>
<path fill="none" stroke="midnightblue" d="M1251.78,-336.23C1262.23,-318.04 1284.5,-274.6 1284.5,-235 1284.5,-235 1284.5,-235 1284.5,-121 1284.5,-77.74 1241.89,-43.09 1213.75,-24.91"/>
<polygon fill="midnightblue" stroke="midnightblue" points="1215.53,-21.9 1205.19,-19.6 1211.84,-27.85 1215.53,-21.9"/>
</g>
<!-- Node20 -->
<g id="node20" class="node">
<title>Node20</title>
<g id="a_node20"><a xlink:href="Timer_8hpp.html" target="_top" xlink:title=" ">
<polygon fill="none" stroke="black" points="1313,-280.5 1313,-299.5 1400,-299.5 1400,-280.5 1313,-280.5"/>
<text text-anchor="middle" x="1356.5" y="-287.5" font-family="Helvetica,sans-Serif" font-size="10.00">Timer/Timer.hpp</text>
</a>
</g>
</g>
<!-- Node2&#45;&gt;Node20 -->
<g id="edge25" class="edge">
<title>Node2&#45;&gt;Node20</title>
<path fill="none" stroke="midnightblue" d="M1264.17,-336.32C1281.89,-327.62 1309.4,-314.12 1329.79,-304.11"/>
<polygon fill="midnightblue" stroke="midnightblue" points="1331.44,-307.2 1338.87,-299.65 1328.35,-300.92 1331.44,-307.2"/>
</g>
<!-- Node22 -->
<g id="node22" class="node">
<title>Node22</title>
<g id="a_node22"><a xlink:href="Window_8hpp.html" target="_top" xlink:title=" ">
<polygon fill="none" stroke="black" points="537,-280.5 537,-299.5 640,-299.5 640,-280.5 537,-280.5"/>
<text text-anchor="middle" x="588.5" y="-287.5" font-family="Helvetica,sans-Serif" font-size="10.00">Render/Window.hpp</text>
</a>
</g>
</g>
<!-- Node2&#45;&gt;Node22 -->
<g id="edge27" class="edge">
<title>Node2&#45;&gt;Node22</title>
<path fill="none" stroke="midnightblue" d="M1177.94,-339.37C1049.24,-328.81 773.34,-306.17 650.13,-296.06"/>
<polygon fill="midnightblue" stroke="midnightblue" points="650.36,-292.57 640.11,-295.24 649.79,-299.54 650.36,-292.57"/>
</g>
<!-- Node4 -->
<g id="node4" class="node">
<title>Node4</title>
<g id="a_node4"><a xlink:href="Component_8hpp.html" target="_top" xlink:title=" ">
<polygon fill="none" stroke="black" points="1045.5,-56.5 1045.5,-75.5 1129.5,-75.5 1129.5,-56.5 1045.5,-56.5"/>
<text text-anchor="middle" x="1087.5" y="-63.5" font-family="Helvetica,sans-Serif" font-size="10.00">Component.hpp</text>
</a>
</g>
</g>
<!-- Node3&#45;&gt;Node4 -->
<g id="edge3" class="edge">
<title>Node3&#45;&gt;Node4</title>
<path fill="none" stroke="midnightblue" d="M676.57,-233.08C764.54,-232.84 1019.65,-228.56 1090.5,-188 1123.81,-168.93 1145.99,-147.54 1131.5,-112 1126.7,-100.23 1117.17,-89.86 1108.21,-82.05"/>
<polygon fill="midnightblue" stroke="midnightblue" points="1110.25,-79.2 1100.28,-75.63 1105.85,-84.64 1110.25,-79.2"/>
</g>
<!-- Node6 -->
<g id="node6" class="node">
<title>Node6</title>
<g id="a_node6"><a xlink:href="Color_8hpp.html" target="_top" xlink:title=" ">
<polygon fill="none" stroke="black" points="593,-56.5 593,-75.5 650,-75.5 650,-56.5 593,-56.5"/>
<text text-anchor="middle" x="621.5" y="-63.5" font-family="Helvetica,sans-Serif" font-size="10.00">Color.hpp</text>
</a>
</g>
</g>
<!-- Node3&#45;&gt;Node6 -->
<g id="edge5" class="edge">
<title>Node3&#45;&gt;Node6</title>
<path fill="none" stroke="midnightblue" d="M645.16,-224.08C641.22,-197.95 629.66,-121.21 624.3,-85.58"/>
<polygon fill="midnightblue" stroke="midnightblue" points="627.74,-84.94 622.79,-75.57 620.82,-85.98 627.74,-84.94"/>
</g>
<!-- Node7 -->
<g id="node7" class="node">
<title>Node7</title>
<g id="a_node7"><a xlink:title=" ">
<polygon fill="none" stroke="#bfbfbf" points="529,-56.5 529,-75.5 570,-75.5 570,-56.5 529,-56.5"/>
<text text-anchor="middle" x="549.5" y="-63.5" font-family="Helvetica,sans-Serif" font-size="10.00">string</text>
</a>
</g>
</g>
<!-- Node3&#45;&gt;Node7 -->
<g id="edge6" class="edge">
<title>Node3&#45;&gt;Node7</title>
<path fill="none" stroke="midnightblue" d="M641.28,-224.08C625.82,-197.61 580.01,-119.21 559.56,-84.21"/>
<polygon fill="midnightblue" stroke="midnightblue" points="562.57,-82.44 554.51,-75.57 556.53,-85.97 562.57,-82.44"/>
</g>
<!-- Node8 -->
<g id="node8" class="node">
<title>Node8</title>
<g id="a_node8"><a xlink:href="GraphicsFacade_8hpp.html" target="_top" xlink:title=" ">
<polygon fill="none" stroke="black" points="246,-112.5 246,-131.5 387,-131.5 387,-112.5 246,-112.5"/>
<text text-anchor="middle" x="316.5" y="-119.5" font-family="Helvetica,sans-Serif" font-size="10.00">Facade/GraphicsFacade.hpp</text>
</a>
</g>
</g>
<!-- Node3&#45;&gt;Node8 -->
<g id="edge7" class="edge">
<title>Node3&#45;&gt;Node8</title>
<path fill="none" stroke="midnightblue" d="M616.27,-230.59C554.23,-225.24 414.86,-210.98 373.5,-188 353.29,-176.77 336.77,-155.52 326.81,-140.38"/>
<polygon fill="midnightblue" stroke="midnightblue" points="329.76,-138.5 321.48,-131.88 323.83,-142.21 329.76,-138.5"/>
</g>
<!-- Node3&#45;&gt;Node16 -->
<g id="edge18" class="edge">
<title>Node3&#45;&gt;Node16</title>
<path fill="none" stroke="midnightblue" d="M676.83,-231.72C775.36,-227.34 1082.27,-211.89 1119.5,-188 1156.66,-164.15 1176.36,-113.09 1184.64,-85.54"/>
<polygon fill="midnightblue" stroke="midnightblue" points="1188.09,-86.19 1187.43,-75.62 1181.36,-84.3 1188.09,-86.19"/>
</g>
<!-- Node18 -->
<g id="node18" class="node">
<title>Node18</title>
<g id="a_node18"><a xlink:href="TextureManager_8hpp.html" target="_top" xlink:title=" ">
<polygon fill="none" stroke="black" points="382.5,-168.5 382.5,-187.5 522.5,-187.5 522.5,-168.5 382.5,-168.5"/>
<text text-anchor="middle" x="452.5" y="-175.5" font-family="Helvetica,sans-Serif" font-size="10.00">Texture/TextureManager.hpp</text>
</a>
</g>
</g>
<!-- Node3&#45;&gt;Node18 -->
<g id="edge20" class="edge">
<title>Node3&#45;&gt;Node18</title>
<path fill="none" stroke="midnightblue" d="M616.19,-224.56C583.07,-215.34 529.85,-200.53 493.13,-190.31"/>
<polygon fill="midnightblue" stroke="midnightblue" points="493.81,-186.87 483.24,-187.56 491.94,-193.61 493.81,-186.87"/>
</g>
<!-- Node5 -->
<g id="node5" class="node">
<title>Node5</title>
<g id="a_node5"><a xlink:title=" ">
<polygon fill="none" stroke="#bfbfbf" points="992,-0.5 992,-19.5 1043,-19.5 1043,-0.5 992,-0.5"/>
<text text-anchor="middle" x="1017.5" y="-7.5" font-family="Helvetica,sans-Serif" font-size="10.00">memory</text>
</a>
</g>
</g>
<!-- Node4&#45;&gt;Node5 -->
<g id="edge4" class="edge">
<title>Node4&#45;&gt;Node5</title>
<path fill="none" stroke="midnightblue" d="M1076.25,-56.32C1065.7,-48.18 1049.7,-35.84 1037.06,-26.09"/>
<polygon fill="midnightblue" stroke="midnightblue" points="1039.01,-23.17 1028.95,-19.83 1034.73,-28.71 1039.01,-23.17"/>
</g>
<!-- Node8&#45;&gt;Node5 -->
<g id="edge13" class="edge">
<title>Node8&#45;&gt;Node5</title>
<path fill="none" stroke="midnightblue" d="M356.34,-112.5C390.01,-104.74 439.22,-92.05 480.5,-76 498.66,-68.94 500.79,-61.42 519.5,-56 606.49,-30.8 882.49,-16.79 981.62,-12.46"/>
<polygon fill="midnightblue" stroke="midnightblue" points="981.89,-15.95 991.73,-12.03 981.59,-8.96 981.89,-15.95"/>
</g>
<!-- Node8&#45;&gt;Node6 -->
<g id="edge11" class="edge">
<title>Node8&#45;&gt;Node6</title>
<path fill="none" stroke="midnightblue" d="M369.79,-112.43C422.8,-103.76 506.41,-89.73 578.5,-76 579.95,-75.72 581.43,-75.44 582.92,-75.14"/>
<polygon fill="midnightblue" stroke="midnightblue" points="583.73,-78.55 592.85,-73.15 582.35,-71.69 583.73,-78.55"/>
</g>
<!-- Node8&#45;&gt;Node7 -->
<g id="edge15" class="edge">
<title>Node8&#45;&gt;Node7</title>
<path fill="none" stroke="midnightblue" d="M355.65,-112.44C395.64,-103.62 459.51,-89.32 514.5,-76 515.95,-75.65 517.43,-75.29 518.92,-74.92"/>
<polygon fill="midnightblue" stroke="midnightblue" points="519.96,-78.27 528.8,-72.43 518.24,-71.48 519.96,-78.27"/>
</g>
<!-- Node9 -->
<g id="node9" class="node">
<title>Node9</title>
<g id="a_node9"><a xlink:title=" ">
<polygon fill="none" stroke="#bfbfbf" points="0,-56.5 0,-75.5 71,-75.5 71,-56.5 0,-56.5"/>
<text text-anchor="middle" x="35.5" y="-63.5" font-family="Helvetica,sans-Serif" font-size="10.00">SDL2/SDL.h</text>
</a>
</g>
</g>
<!-- Node8&#45;&gt;Node9 -->
<g id="edge8" class="edge">
<title>Node8&#45;&gt;Node9</title>
<path fill="none" stroke="midnightblue" d="M270.59,-112.48C224.96,-103.97 152.71,-90.38 81.13,-76.3"/>
<polygon fill="midnightblue" stroke="midnightblue" points="81.52,-72.81 71.03,-74.31 80.17,-79.68 81.52,-72.81"/>
</g>
<!-- Node10 -->
<g id="node10" class="node">
<title>Node10</title>
<g id="a_node10"><a xlink:title=" ">
<polygon fill="none" stroke="#bfbfbf" points="89,-56.5 89,-75.5 192,-75.5 192,-56.5 89,-56.5"/>
<text text-anchor="middle" x="140.5" y="-63.5" font-family="Helvetica,sans-Serif" font-size="10.00">SDL2/SDL_image.h</text>
</a>
</g>
</g>
<!-- Node8&#45;&gt;Node10 -->
<g id="edge9" class="edge">
<title>Node8&#45;&gt;Node10</title>
<path fill="none" stroke="midnightblue" d="M288.61,-112.44C258.75,-103.28 211.19,-88.69 178.04,-78.52"/>
<polygon fill="midnightblue" stroke="midnightblue" points="178.84,-75.1 168.26,-75.52 176.79,-81.8 178.84,-75.1"/>
</g>
<!-- Node11 -->
<g id="node11" class="node">
<title>Node11</title>
<g id="a_node11"><a xlink:title=" ">
<polygon fill="none" stroke="#bfbfbf" points="210.5,-56.5 210.5,-75.5 264.5,-75.5 264.5,-56.5 210.5,-56.5"/>
<text text-anchor="middle" x="237.5" y="-63.5" font-family="Helvetica,sans-Serif" font-size="10.00">iostream</text>
</a>
</g>
</g>
<!-- Node8&#45;&gt;Node11 -->
<g id="edge10" class="edge">
<title>Node8&#45;&gt;Node11</title>
<path fill="none" stroke="midnightblue" d="M303.81,-112.32C291.6,-103.98 272.92,-91.21 258.5,-81.35"/>
<polygon fill="midnightblue" stroke="midnightblue" points="260.39,-78.41 250.16,-75.65 256.44,-84.19 260.39,-78.41"/>
</g>
<!-- Node12 -->
<g id="node12" class="node">
<title>Node12</title>
<g id="a_node12"><a xlink:href="NumberUtil_8hpp.html" target="_top" xlink:title=" ">
<polygon fill="none" stroke="black" points="282.5,-56.5 282.5,-75.5 394.5,-75.5 394.5,-56.5 282.5,-56.5"/>
<text text-anchor="middle" x="338.5" y="-63.5" font-family="Helvetica,sans-Serif" font-size="10.00">Utility/NumberUtil.hpp</text>
</a>
</g>
</g>
<!-- Node8&#45;&gt;Node12 -->
<g id="edge12" class="edge">
<title>Node8&#45;&gt;Node12</title>
<path fill="none" stroke="midnightblue" d="M320.13,-112.08C323.11,-104.77 327.43,-94.18 331.12,-85.1"/>
<polygon fill="midnightblue" stroke="midnightblue" points="334.4,-86.33 334.93,-75.75 327.92,-83.69 334.4,-86.33"/>
</g>
<!-- Node13 -->
<g id="node13" class="node">
<title>Node13</title>
<g id="a_node13"><a xlink:title=" ">
<polygon fill="none" stroke="#bfbfbf" points="413,-56.5 413,-75.5 472,-75.5 472,-56.5 413,-56.5"/>
<text text-anchor="middle" x="442.5" y="-63.5" font-family="Helvetica,sans-Serif" font-size="10.00">functional</text>
</a>
</g>
</g>
<!-- Node8&#45;&gt;Node13 -->
<g id="edge14" class="edge">
<title>Node8&#45;&gt;Node13</title>
<path fill="none" stroke="midnightblue" d="M336.47,-112.44C357.11,-103.6 389.56,-89.69 413.13,-79.59"/>
<polygon fill="midnightblue" stroke="midnightblue" points="414.82,-82.67 422.63,-75.52 412.06,-76.24 414.82,-82.67"/>
</g>
<!-- Node14 -->
<g id="node14" class="node">
<title>Node14</title>
<g id="a_node14"><a xlink:title=" ">
<polygon fill="none" stroke="#bfbfbf" points="833.5,-56.5 833.5,-75.5 877.5,-75.5 877.5,-56.5 833.5,-56.5"/>
<text text-anchor="middle" x="855.5" y="-63.5" font-family="Helvetica,sans-Serif" font-size="10.00">vector</text>
</a>
</g>
</g>
<!-- Node8&#45;&gt;Node14 -->
<g id="edge16" class="edge">
<title>Node8&#45;&gt;Node14</title>
<path fill="none" stroke="midnightblue" d="M387.24,-113.91C505.29,-102.09 737.9,-78.78 823.18,-70.24"/>
<polygon fill="midnightblue" stroke="midnightblue" points="823.69,-73.7 833.29,-69.22 822.99,-66.74 823.69,-73.7"/>
</g>
<!-- Node15 -->
<g id="node15" class="node">
<title>Node15</title>
<g id="a_node15"><a xlink:title=" ">
<polygon fill="none" stroke="#bfbfbf" points="950,-56.5 950,-75.5 985,-75.5 985,-56.5 950,-56.5"/>
<text text-anchor="middle" x="967.5" y="-63.5" font-family="Helvetica,sans-Serif" font-size="10.00">map</text>
</a>
</g>
</g>
<!-- Node8&#45;&gt;Node15 -->
<g id="edge17" class="edge">
<title>Node8&#45;&gt;Node15</title>
<path fill="none" stroke="midnightblue" d="M387.21,-116.15C495.01,-108.58 706.89,-93.06 886.5,-76 904.24,-74.31 924.13,-72.11 939.76,-70.3"/>
<polygon fill="midnightblue" stroke="midnightblue" points="940.29,-73.77 949.82,-69.13 939.48,-66.81 940.29,-73.77"/>
</g>
<!-- Node16&#45;&gt;Node17 -->
<g id="edge19" class="edge">
<title>Node16&#45;&gt;Node17</title>
<path fill="none" stroke="midnightblue" d="M1189.5,-56.08C1189.5,-49.01 1189.5,-38.86 1189.5,-29.99"/>
<polygon fill="midnightblue" stroke="midnightblue" points="1193,-29.75 1189.5,-19.75 1186,-29.75 1193,-29.75"/>
</g>
<!-- Node18&#45;&gt;Node7 -->
<g id="edge21" class="edge">
<title>Node18&#45;&gt;Node7</title>
<path fill="none" stroke="midnightblue" d="M453.2,-168.07C454.67,-154.59 459.15,-128.84 472.5,-112 484.61,-96.73 503.42,-85.59 519.42,-78.22"/>
<polygon fill="midnightblue" stroke="midnightblue" points="521.15,-81.29 528.94,-74.11 518.37,-74.86 521.15,-81.29"/>
</g>
<!-- Node18&#45;&gt;Node8 -->
<g id="edge23" class="edge">
<title>Node18&#45;&gt;Node8</title>
<path fill="none" stroke="midnightblue" d="M430.95,-168.44C408.47,-159.52 373.01,-145.44 347.52,-135.32"/>
<polygon fill="midnightblue" stroke="midnightblue" points="348.53,-131.95 337.95,-131.52 345.95,-138.46 348.53,-131.95"/>
</g>
<!-- Node19 -->
<g id="node19" class="node">
<title>Node19</title>
<g id="a_node19"><a xlink:title=" ">
<polygon fill="none" stroke="#bfbfbf" points="482,-112.5 482,-131.5 521,-131.5 521,-112.5 482,-112.5"/>
<text text-anchor="middle" x="501.5" y="-119.5" font-family="Helvetica,sans-Serif" font-size="10.00">utility</text>
</a>
</g>
</g>
<!-- Node18&#45;&gt;Node19 -->
<g id="edge22" class="edge">
<title>Node18&#45;&gt;Node19</title>
<path fill="none" stroke="midnightblue" d="M460.59,-168.08C467.66,-160.3 478.09,-148.8 486.65,-139.37"/>
<polygon fill="midnightblue" stroke="midnightblue" points="489.43,-141.51 493.56,-131.75 484.25,-136.8 489.43,-141.51"/>
</g>
<!-- Node21 -->
<g id="node21" class="node">
<title>Node21</title>
<g id="a_node21"><a xlink:title=" ">
<polygon fill="none" stroke="#bfbfbf" points="1333.5,-224.5 1333.5,-243.5 1379.5,-243.5 1379.5,-224.5 1333.5,-224.5"/>
<text text-anchor="middle" x="1356.5" y="-231.5" font-family="Helvetica,sans-Serif" font-size="10.00">cstdint</text>
</a>
</g>
</g>
<!-- Node20&#45;&gt;Node21 -->
<g id="edge26" class="edge">
<title>Node20&#45;&gt;Node21</title>
<path fill="none" stroke="midnightblue" d="M1356.5,-280.08C1356.5,-273.01 1356.5,-262.86 1356.5,-253.99"/>
<polygon fill="midnightblue" stroke="midnightblue" points="1360,-253.75 1356.5,-243.75 1353,-253.75 1360,-253.75"/>
</g>
<!-- Node22&#45;&gt;Node6 -->
<g id="edge29" class="edge">
<title>Node22&#45;&gt;Node6</title>
<path fill="none" stroke="midnightblue" d="M589.79,-280.3C594.65,-247.63 611.86,-131.87 618.68,-85.96"/>
<polygon fill="midnightblue" stroke="midnightblue" points="622.17,-86.29 620.18,-75.88 615.25,-85.26 622.17,-86.29"/>
</g>
<!-- Node22&#45;&gt;Node7 -->
<g id="edge28" class="edge">
<title>Node22&#45;&gt;Node7</title>
<path fill="none" stroke="midnightblue" d="M536.83,-280.86C485.43,-269.7 409.21,-244.22 373.5,-188 368.73,-180.5 369.28,-175.83 373.5,-168 388.9,-139.41 473.42,-99.61 519.5,-79.58"/>
<polygon fill="midnightblue" stroke="midnightblue" points="520.91,-82.78 528.71,-75.61 518.14,-76.35 520.91,-82.78"/>
</g>
<!-- Node22&#45;&gt;Node8 -->
<g id="edge30" class="edge">
<title>Node22&#45;&gt;Node8</title>
<path fill="none" stroke="midnightblue" d="M536.82,-286.32C472.46,-281.89 367.64,-270.7 340.5,-244 313.1,-217.05 312.32,-168.43 314.31,-141.76"/>
<polygon fill="midnightblue" stroke="midnightblue" points="317.82,-141.79 315.29,-131.5 310.85,-141.12 317.82,-141.79"/>
</g>
<!-- Node22&#45;&gt;Node18 -->
<g id="edge31" class="edge">
<title>Node22&#45;&gt;Node18</title>
<path fill="none" stroke="midnightblue" d="M577.83,-280.37C554.79,-261.73 500.14,-217.53 471.21,-194.13"/>
<polygon fill="midnightblue" stroke="midnightblue" points="473.1,-191.16 463.12,-187.59 468.7,-196.6 473.1,-191.16"/>
</g>
<!-- Node23 -->
<g id="node23" class="node">
<title>Node23</title>
<g id="a_node23"><a xlink:href="InputFacade_8hpp.html" target="_top" xlink:title=" ">
<polygon fill="none" stroke="black" points="755.5,-168.5 755.5,-187.5 879.5,-187.5 879.5,-168.5 755.5,-168.5"/>
<text text-anchor="middle" x="817.5" y="-175.5" font-family="Helvetica,sans-Serif" font-size="10.00">Facade/InputFacade.hpp</text>
</a>
</g>
</g>
<!-- Node22&#45;&gt;Node23 -->
<g id="edge32" class="edge">
<title>Node22&#45;&gt;Node23</title>
<path fill="none" stroke="midnightblue" d="M607.52,-280.33C627.12,-271.37 658.53,-256.89 685.5,-244 722.45,-226.34 764.88,-205.31 791.45,-192.05"/>
<polygon fill="midnightblue" stroke="midnightblue" points="793.09,-195.14 800.47,-187.54 789.96,-188.88 793.09,-195.14"/>
</g>
<!-- Node27 -->
<g id="node27" class="node">
<title>Node27</title>
<g id="a_node27"><a xlink:href="Scene_8hpp.html" target="_top" xlink:title=" ">
<polygon fill="none" stroke="black" points="1016.5,-224.5 1016.5,-243.5 1078.5,-243.5 1078.5,-224.5 1016.5,-224.5"/>
<text text-anchor="middle" x="1047.5" y="-231.5" font-family="Helvetica,sans-Serif" font-size="10.00">Scene.hpp</text>
</a>
</g>
</g>
<!-- Node22&#45;&gt;Node27 -->
<g id="edge40" class="edge">
<title>Node22&#45;&gt;Node27</title>
<path fill="none" stroke="midnightblue" d="M640.26,-282.91C732.22,-272.09 922.28,-249.73 1006.16,-239.86"/>
<polygon fill="midnightblue" stroke="midnightblue" points="1006.81,-243.31 1016.33,-238.67 1005.99,-236.36 1006.81,-243.31"/>
</g>
<!-- Node23&#45;&gt;Node14 -->
<g id="edge33" class="edge">
<title>Node23&#45;&gt;Node14</title>
<path fill="none" stroke="midnightblue" d="M821.44,-168.49C825.51,-159.53 831.89,-144.94 836.5,-132 842.04,-116.42 847.23,-98.35 850.78,-85.22"/>
<polygon fill="midnightblue" stroke="midnightblue" points="854.17,-86.08 853.35,-75.51 847.4,-84.29 854.17,-86.08"/>
</g>
<!-- Node23&#45;&gt;Node15 -->
<g id="edge34" class="edge">
<title>Node23&#45;&gt;Node15</title>
<path fill="none" stroke="midnightblue" d="M878.9,-168.46C903.48,-162.13 930.24,-151.13 948.5,-132 960.29,-119.65 964.81,-100.4 966.53,-86.05"/>
<polygon fill="midnightblue" stroke="midnightblue" points="970.04,-86.08 967.38,-75.82 963.06,-85.49 970.04,-86.08"/>
</g>
<!-- Node24 -->
<g id="node24" class="node">
<title>Node24</title>
<g id="a_node24"><a xlink:title=" ">
<polygon fill="none" stroke="#bfbfbf" points="653.5,-112.5 653.5,-131.5 697.5,-131.5 697.5,-112.5 653.5,-112.5"/>
<text text-anchor="middle" x="675.5" y="-119.5" font-family="Helvetica,sans-Serif" font-size="10.00">SDL.h</text>
</a>
</g>
</g>
<!-- Node23&#45;&gt;Node24 -->
<g id="edge35" class="edge">
<title>Node23&#45;&gt;Node24</title>
<path fill="none" stroke="midnightblue" d="M795,-168.44C771.42,-159.48 734.18,-145.31 707.54,-135.18"/>
<polygon fill="midnightblue" stroke="midnightblue" points="708.49,-131.8 697.9,-131.52 706,-138.34 708.49,-131.8"/>
</g>
<!-- Node25 -->
<g id="node25" class="node">
<title>Node25</title>
<g id="a_node25"><a xlink:title=" ">
<polygon fill="none" stroke="#bfbfbf" points="715.5,-112.5 715.5,-131.5 827.5,-131.5 827.5,-112.5 715.5,-112.5"/>
<text text-anchor="middle" x="771.5" y="-119.5" font-family="Helvetica,sans-Serif" font-size="10.00">Events/EventsEnum.h</text>
</a>
</g>
</g>
<!-- Node23&#45;&gt;Node25 -->
<g id="edge36" class="edge">
<title>Node23&#45;&gt;Node25</title>
<path fill="none" stroke="midnightblue" d="M809.9,-168.08C803.27,-160.3 793.48,-148.8 785.44,-139.37"/>
<polygon fill="midnightblue" stroke="midnightblue" points="788.1,-137.09 778.95,-131.75 782.77,-141.63 788.1,-137.09"/>
</g>
<!-- Node26 -->
<g id="node26" class="node">
<title>Node26</title>
<g id="a_node26"><a xlink:href="Input_8hpp.html" target="_top" xlink:title=" ">
<polygon fill="none" stroke="black" points="883.5,-112.5 883.5,-131.5 939.5,-131.5 939.5,-112.5 883.5,-112.5"/>
<text text-anchor="middle" x="911.5" y="-119.5" font-family="Helvetica,sans-Serif" font-size="10.00">Input.hpp</text>
</a>
</g>
</g>
<!-- Node23&#45;&gt;Node26 -->
<g id="edge37" class="edge">
<title>Node23&#45;&gt;Node26</title>
<path fill="none" stroke="midnightblue" d="M832.6,-168.32C847.4,-159.82 870.19,-146.73 887.48,-136.8"/>
<polygon fill="midnightblue" stroke="midnightblue" points="889.51,-139.67 896.43,-131.65 886.02,-133.6 889.51,-139.67"/>
</g>
<!-- Node26&#45;&gt;Node7 -->
<g id="edge39" class="edge">
<title>Node26&#45;&gt;Node7</title>
<path fill="none" stroke="midnightblue" d="M883.26,-117.58C814.71,-109.2 640.92,-87.49 583.5,-76 582.42,-75.78 581.33,-75.55 580.22,-75.31"/>
<polygon fill="midnightblue" stroke="midnightblue" points="580.8,-71.85 570.26,-72.93 579.17,-78.66 580.8,-71.85"/>
</g>
<!-- Node26&#45;&gt;Node17 -->
<g id="edge38" class="edge">
<title>Node26&#45;&gt;Node17</title>
<path fill="none" stroke="midnightblue" d="M912.76,-112.26C915.3,-98.07 922.41,-70.18 940.5,-56 972.61,-30.82 1089.22,-18.49 1150.8,-13.62"/>
<polygon fill="midnightblue" stroke="midnightblue" points="1151.2,-17.1 1160.9,-12.85 1150.67,-10.12 1151.2,-17.1"/>
</g>
<!-- Node28 -->
<g id="node28" class="node">
<title>Node28</title>
<g id="a_node28"><a xlink:href="GameObject_8hpp.html" target="_top" xlink:title=" ">
<polygon fill="none" stroke="black" points="1034,-112.5 1034,-131.5 1123,-131.5 1123,-112.5 1034,-112.5"/>
<text text-anchor="middle" x="1078.5" y="-119.5" font-family="Helvetica,sans-Serif" font-size="10.00">GameObject.hpp</text>
</a>
</g>
</g>
<!-- Node27&#45;&gt;Node28 -->
<g id="edge41" class="edge">
<title>Node27&#45;&gt;Node28</title>
<path fill="none" stroke="midnightblue" d="M1060,-224.3C1070.37,-216.25 1084.39,-203.24 1090.5,-188 1096.57,-172.87 1092.21,-154.52 1087.12,-141.18"/>
<polygon fill="midnightblue" stroke="midnightblue" points="1090.23,-139.54 1083.08,-131.72 1083.79,-142.29 1090.23,-139.54"/>
</g>
<!-- Node29 -->
<g id="node29" class="node">
<title>Node29</title>
<g id="a_node29"><a xlink:href="Camera_8hpp.html" target="_top" xlink:title=" ">
<polygon fill="none" stroke="black" points="1013.5,-168.5 1013.5,-187.5 1081.5,-187.5 1081.5,-168.5 1013.5,-168.5"/>
<text text-anchor="middle" x="1047.5" y="-175.5" font-family="Helvetica,sans-Serif" font-size="10.00">Camera.hpp</text>
</a>
</g>
</g>
<!-- Node27&#45;&gt;Node29 -->
<g id="edge48" class="edge">
<title>Node27&#45;&gt;Node29</title>
<path fill="none" stroke="midnightblue" d="M1047.5,-224.08C1047.5,-217.01 1047.5,-206.86 1047.5,-197.99"/>
<polygon fill="midnightblue" stroke="midnightblue" points="1051,-197.75 1047.5,-187.75 1044,-197.75 1051,-197.75"/>
</g>
<!-- Node28&#45;&gt;Node4 -->
<g id="edge42" class="edge">
<title>Node28&#45;&gt;Node4</title>
<path fill="none" stroke="midnightblue" d="M1079.99,-112.08C1081.18,-104.93 1082.89,-94.64 1084.38,-85.69"/>
<polygon fill="midnightblue" stroke="midnightblue" points="1087.85,-86.19 1086.04,-75.75 1080.95,-85.04 1087.85,-86.19"/>
</g>
<!-- Node28&#45;&gt;Node5 -->
<g id="edge46" class="edge">
<title>Node28&#45;&gt;Node5</title>
<path fill="none" stroke="midnightblue" d="M1068.06,-112.4C1058.54,-104.03 1044.75,-90.49 1036.5,-76 1028.32,-61.63 1023.39,-43.44 1020.61,-29.95"/>
<polygon fill="midnightblue" stroke="midnightblue" points="1024.02,-29.12 1018.76,-19.92 1017.14,-30.39 1024.02,-29.12"/>
</g>
<!-- Node28&#45;&gt;Node7 -->
<g id="edge44" class="edge">
<title>Node28&#45;&gt;Node7</title>
<path fill="none" stroke="midnightblue" d="M1033.95,-117.92C929.19,-110.5 669.54,-91.19 583.5,-76 582.42,-75.81 581.32,-75.6 580.21,-75.38"/>
<polygon fill="midnightblue" stroke="midnightblue" points="580.76,-71.91 570.23,-73.08 579.19,-78.73 580.76,-71.91"/>
</g>
<!-- Node28&#45;&gt;Node14 -->
<g id="edge45" class="edge">
<title>Node28&#45;&gt;Node14</title>
<path fill="none" stroke="midnightblue" d="M1043.16,-112.44C1000.37,-102.08 928.9,-84.77 887.61,-74.77"/>
<polygon fill="midnightblue" stroke="midnightblue" points="888.34,-71.35 877.8,-72.4 886.69,-78.15 888.34,-71.35"/>
</g>
<!-- Node28&#45;&gt;Node15 -->
<g id="edge47" class="edge">
<title>Node28&#45;&gt;Node15</title>
<path fill="none" stroke="midnightblue" d="M1060.67,-112.32C1042.78,-103.62 1015.02,-90.12 994.45,-80.11"/>
<polygon fill="midnightblue" stroke="midnightblue" points="995.81,-76.88 985.29,-75.65 992.75,-83.18 995.81,-76.88"/>
</g>
<!-- Node28&#45;&gt;Node16 -->
<g id="edge43" class="edge">
<title>Node28&#45;&gt;Node16</title>
<path fill="none" stroke="midnightblue" d="M1096.33,-112.32C1114.22,-103.62 1141.98,-90.12 1162.55,-80.11"/>
<polygon fill="midnightblue" stroke="midnightblue" points="1164.25,-83.18 1171.71,-75.65 1161.19,-76.88 1164.25,-83.18"/>
</g>
<!-- Node29&#45;&gt;Node6 -->
<g id="edge50" class="edge">
<title>Node29&#45;&gt;Node6</title>
<path fill="none" stroke="midnightblue" d="M1037.65,-168.32C1020.73,-153.96 984.5,-125.5 948.5,-112 849.34,-74.8 722.93,-67.86 660.3,-66.88"/>
<polygon fill="midnightblue" stroke="midnightblue" points="660.12,-63.37 650.08,-66.76 660.04,-70.37 660.12,-63.37"/>
</g>
<!-- Node29&#45;&gt;Node28 -->
<g id="edge49" class="edge">
<title>Node29&#45;&gt;Node28</title>
<path fill="none" stroke="midnightblue" d="M1052.62,-168.08C1056.91,-160.61 1063.16,-149.72 1068.44,-140.52"/>
<polygon fill="midnightblue" stroke="midnightblue" points="1071.53,-142.17 1073.48,-131.75 1065.46,-138.68 1071.53,-142.17"/>
</g>
</g>
</svg>
        <g id="navigator" transform="translate(0 0)" fill="#404254">
                <rect fill="#f2f5e9" fill-opacity="0.5" stroke="#606060" stroke-width=".5" x="0" y="0" width="60" height="60"/>
                <use id="zoomplus" xlink:href="#zoomPlus" x="17" y="9" onmousedown="handleZoom(evt,'in')"/>
                <use id="zoomminus" xlink:href="#zoomMin" x="42" y="9" onmousedown="handleZoom(evt,'out')"/>
                <use id="reset" xlink:href="#resetDef" x="30" y="36" onmousedown="handleReset()"/>
                <g id="arrowUp" xlink:href="#dirArrow" transform="translate(30 24)" onmousedown="handlePan(0,-1)">
                  <use xlink:href="#rim" fill="#404040">
                        <set attributeName="fill" to="#808080" begin="arrowUp.mouseover" end="arrowUp.mouseout"/>
                  </use>
                  <path fill="none" stroke="white" stroke-width="1.5" d="M0,-3.0v7 M-2.5,-0.5L0,-3.0L2.5,-0.5"/>
                </g>
                <g id="arrowRight" xlink:href="#dirArrow" transform="rotate(90) translate(36 -43)" onmousedown="handlePan(1,0)">
                  <use xlink:href="#rim" fill="#404040">
                        <set attributeName="fill" to="#808080" begin="arrowRight.mouseover" end="arrowRight.mouseout"/>
                  </use>
                  <path fill="none" stroke="white" stroke-width="1.5" d="M0,-3.0v7 M-2.5,-0.5L0,-3.0L2.5,-0.5"/>
                </g>
                <g id="arrowDown" xlink:href="#dirArrow" transform="rotate(180) translate(-30 -48)" onmousedown="handlePan(0,1)">
                  <use xlink:href="#rim" fill="#404040">
                        <set attributeName="fill" to="#808080" begin="arrowDown.mouseover" end="arrowDown.mouseout"/>
                  </use>
                  <path fill="none" stroke="white" stroke-width="1.5" d="M0,-3.0v7 M-2.5,-0.5L0,-3.0L2.5,-0.5"/>
                </g>
                <g id="arrowLeft" xlink:href="#dirArrow" transform="rotate(270) translate(-36 17)" onmousedown="handlePan(-1,0)">
                  <use xlink:href="#rim" fill="#404040">
                        <set attributeName="fill" to="#808080" begin="arrowLeft.mouseover" end="arrowLeft.mouseout"/>
                  </use>
                  <path fill="none" stroke="white" stroke-width="1.5" d="M0,-3.0v7 M-2.5,-0.5L0,-3.0L2.5,-0.5"/>
                </g>
        </g>
        <svg viewBox="0 0 15 15" width="100%" height="30px" preserveAspectRatio="xMaxYMin meet">
         <g id="arrow_out" transform="scale(0.3 0.3)">
          <a xlink:href="ObjectBuilder_8hpp__incl_org.svg" target="_base">
           <rect id="button" ry="5" rx="5" y="6" x="6" height="38" width="38"
                fill="#f2f5e9" fill-opacity="0.5" stroke="#606060" stroke-width="1.0"/>
           <path id="arrow"
             d="M 11.500037,31.436501 C 11.940474,20.09759 22.043105,11.32322 32.158766,21.979434 L 37.068811,17.246167 C 37.068811,17.246167 37.088388,32 37.088388,32 L 22.160133,31.978069 C 22.160133,31.978069 26.997745,27.140456 26.997745,27.140456 C 18.528582,18.264221 13.291696,25.230495 11.500037,31.436501 z"
             style="fill:#404040;"/>
          </a>
         </g>
        </svg>
</svg>
