<?xml version="1.0" encoding="UTF-8" standalone="no"?>
<!DOCTYPE svg PUBLIC "-//W3C//DTD SVG 1.1//EN"
 "http://www.w3.org/Graphics/SVG/1.1/DTD/svg11.dtd">
<!-- Generated by graphviz version 2.44.0 ()
 -->
<!-- Title: includes/platformer&#45;engine/Networking/PackedObjects/PackedLoadedTextureInfo.hpp Pages: 1 -->
<!--zoomable 251 -->
<svg id="main" version="1.1" xmlns="http://www.w3.org/2000/svg" xmlns:xlink="http://www.w3.org/1999/xlink" xml:space="preserve" onload="init(evt)">
<style type="text/css"><![CDATA[
.edge:hover path { stroke: red; }
.edge:hover polygon { stroke: red; fill: red; }
]]></style>
<script type="text/javascript"><![CDATA[
var edges = document.getElementsByTagName('g');
if (edges && edges.length) {
  for (var i=0;i<edges.length;i++) {
    if (edges[i].id.substr(0,4)=='edge') {
      edges[i].setAttribute('class','edge');
    }
  }
}
]]></script>
        <defs>
                <circle id="rim" cx="0" cy="0" r="7"/>
                <circle id="rim2" cx="0" cy="0" r="3.5"/>
                <g id="zoomPlus">
                        <use xlink:href="#rim" fill="#404040">
                                <set attributeName="fill" to="#808080" begin="zoomplus.mouseover" end="zoomplus.mouseout"/>
                        </use>
                        <path d="M-4,0h8M0,-4v8" fill="none" stroke="white" stroke-width="1.5" pointer-events="none"/>
                </g>
                <g id="zoomMin">
                        <use xlink:href="#rim" fill="#404040">
                                <set attributeName="fill" to="#808080" begin="zoomminus.mouseover" end="zoomminus.mouseout"/>
                        </use>
                        <path d="M-4,0h8" fill="none" stroke="white" stroke-width="1.5" pointer-events="none"/>
                </g>
                <g id="dirArrow">
                        <path fill="none" stroke="white" stroke-width="1.5" d="M0,-3.0v7 M-2.5,-0.5L0,-3.0L2.5,-0.5"/>
                </g>
               <g id="resetDef">
                       <use xlink:href="#rim2" fill="#404040">
                               <set attributeName="fill" to="#808080" begin="reset.mouseover" end="reset.mouseout"/>
                       </use>
               </g>
        </defs>

<script type="text/javascript">
var viewWidth = 1596;
var viewHeight = 251;
var sectionId = 'dynsection-0';
</script>
<script xlink:href="svgpan.js"/>
<svg id="graph" class="graph">
<g id="viewport">
<title>includes/platformer&#45;engine/Networking/PackedObjects/PackedLoadedTextureInfo.hpp</title>
<!-- Node1 -->
<g id="node1" class="node">
<title>Node1</title>
<g id="a_node1"><a xlink:title=" ">
<polygon fill="#bfbfbf" stroke="black" points="308.5,-201.5 308.5,-242.5 478.5,-242.5 478.5,-201.5 308.5,-201.5"/>
<text text-anchor="start" x="316.5" y="-230.5" font-family="Helvetica,sans-Serif" font-size="10.00">includes/platformer</text>
<text text-anchor="start" x="316.5" y="-219.5" font-family="Helvetica,sans-Serif" font-size="10.00">&#45;engine/Networking/PackedObjects</text>
<text text-anchor="middle" x="393.5" y="-208.5" font-family="Helvetica,sans-Serif" font-size="10.00">/PackedLoadedTextureInfo.hpp</text>
</a>
</g>
</g>
<!-- Node2 -->
<g id="node2" class="node">
<title>Node2</title>
<g id="a_node2"><a xlink:href="LoadedTextureInfo_8hpp.html" target="_top" xlink:title=" ">
<polygon fill="none" stroke="black" points="127,-140 127,-159 278,-159 278,-140 127,-140"/>
<text text-anchor="middle" x="202.5" y="-147" font-family="Helvetica,sans-Serif" font-size="10.00">Texture/LoadedTextureInfo.hpp</text>
</a>
</g>
</g>
<!-- Node1&#45;&gt;Node2 -->
<g id="edge1" class="edge">
<title>Node1&#45;&gt;Node2</title>
<path fill="none" stroke="midnightblue" d="M340.55,-201.46C306.77,-188.99 264.07,-173.23 235.17,-162.56"/>
<polygon fill="midnightblue" stroke="midnightblue" points="236.16,-159.19 225.56,-159.01 233.73,-165.76 236.16,-159.19"/>
</g>
<!-- Node4 -->
<g id="node4" class="node">
<title>Node4</title>
<g id="a_node4"><a xlink:title=" ">
<polygon fill="none" stroke="#bfbfbf" points="0,-67.5 0,-97.5 95,-97.5 95,-67.5 0,-67.5"/>
<text text-anchor="start" x="8" y="-85.5" font-family="Helvetica,sans-Serif" font-size="10.00">boost/serialization</text>
<text text-anchor="middle" x="47.5" y="-74.5" font-family="Helvetica,sans-Serif" font-size="10.00">/access.hpp</text>
</a>
</g>
</g>
<!-- Node1&#45;&gt;Node4 -->
<g id="edge5" class="edge">
<title>Node1&#45;&gt;Node4</title>
<path fill="none" stroke="midnightblue" d="M308.42,-218.01C251.07,-212.7 175.59,-199.09 117.5,-165 93.17,-150.72 73.15,-124.87 60.85,-106.1"/>
<polygon fill="midnightblue" stroke="midnightblue" points="63.74,-104.12 55.44,-97.54 57.82,-107.86 63.74,-104.12"/>
</g>
<!-- Node5 -->
<g id="node5" class="node">
<title>Node5</title>
<g id="a_node5"><a xlink:title=" ">
<polygon fill="none" stroke="#bfbfbf" points="172,-67.5 172,-97.5 267,-97.5 267,-67.5 172,-67.5"/>
<text text-anchor="start" x="180" y="-85.5" font-family="Helvetica,sans-Serif" font-size="10.00">boost/serialization</text>
<text text-anchor="middle" x="219.5" y="-74.5" font-family="Helvetica,sans-Serif" font-size="10.00">/export.hpp</text>
</a>
</g>
</g>
<!-- Node1&#45;&gt;Node5 -->
<g id="edge6" class="edge">
<title>Node1&#45;&gt;Node5</title>
<path fill="none" stroke="midnightblue" d="M369.9,-201.4C348.35,-183.6 315.53,-156.73 286.5,-134 273.55,-123.86 258.98,-112.84 246.75,-103.68"/>
<polygon fill="midnightblue" stroke="midnightblue" points="248.81,-100.86 238.7,-97.68 244.63,-106.47 248.81,-100.86"/>
</g>
<!-- Node6 -->
<g id="node6" class="node">
<title>Node6</title>
<g id="a_node6"><a xlink:title=" ">
<polygon fill="none" stroke="#bfbfbf" points="346,-134.5 346,-164.5 441,-164.5 441,-134.5 346,-134.5"/>
<text text-anchor="start" x="354" y="-152.5" font-family="Helvetica,sans-Serif" font-size="10.00">boost/serialization</text>
<text text-anchor="middle" x="393.5" y="-141.5" font-family="Helvetica,sans-Serif" font-size="10.00">/vector.hpp</text>
</a>
</g>
</g>
<!-- Node1&#45;&gt;Node6 -->
<g id="edge7" class="edge">
<title>Node1&#45;&gt;Node6</title>
<path fill="none" stroke="midnightblue" d="M393.5,-201.36C393.5,-193.23 393.5,-183.7 393.5,-175.11"/>
<polygon fill="midnightblue" stroke="midnightblue" points="397,-174.89 393.5,-164.89 390,-174.89 397,-174.89"/>
</g>
<!-- Node7 -->
<g id="node7" class="node">
<title>Node7</title>
<g id="a_node7"><a xlink:href="portable__binary__iarchive_8hpp.html" target="_top" xlink:title=" ">
<polygon fill="none" stroke="black" points="922,-134.5 922,-164.5 1053,-164.5 1053,-134.5 922,-134.5"/>
<text text-anchor="start" x="930" y="-152.5" font-family="Helvetica,sans-Serif" font-size="10.00">Networking/boost/portable</text>
<text text-anchor="middle" x="987.5" y="-141.5" font-family="Helvetica,sans-Serif" font-size="10.00">_binary_iarchive.hpp</text>
</a>
</g>
</g>
<!-- Node1&#45;&gt;Node7 -->
<g id="edge8" class="edge">
<title>Node1&#45;&gt;Node7</title>
<path fill="none" stroke="midnightblue" d="M478.61,-210.9C594.64,-197.13 800.71,-172.67 911.69,-159.5"/>
<polygon fill="midnightblue" stroke="midnightblue" points="912.28,-162.95 921.8,-158.3 911.46,-156 912.28,-162.95"/>
</g>
<!-- Node22 -->
<g id="node22" class="node">
<title>Node22</title>
<g id="a_node22"><a xlink:href="portable__binary__oarchive_8hpp.html" target="_top" xlink:title=" ">
<polygon fill="none" stroke="black" points="542,-134.5 542,-164.5 673,-164.5 673,-134.5 542,-134.5"/>
<text text-anchor="start" x="550" y="-152.5" font-family="Helvetica,sans-Serif" font-size="10.00">Networking/boost/portable</text>
<text text-anchor="middle" x="607.5" y="-141.5" font-family="Helvetica,sans-Serif" font-size="10.00">_binary_oarchive.hpp</text>
</a>
</g>
</g>
<!-- Node1&#45;&gt;Node22 -->
<g id="edge23" class="edge">
<title>Node1&#45;&gt;Node22</title>
<path fill="none" stroke="midnightblue" d="M452.83,-201.46C484.86,-190.9 524.06,-177.99 554.98,-167.8"/>
<polygon fill="midnightblue" stroke="midnightblue" points="556.31,-171.05 564.71,-164.6 554.12,-164.4 556.31,-171.05"/>
</g>
<!-- Node26 -->
<g id="node26" class="node">
<title>Node26</title>
<g id="a_node26"><a xlink:title=" ">
<polygon fill="none" stroke="#bfbfbf" points="1071.5,-140 1071.5,-159 1115.5,-159 1115.5,-140 1071.5,-140"/>
<text text-anchor="middle" x="1093.5" y="-147" font-family="Helvetica,sans-Serif" font-size="10.00">vector</text>
</a>
</g>
</g>
<!-- Node1&#45;&gt;Node26 -->
<g id="edge31" class="edge">
<title>Node1&#45;&gt;Node26</title>
<path fill="none" stroke="midnightblue" d="M478.67,-217.61C633.39,-210.84 954.6,-193.76 1062.5,-165 1064.44,-164.48 1066.4,-163.85 1068.36,-163.14"/>
<polygon fill="midnightblue" stroke="midnightblue" points="1069.97,-166.26 1077.82,-159.15 1067.24,-159.81 1069.97,-166.26"/>
</g>
<!-- Node3 -->
<g id="node3" class="node">
<title>Node3</title>
<g id="a_node3"><a xlink:title=" ">
<polygon fill="none" stroke="#bfbfbf" points="113,-73 113,-92 154,-92 154,-73 113,-73"/>
<text text-anchor="middle" x="133.5" y="-80" font-family="Helvetica,sans-Serif" font-size="10.00">string</text>
</a>
</g>
</g>
<!-- Node2&#45;&gt;Node3 -->
<g id="edge2" class="edge">
<title>Node2&#45;&gt;Node3</title>
<path fill="none" stroke="midnightblue" d="M193.19,-139.73C182.23,-129.4 163.79,-112.04 150.31,-99.33"/>
<polygon fill="midnightblue" stroke="midnightblue" points="152.34,-96.44 142.66,-92.13 147.54,-101.53 152.34,-96.44"/>
</g>
<!-- Node2&#45;&gt;Node4 -->
<g id="edge3" class="edge">
<title>Node2&#45;&gt;Node4</title>
<path fill="none" stroke="midnightblue" d="M181.92,-139.87C158.66,-130.12 120.16,-113.97 90.31,-101.45"/>
<polygon fill="midnightblue" stroke="midnightblue" points="91.53,-98.17 80.95,-97.53 88.82,-104.62 91.53,-98.17"/>
</g>
<!-- Node2&#45;&gt;Node5 -->
<g id="edge4" class="edge">
<title>Node2&#45;&gt;Node5</title>
<path fill="none" stroke="midnightblue" d="M204.79,-139.73C206.96,-131.46 210.3,-118.66 213.26,-107.37"/>
<polygon fill="midnightblue" stroke="midnightblue" points="216.67,-108.15 215.82,-97.59 209.9,-106.38 216.67,-108.15"/>
</g>
<!-- Node8 -->
<g id="node8" class="node">
<title>Node8</title>
<g id="a_node8"><a xlink:title=" ">
<polygon fill="none" stroke="#bfbfbf" points="1405,-73 1405,-92 1454,-92 1454,-73 1405,-73"/>
<text text-anchor="middle" x="1429.5" y="-80" font-family="Helvetica,sans-Serif" font-size="10.00">istream</text>
</a>
</g>
</g>
<!-- Node7&#45;&gt;Node8 -->
<g id="edge9" class="edge">
<title>Node7&#45;&gt;Node8</title>
<path fill="none" stroke="midnightblue" d="M1053.3,-135.46C1056.4,-134.94 1059.48,-134.45 1062.5,-134 1209.71,-111.85 1251.47,-135.61 1395.5,-98 1397.86,-97.38 1400.26,-96.63 1402.65,-95.8"/>
<polygon fill="midnightblue" stroke="midnightblue" points="1404.18,-98.96 1412.2,-92.04 1401.61,-92.45 1404.18,-98.96"/>
</g>
<!-- Node9 -->
<g id="node9" class="node">
<title>Node9</title>
<g id="a_node9"><a xlink:title=" ">
<polygon fill="none" stroke="#bfbfbf" points="622,-67.5 622,-97.5 717,-97.5 717,-67.5 622,-67.5"/>
<text text-anchor="start" x="630" y="-85.5" font-family="Helvetica,sans-Serif" font-size="10.00">boost/serialization</text>
<text text-anchor="middle" x="669.5" y="-74.5" font-family="Helvetica,sans-Serif" font-size="10.00">/string.hpp</text>
</a>
</g>
</g>
<!-- Node7&#45;&gt;Node9 -->
<g id="edge10" class="edge">
<title>Node7&#45;&gt;Node9</title>
<path fill="none" stroke="midnightblue" d="M921.85,-136.89C871.32,-127.7 799.51,-114.1 727.24,-98.09"/>
<polygon fill="midnightblue" stroke="midnightblue" points="727.56,-94.57 717.04,-95.81 726.03,-101.41 727.56,-94.57"/>
</g>
<!-- Node10 -->
<g id="node10" class="node">
<title>Node10</title>
<g id="a_node10"><a xlink:title=" ">
<polygon fill="none" stroke="#bfbfbf" points="1471.5,-67.5 1471.5,-97.5 1587.5,-97.5 1587.5,-67.5 1471.5,-67.5"/>
<text text-anchor="start" x="1479.5" y="-85.5" font-family="Helvetica,sans-Serif" font-size="10.00">boost/serialization</text>
<text text-anchor="middle" x="1529.5" y="-74.5" font-family="Helvetica,sans-Serif" font-size="10.00">/item_version_type.hpp</text>
</a>
</g>
</g>
<!-- Node7&#45;&gt;Node10 -->
<g id="edge11" class="edge">
<title>Node7&#45;&gt;Node10</title>
<path fill="none" stroke="midnightblue" d="M1053.29,-135.39C1056.4,-134.89 1059.48,-134.43 1062.5,-134 1236.39,-109.45 1284.86,-124.66 1461.14,-98.25"/>
<polygon fill="midnightblue" stroke="midnightblue" points="1461.91,-101.68 1471.27,-96.71 1460.86,-94.76 1461.91,-101.68"/>
</g>
<!-- Node11 -->
<g id="node11" class="node">
<title>Node11</title>
<g id="a_node11"><a xlink:title=" ">
<polygon fill="none" stroke="#bfbfbf" points="735.5,-67.5 735.5,-97.5 845.5,-97.5 845.5,-67.5 735.5,-67.5"/>
<text text-anchor="start" x="743.5" y="-85.5" font-family="Helvetica,sans-Serif" font-size="10.00">boost/archive/archive</text>
<text text-anchor="middle" x="790.5" y="-74.5" font-family="Helvetica,sans-Serif" font-size="10.00">_exception.hpp</text>
</a>
</g>
</g>
<!-- Node7&#45;&gt;Node11 -->
<g id="edge12" class="edge">
<title>Node7&#45;&gt;Node11</title>
<path fill="none" stroke="midnightblue" d="M944.75,-134.4C914.81,-124.52 874.61,-111.25 842.76,-100.74"/>
<polygon fill="midnightblue" stroke="midnightblue" points="843.76,-97.39 833.16,-97.58 841.56,-104.03 843.76,-97.39"/>
</g>
<!-- Node12 -->
<g id="node12" class="node">
<title>Node12</title>
<g id="a_node12"><a xlink:title=" ">
<polygon fill="none" stroke="#bfbfbf" points="1144.5,-67.5 1144.5,-97.5 1254.5,-97.5 1254.5,-67.5 1144.5,-67.5"/>
<text text-anchor="start" x="1152.5" y="-85.5" font-family="Helvetica,sans-Serif" font-size="10.00">boost/archive/basic</text>
<text text-anchor="middle" x="1199.5" y="-74.5" font-family="Helvetica,sans-Serif" font-size="10.00">_binary_iprimitive.hpp</text>
</a>
</g>
</g>
<!-- Node7&#45;&gt;Node12 -->
<g id="edge13" class="edge">
<title>Node7&#45;&gt;Node12</title>
<path fill="none" stroke="midnightblue" d="M1033.24,-134.48C1065.59,-124.56 1109.15,-111.2 1143.57,-100.65"/>
<polygon fill="midnightblue" stroke="midnightblue" points="1144.94,-103.89 1153.48,-97.61 1142.89,-97.2 1144.94,-103.89"/>
</g>
<!-- Node13 -->
<g id="node13" class="node">
<title>Node13</title>
<g id="a_node13"><a xlink:title=" ">
<polygon fill="none" stroke="#bfbfbf" points="1272.5,-67.5 1272.5,-97.5 1386.5,-97.5 1386.5,-67.5 1272.5,-67.5"/>
<text text-anchor="start" x="1280.5" y="-85.5" font-family="Helvetica,sans-Serif" font-size="10.00">boost/archive/detail</text>
<text text-anchor="middle" x="1329.5" y="-74.5" font-family="Helvetica,sans-Serif" font-size="10.00">/common_iarchive.hpp</text>
</a>
</g>
</g>
<!-- Node7&#45;&gt;Node13 -->
<g id="edge14" class="edge">
<title>Node7&#45;&gt;Node13</title>
<path fill="none" stroke="midnightblue" d="M1053.34,-135.72C1056.44,-135.13 1059.5,-134.56 1062.5,-134 1148.58,-117.97 1172.81,-115.87 1262.25,-98.21"/>
<polygon fill="midnightblue" stroke="midnightblue" points="1263.16,-101.59 1272.29,-96.21 1261.8,-94.73 1263.16,-101.59"/>
</g>
<!-- Node14 -->
<g id="node14" class="node">
<title>Node14</title>
<g id="a_node14"><a xlink:title=" ">
<polygon fill="none" stroke="#bfbfbf" points="864,-67.5 864,-97.5 971,-97.5 971,-67.5 864,-67.5"/>
<text text-anchor="start" x="872" y="-85.5" font-family="Helvetica,sans-Serif" font-size="10.00">boost/archive/detail</text>
<text text-anchor="middle" x="917.5" y="-74.5" font-family="Helvetica,sans-Serif" font-size="10.00">/register_archive.hpp</text>
</a>
</g>
</g>
<!-- Node7&#45;&gt;Node14 -->
<g id="edge15" class="edge">
<title>Node7&#45;&gt;Node14</title>
<path fill="none" stroke="midnightblue" d="M972.31,-134.4C962.95,-125.71 950.78,-114.4 940.29,-104.66"/>
<polygon fill="midnightblue" stroke="midnightblue" points="942.37,-101.82 932.66,-97.58 937.61,-106.95 942.37,-101.82"/>
</g>
<!-- Node15 -->
<g id="node15" class="node">
<title>Node15</title>
<g id="a_node15"><a xlink:href="portable__binary__archive_8hpp.html" target="_top" xlink:title=" ">
<polygon fill="none" stroke="black" points="989,-73 989,-92 1126,-92 1126,-73 989,-73"/>
<text text-anchor="middle" x="1057.5" y="-80" font-family="Helvetica,sans-Serif" font-size="10.00">portable_binary_archive.hpp</text>
</a>
</g>
</g>
<!-- Node7&#45;&gt;Node15 -->
<g id="edge16" class="edge">
<title>Node7&#45;&gt;Node15</title>
<path fill="none" stroke="midnightblue" d="M1002.69,-134.4C1013.82,-124.06 1028.94,-110.02 1040.47,-99.31"/>
<polygon fill="midnightblue" stroke="midnightblue" points="1043.19,-101.56 1048.14,-92.19 1038.43,-96.43 1043.19,-101.56"/>
</g>
<!-- Node16 -->
<g id="node16" class="node">
<title>Node16</title>
<g id="a_node16"><a xlink:title=" ">
<polygon fill="none" stroke="#bfbfbf" points="734,-6 734,-25 821,-25 821,-6 734,-6"/>
<text text-anchor="middle" x="777.5" y="-13" font-family="Helvetica,sans-Serif" font-size="10.00">boost/config.hpp</text>
</a>
</g>
</g>
<!-- Node15&#45;&gt;Node16 -->
<g id="edge17" class="edge">
<title>Node15&#45;&gt;Node16</title>
<path fill="none" stroke="midnightblue" d="M1015.74,-72.96C969.89,-63.41 894.2,-47.17 829.5,-31 825.41,-29.98 821.15,-28.87 816.91,-27.73"/>
<polygon fill="midnightblue" stroke="midnightblue" points="817.69,-24.32 807.13,-25.06 815.85,-31.07 817.69,-24.32"/>
</g>
<!-- Node17 -->
<g id="node17" class="node">
<title>Node17</title>
<g id="a_node17"><a xlink:title=" ">
<polygon fill="none" stroke="#bfbfbf" points="839,-6 839,-25 930,-25 930,-6 839,-6"/>
<text text-anchor="middle" x="884.5" y="-13" font-family="Helvetica,sans-Serif" font-size="10.00">boost/cstdint.hpp</text>
</a>
</g>
</g>
<!-- Node15&#45;&gt;Node17 -->
<g id="edge18" class="edge">
<title>Node15&#45;&gt;Node17</title>
<path fill="none" stroke="midnightblue" d="M1034.53,-72.87C1004.33,-61.52 951.1,-41.52 916.84,-28.65"/>
<polygon fill="midnightblue" stroke="midnightblue" points="917.88,-25.3 907.29,-25.06 915.42,-31.86 917.88,-25.3"/>
</g>
<!-- Node18 -->
<g id="node18" class="node">
<title>Node18</title>
<g id="a_node18"><a xlink:title=" ">
<polygon fill="none" stroke="#bfbfbf" points="948.5,-6 948.5,-25 1066.5,-25 1066.5,-6 948.5,-6"/>
<text text-anchor="middle" x="1007.5" y="-13" font-family="Helvetica,sans-Serif" font-size="10.00">boost/static_assert.hpp</text>
</a>
</g>
</g>
<!-- Node15&#45;&gt;Node18 -->
<g id="edge19" class="edge">
<title>Node15&#45;&gt;Node18</title>
<path fill="none" stroke="midnightblue" d="M1050.76,-72.73C1042.96,-62.6 1029.95,-45.69 1020.24,-33.06"/>
<polygon fill="midnightblue" stroke="midnightblue" points="1023.01,-30.92 1014.14,-25.13 1017.46,-35.19 1023.01,-30.92"/>
</g>
<!-- Node19 -->
<g id="node19" class="node">
<title>Node19</title>
<g id="a_node19"><a xlink:title=" ">
<polygon fill="none" stroke="#bfbfbf" points="1085,-6 1085,-25 1130,-25 1130,-6 1085,-6"/>
<text text-anchor="middle" x="1107.5" y="-13" font-family="Helvetica,sans-Serif" font-size="10.00">climits</text>
</a>
</g>
</g>
<!-- Node15&#45;&gt;Node19 -->
<g id="edge20" class="edge">
<title>Node15&#45;&gt;Node19</title>
<path fill="none" stroke="midnightblue" d="M1064.24,-72.73C1072.04,-62.6 1085.05,-45.69 1094.76,-33.06"/>
<polygon fill="midnightblue" stroke="midnightblue" points="1097.54,-35.19 1100.86,-25.13 1091.99,-30.92 1097.54,-35.19"/>
</g>
<!-- Node20 -->
<g id="node20" class="node">
<title>Node20</title>
<g id="a_node20"><a xlink:title=" ">
<polygon fill="none" stroke="#bfbfbf" points="1148,-0.5 1148,-30.5 1249,-30.5 1249,-0.5 1148,-0.5"/>
<text text-anchor="start" x="1156" y="-18.5" font-family="Helvetica,sans-Serif" font-size="10.00">boost/archive/basic</text>
<text text-anchor="middle" x="1198.5" y="-7.5" font-family="Helvetica,sans-Serif" font-size="10.00">_archive.hpp</text>
</a>
</g>
</g>
<!-- Node15&#45;&gt;Node20 -->
<g id="edge21" class="edge">
<title>Node15&#45;&gt;Node20</title>
<path fill="none" stroke="midnightblue" d="M1076.22,-72.87C1097.2,-63.2 1131.8,-47.25 1158.85,-34.78"/>
<polygon fill="midnightblue" stroke="midnightblue" points="1160.45,-37.89 1168.07,-30.53 1157.52,-31.54 1160.45,-37.89"/>
</g>
<!-- Node21 -->
<g id="node21" class="node">
<title>Node21</title>
<g id="a_node21"><a xlink:title=" ">
<polygon fill="none" stroke="#bfbfbf" points="1267,-0.5 1267,-30.5 1362,-30.5 1362,-0.5 1267,-0.5"/>
<text text-anchor="start" x="1275" y="-18.5" font-family="Helvetica,sans-Serif" font-size="10.00">boost/predef/other</text>
<text text-anchor="middle" x="1314.5" y="-7.5" font-family="Helvetica,sans-Serif" font-size="10.00">/endian.h</text>
</a>
</g>
</g>
<!-- Node15&#45;&gt;Node21 -->
<g id="edge22" class="edge">
<title>Node15&#45;&gt;Node21</title>
<path fill="none" stroke="midnightblue" d="M1091.66,-73C1129.72,-63.51 1193.33,-47.59 1257.04,-31.36"/>
<polygon fill="midnightblue" stroke="midnightblue" points="1258.02,-34.73 1266.85,-28.86 1256.29,-27.94 1258.02,-34.73"/>
</g>
<!-- Node22&#45;&gt;Node9 -->
<g id="edge25" class="edge">
<title>Node22&#45;&gt;Node9</title>
<path fill="none" stroke="midnightblue" d="M620.95,-134.4C629.16,-125.79 639.81,-114.63 649.05,-104.94"/>
<polygon fill="midnightblue" stroke="midnightblue" points="651.7,-107.23 656.07,-97.58 646.64,-102.4 651.7,-107.23"/>
</g>
<!-- Node22&#45;&gt;Node11 -->
<g id="edge26" class="edge">
<title>Node22&#45;&gt;Node11</title>
<path fill="none" stroke="midnightblue" d="M647.21,-134.4C674.79,-124.6 711.72,-111.48 741.19,-101.02"/>
<polygon fill="midnightblue" stroke="midnightblue" points="742.62,-104.22 750.87,-97.58 740.27,-97.63 742.62,-104.22"/>
</g>
<!-- Node22&#45;&gt;Node14 -->
<g id="edge29" class="edge">
<title>Node22&#45;&gt;Node14</title>
<path fill="none" stroke="midnightblue" d="M673.12,-135.54C720.61,-126.05 786.59,-112.66 853.96,-98.09"/>
<polygon fill="midnightblue" stroke="midnightblue" points="854.87,-101.47 863.9,-95.93 853.39,-94.63 854.87,-101.47"/>
</g>
<!-- Node22&#45;&gt;Node15 -->
<g id="edge30" class="edge">
<title>Node22&#45;&gt;Node15</title>
<path fill="none" stroke="midnightblue" d="M673.16,-140.57C747.6,-131.35 872.52,-115.19 979.5,-98 987.43,-96.73 995.79,-95.28 1003.98,-93.81"/>
<polygon fill="midnightblue" stroke="midnightblue" points="1004.63,-97.25 1013.84,-92.01 1003.37,-90.36 1004.63,-97.25"/>
</g>
<!-- Node23 -->
<g id="node23" class="node">
<title>Node23</title>
<g id="a_node23"><a xlink:title=" ">
<polygon fill="none" stroke="#bfbfbf" points="285.5,-73 285.5,-92 337.5,-92 337.5,-73 285.5,-73"/>
<text text-anchor="middle" x="311.5" y="-80" font-family="Helvetica,sans-Serif" font-size="10.00">ostream</text>
</a>
</g>
</g>
<!-- Node22&#45;&gt;Node23 -->
<g id="edge24" class="edge">
<title>Node22&#45;&gt;Node23</title>
<path fill="none" stroke="midnightblue" d="M541.99,-139.58C488.67,-131.42 411.81,-117.63 346.5,-98 344.21,-97.31 341.87,-96.53 339.54,-95.69"/>
<polygon fill="midnightblue" stroke="midnightblue" points="340.73,-92.4 330.14,-92.04 338.19,-98.92 340.73,-92.4"/>
</g>
<!-- Node24 -->
<g id="node24" class="node">
<title>Node24</title>
<g id="a_node24"><a xlink:title=" ">
<polygon fill="none" stroke="#bfbfbf" points="356,-67.5 356,-97.5 469,-97.5 469,-67.5 356,-67.5"/>
<text text-anchor="start" x="364" y="-85.5" font-family="Helvetica,sans-Serif" font-size="10.00">boost/archive/basic</text>
<text text-anchor="middle" x="412.5" y="-74.5" font-family="Helvetica,sans-Serif" font-size="10.00">_binary_oprimitive.hpp</text>
</a>
</g>
</g>
<!-- Node22&#45;&gt;Node24 -->
<g id="edge27" class="edge">
<title>Node22&#45;&gt;Node24</title>
<path fill="none" stroke="midnightblue" d="M565.19,-134.4C535.55,-124.52 495.76,-111.25 464.23,-100.74"/>
<polygon fill="midnightblue" stroke="midnightblue" points="465.32,-97.42 454.73,-97.58 463.11,-104.06 465.32,-97.42"/>
</g>
<!-- Node25 -->
<g id="node25" class="node">
<title>Node25</title>
<g id="a_node25"><a xlink:title=" ">
<polygon fill="none" stroke="#bfbfbf" points="487,-67.5 487,-97.5 604,-97.5 604,-67.5 487,-67.5"/>
<text text-anchor="start" x="495" y="-85.5" font-family="Helvetica,sans-Serif" font-size="10.00">boost/archive/detail</text>
<text text-anchor="middle" x="545.5" y="-74.5" font-family="Helvetica,sans-Serif" font-size="10.00">/common_oarchive.hpp</text>
</a>
</g>
</g>
<!-- Node22&#45;&gt;Node25 -->
<g id="edge28" class="edge">
<title>Node22&#45;&gt;Node25</title>
<path fill="none" stroke="midnightblue" d="M594.05,-134.4C585.84,-125.79 575.19,-114.63 565.95,-104.94"/>
<polygon fill="midnightblue" stroke="midnightblue" points="568.36,-102.4 558.93,-97.58 563.3,-107.23 568.36,-102.4"/>
</g>
</g>
</svg>
        <g id="navigator" transform="translate(0 0)" fill="#404254">
                <rect fill="#f2f5e9" fill-opacity="0.5" stroke="#606060" stroke-width=".5" x="0" y="0" width="60" height="60"/>
                <use id="zoomplus" xlink:href="#zoomPlus" x="17" y="9" onmousedown="handleZoom(evt,'in')"/>
                <use id="zoomminus" xlink:href="#zoomMin" x="42" y="9" onmousedown="handleZoom(evt,'out')"/>
                <use id="reset" xlink:href="#resetDef" x="30" y="36" onmousedown="handleReset()"/>
                <g id="arrowUp" xlink:href="#dirArrow" transform="translate(30 24)" onmousedown="handlePan(0,-1)">
                  <use xlink:href="#rim" fill="#404040">
                        <set attributeName="fill" to="#808080" begin="arrowUp.mouseover" end="arrowUp.mouseout"/>
                  </use>
                  <path fill="none" stroke="white" stroke-width="1.5" d="M0,-3.0v7 M-2.5,-0.5L0,-3.0L2.5,-0.5"/>
                </g>
                <g id="arrowRight" xlink:href="#dirArrow" transform="rotate(90) translate(36 -43)" onmousedown="handlePan(1,0)">
                  <use xlink:href="#rim" fill="#404040">
                        <set attributeName="fill" to="#808080" begin="arrowRight.mouseover" end="arrowRight.mouseout"/>
                  </use>
                  <path fill="none" stroke="white" stroke-width="1.5" d="M0,-3.0v7 M-2.5,-0.5L0,-3.0L2.5,-0.5"/>
                </g>
                <g id="arrowDown" xlink:href="#dirArrow" transform="rotate(180) translate(-30 -48)" onmousedown="handlePan(0,1)">
                  <use xlink:href="#rim" fill="#404040">
                        <set attributeName="fill" to="#808080" begin="arrowDown.mouseover" end="arrowDown.mouseout"/>
                  </use>
                  <path fill="none" stroke="white" stroke-width="1.5" d="M0,-3.0v7 M-2.5,-0.5L0,-3.0L2.5,-0.5"/>
                </g>
                <g id="arrowLeft" xlink:href="#dirArrow" transform="rotate(270) translate(-36 17)" onmousedown="handlePan(-1,0)">
                  <use xlink:href="#rim" fill="#404040">
                        <set attributeName="fill" to="#808080" begin="arrowLeft.mouseover" end="arrowLeft.mouseout"/>
                  </use>
                  <path fill="none" stroke="white" stroke-width="1.5" d="M0,-3.0v7 M-2.5,-0.5L0,-3.0L2.5,-0.5"/>
                </g>
        </g>
        <svg viewBox="0 0 15 15" width="100%" height="30px" preserveAspectRatio="xMaxYMin meet">
         <g id="arrow_out" transform="scale(0.3 0.3)">
          <a xlink:href="PackedLoadedTextureInfo_8hpp__incl_org.svg" target="_base">
           <rect id="button" ry="5" rx="5" y="6" x="6" height="38" width="38"
                fill="#f2f5e9" fill-opacity="0.5" stroke="#606060" stroke-width="1.0"/>
           <path id="arrow"
             d="M 11.500037,31.436501 C 11.940474,20.09759 22.043105,11.32322 32.158766,21.979434 L 37.068811,17.246167 C 37.068811,17.246167 37.088388,32 37.088388,32 L 22.160133,31.978069 C 22.160133,31.978069 26.997745,27.140456 26.997745,27.140456 C 18.528582,18.264221 13.291696,25.230495 11.500037,31.436501 z"
             style="fill:#404040;"/>
          </a>
         </g>
        </svg>
</svg>
