<?xml version="1.0" encoding="UTF-8" standalone="no"?>
<!DOCTYPE svg PUBLIC "-//W3C//DTD SVG 1.1//EN"
 "http://www.w3.org/Graphics/SVG/1.1/DTD/svg11.dtd">
<!-- Generated by graphviz version 2.44.0 ()
 -->
<!-- Title: src/Physics/PhysicsSystem.cpp Pages: 1 -->
<svg width="781pt" height="364pt"
 viewBox="0.00 0.00 781.00 364.00" xmlns="http://www.w3.org/2000/svg" xmlns:xlink="http://www.w3.org/1999/xlink">
<g id="graph0" class="graph" transform="scale(1 1) rotate(0) translate(4 360)">
<title>src/Physics/PhysicsSystem.cpp</title>
<!-- Node1 -->
<g id="node1" class="node">
<title>Node1</title>
<g id="a_node1"><a xlink:title=" ">
<polygon fill="#bfbfbf" stroke="black" points="465,-336.5 465,-355.5 621,-355.5 621,-336.5 465,-336.5"/>
<text text-anchor="middle" x="543" y="-343.5" font-family="Helvetica,sans-Serif" font-size="10.00">src/Physics/PhysicsSystem.cpp</text>
</a>
</g>
</g>
<!-- Node2 -->
<g id="node2" class="node">
<title>Node2</title>
<g id="a_node2"><a xlink:href="PhysicsSystem_8hpp.html" target="_top" xlink:title=" ">
<polygon fill="none" stroke="black" points="372,-224.5 372,-243.5 512,-243.5 512,-224.5 372,-224.5"/>
<text text-anchor="middle" x="442" y="-231.5" font-family="Helvetica,sans-Serif" font-size="10.00">Physics/PhysicsSystem.hpp</text>
</a>
</g>
</g>
<!-- Node1&#45;&gt;Node2 -->
<g id="edge1" class="edge">
<title>Node1&#45;&gt;Node2</title>
<path fill="none" stroke="midnightblue" d="M535.07,-336.37C518.19,-317.97 478.43,-274.67 456.74,-251.05"/>
<polygon fill="midnightblue" stroke="midnightblue" points="459.23,-248.59 449.89,-243.59 454.07,-253.32 459.23,-248.59"/>
</g>
<!-- Node10 -->
<g id="node10" class="node">
<title>Node10</title>
<g id="a_node10"><a xlink:href="GameObject_8hpp.html" target="_top" xlink:title=" ">
<polygon fill="none" stroke="black" points="533.5,-168.5 533.5,-187.5 622.5,-187.5 622.5,-168.5 533.5,-168.5"/>
<text text-anchor="middle" x="578" y="-175.5" font-family="Helvetica,sans-Serif" font-size="10.00">GameObject.hpp</text>
</a>
</g>
</g>
<!-- Node1&#45;&gt;Node10 -->
<g id="edge24" class="edge">
<title>Node1&#45;&gt;Node10</title>
<path fill="none" stroke="midnightblue" d="M544.88,-336.08C550.39,-309.95 566.57,-233.21 574.08,-197.58"/>
<polygon fill="midnightblue" stroke="midnightblue" points="577.56,-198.08 576.19,-187.57 570.71,-196.63 577.56,-198.08"/>
</g>
<!-- Node11 -->
<g id="node11" class="node">
<title>Node11</title>
<g id="a_node11"><a xlink:href="Transform_8hpp.html" target="_top" xlink:title=" ">
<polygon fill="none" stroke="black" points="571.5,-112.5 571.5,-131.5 650.5,-131.5 650.5,-112.5 571.5,-112.5"/>
<text text-anchor="middle" x="611" y="-119.5" font-family="Helvetica,sans-Serif" font-size="10.00">Transform.hpp</text>
</a>
</g>
</g>
<!-- Node1&#45;&gt;Node11 -->
<g id="edge30" class="edge">
<title>Node1&#45;&gt;Node11</title>
<path fill="none" stroke="midnightblue" d="M550.24,-336.18C568.4,-313.42 615.62,-250.11 632,-188 636.29,-171.73 629.38,-153.54 622.36,-140.55"/>
<polygon fill="midnightblue" stroke="midnightblue" points="625.26,-138.57 617.16,-131.74 619.23,-142.13 625.26,-138.57"/>
</g>
<!-- Node14 -->
<g id="node14" class="node">
<title>Node14</title>
<g id="a_node14"><a xlink:href="RigidBody_8hpp.html" target="_top" xlink:title=" ">
<polygon fill="none" stroke="black" points="276,-224.5 276,-243.5 354,-243.5 354,-224.5 276,-224.5"/>
<text text-anchor="middle" x="315" y="-231.5" font-family="Helvetica,sans-Serif" font-size="10.00">RigidBody.hpp</text>
</a>
</g>
</g>
<!-- Node1&#45;&gt;Node14 -->
<g id="edge25" class="edge">
<title>Node1&#45;&gt;Node14</title>
<path fill="none" stroke="midnightblue" d="M525.24,-336.35C499.6,-323.87 450.69,-300.09 409,-280 386.51,-269.16 360.97,-256.94 342.19,-247.97"/>
<polygon fill="midnightblue" stroke="midnightblue" points="343.57,-244.75 333.03,-243.6 340.55,-251.07 343.57,-244.75"/>
</g>
<!-- Node15 -->
<g id="node15" class="node">
<title>Node15</title>
<g id="a_node15"><a xlink:href="BehaviourScript_8hpp.html" target="_top" xlink:title=" ">
<polygon fill="none" stroke="black" points="0,-224.5 0,-243.5 104,-243.5 104,-224.5 0,-224.5"/>
<text text-anchor="middle" x="52" y="-231.5" font-family="Helvetica,sans-Serif" font-size="10.00">BehaviourScript.hpp</text>
</a>
</g>
</g>
<!-- Node1&#45;&gt;Node15 -->
<g id="edge31" class="edge">
<title>Node1&#45;&gt;Node15</title>
<path fill="none" stroke="midnightblue" d="M464.87,-336.47C405.67,-329.16 322.59,-317.09 251,-300 190.8,-285.63 122.64,-261.62 83.74,-247.15"/>
<polygon fill="midnightblue" stroke="midnightblue" points="84.64,-243.75 74.04,-243.51 82.18,-250.3 84.64,-243.75"/>
</g>
<!-- Node16 -->
<g id="node16" class="node">
<title>Node16</title>
<g id="a_node16"><a xlink:href="MarioRigidBody_8hpp.html" target="_top" xlink:title=" ">
<polygon fill="none" stroke="black" points="260,-280.5 260,-299.5 400,-299.5 400,-280.5 260,-280.5"/>
<text text-anchor="middle" x="330" y="-287.5" font-family="Helvetica,sans-Serif" font-size="10.00">Physics/MarioRigidBody.hpp</text>
</a>
</g>
</g>
<!-- Node1&#45;&gt;Node16 -->
<g id="edge35" class="edge">
<title>Node1&#45;&gt;Node16</title>
<path fill="none" stroke="midnightblue" d="M509.25,-336.44C472.48,-327.12 413.55,-312.18 373.38,-302"/>
<polygon fill="midnightblue" stroke="midnightblue" points="374.15,-298.58 363.59,-299.52 372.43,-305.37 374.15,-298.58"/>
</g>
<!-- Node17 -->
<g id="node17" class="node">
<title>Node17</title>
<g id="a_node17"><a xlink:href="Input_8hpp.html" target="_top" xlink:title=" ">
<polygon fill="none" stroke="black" points="700,-168.5 700,-187.5 756,-187.5 756,-168.5 700,-168.5"/>
<text text-anchor="middle" x="728" y="-175.5" font-family="Helvetica,sans-Serif" font-size="10.00">Input.hpp</text>
</a>
</g>
</g>
<!-- Node1&#45;&gt;Node17 -->
<g id="edge37" class="edge">
<title>Node1&#45;&gt;Node17</title>
<path fill="none" stroke="midnightblue" d="M589.21,-336.44C614,-329.91 643.74,-318.73 665,-300 696.88,-271.92 715.02,-223.79 723.01,-197.49"/>
<polygon fill="midnightblue" stroke="midnightblue" points="726.44,-198.25 725.83,-187.67 719.71,-196.32 726.44,-198.25"/>
</g>
<!-- Node18 -->
<g id="node18" class="node">
<title>Node18</title>
<g id="a_node18"><a xlink:title=" ">
<polygon fill="none" stroke="#bfbfbf" points="717,-280.5 717,-299.5 773,-299.5 773,-280.5 717,-280.5"/>
<text text-anchor="middle" x="745" y="-287.5" font-family="Helvetica,sans-Serif" font-size="10.00">algorithm</text>
</a>
</g>
</g>
<!-- Node1&#45;&gt;Node18 -->
<g id="edge40" class="edge">
<title>Node1&#45;&gt;Node18</title>
<path fill="none" stroke="midnightblue" d="M575.01,-336.44C610.85,-326.86 668.9,-311.34 707.02,-301.15"/>
<polygon fill="midnightblue" stroke="midnightblue" points="707.97,-304.52 716.73,-298.56 706.16,-297.76 707.97,-304.52"/>
</g>
<!-- Node3 -->
<g id="node3" class="node">
<title>Node3</title>
<g id="a_node3"><a xlink:title=" ">
<polygon fill="none" stroke="#bfbfbf" points="307.5,-0.5 307.5,-19.5 358.5,-19.5 358.5,-0.5 307.5,-0.5"/>
<text text-anchor="middle" x="333" y="-7.5" font-family="Helvetica,sans-Serif" font-size="10.00">memory</text>
</a>
</g>
</g>
<!-- Node2&#45;&gt;Node3 -->
<g id="edge2" class="edge">
<title>Node2&#45;&gt;Node3</title>
<path fill="none" stroke="midnightblue" d="M439.93,-224.14C436.97,-211.61 431.31,-187.99 426,-168 419.35,-142.98 421.51,-135.18 410,-112 396.16,-84.14 386.88,-80.72 368,-56 360.78,-46.54 352.62,-36.04 346,-27.57"/>
<polygon fill="midnightblue" stroke="midnightblue" points="348.67,-25.31 339.75,-19.59 343.16,-29.62 348.67,-25.31"/>
</g>
<!-- Node4 -->
<g id="node4" class="node">
<title>Node4</title>
<g id="a_node4"><a xlink:title=" ">
<polygon fill="none" stroke="#bfbfbf" points="365.5,-112.5 365.5,-131.5 400.5,-131.5 400.5,-112.5 365.5,-112.5"/>
<text text-anchor="middle" x="383" y="-119.5" font-family="Helvetica,sans-Serif" font-size="10.00">map</text>
</a>
</g>
</g>
<!-- Node2&#45;&gt;Node4 -->
<g id="edge3" class="edge">
<title>Node2&#45;&gt;Node4</title>
<path fill="none" stroke="midnightblue" d="M437.37,-224.37C427.72,-206.38 405.29,-164.55 392.45,-140.63"/>
<polygon fill="midnightblue" stroke="midnightblue" points="395.42,-138.75 387.61,-131.59 389.25,-142.06 395.42,-138.75"/>
</g>
<!-- Node5 -->
<g id="node5" class="node">
<title>Node5</title>
<g id="a_node5"><a xlink:title=" ">
<polygon fill="none" stroke="#bfbfbf" points="315,-56.5 315,-75.5 359,-75.5 359,-56.5 315,-56.5"/>
<text text-anchor="middle" x="337" y="-63.5" font-family="Helvetica,sans-Serif" font-size="10.00">vector</text>
</a>
</g>
</g>
<!-- Node2&#45;&gt;Node5 -->
<g id="edge4" class="edge">
<title>Node2&#45;&gt;Node5</title>
<path fill="none" stroke="midnightblue" d="M432.67,-224.46C415.34,-208.13 378.06,-170.64 357,-132 349.05,-117.42 343.8,-99.25 340.68,-85.82"/>
<polygon fill="midnightblue" stroke="midnightblue" points="344.06,-84.9 338.55,-75.85 337.22,-86.36 344.06,-84.9"/>
</g>
<!-- Node6 -->
<g id="node6" class="node">
<title>Node6</title>
<g id="a_node6"><a xlink:href="Point_8hpp.html" target="_top" xlink:title=" ">
<polygon fill="none" stroke="black" points="495.5,-56.5 495.5,-75.5 552.5,-75.5 552.5,-56.5 495.5,-56.5"/>
<text text-anchor="middle" x="524" y="-63.5" font-family="Helvetica,sans-Serif" font-size="10.00">Point.hpp</text>
</a>
</g>
</g>
<!-- Node2&#45;&gt;Node6 -->
<g id="edge5" class="edge">
<title>Node2&#45;&gt;Node6</title>
<path fill="none" stroke="midnightblue" d="M451.15,-224.47C459.85,-215.95 472.77,-202.11 481,-188 500.67,-154.26 513.55,-110.04 519.73,-85.48"/>
<polygon fill="midnightblue" stroke="midnightblue" points="523.15,-86.23 522.09,-75.69 516.34,-84.59 523.15,-86.23"/>
</g>
<!-- Node7 -->
<g id="node7" class="node">
<title>Node7</title>
<g id="a_node7"><a xlink:href="Collider_8hpp.html" target="_top" xlink:title=" ">
<polygon fill="none" stroke="black" points="165.5,-112.5 165.5,-131.5 232.5,-131.5 232.5,-112.5 165.5,-112.5"/>
<text text-anchor="middle" x="199" y="-119.5" font-family="Helvetica,sans-Serif" font-size="10.00">Collider.hpp</text>
</a>
</g>
</g>
<!-- Node2&#45;&gt;Node7 -->
<g id="edge6" class="edge">
<title>Node2&#45;&gt;Node7</title>
<path fill="none" stroke="midnightblue" d="M422.93,-224.37C380.35,-205.09 277.32,-158.45 227.25,-135.79"/>
<polygon fill="midnightblue" stroke="midnightblue" points="228.53,-132.53 217.98,-131.59 225.65,-138.9 228.53,-132.53"/>
</g>
<!-- Node9 -->
<g id="node9" class="node">
<title>Node9</title>
<g id="a_node9"><a xlink:href="BoxCollider_8hpp.html" target="_top" xlink:title=" ">
<polygon fill="none" stroke="black" points="165.5,-168.5 165.5,-187.5 248.5,-187.5 248.5,-168.5 165.5,-168.5"/>
<text text-anchor="middle" x="207" y="-175.5" font-family="Helvetica,sans-Serif" font-size="10.00">BoxCollider.hpp</text>
</a>
</g>
</g>
<!-- Node2&#45;&gt;Node9 -->
<g id="edge10" class="edge">
<title>Node2&#45;&gt;Node9</title>
<path fill="none" stroke="midnightblue" d="M404.76,-224.44C363.94,-215.06 298.36,-199.99 254.02,-189.8"/>
<polygon fill="midnightblue" stroke="midnightblue" points="254.59,-186.34 244.06,-187.52 253.02,-193.17 254.59,-186.34"/>
</g>
<!-- Node2&#45;&gt;Node10 -->
<g id="edge12" class="edge">
<title>Node2&#45;&gt;Node10</title>
<path fill="none" stroke="midnightblue" d="M463.55,-224.44C486.03,-215.52 521.49,-201.44 546.98,-191.32"/>
<polygon fill="midnightblue" stroke="midnightblue" points="548.55,-194.46 556.55,-187.52 545.97,-187.95 548.55,-194.46"/>
</g>
<!-- Node13 -->
<g id="node13" class="node">
<title>Node13</title>
<g id="a_node13"><a xlink:href="Collision_8hpp.html" target="_top" xlink:title=" ">
<polygon fill="none" stroke="black" points="38.5,-168.5 38.5,-187.5 147.5,-187.5 147.5,-168.5 38.5,-168.5"/>
<text text-anchor="middle" x="93" y="-175.5" font-family="Helvetica,sans-Serif" font-size="10.00">Physics/Collision.hpp</text>
</a>
</g>
</g>
<!-- Node2&#45;&gt;Node13 -->
<g id="edge20" class="edge">
<title>Node2&#45;&gt;Node13</title>
<path fill="none" stroke="midnightblue" d="M386.7,-224.44C324.58,-214.83 223.85,-199.25 158.01,-189.06"/>
<polygon fill="midnightblue" stroke="midnightblue" points="158.17,-185.54 147.75,-187.47 157.1,-192.46 158.17,-185.54"/>
</g>
<!-- Node7&#45;&gt;Node5 -->
<g id="edge7" class="edge">
<title>Node7&#45;&gt;Node5</title>
<path fill="none" stroke="midnightblue" d="M220.87,-112.44C243.78,-103.48 279.98,-89.31 305.87,-79.18"/>
<polygon fill="midnightblue" stroke="midnightblue" points="307.2,-82.42 315.24,-75.52 304.65,-75.9 307.2,-82.42"/>
</g>
<!-- Node8 -->
<g id="node8" class="node">
<title>Node8</title>
<g id="a_node8"><a xlink:href="Component_8hpp.html" target="_top" xlink:title=" ">
<polygon fill="none" stroke="black" points="157,-56.5 157,-75.5 241,-75.5 241,-56.5 157,-56.5"/>
<text text-anchor="middle" x="199" y="-63.5" font-family="Helvetica,sans-Serif" font-size="10.00">Component.hpp</text>
</a>
</g>
</g>
<!-- Node7&#45;&gt;Node8 -->
<g id="edge8" class="edge">
<title>Node7&#45;&gt;Node8</title>
<path fill="none" stroke="midnightblue" d="M199,-112.08C199,-105.01 199,-94.86 199,-85.99"/>
<polygon fill="midnightblue" stroke="midnightblue" points="202.5,-85.75 199,-75.75 195.5,-85.75 202.5,-85.75"/>
</g>
<!-- Node8&#45;&gt;Node3 -->
<g id="edge9" class="edge">
<title>Node8&#45;&gt;Node3</title>
<path fill="none" stroke="midnightblue" d="M220.23,-56.44C242.38,-47.52 277.32,-33.44 302.44,-23.32"/>
<polygon fill="midnightblue" stroke="midnightblue" points="303.9,-26.5 311.87,-19.52 301.28,-20.01 303.9,-26.5"/>
</g>
<!-- Node9&#45;&gt;Node7 -->
<g id="edge11" class="edge">
<title>Node9&#45;&gt;Node7</title>
<path fill="none" stroke="midnightblue" d="M205.68,-168.08C204.62,-160.93 203.09,-150.64 201.77,-141.69"/>
<polygon fill="midnightblue" stroke="midnightblue" points="205.22,-141.13 200.3,-131.75 198.3,-142.16 205.22,-141.13"/>
</g>
<!-- Node10&#45;&gt;Node3 -->
<g id="edge18" class="edge">
<title>Node10&#45;&gt;Node3</title>
<path fill="none" stroke="midnightblue" d="M606.36,-168.41C635.69,-157.91 675.23,-138.24 660,-112 634.82,-68.61 609.01,-73.51 562,-56 496.31,-31.53 414.81,-19.58 368.87,-14.41"/>
<polygon fill="midnightblue" stroke="midnightblue" points="369.13,-10.91 358.81,-13.32 368.38,-17.87 369.13,-10.91"/>
</g>
<!-- Node10&#45;&gt;Node4 -->
<g id="edge19" class="edge">
<title>Node10&#45;&gt;Node4</title>
<path fill="none" stroke="midnightblue" d="M546.74,-168.42C513.92,-159.4 460.81,-144.77 415,-132 413.54,-131.59 412.04,-131.18 410.53,-130.75"/>
<polygon fill="midnightblue" stroke="midnightblue" points="411.17,-127.3 400.6,-127.97 409.28,-134.04 411.17,-127.3"/>
</g>
<!-- Node10&#45;&gt;Node5 -->
<g id="edge17" class="edge">
<title>Node10&#45;&gt;Node5</title>
<path fill="none" stroke="midnightblue" d="M560.65,-168.32C535.07,-155.6 485.66,-131.31 443,-112 417.69,-100.54 388.61,-88.26 367.33,-79.43"/>
<polygon fill="midnightblue" stroke="midnightblue" points="368.42,-76.09 357.84,-75.51 365.75,-82.56 368.42,-76.09"/>
</g>
<!-- Node10&#45;&gt;Node8 -->
<g id="edge13" class="edge">
<title>Node10&#45;&gt;Node8</title>
<path fill="none" stroke="midnightblue" d="M545.86,-168.48C518.01,-160.59 476.97,-147.72 443,-132 427.43,-124.8 425.94,-118.32 410,-112 357.94,-91.36 294.72,-79.48 251.13,-73.17"/>
<polygon fill="midnightblue" stroke="midnightblue" points="251.43,-69.67 241.04,-71.75 250.46,-76.61 251.43,-69.67"/>
</g>
<!-- Node10&#45;&gt;Node11 -->
<g id="edge14" class="edge">
<title>Node10&#45;&gt;Node11</title>
<path fill="none" stroke="midnightblue" d="M583.45,-168.08C588.01,-160.61 594.67,-149.72 600.29,-140.52"/>
<polygon fill="midnightblue" stroke="midnightblue" points="603.42,-142.11 605.65,-131.75 597.45,-138.46 603.42,-142.11"/>
</g>
<!-- Node12 -->
<g id="node12" class="node">
<title>Node12</title>
<g id="a_node12"><a xlink:title=" ">
<polygon fill="none" stroke="#bfbfbf" points="707.5,-112.5 707.5,-131.5 748.5,-131.5 748.5,-112.5 707.5,-112.5"/>
<text text-anchor="middle" x="728" y="-119.5" font-family="Helvetica,sans-Serif" font-size="10.00">string</text>
</a>
</g>
</g>
<!-- Node10&#45;&gt;Node12 -->
<g id="edge16" class="edge">
<title>Node10&#45;&gt;Node12</title>
<path fill="none" stroke="midnightblue" d="M601.77,-168.44C627.67,-159.12 669.18,-144.18 697.47,-133.99"/>
<polygon fill="midnightblue" stroke="midnightblue" points="699.02,-137.15 707.24,-130.47 696.65,-130.57 699.02,-137.15"/>
</g>
<!-- Node11&#45;&gt;Node6 -->
<g id="edge15" class="edge">
<title>Node11&#45;&gt;Node6</title>
<path fill="none" stroke="midnightblue" d="M597.02,-112.32C583.45,-103.9 562.62,-90.97 546.68,-81.07"/>
<polygon fill="midnightblue" stroke="midnightblue" points="548.29,-77.95 537.94,-75.65 544.59,-83.9 548.29,-77.95"/>
</g>
<!-- Node13&#45;&gt;Node3 -->
<g id="edge21" class="edge">
<title>Node13&#45;&gt;Node3</title>
<path fill="none" stroke="midnightblue" d="M94.28,-168.42C98.08,-146.19 111.38,-86.31 148,-56 190.66,-20.69 256.71,-12.32 297.27,-10.76"/>
<polygon fill="midnightblue" stroke="midnightblue" points="297.6,-14.25 307.5,-10.49 297.41,-7.25 297.6,-14.25"/>
</g>
<!-- Node13&#45;&gt;Node6 -->
<g id="edge22" class="edge">
<title>Node13&#45;&gt;Node6</title>
<path fill="none" stroke="midnightblue" d="M126,-168.48C156.5,-160.27 202.86,-146.92 242,-132 261.69,-124.49 264.93,-118.44 285,-112 353.91,-89.87 437.7,-77.2 485.54,-71.24"/>
<polygon fill="midnightblue" stroke="midnightblue" points="485.97,-74.72 495.47,-70.04 485.12,-67.77 485.97,-74.72"/>
</g>
<!-- Node13&#45;&gt;Node7 -->
<g id="edge23" class="edge">
<title>Node13&#45;&gt;Node7</title>
<path fill="none" stroke="midnightblue" d="M110.03,-168.32C127.03,-159.66 153.38,-146.24 172.99,-136.25"/>
<polygon fill="midnightblue" stroke="midnightblue" points="174.69,-139.31 182.01,-131.65 171.51,-133.08 174.69,-139.31"/>
</g>
<!-- Node14&#45;&gt;Node4 -->
<g id="edge29" class="edge">
<title>Node14&#45;&gt;Node4</title>
<path fill="none" stroke="midnightblue" d="M320.34,-224.37C331.51,-206.3 357.55,-164.18 372.3,-140.31"/>
<polygon fill="midnightblue" stroke="midnightblue" points="375.41,-141.94 377.69,-131.59 369.45,-138.26 375.41,-141.94"/>
</g>
<!-- Node14&#45;&gt;Node6 -->
<g id="edge27" class="edge">
<title>Node14&#45;&gt;Node6</title>
<path fill="none" stroke="midnightblue" d="M315.37,-224.21C316.78,-201.97 323.64,-143.07 357,-112 391.94,-79.45 447.93,-69.97 485.32,-67.47"/>
<polygon fill="midnightblue" stroke="midnightblue" points="485.54,-70.96 495.34,-66.93 485.17,-63.97 485.54,-70.96"/>
</g>
<!-- Node14&#45;&gt;Node8 -->
<g id="edge26" class="edge">
<title>Node14&#45;&gt;Node8</title>
<path fill="none" stroke="midnightblue" d="M275.92,-232.84C205.18,-231.63 60.32,-224.63 29,-188 -14.24,-137.43 92.08,-97.14 155.61,-78.41"/>
<polygon fill="midnightblue" stroke="midnightblue" points="156.76,-81.72 165.4,-75.59 154.83,-74.99 156.76,-81.72"/>
</g>
<!-- Node14&#45;&gt;Node13 -->
<g id="edge28" class="edge">
<title>Node14&#45;&gt;Node13</title>
<path fill="none" stroke="midnightblue" d="M279.82,-224.44C241.42,-215.1 179.82,-200.12 137.94,-189.93"/>
<polygon fill="midnightblue" stroke="midnightblue" points="138.56,-186.48 128.01,-187.52 136.9,-193.28 138.56,-186.48"/>
</g>
<!-- Node15&#45;&gt;Node7 -->
<g id="edge33" class="edge">
<title>Node15&#45;&gt;Node7</title>
<path fill="none" stroke="midnightblue" d="M44.01,-224.17C32.94,-210.83 15.71,-185.26 29,-168 44.29,-148.14 109.91,-135.24 155,-128.55"/>
<polygon fill="midnightblue" stroke="midnightblue" points="155.73,-131.98 165.13,-127.09 154.74,-125.05 155.73,-131.98"/>
</g>
<!-- Node15&#45;&gt;Node8 -->
<g id="edge32" class="edge">
<title>Node15&#45;&gt;Node8</title>
<path fill="none" stroke="midnightblue" d="M41.84,-224.19C33.09,-215.87 21.1,-202.54 16,-188 4.44,-155.04 10.41,-135.77 36,-112 65.85,-84.27 111.25,-73.38 146.56,-69.22"/>
<polygon fill="midnightblue" stroke="midnightblue" points="147.11,-72.68 156.7,-68.18 146.39,-65.72 147.11,-72.68"/>
</g>
<!-- Node15&#45;&gt;Node13 -->
<g id="edge34" class="edge">
<title>Node15&#45;&gt;Node13</title>
<path fill="none" stroke="midnightblue" d="M58.77,-224.08C64.56,-216.46 73.06,-205.26 80.14,-195.94"/>
<polygon fill="midnightblue" stroke="midnightblue" points="83.1,-197.83 86.36,-187.75 77.52,-193.6 83.1,-197.83"/>
</g>
<!-- Node16&#45;&gt;Node14 -->
<g id="edge36" class="edge">
<title>Node16&#45;&gt;Node14</title>
<path fill="none" stroke="midnightblue" d="M327.52,-280.08C325.51,-272.85 322.61,-262.41 320.11,-253.4"/>
<polygon fill="midnightblue" stroke="midnightblue" points="323.48,-252.45 317.43,-243.75 316.74,-254.32 323.48,-252.45"/>
</g>
<!-- Node17&#45;&gt;Node6 -->
<g id="edge38" class="edge">
<title>Node17&#45;&gt;Node6</title>
<path fill="none" stroke="midnightblue" d="M737.68,-168.22C751.17,-154.94 772.41,-129.44 758,-112 733.71,-82.59 622.97,-72.2 562.95,-68.69"/>
<polygon fill="midnightblue" stroke="midnightblue" points="562.89,-65.18 552.72,-68.13 562.51,-72.17 562.89,-65.18"/>
</g>
<!-- Node17&#45;&gt;Node12 -->
<g id="edge39" class="edge">
<title>Node17&#45;&gt;Node12</title>
<path fill="none" stroke="midnightblue" d="M728,-168.08C728,-161.01 728,-150.86 728,-141.99"/>
<polygon fill="midnightblue" stroke="midnightblue" points="731.5,-141.75 728,-131.75 724.5,-141.75 731.5,-141.75"/>
</g>
</g>
</svg>
