<?xml version="1.0" encoding="UTF-8" standalone="no"?>
<!DOCTYPE svg PUBLIC "-//W3C//DTD SVG 1.1//EN"
 "http://www.w3.org/Graphics/SVG/1.1/DTD/svg11.dtd">
<!-- Generated by graphviz version 2.44.0 ()
 -->
<!-- Title: src/Physics/PhysicsSystem.cpp Pages: 1 -->
<!--zoomable 308 -->
<svg id="main" version="1.1" xmlns="http://www.w3.org/2000/svg" xmlns:xlink="http://www.w3.org/1999/xlink" xml:space="preserve" onload="init(evt)">
<style type="text/css"><![CDATA[
.edge:hover path { stroke: red; }
.edge:hover polygon { stroke: red; fill: red; }
]]></style>
<script type="text/javascript"><![CDATA[
var edges = document.getElementsByTagName('g');
if (edges && edges.length) {
  for (var i=0;i<edges.length;i++) {
    if (edges[i].id.substr(0,4)=='edge') {
      edges[i].setAttribute('class','edge');
    }
  }
}
]]></script>
        <defs>
                <circle id="rim" cx="0" cy="0" r="7"/>
                <circle id="rim2" cx="0" cy="0" r="3.5"/>
                <g id="zoomPlus">
                        <use xlink:href="#rim" fill="#404040">
                                <set attributeName="fill" to="#808080" begin="zoomplus.mouseover" end="zoomplus.mouseout"/>
                        </use>
                        <path d="M-4,0h8M0,-4v8" fill="none" stroke="white" stroke-width="1.5" pointer-events="none"/>
                </g>
                <g id="zoomMin">
                        <use xlink:href="#rim" fill="#404040">
                                <set attributeName="fill" to="#808080" begin="zoomminus.mouseover" end="zoomminus.mouseout"/>
                        </use>
                        <path d="M-4,0h8" fill="none" stroke="white" stroke-width="1.5" pointer-events="none"/>
                </g>
                <g id="dirArrow">
                        <path fill="none" stroke="white" stroke-width="1.5" d="M0,-3.0v7 M-2.5,-0.5L0,-3.0L2.5,-0.5"/>
                </g>
               <g id="resetDef">
                       <use xlink:href="#rim2" fill="#404040">
                               <set attributeName="fill" to="#808080" begin="reset.mouseover" end="reset.mouseout"/>
                       </use>
               </g>
        </defs>

<script type="text/javascript">
var viewWidth = 733;
var viewHeight = 308;
var sectionId = 'dynsection-0';
</script>
<script xlink:href="svgpan.js"/>
<svg id="graph" class="graph">
<g id="viewport">
<title>src/Physics/PhysicsSystem.cpp</title>
<!-- Node1 -->
<g id="node1" class="node">
<title>Node1</title>
<g id="a_node1"><a xlink:title=" ">
<polygon fill="#bfbfbf" stroke="black" points="366.3,-280.5 366.3,-299.5 522.3,-299.5 522.3,-280.5 366.3,-280.5"/>
<text text-anchor="middle" x="444.3" y="-287.5" font-family="Helvetica,sans-Serif" font-size="10.00">src/Physics/PhysicsSystem.cpp</text>
</a>
</g>
</g>
<!-- Node2 -->
<g id="node2" class="node">
<title>Node2</title>
<g id="a_node2"><a xlink:href="PhysicsSystem_8hpp.html" target="_top" xlink:title=" ">
<polygon fill="none" stroke="black" points="300.3,-224.5 300.3,-243.5 440.3,-243.5 440.3,-224.5 300.3,-224.5"/>
<text text-anchor="middle" x="370.3" y="-231.5" font-family="Helvetica,sans-Serif" font-size="10.00">Physics/PhysicsSystem.hpp</text>
</a>
</g>
</g>
<!-- Node1&#45;&gt;Node2 -->
<g id="edge1" class="edge">
<title>Node1&#45;&gt;Node2</title>
<path fill="none" stroke="midnightblue" d="M432.41,-280.32C421.15,-272.11 404.01,-259.6 390.59,-249.81"/>
<polygon fill="midnightblue" stroke="midnightblue" points="392.54,-246.9 382.4,-243.83 388.42,-252.56 392.54,-246.9"/>
</g>
<!-- Node10 -->
<g id="node10" class="node">
<title>Node10</title>
<g id="a_node10"><a xlink:href="GameObject_8hpp.html" target="_top" xlink:title=" ">
<polygon fill="none" stroke="black" points="474.8,-168.5 474.8,-187.5 563.8,-187.5 563.8,-168.5 474.8,-168.5"/>
<text text-anchor="middle" x="519.3" y="-175.5" font-family="Helvetica,sans-Serif" font-size="10.00">GameObject.hpp</text>
</a>
</g>
</g>
<!-- Node1&#45;&gt;Node10 -->
<g id="edge23" class="edge">
<title>Node1&#45;&gt;Node10</title>
<path fill="none" stroke="midnightblue" d="M450.18,-280.37C462.56,-262.22 491.48,-219.8 507.71,-195.99"/>
<polygon fill="midnightblue" stroke="midnightblue" points="510.7,-197.83 513.44,-187.59 504.91,-193.88 510.7,-197.83"/>
</g>
<!-- Node11 -->
<g id="node11" class="node">
<title>Node11</title>
<g id="a_node11"><a xlink:href="Transform_8hpp.html" target="_top" xlink:title=" ">
<polygon fill="none" stroke="black" points="645.8,-112.5 645.8,-131.5 724.8,-131.5 724.8,-112.5 645.8,-112.5"/>
<text text-anchor="middle" x="685.3" y="-119.5" font-family="Helvetica,sans-Serif" font-size="10.00">Transform.hpp</text>
</a>
</g>
</g>
<!-- Node1&#45;&gt;Node11 -->
<g id="edge27" class="edge">
<title>Node1&#45;&gt;Node11</title>
<path fill="none" stroke="midnightblue" d="M456.91,-280.31C496.04,-253.36 615.59,-171.01 664.31,-137.46"/>
<polygon fill="midnightblue" stroke="midnightblue" points="666.55,-140.16 672.8,-131.61 662.58,-134.4 666.55,-140.16"/>
</g>
<!-- Node14 -->
<g id="node14" class="node">
<title>Node14</title>
<g id="a_node14"><a xlink:href="RigidBody_8hpp.html" target="_top" xlink:title=" ">
<polygon fill="none" stroke="black" points="77.3,-112.5 77.3,-131.5 155.3,-131.5 155.3,-112.5 77.3,-112.5"/>
<text text-anchor="middle" x="116.3" y="-119.5" font-family="Helvetica,sans-Serif" font-size="10.00">RigidBody.hpp</text>
</a>
</g>
</g>
<!-- Node1&#45;&gt;Node14 -->
<g id="edge24" class="edge">
<title>Node1&#45;&gt;Node14</title>
<path fill="none" stroke="midnightblue" d="M366.07,-287.11C267.2,-283.51 103.61,-273.22 51.3,-244 17.22,-224.97 -14.41,-200.44 7.3,-168 20.78,-147.84 45.13,-136.7 67.4,-130.55"/>
<polygon fill="midnightblue" stroke="midnightblue" points="68.24,-133.95 77.1,-128.14 66.55,-127.16 68.24,-133.95"/>
</g>
<!-- Node15 -->
<g id="node15" class="node">
<title>Node15</title>
<g id="a_node15"><a xlink:href="BehaviourScript_8hpp.html" target="_top" xlink:title=" ">
<polygon fill="none" stroke="black" points="60.3,-224.5 60.3,-243.5 164.3,-243.5 164.3,-224.5 60.3,-224.5"/>
<text text-anchor="middle" x="112.3" y="-231.5" font-family="Helvetica,sans-Serif" font-size="10.00">BehaviourScript.hpp</text>
</a>
</g>
</g>
<!-- Node1&#45;&gt;Node15 -->
<g id="edge28" class="edge">
<title>Node1&#45;&gt;Node15</title>
<path fill="none" stroke="midnightblue" d="M391.69,-280.44C332.71,-270.85 237.16,-255.31 174.53,-245.12"/>
<polygon fill="midnightblue" stroke="midnightblue" points="174.81,-241.62 164.38,-243.47 173.69,-248.53 174.81,-241.62"/>
</g>
<!-- Node16 -->
<g id="node16" class="node">
<title>Node16</title>
<g id="a_node16"><a xlink:title=" ">
<polygon fill="none" stroke="#bfbfbf" points="620.3,-224.5 620.3,-243.5 676.3,-243.5 676.3,-224.5 620.3,-224.5"/>
<text text-anchor="middle" x="648.3" y="-231.5" font-family="Helvetica,sans-Serif" font-size="10.00">algorithm</text>
</a>
</g>
</g>
<!-- Node1&#45;&gt;Node16 -->
<g id="edge32" class="edge">
<title>Node1&#45;&gt;Node16</title>
<path fill="none" stroke="midnightblue" d="M476.62,-280.44C512.92,-270.83 571.78,-255.25 610.27,-245.07"/>
<polygon fill="midnightblue" stroke="midnightblue" points="611.29,-248.42 620.06,-242.47 609.5,-241.65 611.29,-248.42"/>
</g>
<!-- Node3 -->
<g id="node3" class="node">
<title>Node3</title>
<g id="a_node3"><a xlink:title=" ">
<polygon fill="none" stroke="#bfbfbf" points="266.8,-0.5 266.8,-19.5 317.8,-19.5 317.8,-0.5 266.8,-0.5"/>
<text text-anchor="middle" x="292.3" y="-7.5" font-family="Helvetica,sans-Serif" font-size="10.00">memory</text>
</a>
</g>
</g>
<!-- Node2&#45;&gt;Node3 -->
<g id="edge2" class="edge">
<title>Node2&#45;&gt;Node3</title>
<path fill="none" stroke="midnightblue" d="M371.23,-224.21C373.7,-197.16 378.13,-113.52 346.3,-56 339.3,-43.36 327.23,-32.79 316.28,-25.08"/>
<polygon fill="midnightblue" stroke="midnightblue" points="318.12,-22.1 307.84,-19.52 314.27,-27.94 318.12,-22.1"/>
</g>
<!-- Node4 -->
<g id="node4" class="node">
<title>Node4</title>
<g id="a_node4"><a xlink:title=" ">
<polygon fill="none" stroke="#bfbfbf" points="455.8,-112.5 455.8,-131.5 490.8,-131.5 490.8,-112.5 455.8,-112.5"/>
<text text-anchor="middle" x="473.3" y="-119.5" font-family="Helvetica,sans-Serif" font-size="10.00">map</text>
</a>
</g>
</g>
<!-- Node2&#45;&gt;Node4 -->
<g id="edge3" class="edge">
<title>Node2&#45;&gt;Node4</title>
<path fill="none" stroke="midnightblue" d="M378.38,-224.37C395.6,-205.97 436.15,-162.67 458.27,-139.05"/>
<polygon fill="midnightblue" stroke="midnightblue" points="460.97,-141.28 465.25,-131.59 455.86,-136.5 460.97,-141.28"/>
</g>
<!-- Node5 -->
<g id="node5" class="node">
<title>Node5</title>
<g id="a_node5"><a xlink:title=" ">
<polygon fill="none" stroke="#bfbfbf" points="393.3,-112.5 393.3,-131.5 437.3,-131.5 437.3,-112.5 393.3,-112.5"/>
<text text-anchor="middle" x="415.3" y="-119.5" font-family="Helvetica,sans-Serif" font-size="10.00">vector</text>
</a>
</g>
</g>
<!-- Node2&#45;&gt;Node5 -->
<g id="edge4" class="edge">
<title>Node2&#45;&gt;Node5</title>
<path fill="none" stroke="midnightblue" d="M373.83,-224.37C381.15,-206.46 398.15,-164.92 407.95,-140.95"/>
<polygon fill="midnightblue" stroke="midnightblue" points="411.23,-142.17 411.78,-131.59 404.76,-139.52 411.23,-142.17"/>
</g>
<!-- Node6 -->
<g id="node6" class="node">
<title>Node6</title>
<g id="a_node6"><a xlink:href="Point_8hpp.html" target="_top" xlink:title=" ">
<polygon fill="none" stroke="black" points="279.8,-56.5 279.8,-75.5 336.8,-75.5 336.8,-56.5 279.8,-56.5"/>
<text text-anchor="middle" x="308.3" y="-63.5" font-family="Helvetica,sans-Serif" font-size="10.00">Point.hpp</text>
</a>
</g>
</g>
<!-- Node2&#45;&gt;Node6 -->
<g id="edge5" class="edge">
<title>Node2&#45;&gt;Node6</title>
<path fill="none" stroke="midnightblue" d="M366.96,-224.08C357.16,-197.83 328.29,-120.55 315.06,-85.12"/>
<polygon fill="midnightblue" stroke="midnightblue" points="318.27,-83.71 311.5,-75.57 311.72,-86.16 318.27,-83.71"/>
</g>
<!-- Node7 -->
<g id="node7" class="node">
<title>Node7</title>
<g id="a_node7"><a xlink:href="Collider_8hpp.html" target="_top" xlink:title=" ">
<polygon fill="none" stroke="black" points="211.8,-112.5 211.8,-131.5 278.8,-131.5 278.8,-112.5 211.8,-112.5"/>
<text text-anchor="middle" x="245.3" y="-119.5" font-family="Helvetica,sans-Serif" font-size="10.00">Collider.hpp</text>
</a>
</g>
</g>
<!-- Node2&#45;&gt;Node7 -->
<g id="edge6" class="edge">
<title>Node2&#45;&gt;Node7</title>
<path fill="none" stroke="midnightblue" d="M360.29,-224.41C349.79,-215.39 332.83,-200.76 318.3,-188 299.32,-171.34 277.74,-152.09 263,-138.89"/>
<polygon fill="midnightblue" stroke="midnightblue" points="264.96,-135.94 255.17,-131.88 260.28,-141.16 264.96,-135.94"/>
</g>
<!-- Node9 -->
<g id="node9" class="node">
<title>Node9</title>
<g id="a_node9"><a xlink:href="BoxCollider_8hpp.html" target="_top" xlink:title=" ">
<polygon fill="none" stroke="black" points="182.8,-168.5 182.8,-187.5 265.8,-187.5 265.8,-168.5 182.8,-168.5"/>
<text text-anchor="middle" x="224.3" y="-175.5" font-family="Helvetica,sans-Serif" font-size="10.00">BoxCollider.hpp</text>
</a>
</g>
</g>
<!-- Node2&#45;&gt;Node9 -->
<g id="edge9" class="edge">
<title>Node2&#45;&gt;Node9</title>
<path fill="none" stroke="midnightblue" d="M347.16,-224.44C322.81,-215.44 284.29,-201.19 256.87,-191.05"/>
<polygon fill="midnightblue" stroke="midnightblue" points="257.91,-187.7 247.32,-187.52 255.49,-194.27 257.91,-187.7"/>
</g>
<!-- Node2&#45;&gt;Node10 -->
<g id="edge11" class="edge">
<title>Node2&#45;&gt;Node10</title>
<path fill="none" stroke="midnightblue" d="M393.9,-224.44C418.75,-215.44 458.07,-201.19 486.05,-191.05"/>
<polygon fill="midnightblue" stroke="midnightblue" points="487.59,-194.21 495.8,-187.52 485.2,-187.63 487.59,-194.21"/>
</g>
<!-- Node13 -->
<g id="node13" class="node">
<title>Node13</title>
<g id="a_node13"><a xlink:href="Collision_8hpp.html" target="_top" xlink:title=" ">
<polygon fill="none" stroke="black" points="16.8,-168.5 16.8,-187.5 125.8,-187.5 125.8,-168.5 16.8,-168.5"/>
<text text-anchor="middle" x="71.3" y="-175.5" font-family="Helvetica,sans-Serif" font-size="10.00">Physics/Collision.hpp</text>
</a>
</g>
</g>
<!-- Node2&#45;&gt;Node13 -->
<g id="edge19" class="edge">
<title>Node2&#45;&gt;Node13</title>
<path fill="none" stroke="midnightblue" d="M322.92,-224.44C270.21,-214.92 185.07,-199.55 128.64,-189.36"/>
<polygon fill="midnightblue" stroke="midnightblue" points="128.91,-185.85 118.45,-187.52 127.67,-192.74 128.91,-185.85"/>
</g>
<!-- Node8 -->
<g id="node8" class="node">
<title>Node8</title>
<g id="a_node8"><a xlink:href="Component_8hpp.html" target="_top" xlink:title=" ">
<polygon fill="none" stroke="black" points="177.3,-56.5 177.3,-75.5 261.3,-75.5 261.3,-56.5 177.3,-56.5"/>
<text text-anchor="middle" x="219.3" y="-63.5" font-family="Helvetica,sans-Serif" font-size="10.00">Component.hpp</text>
</a>
</g>
</g>
<!-- Node7&#45;&gt;Node8 -->
<g id="edge7" class="edge">
<title>Node7&#45;&gt;Node8</title>
<path fill="none" stroke="midnightblue" d="M241,-112.08C237.44,-104.69 232.27,-93.95 227.87,-84.81"/>
<polygon fill="midnightblue" stroke="midnightblue" points="231,-83.24 223.51,-75.75 224.69,-86.28 231,-83.24"/>
</g>
<!-- Node8&#45;&gt;Node3 -->
<g id="edge8" class="edge">
<title>Node8&#45;&gt;Node3</title>
<path fill="none" stroke="midnightblue" d="M231.02,-56.32C242.13,-48.11 259.04,-35.6 272.28,-25.81"/>
<polygon fill="midnightblue" stroke="midnightblue" points="274.4,-28.59 280.35,-19.83 270.23,-22.97 274.4,-28.59"/>
</g>
<!-- Node9&#45;&gt;Node7 -->
<g id="edge10" class="edge">
<title>Node9&#45;&gt;Node7</title>
<path fill="none" stroke="midnightblue" d="M227.76,-168.08C230.61,-160.77 234.72,-150.18 238.26,-141.1"/>
<polygon fill="midnightblue" stroke="midnightblue" points="241.53,-142.34 241.89,-131.75 235.01,-139.8 241.53,-142.34"/>
</g>
<!-- Node10&#45;&gt;Node3 -->
<g id="edge17" class="edge">
<title>Node10&#45;&gt;Node3</title>
<path fill="none" stroke="midnightblue" d="M545.27,-168.5C574.62,-157.47 616.14,-136.68 598.3,-112 535.42,-25.04 394.97,-11.69 328.49,-10.46"/>
<polygon fill="midnightblue" stroke="midnightblue" points="328.14,-6.96 318.11,-10.36 328.07,-13.96 328.14,-6.96"/>
</g>
<!-- Node10&#45;&gt;Node4 -->
<g id="edge18" class="edge">
<title>Node10&#45;&gt;Node4</title>
<path fill="none" stroke="midnightblue" d="M511.7,-168.08C505.07,-160.3 495.27,-148.8 487.24,-139.37"/>
<polygon fill="midnightblue" stroke="midnightblue" points="489.9,-137.09 480.75,-131.75 484.57,-141.63 489.9,-137.09"/>
</g>
<!-- Node10&#45;&gt;Node5 -->
<g id="edge16" class="edge">
<title>Node10&#45;&gt;Node5</title>
<path fill="none" stroke="midnightblue" d="M502.59,-168.32C485.98,-159.7 460.29,-146.36 441.07,-136.39"/>
<polygon fill="midnightblue" stroke="midnightblue" points="442.45,-133.16 431.96,-131.65 439.23,-139.37 442.45,-133.16"/>
</g>
<!-- Node10&#45;&gt;Node8 -->
<g id="edge12" class="edge">
<title>Node10&#45;&gt;Node8</title>
<path fill="none" stroke="midnightblue" d="M519.49,-168.32C519.31,-154.21 516.72,-126.44 500.3,-112 463.65,-79.78 336.55,-83.83 271.78,-75.83"/>
<polygon fill="midnightblue" stroke="midnightblue" points="271.97,-72.32 261.57,-74.37 270.98,-79.25 271.97,-72.32"/>
</g>
<!-- Node10&#45;&gt;Node11 -->
<g id="edge13" class="edge">
<title>Node10&#45;&gt;Node11</title>
<path fill="none" stroke="midnightblue" d="M545.6,-168.44C573.65,-159.32 618.24,-144.81 649.48,-134.65"/>
<polygon fill="midnightblue" stroke="midnightblue" points="650.69,-137.94 659.12,-131.52 648.52,-131.28 650.69,-137.94"/>
</g>
<!-- Node12 -->
<g id="node12" class="node">
<title>Node12</title>
<g id="a_node12"><a xlink:title=" ">
<polygon fill="none" stroke="#bfbfbf" points="547.8,-112.5 547.8,-131.5 588.8,-131.5 588.8,-112.5 547.8,-112.5"/>
<text text-anchor="middle" x="568.3" y="-119.5" font-family="Helvetica,sans-Serif" font-size="10.00">string</text>
</a>
</g>
</g>
<!-- Node10&#45;&gt;Node12 -->
<g id="edge15" class="edge">
<title>Node10&#45;&gt;Node12</title>
<path fill="none" stroke="midnightblue" d="M527.39,-168.08C534.45,-160.3 544.88,-148.8 553.44,-139.37"/>
<polygon fill="midnightblue" stroke="midnightblue" points="556.23,-141.51 560.35,-131.75 551.04,-136.8 556.23,-141.51"/>
</g>
<!-- Node11&#45;&gt;Node6 -->
<g id="edge14" class="edge">
<title>Node11&#45;&gt;Node6</title>
<path fill="none" stroke="midnightblue" d="M645.66,-115.32C572.87,-104.9 418.75,-82.82 346.8,-72.52"/>
<polygon fill="midnightblue" stroke="midnightblue" points="347.2,-69.04 336.8,-71.08 346.2,-75.97 347.2,-69.04"/>
</g>
<!-- Node13&#45;&gt;Node3 -->
<g id="edge20" class="edge">
<title>Node13&#45;&gt;Node3</title>
<path fill="none" stroke="midnightblue" d="M68.08,-168.29C63.8,-155.11 57.9,-129.74 68.3,-112 107.45,-45.2 203.67,-22.35 256.37,-14.71"/>
<polygon fill="midnightblue" stroke="midnightblue" points="257.16,-18.14 266.61,-13.34 256.23,-11.2 257.16,-18.14"/>
</g>
<!-- Node13&#45;&gt;Node6 -->
<g id="edge22" class="edge">
<title>Node13&#45;&gt;Node6</title>
<path fill="none" stroke="midnightblue" d="M89.56,-168.39C108.38,-159.46 138.52,-145.02 164.3,-132 181.33,-123.4 185.05,-120.18 202.3,-112 227.09,-100.24 255.77,-88.15 277.04,-79.47"/>
<polygon fill="midnightblue" stroke="midnightblue" points="278.59,-82.62 286.54,-75.62 275.96,-76.13 278.59,-82.62"/>
</g>
<!-- Node13&#45;&gt;Node7 -->
<g id="edge21" class="edge">
<title>Node13&#45;&gt;Node7</title>
<path fill="none" stroke="midnightblue" d="M98.87,-168.44C128.39,-159.28 175.41,-144.69 208.18,-134.52"/>
<polygon fill="midnightblue" stroke="midnightblue" points="209.34,-137.82 217.85,-131.52 207.27,-131.14 209.34,-137.82"/>
</g>
<!-- Node14&#45;&gt;Node6 -->
<g id="edge26" class="edge">
<title>Node14&#45;&gt;Node6</title>
<path fill="none" stroke="midnightblue" d="M146.72,-112.44C180.06,-103.07 233.63,-88 269.86,-77.81"/>
<polygon fill="midnightblue" stroke="midnightblue" points="270.9,-81.15 279.58,-75.08 269.01,-74.41 270.9,-81.15"/>
</g>
<!-- Node14&#45;&gt;Node8 -->
<g id="edge25" class="edge">
<title>Node14&#45;&gt;Node8</title>
<path fill="none" stroke="midnightblue" d="M132.84,-112.32C149.29,-103.7 174.73,-90.36 193.76,-80.39"/>
<polygon fill="midnightblue" stroke="midnightblue" points="195.56,-83.4 202.79,-75.65 192.31,-77.2 195.56,-83.4"/>
</g>
<!-- Node15&#45;&gt;Node7 -->
<g id="edge30" class="edge">
<title>Node15&#45;&gt;Node7</title>
<path fill="none" stroke="midnightblue" d="M119.18,-224.33C129.88,-211.19 151.53,-185.88 173.3,-168 187.87,-156.02 205.86,-144.78 220.22,-136.52"/>
<polygon fill="midnightblue" stroke="midnightblue" points="222.05,-139.51 229.05,-131.55 218.62,-133.4 222.05,-139.51"/>
</g>
<!-- Node15&#45;&gt;Node8 -->
<g id="edge29" class="edge">
<title>Node15&#45;&gt;Node8</title>
<path fill="none" stroke="midnightblue" d="M68.57,-224.48C34.18,-215.38 -5.9,-198.03 7.3,-168 34.18,-106.81 113.57,-82.57 167.19,-73.05"/>
<polygon fill="midnightblue" stroke="midnightblue" points="167.93,-76.48 177.22,-71.39 166.78,-69.57 167.93,-76.48"/>
</g>
<!-- Node15&#45;&gt;Node13 -->
<g id="edge31" class="edge">
<title>Node15&#45;&gt;Node13</title>
<path fill="none" stroke="midnightblue" d="M105.53,-224.08C99.73,-216.46 91.24,-205.26 84.16,-195.94"/>
<polygon fill="midnightblue" stroke="midnightblue" points="86.77,-193.6 77.94,-187.75 81.2,-197.83 86.77,-193.6"/>
</g>
</g>
</svg>
        <g id="navigator" transform="translate(0 0)" fill="#404254">
                <rect fill="#f2f5e9" fill-opacity="0.5" stroke="#606060" stroke-width=".5" x="0" y="0" width="60" height="60"/>
                <use id="zoomplus" xlink:href="#zoomPlus" x="17" y="9" onmousedown="handleZoom(evt,'in')"/>
                <use id="zoomminus" xlink:href="#zoomMin" x="42" y="9" onmousedown="handleZoom(evt,'out')"/>
                <use id="reset" xlink:href="#resetDef" x="30" y="36" onmousedown="handleReset()"/>
                <g id="arrowUp" xlink:href="#dirArrow" transform="translate(30 24)" onmousedown="handlePan(0,-1)">
                  <use xlink:href="#rim" fill="#404040">
                        <set attributeName="fill" to="#808080" begin="arrowUp.mouseover" end="arrowUp.mouseout"/>
                  </use>
                  <path fill="none" stroke="white" stroke-width="1.5" d="M0,-3.0v7 M-2.5,-0.5L0,-3.0L2.5,-0.5"/>
                </g>
                <g id="arrowRight" xlink:href="#dirArrow" transform="rotate(90) translate(36 -43)" onmousedown="handlePan(1,0)">
                  <use xlink:href="#rim" fill="#404040">
                        <set attributeName="fill" to="#808080" begin="arrowRight.mouseover" end="arrowRight.mouseout"/>
                  </use>
                  <path fill="none" stroke="white" stroke-width="1.5" d="M0,-3.0v7 M-2.5,-0.5L0,-3.0L2.5,-0.5"/>
                </g>
                <g id="arrowDown" xlink:href="#dirArrow" transform="rotate(180) translate(-30 -48)" onmousedown="handlePan(0,1)">
                  <use xlink:href="#rim" fill="#404040">
                        <set attributeName="fill" to="#808080" begin="arrowDown.mouseover" end="arrowDown.mouseout"/>
                  </use>
                  <path fill="none" stroke="white" stroke-width="1.5" d="M0,-3.0v7 M-2.5,-0.5L0,-3.0L2.5,-0.5"/>
                </g>
                <g id="arrowLeft" xlink:href="#dirArrow" transform="rotate(270) translate(-36 17)" onmousedown="handlePan(-1,0)">
                  <use xlink:href="#rim" fill="#404040">
                        <set attributeName="fill" to="#808080" begin="arrowLeft.mouseover" end="arrowLeft.mouseout"/>
                  </use>
                  <path fill="none" stroke="white" stroke-width="1.5" d="M0,-3.0v7 M-2.5,-0.5L0,-3.0L2.5,-0.5"/>
                </g>
        </g>
        <svg viewBox="0 0 15 15" width="100%" height="30px" preserveAspectRatio="xMaxYMin meet">
         <g id="arrow_out" transform="scale(0.3 0.3)">
          <a xlink:href="PhysicsSystem_8cpp__incl_org.svg" target="_base">
           <rect id="button" ry="5" rx="5" y="6" x="6" height="38" width="38"
                fill="#f2f5e9" fill-opacity="0.5" stroke="#606060" stroke-width="1.0"/>
           <path id="arrow"
             d="M 11.500037,31.436501 C 11.940474,20.09759 22.043105,11.32322 32.158766,21.979434 L 37.068811,17.246167 C 37.068811,17.246167 37.088388,32 37.088388,32 L 22.160133,31.978069 C 22.160133,31.978069 26.997745,27.140456 26.997745,27.140456 C 18.528582,18.264221 13.291696,25.230495 11.500037,31.436501 z"
             style="fill:#404040;"/>
          </a>
         </g>
        </svg>
</svg>
