<?xml version="1.0" encoding="UTF-8" standalone="no"?>
<!DOCTYPE svg PUBLIC "-//W3C//DTD SVG 1.1//EN"
 "http://www.w3.org/Graphics/SVG/1.1/DTD/svg11.dtd">
<!-- Generated by graphviz version 2.44.0 ()
 -->
<!-- Title: includes/platformer&#45;engine/Physics/PhysicsSystem.hpp Pages: 1 -->
<svg width="2045pt" height="173pt"
 viewBox="0.00 0.00 2044.50 173.00" xmlns="http://www.w3.org/2000/svg" xmlns:xlink="http://www.w3.org/1999/xlink">
<g id="graph0" class="graph" transform="scale(1 1) rotate(0) translate(4 169)">
<title>includes/platformer&#45;engine/Physics/PhysicsSystem.hpp</title>
<!-- Node1 -->
<g id="node1" class="node">
<title>Node1</title>
<g id="a_node1"><a xlink:title=" ">
<polygon fill="#bfbfbf" stroke="black" points="810,-134.5 810,-164.5 984,-164.5 984,-134.5 810,-134.5"/>
<text text-anchor="start" x="818" y="-152.5" font-family="Helvetica,sans-Serif" font-size="10.00">includes/platformer</text>
<text text-anchor="middle" x="897" y="-141.5" font-family="Helvetica,sans-Serif" font-size="10.00">&#45;engine/Physics/PhysicsSystem.hpp</text>
</a>
</g>
</g>
<!-- Node2 -->
<g id="node2" class="node">
<title>Node2</title>
<g id="a_node2"><a xlink:href="PhysicsSystem_8cpp.html" target="_top" xlink:title=" ">
<polygon fill="none" stroke="black" points="738,-73 738,-92 894,-92 894,-73 738,-73"/>
<text text-anchor="middle" x="816" y="-80" font-family="Helvetica,sans-Serif" font-size="10.00">src/Physics/PhysicsSystem.cpp</text>
</a>
</g>
</g>
<!-- Node1&#45;&gt;Node2 -->
<g id="edge1" class="edge">
<title>Node1&#45;&gt;Node2</title>
<path fill="none" stroke="midnightblue" d="M871.46,-128.01C856.43,-115.94 838.19,-101.3 826.83,-92.19"/>
<polygon fill="midnightblue" stroke="midnightblue" points="869.43,-130.87 879.42,-134.4 873.82,-125.41 869.43,-130.87"/>
</g>
<!-- Node3 -->
<g id="node3" class="node">
<title>Node3</title>
<g id="a_node3"><a xlink:href="Engine_8hpp.html" target="_top" xlink:title=" ">
<polygon fill="none" stroke="black" points="912.5,-67.5 912.5,-97.5 1043.5,-97.5 1043.5,-67.5 912.5,-67.5"/>
<text text-anchor="start" x="920.5" y="-85.5" font-family="Helvetica,sans-Serif" font-size="10.00">includes/platformer</text>
<text text-anchor="middle" x="978" y="-74.5" font-family="Helvetica,sans-Serif" font-size="10.00">&#45;engine/Engine/Engine.hpp</text>
</a>
</g>
</g>
<!-- Node1&#45;&gt;Node3 -->
<g id="edge2" class="edge">
<title>Node1&#45;&gt;Node3</title>
<path fill="none" stroke="midnightblue" d="M922.69,-127.88C935,-118.01 949.43,-106.43 960.46,-97.58"/>
<polygon fill="midnightblue" stroke="midnightblue" points="920.18,-125.41 914.58,-134.4 924.57,-130.87 920.18,-125.41"/>
</g>
<!-- Node4 -->
<g id="node4" class="node">
<title>Node4</title>
<g id="a_node4"><a xlink:href="Animator_8cpp.html" target="_top" xlink:title=" ">
<polygon fill="none" stroke="black" points="0,-6 0,-25 110,-25 110,-6 0,-6"/>
<text text-anchor="middle" x="55" y="-13" font-family="Helvetica,sans-Serif" font-size="10.00">src/API/Animator.cpp</text>
</a>
</g>
</g>
<!-- Node3&#45;&gt;Node4 -->
<g id="edge3" class="edge">
<title>Node3&#45;&gt;Node4</title>
<path fill="none" stroke="midnightblue" d="M902.15,-67.04C554.86,-26.77 461.38,-77.27 119,-31 108.73,-29.61 97.67,-27.38 87.68,-25.08"/>
<polygon fill="midnightblue" stroke="midnightblue" points="901.89,-70.53 912.23,-68.23 902.71,-63.58 901.89,-70.53"/>
</g>
<!-- Node5 -->
<g id="node5" class="node">
<title>Node5</title>
<g id="a_node5"><a xlink:href="RigidBody_8cpp.html" target="_top" xlink:title=" ">
<polygon fill="none" stroke="black" points="128,-6 128,-25 242,-25 242,-6 128,-6"/>
<text text-anchor="middle" x="185" y="-13" font-family="Helvetica,sans-Serif" font-size="10.00">src/API/RigidBody.cpp</text>
</a>
</g>
</g>
<!-- Node3&#45;&gt;Node5 -->
<g id="edge4" class="edge">
<title>Node3&#45;&gt;Node5</title>
<path fill="none" stroke="midnightblue" d="M902.3,-67.05C613.23,-32.24 535.32,-69.82 251,-31 240.42,-29.56 229.03,-27.31 218.73,-25.01"/>
<polygon fill="midnightblue" stroke="midnightblue" points="901.88,-70.52 912.23,-68.26 902.73,-63.57 901.88,-70.52"/>
</g>
<!-- Node6 -->
<g id="node6" class="node">
<title>Node6</title>
<g id="a_node6"><a xlink:href="CollisionBehaviour_8cpp.html" target="_top" xlink:title=" ">
<polygon fill="none" stroke="black" points="260,-6 260,-25 438,-25 438,-6 260,-6"/>
<text text-anchor="middle" x="349" y="-13" font-family="Helvetica,sans-Serif" font-size="10.00">src/Behaviour/CollisionBehaviour.cpp</text>
</a>
</g>
</g>
<!-- Node3&#45;&gt;Node6 -->
<g id="edge5" class="edge">
<title>Node3&#45;&gt;Node6</title>
<path fill="none" stroke="midnightblue" d="M902.16,-67C699.82,-40.11 645.75,-53.52 447,-31 432.39,-29.34 416.61,-27.18 402.06,-25.02"/>
<polygon fill="midnightblue" stroke="midnightblue" points="901.84,-70.48 912.22,-68.35 902.77,-63.55 901.84,-70.48"/>
</g>
<!-- Node7 -->
<g id="node7" class="node">
<title>Node7</title>
<g id="a_node7"><a xlink:href="Debug_8cpp.html" target="_top" xlink:title=" ">
<polygon fill="none" stroke="black" points="456,-6 456,-25 566,-25 566,-6 456,-6"/>
<text text-anchor="middle" x="511" y="-13" font-family="Helvetica,sans-Serif" font-size="10.00">src/Debug/Debug.cpp</text>
</a>
</g>
</g>
<!-- Node3&#45;&gt;Node7 -->
<g id="edge6" class="edge">
<title>Node3&#45;&gt;Node7</title>
<path fill="none" stroke="midnightblue" d="M901.98,-66.94C756.22,-45.5 716.39,-54.7 575,-31 565.34,-29.38 554.94,-27.21 545.4,-25.05"/>
<polygon fill="midnightblue" stroke="midnightblue" points="901.79,-70.45 912.2,-68.46 902.83,-63.52 901.79,-70.45"/>
</g>
<!-- Node8 -->
<g id="node8" class="node">
<title>Node8</title>
<g id="a_node8"><a xlink:href="GameObjectDirector_8cpp.html" target="_top" xlink:title=" ">
<polygon fill="none" stroke="black" points="584,-6 584,-25 760,-25 760,-6 584,-6"/>
<text text-anchor="middle" x="672" y="-13" font-family="Helvetica,sans-Serif" font-size="10.00">src/Director/GameObjectDirector.cpp</text>
</a>
</g>
</g>
<!-- Node3&#45;&gt;Node8 -->
<g id="edge7" class="edge">
<title>Node3&#45;&gt;Node8</title>
<path fill="none" stroke="midnightblue" d="M902.52,-65.47C842.37,-52.69 760.5,-35.3 712.25,-25.05"/>
<polygon fill="midnightblue" stroke="midnightblue" points="901.85,-68.9 912.36,-67.56 903.3,-62.05 901.85,-68.9"/>
</g>
<!-- Node9 -->
<g id="node9" class="node">
<title>Node9</title>
<g id="a_node9"><a xlink:href="Engine_8cpp.html" target="_top" xlink:title=" ">
<polygon fill="none" stroke="black" points="778.5,-6 778.5,-25 891.5,-25 891.5,-6 778.5,-6"/>
<text text-anchor="middle" x="835" y="-13" font-family="Helvetica,sans-Serif" font-size="10.00">src/Engine/Engine.cpp</text>
</a>
</g>
</g>
<!-- Node3&#45;&gt;Node9 -->
<g id="edge8" class="edge">
<title>Node3&#45;&gt;Node9</title>
<path fill="none" stroke="midnightblue" d="M937.59,-63.13C910.07,-50.62 874.91,-34.64 853.72,-25.01"/>
<polygon fill="midnightblue" stroke="midnightblue" points="936.42,-66.44 946.97,-67.4 939.32,-60.07 936.42,-66.44"/>
</g>
<!-- Node10 -->
<g id="node10" class="node">
<title>Node10</title>
<g id="a_node10"><a xlink:href="TMXParser_8cpp.html" target="_top" xlink:title=" ">
<polygon fill="none" stroke="black" points="910,-6 910,-25 1046,-25 1046,-6 910,-6"/>
<text text-anchor="middle" x="978" y="-13" font-family="Helvetica,sans-Serif" font-size="10.00">src/Facade/TMXParser.cpp</text>
</a>
</g>
</g>
<!-- Node3&#45;&gt;Node10 -->
<g id="edge9" class="edge">
<title>Node3&#45;&gt;Node10</title>
<path fill="none" stroke="midnightblue" d="M978,-57.25C978,-46.02 978,-33.38 978,-25.19"/>
<polygon fill="midnightblue" stroke="midnightblue" points="974.5,-57.4 978,-67.4 981.5,-57.4 974.5,-57.4"/>
</g>
<!-- Node11 -->
<g id="node11" class="node">
<title>Node11</title>
<g id="a_node11"><a xlink:href="ClientNetworkManager_8cpp.html" target="_top" xlink:title=" ">
<polygon fill="none" stroke="black" points="1064.5,-0.5 1064.5,-30.5 1211.5,-30.5 1211.5,-0.5 1064.5,-0.5"/>
<text text-anchor="start" x="1072.5" y="-18.5" font-family="Helvetica,sans-Serif" font-size="10.00">src/Networking/ClientNetwork</text>
<text text-anchor="middle" x="1138" y="-7.5" font-family="Helvetica,sans-Serif" font-size="10.00">Manager.cpp</text>
</a>
</g>
</g>
<!-- Node3&#45;&gt;Node11 -->
<g id="edge10" class="edge">
<title>Node3&#45;&gt;Node11</title>
<path fill="none" stroke="midnightblue" d="M1022.2,-63.54C1047.8,-53.14 1079.57,-40.24 1103.35,-30.58"/>
<polygon fill="midnightblue" stroke="midnightblue" points="1020.66,-60.39 1012.72,-67.4 1023.3,-66.87 1020.66,-60.39"/>
</g>
<!-- Node12 -->
<g id="node12" class="node">
<title>Node12</title>
<g id="a_node12"><a xlink:href="ServerNetworkManager_8cpp.html" target="_top" xlink:title=" ">
<polygon fill="none" stroke="black" points="1229.5,-0.5 1229.5,-30.5 1380.5,-30.5 1380.5,-0.5 1229.5,-0.5"/>
<text text-anchor="start" x="1237.5" y="-18.5" font-family="Helvetica,sans-Serif" font-size="10.00">src/Networking/ServerNetwork</text>
<text text-anchor="middle" x="1305" y="-7.5" font-family="Helvetica,sans-Serif" font-size="10.00">Manager.cpp</text>
</a>
</g>
</g>
<!-- Node3&#45;&gt;Node12 -->
<g id="edge11" class="edge">
<title>Node3&#45;&gt;Node12</title>
<path fill="none" stroke="midnightblue" d="M1053.73,-66.45C1108.24,-55.61 1181.25,-41.1 1234.51,-30.51"/>
<polygon fill="midnightblue" stroke="midnightblue" points="1052.91,-63.04 1043.78,-68.42 1054.27,-69.91 1052.91,-63.04"/>
</g>
<!-- Node13 -->
<g id="node13" class="node">
<title>Node13</title>
<g id="a_node13"><a xlink:href="PlayerRigidBody_8cpp.html" target="_top" xlink:title=" ">
<polygon fill="none" stroke="black" points="1398.5,-6 1398.5,-25 1557.5,-25 1557.5,-6 1398.5,-6"/>
<text text-anchor="middle" x="1478" y="-13" font-family="Helvetica,sans-Serif" font-size="10.00">src/Physics/PlayerRigidBody.cpp</text>
</a>
</g>
</g>
<!-- Node3&#45;&gt;Node13 -->
<g id="edge12" class="edge">
<title>Node3&#45;&gt;Node13</title>
<path fill="none" stroke="midnightblue" d="M1053.83,-73.16C1136.58,-63.83 1272.91,-47.82 1390,-31 1402.41,-29.22 1415.78,-27.11 1428.26,-25.06"/>
<polygon fill="midnightblue" stroke="midnightblue" points="1053.3,-69.69 1043.76,-74.29 1054.09,-76.65 1053.3,-69.69"/>
</g>
<!-- Node14 -->
<g id="node14" class="node">
<title>Node14</title>
<g id="a_node14"><a xlink:href="RenderSystem_8cpp.html" target="_top" xlink:title=" ">
<polygon fill="none" stroke="black" points="1575,-6 1575,-25 1725,-25 1725,-6 1575,-6"/>
<text text-anchor="middle" x="1650" y="-13" font-family="Helvetica,sans-Serif" font-size="10.00">src/Texture/RenderSystem.cpp</text>
</a>
</g>
</g>
<!-- Node3&#45;&gt;Node14 -->
<g id="edge13" class="edge">
<title>Node3&#45;&gt;Node14</title>
<path fill="none" stroke="midnightblue" d="M1053.78,-77.13C1166.14,-70.17 1383.43,-54.86 1567,-31 1579.48,-29.38 1592.94,-27.21 1605.31,-25.05"/>
<polygon fill="midnightblue" stroke="midnightblue" points="1053.34,-73.65 1043.57,-77.76 1053.77,-80.64 1053.34,-73.65"/>
</g>
<!-- Node15 -->
<g id="node15" class="node">
<title>Node15</title>
<g id="a_node15"><a xlink:href="TextureManager_8cpp.html" target="_top" xlink:title=" ">
<polygon fill="none" stroke="black" points="1743,-6 1743,-25 1899,-25 1899,-6 1743,-6"/>
<text text-anchor="middle" x="1821" y="-13" font-family="Helvetica,sans-Serif" font-size="10.00">src/Texture/TextureManager.cpp</text>
</a>
</g>
</g>
<!-- Node3&#45;&gt;Node15 -->
<g id="edge14" class="edge">
<title>Node3&#45;&gt;Node15</title>
<path fill="none" stroke="midnightblue" d="M1054.02,-78.9C1190.54,-73.68 1486.16,-59.86 1734,-31 1747.38,-29.44 1761.85,-27.24 1775.07,-25.02"/>
<polygon fill="midnightblue" stroke="midnightblue" points="1053.54,-75.41 1043.68,-79.29 1053.8,-82.41 1053.54,-75.41"/>
</g>
<!-- Node16 -->
<g id="node16" class="node">
<title>Node16</title>
<g id="a_node16"><a xlink:href="ClickSystem_8cpp.html" target="_top" xlink:title=" ">
<polygon fill="none" stroke="black" points="1917.5,-6 1917.5,-25 2036.5,-25 2036.5,-6 1917.5,-6"/>
<text text-anchor="middle" x="1977" y="-13" font-family="Helvetica,sans-Serif" font-size="10.00">src/UI/ClickSystem.cpp</text>
</a>
</g>
</g>
<!-- Node3&#45;&gt;Node16 -->
<g id="edge15" class="edge">
<title>Node3&#45;&gt;Node16</title>
<path fill="none" stroke="midnightblue" d="M1053.87,-81.3C1212.93,-80.01 1592.69,-72.44 1908,-31 1918.92,-29.56 1930.69,-27.35 1941.37,-25.07"/>
<polygon fill="midnightblue" stroke="midnightblue" points="1053.69,-77.8 1043.71,-81.37 1053.74,-84.8 1053.69,-77.8"/>
</g>
</g>
</svg>
