<svg xmlns="http://www.w3.org/2000/svg" xmlns:xlink="http://www.w3.org/1999/xlink" width="832" height="173pt" viewBox="0 0 623.5 173"><g id="graph0" class="graph" transform="scale(1 1) rotate(0) translate(4 169)"><title>includes/platformer-engine/Physics/PhysicsSystem.hpp</title><g id="node1" class="node"><title>Node1</title><g id="a_node1"><a><polygon fill="#bfbfbf" stroke="#000" points="119.5 -134.5 119.5 -164.5 293.5 -164.5 293.5 -134.5 119.5 -134.5"/><text x="127.5" y="-152.5" font-family="Helvetica,sans-Serif" font-size="10" text-anchor="start">includes/platformer</text><text x="206.5" y="-141.5" font-family="Helvetica,sans-Serif" font-size="10" text-anchor="middle">-engine/Physics/PhysicsSystem.hpp</text></a></g></g><g id="node2" class="node"><title>Node2</title><g id="a_node2"><a target="_top" xlink:href="PhysicsSystem_8cpp.html"><polygon fill="none" stroke="#000" points="47.5 -73 47.5 -92 203.5 -92 203.5 -73 47.5 -73"/><text x="125.5" y="-80" font-family="Helvetica,sans-Serif" font-size="10" text-anchor="middle">src/Physics/PhysicsSystem.cpp</text></a></g></g><g id="edge1" class="edge"><title>Node1-&gt;Node2</title><path fill="none" stroke="#191970" d="M180.96,-128.01C165.93,-115.94 147.69,-101.3 136.33,-92.19"/><polygon fill="#191970" stroke="#191970" points="178.93 -130.87 188.92 -134.4 183.32 -125.41 178.93 -130.87"/></g><g id="node3" class="node"><title>Node3</title><g id="a_node3"><a target="_top" xlink:href="Engine_8hpp.html"><polygon fill="none" stroke="#000" points="222 -67.5 222 -97.5 353 -97.5 353 -67.5 222 -67.5"/><text x="230" y="-85.5" font-family="Helvetica,sans-Serif" font-size="10" text-anchor="start">includes/platformer</text><text x="287.5" y="-74.5" font-family="Helvetica,sans-Serif" font-size="10" text-anchor="middle">-engine/Engine/Engine.hpp</text></a></g></g><g id="edge2" class="edge"><title>Node1-&gt;Node3</title><path fill="none" stroke="#191970" d="M232.19,-127.88C244.5,-118.01 258.93,-106.43 269.96,-97.58"/><polygon fill="#191970" stroke="#191970" points="229.68 -125.41 224.08 -134.4 234.07 -130.87 229.68 -125.41"/></g><g id="node4" class="node"><title>Node4</title><g id="a_node4"><a target="_top" xlink:href="Engine_8cpp.html"><polygon fill="none" stroke="#000" points="0 -6 0 -25 113 -25 113 -6 0 -6"/><text x="56.5" y="-13" font-family="Helvetica,sans-Serif" font-size="10" text-anchor="middle">src/Engine/Engine.cpp</text></a></g></g><g id="edge3" class="edge"><title>Node3-&gt;Node4</title><path fill="none" stroke="#191970" d="M227.97,-64.75C182.8,-52.04 122.55,-35.09 86.81,-25.03"/><polygon fill="#191970" stroke="#191970" points="227.09 -68.14 237.66 -67.48 228.98 -61.4 227.09 -68.14"/></g><g id="node5" class="node"><title>Node5</title><g id="a_node5"><a target="_top" xlink:href="ClientNetworkManager_8cpp.html"><polygon fill="none" stroke="#000" points="131 -.5 131 -30.5 278 -30.5 278 -.5 131 -.5"/><text x="139" y="-18.5" font-family="Helvetica,sans-Serif" font-size="10" text-anchor="start">src/Networking/ClientNetwork</text><text x="204.5" y="-7.5" font-family="Helvetica,sans-Serif" font-size="10" text-anchor="middle">Manager.cpp</text></a></g></g><g id="edge4" class="edge"><title>Node3-&gt;Node5</title><path fill="none" stroke="#191970" d="M261.54,-61.17C248.85,-51.23 233.89,-39.51 222.47,-30.58"/><polygon fill="#191970" stroke="#191970" points="259.46 -63.99 269.49 -67.4 263.78 -58.47 259.46 -63.99"/></g><g id="node6" class="node"><title>Node6</title><g id="a_node6"><a target="_top" xlink:href="ServerNetworkManager_8cpp.html"><polygon fill="none" stroke="#000" points="296 -.5 296 -30.5 447 -30.5 447 -.5 296 -.5"/><text x="304" y="-18.5" font-family="Helvetica,sans-Serif" font-size="10" text-anchor="start">src/Networking/ServerNetwork</text><text x="371.5" y="-7.5" font-family="Helvetica,sans-Serif" font-size="10" text-anchor="middle">Manager.cpp</text></a></g></g><g id="edge5" class="edge"><title>Node3-&gt;Node6</title><path fill="none" stroke="#191970" d="M313.78,-61.17C326.62,-51.23 341.76,-39.51 353.31,-30.58"/><polygon fill="#191970" stroke="#191970" points="311.49 -58.51 305.73 -67.4 315.78 -64.04 311.49 -58.51"/></g><g id="node7" class="node"><title>Node7</title><g id="a_node7"><a target="_top" xlink:href="RenderSystem_8cpp.html"><polygon fill="none" stroke="#000" points="465.5 -6 465.5 -25 615.5 -25 615.5 -6 465.5 -6"/><text x="540.5" y="-13" font-family="Helvetica,sans-Serif" font-size="10" text-anchor="middle">src/Texture/RenderSystem.cpp</text></a></g></g><g id="edge6" class="edge"><title>Node3-&gt;Node7</title><path fill="none" stroke="#191970" d="M352.07,-64.91C401.62,-52.18 468,-35.13 507.3,-25.03"/><polygon fill="#191970" stroke="#191970" points="350.9 -61.6 342.09 -67.48 352.64 -68.38 350.9 -61.6"/></g></g></svg>