<?xml version="1.0" encoding="UTF-8" standalone="no"?>
<!DOCTYPE svg PUBLIC "-//W3C//DTD SVG 1.1//EN"
 "http://www.w3.org/Graphics/SVG/1.1/DTD/svg11.dtd">
<!-- Generated by graphviz version 2.44.0 ()
 -->
<!-- Title: includes/platformer&#45;engine/Physics/Templates/PhysicsTemplate.hpp Pages: 1 -->
<!--zoomable 429 -->
<svg id="main" version="1.1" xmlns="http://www.w3.org/2000/svg" xmlns:xlink="http://www.w3.org/1999/xlink" xml:space="preserve" onload="init(evt)">
<style type="text/css"><![CDATA[
.edge:hover path { stroke: red; }
.edge:hover polygon { stroke: red; fill: red; }
]]></style>
<script type="text/javascript"><![CDATA[
var edges = document.getElementsByTagName('g');
if (edges && edges.length) {
  for (var i=0;i<edges.length;i++) {
    if (edges[i].id.substr(0,4)=='edge') {
      edges[i].setAttribute('class','edge');
    }
  }
}
]]></script>
        <defs>
                <circle id="rim" cx="0" cy="0" r="7"/>
                <circle id="rim2" cx="0" cy="0" r="3.5"/>
                <g id="zoomPlus">
                        <use xlink:href="#rim" fill="#404040">
                                <set attributeName="fill" to="#808080" begin="zoomplus.mouseover" end="zoomplus.mouseout"/>
                        </use>
                        <path d="M-4,0h8M0,-4v8" fill="none" stroke="white" stroke-width="1.5" pointer-events="none"/>
                </g>
                <g id="zoomMin">
                        <use xlink:href="#rim" fill="#404040">
                                <set attributeName="fill" to="#808080" begin="zoomminus.mouseover" end="zoomminus.mouseout"/>
                        </use>
                        <path d="M-4,0h8" fill="none" stroke="white" stroke-width="1.5" pointer-events="none"/>
                </g>
                <g id="dirArrow">
                        <path fill="none" stroke="white" stroke-width="1.5" d="M0,-3.0v7 M-2.5,-0.5L0,-3.0L2.5,-0.5"/>
                </g>
               <g id="resetDef">
                       <use xlink:href="#rim2" fill="#404040">
                               <set attributeName="fill" to="#808080" begin="reset.mouseover" end="reset.mouseout"/>
                       </use>
               </g>
        </defs>

<script type="text/javascript">
var viewWidth = 2705;
var viewHeight = 429;
var sectionId = 'dynsection-1';
</script>
<script xlink:href="svgpan.js"/>
<svg id="graph" class="graph">
<g id="viewport">
<title>includes/platformer&#45;engine/Physics/Templates/PhysicsTemplate.hpp</title>
<!-- Node1 -->
<g id="node1" class="node">
<title>Node1</title>
<g id="a_node1"><a xlink:title=" ">
<polygon fill="#bfbfbf" stroke="black" points="202,-379.5 202,-420.5 336,-420.5 336,-379.5 202,-379.5"/>
<text text-anchor="start" x="210" y="-408.5" font-family="Helvetica,sans-Serif" font-size="10.00">includes/platformer</text>
<text text-anchor="start" x="210" y="-397.5" font-family="Helvetica,sans-Serif" font-size="10.00">&#45;engine/Physics/Templates</text>
<text text-anchor="middle" x="269" y="-386.5" font-family="Helvetica,sans-Serif" font-size="10.00">/PhysicsTemplate.hpp</text>
</a>
</g>
</g>
<!-- Node2 -->
<g id="node2" class="node">
<title>Node2</title>
<g id="a_node2"><a xlink:href="ForceDrivenEntity_8hpp.html" target="_top" xlink:title=" ">
<polygon fill="none" stroke="black" points="247.5,-67.5 247.5,-108.5 388.5,-108.5 388.5,-67.5 247.5,-67.5"/>
<text text-anchor="start" x="255.5" y="-96.5" font-family="Helvetica,sans-Serif" font-size="10.00">includes/platformer</text>
<text text-anchor="start" x="255.5" y="-85.5" font-family="Helvetica,sans-Serif" font-size="10.00">&#45;engine/Physics/ForceDriven</text>
<text text-anchor="middle" x="318" y="-74.5" font-family="Helvetica,sans-Serif" font-size="10.00">Entity.hpp</text>
</a>
</g>
</g>
<!-- Node1&#45;&gt;Node2 -->
<g id="edge1" class="edge">
<title>Node1&#45;&gt;Node2</title>
<path fill="none" stroke="midnightblue" d="M286.53,-370.52C291.02,-361.96 295.33,-352.35 298,-343 322.17,-258.36 320.85,-151.83 319.06,-108.58"/>
<polygon fill="midnightblue" stroke="midnightblue" points="283.43,-368.89 281.65,-379.33 289.56,-372.28 283.43,-368.89"/>
</g>
<!-- Node7 -->
<g id="node7" class="node">
<title>Node7</title>
<g id="a_node7"><a xlink:href="FlyingEnemyTemplate_8hpp.html" target="_top" xlink:title=" ">
<polygon fill="none" stroke="black" points="0,-301.5 0,-342.5 134,-342.5 134,-301.5 0,-301.5"/>
<text text-anchor="start" x="8" y="-330.5" font-family="Helvetica,sans-Serif" font-size="10.00">includes/platformer</text>
<text text-anchor="start" x="8" y="-319.5" font-family="Helvetica,sans-Serif" font-size="10.00">&#45;engine/Physics/Templates</text>
<text text-anchor="middle" x="67" y="-308.5" font-family="Helvetica,sans-Serif" font-size="10.00">/FlyingEnemyTemplate.hpp</text>
</a>
</g>
</g>
<!-- Node1&#45;&gt;Node7 -->
<g id="edge6" class="edge">
<title>Node1&#45;&gt;Node7</title>
<path fill="none" stroke="midnightblue" d="M207.57,-375.89C179.21,-365.22 145.91,-352.69 118.84,-342.51"/>
<polygon fill="midnightblue" stroke="midnightblue" points="206.39,-379.18 216.98,-379.43 208.85,-372.63 206.39,-379.18"/>
</g>
<!-- Node8 -->
<g id="node8" class="node">
<title>Node8</title>
<g id="a_node8"><a xlink:href="MarioPhysicsTemplate_8hpp.html" target="_top" xlink:title=" ">
<polygon fill="none" stroke="black" points="152.5,-301.5 152.5,-342.5 289.5,-342.5 289.5,-301.5 152.5,-301.5"/>
<text text-anchor="start" x="160.5" y="-330.5" font-family="Helvetica,sans-Serif" font-size="10.00">includes/platformer</text>
<text text-anchor="start" x="160.5" y="-319.5" font-family="Helvetica,sans-Serif" font-size="10.00">&#45;engine/Physics/Templates</text>
<text text-anchor="middle" x="221" y="-308.5" font-family="Helvetica,sans-Serif" font-size="10.00">/MarioPhysicsTemplate.hpp</text>
</a>
</g>
</g>
<!-- Node1&#45;&gt;Node8 -->
<g id="edge8" class="edge">
<title>Node1&#45;&gt;Node8</title>
<path fill="none" stroke="midnightblue" d="M251.16,-370.76C245.22,-361.35 238.74,-351.1 233.32,-342.51"/>
<polygon fill="midnightblue" stroke="midnightblue" points="248.34,-372.84 256.64,-379.43 254.26,-369.1 248.34,-372.84"/>
</g>
<!-- Node9 -->
<g id="node9" class="node">
<title>Node9</title>
<g id="a_node9"><a xlink:href="RigidBody_8hpp.html" target="_top" xlink:title=" ">
<polygon fill="none" stroke="black" points="771.5,-307 771.5,-337 874.5,-337 874.5,-307 771.5,-307"/>
<text text-anchor="start" x="779.5" y="-325" font-family="Helvetica,sans-Serif" font-size="10.00">includes/spic&#45;prj&#45;api</text>
<text text-anchor="middle" x="823" y="-314" font-family="Helvetica,sans-Serif" font-size="10.00">/RigidBody.hpp</text>
</a>
</g>
</g>
<!-- Node1&#45;&gt;Node9 -->
<g id="edge10" class="edge">
<title>Node1&#45;&gt;Node9</title>
<path fill="none" stroke="midnightblue" d="M346.22,-388.41C460.95,-372.67 673.38,-343.53 771.21,-330.1"/>
<polygon fill="midnightblue" stroke="midnightblue" points="345.53,-384.97 336.1,-389.79 346.48,-391.9 345.53,-384.97"/>
</g>
<!-- Node3 -->
<g id="node3" class="node">
<title>Node3</title>
<g id="a_node3"><a xlink:href="GameObjectFactory_8cpp.html" target="_top" xlink:title=" ">
<polygon fill="none" stroke="black" points="230.5,-6 230.5,-25 405.5,-25 405.5,-6 230.5,-6"/>
<text text-anchor="middle" x="318" y="-13" font-family="Helvetica,sans-Serif" font-size="10.00">src/Director/GameObjectFactory.cpp</text>
</a>
</g>
</g>
<!-- Node2&#45;&gt;Node3 -->
<g id="edge2" class="edge">
<title>Node2&#45;&gt;Node3</title>
<path fill="none" stroke="midnightblue" d="M318,-57.1C318,-45.53 318,-33.18 318,-25.17"/>
<polygon fill="midnightblue" stroke="midnightblue" points="314.5,-57.36 318,-67.36 321.5,-57.36 314.5,-57.36"/>
</g>
<!-- Node4 -->
<g id="node4" class="node">
<title>Node4</title>
<g id="a_node4"><a xlink:href="EntityPursuitState_8cpp.html" target="_top" xlink:title=" ">
<polygon fill="none" stroke="black" points="74,-0.5 74,-30.5 212,-30.5 212,-0.5 74,-0.5"/>
<text text-anchor="start" x="82" y="-18.5" font-family="Helvetica,sans-Serif" font-size="10.00">src/EntityState/EntityPursuit</text>
<text text-anchor="middle" x="143" y="-7.5" font-family="Helvetica,sans-Serif" font-size="10.00">State.cpp</text>
</a>
</g>
</g>
<!-- Node2&#45;&gt;Node4 -->
<g id="edge3" class="edge">
<title>Node2&#45;&gt;Node4</title>
<path fill="none" stroke="midnightblue" d="M259.85,-63.57C232.71,-52.64 201.31,-39.99 177.9,-30.56"/>
<polygon fill="midnightblue" stroke="midnightblue" points="258.67,-66.87 269.25,-67.36 261.29,-60.38 258.67,-66.87"/>
</g>
<!-- Node5 -->
<g id="node5" class="node">
<title>Node5</title>
<g id="a_node5"><a xlink:href="ForceDrivenEntity_8cpp.html" target="_top" xlink:title=" ">
<polygon fill="none" stroke="black" points="423.5,-6 423.5,-25 588.5,-25 588.5,-6 423.5,-6"/>
<text text-anchor="middle" x="506" y="-13" font-family="Helvetica,sans-Serif" font-size="10.00">src/Physics/ForceDrivenEntity.cpp</text>
</a>
</g>
</g>
<!-- Node2&#45;&gt;Node5 -->
<g id="edge4" class="edge">
<title>Node2&#45;&gt;Node5</title>
<path fill="none" stroke="midnightblue" d="M380.11,-63.71C415.36,-50.49 457.39,-34.73 482.87,-25.17"/>
<polygon fill="midnightblue" stroke="midnightblue" points="378.5,-60.57 370.37,-67.36 380.96,-67.13 378.5,-60.57"/>
</g>
<!-- Node6 -->
<g id="node6" class="node">
<title>Node6</title>
<g id="a_node6"><a xlink:href="MoveSystem_8cpp.html" target="_top" xlink:title=" ">
<polygon fill="none" stroke="black" points="709,-6 709,-25 855,-25 855,-6 709,-6"/>
<text text-anchor="middle" x="782" y="-13" font-family="Helvetica,sans-Serif" font-size="10.00">src/Physics/MoveSystem.cpp</text>
</a>
</g>
</g>
<!-- Node2&#45;&gt;Node6 -->
<g id="edge5" class="edge">
<title>Node2&#45;&gt;Node6</title>
<path fill="none" stroke="midnightblue" d="M398.72,-74.74C492.36,-60.51 644.3,-37.42 725.91,-25.02"/>
<polygon fill="midnightblue" stroke="midnightblue" points="398.08,-71.29 388.72,-76.25 399.14,-78.21 398.08,-71.29"/>
</g>
<!-- Node7&#45;&gt;Node3 -->
<g id="edge7" class="edge">
<title>Node7&#45;&gt;Node3</title>
<path fill="none" stroke="midnightblue" d="M77.63,-291.75C97.59,-240.35 145.16,-132.99 216,-67 237.54,-46.93 268.56,-33.12 290.73,-25.07"/>
<polygon fill="midnightblue" stroke="midnightblue" points="74.3,-290.67 74.01,-301.26 80.84,-293.16 74.3,-290.67"/>
</g>
<!-- Node8&#45;&gt;Node3 -->
<g id="edge9" class="edge">
<title>Node8&#45;&gt;Node3</title>
<path fill="none" stroke="midnightblue" d="M214.91,-291.59C206.2,-241.52 195.55,-138.25 238,-67 250.27,-46.4 274.57,-32.87 293.18,-25.05"/>
<polygon fill="midnightblue" stroke="midnightblue" points="211.47,-292.23 216.72,-301.43 218.36,-290.97 211.47,-292.23"/>
</g>
<!-- Node9&#45;&gt;Node6 -->
<g id="edge14" class="edge">
<title>Node9&#45;&gt;Node6</title>
<path fill="none" stroke="midnightblue" d="M884.78,-316.98C993.67,-309.27 1210.46,-290.82 1233,-265 1245.27,-250.94 1234.07,-241.64 1233,-223 1228.69,-148.01 1232.69,-105.17 1168,-67 1109.41,-32.43 931.3,-40.93 864,-31 852.13,-29.25 839.34,-27.11 827.47,-25.02"/>
<polygon fill="midnightblue" stroke="midnightblue" points="884.32,-313.51 874.59,-317.7 884.81,-320.49 884.32,-313.51"/>
</g>
<!-- Node10 -->
<g id="node10" class="node">
<title>Node10</title>
<g id="a_node10"><a xlink:href="RigidBody_8cpp.html" target="_top" xlink:title=" ">
<polygon fill="none" stroke="black" points="1101,-156.5 1101,-175.5 1215,-175.5 1215,-156.5 1101,-156.5"/>
<text text-anchor="middle" x="1158" y="-163.5" font-family="Helvetica,sans-Serif" font-size="10.00">src/API/RigidBody.cpp</text>
</a>
</g>
</g>
<!-- Node9&#45;&gt;Node10 -->
<g id="edge11" class="edge">
<title>Node9&#45;&gt;Node10</title>
<path fill="none" stroke="midnightblue" d="M884.86,-321.57C984.34,-321.01 1173.02,-313.4 1215,-265 1240.41,-235.71 1192.96,-193.46 1169.74,-175.55"/>
<polygon fill="midnightblue" stroke="midnightblue" points="884.63,-318.07 874.64,-321.6 884.65,-325.07 884.63,-318.07"/>
</g>
<!-- Node11 -->
<g id="node11" class="node">
<title>Node11</title>
<g id="a_node11"><a xlink:href="CollisionBehaviour_8cpp.html" target="_top" xlink:title=" ">
<polygon fill="none" stroke="black" points="2519,-6 2519,-25 2697,-25 2697,-6 2519,-6"/>
<text text-anchor="middle" x="2608" y="-13" font-family="Helvetica,sans-Serif" font-size="10.00">src/Behaviour/CollisionBehaviour.cpp</text>
</a>
</g>
</g>
<!-- Node9&#45;&gt;Node11 -->
<g id="edge12" class="edge">
<title>Node9&#45;&gt;Node11</title>
<path fill="none" stroke="midnightblue" d="M884.73,-315.76C979.95,-307.32 1168.29,-289.17 1327,-265 1821.39,-189.71 2415.66,-59.49 2569.95,-25.05"/>
<polygon fill="midnightblue" stroke="midnightblue" points="884.35,-312.28 874.69,-316.65 884.96,-319.26 884.35,-312.28"/>
</g>
<!-- Node12 -->
<g id="node12" class="node">
<title>Node12</title>
<g id="a_node12"><a xlink:href="GameObjectBuilder_8cpp.html" target="_top" xlink:title=" ">
<polygon fill="none" stroke="black" points="829.5,-78.5 829.5,-97.5 998.5,-97.5 998.5,-78.5 829.5,-78.5"/>
<text text-anchor="middle" x="914" y="-85.5" font-family="Helvetica,sans-Serif" font-size="10.00">src/Builder/GameObjectBuilder.cpp</text>
</a>
</g>
</g>
<!-- Node9&#45;&gt;Node12 -->
<g id="edge13" class="edge">
<title>Node9&#45;&gt;Node12</title>
<path fill="none" stroke="midnightblue" d="M823.82,-296.6C825.01,-276.51 827.91,-247.45 835,-223 845.69,-186.15 852.17,-177.85 872,-145 882.68,-127.31 897.7,-108.42 906.58,-97.73"/>
<polygon fill="midnightblue" stroke="midnightblue" points="820.31,-296.6 823.32,-306.76 827.31,-296.94 820.31,-296.6"/>
</g>
<!-- Node13 -->
<g id="node13" class="node">
<title>Node13</title>
<g id="a_node13"><a xlink:href="PhysicsSystem_8cpp.html" target="_top" xlink:title=" ">
<polygon fill="none" stroke="black" points="426,-234.5 426,-253.5 582,-253.5 582,-234.5 426,-234.5"/>
<text text-anchor="middle" x="504" y="-241.5" font-family="Helvetica,sans-Serif" font-size="10.00">src/Physics/PhysicsSystem.cpp</text>
</a>
</g>
</g>
<!-- Node9&#45;&gt;Node13 -->
<g id="edge15" class="edge">
<title>Node9&#45;&gt;Node13</title>
<path fill="none" stroke="midnightblue" d="M761.55,-306.36C695.69,-290.67 593.4,-266.3 539.7,-253.5"/>
<polygon fill="midnightblue" stroke="midnightblue" points="760.85,-309.79 771.39,-308.7 762.48,-302.98 760.85,-309.79"/>
</g>
<!-- Node14 -->
<g id="node14" class="node">
<title>Node14</title>
<g id="a_node14"><a xlink:href="GameObjectBuilder_8hpp.html" target="_top" xlink:title=" ">
<polygon fill="none" stroke="black" points="881.5,-145.5 881.5,-186.5 1020.5,-186.5 1020.5,-145.5 881.5,-145.5"/>
<text text-anchor="start" x="889.5" y="-174.5" font-family="Helvetica,sans-Serif" font-size="10.00">includes/platformer</text>
<text text-anchor="start" x="889.5" y="-163.5" font-family="Helvetica,sans-Serif" font-size="10.00">&#45;engine/Builder/GameObject</text>
<text text-anchor="middle" x="951" y="-152.5" font-family="Helvetica,sans-Serif" font-size="10.00">Builder.hpp</text>
</a>
</g>
</g>
<!-- Node9&#45;&gt;Node14 -->
<g id="edge16" class="edge">
<title>Node9&#45;&gt;Node14</title>
<path fill="none" stroke="midnightblue" d="M827.75,-297.02C832.96,-275.7 843.07,-244.63 861,-223 873.45,-207.98 891.02,-195.8 907.33,-186.68"/>
<polygon fill="midnightblue" stroke="midnightblue" points="824.31,-296.38 825.52,-306.9 831.14,-297.92 824.31,-296.38"/>
</g>
<!-- Node18 -->
<g id="node18" class="node">
<title>Node18</title>
<g id="a_node18"><a xlink:href="ObjectBuilder_8hpp.html" target="_top" xlink:title=" ">
<polygon fill="none" stroke="black" points="870.5,-229 870.5,-259 1031.5,-259 1031.5,-229 870.5,-229"/>
<text text-anchor="start" x="878.5" y="-247" font-family="Helvetica,sans-Serif" font-size="10.00">includes/platformer</text>
<text text-anchor="middle" x="951" y="-236" font-family="Helvetica,sans-Serif" font-size="10.00">&#45;engine/Builder/ObjectBuilder.hpp</text>
</a>
</g>
</g>
<!-- Node9&#45;&gt;Node18 -->
<g id="edge22" class="edge">
<title>Node9&#45;&gt;Node18</title>
<path fill="none" stroke="midnightblue" d="M855.6,-301.64C877.98,-288.35 907.18,-271.02 927.35,-259.04"/>
<polygon fill="midnightblue" stroke="midnightblue" points="853.59,-298.77 846.78,-306.88 857.16,-304.79 853.59,-298.77"/>
</g>
<!-- Node19 -->
<g id="node19" class="node">
<title>Node19</title>
<g id="a_node19"><a xlink:href="EntityPursuitState_8hpp.html" target="_top" xlink:title=" ">
<polygon fill="none" stroke="black" points="346,-145.5 346,-186.5 462,-186.5 462,-145.5 346,-145.5"/>
<text text-anchor="start" x="354" y="-174.5" font-family="Helvetica,sans-Serif" font-size="10.00">includes/platformer</text>
<text text-anchor="start" x="354" y="-163.5" font-family="Helvetica,sans-Serif" font-size="10.00">&#45;engine/EntityState</text>
<text text-anchor="middle" x="404" y="-152.5" font-family="Helvetica,sans-Serif" font-size="10.00">/EntityPursuitState.hpp</text>
</a>
</g>
</g>
<!-- Node9&#45;&gt;Node19 -->
<g id="edge24" class="edge">
<title>Node9&#45;&gt;Node19</title>
<path fill="none" stroke="midnightblue" d="M761.16,-321.27C659.59,-320.33 464,-312.24 417,-265 396.66,-244.56 397.42,-208.74 400.34,-186.53"/>
<polygon fill="midnightblue" stroke="midnightblue" points="761.25,-324.77 771.28,-321.35 761.31,-317.77 761.25,-324.77"/>
</g>
<!-- Node20 -->
<g id="node20" class="node">
<title>Node20</title>
<g id="a_node20"><a xlink:href="EntityState_8hpp.html" target="_top" xlink:title=" ">
<polygon fill="none" stroke="black" points="638.5,-223.5 638.5,-264.5 737.5,-264.5 737.5,-223.5 638.5,-223.5"/>
<text text-anchor="start" x="646.5" y="-252.5" font-family="Helvetica,sans-Serif" font-size="10.00">includes/platformer</text>
<text text-anchor="start" x="646.5" y="-241.5" font-family="Helvetica,sans-Serif" font-size="10.00">&#45;engine/EntityState</text>
<text text-anchor="middle" x="688" y="-230.5" font-family="Helvetica,sans-Serif" font-size="10.00">/EntityState.hpp</text>
</a>
</g>
</g>
<!-- Node9&#45;&gt;Node20 -->
<g id="edge27" class="edge">
<title>Node9&#45;&gt;Node20</title>
<path fill="none" stroke="midnightblue" d="M789.05,-301.89C768.84,-290.51 743.24,-276.1 722.87,-264.63"/>
<polygon fill="midnightblue" stroke="midnightblue" points="787.49,-305.03 797.92,-306.88 790.93,-298.93 787.49,-305.03"/>
</g>
<!-- Node22 -->
<g id="node22" class="node">
<title>Node22</title>
<g id="a_node22"><a xlink:href="EntityStateMachine_8hpp.html" target="_top" xlink:title=" ">
<polygon fill="none" stroke="black" points="480,-145.5 480,-186.5 602,-186.5 602,-145.5 480,-145.5"/>
<text text-anchor="start" x="488" y="-174.5" font-family="Helvetica,sans-Serif" font-size="10.00">includes/platformer</text>
<text text-anchor="start" x="488" y="-163.5" font-family="Helvetica,sans-Serif" font-size="10.00">&#45;engine/EntityState</text>
<text text-anchor="middle" x="541" y="-152.5" font-family="Helvetica,sans-Serif" font-size="10.00">/EntityStateMachine.hpp</text>
</a>
</g>
</g>
<!-- Node9&#45;&gt;Node22 -->
<g id="edge37" class="edge">
<title>Node9&#45;&gt;Node22</title>
<path fill="none" stroke="midnightblue" d="M761.28,-312.23C721.25,-304.45 669.25,-290.24 629,-265 627.9,-264.31 583.88,-215.07 558.53,-186.66"/>
<polygon fill="midnightblue" stroke="midnightblue" points="760.71,-315.69 771.18,-314.08 761.99,-308.81 760.71,-315.69"/>
</g>
<!-- Node23 -->
<g id="node23" class="node">
<title>Node23</title>
<g id="a_node23"><a xlink:href="EntityWanderState_8hpp.html" target="_top" xlink:title=" ">
<polygon fill="none" stroke="black" points="658,-145.5 658,-186.5 776,-186.5 776,-145.5 658,-145.5"/>
<text text-anchor="start" x="666" y="-174.5" font-family="Helvetica,sans-Serif" font-size="10.00">includes/platformer</text>
<text text-anchor="start" x="666" y="-163.5" font-family="Helvetica,sans-Serif" font-size="10.00">&#45;engine/EntityState</text>
<text text-anchor="middle" x="717" y="-152.5" font-family="Helvetica,sans-Serif" font-size="10.00">/EntityWanderState.hpp</text>
</a>
</g>
</g>
<!-- Node9&#45;&gt;Node23 -->
<g id="edge38" class="edge">
<title>Node9&#45;&gt;Node23</title>
<path fill="none" stroke="midnightblue" d="M807.3,-298.19C786.51,-267.99 750.19,-215.22 730.55,-186.68"/>
<polygon fill="midnightblue" stroke="midnightblue" points="804.66,-300.54 813.22,-306.79 810.43,-296.57 804.66,-300.54"/>
</g>
<!-- Node25 -->
<g id="node25" class="node">
<title>Node25</title>
<g id="a_node25"><a xlink:href="IllegalCollisionBehaviourException_8hpp.html" target="_top" xlink:title=" ">
<polygon fill="none" stroke="black" points="1049.5,-223.5 1049.5,-264.5 1206.5,-264.5 1206.5,-223.5 1049.5,-223.5"/>
<text text-anchor="start" x="1057.5" y="-252.5" font-family="Helvetica,sans-Serif" font-size="10.00">includes/platformer</text>
<text text-anchor="start" x="1057.5" y="-241.5" font-family="Helvetica,sans-Serif" font-size="10.00">&#45;engine/Exceptions/Illegal</text>
<text text-anchor="middle" x="1128" y="-230.5" font-family="Helvetica,sans-Serif" font-size="10.00">CollisionBehaviourException.hpp</text>
</a>
</g>
</g>
<!-- Node9&#45;&gt;Node25 -->
<g id="edge39" class="edge">
<title>Node9&#45;&gt;Node25</title>
<path fill="none" stroke="midnightblue" d="M884.59,-305.65C932.15,-293.8 998.28,-277.32 1049.61,-264.53"/>
<polygon fill="midnightblue" stroke="midnightblue" points="883.6,-302.29 874.74,-308.11 885.29,-309.09 883.6,-302.29"/>
</g>
<!-- Node26 -->
<g id="node26" class="node">
<title>Node26</title>
<g id="a_node26"><a xlink:href="MoveSystem_8hpp.html" target="_top" xlink:title=" ">
<polygon fill="none" stroke="black" points="1301,-151 1301,-181 1465,-181 1465,-151 1301,-151"/>
<text text-anchor="start" x="1309" y="-169" font-family="Helvetica,sans-Serif" font-size="10.00">includes/platformer</text>
<text text-anchor="middle" x="1383" y="-158" font-family="Helvetica,sans-Serif" font-size="10.00">&#45;engine/Physics/MoveSystem.hpp</text>
</a>
</g>
</g>
<!-- Node9&#45;&gt;Node26 -->
<g id="edge41" class="edge">
<title>Node9&#45;&gt;Node26</title>
<path fill="none" stroke="midnightblue" d="M884.79,-318.6C994.35,-313.51 1217.64,-299.18 1287,-265 1326.31,-245.63 1358.7,-203.48 1373.82,-181.3"/>
<polygon fill="midnightblue" stroke="midnightblue" points="884.39,-315.11 874.55,-319.06 884.7,-322.1 884.39,-315.11"/>
</g>
<!-- Node14&#45;&gt;Node12 -->
<g id="edge17" class="edge">
<title>Node14&#45;&gt;Node12</title>
<path fill="none" stroke="midnightblue" d="M937,-136.25C930.29,-122.45 922.72,-106.92 918.16,-97.55"/>
<polygon fill="midnightblue" stroke="midnightblue" points="933.95,-137.97 941.47,-145.43 940.24,-134.9 933.95,-137.97"/>
</g>
<!-- Node15 -->
<g id="node15" class="node">
<title>Node15</title>
<g id="a_node15"><a xlink:href="ServerNetworkManager_8cpp.html" target="_top" xlink:title=" ">
<polygon fill="none" stroke="black" points="1009.5,-0.5 1009.5,-30.5 1160.5,-30.5 1160.5,-0.5 1009.5,-0.5"/>
<text text-anchor="start" x="1017.5" y="-18.5" font-family="Helvetica,sans-Serif" font-size="10.00">src/Networking/ServerNetwork</text>
<text text-anchor="middle" x="1085" y="-7.5" font-family="Helvetica,sans-Serif" font-size="10.00">Manager.cpp</text>
</a>
</g>
</g>
<!-- Node14&#45;&gt;Node15 -->
<g id="edge18" class="edge">
<title>Node14&#45;&gt;Node15</title>
<path fill="none" stroke="midnightblue" d="M1030.72,-154.73C1085.38,-145.86 1150.98,-130.97 1168,-109 1179.43,-94.24 1177.15,-83.27 1168,-67 1158.66,-50.38 1141.39,-38.6 1125.02,-30.62"/>
<polygon fill="midnightblue" stroke="midnightblue" points="1029.99,-151.3 1020.65,-156.31 1031.08,-158.21 1029.99,-151.3"/>
</g>
<!-- Node16 -->
<g id="node16" class="node">
<title>Node16</title>
<g id="a_node16"><a xlink:href="GameObjectFactory_8hpp.html" target="_top" xlink:title=" ">
<polygon fill="none" stroke="black" points="1016.5,-67.5 1016.5,-108.5 1159.5,-108.5 1159.5,-67.5 1016.5,-67.5"/>
<text text-anchor="start" x="1024.5" y="-96.5" font-family="Helvetica,sans-Serif" font-size="10.00">includes/platformer</text>
<text text-anchor="start" x="1024.5" y="-85.5" font-family="Helvetica,sans-Serif" font-size="10.00">&#45;engine/Director/GameObject</text>
<text text-anchor="middle" x="1088" y="-74.5" font-family="Helvetica,sans-Serif" font-size="10.00">Factory.hpp</text>
</a>
</g>
</g>
<!-- Node14&#45;&gt;Node16 -->
<g id="edge19" class="edge">
<title>Node14&#45;&gt;Node16</title>
<path fill="none" stroke="midnightblue" d="M995.19,-140.49C1013.85,-130.13 1035.28,-118.25 1052.84,-108.51"/>
<polygon fill="midnightblue" stroke="midnightblue" points="993.33,-137.52 986.28,-145.43 996.72,-143.64 993.33,-137.52"/>
</g>
<!-- Node16&#45;&gt;Node3 -->
<g id="edge20" class="edge">
<title>Node16&#45;&gt;Node3</title>
<path fill="none" stroke="midnightblue" d="M1005.95,-67C744.18,-27.98 673.25,-58.39 414,-31 399.25,-29.44 383.3,-27.24 368.71,-25.02"/>
<polygon fill="midnightblue" stroke="midnightblue" points="1005.74,-70.51 1016.15,-68.54 1006.78,-63.59 1005.74,-70.51"/>
</g>
<!-- Node17 -->
<g id="node17" class="node">
<title>Node17</title>
<g id="a_node17"><a xlink:href="FPSCounter_8cpp.html" target="_top" xlink:title=" ">
<polygon fill="none" stroke="black" points="873,-6 873,-25 991,-25 991,-6 873,-6"/>
<text text-anchor="middle" x="932" y="-13" font-family="Helvetica,sans-Serif" font-size="10.00">src/UI/FPSCounter.cpp</text>
</a>
</g>
</g>
<!-- Node16&#45;&gt;Node17 -->
<g id="edge21" class="edge">
<title>Node16&#45;&gt;Node17</title>
<path fill="none" stroke="midnightblue" d="M1035.33,-63.2C1006.32,-50.09 972.06,-34.6 951.19,-25.17"/>
<polygon fill="midnightblue" stroke="midnightblue" points="1033.99,-66.43 1044.55,-67.36 1036.87,-60.05 1033.99,-66.43"/>
</g>
<!-- Node18&#45;&gt;Node14 -->
<g id="edge23" class="edge">
<title>Node18&#45;&gt;Node14</title>
<path fill="none" stroke="midnightblue" d="M951,-218.66C951,-208.33 951,-196.44 951,-186.68"/>
<polygon fill="midnightblue" stroke="midnightblue" points="947.5,-218.7 951,-228.7 954.5,-218.71 947.5,-218.7"/>
</g>
<!-- Node19&#45;&gt;Node4 -->
<g id="edge25" class="edge">
<title>Node19&#45;&gt;Node4</title>
<path fill="none" stroke="midnightblue" d="M335.96,-149.47C304.69,-140.51 267.97,-127.32 238,-109 202.84,-87.51 170.41,-50.85 154.07,-30.74"/>
<polygon fill="midnightblue" stroke="midnightblue" points="335.34,-152.93 345.91,-152.23 337.21,-146.18 335.34,-152.93"/>
</g>
<!-- Node19&#45;&gt;Node5 -->
<g id="edge26" class="edge">
<title>Node19&#45;&gt;Node5</title>
<path fill="none" stroke="midnightblue" d="M420.71,-136.87C432.77,-116.99 449.74,-89.93 466,-67 476.74,-51.86 490.37,-35.12 498.63,-25.22"/>
<polygon fill="midnightblue" stroke="midnightblue" points="417.7,-135.08 415.53,-145.45 423.69,-138.7 417.7,-135.08"/>
</g>
<!-- Node20&#45;&gt;Node19 -->
<g id="edge29" class="edge">
<title>Node20&#45;&gt;Node19</title>
<path fill="none" stroke="midnightblue" d="M628.41,-228.26C584.73,-217.3 524.03,-201.75 471,-187 468.08,-186.19 465.08,-185.34 462.07,-184.48"/>
<polygon fill="midnightblue" stroke="midnightblue" points="627.75,-231.71 638.3,-230.74 629.45,-224.92 627.75,-231.71"/>
</g>
<!-- Node21 -->
<g id="node21" class="node">
<title>Node21</title>
<g id="a_node21"><a xlink:href="EntityStateMachine_8cpp.html" target="_top" xlink:title=" ">
<polygon fill="none" stroke="black" points="483.5,-73 483.5,-103 614.5,-103 614.5,-73 483.5,-73"/>
<text text-anchor="start" x="491.5" y="-91" font-family="Helvetica,sans-Serif" font-size="10.00">src/EntityState/EntityState</text>
<text text-anchor="middle" x="549" y="-80" font-family="Helvetica,sans-Serif" font-size="10.00">Machine.cpp</text>
</a>
</g>
</g>
<!-- Node20&#45;&gt;Node21 -->
<g id="edge28" class="edge">
<title>Node20&#45;&gt;Node21</title>
<path fill="none" stroke="midnightblue" d="M668.19,-215.26C653.29,-195.06 631.93,-167.42 611,-145 596.75,-129.73 578.91,-113.92 566.03,-103.01"/>
<polygon fill="midnightblue" stroke="midnightblue" points="665.43,-217.42 674.15,-223.43 671.08,-213.29 665.43,-217.42"/>
</g>
<!-- Node20&#45;&gt;Node22 -->
<g id="edge30" class="edge">
<title>Node20&#45;&gt;Node22</title>
<path fill="none" stroke="midnightblue" d="M641.13,-218.77C620.98,-208.35 597.74,-196.34 578.73,-186.51"/>
<polygon fill="midnightblue" stroke="midnightblue" points="639.65,-221.94 650.14,-223.43 642.87,-215.73 639.65,-221.94"/>
</g>
<!-- Node20&#45;&gt;Node23 -->
<g id="edge34" class="edge">
<title>Node20&#45;&gt;Node23</title>
<path fill="none" stroke="midnightblue" d="M699.11,-213.88C702.61,-204.72 706.38,-194.83 709.56,-186.51"/>
<polygon fill="midnightblue" stroke="midnightblue" points="695.76,-212.84 695.47,-223.43 702.3,-215.33 695.76,-212.84"/>
</g>
<!-- Node22&#45;&gt;Node2 -->
<g id="edge33" class="edge">
<title>Node22&#45;&gt;Node2</title>
<path fill="none" stroke="midnightblue" d="M474,-142.17C442.52,-131.44 405.38,-118.78 375.23,-108.51"/>
<polygon fill="midnightblue" stroke="midnightblue" points="472.98,-145.52 483.57,-145.43 475.24,-138.89 472.98,-145.52"/>
</g>
<!-- Node22&#45;&gt;Node5 -->
<g id="edge32" class="edge">
<title>Node22&#45;&gt;Node5</title>
<path fill="none" stroke="midnightblue" d="M498.64,-139.11C488.72,-130.82 479.47,-120.7 474,-109 466.09,-92.09 468.8,-84.93 474,-67 478.74,-50.65 490.54,-34.52 498.41,-25.04"/>
<polygon fill="midnightblue" stroke="midnightblue" points="496.62,-141.98 506.66,-145.36 500.92,-136.46 496.62,-141.98"/>
</g>
<!-- Node22&#45;&gt;Node21 -->
<g id="edge31" class="edge">
<title>Node22&#45;&gt;Node21</title>
<path fill="none" stroke="midnightblue" d="M544.13,-135.28C545.29,-124.25 546.55,-112.25 547.5,-103.23"/>
<polygon fill="midnightblue" stroke="midnightblue" points="540.63,-135.12 543.06,-145.43 547.59,-135.85 540.63,-135.12"/>
</g>
<!-- Node23&#45;&gt;Node5 -->
<g id="edge36" class="edge">
<title>Node23&#45;&gt;Node5</title>
<path fill="none" stroke="midnightblue" d="M690.24,-138.05C681.21,-128.89 671.12,-118.55 662,-109 644.41,-90.58 643.81,-81.7 623,-67 595.53,-47.6 559.44,-33.43 534.64,-25.13"/>
<polygon fill="midnightblue" stroke="midnightblue" points="688,-140.78 697.52,-145.43 692.99,-135.86 688,-140.78"/>
</g>
<!-- Node24 -->
<g id="node24" class="node">
<title>Node24</title>
<g id="a_node24"><a xlink:href="EntityWanderState_8cpp.html" target="_top" xlink:title=" ">
<polygon fill="none" stroke="black" points="671,-73 671,-103 811,-103 811,-73 671,-73"/>
<text text-anchor="start" x="679" y="-91" font-family="Helvetica,sans-Serif" font-size="10.00">src/EntityState/EntityWander</text>
<text text-anchor="middle" x="741" y="-80" font-family="Helvetica,sans-Serif" font-size="10.00">State.cpp</text>
</a>
</g>
</g>
<!-- Node23&#45;&gt;Node24 -->
<g id="edge35" class="edge">
<title>Node23&#45;&gt;Node24</title>
<path fill="none" stroke="midnightblue" d="M726.28,-135.62C729.79,-124.5 733.63,-112.34 736.51,-103.23"/>
<polygon fill="midnightblue" stroke="midnightblue" points="722.85,-134.84 723.18,-145.43 729.53,-136.95 722.85,-134.84"/>
</g>
<!-- Node25&#45;&gt;Node10 -->
<g id="edge40" class="edge">
<title>Node25&#45;&gt;Node10</title>
<path fill="none" stroke="midnightblue" d="M1139.51,-213.85C1144.91,-200.15 1150.96,-184.83 1154.62,-175.55"/>
<polygon fill="midnightblue" stroke="midnightblue" points="1136.14,-212.84 1135.73,-223.43 1142.65,-215.41 1136.14,-212.84"/>
</g>
<!-- Node26&#45;&gt;Node6 -->
<g id="edge42" class="edge">
<title>Node26&#45;&gt;Node6</title>
<path fill="none" stroke="midnightblue" d="M1368.42,-142.6C1351.81,-119.2 1322.34,-83.65 1287,-67 1201.66,-26.79 957.54,-43.23 864,-31 851.67,-29.39 838.37,-27.22 826.15,-25.06"/>
<polygon fill="midnightblue" stroke="midnightblue" points="1365.59,-144.65 1374.14,-150.9 1371.35,-140.68 1365.59,-144.65"/>
</g>
<!-- Node27 -->
<g id="node27" class="node">
<title>Node27</title>
<g id="a_node27"><a xlink:href="Engine_8hpp.html" target="_top" xlink:title=" ">
<polygon fill="none" stroke="black" points="1515.5,-73 1515.5,-103 1646.5,-103 1646.5,-73 1515.5,-73"/>
<text text-anchor="start" x="1523.5" y="-91" font-family="Helvetica,sans-Serif" font-size="10.00">includes/platformer</text>
<text text-anchor="middle" x="1581" y="-80" font-family="Helvetica,sans-Serif" font-size="10.00">&#45;engine/Engine/Engine.hpp</text>
</a>
</g>
</g>
<!-- Node26&#45;&gt;Node27 -->
<g id="edge43" class="edge">
<title>Node26&#45;&gt;Node27</title>
<path fill="none" stroke="midnightblue" d="M1429.32,-147.22C1464.42,-133.75 1511.97,-115.5 1544.42,-103.04"/>
<polygon fill="midnightblue" stroke="midnightblue" points="1427.86,-144.03 1419.78,-150.88 1430.37,-150.57 1427.86,-144.03"/>
</g>
<!-- Node27&#45;&gt;Node3 -->
<g id="edge48" class="edge">
<title>Node27&#45;&gt;Node3</title>
<path fill="none" stroke="midnightblue" d="M1505.11,-83.31C1422.27,-79.28 1285.7,-72.66 1168,-67 832.89,-50.89 747.86,-64.1 414,-31 399.07,-29.52 382.92,-27.32 368.2,-25.07"/>
<polygon fill="midnightblue" stroke="midnightblue" points="1505.04,-86.81 1515.19,-83.8 1505.38,-79.82 1505.04,-86.81"/>
</g>
<!-- Node27&#45;&gt;Node6 -->
<g id="edge53" class="edge">
<title>Node27&#45;&gt;Node6</title>
<path fill="none" stroke="midnightblue" d="M1505.12,-79.76C1462.73,-75.8 1408.95,-70.92 1361,-67 1140.27,-48.97 1083.78,-58.32 864,-31 851.38,-29.43 837.74,-27.23 825.28,-25.01"/>
<polygon fill="midnightblue" stroke="midnightblue" points="1504.8,-83.24 1515.08,-80.69 1505.45,-76.27 1504.8,-83.24"/>
</g>
<!-- Node27&#45;&gt;Node11 -->
<g id="edge45" class="edge">
<title>Node27&#45;&gt;Node11</title>
<path fill="none" stroke="midnightblue" d="M1656.9,-84.65C1815.63,-79.26 2194.11,-63.83 2510,-31 2525.05,-29.44 2541.34,-27.23 2556.23,-25.02"/>
<polygon fill="midnightblue" stroke="midnightblue" points="1656.65,-81.16 1646.77,-85 1656.88,-88.16 1656.65,-81.16"/>
</g>
<!-- Node27&#45;&gt;Node15 -->
<g id="edge52" class="edge">
<title>Node27&#45;&gt;Node15</title>
<path fill="none" stroke="midnightblue" d="M1505.37,-77.47C1422.83,-66.88 1286.85,-48.92 1170,-31 1166.89,-30.52 1163.72,-30.03 1160.52,-29.52"/>
<polygon fill="midnightblue" stroke="midnightblue" points="1505.05,-80.96 1515.41,-78.75 1505.94,-74.01 1505.05,-80.96"/>
</g>
<!-- Node27&#45;&gt;Node17 -->
<g id="edge57" class="edge">
<title>Node27&#45;&gt;Node17</title>
<path fill="none" stroke="midnightblue" d="M1505.1,-79.92C1353.29,-65.72 1024.58,-34.79 1000,-31 989.62,-29.4 978.44,-27.21 968.21,-25.02"/>
<polygon fill="midnightblue" stroke="midnightblue" points="1505,-83.42 1515.28,-80.87 1505.65,-76.45 1505,-83.42"/>
</g>
<!-- Node28 -->
<g id="node28" class="node">
<title>Node28</title>
<g id="a_node28"><a xlink:href="Animator_8cpp.html" target="_top" xlink:title=" ">
<polygon fill="none" stroke="black" points="1659,-6 1659,-25 1769,-25 1769,-6 1659,-6"/>
<text text-anchor="middle" x="1714" y="-13" font-family="Helvetica,sans-Serif" font-size="10.00">src/API/Animator.cpp</text>
</a>
</g>
</g>
<!-- Node27&#45;&gt;Node28 -->
<g id="edge44" class="edge">
<title>Node27&#45;&gt;Node28</title>
<path fill="none" stroke="midnightblue" d="M1616.56,-68.15C1643,-54.13 1677.85,-35.66 1697.9,-25.03"/>
<polygon fill="midnightblue" stroke="midnightblue" points="1614.79,-65.13 1607.59,-72.9 1618.07,-71.31 1614.79,-65.13"/>
</g>
<!-- Node29 -->
<g id="node29" class="node">
<title>Node29</title>
<g id="a_node29"><a xlink:href="FPSCounterBehaviour_8cpp.html" target="_top" xlink:title=" ">
<polygon fill="none" stroke="black" points="1787.5,-0.5 1787.5,-30.5 1920.5,-30.5 1920.5,-0.5 1787.5,-0.5"/>
<text text-anchor="start" x="1795.5" y="-18.5" font-family="Helvetica,sans-Serif" font-size="10.00">src/Behaviour/FPSCounter</text>
<text text-anchor="middle" x="1854" y="-7.5" font-family="Helvetica,sans-Serif" font-size="10.00">Behaviour.cpp</text>
</a>
</g>
</g>
<!-- Node27&#45;&gt;Node29 -->
<g id="edge46" class="edge">
<title>Node27&#45;&gt;Node29</title>
<path fill="none" stroke="midnightblue" d="M1645.01,-70.47C1691.89,-58.36 1754.85,-42.1 1799.37,-30.61"/>
<polygon fill="midnightblue" stroke="midnightblue" points="1644.07,-67.1 1635.26,-72.99 1645.82,-73.88 1644.07,-67.1"/>
</g>
<!-- Node30 -->
<g id="node30" class="node">
<title>Node30</title>
<g id="a_node30"><a xlink:href="Debug_8cpp.html" target="_top" xlink:title=" ">
<polygon fill="none" stroke="black" points="1939,-6 1939,-25 2049,-25 2049,-6 1939,-6"/>
<text text-anchor="middle" x="1994" y="-13" font-family="Helvetica,sans-Serif" font-size="10.00">src/Debug/Debug.cpp</text>
</a>
</g>
</g>
<!-- Node27&#45;&gt;Node30 -->
<g id="edge47" class="edge">
<title>Node27&#45;&gt;Node30</title>
<path fill="none" stroke="midnightblue" d="M1656.68,-76.28C1727.54,-65.9 1836.25,-49.12 1930,-31 1939.17,-29.23 1949.03,-27.1 1958.2,-25.03"/>
<polygon fill="midnightblue" stroke="midnightblue" points="1655.9,-72.85 1646.51,-77.76 1656.91,-79.78 1655.9,-72.85"/>
</g>
<!-- Node31 -->
<g id="node31" class="node">
<title>Node31</title>
<g id="a_node31"><a xlink:href="Engine_8cpp.html" target="_top" xlink:title=" ">
<polygon fill="none" stroke="black" points="2067.5,-6 2067.5,-25 2180.5,-25 2180.5,-6 2067.5,-6"/>
<text text-anchor="middle" x="2124" y="-13" font-family="Helvetica,sans-Serif" font-size="10.00">src/Engine/Engine.cpp</text>
</a>
</g>
</g>
<!-- Node27&#45;&gt;Node31 -->
<g id="edge49" class="edge">
<title>Node27&#45;&gt;Node31</title>
<path fill="none" stroke="midnightblue" d="M1656.91,-80.44C1751.29,-71.74 1917.18,-54.68 2058,-31 2067.83,-29.35 2078.41,-27.19 2088.16,-25.05"/>
<polygon fill="midnightblue" stroke="midnightblue" points="1656.52,-76.96 1646.88,-81.35 1657.15,-83.93 1656.52,-76.96"/>
</g>
<!-- Node32 -->
<g id="node32" class="node">
<title>Node32</title>
<g id="a_node32"><a xlink:href="TMXParser_8cpp.html" target="_top" xlink:title=" ">
<polygon fill="none" stroke="black" points="2199,-6 2199,-25 2335,-25 2335,-6 2199,-6"/>
<text text-anchor="middle" x="2267" y="-13" font-family="Helvetica,sans-Serif" font-size="10.00">src/Facade/TMXParser.cpp</text>
</a>
</g>
</g>
<!-- Node27&#45;&gt;Node32 -->
<g id="edge50" class="edge">
<title>Node27&#45;&gt;Node32</title>
<path fill="none" stroke="midnightblue" d="M1656.72,-82.35C1772.14,-74.73 1998.87,-57.72 2190,-31 2201.59,-29.38 2214.08,-27.21 2225.56,-25.05"/>
<polygon fill="midnightblue" stroke="midnightblue" points="1656.32,-78.86 1646.57,-83.01 1656.78,-85.85 1656.32,-78.86"/>
</g>
<!-- Node33 -->
<g id="node33" class="node">
<title>Node33</title>
<g id="a_node33"><a xlink:href="ClientNetworkManager_8cpp.html" target="_top" xlink:title=" ">
<polygon fill="none" stroke="black" points="2353.5,-0.5 2353.5,-30.5 2500.5,-30.5 2500.5,-0.5 2353.5,-0.5"/>
<text text-anchor="start" x="2361.5" y="-18.5" font-family="Helvetica,sans-Serif" font-size="10.00">src/Networking/ClientNetwork</text>
<text text-anchor="middle" x="2427" y="-7.5" font-family="Helvetica,sans-Serif" font-size="10.00">Manager.cpp</text>
</a>
</g>
</g>
<!-- Node27&#45;&gt;Node33 -->
<g id="edge51" class="edge">
<title>Node27&#45;&gt;Node33</title>
<path fill="none" stroke="midnightblue" d="M1656.53,-83.96C1793.82,-77.87 2093.23,-62.03 2344,-31 2347.05,-30.62 2350.16,-30.21 2353.29,-29.77"/>
<polygon fill="midnightblue" stroke="midnightblue" points="1656.37,-80.46 1646.54,-84.39 1656.68,-87.45 1656.37,-80.46"/>
</g>
<!-- Node34 -->
<g id="node34" class="node">
<title>Node34</title>
<g id="a_node34"><a xlink:href="RenderSystem_8cpp.html" target="_top" xlink:title=" ">
<polygon fill="none" stroke="black" points="1179,-6 1179,-25 1329,-25 1329,-6 1179,-6"/>
<text text-anchor="middle" x="1254" y="-13" font-family="Helvetica,sans-Serif" font-size="10.00">src/Texture/RenderSystem.cpp</text>
</a>
</g>
</g>
<!-- Node27&#45;&gt;Node34 -->
<g id="edge54" class="edge">
<title>Node27&#45;&gt;Node34</title>
<path fill="none" stroke="midnightblue" d="M1506.05,-70.84C1439.97,-56.59 1346.23,-36.38 1293.68,-25.05"/>
<polygon fill="midnightblue" stroke="midnightblue" points="1505.49,-74.3 1516,-72.99 1506.97,-67.46 1505.49,-74.3"/>
</g>
<!-- Node35 -->
<g id="node35" class="node">
<title>Node35</title>
<g id="a_node35"><a xlink:href="TextureManager_8cpp.html" target="_top" xlink:title=" ">
<polygon fill="none" stroke="black" points="1347,-6 1347,-25 1503,-25 1503,-6 1347,-6"/>
<text text-anchor="middle" x="1425" y="-13" font-family="Helvetica,sans-Serif" font-size="10.00">src/Texture/TextureManager.cpp</text>
</a>
</g>
</g>
<!-- Node27&#45;&gt;Node35 -->
<g id="edge55" class="edge">
<title>Node27&#45;&gt;Node35</title>
<path fill="none" stroke="midnightblue" d="M1540.5,-68.7C1509.35,-54.62 1467.71,-35.8 1443.88,-25.03"/>
<polygon fill="midnightblue" stroke="midnightblue" points="1539.25,-71.97 1549.81,-72.9 1542.13,-65.6 1539.25,-71.97"/>
</g>
<!-- Node36 -->
<g id="node36" class="node">
<title>Node36</title>
<g id="a_node36"><a xlink:href="ClickSystem_8cpp.html" target="_top" xlink:title=" ">
<polygon fill="none" stroke="black" points="1521.5,-6 1521.5,-25 1640.5,-25 1640.5,-6 1521.5,-6"/>
<text text-anchor="middle" x="1581" y="-13" font-family="Helvetica,sans-Serif" font-size="10.00">src/UI/ClickSystem.cpp</text>
</a>
</g>
</g>
<!-- Node27&#45;&gt;Node36 -->
<g id="edge56" class="edge">
<title>Node27&#45;&gt;Node36</title>
<path fill="none" stroke="midnightblue" d="M1581,-62.59C1581,-49.71 1581,-34.7 1581,-25.39"/>
<polygon fill="midnightblue" stroke="midnightblue" points="1577.5,-62.73 1581,-72.73 1584.5,-62.73 1577.5,-62.73"/>
</g>
</g>
</svg>
        <g id="navigator" transform="translate(0 0)" fill="#404254">
                <rect fill="#f2f5e9" fill-opacity="0.5" stroke="#606060" stroke-width=".5" x="0" y="0" width="60" height="60"/>
                <use id="zoomplus" xlink:href="#zoomPlus" x="17" y="9" onmousedown="handleZoom(evt,'in')"/>
                <use id="zoomminus" xlink:href="#zoomMin" x="42" y="9" onmousedown="handleZoom(evt,'out')"/>
                <use id="reset" xlink:href="#resetDef" x="30" y="36" onmousedown="handleReset()"/>
                <g id="arrowUp" xlink:href="#dirArrow" transform="translate(30 24)" onmousedown="handlePan(0,-1)">
                  <use xlink:href="#rim" fill="#404040">
                        <set attributeName="fill" to="#808080" begin="arrowUp.mouseover" end="arrowUp.mouseout"/>
                  </use>
                  <path fill="none" stroke="white" stroke-width="1.5" d="M0,-3.0v7 M-2.5,-0.5L0,-3.0L2.5,-0.5"/>
                </g>
                <g id="arrowRight" xlink:href="#dirArrow" transform="rotate(90) translate(36 -43)" onmousedown="handlePan(1,0)">
                  <use xlink:href="#rim" fill="#404040">
                        <set attributeName="fill" to="#808080" begin="arrowRight.mouseover" end="arrowRight.mouseout"/>
                  </use>
                  <path fill="none" stroke="white" stroke-width="1.5" d="M0,-3.0v7 M-2.5,-0.5L0,-3.0L2.5,-0.5"/>
                </g>
                <g id="arrowDown" xlink:href="#dirArrow" transform="rotate(180) translate(-30 -48)" onmousedown="handlePan(0,1)">
                  <use xlink:href="#rim" fill="#404040">
                        <set attributeName="fill" to="#808080" begin="arrowDown.mouseover" end="arrowDown.mouseout"/>
                  </use>
                  <path fill="none" stroke="white" stroke-width="1.5" d="M0,-3.0v7 M-2.5,-0.5L0,-3.0L2.5,-0.5"/>
                </g>
                <g id="arrowLeft" xlink:href="#dirArrow" transform="rotate(270) translate(-36 17)" onmousedown="handlePan(-1,0)">
                  <use xlink:href="#rim" fill="#404040">
                        <set attributeName="fill" to="#808080" begin="arrowLeft.mouseover" end="arrowLeft.mouseout"/>
                  </use>
                  <path fill="none" stroke="white" stroke-width="1.5" d="M0,-3.0v7 M-2.5,-0.5L0,-3.0L2.5,-0.5"/>
                </g>
        </g>
        <svg viewBox="0 0 15 15" width="100%" height="30px" preserveAspectRatio="xMaxYMin meet">
         <g id="arrow_out" transform="scale(0.3 0.3)">
          <a xlink:href="PhysicsTemplate_8hpp__dep__incl_org.svg" target="_base">
           <rect id="button" ry="5" rx="5" y="6" x="6" height="38" width="38"
                fill="#f2f5e9" fill-opacity="0.5" stroke="#606060" stroke-width="1.0"/>
           <path id="arrow"
             d="M 11.500037,31.436501 C 11.940474,20.09759 22.043105,11.32322 32.158766,21.979434 L 37.068811,17.246167 C 37.068811,17.246167 37.088388,32 37.088388,32 L 22.160133,31.978069 C 22.160133,31.978069 26.997745,27.140456 26.997745,27.140456 C 18.528582,18.264221 13.291696,25.230495 11.500037,31.436501 z"
             style="fill:#404040;"/>
          </a>
         </g>
        </svg>
</svg>
