<?xml version="1.0" encoding="UTF-8" standalone="no"?>
<!DOCTYPE svg PUBLIC "-//W3C//DTD SVG 1.1//EN"
 "http://www.w3.org/Graphics/SVG/1.1/DTD/svg11.dtd">
<!-- Generated by graphviz version 2.44.0 ()
 -->
<!-- Title: includes/platformer&#45;engine/Physics/PlayerRigidBody.hpp Pages: 1 -->
<!--zoomable 475 -->
<svg id="main" version="1.1" xmlns="http://www.w3.org/2000/svg" xmlns:xlink="http://www.w3.org/1999/xlink" xml:space="preserve" onload="init(evt)">
<style type="text/css"><![CDATA[
.edge:hover path { stroke: red; }
.edge:hover polygon { stroke: red; fill: red; }
]]></style>
<script type="text/javascript"><![CDATA[
var edges = document.getElementsByTagName('g');
if (edges && edges.length) {
  for (var i=0;i<edges.length;i++) {
    if (edges[i].id.substr(0,4)=='edge') {
      edges[i].setAttribute('class','edge');
    }
  }
}
]]></script>
        <defs>
                <circle id="rim" cx="0" cy="0" r="7"/>
                <circle id="rim2" cx="0" cy="0" r="3.5"/>
                <g id="zoomPlus">
                        <use xlink:href="#rim" fill="#404040">
                                <set attributeName="fill" to="#808080" begin="zoomplus.mouseover" end="zoomplus.mouseout"/>
                        </use>
                        <path d="M-4,0h8M0,-4v8" fill="none" stroke="white" stroke-width="1.5" pointer-events="none"/>
                </g>
                <g id="zoomMin">
                        <use xlink:href="#rim" fill="#404040">
                                <set attributeName="fill" to="#808080" begin="zoomminus.mouseover" end="zoomminus.mouseout"/>
                        </use>
                        <path d="M-4,0h8" fill="none" stroke="white" stroke-width="1.5" pointer-events="none"/>
                </g>
                <g id="dirArrow">
                        <path fill="none" stroke="white" stroke-width="1.5" d="M0,-3.0v7 M-2.5,-0.5L0,-3.0L2.5,-0.5"/>
                </g>
               <g id="resetDef">
                       <use xlink:href="#rim2" fill="#404040">
                               <set attributeName="fill" to="#808080" begin="reset.mouseover" end="reset.mouseout"/>
                       </use>
               </g>
        </defs>

<script type="text/javascript">
var viewWidth = 1311;
var viewHeight = 475;
var sectionId = 'dynsection-0';
</script>
<script xlink:href="svgpan.js"/>
<svg id="graph" class="graph">
<g id="viewport">
<title>includes/platformer&#45;engine/Physics/PlayerRigidBody.hpp</title>
<!-- Node1 -->
<g id="node1" class="node">
<title>Node1</title>
<g id="a_node1"><a xlink:title=" ">
<polygon fill="#bfbfbf" stroke="black" points="1110.5,-425.5 1110.5,-466.5 1247.5,-466.5 1247.5,-425.5 1110.5,-425.5"/>
<text text-anchor="start" x="1118.5" y="-454.5" font-family="Helvetica,sans-Serif" font-size="10.00">includes/platformer</text>
<text text-anchor="start" x="1118.5" y="-443.5" font-family="Helvetica,sans-Serif" font-size="10.00">&#45;engine/Physics/PlayerRigid</text>
<text text-anchor="middle" x="1179" y="-432.5" font-family="Helvetica,sans-Serif" font-size="10.00">Body.hpp</text>
</a>
</g>
</g>
<!-- Node2 -->
<g id="node2" class="node">
<title>Node2</title>
<g id="a_node2"><a xlink:href="RigidBody_8hpp.html" target="_top" xlink:title=" ">
<polygon fill="none" stroke="black" points="1140,-369.5 1140,-388.5 1218,-388.5 1218,-369.5 1140,-369.5"/>
<text text-anchor="middle" x="1179" y="-376.5" font-family="Helvetica,sans-Serif" font-size="10.00">RigidBody.hpp</text>
</a>
</g>
</g>
<!-- Node1&#45;&gt;Node2 -->
<g id="edge1" class="edge">
<title>Node1&#45;&gt;Node2</title>
<path fill="none" stroke="midnightblue" d="M1179,-425.5C1179,-417.07 1179,-407.24 1179,-398.87"/>
<polygon fill="midnightblue" stroke="midnightblue" points="1182.5,-398.65 1179,-388.65 1175.5,-398.65 1182.5,-398.65"/>
</g>
<!-- Node3 -->
<g id="node3" class="node">
<title>Node3</title>
<g id="a_node3"><a xlink:href="Component_8hpp.html" target="_top" xlink:title=" ">
<polygon fill="none" stroke="black" points="833,-201.5 833,-220.5 917,-220.5 917,-201.5 833,-201.5"/>
<text text-anchor="middle" x="875" y="-208.5" font-family="Helvetica,sans-Serif" font-size="10.00">Component.hpp</text>
</a>
</g>
</g>
<!-- Node2&#45;&gt;Node3 -->
<g id="edge2" class="edge">
<title>Node2&#45;&gt;Node3</title>
<path fill="none" stroke="midnightblue" d="M1142.04,-369.43C1111.93,-361.78 1068.72,-349.29 1033,-333 990.13,-313.46 980.23,-305.87 943,-277 923.37,-261.77 903.05,-241.69 889.8,-227.9"/>
<polygon fill="midnightblue" stroke="midnightblue" points="892.29,-225.44 882.87,-220.59 887.21,-230.25 892.29,-225.44"/>
</g>
<!-- Node5 -->
<g id="node5" class="node">
<title>Node5</title>
<g id="a_node5"><a xlink:title=" ">
<polygon fill="none" stroke="#bfbfbf" points="1179.5,-134.5 1179.5,-164.5 1274.5,-164.5 1274.5,-134.5 1179.5,-134.5"/>
<text text-anchor="start" x="1187.5" y="-152.5" font-family="Helvetica,sans-Serif" font-size="10.00">boost/serialization</text>
<text text-anchor="middle" x="1227" y="-141.5" font-family="Helvetica,sans-Serif" font-size="10.00">/access.hpp</text>
</a>
</g>
</g>
<!-- Node2&#45;&gt;Node5 -->
<g id="edge43" class="edge">
<title>Node2&#45;&gt;Node5</title>
<path fill="none" stroke="midnightblue" d="M1181.87,-369.45C1187.57,-352.17 1200.43,-311.76 1208,-277 1215.65,-241.84 1221.23,-200.51 1224.29,-174.91"/>
<polygon fill="midnightblue" stroke="midnightblue" points="1227.81,-174.99 1225.49,-164.65 1220.85,-174.18 1227.81,-174.99"/>
</g>
<!-- Node31 -->
<g id="node31" class="node">
<title>Node31</title>
<g id="a_node31"><a xlink:href="Point_8hpp.html" target="_top" xlink:title=" ">
<polygon fill="none" stroke="black" points="1141.5,-257.5 1141.5,-276.5 1198.5,-276.5 1198.5,-257.5 1141.5,-257.5"/>
<text text-anchor="middle" x="1170" y="-264.5" font-family="Helvetica,sans-Serif" font-size="10.00">Point.hpp</text>
</a>
</g>
</g>
<!-- Node2&#45;&gt;Node31 -->
<g id="edge34" class="edge">
<title>Node2&#45;&gt;Node31</title>
<path fill="none" stroke="midnightblue" d="M1178.29,-369.37C1176.84,-351.62 1173.49,-310.67 1171.52,-286.6"/>
<polygon fill="midnightblue" stroke="midnightblue" points="1175.01,-286.27 1170.7,-276.59 1168.03,-286.84 1175.01,-286.27"/>
</g>
<!-- Node32 -->
<g id="node32" class="node">
<title>Node32</title>
<g id="a_node32"><a xlink:href="Collision_8hpp.html" target="_top" xlink:title=" ">
<polygon fill="none" stroke="black" points="1041.5,-313.5 1041.5,-332.5 1150.5,-332.5 1150.5,-313.5 1041.5,-313.5"/>
<text text-anchor="middle" x="1096" y="-320.5" font-family="Helvetica,sans-Serif" font-size="10.00">Physics/Collision.hpp</text>
</a>
</g>
</g>
<!-- Node2&#45;&gt;Node32 -->
<g id="edge35" class="edge">
<title>Node2&#45;&gt;Node32</title>
<path fill="none" stroke="midnightblue" d="M1165.66,-369.32C1152.84,-360.98 1133.22,-348.21 1118.06,-338.35"/>
<polygon fill="midnightblue" stroke="midnightblue" points="1119.59,-335.17 1109.3,-332.65 1115.78,-341.04 1119.59,-335.17"/>
</g>
<!-- Node35 -->
<g id="node35" class="node">
<title>Node35</title>
<g id="a_node35"><a xlink:title=" ">
<polygon fill="none" stroke="#bfbfbf" points="1255.5,-313.5 1255.5,-332.5 1290.5,-332.5 1290.5,-313.5 1255.5,-313.5"/>
<text text-anchor="middle" x="1273" y="-320.5" font-family="Helvetica,sans-Serif" font-size="10.00">map</text>
</a>
</g>
</g>
<!-- Node2&#45;&gt;Node35 -->
<g id="edge42" class="edge">
<title>Node2&#45;&gt;Node35</title>
<path fill="none" stroke="midnightblue" d="M1194.1,-369.32C1208.9,-360.82 1231.69,-347.73 1248.98,-337.8"/>
<polygon fill="midnightblue" stroke="midnightblue" points="1251.01,-340.67 1257.93,-332.65 1247.52,-334.6 1251.01,-340.67"/>
</g>
<!-- Node4 -->
<g id="node4" class="node">
<title>Node4</title>
<g id="a_node4"><a xlink:title=" ">
<polygon fill="none" stroke="#bfbfbf" points="1110.5,-140 1110.5,-159 1161.5,-159 1161.5,-140 1110.5,-140"/>
<text text-anchor="middle" x="1136" y="-147" font-family="Helvetica,sans-Serif" font-size="10.00">memory</text>
</a>
</g>
</g>
<!-- Node3&#45;&gt;Node4 -->
<g id="edge3" class="edge">
<title>Node3&#45;&gt;Node4</title>
<path fill="none" stroke="midnightblue" d="M917.07,-204.33C963.13,-197.52 1038.85,-184.49 1102,-165 1104.14,-164.34 1106.33,-163.59 1108.52,-162.78"/>
<polygon fill="midnightblue" stroke="midnightblue" points="1109.92,-165.99 1117.91,-159.04 1107.32,-159.49 1109.92,-165.99"/>
</g>
<!-- Node3&#45;&gt;Node5 -->
<g id="edge4" class="edge">
<title>Node3&#45;&gt;Node5</title>
<path fill="none" stroke="midnightblue" d="M917.4,-204.94C973.11,-197.99 1074.17,-184.34 1169.34,-165.22"/>
<polygon fill="midnightblue" stroke="midnightblue" points="1170.32,-168.6 1179.42,-163.17 1168.92,-161.74 1170.32,-168.6"/>
</g>
<!-- Node6 -->
<g id="node6" class="node">
<title>Node6</title>
<g id="a_node6"><a xlink:title=" ">
<polygon fill="none" stroke="#bfbfbf" points="771.5,-134.5 771.5,-164.5 866.5,-164.5 866.5,-134.5 771.5,-134.5"/>
<text text-anchor="start" x="779.5" y="-152.5" font-family="Helvetica,sans-Serif" font-size="10.00">boost/serialization</text>
<text text-anchor="middle" x="819" y="-141.5" font-family="Helvetica,sans-Serif" font-size="10.00">/map.hpp</text>
</a>
</g>
</g>
<!-- Node3&#45;&gt;Node6 -->
<g id="edge5" class="edge">
<title>Node3&#45;&gt;Node6</title>
<path fill="none" stroke="midnightblue" d="M866.98,-201.48C859.75,-193.79 848.81,-182.17 839.2,-171.96"/>
<polygon fill="midnightblue" stroke="midnightblue" points="841.6,-169.41 832.2,-164.52 836.5,-174.2 841.6,-169.41"/>
</g>
<!-- Node7 -->
<g id="node7" class="node">
<title>Node7</title>
<g id="a_node7"><a xlink:title=" ">
<polygon fill="none" stroke="#bfbfbf" points="884.5,-134.5 884.5,-164.5 979.5,-164.5 979.5,-134.5 884.5,-134.5"/>
<text text-anchor="start" x="892.5" y="-152.5" font-family="Helvetica,sans-Serif" font-size="10.00">boost/serialization</text>
<text text-anchor="middle" x="932" y="-141.5" font-family="Helvetica,sans-Serif" font-size="10.00">/vector.hpp</text>
</a>
</g>
</g>
<!-- Node3&#45;&gt;Node7 -->
<g id="edge6" class="edge">
<title>Node3&#45;&gt;Node7</title>
<path fill="none" stroke="midnightblue" d="M883.17,-201.48C890.53,-193.79 901.66,-182.17 911.44,-171.96"/>
<polygon fill="midnightblue" stroke="midnightblue" points="914.18,-174.17 918.57,-164.52 909.12,-169.32 914.18,-174.17"/>
</g>
<!-- Node8 -->
<g id="node8" class="node">
<title>Node8</title>
<g id="a_node8"><a xlink:title=" ">
<polygon fill="none" stroke="#bfbfbf" points="997.5,-134.5 997.5,-164.5 1092.5,-164.5 1092.5,-134.5 997.5,-134.5"/>
<text text-anchor="start" x="1005.5" y="-152.5" font-family="Helvetica,sans-Serif" font-size="10.00">boost/serialization</text>
<text text-anchor="middle" x="1045" y="-141.5" font-family="Helvetica,sans-Serif" font-size="10.00">/shared_ptr.hpp</text>
</a>
</g>
</g>
<!-- Node3&#45;&gt;Node8 -->
<g id="edge7" class="edge">
<title>Node3&#45;&gt;Node8</title>
<path fill="none" stroke="midnightblue" d="M899.36,-201.48C924.32,-192.74 963.84,-178.91 995.41,-167.86"/>
<polygon fill="midnightblue" stroke="midnightblue" points="996.65,-171.13 1004.93,-164.52 994.34,-164.52 996.65,-171.13"/>
</g>
<!-- Node9 -->
<g id="node9" class="node">
<title>Node9</title>
<g id="a_node9"><a xlink:title=" ">
<polygon fill="none" stroke="#bfbfbf" points="115.5,-134.5 115.5,-164.5 210.5,-164.5 210.5,-134.5 115.5,-134.5"/>
<text text-anchor="start" x="123.5" y="-152.5" font-family="Helvetica,sans-Serif" font-size="10.00">boost/serialization</text>
<text text-anchor="middle" x="163" y="-141.5" font-family="Helvetica,sans-Serif" font-size="10.00">/export.hpp</text>
</a>
</g>
</g>
<!-- Node3&#45;&gt;Node9 -->
<g id="edge8" class="edge">
<title>Node3&#45;&gt;Node9</title>
<path fill="none" stroke="midnightblue" d="M832.94,-209.73C730,-208.52 457.19,-201.93 220.92,-164.93"/>
<polygon fill="midnightblue" stroke="midnightblue" points="221.19,-161.43 210.76,-163.32 220.09,-168.34 221.19,-161.43"/>
</g>
<!-- Node10 -->
<g id="node10" class="node">
<title>Node10</title>
<g id="a_node10"><a xlink:title=" ">
<polygon fill="none" stroke="#bfbfbf" points="229,-134.5 229,-164.5 333,-164.5 333,-134.5 229,-134.5"/>
<text text-anchor="start" x="237" y="-152.5" font-family="Helvetica,sans-Serif" font-size="10.00">boost/archive/binary</text>
<text text-anchor="middle" x="281" y="-141.5" font-family="Helvetica,sans-Serif" font-size="10.00">_iarchive.hpp</text>
</a>
</g>
</g>
<!-- Node3&#45;&gt;Node10 -->
<g id="edge9" class="edge">
<title>Node3&#45;&gt;Node10</title>
<path fill="none" stroke="midnightblue" d="M832.94,-208.58C744.15,-205.13 531,-194.42 343.2,-165.03"/>
<polygon fill="midnightblue" stroke="midnightblue" points="343.57,-161.55 333.14,-163.43 342.47,-168.46 343.57,-161.55"/>
</g>
<!-- Node11 -->
<g id="node11" class="node">
<title>Node11</title>
<g id="a_node11"><a xlink:title=" ">
<polygon fill="none" stroke="#bfbfbf" points="351,-134.5 351,-164.5 455,-164.5 455,-134.5 351,-134.5"/>
<text text-anchor="start" x="359" y="-152.5" font-family="Helvetica,sans-Serif" font-size="10.00">boost/archive/binary</text>
<text text-anchor="middle" x="403" y="-141.5" font-family="Helvetica,sans-Serif" font-size="10.00">_oarchive.hpp</text>
</a>
</g>
</g>
<!-- Node3&#45;&gt;Node11 -->
<g id="edge10" class="edge">
<title>Node3&#45;&gt;Node11</title>
<path fill="none" stroke="midnightblue" d="M832.86,-207.06C758.3,-201.48 598.4,-187.83 465,-165 464.9,-164.98 464.8,-164.96 464.69,-164.95"/>
<polygon fill="midnightblue" stroke="midnightblue" points="465.47,-161.53 455,-163.14 464.19,-168.41 465.47,-161.53"/>
</g>
<!-- Node12 -->
<g id="node12" class="node">
<title>Node12</title>
<g id="a_node12"><a xlink:href="portable__binary__iarchive_8hpp.html" target="_top" xlink:title=" ">
<polygon fill="none" stroke="black" points="622.5,-134.5 622.5,-164.5 753.5,-164.5 753.5,-134.5 622.5,-134.5"/>
<text text-anchor="start" x="630.5" y="-152.5" font-family="Helvetica,sans-Serif" font-size="10.00">Networking/boost/portable</text>
<text text-anchor="middle" x="688" y="-141.5" font-family="Helvetica,sans-Serif" font-size="10.00">_binary_iarchive.hpp</text>
</a>
</g>
</g>
<!-- Node3&#45;&gt;Node12 -->
<g id="edge11" class="edge">
<title>Node3&#45;&gt;Node12</title>
<path fill="none" stroke="midnightblue" d="M848.21,-201.48C820.51,-192.66 776.53,-178.67 741.65,-167.57"/>
<polygon fill="midnightblue" stroke="midnightblue" points="742.66,-164.22 732.07,-164.52 740.54,-170.89 742.66,-164.22"/>
</g>
<!-- Node27 -->
<g id="node27" class="node">
<title>Node27</title>
<g id="a_node27"><a xlink:href="portable__binary__oarchive_8hpp.html" target="_top" xlink:title=" ">
<polygon fill="none" stroke="black" points="473.5,-134.5 473.5,-164.5 604.5,-164.5 604.5,-134.5 473.5,-134.5"/>
<text text-anchor="start" x="481.5" y="-152.5" font-family="Helvetica,sans-Serif" font-size="10.00">Networking/boost/portable</text>
<text text-anchor="middle" x="539" y="-141.5" font-family="Helvetica,sans-Serif" font-size="10.00">_binary_oarchive.hpp</text>
</a>
</g>
</g>
<!-- Node3&#45;&gt;Node27 -->
<g id="edge26" class="edge">
<title>Node3&#45;&gt;Node27</title>
<path fill="none" stroke="midnightblue" d="M832.91,-203.01C783.25,-194.71 697.93,-180.26 614.71,-165.11"/>
<polygon fill="midnightblue" stroke="midnightblue" points="615.3,-161.66 604.84,-163.31 614.04,-168.55 615.3,-161.66"/>
</g>
<!-- Node13 -->
<g id="node13" class="node">
<title>Node13</title>
<g id="a_node13"><a xlink:title=" ">
<polygon fill="none" stroke="#bfbfbf" points="1253.5,-73 1253.5,-92 1302.5,-92 1302.5,-73 1253.5,-73"/>
<text text-anchor="middle" x="1278" y="-80" font-family="Helvetica,sans-Serif" font-size="10.00">istream</text>
</a>
</g>
</g>
<!-- Node12&#45;&gt;Node13 -->
<g id="edge12" class="edge">
<title>Node12&#45;&gt;Node13</title>
<path fill="none" stroke="midnightblue" d="M753.78,-135.33C756.89,-134.85 759.98,-134.4 763,-134 975.49,-105.61 1035.71,-148.73 1244,-98 1246.51,-97.39 1249.07,-96.61 1251.6,-95.73"/>
<polygon fill="midnightblue" stroke="midnightblue" points="1253.05,-98.93 1261.08,-92.01 1250.49,-92.41 1253.05,-98.93"/>
</g>
<!-- Node14 -->
<g id="node14" class="node">
<title>Node14</title>
<g id="a_node14"><a xlink:title=" ">
<polygon fill="none" stroke="#bfbfbf" points="491.5,-67.5 491.5,-97.5 586.5,-97.5 586.5,-67.5 491.5,-67.5"/>
<text text-anchor="start" x="499.5" y="-85.5" font-family="Helvetica,sans-Serif" font-size="10.00">boost/serialization</text>
<text text-anchor="middle" x="539" y="-74.5" font-family="Helvetica,sans-Serif" font-size="10.00">/string.hpp</text>
</a>
</g>
</g>
<!-- Node12&#45;&gt;Node14 -->
<g id="edge13" class="edge">
<title>Node12&#45;&gt;Node14</title>
<path fill="none" stroke="midnightblue" d="M655.67,-134.4C633.7,-124.81 604.44,-112.05 580.72,-101.7"/>
<polygon fill="midnightblue" stroke="midnightblue" points="581.83,-98.37 571.27,-97.58 579.03,-104.78 581.83,-98.37"/>
</g>
<!-- Node15 -->
<g id="node15" class="node">
<title>Node15</title>
<g id="a_node15"><a xlink:title=" ">
<polygon fill="none" stroke="#bfbfbf" points="859,-67.5 859,-97.5 975,-97.5 975,-67.5 859,-67.5"/>
<text text-anchor="start" x="867" y="-85.5" font-family="Helvetica,sans-Serif" font-size="10.00">boost/serialization</text>
<text text-anchor="middle" x="917" y="-74.5" font-family="Helvetica,sans-Serif" font-size="10.00">/item_version_type.hpp</text>
</a>
</g>
</g>
<!-- Node12&#45;&gt;Node15 -->
<g id="edge14" class="edge">
<title>Node12&#45;&gt;Node15</title>
<path fill="none" stroke="midnightblue" d="M737.41,-134.48C772.65,-124.47 820.22,-110.97 857.54,-100.38"/>
<polygon fill="midnightblue" stroke="midnightblue" points="858.62,-103.71 867.29,-97.61 856.71,-96.97 858.62,-103.71"/>
</g>
<!-- Node16 -->
<g id="node16" class="node">
<title>Node16</title>
<g id="a_node16"><a xlink:title=" ">
<polygon fill="none" stroke="#bfbfbf" points="605,-67.5 605,-97.5 715,-97.5 715,-67.5 605,-67.5"/>
<text text-anchor="start" x="613" y="-85.5" font-family="Helvetica,sans-Serif" font-size="10.00">boost/archive/archive</text>
<text text-anchor="middle" x="660" y="-74.5" font-family="Helvetica,sans-Serif" font-size="10.00">_exception.hpp</text>
</a>
</g>
</g>
<!-- Node12&#45;&gt;Node16 -->
<g id="edge15" class="edge">
<title>Node12&#45;&gt;Node16</title>
<path fill="none" stroke="midnightblue" d="M681.92,-134.4C678.48,-126.39 674.07,-116.16 670.11,-106.98"/>
<polygon fill="midnightblue" stroke="midnightblue" points="673.23,-105.38 666.06,-97.58 666.81,-108.15 673.23,-105.38"/>
</g>
<!-- Node17 -->
<g id="node17" class="node">
<title>Node17</title>
<g id="a_node17"><a xlink:title=" ">
<polygon fill="none" stroke="#bfbfbf" points="993,-67.5 993,-97.5 1103,-97.5 1103,-67.5 993,-67.5"/>
<text text-anchor="start" x="1001" y="-85.5" font-family="Helvetica,sans-Serif" font-size="10.00">boost/archive/basic</text>
<text text-anchor="middle" x="1048" y="-74.5" font-family="Helvetica,sans-Serif" font-size="10.00">_binary_iprimitive.hpp</text>
</a>
</g>
</g>
<!-- Node12&#45;&gt;Node17 -->
<g id="edge16" class="edge">
<title>Node12&#45;&gt;Node17</title>
<path fill="none" stroke="midnightblue" d="M753.83,-135.66C756.93,-135.09 760,-134.53 763,-134 857.82,-117.12 884.61,-116.99 982.83,-98.16"/>
<polygon fill="midnightblue" stroke="midnightblue" points="983.73,-101.55 992.89,-96.21 982.4,-94.68 983.73,-101.55"/>
</g>
<!-- Node18 -->
<g id="node18" class="node">
<title>Node18</title>
<g id="a_node18"><a xlink:title=" ">
<polygon fill="none" stroke="#bfbfbf" points="1121,-67.5 1121,-97.5 1235,-97.5 1235,-67.5 1121,-67.5"/>
<text text-anchor="start" x="1129" y="-85.5" font-family="Helvetica,sans-Serif" font-size="10.00">boost/archive/detail</text>
<text text-anchor="middle" x="1178" y="-74.5" font-family="Helvetica,sans-Serif" font-size="10.00">/common_iarchive.hpp</text>
</a>
</g>
</g>
<!-- Node12&#45;&gt;Node18 -->
<g id="edge17" class="edge">
<title>Node12&#45;&gt;Node18</title>
<path fill="none" stroke="midnightblue" d="M753.79,-135.44C756.9,-134.93 759.98,-134.45 763,-134 913.94,-111.67 956.24,-122.29 1110.51,-98.12"/>
<polygon fill="midnightblue" stroke="midnightblue" points="1111.51,-101.5 1120.84,-96.47 1110.41,-94.59 1111.51,-101.5"/>
</g>
<!-- Node19 -->
<g id="node19" class="node">
<title>Node19</title>
<g id="a_node19"><a xlink:title=" ">
<polygon fill="none" stroke="#bfbfbf" points="733.5,-67.5 733.5,-97.5 840.5,-97.5 840.5,-67.5 733.5,-67.5"/>
<text text-anchor="start" x="741.5" y="-85.5" font-family="Helvetica,sans-Serif" font-size="10.00">boost/archive/detail</text>
<text text-anchor="middle" x="787" y="-74.5" font-family="Helvetica,sans-Serif" font-size="10.00">/register_archive.hpp</text>
</a>
</g>
</g>
<!-- Node12&#45;&gt;Node19 -->
<g id="edge18" class="edge">
<title>Node12&#45;&gt;Node19</title>
<path fill="none" stroke="midnightblue" d="M709.48,-134.4C723.36,-125.28 741.63,-113.29 756.94,-103.24"/>
<polygon fill="midnightblue" stroke="midnightblue" points="759.12,-105.99 765.56,-97.58 755.28,-100.14 759.12,-105.99"/>
</g>
<!-- Node20 -->
<g id="node20" class="node">
<title>Node20</title>
<g id="a_node20"><a xlink:href="portable__binary__archive_8hpp.html" target="_top" xlink:title=" ">
<polygon fill="none" stroke="black" points="336.5,-73 336.5,-92 473.5,-92 473.5,-73 336.5,-73"/>
<text text-anchor="middle" x="405" y="-80" font-family="Helvetica,sans-Serif" font-size="10.00">portable_binary_archive.hpp</text>
</a>
</g>
</g>
<!-- Node12&#45;&gt;Node20 -->
<g id="edge19" class="edge">
<title>Node12&#45;&gt;Node20</title>
<path fill="none" stroke="midnightblue" d="M626.94,-134.48C574.45,-122.42 499.85,-105.29 451.94,-94.28"/>
<polygon fill="midnightblue" stroke="midnightblue" points="452.66,-90.86 442.13,-92.03 451.1,-97.68 452.66,-90.86"/>
</g>
<!-- Node21 -->
<g id="node21" class="node">
<title>Node21</title>
<g id="a_node21"><a xlink:title=" ">
<polygon fill="none" stroke="#bfbfbf" points="81.5,-6 81.5,-25 168.5,-25 168.5,-6 81.5,-6"/>
<text text-anchor="middle" x="125" y="-13" font-family="Helvetica,sans-Serif" font-size="10.00">boost/config.hpp</text>
</a>
</g>
</g>
<!-- Node20&#45;&gt;Node21 -->
<g id="edge20" class="edge">
<title>Node20&#45;&gt;Node21</title>
<path fill="none" stroke="midnightblue" d="M363.24,-72.96C317.39,-63.41 241.7,-47.17 177,-31 172.91,-29.98 168.65,-28.87 164.41,-27.73"/>
<polygon fill="midnightblue" stroke="midnightblue" points="165.19,-24.32 154.63,-25.06 163.35,-31.07 165.19,-24.32"/>
</g>
<!-- Node22 -->
<g id="node22" class="node">
<title>Node22</title>
<g id="a_node22"><a xlink:title=" ">
<polygon fill="none" stroke="#bfbfbf" points="186.5,-6 186.5,-25 277.5,-25 277.5,-6 186.5,-6"/>
<text text-anchor="middle" x="232" y="-13" font-family="Helvetica,sans-Serif" font-size="10.00">boost/cstdint.hpp</text>
</a>
</g>
</g>
<!-- Node20&#45;&gt;Node22 -->
<g id="edge21" class="edge">
<title>Node20&#45;&gt;Node22</title>
<path fill="none" stroke="midnightblue" d="M382.03,-72.87C351.83,-61.52 298.6,-41.52 264.34,-28.65"/>
<polygon fill="midnightblue" stroke="midnightblue" points="265.38,-25.3 254.79,-25.06 262.92,-31.86 265.38,-25.3"/>
</g>
<!-- Node23 -->
<g id="node23" class="node">
<title>Node23</title>
<g id="a_node23"><a xlink:title=" ">
<polygon fill="none" stroke="#bfbfbf" points="296,-6 296,-25 414,-25 414,-6 296,-6"/>
<text text-anchor="middle" x="355" y="-13" font-family="Helvetica,sans-Serif" font-size="10.00">boost/static_assert.hpp</text>
</a>
</g>
</g>
<!-- Node20&#45;&gt;Node23 -->
<g id="edge22" class="edge">
<title>Node20&#45;&gt;Node23</title>
<path fill="none" stroke="midnightblue" d="M398.26,-72.73C390.46,-62.6 377.45,-45.69 367.74,-33.06"/>
<polygon fill="midnightblue" stroke="midnightblue" points="370.51,-30.92 361.64,-25.13 364.96,-35.19 370.51,-30.92"/>
</g>
<!-- Node24 -->
<g id="node24" class="node">
<title>Node24</title>
<g id="a_node24"><a xlink:title=" ">
<polygon fill="none" stroke="#bfbfbf" points="432.5,-6 432.5,-25 477.5,-25 477.5,-6 432.5,-6"/>
<text text-anchor="middle" x="455" y="-13" font-family="Helvetica,sans-Serif" font-size="10.00">climits</text>
</a>
</g>
</g>
<!-- Node20&#45;&gt;Node24 -->
<g id="edge23" class="edge">
<title>Node20&#45;&gt;Node24</title>
<path fill="none" stroke="midnightblue" d="M411.74,-72.73C419.54,-62.6 432.55,-45.69 442.26,-33.06"/>
<polygon fill="midnightblue" stroke="midnightblue" points="445.04,-35.19 448.36,-25.13 439.49,-30.92 445.04,-35.19"/>
</g>
<!-- Node25 -->
<g id="node25" class="node">
<title>Node25</title>
<g id="a_node25"><a xlink:title=" ">
<polygon fill="none" stroke="#bfbfbf" points="495.5,-0.5 495.5,-30.5 596.5,-30.5 596.5,-0.5 495.5,-0.5"/>
<text text-anchor="start" x="503.5" y="-18.5" font-family="Helvetica,sans-Serif" font-size="10.00">boost/archive/basic</text>
<text text-anchor="middle" x="546" y="-7.5" font-family="Helvetica,sans-Serif" font-size="10.00">_archive.hpp</text>
</a>
</g>
</g>
<!-- Node20&#45;&gt;Node25 -->
<g id="edge24" class="edge">
<title>Node20&#45;&gt;Node25</title>
<path fill="none" stroke="midnightblue" d="M423.72,-72.87C444.7,-63.2 479.3,-47.25 506.35,-34.78"/>
<polygon fill="midnightblue" stroke="midnightblue" points="507.95,-37.89 515.57,-30.53 505.02,-31.54 507.95,-37.89"/>
</g>
<!-- Node26 -->
<g id="node26" class="node">
<title>Node26</title>
<g id="a_node26"><a xlink:title=" ">
<polygon fill="none" stroke="#bfbfbf" points="614.5,-0.5 614.5,-30.5 709.5,-30.5 709.5,-0.5 614.5,-0.5"/>
<text text-anchor="start" x="622.5" y="-18.5" font-family="Helvetica,sans-Serif" font-size="10.00">boost/predef/other</text>
<text text-anchor="middle" x="662" y="-7.5" font-family="Helvetica,sans-Serif" font-size="10.00">/endian.h</text>
</a>
</g>
</g>
<!-- Node20&#45;&gt;Node26 -->
<g id="edge25" class="edge">
<title>Node20&#45;&gt;Node26</title>
<path fill="none" stroke="midnightblue" d="M439.16,-73C477.22,-63.51 540.83,-47.59 604.54,-31.36"/>
<polygon fill="midnightblue" stroke="midnightblue" points="605.52,-34.73 614.35,-28.86 603.79,-27.94 605.52,-34.73"/>
</g>
<!-- Node27&#45;&gt;Node14 -->
<g id="edge28" class="edge">
<title>Node27&#45;&gt;Node14</title>
<path fill="none" stroke="midnightblue" d="M539,-134.4C539,-126.64 539,-116.81 539,-107.86"/>
<polygon fill="midnightblue" stroke="midnightblue" points="542.5,-107.58 539,-97.58 535.5,-107.58 542.5,-107.58"/>
</g>
<!-- Node27&#45;&gt;Node16 -->
<g id="edge29" class="edge">
<title>Node27&#45;&gt;Node16</title>
<path fill="none" stroke="midnightblue" d="M565.26,-134.4C582.7,-125.03 605.8,-112.62 624.83,-102.39"/>
<polygon fill="midnightblue" stroke="midnightblue" points="626.64,-105.39 633.8,-97.58 623.33,-99.23 626.64,-105.39"/>
</g>
<!-- Node27&#45;&gt;Node19 -->
<g id="edge32" class="edge">
<title>Node27&#45;&gt;Node19</title>
<path fill="none" stroke="midnightblue" d="M592.51,-134.48C630.92,-124.41 682.84,-110.8 723.38,-100.17"/>
<polygon fill="midnightblue" stroke="midnightblue" points="724.38,-103.53 733.16,-97.61 722.6,-96.76 724.38,-103.53"/>
</g>
<!-- Node27&#45;&gt;Node20 -->
<g id="edge33" class="edge">
<title>Node27&#45;&gt;Node20</title>
<path fill="none" stroke="midnightblue" d="M509.92,-134.4C486.62,-123.09 454.19,-107.36 431.57,-96.39"/>
<polygon fill="midnightblue" stroke="midnightblue" points="433.06,-93.22 422.54,-92.01 430.01,-99.52 433.06,-93.22"/>
</g>
<!-- Node28 -->
<g id="node28" class="node">
<title>Node28</title>
<g id="a_node28"><a xlink:title=" ">
<polygon fill="none" stroke="#bfbfbf" points="0,-73 0,-92 52,-92 52,-73 0,-73"/>
<text text-anchor="middle" x="26" y="-80" font-family="Helvetica,sans-Serif" font-size="10.00">ostream</text>
</a>
</g>
</g>
<!-- Node27&#45;&gt;Node28 -->
<g id="edge27" class="edge">
<title>Node27&#45;&gt;Node28</title>
<path fill="none" stroke="midnightblue" d="M473.21,-135.39C470.1,-134.89 467.02,-134.43 464,-134 285.94,-108.9 235.63,-140.91 61,-98 58.49,-97.38 55.92,-96.61 53.37,-95.75"/>
<polygon fill="midnightblue" stroke="midnightblue" points="54.4,-92.4 43.81,-92.1 51.91,-98.94 54.4,-92.4"/>
</g>
<!-- Node29 -->
<g id="node29" class="node">
<title>Node29</title>
<g id="a_node29"><a xlink:title=" ">
<polygon fill="none" stroke="#bfbfbf" points="70.5,-67.5 70.5,-97.5 183.5,-97.5 183.5,-67.5 70.5,-67.5"/>
<text text-anchor="start" x="78.5" y="-85.5" font-family="Helvetica,sans-Serif" font-size="10.00">boost/archive/basic</text>
<text text-anchor="middle" x="127" y="-74.5" font-family="Helvetica,sans-Serif" font-size="10.00">_binary_oprimitive.hpp</text>
</a>
</g>
</g>
<!-- Node27&#45;&gt;Node29 -->
<g id="edge30" class="edge">
<title>Node27&#45;&gt;Node29</title>
<path fill="none" stroke="midnightblue" d="M473.19,-135.55C470.09,-135.01 467.01,-134.49 464,-134 346.81,-114.93 313.8,-119.06 193.62,-98.2"/>
<polygon fill="midnightblue" stroke="midnightblue" points="194.12,-94.73 183.66,-96.45 192.9,-101.63 194.12,-94.73"/>
</g>
<!-- Node30 -->
<g id="node30" class="node">
<title>Node30</title>
<g id="a_node30"><a xlink:title=" ">
<polygon fill="none" stroke="#bfbfbf" points="201.5,-67.5 201.5,-97.5 318.5,-97.5 318.5,-67.5 201.5,-67.5"/>
<text text-anchor="start" x="209.5" y="-85.5" font-family="Helvetica,sans-Serif" font-size="10.00">boost/archive/detail</text>
<text text-anchor="middle" x="260" y="-74.5" font-family="Helvetica,sans-Serif" font-size="10.00">/common_oarchive.hpp</text>
</a>
</g>
</g>
<!-- Node27&#45;&gt;Node30 -->
<g id="edge31" class="edge">
<title>Node27&#45;&gt;Node30</title>
<path fill="none" stroke="midnightblue" d="M478.8,-134.48C434.63,-124.18 374.57,-110.19 328.54,-99.47"/>
<polygon fill="midnightblue" stroke="midnightblue" points="329.19,-96.02 318.65,-97.16 327.6,-102.84 329.19,-96.02"/>
</g>
<!-- Node32&#45;&gt;Node4 -->
<g id="edge36" class="edge">
<title>Node32&#45;&gt;Node4</title>
<path fill="none" stroke="midnightblue" d="M1094.52,-313.48C1091.35,-293.29 1085.3,-241.18 1099,-201 1103.35,-188.24 1112.17,-175.99 1120.11,-166.75"/>
<polygon fill="midnightblue" stroke="midnightblue" points="1122.85,-168.94 1127,-159.19 1117.68,-164.22 1122.85,-168.94"/>
</g>
<!-- Node32&#45;&gt;Node5 -->
<g id="edge41" class="edge">
<title>Node32&#45;&gt;Node5</title>
<path fill="none" stroke="midnightblue" d="M1100.25,-313.24C1106.64,-300.43 1119.41,-276.02 1133,-257 1155.5,-225.51 1185.74,-192.6 1205.78,-171.85"/>
<polygon fill="midnightblue" stroke="midnightblue" points="1208.45,-174.12 1212.92,-164.52 1203.43,-169.24 1208.45,-174.12"/>
</g>
<!-- Node32&#45;&gt;Node31 -->
<g id="edge37" class="edge">
<title>Node32&#45;&gt;Node31</title>
<path fill="none" stroke="midnightblue" d="M1107.89,-313.32C1119.15,-305.11 1136.29,-292.6 1149.71,-282.81"/>
<polygon fill="midnightblue" stroke="midnightblue" points="1151.88,-285.56 1157.89,-276.83 1147.75,-279.9 1151.88,-285.56"/>
</g>
<!-- Node33 -->
<g id="node33" class="node">
<title>Node33</title>
<g id="a_node33"><a xlink:href="Collider_8hpp.html" target="_top" xlink:title=" ">
<polygon fill="none" stroke="black" points="951.5,-257.5 951.5,-276.5 1018.5,-276.5 1018.5,-257.5 951.5,-257.5"/>
<text text-anchor="middle" x="985" y="-264.5" font-family="Helvetica,sans-Serif" font-size="10.00">Collider.hpp</text>
</a>
</g>
</g>
<!-- Node32&#45;&gt;Node33 -->
<g id="edge38" class="edge">
<title>Node32&#45;&gt;Node33</title>
<path fill="none" stroke="midnightblue" d="M1078.17,-313.32C1060.28,-304.62 1032.52,-291.12 1011.95,-281.11"/>
<polygon fill="midnightblue" stroke="midnightblue" points="1013.31,-277.88 1002.79,-276.65 1010.25,-284.18 1013.31,-277.88"/>
</g>
<!-- Node33&#45;&gt;Node3 -->
<g id="edge40" class="edge">
<title>Node33&#45;&gt;Node3</title>
<path fill="none" stroke="midnightblue" d="M967.33,-257.32C949.61,-248.62 922.1,-235.12 901.71,-225.11"/>
<polygon fill="midnightblue" stroke="midnightblue" points="903.15,-221.92 892.63,-220.65 900.06,-228.2 903.15,-221.92"/>
</g>
<!-- Node34 -->
<g id="node34" class="node">
<title>Node34</title>
<g id="a_node34"><a xlink:title=" ">
<polygon fill="none" stroke="#bfbfbf" points="963,-201.5 963,-220.5 1007,-220.5 1007,-201.5 963,-201.5"/>
<text text-anchor="middle" x="985" y="-208.5" font-family="Helvetica,sans-Serif" font-size="10.00">vector</text>
</a>
</g>
</g>
<!-- Node33&#45;&gt;Node34 -->
<g id="edge39" class="edge">
<title>Node33&#45;&gt;Node34</title>
<path fill="none" stroke="midnightblue" d="M985,-257.08C985,-250.01 985,-239.86 985,-230.99"/>
<polygon fill="midnightblue" stroke="midnightblue" points="988.5,-230.75 985,-220.75 981.5,-230.75 988.5,-230.75"/>
</g>
</g>
</svg>
        <g id="navigator" transform="translate(0 0)" fill="#404254">
                <rect fill="#f2f5e9" fill-opacity="0.5" stroke="#606060" stroke-width=".5" x="0" y="0" width="60" height="60"/>
                <use id="zoomplus" xlink:href="#zoomPlus" x="17" y="9" onmousedown="handleZoom(evt,'in')"/>
                <use id="zoomminus" xlink:href="#zoomMin" x="42" y="9" onmousedown="handleZoom(evt,'out')"/>
                <use id="reset" xlink:href="#resetDef" x="30" y="36" onmousedown="handleReset()"/>
                <g id="arrowUp" xlink:href="#dirArrow" transform="translate(30 24)" onmousedown="handlePan(0,-1)">
                  <use xlink:href="#rim" fill="#404040">
                        <set attributeName="fill" to="#808080" begin="arrowUp.mouseover" end="arrowUp.mouseout"/>
                  </use>
                  <path fill="none" stroke="white" stroke-width="1.5" d="M0,-3.0v7 M-2.5,-0.5L0,-3.0L2.5,-0.5"/>
                </g>
                <g id="arrowRight" xlink:href="#dirArrow" transform="rotate(90) translate(36 -43)" onmousedown="handlePan(1,0)">
                  <use xlink:href="#rim" fill="#404040">
                        <set attributeName="fill" to="#808080" begin="arrowRight.mouseover" end="arrowRight.mouseout"/>
                  </use>
                  <path fill="none" stroke="white" stroke-width="1.5" d="M0,-3.0v7 M-2.5,-0.5L0,-3.0L2.5,-0.5"/>
                </g>
                <g id="arrowDown" xlink:href="#dirArrow" transform="rotate(180) translate(-30 -48)" onmousedown="handlePan(0,1)">
                  <use xlink:href="#rim" fill="#404040">
                        <set attributeName="fill" to="#808080" begin="arrowDown.mouseover" end="arrowDown.mouseout"/>
                  </use>
                  <path fill="none" stroke="white" stroke-width="1.5" d="M0,-3.0v7 M-2.5,-0.5L0,-3.0L2.5,-0.5"/>
                </g>
                <g id="arrowLeft" xlink:href="#dirArrow" transform="rotate(270) translate(-36 17)" onmousedown="handlePan(-1,0)">
                  <use xlink:href="#rim" fill="#404040">
                        <set attributeName="fill" to="#808080" begin="arrowLeft.mouseover" end="arrowLeft.mouseout"/>
                  </use>
                  <path fill="none" stroke="white" stroke-width="1.5" d="M0,-3.0v7 M-2.5,-0.5L0,-3.0L2.5,-0.5"/>
                </g>
        </g>
        <svg viewBox="0 0 15 15" width="100%" height="30px" preserveAspectRatio="xMaxYMin meet">
         <g id="arrow_out" transform="scale(0.3 0.3)">
          <a xlink:href="PlayerRigidBody_8hpp__incl_org.svg" target="_base">
           <rect id="button" ry="5" rx="5" y="6" x="6" height="38" width="38"
                fill="#f2f5e9" fill-opacity="0.5" stroke="#606060" stroke-width="1.0"/>
           <path id="arrow"
             d="M 11.500037,31.436501 C 11.940474,20.09759 22.043105,11.32322 32.158766,21.979434 L 37.068811,17.246167 C 37.068811,17.246167 37.088388,32 37.088388,32 L 22.160133,31.978069 C 22.160133,31.978069 26.997745,27.140456 26.997745,27.140456 C 18.528582,18.264221 13.291696,25.230495 11.500037,31.436501 z"
             style="fill:#404040;"/>
          </a>
         </g>
        </svg>
</svg>
