<?xml version="1.0" encoding="UTF-8" standalone="no"?>
<!DOCTYPE svg PUBLIC "-//W3C//DTD SVG 1.1//EN"
 "http://www.w3.org/Graphics/SVG/1.1/DTD/svg11.dtd">
<!-- Generated by graphviz version 2.44.0 ()
 -->
<!-- Title: includes/platformer&#45;engine/Physics/PlayerRigidBody.hpp Pages: 1 -->
<svg width="1822pt" height="486pt"
 viewBox="0.00 0.00 1821.50 486.00" xmlns="http://www.w3.org/2000/svg" xmlns:xlink="http://www.w3.org/1999/xlink">
<g id="graph0" class="graph" transform="scale(1 1) rotate(0) translate(4 482)">
<title>includes/platformer&#45;engine/Physics/PlayerRigidBody.hpp</title>
<!-- Node1 -->
<g id="node1" class="node">
<title>Node1</title>
<g id="a_node1"><a xlink:title=" ">
<polygon fill="#bfbfbf" stroke="black" points="1083.5,-436.5 1083.5,-477.5 1220.5,-477.5 1220.5,-436.5 1083.5,-436.5"/>
<text text-anchor="start" x="1091.5" y="-465.5" font-family="Helvetica,sans-Serif" font-size="10.00">includes/platformer</text>
<text text-anchor="start" x="1091.5" y="-454.5" font-family="Helvetica,sans-Serif" font-size="10.00">&#45;engine/Physics/PlayerRigid</text>
<text text-anchor="middle" x="1152" y="-443.5" font-family="Helvetica,sans-Serif" font-size="10.00">Body.hpp</text>
</a>
</g>
</g>
<!-- Node2 -->
<g id="node2" class="node">
<title>Node2</title>
<g id="a_node2"><a xlink:href="RigidBody_8hpp.html" target="_top" xlink:title=" ">
<polygon fill="none" stroke="black" points="1113,-380.5 1113,-399.5 1191,-399.5 1191,-380.5 1113,-380.5"/>
<text text-anchor="middle" x="1152" y="-387.5" font-family="Helvetica,sans-Serif" font-size="10.00">RigidBody.hpp</text>
</a>
</g>
</g>
<!-- Node1&#45;&gt;Node2 -->
<g id="edge1" class="edge">
<title>Node1&#45;&gt;Node2</title>
<path fill="none" stroke="midnightblue" d="M1152,-436.5C1152,-428.07 1152,-418.24 1152,-409.87"/>
<polygon fill="midnightblue" stroke="midnightblue" points="1155.5,-409.65 1152,-399.65 1148.5,-409.65 1155.5,-409.65"/>
</g>
<!-- Node3 -->
<g id="node3" class="node">
<title>Node3</title>
<g id="a_node3"><a xlink:href="Component_8hpp.html" target="_top" xlink:title=" ">
<polygon fill="none" stroke="black" points="1082,-207 1082,-226 1166,-226 1166,-207 1082,-207"/>
<text text-anchor="middle" x="1124" y="-214" font-family="Helvetica,sans-Serif" font-size="10.00">Component.hpp</text>
</a>
</g>
</g>
<!-- Node2&#45;&gt;Node3 -->
<g id="edge2" class="edge">
<title>Node2&#45;&gt;Node3</title>
<path fill="none" stroke="midnightblue" d="M1135.05,-380.34C1108.3,-365.59 1057.27,-332.78 1037,-288 1024.83,-261.11 1057.7,-241.32 1086.46,-229.66"/>
<polygon fill="midnightblue" stroke="midnightblue" points="1087.9,-232.86 1095.99,-226.02 1085.4,-226.32 1087.9,-232.86"/>
</g>
<!-- Node5 -->
<g id="node5" class="node">
<title>Node5</title>
<g id="a_node5"><a xlink:title=" ">
<polygon fill="none" stroke="#bfbfbf" points="1718.5,-134.5 1718.5,-164.5 1813.5,-164.5 1813.5,-134.5 1718.5,-134.5"/>
<text text-anchor="start" x="1726.5" y="-152.5" font-family="Helvetica,sans-Serif" font-size="10.00">boost/serialization</text>
<text text-anchor="middle" x="1766" y="-141.5" font-family="Helvetica,sans-Serif" font-size="10.00">/access.hpp</text>
</a>
</g>
</g>
<!-- Node2&#45;&gt;Node5 -->
<g id="edge57" class="edge">
<title>Node2&#45;&gt;Node5</title>
<path fill="none" stroke="midnightblue" d="M1179.48,-380.47C1249.86,-358.38 1441.94,-296.51 1597,-232 1643.87,-212.5 1696.31,-186.54 1730.16,-169.21"/>
<polygon fill="midnightblue" stroke="midnightblue" points="1731.91,-172.25 1739.2,-164.56 1728.7,-166.02 1731.91,-172.25"/>
</g>
<!-- Node9 -->
<g id="node9" class="node">
<title>Node9</title>
<g id="a_node9"><a xlink:title=" ">
<polygon fill="none" stroke="#bfbfbf" points="429.5,-134.5 429.5,-164.5 524.5,-164.5 524.5,-134.5 429.5,-134.5"/>
<text text-anchor="start" x="437.5" y="-152.5" font-family="Helvetica,sans-Serif" font-size="10.00">boost/serialization</text>
<text text-anchor="middle" x="477" y="-141.5" font-family="Helvetica,sans-Serif" font-size="10.00">/export.hpp</text>
</a>
</g>
</g>
<!-- Node2&#45;&gt;Node9 -->
<g id="edge58" class="edge">
<title>Node2&#45;&gt;Node9</title>
<path fill="none" stroke="midnightblue" d="M1127.02,-380.44C1058.71,-357.01 863.07,-289.69 701,-232 639.98,-210.28 569.84,-184.65 524.55,-168.02"/>
<polygon fill="midnightblue" stroke="midnightblue" points="525.58,-164.67 514.99,-164.51 523.17,-171.24 525.58,-164.67"/>
</g>
<!-- Node33 -->
<g id="node33" class="node">
<title>Node33</title>
<g id="a_node33"><a xlink:href="Point_8hpp.html" target="_top" xlink:title=" ">
<polygon fill="none" stroke="black" points="1046.5,-268.5 1046.5,-287.5 1103.5,-287.5 1103.5,-268.5 1046.5,-268.5"/>
<text text-anchor="middle" x="1075" y="-275.5" font-family="Helvetica,sans-Serif" font-size="10.00">Point.hpp</text>
</a>
</g>
</g>
<!-- Node2&#45;&gt;Node33 -->
<g id="edge36" class="edge">
<title>Node2&#45;&gt;Node33</title>
<path fill="none" stroke="midnightblue" d="M1145.96,-380.37C1133.25,-362.22 1103.56,-319.8 1086.89,-295.99"/>
<polygon fill="midnightblue" stroke="midnightblue" points="1089.62,-293.78 1081.01,-287.59 1083.88,-297.79 1089.62,-293.78"/>
</g>
<!-- Node34 -->
<g id="node34" class="node">
<title>Node34</title>
<g id="a_node34"><a xlink:href="Collision_8hpp.html" target="_top" xlink:title=" ">
<polygon fill="none" stroke="black" points="1139.5,-324.5 1139.5,-343.5 1248.5,-343.5 1248.5,-324.5 1139.5,-324.5"/>
<text text-anchor="middle" x="1194" y="-331.5" font-family="Helvetica,sans-Serif" font-size="10.00">Physics/Collision.hpp</text>
</a>
</g>
</g>
<!-- Node2&#45;&gt;Node34 -->
<g id="edge37" class="edge">
<title>Node2&#45;&gt;Node34</title>
<path fill="none" stroke="midnightblue" d="M1158.94,-380.08C1164.93,-372.38 1173.75,-361.03 1181.05,-351.65"/>
<polygon fill="midnightblue" stroke="midnightblue" points="1183.82,-353.79 1187.19,-343.75 1178.29,-349.5 1183.82,-353.79"/>
</g>
<!-- Node38 -->
<g id="node38" class="node">
<title>Node38</title>
<g id="a_node38"><a xlink:title=" ">
<polygon fill="none" stroke="#bfbfbf" points="1664.5,-324.5 1664.5,-343.5 1699.5,-343.5 1699.5,-324.5 1664.5,-324.5"/>
<text text-anchor="middle" x="1682" y="-331.5" font-family="Helvetica,sans-Serif" font-size="10.00">map</text>
</a>
</g>
</g>
<!-- Node2&#45;&gt;Node38 -->
<g id="edge56" class="edge">
<title>Node2&#45;&gt;Node38</title>
<path fill="none" stroke="midnightblue" d="M1191.07,-387.91C1275.5,-385.03 1480.96,-375.13 1650,-344 1651.45,-343.73 1652.94,-343.43 1654.43,-343.1"/>
<polygon fill="midnightblue" stroke="midnightblue" points="1655.36,-346.47 1664.2,-340.63 1653.64,-339.69 1655.36,-346.47"/>
</g>
<!-- Node4 -->
<g id="node4" class="node">
<title>Node4</title>
<g id="a_node4"><a xlink:title=" ">
<polygon fill="none" stroke="#bfbfbf" points="1536.5,-140 1536.5,-159 1587.5,-159 1587.5,-140 1536.5,-140"/>
<text text-anchor="middle" x="1562" y="-147" font-family="Helvetica,sans-Serif" font-size="10.00">memory</text>
</a>
</g>
</g>
<!-- Node3&#45;&gt;Node4 -->
<g id="edge3" class="edge">
<title>Node3&#45;&gt;Node4</title>
<path fill="none" stroke="midnightblue" d="M1166.04,-208.23C1180.86,-205.78 1197.65,-203.13 1213,-201 1352.14,-181.7 1391.02,-200.22 1527,-165 1529.51,-164.35 1532.07,-163.56 1534.61,-162.68"/>
<polygon fill="midnightblue" stroke="midnightblue" points="1536.09,-165.87 1544.16,-159.01 1533.57,-159.33 1536.09,-165.87"/>
</g>
<!-- Node3&#45;&gt;Node5 -->
<g id="edge4" class="edge">
<title>Node3&#45;&gt;Node5</title>
<path fill="none" stroke="midnightblue" d="M1166.45,-207.79C1181.15,-205.34 1197.76,-202.79 1213,-201 1429.3,-175.58 1489.08,-199.66 1708.35,-164.89"/>
<polygon fill="midnightblue" stroke="midnightblue" points="1708.92,-168.35 1718.23,-163.3 1707.81,-161.43 1708.92,-168.35"/>
</g>
<!-- Node6 -->
<g id="node6" class="node">
<title>Node6</title>
<g id="a_node6"><a xlink:title=" ">
<polygon fill="none" stroke="#bfbfbf" points="1076.5,-134.5 1076.5,-164.5 1171.5,-164.5 1171.5,-134.5 1076.5,-134.5"/>
<text text-anchor="start" x="1084.5" y="-152.5" font-family="Helvetica,sans-Serif" font-size="10.00">boost/serialization</text>
<text text-anchor="middle" x="1124" y="-141.5" font-family="Helvetica,sans-Serif" font-size="10.00">/map.hpp</text>
</a>
</g>
</g>
<!-- Node3&#45;&gt;Node6 -->
<g id="edge5" class="edge">
<title>Node3&#45;&gt;Node6</title>
<path fill="none" stroke="midnightblue" d="M1124,-206.73C1124,-198.54 1124,-185.92 1124,-174.71"/>
<polygon fill="midnightblue" stroke="midnightblue" points="1127.5,-174.59 1124,-164.59 1120.5,-174.59 1127.5,-174.59"/>
</g>
<!-- Node7 -->
<g id="node7" class="node">
<title>Node7</title>
<g id="a_node7"><a xlink:title=" ">
<polygon fill="none" stroke="#bfbfbf" points="840.5,-134.5 840.5,-164.5 935.5,-164.5 935.5,-134.5 840.5,-134.5"/>
<text text-anchor="start" x="848.5" y="-152.5" font-family="Helvetica,sans-Serif" font-size="10.00">boost/serialization</text>
<text text-anchor="middle" x="888" y="-141.5" font-family="Helvetica,sans-Serif" font-size="10.00">/vector.hpp</text>
</a>
</g>
</g>
<!-- Node3&#45;&gt;Node7 -->
<g id="edge6" class="edge">
<title>Node3&#45;&gt;Node7</title>
<path fill="none" stroke="midnightblue" d="M1092.66,-206.87C1055.28,-196.57 992.04,-179.16 945.73,-166.4"/>
<polygon fill="midnightblue" stroke="midnightblue" points="946.4,-162.95 935.83,-163.67 944.54,-169.7 946.4,-162.95"/>
</g>
<!-- Node8 -->
<g id="node8" class="node">
<title>Node8</title>
<g id="a_node8"><a xlink:title=" ">
<polygon fill="none" stroke="#bfbfbf" points="1605.5,-134.5 1605.5,-164.5 1700.5,-164.5 1700.5,-134.5 1605.5,-134.5"/>
<text text-anchor="start" x="1613.5" y="-152.5" font-family="Helvetica,sans-Serif" font-size="10.00">boost/serialization</text>
<text text-anchor="middle" x="1653" y="-141.5" font-family="Helvetica,sans-Serif" font-size="10.00">/shared_ptr.hpp</text>
</a>
</g>
</g>
<!-- Node3&#45;&gt;Node8 -->
<g id="edge7" class="edge">
<title>Node3&#45;&gt;Node8</title>
<path fill="none" stroke="midnightblue" d="M1166.02,-208.05C1180.83,-205.59 1197.63,-202.97 1213,-201 1379.35,-179.66 1425.78,-193.61 1595.21,-164.95"/>
<polygon fill="midnightblue" stroke="midnightblue" points="1595.96,-168.37 1605.22,-163.23 1594.77,-161.47 1595.96,-168.37"/>
</g>
<!-- Node3&#45;&gt;Node9 -->
<g id="edge8" class="edge">
<title>Node3&#45;&gt;Node9</title>
<path fill="none" stroke="midnightblue" d="M1081.95,-212.32C961.46,-203.15 618.71,-176.66 534.47,-164.91"/>
<polygon fill="midnightblue" stroke="midnightblue" points="534.96,-161.45 524.54,-163.39 533.89,-168.37 534.96,-161.45"/>
</g>
<!-- Node10 -->
<g id="node10" class="node">
<title>Node10</title>
<g id="a_node10"><a xlink:title=" ">
<polygon fill="none" stroke="#bfbfbf" points="954,-134.5 954,-164.5 1058,-164.5 1058,-134.5 954,-134.5"/>
<text text-anchor="start" x="962" y="-152.5" font-family="Helvetica,sans-Serif" font-size="10.00">boost/archive/binary</text>
<text text-anchor="middle" x="1006" y="-141.5" font-family="Helvetica,sans-Serif" font-size="10.00">_iarchive.hpp</text>
</a>
</g>
</g>
<!-- Node3&#45;&gt;Node10 -->
<g id="edge9" class="edge">
<title>Node3&#45;&gt;Node10</title>
<path fill="none" stroke="midnightblue" d="M1108.09,-206.73C1090.84,-197.23 1062.78,-181.78 1040.44,-169.47"/>
<polygon fill="midnightblue" stroke="midnightblue" points="1042.02,-166.35 1031.58,-164.59 1038.65,-172.48 1042.02,-166.35"/>
</g>
<!-- Node11 -->
<g id="node11" class="node">
<title>Node11</title>
<g id="a_node11"><a xlink:title=" ">
<polygon fill="none" stroke="#bfbfbf" points="1190,-134.5 1190,-164.5 1294,-164.5 1294,-134.5 1190,-134.5"/>
<text text-anchor="start" x="1198" y="-152.5" font-family="Helvetica,sans-Serif" font-size="10.00">boost/archive/binary</text>
<text text-anchor="middle" x="1242" y="-141.5" font-family="Helvetica,sans-Serif" font-size="10.00">_oarchive.hpp</text>
</a>
</g>
</g>
<!-- Node3&#45;&gt;Node11 -->
<g id="edge10" class="edge">
<title>Node3&#45;&gt;Node11</title>
<path fill="none" stroke="midnightblue" d="M1139.91,-206.73C1157.16,-197.23 1185.22,-181.78 1207.56,-169.47"/>
<polygon fill="midnightblue" stroke="midnightblue" points="1209.35,-172.48 1216.42,-164.59 1205.98,-166.35 1209.35,-172.48"/>
</g>
<!-- Node12 -->
<g id="node12" class="node">
<title>Node12</title>
<g id="a_node12"><a xlink:title=" ">
<polygon fill="none" stroke="#bfbfbf" points="1312,-134.5 1312,-164.5 1406,-164.5 1406,-134.5 1312,-134.5"/>
<text text-anchor="start" x="1320" y="-152.5" font-family="Helvetica,sans-Serif" font-size="10.00">boost/archive/text</text>
<text text-anchor="middle" x="1359" y="-141.5" font-family="Helvetica,sans-Serif" font-size="10.00">_iarchive.hpp</text>
</a>
</g>
</g>
<!-- Node3&#45;&gt;Node12 -->
<g id="edge11" class="edge">
<title>Node3&#45;&gt;Node12</title>
<path fill="none" stroke="midnightblue" d="M1155.21,-206.87C1192.54,-196.54 1255.79,-179.05 1301.94,-166.28"/>
<polygon fill="midnightblue" stroke="midnightblue" points="1303.1,-169.59 1311.81,-163.55 1301.24,-162.85 1303.1,-169.59"/>
</g>
<!-- Node13 -->
<g id="node13" class="node">
<title>Node13</title>
<g id="a_node13"><a xlink:title=" ">
<polygon fill="none" stroke="#bfbfbf" points="1424,-134.5 1424,-164.5 1518,-164.5 1518,-134.5 1424,-134.5"/>
<text text-anchor="start" x="1432" y="-152.5" font-family="Helvetica,sans-Serif" font-size="10.00">boost/archive/text</text>
<text text-anchor="middle" x="1471" y="-141.5" font-family="Helvetica,sans-Serif" font-size="10.00">_oarchive.hpp</text>
</a>
</g>
</g>
<!-- Node3&#45;&gt;Node13 -->
<g id="edge12" class="edge">
<title>Node3&#45;&gt;Node13</title>
<path fill="none" stroke="midnightblue" d="M1166.09,-208.63C1230.93,-197.98 1353.3,-177.59 1413.55,-165.18"/>
<polygon fill="midnightblue" stroke="midnightblue" points="1414.65,-168.53 1423.71,-163.03 1413.2,-161.68 1414.65,-168.53"/>
</g>
<!-- Node14 -->
<g id="node14" class="node">
<title>Node14</title>
<g id="a_node14"><a xlink:href="portable__binary__iarchive_8hpp.html" target="_top" xlink:title=" ">
<polygon fill="none" stroke="black" points="542.5,-134.5 542.5,-164.5 673.5,-164.5 673.5,-134.5 542.5,-134.5"/>
<text text-anchor="start" x="550.5" y="-152.5" font-family="Helvetica,sans-Serif" font-size="10.00">Networking/boost/portable</text>
<text text-anchor="middle" x="608" y="-141.5" font-family="Helvetica,sans-Serif" font-size="10.00">_binary_iarchive.hpp</text>
</a>
</g>
</g>
<!-- Node3&#45;&gt;Node14 -->
<g id="edge13" class="edge">
<title>Node3&#45;&gt;Node14</title>
<path fill="none" stroke="midnightblue" d="M1081.8,-211.81C1004.68,-204.82 835.63,-188.36 683.7,-165.2"/>
<polygon fill="midnightblue" stroke="midnightblue" points="684.14,-161.72 673.72,-163.66 683.07,-168.64 684.14,-161.72"/>
</g>
<!-- Node29 -->
<g id="node29" class="node">
<title>Node29</title>
<g id="a_node29"><a xlink:href="portable__binary__oarchive_8hpp.html" target="_top" xlink:title=" ">
<polygon fill="none" stroke="black" points="691.5,-134.5 691.5,-164.5 822.5,-164.5 822.5,-134.5 691.5,-134.5"/>
<text text-anchor="start" x="699.5" y="-152.5" font-family="Helvetica,sans-Serif" font-size="10.00">Networking/boost/portable</text>
<text text-anchor="middle" x="757" y="-141.5" font-family="Helvetica,sans-Serif" font-size="10.00">_binary_oarchive.hpp</text>
</a>
</g>
</g>
<!-- Node3&#45;&gt;Node29 -->
<g id="edge28" class="edge">
<title>Node3&#45;&gt;Node29</title>
<path fill="none" stroke="midnightblue" d="M1081.73,-208.53C1026.68,-199.37 927.19,-182.6 832.76,-165.3"/>
<polygon fill="midnightblue" stroke="midnightblue" points="833.22,-161.83 822.75,-163.46 831.96,-168.71 833.22,-161.83"/>
</g>
<!-- Node15 -->
<g id="node15" class="node">
<title>Node15</title>
<g id="a_node15"><a xlink:title=" ">
<polygon fill="none" stroke="#bfbfbf" points="394.5,-73 394.5,-92 443.5,-92 443.5,-73 394.5,-73"/>
<text text-anchor="middle" x="419" y="-80" font-family="Helvetica,sans-Serif" font-size="10.00">istream</text>
</a>
</g>
</g>
<!-- Node14&#45;&gt;Node15 -->
<g id="edge14" class="edge">
<title>Node14&#45;&gt;Node15</title>
<path fill="none" stroke="midnightblue" d="M560.47,-134.48C529.34,-124.96 487.92,-111.67 452,-98 450.39,-97.39 448.75,-96.74 447.1,-96.07"/>
<polygon fill="midnightblue" stroke="midnightblue" points="448.29,-92.77 437.71,-92.11 445.56,-99.22 448.29,-92.77"/>
</g>
<!-- Node16 -->
<g id="node16" class="node">
<title>Node16</title>
<g id="a_node16"><a xlink:title=" ">
<polygon fill="none" stroke="#bfbfbf" points="461.5,-67.5 461.5,-97.5 556.5,-97.5 556.5,-67.5 461.5,-67.5"/>
<text text-anchor="start" x="469.5" y="-85.5" font-family="Helvetica,sans-Serif" font-size="10.00">boost/serialization</text>
<text text-anchor="middle" x="509" y="-74.5" font-family="Helvetica,sans-Serif" font-size="10.00">/string.hpp</text>
</a>
</g>
</g>
<!-- Node14&#45;&gt;Node16 -->
<g id="edge15" class="edge">
<title>Node14&#45;&gt;Node16</title>
<path fill="none" stroke="midnightblue" d="M586.52,-134.4C572.64,-125.28 554.37,-113.29 539.06,-103.24"/>
<polygon fill="midnightblue" stroke="midnightblue" points="540.72,-100.14 530.44,-97.58 536.88,-105.99 540.72,-100.14"/>
</g>
<!-- Node17 -->
<g id="node17" class="node">
<title>Node17</title>
<g id="a_node17"><a xlink:title=" ">
<polygon fill="none" stroke="#bfbfbf" points="0,-67.5 0,-97.5 116,-97.5 116,-67.5 0,-67.5"/>
<text text-anchor="start" x="8" y="-85.5" font-family="Helvetica,sans-Serif" font-size="10.00">boost/serialization</text>
<text text-anchor="middle" x="58" y="-74.5" font-family="Helvetica,sans-Serif" font-size="10.00">/item_version_type.hpp</text>
</a>
</g>
</g>
<!-- Node14&#45;&gt;Node17 -->
<g id="edge16" class="edge">
<title>Node14&#45;&gt;Node17</title>
<path fill="none" stroke="midnightblue" d="M542.21,-135.38C539.1,-134.89 536.02,-134.42 533,-134 355.99,-109.15 306.75,-124.72 126.13,-98.04"/>
<polygon fill="midnightblue" stroke="midnightblue" points="126.43,-94.54 116.02,-96.52 125.39,-101.47 126.43,-94.54"/>
</g>
<!-- Node18 -->
<g id="node18" class="node">
<title>Node18</title>
<g id="a_node18"><a xlink:title=" ">
<polygon fill="none" stroke="#bfbfbf" points="575,-67.5 575,-97.5 685,-97.5 685,-67.5 575,-67.5"/>
<text text-anchor="start" x="583" y="-85.5" font-family="Helvetica,sans-Serif" font-size="10.00">boost/archive/archive</text>
<text text-anchor="middle" x="630" y="-74.5" font-family="Helvetica,sans-Serif" font-size="10.00">_exception.hpp</text>
</a>
</g>
</g>
<!-- Node14&#45;&gt;Node18 -->
<g id="edge17" class="edge">
<title>Node14&#45;&gt;Node18</title>
<path fill="none" stroke="midnightblue" d="M612.77,-134.4C615.45,-126.47 618.87,-116.38 621.95,-107.27"/>
<polygon fill="midnightblue" stroke="midnightblue" points="625.34,-108.17 625.24,-97.58 618.71,-105.93 625.34,-108.17"/>
</g>
<!-- Node19 -->
<g id="node19" class="node">
<title>Node19</title>
<g id="a_node19"><a xlink:title=" ">
<polygon fill="none" stroke="#bfbfbf" points="134,-67.5 134,-97.5 244,-97.5 244,-67.5 134,-67.5"/>
<text text-anchor="start" x="142" y="-85.5" font-family="Helvetica,sans-Serif" font-size="10.00">boost/archive/basic</text>
<text text-anchor="middle" x="189" y="-74.5" font-family="Helvetica,sans-Serif" font-size="10.00">_binary_iprimitive.hpp</text>
</a>
</g>
</g>
<!-- Node14&#45;&gt;Node19 -->
<g id="edge18" class="edge">
<title>Node14&#45;&gt;Node19</title>
<path fill="none" stroke="midnightblue" d="M542.19,-135.53C539.09,-135 536.01,-134.48 533,-134 412.27,-114.59 378.26,-119.61 253.99,-98.07"/>
<polygon fill="midnightblue" stroke="midnightblue" points="254.55,-94.61 244.09,-96.33 253.33,-101.51 254.55,-94.61"/>
</g>
<!-- Node20 -->
<g id="node20" class="node">
<title>Node20</title>
<g id="a_node20"><a xlink:title=" ">
<polygon fill="none" stroke="#bfbfbf" points="262,-67.5 262,-97.5 376,-97.5 376,-67.5 262,-67.5"/>
<text text-anchor="start" x="270" y="-85.5" font-family="Helvetica,sans-Serif" font-size="10.00">boost/archive/detail</text>
<text text-anchor="middle" x="319" y="-74.5" font-family="Helvetica,sans-Serif" font-size="10.00">/common_iarchive.hpp</text>
</a>
</g>
</g>
<!-- Node14&#45;&gt;Node20 -->
<g id="edge19" class="edge">
<title>Node14&#45;&gt;Node20</title>
<path fill="none" stroke="midnightblue" d="M545.65,-134.48C498.71,-123.92 434.45,-109.47 386.34,-98.65"/>
<polygon fill="midnightblue" stroke="midnightblue" points="386.86,-95.17 376.33,-96.39 385.32,-102 386.86,-95.17"/>
</g>
<!-- Node21 -->
<g id="node21" class="node">
<title>Node21</title>
<g id="a_node21"><a xlink:title=" ">
<polygon fill="none" stroke="#bfbfbf" points="703.5,-67.5 703.5,-97.5 810.5,-97.5 810.5,-67.5 703.5,-67.5"/>
<text text-anchor="start" x="711.5" y="-85.5" font-family="Helvetica,sans-Serif" font-size="10.00">boost/archive/detail</text>
<text text-anchor="middle" x="757" y="-74.5" font-family="Helvetica,sans-Serif" font-size="10.00">/register_archive.hpp</text>
</a>
</g>
</g>
<!-- Node14&#45;&gt;Node21 -->
<g id="edge20" class="edge">
<title>Node14&#45;&gt;Node21</title>
<path fill="none" stroke="midnightblue" d="M640.33,-134.4C662.3,-124.81 691.56,-112.05 715.28,-101.7"/>
<polygon fill="midnightblue" stroke="midnightblue" points="716.97,-104.78 724.73,-97.58 714.17,-98.37 716.97,-104.78"/>
</g>
<!-- Node22 -->
<g id="node22" class="node">
<title>Node22</title>
<g id="a_node22"><a xlink:href="portable__binary__archive_8hpp.html" target="_top" xlink:title=" ">
<polygon fill="none" stroke="black" points="828.5,-73 828.5,-92 965.5,-92 965.5,-73 828.5,-73"/>
<text text-anchor="middle" x="897" y="-80" font-family="Helvetica,sans-Serif" font-size="10.00">portable_binary_archive.hpp</text>
</a>
</g>
</g>
<!-- Node14&#45;&gt;Node22 -->
<g id="edge21" class="edge">
<title>Node14&#45;&gt;Node22</title>
<path fill="none" stroke="midnightblue" d="M670.35,-134.48C723.95,-122.42 800.14,-105.29 849.07,-94.28"/>
<polygon fill="midnightblue" stroke="midnightblue" points="850.09,-97.64 859.08,-92.03 848.56,-90.81 850.09,-97.64"/>
</g>
<!-- Node23 -->
<g id="node23" class="node">
<title>Node23</title>
<g id="a_node23"><a xlink:title=" ">
<polygon fill="none" stroke="#bfbfbf" points="573.5,-6 573.5,-25 660.5,-25 660.5,-6 573.5,-6"/>
<text text-anchor="middle" x="617" y="-13" font-family="Helvetica,sans-Serif" font-size="10.00">boost/config.hpp</text>
</a>
</g>
</g>
<!-- Node22&#45;&gt;Node23 -->
<g id="edge22" class="edge">
<title>Node22&#45;&gt;Node23</title>
<path fill="none" stroke="midnightblue" d="M855.24,-72.96C809.39,-63.41 733.7,-47.17 669,-31 664.91,-29.98 660.65,-28.87 656.41,-27.73"/>
<polygon fill="midnightblue" stroke="midnightblue" points="657.19,-24.32 646.63,-25.06 655.35,-31.07 657.19,-24.32"/>
</g>
<!-- Node24 -->
<g id="node24" class="node">
<title>Node24</title>
<g id="a_node24"><a xlink:title=" ">
<polygon fill="none" stroke="#bfbfbf" points="678.5,-6 678.5,-25 769.5,-25 769.5,-6 678.5,-6"/>
<text text-anchor="middle" x="724" y="-13" font-family="Helvetica,sans-Serif" font-size="10.00">boost/cstdint.hpp</text>
</a>
</g>
</g>
<!-- Node22&#45;&gt;Node24 -->
<g id="edge23" class="edge">
<title>Node22&#45;&gt;Node24</title>
<path fill="none" stroke="midnightblue" d="M874.03,-72.87C843.83,-61.52 790.6,-41.52 756.34,-28.65"/>
<polygon fill="midnightblue" stroke="midnightblue" points="757.38,-25.3 746.79,-25.06 754.92,-31.86 757.38,-25.3"/>
</g>
<!-- Node25 -->
<g id="node25" class="node">
<title>Node25</title>
<g id="a_node25"><a xlink:title=" ">
<polygon fill="none" stroke="#bfbfbf" points="788,-6 788,-25 906,-25 906,-6 788,-6"/>
<text text-anchor="middle" x="847" y="-13" font-family="Helvetica,sans-Serif" font-size="10.00">boost/static_assert.hpp</text>
</a>
</g>
</g>
<!-- Node22&#45;&gt;Node25 -->
<g id="edge24" class="edge">
<title>Node22&#45;&gt;Node25</title>
<path fill="none" stroke="midnightblue" d="M890.26,-72.73C882.46,-62.6 869.45,-45.69 859.74,-33.06"/>
<polygon fill="midnightblue" stroke="midnightblue" points="862.51,-30.92 853.64,-25.13 856.96,-35.19 862.51,-30.92"/>
</g>
<!-- Node26 -->
<g id="node26" class="node">
<title>Node26</title>
<g id="a_node26"><a xlink:title=" ">
<polygon fill="none" stroke="#bfbfbf" points="924.5,-6 924.5,-25 969.5,-25 969.5,-6 924.5,-6"/>
<text text-anchor="middle" x="947" y="-13" font-family="Helvetica,sans-Serif" font-size="10.00">climits</text>
</a>
</g>
</g>
<!-- Node22&#45;&gt;Node26 -->
<g id="edge25" class="edge">
<title>Node22&#45;&gt;Node26</title>
<path fill="none" stroke="midnightblue" d="M903.74,-72.73C911.54,-62.6 924.55,-45.69 934.26,-33.06"/>
<polygon fill="midnightblue" stroke="midnightblue" points="937.04,-35.19 940.36,-25.13 931.49,-30.92 937.04,-35.19"/>
</g>
<!-- Node27 -->
<g id="node27" class="node">
<title>Node27</title>
<g id="a_node27"><a xlink:title=" ">
<polygon fill="none" stroke="#bfbfbf" points="987.5,-0.5 987.5,-30.5 1088.5,-30.5 1088.5,-0.5 987.5,-0.5"/>
<text text-anchor="start" x="995.5" y="-18.5" font-family="Helvetica,sans-Serif" font-size="10.00">boost/archive/basic</text>
<text text-anchor="middle" x="1038" y="-7.5" font-family="Helvetica,sans-Serif" font-size="10.00">_archive.hpp</text>
</a>
</g>
</g>
<!-- Node22&#45;&gt;Node27 -->
<g id="edge26" class="edge">
<title>Node22&#45;&gt;Node27</title>
<path fill="none" stroke="midnightblue" d="M915.72,-72.87C936.7,-63.2 971.3,-47.25 998.35,-34.78"/>
<polygon fill="midnightblue" stroke="midnightblue" points="999.95,-37.89 1007.57,-30.53 997.02,-31.54 999.95,-37.89"/>
</g>
<!-- Node28 -->
<g id="node28" class="node">
<title>Node28</title>
<g id="a_node28"><a xlink:title=" ">
<polygon fill="none" stroke="#bfbfbf" points="1106.5,-0.5 1106.5,-30.5 1201.5,-30.5 1201.5,-0.5 1106.5,-0.5"/>
<text text-anchor="start" x="1114.5" y="-18.5" font-family="Helvetica,sans-Serif" font-size="10.00">boost/predef/other</text>
<text text-anchor="middle" x="1154" y="-7.5" font-family="Helvetica,sans-Serif" font-size="10.00">/endian.h</text>
</a>
</g>
</g>
<!-- Node22&#45;&gt;Node28 -->
<g id="edge27" class="edge">
<title>Node22&#45;&gt;Node28</title>
<path fill="none" stroke="midnightblue" d="M930.98,-72.94C968.83,-63.4 1032.12,-47.44 1096.5,-31.13"/>
<polygon fill="midnightblue" stroke="midnightblue" points="1097.58,-34.46 1106.42,-28.61 1095.86,-27.68 1097.58,-34.46"/>
</g>
<!-- Node29&#45;&gt;Node16 -->
<g id="edge30" class="edge">
<title>Node29&#45;&gt;Node16</title>
<path fill="none" stroke="midnightblue" d="M703.49,-134.48C663.11,-123.89 607.79,-109.39 566.47,-98.56"/>
<polygon fill="midnightblue" stroke="midnightblue" points="567.11,-95.11 556.55,-95.96 565.33,-101.88 567.11,-95.11"/>
</g>
<!-- Node29&#45;&gt;Node18 -->
<g id="edge31" class="edge">
<title>Node29&#45;&gt;Node18</title>
<path fill="none" stroke="midnightblue" d="M729.44,-134.4C711.05,-124.98 686.67,-112.5 666.65,-102.26"/>
<polygon fill="midnightblue" stroke="midnightblue" points="668,-99.02 657.5,-97.58 664.81,-105.25 668,-99.02"/>
</g>
<!-- Node29&#45;&gt;Node21 -->
<g id="edge34" class="edge">
<title>Node29&#45;&gt;Node21</title>
<path fill="none" stroke="midnightblue" d="M757,-134.4C757,-126.64 757,-116.81 757,-107.86"/>
<polygon fill="midnightblue" stroke="midnightblue" points="760.5,-107.58 757,-97.58 753.5,-107.58 760.5,-107.58"/>
</g>
<!-- Node29&#45;&gt;Node22 -->
<g id="edge35" class="edge">
<title>Node29&#45;&gt;Node22</title>
<path fill="none" stroke="midnightblue" d="M787.38,-134.4C811.83,-123.04 845.91,-107.22 869.55,-96.24"/>
<polygon fill="midnightblue" stroke="midnightblue" points="871.08,-99.39 878.68,-92.01 868.13,-93.04 871.08,-99.39"/>
</g>
<!-- Node30 -->
<g id="node30" class="node">
<title>Node30</title>
<g id="a_node30"><a xlink:title=" ">
<polygon fill="none" stroke="#bfbfbf" points="984,-73 984,-92 1036,-92 1036,-73 984,-73"/>
<text text-anchor="middle" x="1010" y="-80" font-family="Helvetica,sans-Serif" font-size="10.00">ostream</text>
</a>
</g>
</g>
<!-- Node29&#45;&gt;Node30 -->
<g id="edge29" class="edge">
<title>Node29&#45;&gt;Node30</title>
<path fill="none" stroke="midnightblue" d="M822.25,-134.48C875.42,-122.83 946.1,-106.81 974,-98 976.28,-97.28 978.61,-96.48 980.95,-95.64"/>
<polygon fill="midnightblue" stroke="midnightblue" points="982.3,-98.87 990.39,-92.03 979.8,-92.33 982.3,-98.87"/>
</g>
<!-- Node31 -->
<g id="node31" class="node">
<title>Node31</title>
<g id="a_node31"><a xlink:title=" ">
<polygon fill="none" stroke="#bfbfbf" points="1054.5,-67.5 1054.5,-97.5 1167.5,-97.5 1167.5,-67.5 1054.5,-67.5"/>
<text text-anchor="start" x="1062.5" y="-85.5" font-family="Helvetica,sans-Serif" font-size="10.00">boost/archive/basic</text>
<text text-anchor="middle" x="1111" y="-74.5" font-family="Helvetica,sans-Serif" font-size="10.00">_binary_oprimitive.hpp</text>
</a>
</g>
</g>
<!-- Node29&#45;&gt;Node31 -->
<g id="edge32" class="edge">
<title>Node29&#45;&gt;Node31</title>
<path fill="none" stroke="midnightblue" d="M822.75,-135.52C825.54,-135 828.3,-134.49 831,-134 922.74,-117.3 948.62,-116.4 1044.07,-98.12"/>
<polygon fill="midnightblue" stroke="midnightblue" points="1045,-101.51 1054.16,-96.18 1043.67,-94.63 1045,-101.51"/>
</g>
<!-- Node32 -->
<g id="node32" class="node">
<title>Node32</title>
<g id="a_node32"><a xlink:title=" ">
<polygon fill="none" stroke="#bfbfbf" points="1185.5,-67.5 1185.5,-97.5 1302.5,-97.5 1302.5,-67.5 1185.5,-67.5"/>
<text text-anchor="start" x="1193.5" y="-85.5" font-family="Helvetica,sans-Serif" font-size="10.00">boost/archive/detail</text>
<text text-anchor="middle" x="1244" y="-74.5" font-family="Helvetica,sans-Serif" font-size="10.00">/common_oarchive.hpp</text>
</a>
</g>
</g>
<!-- Node29&#45;&gt;Node32 -->
<g id="edge33" class="edge">
<title>Node29&#45;&gt;Node32</title>
<path fill="none" stroke="midnightblue" d="M822.71,-135.31C825.51,-134.85 828.28,-134.41 831,-134 980.19,-111.65 1021.95,-121.65 1175.21,-98"/>
<polygon fill="midnightblue" stroke="midnightblue" points="1176.13,-101.4 1185.47,-96.39 1175.05,-94.48 1176.13,-101.4"/>
</g>
<!-- Node34&#45;&gt;Node4 -->
<g id="edge38" class="edge">
<title>Node34&#45;&gt;Node4</title>
<path fill="none" stroke="midnightblue" d="M1218.82,-324.4C1263.57,-308.54 1360.24,-272.53 1437,-232 1475.8,-211.51 1517.97,-182.46 1542.07,-165.15"/>
<polygon fill="midnightblue" stroke="midnightblue" points="1544.34,-167.83 1550.38,-159.13 1540.23,-162.16 1544.34,-167.83"/>
</g>
<!-- Node34&#45;&gt;Node5 -->
<g id="edge53" class="edge">
<title>Node34&#45;&gt;Node5</title>
<path fill="none" stroke="midnightblue" d="M1238.81,-324.48C1278.83,-316.46 1338.85,-303.39 1390,-288 1495.45,-256.28 1518.48,-238.56 1622,-201 1653.08,-189.73 1688.07,-177.44 1715.78,-167.81"/>
<polygon fill="midnightblue" stroke="midnightblue" points="1716.96,-171.11 1725.26,-164.53 1714.67,-164.5 1716.96,-171.11"/>
</g>
<!-- Node34&#45;&gt;Node8 -->
<g id="edge55" class="edge">
<title>Node34&#45;&gt;Node8</title>
<path fill="none" stroke="midnightblue" d="M1229.05,-324.45C1261.17,-316.26 1309.83,-302.97 1351,-288 1449.52,-252.18 1560.58,-197.81 1616.56,-169.36"/>
<polygon fill="midnightblue" stroke="midnightblue" points="1618.4,-172.35 1625.71,-164.69 1615.21,-166.12 1618.4,-172.35"/>
</g>
<!-- Node34&#45;&gt;Node9 -->
<g id="edge54" class="edge">
<title>Node34&#45;&gt;Node9</title>
<path fill="none" stroke="midnightblue" d="M1185.91,-324.11C1172.22,-309.7 1142.97,-281.51 1112,-268 1015.56,-225.92 981.67,-250.03 878,-232 727.42,-205.81 687.06,-199.74 534.8,-165.35"/>
<polygon fill="midnightblue" stroke="midnightblue" points="535.14,-161.83 524.61,-163.04 533.59,-168.66 535.14,-161.83"/>
</g>
<!-- Node34&#45;&gt;Node33 -->
<g id="edge39" class="edge">
<title>Node34&#45;&gt;Node33</title>
<path fill="none" stroke="midnightblue" d="M1175.14,-324.44C1155.73,-315.64 1125.27,-301.81 1103.04,-291.72"/>
<polygon fill="midnightblue" stroke="midnightblue" points="1104.32,-288.46 1093.77,-287.52 1101.43,-294.84 1104.32,-288.46"/>
</g>
<!-- Node35 -->
<g id="node35" class="node">
<title>Node35</title>
<g id="a_node35"><a xlink:href="Collider_8hpp.html" target="_top" xlink:title=" ">
<polygon fill="none" stroke="black" points="1160.5,-268.5 1160.5,-287.5 1227.5,-287.5 1227.5,-268.5 1160.5,-268.5"/>
<text text-anchor="middle" x="1194" y="-275.5" font-family="Helvetica,sans-Serif" font-size="10.00">Collider.hpp</text>
</a>
</g>
</g>
<!-- Node34&#45;&gt;Node35 -->
<g id="edge40" class="edge">
<title>Node34&#45;&gt;Node35</title>
<path fill="none" stroke="midnightblue" d="M1194,-324.08C1194,-317.01 1194,-306.86 1194,-297.99"/>
<polygon fill="midnightblue" stroke="midnightblue" points="1197.5,-297.75 1194,-287.75 1190.5,-297.75 1197.5,-297.75"/>
</g>
<!-- Node35&#45;&gt;Node3 -->
<g id="edge42" class="edge">
<title>Node35&#45;&gt;Node3</title>
<path fill="none" stroke="midnightblue" d="M1183.97,-268.48C1172.95,-259.11 1155.04,-243.88 1141.66,-232.51"/>
<polygon fill="midnightblue" stroke="midnightblue" points="1143.9,-229.82 1134.01,-226.01 1139.36,-235.15 1143.9,-229.82"/>
</g>
<!-- Node35&#45;&gt;Node5 -->
<g id="edge43" class="edge">
<title>Node35&#45;&gt;Node5</title>
<path fill="none" stroke="midnightblue" d="M1227.53,-271.43C1274.52,-263.48 1362.55,-248.05 1437,-232 1555.62,-206.43 1586.67,-195.78 1708.7,-165.07"/>
<polygon fill="midnightblue" stroke="midnightblue" points="1709.57,-168.46 1718.42,-162.63 1707.87,-161.67 1709.57,-168.46"/>
</g>
<!-- Node35&#45;&gt;Node7 -->
<g id="edge45" class="edge">
<title>Node35&#45;&gt;Node7</title>
<path fill="none" stroke="midnightblue" d="M1160.35,-270.48C1128,-263.49 1078.22,-250.79 1038,-232 1015.66,-221.57 1013.36,-213.3 992,-201 971.82,-189.38 948.57,-177.92 929.18,-168.86"/>
<polygon fill="midnightblue" stroke="midnightblue" points="930.55,-165.64 920,-164.62 927.61,-171.99 930.55,-165.64"/>
</g>
<!-- Node35&#45;&gt;Node9 -->
<g id="edge44" class="edge">
<title>Node35&#45;&gt;Node9</title>
<path fill="none" stroke="midnightblue" d="M1160.45,-270.58C1155.61,-269.69 1150.68,-268.8 1146,-268 1044.03,-250.46 1010.48,-274.17 916,-232 896.1,-223.12 898.12,-209.37 878,-201 738.71,-143.07 686.94,-190.27 534.73,-165.09"/>
<polygon fill="midnightblue" stroke="midnightblue" points="535,-161.59 524.55,-163.33 533.81,-168.49 535,-161.59"/>
</g>
<!-- Node35&#45;&gt;Node10 -->
<g id="edge47" class="edge">
<title>Node35&#45;&gt;Node10</title>
<path fill="none" stroke="midnightblue" d="M1160.41,-269.6C1134.77,-262.8 1099.46,-250.87 1073,-232 1050.9,-216.24 1031.94,-191.42 1019.88,-173.31"/>
<polygon fill="midnightblue" stroke="midnightblue" points="1022.59,-171.05 1014.23,-164.53 1016.7,-174.84 1022.59,-171.05"/>
</g>
<!-- Node35&#45;&gt;Node11 -->
<g id="edge48" class="edge">
<title>Node35&#45;&gt;Node11</title>
<path fill="none" stroke="midnightblue" d="M1195.36,-268.32C1197.8,-253.95 1203.54,-224.46 1213,-201 1216.83,-191.5 1222.17,-181.6 1227.23,-173.12"/>
<polygon fill="midnightblue" stroke="midnightblue" points="1230.25,-174.9 1232.52,-164.55 1224.29,-171.22 1230.25,-174.9"/>
</g>
<!-- Node35&#45;&gt;Node12 -->
<g id="edge49" class="edge">
<title>Node35&#45;&gt;Node12</title>
<path fill="none" stroke="midnightblue" d="M1227.53,-274.15C1277.64,-269.12 1368.32,-256.77 1388,-232 1401.81,-214.62 1390,-190.14 1377.56,-172.55"/>
<polygon fill="midnightblue" stroke="midnightblue" points="1380.33,-170.41 1371.51,-164.53 1374.74,-174.62 1380.33,-170.41"/>
</g>
<!-- Node35&#45;&gt;Node13 -->
<g id="edge50" class="edge">
<title>Node35&#45;&gt;Node13</title>
<path fill="none" stroke="midnightblue" d="M1227.8,-276.71C1271.93,-274.88 1350.14,-266.51 1406,-232 1429.05,-217.76 1447.37,-192.3 1458.61,-173.62"/>
<polygon fill="midnightblue" stroke="midnightblue" points="1461.72,-175.23 1463.69,-164.82 1455.66,-171.73 1461.72,-175.23"/>
</g>
<!-- Node35&#45;&gt;Node14 -->
<g id="edge51" class="edge">
<title>Node35&#45;&gt;Node14</title>
<path fill="none" stroke="midnightblue" d="M1160.38,-270.7C1094.32,-258.31 954,-232 954,-232 934.23,-222.82 935.92,-209.86 916,-201 822.77,-159.54 787.78,-181.68 683.7,-165.19"/>
<polygon fill="midnightblue" stroke="midnightblue" points="684.18,-161.72 673.74,-163.53 683.03,-168.62 684.18,-161.72"/>
</g>
<!-- Node35&#45;&gt;Node29 -->
<g id="edge52" class="edge">
<title>Node35&#45;&gt;Node29</title>
<path fill="none" stroke="midnightblue" d="M1160.32,-270.38C1106.85,-259.74 1007.03,-239.29 992,-232 972.39,-222.49 973.46,-210.82 954,-201 932.64,-190.21 878.67,-176.69 832.61,-166.35"/>
<polygon fill="midnightblue" stroke="midnightblue" points="833.13,-162.89 822.61,-164.13 831.61,-169.72 833.13,-162.89"/>
</g>
<!-- Node36 -->
<g id="node36" class="node">
<title>Node36</title>
<g id="a_node36"><a xlink:title=" ">
<polygon fill="none" stroke="#bfbfbf" points="1222,-207 1222,-226 1266,-226 1266,-207 1222,-207"/>
<text text-anchor="middle" x="1244" y="-214" font-family="Helvetica,sans-Serif" font-size="10.00">vector</text>
</a>
</g>
</g>
<!-- Node35&#45;&gt;Node36 -->
<g id="edge41" class="edge">
<title>Node35&#45;&gt;Node36</title>
<path fill="none" stroke="midnightblue" d="M1201.16,-268.48C1208.74,-259.46 1220.87,-245.02 1230.29,-233.81"/>
<polygon fill="midnightblue" stroke="midnightblue" points="1233.1,-235.92 1236.85,-226.01 1227.74,-231.41 1233.1,-235.92"/>
</g>
<!-- Node37 -->
<g id="node37" class="node">
<title>Node37</title>
<g id="a_node37"><a xlink:title=" ">
<polygon fill="none" stroke="#bfbfbf" points="1284.5,-201.5 1284.5,-231.5 1379.5,-231.5 1379.5,-201.5 1284.5,-201.5"/>
<text text-anchor="start" x="1292.5" y="-219.5" font-family="Helvetica,sans-Serif" font-size="10.00">boost/serialization</text>
<text text-anchor="middle" x="1332" y="-208.5" font-family="Helvetica,sans-Serif" font-size="10.00">/weak_ptr.hpp</text>
</a>
</g>
</g>
<!-- Node35&#45;&gt;Node37 -->
<g id="edge46" class="edge">
<title>Node35&#45;&gt;Node37</title>
<path fill="none" stroke="midnightblue" d="M1213.77,-268.48C1233.6,-259.93 1264.74,-246.5 1290.08,-235.57"/>
<polygon fill="midnightblue" stroke="midnightblue" points="1291.68,-238.7 1299.48,-231.52 1288.91,-232.27 1291.68,-238.7"/>
</g>
</g>
</svg>
