<?xml version="1.0" encoding="UTF-8" standalone="no"?>
<!DOCTYPE svg PUBLIC "-//W3C//DTD SVG 1.1//EN"
 "http://www.w3.org/Graphics/SVG/1.1/DTD/svg11.dtd">
<!-- Generated by graphviz version 2.44.0 ()
 -->
<!-- Title: includes/spic&#45;prj&#45;api/Point.hpp Pages: 1 -->
<!--zoomable 508 -->
<svg id="main" version="1.1" xmlns="http://www.w3.org/2000/svg" xmlns:xlink="http://www.w3.org/1999/xlink" xml:space="preserve" onload="init(evt)">
<style type="text/css"><![CDATA[
.edge:hover path { stroke: red; }
.edge:hover polygon { stroke: red; fill: red; }
]]></style>
<script type="text/javascript"><![CDATA[
var edges = document.getElementsByTagName('g');
if (edges && edges.length) {
  for (var i=0;i<edges.length;i++) {
    if (edges[i].id.substr(0,4)=='edge') {
      edges[i].setAttribute('class','edge');
    }
  }
}
]]></script>
        <defs>
                <circle id="rim" cx="0" cy="0" r="7"/>
                <circle id="rim2" cx="0" cy="0" r="3.5"/>
                <g id="zoomPlus">
                        <use xlink:href="#rim" fill="#404040">
                                <set attributeName="fill" to="#808080" begin="zoomplus.mouseover" end="zoomplus.mouseout"/>
                        </use>
                        <path d="M-4,0h8M0,-4v8" fill="none" stroke="white" stroke-width="1.5" pointer-events="none"/>
                </g>
                <g id="zoomMin">
                        <use xlink:href="#rim" fill="#404040">
                                <set attributeName="fill" to="#808080" begin="zoomminus.mouseover" end="zoomminus.mouseout"/>
                        </use>
                        <path d="M-4,0h8" fill="none" stroke="white" stroke-width="1.5" pointer-events="none"/>
                </g>
                <g id="dirArrow">
                        <path fill="none" stroke="white" stroke-width="1.5" d="M0,-3.0v7 M-2.5,-0.5L0,-3.0L2.5,-0.5"/>
                </g>
               <g id="resetDef">
                       <use xlink:href="#rim2" fill="#404040">
                               <set attributeName="fill" to="#808080" begin="reset.mouseover" end="reset.mouseout"/>
                       </use>
               </g>
        </defs>

<script type="text/javascript">
var viewWidth = 2535;
var viewHeight = 508;
var sectionId = 'dynsection-0';
</script>
<script xlink:href="svgpan.js"/>
<svg id="graph" class="graph">
<g id="viewport">
<title>includes/spic&#45;prj&#45;api/Point.hpp</title>
<!-- Node1 -->
<g id="node1" class="node">
<title>Node1</title>
<g id="a_node1"><a xlink:title=" ">
<polygon fill="#bfbfbf" stroke="black" points="406,-469.5 406,-499.5 509,-499.5 509,-469.5 406,-469.5"/>
<text text-anchor="start" x="414" y="-487.5" font-family="Helvetica,sans-Serif" font-size="10.00">includes/spic&#45;prj&#45;api</text>
<text text-anchor="middle" x="457.5" y="-476.5" font-family="Helvetica,sans-Serif" font-size="10.00">/Point.hpp</text>
</a>
</g>
</g>
<!-- Node2 -->
<g id="node2" class="node">
<title>Node2</title>
<g id="a_node2"><a xlink:href="Collision_8hpp.html" target="_top" xlink:title=" ">
<polygon fill="none" stroke="black" points="107,-335.5 107,-365.5 250,-365.5 250,-335.5 107,-335.5"/>
<text text-anchor="start" x="115" y="-353.5" font-family="Helvetica,sans-Serif" font-size="10.00">includes/platformer</text>
<text text-anchor="middle" x="178.5" y="-342.5" font-family="Helvetica,sans-Serif" font-size="10.00">&#45;engine/Physics/Collision.hpp</text>
</a>
</g>
</g>
<!-- Node1&#45;&gt;Node2 -->
<g id="edge1" class="edge">
<title>Node1&#45;&gt;Node2</title>
<path fill="none" stroke="midnightblue" d="M395.5,-477.42C353.4,-471.13 297.72,-458.45 254.5,-433 225.32,-415.82 200.52,-384.05 187.75,-365.66"/>
<polygon fill="midnightblue" stroke="midnightblue" points="395.23,-480.92 405.63,-478.85 396.21,-473.99 395.23,-480.92"/>
</g>
<!-- Node4 -->
<g id="node4" class="node">
<title>Node4</title>
<g id="a_node4"><a xlink:href="PhysicsSystem_8hpp.html" target="_top" xlink:title=" ">
<polygon fill="none" stroke="black" points="306.5,-263 306.5,-293 480.5,-293 480.5,-263 306.5,-263"/>
<text text-anchor="start" x="314.5" y="-281" font-family="Helvetica,sans-Serif" font-size="10.00">includes/platformer</text>
<text text-anchor="middle" x="393.5" y="-270" font-family="Helvetica,sans-Serif" font-size="10.00">&#45;engine/Physics/PhysicsSystem.hpp</text>
</a>
</g>
</g>
<!-- Node1&#45;&gt;Node4 -->
<g id="edge9" class="edge">
<title>Node1&#45;&gt;Node4</title>
<path fill="none" stroke="midnightblue" d="M450.1,-459.85C436.69,-417 408.76,-327.77 397.93,-293.15"/>
<polygon fill="midnightblue" stroke="midnightblue" points="446.77,-460.95 453.1,-469.44 453.45,-458.85 446.77,-460.95"/>
</g>
<!-- Node9 -->
<g id="node9" class="node">
<title>Node9</title>
<g id="a_node9"><a xlink:href="Debug_8hpp.html" target="_top" xlink:title=" ">
<polygon fill="none" stroke="black" points="1971,-190.5 1971,-220.5 2074,-220.5 2074,-190.5 1971,-190.5"/>
<text text-anchor="start" x="1979" y="-208.5" font-family="Helvetica,sans-Serif" font-size="10.00">includes/spic&#45;prj&#45;api</text>
<text text-anchor="middle" x="2022.5" y="-197.5" font-family="Helvetica,sans-Serif" font-size="10.00">/Debug.hpp</text>
</a>
</g>
</g>
<!-- Node1&#45;&gt;Node9 -->
<g id="edge10" class="edge">
<title>Node1&#45;&gt;Node9</title>
<path fill="none" stroke="midnightblue" d="M519.43,-475.52C591.94,-466.03 715.59,-449.42 821.5,-433 1169.96,-378.99 1257.46,-366.8 1603.5,-299 1736.37,-272.97 1891.77,-237.27 1970.74,-218.76"/>
<polygon fill="midnightblue" stroke="midnightblue" points="518.58,-472.1 509.11,-476.87 519.48,-479.04 518.58,-472.1"/>
</g>
<!-- Node17 -->
<g id="node17" class="node">
<title>Node17</title>
<g id="a_node17"><a xlink:href="Input_8hpp.html" target="_top" xlink:title=" ">
<polygon fill="none" stroke="black" points="1491,-263 1491,-293 1594,-293 1594,-263 1491,-263"/>
<text text-anchor="start" x="1499" y="-281" font-family="Helvetica,sans-Serif" font-size="10.00">includes/spic&#45;prj&#45;api</text>
<text text-anchor="middle" x="1542.5" y="-270" font-family="Helvetica,sans-Serif" font-size="10.00">/Input.hpp</text>
</a>
</g>
</g>
<!-- Node1&#45;&gt;Node17 -->
<g id="edge18" class="edge">
<title>Node1&#45;&gt;Node17</title>
<path fill="none" stroke="midnightblue" d="M519.14,-471.88C713.51,-435.25 1311.23,-322.59 1490.9,-288.73"/>
<polygon fill="midnightblue" stroke="midnightblue" points="518.28,-468.48 509.1,-473.77 519.58,-475.36 518.28,-468.48"/>
</g>
<!-- Node21 -->
<g id="node21" class="node">
<title>Node21</title>
<g id="a_node21"><a xlink:href="RigidBody_8hpp.html" target="_top" xlink:title=" ">
<polygon fill="none" stroke="black" points="264,-402.5 264,-432.5 367,-432.5 367,-402.5 264,-402.5"/>
<text text-anchor="start" x="272" y="-420.5" font-family="Helvetica,sans-Serif" font-size="10.00">includes/spic&#45;prj&#45;api</text>
<text text-anchor="middle" x="315.5" y="-409.5" font-family="Helvetica,sans-Serif" font-size="10.00">/RigidBody.hpp</text>
</a>
</g>
</g>
<!-- Node1&#45;&gt;Node21 -->
<g id="edge29" class="edge">
<title>Node1&#45;&gt;Node21</title>
<path fill="none" stroke="midnightblue" d="M417.37,-465.13C394.81,-454.8 367.08,-442.11 346.25,-432.58"/>
<polygon fill="midnightblue" stroke="midnightblue" points="416.14,-468.42 426.69,-469.4 419.05,-462.05 416.14,-468.42"/>
</g>
<!-- Node22 -->
<g id="node22" class="node">
<title>Node22</title>
<g id="a_node22"><a xlink:href="Transform_8hpp.html" target="_top" xlink:title=" ">
<polygon fill="none" stroke="black" points="457,-402.5 457,-432.5 560,-432.5 560,-402.5 457,-402.5"/>
<text text-anchor="start" x="465" y="-420.5" font-family="Helvetica,sans-Serif" font-size="10.00">includes/spic&#45;prj&#45;api</text>
<text text-anchor="middle" x="508.5" y="-409.5" font-family="Helvetica,sans-Serif" font-size="10.00">/Transform.hpp</text>
</a>
</g>
</g>
<!-- Node1&#45;&gt;Node22 -->
<g id="edge31" class="edge">
<title>Node1&#45;&gt;Node22</title>
<path fill="none" stroke="midnightblue" d="M474.8,-461.45C482.29,-451.9 490.84,-441 497.46,-432.58"/>
<polygon fill="midnightblue" stroke="midnightblue" points="471.99,-459.37 468.57,-469.4 477.49,-463.69 471.99,-459.37"/>
</g>
<!-- Node3 -->
<g id="node3" class="node">
<title>Node3</title>
<g id="a_node3"><a xlink:href="Collision_8cpp.html" target="_top" xlink:title=" ">
<polygon fill="none" stroke="black" points="0,-268.5 0,-287.5 125,-287.5 125,-268.5 0,-268.5"/>
<text text-anchor="middle" x="62.5" y="-275.5" font-family="Helvetica,sans-Serif" font-size="10.00">src/Physics/Collision.cpp</text>
</a>
</g>
</g>
<!-- Node2&#45;&gt;Node3 -->
<g id="edge2" class="edge">
<title>Node2&#45;&gt;Node3</title>
<path fill="none" stroke="midnightblue" d="M146.58,-330.1C123.63,-316.15 93.8,-298.02 76.54,-287.53"/>
<polygon fill="midnightblue" stroke="midnightblue" points="144.94,-333.2 155.3,-335.4 148.58,-327.22 144.94,-333.2"/>
</g>
<!-- Node2&#45;&gt;Node4 -->
<g id="edge3" class="edge">
<title>Node2&#45;&gt;Node4</title>
<path fill="none" stroke="midnightblue" d="M230.78,-332.36C267.49,-320.32 316,-304.41 350.48,-293.11"/>
<polygon fill="midnightblue" stroke="midnightblue" points="229.65,-329.05 221.23,-335.49 231.83,-335.7 229.65,-329.05"/>
</g>
<!-- Node8 -->
<g id="node8" class="node">
<title>Node8</title>
<g id="a_node8"><a xlink:href="BehaviourScript_8hpp.html" target="_top" xlink:title=" ">
<polygon fill="none" stroke="black" points="143,-263 143,-293 250,-293 250,-263 143,-263"/>
<text text-anchor="start" x="151" y="-281" font-family="Helvetica,sans-Serif" font-size="10.00">includes/spic&#45;prj&#45;api</text>
<text text-anchor="middle" x="196.5" y="-270" font-family="Helvetica,sans-Serif" font-size="10.00">/BehaviourScript.hpp</text>
</a>
</g>
</g>
<!-- Node2&#45;&gt;Node8 -->
<g id="edge7" class="edge">
<title>Node2&#45;&gt;Node8</title>
<path fill="none" stroke="midnightblue" d="M184.7,-325.23C187.42,-314.57 190.52,-302.41 192.86,-293.25"/>
<polygon fill="midnightblue" stroke="midnightblue" points="181.23,-324.68 182.14,-335.23 188.01,-326.41 181.23,-324.68"/>
</g>
<!-- Node5 -->
<g id="node5" class="node">
<title>Node5</title>
<g id="a_node5"><a xlink:href="PhysicsSystem_8cpp.html" target="_top" xlink:title=" ">
<polygon fill="none" stroke="black" points="357.5,-196 357.5,-215 513.5,-215 513.5,-196 357.5,-196"/>
<text text-anchor="middle" x="435.5" y="-203" font-family="Helvetica,sans-Serif" font-size="10.00">src/Physics/PhysicsSystem.cpp</text>
</a>
</g>
</g>
<!-- Node4&#45;&gt;Node5 -->
<g id="edge4" class="edge">
<title>Node4&#45;&gt;Node5</title>
<path fill="none" stroke="midnightblue" d="M407.13,-254.13C414.99,-240.92 424.44,-225.07 430.2,-215.39"/>
<polygon fill="midnightblue" stroke="midnightblue" points="404.11,-252.35 402,-262.73 410.12,-255.93 404.11,-252.35"/>
</g>
<!-- Node6 -->
<g id="node6" class="node">
<title>Node6</title>
<g id="a_node6"><a xlink:href="Engine_8hpp.html" target="_top" xlink:title=" ">
<polygon fill="none" stroke="black" points="1207,-56.5 1207,-86.5 1338,-86.5 1338,-56.5 1207,-56.5"/>
<text text-anchor="start" x="1215" y="-74.5" font-family="Helvetica,sans-Serif" font-size="10.00">includes/platformer</text>
<text text-anchor="middle" x="1272.5" y="-63.5" font-family="Helvetica,sans-Serif" font-size="10.00">&#45;engine/Engine/Engine.hpp</text>
</a>
</g>
</g>
<!-- Node4&#45;&gt;Node6 -->
<g id="edge5" class="edge">
<title>Node4&#45;&gt;Node6</title>
<path fill="none" stroke="midnightblue" d="M369.35,-255.76C350.85,-236.96 331.18,-209.55 348.5,-190 474.53,-47.75 1009.75,-116.5 1197.5,-87 1200.51,-86.53 1203.59,-86.02 1206.7,-85.49"/>
<polygon fill="midnightblue" stroke="midnightblue" points="366.95,-258.31 376.57,-262.76 371.82,-253.28 366.95,-258.31"/>
</g>
<!-- Node7 -->
<g id="node7" class="node">
<title>Node7</title>
<g id="a_node7"><a xlink:href="Engine_8cpp.html" target="_top" xlink:title=" ">
<polygon fill="none" stroke="black" points="1216,-0.5 1216,-19.5 1329,-19.5 1329,-0.5 1216,-0.5"/>
<text text-anchor="middle" x="1272.5" y="-7.5" font-family="Helvetica,sans-Serif" font-size="10.00">src/Engine/Engine.cpp</text>
</a>
</g>
</g>
<!-- Node6&#45;&gt;Node7 -->
<g id="edge6" class="edge">
<title>Node6&#45;&gt;Node7</title>
<path fill="none" stroke="midnightblue" d="M1272.5,-46.29C1272.5,-36.86 1272.5,-26.65 1272.5,-19.66"/>
<polygon fill="midnightblue" stroke="midnightblue" points="1269,-46.4 1272.5,-56.4 1276,-46.4 1269,-46.4"/>
</g>
<!-- Node8&#45;&gt;Node5 -->
<g id="edge8" class="edge">
<title>Node8&#45;&gt;Node5</title>
<path fill="none" stroke="midnightblue" d="M253.67,-260.14C301.82,-245.93 368.72,-226.2 406.5,-215.05"/>
<polygon fill="midnightblue" stroke="midnightblue" points="252.61,-256.8 244,-262.99 254.59,-263.51 252.61,-256.8"/>
</g>
<!-- Node10 -->
<g id="node10" class="node">
<title>Node10</title>
<g id="a_node10"><a xlink:href="Input_8cpp.html" target="_top" xlink:title=" ">
<polygon fill="none" stroke="black" points="1603.5,-129 1603.5,-148 1695.5,-148 1695.5,-129 1603.5,-129"/>
<text text-anchor="middle" x="1649.5" y="-136" font-family="Helvetica,sans-Serif" font-size="10.00">src/API/Input.cpp</text>
</a>
</g>
</g>
<!-- Node9&#45;&gt;Node10 -->
<g id="edge11" class="edge">
<title>Node9&#45;&gt;Node10</title>
<path fill="none" stroke="midnightblue" d="M1961.02,-196.6C1896.72,-187.9 1793.03,-172.65 1704.5,-154 1696.38,-152.29 1687.67,-150.14 1679.63,-148.03"/>
<polygon fill="midnightblue" stroke="midnightblue" points="1960.61,-200.08 1970.99,-197.94 1961.54,-193.14 1960.61,-200.08"/>
</g>
<!-- Node11 -->
<g id="node11" class="node">
<title>Node11</title>
<g id="a_node11"><a xlink:href="Debug_8cpp.html" target="_top" xlink:title=" ">
<polygon fill="none" stroke="black" points="2240.5,-129 2240.5,-148 2350.5,-148 2350.5,-129 2240.5,-129"/>
<text text-anchor="middle" x="2295.5" y="-136" font-family="Helvetica,sans-Serif" font-size="10.00">src/Debug/Debug.cpp</text>
</a>
</g>
</g>
<!-- Node9&#45;&gt;Node11 -->
<g id="edge12" class="edge">
<title>Node9&#45;&gt;Node11</title>
<path fill="none" stroke="midnightblue" d="M2084,-189.86C2138.13,-176.97 2215.09,-158.65 2259.7,-148.02"/>
<polygon fill="midnightblue" stroke="midnightblue" points="2083.09,-186.48 2074.17,-192.2 2084.71,-193.29 2083.09,-186.48"/>
</g>
<!-- Node12 -->
<g id="node12" class="node">
<title>Node12</title>
<g id="a_node12"><a xlink:href="GraphicsFacade_8cpp.html" target="_top" xlink:title=" ">
<polygon fill="none" stroke="black" points="2368.5,-129 2368.5,-148 2526.5,-148 2526.5,-129 2368.5,-129"/>
<text text-anchor="middle" x="2447.5" y="-136" font-family="Helvetica,sans-Serif" font-size="10.00">src/Facade/GraphicsFacade.cpp</text>
</a>
</g>
</g>
<!-- Node9&#45;&gt;Node12 -->
<g id="edge13" class="edge">
<title>Node9&#45;&gt;Node12</title>
<path fill="none" stroke="midnightblue" d="M2084.26,-195.52C2151.88,-185.62 2263.47,-169.11 2359.5,-154 2371.43,-152.12 2384.26,-150.04 2396.33,-148.06"/>
<polygon fill="midnightblue" stroke="midnightblue" points="2083.6,-192.08 2074.21,-196.99 2084.61,-199.01 2083.6,-192.08"/>
</g>
<!-- Node13 -->
<g id="node13" class="node">
<title>Node13</title>
<g id="a_node13"><a xlink:href="InputFacade_8cpp.html" target="_top" xlink:title=" ">
<polygon fill="none" stroke="black" points="1713.5,-129 1713.5,-148 1853.5,-148 1853.5,-129 1713.5,-129"/>
<text text-anchor="middle" x="1783.5" y="-136" font-family="Helvetica,sans-Serif" font-size="10.00">src/Facade/InputFacade.cpp</text>
</a>
</g>
</g>
<!-- Node9&#45;&gt;Node13 -->
<g id="edge14" class="edge">
<title>Node9&#45;&gt;Node13</title>
<path fill="none" stroke="midnightblue" d="M1961.21,-187.83C1914.43,-175.11 1851.91,-158.11 1814.86,-148.03"/>
<polygon fill="midnightblue" stroke="midnightblue" points="1960.37,-191.23 1970.93,-190.48 1962.2,-184.47 1960.37,-191.23"/>
</g>
<!-- Node14 -->
<g id="node14" class="node">
<title>Node14</title>
<g id="a_node14"><a xlink:href="TMXParser_8cpp.html" target="_top" xlink:title=" ">
<polygon fill="none" stroke="black" points="1871.5,-129 1871.5,-148 2007.5,-148 2007.5,-129 1871.5,-129"/>
<text text-anchor="middle" x="1939.5" y="-136" font-family="Helvetica,sans-Serif" font-size="10.00">src/Facade/TMXParser.cpp</text>
</a>
</g>
</g>
<!-- Node9&#45;&gt;Node14 -->
<g id="edge15" class="edge">
<title>Node9&#45;&gt;Node14</title>
<path fill="none" stroke="midnightblue" d="M1996.33,-184.01C1980.92,-171.94 1962.24,-157.3 1950.6,-148.19"/>
<polygon fill="midnightblue" stroke="midnightblue" points="1994.46,-186.99 2004.49,-190.4 1998.78,-181.47 1994.46,-186.99"/>
</g>
<!-- Node15 -->
<g id="node15" class="node">
<title>Node15</title>
<g id="a_node15"><a xlink:href="LevelParser_8cpp.html" target="_top" xlink:title=" ">
<polygon fill="none" stroke="black" points="2026,-129 2026,-148 2185,-148 2185,-129 2026,-129"/>
<text text-anchor="middle" x="2105.5" y="-136" font-family="Helvetica,sans-Serif" font-size="10.00">src/LevelParser/LevelParser.cpp</text>
</a>
</g>
</g>
<!-- Node9&#45;&gt;Node15 -->
<g id="edge16" class="edge">
<title>Node9&#45;&gt;Node15</title>
<path fill="none" stroke="midnightblue" d="M2048.67,-184.01C2064.08,-171.94 2082.76,-157.3 2094.4,-148.19"/>
<polygon fill="midnightblue" stroke="midnightblue" points="2046.22,-181.47 2040.51,-190.4 2050.54,-186.99 2046.22,-181.47"/>
</g>
<!-- Node16 -->
<g id="node16" class="node">
<title>Node16</title>
<g id="a_node16"><a xlink:href="Timer_8cpp.html" target="_top" xlink:title=" ">
<polygon fill="none" stroke="black" points="1852.5,-62 1852.5,-81 1956.5,-81 1956.5,-62 1852.5,-62"/>
<text text-anchor="middle" x="1904.5" y="-69" font-family="Helvetica,sans-Serif" font-size="10.00">src/Timer/Timer.cpp</text>
</a>
</g>
</g>
<!-- Node9&#45;&gt;Node16 -->
<g id="edge17" class="edge">
<title>Node9&#45;&gt;Node16</title>
<path fill="none" stroke="midnightblue" d="M2084.41,-196.93C2146.99,-186.79 2229.8,-164.98 2194.5,-123 2164.69,-87.55 2031.72,-76.99 1956.61,-73.84"/>
<polygon fill="midnightblue" stroke="midnightblue" points="2083.51,-193.53 2074.17,-198.52 2084.59,-200.45 2083.51,-193.53"/>
</g>
<!-- Node17&#45;&gt;Node10 -->
<g id="edge19" class="edge">
<title>Node17&#45;&gt;Node10</title>
<path fill="none" stroke="midnightblue" d="M1542.61,-252.81C1543.84,-234.05 1548.13,-208.24 1561.5,-190 1576.6,-169.4 1602.82,-155.93 1622.73,-148.13"/>
<polygon fill="midnightblue" stroke="midnightblue" points="1539.11,-252.8 1542.2,-262.94 1546.1,-253.09 1539.11,-252.8"/>
</g>
<!-- Node17&#45;&gt;Node13 -->
<g id="edge20" class="edge">
<title>Node17&#45;&gt;Node13</title>
<path fill="none" stroke="midnightblue" d="M1604.18,-271.49C1645.58,-265.06 1699.32,-251.14 1737.5,-221 1762.24,-201.47 1775.9,-164.74 1781.07,-148.09"/>
<polygon fill="midnightblue" stroke="midnightblue" points="1603.6,-268.04 1594.21,-272.93 1604.6,-274.96 1603.6,-268.04"/>
</g>
<!-- Node18 -->
<g id="node18" class="node">
<title>Node18</title>
<g id="a_node18"><a xlink:href="Window_8cpp.html" target="_top" xlink:title=" ">
<polygon fill="none" stroke="black" points="1408,-62 1408,-81 1527,-81 1527,-62 1408,-62"/>
<text text-anchor="middle" x="1467.5" y="-69" font-family="Helvetica,sans-Serif" font-size="10.00">src/Render/Window.cpp</text>
</a>
</g>
</g>
<!-- Node17&#45;&gt;Node18 -->
<g id="edge21" class="edge">
<title>Node17&#45;&gt;Node18</title>
<path fill="none" stroke="midnightblue" d="M1516.62,-256.01C1491.43,-233.75 1454.78,-196.05 1439.5,-154 1429.89,-127.56 1449.5,-96 1460.59,-81.1"/>
<polygon fill="midnightblue" stroke="midnightblue" points="1514.5,-258.8 1524.36,-262.68 1519.07,-253.5 1514.5,-258.8"/>
</g>
<!-- Node19 -->
<g id="node19" class="node">
<title>Node19</title>
<g id="a_node19"><a xlink:href="InputFacade_8hpp.html" target="_top" xlink:title=" ">
<polygon fill="none" stroke="black" points="1570.5,-190.5 1570.5,-220.5 1728.5,-220.5 1728.5,-190.5 1570.5,-190.5"/>
<text text-anchor="start" x="1578.5" y="-208.5" font-family="Helvetica,sans-Serif" font-size="10.00">includes/platformer</text>
<text text-anchor="middle" x="1649.5" y="-197.5" font-family="Helvetica,sans-Serif" font-size="10.00">&#45;engine/Facade/InputFacade.hpp</text>
</a>
</g>
</g>
<!-- Node17&#45;&gt;Node19 -->
<g id="edge22" class="edge">
<title>Node17&#45;&gt;Node19</title>
<path fill="none" stroke="midnightblue" d="M1572.7,-257.1C1590.37,-245.46 1612.26,-231.04 1628.14,-220.57"/>
<polygon fill="midnightblue" stroke="midnightblue" points="1570.32,-254.48 1563.9,-262.9 1574.17,-260.32 1570.32,-254.48"/>
</g>
<!-- Node19&#45;&gt;Node10 -->
<g id="edge23" class="edge">
<title>Node19&#45;&gt;Node10</title>
<path fill="none" stroke="midnightblue" d="M1649.5,-180.25C1649.5,-169.02 1649.5,-156.38 1649.5,-148.19"/>
<polygon fill="midnightblue" stroke="midnightblue" points="1646,-180.4 1649.5,-190.4 1653,-180.4 1646,-180.4"/>
</g>
<!-- Node19&#45;&gt;Node13 -->
<g id="edge24" class="edge">
<title>Node19&#45;&gt;Node13</title>
<path fill="none" stroke="midnightblue" d="M1687.71,-185.97C1713.45,-173.48 1746.19,-157.6 1765.96,-148.01"/>
<polygon fill="midnightblue" stroke="midnightblue" points="1686.05,-182.88 1678.58,-190.4 1689.1,-189.18 1686.05,-182.88"/>
</g>
<!-- Node20 -->
<g id="node20" class="node">
<title>Node20</title>
<g id="a_node20"><a xlink:href="Window_8hpp.html" target="_top" xlink:title=" ">
<polygon fill="none" stroke="black" points="1448,-123.5 1448,-153.5 1585,-153.5 1585,-123.5 1448,-123.5"/>
<text text-anchor="start" x="1456" y="-141.5" font-family="Helvetica,sans-Serif" font-size="10.00">includes/platformer</text>
<text text-anchor="middle" x="1516.5" y="-130.5" font-family="Helvetica,sans-Serif" font-size="10.00">&#45;engine/Render/Window.hpp</text>
</a>
</g>
</g>
<!-- Node19&#45;&gt;Node20 -->
<g id="edge25" class="edge">
<title>Node19&#45;&gt;Node20</title>
<path fill="none" stroke="midnightblue" d="M1611.63,-185.99C1590.55,-175.69 1564.72,-163.07 1545.3,-153.58"/>
<polygon fill="midnightblue" stroke="midnightblue" points="1610.12,-189.15 1620.64,-190.4 1613.19,-182.86 1610.12,-189.15"/>
</g>
<!-- Node20&#45;&gt;Node6 -->
<g id="edge28" class="edge">
<title>Node20&#45;&gt;Node6</title>
<path fill="none" stroke="midnightblue" d="M1454,-120.85C1414.22,-110.25 1363.26,-96.68 1325.47,-86.61"/>
<polygon fill="midnightblue" stroke="midnightblue" points="1453.29,-124.28 1463.86,-123.48 1455.09,-117.52 1453.29,-124.28"/>
</g>
<!-- Node20&#45;&gt;Node16 -->
<g id="edge27" class="edge">
<title>Node20&#45;&gt;Node16</title>
<path fill="none" stroke="midnightblue" d="M1595.33,-122.88C1691.98,-106.1 1792.72,-90.01 1852.33,-80.63"/>
<polygon fill="midnightblue" stroke="midnightblue" points="1594.64,-119.44 1585.39,-124.61 1595.84,-126.34 1594.64,-119.44"/>
</g>
<!-- Node20&#45;&gt;Node18 -->
<g id="edge26" class="edge">
<title>Node20&#45;&gt;Node18</title>
<path fill="none" stroke="midnightblue" d="M1499.78,-115.32C1490.94,-103.6 1480.6,-89.88 1474.05,-81.19"/>
<polygon fill="midnightblue" stroke="midnightblue" points="1497.05,-117.52 1505.87,-123.4 1502.64,-113.3 1497.05,-117.52"/>
</g>
<!-- Node21&#45;&gt;Node5 -->
<g id="edge30" class="edge">
<title>Node21&#45;&gt;Node5</title>
<path fill="none" stroke="midnightblue" d="M303.72,-392.72C289.01,-359.25 269,-297.78 297.5,-257 313.21,-234.52 340.06,-222.02 365.93,-215.07"/>
<polygon fill="midnightblue" stroke="midnightblue" points="300.7,-394.54 308.06,-402.16 307.06,-391.61 300.7,-394.54"/>
</g>
<!-- Node22&#45;&gt;Node5 -->
<g id="edge32" class="edge">
<title>Node22&#45;&gt;Node5</title>
<path fill="none" stroke="midnightblue" d="M510.61,-391.96C512.33,-359.31 511.59,-300.62 489.5,-257 480.34,-238.91 461.92,-223.91 449.15,-215.08"/>
<polygon fill="midnightblue" stroke="midnightblue" points="507.09,-392.15 509.93,-402.36 514.07,-392.61 507.09,-392.15"/>
</g>
<!-- Node23 -->
<g id="node23" class="node">
<title>Node23</title>
<g id="a_node23"><a xlink:href="GameObject_8hpp.html" target="_top" xlink:title=" ">
<polygon fill="none" stroke="black" points="624,-335.5 624,-365.5 727,-365.5 727,-335.5 624,-335.5"/>
<text text-anchor="start" x="632" y="-353.5" font-family="Helvetica,sans-Serif" font-size="10.00">includes/spic&#45;prj&#45;api</text>
<text text-anchor="middle" x="675.5" y="-342.5" font-family="Helvetica,sans-Serif" font-size="10.00">/GameObject.hpp</text>
</a>
</g>
</g>
<!-- Node22&#45;&gt;Node23 -->
<g id="edge33" class="edge">
<title>Node22&#45;&gt;Node23</title>
<path fill="none" stroke="midnightblue" d="M554.28,-398.68C581.06,-388.26 614.4,-375.28 639.33,-365.58"/>
<polygon fill="midnightblue" stroke="midnightblue" points="552.79,-395.51 544.74,-402.4 555.33,-402.03 552.79,-395.51"/>
</g>
<!-- Node23&#45;&gt;Node4 -->
<g id="edge40" class="edge">
<title>Node23&#45;&gt;Node4</title>
<path fill="none" stroke="midnightblue" d="M613.95,-334.11C565.04,-321.89 497.19,-304.92 449.73,-293.06"/>
<polygon fill="midnightblue" stroke="midnightblue" points="613.23,-337.54 623.78,-336.57 614.92,-330.75 613.23,-337.54"/>
</g>
<!-- Node23&#45;&gt;Node5 -->
<g id="edge35" class="edge">
<title>Node23&#45;&gt;Node5</title>
<path fill="none" stroke="midnightblue" d="M631.01,-331.32C611.75,-322.65 589.36,-311.45 570.5,-299 546.84,-283.38 545.53,-273.53 522.5,-257 499.37,-240.4 470.42,-224.47 452.45,-215.08"/>
<polygon fill="midnightblue" stroke="midnightblue" points="629.62,-334.54 640.18,-335.37 632.44,-328.13 629.62,-334.54"/>
</g>
<!-- Node24 -->
<g id="node24" class="node">
<title>Node24</title>
<g id="a_node24"><a xlink:href="GameObject_8cpp.html" target="_top" xlink:title=" ">
<polygon fill="none" stroke="black" points="613,-268.5 613,-287.5 738,-287.5 738,-268.5 613,-268.5"/>
<text text-anchor="middle" x="675.5" y="-275.5" font-family="Helvetica,sans-Serif" font-size="10.00">src/API/GameObject.cpp</text>
</a>
</g>
</g>
<!-- Node23&#45;&gt;Node24 -->
<g id="edge34" class="edge">
<title>Node23&#45;&gt;Node24</title>
<path fill="none" stroke="midnightblue" d="M675.5,-325.09C675.5,-312.21 675.5,-297.2 675.5,-287.89"/>
<polygon fill="midnightblue" stroke="midnightblue" points="672,-325.23 675.5,-335.23 679,-325.23 672,-325.23"/>
</g>
<!-- Node25 -->
<g id="node25" class="node">
<title>Node25</title>
<g id="a_node25"><a xlink:href="GameObjectBuilder_8hpp.html" target="_top" xlink:title=" ">
<polygon fill="none" stroke="black" points="917,-257.5 917,-298.5 1056,-298.5 1056,-257.5 917,-257.5"/>
<text text-anchor="start" x="925" y="-286.5" font-family="Helvetica,sans-Serif" font-size="10.00">includes/platformer</text>
<text text-anchor="start" x="925" y="-275.5" font-family="Helvetica,sans-Serif" font-size="10.00">&#45;engine/Builder/GameObject</text>
<text text-anchor="middle" x="986.5" y="-264.5" font-family="Helvetica,sans-Serif" font-size="10.00">Builder.hpp</text>
</a>
</g>
</g>
<!-- Node23&#45;&gt;Node25 -->
<g id="edge36" class="edge">
<title>Node23&#45;&gt;Node25</title>
<path fill="none" stroke="midnightblue" d="M737.26,-335.5C789.06,-323.76 863,-307 916.89,-294.78"/>
<polygon fill="midnightblue" stroke="midnightblue" points="736.18,-332.15 727.2,-337.78 737.73,-338.98 736.18,-332.15"/>
</g>
<!-- Node27 -->
<g id="node27" class="node">
<title>Node27</title>
<g id="a_node27"><a xlink:href="SceneBuilder_8hpp.html" target="_top" xlink:title=" ">
<polygon fill="none" stroke="black" points="1047.5,-123.5 1047.5,-153.5 1207.5,-153.5 1207.5,-123.5 1047.5,-123.5"/>
<text text-anchor="start" x="1055.5" y="-141.5" font-family="Helvetica,sans-Serif" font-size="10.00">includes/platformer</text>
<text text-anchor="middle" x="1127.5" y="-130.5" font-family="Helvetica,sans-Serif" font-size="10.00">&#45;engine/Builder/SceneBuilder.hpp</text>
</a>
</g>
</g>
<!-- Node23&#45;&gt;Node27 -->
<g id="edge38" class="edge">
<title>Node23&#45;&gt;Node27</title>
<path fill="none" stroke="midnightblue" d="M643.59,-329.78C596.73,-298.48 519.2,-236.24 561.5,-190 593.63,-154.88 899.01,-144.01 1047.37,-140.79"/>
<polygon fill="midnightblue" stroke="midnightblue" points="641.94,-332.89 652.23,-335.43 645.78,-327.03 641.94,-332.89"/>
</g>
<!-- Node29 -->
<g id="node29" class="node">
<title>Node29</title>
<g id="a_node29"><a xlink:href="Camera_8hpp.html" target="_top" xlink:title=" ">
<polygon fill="none" stroke="black" points="1126,-263 1126,-293 1229,-293 1229,-263 1126,-263"/>
<text text-anchor="start" x="1134" y="-281" font-family="Helvetica,sans-Serif" font-size="10.00">includes/spic&#45;prj&#45;api</text>
<text text-anchor="middle" x="1177.5" y="-270" font-family="Helvetica,sans-Serif" font-size="10.00">/Camera.hpp</text>
</a>
</g>
</g>
<!-- Node23&#45;&gt;Node29 -->
<g id="edge41" class="edge">
<title>Node23&#45;&gt;Node29</title>
<path fill="none" stroke="midnightblue" d="M737.03,-342.46C814,-333.43 949.74,-316.82 1065.5,-299 1085.22,-295.96 1106.81,-292.21 1125.73,-288.78"/>
<polygon fill="midnightblue" stroke="midnightblue" points="736.55,-338.99 727.03,-343.63 737.37,-345.94 736.55,-338.99"/>
</g>
<!-- Node31 -->
<g id="node31" class="node">
<title>Node31</title>
<g id="a_node31"><a xlink:href="Scene_8hpp.html" target="_top" xlink:title=" ">
<polygon fill="none" stroke="black" points="1288,-190.5 1288,-220.5 1391,-220.5 1391,-190.5 1288,-190.5"/>
<text text-anchor="start" x="1296" y="-208.5" font-family="Helvetica,sans-Serif" font-size="10.00">includes/spic&#45;prj&#45;api</text>
<text text-anchor="middle" x="1339.5" y="-197.5" font-family="Helvetica,sans-Serif" font-size="10.00">/Scene.hpp</text>
</a>
</g>
</g>
<!-- Node23&#45;&gt;Node31 -->
<g id="edge49" class="edge">
<title>Node23&#45;&gt;Node31</title>
<path fill="none" stroke="midnightblue" d="M737.41,-348.91C864.45,-346.89 1150.08,-338.01 1238.5,-299 1278.09,-281.53 1312.44,-242.15 1328.99,-220.84"/>
<polygon fill="midnightblue" stroke="midnightblue" points="737.02,-345.41 727.08,-349.06 737.13,-352.41 737.02,-345.41"/>
</g>
<!-- Node33 -->
<g id="node33" class="node">
<title>Node33</title>
<g id="a_node33"><a xlink:href="UIObject_8hpp.html" target="_top" xlink:title=" ">
<polygon fill="none" stroke="black" points="756,-263 756,-293 859,-293 859,-263 756,-263"/>
<text text-anchor="start" x="764" y="-281" font-family="Helvetica,sans-Serif" font-size="10.00">includes/spic&#45;prj&#45;api</text>
<text text-anchor="middle" x="807.5" y="-270" font-family="Helvetica,sans-Serif" font-size="10.00">/UIObject.hpp</text>
</a>
</g>
</g>
<!-- Node23&#45;&gt;Node33 -->
<g id="edge50" class="edge">
<title>Node23&#45;&gt;Node33</title>
<path fill="none" stroke="midnightblue" d="M710.97,-330.56C733.06,-318.76 761.02,-303.83 781.15,-293.07"/>
<polygon fill="midnightblue" stroke="midnightblue" points="709.07,-327.6 701.89,-335.4 712.36,-333.78 709.07,-327.6"/>
</g>
<!-- Node26 -->
<g id="node26" class="node">
<title>Node26</title>
<g id="a_node26"><a xlink:href="GameObjectBuilder_8cpp.html" target="_top" xlink:title=" ">
<polygon fill="none" stroke="black" points="941,-196 941,-215 1110,-215 1110,-196 941,-196"/>
<text text-anchor="middle" x="1025.5" y="-203" font-family="Helvetica,sans-Serif" font-size="10.00">src/Builder/GameObjectBuilder.cpp</text>
</a>
</g>
</g>
<!-- Node25&#45;&gt;Node26 -->
<g id="edge37" class="edge">
<title>Node25&#45;&gt;Node26</title>
<path fill="none" stroke="midnightblue" d="M1002.26,-248.52C1008.88,-236.55 1016.09,-223.5 1020.7,-215.17"/>
<polygon fill="midnightblue" stroke="midnightblue" points="999.14,-246.92 997.36,-257.36 1005.27,-250.31 999.14,-246.92"/>
</g>
<!-- Node28 -->
<g id="node28" class="node">
<title>Node28</title>
<g id="a_node28"><a xlink:href="SceneBuilder_8cpp.html" target="_top" xlink:title=" ">
<polygon fill="none" stroke="black" points="1046.5,-62 1046.5,-81 1188.5,-81 1188.5,-62 1046.5,-62"/>
<text text-anchor="middle" x="1117.5" y="-69" font-family="Helvetica,sans-Serif" font-size="10.00">src/Builder/SceneBuilder.cpp</text>
</a>
</g>
</g>
<!-- Node27&#45;&gt;Node28 -->
<g id="edge39" class="edge">
<title>Node27&#45;&gt;Node28</title>
<path fill="none" stroke="midnightblue" d="M1123.77,-113.25C1122.04,-102.02 1120.1,-89.38 1118.84,-81.19"/>
<polygon fill="midnightblue" stroke="midnightblue" points="1120.35,-114.04 1125.33,-123.4 1127.27,-112.98 1120.35,-114.04"/>
</g>
<!-- Node29&#45;&gt;Node27 -->
<g id="edge43" class="edge">
<title>Node29&#45;&gt;Node27</title>
<path fill="none" stroke="midnightblue" d="M1168.46,-253.15C1164.72,-243.22 1160.36,-231.57 1156.5,-221 1147.89,-197.44 1138.17,-169.94 1132.46,-153.66"/>
<polygon fill="midnightblue" stroke="midnightblue" points="1165.27,-254.64 1172.08,-262.75 1171.82,-252.16 1165.27,-254.64"/>
</g>
<!-- Node30 -->
<g id="node30" class="node">
<title>Node30</title>
<g id="a_node30"><a xlink:href="Camera_8cpp.html" target="_top" xlink:title=" ">
<polygon fill="none" stroke="black" points="1165.5,-196 1165.5,-215 1269.5,-215 1269.5,-196 1165.5,-196"/>
<text text-anchor="middle" x="1217.5" y="-203" font-family="Helvetica,sans-Serif" font-size="10.00">src/API/Camera.cpp</text>
</a>
</g>
</g>
<!-- Node29&#45;&gt;Node30 -->
<g id="edge42" class="edge">
<title>Node29&#45;&gt;Node30</title>
<path fill="none" stroke="midnightblue" d="M1190.69,-253.74C1198.14,-240.62 1207.02,-224.98 1212.45,-215.39"/>
<polygon fill="midnightblue" stroke="midnightblue" points="1187.49,-252.31 1185.59,-262.73 1193.57,-255.76 1187.49,-252.31"/>
</g>
<!-- Node29&#45;&gt;Node31 -->
<g id="edge44" class="edge">
<title>Node29&#45;&gt;Node31</title>
<path fill="none" stroke="midnightblue" d="M1219.22,-258.84C1246.61,-246.92 1281.9,-231.57 1307.16,-220.57"/>
<polygon fill="midnightblue" stroke="midnightblue" points="1217.67,-255.7 1209.89,-262.9 1220.46,-262.12 1217.67,-255.7"/>
</g>
<!-- Node31&#45;&gt;Node6 -->
<g id="edge47" class="edge">
<title>Node31&#45;&gt;Node6</title>
<path fill="none" stroke="midnightblue" d="M1301.16,-184.75C1289.82,-176.83 1278.77,-166.57 1272.5,-154 1261.77,-132.47 1265.29,-103.6 1268.87,-86.62"/>
<polygon fill="midnightblue" stroke="midnightblue" points="1299.52,-187.85 1309.81,-190.34 1303.31,-181.97 1299.52,-187.85"/>
</g>
<!-- Node31&#45;&gt;Node20 -->
<g id="edge48" class="edge">
<title>Node31&#45;&gt;Node20</title>
<path fill="none" stroke="midnightblue" d="M1387.65,-186.82C1416.1,-176.37 1451.63,-163.32 1478.17,-153.58"/>
<polygon fill="midnightblue" stroke="midnightblue" points="1386.09,-183.66 1377.91,-190.4 1388.5,-190.23 1386.09,-183.66"/>
</g>
<!-- Node31&#45;&gt;Node27 -->
<g id="edge46" class="edge">
<title>Node31&#45;&gt;Node27</title>
<path fill="none" stroke="midnightblue" d="M1283.87,-187.44C1249.51,-176.91 1205.94,-163.55 1173.52,-153.61"/>
<polygon fill="midnightblue" stroke="midnightblue" points="1283.17,-190.89 1293.76,-190.48 1285.23,-184.2 1283.17,-190.89"/>
</g>
<!-- Node32 -->
<g id="node32" class="node">
<title>Node32</title>
<g id="a_node32"><a xlink:href="Scene_8cpp.html" target="_top" xlink:title=" ">
<polygon fill="none" stroke="black" points="1281.5,-129 1281.5,-148 1391.5,-148 1391.5,-129 1281.5,-129"/>
<text text-anchor="middle" x="1336.5" y="-136" font-family="Helvetica,sans-Serif" font-size="10.00">src/Scene/Scene.cpp</text>
</a>
</g>
</g>
<!-- Node31&#45;&gt;Node32 -->
<g id="edge45" class="edge">
<title>Node31&#45;&gt;Node32</title>
<path fill="none" stroke="midnightblue" d="M1338.38,-180.25C1337.86,-169.02 1337.28,-156.38 1336.9,-148.19"/>
<polygon fill="midnightblue" stroke="midnightblue" points="1334.89,-180.57 1338.85,-190.4 1341.88,-180.25 1334.89,-180.57"/>
</g>
<!-- Node34 -->
<g id="node34" class="node">
<title>Node34</title>
<g id="a_node34"><a xlink:href="UIObject_8cpp.html" target="_top" xlink:title=" ">
<polygon fill="none" stroke="black" points="691.5,-196 691.5,-215 801.5,-215 801.5,-196 691.5,-196"/>
<text text-anchor="middle" x="746.5" y="-203" font-family="Helvetica,sans-Serif" font-size="10.00">src/API/UIObject.cpp</text>
</a>
</g>
</g>
<!-- Node33&#45;&gt;Node34 -->
<g id="edge51" class="edge">
<title>Node33&#45;&gt;Node34</title>
<path fill="none" stroke="midnightblue" d="M788.36,-254.88C776.81,-241.54 762.73,-225.26 754.19,-215.39"/>
<polygon fill="midnightblue" stroke="midnightblue" points="785.97,-257.46 795.16,-262.73 791.26,-252.88 785.97,-257.46"/>
</g>
<!-- Node35 -->
<g id="node35" class="node">
<title>Node35</title>
<g id="a_node35"><a xlink:href="Button_8hpp.html" target="_top" xlink:title=" ">
<polygon fill="none" stroke="black" points="820,-190.5 820,-220.5 923,-220.5 923,-190.5 820,-190.5"/>
<text text-anchor="start" x="828" y="-208.5" font-family="Helvetica,sans-Serif" font-size="10.00">includes/spic&#45;prj&#45;api</text>
<text text-anchor="middle" x="871.5" y="-197.5" font-family="Helvetica,sans-Serif" font-size="10.00">/Button.hpp</text>
</a>
</g>
</g>
<!-- Node33&#45;&gt;Node35 -->
<g id="edge52" class="edge">
<title>Node33&#45;&gt;Node35</title>
<path fill="none" stroke="midnightblue" d="M827.44,-255.04C837.59,-243.86 849.64,-230.58 858.57,-220.75"/>
<polygon fill="midnightblue" stroke="midnightblue" points="824.58,-252.98 820.45,-262.73 829.76,-257.68 824.58,-252.98"/>
</g>
<!-- Node36 -->
<g id="node36" class="node">
<title>Node36</title>
<g id="a_node36"><a xlink:href="Text_8hpp.html" target="_top" xlink:title=" ">
<polygon fill="none" stroke="black" points="570,-190.5 570,-220.5 673,-220.5 673,-190.5 570,-190.5"/>
<text text-anchor="start" x="578" y="-208.5" font-family="Helvetica,sans-Serif" font-size="10.00">includes/spic&#45;prj&#45;api</text>
<text text-anchor="middle" x="621.5" y="-197.5" font-family="Helvetica,sans-Serif" font-size="10.00">/Text.hpp</text>
</a>
</g>
</g>
<!-- Node33&#45;&gt;Node36 -->
<g id="edge53" class="edge">
<title>Node33&#45;&gt;Node36</title>
<path fill="none" stroke="midnightblue" d="M760.83,-259.31C729.22,-247.33 688.01,-231.71 658.63,-220.57"/>
<polygon fill="midnightblue" stroke="midnightblue" points="759.72,-262.63 770.31,-262.9 762.2,-256.09 759.72,-262.63"/>
</g>
</g>
</svg>
        <g id="navigator" transform="translate(0 0)" fill="#404254">
                <rect fill="#f2f5e9" fill-opacity="0.5" stroke="#606060" stroke-width=".5" x="0" y="0" width="60" height="60"/>
                <use id="zoomplus" xlink:href="#zoomPlus" x="17" y="9" onmousedown="handleZoom(evt,'in')"/>
                <use id="zoomminus" xlink:href="#zoomMin" x="42" y="9" onmousedown="handleZoom(evt,'out')"/>
                <use id="reset" xlink:href="#resetDef" x="30" y="36" onmousedown="handleReset()"/>
                <g id="arrowUp" xlink:href="#dirArrow" transform="translate(30 24)" onmousedown="handlePan(0,-1)">
                  <use xlink:href="#rim" fill="#404040">
                        <set attributeName="fill" to="#808080" begin="arrowUp.mouseover" end="arrowUp.mouseout"/>
                  </use>
                  <path fill="none" stroke="white" stroke-width="1.5" d="M0,-3.0v7 M-2.5,-0.5L0,-3.0L2.5,-0.5"/>
                </g>
                <g id="arrowRight" xlink:href="#dirArrow" transform="rotate(90) translate(36 -43)" onmousedown="handlePan(1,0)">
                  <use xlink:href="#rim" fill="#404040">
                        <set attributeName="fill" to="#808080" begin="arrowRight.mouseover" end="arrowRight.mouseout"/>
                  </use>
                  <path fill="none" stroke="white" stroke-width="1.5" d="M0,-3.0v7 M-2.5,-0.5L0,-3.0L2.5,-0.5"/>
                </g>
                <g id="arrowDown" xlink:href="#dirArrow" transform="rotate(180) translate(-30 -48)" onmousedown="handlePan(0,1)">
                  <use xlink:href="#rim" fill="#404040">
                        <set attributeName="fill" to="#808080" begin="arrowDown.mouseover" end="arrowDown.mouseout"/>
                  </use>
                  <path fill="none" stroke="white" stroke-width="1.5" d="M0,-3.0v7 M-2.5,-0.5L0,-3.0L2.5,-0.5"/>
                </g>
                <g id="arrowLeft" xlink:href="#dirArrow" transform="rotate(270) translate(-36 17)" onmousedown="handlePan(-1,0)">
                  <use xlink:href="#rim" fill="#404040">
                        <set attributeName="fill" to="#808080" begin="arrowLeft.mouseover" end="arrowLeft.mouseout"/>
                  </use>
                  <path fill="none" stroke="white" stroke-width="1.5" d="M0,-3.0v7 M-2.5,-0.5L0,-3.0L2.5,-0.5"/>
                </g>
        </g>
        <svg viewBox="0 0 15 15" width="100%" height="30px" preserveAspectRatio="xMaxYMin meet">
         <g id="arrow_out" transform="scale(0.3 0.3)">
          <a xlink:href="Point_8hpp__dep__incl_org.svg" target="_base">
           <rect id="button" ry="5" rx="5" y="6" x="6" height="38" width="38"
                fill="#f2f5e9" fill-opacity="0.5" stroke="#606060" stroke-width="1.0"/>
           <path id="arrow"
             d="M 11.500037,31.436501 C 11.940474,20.09759 22.043105,11.32322 32.158766,21.979434 L 37.068811,17.246167 C 37.068811,17.246167 37.088388,32 37.088388,32 L 22.160133,31.978069 C 22.160133,31.978069 26.997745,27.140456 26.997745,27.140456 C 18.528582,18.264221 13.291696,25.230495 11.500037,31.436501 z"
             style="fill:#404040;"/>
          </a>
         </g>
        </svg>
</svg>
