<?xml version="1.0" encoding="UTF-8" standalone="no"?>
<!DOCTYPE svg PUBLIC "-//W3C//DTD SVG 1.1//EN"
 "http://www.w3.org/Graphics/SVG/1.1/DTD/svg11.dtd">
<!-- Generated by graphviz version 2.44.0 ()
 -->
<!-- Title: includes/spic&#45;prj&#45;api/Point.hpp Pages: 1 -->
<svg width="2292pt" height="709pt"
 viewBox="0.00 0.00 2292.48 709.00" xmlns="http://www.w3.org/2000/svg" xmlns:xlink="http://www.w3.org/1999/xlink">
<g id="graph0" class="graph" transform="scale(1 1) rotate(0) translate(4 705)">
<title>includes/spic&#45;prj&#45;api/Point.hpp</title>
<!-- Node1 -->
<g id="node1" class="node">
<title>Node1</title>
<g id="a_node1"><a xlink:title=" ">
<polygon fill="#bfbfbf" stroke="black" points="931.48,-670.5 931.48,-700.5 1034.48,-700.5 1034.48,-670.5 931.48,-670.5"/>
<text text-anchor="start" x="939.48" y="-688.5" font-family="Helvetica,sans-Serif" font-size="10.00">includes/spic&#45;prj&#45;api</text>
<text text-anchor="middle" x="982.98" y="-677.5" font-family="Helvetica,sans-Serif" font-size="10.00">/Point.hpp</text>
</a>
</g>
</g>
<!-- Node2 -->
<g id="node2" class="node">
<title>Node2</title>
<g id="a_node2"><a xlink:href="Collision_8hpp.html" target="_top" xlink:title=" ">
<polygon fill="none" stroke="black" points="631.48,-536.5 631.48,-566.5 774.48,-566.5 774.48,-536.5 631.48,-536.5"/>
<text text-anchor="start" x="639.48" y="-554.5" font-family="Helvetica,sans-Serif" font-size="10.00">includes/platformer</text>
<text text-anchor="middle" x="702.98" y="-543.5" font-family="Helvetica,sans-Serif" font-size="10.00">&#45;engine/Physics/Collision.hpp</text>
</a>
</g>
</g>
<!-- Node1&#45;&gt;Node2 -->
<g id="edge1" class="edge">
<title>Node1&#45;&gt;Node2</title>
<path fill="none" stroke="midnightblue" d="M921.05,-674.71C883.84,-667.13 836.43,-654.39 797.98,-634 764.58,-616.28 732.7,-585 715.7,-566.77"/>
<polygon fill="midnightblue" stroke="midnightblue" points="920.76,-678.22 931.25,-676.71 922.11,-671.35 920.76,-678.22"/>
</g>
<!-- Node4 -->
<g id="node4" class="node">
<title>Node4</title>
<g id="a_node4"><a xlink:href="PhysicsSystem_8hpp.html" target="_top" xlink:title=" ">
<polygon fill="none" stroke="black" points="610.98,-469.5 610.98,-499.5 784.98,-499.5 784.98,-469.5 610.98,-469.5"/>
<text text-anchor="start" x="618.98" y="-487.5" font-family="Helvetica,sans-Serif" font-size="10.00">includes/platformer</text>
<text text-anchor="middle" x="697.98" y="-476.5" font-family="Helvetica,sans-Serif" font-size="10.00">&#45;engine/Physics/PhysicsSystem.hpp</text>
</a>
</g>
</g>
<!-- Node1&#45;&gt;Node4 -->
<g id="edge10" class="edge">
<title>Node1&#45;&gt;Node4</title>
<path fill="none" stroke="midnightblue" d="M957.34,-664.13C919.87,-634.68 847.58,-579 782.98,-536 763.41,-522.97 740.44,-509.42 723.32,-499.64"/>
<polygon fill="midnightblue" stroke="midnightblue" points="955.21,-666.91 965.23,-670.35 959.54,-661.41 955.21,-666.91"/>
</g>
<!-- Node10 -->
<g id="node10" class="node">
<title>Node10</title>
<g id="a_node10"><a xlink:href="AnimatedSprite_8hpp.html" target="_top" xlink:title=" ">
<polygon fill="none" stroke="black" points="2028.48,-268.5 2028.48,-298.5 2199.48,-298.5 2199.48,-268.5 2028.48,-268.5"/>
<text text-anchor="start" x="2036.48" y="-286.5" font-family="Helvetica,sans-Serif" font-size="10.00">includes/platformer</text>
<text text-anchor="middle" x="2113.98" y="-275.5" font-family="Helvetica,sans-Serif" font-size="10.00">&#45;engine/Texture/AnimatedSprite.hpp</text>
</a>
</g>
</g>
<!-- Node1&#45;&gt;Node10 -->
<g id="edge11" class="edge">
<title>Node1&#45;&gt;Node10</title>
<path fill="none" stroke="midnightblue" d="M1044.65,-683.84C1280.73,-680.52 2113.98,-661.1 2113.98,-552.5 2113.98,-552.5 2113.98,-552.5 2113.98,-416.5 2113.98,-373.65 2113.98,-322.97 2113.98,-298.76"/>
<polygon fill="midnightblue" stroke="midnightblue" points="1044.47,-680.34 1034.52,-683.98 1044.57,-687.34 1044.47,-680.34"/>
</g>
<!-- Node15 -->
<g id="node15" class="node">
<title>Node15</title>
<g id="a_node15"><a xlink:href="Animator_8hpp.html" target="_top" xlink:title=" ">
<polygon fill="none" stroke="black" points="1539.48,-201.5 1539.48,-231.5 1642.48,-231.5 1642.48,-201.5 1539.48,-201.5"/>
<text text-anchor="start" x="1547.48" y="-219.5" font-family="Helvetica,sans-Serif" font-size="10.00">includes/spic&#45;prj&#45;api</text>
<text text-anchor="middle" x="1590.98" y="-208.5" font-family="Helvetica,sans-Serif" font-size="10.00">/Animator.hpp</text>
</a>
</g>
</g>
<!-- Node1&#45;&gt;Node15 -->
<g id="edge24" class="edge">
<title>Node1&#45;&gt;Node15</title>
<path fill="none" stroke="midnightblue" d="M1044.93,-682.41C1178.25,-677.39 1483.32,-662.86 1519.98,-634 1584.97,-582.84 1590.56,-298.64 1590.97,-231.65"/>
<polygon fill="midnightblue" stroke="midnightblue" points="1044.73,-678.92 1034.87,-682.79 1044.99,-685.91 1044.73,-678.92"/>
</g>
<!-- Node19 -->
<g id="node19" class="node">
<title>Node19</title>
<g id="a_node19"><a xlink:href="Debug_8hpp.html" target="_top" xlink:title=" ">
<polygon fill="none" stroke="black" points="387.48,-402.5 387.48,-432.5 490.48,-432.5 490.48,-402.5 387.48,-402.5"/>
<text text-anchor="start" x="395.48" y="-420.5" font-family="Helvetica,sans-Serif" font-size="10.00">includes/spic&#45;prj&#45;api</text>
<text text-anchor="middle" x="438.98" y="-409.5" font-family="Helvetica,sans-Serif" font-size="10.00">/Debug.hpp</text>
</a>
</g>
</g>
<!-- Node1&#45;&gt;Node19 -->
<g id="edge25" class="edge">
<title>Node1&#45;&gt;Node19</title>
<path fill="none" stroke="midnightblue" d="M921.17,-674.67C874.09,-666.31 808.05,-652.67 751.98,-634 615.74,-588.63 548.96,-611.11 457.98,-500 442.06,-480.55 438.98,-450.17 438.66,-432.51"/>
<polygon fill="midnightblue" stroke="midnightblue" points="920.76,-678.15 931.22,-676.43 921.97,-671.26 920.76,-678.15"/>
</g>
<!-- Node27 -->
<g id="node27" class="node">
<title>Node27</title>
<g id="a_node27"><a xlink:href="Input_8hpp.html" target="_top" xlink:title=" ">
<polygon fill="none" stroke="black" points="803.48,-469.5 803.48,-499.5 906.48,-499.5 906.48,-469.5 803.48,-469.5"/>
<text text-anchor="start" x="811.48" y="-487.5" font-family="Helvetica,sans-Serif" font-size="10.00">includes/spic&#45;prj&#45;api</text>
<text text-anchor="middle" x="854.98" y="-476.5" font-family="Helvetica,sans-Serif" font-size="10.00">/Input.hpp</text>
</a>
</g>
</g>
<!-- Node1&#45;&gt;Node27 -->
<g id="edge34" class="edge">
<title>Node1&#45;&gt;Node27</title>
<path fill="none" stroke="midnightblue" d="M967.6,-661.94C961.72,-653.25 954.99,-643.2 948.98,-634 916.95,-584.95 880.09,-525.94 863.67,-499.51"/>
<polygon fill="midnightblue" stroke="midnightblue" points="964.84,-664.11 973.35,-670.42 970.63,-660.18 964.84,-664.11"/>
</g>
<!-- Node31 -->
<g id="node31" class="node">
<title>Node31</title>
<g id="a_node31"><a xlink:href="RigidBody_8hpp.html" target="_top" xlink:title=" ">
<polygon fill="none" stroke="black" points="957.48,-603.5 957.48,-633.5 1060.48,-633.5 1060.48,-603.5 957.48,-603.5"/>
<text text-anchor="start" x="965.48" y="-621.5" font-family="Helvetica,sans-Serif" font-size="10.00">includes/spic&#45;prj&#45;api</text>
<text text-anchor="middle" x="1008.98" y="-610.5" font-family="Helvetica,sans-Serif" font-size="10.00">/RigidBody.hpp</text>
</a>
</g>
</g>
<!-- Node1&#45;&gt;Node31 -->
<g id="edge45" class="edge">
<title>Node1&#45;&gt;Node31</title>
<path fill="none" stroke="midnightblue" d="M992.39,-660.99C996.06,-651.8 1000.15,-641.58 1003.35,-633.58"/>
<polygon fill="midnightblue" stroke="midnightblue" points="989.09,-659.81 988.62,-670.4 995.59,-662.41 989.09,-659.81"/>
</g>
<!-- Node32 -->
<g id="node32" class="node">
<title>Node32</title>
<g id="a_node32"><a xlink:href="Transform_8hpp.html" target="_top" xlink:title=" ">
<polygon fill="none" stroke="black" points="1407.48,-603.5 1407.48,-633.5 1510.48,-633.5 1510.48,-603.5 1407.48,-603.5"/>
<text text-anchor="start" x="1415.48" y="-621.5" font-family="Helvetica,sans-Serif" font-size="10.00">includes/spic&#45;prj&#45;api</text>
<text text-anchor="middle" x="1458.98" y="-610.5" font-family="Helvetica,sans-Serif" font-size="10.00">/Transform.hpp</text>
</a>
</g>
</g>
<!-- Node1&#45;&gt;Node32 -->
<g id="edge47" class="edge">
<title>Node1&#45;&gt;Node32</title>
<path fill="none" stroke="midnightblue" d="M1044.84,-676.05C1139.58,-663.12 1318.9,-638.63 1407.2,-626.57"/>
<polygon fill="midnightblue" stroke="midnightblue" points="1044.26,-672.6 1034.83,-677.42 1045.21,-679.53 1044.26,-672.6"/>
</g>
<!-- Node3 -->
<g id="node3" class="node">
<title>Node3</title>
<g id="a_node3"><a xlink:href="Collision_8cpp.html" target="_top" xlink:title=" ">
<polygon fill="none" stroke="black" points="467.48,-475 467.48,-494 592.48,-494 592.48,-475 467.48,-475"/>
<text text-anchor="middle" x="529.98" y="-482" font-family="Helvetica,sans-Serif" font-size="10.00">src/Physics/Collision.cpp</text>
</a>
</g>
</g>
<!-- Node2&#45;&gt;Node3 -->
<g id="edge2" class="edge">
<title>Node2&#45;&gt;Node3</title>
<path fill="none" stroke="midnightblue" d="M655.83,-532.78C622.29,-520.18 578.71,-503.81 552.63,-494.01"/>
<polygon fill="midnightblue" stroke="midnightblue" points="654.85,-536.16 665.44,-536.4 657.31,-529.6 654.85,-536.16"/>
</g>
<!-- Node2&#45;&gt;Node4 -->
<g id="edge3" class="edge">
<title>Node2&#45;&gt;Node4</title>
<path fill="none" stroke="midnightblue" d="M701.13,-526.4C700.43,-517.37 699.67,-507.41 699.07,-499.58"/>
<polygon fill="midnightblue" stroke="midnightblue" points="697.64,-526.69 701.9,-536.4 704.62,-526.16 697.64,-526.69"/>
</g>
<!-- Node9 -->
<g id="node9" class="node">
<title>Node9</title>
<g id="a_node9"><a xlink:href="BehaviourScript_8hpp.html" target="_top" xlink:title=" ">
<polygon fill="none" stroke="black" points="924.48,-469.5 924.48,-499.5 1031.48,-499.5 1031.48,-469.5 924.48,-469.5"/>
<text text-anchor="start" x="932.48" y="-487.5" font-family="Helvetica,sans-Serif" font-size="10.00">includes/spic&#45;prj&#45;api</text>
<text text-anchor="middle" x="977.98" y="-476.5" font-family="Helvetica,sans-Serif" font-size="10.00">/BehaviourScript.hpp</text>
</a>
</g>
</g>
<!-- Node2&#45;&gt;Node9 -->
<g id="edge8" class="edge">
<title>Node2&#45;&gt;Node9</title>
<path fill="none" stroke="midnightblue" d="M772.15,-534.15C819.32,-523 880.88,-508.45 924.35,-498.18"/>
<polygon fill="midnightblue" stroke="midnightblue" points="771.24,-530.77 762.32,-536.48 772.85,-537.58 771.24,-530.77"/>
</g>
<!-- Node5 -->
<g id="node5" class="node">
<title>Node5</title>
<g id="a_node5"><a xlink:href="PhysicsSystem_8cpp.html" target="_top" xlink:title=" ">
<polygon fill="none" stroke="black" points="979.98,-408 979.98,-427 1135.98,-427 1135.98,-408 979.98,-408"/>
<text text-anchor="middle" x="1057.98" y="-415" font-family="Helvetica,sans-Serif" font-size="10.00">src/Physics/PhysicsSystem.cpp</text>
</a>
</g>
</g>
<!-- Node4&#45;&gt;Node5 -->
<g id="edge4" class="edge">
<title>Node4&#45;&gt;Node5</title>
<path fill="none" stroke="midnightblue" d="M785.92,-467.62C856.81,-454.82 953.77,-437.32 1010.75,-427.03"/>
<polygon fill="midnightblue" stroke="midnightblue" points="784.87,-464.25 775.65,-469.48 786.12,-471.14 784.87,-464.25"/>
</g>
<!-- Node6 -->
<g id="node6" class="node">
<title>Node6</title>
<g id="a_node6"><a xlink:href="Engine_8hpp.html" target="_top" xlink:title=" ">
<polygon fill="none" stroke="black" points="1096.48,-56.5 1096.48,-86.5 1227.48,-86.5 1227.48,-56.5 1096.48,-56.5"/>
<text text-anchor="start" x="1104.48" y="-74.5" font-family="Helvetica,sans-Serif" font-size="10.00">includes/platformer</text>
<text text-anchor="middle" x="1161.98" y="-63.5" font-family="Helvetica,sans-Serif" font-size="10.00">&#45;engine/Engine/Engine.hpp</text>
</a>
</g>
</g>
<!-- Node4&#45;&gt;Node6 -->
<g id="edge5" class="edge">
<title>Node4&#45;&gt;Node6</title>
<path fill="none" stroke="midnightblue" d="M698.58,-458.99C699.17,-432.49 699.98,-389 699.98,-351.5 699.98,-351.5 699.98,-351.5 699.98,-215.5 699.98,-133.53 968.73,-93.41 1096.28,-78.99"/>
<polygon fill="midnightblue" stroke="midnightblue" points="695.07,-459.16 698.34,-469.24 702.07,-459.32 695.07,-459.16"/>
</g>
<!-- Node7 -->
<g id="node7" class="node">
<title>Node7</title>
<g id="a_node7"><a xlink:href="Engine_8cpp.html" target="_top" xlink:title=" ">
<polygon fill="none" stroke="black" points="1105.48,-0.5 1105.48,-19.5 1218.48,-19.5 1218.48,-0.5 1105.48,-0.5"/>
<text text-anchor="middle" x="1161.98" y="-7.5" font-family="Helvetica,sans-Serif" font-size="10.00">src/Engine/Engine.cpp</text>
</a>
</g>
</g>
<!-- Node6&#45;&gt;Node7 -->
<g id="edge6" class="edge">
<title>Node6&#45;&gt;Node7</title>
<path fill="none" stroke="midnightblue" d="M1161.98,-46.29C1161.98,-36.86 1161.98,-26.65 1161.98,-19.66"/>
<polygon fill="midnightblue" stroke="midnightblue" points="1158.48,-46.4 1161.98,-56.4 1165.48,-46.4 1158.48,-46.4"/>
</g>
<!-- Node8 -->
<g id="node8" class="node">
<title>Node8</title>
<g id="a_node8"><a xlink:href="RenderSystem_8cpp.html" target="_top" xlink:title=" ">
<polygon fill="none" stroke="black" points="1259.98,-0.5 1259.98,-19.5 1409.98,-19.5 1409.98,-0.5 1259.98,-0.5"/>
<text text-anchor="middle" x="1334.98" y="-7.5" font-family="Helvetica,sans-Serif" font-size="10.00">src/Texture/RenderSystem.cpp</text>
</a>
</g>
</g>
<!-- Node6&#45;&gt;Node8 -->
<g id="edge7" class="edge">
<title>Node6&#45;&gt;Node8</title>
<path fill="none" stroke="midnightblue" d="M1212.65,-53.08C1244.69,-42.05 1284.71,-28.29 1310.06,-19.57"/>
<polygon fill="midnightblue" stroke="midnightblue" points="1211.3,-49.84 1202.98,-56.4 1213.58,-56.46 1211.3,-49.84"/>
</g>
<!-- Node9&#45;&gt;Node5 -->
<g id="edge9" class="edge">
<title>Node9&#45;&gt;Node5</title>
<path fill="none" stroke="midnightblue" d="M1003.2,-463.01C1018.06,-450.94 1036.07,-436.3 1047.28,-427.19"/>
<polygon fill="midnightblue" stroke="midnightblue" points="1000.9,-460.37 995.34,-469.4 1005.31,-465.81 1000.9,-460.37"/>
</g>
<!-- Node11 -->
<g id="node11" class="node">
<title>Node11</title>
<g id="a_node11"><a xlink:href="AnimatedSprite_8cpp.html" target="_top" xlink:title=" ">
<polygon fill="none" stroke="black" points="1952.48,-207 1952.48,-226 2105.48,-226 2105.48,-207 1952.48,-207"/>
<text text-anchor="middle" x="2028.98" y="-214" font-family="Helvetica,sans-Serif" font-size="10.00">src/Texture/AnimatedSprite.cpp</text>
</a>
</g>
</g>
<!-- Node10&#45;&gt;Node11 -->
<g id="edge12" class="edge">
<title>Node10&#45;&gt;Node11</title>
<path fill="none" stroke="midnightblue" d="M2087.19,-262.01C2071.41,-249.94 2052.27,-235.3 2040.35,-226.19"/>
<polygon fill="midnightblue" stroke="midnightblue" points="2085.47,-265.1 2095.54,-268.4 2089.72,-259.54 2085.47,-265.1"/>
</g>
<!-- Node12 -->
<g id="node12" class="node">
<title>Node12</title>
<g id="a_node12"><a xlink:href="GameObjectBuilder_8hpp.html" target="_top" xlink:title=" ">
<polygon fill="none" stroke="black" points="1835.48,-123.5 1835.48,-164.5 1974.48,-164.5 1974.48,-123.5 1835.48,-123.5"/>
<text text-anchor="start" x="1843.48" y="-152.5" font-family="Helvetica,sans-Serif" font-size="10.00">includes/platformer</text>
<text text-anchor="start" x="1843.48" y="-141.5" font-family="Helvetica,sans-Serif" font-size="10.00">&#45;engine/Builder/GameObject</text>
<text text-anchor="middle" x="1904.98" y="-130.5" font-family="Helvetica,sans-Serif" font-size="10.00">Builder.hpp</text>
</a>
</g>
</g>
<!-- Node10&#45;&gt;Node12 -->
<g id="edge13" class="edge">
<title>Node10&#45;&gt;Node12</title>
<path fill="none" stroke="midnightblue" d="M2036.39,-266.08C1998.63,-256.8 1958.34,-244.57 1943.98,-232 1923.93,-214.45 1913.68,-184.56 1908.83,-164.8"/>
<polygon fill="midnightblue" stroke="midnightblue" points="2035.89,-269.56 2046.43,-268.49 2037.52,-262.75 2035.89,-269.56"/>
</g>
<!-- Node14 -->
<g id="node14" class="node">
<title>Node14</title>
<g id="a_node14"><a xlink:href="ObjectBuilder_8hpp.html" target="_top" xlink:title=" ">
<polygon fill="none" stroke="black" points="2123.48,-201.5 2123.48,-231.5 2284.48,-231.5 2284.48,-201.5 2123.48,-201.5"/>
<text text-anchor="start" x="2131.48" y="-219.5" font-family="Helvetica,sans-Serif" font-size="10.00">includes/platformer</text>
<text text-anchor="middle" x="2203.98" y="-208.5" font-family="Helvetica,sans-Serif" font-size="10.00">&#45;engine/Builder/ObjectBuilder.hpp</text>
</a>
</g>
</g>
<!-- Node10&#45;&gt;Node14 -->
<g id="edge15" class="edge">
<title>Node10&#45;&gt;Node14</title>
<path fill="none" stroke="midnightblue" d="M2141.74,-262.45C2155.59,-252.45 2172,-240.6 2184.49,-231.58"/>
<polygon fill="midnightblue" stroke="midnightblue" points="2139.57,-259.7 2133.51,-268.4 2143.67,-265.38 2139.57,-259.7"/>
</g>
<!-- Node10&#45;&gt;Node15 -->
<g id="edge17" class="edge">
<title>Node10&#45;&gt;Node15</title>
<path fill="none" stroke="midnightblue" d="M2018.09,-267.91C1876.02,-248.84 1721.44,-231.57 1642.77,-223.04"/>
<polygon fill="midnightblue" stroke="midnightblue" points="2017.92,-271.42 2028.3,-269.28 2018.86,-264.48 2017.92,-271.42"/>
</g>
<!-- Node13 -->
<g id="node13" class="node">
<title>Node13</title>
<g id="a_node13"><a xlink:href="GameObjectBuilder_8cpp.html" target="_top" xlink:title=" ">
<polygon fill="none" stroke="black" points="1820.48,-62 1820.48,-81 1989.48,-81 1989.48,-62 1820.48,-62"/>
<text text-anchor="middle" x="1904.98" y="-69" font-family="Helvetica,sans-Serif" font-size="10.00">src/Builder/GameObjectBuilder.cpp</text>
</a>
</g>
</g>
<!-- Node12&#45;&gt;Node13 -->
<g id="edge14" class="edge">
<title>Node12&#45;&gt;Node13</title>
<path fill="none" stroke="midnightblue" d="M1904.98,-113.1C1904.98,-101.53 1904.98,-89.18 1904.98,-81.17"/>
<polygon fill="midnightblue" stroke="midnightblue" points="1901.48,-113.36 1904.98,-123.36 1908.48,-113.36 1901.48,-113.36"/>
</g>
<!-- Node14&#45;&gt;Node12 -->
<g id="edge16" class="edge">
<title>Node14&#45;&gt;Node12</title>
<path fill="none" stroke="midnightblue" d="M2134.54,-199.13C2086.44,-187.78 2022.65,-172.74 1974.53,-161.4"/>
<polygon fill="midnightblue" stroke="midnightblue" points="2134.02,-202.6 2144.55,-201.49 2135.62,-195.79 2134.02,-202.6"/>
</g>
<!-- Node15&#45;&gt;Node12 -->
<g id="edge20" class="edge">
<title>Node15&#45;&gt;Node12</title>
<path fill="none" stroke="midnightblue" d="M1652.7,-201.64C1705.25,-189.84 1780.72,-172.9 1835.41,-160.62"/>
<polygon fill="midnightblue" stroke="midnightblue" points="1651.82,-198.25 1642.83,-203.86 1653.36,-205.08 1651.82,-198.25"/>
</g>
<!-- Node16 -->
<g id="node16" class="node">
<title>Node16</title>
<g id="a_node16"><a xlink:href="Animator_8cpp.html" target="_top" xlink:title=" ">
<polygon fill="none" stroke="black" points="1535.98,-134.5 1535.98,-153.5 1645.98,-153.5 1645.98,-134.5 1535.98,-134.5"/>
<text text-anchor="middle" x="1590.98" y="-141.5" font-family="Helvetica,sans-Serif" font-size="10.00">src/API/Animator.cpp</text>
</a>
</g>
</g>
<!-- Node15&#45;&gt;Node16 -->
<g id="edge18" class="edge">
<title>Node15&#45;&gt;Node16</title>
<path fill="none" stroke="midnightblue" d="M1590.98,-191.09C1590.98,-178.21 1590.98,-163.2 1590.98,-153.89"/>
<polygon fill="midnightblue" stroke="midnightblue" points="1587.48,-191.23 1590.98,-201.23 1594.48,-191.23 1587.48,-191.23"/>
</g>
<!-- Node17 -->
<g id="node17" class="node">
<title>Node17</title>
<g id="a_node17"><a xlink:href="Scene_8cpp.html" target="_top" xlink:title=" ">
<polygon fill="none" stroke="black" points="1189.98,-134.5 1189.98,-153.5 1299.98,-153.5 1299.98,-134.5 1189.98,-134.5"/>
<text text-anchor="middle" x="1244.98" y="-141.5" font-family="Helvetica,sans-Serif" font-size="10.00">src/Scene/Scene.cpp</text>
</a>
</g>
</g>
<!-- Node15&#45;&gt;Node17 -->
<g id="edge19" class="edge">
<title>Node15&#45;&gt;Node17</title>
<path fill="none" stroke="midnightblue" d="M1529.37,-206.75C1471.92,-198.05 1384.07,-183.38 1308.98,-165 1295.87,-161.79 1281.5,-157.38 1269.7,-153.52"/>
<polygon fill="midnightblue" stroke="midnightblue" points="1528.97,-210.23 1539.38,-208.25 1530.01,-203.31 1528.97,-210.23"/>
</g>
<!-- Node18 -->
<g id="node18" class="node">
<title>Node18</title>
<g id="a_node18"><a xlink:href="RenderSystem_8hpp.html" target="_top" xlink:title=" ">
<polygon fill="none" stroke="black" points="1317.98,-129 1317.98,-159 1485.98,-159 1485.98,-129 1317.98,-129"/>
<text text-anchor="start" x="1325.98" y="-147" font-family="Helvetica,sans-Serif" font-size="10.00">includes/platformer</text>
<text text-anchor="middle" x="1401.98" y="-136" font-family="Helvetica,sans-Serif" font-size="10.00">&#45;engine/Texture/RenderSystem.hpp</text>
</a>
</g>
</g>
<!-- Node15&#45;&gt;Node18 -->
<g id="edge21" class="edge">
<title>Node15&#45;&gt;Node18</title>
<path fill="none" stroke="midnightblue" d="M1543.56,-197.81C1511.44,-185.83 1469.57,-170.21 1439.71,-159.07"/>
<polygon fill="midnightblue" stroke="midnightblue" points="1542.6,-201.19 1553.19,-201.4 1545.04,-194.63 1542.6,-201.19"/>
</g>
<!-- Node18&#45;&gt;Node6 -->
<g id="edge23" class="edge">
<title>Node18&#45;&gt;Node6</title>
<path fill="none" stroke="midnightblue" d="M1344.67,-126.16C1303.57,-114.09 1248.82,-98.01 1210.01,-86.61"/>
<polygon fill="midnightblue" stroke="midnightblue" points="1343.7,-129.53 1354.28,-128.99 1345.67,-122.81 1343.7,-129.53"/>
</g>
<!-- Node18&#45;&gt;Node8 -->
<g id="edge22" class="edge">
<title>Node18&#45;&gt;Node8</title>
<path fill="none" stroke="midnightblue" d="M1390.11,-119.6C1374.95,-89.75 1349.49,-39.58 1339.35,-19.6"/>
<polygon fill="midnightblue" stroke="midnightblue" points="1387.17,-121.54 1394.81,-128.87 1393.41,-118.37 1387.17,-121.54"/>
</g>
<!-- Node19&#45;&gt;Node17 -->
<g id="edge32" class="edge">
<title>Node19&#45;&gt;Node17</title>
<path fill="none" stroke="midnightblue" d="M500.51,-403.71C541.34,-394.63 595.87,-381.35 642.98,-366 677.67,-354.7 684.56,-347.07 718.98,-335 772.33,-316.3 787.42,-317.08 840.98,-299 989.62,-248.82 1164.84,-177.93 1224.16,-153.59"/>
<polygon fill="midnightblue" stroke="midnightblue" points="499.72,-400.3 490.7,-405.87 501.22,-407.13 499.72,-400.3"/>
</g>
<!-- Node20 -->
<g id="node20" class="node">
<title>Node20</title>
<g id="a_node20"><a xlink:href="Input_8cpp.html" target="_top" xlink:title=" ">
<polygon fill="none" stroke="black" points="885.98,-341 885.98,-360 977.98,-360 977.98,-341 885.98,-341"/>
<text text-anchor="middle" x="931.98" y="-348" font-family="Helvetica,sans-Serif" font-size="10.00">src/API/Input.cpp</text>
</a>
</g>
</g>
<!-- Node19&#45;&gt;Node20 -->
<g id="edge26" class="edge">
<title>Node19&#45;&gt;Node20</title>
<path fill="none" stroke="midnightblue" d="M500.61,-412.19C585.76,-405.6 743.98,-391.07 876.98,-366 885.43,-364.41 894.48,-362.22 902.76,-360.03"/>
<polygon fill="midnightblue" stroke="midnightblue" points="500.29,-408.7 490.59,-412.95 500.83,-415.68 500.29,-408.7"/>
</g>
<!-- Node21 -->
<g id="node21" class="node">
<title>Node21</title>
<g id="a_node21"><a xlink:href="Debug_8cpp.html" target="_top" xlink:title=" ">
<polygon fill="none" stroke="black" points="523.98,-341 523.98,-360 633.98,-360 633.98,-341 523.98,-341"/>
<text text-anchor="middle" x="578.98" y="-348" font-family="Helvetica,sans-Serif" font-size="10.00">src/Debug/Debug.cpp</text>
</a>
</g>
</g>
<!-- Node19&#45;&gt;Node21 -->
<g id="edge27" class="edge">
<title>Node19&#45;&gt;Node21</title>
<path fill="none" stroke="midnightblue" d="M478.55,-398.13C505.49,-385.62 539.91,-369.64 560.66,-360.01"/>
<polygon fill="midnightblue" stroke="midnightblue" points="476.96,-395.01 469.36,-402.4 479.91,-401.36 476.96,-395.01"/>
</g>
<!-- Node22 -->
<g id="node22" class="node">
<title>Node22</title>
<g id="a_node22"><a xlink:href="GraphicsFacade_8cpp.html" target="_top" xlink:title=" ">
<polygon fill="none" stroke="black" points="15.98,-341 15.98,-360 173.98,-360 173.98,-341 15.98,-341"/>
<text text-anchor="middle" x="94.98" y="-348" font-family="Helvetica,sans-Serif" font-size="10.00">src/Facade/GraphicsFacade.cpp</text>
</a>
</g>
</g>
<!-- Node19&#45;&gt;Node22 -->
<g id="edge28" class="edge">
<title>Node19&#45;&gt;Node22</title>
<path fill="none" stroke="midnightblue" d="M377.3,-404.84C309.04,-391.95 200.67,-371.47 139.97,-360"/>
<polygon fill="midnightblue" stroke="midnightblue" points="377.01,-408.35 387.48,-406.77 378.31,-401.47 377.01,-408.35"/>
</g>
<!-- Node23 -->
<g id="node23" class="node">
<title>Node23</title>
<g id="a_node23"><a xlink:href="InputFacade_8cpp.html" target="_top" xlink:title=" ">
<polygon fill="none" stroke="black" points="727.98,-341 727.98,-360 867.98,-360 867.98,-341 727.98,-341"/>
<text text-anchor="middle" x="797.98" y="-348" font-family="Helvetica,sans-Serif" font-size="10.00">src/Facade/InputFacade.cpp</text>
</a>
</g>
</g>
<!-- Node19&#45;&gt;Node23 -->
<g id="edge29" class="edge">
<title>Node19&#45;&gt;Node23</title>
<path fill="none" stroke="midnightblue" d="M500.94,-405.28C571.92,-392.43 686.64,-371.66 750.76,-360.05"/>
<polygon fill="midnightblue" stroke="midnightblue" points="500.02,-401.89 490.8,-407.12 501.27,-408.78 500.02,-401.89"/>
</g>
<!-- Node24 -->
<g id="node24" class="node">
<title>Node24</title>
<g id="a_node24"><a xlink:href="TMXParser_8cpp.html" target="_top" xlink:title=" ">
<polygon fill="none" stroke="black" points="191.98,-341 191.98,-360 327.98,-360 327.98,-341 191.98,-341"/>
<text text-anchor="middle" x="259.98" y="-348" font-family="Helvetica,sans-Serif" font-size="10.00">src/Facade/TMXParser.cpp</text>
</a>
</g>
</g>
<!-- Node19&#45;&gt;Node24 -->
<g id="edge30" class="edge">
<title>Node19&#45;&gt;Node24</title>
<path fill="none" stroke="midnightblue" d="M390.64,-398.95C355.88,-386.32 310.52,-369.85 283.41,-360.01"/>
<polygon fill="midnightblue" stroke="midnightblue" points="389.55,-402.27 400.14,-402.4 391.94,-395.69 389.55,-402.27"/>
</g>
<!-- Node25 -->
<g id="node25" class="node">
<title>Node25</title>
<g id="a_node25"><a xlink:href="LevelParser_8cpp.html" target="_top" xlink:title=" ">
<polygon fill="none" stroke="black" points="346.48,-341 346.48,-360 505.48,-360 505.48,-341 346.48,-341"/>
<text text-anchor="middle" x="425.98" y="-348" font-family="Helvetica,sans-Serif" font-size="10.00">src/LevelParser/LevelParser.cpp</text>
</a>
</g>
</g>
<!-- Node19&#45;&gt;Node25 -->
<g id="edge31" class="edge">
<title>Node19&#45;&gt;Node25</title>
<path fill="none" stroke="midnightblue" d="M434.13,-392.25C431.89,-381.02 429.36,-368.38 427.72,-360.19"/>
<polygon fill="midnightblue" stroke="midnightblue" points="430.77,-393.28 436.16,-402.4 437.63,-391.9 430.77,-393.28"/>
</g>
<!-- Node26 -->
<g id="node26" class="node">
<title>Node26</title>
<g id="a_node26"><a xlink:href="Timer_8cpp.html" target="_top" xlink:title=" ">
<polygon fill="none" stroke="black" points="727.98,-274 727.98,-293 831.98,-293 831.98,-274 727.98,-274"/>
<text text-anchor="middle" x="779.98" y="-281" font-family="Helvetica,sans-Serif" font-size="10.00">src/Timer/Timer.cpp</text>
</a>
</g>
</g>
<!-- Node19&#45;&gt;Node26 -->
<g id="edge33" class="edge">
<title>Node19&#45;&gt;Node26</title>
<path fill="none" stroke="midnightblue" d="M376.87,-413.73C263.21,-408.02 31.14,-393.15 6.98,-366 -2.18,-355.71 -2.44,-345.05 6.98,-335 56.12,-282.55 562.11,-282.48 727.78,-283.89"/>
<polygon fill="midnightblue" stroke="midnightblue" points="377,-417.24 387.16,-414.24 377.35,-410.25 377,-417.24"/>
</g>
<!-- Node27&#45;&gt;Node20 -->
<g id="edge35" class="edge">
<title>Node27&#45;&gt;Node20</title>
<path fill="none" stroke="midnightblue" d="M900.35,-464.49C913.23,-456.72 925.72,-446.36 932.98,-433 945.9,-409.26 938.98,-375.58 934.64,-360"/>
<polygon fill="midnightblue" stroke="midnightblue" points="898.46,-461.54 891.43,-469.46 901.87,-467.65 898.46,-461.54"/>
</g>
<!-- Node27&#45;&gt;Node23 -->
<g id="edge36" class="edge">
<title>Node27&#45;&gt;Node23</title>
<path fill="none" stroke="midnightblue" d="M794.55,-465.11C779.73,-457.59 765.65,-447.21 756.98,-433 741.4,-407.44 771.17,-375.2 787.83,-360.07"/>
<polygon fill="midnightblue" stroke="midnightblue" points="793.29,-468.38 803.84,-469.43 796.25,-462.04 793.29,-468.38"/>
</g>
<!-- Node28 -->
<g id="node28" class="node">
<title>Node28</title>
<g id="a_node28"><a xlink:href="InputFacade_8hpp.html" target="_top" xlink:title=" ">
<polygon fill="none" stroke="black" points="765.98,-402.5 765.98,-432.5 923.98,-432.5 923.98,-402.5 765.98,-402.5"/>
<text text-anchor="start" x="773.98" y="-420.5" font-family="Helvetica,sans-Serif" font-size="10.00">includes/platformer</text>
<text text-anchor="middle" x="844.98" y="-409.5" font-family="Helvetica,sans-Serif" font-size="10.00">&#45;engine/Facade/InputFacade.hpp</text>
</a>
</g>
</g>
<!-- Node27&#45;&gt;Node28 -->
<g id="edge37" class="edge">
<title>Node27&#45;&gt;Node28</title>
<path fill="none" stroke="midnightblue" d="M851.28,-459.4C849.89,-450.37 848.35,-440.41 847.15,-432.58"/>
<polygon fill="midnightblue" stroke="midnightblue" points="847.83,-460.04 852.81,-469.4 854.75,-458.98 847.83,-460.04"/>
</g>
<!-- Node28&#45;&gt;Node20 -->
<g id="edge38" class="edge">
<title>Node28&#45;&gt;Node20</title>
<path fill="none" stroke="midnightblue" d="M871.96,-396.34C888.2,-384.21 908.04,-369.39 920.35,-360.19"/>
<polygon fill="midnightblue" stroke="midnightblue" points="869.78,-393.61 863.86,-402.4 873.97,-399.21 869.78,-393.61"/>
</g>
<!-- Node28&#45;&gt;Node23 -->
<g id="edge39" class="edge">
<title>Node28&#45;&gt;Node23</title>
<path fill="none" stroke="midnightblue" d="M828.7,-393.97C820.28,-382.33 810.49,-368.8 804.27,-360.19"/>
<polygon fill="midnightblue" stroke="midnightblue" points="826.09,-396.34 834.79,-402.4 831.76,-392.24 826.09,-396.34"/>
</g>
<!-- Node29 -->
<g id="node29" class="node">
<title>Node29</title>
<g id="a_node29"><a xlink:href="Window_8hpp.html" target="_top" xlink:title=" ">
<polygon fill="none" stroke="black" points="996.48,-335.5 996.48,-365.5 1133.48,-365.5 1133.48,-335.5 996.48,-335.5"/>
<text text-anchor="start" x="1004.48" y="-353.5" font-family="Helvetica,sans-Serif" font-size="10.00">includes/platformer</text>
<text text-anchor="middle" x="1064.98" y="-342.5" font-family="Helvetica,sans-Serif" font-size="10.00">&#45;engine/Render/Window.hpp</text>
</a>
</g>
</g>
<!-- Node28&#45;&gt;Node29 -->
<g id="edge40" class="edge">
<title>Node28&#45;&gt;Node29</title>
<path fill="none" stroke="midnightblue" d="M902.25,-399.58C937.98,-389.02 983.44,-375.59 1017.22,-365.61"/>
<polygon fill="midnightblue" stroke="midnightblue" points="901.05,-396.29 892.45,-402.48 903.03,-403 901.05,-396.29"/>
</g>
<!-- Node29&#45;&gt;Node6 -->
<g id="edge43" class="edge">
<title>Node29&#45;&gt;Node6</title>
<path fill="none" stroke="midnightblue" d="M1026.08,-329.86C1014.57,-321.96 1003.35,-311.67 996.98,-299 990.79,-286.69 992.25,-280.94 996.98,-268 1026.72,-186.66 1106.89,-115.8 1143.41,-86.66"/>
<polygon fill="midnightblue" stroke="midnightblue" points="1024.55,-333.03 1034.87,-335.44 1028.3,-327.13 1024.55,-333.03"/>
</g>
<!-- Node29&#45;&gt;Node10 -->
<g id="edge44" class="edge">
<title>Node29&#45;&gt;Node10</title>
<path fill="none" stroke="midnightblue" d="M1143.59,-344.55C1190.45,-341.65 1251.11,-337.99 1304.98,-335 1622.23,-317.42 1702.86,-331.01 2018.98,-299 2022.05,-298.69 2025.18,-298.35 2028.33,-297.98"/>
<polygon fill="midnightblue" stroke="midnightblue" points="1143.27,-341.07 1133.51,-345.18 1143.71,-348.05 1143.27,-341.07"/>
</g>
<!-- Node29&#45;&gt;Node26 -->
<g id="edge42" class="edge">
<title>Node29&#45;&gt;Node26</title>
<path fill="none" stroke="midnightblue" d="M993.64,-333.23C937.68,-320.47 862.03,-303.21 817.38,-293.03"/>
<polygon fill="midnightblue" stroke="midnightblue" points="992.97,-336.66 1003.49,-335.48 994.52,-329.84 992.97,-336.66"/>
</g>
<!-- Node30 -->
<g id="node30" class="node">
<title>Node30</title>
<g id="a_node30"><a xlink:href="Window_8cpp.html" target="_top" xlink:title=" ">
<polygon fill="none" stroke="black" points="1005.48,-274 1005.48,-293 1124.48,-293 1124.48,-274 1005.48,-274"/>
<text text-anchor="middle" x="1064.98" y="-281" font-family="Helvetica,sans-Serif" font-size="10.00">src/Render/Window.cpp</text>
</a>
</g>
</g>
<!-- Node29&#45;&gt;Node30 -->
<g id="edge41" class="edge">
<title>Node29&#45;&gt;Node30</title>
<path fill="none" stroke="midnightblue" d="M1064.98,-325.25C1064.98,-314.02 1064.98,-301.38 1064.98,-293.19"/>
<polygon fill="midnightblue" stroke="midnightblue" points="1061.48,-325.4 1064.98,-335.4 1068.48,-325.4 1061.48,-325.4"/>
</g>
<!-- Node31&#45;&gt;Node5 -->
<g id="edge46" class="edge">
<title>Node31&#45;&gt;Node5</title>
<path fill="none" stroke="midnightblue" d="M1015.94,-593.62C1022.73,-569.95 1033.15,-532.62 1040.98,-500 1047.33,-473.58 1053.52,-442.01 1056.37,-427.1"/>
<polygon fill="midnightblue" stroke="midnightblue" points="1012.51,-592.88 1013.1,-603.46 1019.24,-594.83 1012.51,-592.88"/>
</g>
<!-- Node32&#45;&gt;Node5 -->
<g id="edge48" class="edge">
<title>Node32&#45;&gt;Node5</title>
<path fill="none" stroke="midnightblue" d="M1397.18,-606.07C1326.82,-590.81 1210.78,-558.63 1126.98,-500 1097.82,-479.59 1073.59,-443.95 1063.3,-427.41"/>
<polygon fill="midnightblue" stroke="midnightblue" points="1396.72,-609.55 1407.23,-608.2 1398.17,-602.7 1396.72,-609.55"/>
</g>
<!-- Node32&#45;&gt;Node10 -->
<g id="edge49" class="edge">
<title>Node32&#45;&gt;Node10</title>
<path fill="none" stroke="midnightblue" d="M1520.92,-617.27C1677.35,-615.01 2075.98,-598.2 2075.98,-485.5 2075.98,-485.5 2075.98,-485.5 2075.98,-416.5 2075.98,-372.14 2096.04,-322.56 2107.01,-298.76"/>
<polygon fill="midnightblue" stroke="midnightblue" points="1520.48,-613.77 1510.53,-617.4 1520.57,-620.77 1520.48,-613.77"/>
</g>
<!-- Node32&#45;&gt;Node15 -->
<g id="edge50" class="edge">
<title>Node32&#45;&gt;Node15</title>
<path fill="none" stroke="midnightblue" d="M1486.3,-596.8C1514.06,-573.21 1552.98,-531.85 1552.98,-485.5 1552.98,-485.5 1552.98,-485.5 1552.98,-349.5 1552.98,-305.14 1573.04,-255.56 1584.01,-231.76"/>
<polygon fill="midnightblue" stroke="midnightblue" points="1483.96,-594.2 1478.46,-603.26 1488.41,-599.61 1483.96,-594.2"/>
</g>
<!-- Node33 -->
<g id="node33" class="node">
<title>Node33</title>
<g id="a_node33"><a xlink:href="GameObject_8hpp.html" target="_top" xlink:title=" ">
<polygon fill="none" stroke="black" points="1317.48,-536.5 1317.48,-566.5 1420.48,-566.5 1420.48,-536.5 1317.48,-536.5"/>
<text text-anchor="start" x="1325.48" y="-554.5" font-family="Helvetica,sans-Serif" font-size="10.00">includes/spic&#45;prj&#45;api</text>
<text text-anchor="middle" x="1368.98" y="-543.5" font-family="Helvetica,sans-Serif" font-size="10.00">/GameObject.hpp</text>
</a>
</g>
</g>
<!-- Node32&#45;&gt;Node33 -->
<g id="edge51" class="edge">
<title>Node32&#45;&gt;Node33</title>
<path fill="none" stroke="midnightblue" d="M1431.22,-597.45C1417.38,-587.45 1400.97,-575.6 1388.47,-566.58"/>
<polygon fill="midnightblue" stroke="midnightblue" points="1429.3,-600.38 1439.45,-603.4 1433.4,-594.7 1429.3,-600.38"/>
</g>
<!-- Node44 -->
<g id="node44" class="node">
<title>Node44</title>
<g id="a_node44"><a xlink:href="Sprite_8hpp.html" target="_top" xlink:title=" ">
<polygon fill="none" stroke="black" points="1937.48,-335.5 1937.48,-365.5 2040.48,-365.5 2040.48,-335.5 1937.48,-335.5"/>
<text text-anchor="start" x="1945.48" y="-353.5" font-family="Helvetica,sans-Serif" font-size="10.00">includes/spic&#45;prj&#45;api</text>
<text text-anchor="middle" x="1988.98" y="-342.5" font-family="Helvetica,sans-Serif" font-size="10.00">/Sprite.hpp</text>
</a>
</g>
</g>
<!-- Node32&#45;&gt;Node44 -->
<g id="edge72" class="edge">
<title>Node32&#45;&gt;Node44</title>
<path fill="none" stroke="midnightblue" d="M1520.85,-613.89C1652.29,-604.79 1952.4,-575.99 2013.98,-500 2046.25,-460.19 2014.45,-394.29 1997.78,-365.59"/>
<polygon fill="midnightblue" stroke="midnightblue" points="1520.29,-610.42 1510.55,-614.59 1520.76,-617.4 1520.29,-610.42"/>
</g>
<!-- Node33&#45;&gt;Node4 -->
<g id="edge57" class="edge">
<title>Node33&#45;&gt;Node4</title>
<path fill="none" stroke="midnightblue" d="M1307.19,-546.34C1201.72,-538.96 980.32,-522.23 793.98,-500 791.05,-499.65 788.08,-499.28 785.07,-498.9"/>
<polygon fill="midnightblue" stroke="midnightblue" points="1307.11,-549.84 1317.33,-547.05 1307.6,-542.86 1307.11,-549.84"/>
</g>
<!-- Node33&#45;&gt;Node5 -->
<g id="edge53" class="edge">
<title>Node33&#45;&gt;Node5</title>
<path fill="none" stroke="midnightblue" d="M1307.53,-538.36C1271.24,-530.02 1224.94,-517.31 1185.98,-500 1139.52,-479.35 1090.36,-443.52 1068.98,-427.13"/>
<polygon fill="midnightblue" stroke="midnightblue" points="1306.96,-541.82 1317.48,-540.59 1308.49,-534.99 1306.96,-541.82"/>
</g>
<!-- Node33&#45;&gt;Node12 -->
<g id="edge54" class="edge">
<title>Node33&#45;&gt;Node12</title>
<path fill="none" stroke="midnightblue" d="M1431.14,-549.11C1574.34,-544.36 1919.88,-523.56 1980.98,-433 1988.69,-421.58 1987.38,-414.2 1980.98,-402 1967.94,-377.1 1946.1,-388.3 1928.98,-366 1909.73,-340.91 1910.4,-330.16 1904.98,-299 1896.7,-251.32 1900.13,-194.08 1902.85,-164.63"/>
<polygon fill="midnightblue" stroke="midnightblue" points="1430.67,-545.62 1420.78,-549.44 1430.89,-552.62 1430.67,-545.62"/>
</g>
<!-- Node33&#45;&gt;Node18 -->
<g id="edge58" class="edge">
<title>Node33&#45;&gt;Node18</title>
<path fill="none" stroke="midnightblue" d="M1307.08,-543.62C1279.31,-537.09 1249.03,-524.45 1231.98,-500 1224.1,-488.7 1226.8,-481.77 1231.98,-469 1240.38,-448.32 1256.28,-452.58 1266.98,-433 1284.82,-400.36 1285.98,-388.69 1285.98,-351.5 1285.98,-351.5 1285.98,-351.5 1285.98,-282.5 1285.98,-226.13 1343.65,-180.89 1377.67,-159.11"/>
<polygon fill="midnightblue" stroke="midnightblue" points="1306.65,-547.1 1317.16,-545.75 1308.11,-540.26 1306.65,-547.1"/>
</g>
<!-- Node34 -->
<g id="node34" class="node">
<title>Node34</title>
<g id="a_node34"><a xlink:href="GameObject_8cpp.html" target="_top" xlink:title=" ">
<polygon fill="none" stroke="black" points="1240.48,-475 1240.48,-494 1365.48,-494 1365.48,-475 1240.48,-475"/>
<text text-anchor="middle" x="1302.98" y="-482" font-family="Helvetica,sans-Serif" font-size="10.00">src/API/GameObject.cpp</text>
</a>
</g>
</g>
<!-- Node33&#45;&gt;Node34 -->
<g id="edge52" class="edge">
<title>Node33&#45;&gt;Node34</title>
<path fill="none" stroke="midnightblue" d="M1347.49,-529.34C1335.38,-517.4 1320.89,-503.14 1311.81,-494.19"/>
<polygon fill="midnightblue" stroke="midnightblue" points="1345.08,-531.87 1354.66,-536.4 1349.99,-526.89 1345.08,-531.87"/>
</g>
<!-- Node35 -->
<g id="node35" class="node">
<title>Node35</title>
<g id="a_node35"><a xlink:href="SceneBuilder_8hpp.html" target="_top" xlink:title=" ">
<polygon fill="none" stroke="black" points="1313.98,-335.5 1313.98,-365.5 1473.98,-365.5 1473.98,-335.5 1313.98,-335.5"/>
<text text-anchor="start" x="1321.98" y="-353.5" font-family="Helvetica,sans-Serif" font-size="10.00">includes/platformer</text>
<text text-anchor="middle" x="1393.98" y="-342.5" font-family="Helvetica,sans-Serif" font-size="10.00">&#45;engine/Builder/SceneBuilder.hpp</text>
</a>
</g>
</g>
<!-- Node33&#45;&gt;Node35 -->
<g id="edge55" class="edge">
<title>Node33&#45;&gt;Node35</title>
<path fill="none" stroke="midnightblue" d="M1430.38,-541.35C1455.04,-534.33 1481.11,-521.93 1495.98,-500 1520.44,-463.96 1518.95,-439.01 1495.98,-402 1485.25,-384.71 1466.64,-373.16 1448.23,-365.52"/>
<polygon fill="midnightblue" stroke="midnightblue" points="1429.46,-537.98 1420.66,-543.87 1431.22,-544.75 1429.46,-537.98"/>
</g>
<!-- Node37 -->
<g id="node37" class="node">
<title>Node37</title>
<g id="a_node37"><a xlink:href="Camera_8hpp.html" target="_top" xlink:title=" ">
<polygon fill="none" stroke="black" points="1383.48,-469.5 1383.48,-499.5 1486.48,-499.5 1486.48,-469.5 1383.48,-469.5"/>
<text text-anchor="start" x="1391.48" y="-487.5" font-family="Helvetica,sans-Serif" font-size="10.00">includes/spic&#45;prj&#45;api</text>
<text text-anchor="middle" x="1434.98" y="-476.5" font-family="Helvetica,sans-Serif" font-size="10.00">/Camera.hpp</text>
</a>
</g>
</g>
<!-- Node33&#45;&gt;Node37 -->
<g id="edge59" class="edge">
<title>Node33&#45;&gt;Node37</title>
<path fill="none" stroke="midnightblue" d="M1390.5,-529.31C1400.4,-519.56 1411.87,-508.26 1420.69,-499.58"/>
<polygon fill="midnightblue" stroke="midnightblue" points="1387.97,-526.89 1383.3,-536.4 1392.89,-531.87 1387.97,-526.89"/>
</g>
<!-- Node39 -->
<g id="node39" class="node">
<title>Node39</title>
<g id="a_node39"><a xlink:href="Scene_8hpp.html" target="_top" xlink:title=" ">
<polygon fill="none" stroke="black" points="1154.48,-402.5 1154.48,-432.5 1257.48,-432.5 1257.48,-402.5 1154.48,-402.5"/>
<text text-anchor="start" x="1162.48" y="-420.5" font-family="Helvetica,sans-Serif" font-size="10.00">includes/spic&#45;prj&#45;api</text>
<text text-anchor="middle" x="1205.98" y="-409.5" font-family="Helvetica,sans-Serif" font-size="10.00">/Scene.hpp</text>
</a>
</g>
</g>
<!-- Node33&#45;&gt;Node39 -->
<g id="edge67" class="edge">
<title>Node33&#45;&gt;Node39</title>
<path fill="none" stroke="midnightblue" d="M1307.33,-540.26C1263.95,-531.65 1211.35,-517.89 1197.98,-500 1183.34,-480.41 1191.99,-450.36 1199.24,-432.74"/>
<polygon fill="midnightblue" stroke="midnightblue" points="1306.79,-543.72 1317.27,-542.18 1308.12,-536.85 1306.79,-543.72"/>
</g>
<!-- Node40 -->
<g id="node40" class="node">
<title>Node40</title>
<g id="a_node40"><a xlink:href="UIObject_8hpp.html" target="_top" xlink:title=" ">
<polygon fill="none" stroke="black" points="1702.48,-469.5 1702.48,-499.5 1805.48,-499.5 1805.48,-469.5 1702.48,-469.5"/>
<text text-anchor="start" x="1710.48" y="-487.5" font-family="Helvetica,sans-Serif" font-size="10.00">includes/spic&#45;prj&#45;api</text>
<text text-anchor="middle" x="1753.98" y="-476.5" font-family="Helvetica,sans-Serif" font-size="10.00">/UIObject.hpp</text>
</a>
</g>
</g>
<!-- Node33&#45;&gt;Node40 -->
<g id="edge68" class="edge">
<title>Node33&#45;&gt;Node40</title>
<path fill="none" stroke="midnightblue" d="M1430.79,-540.06C1506.14,-527.34 1632.1,-506.08 1702.46,-494.2"/>
<polygon fill="midnightblue" stroke="midnightblue" points="1429.78,-536.69 1420.51,-541.8 1430.95,-543.59 1429.78,-536.69"/>
</g>
<!-- Node36 -->
<g id="node36" class="node">
<title>Node36</title>
<g id="a_node36"><a xlink:href="SceneBuilder_8cpp.html" target="_top" xlink:title=" ">
<polygon fill="none" stroke="black" points="1322.98,-274 1322.98,-293 1464.98,-293 1464.98,-274 1322.98,-274"/>
<text text-anchor="middle" x="1393.98" y="-281" font-family="Helvetica,sans-Serif" font-size="10.00">src/Builder/SceneBuilder.cpp</text>
</a>
</g>
</g>
<!-- Node35&#45;&gt;Node36 -->
<g id="edge56" class="edge">
<title>Node35&#45;&gt;Node36</title>
<path fill="none" stroke="midnightblue" d="M1393.98,-325.25C1393.98,-314.02 1393.98,-301.38 1393.98,-293.19"/>
<polygon fill="midnightblue" stroke="midnightblue" points="1390.48,-325.4 1393.98,-335.4 1397.48,-325.4 1390.48,-325.4"/>
</g>
<!-- Node37&#45;&gt;Node35 -->
<g id="edge61" class="edge">
<title>Node37&#45;&gt;Node35</title>
<path fill="none" stroke="midnightblue" d="M1400.46,-463.43C1389.97,-455.42 1379.71,-445.17 1373.98,-433 1363.5,-410.72 1375.58,-382.34 1384.99,-365.62"/>
<polygon fill="midnightblue" stroke="midnightblue" points="1398.66,-466.44 1408.84,-469.37 1402.71,-460.73 1398.66,-466.44"/>
</g>
<!-- Node38 -->
<g id="node38" class="node">
<title>Node38</title>
<g id="a_node38"><a xlink:href="Camera_8cpp.html" target="_top" xlink:title=" ">
<polygon fill="none" stroke="black" points="1382.98,-408 1382.98,-427 1486.98,-427 1486.98,-408 1382.98,-408"/>
<text text-anchor="middle" x="1434.98" y="-415" font-family="Helvetica,sans-Serif" font-size="10.00">src/API/Camera.cpp</text>
</a>
</g>
</g>
<!-- Node37&#45;&gt;Node38 -->
<g id="edge60" class="edge">
<title>Node37&#45;&gt;Node38</title>
<path fill="none" stroke="midnightblue" d="M1434.98,-459.25C1434.98,-448.02 1434.98,-435.38 1434.98,-427.19"/>
<polygon fill="midnightblue" stroke="midnightblue" points="1431.48,-459.4 1434.98,-469.4 1438.48,-459.4 1431.48,-459.4"/>
</g>
<!-- Node37&#45;&gt;Node39 -->
<g id="edge62" class="edge">
<title>Node37&#45;&gt;Node39</title>
<path fill="none" stroke="midnightblue" d="M1375.85,-466.71C1338.58,-456.14 1291.01,-442.63 1255.7,-432.61"/>
<polygon fill="midnightblue" stroke="midnightblue" points="1375,-470.11 1385.58,-469.48 1376.91,-463.38 1375,-470.11"/>
</g>
<!-- Node39&#45;&gt;Node6 -->
<g id="edge65" class="edge">
<title>Node39&#45;&gt;Node6</title>
<path fill="none" stroke="midnightblue" d="M1193.24,-393.4C1180.25,-367.64 1161.98,-324.34 1161.98,-284.5 1161.98,-284.5 1161.98,-284.5 1161.98,-215.5 1161.98,-168.33 1161.98,-112.41 1161.98,-86.71"/>
<polygon fill="midnightblue" stroke="midnightblue" points="1190.19,-395.12 1197.91,-402.37 1196.4,-391.88 1190.19,-395.12"/>
</g>
<!-- Node39&#45;&gt;Node17 -->
<g id="edge63" class="edge">
<title>Node39&#45;&gt;Node17</title>
<path fill="none" stroke="midnightblue" d="M1209.47,-392.21C1217.8,-334.26 1238.52,-190.01 1243.76,-153.5"/>
<polygon fill="midnightblue" stroke="midnightblue" points="1205.98,-391.89 1208.03,-402.29 1212.91,-392.88 1205.98,-391.89"/>
</g>
<!-- Node39&#45;&gt;Node29 -->
<g id="edge66" class="edge">
<title>Node39&#45;&gt;Node29</title>
<path fill="none" stroke="midnightblue" d="M1166.14,-398.13C1143.73,-387.8 1116.2,-375.11 1095.52,-365.58"/>
<polygon fill="midnightblue" stroke="midnightblue" points="1164.84,-401.39 1175.39,-402.4 1167.77,-395.03 1164.84,-401.39"/>
</g>
<!-- Node39&#45;&gt;Node35 -->
<g id="edge64" class="edge">
<title>Node39&#45;&gt;Node35</title>
<path fill="none" stroke="midnightblue" d="M1256.33,-399.09C1286.68,-388.6 1324.83,-375.41 1353.27,-365.58"/>
<polygon fill="midnightblue" stroke="midnightblue" points="1255.08,-395.82 1246.78,-402.4 1257.37,-402.44 1255.08,-395.82"/>
</g>
<!-- Node41 -->
<g id="node41" class="node">
<title>Node41</title>
<g id="a_node41"><a xlink:href="UIObject_8cpp.html" target="_top" xlink:title=" ">
<polygon fill="none" stroke="black" points="1618.98,-408 1618.98,-427 1728.98,-427 1728.98,-408 1618.98,-408"/>
<text text-anchor="middle" x="1673.98" y="-415" font-family="Helvetica,sans-Serif" font-size="10.00">src/API/UIObject.cpp</text>
</a>
</g>
</g>
<!-- Node40&#45;&gt;Node41 -->
<g id="edge69" class="edge">
<title>Node40&#45;&gt;Node41</title>
<path fill="none" stroke="midnightblue" d="M1728.76,-463.01C1713.91,-450.94 1695.9,-436.3 1684.68,-427.19"/>
<polygon fill="midnightblue" stroke="midnightblue" points="1726.66,-465.81 1736.62,-469.4 1731.07,-460.37 1726.66,-465.81"/>
</g>
<!-- Node42 -->
<g id="node42" class="node">
<title>Node42</title>
<g id="a_node42"><a xlink:href="Button_8hpp.html" target="_top" xlink:title=" ">
<polygon fill="none" stroke="black" points="1747.48,-402.5 1747.48,-432.5 1850.48,-432.5 1850.48,-402.5 1747.48,-402.5"/>
<text text-anchor="start" x="1755.48" y="-420.5" font-family="Helvetica,sans-Serif" font-size="10.00">includes/spic&#45;prj&#45;api</text>
<text text-anchor="middle" x="1798.98" y="-409.5" font-family="Helvetica,sans-Serif" font-size="10.00">/Button.hpp</text>
</a>
</g>
</g>
<!-- Node40&#45;&gt;Node42 -->
<g id="edge70" class="edge">
<title>Node40&#45;&gt;Node42</title>
<path fill="none" stroke="midnightblue" d="M1769.45,-461.16C1776.01,-451.68 1783.46,-440.92 1789.24,-432.58"/>
<polygon fill="midnightblue" stroke="midnightblue" points="1766.56,-459.18 1763.75,-469.4 1772.32,-463.17 1766.56,-459.18"/>
</g>
<!-- Node43 -->
<g id="node43" class="node">
<title>Node43</title>
<g id="a_node43"><a xlink:href="Text_8hpp.html" target="_top" xlink:title=" ">
<polygon fill="none" stroke="black" points="1868.48,-402.5 1868.48,-432.5 1971.48,-432.5 1971.48,-402.5 1868.48,-402.5"/>
<text text-anchor="start" x="1876.48" y="-420.5" font-family="Helvetica,sans-Serif" font-size="10.00">includes/spic&#45;prj&#45;api</text>
<text text-anchor="middle" x="1919.98" y="-409.5" font-family="Helvetica,sans-Serif" font-size="10.00">/Text.hpp</text>
</a>
</g>
</g>
<!-- Node40&#45;&gt;Node43 -->
<g id="edge71" class="edge">
<title>Node40&#45;&gt;Node43</title>
<path fill="none" stroke="midnightblue" d="M1799.49,-465.68C1826.11,-455.26 1859.25,-442.28 1884.03,-432.58"/>
<polygon fill="midnightblue" stroke="midnightblue" points="1798.04,-462.49 1790,-469.4 1800.59,-469.01 1798.04,-462.49"/>
</g>
<!-- Node44&#45;&gt;Node10 -->
<g id="edge74" class="edge">
<title>Node44&#45;&gt;Node10</title>
<path fill="none" stroke="midnightblue" d="M2025.11,-330.71C2044.82,-320.46 2068.82,-307.98 2086.91,-298.58"/>
<polygon fill="midnightblue" stroke="midnightblue" points="2023.36,-327.68 2016.11,-335.4 2026.59,-333.89 2023.36,-327.68"/>
</g>
<!-- Node44&#45;&gt;Node15 -->
<g id="edge75" class="edge">
<title>Node44&#45;&gt;Node15</title>
<path fill="none" stroke="midnightblue" d="M1936.95,-332.24C1857.33,-305.83 1706.77,-255.9 1633.37,-231.56"/>
<polygon fill="midnightblue" stroke="midnightblue" points="1936.17,-335.67 1946.77,-335.5 1938.38,-329.03 1936.17,-335.67"/>
</g>
<!-- Node45 -->
<g id="node45" class="node">
<title>Node45</title>
<g id="a_node45"><a xlink:href="Sprite_8cpp.html" target="_top" xlink:title=" ">
<polygon fill="none" stroke="black" points="1913.98,-274 1913.98,-293 2009.98,-293 2009.98,-274 1913.98,-274"/>
<text text-anchor="middle" x="1961.98" y="-281" font-family="Helvetica,sans-Serif" font-size="10.00">src/API/Sprite.cpp</text>
</a>
</g>
</g>
<!-- Node44&#45;&gt;Node45 -->
<g id="edge73" class="edge">
<title>Node44&#45;&gt;Node45</title>
<path fill="none" stroke="midnightblue" d="M1979.2,-325.94C1974.46,-314.54 1969.06,-301.55 1965.59,-293.19"/>
<polygon fill="midnightblue" stroke="midnightblue" points="1976.06,-327.5 1983.12,-335.4 1982.52,-324.82 1976.06,-327.5"/>
</g>
</g>
</svg>
