<?xml version="1.0" encoding="UTF-8" standalone="no"?>
<!DOCTYPE svg PUBLIC "-//W3C//DTD SVG 1.1//EN"
 "http://www.w3.org/Graphics/SVG/1.1/DTD/svg11.dtd">
<!-- Generated by graphviz version 2.44.0 ()
 -->
<!-- Title: src/Networking/boost/portable_binary_iarchive.cpp Pages: 1 -->
<svg width="1463pt" height="251pt"
 viewBox="0.00 0.00 1463.00 251.00" xmlns="http://www.w3.org/2000/svg" xmlns:xlink="http://www.w3.org/1999/xlink">
<g id="graph0" class="graph" transform="scale(1 1) rotate(0) translate(4 247)">
<title>src/Networking/boost/portable_binary_iarchive.cpp</title>
<!-- Node1 -->
<g id="node1" class="node">
<title>Node1</title>
<g id="a_node1"><a xlink:title=" ">
<polygon fill="#bfbfbf" stroke="black" points="946.5,-212.5 946.5,-242.5 1088.5,-242.5 1088.5,-212.5 946.5,-212.5"/>
<text text-anchor="start" x="954.5" y="-230.5" font-family="Helvetica,sans-Serif" font-size="10.00">src/Networking/boost</text>
<text text-anchor="middle" x="1017.5" y="-219.5" font-family="Helvetica,sans-Serif" font-size="10.00">/portable_binary_iarchive.cpp</text>
</a>
</g>
</g>
<!-- Node2 -->
<g id="node2" class="node">
<title>Node2</title>
<g id="a_node2"><a xlink:title=" ">
<polygon fill="none" stroke="#bfbfbf" points="0,-73 0,-92 49,-92 49,-73 0,-73"/>
<text text-anchor="middle" x="24.5" y="-80" font-family="Helvetica,sans-Serif" font-size="10.00">istream</text>
</a>
</g>
</g>
<!-- Node1&#45;&gt;Node2 -->
<g id="edge1" class="edge">
<title>Node1&#45;&gt;Node2</title>
<path fill="none" stroke="midnightblue" d="M946.49,-224.43C784.64,-219.27 392.47,-204.19 263.5,-176 182.85,-158.37 93.56,-117.7 50.52,-96.66"/>
<polygon fill="midnightblue" stroke="midnightblue" points="51.84,-93.41 41.33,-92.11 48.74,-99.68 51.84,-93.41"/>
</g>
<!-- Node3 -->
<g id="node3" class="node">
<title>Node3</title>
<g id="a_node3"><a xlink:title=" ">
<polygon fill="none" stroke="#bfbfbf" points="1022,-145.5 1022,-164.5 1063,-164.5 1063,-145.5 1022,-145.5"/>
<text text-anchor="middle" x="1042.5" y="-152.5" font-family="Helvetica,sans-Serif" font-size="10.00">string</text>
</a>
</g>
</g>
<!-- Node1&#45;&gt;Node3 -->
<g id="edge2" class="edge">
<title>Node1&#45;&gt;Node3</title>
<path fill="none" stroke="midnightblue" d="M1022.56,-212.23C1026.4,-201.39 1031.73,-186.38 1035.91,-174.6"/>
<polygon fill="midnightblue" stroke="midnightblue" points="1039.3,-175.49 1039.35,-164.89 1032.71,-173.15 1039.3,-175.49"/>
</g>
<!-- Node4 -->
<g id="node4" class="node">
<title>Node4</title>
<g id="a_node4"><a xlink:title=" ">
<polygon fill="none" stroke="#bfbfbf" points="932,-0.5 932,-30.5 1027,-30.5 1027,-0.5 932,-0.5"/>
<text text-anchor="start" x="940" y="-18.5" font-family="Helvetica,sans-Serif" font-size="10.00">boost/predef/other</text>
<text text-anchor="middle" x="979.5" y="-7.5" font-family="Helvetica,sans-Serif" font-size="10.00">/endian.h</text>
</a>
</g>
</g>
<!-- Node1&#45;&gt;Node4 -->
<g id="edge3" class="edge">
<title>Node1&#45;&gt;Node4</title>
<path fill="none" stroke="midnightblue" d="M1014.95,-212.4C1008.57,-177.13 991.86,-84.79 983.87,-40.66"/>
<polygon fill="midnightblue" stroke="midnightblue" points="987.27,-39.76 982.04,-30.54 980.38,-41.01 987.27,-39.76"/>
</g>
<!-- Node5 -->
<g id="node5" class="node">
<title>Node5</title>
<g id="a_node5"><a xlink:title=" ">
<polygon fill="none" stroke="#bfbfbf" points="1081.5,-140 1081.5,-170 1189.5,-170 1189.5,-140 1081.5,-140"/>
<text text-anchor="start" x="1089.5" y="-158" font-family="Helvetica,sans-Serif" font-size="10.00">boost/serialization</text>
<text text-anchor="middle" x="1135.5" y="-147" font-family="Helvetica,sans-Serif" font-size="10.00">/throw_exception.hpp</text>
</a>
</g>
</g>
<!-- Node1&#45;&gt;Node5 -->
<g id="edge4" class="edge">
<title>Node1&#45;&gt;Node5</title>
<path fill="none" stroke="midnightblue" d="M1041.1,-212.4C1058.94,-201.74 1083.65,-186.98 1103.31,-175.23"/>
<polygon fill="midnightblue" stroke="midnightblue" points="1105.16,-178.21 1111.95,-170.07 1101.57,-172.2 1105.16,-178.21"/>
</g>
<!-- Node6 -->
<g id="node6" class="node">
<title>Node6</title>
<g id="a_node6"><a xlink:title=" ">
<polygon fill="none" stroke="#bfbfbf" points="67.5,-67.5 67.5,-97.5 177.5,-97.5 177.5,-67.5 67.5,-67.5"/>
<text text-anchor="start" x="75.5" y="-85.5" font-family="Helvetica,sans-Serif" font-size="10.00">boost/archive/archive</text>
<text text-anchor="middle" x="122.5" y="-74.5" font-family="Helvetica,sans-Serif" font-size="10.00">_exception.hpp</text>
</a>
</g>
</g>
<!-- Node1&#45;&gt;Node6 -->
<g id="edge5" class="edge">
<title>Node1&#45;&gt;Node6</title>
<path fill="none" stroke="midnightblue" d="M946.21,-225.26C834.33,-222.24 611.1,-211.83 425.5,-176 332.84,-158.11 228.28,-122.65 169.4,-101.21"/>
<polygon fill="midnightblue" stroke="midnightblue" points="170.24,-97.79 159.64,-97.63 167.83,-104.36 170.24,-97.79"/>
</g>
<!-- Node7 -->
<g id="node7" class="node">
<title>Node7</title>
<g id="a_node7"><a xlink:href="portable__binary__iarchive_8hpp.html" target="_top" xlink:title=" ">
<polygon fill="none" stroke="black" points="435,-140 435,-170 566,-170 566,-140 435,-140"/>
<text text-anchor="start" x="443" y="-158" font-family="Helvetica,sans-Serif" font-size="10.00">Networking/boost/portable</text>
<text text-anchor="middle" x="500.5" y="-147" font-family="Helvetica,sans-Serif" font-size="10.00">_binary_iarchive.hpp</text>
</a>
</g>
</g>
<!-- Node1&#45;&gt;Node7 -->
<g id="edge6" class="edge">
<title>Node1&#45;&gt;Node7</title>
<path fill="none" stroke="midnightblue" d="M946.43,-216.81C849.29,-203.56 675.81,-179.91 576.28,-166.33"/>
<polygon fill="midnightblue" stroke="midnightblue" points="576.67,-162.85 566.29,-164.97 575.72,-169.79 576.67,-162.85"/>
</g>
<!-- Node19 -->
<g id="node19" class="node">
<title>Node19</title>
<g id="a_node19"><a xlink:title=" ">
<polygon fill="none" stroke="#bfbfbf" points="1207.5,-134.5 1207.5,-175.5 1303.5,-175.5 1303.5,-134.5 1207.5,-134.5"/>
<text text-anchor="start" x="1215.5" y="-163.5" font-family="Helvetica,sans-Serif" font-size="10.00">boost/archive/impl</text>
<text text-anchor="start" x="1215.5" y="-152.5" font-family="Helvetica,sans-Serif" font-size="10.00">/archive_serializer</text>
<text text-anchor="middle" x="1255.5" y="-141.5" font-family="Helvetica,sans-Serif" font-size="10.00">_map.ipp</text>
</a>
</g>
</g>
<!-- Node1&#45;&gt;Node19 -->
<g id="edge21" class="edge">
<title>Node1&#45;&gt;Node19</title>
<path fill="none" stroke="midnightblue" d="M1071.23,-212.5C1105.12,-203.44 1149.99,-191.03 1197.78,-176.15"/>
<polygon fill="midnightblue" stroke="midnightblue" points="1198.88,-179.47 1207.37,-173.14 1196.78,-172.79 1198.88,-179.47"/>
</g>
<!-- Node20 -->
<g id="node20" class="node">
<title>Node20</title>
<g id="a_node20"><a xlink:title=" ">
<polygon fill="none" stroke="#bfbfbf" points="1322,-140 1322,-170 1455,-170 1455,-140 1322,-140"/>
<text text-anchor="start" x="1330" y="-158" font-family="Helvetica,sans-Serif" font-size="10.00">boost/archive/impl</text>
<text text-anchor="middle" x="1388.5" y="-147" font-family="Helvetica,sans-Serif" font-size="10.00">/basic_binary_iprimitive.ipp</text>
</a>
</g>
</g>
<!-- Node1&#45;&gt;Node20 -->
<g id="edge22" class="edge">
<title>Node1&#45;&gt;Node20</title>
<path fill="none" stroke="midnightblue" d="M1088.77,-216.1C1148.73,-206.91 1236.58,-192.45 1312.5,-176 1317.46,-174.93 1322.58,-173.74 1327.71,-172.5"/>
<polygon fill="midnightblue" stroke="midnightblue" points="1328.68,-175.87 1337.55,-170.07 1327,-169.07 1328.68,-175.87"/>
</g>
<!-- Node7&#45;&gt;Node2 -->
<g id="edge7" class="edge">
<title>Node7&#45;&gt;Node2</title>
<path fill="none" stroke="midnightblue" d="M434.99,-151.36C347.72,-146.57 189.15,-133.4 58.5,-98 56.2,-97.38 53.85,-96.63 51.52,-95.81"/>
<polygon fill="midnightblue" stroke="midnightblue" points="52.75,-92.53 42.17,-92.13 50.19,-99.05 52.75,-92.53"/>
</g>
<!-- Node7&#45;&gt;Node6 -->
<g id="edge10" class="edge">
<title>Node7&#45;&gt;Node6</title>
<path fill="none" stroke="midnightblue" d="M434.78,-143.19C373.37,-132.88 278.91,-116.5 187.59,-98.17"/>
<polygon fill="midnightblue" stroke="midnightblue" points="188.12,-94.71 177.62,-96.16 186.73,-101.57 188.12,-94.71"/>
</g>
<!-- Node8 -->
<g id="node8" class="node">
<title>Node8</title>
<g id="a_node8"><a xlink:title=" ">
<polygon fill="none" stroke="#bfbfbf" points="453,-67.5 453,-97.5 548,-97.5 548,-67.5 453,-67.5"/>
<text text-anchor="start" x="461" y="-85.5" font-family="Helvetica,sans-Serif" font-size="10.00">boost/serialization</text>
<text text-anchor="middle" x="500.5" y="-74.5" font-family="Helvetica,sans-Serif" font-size="10.00">/string.hpp</text>
</a>
</g>
</g>
<!-- Node7&#45;&gt;Node8 -->
<g id="edge8" class="edge">
<title>Node7&#45;&gt;Node8</title>
<path fill="none" stroke="midnightblue" d="M500.5,-139.73C500.5,-130.66 500.5,-118.66 500.5,-108.08"/>
<polygon fill="midnightblue" stroke="midnightblue" points="504,-107.75 500.5,-97.75 497,-107.75 504,-107.75"/>
</g>
<!-- Node9 -->
<g id="node9" class="node">
<title>Node9</title>
<g id="a_node9"><a xlink:title=" ">
<polygon fill="none" stroke="#bfbfbf" points="721.5,-67.5 721.5,-97.5 837.5,-97.5 837.5,-67.5 721.5,-67.5"/>
<text text-anchor="start" x="729.5" y="-85.5" font-family="Helvetica,sans-Serif" font-size="10.00">boost/serialization</text>
<text text-anchor="middle" x="779.5" y="-74.5" font-family="Helvetica,sans-Serif" font-size="10.00">/item_version_type.hpp</text>
</a>
</g>
</g>
<!-- Node7&#45;&gt;Node9 -->
<g id="edge9" class="edge">
<title>Node7&#45;&gt;Node9</title>
<path fill="none" stroke="midnightblue" d="M555.95,-139.99C601.35,-128.52 665.69,-112.26 713.69,-100.13"/>
<polygon fill="midnightblue" stroke="midnightblue" points="714.84,-103.45 723.67,-97.61 713.12,-96.66 714.84,-103.45"/>
</g>
<!-- Node10 -->
<g id="node10" class="node">
<title>Node10</title>
<g id="a_node10"><a xlink:title=" ">
<polygon fill="none" stroke="#bfbfbf" points="855.5,-67.5 855.5,-97.5 965.5,-97.5 965.5,-67.5 855.5,-67.5"/>
<text text-anchor="start" x="863.5" y="-85.5" font-family="Helvetica,sans-Serif" font-size="10.00">boost/archive/basic</text>
<text text-anchor="middle" x="910.5" y="-74.5" font-family="Helvetica,sans-Serif" font-size="10.00">_binary_iprimitive.hpp</text>
</a>
</g>
</g>
<!-- Node7&#45;&gt;Node10 -->
<g id="edge11" class="edge">
<title>Node7&#45;&gt;Node10</title>
<path fill="none" stroke="midnightblue" d="M566.08,-144.63C633.65,-134.7 742.23,-117.95 845.42,-98.14"/>
<polygon fill="midnightblue" stroke="midnightblue" points="846.23,-101.55 855.39,-96.22 844.91,-94.68 846.23,-101.55"/>
</g>
<!-- Node11 -->
<g id="node11" class="node">
<title>Node11</title>
<g id="a_node11"><a xlink:title=" ">
<polygon fill="none" stroke="#bfbfbf" points="195.5,-67.5 195.5,-97.5 309.5,-97.5 309.5,-67.5 195.5,-67.5"/>
<text text-anchor="start" x="203.5" y="-85.5" font-family="Helvetica,sans-Serif" font-size="10.00">boost/archive/detail</text>
<text text-anchor="middle" x="252.5" y="-74.5" font-family="Helvetica,sans-Serif" font-size="10.00">/common_iarchive.hpp</text>
</a>
</g>
</g>
<!-- Node7&#45;&gt;Node11 -->
<g id="edge12" class="edge">
<title>Node7&#45;&gt;Node11</title>
<path fill="none" stroke="midnightblue" d="M451.21,-139.99C411.11,-128.59 354.38,-112.46 311.8,-100.36"/>
<polygon fill="midnightblue" stroke="midnightblue" points="312.7,-96.97 302.12,-97.61 310.79,-103.71 312.7,-96.97"/>
</g>
<!-- Node12 -->
<g id="node12" class="node">
<title>Node12</title>
<g id="a_node12"><a xlink:title=" ">
<polygon fill="none" stroke="#bfbfbf" points="328,-67.5 328,-97.5 435,-97.5 435,-67.5 328,-67.5"/>
<text text-anchor="start" x="336" y="-85.5" font-family="Helvetica,sans-Serif" font-size="10.00">boost/archive/detail</text>
<text text-anchor="middle" x="381.5" y="-74.5" font-family="Helvetica,sans-Serif" font-size="10.00">/register_archive.hpp</text>
</a>
</g>
</g>
<!-- Node7&#45;&gt;Node12 -->
<g id="edge13" class="edge">
<title>Node7&#45;&gt;Node12</title>
<path fill="none" stroke="midnightblue" d="M476.7,-139.9C458.71,-129.24 433.79,-114.48 413.96,-102.73"/>
<polygon fill="midnightblue" stroke="midnightblue" points="415.64,-99.66 405.25,-97.57 412.07,-105.68 415.64,-99.66"/>
</g>
<!-- Node13 -->
<g id="node13" class="node">
<title>Node13</title>
<g id="a_node13"><a xlink:href="portable__binary__archive_8hpp.html" target="_top" xlink:title=" ">
<polygon fill="none" stroke="black" points="566,-73 566,-92 703,-92 703,-73 566,-73"/>
<text text-anchor="middle" x="634.5" y="-80" font-family="Helvetica,sans-Serif" font-size="10.00">portable_binary_archive.hpp</text>
</a>
</g>
</g>
<!-- Node7&#45;&gt;Node13 -->
<g id="edge14" class="edge">
<title>Node7&#45;&gt;Node13</title>
<path fill="none" stroke="midnightblue" d="M527.29,-139.9C551.19,-127.33 585.92,-109.06 609.31,-96.75"/>
<polygon fill="midnightblue" stroke="midnightblue" points="611.06,-99.79 618.28,-92.03 607.8,-93.59 611.06,-99.79"/>
</g>
<!-- Node13&#45;&gt;Node4 -->
<g id="edge20" class="edge">
<title>Node13&#45;&gt;Node4</title>
<path fill="none" stroke="midnightblue" d="M680.28,-72.98C690.86,-71.01 702.07,-68.93 712.5,-67 799.16,-50.95 820.97,-47.7 907.5,-31 912.18,-30.1 917.04,-29.15 921.91,-28.18"/>
<polygon fill="midnightblue" stroke="midnightblue" points="922.76,-31.58 931.88,-26.2 921.39,-24.72 922.76,-31.58"/>
</g>
<!-- Node14 -->
<g id="node14" class="node">
<title>Node14</title>
<g id="a_node14"><a xlink:title=" ">
<polygon fill="none" stroke="#bfbfbf" points="703,-6 703,-25 790,-25 790,-6 703,-6"/>
<text text-anchor="middle" x="746.5" y="-13" font-family="Helvetica,sans-Serif" font-size="10.00">boost/config.hpp</text>
</a>
</g>
</g>
<!-- Node13&#45;&gt;Node14 -->
<g id="edge15" class="edge">
<title>Node13&#45;&gt;Node14</title>
<path fill="none" stroke="midnightblue" d="M649.6,-72.73C668.41,-61.82 700.75,-43.05 722.86,-30.22"/>
<polygon fill="midnightblue" stroke="midnightblue" points="724.74,-33.17 731.63,-25.13 721.23,-27.12 724.74,-33.17"/>
</g>
<!-- Node15 -->
<g id="node15" class="node">
<title>Node15</title>
<g id="a_node15"><a xlink:title=" ">
<polygon fill="none" stroke="#bfbfbf" points="808,-6 808,-25 899,-25 899,-6 808,-6"/>
<text text-anchor="middle" x="853.5" y="-13" font-family="Helvetica,sans-Serif" font-size="10.00">boost/cstdint.hpp</text>
</a>
</g>
</g>
<!-- Node13&#45;&gt;Node15 -->
<g id="edge16" class="edge">
<title>Node13&#45;&gt;Node15</title>
<path fill="none" stroke="midnightblue" d="M663.58,-72.87C702.55,-61.3 771.8,-40.75 815.04,-27.91"/>
<polygon fill="midnightblue" stroke="midnightblue" points="816.06,-31.26 824.65,-25.06 814.06,-24.55 816.06,-31.26"/>
</g>
<!-- Node16 -->
<g id="node16" class="node">
<title>Node16</title>
<g id="a_node16"><a xlink:title=" ">
<polygon fill="none" stroke="#bfbfbf" points="384.5,-6 384.5,-25 502.5,-25 502.5,-6 384.5,-6"/>
<text text-anchor="middle" x="443.5" y="-13" font-family="Helvetica,sans-Serif" font-size="10.00">boost/static_assert.hpp</text>
</a>
</g>
</g>
<!-- Node13&#45;&gt;Node16 -->
<g id="edge17" class="edge">
<title>Node13&#45;&gt;Node16</title>
<path fill="none" stroke="midnightblue" d="M609.14,-72.87C575.51,-61.42 516.02,-41.18 478.24,-28.32"/>
<polygon fill="midnightblue" stroke="midnightblue" points="479.26,-24.97 468.66,-25.06 477,-31.6 479.26,-24.97"/>
</g>
<!-- Node17 -->
<g id="node17" class="node">
<title>Node17</title>
<g id="a_node17"><a xlink:title=" ">
<polygon fill="none" stroke="#bfbfbf" points="521,-6 521,-25 566,-25 566,-6 521,-6"/>
<text text-anchor="middle" x="543.5" y="-13" font-family="Helvetica,sans-Serif" font-size="10.00">climits</text>
</a>
</g>
</g>
<!-- Node13&#45;&gt;Node17 -->
<g id="edge18" class="edge">
<title>Node13&#45;&gt;Node17</title>
<path fill="none" stroke="midnightblue" d="M622.23,-72.73C607.35,-62.11 582.07,-44.05 564.17,-31.26"/>
<polygon fill="midnightblue" stroke="midnightblue" points="565.75,-28.09 555.58,-25.13 561.68,-33.79 565.75,-28.09"/>
</g>
<!-- Node18 -->
<g id="node18" class="node">
<title>Node18</title>
<g id="a_node18"><a xlink:title=" ">
<polygon fill="none" stroke="#bfbfbf" points="584,-0.5 584,-30.5 685,-30.5 685,-0.5 584,-0.5"/>
<text text-anchor="start" x="592" y="-18.5" font-family="Helvetica,sans-Serif" font-size="10.00">boost/archive/basic</text>
<text text-anchor="middle" x="634.5" y="-7.5" font-family="Helvetica,sans-Serif" font-size="10.00">_archive.hpp</text>
</a>
</g>
</g>
<!-- Node13&#45;&gt;Node18 -->
<g id="edge19" class="edge">
<title>Node13&#45;&gt;Node18</title>
<path fill="none" stroke="midnightblue" d="M634.5,-72.73C634.5,-64.54 634.5,-51.92 634.5,-40.71"/>
<polygon fill="midnightblue" stroke="midnightblue" points="638,-40.59 634.5,-30.59 631,-40.59 638,-40.59"/>
</g>
</g>
</svg>
