<?xml version="1.0" encoding="UTF-8" standalone="no"?>
<!DOCTYPE svg PUBLIC "-//W3C//DTD SVG 1.1//EN"
 "http://www.w3.org/Graphics/SVG/1.1/DTD/svg11.dtd">
<!-- Generated by graphviz version 2.44.0 ()
 -->
<!-- Title: src/Networking/boost/portable_binary_oarchive.cpp Pages: 1 -->
<svg width="862pt" height="251pt"
 viewBox="0.00 0.00 862.17 251.00" xmlns="http://www.w3.org/2000/svg" xmlns:xlink="http://www.w3.org/1999/xlink">
<g id="graph0" class="graph" transform="scale(1 1) rotate(0) translate(4 247)">
<title>src/Networking/boost/portable_binary_oarchive.cpp</title>
<!-- Node1 -->
<g id="node1" class="node">
<title>Node1</title>
<g id="a_node1"><a xlink:title=" ">
<polygon fill="#bfbfbf" stroke="black" points="201.67,-212.5 201.67,-242.5 346.67,-242.5 346.67,-212.5 201.67,-212.5"/>
<text text-anchor="start" x="209.67" y="-230.5" font-family="Helvetica,sans-Serif" font-size="10.00">src/Networking/boost</text>
<text text-anchor="middle" x="274.17" y="-219.5" font-family="Helvetica,sans-Serif" font-size="10.00">/portable_binary_oarchive.cpp</text>
</a>
</g>
</g>
<!-- Node2 -->
<g id="node2" class="node">
<title>Node2</title>
<g id="a_node2"><a xlink:title=" ">
<polygon fill="none" stroke="#bfbfbf" points="14.17,-73 14.17,-92 66.17,-92 66.17,-73 14.17,-73"/>
<text text-anchor="middle" x="40.17" y="-80" font-family="Helvetica,sans-Serif" font-size="10.00">ostream</text>
</a>
</g>
</g>
<!-- Node1&#45;&gt;Node2 -->
<g id="edge1" class="edge">
<title>Node1&#45;&gt;Node2</title>
<path fill="none" stroke="midnightblue" d="M250.88,-212.27C205.87,-184.76 107.49,-124.64 62.92,-97.4"/>
<polygon fill="midnightblue" stroke="midnightblue" points="64.62,-94.34 54.26,-92.11 60.97,-100.31 64.62,-94.34"/>
</g>
<!-- Node3 -->
<g id="node3" class="node">
<title>Node3</title>
<g id="a_node3"><a xlink:title=" ">
<polygon fill="none" stroke="#bfbfbf" points="50.67,-0.5 50.67,-30.5 145.67,-30.5 145.67,-0.5 50.67,-0.5"/>
<text text-anchor="start" x="58.67" y="-18.5" font-family="Helvetica,sans-Serif" font-size="10.00">boost/predef/other</text>
<text text-anchor="middle" x="98.17" y="-7.5" font-family="Helvetica,sans-Serif" font-size="10.00">/endian.h</text>
</a>
</g>
</g>
<!-- Node1&#45;&gt;Node3 -->
<g id="edge2" class="edge">
<title>Node1&#45;&gt;Node3</title>
<path fill="none" stroke="midnightblue" d="M201.42,-215.58C135.84,-201.31 43.94,-169.12 5.17,-98 -1.42,-85.9 -1.87,-78.84 5.17,-67 13.57,-52.88 27.45,-42.46 41.96,-34.88"/>
<polygon fill="midnightblue" stroke="midnightblue" points="43.54,-38.01 51.03,-30.52 40.5,-31.7 43.54,-38.01"/>
</g>
<!-- Node4 -->
<g id="node4" class="node">
<title>Node4</title>
<g id="a_node4"><a xlink:href="portable__binary__oarchive_8hpp.html" target="_top" xlink:title=" ">
<polygon fill="none" stroke="black" points="208.67,-140 208.67,-170 339.67,-170 339.67,-140 208.67,-140"/>
<text text-anchor="start" x="216.67" y="-158" font-family="Helvetica,sans-Serif" font-size="10.00">Networking/boost/portable</text>
<text text-anchor="middle" x="274.17" y="-147" font-family="Helvetica,sans-Serif" font-size="10.00">_binary_oarchive.hpp</text>
</a>
</g>
</g>
<!-- Node1&#45;&gt;Node4 -->
<g id="edge3" class="edge">
<title>Node1&#45;&gt;Node4</title>
<path fill="none" stroke="midnightblue" d="M274.17,-212.23C274.17,-203.16 274.17,-191.16 274.17,-180.58"/>
<polygon fill="midnightblue" stroke="midnightblue" points="277.67,-180.25 274.17,-170.25 270.67,-180.25 277.67,-180.25"/>
</g>
<!-- Node16 -->
<g id="node16" class="node">
<title>Node16</title>
<g id="a_node16"><a xlink:title=" ">
<polygon fill="none" stroke="#bfbfbf" points="358.17,-134.5 358.17,-175.5 454.17,-175.5 454.17,-134.5 358.17,-134.5"/>
<text text-anchor="start" x="366.17" y="-163.5" font-family="Helvetica,sans-Serif" font-size="10.00">boost/archive/impl</text>
<text text-anchor="start" x="366.17" y="-152.5" font-family="Helvetica,sans-Serif" font-size="10.00">/archive_serializer</text>
<text text-anchor="middle" x="406.17" y="-141.5" font-family="Helvetica,sans-Serif" font-size="10.00">_map.ipp</text>
</a>
</g>
</g>
<!-- Node1&#45;&gt;Node16 -->
<g id="edge17" class="edge">
<title>Node1&#45;&gt;Node16</title>
<path fill="none" stroke="midnightblue" d="M300.57,-212.4C317.72,-203.24 340.55,-191.05 360.59,-180.34"/>
<polygon fill="midnightblue" stroke="midnightblue" points="362.4,-183.34 369.57,-175.55 359.1,-177.17 362.4,-183.34"/>
</g>
<!-- Node17 -->
<g id="node17" class="node">
<title>Node17</title>
<g id="a_node17"><a xlink:title=" ">
<polygon fill="none" stroke="#bfbfbf" points="472.17,-140 472.17,-170 608.17,-170 608.17,-140 472.17,-140"/>
<text text-anchor="start" x="480.17" y="-158" font-family="Helvetica,sans-Serif" font-size="10.00">boost/archive/impl</text>
<text text-anchor="middle" x="540.17" y="-147" font-family="Helvetica,sans-Serif" font-size="10.00">/basic_binary_oprimitive.ipp</text>
</a>
</g>
</g>
<!-- Node1&#45;&gt;Node17 -->
<g id="edge18" class="edge">
<title>Node1&#45;&gt;Node17</title>
<path fill="none" stroke="midnightblue" d="M327.04,-212.49C370.23,-201.04 431.4,-184.83 477.14,-172.71"/>
<polygon fill="midnightblue" stroke="midnightblue" points="478.18,-176.05 486.94,-170.11 476.38,-169.29 478.18,-176.05"/>
</g>
<!-- Node4&#45;&gt;Node2 -->
<g id="edge4" class="edge">
<title>Node4&#45;&gt;Node2</title>
<path fill="none" stroke="midnightblue" d="M217.44,-139.95C177.32,-129.55 122.48,-114.39 75.17,-98 73.26,-97.34 71.3,-96.63 69.34,-95.88"/>
<polygon fill="midnightblue" stroke="midnightblue" points="70.22,-92.47 59.64,-92.04 67.64,-98.98 70.22,-92.47"/>
</g>
<!-- Node5 -->
<g id="node5" class="node">
<title>Node5</title>
<g id="a_node5"><a xlink:title=" ">
<polygon fill="none" stroke="#bfbfbf" points="630.67,-67.5 630.67,-97.5 725.67,-97.5 725.67,-67.5 630.67,-67.5"/>
<text text-anchor="start" x="638.67" y="-85.5" font-family="Helvetica,sans-Serif" font-size="10.00">boost/serialization</text>
<text text-anchor="middle" x="678.17" y="-74.5" font-family="Helvetica,sans-Serif" font-size="10.00">/string.hpp</text>
</a>
</g>
</g>
<!-- Node4&#45;&gt;Node5 -->
<g id="edge5" class="edge">
<title>Node4&#45;&gt;Node5</title>
<path fill="none" stroke="midnightblue" d="M323.18,-139.96C331.79,-137.77 340.71,-135.68 349.17,-134 466.05,-110.81 500.25,-120.82 620.63,-98.15"/>
<polygon fill="midnightblue" stroke="midnightblue" points="621.44,-101.56 630.6,-96.24 620.12,-94.69 621.44,-101.56"/>
</g>
<!-- Node6 -->
<g id="node6" class="node">
<title>Node6</title>
<g id="a_node6"><a xlink:title=" ">
<polygon fill="none" stroke="#bfbfbf" points="744.17,-67.5 744.17,-97.5 854.17,-97.5 854.17,-67.5 744.17,-67.5"/>
<text text-anchor="start" x="752.17" y="-85.5" font-family="Helvetica,sans-Serif" font-size="10.00">boost/archive/archive</text>
<text text-anchor="middle" x="799.17" y="-74.5" font-family="Helvetica,sans-Serif" font-size="10.00">_exception.hpp</text>
</a>
</g>
</g>
<!-- Node4&#45;&gt;Node6 -->
<g id="edge6" class="edge">
<title>Node4&#45;&gt;Node6</title>
<path fill="none" stroke="midnightblue" d="M321.91,-139.99C330.91,-137.71 340.28,-135.59 349.17,-134 515.56,-104.27 563.21,-124.3 734.01,-98.04"/>
<polygon fill="midnightblue" stroke="midnightblue" points="734.76,-101.46 744.1,-96.45 733.68,-94.55 734.76,-101.46"/>
</g>
<!-- Node7 -->
<g id="node7" class="node">
<title>Node7</title>
<g id="a_node7"><a xlink:title=" ">
<polygon fill="none" stroke="#bfbfbf" points="84.67,-67.5 84.67,-97.5 197.67,-97.5 197.67,-67.5 84.67,-67.5"/>
<text text-anchor="start" x="92.67" y="-85.5" font-family="Helvetica,sans-Serif" font-size="10.00">boost/archive/basic</text>
<text text-anchor="middle" x="141.17" y="-74.5" font-family="Helvetica,sans-Serif" font-size="10.00">_binary_oprimitive.hpp</text>
</a>
</g>
</g>
<!-- Node4&#45;&gt;Node7 -->
<g id="edge7" class="edge">
<title>Node4&#45;&gt;Node7</title>
<path fill="none" stroke="midnightblue" d="M247.58,-139.9C227.19,-129.1 198.86,-114.08 176.56,-102.26"/>
<polygon fill="midnightblue" stroke="midnightblue" points="178.19,-99.16 167.72,-97.57 174.92,-105.35 178.19,-99.16"/>
</g>
<!-- Node8 -->
<g id="node8" class="node">
<title>Node8</title>
<g id="a_node8"><a xlink:title=" ">
<polygon fill="none" stroke="#bfbfbf" points="215.67,-67.5 215.67,-97.5 332.67,-97.5 332.67,-67.5 215.67,-67.5"/>
<text text-anchor="start" x="223.67" y="-85.5" font-family="Helvetica,sans-Serif" font-size="10.00">boost/archive/detail</text>
<text text-anchor="middle" x="274.17" y="-74.5" font-family="Helvetica,sans-Serif" font-size="10.00">/common_oarchive.hpp</text>
</a>
</g>
</g>
<!-- Node4&#45;&gt;Node8 -->
<g id="edge8" class="edge">
<title>Node4&#45;&gt;Node8</title>
<path fill="none" stroke="midnightblue" d="M274.17,-139.73C274.17,-130.66 274.17,-118.66 274.17,-108.08"/>
<polygon fill="midnightblue" stroke="midnightblue" points="277.67,-107.75 274.17,-97.75 270.67,-107.75 277.67,-107.75"/>
</g>
<!-- Node9 -->
<g id="node9" class="node">
<title>Node9</title>
<g id="a_node9"><a xlink:title=" ">
<polygon fill="none" stroke="#bfbfbf" points="350.67,-67.5 350.67,-97.5 457.67,-97.5 457.67,-67.5 350.67,-67.5"/>
<text text-anchor="start" x="358.67" y="-85.5" font-family="Helvetica,sans-Serif" font-size="10.00">boost/archive/detail</text>
<text text-anchor="middle" x="404.17" y="-74.5" font-family="Helvetica,sans-Serif" font-size="10.00">/register_archive.hpp</text>
</a>
</g>
</g>
<!-- Node4&#45;&gt;Node9 -->
<g id="edge9" class="edge">
<title>Node4&#45;&gt;Node9</title>
<path fill="none" stroke="midnightblue" d="M300.17,-139.9C320.01,-129.14 347.54,-114.21 369.29,-102.42"/>
<polygon fill="midnightblue" stroke="midnightblue" points="371.1,-105.42 378.22,-97.57 367.76,-99.26 371.1,-105.42"/>
</g>
<!-- Node10 -->
<g id="node10" class="node">
<title>Node10</title>
<g id="a_node10"><a xlink:href="portable__binary__archive_8hpp.html" target="_top" xlink:title=" ">
<polygon fill="none" stroke="black" points="475.67,-73 475.67,-92 612.67,-92 612.67,-73 475.67,-73"/>
<text text-anchor="middle" x="544.17" y="-80" font-family="Helvetica,sans-Serif" font-size="10.00">portable_binary_archive.hpp</text>
</a>
</g>
</g>
<!-- Node4&#45;&gt;Node10 -->
<g id="edge10" class="edge">
<title>Node4&#45;&gt;Node10</title>
<path fill="none" stroke="midnightblue" d="M326.61,-139.96C334.18,-137.95 341.87,-135.92 349.17,-134 401.44,-120.26 461.67,-104.71 501.2,-94.53"/>
<polygon fill="midnightblue" stroke="midnightblue" points="502.22,-97.89 511.03,-92.01 500.47,-91.11 502.22,-97.89"/>
</g>
<!-- Node10&#45;&gt;Node3 -->
<g id="edge16" class="edge">
<title>Node10&#45;&gt;Node3</title>
<path fill="none" stroke="midnightblue" d="M500.1,-72.93C489.04,-70.88 477.18,-68.78 466.17,-67 356.95,-49.36 228.84,-32.69 156.22,-23.6"/>
<polygon fill="midnightblue" stroke="midnightblue" points="156.27,-20.08 145.92,-22.32 155.41,-27.03 156.27,-20.08"/>
</g>
<!-- Node11 -->
<g id="node11" class="node">
<title>Node11</title>
<g id="a_node11"><a xlink:title=" ">
<polygon fill="none" stroke="#bfbfbf" points="703.67,-6 703.67,-25 790.67,-25 790.67,-6 703.67,-6"/>
<text text-anchor="middle" x="747.17" y="-13" font-family="Helvetica,sans-Serif" font-size="10.00">boost/config.hpp</text>
</a>
</g>
</g>
<!-- Node10&#45;&gt;Node11 -->
<g id="edge11" class="edge">
<title>Node10&#45;&gt;Node11</title>
<path fill="none" stroke="midnightblue" d="M571.13,-72.87C607.02,-61.38 670.63,-41.01 710.76,-28.16"/>
<polygon fill="midnightblue" stroke="midnightblue" points="711.97,-31.45 720.43,-25.06 709.83,-24.78 711.97,-31.45"/>
</g>
<!-- Node12 -->
<g id="node12" class="node">
<title>Node12</title>
<g id="a_node12"><a xlink:title=" ">
<polygon fill="none" stroke="#bfbfbf" points="275.67,-6 275.67,-25 366.67,-25 366.67,-6 275.67,-6"/>
<text text-anchor="middle" x="321.17" y="-13" font-family="Helvetica,sans-Serif" font-size="10.00">boost/cstdint.hpp</text>
</a>
</g>
</g>
<!-- Node10&#45;&gt;Node12 -->
<g id="edge12" class="edge">
<title>Node10&#45;&gt;Node12</title>
<path fill="none" stroke="midnightblue" d="M514.56,-72.87C474.88,-61.3 404.36,-40.75 360.33,-27.91"/>
<polygon fill="midnightblue" stroke="midnightblue" points="361.13,-24.5 350.55,-25.06 359.17,-31.22 361.13,-24.5"/>
</g>
<!-- Node13 -->
<g id="node13" class="node">
<title>Node13</title>
<g id="a_node13"><a xlink:title=" ">
<polygon fill="none" stroke="#bfbfbf" points="385.17,-6 385.17,-25 503.17,-25 503.17,-6 385.17,-6"/>
<text text-anchor="middle" x="444.17" y="-13" font-family="Helvetica,sans-Serif" font-size="10.00">boost/static_assert.hpp</text>
</a>
</g>
</g>
<!-- Node10&#45;&gt;Node13 -->
<g id="edge13" class="edge">
<title>Node10&#45;&gt;Node13</title>
<path fill="none" stroke="midnightblue" d="M530.68,-72.73C514.12,-61.96 485.79,-43.55 466.08,-30.74"/>
<polygon fill="midnightblue" stroke="midnightblue" points="467.74,-27.64 457.44,-25.13 463.92,-33.51 467.74,-27.64"/>
</g>
<!-- Node14 -->
<g id="node14" class="node">
<title>Node14</title>
<g id="a_node14"><a xlink:title=" ">
<polygon fill="none" stroke="#bfbfbf" points="521.67,-6 521.67,-25 566.67,-25 566.67,-6 521.67,-6"/>
<text text-anchor="middle" x="544.17" y="-13" font-family="Helvetica,sans-Serif" font-size="10.00">climits</text>
</a>
</g>
</g>
<!-- Node10&#45;&gt;Node14 -->
<g id="edge14" class="edge">
<title>Node10&#45;&gt;Node14</title>
<path fill="none" stroke="midnightblue" d="M544.17,-72.73C544.17,-63.18 544.17,-47.62 544.17,-35.28"/>
<polygon fill="midnightblue" stroke="midnightblue" points="547.67,-35.13 544.17,-25.13 540.67,-35.13 547.67,-35.13"/>
</g>
<!-- Node15 -->
<g id="node15" class="node">
<title>Node15</title>
<g id="a_node15"><a xlink:title=" ">
<polygon fill="none" stroke="#bfbfbf" points="584.67,-0.5 584.67,-30.5 685.67,-30.5 685.67,-0.5 584.67,-0.5"/>
<text text-anchor="start" x="592.67" y="-18.5" font-family="Helvetica,sans-Serif" font-size="10.00">boost/archive/basic</text>
<text text-anchor="middle" x="635.17" y="-7.5" font-family="Helvetica,sans-Serif" font-size="10.00">_archive.hpp</text>
</a>
</g>
</g>
<!-- Node10&#45;&gt;Node15 -->
<g id="edge15" class="edge">
<title>Node10&#45;&gt;Node15</title>
<path fill="none" stroke="midnightblue" d="M556.44,-72.73C569.33,-63.53 590.04,-48.73 606.99,-36.63"/>
<polygon fill="midnightblue" stroke="midnightblue" points="609.34,-39.25 615.45,-30.59 605.27,-33.55 609.34,-39.25"/>
</g>
</g>
</svg>
