<svg xmlns="http://www.w3.org/2000/svg" xmlns:xlink="http://www.w3.org/1999/xlink" width="960" height="262pt" viewBox="0 0 719.5 262"><g id="graph0" class="graph" transform="scale(1 1) rotate(0) translate(4 258)"><title>includes/platformer-engine/Networking/ProtocolPackages.hpp</title><g id="node1" class="node"><title>Node1</title><g id="a_node1"><a><polygon fill="#bfbfbf" stroke="#000" points="218 -212.5 218 -253.5 358 -253.5 358 -212.5 218 -212.5"/><text x="226" y="-241.5" font-family="Helvetica,sans-Serif" font-size="10" text-anchor="start">includes/platformer</text><text x="226" y="-230.5" font-family="Helvetica,sans-Serif" font-size="10" text-anchor="start">-engine/Networking/Protocol</text><text x="288" y="-219.5" font-family="Helvetica,sans-Serif" font-size="10" text-anchor="middle">Packages.hpp</text></a></g></g><g id="node2" class="node"><title>Node2</title><g id="a_node2"><a target="_top" xlink:href="ClientNetworkManager_8hpp.html"><polygon fill="none" stroke="#000" points="113.5 -134.5 113.5 -175.5 278.5 -175.5 278.5 -134.5 113.5 -134.5"/><text x="121.5" y="-163.5" font-family="Helvetica,sans-Serif" font-size="10" text-anchor="start">includes/platformer</text><text x="121.5" y="-152.5" font-family="Helvetica,sans-Serif" font-size="10" text-anchor="start">-engine/Networking/ClientNetwork</text><text x="196" y="-141.5" font-family="Helvetica,sans-Serif" font-size="10" text-anchor="middle">Manager.hpp</text></a></g></g><g id="edge1" class="edge"><title>Node1-&gt;Node2</title><path fill="none" stroke="#191970" d="M256.26,-205.78C244.23,-195.84 230.76,-184.72 219.61,-175.51"/><polygon fill="#191970" stroke="#191970" points="254.37 -208.76 264.31 -212.43 258.83 -203.36 254.37 -208.76"/></g><g id="node9" class="node"><title>Node9</title><g id="a_node9"><a target="_top" xlink:href="ServerNetworkManager_8hpp.html"><polygon fill="none" stroke="#000" points="296.5 -134.5 296.5 -175.5 465.5 -175.5 465.5 -134.5 296.5 -134.5"/><text x="304.5" y="-163.5" font-family="Helvetica,sans-Serif" font-size="10" text-anchor="start">includes/platformer</text><text x="304.5" y="-152.5" font-family="Helvetica,sans-Serif" font-size="10" text-anchor="start">-engine/Networking/ServerNetwork</text><text x="381" y="-141.5" font-family="Helvetica,sans-Serif" font-size="10" text-anchor="middle">Manager.hpp</text></a></g></g><g id="edge9" class="edge"><title>Node1-&gt;Node9</title><path fill="none" stroke="#191970" d="M319.74,-206.06C331.98,-196.06 345.75,-184.8 357.13,-175.51"/><polygon fill="#191970" stroke="#191970" points="317.48 -203.39 311.95 -212.43 321.91 -208.81 317.48 -203.39"/></g><g id="node3" class="node"><title>Node3</title><g id="a_node3"><a target="_top" xlink:href="NetworkingFacade_8cpp.html"><polygon fill="none" stroke="#000" points="0 -73 0 -92 168 -92 168 -73 0 -73"/><text x="84" y="-80" font-family="Helvetica,sans-Serif" font-size="10" text-anchor="middle">src/Facade/NetworkingFacade.cpp</text></a></g></g><g id="edge2" class="edge"><title>Node2-&gt;Node3</title><path fill="none" stroke="#191970" d="M156.28,-129C135.88,-116.15 112.31,-101.32 97.78,-92.17"/><polygon fill="#191970" stroke="#191970" points="154.47 -132 164.8 -134.36 158.2 -126.07 154.47 -132"/></g><g id="node4" class="node"><title>Node4</title><g id="a_node4"><a target="_top" xlink:href="ClientNetworkManager_8cpp.html"><polygon fill="none" stroke="#000" points="95.5 -.5 95.5 -30.5 242.5 -30.5 242.5 -.5 95.5 -.5"/><text x="103.5" y="-18.5" font-family="Helvetica,sans-Serif" font-size="10" text-anchor="start">src/Networking/ClientNetwork</text><text x="169" y="-7.5" font-family="Helvetica,sans-Serif" font-size="10" text-anchor="middle">Manager.cpp</text></a></g></g><g id="edge3" class="edge"><title>Node2-&gt;Node4</title><path fill="none" stroke="#191970" d="M190.18,-124.34C184.5,-95.42 176.11,-52.7 171.79,-30.72"/><polygon fill="#191970" stroke="#191970" points="186.77 -125.16 192.13 -134.3 193.64 -123.81 186.77 -125.16"/></g><g id="node5" class="node"><title>Node5</title><g id="a_node5"><a target="_top" xlink:href="Engine_8hpp.html"><polygon fill="none" stroke="#000" points="283.5 -67.5 283.5 -97.5 414.5 -97.5 414.5 -67.5 283.5 -67.5"/><text x="291.5" y="-85.5" font-family="Helvetica,sans-Serif" font-size="10" text-anchor="start">includes/platformer</text><text x="349" y="-74.5" font-family="Helvetica,sans-Serif" font-size="10" text-anchor="middle">-engine/Engine/Engine.hpp</text></a></g></g><g id="edge4" class="edge"><title>Node2-&gt;Node5</title><path fill="none" stroke="#191970" d="M247.74,-130.16C271.17,-119.36 298.06,-106.97 318.25,-97.67"/><polygon fill="#191970" stroke="#191970" points="246.24 -127 238.62 -134.36 249.17 -133.36 246.24 -127"/></g><g id="edge6" class="edge"><title>Node5-&gt;Node4</title><path fill="none" stroke="#191970" d="M300.41,-63.96C271.42,-53.48 235.09,-40.37 207.98,-30.58"/><polygon fill="#191970" stroke="#191970" points="299.35 -67.29 309.94 -67.4 301.73 -60.71 299.35 -67.29"/></g><g id="node6" class="node"><title>Node6</title><g id="a_node6"><a target="_top" xlink:href="Engine_8cpp.html"><polygon fill="none" stroke="#000" points="260.5 -6 260.5 -25 373.5 -25 373.5 -6 260.5 -6"/><text x="317" y="-13" font-family="Helvetica,sans-Serif" font-size="10" text-anchor="middle">src/Engine/Engine.cpp</text></a></g></g><g id="edge5" class="edge"><title>Node5-&gt;Node6</title><path fill="none" stroke="#191970" d="M337.57,-58.29C331.92,-46.8 325.43,-33.63 321.28,-25.19"/><polygon fill="#191970" stroke="#191970" points="334.5 -59.97 342.06 -67.4 340.78 -56.88 334.5 -59.97"/></g><g id="node7" class="node"><title>Node7</title><g id="a_node7"><a target="_top" xlink:href="ServerNetworkManager_8cpp.html"><polygon fill="none" stroke="#000" points="560.5 -.5 560.5 -30.5 711.5 -30.5 711.5 -.5 560.5 -.5"/><text x="568.5" y="-18.5" font-family="Helvetica,sans-Serif" font-size="10" text-anchor="start">src/Networking/ServerNetwork</text><text x="636" y="-7.5" font-family="Helvetica,sans-Serif" font-size="10" text-anchor="middle">Manager.cpp</text></a></g></g><g id="edge7" class="edge"><title>Node5-&gt;Node7</title><path fill="none" stroke="#191970" d="M420.74,-65.25C467.78,-54.6 528.68,-40.81 573.69,-30.61"/><polygon fill="#191970" stroke="#191970" points="419.9 -61.85 410.92 -67.48 421.45 -68.68 419.9 -61.85"/></g><g id="node8" class="node"><title>Node8</title><g id="a_node8"><a target="_top" xlink:href="RenderSystem_8cpp.html"><polygon fill="none" stroke="#000" points="392 -6 392 -25 542 -25 542 -6 392 -6"/><text x="467" y="-13" font-family="Helvetica,sans-Serif" font-size="10" text-anchor="middle">src/Texture/RenderSystem.cpp</text></a></g></g><g id="edge8" class="edge"><title>Node5-&gt;Node8</title><path fill="none" stroke="#191970" d="M383.54,-62.47C406.07,-50.06 434.37,-34.47 451.56,-25.01"/><polygon fill="#191970" stroke="#191970" points="381.67 -59.51 374.6 -67.4 385.05 -65.64 381.67 -59.51"/></g><g id="edge11" class="edge"><title>Node9-&gt;Node5</title><path fill="none" stroke="#191970" d="M367.82,-124.97C363.58,-115.63 359.07,-105.7 355.53,-97.89"/><polygon fill="#191970" stroke="#191970" points="364.77 -126.7 372.09 -134.36 371.14 -123.81 364.77 -126.7"/></g><g id="edge10" class="edge"><title>Node9-&gt;Node7</title><path fill="none" stroke="#191970" d="M426.18,-129.64C479.6,-100.83 566.7,-53.87 609.94,-30.55"/><polygon fill="#191970" stroke="#191970" points="424.41 -126.62 417.26 -134.45 427.73 -132.78 424.41 -126.62"/></g></g></svg>