<?xml version="1.0" encoding="UTF-8" standalone="no"?>
<!DOCTYPE svg PUBLIC "-//W3C//DTD SVG 1.1//EN"
 "http://www.w3.org/Graphics/SVG/1.1/DTD/svg11.dtd">
<!-- Generated by graphviz version 2.44.0 ()
 -->
<!-- Title: includes/platformer&#45;engine/Networking/ProtocolPackages.hpp Pages: 1 -->
<svg width="1147pt" height="262pt"
 viewBox="0.00 0.00 1147.00 262.00" xmlns="http://www.w3.org/2000/svg" xmlns:xlink="http://www.w3.org/1999/xlink">
<g id="graph0" class="graph" transform="scale(1 1) rotate(0) translate(4 258)">
<title>includes/platformer&#45;engine/Networking/ProtocolPackages.hpp</title>
<!-- Node1 -->
<g id="node1" class="node">
<title>Node1</title>
<g id="a_node1"><a xlink:title=" ">
<polygon fill="#bfbfbf" stroke="black" points="441.5,-212.5 441.5,-253.5 581.5,-253.5 581.5,-212.5 441.5,-212.5"/>
<text text-anchor="start" x="449.5" y="-241.5" font-family="Helvetica,sans-Serif" font-size="10.00">includes/platformer</text>
<text text-anchor="start" x="449.5" y="-230.5" font-family="Helvetica,sans-Serif" font-size="10.00">&#45;engine/Networking/Protocol</text>
<text text-anchor="middle" x="511.5" y="-219.5" font-family="Helvetica,sans-Serif" font-size="10.00">Packages.hpp</text>
</a>
</g>
</g>
<!-- Node2 -->
<g id="node2" class="node">
<title>Node2</title>
<g id="a_node2"><a xlink:href="ClientNetworkManager_8hpp.html" target="_top" xlink:title=" ">
<polygon fill="none" stroke="black" points="337,-134.5 337,-175.5 502,-175.5 502,-134.5 337,-134.5"/>
<text text-anchor="start" x="345" y="-163.5" font-family="Helvetica,sans-Serif" font-size="10.00">includes/platformer</text>
<text text-anchor="start" x="345" y="-152.5" font-family="Helvetica,sans-Serif" font-size="10.00">&#45;engine/Networking/ClientNetwork</text>
<text text-anchor="middle" x="419.5" y="-141.5" font-family="Helvetica,sans-Serif" font-size="10.00">Manager.hpp</text>
</a>
</g>
</g>
<!-- Node1&#45;&gt;Node2 -->
<g id="edge1" class="edge">
<title>Node1&#45;&gt;Node2</title>
<path fill="none" stroke="midnightblue" d="M479.76,-205.78C467.73,-195.84 454.26,-184.72 443.11,-175.51"/>
<polygon fill="midnightblue" stroke="midnightblue" points="477.87,-208.76 487.81,-212.43 482.33,-203.36 477.87,-208.76"/>
</g>
<!-- Node12 -->
<g id="node12" class="node">
<title>Node12</title>
<g id="a_node12"><a xlink:href="ServerNetworkManager_8hpp.html" target="_top" xlink:title=" ">
<polygon fill="none" stroke="black" points="520,-134.5 520,-175.5 689,-175.5 689,-134.5 520,-134.5"/>
<text text-anchor="start" x="528" y="-163.5" font-family="Helvetica,sans-Serif" font-size="10.00">includes/platformer</text>
<text text-anchor="start" x="528" y="-152.5" font-family="Helvetica,sans-Serif" font-size="10.00">&#45;engine/Networking/ServerNetwork</text>
<text text-anchor="middle" x="604.5" y="-141.5" font-family="Helvetica,sans-Serif" font-size="10.00">Manager.hpp</text>
</a>
</g>
</g>
<!-- Node1&#45;&gt;Node12 -->
<g id="edge12" class="edge">
<title>Node1&#45;&gt;Node12</title>
<path fill="none" stroke="midnightblue" d="M543.24,-206.06C555.48,-196.06 569.25,-184.8 580.63,-175.51"/>
<polygon fill="midnightblue" stroke="midnightblue" points="540.98,-203.39 535.45,-212.43 545.41,-208.81 540.98,-203.39"/>
</g>
<!-- Node3 -->
<g id="node3" class="node">
<title>Node3</title>
<g id="a_node3"><a xlink:href="NetworkingFacade_8cpp.html" target="_top" xlink:title=" ">
<polygon fill="none" stroke="black" points="223.5,-73 223.5,-92 391.5,-92 391.5,-73 223.5,-73"/>
<text text-anchor="middle" x="307.5" y="-80" font-family="Helvetica,sans-Serif" font-size="10.00">src/Facade/NetworkingFacade.cpp</text>
</a>
</g>
</g>
<!-- Node2&#45;&gt;Node3 -->
<g id="edge2" class="edge">
<title>Node2&#45;&gt;Node3</title>
<path fill="none" stroke="midnightblue" d="M379.78,-129C359.38,-116.15 335.81,-101.32 321.28,-92.17"/>
<polygon fill="midnightblue" stroke="midnightblue" points="377.97,-132 388.3,-134.36 381.7,-126.07 377.97,-132"/>
</g>
<!-- Node4 -->
<g id="node4" class="node">
<title>Node4</title>
<g id="a_node4"><a xlink:href="ClientNetworkManager_8cpp.html" target="_top" xlink:title=" ">
<polygon fill="none" stroke="black" points="0,-0.5 0,-30.5 147,-30.5 147,-0.5 0,-0.5"/>
<text text-anchor="start" x="8" y="-18.5" font-family="Helvetica,sans-Serif" font-size="10.00">src/Networking/ClientNetwork</text>
<text text-anchor="middle" x="73.5" y="-7.5" font-family="Helvetica,sans-Serif" font-size="10.00">Manager.cpp</text>
</a>
</g>
</g>
<!-- Node2&#45;&gt;Node4 -->
<g id="edge3" class="edge">
<title>Node2&#45;&gt;Node4</title>
<path fill="none" stroke="midnightblue" d="M421.03,-124.32C420.31,-105.25 415.95,-81.42 400.5,-67 360.44,-29.59 210.61,-39.72 156.5,-31 153.47,-30.51 150.37,-30.01 147.25,-29.49"/>
<polygon fill="midnightblue" stroke="midnightblue" points="417.53,-124.36 421.1,-134.34 424.53,-124.31 417.53,-124.36"/>
</g>
<!-- Node5 -->
<g id="node5" class="node">
<title>Node5</title>
<g id="a_node5"><a xlink:href="Engine_8hpp.html" target="_top" xlink:title=" ">
<polygon fill="none" stroke="black" points="494,-67.5 494,-97.5 625,-97.5 625,-67.5 494,-67.5"/>
<text text-anchor="start" x="502" y="-85.5" font-family="Helvetica,sans-Serif" font-size="10.00">includes/platformer</text>
<text text-anchor="middle" x="559.5" y="-74.5" font-family="Helvetica,sans-Serif" font-size="10.00">&#45;engine/Engine/Engine.hpp</text>
</a>
</g>
</g>
<!-- Node2&#45;&gt;Node5 -->
<g id="edge4" class="edge">
<title>Node2&#45;&gt;Node5</title>
<path fill="none" stroke="midnightblue" d="M467.7,-129.73C488.93,-119.04 513.14,-106.85 531.36,-97.67"/>
<polygon fill="midnightblue" stroke="midnightblue" points="465.86,-126.74 458.5,-134.36 469,-132.99 465.86,-126.74"/>
</g>
<!-- Node5&#45;&gt;Node4 -->
<g id="edge8" class="edge">
<title>Node5&#45;&gt;Node4</title>
<path fill="none" stroke="midnightblue" d="M483.64,-72.44C384.91,-60.57 217.79,-40.19 156.5,-31 153.46,-30.54 150.36,-30.07 147.24,-29.57"/>
<polygon fill="midnightblue" stroke="midnightblue" points="483.51,-75.95 493.85,-73.67 484.34,-69 483.51,-75.95"/>
</g>
<!-- Node6 -->
<g id="node6" class="node">
<title>Node6</title>
<g id="a_node6"><a xlink:href="GameObjectDirector_8cpp.html" target="_top" xlink:title=" ">
<polygon fill="none" stroke="black" points="165.5,-6 165.5,-25 341.5,-25 341.5,-6 165.5,-6"/>
<text text-anchor="middle" x="253.5" y="-13" font-family="Helvetica,sans-Serif" font-size="10.00">src/Director/GameObjectDirector.cpp</text>
</a>
</g>
</g>
<!-- Node5&#45;&gt;Node6 -->
<g id="edge5" class="edge">
<title>Node5&#45;&gt;Node6</title>
<path fill="none" stroke="midnightblue" d="M484.02,-65.47C423.87,-52.69 342,-35.3 293.75,-25.05"/>
<polygon fill="midnightblue" stroke="midnightblue" points="483.35,-68.9 493.86,-67.56 484.8,-62.05 483.35,-68.9"/>
</g>
<!-- Node7 -->
<g id="node7" class="node">
<title>Node7</title>
<g id="a_node7"><a xlink:href="Engine_8cpp.html" target="_top" xlink:title=" ">
<polygon fill="none" stroke="black" points="360,-6 360,-25 473,-25 473,-6 360,-6"/>
<text text-anchor="middle" x="416.5" y="-13" font-family="Helvetica,sans-Serif" font-size="10.00">src/Engine/Engine.cpp</text>
</a>
</g>
</g>
<!-- Node5&#45;&gt;Node7 -->
<g id="edge6" class="edge">
<title>Node5&#45;&gt;Node7</title>
<path fill="none" stroke="midnightblue" d="M519.09,-63.13C491.57,-50.62 456.41,-34.64 435.22,-25.01"/>
<polygon fill="midnightblue" stroke="midnightblue" points="517.92,-66.44 528.47,-67.4 520.82,-60.07 517.92,-66.44"/>
</g>
<!-- Node8 -->
<g id="node8" class="node">
<title>Node8</title>
<g id="a_node8"><a xlink:href="TMXParser_8cpp.html" target="_top" xlink:title=" ">
<polygon fill="none" stroke="black" points="491.5,-6 491.5,-25 627.5,-25 627.5,-6 491.5,-6"/>
<text text-anchor="middle" x="559.5" y="-13" font-family="Helvetica,sans-Serif" font-size="10.00">src/Facade/TMXParser.cpp</text>
</a>
</g>
</g>
<!-- Node5&#45;&gt;Node8 -->
<g id="edge7" class="edge">
<title>Node5&#45;&gt;Node8</title>
<path fill="none" stroke="midnightblue" d="M559.5,-57.25C559.5,-46.02 559.5,-33.38 559.5,-25.19"/>
<polygon fill="midnightblue" stroke="midnightblue" points="556,-57.4 559.5,-67.4 563,-57.4 556,-57.4"/>
</g>
<!-- Node9 -->
<g id="node9" class="node">
<title>Node9</title>
<g id="a_node9"><a xlink:href="ServerNetworkManager_8cpp.html" target="_top" xlink:title=" ">
<polygon fill="none" stroke="black" points="988,-0.5 988,-30.5 1139,-30.5 1139,-0.5 988,-0.5"/>
<text text-anchor="start" x="996" y="-18.5" font-family="Helvetica,sans-Serif" font-size="10.00">src/Networking/ServerNetwork</text>
<text text-anchor="middle" x="1063.5" y="-7.5" font-family="Helvetica,sans-Serif" font-size="10.00">Manager.cpp</text>
</a>
</g>
</g>
<!-- Node5&#45;&gt;Node9 -->
<g id="edge9" class="edge">
<title>Node5&#45;&gt;Node9</title>
<path fill="none" stroke="midnightblue" d="M635.28,-73.5C719.32,-64.36 858.83,-48.41 978.5,-31 981.61,-30.55 984.78,-30.07 987.99,-29.58"/>
<polygon fill="midnightblue" stroke="midnightblue" points="634.88,-70.02 625.31,-74.58 635.63,-76.98 634.88,-70.02"/>
</g>
<!-- Node10 -->
<g id="node10" class="node">
<title>Node10</title>
<g id="a_node10"><a xlink:href="RenderSystem_8cpp.html" target="_top" xlink:title=" ">
<polygon fill="none" stroke="black" points="645.5,-6 645.5,-25 795.5,-25 795.5,-6 645.5,-6"/>
<text text-anchor="middle" x="720.5" y="-13" font-family="Helvetica,sans-Serif" font-size="10.00">src/Texture/RenderSystem.cpp</text>
</a>
</g>
</g>
<!-- Node5&#45;&gt;Node10 -->
<g id="edge10" class="edge">
<title>Node5&#45;&gt;Node10</title>
<path fill="none" stroke="midnightblue" d="M603.78,-63.62C634.95,-51.04 675.26,-34.77 699.43,-25.01"/>
<polygon fill="midnightblue" stroke="midnightblue" points="602.4,-60.41 594.43,-67.4 605.02,-66.9 602.4,-60.41"/>
</g>
<!-- Node11 -->
<g id="node11" class="node">
<title>Node11</title>
<g id="a_node11"><a xlink:href="TextureManager_8cpp.html" target="_top" xlink:title=" ">
<polygon fill="none" stroke="black" points="813.5,-6 813.5,-25 969.5,-25 969.5,-6 813.5,-6"/>
<text text-anchor="middle" x="891.5" y="-13" font-family="Helvetica,sans-Serif" font-size="10.00">src/Texture/TextureManager.cpp</text>
</a>
</g>
</g>
<!-- Node5&#45;&gt;Node11 -->
<g id="edge11" class="edge">
<title>Node5&#45;&gt;Node11</title>
<path fill="none" stroke="midnightblue" d="M634.99,-66.72C700.69,-53.86 793.64,-35.66 847.74,-25.07"/>
<polygon fill="midnightblue" stroke="midnightblue" points="634.23,-63.3 625.09,-68.66 635.58,-70.17 634.23,-63.3"/>
</g>
<!-- Node12&#45;&gt;Node5 -->
<g id="edge14" class="edge">
<title>Node12&#45;&gt;Node5</title>
<path fill="none" stroke="midnightblue" d="M586.53,-125.85C580.41,-116.26 573.83,-105.94 568.69,-97.89"/>
<polygon fill="midnightblue" stroke="midnightblue" points="583.63,-127.82 591.96,-134.36 589.53,-124.05 583.63,-127.82"/>
</g>
<!-- Node12&#45;&gt;Node9 -->
<g id="edge13" class="edge">
<title>Node12&#45;&gt;Node9</title>
<path fill="none" stroke="midnightblue" d="M679.37,-131.57C774.82,-102.98 936.98,-54.4 1016.59,-30.55"/>
<polygon fill="midnightblue" stroke="midnightblue" points="678.35,-128.22 669.78,-134.45 680.36,-134.93 678.35,-128.22"/>
</g>
</g>
</svg>
