<?xml version="1.0" encoding="UTF-8" standalone="no"?>
<!DOCTYPE svg PUBLIC "-//W3C//DTD SVG 1.1//EN"
 "http://www.w3.org/Graphics/SVG/1.1/DTD/svg11.dtd">
<!-- Generated by graphviz version 2.44.0 ()
 -->
<!-- Title: includes/platformer&#45;engine/Networking/ProtocolDefinitions.hpp Pages: 1 -->
<svg width="660pt" height="329pt"
 viewBox="0.00 0.00 659.50 329.00" xmlns="http://www.w3.org/2000/svg" xmlns:xlink="http://www.w3.org/1999/xlink">
<g id="graph0" class="graph" transform="scale(1 1) rotate(0) translate(4 325)">
<title>includes/platformer&#45;engine/Networking/ProtocolDefinitions.hpp</title>
<!-- Node1 -->
<g id="node1" class="node">
<title>Node1</title>
<g id="a_node1"><a xlink:title=" ">
<polygon fill="#bfbfbf" stroke="black" points="282,-279.5 282,-320.5 422,-320.5 422,-279.5 282,-279.5"/>
<text text-anchor="start" x="290" y="-308.5" font-family="Helvetica,sans-Serif" font-size="10.00">includes/platformer</text>
<text text-anchor="start" x="290" y="-297.5" font-family="Helvetica,sans-Serif" font-size="10.00">&#45;engine/Networking/Protocol</text>
<text text-anchor="middle" x="352" y="-286.5" font-family="Helvetica,sans-Serif" font-size="10.00">Definitions.hpp</text>
</a>
</g>
</g>
<!-- Node2 -->
<g id="node2" class="node">
<title>Node2</title>
<g id="a_node2"><a xlink:href="ProtocolPackages_8hpp.html" target="_top" xlink:title=" ">
<polygon fill="none" stroke="black" points="282,-201.5 282,-242.5 422,-242.5 422,-201.5 282,-201.5"/>
<text text-anchor="start" x="290" y="-230.5" font-family="Helvetica,sans-Serif" font-size="10.00">includes/platformer</text>
<text text-anchor="start" x="290" y="-219.5" font-family="Helvetica,sans-Serif" font-size="10.00">&#45;engine/Networking/Protocol</text>
<text text-anchor="middle" x="352" y="-208.5" font-family="Helvetica,sans-Serif" font-size="10.00">Packages.hpp</text>
</a>
</g>
</g>
<!-- Node1&#45;&gt;Node2 -->
<g id="edge1" class="edge">
<title>Node1&#45;&gt;Node2</title>
<path fill="none" stroke="midnightblue" d="M352,-269.3C352,-260.3 352,-250.65 352,-242.51"/>
<polygon fill="midnightblue" stroke="midnightblue" points="348.5,-269.43 352,-279.43 355.5,-269.43 348.5,-269.43"/>
</g>
<!-- Node3 -->
<g id="node3" class="node">
<title>Node3</title>
<g id="a_node3"><a xlink:href="ClientNetworkManager_8hpp.html" target="_top" xlink:title=" ">
<polygon fill="none" stroke="black" points="177.5,-123.5 177.5,-164.5 342.5,-164.5 342.5,-123.5 177.5,-123.5"/>
<text text-anchor="start" x="185.5" y="-152.5" font-family="Helvetica,sans-Serif" font-size="10.00">includes/platformer</text>
<text text-anchor="start" x="185.5" y="-141.5" font-family="Helvetica,sans-Serif" font-size="10.00">&#45;engine/Networking/ClientNetwork</text>
<text text-anchor="middle" x="260" y="-130.5" font-family="Helvetica,sans-Serif" font-size="10.00">Manager.hpp</text>
</a>
</g>
</g>
<!-- Node2&#45;&gt;Node3 -->
<g id="edge2" class="edge">
<title>Node2&#45;&gt;Node3</title>
<path fill="none" stroke="midnightblue" d="M320.26,-194.78C308.23,-184.84 294.76,-173.72 283.61,-164.51"/>
<polygon fill="midnightblue" stroke="midnightblue" points="318.37,-197.76 328.31,-201.43 322.83,-192.36 318.37,-197.76"/>
</g>
<!-- Node9 -->
<g id="node9" class="node">
<title>Node9</title>
<g id="a_node9"><a xlink:href="ServerNetworkManager_8hpp.html" target="_top" xlink:title=" ">
<polygon fill="none" stroke="black" points="360.5,-123.5 360.5,-164.5 529.5,-164.5 529.5,-123.5 360.5,-123.5"/>
<text text-anchor="start" x="368.5" y="-152.5" font-family="Helvetica,sans-Serif" font-size="10.00">includes/platformer</text>
<text text-anchor="start" x="368.5" y="-141.5" font-family="Helvetica,sans-Serif" font-size="10.00">&#45;engine/Networking/ServerNetwork</text>
<text text-anchor="middle" x="445" y="-130.5" font-family="Helvetica,sans-Serif" font-size="10.00">Manager.hpp</text>
</a>
</g>
</g>
<!-- Node2&#45;&gt;Node9 -->
<g id="edge8" class="edge">
<title>Node2&#45;&gt;Node9</title>
<path fill="none" stroke="midnightblue" d="M383.74,-195.06C395.98,-185.06 409.75,-173.8 421.13,-164.51"/>
<polygon fill="midnightblue" stroke="midnightblue" points="381.48,-192.39 375.95,-201.43 385.91,-197.81 381.48,-192.39"/>
</g>
<!-- Node4 -->
<g id="node4" class="node">
<title>Node4</title>
<g id="a_node4"><a xlink:href="NetworkingFacade_8cpp.html" target="_top" xlink:title=" ">
<polygon fill="none" stroke="black" points="0,-62 0,-81 168,-81 168,-62 0,-62"/>
<text text-anchor="middle" x="84" y="-69" font-family="Helvetica,sans-Serif" font-size="10.00">src/Facade/NetworkingFacade.cpp</text>
</a>
</g>
</g>
<!-- Node3&#45;&gt;Node4 -->
<g id="edge3" class="edge">
<title>Node3&#45;&gt;Node4</title>
<path fill="none" stroke="midnightblue" d="M201.43,-119.54C168.52,-106.36 129.4,-90.69 105.65,-81.17"/>
<polygon fill="midnightblue" stroke="midnightblue" points="200.39,-122.89 210.97,-123.36 202.99,-116.39 200.39,-122.89"/>
</g>
<!-- Node5 -->
<g id="node5" class="node">
<title>Node5</title>
<g id="a_node5"><a xlink:href="ClientNetworkManager_8cpp.html" target="_top" xlink:title=" ">
<polygon fill="none" stroke="black" points="186.5,-56.5 186.5,-86.5 333.5,-86.5 333.5,-56.5 186.5,-56.5"/>
<text text-anchor="start" x="194.5" y="-74.5" font-family="Helvetica,sans-Serif" font-size="10.00">src/Networking/ClientNetwork</text>
<text text-anchor="middle" x="260" y="-63.5" font-family="Helvetica,sans-Serif" font-size="10.00">Manager.cpp</text>
</a>
</g>
</g>
<!-- Node3&#45;&gt;Node5 -->
<g id="edge4" class="edge">
<title>Node3&#45;&gt;Node5</title>
<path fill="none" stroke="midnightblue" d="M260,-113.08C260,-104.01 260,-94.45 260,-86.89"/>
<polygon fill="midnightblue" stroke="midnightblue" points="256.5,-113.36 260,-123.36 263.5,-113.36 256.5,-113.36"/>
</g>
<!-- Node6 -->
<g id="node6" class="node">
<title>Node6</title>
<g id="a_node6"><a xlink:href="Engine_8hpp.html" target="_top" xlink:title=" ">
<polygon fill="none" stroke="black" points="351.5,-56.5 351.5,-86.5 482.5,-86.5 482.5,-56.5 351.5,-56.5"/>
<text text-anchor="start" x="359.5" y="-74.5" font-family="Helvetica,sans-Serif" font-size="10.00">includes/platformer</text>
<text text-anchor="middle" x="417" y="-63.5" font-family="Helvetica,sans-Serif" font-size="10.00">&#45;engine/Engine/Engine.hpp</text>
</a>
</g>
</g>
<!-- Node3&#45;&gt;Node6 -->
<g id="edge5" class="edge">
<title>Node3&#45;&gt;Node6</title>
<path fill="none" stroke="midnightblue" d="M313.09,-119.16C337.13,-108.36 364.73,-95.97 385.44,-86.67"/>
<polygon fill="midnightblue" stroke="midnightblue" points="311.42,-116.07 303.73,-123.36 314.29,-122.46 311.42,-116.07"/>
</g>
<!-- Node7 -->
<g id="node7" class="node">
<title>Node7</title>
<g id="a_node7"><a xlink:href="Engine_8cpp.html" target="_top" xlink:title=" ">
<polygon fill="none" stroke="black" points="285.5,-0.5 285.5,-19.5 398.5,-19.5 398.5,-0.5 285.5,-0.5"/>
<text text-anchor="middle" x="342" y="-7.5" font-family="Helvetica,sans-Serif" font-size="10.00">src/Engine/Engine.cpp</text>
</a>
</g>
</g>
<!-- Node6&#45;&gt;Node7 -->
<g id="edge6" class="edge">
<title>Node6&#45;&gt;Node7</title>
<path fill="none" stroke="midnightblue" d="M391.03,-49.89C377.98,-39.54 362.87,-27.56 352.91,-19.66"/>
<polygon fill="midnightblue" stroke="midnightblue" points="389.22,-52.93 399.23,-56.4 393.57,-47.44 389.22,-52.93"/>
</g>
<!-- Node8 -->
<g id="node8" class="node">
<title>Node8</title>
<g id="a_node8"><a xlink:href="RenderSystem_8cpp.html" target="_top" xlink:title=" ">
<polygon fill="none" stroke="black" points="417,-0.5 417,-19.5 567,-19.5 567,-0.5 417,-0.5"/>
<text text-anchor="middle" x="492" y="-7.5" font-family="Helvetica,sans-Serif" font-size="10.00">src/Texture/RenderSystem.cpp</text>
</a>
</g>
</g>
<!-- Node6&#45;&gt;Node8 -->
<g id="edge7" class="edge">
<title>Node6&#45;&gt;Node8</title>
<path fill="none" stroke="midnightblue" d="M442.97,-49.89C456.02,-39.54 471.13,-27.56 481.09,-19.66"/>
<polygon fill="midnightblue" stroke="midnightblue" points="440.43,-47.44 434.77,-56.4 444.78,-52.93 440.43,-47.44"/>
</g>
<!-- Node9&#45;&gt;Node6 -->
<g id="edge10" class="edge">
<title>Node9&#45;&gt;Node6</title>
<path fill="none" stroke="midnightblue" d="M433.47,-113.97C429.76,-104.63 425.82,-94.7 422.72,-86.89"/>
<polygon fill="midnightblue" stroke="midnightblue" points="430.26,-115.36 437.2,-123.36 436.76,-112.78 430.26,-115.36"/>
</g>
<!-- Node10 -->
<g id="node10" class="node">
<title>Node10</title>
<g id="a_node10"><a xlink:href="ServerNetworkManager_8cpp.html" target="_top" xlink:title=" ">
<polygon fill="none" stroke="black" points="500.5,-56.5 500.5,-86.5 651.5,-86.5 651.5,-56.5 500.5,-56.5"/>
<text text-anchor="start" x="508.5" y="-74.5" font-family="Helvetica,sans-Serif" font-size="10.00">src/Networking/ServerNetwork</text>
<text text-anchor="middle" x="576" y="-63.5" font-family="Helvetica,sans-Serif" font-size="10.00">Manager.cpp</text>
</a>
</g>
</g>
<!-- Node9&#45;&gt;Node10 -->
<g id="edge9" class="edge">
<title>Node9&#45;&gt;Node10</title>
<path fill="none" stroke="midnightblue" d="M490.37,-118.58C510.17,-107.93 532.69,-95.81 549.67,-86.67"/>
<polygon fill="midnightblue" stroke="midnightblue" points="488.64,-115.54 481.49,-123.36 491.96,-121.7 488.64,-115.54"/>
</g>
</g>
</svg>
