<svg xmlns="http://www.w3.org/2000/svg" xmlns:xlink="http://www.w3.org/1999/xlink" width="2582pt" height="828" viewBox="0 0 2582.1 621"><g id="graph0" class="graph" transform="scale(1 1) rotate(0) translate(4 617)"><title>src/Texture/RenderSystem.cpp</title><g id="node1" class="node"><title>Node1</title><g id="a_node1"><a><polygon fill="#bfbfbf" stroke="#000" points="1014.1 -593.5 1014.1 -612.5 1164.1 -612.5 1164.1 -593.5 1014.1 -593.5"/><text x="1089.1" y="-600.5" font-family="Helvetica,sans-Serif" font-size="10" text-anchor="middle">src/Texture/RenderSystem.cpp</text></a></g></g><g id="node2" class="node"><title>Node2</title><g id="a_node2"><a target="_top" xlink:href="RenderSystem_8hpp.html"><polygon fill="none" stroke="#000" points="824.1 -481.5 824.1 -500.5 958.1 -500.5 958.1 -481.5 824.1 -481.5"/><text x="891.1" y="-488.5" font-family="Helvetica,sans-Serif" font-size="10" text-anchor="middle">Texture/RenderSystem.hpp</text></a></g></g><g id="edge1" class="edge"><title>Node1-&gt;Node2</title><path fill="none" stroke="#191970" d="M1073.57,-593.37C1039.23,-574.29 956.66,-528.42 915.41,-505.51"/><polygon fill="#191970" stroke="#191970" points="917.01 -502.39 906.57 -500.59 913.61 -508.51 917.01 -502.39"/></g><g id="node33" class="node"><title>Node33</title><g id="a_node33"><a target="_top" xlink:href="Engine_8hpp.html"><polygon fill="none" stroke="#000" points="1146.1 -537.5 1146.1 -556.5 1242.1 -556.5 1242.1 -537.5 1146.1 -537.5"/><text x="1194.1" y="-544.5" font-family="Helvetica,sans-Serif" font-size="10" text-anchor="middle">Engine/Engine.hpp</text></a></g></g><g id="edge63" class="edge"><title>Node1-&gt;Node33</title><path fill="none" stroke="#191970" d="M1105.97,-593.32C1122.81,-584.66 1148.91,-571.24 1168.34,-561.25"/><polygon fill="#191970" stroke="#191970" points="1169.98 -564.34 1177.27 -556.65 1166.78 -558.12 1169.98 -564.34"/></g><g id="node3" class="node"><title>Node3</title><g id="a_node3"><a target="_top" xlink:href="GameObject_8hpp.html"><polygon fill="none" stroke="#000" points="940.6 -123.5 940.6 -142.5 1029.6 -142.5 1029.6 -123.5 940.6 -123.5"/><text x="985.1" y="-130.5" font-family="Helvetica,sans-Serif" font-size="10" text-anchor="middle">GameObject.hpp</text></a></g></g><g id="edge2" class="edge"><title>Node2-&gt;Node3</title><path fill="none" stroke="#191970" d="M890.78,-481.29C889.72,-443.21 889.09,-288.48 943.1,-179 948.62,-167.82 957.84,-157.48 966.23,-149.54"/><polygon fill="#191970" stroke="#191970" points="968.75 -151.98 973.88 -142.71 964.09 -146.76 968.75 -151.98"/></g><g id="node15" class="node"><title>Node15</title><g id="a_node15"><a target="_top" xlink:href="Animator_8hpp.html"><polygon fill="none" stroke="#000" points="339.1 -425.5 339.1 -444.5 413.1 -444.5 413.1 -425.5 339.1 -425.5"/><text x="376.1" y="-432.5" font-family="Helvetica,sans-Serif" font-size="10" text-anchor="middle">Animator.hpp</text></a></g></g><g id="edge19" class="edge"><title>Node2-&gt;Node15</title><path fill="none" stroke="#191970" d="M824.04,-482.97C718.2,-471.87 515.05,-450.57 423.22,-440.94"/><polygon fill="#191970" stroke="#191970" points="423.43 -437.44 413.12 -439.88 422.7 -444.4 423.43 -437.44"/></g><g id="node4" class="node"><title>Node4</title><g id="a_node4"><a target="_top" xlink:href="Component_8hpp.html"><polygon fill="none" stroke="#000" points="1054.1 -67.5 1054.1 -86.5 1138.1 -86.5 1138.1 -67.5 1054.1 -67.5"/><text x="1096.1" y="-74.5" font-family="Helvetica,sans-Serif" font-size="10" text-anchor="middle">Component.hpp</text></a></g></g><g id="edge3" class="edge"><title>Node3-&gt;Node4</title><path fill="none" stroke="#191970" d="M1002.94,-123.32C1020.82,-114.62 1048.58,-101.12 1069.15,-91.11"/><polygon fill="#191970" stroke="#191970" points="1070.85 -94.18 1078.31 -86.65 1067.79 -87.88 1070.85 -94.18"/></g><g id="node5" class="node"><title>Node5</title><g id="a_node5"><a><polygon fill="none" stroke="#bfbfbf" points="1833.6 -6 1833.6 -25 1884.6 -25 1884.6 -6 1833.6 -6"/><text x="1859.1" y="-13" font-family="Helvetica,sans-Serif" font-size="10" text-anchor="middle">memory</text></a></g></g><g id="edge13" class="edge"><title>Node3-&gt;Node5</title><path fill="none" stroke="#191970" d="M1023.74,-123.47C1087.05,-109.76 1216.94,-82.78 1328.1,-67 1513.62,-40.66 1737.61,-24.41 1823.35,-18.75"/><polygon fill="#191970" stroke="#191970" points="1823.83 -22.23 1833.58 -18.09 1823.37 -15.24 1823.83 -22.23"/></g><g id="node6" class="node"><title>Node6</title><g id="a_node6"><a><polygon fill="none" stroke="#bfbfbf" points="425.6 -.5 425.6 -30.5 520.6 -30.5 520.6 -.5 425.6 -.5"/><text x="433.6" y="-18.5" font-family="Helvetica,sans-Serif" font-size="10" text-anchor="start">boost/serialization</text><text x="473.1" y="-7.5" font-family="Helvetica,sans-Serif" font-size="10" text-anchor="middle">/access.hpp</text></a></g></g><g id="edge15" class="edge"><title>Node3-&gt;Node6</title><path fill="none" stroke="#191970" d="M980.71,-123.44C972.8,-108.99 954.63,-80.06 930.1,-67 895.56,-48.61 645.83,-28.76 530.81,-20.48"/><polygon fill="#191970" stroke="#191970" points="531 -16.99 520.78 -19.76 530.5 -23.97 531 -16.99"/></g><g id="node7" class="node"><title>Node7</title><g id="a_node7"><a><polygon fill="none" stroke="#bfbfbf" points="1182.6 -.5 1182.6 -30.5 1277.6 -30.5 1277.6 -.5 1182.6 -.5"/><text x="1190.6" y="-18.5" font-family="Helvetica,sans-Serif" font-size="10" text-anchor="start">boost/serialization</text><text x="1230.1" y="-7.5" font-family="Helvetica,sans-Serif" font-size="10" text-anchor="middle">/map.hpp</text></a></g></g><g id="edge16" class="edge"><title>Node3-&gt;Node7</title><path fill="none" stroke="#191970" d="M1029.63,-123.69C1074.65,-114.77 1140.68,-100.12 1163.1,-87 1183.76,-74.92 1202.09,-54.6 1214.32,-38.87"/><polygon fill="#191970" stroke="#191970" points="1217.26 -40.78 1220.47 -30.69 1211.67 -36.58 1217.26 -40.78"/></g><g id="node8" class="node"><title>Node8</title><g id="a_node8"><a><polygon fill="none" stroke="#bfbfbf" points="956.6 -.5 956.6 -30.5 1051.6 -30.5 1051.6 -.5 956.6 -.5"/><text x="964.6" y="-18.5" font-family="Helvetica,sans-Serif" font-size="10" text-anchor="start">boost/serialization</text><text x="1004.1" y="-7.5" font-family="Helvetica,sans-Serif" font-size="10" text-anchor="middle">/vector.hpp</text></a></g></g><g id="edge17" class="edge"><title>Node3-&gt;Node8</title><path fill="none" stroke="#191970" d="M989.39,-123.29C993.52,-114.41 999.52,-100.11 1002.1,-87 1005.09,-71.83 1005.62,-54.48 1005.39,-40.78"/><polygon fill="#191970" stroke="#191970" points="1008.88 -40.58 1005.07 -30.7 1001.89 -40.8 1008.88 -40.58"/></g><g id="node9" class="node"><title>Node9</title><g id="a_node9"><a><polygon fill="none" stroke="#bfbfbf" points="1069.6 -.5 1069.6 -30.5 1164.6 -30.5 1164.6 -.5 1069.6 -.5"/><text x="1077.6" y="-18.5" font-family="Helvetica,sans-Serif" font-size="10" text-anchor="start">boost/serialization</text><text x="1117.1" y="-7.5" font-family="Helvetica,sans-Serif" font-size="10" text-anchor="middle">/shared_ptr.hpp</text></a></g></g><g id="edge18" class="edge"><title>Node3-&gt;Node9</title><path fill="none" stroke="#191970" d="M1025.53,-123.43C1071.02,-113.38 1139.62,-96.85 1147.1,-87 1158.14,-72.48 1148.75,-53.3 1137.65,-38.6"/><polygon fill="#191970" stroke="#191970" points="1140.1 -36.07 1131.06 -30.54 1134.68 -40.5 1140.1 -36.07"/></g><g id="node10" class="node"><title>Node10</title><g id="a_node10"><a target="_top" xlink:href="Transform_8hpp.html"><polygon fill="none" stroke="#000" points="180.6 -67.5 180.6 -86.5 259.6 -86.5 259.6 -67.5 180.6 -67.5"/><text x="220.1" y="-74.5" font-family="Helvetica,sans-Serif" font-size="10" text-anchor="middle">Transform.hpp</text></a></g></g><g id="edge9" class="edge"><title>Node3-&gt;Node10</title><path fill="none" stroke="#191970" d="M940.21,-127.25C925.24,-125.76 908.46,-124.19 893.1,-123 619.09,-101.71 546.07,-120.24 270.18,-87.11"/><polygon fill="#191970" stroke="#191970" points="270.2 -83.59 259.85 -85.86 269.36 -90.54 270.2 -83.59"/></g><g id="node12" class="node"><title>Node12</title><g id="a_node12"><a><polygon fill="none" stroke="#bfbfbf" points="728.6 -67.5 728.6 -86.5 769.6 -86.5 769.6 -67.5 728.6 -67.5"/><text x="749.1" y="-74.5" font-family="Helvetica,sans-Serif" font-size="10" text-anchor="middle">string</text></a></g></g><g id="edge11" class="edge"><title>Node3-&gt;Node12</title><path fill="none" stroke="#191970" d="M940.42,-123.45C900.45,-115.55 840.1,-102.97 779.38,-87.18"/><polygon fill="#191970" stroke="#191970" points="780.19 -83.77 769.63 -84.61 778.41 -90.54 780.19 -83.77"/></g><g id="node13" class="node"><title>Node13</title><g id="a_node13"><a><polygon fill="none" stroke="#bfbfbf" points="2057.1 -67.5 2057.1 -86.5 2101.1 -86.5 2101.1 -67.5 2057.1 -67.5"/><text x="2079.1" y="-74.5" font-family="Helvetica,sans-Serif" font-size="10" text-anchor="middle">vector</text></a></g></g><g id="edge12" class="edge"><title>Node3-&gt;Node13</title><path fill="none" stroke="#191970" d="M1030,-127.18C1045.25,-125.67 1062.41,-124.11 1078.1,-123 1458.74,-96.04 1922.02,-82.24 2046.84,-78.85"/><polygon fill="#191970" stroke="#191970" points="2046.98 -82.34 2056.88 -78.57 2046.79 -75.35 2046.98 -82.34"/></g><g id="node14" class="node"><title>Node14</title><g id="a_node14"><a><polygon fill="none" stroke="#bfbfbf" points="1336.6 -67.5 1336.6 -86.5 1371.6 -86.5 1371.6 -67.5 1336.6 -67.5"/><text x="1354.1" y="-74.5" font-family="Helvetica,sans-Serif" font-size="10" text-anchor="middle">map</text></a></g></g><g id="edge14" class="edge"><title>Node3-&gt;Node14</title><path fill="none" stroke="#191970" d="M1029.87,-125.14C1034.68,-124.41 1039.49,-123.69 1044.1,-123 1148.02,-107.53 1271.64,-89.78 1326.04,-82"/><polygon fill="#191970" stroke="#191970" points="1326.87 -85.42 1336.27 -80.54 1325.88 -78.49 1326.87 -85.42"/></g><g id="edge4" class="edge"><title>Node4-&gt;Node5</title><path fill="none" stroke="#191970" d="M1138.21,-72.72C1273.75,-62.15 1697.21,-29.12 1823.32,-19.29"/><polygon fill="#191970" stroke="#191970" points="1823.88 -22.76 1833.58 -18.49 1823.33 -15.78 1823.88 -22.76"/></g><g id="edge5" class="edge"><title>Node4-&gt;Node6</title><path fill="none" stroke="#191970" d="M1053.77,-71.96C944.95,-61.56 655.33,-33.9 531.06,-22.04"/><polygon fill="#191970" stroke="#191970" points="531.27 -18.54 520.98 -21.07 530.6 -25.51 531.27 -18.54"/></g><g id="edge6" class="edge"><title>Node4-&gt;Node7</title><path fill="none" stroke="#191970" d="M1115.3,-67.48C1134.47,-58.96 1164.52,-45.62 1189.07,-34.72"/><polygon fill="#191970" stroke="#191970" points="1190.8 -37.78 1198.52 -30.52 1187.96 -31.38 1190.8 -37.78"/></g><g id="edge7" class="edge"><title>Node4-&gt;Node8</title><path fill="none" stroke="#191970" d="M1082.92,-67.48C1070.34,-59.34 1050.94,-46.79 1034.53,-36.18"/><polygon fill="#191970" stroke="#191970" points="1036.08 -33.01 1025.78 -30.52 1032.28 -38.89 1036.08 -33.01"/></g><g id="edge8" class="edge"><title>Node4-&gt;Node9</title><path fill="none" stroke="#191970" d="M1099.11,-67.48C1101.64,-60.32 1105.37,-49.75 1108.78,-40.08"/><polygon fill="#191970" stroke="#191970" points="1112.13 -41.12 1112.15 -30.52 1105.52 -38.79 1112.13 -41.12"/></g><g id="node11" class="node"><title>Node11</title><g id="a_node11"><a target="_top" xlink:href="Point_8hpp.html"><polygon fill="none" stroke="#000" points="720.6 -6 720.6 -25 777.6 -25 777.6 -6 720.6 -6"/><text x="749.1" y="-13" font-family="Helvetica,sans-Serif" font-size="10" text-anchor="middle">Point.hpp</text></a></g></g><g id="edge10" class="edge"><title>Node10-&gt;Node11</title><path fill="none" stroke="#191970" d="M259.61,-68.33C262.48,-67.85 265.33,-67.4 268.1,-67 431.87,-43.09 628.6,-26.06 710.45,-19.49"/><polygon fill="#191970" stroke="#191970" points="710.85 -22.97 720.54 -18.69 710.29 -15.99 710.85 -22.97"/></g><g id="edge20" class="edge"><title>Node15-&gt;Node4</title><path fill="none" stroke="#191970" d="M413.21,-428.01C483.03,-415.92 637.83,-385.21 759.1,-333 810.98,-310.66 829.93,-308.53 867.1,-266 912.92,-213.57 878.21,-168.29 931.1,-123 962.41,-96.2 1008.27,-85.23 1043.7,-80.8"/><polygon fill="#191970" stroke="#191970" points="1044.31 -84.26 1053.87 -79.68 1043.54 -77.3 1044.31 -84.26"/></g><g id="edge62" class="edge"><title>Node15-&gt;Node6</title><path fill="none" stroke="#191970" d="M338.89,-434.07C258.41,-433.47 71.64,-427.83 24.1,-389 -1.53,-368.06 0.1,-351.6 0.1,-318.5 0.1,-318.5 0.1,-318.5 0.1,-132 0.1,-47.42 289.16,-24.49 415.34,-18.52"/><polygon fill="#191970" stroke="#191970" points="415.75 -22 425.58 -18.05 415.44 -15.01 415.75 -22"/></g><g id="edge61" class="edge"><title>Node15-&gt;Node10</title><path fill="none" stroke="#191970" d="M399.65,-425.43C416.66,-418.14 439.04,-406.1 453.1,-389 515.24,-313.43 556.94,-269.22 519.1,-179 474.41,-72.43 389.7,-106.75 269.84,-87.2"/><polygon fill="#191970" stroke="#191970" points="270.11 -83.7 259.65 -85.42 268.9 -90.59 270.11 -83.7"/></g><g id="edge60" class="edge"><title>Node15-&gt;Node11</title><path fill="none" stroke="#191970" d="M338.96,-429.34C251.16,-417.28 38.1,-381.52 38.1,-318.5 38.1,-318.5 38.1,-318.5 38.1,-249.5 38.1,-158.06 55.63,-115.58 133.1,-67 145.4,-59.29 577.03,-28.53 710.31,-19.2"/><polygon fill="#191970" stroke="#191970" points="710.73 -22.68 720.46 -18.49 710.24 -15.7 710.73 -22.68"/></g><g id="node16" class="node"><title>Node16</title><g id="a_node16"><a target="_top" xlink:href="Sprite_8hpp.html"><polygon fill="none" stroke="#000" points="274.1 -241 274.1 -260 334.1 -260 334.1 -241 274.1 -241"/><text x="304.1" y="-248" font-family="Helvetica,sans-Serif" font-size="10" text-anchor="middle">Sprite.hpp</text></a></g></g><g id="edge21" class="edge"><title>Node15-&gt;Node16</title><path fill="none" stroke="#191970" d="M346.98,-425.44C329.46,-418.62 308.58,-407.14 298.1,-389 276.37,-351.37 288.54,-297.81 297.42,-269.95"/><polygon fill="#191970" stroke="#191970" points="300.79 -270.9 300.69 -260.31 294.16 -268.65 300.79 -270.9"/></g><g id="node26" class="node"><title>Node26</title><g id="a_node26"><a target="_top" xlink:href="AnimatedSprite_8hpp.html"><polygon fill="none" stroke="#000" points="307.6 -369.5 307.6 -388.5 444.6 -388.5 444.6 -369.5 307.6 -369.5"/><text x="376.1" y="-376.5" font-family="Helvetica,sans-Serif" font-size="10" text-anchor="middle">Texture/AnimatedSprite.hpp</text></a></g></g><g id="edge42" class="edge"><title>Node15-&gt;Node26</title><path fill="none" stroke="#191970" d="M376.1,-425.08C376.1,-418.01 376.1,-407.86 376.1,-398.99"/><polygon fill="#191970" stroke="#191970" points="379.6 -398.75 376.1 -388.75 372.6 -398.75 379.6 -398.75"/></g><g id="edge22" class="edge"><title>Node16-&gt;Node4</title><path fill="none" stroke="#191970" d="M307.96,-240.68C318.99,-216.65 353.28,-150.05 405.1,-123 419.25,-115.62 885.32,-89.52 1043.89,-80.84"/><polygon fill="#191970" stroke="#191970" points="1044.09 -84.33 1053.88 -80.29 1043.71 -77.34 1044.09 -84.33"/></g><g id="edge41" class="edge"><title>Node16-&gt;Node6</title><path fill="none" stroke="#191970" d="M289.22,-240.99C244.45,-214.36 117.27,-130.58 171.1,-67 201.76,-30.79 336.47,-20.53 415.24,-17.63"/><polygon fill="#191970" stroke="#191970" points="415.62 -21.12 425.49 -17.28 415.38 -14.12 415.62 -21.12"/></g><g id="edge36" class="edge"><title>Node16-&gt;Node10</title><path fill="none" stroke="#191970" d="M291.94,-240.85C280.04,-231.76 262.27,-216.38 252.1,-199 232.88,-166.13 224.98,-121.56 221.91,-96.71"/><polygon fill="#191970" stroke="#191970" points="225.36 -96.07 220.79 -86.52 218.4 -96.84 225.36 -96.07"/></g><g id="edge24" class="edge"><title>Node16-&gt;Node12</title><path fill="none" stroke="#191970" d="M299.2,-240.76C287.19,-218.05 259.43,-156.63 290.1,-123 319.5,-90.77 637.75,-91.86 681.1,-87 693.33,-85.63 706.77,-83.9 718.45,-82.32"/><polygon fill="#191970" stroke="#191970" points="719.16 -85.76 728.6 -80.93 718.21 -78.82 719.16 -85.76"/></g><g id="node17" class="node"><title>Node17</title><g id="a_node17"><a target="_top" xlink:href="Color_8hpp.html"><polygon fill="none" stroke="#000" points="787.6 -67.5 787.6 -86.5 844.6 -86.5 844.6 -67.5 787.6 -67.5"/><text x="816.1" y="-74.5" font-family="Helvetica,sans-Serif" font-size="10" text-anchor="middle">Color.hpp</text></a></g></g><g id="edge23" class="edge"><title>Node16-&gt;Node17</title><path fill="none" stroke="#191970" d="M305.15,-240.89C308.59,-216.82 322.02,-148.88 366.1,-123 442.8,-77.97 671.94,-100.08 777.44,-86.69"/><polygon fill="#191970" stroke="#191970" points="778.16 -90.12 787.56 -85.23 777.16 -83.19 778.16 -90.12"/></g><g id="node18" class="node"><title>Node18</title><g id="a_node18"><a target="_top" xlink:href="GraphicsFacade_8hpp.html"><polygon fill="none" stroke="#000" points="510.6 -123.5 510.6 -142.5 651.6 -142.5 651.6 -123.5 510.6 -123.5"/><text x="581.1" y="-130.5" font-family="Helvetica,sans-Serif" font-size="10" text-anchor="middle">Facade/GraphicsFacade.hpp</text></a></g></g><g id="edge25" class="edge"><title>Node16-&gt;Node18</title><path fill="none" stroke="#191970" d="M334.22,-247.83C377.7,-244.26 459.37,-233.19 519.1,-199 539.95,-187.07 558.16,-165.96 569.35,-151.04"/><polygon fill="#191970" stroke="#191970" points="572.37 -152.85 575.38 -142.69 566.69 -148.75 572.37 -152.85"/></g><g id="node24" class="node"><title>Node24</title><g id="a_node24"><a target="_top" xlink:href="TextureManager_8hpp.html"><polygon fill="none" stroke="#000" points="370.1 -179.5 370.1 -198.5 510.1 -198.5 510.1 -179.5 370.1 -179.5"/><text x="440.1" y="-186.5" font-family="Helvetica,sans-Serif" font-size="10" text-anchor="middle">Texture/TextureManager.hpp</text></a></g></g><g id="edge37" class="edge"><title>Node16-&gt;Node24</title><path fill="none" stroke="#191970" d="M323.59,-240.98C346.51,-230.95 384.79,-214.2 411.18,-202.65"/><polygon fill="#191970" stroke="#191970" points="412.89 -205.72 420.65 -198.51 410.09 -199.31 412.89 -205.72"/></g><g id="edge31" class="edge"><title>Node18-&gt;Node5</title><path fill="none" stroke="#191970" d="M601.19,-123.39C621.51,-114.59 653.72,-100.35 681.1,-87 698.26,-78.64 700.68,-71.99 719.1,-67 773.62,-52.24 1635.83,-23.7 1823.31,-17.64"/><polygon fill="#191970" stroke="#191970" points="1823.57 -21.14 1833.45 -17.32 1823.34 -14.14 1823.57 -21.14"/></g><g id="edge33" class="edge"><title>Node18-&gt;Node12</title><path fill="none" stroke="#191970" d="M607.72,-123.44C637.94,-113.73 687.15,-97.91 718.81,-87.74"/><polygon fill="#191970" stroke="#191970" points="719.98 -91.04 728.43 -84.64 717.84 -84.37 719.98 -91.04"/></g><g id="edge34" class="edge"><title>Node18-&gt;Node13</title><path fill="none" stroke="#191970" d="M651.66,-129.2C697.64,-127.4 758.93,-125.01 813.1,-123 1304.15,-104.75 1902.4,-84.08 2046.68,-79.11"/><polygon fill="#191970" stroke="#191970" points="2047.15 -82.6 2057.03 -78.76 2046.91 -75.6 2047.15 -82.6"/></g><g id="edge35" class="edge"><title>Node18-&gt;Node14</title><path fill="none" stroke="#191970" d="M651.75,-127.06C815.88,-115.6 1217.26,-87.56 1326.35,-79.94"/><polygon fill="#191970" stroke="#191970" points="1326.8 -83.42 1336.53 -79.23 1326.31 -76.43 1326.8 -83.42"/></g><g id="edge29" class="edge"><title>Node18-&gt;Node17</title><path fill="none" stroke="#191970" d="M618.89,-123.46C656.55,-114.93 716.29,-101.35 777.62,-87.1"/><polygon fill="#191970" stroke="#191970" points="778.53 -90.48 787.47 -84.81 776.94 -83.66 778.53 -90.48"/></g><g id="node19" class="node"><title>Node19</title><g id="a_node19"><a><polygon fill="none" stroke="#bfbfbf" points="277.6 -67.5 277.6 -86.5 348.6 -86.5 348.6 -67.5 277.6 -67.5"/><text x="313.1" y="-74.5" font-family="Helvetica,sans-Serif" font-size="10" text-anchor="middle">SDL2/SDL.h</text></a></g></g><g id="edge26" class="edge"><title>Node18-&gt;Node19</title><path fill="none" stroke="#191970" d="M538.15,-123.42C495.17,-114.82 426.86,-101.13 358.69,-87.32"/><polygon fill="#191970" stroke="#191970" points="359.14 -83.84 348.64 -85.28 357.75 -90.7 359.14 -83.84"/></g><g id="node20" class="node"><title>Node20</title><g id="a_node20"><a><polygon fill="none" stroke="#bfbfbf" points="366.6 -67.5 366.6 -86.5 469.6 -86.5 469.6 -67.5 366.6 -67.5"/><text x="418.1" y="-74.5" font-family="Helvetica,sans-Serif" font-size="10" text-anchor="middle">SDL2/SDL_image.h</text></a></g></g><g id="edge27" class="edge"><title>Node18-&gt;Node20</title><path fill="none" stroke="#191970" d="M555.27,-123.44C527.85,-114.36 484.32,-99.94 453.67,-89.78"/><polygon fill="#191970" stroke="#191970" points="454.4 -86.34 443.81 -86.52 452.2 -92.98 454.4 -86.34"/></g><g id="node21" class="node"><title>Node21</title><g id="a_node21"><a><polygon fill="none" stroke="#bfbfbf" points="488.1 -67.5 488.1 -86.5 542.1 -86.5 542.1 -67.5 488.1 -67.5"/><text x="515.1" y="-74.5" font-family="Helvetica,sans-Serif" font-size="10" text-anchor="middle">iostream</text></a></g></g><g id="edge28" class="edge"><title>Node18-&gt;Node21</title><path fill="none" stroke="#191970" d="M570.5,-123.32C560.65,-115.26 545.75,-103.08 533.89,-93.37"/><polygon fill="#191970" stroke="#191970" points="535.86 -90.46 525.9 -86.83 531.42 -95.88 535.86 -90.46"/></g><g id="node22" class="node"><title>Node22</title><g id="a_node22"><a target="_top" xlink:href="NumberUtil_8hpp.html"><polygon fill="none" stroke="#000" points="560.1 -67.5 560.1 -86.5 672.1 -86.5 672.1 -67.5 560.1 -67.5"/><text x="616.1" y="-74.5" font-family="Helvetica,sans-Serif" font-size="10" text-anchor="middle">Utility/NumberUtil.hpp</text></a></g></g><g id="edge30" class="edge"><title>Node18-&gt;Node22</title><path fill="none" stroke="#191970" d="M586.88,-123.08C591.77,-115.53 598.93,-104.49 604.93,-95.23"/><polygon fill="#191970" stroke="#191970" points="607.93 -97.05 610.43 -86.75 602.05 -93.24 607.93 -97.05"/></g><g id="node23" class="node"><title>Node23</title><g id="a_node23"><a><polygon fill="none" stroke="#bfbfbf" points="862.6 -67.5 862.6 -86.5 921.6 -86.5 921.6 -67.5 862.6 -67.5"/><text x="892.1" y="-74.5" font-family="Helvetica,sans-Serif" font-size="10" text-anchor="middle">functional</text></a></g></g><g id="edge32" class="edge"><title>Node18-&gt;Node23</title><path fill="none" stroke="#191970" d="M639.13,-123.48C692.06,-115.46 772.67,-102.65 852.14,-87.08"/><polygon fill="#191970" stroke="#191970" points="853.2 -90.44 862.33 -85.07 851.84 -83.58 853.2 -90.44"/></g><g id="edge38" class="edge"><title>Node24-&gt;Node12</title><path fill="none" stroke="#191970" d="M429.41,-179.46C414.16,-166.27 389.63,-140.62 405.1,-123 445.91,-76.52 619.78,-95.06 681.1,-87 693.31,-85.4 706.74,-83.62 718.42,-82.07"/><polygon fill="#191970" stroke="#191970" points="719.12 -85.51 728.57 -80.73 718.2 -78.57 719.12 -85.51"/></g><g id="edge40" class="edge"><title>Node24-&gt;Node18</title><path fill="none" stroke="#191970" d="M462.44,-179.44C485.86,-170.48 522.84,-156.31 549.29,-146.18"/><polygon fill="#191970" stroke="#191970" points="550.78 -149.36 558.86 -142.52 548.27 -142.82 550.78 -149.36"/></g><g id="node25" class="node"><title>Node25</title><g id="a_node25"><a><polygon fill="none" stroke="#bfbfbf" points="414.6 -123.5 414.6 -142.5 453.6 -142.5 453.6 -123.5 414.6 -123.5"/><text x="434.1" y="-130.5" font-family="Helvetica,sans-Serif" font-size="10" text-anchor="middle">utility</text></a></g></g><g id="edge39" class="edge"><title>Node24-&gt;Node25</title><path fill="none" stroke="#191970" d="M439.11,-179.08C438.32,-171.93 437.17,-161.64 436.18,-152.69"/><polygon fill="#191970" stroke="#191970" points="439.66 -152.3 435.07 -142.75 432.7 -153.08 439.66 -152.3"/></g><g id="edge59" class="edge"><title>Node26-&gt;Node6</title><path fill="none" stroke="#191970" d="M307.43,-376.61C234.5,-373.51 126.2,-363.7 100.1,-333 23.53,-242.93 22.32,-156.03 100.1,-67 120.5,-43.65 315.65,-27.17 415.24,-20.2"/><polygon fill="#191970" stroke="#191970" points="415.71 -23.68 425.44 -19.5 415.23 -16.69 415.71 -23.68"/></g><g id="edge58" class="edge"><title>Node26-&gt;Node10</title><path fill="none" stroke="#191970" d="M364.77,-369.34C342.73,-351.97 293.77,-310.71 265.1,-266 233.92,-217.37 232.43,-200.01 223.1,-143 220.59,-127.65 219.91,-110.01 219.82,-96.99"/><polygon fill="#191970" stroke="#191970" points="223.32 -96.91 219.86 -86.9 216.32 -96.88 223.32 -96.91"/></g><g id="edge44" class="edge"><title>Node26-&gt;Node11</title><path fill="none" stroke="#191970" d="M307.26,-373.84C229.64,-364.98 114.1,-337.37 114.1,-251.5 114.1,-251.5 114.1,-251.5 114.1,-132 114.1,-93.58 136.83,-84.37 171.1,-67 195.17,-54.81 583.82,-27.65 709.93,-19.12"/><polygon fill="#191970" stroke="#191970" points="710.53 -22.59 720.27 -18.42 710.06 -15.6 710.53 -22.59"/></g><g id="edge43" class="edge"><title>Node26-&gt;Node16</title><path fill="none" stroke="#191970" d="M371.15,-369.31C359.44,-348.72 329.82,-296.69 314.16,-269.18"/><polygon fill="#191970" stroke="#191970" points="317.07 -267.22 309.09 -260.26 310.99 -270.68 317.07 -267.22"/></g><g id="node27" class="node"><title>Node27</title><g id="a_node27"><a target="_top" xlink:href="Timer_8hpp.html"><polygon fill="none" stroke="#000" points="1045.6 -308 1045.6 -327 1132.6 -327 1132.6 -308 1045.6 -308"/><text x="1089.1" y="-315" font-family="Helvetica,sans-Serif" font-size="10" text-anchor="middle">Timer/Timer.hpp</text></a></g></g><g id="edge45" class="edge"><title>Node26-&gt;Node27</title><path fill="none" stroke="#191970" d="M444.79,-372.27C586.18,-360.47 907.2,-333.68 1035.07,-323.01"/><polygon fill="#191970" stroke="#191970" points="1035.71 -326.47 1045.39 -322.15 1035.13 -319.49 1035.71 -326.47"/></g><g id="node29" class="node"><title>Node29</title><g id="a_node29"><a target="_top" xlink:href="Window_8hpp.html"><polygon fill="none" stroke="#000" points="647.6 -308 647.6 -327 750.6 -327 750.6 -308 647.6 -308"/><text x="699.1" y="-315" font-family="Helvetica,sans-Serif" font-size="10" text-anchor="middle">Render/Window.hpp</text></a></g></g><g id="edge47" class="edge"><title>Node26-&gt;Node29</title><path fill="none" stroke="#191970" d="M422.38,-369.48C480.54,-358.76 580.31,-340.38 642.83,-328.87"/><polygon fill="#191970" stroke="#191970" points="643.71 -332.26 652.91 -327.01 642.44 -325.38 643.71 -332.26"/></g><g id="node28" class="node"><title>Node28</title><g id="a_node28"><a><polygon fill="none" stroke="#bfbfbf" points="1487.1 -67.5 1487.1 -86.5 1533.1 -86.5 1533.1 -67.5 1487.1 -67.5"/><text x="1510.1" y="-74.5" font-family="Helvetica,sans-Serif" font-size="10" text-anchor="middle">cstdint</text></a></g></g><g id="edge46" class="edge"><title>Node27-&gt;Node28</title><path fill="none" stroke="#191970" d="M1107.56,-307.85C1122.91,-299.53 1143.72,-285.36 1153.1,-266 1159.11,-253.6 1157.72,-247.98 1153.1,-235 1133.01,-178.56 1038,-167.5 1078.1,-123 1091.45,-108.19 1377.72,-87.13 1476.75,-80.26"/><polygon fill="#191970" stroke="#191970" points="1477.07 -83.75 1486.81 -79.57 1476.59 -76.76 1477.07 -83.75"/></g><g id="edge48" class="edge"><title>Node29-&gt;Node12</title><path fill="none" stroke="#191970" d="M698.3,-307.98C696.49,-286.18 693.05,-226.7 704.1,-179 711.26,-148.11 727.92,-115.02 738.84,-95.44"/><polygon fill="#191970" stroke="#191970" points="742.02 -96.94 743.94 -86.52 735.94 -93.46 742.02 -96.94"/></g><g id="edge49" class="edge"><title>Node29-&gt;Node17</title><path fill="none" stroke="#191970" d="M703.01,-307.89C709.81,-292.99 724.3,-261.41 737.1,-235 761.74,-184.15 792.07,-124.72 806.96,-95.73"/><polygon fill="#191970" stroke="#191970" points="810.09 -97.3 811.55 -86.81 803.87 -94.1 810.09 -97.3"/></g><g id="edge50" class="edge"><title>Node29-&gt;Node18</title><path fill="none" stroke="#191970" d="M693.48,-307.93C686.9,-297.9 675.68,-280.76 666.1,-266 639.4,-224.84 608.22,-176.3 592.07,-151.11"/><polygon fill="#191970" stroke="#191970" points="595 -149.19 586.65 -142.66 589.1 -152.97 595 -149.19"/></g><g id="edge51" class="edge"><title>Node29-&gt;Node24</title><path fill="none" stroke="#191970" d="M681.3,-307.81C636.65,-286 519.7,-228.88 466.79,-203.03"/><polygon fill="#191970" stroke="#191970" points="468.21 -199.83 457.69 -198.59 465.14 -206.12 468.21 -199.83"/></g><g id="node30" class="node"><title>Node30</title><g id="a_node30"><a target="_top" xlink:href="Scene_8hpp.html"><polygon fill="none" stroke="#000" points="1082.1 -241 1082.1 -260 1144.1 -260 1144.1 -241 1082.1 -241"/><text x="1113.1" y="-248" font-family="Helvetica,sans-Serif" font-size="10" text-anchor="middle">Scene.hpp</text></a></g></g><g id="edge52" class="edge"><title>Node29-&gt;Node30</title><path fill="none" stroke="#191970" d="M750.87,-313.02C823.66,-307.34 960.01,-293.8 1073.1,-266 1076.16,-265.25 1079.31,-264.35 1082.43,-263.36"/><polygon fill="#191970" stroke="#191970" points="1083.85 -266.57 1092.19 -260.03 1081.59 -259.95 1083.85 -266.57"/></g><g id="node32" class="node"><title>Node32</title><g id="a_node32"><a><polygon fill="none" stroke="#bfbfbf" points="746.1 -241 746.1 -260 858.1 -260 858.1 -241 746.1 -241"/><text x="802.1" y="-248" font-family="Helvetica,sans-Serif" font-size="10" text-anchor="middle">Events/EventsEnum.h</text></a></g></g><g id="edge57" class="edge"><title>Node29-&gt;Node32</title><path fill="none" stroke="#191970" d="M712.99,-307.73C730.14,-296.92 759.5,-278.38 779.81,-265.57"/><polygon fill="#191970" stroke="#191970" points="781.84 -268.42 788.43 -260.13 778.11 -262.5 781.84 -268.42"/></g><g id="edge53" class="edge"><title>Node30-&gt;Node3</title><path fill="none" stroke="#191970" d="M1103.48,-240.82C1081.98,-221.42 1029.8,-174.33 1002.46,-149.66"/><polygon fill="#191970" stroke="#191970" points="1004.6 -146.88 994.83 -142.78 999.91 -152.08 1004.6 -146.88"/></g><g id="node31" class="node"><title>Node31</title><g id="a_node31"><a target="_top" xlink:href="Camera_8hpp.html"><polygon fill="none" stroke="#000" points="952.1 -179.5 952.1 -198.5 1020.1 -198.5 1020.1 -179.5 952.1 -179.5"/><text x="986.1" y="-186.5" font-family="Helvetica,sans-Serif" font-size="10" text-anchor="middle">Camera.hpp</text></a></g></g><g id="edge54" class="edge"><title>Node30-&gt;Node31</title><path fill="none" stroke="#191970" d="M1094.91,-240.98C1073.59,-230.99 1038.07,-214.35 1013.44,-202.81"/><polygon fill="#191970" stroke="#191970" points="1014.8 -199.58 1004.26 -198.51 1011.83 -205.92 1014.8 -199.58"/></g><g id="edge55" class="edge"><title>Node31-&gt;Node3</title><path fill="none" stroke="#191970" d="M985.94,-179.08C985.81,-172.01 985.62,-161.86 985.45,-152.99"/><polygon fill="#191970" stroke="#191970" points="988.95 -152.68 985.26 -142.75 981.95 -152.81 988.95 -152.68"/></g><g id="edge56" class="edge"><title>Node31-&gt;Node17</title><path fill="none" stroke="#191970" d="M952.03,-184.05C906.6,-178 829.95,-164.79 813.1,-143 802.97,-129.9 805.43,-110.48 809.38,-96.28"/><polygon fill="#191970" stroke="#191970" points="812.75 -97.22 812.51 -86.63 806.09 -95.06 812.75 -97.22"/></g><g id="edge88" class="edge"><title>Node33-&gt;Node2</title><path fill="none" stroke="#191970" d="M1146.09,-537.44C1092.57,-527.9 1006.04,-512.48 948.86,-502.29"/><polygon fill="#191970" stroke="#191970" points="949.35 -498.83 938.89 -500.52 948.12 -505.72 949.35 -498.83"/></g><g id="edge86" class="edge"><title>Node33-&gt;Node5</title><path fill="none" stroke="#191970" d="M1242.44,-544.2C1468.23,-535.48 2408.1,-495.59 2408.1,-436 2408.1,-436 2408.1,-436 2408.1,-132 2408.1,-26.82 2017.33,-16.9 1895.16,-16.37"/><polygon fill="#191970" stroke="#191970" points="1894.85 -12.87 1884.85 -16.35 1894.84 -19.87 1894.85 -12.87"/></g><g id="edge65" class="edge"><title>Node33-&gt;Node27</title><path fill="none" stroke="#191970" d="M1182.05,-537.29C1171.44,-529.05 1156.31,-515.76 1147.1,-501 1113.45,-447.01 1097.7,-371.76 1091.89,-337.2"/><polygon fill="#191970" stroke="#191970" points="1095.32 -336.46 1090.29 -327.13 1088.4 -337.56 1095.32 -336.46"/></g><g id="edge64" class="edge"><title>Node33-&gt;Node29</title><path fill="none" stroke="#191970" d="M1175.6,-537.5C1100.4,-502.94 817.4,-372.87 727.03,-331.33"/><polygon fill="#191970" stroke="#191970" points="728.24 -328.04 717.7 -327.05 725.32 -334.4 728.24 -328.04"/></g><g id="edge87" class="edge"><title>Node33-&gt;Node30</title><path fill="none" stroke="#191970" d="M1189.65,-537.42C1180.64,-519.24 1161.1,-475.28 1161.1,-436 1161.1,-436 1161.1,-436 1161.1,-378 1161.1,-343.18 1155.12,-334.29 1142.1,-302 1137.4,-290.33 1130.41,-278.06 1124.47,-268.54"/><polygon fill="#191970" stroke="#191970" points="1127.37 -266.57 1119.01 -260.06 1121.48 -270.37 1127.37 -266.57"/></g><g id="node34" class="node"><title>Node34</title><g id="a_node34"><a target="_top" xlink:href="PhysicsSystem_8hpp.html"><polygon fill="none" stroke="#000" points="2058.1 -241 2058.1 -260 2198.1 -260 2198.1 -241 2058.1 -241"/><text x="2128.1" y="-248" font-family="Helvetica,sans-Serif" font-size="10" text-anchor="middle">Physics/PhysicsSystem.hpp</text></a></g></g><g id="edge66" class="edge"><title>Node33-&gt;Node34</title><path fill="none" stroke="#191970" d="M1242.13,-542.16C1383.3,-530.24 1787.1,-491.3 1787.1,-436 1787.1,-436 1787.1,-436 1787.1,-378 1787.1,-319.55 1965.46,-279.48 2064.19,-261.77"/><polygon fill="#191970" stroke="#191970" points="2064.83 -265.22 2074.07 -260.03 2063.61 -258.32 2064.83 -265.22"/></g><g id="node38" class="node"><title>Node38</title><g id="a_node38"><a target="_top" xlink:href="GameLevel_8hpp.html"><polygon fill="none" stroke="#000" points="2436.1 -123.5 2436.1 -142.5 2574.1 -142.5 2574.1 -123.5 2436.1 -123.5"/><text x="2505.1" y="-130.5" font-family="Helvetica,sans-Serif" font-size="10" text-anchor="middle">GameLevel/GameLevel.hpp</text></a></g></g><g id="edge82" class="edge"><title>Node33-&gt;Node38</title><path fill="none" stroke="#191970" d="M1242.13,-545.35C1462.51,-542.2 2368.44,-527.7 2422.1,-501 2455.47,-484.4 2475.1,-473.28 2475.1,-436 2475.1,-436 2475.1,-436 2475.1,-249.5 2475.1,-214.09 2488.48,-174.47 2497.37,-152.05"/><polygon fill="#191970" stroke="#191970" points="2500.61 -153.36 2501.18 -142.78 2494.14 -150.7 2500.61 -153.36"/></g><g id="node40" class="node"><title>Node40</title><g id="a_node40"><a target="_top" xlink:href="ServerNetworkManager_8hpp.html"><polygon fill="none" stroke="#000" points="1189.1 -302.5 1189.1 -332.5 1323.1 -332.5 1323.1 -302.5 1189.1 -302.5"/><text x="1197.1" y="-320.5" font-family="Helvetica,sans-Serif" font-size="10" text-anchor="start">Networking/ServerNetwork</text><text x="1256.1" y="-309.5" font-family="Helvetica,sans-Serif" font-size="10" text-anchor="middle">Manager.hpp</text></a></g></g><g id="edge89" class="edge"><title>Node33-&gt;Node40</title><path fill="none" stroke="#191970" d="M1196.46,-537.36C1205.19,-505.3 1235.95,-392.44 1249.55,-342.53"/><polygon fill="#191970" stroke="#191970" points="1253 -343.19 1252.25 -332.62 1246.25 -341.35 1253 -343.19"/></g><g id="node50" class="node"><title>Node50</title><g id="a_node50"><a target="_top" xlink:href="ClientNetworkManager_8hpp.html"><polygon fill="none" stroke="#000" points="1444.6 -235.5 1444.6 -265.5 1575.6 -265.5 1575.6 -235.5 1444.6 -235.5"/><text x="1452.6" y="-253.5" font-family="Helvetica,sans-Serif" font-size="10" text-anchor="start">Networking/ClientNetwork</text><text x="1510.1" y="-242.5" font-family="Helvetica,sans-Serif" font-size="10" text-anchor="middle">Manager.hpp</text></a></g></g><g id="edge111" class="edge"><title>Node33-&gt;Node50</title><path fill="none" stroke="#191970" d="M1242.13,-542.23C1305.22,-534.36 1408.1,-510.15 1408.1,-436 1408.1,-436 1408.1,-436 1408.1,-378 1408.1,-332.29 1448.95,-293.78 1478.95,-271.65"/><polygon fill="#191970" stroke="#191970" points="1481.35 -274.24 1487.47 -265.59 1477.29 -268.54 1481.35 -274.24"/></g><g id="edge76" class="edge"><title>Node34-&gt;Node3</title><path fill="none" stroke="#191970" d="M2057.99,-247.77C1979.21,-244.14 1848.32,-233 1741.1,-199 1722.91,-193.23 1721.49,-184.11 1703.1,-179 1569.06,-141.76 1216.81,-153.7 1078.1,-143 1065.85,-142.05 1052.7,-140.88 1040.26,-139.69"/><polygon fill="#191970" stroke="#191970" points="1040.3 -136.18 1030.01 -138.7 1039.62 -143.15 1040.3 -136.18"/></g><g id="edge67" class="edge"><title>Node34-&gt;Node5</title><path fill="none" stroke="#191970" d="M2198.15,-243.08C2256.2,-236.13 2332.15,-222.73 2351.1,-199 2380.21,-162.57 2431.68,-162.35 2313.1,-67 2280.68,-40.93 1996.42,-23.67 1894.92,-18.29"/><polygon fill="#191970" stroke="#191970" points="1895.02 -14.79 1884.85 -17.77 1894.66 -21.78 1895.02 -14.79"/></g><g id="edge70" class="edge"><title>Node34-&gt;Node11</title><path fill="none" stroke="#191970" d="M2092.23,-241C2066.47,-233.43 2032.19,-220.22 2008.1,-199 1978.81,-173.2 1996.56,-144.68 1964.1,-123 1866.3,-57.66 983.59,-33.44 947.1,-31 891.7,-27.3 827.61,-22.51 787.71,-19.47"/><polygon fill="#191970" stroke="#191970" points="787.86 -15.97 777.62 -18.7 787.33 -22.95 787.86 -15.97"/></g><g id="edge69" class="edge"><title>Node34-&gt;Node13</title><path fill="none" stroke="#191970" d="M2142.21,-240.68C2154.82,-231.88 2172.46,-217.08 2180.1,-199 2193.26,-167.89 2198.5,-151.33 2180.1,-123 2164.99,-99.72 2134.72,-88.38 2111.25,-82.92"/><polygon fill="#191970" stroke="#191970" points="2111.84 -79.47 2101.34 -80.86 2110.42 -86.32 2111.84 -79.47"/></g><g id="edge68" class="edge"><title>Node34-&gt;Node14</title><path fill="none" stroke="#191970" d="M2133.59,-240.71C2147.09,-217.88 2178.57,-156.21 2147.1,-123 2121.5,-95.98 1515.25,-89.35 1478.1,-87 1445.08,-84.91 1407.13,-82.1 1382.01,-80.18"/><polygon fill="#191970" stroke="#191970" points="1381.99 -76.66 1371.75 -79.39 1381.46 -83.64 1381.99 -76.66"/></g><g id="node35" class="node"><title>Node35</title><g id="a_node35"><a target="_top" xlink:href="Collider_8hpp.html"><polygon fill="none" stroke="#000" points="2070.6 -123.5 2070.6 -142.5 2137.6 -142.5 2137.6 -123.5 2070.6 -123.5"/><text x="2104.1" y="-130.5" font-family="Helvetica,sans-Serif" font-size="10" text-anchor="middle">Collider.hpp</text></a></g></g><g id="edge71" class="edge"><title>Node34-&gt;Node35</title><path fill="none" stroke="#191970" d="M2126.3,-240.82C2122.42,-222.17 2113.23,-177.94 2107.97,-152.63"/><polygon fill="#191970" stroke="#191970" points="2111.39 -151.86 2105.93 -142.78 2104.53 -153.28 2111.39 -151.86"/></g><g id="node36" class="node"><title>Node36</title><g id="a_node36"><a target="_top" xlink:href="BoxCollider_8hpp.html"><polygon fill="none" stroke="#000" points="2016.6 -179.5 2016.6 -198.5 2099.6 -198.5 2099.6 -179.5 2016.6 -179.5"/><text x="2058.1" y="-186.5" font-family="Helvetica,sans-Serif" font-size="10" text-anchor="middle">BoxCollider.hpp</text></a></g></g><g id="edge74" class="edge"><title>Node34-&gt;Node36</title><path fill="none" stroke="#191970" d="M2118.07,-240.98C2107.05,-231.61 2089.14,-216.38 2075.76,-205.01"/><polygon fill="#191970" stroke="#191970" points="2078 -202.32 2068.11 -198.51 2073.47 -207.65 2078 -202.32"/></g><g id="node37" class="node"><title>Node37</title><g id="a_node37"><a target="_top" xlink:href="Collision_8hpp.html"><polygon fill="none" stroke="#000" points="2232.6 -179.5 2232.6 -198.5 2341.6 -198.5 2341.6 -179.5 2232.6 -179.5"/><text x="2287.1" y="-186.5" font-family="Helvetica,sans-Serif" font-size="10" text-anchor="middle">Physics/Collision.hpp</text></a></g></g><g id="edge77" class="edge"><title>Node34-&gt;Node37</title><path fill="none" stroke="#191970" d="M2150.88,-240.98C2178.16,-230.77 2224.02,-213.61 2254.9,-202.05"/><polygon fill="#191970" stroke="#191970" points="2256.22 -205.29 2264.36 -198.51 2253.77 -198.74 2256.22 -205.29"/></g><g id="edge73" class="edge"><title>Node35-&gt;Node4</title><path fill="none" stroke="#191970" d="M2070.42,-130.03C2038.63,-128.17 1989.63,-125.34 1947.1,-123 1644.7,-106.34 1281.78,-87.55 1148.48,-80.69"/><polygon fill="#191970" stroke="#191970" points="1148.33 -77.18 1138.17 -80.16 1147.97 -84.17 1148.33 -77.18"/></g><g id="edge72" class="edge"><title>Node35-&gt;Node13</title><path fill="none" stroke="#191970" d="M2099.97,-123.08C2096.59,-115.77 2091.69,-105.18 2087.48,-96.1"/><polygon fill="#191970" stroke="#191970" points="2090.53 -94.36 2083.15 -86.75 2084.18 -97.3 2090.53 -94.36"/></g><g id="edge75" class="edge"><title>Node36-&gt;Node35</title><path fill="none" stroke="#191970" d="M2065.7,-179.08C2072.33,-171.3 2082.12,-159.8 2090.16,-150.37"/><polygon fill="#191970" stroke="#191970" points="2092.83 -152.63 2096.65 -142.75 2087.5 -148.09 2092.83 -152.63"/></g><g id="edge78" class="edge"><title>Node37-&gt;Node5</title><path fill="none" stroke="#191970" d="M2291.24,-179.34C2301.04,-157.43 2322.79,-99.21 2294.1,-67 2267.67,-37.32 1994.13,-22.43 1894.85,-17.97"/><polygon fill="#191970" stroke="#191970" points="1894.86 -14.47 1884.71 -17.53 1894.55 -21.46 1894.86 -14.47"/></g><g id="edge81" class="edge"><title>Node37-&gt;Node6</title><path fill="none" stroke="#191970" d="M2278.58,-179.22C2254.72,-155.35 2184.15,-89.6 2110.1,-67 1961.38,-21.61 866.45,-37.73 711.1,-31 649.65,-28.34 579.35,-23.88 531.18,-20.61"/><polygon fill="#191970" stroke="#191970" points="531.16 -17.1 520.94 -19.91 530.68 -24.08 531.16 -17.1"/></g><g id="edge79" class="edge"><title>Node37-&gt;Node11</title><path fill="none" stroke="#191970" d="M2287.99,-179.48C2289.8,-156.83 2291.18,-95.01 2256.1,-67 2199.25,-21.61 1019.76,-34.66 947.1,-31 891.64,-28.21 827.57,-23.19 787.69,-19.85"/><polygon fill="#191970" stroke="#191970" points="787.86 -16.35 777.6 -19 787.27 -23.33 787.86 -16.35"/></g><g id="edge80" class="edge"><title>Node37-&gt;Node35</title><path fill="none" stroke="#191970" d="M2258.11,-179.44C2226.92,-170.24 2177.17,-155.56 2142.69,-145.39"/><polygon fill="#191970" stroke="#191970" points="2143.55 -141.99 2132.96 -142.52 2141.56 -148.7 2143.55 -141.99"/></g><g id="edge85" class="edge"><title>Node38-&gt;Node5</title><path fill="none" stroke="#191970" d="M2497.42,-123.36C2483.86,-108.78 2454.1,-79.66 2422.1,-67 2325.41,-28.72 2002.93,-19.21 1894.8,-17.07"/><polygon fill="#191970" stroke="#191970" points="1894.79 -13.57 1884.72 -16.88 1894.66 -20.57 1894.79 -13.57"/></g><g id="edge84" class="edge"><title>Node38-&gt;Node13</title><path fill="none" stroke="#191970" d="M2437.6,-123.44C2344.74,-111.67 2181.19,-90.94 2111.76,-82.14"/><polygon fill="#191970" stroke="#191970" points="2111.81 -78.62 2101.44 -80.83 2110.92 -85.56 2111.81 -78.62"/></g><g id="node39" class="node"><title>Node39</title><g id="a_node39"><a target="_top" xlink:href="Layer_8hpp.html"><polygon fill="none" stroke="#000" points="2475.6 -67.5 2475.6 -86.5 2534.6 -86.5 2534.6 -67.5 2475.6 -67.5"/><text x="2505.1" y="-74.5" font-family="Helvetica,sans-Serif" font-size="10" text-anchor="middle">Layer.hpp</text></a></g></g><g id="edge83" class="edge"><title>Node38-&gt;Node39</title><path fill="none" stroke="#191970" d="M2505.1,-123.08C2505.1,-116.01 2505.1,-105.86 2505.1,-96.99"/><polygon fill="#191970" stroke="#191970" points="2508.6 -96.75 2505.1 -86.75 2501.6 -96.75 2508.6 -96.75"/></g><g id="edge93" class="edge"><title>Node40-&gt;Node3</title><path fill="none" stroke="#191970" d="M1239.46,-302.29C1219.49,-285.48 1184.73,-257.02 1153.1,-235 1113.81,-207.65 1102.14,-203.64 1061.1,-179 1043.47,-168.41 1023.44,-156.56 1008.38,-147.68"/><polygon fill="#191970" stroke="#191970" points="1010.1 -144.63 999.7 -142.57 1006.54 -150.66 1010.1 -144.63"/></g><g id="edge90" class="edge"><title>Node40-&gt;Node13</title><path fill="none" stroke="#191970" d="M1323.32,-313.37C1439.83,-305.87 1684.86,-280.87 1873.1,-199 1944.63,-167.89 2022.24,-117.19 2058.39,-92.47"/><polygon fill="#191970" stroke="#191970" points="2060.41 -95.33 2066.66 -86.77 2056.44 -89.56 2060.41 -95.33"/></g><g id="edge110" class="edge"><title>Node40-&gt;Node30</title><path fill="none" stroke="#191970" d="M1225.07,-302.4C1200.09,-291.04 1165.29,-275.22 1141.14,-264.24"/><polygon fill="#191970" stroke="#191970" points="1142.37 -260.96 1131.82 -260.01 1139.47 -267.33 1142.37 -260.96"/></g><g id="node41" class="node"><title>Node41</title><g id="a_node41"><a target="_top" xlink:href="Client_8hpp.html"><polygon fill="none" stroke="#000" points="952.1 -241 952.1 -260 1064.1 -260 1064.1 -241 952.1 -241"/><text x="1008.1" y="-248" font-family="Helvetica,sans-Serif" font-size="10" text-anchor="middle">Networking/Client.hpp</text></a></g></g><g id="edge91" class="edge"><title>Node40-&gt;Node41</title><path fill="none" stroke="#191970" d="M1202.6,-302.48C1157.08,-290.55 1092.59,-273.64 1050.56,-262.63"/><polygon fill="#191970" stroke="#191970" points="1051.2 -259.18 1040.64 -260.03 1049.43 -265.95 1051.2 -259.18"/></g><g id="node42" class="node"><title>Node42</title><g id="a_node42"><a target="_top" xlink:href="ProtocolPackages_8hpp.html"><polygon fill="none" stroke="#000" points="1750.1 -179.5 1750.1 -198.5 1864.1 -198.5 1864.1 -179.5 1750.1 -179.5"/><text x="1807.1" y="-186.5" font-family="Helvetica,sans-Serif" font-size="10" text-anchor="middle">ProtocolPackages.hpp</text></a></g></g><g id="edge94" class="edge"><title>Node40-&gt;Node42</title><path fill="none" stroke="#191970" d="M1323.27,-309.73C1390.24,-302.15 1495.74,-287.97 1585.1,-266 1655.05,-248.8 1734.29,-219.1 1776.6,-202.38"/><polygon fill="#191970" stroke="#191970" points="1778.05 -205.57 1786.05 -198.62 1775.46 -199.07 1778.05 -205.57"/></g><g id="node45" class="node"><title>Node45</title><g id="a_node45"><a target="_top" xlink:href="NetworkingFacade_8hpp.html"><polygon fill="none" stroke="#000" points="1284.1 -179.5 1284.1 -198.5 1436.1 -198.5 1436.1 -179.5 1284.1 -179.5"/><text x="1360.1" y="-186.5" font-family="Helvetica,sans-Serif" font-size="10" text-anchor="middle">Facade/NetworkingFacade.hpp</text></a></g></g><g id="edge98" class="edge"><title>Node40-&gt;Node45</title><path fill="none" stroke="#191970" d="M1267.63,-302.48C1286.93,-279 1325.7,-231.84 1346.38,-206.69"/><polygon fill="#191970" stroke="#191970" points="1349.23 -208.74 1352.88 -198.79 1343.82 -204.29 1349.23 -208.74"/></g><g id="edge92" class="edge"><title>Node41-&gt;Node12</title><path fill="none" stroke="#191970" d="M984.82,-240.96C944.85,-225.57 861.81,-190.31 803.1,-143 785.86,-129.1 770.18,-109 760.21,-94.84"/><polygon fill="#191970" stroke="#191970" points="763.06 -92.8 754.53 -86.51 757.28 -96.74 763.06 -92.8"/></g><g id="edge95" class="edge"><title>Node42-&gt;Node28</title><path fill="none" stroke="#191970" d="M1864.46,-180.7C1914.73,-172.05 1975.65,-154.63 1947.1,-123 1920.17,-93.15 1641.16,-81.95 1543.58,-78.92"/><polygon fill="#191970" stroke="#191970" points="1543.49 -75.42 1533.39 -78.61 1543.28 -82.41 1543.49 -75.42"/></g><g id="node43" class="node"><title>Node43</title><g id="a_node43"><a><polygon fill="none" stroke="#bfbfbf" points="1648.6 -123.5 1648.6 -142.5 1803.6 -142.5 1803.6 -123.5 1648.6 -123.5"/><text x="1726.1" y="-130.5" font-family="Helvetica,sans-Serif" font-size="10" text-anchor="middle">boost/asio/basic_streambuf.hpp</text></a></g></g><g id="edge96" class="edge"><title>Node42-&gt;Node43</title><path fill="none" stroke="#191970" d="M1794.09,-179.32C1781.57,-170.98 1762.42,-158.21 1747.63,-148.35"/><polygon fill="#191970" stroke="#191970" points="1749.35 -145.29 1739.08 -142.65 1745.46 -151.11 1749.35 -145.29"/></g><g id="node44" class="node"><title>Node44</title><g id="a_node44"><a target="_top" xlink:href="ProtocolDefinitions_8hpp.html"><polygon fill="none" stroke="#000" points="1822.1 -123.5 1822.1 -142.5 1938.1 -142.5 1938.1 -123.5 1822.1 -123.5"/><text x="1880.1" y="-130.5" font-family="Helvetica,sans-Serif" font-size="10" text-anchor="middle">ProtocolDefinitions.hpp</text></a></g></g><g id="edge97" class="edge"><title>Node42-&gt;Node44</title><path fill="none" stroke="#191970" d="M1818.83,-179.32C1829.94,-171.11 1846.84,-158.6 1860.09,-148.81"/><polygon fill="#191970" stroke="#191970" points="1862.2 -151.59 1868.16 -142.83 1858.04 -145.97 1862.2 -151.59"/></g><g id="edge104" class="edge"><title>Node45-&gt;Node5</title><path fill="none" stroke="#191970" d="M1365.39,-179.27C1379.97,-156.13 1423.29,-93.18 1478.1,-67 1538.88,-37.97 1740.78,-23.32 1823.39,-18.42"/><polygon fill="#191970" stroke="#191970" points="1823.77 -21.91 1833.55 -17.84 1823.36 -14.92 1823.77 -21.91"/></g><g id="edge105" class="edge"><title>Node45-&gt;Node14</title><path fill="none" stroke="#191970" d="M1359.63,-179.37C1358.66,-161.62 1356.43,-120.67 1355.12,-96.6"/><polygon fill="#191970" stroke="#191970" points="1358.61 -96.39 1354.57 -86.59 1351.62 -96.77 1358.61 -96.39"/></g><g id="node46" class="node"><title>Node46</title><g id="a_node46"><a><polygon fill="none" stroke="#bfbfbf" points="1086.6 -123.5 1086.6 -142.5 1151.6 -142.5 1151.6 -123.5 1086.6 -123.5"/><text x="1119.1" y="-130.5" font-family="Helvetica,sans-Serif" font-size="10" text-anchor="middle">enet/enet.h</text></a></g></g><g id="edge99" class="edge"><title>Node45-&gt;Node46</title><path fill="none" stroke="#191970" d="M1321.91,-179.44C1278.23,-169.66 1206.91,-153.67 1161.53,-143.51"/><polygon fill="#191970" stroke="#191970" points="1162.22 -140.08 1151.7 -141.3 1160.69 -146.91 1162.22 -140.08"/></g><g id="node47" class="node"><title>Node47</title><g id="a_node47"><a target="_top" xlink:href="Debug_8hpp.html"><polygon fill="none" stroke="#000" points="822.1 -123.5 822.1 -142.5 884.1 -142.5 884.1 -123.5 822.1 -123.5"/><text x="853.1" y="-130.5" font-family="Helvetica,sans-Serif" font-size="10" text-anchor="middle">Debug.hpp</text></a></g></g><g id="edge100" class="edge"><title>Node45-&gt;Node47</title><path fill="none" stroke="#191970" d="M1283.74,-180.23C1197.93,-171.45 1054.48,-156.59 931.1,-143 919.16,-141.68 906.19,-140.21 894.31,-138.84"/><polygon fill="#191970" stroke="#191970" points="894.55 -135.34 884.22 -137.67 893.75 -142.29 894.55 -135.34"/></g><g id="node48" class="node"><title>Node48</title><g id="a_node48"><a target="_top" xlink:href="INetworkManager_8hpp.html"><polygon fill="none" stroke="#000" points="1428.1 -123.5 1428.1 -142.5 1592.1 -142.5 1592.1 -123.5 1428.1 -123.5"/><text x="1510.1" y="-130.5" font-family="Helvetica,sans-Serif" font-size="10" text-anchor="middle">Networking/INetworkManager.hpp</text></a></g></g><g id="edge106" class="edge"><title>Node45-&gt;Node48</title><path fill="none" stroke="#191970" d="M1383.87,-179.44C1408.99,-170.4 1448.81,-156.06 1477,-145.92"/><polygon fill="#191970" stroke="#191970" points="1478.22 -149.2 1486.45 -142.52 1475.85 -142.61 1478.22 -149.2"/></g><g id="node49" class="node"><title>Node49</title><g id="a_node49"><a target="_top" xlink:href="ConnectionStatus_8hpp.html"><polygon fill="none" stroke="#000" points="1170.1 -123.5 1170.1 -142.5 1334.1 -142.5 1334.1 -123.5 1170.1 -123.5"/><text x="1252.1" y="-130.5" font-family="Helvetica,sans-Serif" font-size="10" text-anchor="middle">Networking/ConnectionStatus.hpp</text></a></g></g><g id="edge109" class="edge"><title>Node45-&gt;Node49</title><path fill="none" stroke="#191970" d="M1342.75,-179.32C1325.43,-170.66 1298.59,-157.24 1278.6,-147.25"/><polygon fill="#191970" stroke="#191970" points="1279.92 -144 1269.41 -142.65 1276.79 -150.26 1279.92 -144"/></g><g id="edge101" class="edge"><title>Node47-&gt;Node11</title><path fill="none" stroke="#191970" d="M878.41,-123.34C907.28,-112.07 948.3,-90.97 930.1,-67 912.96,-44.43 835.71,-29.23 787.84,-21.8"/><polygon fill="#191970" stroke="#191970" points="788.22 -18.32 777.81 -20.29 787.18 -25.24 788.22 -18.32"/></g><g id="edge103" class="edge"><title>Node47-&gt;Node12</title><path fill="none" stroke="#191970" d="M836.39,-123.32C819.79,-114.7 794.1,-101.36 774.88,-91.39"/><polygon fill="#191970" stroke="#191970" points="776.26 -88.16 765.77 -86.65 773.03 -94.37 776.26 -88.16"/></g><g id="edge102" class="edge"><title>Node47-&gt;Node17</title><path fill="none" stroke="#191970" d="M846.99,-123.08C841.82,-115.53 834.26,-104.49 827.91,-95.23"/><polygon fill="#191970" stroke="#191970" points="830.64 -93.02 822.1 -86.75 824.86 -96.98 830.64 -93.02"/></g><g id="edge108" class="edge"><title>Node48-&gt;Node23</title><path fill="none" stroke="#191970" d="M1428.04,-124.83C1293.72,-113.09 1031.89,-90.21 932.07,-81.49"/><polygon fill="#191970" stroke="#191970" points="932.09 -77.98 921.82 -80.6 931.48 -84.95 932.09 -77.98"/></g><g id="edge107" class="edge"><title>Node48-&gt;Node28</title><path fill="none" stroke="#191970" d="M1510.1,-123.08C1510.1,-116.01 1510.1,-105.86 1510.1,-96.99"/><polygon fill="#191970" stroke="#191970" points="1513.6 -96.75 1510.1 -86.75 1506.6 -96.75 1513.6 -96.75"/></g><g id="edge112" class="edge"><title>Node50-&gt;Node3</title><path fill="none" stroke="#191970" d="M1444.51,-238.48C1396.95,-229.74 1331.38,-216.17 1275.1,-199 1252.21,-192.02 1248.08,-185.68 1225.1,-179 1162.78,-160.88 1089.15,-148.34 1040.04,-141.18"/><polygon fill="#191970" stroke="#191970" points="1040.34 -137.69 1029.95 -139.74 1039.35 -144.62 1040.34 -137.69"/></g><g id="edge116" class="edge"><title>Node50-&gt;Node14</title><path fill="none" stroke="#191970" d="M1533.43,-235.35C1570.02,-211.44 1633.51,-161.85 1601.1,-123 1587.11,-106.23 1443.57,-88.13 1381.96,-81.07"/><polygon fill="#191970" stroke="#191970" points="1382.12 -77.56 1371.79 -79.92 1381.33 -84.52 1382.12 -77.56"/></g><g id="edge113" class="edge"><title>Node50-&gt;Node42</title><path fill="none" stroke="#191970" d="M1575.65,-236.37C1629.51,-225.58 1704.8,-210.5 1754.71,-200.5"/><polygon fill="#191970" stroke="#191970" points="1755.53 -203.9 1764.64 -198.51 1754.15 -197.04 1755.53 -203.9"/></g><g id="edge115" class="edge"><title>Node50-&gt;Node45</title><path fill="none" stroke="#191970" d="M1474.55,-235.4C1449.27,-225.37 1415.63,-212.03 1391.38,-202.4"/><polygon fill="#191970" stroke="#191970" points="1392.51 -199.09 1381.93 -198.66 1389.93 -205.6 1392.51 -199.09"/></g><g id="edge114" class="edge"><title>Node50-&gt;Node48</title><path fill="none" stroke="#191970" d="M1510.1,-235.34C1510.1,-214.62 1510.1,-176.02 1510.1,-152.9"/><polygon fill="#191970" stroke="#191970" points="1513.6 -152.67 1510.1 -142.67 1506.6 -152.67 1513.6 -152.67"/></g><g id="node51" class="node"><title>Node51</title><g id="a_node51"><a><polygon fill="none" stroke="#bfbfbf" points="1648.1 -179.5 1648.1 -198.5 1694.1 -198.5 1694.1 -179.5 1648.1 -179.5"/><text x="1671.1" y="-186.5" font-family="Helvetica,sans-Serif" font-size="10" text-anchor="middle">cstring</text></a></g></g><g id="edge117" class="edge"><title>Node50-&gt;Node51</title><path fill="none" stroke="#191970" d="M1548.26,-235.4C1575.63,-225.28 1612.14,-211.79 1638.23,-202.15"/><polygon fill="#191970" stroke="#191970" points="1639.51 -205.41 1647.68 -198.66 1637.08 -198.84 1639.51 -205.41"/></g></g></svg>