<?xml version="1.0" encoding="UTF-8" standalone="no"?>
<!DOCTYPE svg PUBLIC "-//W3C//DTD SVG 1.1//EN"
 "http://www.w3.org/Graphics/SVG/1.1/DTD/svg11.dtd">
<!-- Generated by graphviz version 2.44.0 ()
 -->
<!-- Title: src/Texture/RenderSystem.cpp Pages: 1 -->
<!--zoomable 588 -->
<svg id="main" version="1.1" xmlns="http://www.w3.org/2000/svg" xmlns:xlink="http://www.w3.org/1999/xlink" xml:space="preserve" onload="init(evt)">
<style type="text/css"><![CDATA[
.edge:hover path { stroke: red; }
.edge:hover polygon { stroke: red; fill: red; }
]]></style>
<script type="text/javascript"><![CDATA[
var edges = document.getElementsByTagName('g');
if (edges && edges.length) {
  for (var i=0;i<edges.length;i++) {
    if (edges[i].id.substr(0,4)=='edge') {
      edges[i].setAttribute('class','edge');
    }
  }
}
]]></script>
        <defs>
                <circle id="rim" cx="0" cy="0" r="7"/>
                <circle id="rim2" cx="0" cy="0" r="3.5"/>
                <g id="zoomPlus">
                        <use xlink:href="#rim" fill="#404040">
                                <set attributeName="fill" to="#808080" begin="zoomplus.mouseover" end="zoomplus.mouseout"/>
                        </use>
                        <path d="M-4,0h8M0,-4v8" fill="none" stroke="white" stroke-width="1.5" pointer-events="none"/>
                </g>
                <g id="zoomMin">
                        <use xlink:href="#rim" fill="#404040">
                                <set attributeName="fill" to="#808080" begin="zoomminus.mouseover" end="zoomminus.mouseout"/>
                        </use>
                        <path d="M-4,0h8" fill="none" stroke="white" stroke-width="1.5" pointer-events="none"/>
                </g>
                <g id="dirArrow">
                        <path fill="none" stroke="white" stroke-width="1.5" d="M0,-3.0v7 M-2.5,-0.5L0,-3.0L2.5,-0.5"/>
                </g>
               <g id="resetDef">
                       <use xlink:href="#rim2" fill="#404040">
                               <set attributeName="fill" to="#808080" begin="reset.mouseover" end="reset.mouseout"/>
                       </use>
               </g>
        </defs>

<script type="text/javascript">
var viewWidth = 1726;
var viewHeight = 588;
var sectionId = 'dynsection-0';
</script>
<script xlink:href="svgpan.js"/>
<svg id="graph" class="graph">
<g id="viewport">
<title>src/Texture/RenderSystem.cpp</title>
<!-- Node1 -->
<g id="node1" class="node">
<title>Node1</title>
<g id="a_node1"><a xlink:title=" ">
<polygon fill="#bfbfbf" stroke="black" points="959,-560.5 959,-579.5 1109,-579.5 1109,-560.5 959,-560.5"/>
<text text-anchor="middle" x="1034" y="-567.5" font-family="Helvetica,sans-Serif" font-size="10.00">src/Texture/RenderSystem.cpp</text>
</a>
</g>
</g>
<!-- Node2 -->
<g id="node2" class="node">
<title>Node2</title>
<g id="a_node2"><a xlink:href="RenderSystem_8hpp.html" target="_top" xlink:title=" ">
<polygon fill="none" stroke="black" points="810,-448.5 810,-467.5 944,-467.5 944,-448.5 810,-448.5"/>
<text text-anchor="middle" x="877" y="-455.5" font-family="Helvetica,sans-Serif" font-size="10.00">Texture/RenderSystem.hpp</text>
</a>
</g>
</g>
<!-- Node1&#45;&gt;Node2 -->
<g id="edge1" class="edge">
<title>Node1&#45;&gt;Node2</title>
<path fill="none" stroke="midnightblue" d="M1021.68,-560.37C994.85,-541.57 930.91,-496.77 897.74,-473.53"/>
<polygon fill="midnightblue" stroke="midnightblue" points="899.46,-470.46 889.26,-467.59 895.44,-476.2 899.46,-470.46"/>
</g>
<!-- Node32 -->
<g id="node32" class="node">
<title>Node32</title>
<g id="a_node32"><a xlink:href="Engine_8hpp.html" target="_top" xlink:title=" ">
<polygon fill="none" stroke="black" points="1071,-504.5 1071,-523.5 1167,-523.5 1167,-504.5 1071,-504.5"/>
<text text-anchor="middle" x="1119" y="-511.5" font-family="Helvetica,sans-Serif" font-size="10.00">Engine/Engine.hpp</text>
</a>
</g>
</g>
<!-- Node1&#45;&gt;Node32 -->
<g id="edge59" class="edge">
<title>Node1&#45;&gt;Node32</title>
<path fill="none" stroke="midnightblue" d="M1047.66,-560.32C1060.92,-551.9 1081.27,-538.97 1096.85,-529.07"/>
<polygon fill="midnightblue" stroke="midnightblue" points="1098.81,-531.97 1105.38,-523.65 1095.06,-526.06 1098.81,-531.97"/>
</g>
<!-- Node3 -->
<g id="node3" class="node">
<title>Node3</title>
<g id="a_node3"><a xlink:href="GameObject_8hpp.html" target="_top" xlink:title=" ">
<polygon fill="none" stroke="black" points="1044.5,-112.5 1044.5,-131.5 1133.5,-131.5 1133.5,-112.5 1044.5,-112.5"/>
<text text-anchor="middle" x="1089" y="-119.5" font-family="Helvetica,sans-Serif" font-size="10.00">GameObject.hpp</text>
</a>
</g>
</g>
<!-- Node2&#45;&gt;Node3 -->
<g id="edge2" class="edge">
<title>Node2&#45;&gt;Node3</title>
<path fill="none" stroke="midnightblue" d="M898.31,-448.37C944.15,-428.25 1048,-373.54 1048,-291 1048,-291 1048,-291 1048,-233 1048,-198.52 1065.91,-161.56 1078.06,-140.47"/>
<polygon fill="midnightblue" stroke="midnightblue" points="1081.16,-142.09 1083.3,-131.71 1075.16,-138.49 1081.16,-142.09"/>
</g>
<!-- Node11 -->
<g id="node11" class="node">
<title>Node11</title>
<g id="a_node11"><a xlink:href="Animator_8hpp.html" target="_top" xlink:title=" ">
<polygon fill="none" stroke="black" points="117,-392.5 117,-411.5 191,-411.5 191,-392.5 117,-392.5"/>
<text text-anchor="middle" x="154" y="-399.5" font-family="Helvetica,sans-Serif" font-size="10.00">Animator.hpp</text>
</a>
</g>
</g>
<!-- Node2&#45;&gt;Node11 -->
<g id="edge11" class="edge">
<title>Node2&#45;&gt;Node11</title>
<path fill="none" stroke="midnightblue" d="M809.95,-451.99C665.07,-441.17 325.82,-415.83 201.09,-406.52"/>
<polygon fill="midnightblue" stroke="midnightblue" points="201.32,-403.02 191.09,-405.77 200.8,-410.01 201.32,-403.02"/>
</g>
<!-- Node4 -->
<g id="node4" class="node">
<title>Node4</title>
<g id="a_node4"><a xlink:href="Component_8hpp.html" target="_top" xlink:title=" ">
<polygon fill="none" stroke="black" points="1302,-56.5 1302,-75.5 1386,-75.5 1386,-56.5 1302,-56.5"/>
<text text-anchor="middle" x="1344" y="-63.5" font-family="Helvetica,sans-Serif" font-size="10.00">Component.hpp</text>
</a>
</g>
</g>
<!-- Node3&#45;&gt;Node4 -->
<g id="edge3" class="edge">
<title>Node3&#45;&gt;Node4</title>
<path fill="none" stroke="midnightblue" d="M1129.41,-112.44C1173.98,-103 1245.77,-87.8 1293.89,-77.61"/>
<polygon fill="midnightblue" stroke="midnightblue" points="1294.73,-81.01 1303.78,-75.52 1293.28,-74.16 1294.73,-81.01"/>
</g>
<!-- Node5 -->
<g id="node5" class="node">
<title>Node5</title>
<g id="a_node5"><a xlink:title=" ">
<polygon fill="none" stroke="#bfbfbf" points="1460.5,-0.5 1460.5,-19.5 1511.5,-19.5 1511.5,-0.5 1460.5,-0.5"/>
<text text-anchor="middle" x="1486" y="-7.5" font-family="Helvetica,sans-Serif" font-size="10.00">memory</text>
</a>
</g>
</g>
<!-- Node3&#45;&gt;Node5 -->
<g id="edge9" class="edge">
<title>Node3&#45;&gt;Node5</title>
<path fill="none" stroke="midnightblue" d="M1094.87,-112.5C1105.31,-98.14 1128.6,-69.33 1156,-56 1207.29,-31.04 1375.53,-17.83 1449.99,-13.08"/>
<polygon fill="midnightblue" stroke="midnightblue" points="1450.51,-16.55 1460.27,-12.44 1450.07,-9.56 1450.51,-16.55"/>
</g>
<!-- Node6 -->
<g id="node6" class="node">
<title>Node6</title>
<g id="a_node6"><a xlink:href="Transform_8hpp.html" target="_top" xlink:title=" ">
<polygon fill="none" stroke="black" points="66.5,-56.5 66.5,-75.5 145.5,-75.5 145.5,-56.5 66.5,-56.5"/>
<text text-anchor="middle" x="106" y="-63.5" font-family="Helvetica,sans-Serif" font-size="10.00">Transform.hpp</text>
</a>
</g>
</g>
<!-- Node3&#45;&gt;Node6 -->
<g id="edge5" class="edge">
<title>Node3&#45;&gt;Node6</title>
<path fill="none" stroke="midnightblue" d="M1044.44,-118.53C1010.58,-116.68 962.86,-114.1 921,-112 583.93,-95.05 495.32,-114.49 155.64,-75.89"/>
<polygon fill="midnightblue" stroke="midnightblue" points="155.85,-72.39 145.51,-74.73 155.05,-79.34 155.85,-72.39"/>
</g>
<!-- Node8 -->
<g id="node8" class="node">
<title>Node8</title>
<g id="a_node8"><a xlink:title=" ">
<polygon fill="none" stroke="#bfbfbf" points="767.5,-56.5 767.5,-75.5 808.5,-75.5 808.5,-56.5 767.5,-56.5"/>
<text text-anchor="middle" x="788" y="-63.5" font-family="Helvetica,sans-Serif" font-size="10.00">string</text>
</a>
</g>
</g>
<!-- Node3&#45;&gt;Node8 -->
<g id="edge7" class="edge">
<title>Node3&#45;&gt;Node8</title>
<path fill="none" stroke="midnightblue" d="M1044.26,-112.97C982.24,-101.85 871.74,-82.02 818.43,-72.46"/>
<polygon fill="midnightblue" stroke="midnightblue" points="819.03,-69.01 808.56,-70.69 817.79,-75.9 819.03,-69.01"/>
</g>
<!-- Node9 -->
<g id="node9" class="node">
<title>Node9</title>
<g id="a_node9"><a xlink:title=" ">
<polygon fill="none" stroke="#bfbfbf" points="1165,-56.5 1165,-75.5 1209,-75.5 1209,-56.5 1165,-56.5"/>
<text text-anchor="middle" x="1187" y="-63.5" font-family="Helvetica,sans-Serif" font-size="10.00">vector</text>
</a>
</g>
</g>
<!-- Node3&#45;&gt;Node9 -->
<g id="edge8" class="edge">
<title>Node3&#45;&gt;Node9</title>
<path fill="none" stroke="midnightblue" d="M1104.75,-112.32C1120.32,-103.74 1144.38,-90.49 1162.46,-80.52"/>
<polygon fill="midnightblue" stroke="midnightblue" points="1164.22,-83.55 1171.29,-75.65 1160.85,-77.42 1164.22,-83.55"/>
</g>
<!-- Node10 -->
<g id="node10" class="node">
<title>Node10</title>
<g id="a_node10"><a xlink:title=" ">
<polygon fill="none" stroke="#bfbfbf" points="997.5,-56.5 997.5,-75.5 1032.5,-75.5 1032.5,-56.5 997.5,-56.5"/>
<text text-anchor="middle" x="1015" y="-63.5" font-family="Helvetica,sans-Serif" font-size="10.00">map</text>
</a>
</g>
</g>
<!-- Node3&#45;&gt;Node10 -->
<g id="edge10" class="edge">
<title>Node3&#45;&gt;Node10</title>
<path fill="none" stroke="midnightblue" d="M1077.11,-112.32C1065.85,-104.11 1048.71,-91.6 1035.29,-81.81"/>
<polygon fill="midnightblue" stroke="midnightblue" points="1037.25,-78.9 1027.11,-75.83 1033.12,-84.56 1037.25,-78.9"/>
</g>
<!-- Node4&#45;&gt;Node5 -->
<g id="edge4" class="edge">
<title>Node4&#45;&gt;Node5</title>
<path fill="none" stroke="midnightblue" d="M1366.5,-56.44C1390.08,-47.48 1427.32,-33.31 1453.96,-23.18"/>
<polygon fill="midnightblue" stroke="midnightblue" points="1455.5,-26.34 1463.6,-19.52 1453.01,-19.8 1455.5,-26.34"/>
</g>
<!-- Node7 -->
<g id="node7" class="node">
<title>Node7</title>
<g id="a_node7"><a xlink:href="Point_8hpp.html" target="_top" xlink:title=" ">
<polygon fill="none" stroke="black" points="442.5,-0.5 442.5,-19.5 499.5,-19.5 499.5,-0.5 442.5,-0.5"/>
<text text-anchor="middle" x="471" y="-7.5" font-family="Helvetica,sans-Serif" font-size="10.00">Point.hpp</text>
</a>
</g>
</g>
<!-- Node6&#45;&gt;Node7 -->
<g id="edge6" class="edge">
<title>Node6&#45;&gt;Node7</title>
<path fill="none" stroke="midnightblue" d="M145.56,-57.59C148.75,-57.04 151.93,-56.5 155,-56 254.58,-39.77 372.35,-23.87 432.07,-16.03"/>
<polygon fill="midnightblue" stroke="midnightblue" points="432.72,-19.48 442.18,-14.71 431.82,-12.53 432.72,-19.48"/>
</g>
<!-- Node11&#45;&gt;Node4 -->
<g id="edge12" class="edge">
<title>Node11&#45;&gt;Node4</title>
<path fill="none" stroke="midnightblue" d="M191.15,-400.06C412.04,-394.21 1543,-360.85 1543,-291 1543,-291 1543,-291 1543,-233 1543,-202.9 1542.74,-191.56 1524,-168 1487.32,-121.88 1423.49,-93.34 1382.53,-78.82"/>
<polygon fill="midnightblue" stroke="midnightblue" points="1383.48,-75.45 1372.89,-75.51 1381.21,-82.07 1383.48,-75.45"/>
</g>
<!-- Node11&#45;&gt;Node6 -->
<g id="edge58" class="edge">
<title>Node11&#45;&gt;Node6</title>
<path fill="none" stroke="midnightblue" d="M141.81,-392.24C119.88,-375.35 76,-335.95 76,-291 76,-291 76,-291 76,-177 76,-143.64 89,-106.53 97.89,-85.07"/>
<polygon fill="midnightblue" stroke="midnightblue" points="101.21,-86.19 101.95,-75.62 94.78,-83.42 101.21,-86.19"/>
</g>
<!-- Node11&#45;&gt;Node7 -->
<g id="edge57" class="edge">
<title>Node11&#45;&gt;Node7</title>
<path fill="none" stroke="midnightblue" d="M118.28,-392.43C72.79,-379.13 0,-348.83 0,-291 0,-291 0,-291 0,-121 0,-86.84 11.99,-74.03 41,-56 105.83,-15.7 339.12,-11.03 432.23,-10.81"/>
<polygon fill="midnightblue" stroke="midnightblue" points="432.35,-14.31 442.35,-10.81 432.35,-7.31 432.35,-14.31"/>
</g>
<!-- Node12 -->
<g id="node12" class="node">
<title>Node12</title>
<g id="a_node12"><a xlink:href="Sprite_8hpp.html" target="_top" xlink:title=" ">
<polygon fill="none" stroke="black" points="306,-224.5 306,-243.5 366,-243.5 366,-224.5 306,-224.5"/>
<text text-anchor="middle" x="336" y="-231.5" font-family="Helvetica,sans-Serif" font-size="10.00">Sprite.hpp</text>
</a>
</g>
</g>
<!-- Node11&#45;&gt;Node12 -->
<g id="edge13" class="edge">
<title>Node11&#45;&gt;Node12</title>
<path fill="none" stroke="midnightblue" d="M152.93,-392.17C151.78,-378.81 151.46,-353.23 163,-336 194.46,-289.01 255.74,-260.97 296.28,-246.76"/>
<polygon fill="midnightblue" stroke="midnightblue" points="297.5,-250.04 305.85,-243.52 295.26,-243.41 297.5,-250.04"/>
</g>
<!-- Node22 -->
<g id="node22" class="node">
<title>Node22</title>
<g id="a_node22"><a xlink:href="AnimatedSprite_8hpp.html" target="_top" xlink:title=" ">
<polygon fill="none" stroke="black" points="171.5,-336.5 171.5,-355.5 308.5,-355.5 308.5,-336.5 171.5,-336.5"/>
<text text-anchor="middle" x="240" y="-343.5" font-family="Helvetica,sans-Serif" font-size="10.00">Texture/AnimatedSprite.hpp</text>
</a>
</g>
</g>
<!-- Node11&#45;&gt;Node22 -->
<g id="edge33" class="edge">
<title>Node11&#45;&gt;Node22</title>
<path fill="none" stroke="midnightblue" d="M167.82,-392.32C181.23,-383.9 201.82,-370.97 217.59,-361.07"/>
<polygon fill="midnightblue" stroke="midnightblue" points="219.61,-363.94 226.22,-355.65 215.89,-358.01 219.61,-363.94"/>
</g>
<!-- Node12&#45;&gt;Node4 -->
<g id="edge14" class="edge">
<title>Node12&#45;&gt;Node4</title>
<path fill="none" stroke="midnightblue" d="M366.19,-231.97C478.08,-228.01 868.94,-212.67 991,-188 1115.56,-162.83 1256.48,-105.19 1315.57,-79.62"/>
<polygon fill="midnightblue" stroke="midnightblue" points="1317.21,-82.72 1324.98,-75.52 1314.41,-76.3 1317.21,-82.72"/>
</g>
<!-- Node12&#45;&gt;Node6 -->
<g id="edge28" class="edge">
<title>Node12&#45;&gt;Node6</title>
<path fill="none" stroke="midnightblue" d="M328.41,-224.39C309.28,-203.09 256.83,-147.08 204,-112 183.85,-98.62 159.09,-87.29 139.49,-79.34"/>
<polygon fill="midnightblue" stroke="midnightblue" points="140.64,-76.03 130.05,-75.61 138.06,-82.54 140.64,-76.03"/>
</g>
<!-- Node12&#45;&gt;Node8 -->
<g id="edge16" class="edge">
<title>Node12&#45;&gt;Node8</title>
<path fill="none" stroke="midnightblue" d="M366.04,-230.66C423.45,-225.67 546.09,-212.42 580,-188 611.32,-165.45 591.55,-135.71 622,-112 669.25,-75.22 695.81,-91.52 757.63,-76.13"/>
<polygon fill="midnightblue" stroke="midnightblue" points="758.69,-79.48 767.44,-73.5 756.87,-72.71 758.69,-79.48"/>
</g>
<!-- Node13 -->
<g id="node13" class="node">
<title>Node13</title>
<g id="a_node13"><a xlink:href="Color_8hpp.html" target="_top" xlink:title=" ">
<polygon fill="none" stroke="black" points="692.5,-56.5 692.5,-75.5 749.5,-75.5 749.5,-56.5 692.5,-56.5"/>
<text text-anchor="middle" x="721" y="-63.5" font-family="Helvetica,sans-Serif" font-size="10.00">Color.hpp</text>
</a>
</g>
</g>
<!-- Node12&#45;&gt;Node13 -->
<g id="edge15" class="edge">
<title>Node12&#45;&gt;Node13</title>
<path fill="none" stroke="midnightblue" d="M341.02,-224.25C354.87,-201.05 396.19,-137.97 450,-112 542.39,-67.41 577.1,-94.51 678,-76 679.45,-75.73 680.93,-75.46 682.43,-75.17"/>
<polygon fill="midnightblue" stroke="midnightblue" points="683.23,-78.58 692.36,-73.2 681.87,-71.71 683.23,-78.58"/>
</g>
<!-- Node14 -->
<g id="node14" class="node">
<title>Node14</title>
<g id="a_node14"><a xlink:href="GraphicsFacade_8hpp.html" target="_top" xlink:title=" ">
<polygon fill="none" stroke="black" points="256.5,-112.5 256.5,-131.5 397.5,-131.5 397.5,-112.5 256.5,-112.5"/>
<text text-anchor="middle" x="327" y="-119.5" font-family="Helvetica,sans-Serif" font-size="10.00">Facade/GraphicsFacade.hpp</text>
</a>
</g>
</g>
<!-- Node12&#45;&gt;Node14 -->
<g id="edge17" class="edge">
<title>Node12&#45;&gt;Node14</title>
<path fill="none" stroke="midnightblue" d="M335.29,-224.37C333.84,-206.62 330.49,-165.67 328.52,-141.6"/>
<polygon fill="midnightblue" stroke="midnightblue" points="332.01,-141.27 327.7,-131.59 325.03,-141.84 332.01,-141.27"/>
</g>
<!-- Node20 -->
<g id="node20" class="node">
<title>Node20</title>
<g id="a_node20"><a xlink:href="TextureManager_8hpp.html" target="_top" xlink:title=" ">
<polygon fill="none" stroke="black" points="431,-168.5 431,-187.5 571,-187.5 571,-168.5 431,-168.5"/>
<text text-anchor="middle" x="501" y="-175.5" font-family="Helvetica,sans-Serif" font-size="10.00">Texture/TextureManager.hpp</text>
</a>
</g>
</g>
<!-- Node12&#45;&gt;Node20 -->
<g id="edge29" class="edge">
<title>Node12&#45;&gt;Node20</title>
<path fill="none" stroke="midnightblue" d="M362.14,-224.44C390.02,-215.32 434.35,-200.81 465.4,-190.65"/>
<polygon fill="midnightblue" stroke="midnightblue" points="466.56,-193.95 474.98,-187.52 464.38,-187.3 466.56,-193.95"/>
</g>
<!-- Node14&#45;&gt;Node5 -->
<g id="edge23" class="edge">
<title>Node14&#45;&gt;Node5</title>
<path fill="none" stroke="midnightblue" d="M396.12,-112.46C482.48,-101.59 621.81,-83.36 645,-76 663.57,-70.11 665.2,-61.1 684,-56 831.42,-16 1313.82,-11.51 1449.94,-11.04"/>
<polygon fill="midnightblue" stroke="midnightblue" points="1450.24,-14.54 1460.23,-11.01 1450.22,-7.54 1450.24,-14.54"/>
</g>
<!-- Node14&#45;&gt;Node8 -->
<g id="edge25" class="edge">
<title>Node14&#45;&gt;Node8</title>
<path fill="none" stroke="midnightblue" d="M397.57,-115.35C497.52,-107.07 676.34,-91.17 757.37,-75.94"/>
<polygon fill="midnightblue" stroke="midnightblue" points="758.09,-79.36 767.22,-73.99 756.73,-72.5 758.09,-79.36"/>
</g>
<!-- Node14&#45;&gt;Node9 -->
<g id="edge26" class="edge">
<title>Node14&#45;&gt;Node9</title>
<path fill="none" stroke="midnightblue" d="M397.74,-116.56C574.41,-105.47 1029.7,-76.88 1154.79,-69.02"/>
<polygon fill="midnightblue" stroke="midnightblue" points="1155.11,-72.51 1164.87,-68.39 1154.67,-65.52 1155.11,-72.51"/>
</g>
<!-- Node14&#45;&gt;Node10 -->
<g id="edge27" class="edge">
<title>Node14&#45;&gt;Node10</title>
<path fill="none" stroke="midnightblue" d="M397.72,-115.45C546.78,-103.75 887.69,-76.99 987.23,-69.18"/>
<polygon fill="midnightblue" stroke="midnightblue" points="987.69,-72.65 997.39,-68.38 987.14,-65.68 987.69,-72.65"/>
</g>
<!-- Node14&#45;&gt;Node13 -->
<g id="edge21" class="edge">
<title>Node14&#45;&gt;Node13</title>
<path fill="none" stroke="midnightblue" d="M397.83,-113.58C468.9,-105.74 581.37,-92.28 678,-76 679.46,-75.75 680.94,-75.49 682.44,-75.22"/>
<polygon fill="midnightblue" stroke="midnightblue" points="683.22,-78.64 692.38,-73.32 681.9,-71.76 683.22,-78.64"/>
</g>
<!-- Node15 -->
<g id="node15" class="node">
<title>Node15</title>
<g id="a_node15"><a xlink:title=" ">
<polygon fill="none" stroke="#bfbfbf" points="443.5,-56.5 443.5,-75.5 514.5,-75.5 514.5,-56.5 443.5,-56.5"/>
<text text-anchor="middle" x="479" y="-63.5" font-family="Helvetica,sans-Serif" font-size="10.00">SDL2/SDL.h</text>
</a>
</g>
</g>
<!-- Node14&#45;&gt;Node15 -->
<g id="edge18" class="edge">
<title>Node14&#45;&gt;Node15</title>
<path fill="none" stroke="midnightblue" d="M351.08,-112.44C376.54,-103.4 416.89,-89.06 445.46,-78.92"/>
<polygon fill="midnightblue" stroke="midnightblue" points="446.78,-82.16 455.03,-75.52 444.43,-75.57 446.78,-82.16"/>
</g>
<!-- Node16 -->
<g id="node16" class="node">
<title>Node16</title>
<g id="a_node16"><a xlink:title=" ">
<polygon fill="none" stroke="#bfbfbf" points="532.5,-56.5 532.5,-75.5 635.5,-75.5 635.5,-56.5 532.5,-56.5"/>
<text text-anchor="middle" x="584" y="-63.5" font-family="Helvetica,sans-Serif" font-size="10.00">SDL2/SDL_image.h</text>
</a>
</g>
</g>
<!-- Node14&#45;&gt;Node16 -->
<g id="edge19" class="edge">
<title>Node14&#45;&gt;Node16</title>
<path fill="none" stroke="midnightblue" d="M367.72,-112.44C412.65,-103 485,-87.8 533.5,-77.61"/>
<polygon fill="midnightblue" stroke="midnightblue" points="534.4,-81 543.47,-75.52 532.96,-74.15 534.4,-81"/>
</g>
<!-- Node17 -->
<g id="node17" class="node">
<title>Node17</title>
<g id="a_node17"><a xlink:title=" ">
<polygon fill="none" stroke="#bfbfbf" points="164,-56.5 164,-75.5 218,-75.5 218,-56.5 164,-56.5"/>
<text text-anchor="middle" x="191" y="-63.5" font-family="Helvetica,sans-Serif" font-size="10.00">iostream</text>
</a>
</g>
</g>
<!-- Node14&#45;&gt;Node17 -->
<g id="edge20" class="edge">
<title>Node14&#45;&gt;Node17</title>
<path fill="none" stroke="midnightblue" d="M305.45,-112.44C282.97,-103.52 247.51,-89.44 222.02,-79.32"/>
<polygon fill="midnightblue" stroke="midnightblue" points="223.03,-75.95 212.45,-75.52 220.45,-82.46 223.03,-75.95"/>
</g>
<!-- Node18 -->
<g id="node18" class="node">
<title>Node18</title>
<g id="a_node18"><a xlink:href="NumberUtil_8hpp.html" target="_top" xlink:title=" ">
<polygon fill="none" stroke="black" points="236,-56.5 236,-75.5 348,-75.5 348,-56.5 236,-56.5"/>
<text text-anchor="middle" x="292" y="-63.5" font-family="Helvetica,sans-Serif" font-size="10.00">Utility/NumberUtil.hpp</text>
</a>
</g>
</g>
<!-- Node14&#45;&gt;Node18 -->
<g id="edge22" class="edge">
<title>Node14&#45;&gt;Node18</title>
<path fill="none" stroke="midnightblue" d="M321.22,-112.08C316.33,-104.53 309.17,-93.49 303.17,-84.23"/>
<polygon fill="midnightblue" stroke="midnightblue" points="306.05,-82.24 297.67,-75.75 300.17,-86.05 306.05,-82.24"/>
</g>
<!-- Node19 -->
<g id="node19" class="node">
<title>Node19</title>
<g id="a_node19"><a xlink:title=" ">
<polygon fill="none" stroke="#bfbfbf" points="366.5,-56.5 366.5,-75.5 425.5,-75.5 425.5,-56.5 366.5,-56.5"/>
<text text-anchor="middle" x="396" y="-63.5" font-family="Helvetica,sans-Serif" font-size="10.00">functional</text>
</a>
</g>
</g>
<!-- Node14&#45;&gt;Node19 -->
<g id="edge24" class="edge">
<title>Node14&#45;&gt;Node19</title>
<path fill="none" stroke="midnightblue" d="M338.09,-112.32C348.49,-104.18 364.26,-91.84 376.72,-82.09"/>
<polygon fill="midnightblue" stroke="midnightblue" points="378.99,-84.75 384.71,-75.83 374.68,-79.24 378.99,-84.75"/>
</g>
<!-- Node20&#45;&gt;Node8 -->
<g id="edge30" class="edge">
<title>Node20&#45;&gt;Node8</title>
<path fill="none" stroke="midnightblue" d="M509.29,-168.29C523.29,-154.14 553.11,-126.3 584,-112 653.24,-79.94 679.99,-94.53 757.74,-76.06"/>
<polygon fill="midnightblue" stroke="midnightblue" points="758.62,-79.45 767.48,-73.64 756.93,-72.66 758.62,-79.45"/>
</g>
<!-- Node20&#45;&gt;Node14 -->
<g id="edge32" class="edge">
<title>Node20&#45;&gt;Node14</title>
<path fill="none" stroke="midnightblue" d="M473.43,-168.44C443.9,-159.28 396.88,-144.69 364.12,-134.52"/>
<polygon fill="midnightblue" stroke="midnightblue" points="365.03,-131.14 354.44,-131.52 362.96,-137.82 365.03,-131.14"/>
</g>
<!-- Node21 -->
<g id="node21" class="node">
<title>Node21</title>
<g id="a_node21"><a xlink:title=" ">
<polygon fill="none" stroke="#bfbfbf" points="492.5,-112.5 492.5,-131.5 531.5,-131.5 531.5,-112.5 492.5,-112.5"/>
<text text-anchor="middle" x="512" y="-119.5" font-family="Helvetica,sans-Serif" font-size="10.00">utility</text>
</a>
</g>
</g>
<!-- Node20&#45;&gt;Node21 -->
<g id="edge31" class="edge">
<title>Node20&#45;&gt;Node21</title>
<path fill="none" stroke="midnightblue" d="M502.82,-168.08C504.27,-160.93 506.37,-150.64 508.19,-141.69"/>
<polygon fill="midnightblue" stroke="midnightblue" points="511.65,-142.25 510.22,-131.75 504.79,-140.85 511.65,-142.25"/>
</g>
<!-- Node22&#45;&gt;Node6 -->
<g id="edge56" class="edge">
<title>Node22&#45;&gt;Node6</title>
<path fill="none" stroke="midnightblue" d="M233.05,-336.48C219.31,-318.75 190,-276.12 190,-235 190,-235 190,-235 190,-177 190,-135.73 152.19,-100.32 127.31,-81.49"/>
<polygon fill="midnightblue" stroke="midnightblue" points="129.27,-78.59 119.12,-75.54 125.15,-84.25 129.27,-78.59"/>
</g>
<!-- Node22&#45;&gt;Node7 -->
<g id="edge35" class="edge">
<title>Node22&#45;&gt;Node7</title>
<path fill="none" stroke="midnightblue" d="M226.94,-336.49C172.43,-300.02 -30.09,-154.21 58,-56 82.77,-28.38 334.51,-16.09 432.38,-12.33"/>
<polygon fill="midnightblue" stroke="midnightblue" points="432.58,-15.82 442.44,-11.95 432.32,-8.83 432.58,-15.82"/>
</g>
<!-- Node22&#45;&gt;Node12 -->
<g id="edge34" class="edge">
<title>Node22&#45;&gt;Node12</title>
<path fill="none" stroke="midnightblue" d="M247.53,-336.37C263.52,-318.05 301.05,-275.05 321.72,-251.36"/>
<polygon fill="midnightblue" stroke="midnightblue" points="324.56,-253.43 328.5,-243.59 319.29,-248.82 324.56,-253.43"/>
</g>
<!-- Node23 -->
<g id="node23" class="node">
<title>Node23</title>
<g id="a_node23"><a xlink:href="Timer_8hpp.html" target="_top" xlink:title=" ">
<polygon fill="none" stroke="black" points="1366.5,-280.5 1366.5,-299.5 1453.5,-299.5 1453.5,-280.5 1366.5,-280.5"/>
<text text-anchor="middle" x="1410" y="-287.5" font-family="Helvetica,sans-Serif" font-size="10.00">Timer/Timer.hpp</text>
</a>
</g>
</g>
<!-- Node22&#45;&gt;Node23 -->
<g id="edge36" class="edge">
<title>Node22&#45;&gt;Node23</title>
<path fill="none" stroke="midnightblue" d="M308.82,-341.82C521.54,-332.01 1165.59,-302.28 1356.26,-293.48"/>
<polygon fill="midnightblue" stroke="midnightblue" points="1356.49,-296.97 1366.32,-293.02 1356.17,-289.98 1356.49,-296.97"/>
</g>
<!-- Node25 -->
<g id="node25" class="node">
<title>Node25</title>
<g id="a_node25"><a xlink:href="Window_8hpp.html" target="_top" xlink:title=" ">
<polygon fill="none" stroke="black" points="541.5,-280.5 541.5,-299.5 644.5,-299.5 644.5,-280.5 541.5,-280.5"/>
<text text-anchor="middle" x="593" y="-287.5" font-family="Helvetica,sans-Serif" font-size="10.00">Render/Window.hpp</text>
</a>
</g>
</g>
<!-- Node22&#45;&gt;Node25 -->
<g id="edge38" class="edge">
<title>Node22&#45;&gt;Node25</title>
<path fill="none" stroke="midnightblue" d="M295.93,-336.44C360.1,-326.63 464.99,-310.58 531.43,-300.42"/>
<polygon fill="midnightblue" stroke="midnightblue" points="531.99,-303.87 541.35,-298.9 530.93,-296.95 531.99,-303.87"/>
</g>
<!-- Node24 -->
<g id="node24" class="node">
<title>Node24</title>
<g id="a_node24"><a xlink:title=" ">
<polygon fill="none" stroke="#bfbfbf" points="1387,-224.5 1387,-243.5 1433,-243.5 1433,-224.5 1387,-224.5"/>
<text text-anchor="middle" x="1410" y="-231.5" font-family="Helvetica,sans-Serif" font-size="10.00">cstdint</text>
</a>
</g>
</g>
<!-- Node23&#45;&gt;Node24 -->
<g id="edge37" class="edge">
<title>Node23&#45;&gt;Node24</title>
<path fill="none" stroke="midnightblue" d="M1410,-280.08C1410,-273.01 1410,-262.86 1410,-253.99"/>
<polygon fill="midnightblue" stroke="midnightblue" points="1413.5,-253.75 1410,-243.75 1406.5,-253.75 1413.5,-253.75"/>
</g>
<!-- Node25&#45;&gt;Node8 -->
<g id="edge39" class="edge">
<title>Node25&#45;&gt;Node8</title>
<path fill="none" stroke="midnightblue" d="M593.46,-280.23C595.42,-251.77 605.47,-161.01 655,-112 658.8,-108.24 719.78,-88.52 757.84,-76.47"/>
<polygon fill="midnightblue" stroke="midnightblue" points="758.95,-79.79 767.43,-73.44 756.84,-73.11 758.95,-79.79"/>
</g>
<!-- Node25&#45;&gt;Node13 -->
<g id="edge40" class="edge">
<title>Node25&#45;&gt;Node13</title>
<path fill="none" stroke="midnightblue" d="M554.53,-280.43C496.15,-265.3 394.68,-229.49 422,-168 429.54,-151.03 467.36,-120.23 484,-112 562.62,-73.14 591.97,-92.98 678,-76 679.45,-75.71 680.93,-75.42 682.42,-75.12"/>
<polygon fill="midnightblue" stroke="midnightblue" points="683.24,-78.52 692.34,-73.09 681.84,-71.67 683.24,-78.52"/>
</g>
<!-- Node25&#45;&gt;Node14 -->
<g id="edge41" class="edge">
<title>Node25&#45;&gt;Node14</title>
<path fill="none" stroke="midnightblue" d="M541.46,-288.9C465.18,-287.52 327.92,-279.97 297,-244 271.37,-214.18 297.23,-165.74 314.4,-140.13"/>
<polygon fill="midnightblue" stroke="midnightblue" points="317.36,-142.01 320.23,-131.8 311.63,-137.99 317.36,-142.01"/>
</g>
<!-- Node25&#45;&gt;Node20 -->
<g id="edge42" class="edge">
<title>Node25&#45;&gt;Node20</title>
<path fill="none" stroke="midnightblue" d="M585.78,-280.37C570.46,-262.05 534.5,-219.05 514.68,-195.36"/>
<polygon fill="midnightblue" stroke="midnightblue" points="517.29,-193.02 508.19,-187.59 511.92,-197.51 517.29,-193.02"/>
</g>
<!-- Node26 -->
<g id="node26" class="node">
<title>Node26</title>
<g id="a_node26"><a xlink:href="InputFacade_8hpp.html" target="_top" xlink:title=" ">
<polygon fill="none" stroke="black" points="752,-168.5 752,-187.5 876,-187.5 876,-168.5 752,-168.5"/>
<text text-anchor="middle" x="814" y="-175.5" font-family="Helvetica,sans-Serif" font-size="10.00">Facade/InputFacade.hpp</text>
</a>
</g>
</g>
<!-- Node25&#45;&gt;Node26 -->
<g id="edge43" class="edge">
<title>Node25&#45;&gt;Node26</title>
<path fill="none" stroke="midnightblue" d="M610.34,-280.37C648.91,-261.17 741.99,-214.84 787.73,-192.07"/>
<polygon fill="midnightblue" stroke="midnightblue" points="789.35,-195.18 796.74,-187.59 786.23,-188.91 789.35,-195.18"/>
</g>
<!-- Node30 -->
<g id="node30" class="node">
<title>Node30</title>
<g id="a_node30"><a xlink:href="Scene_8hpp.html" target="_top" xlink:title=" ">
<polygon fill="none" stroke="black" points="938,-224.5 938,-243.5 1000,-243.5 1000,-224.5 938,-224.5"/>
<text text-anchor="middle" x="969" y="-231.5" font-family="Helvetica,sans-Serif" font-size="10.00">Scene.hpp</text>
</a>
</g>
</g>
<!-- Node25&#45;&gt;Node30 -->
<g id="edge51" class="edge">
<title>Node25&#45;&gt;Node30</title>
<path fill="none" stroke="midnightblue" d="M644.89,-281.55C720.39,-270.71 859.01,-250.8 927.9,-240.9"/>
<polygon fill="midnightblue" stroke="midnightblue" points="928.54,-244.35 937.94,-239.46 927.54,-237.42 928.54,-244.35"/>
</g>
<!-- Node26&#45;&gt;Node9 -->
<g id="edge44" class="edge">
<title>Node26&#45;&gt;Node9</title>
<path fill="none" stroke="midnightblue" d="M842.96,-168.46C911.48,-148.25 1083.17,-97.62 1154.81,-76.49"/>
<polygon fill="midnightblue" stroke="midnightblue" points="1156.03,-79.78 1164.63,-73.6 1154.05,-73.07 1156.03,-79.78"/>
</g>
<!-- Node26&#45;&gt;Node10 -->
<g id="edge45" class="edge">
<title>Node26&#45;&gt;Node10</title>
<path fill="none" stroke="midnightblue" d="M838.46,-168.37C860.59,-160.17 893.79,-146.92 921,-132 948.36,-117 977.58,-95.9 996.05,-81.85"/>
<polygon fill="midnightblue" stroke="midnightblue" points="998.4,-84.46 1004.2,-75.58 994.14,-78.91 998.4,-84.46"/>
</g>
<!-- Node27 -->
<g id="node27" class="node">
<title>Node27</title>
<g id="a_node27"><a xlink:title=" ">
<polygon fill="none" stroke="#bfbfbf" points="868,-112.5 868,-131.5 912,-131.5 912,-112.5 868,-112.5"/>
<text text-anchor="middle" x="890" y="-119.5" font-family="Helvetica,sans-Serif" font-size="10.00">SDL.h</text>
</a>
</g>
</g>
<!-- Node26&#45;&gt;Node27 -->
<g id="edge46" class="edge">
<title>Node26&#45;&gt;Node27</title>
<path fill="none" stroke="midnightblue" d="M826.21,-168.32C837.78,-160.11 855.38,-147.6 869.16,-137.81"/>
<polygon fill="midnightblue" stroke="midnightblue" points="871.44,-140.48 877.57,-131.83 867.39,-134.77 871.44,-140.48"/>
</g>
<!-- Node28 -->
<g id="node28" class="node">
<title>Node28</title>
<g id="a_node28"><a xlink:title=" ">
<polygon fill="none" stroke="#bfbfbf" points="738,-112.5 738,-131.5 850,-131.5 850,-112.5 738,-112.5"/>
<text text-anchor="middle" x="794" y="-119.5" font-family="Helvetica,sans-Serif" font-size="10.00">Events/EventsEnum.h</text>
</a>
</g>
</g>
<!-- Node26&#45;&gt;Node28 -->
<g id="edge47" class="edge">
<title>Node26&#45;&gt;Node28</title>
<path fill="none" stroke="midnightblue" d="M810.7,-168.08C808.02,-160.85 804.15,-150.41 800.81,-141.4"/>
<polygon fill="midnightblue" stroke="midnightblue" points="804,-139.91 797.24,-131.75 797.43,-142.34 804,-139.91"/>
</g>
<!-- Node29 -->
<g id="node29" class="node">
<title>Node29</title>
<g id="a_node29"><a xlink:href="Input_8hpp.html" target="_top" xlink:title=" ">
<polygon fill="none" stroke="black" points="664,-112.5 664,-131.5 720,-131.5 720,-112.5 664,-112.5"/>
<text text-anchor="middle" x="692" y="-119.5" font-family="Helvetica,sans-Serif" font-size="10.00">Input.hpp</text>
</a>
</g>
</g>
<!-- Node26&#45;&gt;Node29 -->
<g id="edge48" class="edge">
<title>Node26&#45;&gt;Node29</title>
<path fill="none" stroke="midnightblue" d="M794.67,-168.44C774.68,-159.6 743.26,-145.69 720.44,-135.59"/>
<polygon fill="midnightblue" stroke="midnightblue" points="721.8,-132.36 711.24,-131.52 718.97,-138.76 721.8,-132.36"/>
</g>
<!-- Node29&#45;&gt;Node7 -->
<g id="edge49" class="edge">
<title>Node29&#45;&gt;Node7</title>
<path fill="none" stroke="midnightblue" d="M720.1,-112.83C755.42,-102.29 812.15,-84.31 818,-76 823.12,-68.73 823.87,-62.68 818,-56 797.89,-33.11 596.17,-18.46 509.85,-13.19"/>
<polygon fill="midnightblue" stroke="midnightblue" points="509.87,-9.69 499.68,-12.58 509.45,-16.67 509.87,-9.69"/>
</g>
<!-- Node29&#45;&gt;Node8 -->
<g id="edge50" class="edge">
<title>Node29&#45;&gt;Node8</title>
<path fill="none" stroke="midnightblue" d="M707.42,-112.32C722.54,-103.82 745.82,-90.73 763.47,-80.8"/>
<polygon fill="midnightblue" stroke="midnightblue" points="765.61,-83.61 772.61,-75.65 762.18,-77.51 765.61,-83.61"/>
</g>
<!-- Node30&#45;&gt;Node3 -->
<g id="edge52" class="edge">
<title>Node30&#45;&gt;Node3</title>
<path fill="none" stroke="midnightblue" d="M977.15,-224.31C989.22,-211.58 1012.7,-187.28 1034,-168 1045.55,-157.55 1059.08,-146.46 1069.84,-137.91"/>
<polygon fill="midnightblue" stroke="midnightblue" points="1072.09,-140.59 1077.77,-131.65 1067.75,-135.09 1072.09,-140.59"/>
</g>
<!-- Node31 -->
<g id="node31" class="node">
<title>Node31</title>
<g id="a_node31"><a xlink:href="Camera_8hpp.html" target="_top" xlink:title=" ">
<polygon fill="none" stroke="black" points="914,-168.5 914,-187.5 982,-187.5 982,-168.5 914,-168.5"/>
<text text-anchor="middle" x="948" y="-175.5" font-family="Helvetica,sans-Serif" font-size="10.00">Camera.hpp</text>
</a>
</g>
</g>
<!-- Node30&#45;&gt;Node31 -->
<g id="edge53" class="edge">
<title>Node30&#45;&gt;Node31</title>
<path fill="none" stroke="midnightblue" d="M965.53,-224.08C962.69,-216.77 958.57,-206.18 955.04,-197.1"/>
<polygon fill="midnightblue" stroke="midnightblue" points="958.29,-195.8 951.4,-187.75 951.77,-198.34 958.29,-195.8"/>
</g>
<!-- Node31&#45;&gt;Node3 -->
<g id="edge54" class="edge">
<title>Node31&#45;&gt;Node3</title>
<path fill="none" stroke="midnightblue" d="M970.34,-168.44C993.75,-159.48 1030.74,-145.31 1057.19,-135.18"/>
<polygon fill="midnightblue" stroke="midnightblue" points="1058.68,-138.36 1066.76,-131.52 1056.17,-131.82 1058.68,-138.36"/>
</g>
<!-- Node31&#45;&gt;Node13 -->
<g id="edge55" class="edge">
<title>Node31&#45;&gt;Node13</title>
<path fill="none" stroke="midnightblue" d="M946.95,-168.35C944.78,-154.3 938.41,-126.61 921,-112 866.92,-66.64 833.82,-90.24 759.84,-75.98"/>
<polygon fill="midnightblue" stroke="midnightblue" points="760.13,-72.47 749.62,-73.82 758.68,-79.32 760.13,-72.47"/>
</g>
<!-- Node32&#45;&gt;Node2 -->
<g id="edge83" class="edge">
<title>Node32&#45;&gt;Node2</title>
<path fill="none" stroke="midnightblue" d="M1080.65,-504.44C1038.53,-495.04 970.79,-479.93 925.13,-469.74"/>
<polygon fill="midnightblue" stroke="midnightblue" points="925.69,-466.28 915.17,-467.52 924.16,-473.11 925.69,-466.28"/>
</g>
<!-- Node32&#45;&gt;Node5 -->
<g id="edge81" class="edge">
<title>Node32&#45;&gt;Node5</title>
<path fill="none" stroke="midnightblue" d="M1167.31,-513.6C1252.19,-513.49 1432.93,-508.03 1579,-468 1644.77,-449.98 1718,-471.2 1718,-403 1718,-403 1718,-403 1718,-121 1718,-35.28 1587.1,-16.27 1521.95,-12.12"/>
<polygon fill="midnightblue" stroke="midnightblue" points="1521.89,-8.61 1511.71,-11.56 1521.51,-15.6 1521.89,-8.61"/>
</g>
<!-- Node32&#45;&gt;Node23 -->
<g id="edge61" class="edge">
<title>Node32&#45;&gt;Node23</title>
<path fill="none" stroke="midnightblue" d="M1132.3,-504.5C1145.97,-495.66 1167.77,-481.29 1186,-468 1264.23,-410.95 1353.49,-337.91 1391.41,-306.5"/>
<polygon fill="midnightblue" stroke="midnightblue" points="1394.04,-308.85 1399.5,-299.77 1389.57,-303.47 1394.04,-308.85"/>
</g>
<!-- Node32&#45;&gt;Node25 -->
<g id="edge60" class="edge">
<title>Node32&#45;&gt;Node25</title>
<path fill="none" stroke="midnightblue" d="M1098.7,-504.43C1017.83,-470.3 718.33,-343.9 622.61,-303.5"/>
<polygon fill="midnightblue" stroke="midnightblue" points="623.81,-300.2 613.24,-299.54 621.09,-306.65 623.81,-300.2"/>
</g>
<!-- Node32&#45;&gt;Node30 -->
<g id="edge82" class="edge">
<title>Node32&#45;&gt;Node30</title>
<path fill="none" stroke="midnightblue" d="M1114.35,-504.38C1093.35,-465.46 1007.21,-305.81 978.42,-252.45"/>
<polygon fill="midnightblue" stroke="midnightblue" points="981.43,-250.66 973.6,-243.52 975.27,-253.99 981.43,-250.66"/>
</g>
<!-- Node33 -->
<g id="node33" class="node">
<title>Node33</title>
<g id="a_node33"><a xlink:href="PhysicsSystem_8hpp.html" target="_top" xlink:title=" ">
<polygon fill="none" stroke="black" points="1168,-224.5 1168,-243.5 1308,-243.5 1308,-224.5 1168,-224.5"/>
<text text-anchor="middle" x="1238" y="-231.5" font-family="Helvetica,sans-Serif" font-size="10.00">Physics/PhysicsSystem.hpp</text>
</a>
</g>
</g>
<!-- Node32&#45;&gt;Node33 -->
<g id="edge62" class="edge">
<title>Node32&#45;&gt;Node33</title>
<path fill="none" stroke="midnightblue" d="M1126.59,-504.28C1141.25,-486.52 1172,-444.34 1172,-403 1172,-403 1172,-403 1172,-345 1172,-306.86 1201.54,-270.52 1221.09,-250.64"/>
<polygon fill="midnightblue" stroke="midnightblue" points="1223.56,-253.12 1228.26,-243.63 1218.67,-248.12 1223.56,-253.12"/>
</g>
<!-- Node37 -->
<g id="node37" class="node">
<title>Node37</title>
<g id="a_node37"><a xlink:href="GameLevel_8hpp.html" target="_top" xlink:title=" ">
<polygon fill="none" stroke="black" points="1552,-112.5 1552,-131.5 1690,-131.5 1690,-112.5 1552,-112.5"/>
<text text-anchor="middle" x="1621" y="-119.5" font-family="Helvetica,sans-Serif" font-size="10.00">GameLevel/GameLevel.hpp</text>
</a>
</g>
</g>
<!-- Node32&#45;&gt;Node37 -->
<g id="edge77" class="edge">
<title>Node32&#45;&gt;Node37</title>
<path fill="none" stroke="midnightblue" d="M1167.4,-512.55C1292.88,-510.1 1619,-494.88 1619,-403 1619,-403 1619,-403 1619,-233 1619,-200.94 1619.86,-163.64 1620.45,-141.75"/>
<polygon fill="midnightblue" stroke="midnightblue" points="1623.96,-141.65 1620.74,-131.56 1616.96,-141.45 1623.96,-141.65"/>
</g>
<!-- Node33&#45;&gt;Node3 -->
<g id="edge72" class="edge">
<title>Node33&#45;&gt;Node3</title>
<path fill="none" stroke="midnightblue" d="M1215.23,-224.39C1196.19,-216.56 1168.88,-203.83 1148,-188 1129.67,-174.1 1112.44,-154 1101.39,-139.84"/>
<polygon fill="midnightblue" stroke="midnightblue" points="1103.91,-137.36 1095.07,-131.51 1098.33,-141.59 1103.91,-137.36"/>
</g>
<!-- Node33&#45;&gt;Node5 -->
<g id="edge63" class="edge">
<title>Node33&#45;&gt;Node5</title>
<path fill="none" stroke="midnightblue" d="M1308.09,-226.71C1388.2,-218.8 1510.1,-204.26 1524,-188 1563.95,-141.27 1520.66,-62.61 1498.02,-28.1"/>
<polygon fill="midnightblue" stroke="midnightblue" points="1500.77,-25.92 1492.26,-19.6 1494.97,-29.84 1500.77,-25.92"/>
</g>
<!-- Node33&#45;&gt;Node7 -->
<g id="edge66" class="edge">
<title>Node33&#45;&gt;Node7</title>
<path fill="none" stroke="midnightblue" d="M1240.34,-224.36C1247.55,-195.5 1266.23,-101.77 1218,-56 1192.09,-31.41 659.17,-15.85 509.68,-11.96"/>
<polygon fill="midnightblue" stroke="midnightblue" points="509.68,-8.46 499.6,-11.7 509.5,-15.46 509.68,-8.46"/>
</g>
<!-- Node33&#45;&gt;Node9 -->
<g id="edge65" class="edge">
<title>Node33&#45;&gt;Node9</title>
<path fill="none" stroke="midnightblue" d="M1235.3,-224.38C1232.48,-215.32 1227.91,-200.67 1224,-188 1212.77,-151.58 1199.76,-108.94 1192.55,-85.24"/>
<polygon fill="midnightblue" stroke="midnightblue" points="1195.85,-84.06 1189.59,-75.51 1189.15,-86.1 1195.85,-84.06"/>
</g>
<!-- Node33&#45;&gt;Node10 -->
<g id="edge64" class="edge">
<title>Node33&#45;&gt;Node10</title>
<path fill="none" stroke="midnightblue" d="M1233.49,-224.3C1221.65,-202.3 1187.51,-143.88 1143,-112 1112.4,-90.08 1070.13,-77.99 1042.68,-72"/>
<polygon fill="midnightblue" stroke="midnightblue" points="1043.1,-68.51 1032.6,-69.93 1041.69,-75.37 1043.1,-68.51"/>
</g>
<!-- Node34 -->
<g id="node34" class="node">
<title>Node34</title>
<g id="a_node34"><a xlink:href="Collider_8hpp.html" target="_top" xlink:title=" ">
<polygon fill="none" stroke="black" points="1310.5,-112.5 1310.5,-131.5 1377.5,-131.5 1377.5,-112.5 1310.5,-112.5"/>
<text text-anchor="middle" x="1344" y="-119.5" font-family="Helvetica,sans-Serif" font-size="10.00">Collider.hpp</text>
</a>
</g>
</g>
<!-- Node33&#45;&gt;Node34 -->
<g id="edge67" class="edge">
<title>Node33&#45;&gt;Node34</title>
<path fill="none" stroke="midnightblue" d="M1245.27,-224.37C1256.04,-211.7 1276.99,-187.49 1296,-168 1305.87,-157.88 1317.42,-147.03 1326.71,-138.52"/>
<polygon fill="midnightblue" stroke="midnightblue" points="1329.15,-141.03 1334.2,-131.72 1324.44,-135.85 1329.15,-141.03"/>
</g>
<!-- Node35 -->
<g id="node35" class="node">
<title>Node35</title>
<g id="a_node35"><a xlink:href="BoxCollider_8hpp.html" target="_top" xlink:title=" ">
<polygon fill="none" stroke="black" points="1304.5,-168.5 1304.5,-187.5 1387.5,-187.5 1387.5,-168.5 1304.5,-168.5"/>
<text text-anchor="middle" x="1346" y="-175.5" font-family="Helvetica,sans-Serif" font-size="10.00">BoxCollider.hpp</text>
</a>
</g>
</g>
<!-- Node33&#45;&gt;Node35 -->
<g id="edge70" class="edge">
<title>Node33&#45;&gt;Node35</title>
<path fill="none" stroke="midnightblue" d="M1255.35,-224.32C1272.67,-215.66 1299.52,-202.24 1319.5,-192.25"/>
<polygon fill="midnightblue" stroke="midnightblue" points="1321.31,-195.26 1328.69,-187.65 1318.18,-189 1321.31,-195.26"/>
</g>
<!-- Node36 -->
<g id="node36" class="node">
<title>Node36</title>
<g id="a_node36"><a xlink:href="Collision_8hpp.html" target="_top" xlink:title=" ">
<polygon fill="none" stroke="black" points="1405.5,-168.5 1405.5,-187.5 1514.5,-187.5 1514.5,-168.5 1405.5,-168.5"/>
<text text-anchor="middle" x="1460" y="-175.5" font-family="Helvetica,sans-Serif" font-size="10.00">Physics/Collision.hpp</text>
</a>
</g>
</g>
<!-- Node33&#45;&gt;Node36 -->
<g id="edge73" class="edge">
<title>Node33&#45;&gt;Node36</title>
<path fill="none" stroke="midnightblue" d="M1273.18,-224.44C1311.58,-215.1 1373.18,-200.12 1415.06,-189.93"/>
<polygon fill="midnightblue" stroke="midnightblue" points="1416.1,-193.28 1424.99,-187.52 1414.44,-186.48 1416.1,-193.28"/>
</g>
<!-- Node34&#45;&gt;Node4 -->
<g id="edge68" class="edge">
<title>Node34&#45;&gt;Node4</title>
<path fill="none" stroke="midnightblue" d="M1344,-112.08C1344,-105.01 1344,-94.86 1344,-85.99"/>
<polygon fill="midnightblue" stroke="midnightblue" points="1347.5,-85.75 1344,-75.75 1340.5,-85.75 1347.5,-85.75"/>
</g>
<!-- Node34&#45;&gt;Node9 -->
<g id="edge69" class="edge">
<title>Node34&#45;&gt;Node9</title>
<path fill="none" stroke="midnightblue" d="M1319.12,-112.44C1291.93,-103.09 1248.31,-88.09 1218.69,-77.9"/>
<polygon fill="midnightblue" stroke="midnightblue" points="1219.82,-74.59 1209.22,-74.64 1217.54,-81.21 1219.82,-74.59"/>
</g>
<!-- Node35&#45;&gt;Node34 -->
<g id="edge71" class="edge">
<title>Node35&#45;&gt;Node34</title>
<path fill="none" stroke="midnightblue" d="M1345.67,-168.08C1345.41,-161.01 1345.03,-150.86 1344.7,-141.99"/>
<polygon fill="midnightblue" stroke="midnightblue" points="1348.19,-141.61 1344.32,-131.75 1341.2,-141.87 1348.19,-141.61"/>
</g>
<!-- Node36&#45;&gt;Node5 -->
<g id="edge74" class="edge">
<title>Node36&#45;&gt;Node5</title>
<path fill="none" stroke="midnightblue" d="M1461.4,-168.08C1465.49,-141.95 1477.51,-65.21 1483.09,-29.58"/>
<polygon fill="midnightblue" stroke="midnightblue" points="1486.57,-29.99 1484.66,-19.57 1479.65,-28.91 1486.57,-29.99"/>
</g>
<!-- Node36&#45;&gt;Node7 -->
<g id="edge75" class="edge">
<title>Node36&#45;&gt;Node7</title>
<path fill="none" stroke="midnightblue" d="M1458.35,-168.29C1453.48,-145.2 1436.74,-82.36 1395,-56 1319.42,-8.28 676.59,-9.52 510.19,-10.66"/>
<polygon fill="midnightblue" stroke="midnightblue" points="509.91,-7.16 499.93,-10.74 509.96,-14.16 509.91,-7.16"/>
</g>
<!-- Node36&#45;&gt;Node34 -->
<g id="edge76" class="edge">
<title>Node36&#45;&gt;Node34</title>
<path fill="none" stroke="midnightblue" d="M1441.62,-168.44C1422.78,-159.68 1393.27,-145.94 1371.62,-135.86"/>
<polygon fill="midnightblue" stroke="midnightblue" points="1372.84,-132.56 1362.29,-131.52 1369.88,-138.91 1372.84,-132.56"/>
</g>
<!-- Node37&#45;&gt;Node5 -->
<g id="edge80" class="edge">
<title>Node37&#45;&gt;Node5</title>
<path fill="none" stroke="midnightblue" d="M1610.41,-112.37C1587.54,-93.73 1533.29,-49.53 1504.57,-26.13"/>
<polygon fill="midnightblue" stroke="midnightblue" points="1506.51,-23.19 1496.54,-19.59 1502.09,-28.62 1506.51,-23.19"/>
</g>
<!-- Node37&#45;&gt;Node9 -->
<g id="edge79" class="edge">
<title>Node37&#45;&gt;Node9</title>
<path fill="none" stroke="midnightblue" d="M1552.23,-112.44C1457.2,-100.62 1289.52,-79.76 1219.33,-71.02"/>
<polygon fill="midnightblue" stroke="midnightblue" points="1219.66,-67.54 1209.31,-69.78 1218.8,-74.48 1219.66,-67.54"/>
</g>
<!-- Node38 -->
<g id="node38" class="node">
<title>Node38</title>
<g id="a_node38"><a xlink:href="Layer_8hpp.html" target="_top" xlink:title=" ">
<polygon fill="none" stroke="black" points="1591.5,-56.5 1591.5,-75.5 1650.5,-75.5 1650.5,-56.5 1591.5,-56.5"/>
<text text-anchor="middle" x="1621" y="-63.5" font-family="Helvetica,sans-Serif" font-size="10.00">Layer.hpp</text>
</a>
</g>
</g>
<!-- Node37&#45;&gt;Node38 -->
<g id="edge78" class="edge">
<title>Node37&#45;&gt;Node38</title>
<path fill="none" stroke="midnightblue" d="M1621,-112.08C1621,-105.01 1621,-94.86 1621,-85.99"/>
<polygon fill="midnightblue" stroke="midnightblue" points="1624.5,-85.75 1621,-75.75 1617.5,-85.75 1624.5,-85.75"/>
</g>
</g>
</svg>
        <g id="navigator" transform="translate(0 0)" fill="#404254">
                <rect fill="#f2f5e9" fill-opacity="0.5" stroke="#606060" stroke-width=".5" x="0" y="0" width="60" height="60"/>
                <use id="zoomplus" xlink:href="#zoomPlus" x="17" y="9" onmousedown="handleZoom(evt,'in')"/>
                <use id="zoomminus" xlink:href="#zoomMin" x="42" y="9" onmousedown="handleZoom(evt,'out')"/>
                <use id="reset" xlink:href="#resetDef" x="30" y="36" onmousedown="handleReset()"/>
                <g id="arrowUp" xlink:href="#dirArrow" transform="translate(30 24)" onmousedown="handlePan(0,-1)">
                  <use xlink:href="#rim" fill="#404040">
                        <set attributeName="fill" to="#808080" begin="arrowUp.mouseover" end="arrowUp.mouseout"/>
                  </use>
                  <path fill="none" stroke="white" stroke-width="1.5" d="M0,-3.0v7 M-2.5,-0.5L0,-3.0L2.5,-0.5"/>
                </g>
                <g id="arrowRight" xlink:href="#dirArrow" transform="rotate(90) translate(36 -43)" onmousedown="handlePan(1,0)">
                  <use xlink:href="#rim" fill="#404040">
                        <set attributeName="fill" to="#808080" begin="arrowRight.mouseover" end="arrowRight.mouseout"/>
                  </use>
                  <path fill="none" stroke="white" stroke-width="1.5" d="M0,-3.0v7 M-2.5,-0.5L0,-3.0L2.5,-0.5"/>
                </g>
                <g id="arrowDown" xlink:href="#dirArrow" transform="rotate(180) translate(-30 -48)" onmousedown="handlePan(0,1)">
                  <use xlink:href="#rim" fill="#404040">
                        <set attributeName="fill" to="#808080" begin="arrowDown.mouseover" end="arrowDown.mouseout"/>
                  </use>
                  <path fill="none" stroke="white" stroke-width="1.5" d="M0,-3.0v7 M-2.5,-0.5L0,-3.0L2.5,-0.5"/>
                </g>
                <g id="arrowLeft" xlink:href="#dirArrow" transform="rotate(270) translate(-36 17)" onmousedown="handlePan(-1,0)">
                  <use xlink:href="#rim" fill="#404040">
                        <set attributeName="fill" to="#808080" begin="arrowLeft.mouseover" end="arrowLeft.mouseout"/>
                  </use>
                  <path fill="none" stroke="white" stroke-width="1.5" d="M0,-3.0v7 M-2.5,-0.5L0,-3.0L2.5,-0.5"/>
                </g>
        </g>
        <svg viewBox="0 0 15 15" width="100%" height="30px" preserveAspectRatio="xMaxYMin meet">
         <g id="arrow_out" transform="scale(0.3 0.3)">
          <a xlink:href="RenderSystem_8cpp__incl_org.svg" target="_base">
           <rect id="button" ry="5" rx="5" y="6" x="6" height="38" width="38"
                fill="#f2f5e9" fill-opacity="0.5" stroke="#606060" stroke-width="1.0"/>
           <path id="arrow"
             d="M 11.500037,31.436501 C 11.940474,20.09759 22.043105,11.32322 32.158766,21.979434 L 37.068811,17.246167 C 37.068811,17.246167 37.088388,32 37.088388,32 L 22.160133,31.978069 C 22.160133,31.978069 26.997745,27.140456 26.997745,27.140456 C 18.528582,18.264221 13.291696,25.230495 11.500037,31.436501 z"
             style="fill:#404040;"/>
          </a>
         </g>
        </svg>
</svg>
