<?xml version="1.0" encoding="UTF-8" standalone="no"?>
<!DOCTYPE svg PUBLIC "-//W3C//DTD SVG 1.1//EN"
 "http://www.w3.org/Graphics/SVG/1.1/DTD/svg11.dtd">
<!-- Generated by graphviz version 2.44.0 ()
 -->
<!-- Title: includes/platformer&#45;engine/Texture/RenderSystem.hpp Pages: 1 -->
<svg width="624pt" height="173pt"
 viewBox="0.00 0.00 623.50 173.00" xmlns="http://www.w3.org/2000/svg" xmlns:xlink="http://www.w3.org/1999/xlink">
<g id="graph0" class="graph" transform="scale(1 1) rotate(0) translate(4 169)">
<title>includes/platformer&#45;engine/Texture/RenderSystem.hpp</title>
<!-- Node1 -->
<g id="node1" class="node">
<title>Node1</title>
<g id="a_node1"><a xlink:title=" ">
<polygon fill="#bfbfbf" stroke="black" points="66,-134.5 66,-164.5 234,-164.5 234,-134.5 66,-134.5"/>
<text text-anchor="start" x="74" y="-152.5" font-family="Helvetica,sans-Serif" font-size="10.00">includes/platformer</text>
<text text-anchor="middle" x="150" y="-141.5" font-family="Helvetica,sans-Serif" font-size="10.00">&#45;engine/Texture/RenderSystem.hpp</text>
</a>
</g>
</g>
<!-- Node2 -->
<g id="node2" class="node">
<title>Node2</title>
<g id="a_node2"><a xlink:href="RenderSystem_8cpp.html" target="_top" xlink:title=" ">
<polygon fill="none" stroke="black" points="0,-6 0,-25 150,-25 150,-6 0,-6"/>
<text text-anchor="middle" x="75" y="-13" font-family="Helvetica,sans-Serif" font-size="10.00">src/Texture/RenderSystem.cpp</text>
</a>
</g>
</g>
<!-- Node1&#45;&gt;Node2 -->
<g id="edge1" class="edge">
<title>Node1&#45;&gt;Node2</title>
<path fill="none" stroke="midnightblue" d="M136.93,-125.49C119.99,-95.68 91.29,-45.17 79.88,-25.1"/>
<polygon fill="midnightblue" stroke="midnightblue" points="133.99,-127.41 141.97,-134.37 140.08,-123.95 133.99,-127.41"/>
</g>
<!-- Node3 -->
<g id="node3" class="node">
<title>Node3</title>
<g id="a_node3"><a xlink:href="Engine_8hpp.html" target="_top" xlink:title=" ">
<polygon fill="none" stroke="black" points="159.5,-67.5 159.5,-97.5 290.5,-97.5 290.5,-67.5 159.5,-67.5"/>
<text text-anchor="start" x="167.5" y="-85.5" font-family="Helvetica,sans-Serif" font-size="10.00">includes/platformer</text>
<text text-anchor="middle" x="225" y="-74.5" font-family="Helvetica,sans-Serif" font-size="10.00">&#45;engine/Engine/Engine.hpp</text>
</a>
</g>
</g>
<!-- Node1&#45;&gt;Node3 -->
<g id="edge2" class="edge">
<title>Node1&#45;&gt;Node3</title>
<path fill="none" stroke="midnightblue" d="M174.12,-127.6C185.44,-117.78 198.64,-106.34 208.76,-97.58"/>
<polygon fill="midnightblue" stroke="midnightblue" points="171.54,-125.2 166.27,-134.4 176.12,-130.49 171.54,-125.2"/>
</g>
<!-- Node3&#45;&gt;Node2 -->
<g id="edge6" class="edge">
<title>Node3&#45;&gt;Node2</title>
<path fill="none" stroke="midnightblue" d="M182.99,-63.3C154.06,-50.76 116.96,-34.68 94.63,-25.01"/>
<polygon fill="midnightblue" stroke="midnightblue" points="181.89,-66.63 192.45,-67.4 184.67,-60.21 181.89,-66.63"/>
</g>
<!-- Node4 -->
<g id="node4" class="node">
<title>Node4</title>
<g id="a_node4"><a xlink:href="Engine_8cpp.html" target="_top" xlink:title=" ">
<polygon fill="none" stroke="black" points="168.5,-6 168.5,-25 281.5,-25 281.5,-6 168.5,-6"/>
<text text-anchor="middle" x="225" y="-13" font-family="Helvetica,sans-Serif" font-size="10.00">src/Engine/Engine.cpp</text>
</a>
</g>
</g>
<!-- Node3&#45;&gt;Node4 -->
<g id="edge3" class="edge">
<title>Node3&#45;&gt;Node4</title>
<path fill="none" stroke="midnightblue" d="M225,-57.25C225,-46.02 225,-33.38 225,-25.19"/>
<polygon fill="midnightblue" stroke="midnightblue" points="221.5,-57.4 225,-67.4 228.5,-57.4 221.5,-57.4"/>
</g>
<!-- Node5 -->
<g id="node5" class="node">
<title>Node5</title>
<g id="a_node5"><a xlink:href="ClientNetworkManager_8cpp.html" target="_top" xlink:title=" ">
<polygon fill="none" stroke="black" points="299.5,-0.5 299.5,-30.5 446.5,-30.5 446.5,-0.5 299.5,-0.5"/>
<text text-anchor="start" x="307.5" y="-18.5" font-family="Helvetica,sans-Serif" font-size="10.00">src/Networking/ClientNetwork</text>
<text text-anchor="middle" x="373" y="-7.5" font-family="Helvetica,sans-Serif" font-size="10.00">Manager.cpp</text>
</a>
</g>
</g>
<!-- Node3&#45;&gt;Node5 -->
<g id="edge4" class="edge">
<title>Node3&#45;&gt;Node5</title>
<path fill="none" stroke="midnightblue" d="M266.51,-63.27C290.08,-52.92 319.14,-40.15 340.95,-30.58"/>
<polygon fill="midnightblue" stroke="midnightblue" points="264.86,-60.17 257.11,-67.4 267.68,-66.58 264.86,-60.17"/>
</g>
<!-- Node6 -->
<g id="node6" class="node">
<title>Node6</title>
<g id="a_node6"><a xlink:href="ServerNetworkManager_8cpp.html" target="_top" xlink:title=" ">
<polygon fill="none" stroke="black" points="464.5,-0.5 464.5,-30.5 615.5,-30.5 615.5,-0.5 464.5,-0.5"/>
<text text-anchor="start" x="472.5" y="-18.5" font-family="Helvetica,sans-Serif" font-size="10.00">src/Networking/ServerNetwork</text>
<text text-anchor="middle" x="540" y="-7.5" font-family="Helvetica,sans-Serif" font-size="10.00">Manager.cpp</text>
</a>
</g>
</g>
<!-- Node3&#45;&gt;Node6 -->
<g id="edge5" class="edge">
<title>Node3&#45;&gt;Node6</title>
<path fill="none" stroke="midnightblue" d="M300.52,-65.92C352.7,-55.15 421.52,-40.95 471.99,-30.53"/>
<polygon fill="midnightblue" stroke="midnightblue" points="299.74,-62.5 290.65,-67.95 301.15,-69.36 299.74,-62.5"/>
</g>
</g>
</svg>
