<?xml version="1.0" encoding="UTF-8" standalone="no"?>
<!DOCTYPE svg PUBLIC "-//W3C//DTD SVG 1.1//EN"
 "http://www.w3.org/Graphics/SVG/1.1/DTD/svg11.dtd">
<!-- Generated by graphviz version 2.44.0 ()
 -->
<!-- Title: src/API/RigidBody.cpp Pages: 1 -->
<svg width="352pt" height="375pt"
 viewBox="0.00 0.00 352.00 375.00" xmlns="http://www.w3.org/2000/svg" xmlns:xlink="http://www.w3.org/1999/xlink">
<g id="graph0" class="graph" transform="scale(1 1) rotate(0) translate(4 371)">
<title>src/API/RigidBody.cpp</title>
<!-- Node1 -->
<g id="node1" class="node">
<title>Node1</title>
<g id="a_node1"><a xlink:title=" ">
<polygon fill="#bfbfbf" stroke="black" points="146.5,-347.5 146.5,-366.5 260.5,-366.5 260.5,-347.5 146.5,-347.5"/>
<text text-anchor="middle" x="203.5" y="-354.5" font-family="Helvetica,sans-Serif" font-size="10.00">src/API/RigidBody.cpp</text>
</a>
</g>
</g>
<!-- Node2 -->
<g id="node2" class="node">
<title>Node2</title>
<g id="a_node2"><a xlink:href="RigidBody_8hpp.html" target="_top" xlink:title=" ">
<polygon fill="none" stroke="black" points="125.5,-224.5 125.5,-243.5 203.5,-243.5 203.5,-224.5 125.5,-224.5"/>
<text text-anchor="middle" x="164.5" y="-231.5" font-family="Helvetica,sans-Serif" font-size="10.00">RigidBody.hpp</text>
</a>
</g>
</g>
<!-- Node1&#45;&gt;Node2 -->
<g id="edge1" class="edge">
<title>Node1&#45;&gt;Node2</title>
<path fill="none" stroke="midnightblue" d="M196.82,-347.21C190.55,-338.5 181.42,-324.53 176.5,-311 169.67,-292.21 166.73,-269.41 165.46,-253.72"/>
<polygon fill="midnightblue" stroke="midnightblue" points="168.95,-253.45 164.8,-243.7 161.96,-253.91 168.95,-253.45"/>
</g>
<!-- Node10 -->
<g id="node10" class="node">
<title>Node10</title>
<g id="a_node10"><a xlink:href="IllegalCollisionBehaviourException_8hpp.html" target="_top" xlink:title=" ">
<polygon fill="none" stroke="black" points="186,-280.5 186,-310.5 315,-310.5 315,-280.5 186,-280.5"/>
<text text-anchor="start" x="194" y="-298.5" font-family="Helvetica,sans-Serif" font-size="10.00">Exceptions/IllegalCollision</text>
<text text-anchor="middle" x="250.5" y="-287.5" font-family="Helvetica,sans-Serif" font-size="10.00">BehaviourException.hpp</text>
</a>
</g>
</g>
<!-- Node1&#45;&gt;Node10 -->
<g id="edge12" class="edge">
<title>Node1&#45;&gt;Node10</title>
<path fill="none" stroke="midnightblue" d="M210.23,-347.48C216.18,-339.94 225.12,-328.63 233.07,-318.57"/>
<polygon fill="midnightblue" stroke="midnightblue" points="235.97,-320.54 239.42,-310.52 230.48,-316.2 235.97,-320.54"/>
</g>
<!-- Node3 -->
<g id="node3" class="node">
<title>Node3</title>
<g id="a_node3"><a xlink:href="Component_8hpp.html" target="_top" xlink:title=" ">
<polygon fill="none" stroke="black" points="84.5,-56.5 84.5,-75.5 168.5,-75.5 168.5,-56.5 84.5,-56.5"/>
<text text-anchor="middle" x="126.5" y="-63.5" font-family="Helvetica,sans-Serif" font-size="10.00">Component.hpp</text>
</a>
</g>
</g>
<!-- Node2&#45;&gt;Node3 -->
<g id="edge2" class="edge">
<title>Node2&#45;&gt;Node3</title>
<path fill="none" stroke="midnightblue" d="M166.89,-224.4C172.1,-204.04 182.83,-151.58 167.5,-112 163.05,-100.5 154.13,-90.13 145.75,-82.25"/>
<polygon fill="midnightblue" stroke="midnightblue" points="147.87,-79.46 138.04,-75.51 143.26,-84.73 147.87,-79.46"/>
</g>
<!-- Node5 -->
<g id="node5" class="node">
<title>Node5</title>
<g id="a_node5"><a xlink:href="Point_8hpp.html" target="_top" xlink:title=" ">
<polygon fill="none" stroke="black" points="102,-112.5 102,-131.5 159,-131.5 159,-112.5 102,-112.5"/>
<text text-anchor="middle" x="130.5" y="-119.5" font-family="Helvetica,sans-Serif" font-size="10.00">Point.hpp</text>
</a>
</g>
</g>
<!-- Node2&#45;&gt;Node5 -->
<g id="edge4" class="edge">
<title>Node2&#45;&gt;Node5</title>
<path fill="none" stroke="midnightblue" d="M161.83,-224.37C156.32,-206.54 143.57,-165.3 136.15,-141.27"/>
<polygon fill="midnightblue" stroke="midnightblue" points="139.45,-140.11 133.16,-131.59 132.76,-142.18 139.45,-140.11"/>
</g>
<!-- Node6 -->
<g id="node6" class="node">
<title>Node6</title>
<g id="a_node6"><a xlink:href="Collision_8hpp.html" target="_top" xlink:title=" ">
<polygon fill="none" stroke="black" points="0,-168.5 0,-187.5 109,-187.5 109,-168.5 0,-168.5"/>
<text text-anchor="middle" x="54.5" y="-175.5" font-family="Helvetica,sans-Serif" font-size="10.00">Physics/Collision.hpp</text>
</a>
</g>
</g>
<!-- Node2&#45;&gt;Node6 -->
<g id="edge5" class="edge">
<title>Node2&#45;&gt;Node6</title>
<path fill="none" stroke="midnightblue" d="M146.83,-224.32C129.11,-215.62 101.6,-202.12 81.21,-192.11"/>
<polygon fill="midnightblue" stroke="midnightblue" points="82.65,-188.92 72.13,-187.65 79.56,-195.2 82.65,-188.92"/>
</g>
<!-- Node9 -->
<g id="node9" class="node">
<title>Node9</title>
<g id="a_node9"><a xlink:title=" ">
<polygon fill="none" stroke="#bfbfbf" points="216,-168.5 216,-187.5 251,-187.5 251,-168.5 216,-168.5"/>
<text text-anchor="middle" x="233.5" y="-175.5" font-family="Helvetica,sans-Serif" font-size="10.00">map</text>
</a>
</g>
</g>
<!-- Node2&#45;&gt;Node9 -->
<g id="edge11" class="edge">
<title>Node2&#45;&gt;Node9</title>
<path fill="none" stroke="midnightblue" d="M175.59,-224.32C185.99,-216.18 201.76,-203.84 214.22,-194.09"/>
<polygon fill="midnightblue" stroke="midnightblue" points="216.49,-196.75 222.21,-187.83 212.18,-191.24 216.49,-196.75"/>
</g>
<!-- Node4 -->
<g id="node4" class="node">
<title>Node4</title>
<g id="a_node4"><a xlink:title=" ">
<polygon fill="none" stroke="#bfbfbf" points="29,-0.5 29,-19.5 80,-19.5 80,-0.5 29,-0.5"/>
<text text-anchor="middle" x="54.5" y="-7.5" font-family="Helvetica,sans-Serif" font-size="10.00">memory</text>
</a>
</g>
</g>
<!-- Node3&#45;&gt;Node4 -->
<g id="edge3" class="edge">
<title>Node3&#45;&gt;Node4</title>
<path fill="none" stroke="midnightblue" d="M114.93,-56.32C104.08,-48.18 87.62,-35.84 74.62,-26.09"/>
<polygon fill="midnightblue" stroke="midnightblue" points="76.38,-23.03 66.28,-19.83 72.18,-28.63 76.38,-23.03"/>
</g>
<!-- Node6&#45;&gt;Node4 -->
<g id="edge6" class="edge">
<title>Node6&#45;&gt;Node4</title>
<path fill="none" stroke="midnightblue" d="M40.42,-168.26C29.15,-160.35 14.15,-147.58 7.5,-132 1.12,-117.07 4.49,-76.02 13.5,-56 18.56,-44.75 27.53,-34.41 35.79,-26.48"/>
<polygon fill="midnightblue" stroke="midnightblue" points="38.26,-28.97 43.34,-19.67 33.57,-23.77 38.26,-28.97"/>
</g>
<!-- Node6&#45;&gt;Node5 -->
<g id="edge7" class="edge">
<title>Node6&#45;&gt;Node5</title>
<path fill="none" stroke="midnightblue" d="M66.71,-168.32C78.28,-160.11 95.88,-147.6 109.66,-137.81"/>
<polygon fill="midnightblue" stroke="midnightblue" points="111.94,-140.48 118.07,-131.83 107.89,-134.77 111.94,-140.48"/>
</g>
<!-- Node7 -->
<g id="node7" class="node">
<title>Node7</title>
<g id="a_node7"><a xlink:href="Collider_8hpp.html" target="_top" xlink:title=" ">
<polygon fill="none" stroke="black" points="17,-112.5 17,-131.5 84,-131.5 84,-112.5 17,-112.5"/>
<text text-anchor="middle" x="50.5" y="-119.5" font-family="Helvetica,sans-Serif" font-size="10.00">Collider.hpp</text>
</a>
</g>
</g>
<!-- Node6&#45;&gt;Node7 -->
<g id="edge8" class="edge">
<title>Node6&#45;&gt;Node7</title>
<path fill="none" stroke="midnightblue" d="M53.84,-168.08C53.32,-161.01 52.56,-150.86 51.91,-141.99"/>
<polygon fill="midnightblue" stroke="midnightblue" points="55.38,-141.47 51.15,-131.75 48.4,-141.98 55.38,-141.47"/>
</g>
<!-- Node7&#45;&gt;Node3 -->
<g id="edge9" class="edge">
<title>Node7&#45;&gt;Node3</title>
<path fill="none" stroke="midnightblue" d="M62.71,-112.32C74.28,-104.11 91.88,-91.6 105.66,-81.81"/>
<polygon fill="midnightblue" stroke="midnightblue" points="107.94,-84.48 114.07,-75.83 103.89,-78.77 107.94,-84.48"/>
</g>
<!-- Node8 -->
<g id="node8" class="node">
<title>Node8</title>
<g id="a_node8"><a xlink:title=" ">
<polygon fill="none" stroke="#bfbfbf" points="22.5,-56.5 22.5,-75.5 66.5,-75.5 66.5,-56.5 22.5,-56.5"/>
<text text-anchor="middle" x="44.5" y="-63.5" font-family="Helvetica,sans-Serif" font-size="10.00">vector</text>
</a>
</g>
</g>
<!-- Node7&#45;&gt;Node8 -->
<g id="edge10" class="edge">
<title>Node7&#45;&gt;Node8</title>
<path fill="none" stroke="midnightblue" d="M49.51,-112.08C48.71,-104.93 47.57,-94.64 46.58,-85.69"/>
<polygon fill="midnightblue" stroke="midnightblue" points="50.06,-85.3 45.47,-75.75 43.1,-86.08 50.06,-85.3"/>
</g>
<!-- Node10&#45;&gt;Node2 -->
<g id="edge15" class="edge">
<title>Node10&#45;&gt;Node2</title>
<path fill="none" stroke="midnightblue" d="M230.12,-280.4C216.59,-271.04 198.89,-258.79 185.28,-249.38"/>
<polygon fill="midnightblue" stroke="midnightblue" points="187.23,-246.47 177.01,-243.66 183.25,-252.23 187.23,-246.47"/>
</g>
<!-- Node11 -->
<g id="node11" class="node">
<title>Node11</title>
<g id="a_node11"><a xlink:title=" ">
<polygon fill="none" stroke="#bfbfbf" points="285,-224.5 285,-243.5 344,-243.5 344,-224.5 285,-224.5"/>
<text text-anchor="middle" x="314.5" y="-231.5" font-family="Helvetica,sans-Serif" font-size="10.00">stdexcept</text>
</a>
</g>
</g>
<!-- Node10&#45;&gt;Node11 -->
<g id="edge13" class="edge">
<title>Node10&#45;&gt;Node11</title>
<path fill="none" stroke="midnightblue" d="M265.67,-280.4C275.25,-271.49 287.66,-259.95 297.57,-250.74"/>
<polygon fill="midnightblue" stroke="midnightblue" points="300.25,-253.03 305.19,-243.66 295.48,-247.9 300.25,-253.03"/>
</g>
<!-- Node12 -->
<g id="node12" class="node">
<title>Node12</title>
<g id="a_node12"><a xlink:title=" ">
<polygon fill="none" stroke="#bfbfbf" points="226,-224.5 226,-243.5 267,-243.5 267,-224.5 226,-224.5"/>
<text text-anchor="middle" x="246.5" y="-231.5" font-family="Helvetica,sans-Serif" font-size="10.00">string</text>
</a>
</g>
</g>
<!-- Node10&#45;&gt;Node12 -->
<g id="edge14" class="edge">
<title>Node10&#45;&gt;Node12</title>
<path fill="none" stroke="midnightblue" d="M249.55,-280.4C249.02,-272.47 248.35,-262.46 247.77,-253.86"/>
<polygon fill="midnightblue" stroke="midnightblue" points="251.24,-253.4 247.08,-243.66 244.26,-253.87 251.24,-253.4"/>
</g>
</g>
</svg>
