<?xml version="1.0" encoding="UTF-8" standalone="no"?>
<!DOCTYPE svg PUBLIC "-//W3C//DTD SVG 1.1//EN"
 "http://www.w3.org/Graphics/SVG/1.1/DTD/svg11.dtd">
<!-- Generated by graphviz version 2.44.0 ()
 -->
<!-- Title: includes/spic&#45;prj&#45;api/RigidBody.hpp Pages: 1 -->
<svg width="1001pt" height="329pt"
 viewBox="0.00 0.00 1001.43 329.00" xmlns="http://www.w3.org/2000/svg" xmlns:xlink="http://www.w3.org/1999/xlink">
<g id="graph0" class="graph" transform="scale(1 1) rotate(0) translate(4 325)">
<title>includes/spic&#45;prj&#45;api/RigidBody.hpp</title>
<!-- Node1 -->
<g id="node1" class="node">
<title>Node1</title>
<g id="a_node1"><a xlink:title=" ">
<polygon fill="#bfbfbf" stroke="black" points="370.43,-290.5 370.43,-320.5 473.43,-320.5 473.43,-290.5 370.43,-290.5"/>
<text text-anchor="start" x="378.43" y="-308.5" font-family="Helvetica,sans-Serif" font-size="10.00">includes/spic&#45;prj&#45;api</text>
<text text-anchor="middle" x="421.93" y="-297.5" font-family="Helvetica,sans-Serif" font-size="10.00">/RigidBody.hpp</text>
</a>
</g>
</g>
<!-- Node2 -->
<g id="node2" class="node">
<title>Node2</title>
<g id="a_node2"><a xlink:href="RigidBody_8cpp.html" target="_top" xlink:title=" ">
<polygon fill="none" stroke="black" points="292.93,-145.5 292.93,-164.5 406.93,-164.5 406.93,-145.5 292.93,-145.5"/>
<text text-anchor="middle" x="349.93" y="-152.5" font-family="Helvetica,sans-Serif" font-size="10.00">src/API/RigidBody.cpp</text>
</a>
</g>
</g>
<!-- Node1&#45;&gt;Node2 -->
<g id="edge1" class="edge">
<title>Node1&#45;&gt;Node2</title>
<path fill="none" stroke="midnightblue" d="M360.34,-294.62C316,-286.11 261.67,-272.3 247.93,-254 236.72,-239.07 238.42,-228.06 247.93,-212 262.64,-187.14 292.74,-172.58 316.45,-164.57"/>
<polygon fill="midnightblue" stroke="midnightblue" points="359.73,-298.07 370.2,-296.46 361.01,-291.19 359.73,-298.07"/>
</g>
<!-- Node3 -->
<g id="node3" class="node">
<title>Node3</title>
<g id="a_node3"><a xlink:href="CollisionBehaviour_8cpp.html" target="_top" xlink:title=" ">
<polygon fill="none" stroke="black" points="22.93,-223.5 22.93,-242.5 200.93,-242.5 200.93,-223.5 22.93,-223.5"/>
<text text-anchor="middle" x="111.93" y="-230.5" font-family="Helvetica,sans-Serif" font-size="10.00">src/Behaviour/CollisionBehaviour.cpp</text>
</a>
</g>
</g>
<!-- Node1&#45;&gt;Node3 -->
<g id="edge2" class="edge">
<title>Node1&#45;&gt;Node3</title>
<path fill="none" stroke="midnightblue" d="M360.59,-290.55C297.69,-276.25 201.86,-254.45 149.43,-242.53"/>
<polygon fill="midnightblue" stroke="midnightblue" points="359.86,-293.97 370.39,-292.78 361.42,-287.15 359.86,-293.97"/>
</g>
<!-- Node4 -->
<g id="node4" class="node">
<title>Node4</title>
<g id="a_node4"><a xlink:href="GameObjectBuilder_8cpp.html" target="_top" xlink:title=" ">
<polygon fill="none" stroke="black" points="119.43,-67.5 119.43,-86.5 288.43,-86.5 288.43,-67.5 119.43,-67.5"/>
<text text-anchor="middle" x="203.93" y="-74.5" font-family="Helvetica,sans-Serif" font-size="10.00">src/Builder/GameObjectBuilder.cpp</text>
</a>
</g>
</g>
<!-- Node1&#45;&gt;Node4 -->
<g id="edge3" class="edge">
<title>Node1&#45;&gt;Node4</title>
<path fill="none" stroke="midnightblue" d="M360.06,-301.29C251.6,-295.01 36.45,-279.48 13.93,-254 -48.16,-183.76 116.92,-111.19 180.32,-86.67"/>
<polygon fill="midnightblue" stroke="midnightblue" points="360.03,-304.79 370.22,-301.86 360.43,-297.8 360.03,-304.79"/>
</g>
<!-- Node5 -->
<g id="node5" class="node">
<title>Node5</title>
<g id="a_node5"><a xlink:href="PhysicsSystem_8cpp.html" target="_top" xlink:title=" ">
<polygon fill="none" stroke="black" points="256.93,-223.5 256.93,-242.5 412.93,-242.5 412.93,-223.5 256.93,-223.5"/>
<text text-anchor="middle" x="334.93" y="-230.5" font-family="Helvetica,sans-Serif" font-size="10.00">src/Physics/PhysicsSystem.cpp</text>
</a>
</g>
</g>
<!-- Node1&#45;&gt;Node5 -->
<g id="edge4" class="edge">
<title>Node1&#45;&gt;Node5</title>
<path fill="none" stroke="midnightblue" d="M396.49,-283.88C379.69,-270.27 358.53,-253.13 345.9,-242.89"/>
<polygon fill="midnightblue" stroke="midnightblue" points="394.35,-286.66 404.32,-290.23 398.76,-281.22 394.35,-286.66"/>
</g>
<!-- Node6 -->
<g id="node6" class="node">
<title>Node6</title>
<g id="a_node6"><a xlink:href="GameObjectBuilder_8hpp.html" target="_top" xlink:title=" ">
<polygon fill="none" stroke="black" points="547.43,-134.5 547.43,-175.5 686.43,-175.5 686.43,-134.5 547.43,-134.5"/>
<text text-anchor="start" x="555.43" y="-163.5" font-family="Helvetica,sans-Serif" font-size="10.00">includes/platformer</text>
<text text-anchor="start" x="555.43" y="-152.5" font-family="Helvetica,sans-Serif" font-size="10.00">&#45;engine/Builder/GameObject</text>
<text text-anchor="middle" x="616.93" y="-141.5" font-family="Helvetica,sans-Serif" font-size="10.00">Builder.hpp</text>
</a>
</g>
</g>
<!-- Node1&#45;&gt;Node6 -->
<g id="edge5" class="edge">
<title>Node1&#45;&gt;Node6</title>
<path fill="none" stroke="midnightblue" d="M484.16,-302.18C521.96,-297.41 568.3,-285 596.93,-254 616.6,-232.69 619.12,-197.48 618.49,-175.57"/>
<polygon fill="midnightblue" stroke="midnightblue" points="483.3,-298.75 473.74,-303.33 484.07,-305.71 483.3,-298.75"/>
</g>
<!-- Node11 -->
<g id="node11" class="node">
<title>Node11</title>
<g id="a_node11"><a xlink:href="ObjectBuilder_8hpp.html" target="_top" xlink:title=" ">
<polygon fill="none" stroke="black" points="645.43,-218 645.43,-248 806.43,-248 806.43,-218 645.43,-218"/>
<text text-anchor="start" x="653.43" y="-236" font-family="Helvetica,sans-Serif" font-size="10.00">includes/platformer</text>
<text text-anchor="middle" x="725.93" y="-225" font-family="Helvetica,sans-Serif" font-size="10.00">&#45;engine/Builder/ObjectBuilder.hpp</text>
</a>
</g>
</g>
<!-- Node1&#45;&gt;Node11 -->
<g id="edge11" class="edge">
<title>Node1&#45;&gt;Node11</title>
<path fill="none" stroke="midnightblue" d="M483.46,-290.23C536.52,-277.92 612.72,-260.25 665.47,-248.02"/>
<polygon fill="midnightblue" stroke="midnightblue" points="482.45,-286.87 473.5,-292.54 484.03,-293.69 482.45,-286.87"/>
</g>
<!-- Node12 -->
<g id="node12" class="node">
<title>Node12</title>
<g id="a_node12"><a xlink:href="IllegalCollisionBehaviourException_8hpp.html" target="_top" xlink:title=" ">
<polygon fill="none" stroke="black" points="431.43,-212.5 431.43,-253.5 588.43,-253.5 588.43,-212.5 431.43,-212.5"/>
<text text-anchor="start" x="439.43" y="-241.5" font-family="Helvetica,sans-Serif" font-size="10.00">includes/platformer</text>
<text text-anchor="start" x="439.43" y="-230.5" font-family="Helvetica,sans-Serif" font-size="10.00">&#45;engine/Exceptions/Illegal</text>
<text text-anchor="middle" x="509.93" y="-219.5" font-family="Helvetica,sans-Serif" font-size="10.00">CollisionBehaviourException.hpp</text>
</a>
</g>
</g>
<!-- Node1&#45;&gt;Node12 -->
<g id="edge13" class="edge">
<title>Node1&#45;&gt;Node12</title>
<path fill="none" stroke="midnightblue" d="M447.6,-283.93C459.55,-274.36 473.69,-263.03 485.48,-253.59"/>
<polygon fill="midnightblue" stroke="midnightblue" points="445.35,-281.25 439.74,-290.23 449.73,-286.71 445.35,-281.25"/>
</g>
<!-- Node13 -->
<g id="node13" class="node">
<title>Node13</title>
<g id="a_node13"><a xlink:href="PlayerRigidBody_8hpp.html" target="_top" xlink:title=" ">
<polygon fill="none" stroke="black" points="824.43,-212.5 824.43,-253.5 961.43,-253.5 961.43,-212.5 824.43,-212.5"/>
<text text-anchor="start" x="832.43" y="-241.5" font-family="Helvetica,sans-Serif" font-size="10.00">includes/platformer</text>
<text text-anchor="start" x="832.43" y="-230.5" font-family="Helvetica,sans-Serif" font-size="10.00">&#45;engine/Physics/PlayerRigid</text>
<text text-anchor="middle" x="892.93" y="-219.5" font-family="Helvetica,sans-Serif" font-size="10.00">Body.hpp</text>
</a>
</g>
</g>
<!-- Node1&#45;&gt;Node13 -->
<g id="edge15" class="edge">
<title>Node1&#45;&gt;Node13</title>
<path fill="none" stroke="midnightblue" d="M483.7,-299.03C561.6,-291.56 699.45,-276.5 815.93,-254 818.64,-253.48 821.4,-252.91 824.18,-252.32"/>
<polygon fill="midnightblue" stroke="midnightblue" points="483.2,-295.56 473.57,-299.99 483.86,-302.53 483.2,-295.56"/>
</g>
<!-- Node6&#45;&gt;Node4 -->
<g id="edge6" class="edge">
<title>Node6&#45;&gt;Node4</title>
<path fill="none" stroke="midnightblue" d="M537.45,-139.37C452.28,-123.7 319.97,-99.35 250.36,-86.54"/>
<polygon fill="midnightblue" stroke="midnightblue" points="536.87,-142.83 547.34,-141.19 538.13,-135.94 536.87,-142.83"/>
</g>
<!-- Node7 -->
<g id="node7" class="node">
<title>Node7</title>
<g id="a_node7"><a xlink:href="ServerNetworkManager_8cpp.html" target="_top" xlink:title=" ">
<polygon fill="none" stroke="black" points="514.43,-62 514.43,-92 665.43,-92 665.43,-62 514.43,-62"/>
<text text-anchor="start" x="522.43" y="-80" font-family="Helvetica,sans-Serif" font-size="10.00">src/Networking/ServerNetwork</text>
<text text-anchor="middle" x="589.93" y="-69" font-family="Helvetica,sans-Serif" font-size="10.00">Manager.cpp</text>
</a>
</g>
</g>
<!-- Node6&#45;&gt;Node7 -->
<g id="edge7" class="edge">
<title>Node6&#45;&gt;Node7</title>
<path fill="none" stroke="midnightblue" d="M606.61,-124.96C602.63,-113.75 598.25,-101.43 594.98,-92.23"/>
<polygon fill="midnightblue" stroke="midnightblue" points="603.33,-126.18 609.97,-134.43 609.93,-123.83 603.33,-126.18"/>
</g>
<!-- Node8 -->
<g id="node8" class="node">
<title>Node8</title>
<g id="a_node8"><a xlink:href="GameObjectFactory_8hpp.html" target="_top" xlink:title=" ">
<polygon fill="none" stroke="black" points="683.43,-56.5 683.43,-97.5 826.43,-97.5 826.43,-56.5 683.43,-56.5"/>
<text text-anchor="start" x="691.43" y="-85.5" font-family="Helvetica,sans-Serif" font-size="10.00">includes/platformer</text>
<text text-anchor="start" x="691.43" y="-74.5" font-family="Helvetica,sans-Serif" font-size="10.00">&#45;engine/Director/GameObject</text>
<text text-anchor="middle" x="754.93" y="-63.5" font-family="Helvetica,sans-Serif" font-size="10.00">Factory.hpp</text>
</a>
</g>
</g>
<!-- Node6&#45;&gt;Node8 -->
<g id="edge8" class="edge">
<title>Node6&#45;&gt;Node8</title>
<path fill="none" stroke="midnightblue" d="M661.44,-129.49C680.24,-119.13 701.82,-107.25 719.51,-97.51"/>
<polygon fill="midnightblue" stroke="midnightblue" points="659.54,-126.54 652.47,-134.43 662.91,-132.67 659.54,-126.54"/>
</g>
<!-- Node9 -->
<g id="node9" class="node">
<title>Node9</title>
<g id="a_node9"><a xlink:href="GameObjectFactory_8cpp.html" target="_top" xlink:title=" ">
<polygon fill="none" stroke="black" points="818.43,-0.5 818.43,-19.5 993.43,-19.5 993.43,-0.5 818.43,-0.5"/>
<text text-anchor="middle" x="905.93" y="-7.5" font-family="Helvetica,sans-Serif" font-size="10.00">src/Director/GameObjectFactory.cpp</text>
</a>
</g>
</g>
<!-- Node8&#45;&gt;Node9 -->
<g id="edge9" class="edge">
<title>Node8&#45;&gt;Node9</title>
<path fill="none" stroke="midnightblue" d="M809.45,-52.53C836.03,-41.09 866.38,-28.02 885.83,-19.65"/>
<polygon fill="midnightblue" stroke="midnightblue" points="808.03,-49.33 800.23,-56.5 810.8,-55.76 808.03,-49.33"/>
</g>
<!-- Node10 -->
<g id="node10" class="node">
<title>Node10</title>
<g id="a_node10"><a xlink:href="FPSCounter_8cpp.html" target="_top" xlink:title=" ">
<polygon fill="none" stroke="black" points="681.93,-0.5 681.93,-19.5 799.93,-19.5 799.93,-0.5 681.93,-0.5"/>
<text text-anchor="middle" x="740.93" y="-7.5" font-family="Helvetica,sans-Serif" font-size="10.00">src/UI/FPSCounter.cpp</text>
</a>
</g>
</g>
<!-- Node8&#45;&gt;Node10 -->
<g id="edge10" class="edge">
<title>Node8&#45;&gt;Node10</title>
<path fill="none" stroke="midnightblue" d="M748.59,-46.57C746.48,-36.77 744.29,-26.6 742.79,-19.65"/>
<polygon fill="midnightblue" stroke="midnightblue" points="745.2,-47.46 750.73,-56.5 752.04,-45.99 745.2,-47.46"/>
</g>
<!-- Node11&#45;&gt;Node6 -->
<g id="edge12" class="edge">
<title>Node11&#45;&gt;Node6</title>
<path fill="none" stroke="midnightblue" d="M697.22,-211.98C681.18,-200.8 661.27,-186.91 645.28,-175.77"/>
<polygon fill="midnightblue" stroke="midnightblue" points="695.48,-215.03 705.68,-217.88 699.48,-209.29 695.48,-215.03"/>
</g>
<!-- Node12&#45;&gt;Node2 -->
<g id="edge14" class="edge">
<title>Node12&#45;&gt;Node2</title>
<path fill="none" stroke="midnightblue" d="M459.69,-208.14C428.4,-193.27 390.02,-175.05 367.93,-164.55"/>
<polygon fill="midnightblue" stroke="midnightblue" points="458.19,-211.3 468.72,-212.43 461.19,-204.98 458.19,-211.3"/>
</g>
<!-- Node13&#45;&gt;Node9 -->
<g id="edge16" class="edge">
<title>Node13&#45;&gt;Node9</title>
<path fill="none" stroke="midnightblue" d="M894.67,-202.31C897.68,-151.28 903.66,-49.5 905.43,-19.5"/>
<polygon fill="midnightblue" stroke="midnightblue" points="891.18,-202.2 894.08,-212.39 898.16,-202.61 891.18,-202.2"/>
</g>
<!-- Node14 -->
<g id="node14" class="node">
<title>Node14</title>
<g id="a_node14"><a xlink:href="PlayerRigidBody_8cpp.html" target="_top" xlink:title=" ">
<polygon fill="none" stroke="black" points="719.43,-145.5 719.43,-164.5 878.43,-164.5 878.43,-145.5 719.43,-145.5"/>
<text text-anchor="middle" x="798.93" y="-152.5" font-family="Helvetica,sans-Serif" font-size="10.00">src/Physics/PlayerRigidBody.cpp</text>
</a>
</g>
</g>
<!-- Node13&#45;&gt;Node14 -->
<g id="edge17" class="edge">
<title>Node13&#45;&gt;Node14</title>
<path fill="none" stroke="midnightblue" d="M860.78,-206.01C842.92,-191.57 821.87,-174.55 809.51,-164.55"/>
<polygon fill="midnightblue" stroke="midnightblue" points="858.74,-208.86 868.72,-212.43 863.15,-203.42 858.74,-208.86"/>
</g>
</g>
</svg>
