<?xml version="1.0" encoding="UTF-8" standalone="no"?>
<!DOCTYPE svg PUBLIC "-//W3C//DTD SVG 1.1//EN"
 "http://www.w3.org/Graphics/SVG/1.1/DTD/svg11.dtd">
<!-- Generated by graphviz version 2.44.0 ()
 -->
<!-- Title: includes/platformer&#45;engine/ComponentExtension/Scaleable.hpp Pages: 1 -->
<svg width="2156pt" height="318pt"
 viewBox="0.00 0.00 2156.00 318.00" xmlns="http://www.w3.org/2000/svg" xmlns:xlink="http://www.w3.org/1999/xlink">
<g id="graph0" class="graph" transform="scale(1 1) rotate(0) translate(4 314)">
<title>includes/platformer&#45;engine/ComponentExtension/Scaleable.hpp</title>
<!-- Node1 -->
<g id="node1" class="node">
<title>Node1</title>
<g id="a_node1"><a xlink:title=" ">
<polygon fill="#bfbfbf" stroke="black" points="116.5,-268.5 116.5,-309.5 259.5,-309.5 259.5,-268.5 116.5,-268.5"/>
<text text-anchor="start" x="124.5" y="-297.5" font-family="Helvetica,sans-Serif" font-size="10.00">includes/platformer</text>
<text text-anchor="start" x="124.5" y="-286.5" font-family="Helvetica,sans-Serif" font-size="10.00">&#45;engine/ComponentExtension</text>
<text text-anchor="middle" x="188" y="-275.5" font-family="Helvetica,sans-Serif" font-size="10.00">/Scaleable.hpp</text>
</a>
</g>
</g>
<!-- Node2 -->
<g id="node2" class="node">
<title>Node2</title>
<g id="a_node2"><a xlink:href="GameObject_8cpp.html" target="_top" xlink:title=" ">
<polygon fill="none" stroke="black" points="59.5,-207 59.5,-226 184.5,-226 184.5,-207 59.5,-207"/>
<text text-anchor="middle" x="122" y="-214" font-family="Helvetica,sans-Serif" font-size="10.00">src/API/GameObject.cpp</text>
</a>
</g>
</g>
<!-- Node1&#45;&gt;Node2 -->
<g id="edge1" class="edge">
<title>Node1&#45;&gt;Node2</title>
<path fill="none" stroke="midnightblue" d="M162.65,-260.92C151.1,-248.58 138.22,-234.83 130.12,-226.17"/>
<polygon fill="midnightblue" stroke="midnightblue" points="160.23,-263.45 169.62,-268.36 165.34,-258.67 160.23,-263.45"/>
</g>
<!-- Node3 -->
<g id="node3" class="node">
<title>Node3</title>
<g id="a_node3"><a xlink:href="BoxCollider_8hpp.html" target="_top" xlink:title=" ">
<polygon fill="none" stroke="black" points="202.5,-201.5 202.5,-231.5 305.5,-231.5 305.5,-201.5 202.5,-201.5"/>
<text text-anchor="start" x="210.5" y="-219.5" font-family="Helvetica,sans-Serif" font-size="10.00">includes/spic&#45;prj&#45;api</text>
<text text-anchor="middle" x="254" y="-208.5" font-family="Helvetica,sans-Serif" font-size="10.00">/BoxCollider.hpp</text>
</a>
</g>
</g>
<!-- Node1&#45;&gt;Node3 -->
<g id="edge2" class="edge">
<title>Node1&#45;&gt;Node3</title>
<path fill="none" stroke="midnightblue" d="M213.26,-261.02C222.54,-251.11 232.68,-240.27 240.53,-231.89"/>
<polygon fill="midnightblue" stroke="midnightblue" points="210.66,-258.67 206.38,-268.36 215.77,-263.45 210.66,-258.67"/>
</g>
<!-- Node4 -->
<g id="node4" class="node">
<title>Node4</title>
<g id="a_node4"><a xlink:href="BoxCollider_8cpp.html" target="_top" xlink:title=" ">
<polygon fill="none" stroke="black" points="50.5,-140 50.5,-159 169.5,-159 169.5,-140 50.5,-140"/>
<text text-anchor="middle" x="110" y="-147" font-family="Helvetica,sans-Serif" font-size="10.00">src/API/BoxCollider.cpp</text>
</a>
</g>
</g>
<!-- Node3&#45;&gt;Node4 -->
<g id="edge3" class="edge">
<title>Node3&#45;&gt;Node4</title>
<path fill="none" stroke="midnightblue" d="M213.31,-197.13C185.59,-184.62 150.19,-168.64 128.85,-159.01"/>
<polygon fill="midnightblue" stroke="midnightblue" points="212.2,-200.47 222.75,-201.4 215.08,-194.09 212.2,-200.47"/>
</g>
<!-- Node5 -->
<g id="node5" class="node">
<title>Node5</title>
<g id="a_node5"><a xlink:href="CollisionBehaviour_8cpp.html" target="_top" xlink:title=" ">
<polygon fill="none" stroke="black" points="0,-6 0,-25 178,-25 178,-6 0,-6"/>
<text text-anchor="middle" x="89" y="-13" font-family="Helvetica,sans-Serif" font-size="10.00">src/Behaviour/CollisionBehaviour.cpp</text>
</a>
</g>
</g>
<!-- Node3&#45;&gt;Node5 -->
<g id="edge4" class="edge">
<title>Node3&#45;&gt;Node5</title>
<path fill="none" stroke="midnightblue" d="M235.72,-193.46C199.67,-149.97 120.76,-54.8 96.35,-25.36"/>
<polygon fill="midnightblue" stroke="midnightblue" points="233.06,-195.72 242.13,-201.19 238.45,-191.26 233.06,-195.72"/>
</g>
<!-- Node6 -->
<g id="node6" class="node">
<title>Node6</title>
<g id="a_node6"><a xlink:href="GameObjectBuilder_8cpp.html" target="_top" xlink:title=" ">
<polygon fill="none" stroke="black" points="225.5,-140 225.5,-159 394.5,-159 394.5,-140 225.5,-140"/>
<text text-anchor="middle" x="310" y="-147" font-family="Helvetica,sans-Serif" font-size="10.00">src/Builder/GameObjectBuilder.cpp</text>
</a>
</g>
</g>
<!-- Node3&#45;&gt;Node6 -->
<g id="edge5" class="edge">
<title>Node3&#45;&gt;Node6</title>
<path fill="none" stroke="midnightblue" d="M272.82,-193.66C282.98,-181.86 294.95,-167.97 302.51,-159.19"/>
<polygon fill="midnightblue" stroke="midnightblue" points="270.03,-191.54 266.15,-201.4 275.33,-196.1 270.03,-191.54"/>
</g>
<!-- Node7 -->
<g id="node7" class="node">
<title>Node7</title>
<g id="a_node7"><a xlink:href="PhysicsSystem_8hpp.html" target="_top" xlink:title=" ">
<polygon fill="none" stroke="black" points="521,-134.5 521,-164.5 695,-164.5 695,-134.5 521,-134.5"/>
<text text-anchor="start" x="529" y="-152.5" font-family="Helvetica,sans-Serif" font-size="10.00">includes/platformer</text>
<text text-anchor="middle" x="608" y="-141.5" font-family="Helvetica,sans-Serif" font-size="10.00">&#45;engine/Physics/PhysicsSystem.hpp</text>
</a>
</g>
</g>
<!-- Node3&#45;&gt;Node7 -->
<g id="edge6" class="edge">
<title>Node3&#45;&gt;Node7</title>
<path fill="none" stroke="midnightblue" d="M315.94,-204.13C375.92,-193.11 467.01,-176.39 531.49,-164.55"/>
<polygon fill="midnightblue" stroke="midnightblue" points="315.06,-200.73 305.85,-205.98 316.32,-207.62 315.06,-200.73"/>
</g>
<!-- Node8 -->
<g id="node8" class="node">
<title>Node8</title>
<g id="a_node8"><a xlink:href="PhysicsSystem_8cpp.html" target="_top" xlink:title=" ">
<polygon fill="none" stroke="black" points="530,-73 530,-92 686,-92 686,-73 530,-73"/>
<text text-anchor="middle" x="608" y="-80" font-family="Helvetica,sans-Serif" font-size="10.00">src/Physics/PhysicsSystem.cpp</text>
</a>
</g>
</g>
<!-- Node7&#45;&gt;Node8 -->
<g id="edge7" class="edge">
<title>Node7&#45;&gt;Node8</title>
<path fill="none" stroke="midnightblue" d="M608,-124.25C608,-113.02 608,-100.38 608,-92.19"/>
<polygon fill="midnightblue" stroke="midnightblue" points="604.5,-124.4 608,-134.4 611.5,-124.4 604.5,-124.4"/>
</g>
<!-- Node9 -->
<g id="node9" class="node">
<title>Node9</title>
<g id="a_node9"><a xlink:href="Engine_8hpp.html" target="_top" xlink:title=" ">
<polygon fill="none" stroke="black" points="920.5,-67.5 920.5,-97.5 1051.5,-97.5 1051.5,-67.5 920.5,-67.5"/>
<text text-anchor="start" x="928.5" y="-85.5" font-family="Helvetica,sans-Serif" font-size="10.00">includes/platformer</text>
<text text-anchor="middle" x="986" y="-74.5" font-family="Helvetica,sans-Serif" font-size="10.00">&#45;engine/Engine/Engine.hpp</text>
</a>
</g>
</g>
<!-- Node7&#45;&gt;Node9 -->
<g id="edge8" class="edge">
<title>Node7&#45;&gt;Node9</title>
<path fill="none" stroke="midnightblue" d="M699.44,-132.78C767.65,-121.05 859.22,-105.3 920.3,-94.8"/>
<polygon fill="midnightblue" stroke="midnightblue" points="698.82,-129.33 689.55,-134.48 700,-136.23 698.82,-129.33"/>
</g>
<!-- Node9&#45;&gt;Node5 -->
<g id="edge11" class="edge">
<title>Node9&#45;&gt;Node5</title>
<path fill="none" stroke="midnightblue" d="M910.18,-77.52C738.82,-68.4 325.85,-45.63 187,-31 172.03,-29.42 155.85,-27.23 141.03,-25.03"/>
<polygon fill="midnightblue" stroke="midnightblue" points="910.2,-81.03 920.37,-78.06 910.57,-74.04 910.2,-81.03"/>
</g>
<!-- Node10 -->
<g id="node10" class="node">
<title>Node10</title>
<g id="a_node10"><a xlink:href="Animator_8cpp.html" target="_top" xlink:title=" ">
<polygon fill="none" stroke="black" points="196,-6 196,-25 306,-25 306,-6 196,-6"/>
<text text-anchor="middle" x="251" y="-13" font-family="Helvetica,sans-Serif" font-size="10.00">src/API/Animator.cpp</text>
</a>
</g>
</g>
<!-- Node9&#45;&gt;Node10 -->
<g id="edge9" class="edge">
<title>Node9&#45;&gt;Node10</title>
<path fill="none" stroke="midnightblue" d="M910.22,-77.21C759.73,-68.46 427.93,-47.95 315,-31 304.97,-29.5 294.18,-27.28 284.37,-25.04"/>
<polygon fill="midnightblue" stroke="midnightblue" points="910.12,-80.71 920.31,-77.8 910.53,-73.72 910.12,-80.71"/>
</g>
<!-- Node11 -->
<g id="node11" class="node">
<title>Node11</title>
<g id="a_node11"><a xlink:href="RigidBody_8cpp.html" target="_top" xlink:title=" ">
<polygon fill="none" stroke="black" points="324,-6 324,-25 438,-25 438,-6 324,-6"/>
<text text-anchor="middle" x="381" y="-13" font-family="Helvetica,sans-Serif" font-size="10.00">src/API/RigidBody.cpp</text>
</a>
</g>
</g>
<!-- Node9&#45;&gt;Node11 -->
<g id="edge10" class="edge">
<title>Node9&#45;&gt;Node11</title>
<path fill="none" stroke="midnightblue" d="M910.13,-77.25C805.63,-70.73 611.75,-56.31 448,-31 437.77,-29.42 426.75,-27.24 416.67,-25.05"/>
<polygon fill="midnightblue" stroke="midnightblue" points="910.07,-80.75 920.26,-77.87 910.5,-73.76 910.07,-80.75"/>
</g>
<!-- Node12 -->
<g id="node12" class="node">
<title>Node12</title>
<g id="a_node12"><a xlink:href="FPSCounterBehaviour_8cpp.html" target="_top" xlink:title=" ">
<polygon fill="none" stroke="black" points="456.5,-0.5 456.5,-30.5 589.5,-30.5 589.5,-0.5 456.5,-0.5"/>
<text text-anchor="start" x="464.5" y="-18.5" font-family="Helvetica,sans-Serif" font-size="10.00">src/Behaviour/FPSCounter</text>
<text text-anchor="middle" x="523" y="-7.5" font-family="Helvetica,sans-Serif" font-size="10.00">Behaviour.cpp</text>
</a>
</g>
</g>
<!-- Node9&#45;&gt;Node12 -->
<g id="edge12" class="edge">
<title>Node9&#45;&gt;Node12</title>
<path fill="none" stroke="midnightblue" d="M910.2,-72.94C832.04,-63.81 706.72,-48.29 599,-31 595.95,-30.51 592.83,-29.99 589.69,-29.45"/>
<polygon fill="midnightblue" stroke="midnightblue" points="910.1,-76.46 920.44,-74.14 910.91,-69.5 910.1,-76.46"/>
</g>
<!-- Node13 -->
<g id="node13" class="node">
<title>Node13</title>
<g id="a_node13"><a xlink:href="Debug_8cpp.html" target="_top" xlink:title=" ">
<polygon fill="none" stroke="black" points="608,-6 608,-25 718,-25 718,-6 608,-6"/>
<text text-anchor="middle" x="663" y="-13" font-family="Helvetica,sans-Serif" font-size="10.00">src/Debug/Debug.cpp</text>
</a>
</g>
</g>
<!-- Node9&#45;&gt;Node13 -->
<g id="edge13" class="edge">
<title>Node9&#45;&gt;Node13</title>
<path fill="none" stroke="midnightblue" d="M910.38,-67.24C858.9,-57.4 789.25,-43.82 728,-31 719.06,-29.13 709.45,-27.03 700.43,-25.03"/>
<polygon fill="midnightblue" stroke="midnightblue" points="909.95,-70.72 920.43,-69.16 911.26,-63.84 909.95,-70.72"/>
</g>
<!-- Node14 -->
<g id="node14" class="node">
<title>Node14</title>
<g id="a_node14"><a xlink:href="GameObjectFactory_8cpp.html" target="_top" xlink:title=" ">
<polygon fill="none" stroke="black" points="736.5,-6 736.5,-25 911.5,-25 911.5,-6 736.5,-6"/>
<text text-anchor="middle" x="824" y="-13" font-family="Helvetica,sans-Serif" font-size="10.00">src/Director/GameObjectFactory.cpp</text>
</a>
</g>
</g>
<!-- Node9&#45;&gt;Node14 -->
<g id="edge14" class="edge">
<title>Node9&#45;&gt;Node14</title>
<path fill="none" stroke="midnightblue" d="M941.44,-63.62C910.08,-51.04 869.52,-34.77 845.2,-25.01"/>
<polygon fill="midnightblue" stroke="midnightblue" points="940.26,-66.92 950.85,-67.4 942.87,-60.42 940.26,-66.92"/>
</g>
<!-- Node15 -->
<g id="node15" class="node">
<title>Node15</title>
<g id="a_node15"><a xlink:href="Engine_8cpp.html" target="_top" xlink:title=" ">
<polygon fill="none" stroke="black" points="929.5,-6 929.5,-25 1042.5,-25 1042.5,-6 929.5,-6"/>
<text text-anchor="middle" x="986" y="-13" font-family="Helvetica,sans-Serif" font-size="10.00">src/Engine/Engine.cpp</text>
</a>
</g>
</g>
<!-- Node9&#45;&gt;Node15 -->
<g id="edge15" class="edge">
<title>Node9&#45;&gt;Node15</title>
<path fill="none" stroke="midnightblue" d="M986,-57.25C986,-46.02 986,-33.38 986,-25.19"/>
<polygon fill="midnightblue" stroke="midnightblue" points="982.5,-57.4 986,-67.4 989.5,-57.4 982.5,-57.4"/>
</g>
<!-- Node16 -->
<g id="node16" class="node">
<title>Node16</title>
<g id="a_node16"><a xlink:href="TMXParser_8cpp.html" target="_top" xlink:title=" ">
<polygon fill="none" stroke="black" points="1061,-6 1061,-25 1197,-25 1197,-6 1061,-6"/>
<text text-anchor="middle" x="1129" y="-13" font-family="Helvetica,sans-Serif" font-size="10.00">src/Facade/TMXParser.cpp</text>
</a>
</g>
</g>
<!-- Node9&#45;&gt;Node16 -->
<g id="edge16" class="edge">
<title>Node9&#45;&gt;Node16</title>
<path fill="none" stroke="midnightblue" d="M1026.41,-63.13C1053.93,-50.62 1089.09,-34.64 1110.28,-25.01"/>
<polygon fill="midnightblue" stroke="midnightblue" points="1024.68,-60.07 1017.03,-67.4 1027.58,-66.44 1024.68,-60.07"/>
</g>
<!-- Node17 -->
<g id="node17" class="node">
<title>Node17</title>
<g id="a_node17"><a xlink:href="ClientNetworkManager_8cpp.html" target="_top" xlink:title=" ">
<polygon fill="none" stroke="black" points="1215.5,-0.5 1215.5,-30.5 1362.5,-30.5 1362.5,-0.5 1215.5,-0.5"/>
<text text-anchor="start" x="1223.5" y="-18.5" font-family="Helvetica,sans-Serif" font-size="10.00">src/Networking/ClientNetwork</text>
<text text-anchor="middle" x="1289" y="-7.5" font-family="Helvetica,sans-Serif" font-size="10.00">Manager.cpp</text>
</a>
</g>
</g>
<!-- Node9&#45;&gt;Node17 -->
<g id="edge17" class="edge">
<title>Node9&#45;&gt;Node17</title>
<path fill="none" stroke="midnightblue" d="M1061.44,-65.32C1111.24,-54.63 1175.84,-40.77 1223.48,-30.55"/>
<polygon fill="midnightblue" stroke="midnightblue" points="1060.42,-61.96 1051.37,-67.48 1061.89,-68.8 1060.42,-61.96"/>
</g>
<!-- Node18 -->
<g id="node18" class="node">
<title>Node18</title>
<g id="a_node18"><a xlink:href="ServerNetworkManager_8cpp.html" target="_top" xlink:title=" ">
<polygon fill="none" stroke="black" points="1380.5,-0.5 1380.5,-30.5 1531.5,-30.5 1531.5,-0.5 1380.5,-0.5"/>
<text text-anchor="start" x="1388.5" y="-18.5" font-family="Helvetica,sans-Serif" font-size="10.00">src/Networking/ServerNetwork</text>
<text text-anchor="middle" x="1456" y="-7.5" font-family="Helvetica,sans-Serif" font-size="10.00">Manager.cpp</text>
</a>
</g>
</g>
<!-- Node9&#45;&gt;Node18 -->
<g id="edge18" class="edge">
<title>Node9&#45;&gt;Node18</title>
<path fill="none" stroke="midnightblue" d="M1061.89,-72.5C1139.82,-63.04 1264.56,-47.29 1372,-31 1374.78,-30.58 1377.61,-30.14 1380.47,-29.69"/>
<polygon fill="midnightblue" stroke="midnightblue" points="1061.19,-69.06 1051.68,-73.74 1062.03,-76.01 1061.19,-69.06"/>
</g>
<!-- Node19 -->
<g id="node19" class="node">
<title>Node19</title>
<g id="a_node19"><a xlink:href="RenderSystem_8cpp.html" target="_top" xlink:title=" ">
<polygon fill="none" stroke="black" points="1550,-6 1550,-25 1700,-25 1700,-6 1550,-6"/>
<text text-anchor="middle" x="1625" y="-13" font-family="Helvetica,sans-Serif" font-size="10.00">src/Texture/RenderSystem.cpp</text>
</a>
</g>
</g>
<!-- Node9&#45;&gt;Node19 -->
<g id="edge19" class="edge">
<title>Node9&#45;&gt;Node19</title>
<path fill="none" stroke="midnightblue" d="M1061.6,-76.55C1168.61,-69.11 1370.25,-53.47 1541,-31 1553.47,-29.36 1566.92,-27.21 1579.33,-25.07"/>
<polygon fill="midnightblue" stroke="midnightblue" points="1061.28,-73.06 1051.55,-77.25 1061.77,-80.05 1061.28,-73.06"/>
</g>
<!-- Node20 -->
<g id="node20" class="node">
<title>Node20</title>
<g id="a_node20"><a xlink:href="TextureManager_8cpp.html" target="_top" xlink:title=" ">
<polygon fill="none" stroke="black" points="1718,-6 1718,-25 1874,-25 1874,-6 1718,-6"/>
<text text-anchor="middle" x="1796" y="-13" font-family="Helvetica,sans-Serif" font-size="10.00">src/Texture/TextureManager.cpp</text>
</a>
</g>
</g>
<!-- Node9&#45;&gt;Node20 -->
<g id="edge20" class="edge">
<title>Node9&#45;&gt;Node20</title>
<path fill="none" stroke="midnightblue" d="M1062,-78.58C1193.98,-72.97 1473.95,-58.73 1709,-31 1722.23,-29.44 1736.52,-27.26 1749.61,-25.07"/>
<polygon fill="midnightblue" stroke="midnightblue" points="1061.83,-75.08 1051.99,-79 1062.13,-82.08 1061.83,-75.08"/>
</g>
<!-- Node21 -->
<g id="node21" class="node">
<title>Node21</title>
<g id="a_node21"><a xlink:href="ClickSystem_8cpp.html" target="_top" xlink:title=" ">
<polygon fill="none" stroke="black" points="1892.5,-6 1892.5,-25 2011.5,-25 2011.5,-6 1892.5,-6"/>
<text text-anchor="middle" x="1952" y="-13" font-family="Helvetica,sans-Serif" font-size="10.00">src/UI/ClickSystem.cpp</text>
</a>
</g>
</g>
<!-- Node9&#45;&gt;Node21 -->
<g id="edge21" class="edge">
<title>Node9&#45;&gt;Node21</title>
<path fill="none" stroke="midnightblue" d="M1061.95,-81.08C1216.96,-79.38 1580.7,-71.04 1883,-31 1893.92,-29.55 1905.69,-27.33 1916.36,-25.06"/>
<polygon fill="midnightblue" stroke="midnightblue" points="1061.56,-77.58 1051.6,-81.19 1061.63,-84.58 1061.56,-77.58"/>
</g>
<!-- Node22 -->
<g id="node22" class="node">
<title>Node22</title>
<g id="a_node22"><a xlink:href="FPSCounter_8cpp.html" target="_top" xlink:title=" ">
<polygon fill="none" stroke="black" points="2030,-6 2030,-25 2148,-25 2148,-6 2030,-6"/>
<text text-anchor="middle" x="2089" y="-13" font-family="Helvetica,sans-Serif" font-size="10.00">src/UI/FPSCounter.cpp</text>
</a>
</g>
</g>
<!-- Node9&#45;&gt;Node22 -->
<g id="edge22" class="edge">
<title>Node9&#45;&gt;Node22</title>
<path fill="none" stroke="midnightblue" d="M1061.91,-81.97C1233.55,-82.13 1664.36,-77.42 2021,-31 2031.89,-29.58 2043.63,-27.34 2054.24,-25.04"/>
<polygon fill="midnightblue" stroke="midnightblue" points="1061.72,-78.47 1051.72,-81.96 1061.71,-85.47 1061.72,-78.47"/>
</g>
</g>
</svg>
