<?xml version="1.0" encoding="UTF-8" standalone="no"?>
<!DOCTYPE svg PUBLIC "-//W3C//DTD SVG 1.1//EN"
 "http://www.w3.org/Graphics/SVG/1.1/DTD/svg11.dtd">
<!-- Generated by graphviz version 2.44.0 ()
 -->
<!-- Title: includes/spic&#45;prj&#45;api/Scene.hpp Pages: 1 -->
<svg width="2360pt" height="485pt"
 viewBox="0.00 0.00 2359.50 485.00" xmlns="http://www.w3.org/2000/svg" xmlns:xlink="http://www.w3.org/1999/xlink">
<g id="graph0" class="graph" transform="scale(1 1) rotate(0) translate(4 481)">
<title>includes/spic&#45;prj&#45;api/Scene.hpp</title>
<!-- Node1 -->
<g id="node1" class="node">
<title>Node1</title>
<g id="a_node1"><a xlink:title=" ">
<polygon fill="#bfbfbf" stroke="black" points="1742,-446.5 1742,-476.5 1845,-476.5 1845,-446.5 1742,-446.5"/>
<text text-anchor="start" x="1750" y="-464.5" font-family="Helvetica,sans-Serif" font-size="10.00">includes/spic&#45;prj&#45;api</text>
<text text-anchor="middle" x="1793.5" y="-453.5" font-family="Helvetica,sans-Serif" font-size="10.00">/Scene.hpp</text>
</a>
</g>
</g>
<!-- Node2 -->
<g id="node2" class="node">
<title>Node2</title>
<g id="a_node2"><a xlink:href="Scene_8cpp.html" target="_top" xlink:title=" ">
<polygon fill="none" stroke="black" points="1771.5,-156.5 1771.5,-175.5 1881.5,-175.5 1881.5,-156.5 1771.5,-156.5"/>
<text text-anchor="middle" x="1826.5" y="-163.5" font-family="Helvetica,sans-Serif" font-size="10.00">src/Scene/Scene.cpp</text>
</a>
</g>
</g>
<!-- Node1&#45;&gt;Node2 -->
<g id="edge1" class="edge">
<title>Node1&#45;&gt;Node2</title>
<path fill="none" stroke="midnightblue" d="M1794.11,-436.41C1795.5,-393.33 1799.83,-300.36 1812.5,-223 1815.29,-205.99 1820.65,-186.56 1823.87,-175.64"/>
<polygon fill="midnightblue" stroke="midnightblue" points="1790.61,-436.38 1793.81,-446.48 1797.61,-436.59 1790.61,-436.38"/>
</g>
<!-- Node3 -->
<g id="node3" class="node">
<title>Node3</title>
<g id="a_node3"><a xlink:href="SceneBuilder_8hpp.html" target="_top" xlink:title=" ">
<polygon fill="none" stroke="black" points="2167.5,-374 2167.5,-404 2327.5,-404 2327.5,-374 2167.5,-374"/>
<text text-anchor="start" x="2175.5" y="-392" font-family="Helvetica,sans-Serif" font-size="10.00">includes/platformer</text>
<text text-anchor="middle" x="2247.5" y="-381" font-family="Helvetica,sans-Serif" font-size="10.00">&#45;engine/Builder/SceneBuilder.hpp</text>
</a>
</g>
</g>
<!-- Node1&#45;&gt;Node3 -->
<g id="edge2" class="edge">
<title>Node1&#45;&gt;Node3</title>
<path fill="none" stroke="midnightblue" d="M1855.21,-451.33C1921.9,-441.37 2031.29,-424.89 2125.5,-410 2139.07,-407.86 2153.48,-405.53 2167.46,-403.26"/>
<polygon fill="midnightblue" stroke="midnightblue" points="1854.66,-447.87 1845.28,-452.81 1855.69,-454.8 1854.66,-447.87"/>
</g>
<!-- Node5 -->
<g id="node5" class="node">
<title>Node5</title>
<g id="a_node5"><a xlink:href="Engine_8hpp.html" target="_top" xlink:title=" ">
<polygon fill="none" stroke="black" points="1123,-73 1123,-103 1254,-103 1254,-73 1123,-73"/>
<text text-anchor="start" x="1131" y="-91" font-family="Helvetica,sans-Serif" font-size="10.00">includes/platformer</text>
<text text-anchor="middle" x="1188.5" y="-80" font-family="Helvetica,sans-Serif" font-size="10.00">&#45;engine/Engine/Engine.hpp</text>
</a>
</g>
</g>
<!-- Node1&#45;&gt;Node5 -->
<g id="edge4" class="edge">
<title>Node1&#45;&gt;Node5</title>
<path fill="none" stroke="midnightblue" d="M1731.9,-457.94C1581.26,-450.02 1206.5,-419.51 1206.5,-312 1206.5,-312 1206.5,-312 1206.5,-237.5 1206.5,-187.9 1196.48,-129.65 1191.39,-103.27"/>
<polygon fill="midnightblue" stroke="midnightblue" points="1731.76,-461.44 1741.92,-458.46 1732.11,-454.45 1731.76,-461.44"/>
</g>
<!-- Node20 -->
<g id="node20" class="node">
<title>Node20</title>
<g id="a_node20"><a xlink:href="AbstractLevelParser_8hpp.html" target="_top" xlink:title=" ">
<polygon fill="none" stroke="black" points="1989,-368.5 1989,-409.5 2116,-409.5 2116,-368.5 1989,-368.5"/>
<text text-anchor="start" x="1997" y="-397.5" font-family="Helvetica,sans-Serif" font-size="10.00">includes/platformer</text>
<text text-anchor="start" x="1997" y="-386.5" font-family="Helvetica,sans-Serif" font-size="10.00">&#45;engine/LevelParser</text>
<text text-anchor="middle" x="2052.5" y="-375.5" font-family="Helvetica,sans-Serif" font-size="10.00">/AbstractLevelParser.hpp</text>
</a>
</g>
</g>
<!-- Node1&#45;&gt;Node20 -->
<g id="edge19" class="edge">
<title>Node1&#45;&gt;Node20</title>
<path fill="none" stroke="midnightblue" d="M1854.7,-443.84C1895.07,-432.85 1947.85,-418.49 1988.73,-407.36"/>
<polygon fill="midnightblue" stroke="midnightblue" points="1853.71,-440.48 1844.98,-446.49 1855.55,-447.24 1853.71,-440.48"/>
</g>
<!-- Node23 -->
<g id="node23" class="node">
<title>Node23</title>
<g id="a_node23"><a xlink:href="LevelParser_8hpp.html" target="_top" xlink:title=" ">
<polygon fill="none" stroke="black" points="1915.5,-290.5 1915.5,-331.5 2019.5,-331.5 2019.5,-290.5 1915.5,-290.5"/>
<text text-anchor="start" x="1923.5" y="-319.5" font-family="Helvetica,sans-Serif" font-size="10.00">includes/platformer</text>
<text text-anchor="start" x="1923.5" y="-308.5" font-family="Helvetica,sans-Serif" font-size="10.00">&#45;engine/LevelParser</text>
<text text-anchor="middle" x="1967.5" y="-297.5" font-family="Helvetica,sans-Serif" font-size="10.00">/LevelParser.hpp</text>
</a>
</g>
</g>
<!-- Node1&#45;&gt;Node23 -->
<g id="edge23" class="edge">
<title>Node1&#45;&gt;Node23</title>
<path fill="none" stroke="midnightblue" d="M1818.15,-439.46C1851.85,-410.7 1911.84,-359.51 1944.6,-331.55"/>
<polygon fill="midnightblue" stroke="midnightblue" points="1815.52,-437.11 1810.18,-446.26 1820.06,-442.43 1815.52,-437.11"/>
</g>
<!-- Node25 -->
<g id="node25" class="node">
<title>Node25</title>
<g id="a_node25"><a xlink:href="ServerNetworkManager_8hpp.html" target="_top" xlink:title=" ">
<polygon fill="none" stroke="black" points="1010,-145.5 1010,-186.5 1179,-186.5 1179,-145.5 1010,-145.5"/>
<text text-anchor="start" x="1018" y="-174.5" font-family="Helvetica,sans-Serif" font-size="10.00">includes/platformer</text>
<text text-anchor="start" x="1018" y="-163.5" font-family="Helvetica,sans-Serif" font-size="10.00">&#45;engine/Networking/ServerNetwork</text>
<text text-anchor="middle" x="1094.5" y="-152.5" font-family="Helvetica,sans-Serif" font-size="10.00">Manager.hpp</text>
</a>
</g>
</g>
<!-- Node1&#45;&gt;Node25 -->
<g id="edge28" class="edge">
<title>Node1&#45;&gt;Node25</title>
<path fill="none" stroke="midnightblue" d="M1731.61,-458.94C1586.85,-454.77 1235.18,-441.49 1192.5,-410 1118.01,-355.04 1100.02,-233.91 1095.78,-186.53"/>
<polygon fill="midnightblue" stroke="midnightblue" points="1731.57,-462.44 1741.67,-459.22 1731.77,-455.44 1731.57,-462.44"/>
</g>
<!-- Node26 -->
<g id="node26" class="node">
<title>Node26</title>
<g id="a_node26"><a xlink:href="Window_8hpp.html" target="_top" xlink:title=" ">
<polygon fill="none" stroke="black" points="1507,-374 1507,-404 1644,-404 1644,-374 1507,-374"/>
<text text-anchor="start" x="1515" y="-392" font-family="Helvetica,sans-Serif" font-size="10.00">includes/platformer</text>
<text text-anchor="middle" x="1575.5" y="-381" font-family="Helvetica,sans-Serif" font-size="10.00">&#45;engine/Render/Window.hpp</text>
</a>
</g>
</g>
<!-- Node1&#45;&gt;Node26 -->
<g id="edge31" class="edge">
<title>Node1&#45;&gt;Node26</title>
<path fill="none" stroke="midnightblue" d="M1740.49,-443.36C1703.27,-431.32 1654.08,-415.41 1619.12,-404.11"/>
<polygon fill="midnightblue" stroke="midnightblue" points="1739.58,-446.74 1750.17,-446.49 1741.73,-440.08 1739.58,-446.74"/>
</g>
<!-- Node4 -->
<g id="node4" class="node">
<title>Node4</title>
<g id="a_node4"><a xlink:href="SceneBuilder_8cpp.html" target="_top" xlink:title=" ">
<polygon fill="none" stroke="black" points="2209.5,-301.5 2209.5,-320.5 2351.5,-320.5 2351.5,-301.5 2209.5,-301.5"/>
<text text-anchor="middle" x="2280.5" y="-308.5" font-family="Helvetica,sans-Serif" font-size="10.00">src/Builder/SceneBuilder.cpp</text>
</a>
</g>
</g>
<!-- Node3&#45;&gt;Node4 -->
<g id="edge3" class="edge">
<title>Node3&#45;&gt;Node4</title>
<path fill="none" stroke="midnightblue" d="M2257.69,-364.52C2264.18,-349.6 2272.18,-331.15 2276.78,-320.56"/>
<polygon fill="midnightblue" stroke="midnightblue" points="2254.48,-363.14 2253.71,-373.7 2260.9,-365.93 2254.48,-363.14"/>
</g>
<!-- Node6 -->
<g id="node6" class="node">
<title>Node6</title>
<g id="a_node6"><a xlink:href="Animator_8cpp.html" target="_top" xlink:title=" ">
<polygon fill="none" stroke="black" points="1585.5,-6 1585.5,-25 1695.5,-25 1695.5,-6 1585.5,-6"/>
<text text-anchor="middle" x="1640.5" y="-13" font-family="Helvetica,sans-Serif" font-size="10.00">src/API/Animator.cpp</text>
</a>
</g>
</g>
<!-- Node5&#45;&gt;Node6 -->
<g id="edge5" class="edge">
<title>Node5&#45;&gt;Node6</title>
<path fill="none" stroke="midnightblue" d="M1264.6,-77.83C1343.04,-67.96 1468.74,-50.95 1576.5,-31 1585.8,-29.28 1595.79,-27.15 1605.06,-25.06"/>
<polygon fill="midnightblue" stroke="midnightblue" points="1263.81,-74.4 1254.32,-79.12 1264.68,-81.35 1263.81,-74.4"/>
</g>
<!-- Node7 -->
<g id="node7" class="node">
<title>Node7</title>
<g id="a_node7"><a xlink:href="CollisionBehaviour_8cpp.html" target="_top" xlink:title=" ">
<polygon fill="none" stroke="black" points="306.5,-6 306.5,-25 484.5,-25 484.5,-6 306.5,-6"/>
<text text-anchor="middle" x="395.5" y="-13" font-family="Helvetica,sans-Serif" font-size="10.00">src/Behaviour/CollisionBehaviour.cpp</text>
</a>
</g>
</g>
<!-- Node5&#45;&gt;Node7 -->
<g id="edge6" class="edge">
<title>Node5&#45;&gt;Node7</title>
<path fill="none" stroke="midnightblue" d="M1112.64,-82.54C984.7,-74.66 718.04,-56.63 493.5,-31 478.89,-29.33 463.11,-27.16 448.57,-25.01"/>
<polygon fill="midnightblue" stroke="midnightblue" points="1112.53,-86.04 1122.72,-83.16 1112.95,-79.06 1112.53,-86.04"/>
</g>
<!-- Node8 -->
<g id="node8" class="node">
<title>Node8</title>
<g id="a_node8"><a xlink:href="FPSCounterBehaviour_8cpp.html" target="_top" xlink:title=" ">
<polygon fill="none" stroke="black" points="503,-0.5 503,-30.5 636,-30.5 636,-0.5 503,-0.5"/>
<text text-anchor="start" x="511" y="-18.5" font-family="Helvetica,sans-Serif" font-size="10.00">src/Behaviour/FPSCounter</text>
<text text-anchor="middle" x="569.5" y="-7.5" font-family="Helvetica,sans-Serif" font-size="10.00">Behaviour.cpp</text>
</a>
</g>
</g>
<!-- Node5&#45;&gt;Node8 -->
<g id="edge7" class="edge">
<title>Node5&#45;&gt;Node8</title>
<path fill="none" stroke="midnightblue" d="M1112.45,-81.23C1007.2,-72.77 811.34,-55.33 645.5,-31 642.44,-30.55 639.32,-30.07 636.17,-29.56"/>
<polygon fill="midnightblue" stroke="midnightblue" points="1112.41,-84.74 1122.66,-82.04 1112.97,-77.76 1112.41,-84.74"/>
</g>
<!-- Node9 -->
<g id="node9" class="node">
<title>Node9</title>
<g id="a_node9"><a xlink:href="Debug_8cpp.html" target="_top" xlink:title=" ">
<polygon fill="none" stroke="black" points="654.5,-6 654.5,-25 764.5,-25 764.5,-6 654.5,-6"/>
<text text-anchor="middle" x="709.5" y="-13" font-family="Helvetica,sans-Serif" font-size="10.00">src/Debug/Debug.cpp</text>
</a>
</g>
</g>
<!-- Node5&#45;&gt;Node9 -->
<g id="edge8" class="edge">
<title>Node5&#45;&gt;Node9</title>
<path fill="none" stroke="midnightblue" d="M1112.66,-78.81C1029.21,-69.33 891.29,-52.25 773.5,-31 764.08,-29.3 753.95,-27.16 744.6,-25.04"/>
<polygon fill="midnightblue" stroke="midnightblue" points="1112.48,-82.31 1122.81,-79.96 1113.27,-75.36 1112.48,-82.31"/>
</g>
<!-- Node10 -->
<g id="node10" class="node">
<title>Node10</title>
<g id="a_node10"><a xlink:href="GameObjectFactory_8cpp.html" target="_top" xlink:title=" ">
<polygon fill="none" stroke="black" points="1714,-6 1714,-25 1889,-25 1889,-6 1714,-6"/>
<text text-anchor="middle" x="1801.5" y="-13" font-family="Helvetica,sans-Serif" font-size="10.00">src/Director/GameObjectFactory.cpp</text>
</a>
</g>
</g>
<!-- Node5&#45;&gt;Node10 -->
<g id="edge9" class="edge">
<title>Node5&#45;&gt;Node10</title>
<path fill="none" stroke="midnightblue" d="M1264.25,-79.74C1364.93,-69.88 1548.33,-51.14 1704.5,-31 1718.35,-29.21 1733.28,-27.08 1747.17,-25.02"/>
<polygon fill="midnightblue" stroke="midnightblue" points="1263.78,-76.27 1254.17,-80.73 1264.46,-83.24 1263.78,-76.27"/>
</g>
<!-- Node11 -->
<g id="node11" class="node">
<title>Node11</title>
<g id="a_node11"><a xlink:href="Engine_8cpp.html" target="_top" xlink:title=" ">
<polygon fill="none" stroke="black" points="783,-6 783,-25 896,-25 896,-6 783,-6"/>
<text text-anchor="middle" x="839.5" y="-13" font-family="Helvetica,sans-Serif" font-size="10.00">src/Engine/Engine.cpp</text>
</a>
</g>
</g>
<!-- Node5&#45;&gt;Node11 -->
<g id="edge10" class="edge">
<title>Node5&#45;&gt;Node11</title>
<path fill="none" stroke="midnightblue" d="M1112.92,-72.63C1055.64,-61.6 975.02,-45.82 904.5,-31 895.56,-29.12 885.95,-27.02 876.93,-25.02"/>
<polygon fill="midnightblue" stroke="midnightblue" points="1112.5,-76.11 1122.98,-74.56 1113.82,-69.23 1112.5,-76.11"/>
</g>
<!-- Node12 -->
<g id="node12" class="node">
<title>Node12</title>
<g id="a_node12"><a xlink:href="TMXParser_8cpp.html" target="_top" xlink:title=" ">
<polygon fill="none" stroke="black" points="2043.5,-6 2043.5,-25 2179.5,-25 2179.5,-6 2043.5,-6"/>
<text text-anchor="middle" x="2111.5" y="-13" font-family="Helvetica,sans-Serif" font-size="10.00">src/Facade/TMXParser.cpp</text>
</a>
</g>
</g>
<!-- Node5&#45;&gt;Node12 -->
<g id="edge11" class="edge">
<title>Node5&#45;&gt;Node12</title>
<path fill="none" stroke="midnightblue" d="M1264.35,-83.15C1443.06,-73.89 1886.6,-49.75 2034.5,-31 2046.51,-29.48 2059.48,-27.26 2071.28,-25.02"/>
<polygon fill="midnightblue" stroke="midnightblue" points="1264.05,-79.66 1254.25,-83.67 1264.41,-86.65 1264.05,-79.66"/>
</g>
<!-- Node13 -->
<g id="node13" class="node">
<title>Node13</title>
<g id="a_node13"><a xlink:href="ClientNetworkManager_8cpp.html" target="_top" xlink:title=" ">
<polygon fill="none" stroke="black" points="914,-0.5 914,-30.5 1061,-30.5 1061,-0.5 914,-0.5"/>
<text text-anchor="start" x="922" y="-18.5" font-family="Helvetica,sans-Serif" font-size="10.00">src/Networking/ClientNetwork</text>
<text text-anchor="middle" x="987.5" y="-7.5" font-family="Helvetica,sans-Serif" font-size="10.00">Manager.cpp</text>
</a>
</g>
</g>
<!-- Node5&#45;&gt;Node13 -->
<g id="edge12" class="edge">
<title>Node5&#45;&gt;Node13</title>
<path fill="none" stroke="midnightblue" d="M1138.51,-69.46C1104.29,-57.46 1059.51,-41.76 1027.62,-30.57"/>
<polygon fill="midnightblue" stroke="midnightblue" points="1137.71,-72.9 1148.31,-72.9 1140.03,-66.29 1137.71,-72.9"/>
</g>
<!-- Node14 -->
<g id="node14" class="node">
<title>Node14</title>
<g id="a_node14"><a xlink:href="ServerNetworkManager_8cpp.html" target="_top" xlink:title=" ">
<polygon fill="none" stroke="black" points="0,-0.5 0,-30.5 151,-30.5 151,-0.5 0,-0.5"/>
<text text-anchor="start" x="8" y="-18.5" font-family="Helvetica,sans-Serif" font-size="10.00">src/Networking/ServerNetwork</text>
<text text-anchor="middle" x="75.5" y="-7.5" font-family="Helvetica,sans-Serif" font-size="10.00">Manager.cpp</text>
</a>
</g>
</g>
<!-- Node5&#45;&gt;Node14 -->
<g id="edge13" class="edge">
<title>Node5&#45;&gt;Node14</title>
<path fill="none" stroke="midnightblue" d="M1112.84,-81.94C1048.84,-77.72 954.68,-71.68 872.5,-67 555.72,-48.98 474.85,-66.05 159.5,-31 156.85,-30.71 154.16,-30.38 151.45,-30.03"/>
<polygon fill="midnightblue" stroke="midnightblue" points="1112.64,-85.43 1122.85,-82.6 1113.1,-78.45 1112.64,-85.43"/>
</g>
<!-- Node15 -->
<g id="node15" class="node">
<title>Node15</title>
<g id="a_node15"><a xlink:href="MoveSystem_8cpp.html" target="_top" xlink:title=" ">
<polygon fill="none" stroke="black" points="1079.5,-6 1079.5,-25 1225.5,-25 1225.5,-6 1079.5,-6"/>
<text text-anchor="middle" x="1152.5" y="-13" font-family="Helvetica,sans-Serif" font-size="10.00">src/Physics/MoveSystem.cpp</text>
</a>
</g>
</g>
<!-- Node5&#45;&gt;Node15 -->
<g id="edge14" class="edge">
<title>Node5&#45;&gt;Node15</title>
<path fill="none" stroke="midnightblue" d="M1176.62,-63.74C1169.92,-50.62 1161.93,-34.98 1157.04,-25.39"/>
<polygon fill="midnightblue" stroke="midnightblue" points="1173.55,-65.42 1181.21,-72.73 1179.78,-62.24 1173.55,-65.42"/>
</g>
<!-- Node16 -->
<g id="node16" class="node">
<title>Node16</title>
<g id="a_node16"><a xlink:href="RenderSystem_8cpp.html" target="_top" xlink:title=" ">
<polygon fill="none" stroke="black" points="1417.5,-6 1417.5,-25 1567.5,-25 1567.5,-6 1417.5,-6"/>
<text text-anchor="middle" x="1492.5" y="-13" font-family="Helvetica,sans-Serif" font-size="10.00">src/Texture/RenderSystem.cpp</text>
</a>
</g>
</g>
<!-- Node5&#45;&gt;Node16 -->
<g id="edge15" class="edge">
<title>Node5&#45;&gt;Node16</title>
<path fill="none" stroke="midnightblue" d="M1258.93,-70.67C1320.33,-56.43 1406.96,-36.34 1455.61,-25.05"/>
<polygon fill="midnightblue" stroke="midnightblue" points="1257.87,-67.32 1248.92,-72.99 1259.46,-74.14 1257.87,-67.32"/>
</g>
<!-- Node17 -->
<g id="node17" class="node">
<title>Node17</title>
<g id="a_node17"><a xlink:href="TextureManager_8cpp.html" target="_top" xlink:title=" ">
<polygon fill="none" stroke="black" points="1243.5,-6 1243.5,-25 1399.5,-25 1399.5,-6 1243.5,-6"/>
<text text-anchor="middle" x="1321.5" y="-13" font-family="Helvetica,sans-Serif" font-size="10.00">src/Texture/TextureManager.cpp</text>
</a>
</g>
</g>
<!-- Node5&#45;&gt;Node17 -->
<g id="edge16" class="edge">
<title>Node5&#45;&gt;Node17</title>
<path fill="none" stroke="midnightblue" d="M1224.06,-68.15C1250.5,-54.13 1285.35,-35.66 1305.4,-25.03"/>
<polygon fill="midnightblue" stroke="midnightblue" points="1222.29,-65.13 1215.09,-72.9 1225.57,-71.31 1222.29,-65.13"/>
</g>
<!-- Node18 -->
<g id="node18" class="node">
<title>Node18</title>
<g id="a_node18"><a xlink:href="ClickSystem_8cpp.html" target="_top" xlink:title=" ">
<polygon fill="none" stroke="black" points="169,-6 169,-25 288,-25 288,-6 169,-6"/>
<text text-anchor="middle" x="228.5" y="-13" font-family="Helvetica,sans-Serif" font-size="10.00">src/UI/ClickSystem.cpp</text>
</a>
</g>
</g>
<!-- Node5&#45;&gt;Node18 -->
<g id="edge17" class="edge">
<title>Node5&#45;&gt;Node18</title>
<path fill="none" stroke="midnightblue" d="M1112.83,-82.2C1048.81,-78.14 954.65,-72.17 872.5,-67 616.95,-50.91 551.23,-65.42 297.5,-31 286.58,-29.52 274.81,-27.29 264.14,-25.02"/>
<polygon fill="midnightblue" stroke="midnightblue" points="1112.63,-85.69 1122.83,-82.83 1113.08,-78.7 1112.63,-85.69"/>
</g>
<!-- Node19 -->
<g id="node19" class="node">
<title>Node19</title>
<g id="a_node19"><a xlink:href="FPSCounter_8cpp.html" target="_top" xlink:title=" ">
<polygon fill="none" stroke="black" points="1907.5,-6 1907.5,-25 2025.5,-25 2025.5,-6 1907.5,-6"/>
<text text-anchor="middle" x="1966.5" y="-13" font-family="Helvetica,sans-Serif" font-size="10.00">src/UI/FPSCounter.cpp</text>
</a>
</g>
</g>
<!-- Node5&#45;&gt;Node19 -->
<g id="edge18" class="edge">
<title>Node5&#45;&gt;Node19</title>
<path fill="none" stroke="midnightblue" d="M1264.56,-84.2C1394.75,-78.68 1668.44,-63.97 1897.5,-31 1908.16,-29.47 1919.65,-27.27 1930.13,-25.05"/>
<polygon fill="midnightblue" stroke="midnightblue" points="1264.15,-80.71 1254.3,-84.62 1264.44,-87.7 1264.15,-80.71"/>
</g>
<!-- Node21 -->
<g id="node21" class="node">
<title>Node21</title>
<g id="a_node21"><a xlink:href="TMXParser_8hpp.html" target="_top" xlink:title=" ">
<polygon fill="none" stroke="black" points="2037.5,-296 2037.5,-326 2191.5,-326 2191.5,-296 2037.5,-296"/>
<text text-anchor="start" x="2045.5" y="-314" font-family="Helvetica,sans-Serif" font-size="10.00">includes/platformer</text>
<text text-anchor="middle" x="2114.5" y="-303" font-family="Helvetica,sans-Serif" font-size="10.00">&#45;engine/Facade/TMXParser.hpp</text>
</a>
</g>
</g>
<!-- Node20&#45;&gt;Node21 -->
<g id="edge20" class="edge">
<title>Node20&#45;&gt;Node21</title>
<path fill="none" stroke="midnightblue" d="M2074.81,-360.65C2084.31,-349 2095.01,-335.9 2102.9,-326.23"/>
<polygon fill="midnightblue" stroke="midnightblue" points="2072.08,-358.47 2068.47,-368.43 2077.5,-362.89 2072.08,-358.47"/>
</g>
<!-- Node21&#45;&gt;Node12 -->
<g id="edge21" class="edge">
<title>Node21&#45;&gt;Node12</title>
<path fill="none" stroke="midnightblue" d="M2163,-291.06C2178.81,-282.3 2194.57,-270.16 2203.5,-254 2210.16,-241.94 2206.37,-236.48 2203.5,-223 2186.11,-141.23 2133.97,-52.58 2116.94,-25.1"/>
<polygon fill="midnightblue" stroke="midnightblue" points="2161.02,-288.14 2153.74,-295.84 2164.23,-294.36 2161.02,-288.14"/>
</g>
<!-- Node22 -->
<g id="node22" class="node">
<title>Node22</title>
<g id="a_node22"><a xlink:href="LevelParser_8cpp.html" target="_top" xlink:title=" ">
<polygon fill="none" stroke="black" points="2035,-229 2035,-248 2194,-248 2194,-229 2035,-229"/>
<text text-anchor="middle" x="2114.5" y="-236" font-family="Helvetica,sans-Serif" font-size="10.00">src/LevelParser/LevelParser.cpp</text>
</a>
</g>
</g>
<!-- Node21&#45;&gt;Node22 -->
<g id="edge22" class="edge">
<title>Node21&#45;&gt;Node22</title>
<path fill="none" stroke="midnightblue" d="M2114.5,-285.59C2114.5,-272.71 2114.5,-257.7 2114.5,-248.39"/>
<polygon fill="midnightblue" stroke="midnightblue" points="2111,-285.73 2114.5,-295.73 2118,-285.73 2111,-285.73"/>
</g>
<!-- Node23&#45;&gt;Node2 -->
<g id="edge27" class="edge">
<title>Node23&#45;&gt;Node2</title>
<path fill="none" stroke="midnightblue" d="M1967.89,-280.11C1966.65,-261.86 1962.29,-239.02 1949.5,-223 1929.22,-197.61 1894.89,-183.3 1867.64,-175.51"/>
<polygon fill="midnightblue" stroke="midnightblue" points="1964.4,-280.4 1968.3,-290.25 1971.39,-280.12 1964.4,-280.4"/>
</g>
<!-- Node23&#45;&gt;Node12 -->
<g id="edge24" class="edge">
<title>Node23&#45;&gt;Node12</title>
<path fill="none" stroke="midnightblue" d="M1981.7,-281.06C2013.43,-216.38 2088.76,-62.84 2107.32,-25.03"/>
<polygon fill="midnightblue" stroke="midnightblue" points="1978.43,-279.77 1977.17,-290.29 1984.72,-282.85 1978.43,-279.77"/>
</g>
<!-- Node23&#45;&gt;Node22 -->
<g id="edge25" class="edge">
<title>Node23&#45;&gt;Node22</title>
<path fill="none" stroke="midnightblue" d="M2017.48,-286.03C2044.75,-272.95 2076.83,-257.56 2096.42,-248.17"/>
<polygon fill="midnightblue" stroke="midnightblue" points="2015.95,-282.88 2008.45,-290.36 2018.98,-289.19 2015.95,-282.88"/>
</g>
<!-- Node24 -->
<g id="node24" class="node">
<title>Node24</title>
<g id="a_node24"><a xlink:href="Window_8cpp.html" target="_top" xlink:title=" ">
<polygon fill="none" stroke="black" points="1822,-229 1822,-248 1941,-248 1941,-229 1822,-229"/>
<text text-anchor="middle" x="1881.5" y="-236" font-family="Helvetica,sans-Serif" font-size="10.00">src/Render/Window.cpp</text>
</a>
</g>
</g>
<!-- Node23&#45;&gt;Node24 -->
<g id="edge26" class="edge">
<title>Node23&#45;&gt;Node24</title>
<path fill="none" stroke="midnightblue" d="M1935.74,-283.96C1920.37,-271.36 1902.94,-257.07 1892.08,-248.17"/>
<polygon fill="midnightblue" stroke="midnightblue" points="1933.59,-286.73 1943.54,-290.36 1938.03,-281.32 1933.59,-286.73"/>
</g>
<!-- Node25&#45;&gt;Node5 -->
<g id="edge30" class="edge">
<title>Node25&#45;&gt;Node5</title>
<path fill="none" stroke="midnightblue" d="M1126.67,-138.99C1141.48,-127.02 1158.48,-113.27 1170.91,-103.23"/>
<polygon fill="midnightblue" stroke="midnightblue" points="1124.28,-136.42 1118.71,-145.43 1128.68,-141.86 1124.28,-136.42"/>
</g>
<!-- Node25&#45;&gt;Node14 -->
<g id="edge29" class="edge">
<title>Node25&#45;&gt;Node14</title>
<path fill="none" stroke="midnightblue" d="M999.82,-152.34C830.84,-129.55 466.25,-79.45 159.5,-31 156.72,-30.56 153.89,-30.11 151.04,-29.64"/>
<polygon fill="midnightblue" stroke="midnightblue" points="999.55,-155.84 1009.93,-153.7 1000.49,-148.9 999.55,-155.84"/>
</g>
<!-- Node26&#45;&gt;Node5 -->
<g id="edge34" class="edge">
<title>Node26&#45;&gt;Node5</title>
<path fill="none" stroke="midnightblue" d="M1496.76,-376.22C1454.21,-367.79 1401.69,-353.94 1358.5,-332 1309.79,-307.26 1295.67,-298.16 1263.5,-254 1232.84,-211.91 1243.03,-191.95 1220.5,-145 1213.52,-130.46 1204.27,-114.56 1197.51,-103.43"/>
<polygon fill="midnightblue" stroke="midnightblue" points="1496.31,-379.7 1506.79,-378.15 1497.63,-372.82 1496.31,-379.7"/>
</g>
<!-- Node26&#45;&gt;Node24 -->
<g id="edge32" class="edge">
<title>Node26&#45;&gt;Node24</title>
<path fill="none" stroke="midnightblue" d="M1613.91,-369.36C1680.72,-336.94 1815.8,-271.38 1863.96,-248.01"/>
<polygon fill="midnightblue" stroke="midnightblue" points="1612.03,-366.38 1604.56,-373.9 1615.09,-372.68 1612.03,-366.38"/>
</g>
<!-- Node27 -->
<g id="node27" class="node">
<title>Node27</title>
<g id="a_node27"><a xlink:href="Timer_8cpp.html" target="_top" xlink:title=" ">
<polygon fill="none" stroke="black" points="1367.5,-301.5 1367.5,-320.5 1471.5,-320.5 1471.5,-301.5 1367.5,-301.5"/>
<text text-anchor="middle" x="1419.5" y="-308.5" font-family="Helvetica,sans-Serif" font-size="10.00">src/Timer/Timer.cpp</text>
</a>
</g>
</g>
<!-- Node26&#45;&gt;Node27 -->
<g id="edge33" class="edge">
<title>Node26&#45;&gt;Node27</title>
<path fill="none" stroke="midnightblue" d="M1537.46,-369.47C1505.54,-353.92 1461.39,-332.41 1437.17,-320.61"/>
<polygon fill="midnightblue" stroke="midnightblue" points="1536,-372.65 1546.52,-373.88 1539.07,-366.36 1536,-372.65"/>
</g>
<!-- Node28 -->
<g id="node28" class="node">
<title>Node28</title>
<g id="a_node28"><a xlink:href="AnimatedSprite_8hpp.html" target="_top" xlink:title=" ">
<polygon fill="none" stroke="black" points="1490,-296 1490,-326 1661,-326 1661,-296 1490,-296"/>
<text text-anchor="start" x="1498" y="-314" font-family="Helvetica,sans-Serif" font-size="10.00">includes/platformer</text>
<text text-anchor="middle" x="1575.5" y="-303" font-family="Helvetica,sans-Serif" font-size="10.00">&#45;engine/Texture/AnimatedSprite.hpp</text>
</a>
</g>
</g>
<!-- Node26&#45;&gt;Node28 -->
<g id="edge35" class="edge">
<title>Node26&#45;&gt;Node28</title>
<path fill="none" stroke="midnightblue" d="M1575.5,-363.59C1575.5,-351.26 1575.5,-336.72 1575.5,-326.23"/>
<polygon fill="midnightblue" stroke="midnightblue" points="1572,-363.7 1575.5,-373.7 1579,-363.71 1572,-363.7"/>
</g>
<!-- Node29 -->
<g id="node29" class="node">
<title>Node29</title>
<g id="a_node29"><a xlink:href="AnimatedSprite_8cpp.html" target="_top" xlink:title=" ">
<polygon fill="none" stroke="black" points="1273,-229 1273,-248 1426,-248 1426,-229 1273,-229"/>
<text text-anchor="middle" x="1349.5" y="-236" font-family="Helvetica,sans-Serif" font-size="10.00">src/Texture/AnimatedSprite.cpp</text>
</a>
</g>
</g>
<!-- Node28&#45;&gt;Node29 -->
<g id="edge36" class="edge">
<title>Node28&#45;&gt;Node29</title>
<path fill="none" stroke="midnightblue" d="M1520.87,-292.96C1475.38,-278.77 1412.5,-259.15 1376.92,-248.05"/>
<polygon fill="midnightblue" stroke="midnightblue" points="1519.99,-296.35 1530.58,-295.99 1522.08,-289.67 1519.99,-296.35"/>
</g>
<!-- Node30 -->
<g id="node30" class="node">
<title>Node30</title>
<g id="a_node30"><a xlink:href="GameObjectBuilder_8hpp.html" target="_top" xlink:title=" ">
<polygon fill="none" stroke="black" points="1614,-145.5 1614,-186.5 1753,-186.5 1753,-145.5 1614,-145.5"/>
<text text-anchor="start" x="1622" y="-174.5" font-family="Helvetica,sans-Serif" font-size="10.00">includes/platformer</text>
<text text-anchor="start" x="1622" y="-163.5" font-family="Helvetica,sans-Serif" font-size="10.00">&#45;engine/Builder/GameObject</text>
<text text-anchor="middle" x="1683.5" y="-152.5" font-family="Helvetica,sans-Serif" font-size="10.00">Builder.hpp</text>
</a>
</g>
</g>
<!-- Node28&#45;&gt;Node30 -->
<g id="edge37" class="edge">
<title>Node28&#45;&gt;Node30</title>
<path fill="none" stroke="midnightblue" d="M1575.84,-285.64C1577.21,-266.98 1581.58,-241.4 1594.5,-223 1605.3,-207.61 1621.82,-195.54 1637.71,-186.61"/>
<polygon fill="midnightblue" stroke="midnightblue" points="1572.34,-285.56 1575.34,-295.72 1579.33,-285.9 1572.34,-285.56"/>
</g>
<!-- Node33 -->
<g id="node33" class="node">
<title>Node33</title>
<g id="a_node33"><a xlink:href="ObjectBuilder_8hpp.html" target="_top" xlink:title=" ">
<polygon fill="none" stroke="black" points="1604,-223.5 1604,-253.5 1765,-253.5 1765,-223.5 1604,-223.5"/>
<text text-anchor="start" x="1612" y="-241.5" font-family="Helvetica,sans-Serif" font-size="10.00">includes/platformer</text>
<text text-anchor="middle" x="1684.5" y="-230.5" font-family="Helvetica,sans-Serif" font-size="10.00">&#45;engine/Builder/ObjectBuilder.hpp</text>
</a>
</g>
</g>
<!-- Node28&#45;&gt;Node33 -->
<g id="edge43" class="edge">
<title>Node28&#45;&gt;Node33</title>
<path fill="none" stroke="midnightblue" d="M1605.77,-290.42C1623.86,-278.72 1646.41,-264.13 1662.74,-253.57"/>
<polygon fill="midnightblue" stroke="midnightblue" points="1603.79,-287.53 1597.3,-295.9 1607.59,-293.41 1603.79,-287.53"/>
</g>
<!-- Node34 -->
<g id="node34" class="node">
<title>Node34</title>
<g id="a_node34"><a xlink:href="Animator_8hpp.html" target="_top" xlink:title=" ">
<polygon fill="none" stroke="black" points="1444,-223.5 1444,-253.5 1547,-253.5 1547,-223.5 1444,-223.5"/>
<text text-anchor="start" x="1452" y="-241.5" font-family="Helvetica,sans-Serif" font-size="10.00">includes/spic&#45;prj&#45;api</text>
<text text-anchor="middle" x="1495.5" y="-230.5" font-family="Helvetica,sans-Serif" font-size="10.00">/Animator.hpp</text>
</a>
</g>
</g>
<!-- Node28&#45;&gt;Node34 -->
<g id="edge45" class="edge">
<title>Node28&#45;&gt;Node34</title>
<path fill="none" stroke="midnightblue" d="M1551.63,-288.96C1538.63,-277.5 1522.89,-263.64 1511.39,-253.5"/>
<polygon fill="midnightblue" stroke="midnightblue" points="1549.49,-291.75 1559.31,-295.73 1554.12,-286.5 1549.49,-291.75"/>
</g>
<!-- Node30&#45;&gt;Node14 -->
<g id="edge39" class="edge">
<title>Node30&#45;&gt;Node14</title>
<path fill="none" stroke="midnightblue" d="M1603.83,-150.39C1591.36,-148.39 1578.6,-146.51 1566.5,-145 1366.09,-119.96 1314.81,-125.23 1113.5,-109 1007.49,-100.45 265.01,-44.39 159.5,-31 156.71,-30.65 153.87,-30.26 151.01,-29.86"/>
<polygon fill="midnightblue" stroke="midnightblue" points="1603.31,-153.86 1613.74,-152.02 1604.44,-146.95 1603.31,-153.86"/>
</g>
<!-- Node31 -->
<g id="node31" class="node">
<title>Node31</title>
<g id="a_node31"><a xlink:href="GameObjectBuilder_8cpp.html" target="_top" xlink:title=" ">
<polygon fill="none" stroke="black" points="1794,-78.5 1794,-97.5 1963,-97.5 1963,-78.5 1794,-78.5"/>
<text text-anchor="middle" x="1878.5" y="-85.5" font-family="Helvetica,sans-Serif" font-size="10.00">src/Builder/GameObjectBuilder.cpp</text>
</a>
</g>
</g>
<!-- Node30&#45;&gt;Node31 -->
<g id="edge38" class="edge">
<title>Node30&#45;&gt;Node31</title>
<path fill="none" stroke="midnightblue" d="M1743.26,-141.71C1781.66,-126.74 1829.29,-108.18 1856.56,-97.55"/>
<polygon fill="midnightblue" stroke="midnightblue" points="1741.76,-138.54 1733.72,-145.43 1744.31,-145.06 1741.76,-138.54"/>
</g>
<!-- Node32 -->
<g id="node32" class="node">
<title>Node32</title>
<g id="a_node32"><a xlink:href="GameObjectFactory_8hpp.html" target="_top" xlink:title=" ">
<polygon fill="none" stroke="black" points="1633,-67.5 1633,-108.5 1776,-108.5 1776,-67.5 1633,-67.5"/>
<text text-anchor="start" x="1641" y="-96.5" font-family="Helvetica,sans-Serif" font-size="10.00">includes/platformer</text>
<text text-anchor="start" x="1641" y="-85.5" font-family="Helvetica,sans-Serif" font-size="10.00">&#45;engine/Director/GameObject</text>
<text text-anchor="middle" x="1704.5" y="-74.5" font-family="Helvetica,sans-Serif" font-size="10.00">Factory.hpp</text>
</a>
</g>
</g>
<!-- Node30&#45;&gt;Node32 -->
<g id="edge40" class="edge">
<title>Node30&#45;&gt;Node32</title>
<path fill="none" stroke="midnightblue" d="M1691.63,-135.59C1694.14,-126.51 1696.83,-116.74 1699.11,-108.51"/>
<polygon fill="midnightblue" stroke="midnightblue" points="1688.2,-134.86 1688.91,-145.43 1694.95,-136.72 1688.2,-134.86"/>
</g>
<!-- Node32&#45;&gt;Node10 -->
<g id="edge41" class="edge">
<title>Node32&#45;&gt;Node10</title>
<path fill="none" stroke="midnightblue" d="M1739.85,-61.31C1757.3,-48.63 1777.21,-34.16 1789.57,-25.17"/>
<polygon fill="midnightblue" stroke="midnightblue" points="1737.55,-58.65 1731.52,-67.36 1741.67,-64.31 1737.55,-58.65"/>
</g>
<!-- Node32&#45;&gt;Node19 -->
<g id="edge42" class="edge">
<title>Node32&#45;&gt;Node19</title>
<path fill="none" stroke="midnightblue" d="M1785.98,-65.07C1836.24,-51.55 1897.91,-34.96 1934.6,-25.08"/>
<polygon fill="midnightblue" stroke="midnightblue" points="1784.84,-61.76 1776.09,-67.74 1786.66,-68.52 1784.84,-61.76"/>
</g>
<!-- Node33&#45;&gt;Node30 -->
<g id="edge44" class="edge">
<title>Node33&#45;&gt;Node30</title>
<path fill="none" stroke="midnightblue" d="M1684.15,-212.98C1684.03,-204.35 1683.89,-194.76 1683.78,-186.59"/>
<polygon fill="midnightblue" stroke="midnightblue" points="1680.66,-213.28 1684.3,-223.23 1687.66,-213.18 1680.66,-213.28"/>
</g>
<!-- Node34&#45;&gt;Node2 -->
<g id="edge47" class="edge">
<title>Node34&#45;&gt;Node2</title>
<path fill="none" stroke="midnightblue" d="M1557.24,-227.77C1611.43,-218.77 1692.17,-204.19 1761.5,-187 1774.68,-183.73 1789.13,-179.36 1801.06,-175.54"/>
<polygon fill="midnightblue" stroke="midnightblue" points="1556.41,-224.37 1547.11,-229.45 1557.54,-231.27 1556.41,-224.37"/>
</g>
<!-- Node34&#45;&gt;Node6 -->
<g id="edge46" class="edge">
<title>Node34&#45;&gt;Node6</title>
<path fill="none" stroke="midnightblue" d="M1530.69,-217.96C1543.23,-209.68 1556.67,-199.13 1566.5,-187 1588.54,-159.8 1626.39,-56.2 1637.41,-25.27"/>
<polygon fill="midnightblue" stroke="midnightblue" points="1528.79,-215.02 1522.2,-223.32 1532.53,-220.94 1528.79,-215.02"/>
</g>
<!-- Node34&#45;&gt;Node30 -->
<g id="edge48" class="edge">
<title>Node34&#45;&gt;Node30</title>
<path fill="none" stroke="midnightblue" d="M1542.7,-219.8C1569.69,-209.68 1603.6,-196.96 1631.38,-186.55"/>
<polygon fill="midnightblue" stroke="midnightblue" points="1541.23,-216.61 1533.09,-223.4 1543.69,-223.17 1541.23,-216.61"/>
</g>
<!-- Node35 -->
<g id="node35" class="node">
<title>Node35</title>
<g id="a_node35"><a xlink:href="RenderSystem_8hpp.html" target="_top" xlink:title=" ">
<polygon fill="none" stroke="black" points="1389.5,-151 1389.5,-181 1557.5,-181 1557.5,-151 1389.5,-151"/>
<text text-anchor="start" x="1397.5" y="-169" font-family="Helvetica,sans-Serif" font-size="10.00">includes/platformer</text>
<text text-anchor="middle" x="1473.5" y="-158" font-family="Helvetica,sans-Serif" font-size="10.00">&#45;engine/Texture/RenderSystem.hpp</text>
</a>
</g>
</g>
<!-- Node34&#45;&gt;Node35 -->
<g id="edge49" class="edge">
<title>Node34&#45;&gt;Node35</title>
<path fill="none" stroke="midnightblue" d="M1488.03,-213.56C1484.68,-202.82 1480.84,-190.51 1477.95,-181.25"/>
<polygon fill="midnightblue" stroke="midnightblue" points="1484.73,-214.73 1491.05,-223.23 1491.41,-212.64 1484.73,-214.73"/>
</g>
<!-- Node35&#45;&gt;Node5 -->
<g id="edge51" class="edge">
<title>Node35&#45;&gt;Node5</title>
<path fill="none" stroke="midnightblue" d="M1411.01,-148.34C1360.19,-134.78 1289.29,-115.88 1241.28,-103.07"/>
<polygon fill="midnightblue" stroke="midnightblue" points="1410.33,-151.78 1420.89,-150.97 1412.13,-145.01 1410.33,-151.78"/>
</g>
<!-- Node35&#45;&gt;Node16 -->
<g id="edge50" class="edge">
<title>Node35&#45;&gt;Node16</title>
<path fill="none" stroke="midnightblue" d="M1476.6,-140.81C1480.91,-107.12 1488.51,-47.71 1491.37,-25.35"/>
<polygon fill="midnightblue" stroke="midnightblue" points="1473.12,-140.4 1475.32,-150.76 1480.06,-141.29 1473.12,-140.4"/>
</g>
</g>
</svg>
