<?xml version="1.0" encoding="UTF-8" standalone="no"?>
<!DOCTYPE svg PUBLIC "-//W3C//DTD SVG 1.1//EN"
 "http://www.w3.org/Graphics/SVG/1.1/DTD/svg11.dtd">
<!-- Generated by graphviz version 2.44.0 ()
 -->
<!-- Title: includes/spic&#45;prj&#45;api/Scene.hpp Pages: 1 -->
<!--zoomable 229 -->
<svg id="main" version="1.1" xmlns="http://www.w3.org/2000/svg" xmlns:xlink="http://www.w3.org/1999/xlink" xml:space="preserve" onload="init(evt)">
<style type="text/css"><![CDATA[
.edge:hover path { stroke: red; }
.edge:hover polygon { stroke: red; fill: red; }
]]></style>
<script type="text/javascript"><![CDATA[
var edges = document.getElementsByTagName('g');
if (edges && edges.length) {
  for (var i=0;i<edges.length;i++) {
    if (edges[i].id.substr(0,4)=='edge') {
      edges[i].setAttribute('class','edge');
    }
  }
}
]]></script>
        <defs>
                <circle id="rim" cx="0" cy="0" r="7"/>
                <circle id="rim2" cx="0" cy="0" r="3.5"/>
                <g id="zoomPlus">
                        <use xlink:href="#rim" fill="#404040">
                                <set attributeName="fill" to="#808080" begin="zoomplus.mouseover" end="zoomplus.mouseout"/>
                        </use>
                        <path d="M-4,0h8M0,-4v8" fill="none" stroke="white" stroke-width="1.5" pointer-events="none"/>
                </g>
                <g id="zoomMin">
                        <use xlink:href="#rim" fill="#404040">
                                <set attributeName="fill" to="#808080" begin="zoomminus.mouseover" end="zoomminus.mouseout"/>
                        </use>
                        <path d="M-4,0h8" fill="none" stroke="white" stroke-width="1.5" pointer-events="none"/>
                </g>
                <g id="dirArrow">
                        <path fill="none" stroke="white" stroke-width="1.5" d="M0,-3.0v7 M-2.5,-0.5L0,-3.0L2.5,-0.5"/>
                </g>
               <g id="resetDef">
                       <use xlink:href="#rim2" fill="#404040">
                               <set attributeName="fill" to="#808080" begin="reset.mouseover" end="reset.mouseout"/>
                       </use>
               </g>
        </defs>

<script type="text/javascript">
var viewWidth = 649;
var viewHeight = 229;
var sectionId = 'dynsection-1';
</script>
<script xlink:href="svgpan.js"/>
<svg id="graph" class="graph">
<g id="viewport">
<title>includes/spic&#45;prj&#45;api/Scene.hpp</title>
<!-- Node1 -->
<g id="node1" class="node">
<title>Node1</title>
<g id="a_node1"><a xlink:title=" ">
<polygon fill="#bfbfbf" stroke="black" points="210.5,-190.5 210.5,-220.5 313.5,-220.5 313.5,-190.5 210.5,-190.5"/>
<text text-anchor="start" x="218.5" y="-208.5" font-family="Helvetica,sans-Serif" font-size="10.00">includes/spic&#45;prj&#45;api</text>
<text text-anchor="middle" x="262" y="-197.5" font-family="Helvetica,sans-Serif" font-size="10.00">/Scene.hpp</text>
</a>
</g>
</g>
<!-- Node2 -->
<g id="node2" class="node">
<title>Node2</title>
<g id="a_node2"><a xlink:href="Scene_8cpp.html" target="_top" xlink:title=" ">
<polygon fill="none" stroke="black" points="0,-129 0,-148 110,-148 110,-129 0,-129"/>
<text text-anchor="middle" x="55" y="-136" font-family="Helvetica,sans-Serif" font-size="10.00">src/Scene/Scene.cpp</text>
</a>
</g>
</g>
<!-- Node1&#45;&gt;Node2 -->
<g id="edge1" class="edge">
<title>Node1&#45;&gt;Node2</title>
<path fill="none" stroke="midnightblue" d="M207.64,-187.43C167.27,-174.75 113.92,-158 82.16,-148.03"/>
<polygon fill="midnightblue" stroke="midnightblue" points="206.75,-190.82 217.34,-190.48 208.85,-184.14 206.75,-190.82"/>
</g>
<!-- Node3 -->
<g id="node3" class="node">
<title>Node3</title>
<g id="a_node3"><a xlink:href="SceneBuilder_8hpp.html" target="_top" xlink:title=" ">
<polygon fill="none" stroke="black" points="128,-123.5 128,-153.5 288,-153.5 288,-123.5 128,-123.5"/>
<text text-anchor="start" x="136" y="-141.5" font-family="Helvetica,sans-Serif" font-size="10.00">includes/platformer</text>
<text text-anchor="middle" x="208" y="-130.5" font-family="Helvetica,sans-Serif" font-size="10.00">&#45;engine/Builder/SceneBuilder.hpp</text>
</a>
</g>
</g>
<!-- Node1&#45;&gt;Node3 -->
<g id="edge2" class="edge">
<title>Node1&#45;&gt;Node3</title>
<path fill="none" stroke="midnightblue" d="M243.68,-182.45C235.75,-172.9 226.7,-162 219.69,-153.58"/>
<polygon fill="midnightblue" stroke="midnightblue" points="241.2,-184.94 250.28,-190.4 246.58,-180.47 241.2,-184.94"/>
</g>
<!-- Node5 -->
<g id="node5" class="node">
<title>Node5</title>
<g id="a_node5"><a xlink:href="Engine_8hpp.html" target="_top" xlink:title=" ">
<polygon fill="none" stroke="black" points="250.5,-56.5 250.5,-86.5 381.5,-86.5 381.5,-56.5 250.5,-56.5"/>
<text text-anchor="start" x="258.5" y="-74.5" font-family="Helvetica,sans-Serif" font-size="10.00">includes/platformer</text>
<text text-anchor="middle" x="316" y="-63.5" font-family="Helvetica,sans-Serif" font-size="10.00">&#45;engine/Engine/Engine.hpp</text>
</a>
</g>
</g>
<!-- Node1&#45;&gt;Node5 -->
<g id="edge4" class="edge">
<title>Node1&#45;&gt;Node5</title>
<path fill="none" stroke="midnightblue" d="M280.16,-182.19C286.27,-173.77 292.63,-163.84 297,-154 306.96,-131.56 312.05,-103.23 314.36,-86.56"/>
<polygon fill="midnightblue" stroke="midnightblue" points="277.23,-180.27 273.98,-190.36 282.81,-184.49 277.23,-180.27"/>
</g>
<!-- Node7 -->
<g id="node7" class="node">
<title>Node7</title>
<g id="a_node7"><a xlink:href="Window_8hpp.html" target="_top" xlink:title=" ">
<polygon fill="none" stroke="black" points="367.5,-123.5 367.5,-153.5 504.5,-153.5 504.5,-123.5 367.5,-123.5"/>
<text text-anchor="start" x="375.5" y="-141.5" font-family="Helvetica,sans-Serif" font-size="10.00">includes/platformer</text>
<text text-anchor="middle" x="436" y="-130.5" font-family="Helvetica,sans-Serif" font-size="10.00">&#45;engine/Render/Window.hpp</text>
</a>
</g>
</g>
<!-- Node1&#45;&gt;Node7 -->
<g id="edge6" class="edge">
<title>Node1&#45;&gt;Node7</title>
<path fill="none" stroke="midnightblue" d="M309.33,-186.82C337.3,-176.37 372.23,-163.32 398.32,-153.58"/>
<polygon fill="midnightblue" stroke="midnightblue" points="307.9,-183.62 299.76,-190.4 310.35,-190.18 307.9,-183.62"/>
</g>
<!-- Node4 -->
<g id="node4" class="node">
<title>Node4</title>
<g id="a_node4"><a xlink:href="SceneBuilder_8cpp.html" target="_top" xlink:title=" ">
<polygon fill="none" stroke="black" points="90,-62 90,-81 232,-81 232,-62 90,-62"/>
<text text-anchor="middle" x="161" y="-69" font-family="Helvetica,sans-Serif" font-size="10.00">src/Builder/SceneBuilder.cpp</text>
</a>
</g>
</g>
<!-- Node3&#45;&gt;Node4 -->
<g id="edge3" class="edge">
<title>Node3&#45;&gt;Node4</title>
<path fill="none" stroke="midnightblue" d="M191.71,-114.97C183.29,-103.33 173.51,-89.8 167.29,-81.19"/>
<polygon fill="midnightblue" stroke="midnightblue" points="189.11,-117.34 197.8,-123.4 194.78,-113.24 189.11,-117.34"/>
</g>
<!-- Node6 -->
<g id="node6" class="node">
<title>Node6</title>
<g id="a_node6"><a xlink:href="Engine_8cpp.html" target="_top" xlink:title=" ">
<polygon fill="none" stroke="black" points="259.5,-0.5 259.5,-19.5 372.5,-19.5 372.5,-0.5 259.5,-0.5"/>
<text text-anchor="middle" x="316" y="-7.5" font-family="Helvetica,sans-Serif" font-size="10.00">src/Engine/Engine.cpp</text>
</a>
</g>
</g>
<!-- Node5&#45;&gt;Node6 -->
<g id="edge5" class="edge">
<title>Node5&#45;&gt;Node6</title>
<path fill="none" stroke="midnightblue" d="M316,-46.29C316,-36.86 316,-26.65 316,-19.66"/>
<polygon fill="midnightblue" stroke="midnightblue" points="312.5,-46.4 316,-56.4 319.5,-46.4 312.5,-46.4"/>
</g>
<!-- Node7&#45;&gt;Node5 -->
<g id="edge9" class="edge">
<title>Node7&#45;&gt;Node5</title>
<path fill="none" stroke="midnightblue" d="M401.06,-118.57C382.18,-108.35 359.27,-95.94 341.99,-86.58"/>
<polygon fill="midnightblue" stroke="midnightblue" points="399.5,-121.71 409.96,-123.4 402.84,-115.56 399.5,-121.71"/>
</g>
<!-- Node8 -->
<g id="node8" class="node">
<title>Node8</title>
<g id="a_node8"><a xlink:href="Window_8cpp.html" target="_top" xlink:title=" ">
<polygon fill="none" stroke="black" points="399.5,-62 399.5,-81 518.5,-81 518.5,-62 399.5,-62"/>
<text text-anchor="middle" x="459" y="-69" font-family="Helvetica,sans-Serif" font-size="10.00">src/Render/Window.cpp</text>
</a>
</g>
</g>
<!-- Node7&#45;&gt;Node8 -->
<g id="edge7" class="edge">
<title>Node7&#45;&gt;Node8</title>
<path fill="none" stroke="midnightblue" d="M444.34,-113.94C448.37,-102.54 452.97,-89.55 455.92,-81.19"/>
<polygon fill="midnightblue" stroke="midnightblue" points="441.03,-112.8 440.99,-123.4 447.63,-115.14 441.03,-112.8"/>
</g>
<!-- Node9 -->
<g id="node9" class="node">
<title>Node9</title>
<g id="a_node9"><a xlink:href="Timer_8cpp.html" target="_top" xlink:title=" ">
<polygon fill="none" stroke="black" points="537,-62 537,-81 641,-81 641,-62 537,-62"/>
<text text-anchor="middle" x="589" y="-69" font-family="Helvetica,sans-Serif" font-size="10.00">src/Timer/Timer.cpp</text>
</a>
</g>
</g>
<!-- Node7&#45;&gt;Node9 -->
<g id="edge8" class="edge">
<title>Node7&#45;&gt;Node9</title>
<path fill="none" stroke="midnightblue" d="M478.47,-119.46C508.03,-106.9 546.1,-90.72 568.98,-81.01"/>
<polygon fill="midnightblue" stroke="midnightblue" points="477.03,-116.26 469.2,-123.4 479.77,-122.71 477.03,-116.26"/>
</g>
</g>
</svg>
        <g id="navigator" transform="translate(0 0)" fill="#404254">
                <rect fill="#f2f5e9" fill-opacity="0.5" stroke="#606060" stroke-width=".5" x="0" y="0" width="60" height="60"/>
                <use id="zoomplus" xlink:href="#zoomPlus" x="17" y="9" onmousedown="handleZoom(evt,'in')"/>
                <use id="zoomminus" xlink:href="#zoomMin" x="42" y="9" onmousedown="handleZoom(evt,'out')"/>
                <use id="reset" xlink:href="#resetDef" x="30" y="36" onmousedown="handleReset()"/>
                <g id="arrowUp" xlink:href="#dirArrow" transform="translate(30 24)" onmousedown="handlePan(0,-1)">
                  <use xlink:href="#rim" fill="#404040">
                        <set attributeName="fill" to="#808080" begin="arrowUp.mouseover" end="arrowUp.mouseout"/>
                  </use>
                  <path fill="none" stroke="white" stroke-width="1.5" d="M0,-3.0v7 M-2.5,-0.5L0,-3.0L2.5,-0.5"/>
                </g>
                <g id="arrowRight" xlink:href="#dirArrow" transform="rotate(90) translate(36 -43)" onmousedown="handlePan(1,0)">
                  <use xlink:href="#rim" fill="#404040">
                        <set attributeName="fill" to="#808080" begin="arrowRight.mouseover" end="arrowRight.mouseout"/>
                  </use>
                  <path fill="none" stroke="white" stroke-width="1.5" d="M0,-3.0v7 M-2.5,-0.5L0,-3.0L2.5,-0.5"/>
                </g>
                <g id="arrowDown" xlink:href="#dirArrow" transform="rotate(180) translate(-30 -48)" onmousedown="handlePan(0,1)">
                  <use xlink:href="#rim" fill="#404040">
                        <set attributeName="fill" to="#808080" begin="arrowDown.mouseover" end="arrowDown.mouseout"/>
                  </use>
                  <path fill="none" stroke="white" stroke-width="1.5" d="M0,-3.0v7 M-2.5,-0.5L0,-3.0L2.5,-0.5"/>
                </g>
                <g id="arrowLeft" xlink:href="#dirArrow" transform="rotate(270) translate(-36 17)" onmousedown="handlePan(-1,0)">
                  <use xlink:href="#rim" fill="#404040">
                        <set attributeName="fill" to="#808080" begin="arrowLeft.mouseover" end="arrowLeft.mouseout"/>
                  </use>
                  <path fill="none" stroke="white" stroke-width="1.5" d="M0,-3.0v7 M-2.5,-0.5L0,-3.0L2.5,-0.5"/>
                </g>
        </g>
        <svg viewBox="0 0 15 15" width="100%" height="30px" preserveAspectRatio="xMaxYMin meet">
         <g id="arrow_out" transform="scale(0.3 0.3)">
          <a xlink:href="Scene_8hpp__dep__incl_org.svg" target="_base">
           <rect id="button" ry="5" rx="5" y="6" x="6" height="38" width="38"
                fill="#f2f5e9" fill-opacity="0.5" stroke="#606060" stroke-width="1.0"/>
           <path id="arrow"
             d="M 11.500037,31.436501 C 11.940474,20.09759 22.043105,11.32322 32.158766,21.979434 L 37.068811,17.246167 C 37.068811,17.246167 37.088388,32 37.088388,32 L 22.160133,31.978069 C 22.160133,31.978069 26.997745,27.140456 26.997745,27.140456 C 18.528582,18.264221 13.291696,25.230495 11.500037,31.436501 z"
             style="fill:#404040;"/>
          </a>
         </g>
        </svg>
</svg>
