<?xml version="1.0" encoding="UTF-8" standalone="no"?>
<!DOCTYPE svg PUBLIC "-//W3C//DTD SVG 1.1//EN"
 "http://www.w3.org/Graphics/SVG/1.1/DTD/svg11.dtd">
<!-- Generated by graphviz version 2.44.0 ()
 -->
<!-- Title: includes/spic&#45;prj&#45;api/Scene.hpp Pages: 1 -->
<!--zoomable 463 -->
<svg id="main" version="1.1" xmlns="http://www.w3.org/2000/svg" xmlns:xlink="http://www.w3.org/1999/xlink" xml:space="preserve" onload="init(evt)">
<style type="text/css"><![CDATA[
.edge:hover path { stroke: red; }
.edge:hover polygon { stroke: red; fill: red; }
]]></style>
<script type="text/javascript"><![CDATA[
var edges = document.getElementsByTagName('g');
if (edges && edges.length) {
  for (var i=0;i<edges.length;i++) {
    if (edges[i].id.substr(0,4)=='edge') {
      edges[i].setAttribute('class','edge');
    }
  }
}
]]></script>
        <defs>
                <circle id="rim" cx="0" cy="0" r="7"/>
                <circle id="rim2" cx="0" cy="0" r="3.5"/>
                <g id="zoomPlus">
                        <use xlink:href="#rim" fill="#404040">
                                <set attributeName="fill" to="#808080" begin="zoomplus.mouseover" end="zoomplus.mouseout"/>
                        </use>
                        <path d="M-4,0h8M0,-4v8" fill="none" stroke="white" stroke-width="1.5" pointer-events="none"/>
                </g>
                <g id="zoomMin">
                        <use xlink:href="#rim" fill="#404040">
                                <set attributeName="fill" to="#808080" begin="zoomminus.mouseover" end="zoomminus.mouseout"/>
                        </use>
                        <path d="M-4,0h8" fill="none" stroke="white" stroke-width="1.5" pointer-events="none"/>
                </g>
                <g id="dirArrow">
                        <path fill="none" stroke="white" stroke-width="1.5" d="M0,-3.0v7 M-2.5,-0.5L0,-3.0L2.5,-0.5"/>
                </g>
               <g id="resetDef">
                       <use xlink:href="#rim2" fill="#404040">
                               <set attributeName="fill" to="#808080" begin="reset.mouseover" end="reset.mouseout"/>
                       </use>
               </g>
        </defs>

<script type="text/javascript">
var viewWidth = 1442;
var viewHeight = 463;
var sectionId = 'dynsection-1';
</script>
<script xlink:href="svgpan.js"/>
<svg id="graph" class="graph">
<g id="viewport">
<title>includes/spic&#45;prj&#45;api/Scene.hpp</title>
<!-- Node1 -->
<g id="node1" class="node">
<title>Node1</title>
<g id="a_node1"><a xlink:title=" ">
<polygon fill="#bfbfbf" stroke="black" points="546,-424.5 546,-454.5 649,-454.5 649,-424.5 546,-424.5"/>
<text text-anchor="start" x="554" y="-442.5" font-family="Helvetica,sans-Serif" font-size="10.00">includes/spic&#45;prj&#45;api</text>
<text text-anchor="middle" x="597.5" y="-431.5" font-family="Helvetica,sans-Serif" font-size="10.00">/Scene.hpp</text>
</a>
</g>
</g>
<!-- Node2 -->
<g id="node2" class="node">
<title>Node2</title>
<g id="a_node2"><a xlink:href="Scene_8cpp.html" target="_top" xlink:title=" ">
<polygon fill="none" stroke="black" points="663.5,-156.5 663.5,-175.5 773.5,-175.5 773.5,-156.5 663.5,-156.5"/>
<text text-anchor="middle" x="718.5" y="-163.5" font-family="Helvetica,sans-Serif" font-size="10.00">src/Scene/Scene.cpp</text>
</a>
</g>
</g>
<!-- Node1&#45;&gt;Node2 -->
<g id="edge1" class="edge">
<title>Node1&#45;&gt;Node2</title>
<path fill="none" stroke="midnightblue" d="M608.01,-414.93C633.62,-357.46 698.37,-212.16 714.71,-175.5"/>
<polygon fill="midnightblue" stroke="midnightblue" points="604.71,-413.73 603.84,-424.29 611.1,-416.58 604.71,-413.73"/>
</g>
<!-- Node3 -->
<g id="node3" class="node">
<title>Node3</title>
<g id="a_node3"><a xlink:href="SceneBuilder_8hpp.html" target="_top" xlink:title=" ">
<polygon fill="none" stroke="black" points="1095.5,-357.5 1095.5,-387.5 1255.5,-387.5 1255.5,-357.5 1095.5,-357.5"/>
<text text-anchor="start" x="1103.5" y="-375.5" font-family="Helvetica,sans-Serif" font-size="10.00">includes/platformer</text>
<text text-anchor="middle" x="1175.5" y="-364.5" font-family="Helvetica,sans-Serif" font-size="10.00">&#45;engine/Builder/SceneBuilder.hpp</text>
</a>
</g>
</g>
<!-- Node1&#45;&gt;Node3 -->
<g id="edge2" class="edge">
<title>Node1&#45;&gt;Node3</title>
<path fill="none" stroke="midnightblue" d="M659.19,-431.56C764.4,-419.73 978.48,-395.66 1095.2,-382.53"/>
<polygon fill="midnightblue" stroke="midnightblue" points="658.59,-428.11 649.05,-432.7 659.38,-435.06 658.59,-428.11"/>
</g>
<!-- Node5 -->
<g id="node5" class="node">
<title>Node5</title>
<g id="a_node5"><a xlink:href="Engine_8hpp.html" target="_top" xlink:title=" ">
<polygon fill="none" stroke="black" points="481,-73 481,-103 612,-103 612,-73 481,-73"/>
<text text-anchor="start" x="489" y="-91" font-family="Helvetica,sans-Serif" font-size="10.00">includes/platformer</text>
<text text-anchor="middle" x="546.5" y="-80" font-family="Helvetica,sans-Serif" font-size="10.00">&#45;engine/Engine/Engine.hpp</text>
</a>
</g>
</g>
<!-- Node1&#45;&gt;Node5 -->
<g id="edge4" class="edge">
<title>Node1&#45;&gt;Node5</title>
<path fill="none" stroke="midnightblue" d="M536.12,-422.63C481.94,-404.47 411.5,-368.88 411.5,-306.5 411.5,-306.5 411.5,-306.5 411.5,-237.5 411.5,-195.62 403.88,-178.13 429.5,-145 445.07,-124.87 469.69,-111.6 492.34,-103.06"/>
<polygon fill="midnightblue" stroke="midnightblue" points="535.1,-425.97 545.69,-425.71 537.24,-419.31 535.1,-425.97"/>
</g>
<!-- Node14 -->
<g id="node14" class="node">
<title>Node14</title>
<g id="a_node14"><a xlink:href="ServerNetworkManager_8hpp.html" target="_top" xlink:title=" ">
<polygon fill="none" stroke="black" points="439,-145.5 439,-186.5 608,-186.5 608,-145.5 439,-145.5"/>
<text text-anchor="start" x="447" y="-174.5" font-family="Helvetica,sans-Serif" font-size="10.00">includes/platformer</text>
<text text-anchor="start" x="447" y="-163.5" font-family="Helvetica,sans-Serif" font-size="10.00">&#45;engine/Networking/ServerNetwork</text>
<text text-anchor="middle" x="523.5" y="-152.5" font-family="Helvetica,sans-Serif" font-size="10.00">Manager.hpp</text>
</a>
</g>
</g>
<!-- Node1&#45;&gt;Node14 -->
<g id="edge13" class="edge">
<title>Node1&#45;&gt;Node14</title>
<path fill="none" stroke="midnightblue" d="M590.81,-414.47C588.49,-406.1 585.87,-396.64 583.5,-388 563.09,-313.62 539.16,-225.06 528.76,-186.52"/>
<polygon fill="midnightblue" stroke="midnightblue" points="587.51,-415.66 593.56,-424.36 594.25,-413.78 587.51,-415.66"/>
</g>
<!-- Node15 -->
<g id="node15" class="node">
<title>Node15</title>
<g id="a_node15"><a xlink:href="Window_8hpp.html" target="_top" xlink:title=" ">
<polygon fill="none" stroke="black" points="807,-357.5 807,-387.5 944,-387.5 944,-357.5 807,-357.5"/>
<text text-anchor="start" x="815" y="-375.5" font-family="Helvetica,sans-Serif" font-size="10.00">includes/platformer</text>
<text text-anchor="middle" x="875.5" y="-364.5" font-family="Helvetica,sans-Serif" font-size="10.00">&#45;engine/Render/Window.hpp</text>
</a>
</g>
</g>
<!-- Node1&#45;&gt;Node15 -->
<g id="edge16" class="edge">
<title>Node1&#45;&gt;Node15</title>
<path fill="none" stroke="midnightblue" d="M659.1,-424.1C705.67,-413.21 769.25,-398.34 815.44,-387.54"/>
<polygon fill="midnightblue" stroke="midnightblue" points="658.08,-420.74 649.14,-426.43 659.67,-427.56 658.08,-420.74"/>
</g>
<!-- Node4 -->
<g id="node4" class="node">
<title>Node4</title>
<g id="a_node4"><a xlink:href="SceneBuilder_8cpp.html" target="_top" xlink:title=" ">
<polygon fill="none" stroke="black" points="1238.5,-296 1238.5,-315 1380.5,-315 1380.5,-296 1238.5,-296"/>
<text text-anchor="middle" x="1309.5" y="-303" font-family="Helvetica,sans-Serif" font-size="10.00">src/Builder/SceneBuilder.cpp</text>
</a>
</g>
</g>
<!-- Node3&#45;&gt;Node4 -->
<g id="edge3" class="edge">
<title>Node3&#45;&gt;Node4</title>
<path fill="none" stroke="midnightblue" d="M1213.71,-352.97C1239.45,-340.48 1272.19,-324.6 1291.96,-315.01"/>
<polygon fill="midnightblue" stroke="midnightblue" points="1212.05,-349.88 1204.58,-357.4 1215.1,-356.18 1212.05,-349.88"/>
</g>
<!-- Node6 -->
<g id="node6" class="node">
<title>Node6</title>
<g id="a_node6"><a xlink:href="GameObjectDirector_8cpp.html" target="_top" xlink:title=" ">
<polygon fill="none" stroke="black" points="1100.5,-6 1100.5,-25 1276.5,-25 1276.5,-6 1100.5,-6"/>
<text text-anchor="middle" x="1188.5" y="-13" font-family="Helvetica,sans-Serif" font-size="10.00">src/Director/GameObjectDirector.cpp</text>
</a>
</g>
</g>
<!-- Node5&#45;&gt;Node6 -->
<g id="edge5" class="edge">
<title>Node5&#45;&gt;Node6</title>
<path fill="none" stroke="midnightblue" d="M622.55,-80.24C727.84,-70.64 923.89,-51.89 1090.5,-31 1104.58,-29.23 1119.76,-27.1 1133.87,-25.02"/>
<polygon fill="midnightblue" stroke="midnightblue" points="621.98,-76.78 612.34,-81.17 622.62,-83.75 621.98,-76.78"/>
</g>
<!-- Node7 -->
<g id="node7" class="node">
<title>Node7</title>
<g id="a_node7"><a xlink:href="Engine_8cpp.html" target="_top" xlink:title=" ">
<polygon fill="none" stroke="black" points="137,-6 137,-25 250,-25 250,-6 137,-6"/>
<text text-anchor="middle" x="193.5" y="-13" font-family="Helvetica,sans-Serif" font-size="10.00">src/Engine/Engine.cpp</text>
</a>
</g>
</g>
<!-- Node5&#45;&gt;Node7 -->
<g id="edge6" class="edge">
<title>Node5&#45;&gt;Node7</title>
<path fill="none" stroke="midnightblue" d="M470.7,-72.71C412.78,-61.68 331.01,-45.83 259.5,-31 250.43,-29.12 240.67,-27.02 231.51,-25.01"/>
<polygon fill="midnightblue" stroke="midnightblue" points="470.39,-76.22 480.87,-74.65 471.7,-69.34 470.39,-76.22"/>
</g>
<!-- Node8 -->
<g id="node8" class="node">
<title>Node8</title>
<g id="a_node8"><a xlink:href="TMXParser_8cpp.html" target="_top" xlink:title=" ">
<polygon fill="none" stroke="black" points="268.5,-6 268.5,-25 404.5,-25 404.5,-6 268.5,-6"/>
<text text-anchor="middle" x="336.5" y="-13" font-family="Helvetica,sans-Serif" font-size="10.00">src/Facade/TMXParser.cpp</text>
</a>
</g>
</g>
<!-- Node5&#45;&gt;Node8 -->
<g id="edge7" class="edge">
<title>Node5&#45;&gt;Node8</title>
<path fill="none" stroke="midnightblue" d="M495.2,-69.78C452.98,-55.6 394.9,-36.11 361.98,-25.05"/>
<polygon fill="midnightblue" stroke="midnightblue" points="494.17,-73.12 504.76,-72.99 496.39,-66.49 494.17,-73.12"/>
</g>
<!-- Node9 -->
<g id="node9" class="node">
<title>Node9</title>
<g id="a_node9"><a xlink:href="ClientNetworkManager_8cpp.html" target="_top" xlink:title=" ">
<polygon fill="none" stroke="black" points="423,-0.5 423,-30.5 570,-30.5 570,-0.5 423,-0.5"/>
<text text-anchor="start" x="431" y="-18.5" font-family="Helvetica,sans-Serif" font-size="10.00">src/Networking/ClientNetwork</text>
<text text-anchor="middle" x="496.5" y="-7.5" font-family="Helvetica,sans-Serif" font-size="10.00">Manager.cpp</text>
</a>
</g>
</g>
<!-- Node5&#45;&gt;Node9 -->
<g id="edge8" class="edge">
<title>Node5&#45;&gt;Node9</title>
<path fill="none" stroke="midnightblue" d="M530.46,-64.39C522.63,-53.34 513.44,-40.39 506.6,-30.75"/>
<polygon fill="midnightblue" stroke="midnightblue" points="527.74,-66.6 536.38,-72.73 533.45,-62.55 527.74,-66.6"/>
</g>
<!-- Node10 -->
<g id="node10" class="node">
<title>Node10</title>
<g id="a_node10"><a xlink:href="ServerNetworkManager_8cpp.html" target="_top" xlink:title=" ">
<polygon fill="none" stroke="black" points="931,-0.5 931,-30.5 1082,-30.5 1082,-0.5 931,-0.5"/>
<text text-anchor="start" x="939" y="-18.5" font-family="Helvetica,sans-Serif" font-size="10.00">src/Networking/ServerNetwork</text>
<text text-anchor="middle" x="1006.5" y="-7.5" font-family="Helvetica,sans-Serif" font-size="10.00">Manager.cpp</text>
</a>
</g>
</g>
<!-- Node5&#45;&gt;Node10 -->
<g id="edge9" class="edge">
<title>Node5&#45;&gt;Node10</title>
<path fill="none" stroke="midnightblue" d="M622.21,-76.16C698,-65.21 817.93,-47.57 921.5,-31 924.6,-30.5 927.77,-29.99 930.97,-29.47"/>
<polygon fill="midnightblue" stroke="midnightblue" points="621.67,-72.71 612.27,-77.6 622.67,-79.63 621.67,-72.71"/>
</g>
<!-- Node11 -->
<g id="node11" class="node">
<title>Node11</title>
<g id="a_node11"><a xlink:href="RenderSystem_8cpp.html" target="_top" xlink:title=" ">
<polygon fill="none" stroke="black" points="762.5,-6 762.5,-25 912.5,-25 912.5,-6 762.5,-6"/>
<text text-anchor="middle" x="837.5" y="-13" font-family="Helvetica,sans-Serif" font-size="10.00">src/Texture/RenderSystem.cpp</text>
</a>
</g>
</g>
<!-- Node5&#45;&gt;Node11 -->
<g id="edge10" class="edge">
<title>Node5&#45;&gt;Node11</title>
<path fill="none" stroke="midnightblue" d="M614.28,-70.58C673.03,-56.34 755.71,-36.32 802.19,-25.05"/>
<polygon fill="midnightblue" stroke="midnightblue" points="613.23,-67.23 604.34,-72.99 614.88,-74.03 613.23,-67.23"/>
</g>
<!-- Node12 -->
<g id="node12" class="node">
<title>Node12</title>
<g id="a_node12"><a xlink:href="TextureManager_8cpp.html" target="_top" xlink:title=" ">
<polygon fill="none" stroke="black" points="588.5,-6 588.5,-25 744.5,-25 744.5,-6 588.5,-6"/>
<text text-anchor="middle" x="666.5" y="-13" font-family="Helvetica,sans-Serif" font-size="10.00">src/Texture/TextureManager.cpp</text>
</a>
</g>
</g>
<!-- Node5&#45;&gt;Node12 -->
<g id="edge11" class="edge">
<title>Node5&#45;&gt;Node12</title>
<path fill="none" stroke="midnightblue" d="M579.21,-67.78C602.99,-53.81 634.04,-35.57 651.97,-25.03"/>
<polygon fill="midnightblue" stroke="midnightblue" points="577.34,-64.82 570.5,-72.9 580.89,-70.85 577.34,-64.82"/>
</g>
<!-- Node13 -->
<g id="node13" class="node">
<title>Node13</title>
<g id="a_node13"><a xlink:href="ClickSystem_8cpp.html" target="_top" xlink:title=" ">
<polygon fill="none" stroke="black" points="0,-6 0,-25 119,-25 119,-6 0,-6"/>
<text text-anchor="middle" x="59.5" y="-13" font-family="Helvetica,sans-Serif" font-size="10.00">src/UI/ClickSystem.cpp</text>
</a>
</g>
</g>
<!-- Node5&#45;&gt;Node13 -->
<g id="edge12" class="edge">
<title>Node5&#45;&gt;Node13</title>
<path fill="none" stroke="midnightblue" d="M470.97,-78.68C386.86,-69.01 247.02,-51.7 127.5,-31 117.63,-29.29 107.01,-27.17 97.17,-25.07"/>
<polygon fill="midnightblue" stroke="midnightblue" points="470.61,-82.17 480.94,-79.83 471.41,-75.21 470.61,-82.17"/>
</g>
<!-- Node14&#45;&gt;Node5 -->
<g id="edge15" class="edge">
<title>Node14&#45;&gt;Node5</title>
<path fill="none" stroke="midnightblue" d="M532.39,-135.62C535.76,-124.5 539.44,-112.34 542.19,-103.23"/>
<polygon fill="midnightblue" stroke="midnightblue" points="528.97,-134.84 529.42,-145.43 535.67,-136.87 528.97,-134.84"/>
</g>
<!-- Node14&#45;&gt;Node10 -->
<g id="edge14" class="edge">
<title>Node14&#45;&gt;Node10</title>
<path fill="none" stroke="midnightblue" d="M596.97,-142.41C698.04,-111.34 876.95,-56.33 960.77,-30.56"/>
<polygon fill="midnightblue" stroke="midnightblue" points="595.67,-139.15 587.14,-145.43 597.73,-145.84 595.67,-139.15"/>
</g>
<!-- Node15&#45;&gt;Node5 -->
<g id="edge19" class="edge">
<title>Node15&#45;&gt;Node5</title>
<path fill="none" stroke="midnightblue" d="M833.43,-352.86C816.25,-344.32 796.66,-333.34 780.5,-321 715.54,-271.37 709.93,-247.09 654.5,-187 637.43,-168.5 634.83,-162.25 616.5,-145 600.29,-129.75 580.35,-114.06 565.9,-103.19"/>
<polygon fill="midnightblue" stroke="midnightblue" points="832.17,-356.14 842.69,-357.35 835.22,-349.84 832.17,-356.14"/>
</g>
<!-- Node16 -->
<g id="node16" class="node">
<title>Node16</title>
<g id="a_node16"><a xlink:href="Window_8cpp.html" target="_top" xlink:title=" ">
<polygon fill="none" stroke="black" points="979,-296 979,-315 1098,-315 1098,-296 979,-296"/>
<text text-anchor="middle" x="1038.5" y="-303" font-family="Helvetica,sans-Serif" font-size="10.00">src/Render/Window.cpp</text>
</a>
</g>
</g>
<!-- Node15&#45;&gt;Node16 -->
<g id="edge17" class="edge">
<title>Node15&#45;&gt;Node16</title>
<path fill="none" stroke="midnightblue" d="M920.33,-353.62C951.88,-341.04 992.69,-324.77 1017.17,-315.01"/>
<polygon fill="midnightblue" stroke="midnightblue" points="918.86,-350.44 910.87,-357.4 921.45,-356.94 918.86,-350.44"/>
</g>
<!-- Node17 -->
<g id="node17" class="node">
<title>Node17</title>
<g id="a_node17"><a xlink:href="Timer_8cpp.html" target="_top" xlink:title=" ">
<polygon fill="none" stroke="black" points="1116.5,-296 1116.5,-315 1220.5,-315 1220.5,-296 1116.5,-296"/>
<text text-anchor="middle" x="1168.5" y="-303" font-family="Helvetica,sans-Serif" font-size="10.00">src/Timer/Timer.cpp</text>
</a>
</g>
</g>
<!-- Node15&#45;&gt;Node17 -->
<g id="edge18" class="edge">
<title>Node15&#45;&gt;Node17</title>
<path fill="none" stroke="midnightblue" d="M950.79,-355.33C995.97,-345.55 1054.57,-332.75 1106.5,-321 1114.91,-319.1 1123.95,-317.01 1132.46,-315.02"/>
<polygon fill="midnightblue" stroke="midnightblue" points="949.81,-351.96 940.77,-357.49 951.29,-358.8 949.81,-351.96"/>
</g>
<!-- Node18 -->
<g id="node18" class="node">
<title>Node18</title>
<g id="a_node18"><a xlink:href="AnimatedSprite_8hpp.html" target="_top" xlink:title=" ">
<polygon fill="none" stroke="black" points="790,-290.5 790,-320.5 961,-320.5 961,-290.5 790,-290.5"/>
<text text-anchor="start" x="798" y="-308.5" font-family="Helvetica,sans-Serif" font-size="10.00">includes/platformer</text>
<text text-anchor="middle" x="875.5" y="-297.5" font-family="Helvetica,sans-Serif" font-size="10.00">&#45;engine/Texture/AnimatedSprite.hpp</text>
</a>
</g>
</g>
<!-- Node15&#45;&gt;Node18 -->
<g id="edge20" class="edge">
<title>Node15&#45;&gt;Node18</title>
<path fill="none" stroke="midnightblue" d="M875.5,-347.11C875.5,-338.15 875.5,-328.32 875.5,-320.58"/>
<polygon fill="midnightblue" stroke="midnightblue" points="872,-347.4 875.5,-357.4 879,-347.4 872,-347.4"/>
</g>
<!-- Node19 -->
<g id="node19" class="node">
<title>Node19</title>
<g id="a_node19"><a xlink:href="AnimatedSprite_8cpp.html" target="_top" xlink:title=" ">
<polygon fill="none" stroke="black" points="1163,-229 1163,-248 1316,-248 1316,-229 1163,-229"/>
<text text-anchor="middle" x="1239.5" y="-236" font-family="Helvetica,sans-Serif" font-size="10.00">src/Texture/AnimatedSprite.cpp</text>
</a>
</g>
</g>
<!-- Node18&#45;&gt;Node19 -->
<g id="edge21" class="edge">
<title>Node18&#45;&gt;Node19</title>
<path fill="none" stroke="midnightblue" d="M963.97,-288.7C1035.69,-275.9 1134.01,-258.34 1191.74,-248.03"/>
<polygon fill="midnightblue" stroke="midnightblue" points="963.26,-285.27 954.03,-290.48 964.49,-292.16 963.26,-285.27"/>
</g>
<!-- Node20 -->
<g id="node20" class="node">
<title>Node20</title>
<g id="a_node20"><a xlink:href="GameObjectBuilder_8hpp.html" target="_top" xlink:title=" ">
<polygon fill="none" stroke="black" points="1106,-145.5 1106,-186.5 1245,-186.5 1245,-145.5 1106,-145.5"/>
<text text-anchor="start" x="1114" y="-174.5" font-family="Helvetica,sans-Serif" font-size="10.00">includes/platformer</text>
<text text-anchor="start" x="1114" y="-163.5" font-family="Helvetica,sans-Serif" font-size="10.00">&#45;engine/Builder/GameObject</text>
<text text-anchor="middle" x="1175.5" y="-152.5" font-family="Helvetica,sans-Serif" font-size="10.00">Builder.hpp</text>
</a>
</g>
</g>
<!-- Node18&#45;&gt;Node20 -->
<g id="edge22" class="edge">
<title>Node18&#45;&gt;Node20</title>
<path fill="none" stroke="midnightblue" d="M899.99,-283.91C927.92,-260.49 970.3,-225.19 974.5,-223 986.47,-216.77 1052.59,-198.82 1105.78,-184.9"/>
<polygon fill="midnightblue" stroke="midnightblue" points="897.6,-281.34 892.19,-290.45 902.1,-286.71 897.6,-281.34"/>
</g>
<!-- Node23 -->
<g id="node23" class="node">
<title>Node23</title>
<g id="a_node23"><a xlink:href="ObjectBuilder_8hpp.html" target="_top" xlink:title=" ">
<polygon fill="none" stroke="black" points="984,-223.5 984,-253.5 1145,-253.5 1145,-223.5 984,-223.5"/>
<text text-anchor="start" x="992" y="-241.5" font-family="Helvetica,sans-Serif" font-size="10.00">includes/platformer</text>
<text text-anchor="middle" x="1064.5" y="-230.5" font-family="Helvetica,sans-Serif" font-size="10.00">&#45;engine/Builder/ObjectBuilder.hpp</text>
</a>
</g>
</g>
<!-- Node18&#45;&gt;Node23 -->
<g id="edge27" class="edge">
<title>Node18&#45;&gt;Node23</title>
<path fill="none" stroke="midnightblue" d="M926.12,-287.09C956.63,-276.6 994.98,-263.41 1023.57,-253.58"/>
<polygon fill="midnightblue" stroke="midnightblue" points="924.83,-283.83 916.51,-290.4 927.1,-290.45 924.83,-283.83"/>
</g>
<!-- Node24 -->
<g id="node24" class="node">
<title>Node24</title>
<g id="a_node24"><a xlink:href="Animator_8hpp.html" target="_top" xlink:title=" ">
<polygon fill="none" stroke="black" points="824,-223.5 824,-253.5 927,-253.5 927,-223.5 824,-223.5"/>
<text text-anchor="start" x="832" y="-241.5" font-family="Helvetica,sans-Serif" font-size="10.00">includes/spic&#45;prj&#45;api</text>
<text text-anchor="middle" x="875.5" y="-230.5" font-family="Helvetica,sans-Serif" font-size="10.00">/Animator.hpp</text>
</a>
</g>
</g>
<!-- Node18&#45;&gt;Node24 -->
<g id="edge29" class="edge">
<title>Node18&#45;&gt;Node24</title>
<path fill="none" stroke="midnightblue" d="M875.5,-280.11C875.5,-271.15 875.5,-261.32 875.5,-253.58"/>
<polygon fill="midnightblue" stroke="midnightblue" points="872,-280.4 875.5,-290.4 879,-280.4 872,-280.4"/>
</g>
<!-- Node20&#45;&gt;Node10 -->
<g id="edge24" class="edge">
<title>Node20&#45;&gt;Node10</title>
<path fill="none" stroke="midnightblue" d="M1135.41,-139.67C1121.97,-130.57 1107.18,-119.85 1094.5,-109 1064.85,-83.64 1034.38,-49.43 1018.23,-30.52"/>
<polygon fill="midnightblue" stroke="midnightblue" points="1133.76,-142.78 1144.02,-145.41 1137.64,-136.95 1133.76,-142.78"/>
</g>
<!-- Node21 -->
<g id="node21" class="node">
<title>Node21</title>
<g id="a_node21"><a xlink:href="GameObjectBuilder_8cpp.html" target="_top" xlink:title=" ">
<polygon fill="none" stroke="black" points="1265,-78.5 1265,-97.5 1434,-97.5 1434,-78.5 1265,-78.5"/>
<text text-anchor="middle" x="1349.5" y="-85.5" font-family="Helvetica,sans-Serif" font-size="10.00">src/Builder/GameObjectBuilder.cpp</text>
</a>
</g>
</g>
<!-- Node20&#45;&gt;Node21 -->
<g id="edge23" class="edge">
<title>Node20&#45;&gt;Node21</title>
<path fill="none" stroke="midnightblue" d="M1229.7,-141.33C1263.81,-126.43 1305.79,-108.09 1329.92,-97.55"/>
<polygon fill="midnightblue" stroke="midnightblue" points="1228.07,-138.22 1220.31,-145.43 1230.87,-144.63 1228.07,-138.22"/>
</g>
<!-- Node22 -->
<g id="node22" class="node">
<title>Node22</title>
<g id="a_node22"><a xlink:href="GameObjectDirector_8hpp.html" target="_top" xlink:title=" ">
<polygon fill="none" stroke="black" points="1104,-67.5 1104,-108.5 1247,-108.5 1247,-67.5 1104,-67.5"/>
<text text-anchor="start" x="1112" y="-96.5" font-family="Helvetica,sans-Serif" font-size="10.00">includes/platformer</text>
<text text-anchor="start" x="1112" y="-85.5" font-family="Helvetica,sans-Serif" font-size="10.00">&#45;engine/Director/GameObject</text>
<text text-anchor="middle" x="1175.5" y="-74.5" font-family="Helvetica,sans-Serif" font-size="10.00">Director.hpp</text>
</a>
</g>
</g>
<!-- Node20&#45;&gt;Node22 -->
<g id="edge25" class="edge">
<title>Node20&#45;&gt;Node22</title>
<path fill="none" stroke="midnightblue" d="M1175.5,-135.3C1175.5,-126.3 1175.5,-116.65 1175.5,-108.51"/>
<polygon fill="midnightblue" stroke="midnightblue" points="1172,-135.43 1175.5,-145.43 1179,-135.43 1172,-135.43"/>
</g>
<!-- Node22&#45;&gt;Node6 -->
<g id="edge26" class="edge">
<title>Node22&#45;&gt;Node6</title>
<path fill="none" stroke="midnightblue" d="M1180.95,-57.46C1183.1,-45.79 1185.41,-33.26 1186.9,-25.17"/>
<polygon fill="midnightblue" stroke="midnightblue" points="1177.49,-56.89 1179.12,-67.36 1184.38,-58.16 1177.49,-56.89"/>
</g>
<!-- Node23&#45;&gt;Node20 -->
<g id="edge28" class="edge">
<title>Node23&#45;&gt;Node20</title>
<path fill="none" stroke="midnightblue" d="M1095.31,-217.93C1110.65,-208.19 1129.15,-196.44 1144.51,-186.68"/>
<polygon fill="midnightblue" stroke="midnightblue" points="1093.26,-215.09 1086.7,-223.4 1097.01,-221 1093.26,-215.09"/>
</g>
<!-- Node24&#45;&gt;Node2 -->
<g id="edge31" class="edge">
<title>Node24&#45;&gt;Node2</title>
<path fill="none" stroke="midnightblue" d="M834.74,-219.2C803.39,-205.12 761.49,-186.3 737.5,-175.53"/>
<polygon fill="midnightblue" stroke="midnightblue" points="833.55,-222.5 844.11,-223.4 836.42,-216.11 833.55,-222.5"/>
</g>
<!-- Node24&#45;&gt;Node20 -->
<g id="edge32" class="edge">
<title>Node24&#45;&gt;Node20</title>
<path fill="none" stroke="midnightblue" d="M937.15,-223.82C981.52,-213.87 1042.78,-199.93 1096.5,-187 1099.53,-186.27 1102.62,-185.52 1105.73,-184.76"/>
<polygon fill="midnightblue" stroke="midnightblue" points="936.37,-220.4 927.38,-226 937.9,-227.24 936.37,-220.4"/>
</g>
<!-- Node25 -->
<g id="node25" class="node">
<title>Node25</title>
<g id="a_node25"><a xlink:href="Animator_8cpp.html" target="_top" xlink:title=" ">
<polygon fill="none" stroke="black" points="977.5,-156.5 977.5,-175.5 1087.5,-175.5 1087.5,-156.5 977.5,-156.5"/>
<text text-anchor="middle" x="1032.5" y="-163.5" font-family="Helvetica,sans-Serif" font-size="10.00">src/API/Animator.cpp</text>
</a>
</g>
</g>
<!-- Node24&#45;&gt;Node25 -->
<g id="edge30" class="edge">
<title>Node24&#45;&gt;Node25</title>
<path fill="none" stroke="midnightblue" d="M916.26,-219.2C947.61,-205.12 989.51,-186.3 1013.5,-175.53"/>
<polygon fill="midnightblue" stroke="midnightblue" points="914.58,-216.11 906.89,-223.4 917.45,-222.5 914.58,-216.11"/>
</g>
<!-- Node26 -->
<g id="node26" class="node">
<title>Node26</title>
<g id="a_node26"><a xlink:href="RenderSystem_8hpp.html" target="_top" xlink:title=" ">
<polygon fill="none" stroke="black" points="791.5,-151 791.5,-181 959.5,-181 959.5,-151 791.5,-151"/>
<text text-anchor="start" x="799.5" y="-169" font-family="Helvetica,sans-Serif" font-size="10.00">includes/platformer</text>
<text text-anchor="middle" x="875.5" y="-158" font-family="Helvetica,sans-Serif" font-size="10.00">&#45;engine/Texture/RenderSystem.hpp</text>
</a>
</g>
</g>
<!-- Node24&#45;&gt;Node26 -->
<g id="edge33" class="edge">
<title>Node24&#45;&gt;Node26</title>
<path fill="none" stroke="midnightblue" d="M875.5,-213.23C875.5,-202.57 875.5,-190.41 875.5,-181.25"/>
<polygon fill="midnightblue" stroke="midnightblue" points="872,-213.23 875.5,-223.23 879,-213.23 872,-213.23"/>
</g>
<!-- Node26&#45;&gt;Node5 -->
<g id="edge35" class="edge">
<title>Node26&#45;&gt;Node5</title>
<path fill="none" stroke="midnightblue" d="M804.81,-148.67C745.95,-135.07 663.03,-115.92 607.15,-103.01"/>
<polygon fill="midnightblue" stroke="midnightblue" points="804.24,-152.13 814.77,-150.97 805.82,-145.31 804.24,-152.13"/>
</g>
<!-- Node26&#45;&gt;Node11 -->
<g id="edge34" class="edge">
<title>Node26&#45;&gt;Node11</title>
<path fill="none" stroke="midnightblue" d="M869.31,-140.81C860.69,-107.12 845.49,-47.71 839.76,-25.35"/>
<polygon fill="midnightblue" stroke="midnightblue" points="865.99,-141.94 871.86,-150.76 872.77,-140.21 865.99,-141.94"/>
</g>
</g>
</svg>
        <g id="navigator" transform="translate(0 0)" fill="#404254">
                <rect fill="#f2f5e9" fill-opacity="0.5" stroke="#606060" stroke-width=".5" x="0" y="0" width="60" height="60"/>
                <use id="zoomplus" xlink:href="#zoomPlus" x="17" y="9" onmousedown="handleZoom(evt,'in')"/>
                <use id="zoomminus" xlink:href="#zoomMin" x="42" y="9" onmousedown="handleZoom(evt,'out')"/>
                <use id="reset" xlink:href="#resetDef" x="30" y="36" onmousedown="handleReset()"/>
                <g id="arrowUp" xlink:href="#dirArrow" transform="translate(30 24)" onmousedown="handlePan(0,-1)">
                  <use xlink:href="#rim" fill="#404040">
                        <set attributeName="fill" to="#808080" begin="arrowUp.mouseover" end="arrowUp.mouseout"/>
                  </use>
                  <path fill="none" stroke="white" stroke-width="1.5" d="M0,-3.0v7 M-2.5,-0.5L0,-3.0L2.5,-0.5"/>
                </g>
                <g id="arrowRight" xlink:href="#dirArrow" transform="rotate(90) translate(36 -43)" onmousedown="handlePan(1,0)">
                  <use xlink:href="#rim" fill="#404040">
                        <set attributeName="fill" to="#808080" begin="arrowRight.mouseover" end="arrowRight.mouseout"/>
                  </use>
                  <path fill="none" stroke="white" stroke-width="1.5" d="M0,-3.0v7 M-2.5,-0.5L0,-3.0L2.5,-0.5"/>
                </g>
                <g id="arrowDown" xlink:href="#dirArrow" transform="rotate(180) translate(-30 -48)" onmousedown="handlePan(0,1)">
                  <use xlink:href="#rim" fill="#404040">
                        <set attributeName="fill" to="#808080" begin="arrowDown.mouseover" end="arrowDown.mouseout"/>
                  </use>
                  <path fill="none" stroke="white" stroke-width="1.5" d="M0,-3.0v7 M-2.5,-0.5L0,-3.0L2.5,-0.5"/>
                </g>
                <g id="arrowLeft" xlink:href="#dirArrow" transform="rotate(270) translate(-36 17)" onmousedown="handlePan(-1,0)">
                  <use xlink:href="#rim" fill="#404040">
                        <set attributeName="fill" to="#808080" begin="arrowLeft.mouseover" end="arrowLeft.mouseout"/>
                  </use>
                  <path fill="none" stroke="white" stroke-width="1.5" d="M0,-3.0v7 M-2.5,-0.5L0,-3.0L2.5,-0.5"/>
                </g>
        </g>
        <svg viewBox="0 0 15 15" width="100%" height="30px" preserveAspectRatio="xMaxYMin meet">
         <g id="arrow_out" transform="scale(0.3 0.3)">
          <a xlink:href="Scene_8hpp__dep__incl_org.svg" target="_base">
           <rect id="button" ry="5" rx="5" y="6" x="6" height="38" width="38"
                fill="#f2f5e9" fill-opacity="0.5" stroke="#606060" stroke-width="1.0"/>
           <path id="arrow"
             d="M 11.500037,31.436501 C 11.940474,20.09759 22.043105,11.32322 32.158766,21.979434 L 37.068811,17.246167 C 37.068811,17.246167 37.088388,32 37.088388,32 L 22.160133,31.978069 C 22.160133,31.978069 26.997745,27.140456 26.997745,27.140456 C 18.528582,18.264221 13.291696,25.230495 11.500037,31.436501 z"
             style="fill:#404040;"/>
          </a>
         </g>
        </svg>
</svg>
