<?xml version="1.0" encoding="UTF-8" standalone="no"?>
<!DOCTYPE svg PUBLIC "-//W3C//DTD SVG 1.1//EN"
 "http://www.w3.org/Graphics/SVG/1.1/DTD/svg11.dtd">
<!-- Generated by graphviz version 2.44.0 ()
 -->
<!-- Title: includes/platformer&#45;engine/Builder/SceneBuilder.hpp Pages: 1 -->
<svg width="431pt" height="319pt"
 viewBox="0.00 0.00 430.50 319.00" xmlns="http://www.w3.org/2000/svg" xmlns:xlink="http://www.w3.org/1999/xlink">
<g id="graph0" class="graph" transform="scale(1 1) rotate(0) translate(4 315)">
<title>includes/platformer&#45;engine/Builder/SceneBuilder.hpp</title>
<!-- Node1 -->
<g id="node1" class="node">
<title>Node1</title>
<g id="a_node1"><a xlink:title=" ">
<polygon fill="#bfbfbf" stroke="black" points="25,-280.5 25,-310.5 185,-310.5 185,-280.5 25,-280.5"/>
<text text-anchor="start" x="33" y="-298.5" font-family="Helvetica,sans-Serif" font-size="10.00">includes/platformer</text>
<text text-anchor="middle" x="105" y="-287.5" font-family="Helvetica,sans-Serif" font-size="10.00">&#45;engine/Builder/SceneBuilder.hpp</text>
</a>
</g>
</g>
<!-- Node2 -->
<g id="node2" class="node">
<title>Node2</title>
<g id="a_node2"><a xlink:title=" ">
<polygon fill="none" stroke="#bfbfbf" points="44.5,-0.5 44.5,-19.5 95.5,-19.5 95.5,-0.5 44.5,-0.5"/>
<text text-anchor="middle" x="70" y="-7.5" font-family="Helvetica,sans-Serif" font-size="10.00">memory</text>
</a>
</g>
</g>
<!-- Node1&#45;&gt;Node2 -->
<g id="edge1" class="edge">
<title>Node1&#45;&gt;Node2</title>
<path fill="none" stroke="midnightblue" d="M78.5,-280.41C47.4,-261.73 0,-225.61 0,-179 0,-179 0,-179 0,-121 0,-90.9 2.86,-81.4 19,-56 26.52,-44.17 38.04,-33.63 48.23,-25.73"/>
<polygon fill="midnightblue" stroke="midnightblue" points="50.38,-28.49 56.35,-19.75 46.23,-22.86 50.38,-28.49"/>
</g>
<!-- Node3 -->
<g id="node3" class="node">
<title>Node3</title>
<g id="a_node3"><a xlink:href="GameObject_8hpp.html" target="_top" xlink:title=" ">
<polygon fill="none" stroke="black" points="144.5,-112.5 144.5,-131.5 233.5,-131.5 233.5,-112.5 144.5,-112.5"/>
<text text-anchor="middle" x="189" y="-119.5" font-family="Helvetica,sans-Serif" font-size="10.00">GameObject.hpp</text>
</a>
</g>
</g>
<!-- Node1&#45;&gt;Node3 -->
<g id="edge2" class="edge">
<title>Node1&#45;&gt;Node3</title>
<path fill="none" stroke="midnightblue" d="M134.86,-280.44C149.42,-271.98 165.75,-259.77 175,-244 193.84,-211.89 193.39,-166.72 191.27,-141.64"/>
<polygon fill="midnightblue" stroke="midnightblue" points="194.75,-141.24 190.24,-131.65 187.78,-141.96 194.75,-141.24"/>
</g>
<!-- Node10 -->
<g id="node10" class="node">
<title>Node10</title>
<g id="a_node10"><a xlink:href="Camera_8hpp.html" target="_top" xlink:title=" ">
<polygon fill="none" stroke="black" points="60,-168.5 60,-187.5 128,-187.5 128,-168.5 60,-168.5"/>
<text text-anchor="middle" x="94" y="-175.5" font-family="Helvetica,sans-Serif" font-size="10.00">Camera.hpp</text>
</a>
</g>
</g>
<!-- Node1&#45;&gt;Node10 -->
<g id="edge11" class="edge">
<title>Node1&#45;&gt;Node10</title>
<path fill="none" stroke="midnightblue" d="M101.51,-280.45C99.18,-270.38 96.32,-256.44 95,-244 93.36,-228.55 93.2,-210.92 93.4,-197.92"/>
<polygon fill="midnightblue" stroke="midnightblue" points="96.9,-197.94 93.63,-187.86 89.9,-197.78 96.9,-197.94"/>
</g>
<!-- Node12 -->
<g id="node12" class="node">
<title>Node12</title>
<g id="a_node12"><a xlink:href="Scene_8hpp.html" target="_top" xlink:title=" ">
<polygon fill="none" stroke="black" points="104,-224.5 104,-243.5 166,-243.5 166,-224.5 104,-224.5"/>
<text text-anchor="middle" x="135" y="-231.5" font-family="Helvetica,sans-Serif" font-size="10.00">Scene.hpp</text>
</a>
</g>
</g>
<!-- Node1&#45;&gt;Node12 -->
<g id="edge14" class="edge">
<title>Node1&#45;&gt;Node12</title>
<path fill="none" stroke="midnightblue" d="M112.11,-280.4C116.29,-272.11 121.61,-261.55 126.07,-252.71"/>
<polygon fill="midnightblue" stroke="midnightblue" points="129.26,-254.16 130.63,-243.66 123.01,-251.01 129.26,-254.16"/>
</g>
<!-- Node3&#45;&gt;Node2 -->
<g id="edge9" class="edge">
<title>Node3&#45;&gt;Node2</title>
<path fill="none" stroke="midnightblue" d="M180.3,-112.47C167.47,-99.94 142.65,-75.88 121,-56 109.99,-45.89 97.4,-34.78 87.49,-26.13"/>
<polygon fill="midnightblue" stroke="midnightblue" points="89.72,-23.43 79.88,-19.51 85.13,-28.71 89.72,-23.43"/>
</g>
<!-- Node4 -->
<g id="node4" class="node">
<title>Node4</title>
<g id="a_node4"><a xlink:href="Component_8hpp.html" target="_top" xlink:title=" ">
<polygon fill="none" stroke="black" points="28,-56.5 28,-75.5 112,-75.5 112,-56.5 28,-56.5"/>
<text text-anchor="middle" x="70" y="-63.5" font-family="Helvetica,sans-Serif" font-size="10.00">Component.hpp</text>
</a>
</g>
</g>
<!-- Node3&#45;&gt;Node4 -->
<g id="edge3" class="edge">
<title>Node3&#45;&gt;Node4</title>
<path fill="none" stroke="midnightblue" d="M170.14,-112.44C150.73,-103.64 120.27,-89.81 98.04,-79.72"/>
<polygon fill="midnightblue" stroke="midnightblue" points="99.32,-76.46 88.77,-75.52 96.43,-82.84 99.32,-76.46"/>
</g>
<!-- Node5 -->
<g id="node5" class="node">
<title>Node5</title>
<g id="a_node5"><a xlink:href="Transform_8hpp.html" target="_top" xlink:title=" ">
<polygon fill="none" stroke="black" points="343.5,-56.5 343.5,-75.5 422.5,-75.5 422.5,-56.5 343.5,-56.5"/>
<text text-anchor="middle" x="383" y="-63.5" font-family="Helvetica,sans-Serif" font-size="10.00">Transform.hpp</text>
</a>
</g>
</g>
<!-- Node3&#45;&gt;Node5 -->
<g id="edge5" class="edge">
<title>Node3&#45;&gt;Node5</title>
<path fill="none" stroke="midnightblue" d="M219.74,-112.44C252.94,-103.2 305.99,-88.44 342.56,-78.26"/>
<polygon fill="midnightblue" stroke="midnightblue" points="343.71,-81.57 352.4,-75.52 341.83,-74.83 343.71,-81.57"/>
</g>
<!-- Node7 -->
<g id="node7" class="node">
<title>Node7</title>
<g id="a_node7"><a xlink:title=" ">
<polygon fill="none" stroke="#bfbfbf" points="168.5,-56.5 168.5,-75.5 209.5,-75.5 209.5,-56.5 168.5,-56.5"/>
<text text-anchor="middle" x="189" y="-63.5" font-family="Helvetica,sans-Serif" font-size="10.00">string</text>
</a>
</g>
</g>
<!-- Node3&#45;&gt;Node7 -->
<g id="edge7" class="edge">
<title>Node3&#45;&gt;Node7</title>
<path fill="none" stroke="midnightblue" d="M189,-112.08C189,-105.01 189,-94.86 189,-85.99"/>
<polygon fill="midnightblue" stroke="midnightblue" points="192.5,-85.75 189,-75.75 185.5,-85.75 192.5,-85.75"/>
</g>
<!-- Node8 -->
<g id="node8" class="node">
<title>Node8</title>
<g id="a_node8"><a xlink:title=" ">
<polygon fill="none" stroke="#bfbfbf" points="228,-56.5 228,-75.5 272,-75.5 272,-56.5 228,-56.5"/>
<text text-anchor="middle" x="250" y="-63.5" font-family="Helvetica,sans-Serif" font-size="10.00">vector</text>
</a>
</g>
</g>
<!-- Node3&#45;&gt;Node8 -->
<g id="edge8" class="edge">
<title>Node3&#45;&gt;Node8</title>
<path fill="none" stroke="midnightblue" d="M198.8,-112.32C207.82,-104.34 221.41,-92.31 232.32,-82.65"/>
<polygon fill="midnightblue" stroke="midnightblue" points="234.85,-85.08 240.02,-75.83 230.21,-79.84 234.85,-85.08"/>
</g>
<!-- Node9 -->
<g id="node9" class="node">
<title>Node9</title>
<g id="a_node9"><a xlink:title=" ">
<polygon fill="none" stroke="#bfbfbf" points="290.5,-56.5 290.5,-75.5 325.5,-75.5 325.5,-56.5 290.5,-56.5"/>
<text text-anchor="middle" x="308" y="-63.5" font-family="Helvetica,sans-Serif" font-size="10.00">map</text>
</a>
</g>
</g>
<!-- Node3&#45;&gt;Node9 -->
<g id="edge10" class="edge">
<title>Node3&#45;&gt;Node9</title>
<path fill="none" stroke="midnightblue" d="M207.86,-112.44C227.61,-103.48 258.81,-89.32 281.13,-79.19"/>
<polygon fill="midnightblue" stroke="midnightblue" points="282.74,-82.31 290.4,-74.99 279.84,-75.93 282.74,-82.31"/>
</g>
<!-- Node4&#45;&gt;Node2 -->
<g id="edge4" class="edge">
<title>Node4&#45;&gt;Node2</title>
<path fill="none" stroke="midnightblue" d="M70,-56.08C70,-49.01 70,-38.86 70,-29.99"/>
<polygon fill="midnightblue" stroke="midnightblue" points="73.5,-29.75 70,-19.75 66.5,-29.75 73.5,-29.75"/>
</g>
<!-- Node6 -->
<g id="node6" class="node">
<title>Node6</title>
<g id="a_node6"><a xlink:href="Point_8hpp.html" target="_top" xlink:title=" ">
<polygon fill="none" stroke="black" points="354.5,-0.5 354.5,-19.5 411.5,-19.5 411.5,-0.5 354.5,-0.5"/>
<text text-anchor="middle" x="383" y="-7.5" font-family="Helvetica,sans-Serif" font-size="10.00">Point.hpp</text>
</a>
</g>
</g>
<!-- Node5&#45;&gt;Node6 -->
<g id="edge6" class="edge">
<title>Node5&#45;&gt;Node6</title>
<path fill="none" stroke="midnightblue" d="M383,-56.08C383,-49.01 383,-38.86 383,-29.99"/>
<polygon fill="midnightblue" stroke="midnightblue" points="386.5,-29.75 383,-19.75 379.5,-29.75 386.5,-29.75"/>
</g>
<!-- Node10&#45;&gt;Node3 -->
<g id="edge12" class="edge">
<title>Node10&#45;&gt;Node3</title>
<path fill="none" stroke="midnightblue" d="M109.26,-168.32C124.22,-159.82 147.25,-146.73 164.73,-136.8"/>
<polygon fill="midnightblue" stroke="midnightblue" points="166.81,-139.64 173.77,-131.65 163.35,-133.55 166.81,-139.64"/>
</g>
<!-- Node11 -->
<g id="node11" class="node">
<title>Node11</title>
<g id="a_node11"><a xlink:href="Color_8hpp.html" target="_top" xlink:title=" ">
<polygon fill="none" stroke="black" points="65.5,-112.5 65.5,-131.5 122.5,-131.5 122.5,-112.5 65.5,-112.5"/>
<text text-anchor="middle" x="94" y="-119.5" font-family="Helvetica,sans-Serif" font-size="10.00">Color.hpp</text>
</a>
</g>
</g>
<!-- Node10&#45;&gt;Node11 -->
<g id="edge13" class="edge">
<title>Node10&#45;&gt;Node11</title>
<path fill="none" stroke="midnightblue" d="M94,-168.08C94,-161.01 94,-150.86 94,-141.99"/>
<polygon fill="midnightblue" stroke="midnightblue" points="97.5,-141.75 94,-131.75 90.5,-141.75 97.5,-141.75"/>
</g>
<!-- Node12&#45;&gt;Node3 -->
<g id="edge15" class="edge">
<title>Node12&#45;&gt;Node3</title>
<path fill="none" stroke="midnightblue" d="M139.24,-224.37C148.07,-206.38 168.6,-164.55 180.35,-140.63"/>
<polygon fill="midnightblue" stroke="midnightblue" points="183.52,-142.11 184.78,-131.59 177.23,-139.03 183.52,-142.11"/>
</g>
<!-- Node12&#45;&gt;Node10 -->
<g id="edge16" class="edge">
<title>Node12&#45;&gt;Node10</title>
<path fill="none" stroke="midnightblue" d="M128.23,-224.08C122.44,-216.46 113.94,-205.26 106.86,-195.94"/>
<polygon fill="midnightblue" stroke="midnightblue" points="109.48,-193.6 100.64,-187.75 103.9,-197.83 109.48,-193.6"/>
</g>
</g>
</svg>
