<?xml version="1.0" encoding="UTF-8" standalone="no"?>
<!DOCTYPE svg PUBLIC "-//W3C//DTD SVG 1.1//EN"
 "http://www.w3.org/Graphics/SVG/1.1/DTD/svg11.dtd">
<!-- Generated by graphviz version 2.44.0 ()
 -->
<!-- Title: includes/spic&#45;prj&#45;api/Scene.hpp Pages: 1 -->
<svg width="2480pt" height="485pt"
 viewBox="0.00 0.00 2479.50 485.00" xmlns="http://www.w3.org/2000/svg" xmlns:xlink="http://www.w3.org/1999/xlink">
<g id="graph0" class="graph" transform="scale(1 1) rotate(0) translate(4 481)">
<title>includes/spic&#45;prj&#45;api/Scene.hpp</title>
<!-- Node1 -->
<g id="node1" class="node">
<title>Node1</title>
<g id="a_node1"><a xlink:title=" ">
<polygon fill="#bfbfbf" stroke="black" points="450.5,-446.5 450.5,-476.5 553.5,-476.5 553.5,-446.5 450.5,-446.5"/>
<text text-anchor="start" x="458.5" y="-464.5" font-family="Helvetica,sans-Serif" font-size="10.00">includes/spic&#45;prj&#45;api</text>
<text text-anchor="middle" x="502" y="-453.5" font-family="Helvetica,sans-Serif" font-size="10.00">/Scene.hpp</text>
</a>
</g>
</g>
<!-- Node2 -->
<g id="node2" class="node">
<title>Node2</title>
<g id="a_node2"><a xlink:href="Scene_8cpp.html" target="_top" xlink:title=" ">
<polygon fill="none" stroke="black" points="447,-156.5 447,-175.5 557,-175.5 557,-156.5 447,-156.5"/>
<text text-anchor="middle" x="502" y="-163.5" font-family="Helvetica,sans-Serif" font-size="10.00">src/Scene/Scene.cpp</text>
</a>
</g>
</g>
<!-- Node1&#45;&gt;Node2 -->
<g id="edge1" class="edge">
<title>Node1&#45;&gt;Node2</title>
<path fill="none" stroke="midnightblue" d="M502,-436.02C502,-374.38 502,-214.86 502,-175.75"/>
<polygon fill="midnightblue" stroke="midnightblue" points="498.5,-436.34 502,-446.34 505.5,-436.34 498.5,-436.34"/>
</g>
<!-- Node3 -->
<g id="node3" class="node">
<title>Node3</title>
<g id="a_node3"><a xlink:href="SceneBuilder_8hpp.html" target="_top" xlink:title=" ">
<polygon fill="none" stroke="black" points="232,-374 232,-404 392,-404 392,-374 232,-374"/>
<text text-anchor="start" x="240" y="-392" font-family="Helvetica,sans-Serif" font-size="10.00">includes/platformer</text>
<text text-anchor="middle" x="312" y="-381" font-family="Helvetica,sans-Serif" font-size="10.00">&#45;engine/Builder/SceneBuilder.hpp</text>
</a>
</g>
</g>
<!-- Node1&#45;&gt;Node3 -->
<g id="edge2" class="edge">
<title>Node1&#45;&gt;Node3</title>
<path fill="none" stroke="midnightblue" d="M454.32,-442.81C422.03,-430.83 379.94,-415.21 349.93,-404.07"/>
<polygon fill="midnightblue" stroke="midnightblue" points="453.41,-446.21 464.01,-446.4 455.85,-439.64 453.41,-446.21"/>
</g>
<!-- Node5 -->
<g id="node5" class="node">
<title>Node5</title>
<g id="a_node5"><a xlink:href="Engine_8hpp.html" target="_top" xlink:title=" ">
<polygon fill="none" stroke="black" points="1095.5,-73 1095.5,-103 1226.5,-103 1226.5,-73 1095.5,-73"/>
<text text-anchor="start" x="1103.5" y="-91" font-family="Helvetica,sans-Serif" font-size="10.00">includes/platformer</text>
<text text-anchor="middle" x="1161" y="-80" font-family="Helvetica,sans-Serif" font-size="10.00">&#45;engine/Engine/Engine.hpp</text>
</a>
</g>
</g>
<!-- Node1&#45;&gt;Node5 -->
<g id="edge4" class="edge">
<title>Node1&#45;&gt;Node5</title>
<path fill="none" stroke="midnightblue" d="M563.9,-458.34C717.72,-451.3 1105,-422.6 1105,-312 1105,-312 1105,-312 1105,-237.5 1105,-195.53 1107.92,-183.77 1124,-145 1130.34,-129.72 1141.03,-114.16 1149.29,-103.33"/>
<polygon fill="midnightblue" stroke="midnightblue" points="563.51,-454.86 553.67,-458.79 563.82,-461.85 563.51,-454.86"/>
</g>
<!-- Node21 -->
<g id="node21" class="node">
<title>Node21</title>
<g id="a_node21"><a xlink:href="AbstractLevelParser_8hpp.html" target="_top" xlink:title=" ">
<polygon fill="none" stroke="black" points="28.5,-368.5 28.5,-409.5 155.5,-409.5 155.5,-368.5 28.5,-368.5"/>
<text text-anchor="start" x="36.5" y="-397.5" font-family="Helvetica,sans-Serif" font-size="10.00">includes/platformer</text>
<text text-anchor="start" x="36.5" y="-386.5" font-family="Helvetica,sans-Serif" font-size="10.00">&#45;engine/LevelParser</text>
<text text-anchor="middle" x="92" y="-375.5" font-family="Helvetica,sans-Serif" font-size="10.00">/AbstractLevelParser.hpp</text>
</a>
</g>
</g>
<!-- Node1&#45;&gt;Node21 -->
<g id="edge20" class="edge">
<title>Node1&#45;&gt;Node21</title>
<path fill="none" stroke="midnightblue" d="M440.5,-449.92C363.83,-436.74 233.44,-414.32 155.74,-400.96"/>
<polygon fill="midnightblue" stroke="midnightblue" points="440.04,-453.4 450.49,-451.64 441.23,-446.5 440.04,-453.4"/>
</g>
<!-- Node24 -->
<g id="node24" class="node">
<title>Node24</title>
<g id="a_node24"><a xlink:href="LevelParser_8hpp.html" target="_top" xlink:title=" ">
<polygon fill="none" stroke="black" points="332,-290.5 332,-331.5 436,-331.5 436,-290.5 332,-290.5"/>
<text text-anchor="start" x="340" y="-319.5" font-family="Helvetica,sans-Serif" font-size="10.00">includes/platformer</text>
<text text-anchor="start" x="340" y="-308.5" font-family="Helvetica,sans-Serif" font-size="10.00">&#45;engine/LevelParser</text>
<text text-anchor="middle" x="384" y="-297.5" font-family="Helvetica,sans-Serif" font-size="10.00">/LevelParser.hpp</text>
</a>
</g>
</g>
<!-- Node1&#45;&gt;Node24 -->
<g id="edge24" class="edge">
<title>Node1&#45;&gt;Node24</title>
<path fill="none" stroke="midnightblue" d="M484.4,-438.35C461.4,-409.4 421.47,-359.15 399.53,-331.55"/>
<polygon fill="midnightblue" stroke="midnightblue" points="481.72,-440.61 490.69,-446.26 487.2,-436.25 481.72,-440.61"/>
</g>
<!-- Node26 -->
<g id="node26" class="node">
<title>Node26</title>
<g id="a_node26"><a xlink:href="ServerNetworkManager_8hpp.html" target="_top" xlink:title=" ">
<polygon fill="none" stroke="black" points="1132.5,-145.5 1132.5,-186.5 1301.5,-186.5 1301.5,-145.5 1132.5,-145.5"/>
<text text-anchor="start" x="1140.5" y="-174.5" font-family="Helvetica,sans-Serif" font-size="10.00">includes/platformer</text>
<text text-anchor="start" x="1140.5" y="-163.5" font-family="Helvetica,sans-Serif" font-size="10.00">&#45;engine/Networking/ServerNetwork</text>
<text text-anchor="middle" x="1217" y="-152.5" font-family="Helvetica,sans-Serif" font-size="10.00">Manager.hpp</text>
</a>
</g>
</g>
<!-- Node1&#45;&gt;Node26 -->
<g id="edge29" class="edge">
<title>Node1&#45;&gt;Node26</title>
<path fill="none" stroke="midnightblue" d="M563.93,-459.08C711.52,-455.19 1074.99,-442.39 1119,-410 1193.55,-355.12 1211.5,-233.94 1215.73,-186.54"/>
<polygon fill="midnightblue" stroke="midnightblue" points="563.59,-455.59 553.69,-459.35 563.77,-462.59 563.59,-455.59"/>
</g>
<!-- Node27 -->
<g id="node27" class="node">
<title>Node27</title>
<g id="a_node27"><a xlink:href="Window_8hpp.html" target="_top" xlink:title=" ">
<polygon fill="none" stroke="black" points="717.5,-374 717.5,-404 854.5,-404 854.5,-374 717.5,-374"/>
<text text-anchor="start" x="725.5" y="-392" font-family="Helvetica,sans-Serif" font-size="10.00">includes/platformer</text>
<text text-anchor="middle" x="786" y="-381" font-family="Helvetica,sans-Serif" font-size="10.00">&#45;engine/Render/Window.hpp</text>
</a>
</g>
</g>
<!-- Node1&#45;&gt;Node27 -->
<g id="edge32" class="edge">
<title>Node1&#45;&gt;Node27</title>
<path fill="none" stroke="midnightblue" d="M563.65,-445.2C612.89,-432.97 681.33,-415.98 729.24,-404.09"/>
<polygon fill="midnightblue" stroke="midnightblue" points="562.62,-441.84 553.76,-447.65 564.31,-448.64 562.62,-441.84"/>
</g>
<!-- Node4 -->
<g id="node4" class="node">
<title>Node4</title>
<g id="a_node4"><a xlink:href="SceneBuilder_8cpp.html" target="_top" xlink:title=" ">
<polygon fill="none" stroke="black" points="172,-301.5 172,-320.5 314,-320.5 314,-301.5 172,-301.5"/>
<text text-anchor="middle" x="243" y="-308.5" font-family="Helvetica,sans-Serif" font-size="10.00">src/Builder/SceneBuilder.cpp</text>
</a>
</g>
</g>
<!-- Node3&#45;&gt;Node4 -->
<g id="edge3" class="edge">
<title>Node3&#45;&gt;Node4</title>
<path fill="none" stroke="midnightblue" d="M292.22,-366.21C278.42,-351.01 260.75,-331.55 250.77,-320.56"/>
<polygon fill="midnightblue" stroke="midnightblue" points="289.71,-368.65 299.02,-373.7 294.89,-363.95 289.71,-368.65"/>
</g>
<!-- Node6 -->
<g id="node6" class="node">
<title>Node6</title>
<g id="a_node6"><a xlink:href="Animator_8cpp.html" target="_top" xlink:title=" ">
<polygon fill="none" stroke="black" points="631,-6 631,-25 741,-25 741,-6 631,-6"/>
<text text-anchor="middle" x="686" y="-13" font-family="Helvetica,sans-Serif" font-size="10.00">src/API/Animator.cpp</text>
</a>
</g>
</g>
<!-- Node5&#45;&gt;Node6 -->
<g id="edge5" class="edge">
<title>Node5&#45;&gt;Node6</title>
<path fill="none" stroke="midnightblue" d="M1085.17,-78.68C1002.46,-69.14 866.32,-52.06 750,-31 740.58,-29.3 730.46,-27.15 721.1,-25.03"/>
<polygon fill="midnightblue" stroke="midnightblue" points="1084.9,-82.17 1095.23,-79.83 1085.7,-75.22 1084.9,-82.17"/>
</g>
<!-- Node7 -->
<g id="node7" class="node">
<title>Node7</title>
<g id="a_node7"><a xlink:href="RigidBody_8cpp.html" target="_top" xlink:title=" ">
<polygon fill="none" stroke="black" points="1239,-6 1239,-25 1353,-25 1353,-6 1239,-6"/>
<text text-anchor="middle" x="1296" y="-13" font-family="Helvetica,sans-Serif" font-size="10.00">src/API/RigidBody.cpp</text>
</a>
</g>
</g>
<!-- Node5&#45;&gt;Node7 -->
<g id="edge6" class="edge">
<title>Node5&#45;&gt;Node7</title>
<path fill="none" stroke="midnightblue" d="M1197.09,-68.15C1223.94,-54.13 1259.3,-35.66 1279.66,-25.03"/>
<polygon fill="midnightblue" stroke="midnightblue" points="1195.24,-65.17 1187.99,-72.9 1198.48,-71.38 1195.24,-65.17"/>
</g>
<!-- Node8 -->
<g id="node8" class="node">
<title>Node8</title>
<g id="a_node8"><a xlink:href="CollisionBehaviour_8cpp.html" target="_top" xlink:title=" ">
<polygon fill="none" stroke="black" points="1371,-6 1371,-25 1549,-25 1549,-6 1371,-6"/>
<text text-anchor="middle" x="1460" y="-13" font-family="Helvetica,sans-Serif" font-size="10.00">src/Behaviour/CollisionBehaviour.cpp</text>
</a>
</g>
</g>
<!-- Node5&#45;&gt;Node8 -->
<g id="edge7" class="edge">
<title>Node5&#45;&gt;Node8</title>
<path fill="none" stroke="midnightblue" d="M1230.27,-70.67C1290.66,-56.43 1375.86,-36.34 1423.72,-25.05"/>
<polygon fill="midnightblue" stroke="midnightblue" points="1229.36,-67.29 1220.43,-72.99 1230.97,-74.1 1229.36,-67.29"/>
</g>
<!-- Node9 -->
<g id="node9" class="node">
<title>Node9</title>
<g id="a_node9"><a xlink:href="FPSCounterBehaviour_8cpp.html" target="_top" xlink:title=" ">
<polygon fill="none" stroke="black" points="1567.5,-0.5 1567.5,-30.5 1700.5,-30.5 1700.5,-0.5 1567.5,-0.5"/>
<text text-anchor="start" x="1575.5" y="-18.5" font-family="Helvetica,sans-Serif" font-size="10.00">src/Behaviour/FPSCounter</text>
<text text-anchor="middle" x="1634" y="-7.5" font-family="Helvetica,sans-Serif" font-size="10.00">Behaviour.cpp</text>
</a>
</g>
</g>
<!-- Node5&#45;&gt;Node9 -->
<g id="edge8" class="edge">
<title>Node5&#45;&gt;Node9</title>
<path fill="none" stroke="midnightblue" d="M1236.82,-77.41C1316.83,-67.04 1446.55,-49.48 1558,-31 1561.05,-30.49 1564.16,-29.96 1567.3,-29.41"/>
<polygon fill="midnightblue" stroke="midnightblue" points="1236.3,-73.95 1226.83,-78.71 1237.2,-80.89 1236.3,-73.95"/>
</g>
<!-- Node10 -->
<g id="node10" class="node">
<title>Node10</title>
<g id="a_node10"><a xlink:href="Debug_8cpp.html" target="_top" xlink:title=" ">
<polygon fill="none" stroke="black" points="1719,-6 1719,-25 1829,-25 1829,-6 1719,-6"/>
<text text-anchor="middle" x="1774" y="-13" font-family="Helvetica,sans-Serif" font-size="10.00">src/Debug/Debug.cpp</text>
</a>
</g>
</g>
<!-- Node5&#45;&gt;Node10 -->
<g id="edge9" class="edge">
<title>Node5&#45;&gt;Node10</title>
<path fill="none" stroke="midnightblue" d="M1236.82,-82.18C1343.09,-74.77 1542.15,-58.47 1710,-31 1719.78,-29.4 1730.31,-27.21 1739.94,-25.02"/>
<polygon fill="midnightblue" stroke="midnightblue" points="1236.57,-78.69 1226.83,-82.87 1237.05,-85.68 1236.57,-78.69"/>
</g>
<!-- Node11 -->
<g id="node11" class="node">
<title>Node11</title>
<g id="a_node11"><a xlink:href="GameObjectDirector_8cpp.html" target="_top" xlink:title=" ">
<polygon fill="none" stroke="black" points="301,-6 301,-25 477,-25 477,-6 301,-6"/>
<text text-anchor="middle" x="389" y="-13" font-family="Helvetica,sans-Serif" font-size="10.00">src/Director/GameObjectDirector.cpp</text>
</a>
</g>
</g>
<!-- Node5&#45;&gt;Node11 -->
<g id="edge10" class="edge">
<title>Node5&#45;&gt;Node11</title>
<path fill="none" stroke="midnightblue" d="M1084.99,-82.33C959.85,-74.26 702.71,-56.16 486,-31 471.62,-29.33 456.1,-27.17 441.78,-25.03"/>
<polygon fill="midnightblue" stroke="midnightblue" points="1085.02,-85.84 1095.22,-82.98 1085.47,-78.85 1085.02,-85.84"/>
</g>
<!-- Node12 -->
<g id="node12" class="node">
<title>Node12</title>
<g id="a_node12"><a xlink:href="Engine_8cpp.html" target="_top" xlink:title=" ">
<polygon fill="none" stroke="black" points="1847.5,-6 1847.5,-25 1960.5,-25 1960.5,-6 1847.5,-6"/>
<text text-anchor="middle" x="1904" y="-13" font-family="Helvetica,sans-Serif" font-size="10.00">src/Engine/Engine.cpp</text>
</a>
</g>
</g>
<!-- Node5&#45;&gt;Node12 -->
<g id="edge11" class="edge">
<title>Node5&#45;&gt;Node12</title>
<path fill="none" stroke="midnightblue" d="M1236.97,-84.03C1362.61,-78.38 1621.34,-63.61 1838,-31 1848.21,-29.46 1859.2,-27.27 1869.22,-25.05"/>
<polygon fill="midnightblue" stroke="midnightblue" points="1236.53,-80.55 1226.69,-84.49 1236.84,-87.54 1236.53,-80.55"/>
</g>
<!-- Node13 -->
<g id="node13" class="node">
<title>Node13</title>
<g id="a_node13"><a xlink:href="TMXParser_8cpp.html" target="_top" xlink:title=" ">
<polygon fill="none" stroke="black" points="147,-6 147,-25 283,-25 283,-6 147,-6"/>
<text text-anchor="middle" x="215" y="-13" font-family="Helvetica,sans-Serif" font-size="10.00">src/Facade/TMXParser.cpp</text>
</a>
</g>
</g>
<!-- Node5&#45;&gt;Node13 -->
<g id="edge12" class="edge">
<title>Node5&#45;&gt;Node13</title>
<path fill="none" stroke="midnightblue" d="M1085.35,-83.31C903.29,-74.25 444.55,-50.21 292,-31 279.99,-29.49 267.02,-27.27 255.22,-25.03"/>
<polygon fill="midnightblue" stroke="midnightblue" points="1085.21,-86.81 1095.37,-83.81 1085.56,-79.82 1085.21,-86.81"/>
</g>
<!-- Node14 -->
<g id="node14" class="node">
<title>Node14</title>
<g id="a_node14"><a xlink:href="ClientNetworkManager_8cpp.html" target="_top" xlink:title=" ">
<polygon fill="none" stroke="black" points="1978.5,-0.5 1978.5,-30.5 2125.5,-30.5 2125.5,-0.5 1978.5,-0.5"/>
<text text-anchor="start" x="1986.5" y="-18.5" font-family="Helvetica,sans-Serif" font-size="10.00">src/Networking/ClientNetwork</text>
<text text-anchor="middle" x="2052" y="-7.5" font-family="Helvetica,sans-Serif" font-size="10.00">Manager.cpp</text>
</a>
</g>
</g>
<!-- Node5&#45;&gt;Node14 -->
<g id="edge13" class="edge">
<title>Node5&#45;&gt;Node14</title>
<path fill="none" stroke="midnightblue" d="M1236.52,-84.44C1379.92,-79 1701.34,-63.96 1970,-31 1972.73,-30.67 1975.5,-30.3 1978.3,-29.91"/>
<polygon fill="midnightblue" stroke="midnightblue" points="1236.36,-80.95 1226.5,-84.82 1236.63,-87.94 1236.36,-80.95"/>
</g>
<!-- Node15 -->
<g id="node15" class="node">
<title>Node15</title>
<g id="a_node15"><a xlink:href="ServerNetworkManager_8cpp.html" target="_top" xlink:title=" ">
<polygon fill="none" stroke="black" points="2320.5,-0.5 2320.5,-30.5 2471.5,-30.5 2471.5,-0.5 2320.5,-0.5"/>
<text text-anchor="start" x="2328.5" y="-18.5" font-family="Helvetica,sans-Serif" font-size="10.00">src/Networking/ServerNetwork</text>
<text text-anchor="middle" x="2396" y="-7.5" font-family="Helvetica,sans-Serif" font-size="10.00">Manager.cpp</text>
</a>
</g>
</g>
<!-- Node5&#45;&gt;Node15 -->
<g id="edge14" class="edge">
<title>Node5&#45;&gt;Node15</title>
<path fill="none" stroke="midnightblue" d="M1236.83,-84.52C1458.43,-77.1 2102.55,-54.09 2312,-31 2314.65,-30.71 2317.34,-30.39 2320.05,-30.04"/>
<polygon fill="midnightblue" stroke="midnightblue" points="1236.47,-81.03 1226.6,-84.87 1236.71,-88.03 1236.47,-81.03"/>
</g>
<!-- Node16 -->
<g id="node16" class="node">
<title>Node16</title>
<g id="a_node16"><a xlink:href="PlayerRigidBody_8cpp.html" target="_top" xlink:title=" ">
<polygon fill="none" stroke="black" points="2143.5,-6 2143.5,-25 2302.5,-25 2302.5,-6 2143.5,-6"/>
<text text-anchor="middle" x="2223" y="-13" font-family="Helvetica,sans-Serif" font-size="10.00">src/Physics/PlayerRigidBody.cpp</text>
</a>
</g>
</g>
<!-- Node5&#45;&gt;Node16 -->
<g id="edge15" class="edge">
<title>Node5&#45;&gt;Node16</title>
<path fill="none" stroke="midnightblue" d="M1237.24,-85.36C1401.69,-81.22 1801.84,-67.92 2135,-31 2148.7,-29.48 2163.51,-27.27 2177,-25.02"/>
<polygon fill="midnightblue" stroke="midnightblue" points="1236.66,-81.87 1226.75,-85.62 1236.84,-88.87 1236.66,-81.87"/>
</g>
<!-- Node17 -->
<g id="node17" class="node">
<title>Node17</title>
<g id="a_node17"><a xlink:href="RenderSystem_8cpp.html" target="_top" xlink:title=" ">
<polygon fill="none" stroke="black" points="759,-6 759,-25 909,-25 909,-6 759,-6"/>
<text text-anchor="middle" x="834" y="-13" font-family="Helvetica,sans-Serif" font-size="10.00">src/Texture/RenderSystem.cpp</text>
</a>
</g>
</g>
<!-- Node5&#45;&gt;Node17 -->
<g id="edge16" class="edge">
<title>Node5&#45;&gt;Node17</title>
<path fill="none" stroke="midnightblue" d="M1086.05,-70.84C1019.97,-56.59 926.23,-36.38 873.68,-25.05"/>
<polygon fill="midnightblue" stroke="midnightblue" points="1085.49,-74.3 1096,-72.99 1086.97,-67.46 1085.49,-74.3"/>
</g>
<!-- Node18 -->
<g id="node18" class="node">
<title>Node18</title>
<g id="a_node18"><a xlink:href="TextureManager_8cpp.html" target="_top" xlink:title=" ">
<polygon fill="none" stroke="black" points="927,-6 927,-25 1083,-25 1083,-6 927,-6"/>
<text text-anchor="middle" x="1005" y="-13" font-family="Helvetica,sans-Serif" font-size="10.00">src/Texture/TextureManager.cpp</text>
</a>
</g>
</g>
<!-- Node5&#45;&gt;Node18 -->
<g id="edge17" class="edge">
<title>Node5&#45;&gt;Node18</title>
<path fill="none" stroke="midnightblue" d="M1120.5,-68.7C1089.35,-54.62 1047.71,-35.8 1023.88,-25.03"/>
<polygon fill="midnightblue" stroke="midnightblue" points="1119.25,-71.97 1129.81,-72.9 1122.13,-65.6 1119.25,-71.97"/>
</g>
<!-- Node19 -->
<g id="node19" class="node">
<title>Node19</title>
<g id="a_node19"><a xlink:href="ClickSystem_8cpp.html" target="_top" xlink:title=" ">
<polygon fill="none" stroke="black" points="1101.5,-6 1101.5,-25 1220.5,-25 1220.5,-6 1101.5,-6"/>
<text text-anchor="middle" x="1161" y="-13" font-family="Helvetica,sans-Serif" font-size="10.00">src/UI/ClickSystem.cpp</text>
</a>
</g>
</g>
<!-- Node5&#45;&gt;Node19 -->
<g id="edge18" class="edge">
<title>Node5&#45;&gt;Node19</title>
<path fill="none" stroke="midnightblue" d="M1161,-62.59C1161,-49.71 1161,-34.7 1161,-25.39"/>
<polygon fill="midnightblue" stroke="midnightblue" points="1157.5,-62.73 1161,-72.73 1164.5,-62.73 1157.5,-62.73"/>
</g>
<!-- Node20 -->
<g id="node20" class="node">
<title>Node20</title>
<g id="a_node20"><a xlink:href="FPSCounter_8cpp.html" target="_top" xlink:title=" ">
<polygon fill="none" stroke="black" points="495,-6 495,-25 613,-25 613,-6 495,-6"/>
<text text-anchor="middle" x="554" y="-13" font-family="Helvetica,sans-Serif" font-size="10.00">src/UI/FPSCounter.cpp</text>
</a>
</g>
</g>
<!-- Node5&#45;&gt;Node20 -->
<g id="edge19" class="edge">
<title>Node5&#45;&gt;Node20</title>
<path fill="none" stroke="midnightblue" d="M1085.01,-81.67C980.34,-73.75 786.12,-56.95 622,-31 611.75,-29.38 600.71,-27.21 590.57,-25.05"/>
<polygon fill="midnightblue" stroke="midnightblue" points="1084.93,-85.17 1095.16,-82.43 1085.45,-78.19 1084.93,-85.17"/>
</g>
<!-- Node22 -->
<g id="node22" class="node">
<title>Node22</title>
<g id="a_node22"><a xlink:href="TMXParser_8hpp.html" target="_top" xlink:title=" ">
<polygon fill="none" stroke="black" points="0,-296 0,-326 154,-326 154,-296 0,-296"/>
<text text-anchor="start" x="8" y="-314" font-family="Helvetica,sans-Serif" font-size="10.00">includes/platformer</text>
<text text-anchor="middle" x="77" y="-303" font-family="Helvetica,sans-Serif" font-size="10.00">&#45;engine/Facade/TMXParser.hpp</text>
</a>
</g>
</g>
<!-- Node21&#45;&gt;Node22 -->
<g id="edge21" class="edge">
<title>Node21&#45;&gt;Node22</title>
<path fill="none" stroke="midnightblue" d="M86.13,-358.28C83.96,-347.25 81.59,-335.25 79.81,-326.23"/>
<polygon fill="midnightblue" stroke="midnightblue" points="82.77,-359.3 88.14,-368.43 89.63,-357.94 82.77,-359.3"/>
</g>
<!-- Node22&#45;&gt;Node13 -->
<g id="edge22" class="edge">
<title>Node22&#45;&gt;Node13</title>
<path fill="none" stroke="midnightblue" d="M78.8,-285.61C80.69,-267.82 84.48,-243.36 92,-223 122.66,-140.02 186.89,-52.86 208.07,-25.35"/>
<polygon fill="midnightblue" stroke="midnightblue" points="75.3,-285.44 77.86,-295.73 82.27,-286.09 75.3,-285.44"/>
</g>
<!-- Node23 -->
<g id="node23" class="node">
<title>Node23</title>
<g id="a_node23"><a xlink:href="LevelParser_8cpp.html" target="_top" xlink:title=" ">
<polygon fill="none" stroke="black" points="101.5,-229 101.5,-248 260.5,-248 260.5,-229 101.5,-229"/>
<text text-anchor="middle" x="181" y="-236" font-family="Helvetica,sans-Serif" font-size="10.00">src/LevelParser/LevelParser.cpp</text>
</a>
</g>
</g>
<!-- Node22&#45;&gt;Node23 -->
<g id="edge23" class="edge">
<title>Node22&#45;&gt;Node23</title>
<path fill="none" stroke="midnightblue" d="M106.37,-290.09C126.74,-276.28 152.86,-258.58 168.18,-248.19"/>
<polygon fill="midnightblue" stroke="midnightblue" points="104.36,-287.23 98.05,-295.73 108.29,-293.02 104.36,-287.23"/>
</g>
<!-- Node24&#45;&gt;Node2 -->
<g id="edge28" class="edge">
<title>Node24&#45;&gt;Node2</title>
<path fill="none" stroke="midnightblue" d="M357.55,-282.42C343.72,-264.55 332.1,-241.3 345,-223 367.93,-190.48 411.52,-176.74 446.96,-170.98"/>
<polygon fill="midnightblue" stroke="midnightblue" points="354.92,-284.72 363.99,-290.21 360.32,-280.27 354.92,-284.72"/>
</g>
<!-- Node24&#45;&gt;Node13 -->
<g id="edge25" class="edge">
<title>Node24&#45;&gt;Node13</title>
<path fill="none" stroke="midnightblue" d="M358.37,-282.73C350.71,-273.91 342.6,-263.86 336,-254 279.88,-170.17 231.6,-56.89 218.5,-25.1"/>
<polygon fill="midnightblue" stroke="midnightblue" points="355.96,-285.3 365.22,-290.45 361.2,-280.65 355.96,-285.3"/>
</g>
<!-- Node24&#45;&gt;Node23 -->
<g id="edge26" class="edge">
<title>Node24&#45;&gt;Node23</title>
<path fill="none" stroke="midnightblue" d="M322.22,-288.54C282.94,-274.9 234.24,-257.99 205.5,-248.01"/>
<polygon fill="midnightblue" stroke="midnightblue" points="321.39,-291.96 331.99,-291.94 323.69,-285.35 321.39,-291.96"/>
</g>
<!-- Node25 -->
<g id="node25" class="node">
<title>Node25</title>
<g id="a_node25"><a xlink:href="Window_8cpp.html" target="_top" xlink:title=" ">
<polygon fill="none" stroke="black" points="354.5,-229 354.5,-248 473.5,-248 473.5,-229 354.5,-229"/>
<text text-anchor="middle" x="414" y="-236" font-family="Helvetica,sans-Serif" font-size="10.00">src/Render/Window.cpp</text>
</a>
</g>
</g>
<!-- Node24&#45;&gt;Node25 -->
<g id="edge27" class="edge">
<title>Node24&#45;&gt;Node25</title>
<path fill="none" stroke="midnightblue" d="M396.42,-280.81C401.43,-269.04 406.83,-256.34 410.31,-248.17"/>
<polygon fill="midnightblue" stroke="midnightblue" points="393.05,-279.79 392.36,-290.36 399.49,-282.53 393.05,-279.79"/>
</g>
<!-- Node26&#45;&gt;Node5 -->
<g id="edge31" class="edge">
<title>Node26&#45;&gt;Node5</title>
<path fill="none" stroke="midnightblue" d="M1196.6,-137.32C1188.08,-125.75 1178.54,-112.8 1171.48,-103.23"/>
<polygon fill="midnightblue" stroke="midnightblue" points="1193.83,-139.45 1202.58,-145.43 1199.46,-135.3 1193.83,-139.45"/>
</g>
<!-- Node26&#45;&gt;Node15 -->
<g id="edge30" class="edge">
<title>Node26&#45;&gt;Node15</title>
<path fill="none" stroke="midnightblue" d="M1311.74,-158.11C1430.67,-149.01 1640.84,-131.5 1820,-109 2039.67,-81.42 2093.58,-67.16 2312,-31 2314.77,-30.54 2317.6,-30.07 2320.45,-29.59"/>
<polygon fill="midnightblue" stroke="midnightblue" points="1311.28,-154.63 1301.57,-158.88 1311.81,-161.61 1311.28,-154.63"/>
</g>
<!-- Node27&#45;&gt;Node5 -->
<g id="edge35" class="edge">
<title>Node27&#45;&gt;Node5</title>
<path fill="none" stroke="midnightblue" d="M864.7,-383.97C909.55,-377.98 964.35,-364.01 1003,-332 1073.74,-273.41 1034.11,-217.11 1091,-145 1104.21,-128.26 1123.32,-113.4 1138.25,-103.2"/>
<polygon fill="midnightblue" stroke="midnightblue" points="864.2,-380.5 854.7,-385.19 865.05,-387.45 864.2,-380.5"/>
</g>
<!-- Node27&#45;&gt;Node25 -->
<g id="edge33" class="edge">
<title>Node27&#45;&gt;Node25</title>
<path fill="none" stroke="midnightblue" d="M741.29,-370.15C660.79,-338.02 494.35,-271.57 435.33,-248.01"/>
<polygon fill="midnightblue" stroke="midnightblue" points="740.08,-373.44 750.67,-373.9 742.68,-366.94 740.08,-373.44"/>
</g>
<!-- Node28 -->
<g id="node28" class="node">
<title>Node28</title>
<g id="a_node28"><a xlink:href="Timer_8cpp.html" target="_top" xlink:title=" ">
<polygon fill="none" stroke="black" points="890,-301.5 890,-320.5 994,-320.5 994,-301.5 890,-301.5"/>
<text text-anchor="middle" x="942" y="-308.5" font-family="Helvetica,sans-Serif" font-size="10.00">src/Timer/Timer.cpp</text>
</a>
</g>
</g>
<!-- Node27&#45;&gt;Node28 -->
<g id="edge34" class="edge">
<title>Node27&#45;&gt;Node28</title>
<path fill="none" stroke="midnightblue" d="M824.04,-369.47C855.96,-353.92 900.11,-332.41 924.33,-320.61"/>
<polygon fill="midnightblue" stroke="midnightblue" points="822.43,-366.36 814.98,-373.88 825.5,-372.65 822.43,-366.36"/>
</g>
<!-- Node29 -->
<g id="node29" class="node">
<title>Node29</title>
<g id="a_node29"><a xlink:href="AnimatedSprite_8hpp.html" target="_top" xlink:title=" ">
<polygon fill="none" stroke="black" points="700.5,-296 700.5,-326 871.5,-326 871.5,-296 700.5,-296"/>
<text text-anchor="start" x="708.5" y="-314" font-family="Helvetica,sans-Serif" font-size="10.00">includes/platformer</text>
<text text-anchor="middle" x="786" y="-303" font-family="Helvetica,sans-Serif" font-size="10.00">&#45;engine/Texture/AnimatedSprite.hpp</text>
</a>
</g>
</g>
<!-- Node27&#45;&gt;Node29 -->
<g id="edge36" class="edge">
<title>Node27&#45;&gt;Node29</title>
<path fill="none" stroke="midnightblue" d="M786,-363.59C786,-351.26 786,-336.72 786,-326.23"/>
<polygon fill="midnightblue" stroke="midnightblue" points="782.5,-363.7 786,-373.7 789.5,-363.71 782.5,-363.7"/>
</g>
<!-- Node30 -->
<g id="node30" class="node">
<title>Node30</title>
<g id="a_node30"><a xlink:href="AnimatedSprite_8cpp.html" target="_top" xlink:title=" ">
<polygon fill="none" stroke="black" points="709.5,-229 709.5,-248 862.5,-248 862.5,-229 709.5,-229"/>
<text text-anchor="middle" x="786" y="-236" font-family="Helvetica,sans-Serif" font-size="10.00">src/Texture/AnimatedSprite.cpp</text>
</a>
</g>
</g>
<!-- Node29&#45;&gt;Node30 -->
<g id="edge37" class="edge">
<title>Node29&#45;&gt;Node30</title>
<path fill="none" stroke="midnightblue" d="M786,-285.59C786,-272.71 786,-257.7 786,-248.39"/>
<polygon fill="midnightblue" stroke="midnightblue" points="782.5,-285.73 786,-295.73 789.5,-285.73 782.5,-285.73"/>
</g>
<!-- Node31 -->
<g id="node31" class="node">
<title>Node31</title>
<g id="a_node31"><a xlink:href="GameObjectBuilder_8hpp.html" target="_top" xlink:title=" ">
<polygon fill="none" stroke="black" points="633.5,-145.5 633.5,-186.5 772.5,-186.5 772.5,-145.5 633.5,-145.5"/>
<text text-anchor="start" x="641.5" y="-174.5" font-family="Helvetica,sans-Serif" font-size="10.00">includes/platformer</text>
<text text-anchor="start" x="641.5" y="-163.5" font-family="Helvetica,sans-Serif" font-size="10.00">&#45;engine/Builder/GameObject</text>
<text text-anchor="middle" x="703" y="-152.5" font-family="Helvetica,sans-Serif" font-size="10.00">Builder.hpp</text>
</a>
</g>
</g>
<!-- Node29&#45;&gt;Node31 -->
<g id="edge38" class="edge">
<title>Node29&#45;&gt;Node31</title>
<path fill="none" stroke="midnightblue" d="M826.96,-291.25C857.44,-274.63 890.79,-249.01 872,-223 859.83,-206.15 813.8,-191.55 772.85,-181.48"/>
<polygon fill="midnightblue" stroke="midnightblue" points="825.31,-288.16 818.07,-295.9 828.55,-294.37 825.31,-288.16"/>
</g>
<!-- Node34 -->
<g id="node34" class="node">
<title>Node34</title>
<g id="a_node34"><a xlink:href="ObjectBuilder_8hpp.html" target="_top" xlink:title=" ">
<polygon fill="none" stroke="black" points="530.5,-223.5 530.5,-253.5 691.5,-253.5 691.5,-223.5 530.5,-223.5"/>
<text text-anchor="start" x="538.5" y="-241.5" font-family="Helvetica,sans-Serif" font-size="10.00">includes/platformer</text>
<text text-anchor="middle" x="611" y="-230.5" font-family="Helvetica,sans-Serif" font-size="10.00">&#45;engine/Builder/ObjectBuilder.hpp</text>
</a>
</g>
</g>
<!-- Node29&#45;&gt;Node34 -->
<g id="edge44" class="edge">
<title>Node29&#45;&gt;Node34</title>
<path fill="none" stroke="midnightblue" d="M741.7,-292.15C712.01,-280.19 673.46,-264.66 645.93,-253.57"/>
<polygon fill="midnightblue" stroke="midnightblue" points="740.42,-295.41 751.01,-295.9 743.04,-288.92 740.42,-295.41"/>
</g>
<!-- Node35 -->
<g id="node35" class="node">
<title>Node35</title>
<g id="a_node35"><a xlink:href="Animator_8hpp.html" target="_top" xlink:title=" ">
<polygon fill="none" stroke="black" points="919.5,-223.5 919.5,-253.5 1022.5,-253.5 1022.5,-223.5 919.5,-223.5"/>
<text text-anchor="start" x="927.5" y="-241.5" font-family="Helvetica,sans-Serif" font-size="10.00">includes/spic&#45;prj&#45;api</text>
<text text-anchor="middle" x="971" y="-230.5" font-family="Helvetica,sans-Serif" font-size="10.00">/Animator.hpp</text>
</a>
</g>
</g>
<!-- Node29&#45;&gt;Node35 -->
<g id="edge46" class="edge">
<title>Node29&#45;&gt;Node35</title>
<path fill="none" stroke="midnightblue" d="M832.42,-292.31C863.86,-280.33 904.85,-264.71 934.07,-253.57"/>
<polygon fill="midnightblue" stroke="midnightblue" points="831.09,-289.07 822.99,-295.9 833.58,-295.61 831.09,-289.07"/>
</g>
<!-- Node31&#45;&gt;Node15 -->
<g id="edge40" class="edge">
<title>Node31&#45;&gt;Node15</title>
<path fill="none" stroke="midnightblue" d="M782.52,-154.3C807.89,-151.08 836.1,-147.68 862,-145 1286.91,-101 1394.08,-99.92 1820,-67 2038.6,-50.1 2094.38,-57.68 2312,-31 2314.79,-30.66 2317.63,-30.29 2320.5,-29.89"/>
<polygon fill="midnightblue" stroke="midnightblue" points="782.05,-150.83 772.58,-155.58 782.94,-157.78 782.05,-150.83"/>
</g>
<!-- Node32 -->
<g id="node32" class="node">
<title>Node32</title>
<g id="a_node32"><a xlink:href="GameObjectBuilder_8cpp.html" target="_top" xlink:title=" ">
<polygon fill="none" stroke="black" points="423.5,-78.5 423.5,-97.5 592.5,-97.5 592.5,-78.5 423.5,-78.5"/>
<text text-anchor="middle" x="508" y="-85.5" font-family="Helvetica,sans-Serif" font-size="10.00">src/Builder/GameObjectBuilder.cpp</text>
</a>
</g>
</g>
<!-- Node31&#45;&gt;Node32 -->
<g id="edge39" class="edge">
<title>Node31&#45;&gt;Node32</title>
<path fill="none" stroke="midnightblue" d="M643.24,-141.71C604.84,-126.74 557.21,-108.18 529.94,-97.55"/>
<polygon fill="midnightblue" stroke="midnightblue" points="642.19,-145.06 652.78,-145.43 644.74,-138.54 642.19,-145.06"/>
</g>
<!-- Node33 -->
<g id="node33" class="node">
<title>Node33</title>
<g id="a_node33"><a xlink:href="GameObjectDirector_8hpp.html" target="_top" xlink:title=" ">
<polygon fill="none" stroke="black" points="610.5,-67.5 610.5,-108.5 753.5,-108.5 753.5,-67.5 610.5,-67.5"/>
<text text-anchor="start" x="618.5" y="-96.5" font-family="Helvetica,sans-Serif" font-size="10.00">includes/platformer</text>
<text text-anchor="start" x="618.5" y="-85.5" font-family="Helvetica,sans-Serif" font-size="10.00">&#45;engine/Director/GameObject</text>
<text text-anchor="middle" x="682" y="-74.5" font-family="Helvetica,sans-Serif" font-size="10.00">Director.hpp</text>
</a>
</g>
</g>
<!-- Node31&#45;&gt;Node33 -->
<g id="edge41" class="edge">
<title>Node31&#45;&gt;Node33</title>
<path fill="none" stroke="midnightblue" d="M694.87,-135.59C692.36,-126.51 689.67,-116.74 687.39,-108.51"/>
<polygon fill="midnightblue" stroke="midnightblue" points="691.55,-136.72 697.59,-145.43 698.3,-134.86 691.55,-136.72"/>
</g>
<!-- Node33&#45;&gt;Node11 -->
<g id="edge42" class="edge">
<title>Node33&#45;&gt;Node11</title>
<path fill="none" stroke="midnightblue" d="M600.58,-66.67C533.46,-50.36 466.06,-34.5 425.59,-25.03"/>
<polygon fill="midnightblue" stroke="midnightblue" points="599.94,-70.11 610.48,-69.07 601.59,-63.31 599.94,-70.11"/>
</g>
<!-- Node33&#45;&gt;Node20 -->
<g id="edge43" class="edge">
<title>Node33&#45;&gt;Node20</title>
<path fill="none" stroke="midnightblue" d="M637.55,-62.52C614.01,-49.55 586.57,-34.44 569.75,-25.17"/>
<polygon fill="midnightblue" stroke="midnightblue" points="635.9,-65.6 646.34,-67.36 639.27,-59.47 635.9,-65.6"/>
</g>
<!-- Node34&#45;&gt;Node31 -->
<g id="edge45" class="edge">
<title>Node34&#45;&gt;Node31</title>
<path fill="none" stroke="midnightblue" d="M637.84,-216.93C650.33,-207.36 665.11,-196.03 677.44,-186.59"/>
<polygon fill="midnightblue" stroke="midnightblue" points="635.43,-214.37 629.62,-223.23 639.68,-219.93 635.43,-214.37"/>
</g>
<!-- Node35&#45;&gt;Node2 -->
<g id="edge48" class="edge">
<title>Node35&#45;&gt;Node2</title>
<path fill="none" stroke="midnightblue" d="M909.17,-228.44C896.86,-226.63 884.02,-224.76 872,-223 762.23,-206.96 734.64,-203.9 625,-187 601.37,-183.36 575.23,-179.13 553.14,-175.51"/>
<polygon fill="midnightblue" stroke="midnightblue" points="908.96,-231.94 919.36,-229.93 909.98,-225.02 908.96,-231.94"/>
</g>
<!-- Node35&#45;&gt;Node6 -->
<g id="edge47" class="edge">
<title>Node35&#45;&gt;Node6</title>
<path fill="none" stroke="midnightblue" d="M920.45,-219.65C901.07,-211.43 879.45,-200.47 862,-187 807.27,-144.75 814.49,-113.15 763,-67 743.83,-49.82 718.32,-34.28 702.02,-25.1"/>
<polygon fill="midnightblue" stroke="midnightblue" points="919.17,-222.91 929.75,-223.46 921.83,-216.43 919.17,-222.91"/>
</g>
<!-- Node35&#45;&gt;Node31 -->
<g id="edge49" class="edge">
<title>Node35&#45;&gt;Node31</title>
<path fill="none" stroke="midnightblue" d="M909.5,-221.32C868.64,-210.57 814.91,-196.44 772.51,-185.28"/>
<polygon fill="midnightblue" stroke="midnightblue" points="908.77,-224.75 919.33,-223.91 910.55,-217.98 908.77,-224.75"/>
</g>
<!-- Node36 -->
<g id="node36" class="node">
<title>Node36</title>
<g id="a_node36"><a xlink:href="RenderSystem_8hpp.html" target="_top" xlink:title=" ">
<polygon fill="none" stroke="black" points="871,-151 871,-181 1039,-181 1039,-151 871,-151"/>
<text text-anchor="start" x="879" y="-169" font-family="Helvetica,sans-Serif" font-size="10.00">includes/platformer</text>
<text text-anchor="middle" x="955" y="-158" font-family="Helvetica,sans-Serif" font-size="10.00">&#45;engine/Texture/RenderSystem.hpp</text>
</a>
</g>
</g>
<!-- Node35&#45;&gt;Node36 -->
<g id="edge50" class="edge">
<title>Node35&#45;&gt;Node36</title>
<path fill="none" stroke="midnightblue" d="M965.49,-213.23C963.07,-202.57 960.31,-190.41 958.23,-181.25"/>
<polygon fill="midnightblue" stroke="midnightblue" points="962.14,-214.26 967.76,-223.23 968.96,-212.71 962.14,-214.26"/>
</g>
<!-- Node36&#45;&gt;Node5 -->
<g id="edge52" class="edge">
<title>Node36&#45;&gt;Node5</title>
<path fill="none" stroke="midnightblue" d="M1002.73,-147.39C1039.28,-133.9 1089.04,-115.55 1122.94,-103.04"/>
<polygon fill="midnightblue" stroke="midnightblue" points="1001.43,-144.14 993.26,-150.88 1003.86,-150.71 1001.43,-144.14"/>
</g>
<!-- Node36&#45;&gt;Node17 -->
<g id="edge51" class="edge">
<title>Node36&#45;&gt;Node17</title>
<path fill="none" stroke="midnightblue" d="M937.04,-142.96C909.95,-109.71 859.83,-48.2 841.21,-25.35"/>
<polygon fill="midnightblue" stroke="midnightblue" points="934.37,-145.22 943.4,-150.76 939.79,-140.8 934.37,-145.22"/>
</g>
</g>
</svg>
