<?xml version="1.0" encoding="UTF-8" standalone="no"?>
<!DOCTYPE svg PUBLIC "-//W3C//DTD SVG 1.1//EN"
 "http://www.w3.org/Graphics/SVG/1.1/DTD/svg11.dtd">
<!-- Generated by graphviz version 2.44.0 ()
 -->
<!-- Title: includes/platformer&#45;engine/Builder/SceneBuilder.hpp Pages: 1 -->
<svg width="597pt" height="330pt"
 viewBox="0.00 0.00 597.00 330.00" xmlns="http://www.w3.org/2000/svg" xmlns:xlink="http://www.w3.org/1999/xlink">
<g id="graph0" class="graph" transform="scale(1 1) rotate(0) translate(4 326)">
<title>includes/platformer&#45;engine/Builder/SceneBuilder.hpp</title>
<!-- Node1 -->
<g id="node1" class="node">
<title>Node1</title>
<g id="a_node1"><a xlink:title=" ">
<polygon fill="#bfbfbf" stroke="black" points="113.5,-291.5 113.5,-321.5 273.5,-321.5 273.5,-291.5 113.5,-291.5"/>
<text text-anchor="start" x="121.5" y="-309.5" font-family="Helvetica,sans-Serif" font-size="10.00">includes/platformer</text>
<text text-anchor="middle" x="193.5" y="-298.5" font-family="Helvetica,sans-Serif" font-size="10.00">&#45;engine/Builder/SceneBuilder.hpp</text>
</a>
</g>
</g>
<!-- Node2 -->
<g id="node2" class="node">
<title>Node2</title>
<g id="a_node2"><a xlink:title=" ">
<polygon fill="none" stroke="#bfbfbf" points="0,-6 0,-25 51,-25 51,-6 0,-6"/>
<text text-anchor="middle" x="25.5" y="-13" font-family="Helvetica,sans-Serif" font-size="10.00">memory</text>
</a>
</g>
</g>
<!-- Node1&#45;&gt;Node2 -->
<g id="edge1" class="edge">
<title>Node1&#45;&gt;Node2</title>
<path fill="none" stroke="midnightblue" d="M127.5,-291.44C76.12,-276.18 13.5,-246.07 13.5,-190 13.5,-190 13.5,-190 13.5,-132 13.5,-97.68 18.81,-57.93 22.36,-35.15"/>
<polygon fill="midnightblue" stroke="midnightblue" points="25.84,-35.59 23.98,-25.16 18.93,-34.47 25.84,-35.59"/>
</g>
<!-- Node3 -->
<g id="node3" class="node">
<title>Node3</title>
<g id="a_node3"><a xlink:href="GameObject_8hpp.html" target="_top" xlink:title=" ">
<polygon fill="none" stroke="black" points="234,-123.5 234,-142.5 323,-142.5 323,-123.5 234,-123.5"/>
<text text-anchor="middle" x="278.5" y="-130.5" font-family="Helvetica,sans-Serif" font-size="10.00">GameObject.hpp</text>
</a>
</g>
</g>
<!-- Node1&#45;&gt;Node3 -->
<g id="edge2" class="edge">
<title>Node1&#45;&gt;Node3</title>
<path fill="none" stroke="midnightblue" d="M223.3,-291.41C237.85,-282.94 254.19,-270.73 263.5,-255 282.49,-222.94 282.45,-177.75 280.58,-152.66"/>
<polygon fill="midnightblue" stroke="midnightblue" points="284.06,-152.29 279.65,-142.66 277.09,-152.94 284.06,-152.29"/>
</g>
<!-- Node14 -->
<g id="node14" class="node">
<title>Node14</title>
<g id="a_node14"><a xlink:href="Camera_8hpp.html" target="_top" xlink:title=" ">
<polygon fill="none" stroke="black" points="148.5,-179.5 148.5,-198.5 216.5,-198.5 216.5,-179.5 148.5,-179.5"/>
<text text-anchor="middle" x="182.5" y="-186.5" font-family="Helvetica,sans-Serif" font-size="10.00">Camera.hpp</text>
</a>
</g>
</g>
<!-- Node1&#45;&gt;Node14 -->
<g id="edge19" class="edge">
<title>Node1&#45;&gt;Node14</title>
<path fill="none" stroke="midnightblue" d="M190.01,-291.45C187.68,-281.38 184.82,-267.44 183.5,-255 181.86,-239.55 181.7,-221.92 181.9,-208.92"/>
<polygon fill="midnightblue" stroke="midnightblue" points="185.4,-208.94 182.13,-198.86 178.4,-208.78 185.4,-208.94"/>
</g>
<!-- Node16 -->
<g id="node16" class="node">
<title>Node16</title>
<g id="a_node16"><a xlink:href="Scene_8hpp.html" target="_top" xlink:title=" ">
<polygon fill="none" stroke="black" points="192.5,-235.5 192.5,-254.5 254.5,-254.5 254.5,-235.5 192.5,-235.5"/>
<text text-anchor="middle" x="223.5" y="-242.5" font-family="Helvetica,sans-Serif" font-size="10.00">Scene.hpp</text>
</a>
</g>
</g>
<!-- Node1&#45;&gt;Node16 -->
<g id="edge22" class="edge">
<title>Node1&#45;&gt;Node16</title>
<path fill="none" stroke="midnightblue" d="M200.61,-291.4C204.79,-283.11 210.11,-272.55 214.57,-263.71"/>
<polygon fill="midnightblue" stroke="midnightblue" points="217.76,-265.16 219.13,-254.66 211.51,-262.01 217.76,-265.16"/>
</g>
<!-- Node3&#45;&gt;Node2 -->
<g id="edge13" class="edge">
<title>Node3&#45;&gt;Node2</title>
<path fill="none" stroke="midnightblue" d="M233.58,-123.54C188.15,-114.5 121.46,-99.74 98.5,-87 74.06,-73.44 51.88,-49.62 38.54,-33.46"/>
<polygon fill="midnightblue" stroke="midnightblue" points="41.06,-31 32.08,-25.38 35.6,-35.38 41.06,-31"/>
</g>
<!-- Node4 -->
<g id="node4" class="node">
<title>Node4</title>
<g id="a_node4"><a xlink:href="Component_8hpp.html" target="_top" xlink:title=" ">
<polygon fill="none" stroke="black" points="117.5,-67.5 117.5,-86.5 201.5,-86.5 201.5,-67.5 117.5,-67.5"/>
<text text-anchor="middle" x="159.5" y="-74.5" font-family="Helvetica,sans-Serif" font-size="10.00">Component.hpp</text>
</a>
</g>
</g>
<!-- Node3&#45;&gt;Node4 -->
<g id="edge3" class="edge">
<title>Node3&#45;&gt;Node4</title>
<path fill="none" stroke="midnightblue" d="M259.64,-123.44C240.23,-114.64 209.77,-100.81 187.54,-90.72"/>
<polygon fill="midnightblue" stroke="midnightblue" points="188.82,-87.46 178.27,-86.52 185.93,-93.84 188.82,-87.46"/>
</g>
<!-- Node5 -->
<g id="node5" class="node">
<title>Node5</title>
<g id="a_node5"><a xlink:title=" ">
<polygon fill="none" stroke="#bfbfbf" points="69,-0.5 69,-30.5 164,-30.5 164,-0.5 69,-0.5"/>
<text text-anchor="start" x="77" y="-18.5" font-family="Helvetica,sans-Serif" font-size="10.00">boost/serialization</text>
<text text-anchor="middle" x="116.5" y="-7.5" font-family="Helvetica,sans-Serif" font-size="10.00">/access.hpp</text>
</a>
</g>
</g>
<!-- Node3&#45;&gt;Node5 -->
<g id="edge15" class="edge">
<title>Node3&#45;&gt;Node5</title>
<path fill="none" stroke="midnightblue" d="M235.67,-123.48C187.93,-113.56 116.37,-97.22 108.5,-87 98.37,-73.83 101.13,-54.97 106.02,-40.07"/>
<polygon fill="midnightblue" stroke="midnightblue" points="109.37,-41.1 109.6,-30.51 102.81,-38.64 109.37,-41.1"/>
</g>
<!-- Node6 -->
<g id="node6" class="node">
<title>Node6</title>
<g id="a_node6"><a xlink:title=" ">
<polygon fill="none" stroke="#bfbfbf" points="182,-0.5 182,-30.5 277,-30.5 277,-0.5 182,-0.5"/>
<text text-anchor="start" x="190" y="-18.5" font-family="Helvetica,sans-Serif" font-size="10.00">boost/serialization</text>
<text text-anchor="middle" x="229.5" y="-7.5" font-family="Helvetica,sans-Serif" font-size="10.00">/map.hpp</text>
</a>
</g>
</g>
<!-- Node3&#45;&gt;Node6 -->
<g id="edge16" class="edge">
<title>Node3&#45;&gt;Node6</title>
<path fill="none" stroke="midnightblue" d="M271.91,-123.48C265.42,-114.74 255.62,-100.55 249.5,-87 242.78,-72.13 237.77,-54.45 234.45,-40.52"/>
<polygon fill="midnightblue" stroke="midnightblue" points="237.85,-39.69 232.23,-30.71 231.02,-41.23 237.85,-39.69"/>
</g>
<!-- Node7 -->
<g id="node7" class="node">
<title>Node7</title>
<g id="a_node7"><a xlink:title=" ">
<polygon fill="none" stroke="#bfbfbf" points="295,-0.5 295,-30.5 390,-30.5 390,-0.5 295,-0.5"/>
<text text-anchor="start" x="303" y="-18.5" font-family="Helvetica,sans-Serif" font-size="10.00">boost/serialization</text>
<text text-anchor="middle" x="342.5" y="-7.5" font-family="Helvetica,sans-Serif" font-size="10.00">/vector.hpp</text>
</a>
</g>
</g>
<!-- Node3&#45;&gt;Node7 -->
<g id="edge17" class="edge">
<title>Node3&#45;&gt;Node7</title>
<path fill="none" stroke="midnightblue" d="M323.12,-131.5C356.94,-128.48 401.42,-118.26 424.5,-87 439.66,-66.46 415.59,-47.85 389.68,-34.92"/>
<polygon fill="midnightblue" stroke="midnightblue" points="391.03,-31.69 380.5,-30.58 388.04,-38.02 391.03,-31.69"/>
</g>
<!-- Node8 -->
<g id="node8" class="node">
<title>Node8</title>
<g id="a_node8"><a xlink:title=" ">
<polygon fill="none" stroke="#bfbfbf" points="408,-0.5 408,-30.5 503,-30.5 503,-0.5 408,-0.5"/>
<text text-anchor="start" x="416" y="-18.5" font-family="Helvetica,sans-Serif" font-size="10.00">boost/serialization</text>
<text text-anchor="middle" x="455.5" y="-7.5" font-family="Helvetica,sans-Serif" font-size="10.00">/shared_ptr.hpp</text>
</a>
</g>
</g>
<!-- Node3&#45;&gt;Node8 -->
<g id="edge18" class="edge">
<title>Node3&#45;&gt;Node8</title>
<path fill="none" stroke="midnightblue" d="M323.03,-131.68C359.7,-128.93 410.4,-119 440.5,-87 452.02,-74.75 455.58,-55.93 456.36,-40.82"/>
<polygon fill="midnightblue" stroke="midnightblue" points="459.86,-40.67 456.51,-30.62 452.86,-40.57 459.86,-40.67"/>
</g>
<!-- Node9 -->
<g id="node9" class="node">
<title>Node9</title>
<g id="a_node9"><a xlink:href="Transform_8hpp.html" target="_top" xlink:title=" ">
<polygon fill="none" stroke="black" points="510,-67.5 510,-86.5 589,-86.5 589,-67.5 510,-67.5"/>
<text text-anchor="middle" x="549.5" y="-74.5" font-family="Helvetica,sans-Serif" font-size="10.00">Transform.hpp</text>
</a>
</g>
</g>
<!-- Node3&#45;&gt;Node9 -->
<g id="edge9" class="edge">
<title>Node3&#45;&gt;Node9</title>
<path fill="none" stroke="midnightblue" d="M321.44,-123.44C369.99,-113.77 448.92,-98.04 500.01,-87.86"/>
<polygon fill="midnightblue" stroke="midnightblue" points="500.72,-91.29 509.85,-85.9 499.35,-84.42 500.72,-91.29"/>
</g>
<!-- Node11 -->
<g id="node11" class="node">
<title>Node11</title>
<g id="a_node11"><a xlink:title=" ">
<polygon fill="none" stroke="#bfbfbf" points="258,-67.5 258,-86.5 299,-86.5 299,-67.5 258,-67.5"/>
<text text-anchor="middle" x="278.5" y="-74.5" font-family="Helvetica,sans-Serif" font-size="10.00">string</text>
</a>
</g>
</g>
<!-- Node3&#45;&gt;Node11 -->
<g id="edge11" class="edge">
<title>Node3&#45;&gt;Node11</title>
<path fill="none" stroke="midnightblue" d="M278.5,-123.08C278.5,-116.01 278.5,-105.86 278.5,-96.99"/>
<polygon fill="midnightblue" stroke="midnightblue" points="282,-96.75 278.5,-86.75 275,-96.75 282,-96.75"/>
</g>
<!-- Node12 -->
<g id="node12" class="node">
<title>Node12</title>
<g id="a_node12"><a xlink:title=" ">
<polygon fill="none" stroke="#bfbfbf" points="317.5,-67.5 317.5,-86.5 361.5,-86.5 361.5,-67.5 317.5,-67.5"/>
<text text-anchor="middle" x="339.5" y="-74.5" font-family="Helvetica,sans-Serif" font-size="10.00">vector</text>
</a>
</g>
</g>
<!-- Node3&#45;&gt;Node12 -->
<g id="edge12" class="edge">
<title>Node3&#45;&gt;Node12</title>
<path fill="none" stroke="midnightblue" d="M288.3,-123.32C297.32,-115.34 310.91,-103.31 321.82,-93.65"/>
<polygon fill="midnightblue" stroke="midnightblue" points="324.35,-96.08 329.52,-86.83 319.71,-90.84 324.35,-96.08"/>
</g>
<!-- Node13 -->
<g id="node13" class="node">
<title>Node13</title>
<g id="a_node13"><a xlink:title=" ">
<polygon fill="none" stroke="#bfbfbf" points="380,-67.5 380,-86.5 415,-86.5 415,-67.5 380,-67.5"/>
<text text-anchor="middle" x="397.5" y="-74.5" font-family="Helvetica,sans-Serif" font-size="10.00">map</text>
</a>
</g>
</g>
<!-- Node3&#45;&gt;Node13 -->
<g id="edge14" class="edge">
<title>Node3&#45;&gt;Node13</title>
<path fill="none" stroke="midnightblue" d="M297.36,-123.44C317.11,-114.48 348.31,-100.32 370.63,-90.19"/>
<polygon fill="midnightblue" stroke="midnightblue" points="372.24,-93.31 379.9,-85.99 369.34,-86.93 372.24,-93.31"/>
</g>
<!-- Node4&#45;&gt;Node2 -->
<g id="edge4" class="edge">
<title>Node4&#45;&gt;Node2</title>
<path fill="none" stroke="midnightblue" d="M140.3,-67.48C117.71,-57.45 80,-40.7 54,-29.15"/>
<polygon fill="midnightblue" stroke="midnightblue" points="55.22,-25.87 44.66,-25.01 52.38,-32.27 55.22,-25.87"/>
</g>
<!-- Node4&#45;&gt;Node5 -->
<g id="edge5" class="edge">
<title>Node4&#45;&gt;Node5</title>
<path fill="none" stroke="midnightblue" d="M153.34,-67.48C147.95,-60.02 139.88,-48.85 132.67,-38.87"/>
<polygon fill="midnightblue" stroke="midnightblue" points="135.33,-36.58 126.63,-30.52 129.65,-40.68 135.33,-36.58"/>
</g>
<!-- Node4&#45;&gt;Node6 -->
<g id="edge6" class="edge">
<title>Node4&#45;&gt;Node6</title>
<path fill="none" stroke="midnightblue" d="M169.53,-67.48C178.83,-59.57 193.05,-47.48 205.3,-37.07"/>
<polygon fill="midnightblue" stroke="midnightblue" points="207.65,-39.67 213,-30.52 203.12,-34.33 207.65,-39.67"/>
</g>
<!-- Node4&#45;&gt;Node7 -->
<g id="edge7" class="edge">
<title>Node4&#45;&gt;Node7</title>
<path fill="none" stroke="midnightblue" d="M185.72,-67.48C212.7,-58.7 255.5,-44.79 289.56,-33.71"/>
<polygon fill="midnightblue" stroke="midnightblue" points="290.94,-36.94 299.37,-30.52 288.78,-30.29 290.94,-36.94"/>
</g>
<!-- Node4&#45;&gt;Node8 -->
<g id="edge8" class="edge">
<title>Node4&#45;&gt;Node8</title>
<path fill="none" stroke="midnightblue" d="M201.73,-68.98C247.74,-61.13 323.72,-47.59 397.92,-31.28"/>
<polygon fill="midnightblue" stroke="midnightblue" points="398.89,-34.64 407.89,-29.06 397.37,-27.81 398.89,-34.64"/>
</g>
<!-- Node10 -->
<g id="node10" class="node">
<title>Node10</title>
<g id="a_node10"><a xlink:href="Point_8hpp.html" target="_top" xlink:title=" ">
<polygon fill="none" stroke="black" points="521,-6 521,-25 578,-25 578,-6 521,-6"/>
<text text-anchor="middle" x="549.5" y="-13" font-family="Helvetica,sans-Serif" font-size="10.00">Point.hpp</text>
</a>
</g>
</g>
<!-- Node9&#45;&gt;Node10 -->
<g id="edge10" class="edge">
<title>Node9&#45;&gt;Node10</title>
<path fill="none" stroke="midnightblue" d="M549.5,-67.48C549.5,-59.08 549.5,-45.98 549.5,-35.16"/>
<polygon fill="midnightblue" stroke="midnightblue" points="553,-35.01 549.5,-25.01 546,-35.01 553,-35.01"/>
</g>
<!-- Node14&#45;&gt;Node3 -->
<g id="edge20" class="edge">
<title>Node14&#45;&gt;Node3</title>
<path fill="none" stroke="midnightblue" d="M197.92,-179.32C213.04,-170.82 236.32,-157.73 253.97,-147.8"/>
<polygon fill="midnightblue" stroke="midnightblue" points="256.11,-150.61 263.11,-142.65 252.68,-144.51 256.11,-150.61"/>
</g>
<!-- Node15 -->
<g id="node15" class="node">
<title>Node15</title>
<g id="a_node15"><a xlink:href="Color_8hpp.html" target="_top" xlink:title=" ">
<polygon fill="none" stroke="black" points="154,-123.5 154,-142.5 211,-142.5 211,-123.5 154,-123.5"/>
<text text-anchor="middle" x="182.5" y="-130.5" font-family="Helvetica,sans-Serif" font-size="10.00">Color.hpp</text>
</a>
</g>
</g>
<!-- Node14&#45;&gt;Node15 -->
<g id="edge21" class="edge">
<title>Node14&#45;&gt;Node15</title>
<path fill="none" stroke="midnightblue" d="M182.5,-179.08C182.5,-172.01 182.5,-161.86 182.5,-152.99"/>
<polygon fill="midnightblue" stroke="midnightblue" points="186,-152.75 182.5,-142.75 179,-152.75 186,-152.75"/>
</g>
<!-- Node16&#45;&gt;Node3 -->
<g id="edge23" class="edge">
<title>Node16&#45;&gt;Node3</title>
<path fill="none" stroke="midnightblue" d="M227.82,-235.37C236.81,-217.38 257.72,-175.55 269.69,-151.63"/>
<polygon fill="midnightblue" stroke="midnightblue" points="272.86,-153.1 274.2,-142.59 266.6,-149.97 272.86,-153.1"/>
</g>
<!-- Node16&#45;&gt;Node14 -->
<g id="edge24" class="edge">
<title>Node16&#45;&gt;Node14</title>
<path fill="none" stroke="midnightblue" d="M216.73,-235.08C210.94,-227.46 202.44,-216.26 195.36,-206.94"/>
<polygon fill="midnightblue" stroke="midnightblue" points="197.98,-204.6 189.14,-198.75 192.4,-208.83 197.98,-204.6"/>
</g>
</g>
</svg>
