<?xml version="1.0" encoding="UTF-8" standalone="no"?>
<!DOCTYPE svg PUBLIC "-//W3C//DTD SVG 1.1//EN"
 "http://www.w3.org/Graphics/SVG/1.1/DTD/svg11.dtd">
<!-- Generated by graphviz version 2.44.0 ()
 -->
<!-- Title: includes/spic&#45;prj&#45;api/Scene.hpp Pages: 1 -->
<!--zoomable 463 -->
<svg id="main" version="1.1" xmlns="http://www.w3.org/2000/svg" xmlns:xlink="http://www.w3.org/1999/xlink" xml:space="preserve" onload="init(evt)">
<style type="text/css"><![CDATA[
.edge:hover path { stroke: red; }
.edge:hover polygon { stroke: red; fill: red; }
]]></style>
<script type="text/javascript"><![CDATA[
var edges = document.getElementsByTagName('g');
if (edges && edges.length) {
  for (var i=0;i<edges.length;i++) {
    if (edges[i].id.substr(0,4)=='edge') {
      edges[i].setAttribute('class','edge');
    }
  }
}
]]></script>
        <defs>
                <circle id="rim" cx="0" cy="0" r="7"/>
                <circle id="rim2" cx="0" cy="0" r="3.5"/>
                <g id="zoomPlus">
                        <use xlink:href="#rim" fill="#404040">
                                <set attributeName="fill" to="#808080" begin="zoomplus.mouseover" end="zoomplus.mouseout"/>
                        </use>
                        <path d="M-4,0h8M0,-4v8" fill="none" stroke="white" stroke-width="1.5" pointer-events="none"/>
                </g>
                <g id="zoomMin">
                        <use xlink:href="#rim" fill="#404040">
                                <set attributeName="fill" to="#808080" begin="zoomminus.mouseover" end="zoomminus.mouseout"/>
                        </use>
                        <path d="M-4,0h8" fill="none" stroke="white" stroke-width="1.5" pointer-events="none"/>
                </g>
                <g id="dirArrow">
                        <path fill="none" stroke="white" stroke-width="1.5" d="M0,-3.0v7 M-2.5,-0.5L0,-3.0L2.5,-0.5"/>
                </g>
               <g id="resetDef">
                       <use xlink:href="#rim2" fill="#404040">
                               <set attributeName="fill" to="#808080" begin="reset.mouseover" end="reset.mouseout"/>
                       </use>
               </g>
        </defs>

<script type="text/javascript">
var viewWidth = 2047;
var viewHeight = 463;
var sectionId = 'dynsection-1';
</script>
<script xlink:href="svgpan.js"/>
<svg id="graph" class="graph">
<g id="viewport">
<title>includes/spic&#45;prj&#45;api/Scene.hpp</title>
<!-- Node1 -->
<g id="node1" class="node">
<title>Node1</title>
<g id="a_node1"><a xlink:title=" ">
<polygon fill="#bfbfbf" stroke="black" points="1147,-424.5 1147,-454.5 1250,-454.5 1250,-424.5 1147,-424.5"/>
<text text-anchor="start" x="1155" y="-442.5" font-family="Helvetica,sans-Serif" font-size="10.00">includes/spic&#45;prj&#45;api</text>
<text text-anchor="middle" x="1198.5" y="-431.5" font-family="Helvetica,sans-Serif" font-size="10.00">/Scene.hpp</text>
</a>
</g>
</g>
<!-- Node2 -->
<g id="node2" class="node">
<title>Node2</title>
<g id="a_node2"><a xlink:href="Scene_8cpp.html" target="_top" xlink:title=" ">
<polygon fill="none" stroke="black" points="1264.5,-156.5 1264.5,-175.5 1374.5,-175.5 1374.5,-156.5 1264.5,-156.5"/>
<text text-anchor="middle" x="1319.5" y="-163.5" font-family="Helvetica,sans-Serif" font-size="10.00">src/Scene/Scene.cpp</text>
</a>
</g>
</g>
<!-- Node1&#45;&gt;Node2 -->
<g id="edge1" class="edge">
<title>Node1&#45;&gt;Node2</title>
<path fill="none" stroke="midnightblue" d="M1209.01,-414.93C1234.62,-357.46 1299.37,-212.16 1315.71,-175.5"/>
<polygon fill="midnightblue" stroke="midnightblue" points="1205.71,-413.73 1204.84,-424.29 1212.1,-416.58 1205.71,-413.73"/>
</g>
<!-- Node3 -->
<g id="node3" class="node">
<title>Node3</title>
<g id="a_node3"><a xlink:href="SceneBuilder_8hpp.html" target="_top" xlink:title=" ">
<polygon fill="none" stroke="black" points="1696.5,-357.5 1696.5,-387.5 1856.5,-387.5 1856.5,-357.5 1696.5,-357.5"/>
<text text-anchor="start" x="1704.5" y="-375.5" font-family="Helvetica,sans-Serif" font-size="10.00">includes/platformer</text>
<text text-anchor="middle" x="1776.5" y="-364.5" font-family="Helvetica,sans-Serif" font-size="10.00">&#45;engine/Builder/SceneBuilder.hpp</text>
</a>
</g>
</g>
<!-- Node1&#45;&gt;Node3 -->
<g id="edge2" class="edge">
<title>Node1&#45;&gt;Node3</title>
<path fill="none" stroke="midnightblue" d="M1260.19,-431.56C1365.4,-419.73 1579.48,-395.66 1696.2,-382.53"/>
<polygon fill="midnightblue" stroke="midnightblue" points="1259.59,-428.11 1250.05,-432.7 1260.38,-435.06 1259.59,-428.11"/>
</g>
<!-- Node5 -->
<g id="node5" class="node">
<title>Node5</title>
<g id="a_node5"><a xlink:href="Engine_8hpp.html" target="_top" xlink:title=" ">
<polygon fill="none" stroke="black" points="1059,-73 1059,-103 1190,-103 1190,-73 1059,-73"/>
<text text-anchor="start" x="1067" y="-91" font-family="Helvetica,sans-Serif" font-size="10.00">includes/platformer</text>
<text text-anchor="middle" x="1124.5" y="-80" font-family="Helvetica,sans-Serif" font-size="10.00">&#45;engine/Engine/Engine.hpp</text>
</a>
</g>
</g>
<!-- Node1&#45;&gt;Node5 -->
<g id="edge4" class="edge">
<title>Node1&#45;&gt;Node5</title>
<path fill="none" stroke="midnightblue" d="M1137.12,-422.63C1082.94,-404.47 1012.5,-368.88 1012.5,-306.5 1012.5,-306.5 1012.5,-306.5 1012.5,-237.5 1012.5,-195.62 1006.41,-179.26 1030.5,-145 1043.94,-125.89 1066.16,-112.21 1085.63,-103.16"/>
<polygon fill="midnightblue" stroke="midnightblue" points="1136.1,-425.97 1146.69,-425.71 1138.24,-419.31 1136.1,-425.97"/>
</g>
<!-- Node19 -->
<g id="node19" class="node">
<title>Node19</title>
<g id="a_node19"><a xlink:href="ServerNetworkManager_8hpp.html" target="_top" xlink:title=" ">
<polygon fill="none" stroke="black" points="1040,-145.5 1040,-186.5 1209,-186.5 1209,-145.5 1040,-145.5"/>
<text text-anchor="start" x="1048" y="-174.5" font-family="Helvetica,sans-Serif" font-size="10.00">includes/platformer</text>
<text text-anchor="start" x="1048" y="-163.5" font-family="Helvetica,sans-Serif" font-size="10.00">&#45;engine/Networking/ServerNetwork</text>
<text text-anchor="middle" x="1124.5" y="-152.5" font-family="Helvetica,sans-Serif" font-size="10.00">Manager.hpp</text>
</a>
</g>
</g>
<!-- Node1&#45;&gt;Node19 -->
<g id="edge18" class="edge">
<title>Node1&#45;&gt;Node19</title>
<path fill="none" stroke="midnightblue" d="M1191.81,-414.47C1189.49,-406.1 1186.87,-396.64 1184.5,-388 1164.09,-313.62 1140.16,-225.06 1129.76,-186.52"/>
<polygon fill="midnightblue" stroke="midnightblue" points="1188.51,-415.66 1194.56,-424.36 1195.25,-413.78 1188.51,-415.66"/>
</g>
<!-- Node20 -->
<g id="node20" class="node">
<title>Node20</title>
<g id="a_node20"><a xlink:href="Window_8hpp.html" target="_top" xlink:title=" ">
<polygon fill="none" stroke="black" points="1408,-357.5 1408,-387.5 1545,-387.5 1545,-357.5 1408,-357.5"/>
<text text-anchor="start" x="1416" y="-375.5" font-family="Helvetica,sans-Serif" font-size="10.00">includes/platformer</text>
<text text-anchor="middle" x="1476.5" y="-364.5" font-family="Helvetica,sans-Serif" font-size="10.00">&#45;engine/Render/Window.hpp</text>
</a>
</g>
</g>
<!-- Node1&#45;&gt;Node20 -->
<g id="edge21" class="edge">
<title>Node1&#45;&gt;Node20</title>
<path fill="none" stroke="midnightblue" d="M1260.1,-424.1C1306.67,-413.21 1370.25,-398.34 1416.44,-387.54"/>
<polygon fill="midnightblue" stroke="midnightblue" points="1259.08,-420.74 1250.14,-426.43 1260.67,-427.56 1259.08,-420.74"/>
</g>
<!-- Node4 -->
<g id="node4" class="node">
<title>Node4</title>
<g id="a_node4"><a xlink:href="SceneBuilder_8cpp.html" target="_top" xlink:title=" ">
<polygon fill="none" stroke="black" points="1839.5,-296 1839.5,-315 1981.5,-315 1981.5,-296 1839.5,-296"/>
<text text-anchor="middle" x="1910.5" y="-303" font-family="Helvetica,sans-Serif" font-size="10.00">src/Builder/SceneBuilder.cpp</text>
</a>
</g>
</g>
<!-- Node3&#45;&gt;Node4 -->
<g id="edge3" class="edge">
<title>Node3&#45;&gt;Node4</title>
<path fill="none" stroke="midnightblue" d="M1814.71,-352.97C1840.45,-340.48 1873.19,-324.6 1892.96,-315.01"/>
<polygon fill="midnightblue" stroke="midnightblue" points="1813.05,-349.88 1805.58,-357.4 1816.1,-356.18 1813.05,-349.88"/>
</g>
<!-- Node6 -->
<g id="node6" class="node">
<title>Node6</title>
<g id="a_node6"><a xlink:href="Animator_8cpp.html" target="_top" xlink:title=" ">
<polygon fill="none" stroke="black" points="1564.5,-6 1564.5,-25 1674.5,-25 1674.5,-6 1564.5,-6"/>
<text text-anchor="middle" x="1619.5" y="-13" font-family="Helvetica,sans-Serif" font-size="10.00">src/API/Animator.cpp</text>
</a>
</g>
</g>
<!-- Node5&#45;&gt;Node6 -->
<g id="edge5" class="edge">
<title>Node5&#45;&gt;Node6</title>
<path fill="none" stroke="midnightblue" d="M1200.11,-79.34C1286.43,-70.1 1431.7,-53.02 1555.5,-31 1564.92,-29.32 1575.05,-27.19 1584.41,-25.07"/>
<polygon fill="midnightblue" stroke="midnightblue" points="1199.72,-75.87 1190.14,-80.4 1200.46,-82.83 1199.72,-75.87"/>
</g>
<!-- Node7 -->
<g id="node7" class="node">
<title>Node7</title>
<g id="a_node7"><a xlink:href="RigidBody_8cpp.html" target="_top" xlink:title=" ">
<polygon fill="none" stroke="black" points="137.5,-6 137.5,-25 251.5,-25 251.5,-6 137.5,-6"/>
<text text-anchor="middle" x="194.5" y="-13" font-family="Helvetica,sans-Serif" font-size="10.00">src/API/RigidBody.cpp</text>
</a>
</g>
</g>
<!-- Node5&#45;&gt;Node7 -->
<g id="edge6" class="edge">
<title>Node5&#45;&gt;Node7</title>
<path fill="none" stroke="midnightblue" d="M1048.77,-85.94C898,-82.99 549.84,-71.92 260.5,-31 250.05,-29.52 238.78,-27.29 228.58,-25.02"/>
<polygon fill="midnightblue" stroke="midnightblue" points="1048.79,-89.44 1058.85,-86.13 1048.92,-82.44 1048.79,-89.44"/>
</g>
<!-- Node8 -->
<g id="node8" class="node">
<title>Node8</title>
<g id="a_node8"><a xlink:href="CollisionBehaviour_8cpp.html" target="_top" xlink:title=" ">
<polygon fill="none" stroke="black" points="269.5,-6 269.5,-25 447.5,-25 447.5,-6 269.5,-6"/>
<text text-anchor="middle" x="358.5" y="-13" font-family="Helvetica,sans-Serif" font-size="10.00">src/Behaviour/CollisionBehaviour.cpp</text>
</a>
</g>
</g>
<!-- Node5&#45;&gt;Node8 -->
<g id="edge7" class="edge">
<title>Node5&#45;&gt;Node8</title>
<path fill="none" stroke="midnightblue" d="M1048.79,-82.22C924.78,-74.04 670.71,-55.8 456.5,-31 441.98,-29.32 426.3,-27.16 411.82,-25.02"/>
<polygon fill="midnightblue" stroke="midnightblue" points="1048.73,-85.72 1058.94,-82.89 1049.19,-78.74 1048.73,-85.72"/>
</g>
<!-- Node9 -->
<g id="node9" class="node">
<title>Node9</title>
<g id="a_node9"><a xlink:href="Debug_8cpp.html" target="_top" xlink:title=" ">
<polygon fill="none" stroke="black" points="465.5,-6 465.5,-25 575.5,-25 575.5,-6 465.5,-6"/>
<text text-anchor="middle" x="520.5" y="-13" font-family="Helvetica,sans-Serif" font-size="10.00">src/Debug/Debug.cpp</text>
</a>
</g>
</g>
<!-- Node5&#45;&gt;Node9 -->
<g id="edge8" class="edge">
<title>Node5&#45;&gt;Node9</title>
<path fill="none" stroke="midnightblue" d="M1048.75,-82.01C943.93,-74.46 748.98,-58.06 584.5,-31 574.72,-29.39 564.2,-27.2 554.56,-25.01"/>
<polygon fill="midnightblue" stroke="midnightblue" points="1048.69,-85.52 1058.91,-82.74 1049.19,-78.53 1048.69,-85.52"/>
</g>
<!-- Node10 -->
<g id="node10" class="node">
<title>Node10</title>
<g id="a_node10"><a xlink:href="GameObjectDirector_8cpp.html" target="_top" xlink:title=" ">
<polygon fill="none" stroke="black" points="1862.5,-6 1862.5,-25 2038.5,-25 2038.5,-6 1862.5,-6"/>
<text text-anchor="middle" x="1950.5" y="-13" font-family="Helvetica,sans-Serif" font-size="10.00">src/Director/GameObjectDirector.cpp</text>
</a>
</g>
</g>
<!-- Node5&#45;&gt;Node10 -->
<g id="edge9" class="edge">
<title>Node5&#45;&gt;Node10</title>
<path fill="none" stroke="midnightblue" d="M1200.56,-82.96C1333.34,-75.5 1615.94,-57.85 1853.5,-31 1868.05,-29.36 1883.77,-27.18 1898.24,-25.01"/>
<polygon fill="midnightblue" stroke="midnightblue" points="1200.28,-79.47 1190.49,-83.52 1200.67,-86.46 1200.28,-79.47"/>
</g>
<!-- Node11 -->
<g id="node11" class="node">
<title>Node11</title>
<g id="a_node11"><a xlink:href="Engine_8cpp.html" target="_top" xlink:title=" ">
<polygon fill="none" stroke="black" points="594,-6 594,-25 707,-25 707,-6 594,-6"/>
<text text-anchor="middle" x="650.5" y="-13" font-family="Helvetica,sans-Serif" font-size="10.00">src/Engine/Engine.cpp</text>
</a>
</g>
</g>
<!-- Node5&#45;&gt;Node11 -->
<g id="edge10" class="edge">
<title>Node5&#45;&gt;Node11</title>
<path fill="none" stroke="midnightblue" d="M1048.89,-78.46C966.77,-68.75 831.88,-51.56 716.5,-31 706.91,-29.29 696.61,-27.17 687.05,-25.08"/>
<polygon fill="midnightblue" stroke="midnightblue" points="1048.54,-81.94 1058.88,-79.63 1049.36,-74.99 1048.54,-81.94"/>
</g>
<!-- Node12 -->
<g id="node12" class="node">
<title>Node12</title>
<g id="a_node12"><a xlink:href="TMXParser_8cpp.html" target="_top" xlink:title=" ">
<polygon fill="none" stroke="black" points="725.5,-6 725.5,-25 861.5,-25 861.5,-6 725.5,-6"/>
<text text-anchor="middle" x="793.5" y="-13" font-family="Helvetica,sans-Serif" font-size="10.00">src/Facade/TMXParser.cpp</text>
</a>
</g>
</g>
<!-- Node5&#45;&gt;Node12 -->
<g id="edge11" class="edge">
<title>Node5&#45;&gt;Node12</title>
<path fill="none" stroke="midnightblue" d="M1048.64,-70.84C981.74,-56.59 886.86,-36.38 833.67,-25.05"/>
<polygon fill="midnightblue" stroke="midnightblue" points="1048.2,-74.33 1058.71,-72.99 1049.66,-67.48 1048.2,-74.33"/>
</g>
<!-- Node13 -->
<g id="node13" class="node">
<title>Node13</title>
<g id="a_node13"><a xlink:href="ClientNetworkManager_8cpp.html" target="_top" xlink:title=" ">
<polygon fill="none" stroke="black" points="880,-0.5 880,-30.5 1027,-30.5 1027,-0.5 880,-0.5"/>
<text text-anchor="start" x="888" y="-18.5" font-family="Helvetica,sans-Serif" font-size="10.00">src/Networking/ClientNetwork</text>
<text text-anchor="middle" x="953.5" y="-7.5" font-family="Helvetica,sans-Serif" font-size="10.00">Manager.cpp</text>
</a>
</g>
</g>
<!-- Node5&#45;&gt;Node13 -->
<g id="edge12" class="edge">
<title>Node5&#45;&gt;Node13</title>
<path fill="none" stroke="midnightblue" d="M1080.84,-69C1051.88,-57.06 1014.41,-41.61 987.63,-30.57"/>
<polygon fill="midnightblue" stroke="midnightblue" points="1079.73,-72.33 1090.31,-72.9 1082.4,-65.86 1079.73,-72.33"/>
</g>
<!-- Node14 -->
<g id="node14" class="node">
<title>Node14</title>
<g id="a_node14"><a xlink:href="ServerNetworkManager_8cpp.html" target="_top" xlink:title=" ">
<polygon fill="none" stroke="black" points="1693,-0.5 1693,-30.5 1844,-30.5 1844,-0.5 1693,-0.5"/>
<text text-anchor="start" x="1701" y="-18.5" font-family="Helvetica,sans-Serif" font-size="10.00">src/Networking/ServerNetwork</text>
<text text-anchor="middle" x="1768.5" y="-7.5" font-family="Helvetica,sans-Serif" font-size="10.00">Manager.cpp</text>
</a>
</g>
</g>
<!-- Node5&#45;&gt;Node14 -->
<g id="edge13" class="edge">
<title>Node5&#45;&gt;Node14</title>
<path fill="none" stroke="midnightblue" d="M1200.19,-81.09C1307.84,-72.3 1511.21,-54.3 1683.5,-31 1686.62,-30.58 1689.79,-30.13 1693,-29.66"/>
<polygon fill="midnightblue" stroke="midnightblue" points="1199.76,-77.61 1190.08,-81.91 1200.33,-84.59 1199.76,-77.61"/>
</g>
<!-- Node15 -->
<g id="node15" class="node">
<title>Node15</title>
<g id="a_node15"><a xlink:href="PlayerRigidBody_8cpp.html" target="_top" xlink:title=" ">
<polygon fill="none" stroke="black" points="1045,-6 1045,-25 1204,-25 1204,-6 1045,-6"/>
<text text-anchor="middle" x="1124.5" y="-13" font-family="Helvetica,sans-Serif" font-size="10.00">src/Physics/PlayerRigidBody.cpp</text>
</a>
</g>
</g>
<!-- Node5&#45;&gt;Node15 -->
<g id="edge14" class="edge">
<title>Node5&#45;&gt;Node15</title>
<path fill="none" stroke="midnightblue" d="M1124.5,-62.59C1124.5,-49.71 1124.5,-34.7 1124.5,-25.39"/>
<polygon fill="midnightblue" stroke="midnightblue" points="1121,-62.73 1124.5,-72.73 1128,-62.73 1121,-62.73"/>
</g>
<!-- Node16 -->
<g id="node16" class="node">
<title>Node16</title>
<g id="a_node16"><a xlink:href="RenderSystem_8cpp.html" target="_top" xlink:title=" ">
<polygon fill="none" stroke="black" points="1396.5,-6 1396.5,-25 1546.5,-25 1546.5,-6 1396.5,-6"/>
<text text-anchor="middle" x="1471.5" y="-13" font-family="Helvetica,sans-Serif" font-size="10.00">src/Texture/RenderSystem.cpp</text>
</a>
</g>
</g>
<!-- Node5&#45;&gt;Node16 -->
<g id="edge15" class="edge">
<title>Node5&#45;&gt;Node16</title>
<path fill="none" stroke="midnightblue" d="M1200.32,-71.6C1270.67,-57.3 1372.82,-36.55 1429.55,-25.02"/>
<polygon fill="midnightblue" stroke="midnightblue" points="1199.28,-68.24 1190.18,-73.66 1200.67,-75.1 1199.28,-68.24"/>
</g>
<!-- Node17 -->
<g id="node17" class="node">
<title>Node17</title>
<g id="a_node17"><a xlink:href="TextureManager_8cpp.html" target="_top" xlink:title=" ">
<polygon fill="none" stroke="black" points="1222.5,-6 1222.5,-25 1378.5,-25 1378.5,-6 1222.5,-6"/>
<text text-anchor="middle" x="1300.5" y="-13" font-family="Helvetica,sans-Serif" font-size="10.00">src/Texture/TextureManager.cpp</text>
</a>
</g>
</g>
<!-- Node5&#45;&gt;Node17 -->
<g id="edge16" class="edge">
<title>Node5&#45;&gt;Node17</title>
<path fill="none" stroke="midnightblue" d="M1169.28,-69.06C1204.53,-54.94 1252.08,-35.9 1279.2,-25.03"/>
<polygon fill="midnightblue" stroke="midnightblue" points="1167.67,-65.94 1159.69,-72.9 1170.28,-72.43 1167.67,-65.94"/>
</g>
<!-- Node18 -->
<g id="node18" class="node">
<title>Node18</title>
<g id="a_node18"><a xlink:href="ClickSystem_8cpp.html" target="_top" xlink:title=" ">
<polygon fill="none" stroke="black" points="0,-6 0,-25 119,-25 119,-6 0,-6"/>
<text text-anchor="middle" x="59.5" y="-13" font-family="Helvetica,sans-Serif" font-size="10.00">src/UI/ClickSystem.cpp</text>
</a>
</g>
</g>
<!-- Node5&#45;&gt;Node18 -->
<g id="edge17" class="edge">
<title>Node5&#45;&gt;Node18</title>
<path fill="none" stroke="midnightblue" d="M1048.76,-86.63C881.82,-84.97 469.89,-76.2 128.5,-31 117.58,-29.55 105.81,-27.33 95.14,-25.06"/>
<polygon fill="midnightblue" stroke="midnightblue" points="1048.89,-90.13 1058.92,-86.73 1048.95,-83.13 1048.89,-90.13"/>
</g>
<!-- Node19&#45;&gt;Node5 -->
<g id="edge20" class="edge">
<title>Node19&#45;&gt;Node5</title>
<path fill="none" stroke="midnightblue" d="M1124.5,-135.28C1124.5,-124.25 1124.5,-112.25 1124.5,-103.23"/>
<polygon fill="midnightblue" stroke="midnightblue" points="1121,-135.43 1124.5,-145.43 1128,-135.43 1121,-135.43"/>
</g>
<!-- Node19&#45;&gt;Node14 -->
<g id="edge19" class="edge">
<title>Node19&#45;&gt;Node14</title>
<path fill="none" stroke="midnightblue" d="M1218.88,-143.24C1352.92,-112.33 1594.67,-56.58 1707.46,-30.58"/>
<polygon fill="midnightblue" stroke="midnightblue" points="1217.98,-139.85 1209.02,-145.51 1219.55,-146.67 1217.98,-139.85"/>
</g>
<!-- Node20&#45;&gt;Node5 -->
<g id="edge24" class="edge">
<title>Node20&#45;&gt;Node5</title>
<path fill="none" stroke="midnightblue" d="M1434.43,-352.86C1417.25,-344.32 1397.66,-333.34 1381.5,-321 1316.54,-271.37 1310.93,-247.09 1255.5,-187 1238.43,-168.5 1236.94,-161 1217.5,-145 1197.42,-128.47 1171.96,-113.49 1152.76,-103.19"/>
<polygon fill="midnightblue" stroke="midnightblue" points="1433.17,-356.14 1443.69,-357.35 1436.22,-349.84 1433.17,-356.14"/>
</g>
<!-- Node21 -->
<g id="node21" class="node">
<title>Node21</title>
<g id="a_node21"><a xlink:href="Window_8cpp.html" target="_top" xlink:title=" ">
<polygon fill="none" stroke="black" points="1580,-296 1580,-315 1699,-315 1699,-296 1580,-296"/>
<text text-anchor="middle" x="1639.5" y="-303" font-family="Helvetica,sans-Serif" font-size="10.00">src/Render/Window.cpp</text>
</a>
</g>
</g>
<!-- Node20&#45;&gt;Node21 -->
<g id="edge22" class="edge">
<title>Node20&#45;&gt;Node21</title>
<path fill="none" stroke="midnightblue" d="M1521.33,-353.62C1552.88,-341.04 1593.69,-324.77 1618.17,-315.01"/>
<polygon fill="midnightblue" stroke="midnightblue" points="1519.86,-350.44 1511.87,-357.4 1522.45,-356.94 1519.86,-350.44"/>
</g>
<!-- Node22 -->
<g id="node22" class="node">
<title>Node22</title>
<g id="a_node22"><a xlink:href="Timer_8cpp.html" target="_top" xlink:title=" ">
<polygon fill="none" stroke="black" points="1717.5,-296 1717.5,-315 1821.5,-315 1821.5,-296 1717.5,-296"/>
<text text-anchor="middle" x="1769.5" y="-303" font-family="Helvetica,sans-Serif" font-size="10.00">src/Timer/Timer.cpp</text>
</a>
</g>
</g>
<!-- Node20&#45;&gt;Node22 -->
<g id="edge23" class="edge">
<title>Node20&#45;&gt;Node22</title>
<path fill="none" stroke="midnightblue" d="M1552.62,-355.31C1597.94,-345.58 1656.56,-332.82 1708.5,-321 1716.78,-319.12 1725.68,-317.03 1734.05,-315.05"/>
<polygon fill="midnightblue" stroke="midnightblue" points="1551.62,-351.95 1542.58,-357.47 1553.09,-358.79 1551.62,-351.95"/>
</g>
<!-- Node23 -->
<g id="node23" class="node">
<title>Node23</title>
<g id="a_node23"><a xlink:href="AnimatedSprite_8hpp.html" target="_top" xlink:title=" ">
<polygon fill="none" stroke="black" points="1391,-290.5 1391,-320.5 1562,-320.5 1562,-290.5 1391,-290.5"/>
<text text-anchor="start" x="1399" y="-308.5" font-family="Helvetica,sans-Serif" font-size="10.00">includes/platformer</text>
<text text-anchor="middle" x="1476.5" y="-297.5" font-family="Helvetica,sans-Serif" font-size="10.00">&#45;engine/Texture/AnimatedSprite.hpp</text>
</a>
</g>
</g>
<!-- Node20&#45;&gt;Node23 -->
<g id="edge25" class="edge">
<title>Node20&#45;&gt;Node23</title>
<path fill="none" stroke="midnightblue" d="M1476.5,-347.11C1476.5,-338.15 1476.5,-328.32 1476.5,-320.58"/>
<polygon fill="midnightblue" stroke="midnightblue" points="1473,-347.4 1476.5,-357.4 1480,-347.4 1473,-347.4"/>
</g>
<!-- Node24 -->
<g id="node24" class="node">
<title>Node24</title>
<g id="a_node24"><a xlink:href="AnimatedSprite_8cpp.html" target="_top" xlink:title=" ">
<polygon fill="none" stroke="black" points="1764,-229 1764,-248 1917,-248 1917,-229 1764,-229"/>
<text text-anchor="middle" x="1840.5" y="-236" font-family="Helvetica,sans-Serif" font-size="10.00">src/Texture/AnimatedSprite.cpp</text>
</a>
</g>
</g>
<!-- Node23&#45;&gt;Node24 -->
<g id="edge26" class="edge">
<title>Node23&#45;&gt;Node24</title>
<path fill="none" stroke="midnightblue" d="M1564.97,-288.7C1636.69,-275.9 1735.01,-258.34 1792.74,-248.03"/>
<polygon fill="midnightblue" stroke="midnightblue" points="1564.26,-285.27 1555.03,-290.48 1565.49,-292.16 1564.26,-285.27"/>
</g>
<!-- Node25 -->
<g id="node25" class="node">
<title>Node25</title>
<g id="a_node25"><a xlink:href="GameObjectBuilder_8hpp.html" target="_top" xlink:title=" ">
<polygon fill="none" stroke="black" points="1617,-145.5 1617,-186.5 1756,-186.5 1756,-145.5 1617,-145.5"/>
<text text-anchor="start" x="1625" y="-174.5" font-family="Helvetica,sans-Serif" font-size="10.00">includes/platformer</text>
<text text-anchor="start" x="1625" y="-163.5" font-family="Helvetica,sans-Serif" font-size="10.00">&#45;engine/Builder/GameObject</text>
<text text-anchor="middle" x="1686.5" y="-152.5" font-family="Helvetica,sans-Serif" font-size="10.00">Builder.hpp</text>
</a>
</g>
</g>
<!-- Node23&#45;&gt;Node25 -->
<g id="edge27" class="edge">
<title>Node23&#45;&gt;Node25</title>
<path fill="none" stroke="midnightblue" d="M1501.78,-283.67C1530.08,-260.39 1572.53,-225.59 1576.5,-223 1597.42,-209.37 1622.08,-196.55 1642.74,-186.62"/>
<polygon fill="midnightblue" stroke="midnightblue" points="1499.36,-281.13 1493.86,-290.19 1503.81,-286.54 1499.36,-281.13"/>
</g>
<!-- Node28 -->
<g id="node28" class="node">
<title>Node28</title>
<g id="a_node28"><a xlink:href="ObjectBuilder_8hpp.html" target="_top" xlink:title=" ">
<polygon fill="none" stroke="black" points="1585,-223.5 1585,-253.5 1746,-253.5 1746,-223.5 1585,-223.5"/>
<text text-anchor="start" x="1593" y="-241.5" font-family="Helvetica,sans-Serif" font-size="10.00">includes/platformer</text>
<text text-anchor="middle" x="1665.5" y="-230.5" font-family="Helvetica,sans-Serif" font-size="10.00">&#45;engine/Builder/ObjectBuilder.hpp</text>
</a>
</g>
</g>
<!-- Node23&#45;&gt;Node28 -->
<g id="edge32" class="edge">
<title>Node23&#45;&gt;Node28</title>
<path fill="none" stroke="midnightblue" d="M1527.12,-287.09C1557.63,-276.6 1595.98,-263.41 1624.57,-253.58"/>
<polygon fill="midnightblue" stroke="midnightblue" points="1525.83,-283.83 1517.51,-290.4 1528.1,-290.45 1525.83,-283.83"/>
</g>
<!-- Node29 -->
<g id="node29" class="node">
<title>Node29</title>
<g id="a_node29"><a xlink:href="Animator_8hpp.html" target="_top" xlink:title=" ">
<polygon fill="none" stroke="black" points="1425,-223.5 1425,-253.5 1528,-253.5 1528,-223.5 1425,-223.5"/>
<text text-anchor="start" x="1433" y="-241.5" font-family="Helvetica,sans-Serif" font-size="10.00">includes/spic&#45;prj&#45;api</text>
<text text-anchor="middle" x="1476.5" y="-230.5" font-family="Helvetica,sans-Serif" font-size="10.00">/Animator.hpp</text>
</a>
</g>
</g>
<!-- Node23&#45;&gt;Node29 -->
<g id="edge34" class="edge">
<title>Node23&#45;&gt;Node29</title>
<path fill="none" stroke="midnightblue" d="M1476.5,-280.11C1476.5,-271.15 1476.5,-261.32 1476.5,-253.58"/>
<polygon fill="midnightblue" stroke="midnightblue" points="1473,-280.4 1476.5,-290.4 1480,-280.4 1473,-280.4"/>
</g>
<!-- Node25&#45;&gt;Node14 -->
<g id="edge29" class="edge">
<title>Node25&#45;&gt;Node14</title>
<path fill="none" stroke="midnightblue" d="M1677.9,-135.38C1673.7,-114.86 1671.76,-87.63 1683.5,-67 1693.01,-50.29 1710.47,-38.54 1727.1,-30.6"/>
<polygon fill="midnightblue" stroke="midnightblue" points="1674.5,-136.2 1680.17,-145.14 1681.31,-134.61 1674.5,-136.2"/>
</g>
<!-- Node26 -->
<g id="node26" class="node">
<title>Node26</title>
<g id="a_node26"><a xlink:href="GameObjectBuilder_8cpp.html" target="_top" xlink:title=" ">
<polygon fill="none" stroke="black" points="1692,-78.5 1692,-97.5 1861,-97.5 1861,-78.5 1692,-78.5"/>
<text text-anchor="middle" x="1776.5" y="-85.5" font-family="Helvetica,sans-Serif" font-size="10.00">src/Builder/GameObjectBuilder.cpp</text>
</a>
</g>
</g>
<!-- Node25&#45;&gt;Node26 -->
<g id="edge28" class="edge">
<title>Node25&#45;&gt;Node26</title>
<path fill="none" stroke="midnightblue" d="M1717.74,-138.62C1734.74,-124.26 1754.64,-107.46 1766.37,-97.55"/>
<polygon fill="midnightblue" stroke="midnightblue" points="1715.06,-136.3 1709.68,-145.43 1719.58,-141.65 1715.06,-136.3"/>
</g>
<!-- Node27 -->
<g id="node27" class="node">
<title>Node27</title>
<g id="a_node27"><a xlink:href="GameObjectDirector_8hpp.html" target="_top" xlink:title=" ">
<polygon fill="none" stroke="black" points="1879,-67.5 1879,-108.5 2022,-108.5 2022,-67.5 1879,-67.5"/>
<text text-anchor="start" x="1887" y="-96.5" font-family="Helvetica,sans-Serif" font-size="10.00">includes/platformer</text>
<text text-anchor="start" x="1887" y="-85.5" font-family="Helvetica,sans-Serif" font-size="10.00">&#45;engine/Director/GameObject</text>
<text text-anchor="middle" x="1950.5" y="-74.5" font-family="Helvetica,sans-Serif" font-size="10.00">Director.hpp</text>
</a>
</g>
</g>
<!-- Node25&#45;&gt;Node27 -->
<g id="edge30" class="edge">
<title>Node25&#45;&gt;Node27</title>
<path fill="none" stroke="midnightblue" d="M1764.38,-142.58C1801.95,-131.76 1846.6,-118.91 1882.74,-108.51"/>
<polygon fill="midnightblue" stroke="midnightblue" points="1763.13,-139.3 1754.49,-145.43 1765.06,-146.03 1763.13,-139.3"/>
</g>
<!-- Node27&#45;&gt;Node10 -->
<g id="edge31" class="edge">
<title>Node27&#45;&gt;Node10</title>
<path fill="none" stroke="midnightblue" d="M1950.5,-57.1C1950.5,-45.53 1950.5,-33.18 1950.5,-25.17"/>
<polygon fill="midnightblue" stroke="midnightblue" points="1947,-57.36 1950.5,-67.36 1954,-57.36 1947,-57.36"/>
</g>
<!-- Node28&#45;&gt;Node25 -->
<g id="edge33" class="edge">
<title>Node28&#45;&gt;Node25</title>
<path fill="none" stroke="midnightblue" d="M1672.63,-213.56C1675.25,-204.77 1678.18,-194.94 1680.67,-186.59"/>
<polygon fill="midnightblue" stroke="midnightblue" points="1669.25,-212.65 1669.75,-223.23 1675.96,-214.65 1669.25,-212.65"/>
</g>
<!-- Node29&#45;&gt;Node2 -->
<g id="edge36" class="edge">
<title>Node29&#45;&gt;Node2</title>
<path fill="none" stroke="midnightblue" d="M1435.74,-219.2C1404.39,-205.12 1362.49,-186.3 1338.5,-175.53"/>
<polygon fill="midnightblue" stroke="midnightblue" points="1434.55,-222.5 1445.11,-223.4 1437.42,-216.11 1434.55,-222.5"/>
</g>
<!-- Node29&#45;&gt;Node6 -->
<g id="edge35" class="edge">
<title>Node29&#45;&gt;Node6</title>
<path fill="none" stroke="midnightblue" d="M1527.02,-219.09C1542.53,-211.28 1558.4,-200.74 1569.5,-187 1610.58,-136.12 1617.91,-52.58 1619.22,-25.37"/>
<polygon fill="midnightblue" stroke="midnightblue" points="1525.52,-215.93 1517.98,-223.38 1528.51,-222.26 1525.52,-215.93"/>
</g>
<!-- Node29&#45;&gt;Node25 -->
<g id="edge37" class="edge">
<title>Node29&#45;&gt;Node25</title>
<path fill="none" stroke="midnightblue" d="M1527.78,-220.28C1558.12,-210.1 1596.64,-197.17 1628.14,-186.59"/>
<polygon fill="midnightblue" stroke="midnightblue" points="1526.61,-216.99 1518.24,-223.49 1528.83,-223.62 1526.61,-216.99"/>
</g>
<!-- Node30 -->
<g id="node30" class="node">
<title>Node30</title>
<g id="a_node30"><a xlink:href="RenderSystem_8hpp.html" target="_top" xlink:title=" ">
<polygon fill="none" stroke="black" points="1392.5,-151 1392.5,-181 1560.5,-181 1560.5,-151 1392.5,-151"/>
<text text-anchor="start" x="1400.5" y="-169" font-family="Helvetica,sans-Serif" font-size="10.00">includes/platformer</text>
<text text-anchor="middle" x="1476.5" y="-158" font-family="Helvetica,sans-Serif" font-size="10.00">&#45;engine/Texture/RenderSystem.hpp</text>
</a>
</g>
</g>
<!-- Node29&#45;&gt;Node30 -->
<g id="edge38" class="edge">
<title>Node29&#45;&gt;Node30</title>
<path fill="none" stroke="midnightblue" d="M1476.5,-213.23C1476.5,-202.57 1476.5,-190.41 1476.5,-181.25"/>
<polygon fill="midnightblue" stroke="midnightblue" points="1473,-213.23 1476.5,-223.23 1480,-213.23 1473,-213.23"/>
</g>
<!-- Node30&#45;&gt;Node5 -->
<g id="edge40" class="edge">
<title>Node30&#45;&gt;Node5</title>
<path fill="none" stroke="midnightblue" d="M1401.65,-148.84C1338.63,-135.23 1249.42,-115.97 1189.39,-103.01"/>
<polygon fill="midnightblue" stroke="midnightblue" points="1401.01,-152.28 1411.53,-150.97 1402.49,-145.44 1401.01,-152.28"/>
</g>
<!-- Node30&#45;&gt;Node16 -->
<g id="edge39" class="edge">
<title>Node30&#45;&gt;Node16</title>
<path fill="none" stroke="midnightblue" d="M1475.67,-140.37C1474.53,-106.61 1472.55,-47.61 1471.8,-25.35"/>
<polygon fill="midnightblue" stroke="midnightblue" points="1472.19,-140.88 1476.02,-150.76 1479.18,-140.65 1472.19,-140.88"/>
</g>
</g>
</svg>
        <g id="navigator" transform="translate(0 0)" fill="#404254">
                <rect fill="#f2f5e9" fill-opacity="0.5" stroke="#606060" stroke-width=".5" x="0" y="0" width="60" height="60"/>
                <use id="zoomplus" xlink:href="#zoomPlus" x="17" y="9" onmousedown="handleZoom(evt,'in')"/>
                <use id="zoomminus" xlink:href="#zoomMin" x="42" y="9" onmousedown="handleZoom(evt,'out')"/>
                <use id="reset" xlink:href="#resetDef" x="30" y="36" onmousedown="handleReset()"/>
                <g id="arrowUp" xlink:href="#dirArrow" transform="translate(30 24)" onmousedown="handlePan(0,-1)">
                  <use xlink:href="#rim" fill="#404040">
                        <set attributeName="fill" to="#808080" begin="arrowUp.mouseover" end="arrowUp.mouseout"/>
                  </use>
                  <path fill="none" stroke="white" stroke-width="1.5" d="M0,-3.0v7 M-2.5,-0.5L0,-3.0L2.5,-0.5"/>
                </g>
                <g id="arrowRight" xlink:href="#dirArrow" transform="rotate(90) translate(36 -43)" onmousedown="handlePan(1,0)">
                  <use xlink:href="#rim" fill="#404040">
                        <set attributeName="fill" to="#808080" begin="arrowRight.mouseover" end="arrowRight.mouseout"/>
                  </use>
                  <path fill="none" stroke="white" stroke-width="1.5" d="M0,-3.0v7 M-2.5,-0.5L0,-3.0L2.5,-0.5"/>
                </g>
                <g id="arrowDown" xlink:href="#dirArrow" transform="rotate(180) translate(-30 -48)" onmousedown="handlePan(0,1)">
                  <use xlink:href="#rim" fill="#404040">
                        <set attributeName="fill" to="#808080" begin="arrowDown.mouseover" end="arrowDown.mouseout"/>
                  </use>
                  <path fill="none" stroke="white" stroke-width="1.5" d="M0,-3.0v7 M-2.5,-0.5L0,-3.0L2.5,-0.5"/>
                </g>
                <g id="arrowLeft" xlink:href="#dirArrow" transform="rotate(270) translate(-36 17)" onmousedown="handlePan(-1,0)">
                  <use xlink:href="#rim" fill="#404040">
                        <set attributeName="fill" to="#808080" begin="arrowLeft.mouseover" end="arrowLeft.mouseout"/>
                  </use>
                  <path fill="none" stroke="white" stroke-width="1.5" d="M0,-3.0v7 M-2.5,-0.5L0,-3.0L2.5,-0.5"/>
                </g>
        </g>
        <svg viewBox="0 0 15 15" width="100%" height="30px" preserveAspectRatio="xMaxYMin meet">
         <g id="arrow_out" transform="scale(0.3 0.3)">
          <a xlink:href="Scene_8hpp__dep__incl_org.svg" target="_base">
           <rect id="button" ry="5" rx="5" y="6" x="6" height="38" width="38"
                fill="#f2f5e9" fill-opacity="0.5" stroke="#606060" stroke-width="1.0"/>
           <path id="arrow"
             d="M 11.500037,31.436501 C 11.940474,20.09759 22.043105,11.32322 32.158766,21.979434 L 37.068811,17.246167 C 37.068811,17.246167 37.088388,32 37.088388,32 L 22.160133,31.978069 C 22.160133,31.978069 26.997745,27.140456 26.997745,27.140456 C 18.528582,18.264221 13.291696,25.230495 11.500037,31.436501 z"
             style="fill:#404040;"/>
          </a>
         </g>
        </svg>
</svg>
