<?xml version="1.0" encoding="UTF-8" standalone="no"?>
<!DOCTYPE svg PUBLIC "-//W3C//DTD SVG 1.1//EN"
 "http://www.w3.org/Graphics/SVG/1.1/DTD/svg11.dtd">
<!-- Generated by graphviz version 2.44.0 ()
 -->
<!-- Title: src/Builder/SceneBuilder.cpp Pages: 1 -->
<svg width="609pt" height="375pt"
 viewBox="0.00 0.00 609.00 375.00" xmlns="http://www.w3.org/2000/svg" xmlns:xlink="http://www.w3.org/1999/xlink">
<g id="graph0" class="graph" transform="scale(1 1) rotate(0) translate(4 371)">
<title>src/Builder/SceneBuilder.cpp</title>
<!-- Node1 -->
<g id="node1" class="node">
<title>Node1</title>
<g id="a_node1"><a xlink:title=" ">
<polygon fill="#bfbfbf" stroke="black" points="96.5,-347.5 96.5,-366.5 238.5,-366.5 238.5,-347.5 96.5,-347.5"/>
<text text-anchor="middle" x="167.5" y="-354.5" font-family="Helvetica,sans-Serif" font-size="10.00">src/Builder/SceneBuilder.cpp</text>
</a>
</g>
</g>
<!-- Node2 -->
<g id="node2" class="node">
<title>Node2</title>
<g id="a_node2"><a xlink:href="SceneBuilder_8hpp.html" target="_top" xlink:title=" ">
<polygon fill="none" stroke="black" points="105,-291.5 105,-310.5 230,-310.5 230,-291.5 105,-291.5"/>
<text text-anchor="middle" x="167.5" y="-298.5" font-family="Helvetica,sans-Serif" font-size="10.00">Builder/SceneBuilder.hpp</text>
</a>
</g>
</g>
<!-- Node1&#45;&gt;Node2 -->
<g id="edge1" class="edge">
<title>Node1&#45;&gt;Node2</title>
<path fill="none" stroke="midnightblue" d="M167.5,-347.08C167.5,-340.01 167.5,-329.86 167.5,-320.99"/>
<polygon fill="midnightblue" stroke="midnightblue" points="171,-320.75 167.5,-310.75 164,-320.75 171,-320.75"/>
</g>
<!-- Node3 -->
<g id="node3" class="node">
<title>Node3</title>
<g id="a_node3"><a xlink:title=" ">
<polygon fill="none" stroke="#bfbfbf" points="0,-6 0,-25 51,-25 51,-6 0,-6"/>
<text text-anchor="middle" x="25.5" y="-13" font-family="Helvetica,sans-Serif" font-size="10.00">memory</text>
</a>
</g>
</g>
<!-- Node2&#45;&gt;Node3 -->
<g id="edge2" class="edge">
<title>Node2&#45;&gt;Node3</title>
<path fill="none" stroke="midnightblue" d="M137.04,-291.4C95.31,-277.53 25.5,-245.98 25.5,-190 25.5,-190 25.5,-190 25.5,-132 25.5,-97.86 25.5,-58.05 25.5,-35.21"/>
<polygon fill="midnightblue" stroke="midnightblue" points="29,-35.19 25.5,-25.19 22,-35.19 29,-35.19"/>
</g>
<!-- Node4 -->
<g id="node4" class="node">
<title>Node4</title>
<g id="a_node4"><a xlink:href="GameObject_8hpp.html" target="_top" xlink:title=" ">
<polygon fill="none" stroke="black" points="235,-123.5 235,-142.5 324,-142.5 324,-123.5 235,-123.5"/>
<text text-anchor="middle" x="279.5" y="-130.5" font-family="Helvetica,sans-Serif" font-size="10.00">GameObject.hpp</text>
</a>
</g>
</g>
<!-- Node2&#45;&gt;Node4 -->
<g id="edge3" class="edge">
<title>Node2&#45;&gt;Node4</title>
<path fill="none" stroke="midnightblue" d="M183.83,-291.41C197.81,-283.42 217.81,-270.45 231.5,-255 258.13,-224.94 270.92,-178.31 276.25,-152.6"/>
<polygon fill="midnightblue" stroke="midnightblue" points="279.71,-153.16 278.15,-142.68 272.83,-151.84 279.71,-153.16"/>
</g>
<!-- Node15 -->
<g id="node15" class="node">
<title>Node15</title>
<g id="a_node15"><a xlink:href="Camera_8hpp.html" target="_top" xlink:title=" ">
<polygon fill="none" stroke="black" points="86.5,-179.5 86.5,-198.5 154.5,-198.5 154.5,-179.5 86.5,-179.5"/>
<text text-anchor="middle" x="120.5" y="-186.5" font-family="Helvetica,sans-Serif" font-size="10.00">Camera.hpp</text>
</a>
</g>
</g>
<!-- Node2&#45;&gt;Node15 -->
<g id="edge20" class="edge">
<title>Node2&#45;&gt;Node15</title>
<path fill="none" stroke="midnightblue" d="M163.81,-291.37C156.16,-273.46 138.41,-231.92 128.17,-207.95"/>
<polygon fill="midnightblue" stroke="midnightblue" points="131.32,-206.41 124.17,-198.59 124.88,-209.16 131.32,-206.41"/>
</g>
<!-- Node17 -->
<g id="node17" class="node">
<title>Node17</title>
<g id="a_node17"><a xlink:href="Scene_8hpp.html" target="_top" xlink:title=" ">
<polygon fill="none" stroke="black" points="160.5,-235.5 160.5,-254.5 222.5,-254.5 222.5,-235.5 160.5,-235.5"/>
<text text-anchor="middle" x="191.5" y="-242.5" font-family="Helvetica,sans-Serif" font-size="10.00">Scene.hpp</text>
</a>
</g>
</g>
<!-- Node2&#45;&gt;Node17 -->
<g id="edge23" class="edge">
<title>Node2&#45;&gt;Node17</title>
<path fill="none" stroke="midnightblue" d="M171.46,-291.08C174.71,-283.77 179.42,-273.18 183.45,-264.1"/>
<polygon fill="midnightblue" stroke="midnightblue" points="186.75,-265.31 187.61,-254.75 180.35,-262.47 186.75,-265.31"/>
</g>
<!-- Node4&#45;&gt;Node3 -->
<g id="edge14" class="edge">
<title>Node4&#45;&gt;Node3</title>
<path fill="none" stroke="midnightblue" d="M234.66,-125.82C198.96,-119.61 148.51,-107.87 108.5,-87 81.66,-73 55.93,-48.94 40.42,-32.88"/>
<polygon fill="midnightblue" stroke="midnightblue" points="42.69,-30.18 33.29,-25.3 37.59,-34.98 42.69,-30.18"/>
</g>
<!-- Node5 -->
<g id="node5" class="node">
<title>Node5</title>
<g id="a_node5"><a xlink:href="Component_8hpp.html" target="_top" xlink:title=" ">
<polygon fill="none" stroke="black" points="129.5,-67.5 129.5,-86.5 213.5,-86.5 213.5,-67.5 129.5,-67.5"/>
<text text-anchor="middle" x="171.5" y="-74.5" font-family="Helvetica,sans-Serif" font-size="10.00">Component.hpp</text>
</a>
</g>
</g>
<!-- Node4&#45;&gt;Node5 -->
<g id="edge4" class="edge">
<title>Node4&#45;&gt;Node5</title>
<path fill="none" stroke="midnightblue" d="M262.15,-123.32C244.83,-114.66 217.98,-101.24 198,-91.25"/>
<polygon fill="midnightblue" stroke="midnightblue" points="199.32,-88 188.81,-86.65 196.19,-94.26 199.32,-88"/>
</g>
<!-- Node6 -->
<g id="node6" class="node">
<title>Node6</title>
<g id="a_node6"><a xlink:title=" ">
<polygon fill="none" stroke="#bfbfbf" points="69,-0.5 69,-30.5 164,-30.5 164,-0.5 69,-0.5"/>
<text text-anchor="start" x="77" y="-18.5" font-family="Helvetica,sans-Serif" font-size="10.00">boost/serialization</text>
<text text-anchor="middle" x="116.5" y="-7.5" font-family="Helvetica,sans-Serif" font-size="10.00">/access.hpp</text>
</a>
</g>
</g>
<!-- Node4&#45;&gt;Node6 -->
<g id="edge16" class="edge">
<title>Node4&#45;&gt;Node6</title>
<path fill="none" stroke="midnightblue" d="M234.86,-125.25C193.01,-117.93 134.81,-104.85 120.5,-87 110.26,-74.22 109.61,-55.59 111.34,-40.68"/>
<polygon fill="midnightblue" stroke="midnightblue" points="114.83,-41.05 112.92,-30.63 107.91,-39.97 114.83,-41.05"/>
</g>
<!-- Node7 -->
<g id="node7" class="node">
<title>Node7</title>
<g id="a_node7"><a xlink:title=" ">
<polygon fill="none" stroke="#bfbfbf" points="182,-0.5 182,-30.5 277,-30.5 277,-0.5 182,-0.5"/>
<text text-anchor="start" x="190" y="-18.5" font-family="Helvetica,sans-Serif" font-size="10.00">boost/serialization</text>
<text text-anchor="middle" x="229.5" y="-7.5" font-family="Helvetica,sans-Serif" font-size="10.00">/map.hpp</text>
</a>
</g>
</g>
<!-- Node4&#45;&gt;Node7 -->
<g id="edge17" class="edge">
<title>Node4&#45;&gt;Node7</title>
<path fill="none" stroke="midnightblue" d="M275.74,-123.32C268.16,-105.81 250.82,-65.75 239.66,-39.97"/>
<polygon fill="midnightblue" stroke="midnightblue" points="242.76,-38.33 235.58,-30.55 236.34,-41.11 242.76,-38.33"/>
</g>
<!-- Node8 -->
<g id="node8" class="node">
<title>Node8</title>
<g id="a_node8"><a xlink:title=" ">
<polygon fill="none" stroke="#bfbfbf" points="295,-0.5 295,-30.5 390,-30.5 390,-0.5 295,-0.5"/>
<text text-anchor="start" x="303" y="-18.5" font-family="Helvetica,sans-Serif" font-size="10.00">boost/serialization</text>
<text text-anchor="middle" x="342.5" y="-7.5" font-family="Helvetica,sans-Serif" font-size="10.00">/vector.hpp</text>
</a>
</g>
</g>
<!-- Node4&#45;&gt;Node8 -->
<g id="edge18" class="edge">
<title>Node4&#45;&gt;Node8</title>
<path fill="none" stroke="midnightblue" d="M281.04,-123.14C283.54,-110.2 289.28,-85.63 299.5,-67 305.13,-56.75 313.05,-46.68 320.57,-38.27"/>
<polygon fill="midnightblue" stroke="midnightblue" points="323.32,-40.46 327.57,-30.76 318.19,-35.69 323.32,-40.46"/>
</g>
<!-- Node9 -->
<g id="node9" class="node">
<title>Node9</title>
<g id="a_node9"><a xlink:title=" ">
<polygon fill="none" stroke="#bfbfbf" points="414,-0.5 414,-30.5 509,-30.5 509,-0.5 414,-0.5"/>
<text text-anchor="start" x="422" y="-18.5" font-family="Helvetica,sans-Serif" font-size="10.00">boost/serialization</text>
<text text-anchor="middle" x="461.5" y="-7.5" font-family="Helvetica,sans-Serif" font-size="10.00">/shared_ptr.hpp</text>
</a>
</g>
</g>
<!-- Node4&#45;&gt;Node9 -->
<g id="edge19" class="edge">
<title>Node4&#45;&gt;Node9</title>
<path fill="none" stroke="midnightblue" d="M324.05,-128.05C375.69,-122.44 456.06,-110.18 474.5,-87 485.05,-73.74 480.7,-54.64 474.31,-39.66"/>
<polygon fill="midnightblue" stroke="midnightblue" points="477.42,-38.04 469.96,-30.52 471.1,-41.05 477.42,-38.04"/>
</g>
<!-- Node10 -->
<g id="node10" class="node">
<title>Node10</title>
<g id="a_node10"><a xlink:href="Transform_8hpp.html" target="_top" xlink:title=" ">
<polygon fill="none" stroke="black" points="522,-67.5 522,-86.5 601,-86.5 601,-67.5 522,-67.5"/>
<text text-anchor="middle" x="561.5" y="-74.5" font-family="Helvetica,sans-Serif" font-size="10.00">Transform.hpp</text>
</a>
</g>
</g>
<!-- Node4&#45;&gt;Node10 -->
<g id="edge10" class="edge">
<title>Node4&#45;&gt;Node10</title>
<path fill="none" stroke="midnightblue" d="M324.18,-123.44C375.25,-113.66 458.6,-97.7 511.71,-87.53"/>
<polygon fill="midnightblue" stroke="midnightblue" points="512.42,-90.96 521.58,-85.64 511.11,-84.09 512.42,-90.96"/>
</g>
<!-- Node12 -->
<g id="node12" class="node">
<title>Node12</title>
<g id="a_node12"><a xlink:title=" ">
<polygon fill="none" stroke="#bfbfbf" points="308,-67.5 308,-86.5 349,-86.5 349,-67.5 308,-67.5"/>
<text text-anchor="middle" x="328.5" y="-74.5" font-family="Helvetica,sans-Serif" font-size="10.00">string</text>
</a>
</g>
</g>
<!-- Node4&#45;&gt;Node12 -->
<g id="edge12" class="edge">
<title>Node4&#45;&gt;Node12</title>
<path fill="none" stroke="midnightblue" d="M287.59,-123.08C294.66,-115.3 305.09,-103.8 313.65,-94.37"/>
<polygon fill="midnightblue" stroke="midnightblue" points="316.43,-96.51 320.56,-86.75 311.25,-91.8 316.43,-96.51"/>
</g>
<!-- Node13 -->
<g id="node13" class="node">
<title>Node13</title>
<g id="a_node13"><a xlink:title=" ">
<polygon fill="none" stroke="#bfbfbf" points="367.5,-67.5 367.5,-86.5 411.5,-86.5 411.5,-67.5 367.5,-67.5"/>
<text text-anchor="middle" x="389.5" y="-74.5" font-family="Helvetica,sans-Serif" font-size="10.00">vector</text>
</a>
</g>
</g>
<!-- Node4&#45;&gt;Node13 -->
<g id="edge13" class="edge">
<title>Node4&#45;&gt;Node13</title>
<path fill="none" stroke="midnightblue" d="M297.17,-123.32C314.89,-114.62 342.4,-101.12 362.79,-91.11"/>
<polygon fill="midnightblue" stroke="midnightblue" points="364.44,-94.2 371.87,-86.65 361.35,-87.92 364.44,-94.2"/>
</g>
<!-- Node14 -->
<g id="node14" class="node">
<title>Node14</title>
<g id="a_node14"><a xlink:title=" ">
<polygon fill="none" stroke="#bfbfbf" points="430,-67.5 430,-86.5 465,-86.5 465,-67.5 430,-67.5"/>
<text text-anchor="middle" x="447.5" y="-74.5" font-family="Helvetica,sans-Serif" font-size="10.00">map</text>
</a>
</g>
</g>
<!-- Node4&#45;&gt;Node14 -->
<g id="edge15" class="edge">
<title>Node4&#45;&gt;Node14</title>
<path fill="none" stroke="midnightblue" d="M306.56,-123.48C333.09,-115.1 374.9,-101.82 420.1,-87.1"/>
<polygon fill="midnightblue" stroke="midnightblue" points="421.37,-90.37 429.79,-83.94 419.2,-83.71 421.37,-90.37"/>
</g>
<!-- Node5&#45;&gt;Node3 -->
<g id="edge5" class="edge">
<title>Node5&#45;&gt;Node3</title>
<path fill="none" stroke="midnightblue" d="M149.55,-67.34C126.93,-58.38 90.67,-43.91 59.5,-31 57.91,-30.34 56.28,-29.66 54.64,-28.97"/>
<polygon fill="midnightblue" stroke="midnightblue" points="55.82,-25.67 45.25,-25 53.1,-32.12 55.82,-25.67"/>
</g>
<!-- Node5&#45;&gt;Node6 -->
<g id="edge6" class="edge">
<title>Node5&#45;&gt;Node6</title>
<path fill="none" stroke="midnightblue" d="M163.62,-67.48C156.52,-59.79 145.78,-48.17 136.34,-37.96"/>
<polygon fill="midnightblue" stroke="midnightblue" points="138.82,-35.49 129.46,-30.52 133.68,-40.24 138.82,-35.49"/>
</g>
<!-- Node5&#45;&gt;Node7 -->
<g id="edge7" class="edge">
<title>Node5&#45;&gt;Node7</title>
<path fill="none" stroke="midnightblue" d="M179.81,-67.48C187.3,-59.79 198.63,-48.17 208.58,-37.96"/>
<polygon fill="midnightblue" stroke="midnightblue" points="211.36,-40.13 215.83,-30.52 206.34,-35.24 211.36,-40.13"/>
</g>
<!-- Node5&#45;&gt;Node8 -->
<g id="edge8" class="edge">
<title>Node5&#45;&gt;Node8</title>
<path fill="none" stroke="midnightblue" d="M196,-67.48C221.11,-58.74 260.86,-44.91 292.62,-33.86"/>
<polygon fill="midnightblue" stroke="midnightblue" points="293.9,-37.11 302.2,-30.52 291.6,-30.5 293.9,-37.11"/>
</g>
<!-- Node5&#45;&gt;Node9 -->
<g id="edge9" class="edge">
<title>Node5&#45;&gt;Node9</title>
<path fill="none" stroke="midnightblue" d="M213.61,-68.14C259.44,-59.49 334.82,-44.94 399.5,-31 400.95,-30.69 402.42,-30.37 403.91,-30.04"/>
<polygon fill="midnightblue" stroke="midnightblue" points="404.81,-33.42 413.81,-27.83 403.29,-26.59 404.81,-33.42"/>
</g>
<!-- Node11 -->
<g id="node11" class="node">
<title>Node11</title>
<g id="a_node11"><a xlink:href="Point_8hpp.html" target="_top" xlink:title=" ">
<polygon fill="none" stroke="black" points="533,-6 533,-25 590,-25 590,-6 533,-6"/>
<text text-anchor="middle" x="561.5" y="-13" font-family="Helvetica,sans-Serif" font-size="10.00">Point.hpp</text>
</a>
</g>
</g>
<!-- Node10&#45;&gt;Node11 -->
<g id="edge11" class="edge">
<title>Node10&#45;&gt;Node11</title>
<path fill="none" stroke="midnightblue" d="M561.5,-67.48C561.5,-59.08 561.5,-45.98 561.5,-35.16"/>
<polygon fill="midnightblue" stroke="midnightblue" points="565,-35.01 561.5,-25.01 558,-35.01 565,-35.01"/>
</g>
<!-- Node15&#45;&gt;Node4 -->
<g id="edge21" class="edge">
<title>Node15&#45;&gt;Node4</title>
<path fill="none" stroke="midnightblue" d="M145.69,-179.44C172.44,-170.36 214.9,-155.94 244.81,-145.78"/>
<polygon fill="midnightblue" stroke="midnightblue" points="246.08,-149.05 254.42,-142.52 243.83,-142.42 246.08,-149.05"/>
</g>
<!-- Node16 -->
<g id="node16" class="node">
<title>Node16</title>
<g id="a_node16"><a xlink:href="Color_8hpp.html" target="_top" xlink:title=" ">
<polygon fill="none" stroke="black" points="92,-123.5 92,-142.5 149,-142.5 149,-123.5 92,-123.5"/>
<text text-anchor="middle" x="120.5" y="-130.5" font-family="Helvetica,sans-Serif" font-size="10.00">Color.hpp</text>
</a>
</g>
</g>
<!-- Node15&#45;&gt;Node16 -->
<g id="edge22" class="edge">
<title>Node15&#45;&gt;Node16</title>
<path fill="none" stroke="midnightblue" d="M120.5,-179.08C120.5,-172.01 120.5,-161.86 120.5,-152.99"/>
<polygon fill="midnightblue" stroke="midnightblue" points="124,-152.75 120.5,-142.75 117,-152.75 124,-152.75"/>
</g>
<!-- Node17&#45;&gt;Node4 -->
<g id="edge25" class="edge">
<title>Node17&#45;&gt;Node4</title>
<path fill="none" stroke="midnightblue" d="M203.16,-235.23C213.94,-226.75 229.99,-213.13 241.5,-199 253.47,-184.3 264.08,-165.39 271.02,-151.77"/>
<polygon fill="midnightblue" stroke="midnightblue" points="274.29,-153.05 275.58,-142.53 268.01,-149.95 274.29,-153.05"/>
</g>
<!-- Node17&#45;&gt;Node15 -->
<g id="edge26" class="edge">
<title>Node17&#45;&gt;Node15</title>
<path fill="none" stroke="midnightblue" d="M180.09,-235.32C169.39,-227.18 153.16,-214.84 140.34,-205.09"/>
<polygon fill="midnightblue" stroke="midnightblue" points="142.19,-202.1 132.11,-198.83 137.96,-207.67 142.19,-202.1"/>
</g>
<!-- Node18 -->
<g id="node18" class="node">
<title>Node18</title>
<g id="a_node18"><a xlink:title=" ">
<polygon fill="none" stroke="#bfbfbf" points="173,-179.5 173,-198.5 232,-198.5 232,-179.5 173,-179.5"/>
<text text-anchor="middle" x="202.5" y="-186.5" font-family="Helvetica,sans-Serif" font-size="10.00">functional</text>
</a>
</g>
</g>
<!-- Node17&#45;&gt;Node18 -->
<g id="edge24" class="edge">
<title>Node17&#45;&gt;Node18</title>
<path fill="none" stroke="midnightblue" d="M193.32,-235.08C194.77,-227.93 196.87,-217.64 198.69,-208.69"/>
<polygon fill="midnightblue" stroke="midnightblue" points="202.15,-209.25 200.72,-198.75 195.29,-207.85 202.15,-209.25"/>
</g>
</g>
</svg>
