<?xml version="1.0" encoding="UTF-8" standalone="no"?>
<!DOCTYPE svg PUBLIC "-//W3C//DTD SVG 1.1//EN"
 "http://www.w3.org/Graphics/SVG/1.1/DTD/svg11.dtd">
<!-- Generated by graphviz version 2.44.0 ()
 -->
<!-- Title: includes/platformer&#45;engine/Networking/ServerNetworkManager.hpp Pages: 1 -->
<svg width="1148pt" height="184pt"
 viewBox="0.00 0.00 1147.50 184.00" xmlns="http://www.w3.org/2000/svg" xmlns:xlink="http://www.w3.org/1999/xlink">
<g id="graph0" class="graph" transform="scale(1 1) rotate(0) translate(4 180)">
<title>includes/platformer&#45;engine/Networking/ServerNetworkManager.hpp</title>
<!-- Node1 -->
<g id="node1" class="node">
<title>Node1</title>
<g id="a_node1"><a xlink:title=" ">
<polygon fill="#bfbfbf" stroke="black" points="235,-134.5 235,-175.5 404,-175.5 404,-134.5 235,-134.5"/>
<text text-anchor="start" x="243" y="-163.5" font-family="Helvetica,sans-Serif" font-size="10.00">includes/platformer</text>
<text text-anchor="start" x="243" y="-152.5" font-family="Helvetica,sans-Serif" font-size="10.00">&#45;engine/Networking/ServerNetwork</text>
<text text-anchor="middle" x="319.5" y="-141.5" font-family="Helvetica,sans-Serif" font-size="10.00">Manager.hpp</text>
</a>
</g>
</g>
<!-- Node2 -->
<g id="node2" class="node">
<title>Node2</title>
<g id="a_node2"><a xlink:href="ServerNetworkManager_8cpp.html" target="_top" xlink:title=" ">
<polygon fill="none" stroke="black" points="0,-0.5 0,-30.5 151,-30.5 151,-0.5 0,-0.5"/>
<text text-anchor="start" x="8" y="-18.5" font-family="Helvetica,sans-Serif" font-size="10.00">src/Networking/ServerNetwork</text>
<text text-anchor="middle" x="75.5" y="-7.5" font-family="Helvetica,sans-Serif" font-size="10.00">Manager.cpp</text>
</a>
</g>
</g>
<!-- Node1&#45;&gt;Node2 -->
<g id="edge1" class="edge">
<title>Node1&#45;&gt;Node2</title>
<path fill="none" stroke="midnightblue" d="M275.95,-129.46C224.81,-100.64 141.73,-53.82 100.44,-30.55"/>
<polygon fill="midnightblue" stroke="midnightblue" points="274.37,-132.59 284.8,-134.45 277.81,-126.49 274.37,-132.59"/>
</g>
<!-- Node3 -->
<g id="node3" class="node">
<title>Node3</title>
<g id="a_node3"><a xlink:href="Engine_8hpp.html" target="_top" xlink:title=" ">
<polygon fill="none" stroke="black" points="426,-67.5 426,-97.5 557,-97.5 557,-67.5 426,-67.5"/>
<text text-anchor="start" x="434" y="-85.5" font-family="Helvetica,sans-Serif" font-size="10.00">includes/platformer</text>
<text text-anchor="middle" x="491.5" y="-74.5" font-family="Helvetica,sans-Serif" font-size="10.00">&#45;engine/Engine/Engine.hpp</text>
</a>
</g>
</g>
<!-- Node1&#45;&gt;Node3 -->
<g id="edge2" class="edge">
<title>Node1&#45;&gt;Node3</title>
<path fill="none" stroke="midnightblue" d="M377,-130.43C403.6,-119.53 434.29,-106.95 457.2,-97.56"/>
<polygon fill="midnightblue" stroke="midnightblue" points="375.34,-127.33 367.41,-134.36 377.99,-133.81 375.34,-127.33"/>
</g>
<!-- Node3&#45;&gt;Node2 -->
<g id="edge7" class="edge">
<title>Node3&#45;&gt;Node2</title>
<path fill="none" stroke="midnightblue" d="M415.75,-70.33C348.62,-60.34 247.97,-45.13 160.5,-31 157.4,-30.5 154.23,-29.98 151.03,-29.46"/>
<polygon fill="midnightblue" stroke="midnightblue" points="415.41,-73.82 425.82,-71.83 416.44,-66.89 415.41,-73.82"/>
</g>
<!-- Node4 -->
<g id="node4" class="node">
<title>Node4</title>
<g id="a_node4"><a xlink:href="GameObjectDirector_8cpp.html" target="_top" xlink:title=" ">
<polygon fill="none" stroke="black" points="169.5,-6 169.5,-25 345.5,-25 345.5,-6 169.5,-6"/>
<text text-anchor="middle" x="257.5" y="-13" font-family="Helvetica,sans-Serif" font-size="10.00">src/Director/GameObjectDirector.cpp</text>
</a>
</g>
</g>
<!-- Node3&#45;&gt;Node4 -->
<g id="edge3" class="edge">
<title>Node3&#45;&gt;Node4</title>
<path fill="none" stroke="midnightblue" d="M431.2,-64.75C385.44,-52.04 324.41,-35.09 288.2,-25.03"/>
<polygon fill="midnightblue" stroke="midnightblue" points="430.44,-68.17 441.01,-67.48 432.32,-61.43 430.44,-68.17"/>
</g>
<!-- Node5 -->
<g id="node5" class="node">
<title>Node5</title>
<g id="a_node5"><a xlink:href="Engine_8cpp.html" target="_top" xlink:title=" ">
<polygon fill="none" stroke="black" points="364,-6 364,-25 477,-25 477,-6 364,-6"/>
<text text-anchor="middle" x="420.5" y="-13" font-family="Helvetica,sans-Serif" font-size="10.00">src/Engine/Engine.cpp</text>
</a>
</g>
</g>
<!-- Node3&#45;&gt;Node5 -->
<g id="edge4" class="edge">
<title>Node3&#45;&gt;Node5</title>
<path fill="none" stroke="midnightblue" d="M468.38,-60.34C455.35,-48.4 439.76,-34.14 430,-25.19"/>
<polygon fill="midnightblue" stroke="midnightblue" points="466.35,-63.22 476.09,-67.4 471.08,-58.06 466.35,-63.22"/>
</g>
<!-- Node6 -->
<g id="node6" class="node">
<title>Node6</title>
<g id="a_node6"><a xlink:href="TMXParser_8cpp.html" target="_top" xlink:title=" ">
<polygon fill="none" stroke="black" points="495.5,-6 495.5,-25 631.5,-25 631.5,-6 495.5,-6"/>
<text text-anchor="middle" x="563.5" y="-13" font-family="Helvetica,sans-Serif" font-size="10.00">src/Facade/TMXParser.cpp</text>
</a>
</g>
</g>
<!-- Node3&#45;&gt;Node6 -->
<g id="edge5" class="edge">
<title>Node3&#45;&gt;Node6</title>
<path fill="none" stroke="midnightblue" d="M514.57,-60.67C527.86,-48.67 543.87,-34.22 553.87,-25.19"/>
<polygon fill="midnightblue" stroke="midnightblue" points="512.2,-58.1 507.12,-67.4 516.89,-63.29 512.2,-58.1"/>
</g>
<!-- Node7 -->
<g id="node7" class="node">
<title>Node7</title>
<g id="a_node7"><a xlink:href="ClientNetworkManager_8cpp.html" target="_top" xlink:title=" ">
<polygon fill="none" stroke="black" points="650,-0.5 650,-30.5 797,-30.5 797,-0.5 650,-0.5"/>
<text text-anchor="start" x="658" y="-18.5" font-family="Helvetica,sans-Serif" font-size="10.00">src/Networking/ClientNetwork</text>
<text text-anchor="middle" x="723.5" y="-7.5" font-family="Helvetica,sans-Serif" font-size="10.00">Manager.cpp</text>
</a>
</g>
</g>
<!-- Node3&#45;&gt;Node7 -->
<g id="edge6" class="edge">
<title>Node3&#45;&gt;Node7</title>
<path fill="none" stroke="midnightblue" d="M551.41,-64.71C589.16,-54.14 637.36,-40.63 673.13,-30.61"/>
<polygon fill="midnightblue" stroke="midnightblue" points="550.24,-61.41 541.55,-67.48 552.13,-68.15 550.24,-61.41"/>
</g>
<!-- Node8 -->
<g id="node8" class="node">
<title>Node8</title>
<g id="a_node8"><a xlink:href="RenderSystem_8cpp.html" target="_top" xlink:title=" ">
<polygon fill="none" stroke="black" points="815.5,-6 815.5,-25 965.5,-25 965.5,-6 815.5,-6"/>
<text text-anchor="middle" x="890.5" y="-13" font-family="Helvetica,sans-Serif" font-size="10.00">src/Texture/RenderSystem.cpp</text>
</a>
</g>
</g>
<!-- Node3&#45;&gt;Node8 -->
<g id="edge8" class="edge">
<title>Node3&#45;&gt;Node8</title>
<path fill="none" stroke="midnightblue" d="M567.28,-69.61C631.11,-59.54 724.82,-44.6 806.5,-31 817.89,-29.1 830.13,-27.02 841.66,-25.03"/>
<polygon fill="midnightblue" stroke="midnightblue" points="566.63,-66.17 557.3,-71.19 567.72,-73.09 566.63,-66.17"/>
</g>
<!-- Node9 -->
<g id="node9" class="node">
<title>Node9</title>
<g id="a_node9"><a xlink:href="TextureManager_8cpp.html" target="_top" xlink:title=" ">
<polygon fill="none" stroke="black" points="983.5,-6 983.5,-25 1139.5,-25 1139.5,-6 983.5,-6"/>
<text text-anchor="middle" x="1061.5" y="-13" font-family="Helvetica,sans-Serif" font-size="10.00">src/Texture/TextureManager.cpp</text>
</a>
</g>
</g>
<!-- Node3&#45;&gt;Node9 -->
<g id="edge9" class="edge">
<title>Node3&#45;&gt;Node9</title>
<path fill="none" stroke="midnightblue" d="M567.39,-75.01C662.67,-66.52 831.01,-50.44 974.5,-31 987.25,-29.27 1000.99,-27.12 1013.72,-25"/>
<polygon fill="midnightblue" stroke="midnightblue" points="566.93,-71.53 557.28,-75.9 567.55,-78.51 566.93,-71.53"/>
</g>
</g>
</svg>
