<?xml version="1.0" encoding="UTF-8" standalone="no"?>
<!DOCTYPE svg PUBLIC "-//W3C//DTD SVG 1.1//EN"
 "http://www.w3.org/Graphics/SVG/1.1/DTD/svg11.dtd">
<!-- Generated by graphviz version 2.44.0 ()
 -->
<!-- Title: includes/platformer&#45;engine/Networking/ServerNetworkManager.hpp Pages: 1 -->
<svg width="1285pt" height="184pt"
 viewBox="0.00 0.00 1285.00 184.00" xmlns="http://www.w3.org/2000/svg" xmlns:xlink="http://www.w3.org/1999/xlink">
<g id="graph0" class="graph" transform="scale(1 1) rotate(0) translate(4 180)">
<title>includes/platformer&#45;engine/Networking/ServerNetworkManager.hpp</title>
<!-- Node1 -->
<g id="node1" class="node">
<title>Node1</title>
<g id="a_node1"><a xlink:title=" ">
<polygon fill="#bfbfbf" stroke="black" points="235,-134.5 235,-175.5 404,-175.5 404,-134.5 235,-134.5"/>
<text text-anchor="start" x="243" y="-163.5" font-family="Helvetica,sans-Serif" font-size="10.00">includes/platformer</text>
<text text-anchor="start" x="243" y="-152.5" font-family="Helvetica,sans-Serif" font-size="10.00">&#45;engine/Networking/ServerNetwork</text>
<text text-anchor="middle" x="319.5" y="-141.5" font-family="Helvetica,sans-Serif" font-size="10.00">Manager.hpp</text>
</a>
</g>
</g>
<!-- Node2 -->
<g id="node2" class="node">
<title>Node2</title>
<g id="a_node2"><a xlink:href="ServerNetworkManager_8cpp.html" target="_top" xlink:title=" ">
<polygon fill="none" stroke="black" points="0,-0.5 0,-30.5 151,-30.5 151,-0.5 0,-0.5"/>
<text text-anchor="start" x="8" y="-18.5" font-family="Helvetica,sans-Serif" font-size="10.00">src/Networking/ServerNetwork</text>
<text text-anchor="middle" x="75.5" y="-7.5" font-family="Helvetica,sans-Serif" font-size="10.00">Manager.cpp</text>
</a>
</g>
</g>
<!-- Node1&#45;&gt;Node2 -->
<g id="edge1" class="edge">
<title>Node1&#45;&gt;Node2</title>
<path fill="none" stroke="midnightblue" d="M275.95,-129.46C224.81,-100.64 141.73,-53.82 100.44,-30.55"/>
<polygon fill="midnightblue" stroke="midnightblue" points="274.37,-132.59 284.8,-134.45 277.81,-126.49 274.37,-132.59"/>
</g>
<!-- Node3 -->
<g id="node3" class="node">
<title>Node3</title>
<g id="a_node3"><a xlink:href="Engine_8hpp.html" target="_top" xlink:title=" ">
<polygon fill="none" stroke="black" points="498,-67.5 498,-97.5 629,-97.5 629,-67.5 498,-67.5"/>
<text text-anchor="start" x="506" y="-85.5" font-family="Helvetica,sans-Serif" font-size="10.00">includes/platformer</text>
<text text-anchor="middle" x="563.5" y="-74.5" font-family="Helvetica,sans-Serif" font-size="10.00">&#45;engine/Engine/Engine.hpp</text>
</a>
</g>
</g>
<!-- Node1&#45;&gt;Node3 -->
<g id="edge2" class="edge">
<title>Node1&#45;&gt;Node3</title>
<path fill="none" stroke="midnightblue" d="M396.8,-131.66C435.43,-120.5 480.99,-107.34 514.71,-97.6"/>
<polygon fill="midnightblue" stroke="midnightblue" points="395.78,-128.32 387.14,-134.46 397.72,-135.04 395.78,-128.32"/>
</g>
<!-- Node3&#45;&gt;Node2 -->
<g id="edge7" class="edge">
<title>Node3&#45;&gt;Node2</title>
<path fill="none" stroke="midnightblue" d="M487.64,-73.01C406.53,-63.69 274.22,-47.82 160.5,-31 157.39,-30.54 154.22,-30.06 151.02,-29.56"/>
<polygon fill="midnightblue" stroke="midnightblue" points="487.43,-76.51 497.76,-74.17 488.23,-69.55 487.43,-76.51"/>
</g>
<!-- Node4 -->
<g id="node4" class="node">
<title>Node4</title>
<g id="a_node4"><a xlink:href="GameObjectDirector_8cpp.html" target="_top" xlink:title=" ">
<polygon fill="none" stroke="black" points="169.5,-6 169.5,-25 345.5,-25 345.5,-6 169.5,-6"/>
<text text-anchor="middle" x="257.5" y="-13" font-family="Helvetica,sans-Serif" font-size="10.00">src/Director/GameObjectDirector.cpp</text>
</a>
</g>
</g>
<!-- Node3&#45;&gt;Node4 -->
<g id="edge3" class="edge">
<title>Node3&#45;&gt;Node4</title>
<path fill="none" stroke="midnightblue" d="M488.02,-65.47C427.87,-52.69 346,-35.3 297.75,-25.05"/>
<polygon fill="midnightblue" stroke="midnightblue" points="487.35,-68.9 497.86,-67.56 488.8,-62.05 487.35,-68.9"/>
</g>
<!-- Node5 -->
<g id="node5" class="node">
<title>Node5</title>
<g id="a_node5"><a xlink:href="Engine_8cpp.html" target="_top" xlink:title=" ">
<polygon fill="none" stroke="black" points="364,-6 364,-25 477,-25 477,-6 364,-6"/>
<text text-anchor="middle" x="420.5" y="-13" font-family="Helvetica,sans-Serif" font-size="10.00">src/Engine/Engine.cpp</text>
</a>
</g>
</g>
<!-- Node3&#45;&gt;Node5 -->
<g id="edge4" class="edge">
<title>Node3&#45;&gt;Node5</title>
<path fill="none" stroke="midnightblue" d="M523.09,-63.13C495.57,-50.62 460.41,-34.64 439.22,-25.01"/>
<polygon fill="midnightblue" stroke="midnightblue" points="521.92,-66.44 532.47,-67.4 524.82,-60.07 521.92,-66.44"/>
</g>
<!-- Node6 -->
<g id="node6" class="node">
<title>Node6</title>
<g id="a_node6"><a xlink:href="TMXParser_8cpp.html" target="_top" xlink:title=" ">
<polygon fill="none" stroke="black" points="495.5,-6 495.5,-25 631.5,-25 631.5,-6 495.5,-6"/>
<text text-anchor="middle" x="563.5" y="-13" font-family="Helvetica,sans-Serif" font-size="10.00">src/Facade/TMXParser.cpp</text>
</a>
</g>
</g>
<!-- Node3&#45;&gt;Node6 -->
<g id="edge5" class="edge">
<title>Node3&#45;&gt;Node6</title>
<path fill="none" stroke="midnightblue" d="M563.5,-57.25C563.5,-46.02 563.5,-33.38 563.5,-25.19"/>
<polygon fill="midnightblue" stroke="midnightblue" points="560,-57.4 563.5,-67.4 567,-57.4 560,-57.4"/>
</g>
<!-- Node7 -->
<g id="node7" class="node">
<title>Node7</title>
<g id="a_node7"><a xlink:href="ClientNetworkManager_8cpp.html" target="_top" xlink:title=" ">
<polygon fill="none" stroke="black" points="650,-0.5 650,-30.5 797,-30.5 797,-0.5 650,-0.5"/>
<text text-anchor="start" x="658" y="-18.5" font-family="Helvetica,sans-Serif" font-size="10.00">src/Networking/ClientNetwork</text>
<text text-anchor="middle" x="723.5" y="-7.5" font-family="Helvetica,sans-Serif" font-size="10.00">Manager.cpp</text>
</a>
</g>
</g>
<!-- Node3&#45;&gt;Node7 -->
<g id="edge6" class="edge">
<title>Node3&#45;&gt;Node7</title>
<path fill="none" stroke="midnightblue" d="M607.7,-63.54C633.3,-53.14 665.07,-40.24 688.85,-30.58"/>
<polygon fill="midnightblue" stroke="midnightblue" points="606.16,-60.39 598.22,-67.4 608.8,-66.87 606.16,-60.39"/>
</g>
<!-- Node8 -->
<g id="node8" class="node">
<title>Node8</title>
<g id="a_node8"><a xlink:href="RenderSystem_8cpp.html" target="_top" xlink:title=" ">
<polygon fill="none" stroke="black" points="815.5,-6 815.5,-25 965.5,-25 965.5,-6 815.5,-6"/>
<text text-anchor="middle" x="890.5" y="-13" font-family="Helvetica,sans-Serif" font-size="10.00">src/Texture/RenderSystem.cpp</text>
</a>
</g>
</g>
<!-- Node3&#45;&gt;Node8 -->
<g id="edge8" class="edge">
<title>Node3&#45;&gt;Node8</title>
<path fill="none" stroke="midnightblue" d="M639.44,-66.41C704.19,-53.53 794.92,-35.5 847.72,-25"/>
<polygon fill="midnightblue" stroke="midnightblue" points="638.41,-63.04 629.28,-68.42 639.77,-69.91 638.41,-63.04"/>
</g>
<!-- Node9 -->
<g id="node9" class="node">
<title>Node9</title>
<g id="a_node9"><a xlink:href="TextureManager_8cpp.html" target="_top" xlink:title=" ">
<polygon fill="none" stroke="black" points="983.5,-6 983.5,-25 1139.5,-25 1139.5,-6 983.5,-6"/>
<text text-anchor="middle" x="1061.5" y="-13" font-family="Helvetica,sans-Serif" font-size="10.00">src/Texture/TextureManager.cpp</text>
</a>
</g>
</g>
<!-- Node3&#45;&gt;Node9 -->
<g id="edge9" class="edge">
<title>Node3&#45;&gt;Node9</title>
<path fill="none" stroke="midnightblue" d="M639.15,-73.19C721.7,-63.89 857.71,-47.9 974.5,-31 986.78,-29.22 999.99,-27.12 1012.33,-25.07"/>
<polygon fill="midnightblue" stroke="midnightblue" points="638.65,-69.72 629.1,-74.32 639.43,-76.68 638.65,-69.72"/>
</g>
<!-- Node10 -->
<g id="node10" class="node">
<title>Node10</title>
<g id="a_node10"><a xlink:href="ClickSystem_8cpp.html" target="_top" xlink:title=" ">
<polygon fill="none" stroke="black" points="1158,-6 1158,-25 1277,-25 1277,-6 1158,-6"/>
<text text-anchor="middle" x="1217.5" y="-13" font-family="Helvetica,sans-Serif" font-size="10.00">src/UI/ClickSystem.cpp</text>
</a>
</g>
</g>
<!-- Node3&#45;&gt;Node10 -->
<g id="edge10" class="edge">
<title>Node3&#45;&gt;Node10</title>
<path fill="none" stroke="midnightblue" d="M639.33,-77.89C751.2,-71.9 966.85,-57.83 1148.5,-31 1159.16,-29.43 1170.64,-27.22 1181.12,-25"/>
<polygon fill="midnightblue" stroke="midnightblue" points="638.96,-74.41 629.16,-78.43 639.33,-81.4 638.96,-74.41"/>
</g>
</g>
</svg>
