<?xml version="1.0" encoding="UTF-8" standalone="no"?>
<!DOCTYPE svg PUBLIC "-//W3C//DTD SVG 1.1//EN"
 "http://www.w3.org/Graphics/SVG/1.1/DTD/svg11.dtd">
<!-- Generated by graphviz version 2.44.0 ()
 -->
<!-- Title: src/Networking/ServerNetworkManager.cpp Pages: 1 -->
<svg width="621pt" height="274pt"
 viewBox="0.00 0.00 621.00 274.00" xmlns="http://www.w3.org/2000/svg" xmlns:xlink="http://www.w3.org/1999/xlink">
<g id="graph0" class="graph" transform="scale(1 1) rotate(0) translate(4 270)">
<title>src/Networking/ServerNetworkManager.cpp</title>
<!-- Node1 -->
<g id="node1" class="node">
<title>Node1</title>
<g id="a_node1"><a xlink:title=" ">
<polygon fill="#bfbfbf" stroke="black" points="373,-235.5 373,-265.5 524,-265.5 524,-235.5 373,-235.5"/>
<text text-anchor="start" x="381" y="-253.5" font-family="Helvetica,sans-Serif" font-size="10.00">src/Networking/ServerNetwork</text>
<text text-anchor="middle" x="448.5" y="-242.5" font-family="Helvetica,sans-Serif" font-size="10.00">Manager.cpp</text>
</a>
</g>
</g>
<!-- Node2 -->
<g id="node2" class="node">
<title>Node2</title>
<g id="a_node2"><a xlink:href="ServerNetworkManager_8hpp.html" target="_top" xlink:title=" ">
<polygon fill="none" stroke="black" points="304.5,-168.5 304.5,-198.5 438.5,-198.5 438.5,-168.5 304.5,-168.5"/>
<text text-anchor="start" x="312.5" y="-186.5" font-family="Helvetica,sans-Serif" font-size="10.00">Networking/ServerNetwork</text>
<text text-anchor="middle" x="371.5" y="-175.5" font-family="Helvetica,sans-Serif" font-size="10.00">Manager.hpp</text>
</a>
</g>
</g>
<!-- Node1&#45;&gt;Node2 -->
<g id="edge1" class="edge">
<title>Node1&#45;&gt;Node2</title>
<path fill="none" stroke="midnightblue" d="M431.79,-235.4C421.3,-226.54 407.58,-214.96 395.89,-205.09"/>
<polygon fill="midnightblue" stroke="midnightblue" points="398.07,-202.35 388.18,-198.58 393.56,-207.7 398.07,-202.35"/>
</g>
<!-- Node15 -->
<g id="node15" class="node">
<title>Node15</title>
<g id="a_node15"><a xlink:href="NotImplementedException_8hpp.html" target="_top" xlink:title=" ">
<polygon fill="none" stroke="black" points="474,-168.5 474,-198.5 613,-198.5 613,-168.5 474,-168.5"/>
<text text-anchor="start" x="482" y="-186.5" font-family="Helvetica,sans-Serif" font-size="10.00">Exceptions/NotImplemented</text>
<text text-anchor="middle" x="543.5" y="-175.5" font-family="Helvetica,sans-Serif" font-size="10.00">Exception.hpp</text>
</a>
</g>
</g>
<!-- Node1&#45;&gt;Node15 -->
<g id="edge17" class="edge">
<title>Node1&#45;&gt;Node15</title>
<path fill="none" stroke="midnightblue" d="M469.11,-235.4C482.43,-226.28 499.96,-214.29 514.66,-204.24"/>
<polygon fill="midnightblue" stroke="midnightblue" points="516.65,-207.11 522.93,-198.58 512.7,-201.33 516.65,-207.11"/>
</g>
<!-- Node3 -->
<g id="node3" class="node">
<title>Node3</title>
<g id="a_node3"><a xlink:title=" ">
<polygon fill="none" stroke="#bfbfbf" points="349.5,-56.5 349.5,-75.5 393.5,-75.5 393.5,-56.5 349.5,-56.5"/>
<text text-anchor="middle" x="371.5" y="-63.5" font-family="Helvetica,sans-Serif" font-size="10.00">vector</text>
</a>
</g>
</g>
<!-- Node2&#45;&gt;Node3 -->
<g id="edge2" class="edge">
<title>Node2&#45;&gt;Node3</title>
<path fill="none" stroke="midnightblue" d="M371.5,-168.34C371.5,-147.62 371.5,-109.02 371.5,-85.9"/>
<polygon fill="midnightblue" stroke="midnightblue" points="375,-85.67 371.5,-75.67 368,-85.67 375,-85.67"/>
</g>
<!-- Node4 -->
<g id="node4" class="node">
<title>Node4</title>
<g id="a_node4"><a xlink:href="Client_8hpp.html" target="_top" xlink:title=" ">
<polygon fill="none" stroke="black" points="7.5,-112.5 7.5,-131.5 119.5,-131.5 119.5,-112.5 7.5,-112.5"/>
<text text-anchor="middle" x="63.5" y="-119.5" font-family="Helvetica,sans-Serif" font-size="10.00">Networking/Client.hpp</text>
</a>
</g>
</g>
<!-- Node2&#45;&gt;Node4 -->
<g id="edge3" class="edge">
<title>Node2&#45;&gt;Node4</title>
<path fill="none" stroke="midnightblue" d="M304.29,-169.52C248.37,-158.71 169.77,-143.53 117.78,-133.49"/>
<polygon fill="midnightblue" stroke="midnightblue" points="118.24,-130.01 107.75,-131.55 116.91,-136.88 118.24,-130.01"/>
</g>
<!-- Node6 -->
<g id="node6" class="node">
<title>Node6</title>
<g id="a_node6"><a xlink:href="GameObject_8hpp.html" target="_top" xlink:title=" ">
<polygon fill="none" stroke="black" points="180,-112.5 180,-131.5 269,-131.5 269,-112.5 180,-112.5"/>
<text text-anchor="middle" x="224.5" y="-119.5" font-family="Helvetica,sans-Serif" font-size="10.00">GameObject.hpp</text>
</a>
</g>
</g>
<!-- Node2&#45;&gt;Node6 -->
<g id="edge5" class="edge">
<title>Node2&#45;&gt;Node6</title>
<path fill="none" stroke="midnightblue" d="M336.66,-168.4C312,-158.42 279.21,-145.15 255.47,-135.53"/>
<polygon fill="midnightblue" stroke="midnightblue" points="256.47,-132.17 245.89,-131.66 253.85,-138.65 256.47,-132.17"/>
</g>
<!-- Node12 -->
<g id="node12" class="node">
<title>Node12</title>
<g id="a_node12"><a xlink:href="ProtocolPackages_8hpp.html" target="_top" xlink:title=" ">
<polygon fill="none" stroke="black" points="405.5,-112.5 405.5,-131.5 519.5,-131.5 519.5,-112.5 405.5,-112.5"/>
<text text-anchor="middle" x="462.5" y="-119.5" font-family="Helvetica,sans-Serif" font-size="10.00">ProtocolPackages.hpp</text>
</a>
</g>
</g>
<!-- Node2&#45;&gt;Node12 -->
<g id="edge14" class="edge">
<title>Node2&#45;&gt;Node12</title>
<path fill="none" stroke="midnightblue" d="M393.07,-168.4C407.38,-159.04 426.11,-146.79 440.51,-137.38"/>
<polygon fill="midnightblue" stroke="midnightblue" points="442.8,-140.06 449.26,-131.66 438.97,-134.2 442.8,-140.06"/>
</g>
<!-- Node5 -->
<g id="node5" class="node">
<title>Node5</title>
<g id="a_node5"><a xlink:title=" ">
<polygon fill="none" stroke="#bfbfbf" points="0,-56.5 0,-75.5 41,-75.5 41,-56.5 0,-56.5"/>
<text text-anchor="middle" x="20.5" y="-63.5" font-family="Helvetica,sans-Serif" font-size="10.00">string</text>
</a>
</g>
</g>
<!-- Node4&#45;&gt;Node5 -->
<g id="edge4" class="edge">
<title>Node4&#45;&gt;Node5</title>
<path fill="none" stroke="midnightblue" d="M56.4,-112.08C50.26,-104.38 41.23,-93.03 33.76,-83.65"/>
<polygon fill="midnightblue" stroke="midnightblue" points="36.44,-81.39 27.47,-75.75 30.96,-85.75 36.44,-81.39"/>
</g>
<!-- Node6&#45;&gt;Node3 -->
<g id="edge11" class="edge">
<title>Node6&#45;&gt;Node3</title>
<path fill="none" stroke="midnightblue" d="M247.79,-112.44C272.6,-103.33 312.01,-88.85 339.67,-78.69"/>
<polygon fill="midnightblue" stroke="midnightblue" points="341.1,-81.9 349.28,-75.16 338.69,-75.33 341.1,-81.9"/>
</g>
<!-- Node6&#45;&gt;Node5 -->
<g id="edge10" class="edge">
<title>Node6&#45;&gt;Node5</title>
<path fill="none" stroke="midnightblue" d="M189.17,-112.46C155.8,-104.27 104.14,-91.28 50.99,-76.33"/>
<polygon fill="midnightblue" stroke="midnightblue" points="51.63,-72.87 41.06,-73.52 49.73,-79.61 51.63,-72.87"/>
</g>
<!-- Node7 -->
<g id="node7" class="node">
<title>Node7</title>
<g id="a_node7"><a xlink:href="Component_8hpp.html" target="_top" xlink:title=" ">
<polygon fill="none" stroke="black" points="112.5,-56.5 112.5,-75.5 196.5,-75.5 196.5,-56.5 112.5,-56.5"/>
<text text-anchor="middle" x="154.5" y="-63.5" font-family="Helvetica,sans-Serif" font-size="10.00">Component.hpp</text>
</a>
</g>
</g>
<!-- Node6&#45;&gt;Node7 -->
<g id="edge6" class="edge">
<title>Node6&#45;&gt;Node7</title>
<path fill="none" stroke="midnightblue" d="M213.25,-112.32C202.7,-104.18 186.7,-91.84 174.06,-82.09"/>
<polygon fill="midnightblue" stroke="midnightblue" points="176.01,-79.17 165.95,-75.83 171.73,-84.71 176.01,-79.17"/>
</g>
<!-- Node8 -->
<g id="node8" class="node">
<title>Node8</title>
<g id="a_node8"><a xlink:title=" ">
<polygon fill="none" stroke="#bfbfbf" points="162,-0.5 162,-19.5 213,-19.5 213,-0.5 162,-0.5"/>
<text text-anchor="middle" x="187.5" y="-7.5" font-family="Helvetica,sans-Serif" font-size="10.00">memory</text>
</a>
</g>
</g>
<!-- Node6&#45;&gt;Node8 -->
<g id="edge12" class="edge">
<title>Node6&#45;&gt;Node8</title>
<path fill="none" stroke="midnightblue" d="M222.19,-112.08C218.85,-99.48 212.33,-75.78 205.5,-56 202.37,-46.94 198.46,-37.03 195.09,-28.83"/>
<polygon fill="midnightblue" stroke="midnightblue" points="198.29,-27.41 191.2,-19.53 191.83,-30.11 198.29,-27.41"/>
</g>
<!-- Node9 -->
<g id="node9" class="node">
<title>Node9</title>
<g id="a_node9"><a xlink:href="Transform_8hpp.html" target="_top" xlink:title=" ">
<polygon fill="none" stroke="black" points="253,-56.5 253,-75.5 332,-75.5 332,-56.5 253,-56.5"/>
<text text-anchor="middle" x="292.5" y="-63.5" font-family="Helvetica,sans-Serif" font-size="10.00">Transform.hpp</text>
</a>
</g>
</g>
<!-- Node6&#45;&gt;Node9 -->
<g id="edge8" class="edge">
<title>Node6&#45;&gt;Node9</title>
<path fill="none" stroke="midnightblue" d="M235.43,-112.32C245.67,-104.18 261.22,-91.84 273.5,-82.09"/>
<polygon fill="midnightblue" stroke="midnightblue" points="275.72,-84.79 281.38,-75.83 271.37,-79.31 275.72,-84.79"/>
</g>
<!-- Node11 -->
<g id="node11" class="node">
<title>Node11</title>
<g id="a_node11"><a xlink:title=" ">
<polygon fill="none" stroke="#bfbfbf" points="59,-56.5 59,-75.5 94,-75.5 94,-56.5 59,-56.5"/>
<text text-anchor="middle" x="76.5" y="-63.5" font-family="Helvetica,sans-Serif" font-size="10.00">map</text>
</a>
</g>
</g>
<!-- Node6&#45;&gt;Node11 -->
<g id="edge13" class="edge">
<title>Node6&#45;&gt;Node11</title>
<path fill="none" stroke="midnightblue" d="M201.05,-112.44C174.63,-102.8 131.73,-87.15 103.82,-76.97"/>
<polygon fill="midnightblue" stroke="midnightblue" points="104.86,-73.62 94.27,-73.48 102.46,-80.2 104.86,-73.62"/>
</g>
<!-- Node7&#45;&gt;Node8 -->
<g id="edge7" class="edge">
<title>Node7&#45;&gt;Node8</title>
<path fill="none" stroke="midnightblue" d="M159.95,-56.08C164.51,-48.61 171.17,-37.72 176.79,-28.52"/>
<polygon fill="midnightblue" stroke="midnightblue" points="179.92,-30.11 182.15,-19.75 173.95,-26.46 179.92,-30.11"/>
</g>
<!-- Node10 -->
<g id="node10" class="node">
<title>Node10</title>
<g id="a_node10"><a xlink:href="Point_8hpp.html" target="_top" xlink:title=" ">
<polygon fill="none" stroke="black" points="264,-0.5 264,-19.5 321,-19.5 321,-0.5 264,-0.5"/>
<text text-anchor="middle" x="292.5" y="-7.5" font-family="Helvetica,sans-Serif" font-size="10.00">Point.hpp</text>
</a>
</g>
</g>
<!-- Node9&#45;&gt;Node10 -->
<g id="edge9" class="edge">
<title>Node9&#45;&gt;Node10</title>
<path fill="none" stroke="midnightblue" d="M292.5,-56.08C292.5,-49.01 292.5,-38.86 292.5,-29.99"/>
<polygon fill="midnightblue" stroke="midnightblue" points="296,-29.75 292.5,-19.75 289,-29.75 296,-29.75"/>
</g>
<!-- Node13 -->
<g id="node13" class="node">
<title>Node13</title>
<g id="a_node13"><a xlink:title=" ">
<polygon fill="none" stroke="#bfbfbf" points="545.5,-56.5 545.5,-75.5 591.5,-75.5 591.5,-56.5 545.5,-56.5"/>
<text text-anchor="middle" x="568.5" y="-63.5" font-family="Helvetica,sans-Serif" font-size="10.00">cstdint</text>
</a>
</g>
</g>
<!-- Node12&#45;&gt;Node13 -->
<g id="edge15" class="edge">
<title>Node12&#45;&gt;Node13</title>
<path fill="none" stroke="midnightblue" d="M479.53,-112.32C496.53,-103.66 522.88,-90.24 542.49,-80.25"/>
<polygon fill="midnightblue" stroke="midnightblue" points="544.19,-83.31 551.51,-75.65 541.01,-77.08 544.19,-83.31"/>
</g>
<!-- Node14 -->
<g id="node14" class="node">
<title>Node14</title>
<g id="a_node14"><a xlink:href="ProtocolDefinitions_8hpp.html" target="_top" xlink:title=" ">
<polygon fill="none" stroke="black" points="411.5,-56.5 411.5,-75.5 527.5,-75.5 527.5,-56.5 411.5,-56.5"/>
<text text-anchor="middle" x="469.5" y="-63.5" font-family="Helvetica,sans-Serif" font-size="10.00">ProtocolDefinitions.hpp</text>
</a>
</g>
</g>
<!-- Node12&#45;&gt;Node14 -->
<g id="edge16" class="edge">
<title>Node12&#45;&gt;Node14</title>
<path fill="none" stroke="midnightblue" d="M463.66,-112.08C464.58,-104.93 465.92,-94.64 467.08,-85.69"/>
<polygon fill="midnightblue" stroke="midnightblue" points="470.55,-86.12 468.37,-75.75 463.61,-85.22 470.55,-86.12"/>
</g>
<!-- Node16 -->
<g id="node16" class="node">
<title>Node16</title>
<g id="a_node16"><a xlink:title=" ">
<polygon fill="none" stroke="#bfbfbf" points="538,-112.5 538,-131.5 597,-131.5 597,-112.5 538,-112.5"/>
<text text-anchor="middle" x="567.5" y="-119.5" font-family="Helvetica,sans-Serif" font-size="10.00">stdexcept</text>
</a>
</g>
</g>
<!-- Node15&#45;&gt;Node16 -->
<g id="edge18" class="edge">
<title>Node15&#45;&gt;Node16</title>
<path fill="none" stroke="midnightblue" d="M549.19,-168.4C552.5,-160.2 556.7,-149.78 560.24,-140.99"/>
<polygon fill="midnightblue" stroke="midnightblue" points="563.51,-142.24 564.01,-131.66 557.02,-139.62 563.51,-142.24"/>
</g>
</g>
</svg>
