<?xml version="1.0" encoding="UTF-8" standalone="no"?>
<!DOCTYPE svg PUBLIC "-//W3C//DTD SVG 1.1//EN"
 "http://www.w3.org/Graphics/SVG/1.1/DTD/svg11.dtd">
<!-- Generated by graphviz version 2.44.0 ()
 -->
<!-- Title: includes/platformer&#45;engine/Networking/ServerNetworkManager.hpp Pages: 1 -->
<!--zoomable 184 -->
<svg id="main" version="1.1" xmlns="http://www.w3.org/2000/svg" xmlns:xlink="http://www.w3.org/1999/xlink" xml:space="preserve" onload="init(evt)">
<style type="text/css"><![CDATA[
.edge:hover path { stroke: red; }
.edge:hover polygon { stroke: red; fill: red; }
]]></style>
<script type="text/javascript"><![CDATA[
var edges = document.getElementsByTagName('g');
if (edges && edges.length) {
  for (var i=0;i<edges.length;i++) {
    if (edges[i].id.substr(0,4)=='edge') {
      edges[i].setAttribute('class','edge');
    }
  }
}
]]></script>
        <defs>
                <circle id="rim" cx="0" cy="0" r="7"/>
                <circle id="rim2" cx="0" cy="0" r="3.5"/>
                <g id="zoomPlus">
                        <use xlink:href="#rim" fill="#404040">
                                <set attributeName="fill" to="#808080" begin="zoomplus.mouseover" end="zoomplus.mouseout"/>
                        </use>
                        <path d="M-4,0h8M0,-4v8" fill="none" stroke="white" stroke-width="1.5" pointer-events="none"/>
                </g>
                <g id="zoomMin">
                        <use xlink:href="#rim" fill="#404040">
                                <set attributeName="fill" to="#808080" begin="zoomminus.mouseover" end="zoomminus.mouseout"/>
                        </use>
                        <path d="M-4,0h8" fill="none" stroke="white" stroke-width="1.5" pointer-events="none"/>
                </g>
                <g id="dirArrow">
                        <path fill="none" stroke="white" stroke-width="1.5" d="M0,-3.0v7 M-2.5,-0.5L0,-3.0L2.5,-0.5"/>
                </g>
               <g id="resetDef">
                       <use xlink:href="#rim2" fill="#404040">
                               <set attributeName="fill" to="#808080" begin="reset.mouseover" end="reset.mouseout"/>
                       </use>
               </g>
        </defs>

<script type="text/javascript">
var viewWidth = 974;
var viewHeight = 184;
var sectionId = 'dynsection-1';
</script>
<script xlink:href="svgpan.js"/>
<svg id="graph" class="graph">
<g id="viewport">
<title>includes/platformer&#45;engine/Networking/ServerNetworkManager.hpp</title>
<!-- Node1 -->
<g id="node1" class="node">
<title>Node1</title>
<g id="a_node1"><a xlink:title=" ">
<polygon fill="#bfbfbf" stroke="black" points="164,-134.5 164,-175.5 333,-175.5 333,-134.5 164,-134.5"/>
<text text-anchor="start" x="172" y="-163.5" font-family="Helvetica,sans-Serif" font-size="10.00">includes/platformer</text>
<text text-anchor="start" x="172" y="-152.5" font-family="Helvetica,sans-Serif" font-size="10.00">&#45;engine/Networking/ServerNetwork</text>
<text text-anchor="middle" x="248.5" y="-141.5" font-family="Helvetica,sans-Serif" font-size="10.00">Manager.hpp</text>
</a>
</g>
</g>
<!-- Node2 -->
<g id="node2" class="node">
<title>Node2</title>
<g id="a_node2"><a xlink:href="ServerNetworkManager_8cpp.html" target="_top" xlink:title=" ">
<polygon fill="none" stroke="black" points="0,-0.5 0,-30.5 151,-30.5 151,-0.5 0,-0.5"/>
<text text-anchor="start" x="8" y="-18.5" font-family="Helvetica,sans-Serif" font-size="10.00">src/Networking/ServerNetwork</text>
<text text-anchor="middle" x="75.5" y="-7.5" font-family="Helvetica,sans-Serif" font-size="10.00">Manager.cpp</text>
</a>
</g>
</g>
<!-- Node1&#45;&gt;Node2 -->
<g id="edge1" class="edge">
<title>Node1&#45;&gt;Node2</title>
<path fill="none" stroke="midnightblue" d="M215.86,-128.06C179.57,-99.21 122.26,-53.66 93.39,-30.72"/>
<polygon fill="midnightblue" stroke="midnightblue" points="213.71,-130.82 223.71,-134.3 218.06,-125.34 213.71,-130.82"/>
</g>
<!-- Node3 -->
<g id="node3" class="node">
<title>Node3</title>
<g id="a_node3"><a xlink:href="Engine_8hpp.html" target="_top" xlink:title=" ">
<polygon fill="none" stroke="black" points="355,-67.5 355,-97.5 486,-97.5 486,-67.5 355,-67.5"/>
<text text-anchor="start" x="363" y="-85.5" font-family="Helvetica,sans-Serif" font-size="10.00">includes/platformer</text>
<text text-anchor="middle" x="420.5" y="-74.5" font-family="Helvetica,sans-Serif" font-size="10.00">&#45;engine/Engine/Engine.hpp</text>
</a>
</g>
</g>
<!-- Node1&#45;&gt;Node3 -->
<g id="edge2" class="edge">
<title>Node1&#45;&gt;Node3</title>
<path fill="none" stroke="midnightblue" d="M306,-130.43C332.6,-119.53 363.29,-106.95 386.2,-97.56"/>
<polygon fill="midnightblue" stroke="midnightblue" points="304.34,-127.33 296.41,-134.36 306.99,-133.81 304.34,-127.33"/>
</g>
<!-- Node3&#45;&gt;Node2 -->
<g id="edge7" class="edge">
<title>Node3&#45;&gt;Node2</title>
<path fill="none" stroke="midnightblue" d="M344.61,-67.2C286.74,-56.3 207.46,-41.36 149.94,-30.53"/>
<polygon fill="midnightblue" stroke="midnightblue" points="344.32,-70.71 354.8,-69.12 345.62,-63.83 344.32,-70.71"/>
</g>
<!-- Node4 -->
<g id="node4" class="node">
<title>Node4</title>
<g id="a_node4"><a xlink:href="GameObjectDirector_8cpp.html" target="_top" xlink:title=" ">
<polygon fill="none" stroke="black" points="169.5,-6 169.5,-25 345.5,-25 345.5,-6 169.5,-6"/>
<text text-anchor="middle" x="257.5" y="-13" font-family="Helvetica,sans-Serif" font-size="10.00">src/Director/GameObjectDirector.cpp</text>
</a>
</g>
</g>
<!-- Node3&#45;&gt;Node4 -->
<g id="edge3" class="edge">
<title>Node3&#45;&gt;Node4</title>
<path fill="none" stroke="midnightblue" d="M375.67,-63.62C344.12,-51.04 303.31,-34.77 278.83,-25.01"/>
<polygon fill="midnightblue" stroke="midnightblue" points="374.55,-66.94 385.13,-67.4 377.14,-60.44 374.55,-66.94"/>
</g>
<!-- Node5 -->
<g id="node5" class="node">
<title>Node5</title>
<g id="a_node5"><a xlink:href="Engine_8cpp.html" target="_top" xlink:title=" ">
<polygon fill="none" stroke="black" points="364,-6 364,-25 477,-25 477,-6 364,-6"/>
<text text-anchor="middle" x="420.5" y="-13" font-family="Helvetica,sans-Serif" font-size="10.00">src/Engine/Engine.cpp</text>
</a>
</g>
</g>
<!-- Node3&#45;&gt;Node5 -->
<g id="edge4" class="edge">
<title>Node3&#45;&gt;Node5</title>
<path fill="none" stroke="midnightblue" d="M420.5,-57.25C420.5,-46.02 420.5,-33.38 420.5,-25.19"/>
<polygon fill="midnightblue" stroke="midnightblue" points="417,-57.4 420.5,-67.4 424,-57.4 417,-57.4"/>
</g>
<!-- Node6 -->
<g id="node6" class="node">
<title>Node6</title>
<g id="a_node6"><a xlink:href="TMXParser_8cpp.html" target="_top" xlink:title=" ">
<polygon fill="none" stroke="black" points="495.5,-6 495.5,-25 631.5,-25 631.5,-6 495.5,-6"/>
<text text-anchor="middle" x="563.5" y="-13" font-family="Helvetica,sans-Serif" font-size="10.00">src/Facade/TMXParser.cpp</text>
</a>
</g>
</g>
<!-- Node3&#45;&gt;Node6 -->
<g id="edge5" class="edge">
<title>Node3&#45;&gt;Node6</title>
<path fill="none" stroke="midnightblue" d="M460.91,-63.13C488.43,-50.62 523.59,-34.64 544.78,-25.01"/>
<polygon fill="midnightblue" stroke="midnightblue" points="459.18,-60.07 451.53,-67.4 462.08,-66.44 459.18,-60.07"/>
</g>
<!-- Node7 -->
<g id="node7" class="node">
<title>Node7</title>
<g id="a_node7"><a xlink:href="ClientNetworkManager_8cpp.html" target="_top" xlink:title=" ">
<polygon fill="none" stroke="black" points="650,-0.5 650,-30.5 797,-30.5 797,-0.5 650,-0.5"/>
<text text-anchor="start" x="658" y="-18.5" font-family="Helvetica,sans-Serif" font-size="10.00">src/Networking/ClientNetwork</text>
<text text-anchor="middle" x="723.5" y="-7.5" font-family="Helvetica,sans-Serif" font-size="10.00">Manager.cpp</text>
</a>
</g>
</g>
<!-- Node3&#45;&gt;Node7 -->
<g id="edge6" class="edge">
<title>Node3&#45;&gt;Node7</title>
<path fill="none" stroke="midnightblue" d="M495.94,-65.32C545.74,-54.63 610.34,-40.77 657.98,-30.55"/>
<polygon fill="midnightblue" stroke="midnightblue" points="494.92,-61.96 485.87,-67.48 496.39,-68.8 494.92,-61.96"/>
</g>
<!-- Node8 -->
<g id="node8" class="node">
<title>Node8</title>
<g id="a_node8"><a xlink:href="RenderSystem_8cpp.html" target="_top" xlink:title=" ">
<polygon fill="none" stroke="black" points="815.5,-6 815.5,-25 965.5,-25 965.5,-6 815.5,-6"/>
<text text-anchor="middle" x="890.5" y="-13" font-family="Helvetica,sans-Serif" font-size="10.00">src/Texture/RenderSystem.cpp</text>
</a>
</g>
</g>
<!-- Node3&#45;&gt;Node8 -->
<g id="edge8" class="edge">
<title>Node3&#45;&gt;Node8</title>
<path fill="none" stroke="midnightblue" d="M496.39,-72.5C574.32,-63.04 699.06,-47.29 806.5,-31 818.35,-29.2 831.11,-27.09 843.02,-25.04"/>
<polygon fill="midnightblue" stroke="midnightblue" points="495.69,-69.06 486.18,-73.74 496.53,-76.01 495.69,-69.06"/>
</g>
</g>
</svg>
        <g id="navigator" transform="translate(0 0)" fill="#404254">
                <rect fill="#f2f5e9" fill-opacity="0.5" stroke="#606060" stroke-width=".5" x="0" y="0" width="60" height="60"/>
                <use id="zoomplus" xlink:href="#zoomPlus" x="17" y="9" onmousedown="handleZoom(evt,'in')"/>
                <use id="zoomminus" xlink:href="#zoomMin" x="42" y="9" onmousedown="handleZoom(evt,'out')"/>
                <use id="reset" xlink:href="#resetDef" x="30" y="36" onmousedown="handleReset()"/>
                <g id="arrowUp" xlink:href="#dirArrow" transform="translate(30 24)" onmousedown="handlePan(0,-1)">
                  <use xlink:href="#rim" fill="#404040">
                        <set attributeName="fill" to="#808080" begin="arrowUp.mouseover" end="arrowUp.mouseout"/>
                  </use>
                  <path fill="none" stroke="white" stroke-width="1.5" d="M0,-3.0v7 M-2.5,-0.5L0,-3.0L2.5,-0.5"/>
                </g>
                <g id="arrowRight" xlink:href="#dirArrow" transform="rotate(90) translate(36 -43)" onmousedown="handlePan(1,0)">
                  <use xlink:href="#rim" fill="#404040">
                        <set attributeName="fill" to="#808080" begin="arrowRight.mouseover" end="arrowRight.mouseout"/>
                  </use>
                  <path fill="none" stroke="white" stroke-width="1.5" d="M0,-3.0v7 M-2.5,-0.5L0,-3.0L2.5,-0.5"/>
                </g>
                <g id="arrowDown" xlink:href="#dirArrow" transform="rotate(180) translate(-30 -48)" onmousedown="handlePan(0,1)">
                  <use xlink:href="#rim" fill="#404040">
                        <set attributeName="fill" to="#808080" begin="arrowDown.mouseover" end="arrowDown.mouseout"/>
                  </use>
                  <path fill="none" stroke="white" stroke-width="1.5" d="M0,-3.0v7 M-2.5,-0.5L0,-3.0L2.5,-0.5"/>
                </g>
                <g id="arrowLeft" xlink:href="#dirArrow" transform="rotate(270) translate(-36 17)" onmousedown="handlePan(-1,0)">
                  <use xlink:href="#rim" fill="#404040">
                        <set attributeName="fill" to="#808080" begin="arrowLeft.mouseover" end="arrowLeft.mouseout"/>
                  </use>
                  <path fill="none" stroke="white" stroke-width="1.5" d="M0,-3.0v7 M-2.5,-0.5L0,-3.0L2.5,-0.5"/>
                </g>
        </g>
        <svg viewBox="0 0 15 15" width="100%" height="30px" preserveAspectRatio="xMaxYMin meet">
         <g id="arrow_out" transform="scale(0.3 0.3)">
          <a xlink:href="ServerNetworkManager_8hpp__dep__incl_org.svg" target="_base">
           <rect id="button" ry="5" rx="5" y="6" x="6" height="38" width="38"
                fill="#f2f5e9" fill-opacity="0.5" stroke="#606060" stroke-width="1.0"/>
           <path id="arrow"
             d="M 11.500037,31.436501 C 11.940474,20.09759 22.043105,11.32322 32.158766,21.979434 L 37.068811,17.246167 C 37.068811,17.246167 37.088388,32 37.088388,32 L 22.160133,31.978069 C 22.160133,31.978069 26.997745,27.140456 26.997745,27.140456 C 18.528582,18.264221 13.291696,25.230495 11.500037,31.436501 z"
             style="fill:#404040;"/>
          </a>
         </g>
        </svg>
</svg>
