<svg xmlns="http://www.w3.org/2000/svg" xmlns:xlink="http://www.w3.org/1999/xlink" width="1046pt" height="218pt" viewBox="0 0 1046 218"><g id="graph0" class="graph" transform="scale(1 1) rotate(0) translate(4 214)"><title>includes/spic-prj-api/Sprite.hpp</title><g id="node1" class="node"><title>Node1</title><g id="a_node1"><a><polygon fill="#bfbfbf" stroke="#000" points="517 -179.5 517 -209.5 620 -209.5 620 -179.5 517 -179.5"/><text x="525" y="-197.5" font-family="Helvetica,sans-Serif" font-size="10" text-anchor="start">includes/spic-prj-api</text><text x="568.5" y="-186.5" font-family="Helvetica,sans-Serif" font-size="10" text-anchor="middle">/Sprite.hpp</text></a></g></g><g id="node2" class="node"><title>Node2</title><g id="a_node2"><a target="_top" xlink:href="Component_8hpp.html"><polygon fill="none" stroke="#000" points="288.5 -123.5 288.5 -142.5 372.5 -142.5 372.5 -123.5 288.5 -123.5"/><text x="330.5" y="-130.5" font-family="Helvetica,sans-Serif" font-size="10" text-anchor="middle">Component.hpp</text></a></g></g><g id="edge1" class="edge"><title>Node1-&gt;Node2</title><path fill="none" stroke="#191970" d="M516.86,-180.59C474.38,-169.97 414.84,-155.09 374.58,-145.02"/><polygon fill="#191970" stroke="#191970" points="375.33 -141.6 364.78 -142.57 373.64 -148.39 375.33 -141.6"/></g><g id="node4" class="node"><title>Node4</title><g id="a_node4"><a><polygon fill="none" stroke="#bfbfbf" points="0 -56.5 0 -86.5 95 -86.5 95 -56.5 0 -56.5"/><text x="8" y="-74.5" font-family="Helvetica,sans-Serif" font-size="10" text-anchor="start">boost/serialization</text><text x="47.5" y="-63.5" font-family="Helvetica,sans-Serif" font-size="10" text-anchor="middle">/access.hpp</text></a></g></g><g id="edge26" class="edge"><title>Node1-&gt;Node4</title><path fill="none" stroke="#191970" d="M516.95,-186.43C458.85,-178.02 361.75,-162.6 279.5,-143 216.04,-127.87 144.39,-105.22 97.72,-89.7"/><polygon fill="#191970" stroke="#191970" points="98.75 -86.36 88.16 -86.51 96.53 -93 98.75 -86.36"/></g><g id="node8" class="node"><title>Node8</title><g id="a_node8"><a target="_top" xlink:href="Color_8hpp.html"><polygon fill="none" stroke="#000" points="316 -.5 316 -19.5 373 -19.5 373 -.5 316 -.5"/><text x="344.5" y="-7.5" font-family="Helvetica,sans-Serif" font-size="10" text-anchor="middle">Color.hpp</text></a></g></g><g id="edge7" class="edge"><title>Node1-&gt;Node8</title><path fill="none" stroke="#191970" d="M554.01,-179.46C544.15,-169.62 531.02,-155.96 520.5,-143 490.9,-106.53 497.36,-85.11 460.5,-56 447.88,-46.03 410.68,-32.43 381.77,-22.8"/><polygon fill="#191970" stroke="#191970" points="382.54 -19.36 371.95 -19.57 380.35 -26.01 382.54 -19.36"/></g><g id="node9" class="node"><title>Node9</title><g id="a_node9"><a><polygon fill="none" stroke="#bfbfbf" points="997 -.5 997 -19.5 1038 -19.5 1038 -.5 997 -.5"/><text x="1017.5" y="-7.5" font-family="Helvetica,sans-Serif" font-size="10" text-anchor="middle">string</text></a></g></g><g id="edge8" class="edge"><title>Node1-&gt;Node9</title><path fill="none" stroke="#191970" d="M620.18,-192.37C679.9,-189.32 779.89,-178.73 857.5,-143 919.46,-114.48 977.32,-55.9 1003.23,-27.36"/><polygon fill="#191970" stroke="#191970" points="1006.17 -29.32 1010.21 -19.53 1000.95 -24.66 1006.17 -29.32"/></g><g id="node10" class="node"><title>Node10</title><g id="a_node10"><a target="_top" xlink:href="GraphicsFacade_8hpp.html"><polygon fill="none" stroke="#000" points="609 -62 609 -81 750 -81 750 -62 609 -62"/><text x="679.5" y="-69" font-family="Helvetica,sans-Serif" font-size="10" text-anchor="middle">Facade/GraphicsFacade.hpp</text></a></g></g><g id="edge9" class="edge"><title>Node1-&gt;Node10</title><path fill="none" stroke="#191970" d="M582.84,-179.1C592.72,-169.09 606.06,-155.38 617.5,-143 634.33,-124.79 653.05,-103.32 665.47,-88.9"/><polygon fill="#191970" stroke="#191970" points="668.14 -91.17 672 -81.3 662.83 -86.61 668.14 -91.17"/></g><g id="node18" class="node"><title>Node18</title><g id="a_node18"><a target="_top" xlink:href="Transform_8hpp.html"><polygon fill="none" stroke="#000" points="529 -123.5 529 -142.5 608 -142.5 608 -123.5 529 -123.5"/><text x="568.5" y="-130.5" font-family="Helvetica,sans-Serif" font-size="10" text-anchor="middle">Transform.hpp</text></a></g></g><g id="edge20" class="edge"><title>Node1-&gt;Node18</title><path fill="none" stroke="#191970" d="M568.5,-179.4C568.5,-171.47 568.5,-161.46 568.5,-152.86"/><polygon fill="#191970" stroke="#191970" points="572 -152.66 568.5 -142.66 565 -152.66 572 -152.66"/></g><g id="node20" class="node"><title>Node20</title><g id="a_node20"><a target="_top" xlink:href="TextureManager_8hpp.html"><polygon fill="none" stroke="#000" points="708.5 -123.5 708.5 -142.5 848.5 -142.5 848.5 -123.5 708.5 -123.5"/><text x="778.5" y="-130.5" font-family="Helvetica,sans-Serif" font-size="10" text-anchor="middle">Texture/TextureManager.hpp</text></a></g></g><g id="edge22" class="edge"><title>Node1-&gt;Node20</title><path fill="none" stroke="#191970" d="M618,-179.47C654.86,-169.03 704.53,-154.96 738.81,-145.25"/><polygon fill="#191970" stroke="#191970" points="739.81 -148.6 748.48 -142.51 737.9 -141.87 739.81 -148.6"/></g><g id="node3" class="node"><title>Node3</title><g id="a_node3"><a><polygon fill="none" stroke="#bfbfbf" points="247 -.5 247 -19.5 298 -19.5 298 -.5 247 -.5"/><text x="272.5" y="-7.5" font-family="Helvetica,sans-Serif" font-size="10" text-anchor="middle">memory</text></a></g></g><g id="edge2" class="edge"><title>Node2-&gt;Node3</title><path fill="none" stroke="#191970" d="M372.77,-126.92C397.85,-121.48 427.74,-110.24 443.5,-87 451.23,-75.6 451.91,-66.91 443.5,-56 406.93,-8.58 371.06,-33.32 308.04,-20.13"/><polygon fill="#191970" stroke="#191970" points="308.66 -16.68 298.12 -17.79 307.04 -23.49 308.66 -16.68"/></g><g id="edge3" class="edge"><title>Node2-&gt;Node4</title><path fill="none" stroke="#191970" d="M288.09,-124.35C244.43,-116.3 174.2,-102.9 104.89,-87.25"/><polygon fill="#191970" stroke="#191970" points="105.64 -83.83 95.11 -85.03 104.09 -90.66 105.64 -83.83"/></g><g id="node5" class="node"><title>Node5</title><g id="a_node5"><a><polygon fill="none" stroke="#bfbfbf" points="113 -56.5 113 -86.5 208 -86.5 208 -56.5 113 -56.5"/><text x="121" y="-74.5" font-family="Helvetica,sans-Serif" font-size="10" text-anchor="start">boost/serialization</text><text x="160.5" y="-63.5" font-family="Helvetica,sans-Serif" font-size="10" text-anchor="middle">/map.hpp</text></a></g></g><g id="edge4" class="edge"><title>Node2-&gt;Node5</title><path fill="none" stroke="#191970" d="M306.14,-123.48C281.18,-114.74 241.66,-100.91 210.09,-89.86"/><polygon fill="#191970" stroke="#191970" points="211.16 -86.52 200.57 -86.52 208.85 -93.13 211.16 -86.52"/></g><g id="node6" class="node"><title>Node6</title><g id="a_node6"><a><polygon fill="none" stroke="#bfbfbf" points="226 -56.5 226 -86.5 321 -86.5 321 -56.5 226 -56.5"/><text x="234" y="-74.5" font-family="Helvetica,sans-Serif" font-size="10" text-anchor="start">boost/serialization</text><text x="273.5" y="-63.5" font-family="Helvetica,sans-Serif" font-size="10" text-anchor="middle">/vector.hpp</text></a></g></g><g id="edge5" class="edge"><title>Node2-&gt;Node6</title><path fill="none" stroke="#191970" d="M322.33,-123.48C314.97,-115.79 303.84,-104.17 294.06,-93.96"/><polygon fill="#191970" stroke="#191970" points="296.38 -91.32 286.93 -86.52 291.32 -96.17 296.38 -91.32"/></g><g id="node7" class="node"><title>Node7</title><g id="a_node7"><a><polygon fill="none" stroke="#bfbfbf" points="339 -56.5 339 -86.5 434 -86.5 434 -56.5 339 -56.5"/><text x="347" y="-74.5" font-family="Helvetica,sans-Serif" font-size="10" text-anchor="start">boost/serialization</text><text x="386.5" y="-63.5" font-family="Helvetica,sans-Serif" font-size="10" text-anchor="middle">/shared_ptr.hpp</text></a></g></g><g id="edge6" class="edge"><title>Node2-&gt;Node7</title><path fill="none" stroke="#191970" d="M338.52,-123.48C345.75,-115.79 356.69,-104.17 366.3,-93.96"/><polygon fill="#191970" stroke="#191970" points="369 -96.2 373.3 -86.52 363.9 -91.41 369 -96.2"/></g><g id="edge15" class="edge"><title>Node10-&gt;Node3</title><path fill="none" stroke="#191970" d="M635.7,-61.98C624.27,-59.89 611.94,-57.75 600.5,-56 473.55,-36.59 437.51,-44.49 307.94,-20.06"/><polygon fill="#191970" stroke="#191970" points="308.51 -16.6 298.03 -18.16 307.2 -23.48 308.51 -16.6"/></g><g id="edge13" class="edge"><title>Node10-&gt;Node8</title><path fill="none" stroke="#191970" d="M633.57,-61.93C622.73,-59.94 611.22,-57.87 600.5,-56 506.88,-39.68 480.46,-39.33 383.06,-19.99"/><polygon fill="#191970" stroke="#191970" points="383.58 -16.53 373.09 -17.99 382.21 -23.39 383.58 -16.53"/></g><g id="edge17" class="edge"><title>Node10-&gt;Node9</title><path fill="none" stroke="#191970" d="M728.93,-61.99C740.59,-60 752.98,-57.91 764.5,-56 860.87,-40.04 888.61,-42.8 986.95,-20.12"/><polygon fill="#191970" stroke="#191970" points="987.75 -23.53 996.69 -17.85 986.15 -16.71 987.75 -23.53"/></g><g id="node11" class="node"><title>Node11</title><g id="a_node11"><a><polygon fill="none" stroke="#bfbfbf" points="391 -.5 391 -19.5 462 -19.5 462 -.5 391 -.5"/><text x="426.5" y="-7.5" font-family="Helvetica,sans-Serif" font-size="10" text-anchor="middle">SDL2/SDL.h</text></a></g></g><g id="edge10" class="edge"><title>Node10-&gt;Node11</title><path fill="none" stroke="#191970" d="M643.25,-61.98C598.22,-51.39 521.36,-33.31 472.3,-21.77"/><polygon fill="#191970" stroke="#191970" points="472.81 -18.3 462.27 -19.41 471.21 -25.11 472.81 -18.3"/></g><g id="node12" class="node"><title>Node12</title><g id="a_node12"><a><polygon fill="none" stroke="#bfbfbf" points="480 -.5 480 -19.5 583 -19.5 583 -.5 480 -.5"/><text x="531.5" y="-7.5" font-family="Helvetica,sans-Serif" font-size="10" text-anchor="middle">SDL2/SDL_image.h</text></a></g></g><g id="edge11" class="edge"><title>Node10-&gt;Node12</title><path fill="none" stroke="#191970" d="M658.3,-61.98C633.13,-51.86 590.96,-34.9 562.22,-23.35"/><polygon fill="#191970" stroke="#191970" points="563.25 -19.99 552.67 -19.51 560.64 -26.49 563.25 -19.99"/></g><g id="node13" class="node"><title>Node13</title><g id="a_node13"><a><polygon fill="none" stroke="#bfbfbf" points="601.5 -.5 601.5 -19.5 655.5 -19.5 655.5 -.5 601.5 -.5"/><text x="628.5" y="-7.5" font-family="Helvetica,sans-Serif" font-size="10" text-anchor="middle">iostream</text></a></g></g><g id="edge12" class="edge"><title>Node10-&gt;Node13</title><path fill="none" stroke="#191970" d="M672.19,-61.98C664.47,-52.96 652.09,-38.52 642.48,-27.31"/><polygon fill="#191970" stroke="#191970" points="644.96 -24.82 635.79 -19.51 639.64 -29.38 644.96 -24.82"/></g><g id="node14" class="node"><title>Node14</title><g id="a_node14"><a target="_top" xlink:href="NumberUtil_8hpp.html"><polygon fill="none" stroke="#000" points="673.5 -.5 673.5 -19.5 785.5 -19.5 785.5 -.5 673.5 -.5"/><text x="729.5" y="-7.5" font-family="Helvetica,sans-Serif" font-size="10" text-anchor="middle">Utility/NumberUtil.hpp</text></a></g></g><g id="edge14" class="edge"><title>Node10-&gt;Node14</title><path fill="none" stroke="#191970" d="M686.66,-61.98C694.24,-52.96 706.37,-38.52 715.79,-27.31"/><polygon fill="#191970" stroke="#191970" points="718.6 -29.42 722.35 -19.51 713.24 -24.91 718.6 -29.42"/></g><g id="node15" class="node"><title>Node15</title><g id="a_node15"><a><polygon fill="none" stroke="#bfbfbf" points="804 -.5 804 -19.5 863 -19.5 863 -.5 804 -.5"/><text x="833.5" y="-7.5" font-family="Helvetica,sans-Serif" font-size="10" text-anchor="middle">functional</text></a></g></g><g id="edge16" class="edge"><title>Node10-&gt;Node15</title><path fill="none" stroke="#191970" d="M701.56,-61.98C727.87,-51.81 772.01,-34.76 801.92,-23.2"/><polygon fill="#191970" stroke="#191970" points="803.41 -26.38 811.48 -19.51 800.89 -19.85 803.41 -26.38"/></g><g id="node16" class="node"><title>Node16</title><g id="a_node16"><a><polygon fill="none" stroke="#bfbfbf" points="881.5 -.5 881.5 -19.5 925.5 -19.5 925.5 -.5 881.5 -.5"/><text x="903.5" y="-7.5" font-family="Helvetica,sans-Serif" font-size="10" text-anchor="middle">vector</text></a></g></g><g id="edge18" class="edge"><title>Node10-&gt;Node16</title><path fill="none" stroke="#191970" d="M713.39,-61.92C750.03,-52.59 810.38,-37.02 871.38,-20.26"/><polygon fill="#191970" stroke="#191970" points="872.46 -23.59 881.17 -17.56 870.6 -16.84 872.46 -23.59"/></g><g id="node17" class="node"><title>Node17</title><g id="a_node17"><a><polygon fill="none" stroke="#bfbfbf" points="944 -.5 944 -19.5 979 -19.5 979 -.5 944 -.5"/><text x="961.5" y="-7.5" font-family="Helvetica,sans-Serif" font-size="10" text-anchor="middle">map</text></a></g></g><g id="edge19" class="edge"><title>Node10-&gt;Node17</title><path fill="none" stroke="#191970" d="M726.33,-61.96C784.74,-51.19 882.27,-32.79 933.89,-19.83"/><polygon fill="#191970" stroke="#191970" points="935.08 -23.13 943.88 -17.23 933.32 -16.36 935.08 -23.13"/></g><g id="node19" class="node"><title>Node19</title><g id="a_node19"><a target="_top" xlink:href="Point_8hpp.html"><polygon fill="none" stroke="#000" points="534 -62 534 -81 591 -81 591 -62 534 -62"/><text x="562.5" y="-69" font-family="Helvetica,sans-Serif" font-size="10" text-anchor="middle">Point.hpp</text></a></g></g><g id="edge21" class="edge"><title>Node18-&gt;Node19</title><path fill="none" stroke="#191970" d="M567.64,-123.48C566.79,-115.08 565.47,-101.98 564.38,-91.16"/><polygon fill="#191970" stroke="#191970" points="567.84 -90.61 563.36 -81.01 560.88 -91.31 567.84 -90.61"/></g><g id="edge23" class="edge"><title>Node20-&gt;Node9</title><path fill="none" stroke="#191970" d="M778.03,-123.47C777.67,-107.68 779.34,-73.86 798.5,-56 859.09,0.49 901.92,-37.77 987.21,-19.93"/><polygon fill="#191970" stroke="#191970" points="988.03 -23.34 996.99 -17.68 986.46 -16.52 988.03 -23.34"/></g><g id="edge25" class="edge"><title>Node20-&gt;Node10</title><path fill="none" stroke="#191970" d="M764.32,-123.48C748.14,-113.75 721.47,-97.73 702.36,-86.24"/><polygon fill="#191970" stroke="#191970" points="704.03 -83.16 693.66 -81.01 700.43 -89.16 704.03 -83.16"/></g><g id="node21" class="node"><title>Node21</title><g id="a_node21"><a><polygon fill="none" stroke="#bfbfbf" points="807 -62 807 -81 846 -81 846 -62 807 -62"/><text x="826.5" y="-69" font-family="Helvetica,sans-Serif" font-size="10" text-anchor="middle">utility</text></a></g></g><g id="edge24" class="edge"><title>Node20-&gt;Node21</title><path fill="none" stroke="#191970" d="M785.38,-123.48C792.65,-114.46 804.3,-100.02 813.34,-88.81"/><polygon fill="#191970" stroke="#191970" points="816.08 -90.99 819.64 -81.01 810.63 -86.59 816.08 -90.99"/></g></g></svg>