<?xml version="1.0" encoding="UTF-8" standalone="no"?>
<!DOCTYPE svg PUBLIC "-//W3C//DTD SVG 1.1//EN"
 "http://www.w3.org/Graphics/SVG/1.1/DTD/svg11.dtd">
<!-- Generated by graphviz version 2.44.0 ()
 -->
<!-- Title: NetPkgs::MessageHeader Pages: 1 -->
<!--zoomable 259 -->
<svg id="main" version="1.1" xmlns="http://www.w3.org/2000/svg" xmlns:xlink="http://www.w3.org/1999/xlink" xml:space="preserve" onload="init(evt)">
<style type="text/css"><![CDATA[
.edge:hover path { stroke: red; }
.edge:hover polygon { stroke: red; fill: red; }
]]></style>
<script type="text/javascript"><![CDATA[
var edges = document.getElementsByTagName('g');
if (edges && edges.length) {
  for (var i=0;i<edges.length;i++) {
    if (edges[i].id.substr(0,4)=='edge') {
      edges[i].setAttribute('class','edge');
    }
  }
}
]]></script>
        <defs>
                <circle id="rim" cx="0" cy="0" r="7"/>
                <circle id="rim2" cx="0" cy="0" r="3.5"/>
                <g id="zoomPlus">
                        <use xlink:href="#rim" fill="#404040">
                                <set attributeName="fill" to="#808080" begin="zoomplus.mouseover" end="zoomplus.mouseout"/>
                        </use>
                        <path d="M-4,0h8M0,-4v8" fill="none" stroke="white" stroke-width="1.5" pointer-events="none"/>
                </g>
                <g id="zoomMin">
                        <use xlink:href="#rim" fill="#404040">
                                <set attributeName="fill" to="#808080" begin="zoomminus.mouseover" end="zoomminus.mouseout"/>
                        </use>
                        <path d="M-4,0h8" fill="none" stroke="white" stroke-width="1.5" pointer-events="none"/>
                </g>
                <g id="dirArrow">
                        <path fill="none" stroke="white" stroke-width="1.5" d="M0,-3.0v7 M-2.5,-0.5L0,-3.0L2.5,-0.5"/>
                </g>
               <g id="resetDef">
                       <use xlink:href="#rim2" fill="#404040">
                               <set attributeName="fill" to="#808080" begin="reset.mouseover" end="reset.mouseout"/>
                       </use>
               </g>
        </defs>

<script type="text/javascript">
var viewWidth = 912;
var viewHeight = 259;
var sectionId = 'dynsection-0';
</script>
<script xlink:href="svgpan.js"/>
<svg id="graph" class="graph">
<g id="viewport">
<title>NetPkgs::MessageHeader</title>
<!-- Node1 -->
<g id="node1" class="node">
<title>Node1</title>
<g id="a_node1"><a xlink:title="The base class for all protocol packages.">
<polygon fill="#bfbfbf" stroke="black" points="418,-160.5 418,-250.5 566,-250.5 566,-160.5 418,-160.5"/>
<text text-anchor="middle" x="492" y="-238.5" font-family="Helvetica,sans-Serif" font-size="10.00">NetPkgs::MessageHeader</text>
<polyline fill="none" stroke="black" points="418,-231.5 566,-231.5 "/>
<text text-anchor="start" x="426" y="-219.5" font-family="Helvetica,sans-Serif" font-size="10.00">+ uint8_t protocolMajorVersion</text>
<text text-anchor="start" x="426" y="-208.5" font-family="Helvetica,sans-Serif" font-size="10.00">+ uint8_t protocolMinorVersion</text>
<text text-anchor="start" x="426" y="-197.5" font-family="Helvetica,sans-Serif" font-size="10.00">+ uint8_t packageType</text>
<polyline fill="none" stroke="black" points="418,-190.5 566,-190.5 "/>
<text text-anchor="start" x="426" y="-178.5" font-family="Helvetica,sans-Serif" font-size="10.00">+ MessageHeader(uint8</text>
<text text-anchor="start" x="426" y="-167.5" font-family="Helvetica,sans-Serif" font-size="10.00">_t packageType=0)</text>
</a>
</g>
</g>
<!-- Node2 -->
<g id="node2" class="node">
<title>Node2</title>
<g id="a_node2"><a xlink:href="structNetPkgs_1_1ClientDisconnection.html" target="_top" xlink:title="The package that is sent when a client wants to disconnect from the server.">
<polygon fill="none" stroke="black" points="0,-33.5 0,-90.5 146,-90.5 146,-33.5 0,-33.5"/>
<text text-anchor="middle" x="73" y="-78.5" font-family="Helvetica,sans-Serif" font-size="10.00">NetPkgs::ClientDisconnection</text>
<polyline fill="none" stroke="black" points="0,-71.5 146,-71.5 "/>
<text text-anchor="middle" x="73" y="-59.5" font-family="Helvetica,sans-Serif" font-size="10.00"> </text>
<polyline fill="none" stroke="black" points="0,-52.5 146,-52.5 "/>
<text text-anchor="start" x="8" y="-40.5" font-family="Helvetica,sans-Serif" font-size="10.00">+ ClientDisconnection()</text>
</a>
</g>
</g>
<!-- Node1&#45;&gt;Node2 -->
<g id="edge1" class="edge">
<title>Node1&#45;&gt;Node2</title>
<path fill="none" stroke="midnightblue" d="M407.72,-194.04C337.59,-183.1 236.42,-162.04 155,-124 136.67,-115.44 118.41,-102.41 103.78,-90.58"/>
<polygon fill="none" stroke="midnightblue" points="407.42,-197.53 417.84,-195.58 408.48,-190.61 407.42,-197.53"/>
</g>
<!-- Node3 -->
<g id="node3" class="node">
<title>Node3</title>
<g id="a_node3"><a xlink:href="structNetPkgs_1_1CreateGameObject.html" target="_top" xlink:title=" ">
<polygon fill="none" stroke="black" points="164.5,-11.5 164.5,-112.5 325.5,-112.5 325.5,-11.5 164.5,-11.5"/>
<text text-anchor="middle" x="245" y="-100.5" font-family="Helvetica,sans-Serif" font-size="10.00">NetPkgs::CreateGameObject</text>
<polyline fill="none" stroke="black" points="164.5,-93.5 325.5,-93.5 "/>
<text text-anchor="start" x="172.5" y="-81.5" font-family="Helvetica,sans-Serif" font-size="10.00">+ size_t _gameObjectDataLength</text>
<text text-anchor="start" x="172.5" y="-70.5" font-family="Helvetica,sans-Serif" font-size="10.00">+ char _data</text>
<polyline fill="none" stroke="black" points="164.5,-63.5 325.5,-63.5 "/>
<text text-anchor="start" x="172.5" y="-51.5" font-family="Helvetica,sans-Serif" font-size="10.00">+ CreateGameObject()</text>
<text text-anchor="start" x="172.5" y="-40.5" font-family="Helvetica,sans-Serif" font-size="10.00">+ CreateGameObject(const</text>
<text text-anchor="start" x="172.5" y="-29.5" font-family="Helvetica,sans-Serif" font-size="10.00"> char *data, size_t gameObject</text>
<text text-anchor="start" x="172.5" y="-18.5" font-family="Helvetica,sans-Serif" font-size="10.00">DataLength)</text>
</a>
</g>
</g>
<!-- Node1&#45;&gt;Node3 -->
<g id="edge2" class="edge">
<title>Node1&#45;&gt;Node3</title>
<path fill="none" stroke="midnightblue" d="M408.54,-164.52C384.16,-152.16 357.7,-138.08 334,-124 328.04,-120.46 321.95,-116.67 315.88,-112.77"/>
<polygon fill="none" stroke="midnightblue" points="407.27,-167.8 417.77,-169.17 410.42,-161.55 407.27,-167.8"/>
</g>
<!-- Node4 -->
<g id="node4" class="node">
<title>Node4</title>
<g id="a_node4"><a xlink:href="structNetPkgs_1_1DestroyGameObject.html" target="_top" xlink:title=" ">
<polygon fill="none" stroke="black" points="343.5,-22.5 343.5,-101.5 490.5,-101.5 490.5,-22.5 343.5,-22.5"/>
<text text-anchor="middle" x="417" y="-89.5" font-family="Helvetica,sans-Serif" font-size="10.00">NetPkgs::DestroyGameObject</text>
<polyline fill="none" stroke="black" points="343.5,-82.5 490.5,-82.5 "/>
<text text-anchor="start" x="351.5" y="-70.5" font-family="Helvetica,sans-Serif" font-size="10.00">+ char _data</text>
<polyline fill="none" stroke="black" points="343.5,-63.5 490.5,-63.5 "/>
<text text-anchor="start" x="351.5" y="-51.5" font-family="Helvetica,sans-Serif" font-size="10.00">+ DestroyGameObject()</text>
<text text-anchor="start" x="351.5" y="-40.5" font-family="Helvetica,sans-Serif" font-size="10.00">+ DestroyGameObject</text>
<text text-anchor="start" x="351.5" y="-29.5" font-family="Helvetica,sans-Serif" font-size="10.00">(const char *gameObjectId)</text>
</a>
</g>
</g>
<!-- Node1&#45;&gt;Node4 -->
<g id="edge3" class="edge">
<title>Node1&#45;&gt;Node4</title>
<path fill="none" stroke="midnightblue" d="M463.75,-151.19C455.08,-134.84 445.71,-117.17 437.65,-101.97"/>
<polygon fill="none" stroke="midnightblue" points="460.7,-152.92 468.48,-160.12 466.88,-149.64 460.7,-152.92"/>
</g>
<!-- Node5 -->
<g id="node5" class="node">
<title>Node5</title>
<g id="a_node5"><a xlink:href="structNetPkgs_1_1KickClient.html" target="_top" xlink:title=" ">
<polygon fill="none" stroke="black" points="508.5,-33.5 508.5,-90.5 627.5,-90.5 627.5,-33.5 508.5,-33.5"/>
<text text-anchor="middle" x="568" y="-78.5" font-family="Helvetica,sans-Serif" font-size="10.00">NetPkgs::KickClient</text>
<polyline fill="none" stroke="black" points="508.5,-71.5 627.5,-71.5 "/>
<text text-anchor="start" x="516.5" y="-59.5" font-family="Helvetica,sans-Serif" font-size="10.00">+ int clientId</text>
<polyline fill="none" stroke="black" points="508.5,-52.5 627.5,-52.5 "/>
<text text-anchor="start" x="516.5" y="-40.5" font-family="Helvetica,sans-Serif" font-size="10.00">+ KickClient(int clientId)</text>
</a>
</g>
</g>
<!-- Node1&#45;&gt;Node5 -->
<g id="edge4" class="edge">
<title>Node1&#45;&gt;Node5</title>
<path fill="none" stroke="midnightblue" d="M520.65,-151.15C531.69,-130.6 543.85,-107.96 553.08,-90.77"/>
<polygon fill="none" stroke="midnightblue" points="517.49,-149.65 515.84,-160.12 523.65,-152.96 517.49,-149.65"/>
</g>
<!-- Node6 -->
<g id="node6" class="node">
<title>Node6</title>
<g id="a_node6"><a xlink:href="structNetPkgs_1_1Ping.html" target="_top" xlink:title=" ">
<polygon fill="none" stroke="black" points="645.5,-33.5 645.5,-90.5 724.5,-90.5 724.5,-33.5 645.5,-33.5"/>
<text text-anchor="middle" x="685" y="-78.5" font-family="Helvetica,sans-Serif" font-size="10.00">NetPkgs::Ping</text>
<polyline fill="none" stroke="black" points="645.5,-71.5 724.5,-71.5 "/>
<text text-anchor="middle" x="685" y="-59.5" font-family="Helvetica,sans-Serif" font-size="10.00"> </text>
<polyline fill="none" stroke="black" points="645.5,-52.5 724.5,-52.5 "/>
<text text-anchor="start" x="653.5" y="-40.5" font-family="Helvetica,sans-Serif" font-size="10.00">+ Ping()</text>
</a>
</g>
</g>
<!-- Node1&#45;&gt;Node6 -->
<g id="edge5" class="edge">
<title>Node1&#45;&gt;Node6</title>
<path fill="none" stroke="midnightblue" d="M575.14,-165.73C596.42,-153.89 618.49,-139.76 637,-124 648.29,-114.39 658.73,-101.77 666.98,-90.51"/>
<polygon fill="none" stroke="midnightblue" points="573.19,-162.81 566.09,-170.67 576.54,-168.96 573.19,-162.81"/>
</g>
<!-- Node7 -->
<g id="node7" class="node">
<title>Node7</title>
<g id="a_node7"><a xlink:href="structNetPkgs_1_1UpdateGameObjectTransform.html" target="_top" xlink:title=" ">
<polygon fill="none" stroke="black" points="742.5,-0.5 742.5,-123.5 903.5,-123.5 903.5,-0.5 742.5,-0.5"/>
<text text-anchor="start" x="750.5" y="-111.5" font-family="Helvetica,sans-Serif" font-size="10.00">NetPkgs::UpdateGameObject</text>
<text text-anchor="middle" x="823" y="-100.5" font-family="Helvetica,sans-Serif" font-size="10.00">Transform</text>
<polyline fill="none" stroke="black" points="742.5,-93.5 903.5,-93.5 "/>
<text text-anchor="start" x="750.5" y="-81.5" font-family="Helvetica,sans-Serif" font-size="10.00">+ char _gameObjectId</text>
<text text-anchor="start" x="750.5" y="-70.5" font-family="Helvetica,sans-Serif" font-size="10.00">+ char _data</text>
<polyline fill="none" stroke="black" points="742.5,-63.5 903.5,-63.5 "/>
<text text-anchor="start" x="750.5" y="-51.5" font-family="Helvetica,sans-Serif" font-size="10.00">+ UpdateGameObjectTransform()</text>
<text text-anchor="start" x="750.5" y="-40.5" font-family="Helvetica,sans-Serif" font-size="10.00">+ UpdateGameObjectTransform</text>
<text text-anchor="start" x="750.5" y="-29.5" font-family="Helvetica,sans-Serif" font-size="10.00">(const char *gameObjectId,</text>
<text text-anchor="start" x="750.5" y="-18.5" font-family="Helvetica,sans-Serif" font-size="10.00"> const char *data, size_t</text>
<text text-anchor="start" x="750.5" y="-7.5" font-family="Helvetica,sans-Serif" font-size="10.00"> dataLength)</text>
</a>
</g>
</g>
<!-- Node1&#45;&gt;Node7 -->
<g id="edge6" class="edge">
<title>Node1&#45;&gt;Node7</title>
<path fill="none" stroke="midnightblue" d="M575.79,-182.91C623.46,-169.1 683.54,-149.06 734,-124 736.77,-122.63 739.55,-121.17 742.33,-119.66"/>
<polygon fill="none" stroke="midnightblue" points="574.77,-179.56 566.12,-185.68 576.7,-186.29 574.77,-179.56"/>
</g>
</g>
</svg>
        <g id="navigator" transform="translate(0 0)" fill="#404254">
                <rect fill="#f2f5e9" fill-opacity="0.5" stroke="#606060" stroke-width=".5" x="0" y="0" width="60" height="60"/>
                <use id="zoomplus" xlink:href="#zoomPlus" x="17" y="9" onmousedown="handleZoom(evt,'in')"/>
                <use id="zoomminus" xlink:href="#zoomMin" x="42" y="9" onmousedown="handleZoom(evt,'out')"/>
                <use id="reset" xlink:href="#resetDef" x="30" y="36" onmousedown="handleReset()"/>
                <g id="arrowUp" xlink:href="#dirArrow" transform="translate(30 24)" onmousedown="handlePan(0,-1)">
                  <use xlink:href="#rim" fill="#404040">
                        <set attributeName="fill" to="#808080" begin="arrowUp.mouseover" end="arrowUp.mouseout"/>
                  </use>
                  <path fill="none" stroke="white" stroke-width="1.5" d="M0,-3.0v7 M-2.5,-0.5L0,-3.0L2.5,-0.5"/>
                </g>
                <g id="arrowRight" xlink:href="#dirArrow" transform="rotate(90) translate(36 -43)" onmousedown="handlePan(1,0)">
                  <use xlink:href="#rim" fill="#404040">
                        <set attributeName="fill" to="#808080" begin="arrowRight.mouseover" end="arrowRight.mouseout"/>
                  </use>
                  <path fill="none" stroke="white" stroke-width="1.5" d="M0,-3.0v7 M-2.5,-0.5L0,-3.0L2.5,-0.5"/>
                </g>
                <g id="arrowDown" xlink:href="#dirArrow" transform="rotate(180) translate(-30 -48)" onmousedown="handlePan(0,1)">
                  <use xlink:href="#rim" fill="#404040">
                        <set attributeName="fill" to="#808080" begin="arrowDown.mouseover" end="arrowDown.mouseout"/>
                  </use>
                  <path fill="none" stroke="white" stroke-width="1.5" d="M0,-3.0v7 M-2.5,-0.5L0,-3.0L2.5,-0.5"/>
                </g>
                <g id="arrowLeft" xlink:href="#dirArrow" transform="rotate(270) translate(-36 17)" onmousedown="handlePan(-1,0)">
                  <use xlink:href="#rim" fill="#404040">
                        <set attributeName="fill" to="#808080" begin="arrowLeft.mouseover" end="arrowLeft.mouseout"/>
                  </use>
                  <path fill="none" stroke="white" stroke-width="1.5" d="M0,-3.0v7 M-2.5,-0.5L0,-3.0L2.5,-0.5"/>
                </g>
        </g>
        <svg viewBox="0 0 15 15" width="100%" height="30px" preserveAspectRatio="xMaxYMin meet">
         <g id="arrow_out" transform="scale(0.3 0.3)">
          <a xlink:href="structNetPkgs_1_1MessageHeader__inherit__graph_org.svg" target="_base">
           <rect id="button" ry="5" rx="5" y="6" x="6" height="38" width="38"
                fill="#f2f5e9" fill-opacity="0.5" stroke="#606060" stroke-width="1.0"/>
           <path id="arrow"
             d="M 11.500037,31.436501 C 11.940474,20.09759 22.043105,11.32322 32.158766,21.979434 L 37.068811,17.246167 C 37.068811,17.246167 37.088388,32 37.088388,32 L 22.160133,31.978069 C 22.160133,31.978069 26.997745,27.140456 26.997745,27.140456 C 18.528582,18.264221 13.291696,25.230495 11.500037,31.436501 z"
             style="fill:#404040;"/>
          </a>
         </g>
        </svg>
</svg>
