<?xml version="1.0" encoding="UTF-8" standalone="no"?>
<!DOCTYPE svg PUBLIC "-//W3C//DTD SVG 1.1//EN"
 "http://www.w3.org/Graphics/SVG/1.1/DTD/svg11.dtd">
<!-- Generated by graphviz version 2.44.0 ()
 -->
<!-- Title: NetPkgs::MessageHeader Pages: 1 -->
<!--zoomable 259 -->
<svg id="main" version="1.1" xmlns="http://www.w3.org/2000/svg" xmlns:xlink="http://www.w3.org/1999/xlink" xml:space="preserve" onload="init(evt)">
<style type="text/css"><![CDATA[
.edge:hover path { stroke: red; }
.edge:hover polygon { stroke: red; fill: red; }
]]></style>
<script type="text/javascript"><![CDATA[
var edges = document.getElementsByTagName('g');
if (edges && edges.length) {
  for (var i=0;i<edges.length;i++) {
    if (edges[i].id.substr(0,4)=='edge') {
      edges[i].setAttribute('class','edge');
    }
  }
}
]]></script>
        <defs>
                <circle id="rim" cx="0" cy="0" r="7"/>
                <circle id="rim2" cx="0" cy="0" r="3.5"/>
                <g id="zoomPlus">
                        <use xlink:href="#rim" fill="#404040">
                                <set attributeName="fill" to="#808080" begin="zoomplus.mouseover" end="zoomplus.mouseout"/>
                        </use>
                        <path d="M-4,0h8M0,-4v8" fill="none" stroke="white" stroke-width="1.5" pointer-events="none"/>
                </g>
                <g id="zoomMin">
                        <use xlink:href="#rim" fill="#404040">
                                <set attributeName="fill" to="#808080" begin="zoomminus.mouseover" end="zoomminus.mouseout"/>
                        </use>
                        <path d="M-4,0h8" fill="none" stroke="white" stroke-width="1.5" pointer-events="none"/>
                </g>
                <g id="dirArrow">
                        <path fill="none" stroke="white" stroke-width="1.5" d="M0,-3.0v7 M-2.5,-0.5L0,-3.0L2.5,-0.5"/>
                </g>
               <g id="resetDef">
                       <use xlink:href="#rim2" fill="#404040">
                               <set attributeName="fill" to="#808080" begin="reset.mouseover" end="reset.mouseout"/>
                       </use>
               </g>
        </defs>

<script type="text/javascript">
var viewWidth = 1576;
var viewHeight = 259;
var sectionId = 'dynsection-0';
</script>
<script xlink:href="svgpan.js"/>
<svg id="graph" class="graph">
<g id="viewport">
<title>NetPkgs::MessageHeader</title>
<!-- Node1 -->
<g id="node1" class="node">
<title>Node1</title>
<g id="a_node1"><a xlink:title="The base class for all protocol packages.">
<polygon fill="#bfbfbf" stroke="black" points="746,-160.5 746,-250.5 894,-250.5 894,-160.5 746,-160.5"/>
<text text-anchor="middle" x="820" y="-238.5" font-family="Helvetica,sans-Serif" font-size="10.00">NetPkgs::MessageHeader</text>
<polyline fill="none" stroke="black" points="746,-231.5 894,-231.5 "/>
<text text-anchor="start" x="754" y="-219.5" font-family="Helvetica,sans-Serif" font-size="10.00">+ uint8_t protocolMajorVersion</text>
<text text-anchor="start" x="754" y="-208.5" font-family="Helvetica,sans-Serif" font-size="10.00">+ uint8_t protocolMinorVersion</text>
<text text-anchor="start" x="754" y="-197.5" font-family="Helvetica,sans-Serif" font-size="10.00">+ uint8_t packageType</text>
<polyline fill="none" stroke="black" points="746,-190.5 894,-190.5 "/>
<text text-anchor="start" x="754" y="-178.5" font-family="Helvetica,sans-Serif" font-size="10.00">+ MessageHeader(uint8</text>
<text text-anchor="start" x="754" y="-167.5" font-family="Helvetica,sans-Serif" font-size="10.00">_t packageType=0)</text>
</a>
</g>
</g>
<!-- Node2 -->
<g id="node2" class="node">
<title>Node2</title>
<g id="a_node2"><a xlink:href="structNetPkgs_1_1ClientDisconnection.html" target="_top" xlink:title="The package that is sent when a client wants to disconnect from the server.">
<polygon fill="none" stroke="black" points="0,-33.5 0,-90.5 146,-90.5 146,-33.5 0,-33.5"/>
<text text-anchor="middle" x="73" y="-78.5" font-family="Helvetica,sans-Serif" font-size="10.00">NetPkgs::ClientDisconnection</text>
<polyline fill="none" stroke="black" points="0,-71.5 146,-71.5 "/>
<text text-anchor="middle" x="73" y="-59.5" font-family="Helvetica,sans-Serif" font-size="10.00"> </text>
<polyline fill="none" stroke="black" points="0,-52.5 146,-52.5 "/>
<text text-anchor="start" x="8" y="-40.5" font-family="Helvetica,sans-Serif" font-size="10.00">+ ClientDisconnection()</text>
</a>
</g>
</g>
<!-- Node1&#45;&gt;Node2 -->
<g id="edge1" class="edge">
<title>Node1&#45;&gt;Node2</title>
<path fill="none" stroke="midnightblue" d="M735.45,-199.68C580.78,-189.98 258.66,-165.41 155,-124 135.72,-116.3 116.94,-102.9 102.22,-90.61"/>
<polygon fill="none" stroke="midnightblue" points="735.64,-203.2 745.84,-200.33 736.07,-196.21 735.64,-203.2"/>
</g>
<!-- Node3 -->
<g id="node3" class="node">
<title>Node3</title>
<g id="a_node3"><a xlink:href="structNetPkgs_1_1CreateGameObject.html" target="_top" xlink:title=" ">
<polygon fill="none" stroke="black" points="164.5,-11.5 164.5,-112.5 325.5,-112.5 325.5,-11.5 164.5,-11.5"/>
<text text-anchor="middle" x="245" y="-100.5" font-family="Helvetica,sans-Serif" font-size="10.00">NetPkgs::CreateGameObject</text>
<polyline fill="none" stroke="black" points="164.5,-93.5 325.5,-93.5 "/>
<text text-anchor="start" x="172.5" y="-81.5" font-family="Helvetica,sans-Serif" font-size="10.00">+ size_t _gameObjectDataLength</text>
<text text-anchor="start" x="172.5" y="-70.5" font-family="Helvetica,sans-Serif" font-size="10.00">+ char _data</text>
<polyline fill="none" stroke="black" points="164.5,-63.5 325.5,-63.5 "/>
<text text-anchor="start" x="172.5" y="-51.5" font-family="Helvetica,sans-Serif" font-size="10.00">+ CreateGameObject()</text>
<text text-anchor="start" x="172.5" y="-40.5" font-family="Helvetica,sans-Serif" font-size="10.00">+ CreateGameObject(const</text>
<text text-anchor="start" x="172.5" y="-29.5" font-family="Helvetica,sans-Serif" font-size="10.00"> char *data, size_t gameObject</text>
<text text-anchor="start" x="172.5" y="-18.5" font-family="Helvetica,sans-Serif" font-size="10.00">DataLength)</text>
</a>
</g>
</g>
<!-- Node1&#45;&gt;Node3 -->
<g id="edge2" class="edge">
<title>Node1&#45;&gt;Node3</title>
<path fill="none" stroke="midnightblue" d="M735.7,-201.59C636.35,-195.69 467.86,-177.85 334,-124 326.18,-120.85 318.36,-116.93 310.78,-112.6"/>
<polygon fill="none" stroke="midnightblue" points="735.51,-205.08 745.69,-202.16 735.9,-198.09 735.51,-205.08"/>
</g>
<!-- Node4 -->
<g id="node4" class="node">
<title>Node4</title>
<g id="a_node4"><a xlink:href="structNetPkgs_1_1CreatePlayerCharacter.html" target="_top" xlink:title=" ">
<polygon fill="none" stroke="black" points="343.5,-11.5 343.5,-112.5 500.5,-112.5 500.5,-11.5 343.5,-11.5"/>
<text text-anchor="middle" x="422" y="-100.5" font-family="Helvetica,sans-Serif" font-size="10.00">NetPkgs::CreatePlayerCharacter</text>
<polyline fill="none" stroke="black" points="343.5,-93.5 500.5,-93.5 "/>
<text text-anchor="start" x="351.5" y="-81.5" font-family="Helvetica,sans-Serif" font-size="10.00">+ size_t _characterLength</text>
<text text-anchor="start" x="351.5" y="-70.5" font-family="Helvetica,sans-Serif" font-size="10.00">+ char _data</text>
<polyline fill="none" stroke="black" points="343.5,-63.5 500.5,-63.5 "/>
<text text-anchor="start" x="351.5" y="-51.5" font-family="Helvetica,sans-Serif" font-size="10.00">+ CreatePlayerCharacter()</text>
<text text-anchor="start" x="351.5" y="-40.5" font-family="Helvetica,sans-Serif" font-size="10.00">+ CreatePlayerCharacter</text>
<text text-anchor="start" x="351.5" y="-29.5" font-family="Helvetica,sans-Serif" font-size="10.00">(const char *data, size</text>
<text text-anchor="start" x="351.5" y="-18.5" font-family="Helvetica,sans-Serif" font-size="10.00">_t characterLength)</text>
</a>
</g>
</g>
<!-- Node1&#45;&gt;Node4 -->
<g id="edge3" class="edge">
<title>Node1&#45;&gt;Node4</title>
<path fill="none" stroke="midnightblue" d="M735.76,-190.94C671.82,-178.7 582.8,-157.4 510,-124 502.9,-120.74 495.77,-116.92 488.79,-112.79"/>
<polygon fill="none" stroke="midnightblue" points="735.33,-194.42 745.8,-192.83 736.62,-187.54 735.33,-194.42"/>
</g>
<!-- Node5 -->
<g id="node5" class="node">
<title>Node5</title>
<g id="a_node5"><a xlink:href="structNetPkgs_1_1CreateScene.html" target="_top" xlink:title=" ">
<polygon fill="none" stroke="black" points="519,-11.5 519,-112.5 653,-112.5 653,-11.5 519,-11.5"/>
<text text-anchor="middle" x="586" y="-100.5" font-family="Helvetica,sans-Serif" font-size="10.00">NetPkgs::CreateScene</text>
<polyline fill="none" stroke="black" points="519,-93.5 653,-93.5 "/>
<text text-anchor="start" x="527" y="-81.5" font-family="Helvetica,sans-Serif" font-size="10.00">+ size_t _sceneDataLength</text>
<text text-anchor="start" x="527" y="-70.5" font-family="Helvetica,sans-Serif" font-size="10.00">+ char _data</text>
<polyline fill="none" stroke="black" points="519,-63.5 653,-63.5 "/>
<text text-anchor="start" x="527" y="-51.5" font-family="Helvetica,sans-Serif" font-size="10.00">+ CreateScene()</text>
<text text-anchor="start" x="527" y="-40.5" font-family="Helvetica,sans-Serif" font-size="10.00">+ CreateScene(const</text>
<text text-anchor="start" x="527" y="-29.5" font-family="Helvetica,sans-Serif" font-size="10.00"> char *data, size_t</text>
<text text-anchor="start" x="527" y="-18.5" font-family="Helvetica,sans-Serif" font-size="10.00"> sceneDataLength)</text>
</a>
</g>
</g>
<!-- Node1&#45;&gt;Node5 -->
<g id="edge4" class="edge">
<title>Node1&#45;&gt;Node5</title>
<path fill="none" stroke="midnightblue" d="M736.9,-166.17C712.2,-153.72 685.49,-139.18 662,-124 656.6,-120.51 651.13,-116.71 645.73,-112.77"/>
<polygon fill="none" stroke="midnightblue" points="735.38,-169.33 745.89,-170.66 738.51,-163.06 735.38,-169.33"/>
</g>
<!-- Node6 -->
<g id="node6" class="node">
<title>Node6</title>
<g id="a_node6"><a xlink:href="structNetPkgs_1_1DestroyGameObject.html" target="_top" xlink:title=" ">
<polygon fill="none" stroke="black" points="671.5,-22.5 671.5,-101.5 818.5,-101.5 818.5,-22.5 671.5,-22.5"/>
<text text-anchor="middle" x="745" y="-89.5" font-family="Helvetica,sans-Serif" font-size="10.00">NetPkgs::DestroyGameObject</text>
<polyline fill="none" stroke="black" points="671.5,-82.5 818.5,-82.5 "/>
<text text-anchor="start" x="679.5" y="-70.5" font-family="Helvetica,sans-Serif" font-size="10.00">+ char _data</text>
<polyline fill="none" stroke="black" points="671.5,-63.5 818.5,-63.5 "/>
<text text-anchor="start" x="679.5" y="-51.5" font-family="Helvetica,sans-Serif" font-size="10.00">+ DestroyGameObject()</text>
<text text-anchor="start" x="679.5" y="-40.5" font-family="Helvetica,sans-Serif" font-size="10.00">+ DestroyGameObject</text>
<text text-anchor="start" x="679.5" y="-29.5" font-family="Helvetica,sans-Serif" font-size="10.00">(const char *gameObjectId)</text>
</a>
</g>
</g>
<!-- Node1&#45;&gt;Node6 -->
<g id="edge5" class="edge">
<title>Node1&#45;&gt;Node6</title>
<path fill="none" stroke="midnightblue" d="M791.75,-151.19C783.08,-134.84 773.71,-117.17 765.65,-101.97"/>
<polygon fill="none" stroke="midnightblue" points="788.7,-152.92 796.48,-160.12 794.88,-149.64 788.7,-152.92"/>
</g>
<!-- Node7 -->
<g id="node7" class="node">
<title>Node7</title>
<g id="a_node7"><a xlink:href="structNetPkgs_1_1KickClient.html" target="_top" xlink:title=" ">
<polygon fill="none" stroke="black" points="836.5,-33.5 836.5,-90.5 955.5,-90.5 955.5,-33.5 836.5,-33.5"/>
<text text-anchor="middle" x="896" y="-78.5" font-family="Helvetica,sans-Serif" font-size="10.00">NetPkgs::KickClient</text>
<polyline fill="none" stroke="black" points="836.5,-71.5 955.5,-71.5 "/>
<text text-anchor="start" x="844.5" y="-59.5" font-family="Helvetica,sans-Serif" font-size="10.00">+ int clientId</text>
<polyline fill="none" stroke="black" points="836.5,-52.5 955.5,-52.5 "/>
<text text-anchor="start" x="844.5" y="-40.5" font-family="Helvetica,sans-Serif" font-size="10.00">+ KickClient(int clientId)</text>
</a>
</g>
</g>
<!-- Node1&#45;&gt;Node7 -->
<g id="edge6" class="edge">
<title>Node1&#45;&gt;Node7</title>
<path fill="none" stroke="midnightblue" d="M848.65,-151.15C859.69,-130.6 871.85,-107.96 881.08,-90.77"/>
<polygon fill="none" stroke="midnightblue" points="845.49,-149.65 843.84,-160.12 851.65,-152.96 845.49,-149.65"/>
</g>
<!-- Node8 -->
<g id="node8" class="node">
<title>Node8</title>
<g id="a_node8"><a xlink:href="structNetPkgs_1_1LoadedTextures.html" target="_top" xlink:title=" ">
<polygon fill="none" stroke="black" points="974,-11.5 974,-112.5 1110,-112.5 1110,-11.5 974,-11.5"/>
<text text-anchor="middle" x="1042" y="-100.5" font-family="Helvetica,sans-Serif" font-size="10.00">NetPkgs::LoadedTextures</text>
<polyline fill="none" stroke="black" points="974,-93.5 1110,-93.5 "/>
<text text-anchor="start" x="982" y="-81.5" font-family="Helvetica,sans-Serif" font-size="10.00">+ size_t _characterLength</text>
<text text-anchor="start" x="982" y="-70.5" font-family="Helvetica,sans-Serif" font-size="10.00">+ char _data</text>
<polyline fill="none" stroke="black" points="974,-63.5 1110,-63.5 "/>
<text text-anchor="start" x="982" y="-51.5" font-family="Helvetica,sans-Serif" font-size="10.00">+ LoadedTextures()</text>
<text text-anchor="start" x="982" y="-40.5" font-family="Helvetica,sans-Serif" font-size="10.00">+ LoadedTextures(const</text>
<text text-anchor="start" x="982" y="-29.5" font-family="Helvetica,sans-Serif" font-size="10.00"> char *data, size_t character</text>
<text text-anchor="start" x="982" y="-18.5" font-family="Helvetica,sans-Serif" font-size="10.00">Length)</text>
</a>
</g>
</g>
<!-- Node1&#45;&gt;Node8 -->
<g id="edge7" class="edge">
<title>Node1&#45;&gt;Node8</title>
<path fill="none" stroke="midnightblue" d="M902.82,-161.57C923.53,-150.01 945.41,-137.07 965,-124 970.39,-120.4 975.88,-116.53 981.31,-112.54"/>
<polygon fill="none" stroke="midnightblue" points="901.09,-158.53 894.03,-166.43 904.48,-164.65 901.09,-158.53"/>
</g>
<!-- Node9 -->
<g id="node9" class="node">
<title>Node9</title>
<g id="a_node9"><a xlink:href="structNetPkgs_1_1Ping.html" target="_top" xlink:title=" ">
<polygon fill="none" stroke="black" points="1128.5,-33.5 1128.5,-90.5 1207.5,-90.5 1207.5,-33.5 1128.5,-33.5"/>
<text text-anchor="middle" x="1168" y="-78.5" font-family="Helvetica,sans-Serif" font-size="10.00">NetPkgs::Ping</text>
<polyline fill="none" stroke="black" points="1128.5,-71.5 1207.5,-71.5 "/>
<text text-anchor="middle" x="1168" y="-59.5" font-family="Helvetica,sans-Serif" font-size="10.00"> </text>
<polyline fill="none" stroke="black" points="1128.5,-52.5 1207.5,-52.5 "/>
<text text-anchor="start" x="1136.5" y="-40.5" font-family="Helvetica,sans-Serif" font-size="10.00">+ Ping()</text>
</a>
</g>
</g>
<!-- Node1&#45;&gt;Node9 -->
<g id="edge8" class="edge">
<title>Node1&#45;&gt;Node9</title>
<path fill="none" stroke="midnightblue" d="M904.03,-196.12C967.34,-186.59 1054.06,-166.41 1119,-124 1131.97,-115.53 1143.1,-102.51 1151.46,-90.67"/>
<polygon fill="none" stroke="midnightblue" points="903.47,-192.66 894.07,-197.56 904.47,-199.59 903.47,-192.66"/>
</g>
<!-- Node10 -->
<g id="node10" class="node">
<title>Node10</title>
<g id="a_node10"><a xlink:href="structNetPkgs_1_1UpdateActiveAnimation.html" target="_top" xlink:title=" ">
<polygon fill="none" stroke="black" points="1226,-11.5 1226,-112.5 1388,-112.5 1388,-11.5 1226,-11.5"/>
<text text-anchor="middle" x="1307" y="-100.5" font-family="Helvetica,sans-Serif" font-size="10.00">NetPkgs::UpdateActiveAnimation</text>
<polyline fill="none" stroke="black" points="1226,-93.5 1388,-93.5 "/>
<text text-anchor="start" x="1234" y="-81.5" font-family="Helvetica,sans-Serif" font-size="10.00">+ char _gameObjectId</text>
<text text-anchor="start" x="1234" y="-70.5" font-family="Helvetica,sans-Serif" font-size="10.00">+ char _animationId</text>
<polyline fill="none" stroke="black" points="1226,-63.5 1388,-63.5 "/>
<text text-anchor="start" x="1234" y="-51.5" font-family="Helvetica,sans-Serif" font-size="10.00">+ UpdateActiveAnimation()</text>
<text text-anchor="start" x="1234" y="-40.5" font-family="Helvetica,sans-Serif" font-size="10.00">+ UpdateActiveAnimation</text>
<text text-anchor="start" x="1234" y="-29.5" font-family="Helvetica,sans-Serif" font-size="10.00">(const char *gameObjectId,</text>
<text text-anchor="start" x="1234" y="-18.5" font-family="Helvetica,sans-Serif" font-size="10.00"> const char *animationId)</text>
</a>
</g>
</g>
<!-- Node1&#45;&gt;Node10 -->
<g id="edge9" class="edge">
<title>Node1&#45;&gt;Node10</title>
<path fill="none" stroke="midnightblue" d="M904.34,-197.14C986.71,-187.73 1114.31,-167.16 1217,-124 1224.66,-120.78 1232.34,-116.87 1239.81,-112.59"/>
<polygon fill="none" stroke="midnightblue" points="903.83,-193.67 894.28,-198.26 904.6,-200.63 903.83,-193.67"/>
</g>
<!-- Node11 -->
<g id="node11" class="node">
<title>Node11</title>
<g id="a_node11"><a xlink:href="structNetPkgs_1_1UpdateGameObjectTransform.html" target="_top" xlink:title=" ">
<polygon fill="none" stroke="black" points="1406.5,-0.5 1406.5,-123.5 1567.5,-123.5 1567.5,-0.5 1406.5,-0.5"/>
<text text-anchor="start" x="1414.5" y="-111.5" font-family="Helvetica,sans-Serif" font-size="10.00">NetPkgs::UpdateGameObject</text>
<text text-anchor="middle" x="1487" y="-100.5" font-family="Helvetica,sans-Serif" font-size="10.00">Transform</text>
<polyline fill="none" stroke="black" points="1406.5,-93.5 1567.5,-93.5 "/>
<text text-anchor="start" x="1414.5" y="-81.5" font-family="Helvetica,sans-Serif" font-size="10.00">+ char _gameObjectId</text>
<text text-anchor="start" x="1414.5" y="-70.5" font-family="Helvetica,sans-Serif" font-size="10.00">+ char _data</text>
<polyline fill="none" stroke="black" points="1406.5,-63.5 1567.5,-63.5 "/>
<text text-anchor="start" x="1414.5" y="-51.5" font-family="Helvetica,sans-Serif" font-size="10.00">+ UpdateGameObjectTransform()</text>
<text text-anchor="start" x="1414.5" y="-40.5" font-family="Helvetica,sans-Serif" font-size="10.00">+ UpdateGameObjectTransform</text>
<text text-anchor="start" x="1414.5" y="-29.5" font-family="Helvetica,sans-Serif" font-size="10.00">(const char *gameObjectId,</text>
<text text-anchor="start" x="1414.5" y="-18.5" font-family="Helvetica,sans-Serif" font-size="10.00"> const char *data, size_t</text>
<text text-anchor="start" x="1414.5" y="-7.5" font-family="Helvetica,sans-Serif" font-size="10.00"> dataLength)</text>
</a>
</g>
</g>
<!-- Node1&#45;&gt;Node11 -->
<g id="edge10" class="edge">
<title>Node1&#45;&gt;Node11</title>
<path fill="none" stroke="midnightblue" d="M904.31,-204.57C1019.42,-202.05 1230.45,-188.05 1397,-124 1400.17,-122.78 1403.34,-121.43 1406.5,-119.98"/>
<polygon fill="none" stroke="midnightblue" points="904.09,-201.07 894.16,-204.76 904.23,-208.07 904.09,-201.07"/>
</g>
</g>
</svg>
        <g id="navigator" transform="translate(0 0)" fill="#404254">
                <rect fill="#f2f5e9" fill-opacity="0.5" stroke="#606060" stroke-width=".5" x="0" y="0" width="60" height="60"/>
                <use id="zoomplus" xlink:href="#zoomPlus" x="17" y="9" onmousedown="handleZoom(evt,'in')"/>
                <use id="zoomminus" xlink:href="#zoomMin" x="42" y="9" onmousedown="handleZoom(evt,'out')"/>
                <use id="reset" xlink:href="#resetDef" x="30" y="36" onmousedown="handleReset()"/>
                <g id="arrowUp" xlink:href="#dirArrow" transform="translate(30 24)" onmousedown="handlePan(0,-1)">
                  <use xlink:href="#rim" fill="#404040">
                        <set attributeName="fill" to="#808080" begin="arrowUp.mouseover" end="arrowUp.mouseout"/>
                  </use>
                  <path fill="none" stroke="white" stroke-width="1.5" d="M0,-3.0v7 M-2.5,-0.5L0,-3.0L2.5,-0.5"/>
                </g>
                <g id="arrowRight" xlink:href="#dirArrow" transform="rotate(90) translate(36 -43)" onmousedown="handlePan(1,0)">
                  <use xlink:href="#rim" fill="#404040">
                        <set attributeName="fill" to="#808080" begin="arrowRight.mouseover" end="arrowRight.mouseout"/>
                  </use>
                  <path fill="none" stroke="white" stroke-width="1.5" d="M0,-3.0v7 M-2.5,-0.5L0,-3.0L2.5,-0.5"/>
                </g>
                <g id="arrowDown" xlink:href="#dirArrow" transform="rotate(180) translate(-30 -48)" onmousedown="handlePan(0,1)">
                  <use xlink:href="#rim" fill="#404040">
                        <set attributeName="fill" to="#808080" begin="arrowDown.mouseover" end="arrowDown.mouseout"/>
                  </use>
                  <path fill="none" stroke="white" stroke-width="1.5" d="M0,-3.0v7 M-2.5,-0.5L0,-3.0L2.5,-0.5"/>
                </g>
                <g id="arrowLeft" xlink:href="#dirArrow" transform="rotate(270) translate(-36 17)" onmousedown="handlePan(-1,0)">
                  <use xlink:href="#rim" fill="#404040">
                        <set attributeName="fill" to="#808080" begin="arrowLeft.mouseover" end="arrowLeft.mouseout"/>
                  </use>
                  <path fill="none" stroke="white" stroke-width="1.5" d="M0,-3.0v7 M-2.5,-0.5L0,-3.0L2.5,-0.5"/>
                </g>
        </g>
        <svg viewBox="0 0 15 15" width="100%" height="30px" preserveAspectRatio="xMaxYMin meet">
         <g id="arrow_out" transform="scale(0.3 0.3)">
          <a xlink:href="structNetPkgs_1_1MessageHeader__inherit__graph_org.svg" target="_base">
           <rect id="button" ry="5" rx="5" y="6" x="6" height="38" width="38"
                fill="#f2f5e9" fill-opacity="0.5" stroke="#606060" stroke-width="1.0"/>
           <path id="arrow"
             d="M 11.500037,31.436501 C 11.940474,20.09759 22.043105,11.32322 32.158766,21.979434 L 37.068811,17.246167 C 37.068811,17.246167 37.088388,32 37.088388,32 L 22.160133,31.978069 C 22.160133,31.978069 26.997745,27.140456 26.997745,27.140456 C 18.528582,18.264221 13.291696,25.230495 11.500037,31.436501 z"
             style="fill:#404040;"/>
          </a>
         </g>
        </svg>
</svg>
