<svg xmlns="http://www.w3.org/2000/svg" xmlns:xlink="http://www.w3.org/1999/xlink" width="208" height="193pt" viewBox="0 0 156 193"><g id="graph0" class="graph" transform="scale(1 1) rotate(0) translate(4 189)"><title>NetPkgs::Ping</title><g id="node1" class="node"><title>Node1</title><g id="a_node1"><a><polygon fill="#bfbfbf" stroke="#000" points="34.5 -.5 34.5 -57.5 113.5 -57.5 113.5 -.5 34.5 -.5"/><text x="74" y="-45.5" font-family="Helvetica,sans-Serif" font-size="10" text-anchor="middle">NetPkgs::Ping</text><polyline fill="none" stroke="#000" points="34.5 -38.5 113.5 -38.5"/><polyline fill="none" stroke="#000" points="34.5 -19.5 113.5 -19.5"/><text x="42.5" y="-7.5" font-family="Helvetica,sans-Serif" font-size="10" text-anchor="start">+ Ping()</text></a></g></g><g id="node2" class="node"><title>Node2</title><g id="a_node2"><a target="_top" xlink:href="structNetPkgs_1_1MessageHeader.html" xlink:title="The base class for all protocol packages."><polygon fill="none" stroke="#000" points="0 -94.5 0 -184.5 148 -184.5 148 -94.5 0 -94.5"/><text x="74" y="-172.5" font-family="Helvetica,sans-Serif" font-size="10" text-anchor="middle">NetPkgs::MessageHeader</text><polyline fill="none" stroke="#000" points="0 -165.5 148 -165.5"/><text x="8" y="-153.5" font-family="Helvetica,sans-Serif" font-size="10" text-anchor="start">+ uint8_t protocolMajorVersion</text><text x="8" y="-142.5" font-family="Helvetica,sans-Serif" font-size="10" text-anchor="start">+ uint8_t protocolMinorVersion</text><text x="8" y="-131.5" font-family="Helvetica,sans-Serif" font-size="10" text-anchor="start">+ uint8_t packageType</text><polyline fill="none" stroke="#000" points="0 -124.5 148 -124.5"/><text x="8" y="-112.5" font-family="Helvetica,sans-Serif" font-size="10" text-anchor="start">+ MessageHeader(uint8</text><text x="8" y="-101.5" font-family="Helvetica,sans-Serif" font-size="10" text-anchor="start">_t packageType=0)</text></a></g></g><g id="edge1" class="edge"><title>Node2-&gt;Node1</title><path fill="none" stroke="#191970" d="M74,-84.35C74,-75.07 74,-65.79 74,-57.59"/><polygon fill="none" stroke="#191970" points="70.5 -84.37 74 -94.37 77.5 -84.37 70.5 -84.37"/></g></g></svg>