<?xml version="1.0" encoding="UTF-8" standalone="no"?>
<!DOCTYPE svg PUBLIC "-//W3C//DTD SVG 1.1//EN"
 "http://www.w3.org/Graphics/SVG/1.1/DTD/svg11.dtd">
<!-- Generated by graphviz version 2.44.0 ()
 -->
<!-- Title: spic::Transform Pages: 1 -->
<svg width="124pt" height="237pt"
 viewBox="0.00 0.00 124.00 237.00" xmlns="http://www.w3.org/2000/svg" xmlns:xlink="http://www.w3.org/1999/xlink">
<g id="graph0" class="graph" transform="scale(1 1) rotate(0) translate(4 233)">
<title>spic::Transform</title>
<!-- Node1 -->
<g id="node1" class="node">
<title>Node1</title>
<g id="a_node1"><a xlink:title="Instances of this class represent specific 2D transformations. @spicapi.">
<polygon fill="#bfbfbf" stroke="black" points="0.5,-0.5 0.5,-79.5 115.5,-79.5 115.5,-0.5 0.5,-0.5"/>
<text text-anchor="middle" x="58" y="-67.5" font-family="Helvetica,sans-Serif" font-size="10.00">spic::Transform</text>
<polyline fill="none" stroke="black" points="0.5,-60.5 115.5,-60.5 "/>
<text text-anchor="start" x="8.5" y="-48.5" font-family="Helvetica,sans-Serif" font-size="10.00">+ double rotation</text>
<text text-anchor="start" x="8.5" y="-37.5" font-family="Helvetica,sans-Serif" font-size="10.00">+ double scale</text>
<polyline fill="none" stroke="black" points="0.5,-30.5 115.5,-30.5 "/>
<text text-anchor="start" x="8.5" y="-18.5" font-family="Helvetica,sans-Serif" font-size="10.00">+ void serialize(archive</text>
<text text-anchor="start" x="8.5" y="-7.5" font-family="Helvetica,sans-Serif" font-size="10.00"> &amp;ar, const unsigned)</text>
</a>
</g>
</g>
<!-- Node2 -->
<g id="node2" class="node">
<title>Node2</title>
<g id="a_node2"><a xlink:href="structspic_1_1Point.html" target="_top" xlink:title="Struct representing both a 2D point and a 2D vector. @spicapi.">
<polygon fill="none" stroke="black" points="0,-127.5 0,-228.5 116,-228.5 116,-127.5 0,-127.5"/>
<text text-anchor="middle" x="58" y="-216.5" font-family="Helvetica,sans-Serif" font-size="10.00">spic::Point</text>
<polyline fill="none" stroke="black" points="0,-209.5 116,-209.5 "/>
<text text-anchor="start" x="8" y="-197.5" font-family="Helvetica,sans-Serif" font-size="10.00">+ double x</text>
<text text-anchor="start" x="8" y="-186.5" font-family="Helvetica,sans-Serif" font-size="10.00">+ double y</text>
<polyline fill="none" stroke="black" points="0,-179.5 116,-179.5 "/>
<text text-anchor="start" x="8" y="-167.5" font-family="Helvetica,sans-Serif" font-size="10.00">+ void serialize(archive</text>
<text text-anchor="start" x="8" y="-156.5" font-family="Helvetica,sans-Serif" font-size="10.00"> &amp;ar, const unsigned)</text>
<text text-anchor="start" x="8" y="-145.5" font-family="Helvetica,sans-Serif" font-size="10.00">+ auto operator*(double</text>
<text text-anchor="start" x="8" y="-134.5" font-family="Helvetica,sans-Serif" font-size="10.00"> multiplier) &#45;&gt; Point</text>
</a>
</g>
</g>
<!-- Node2&#45;&gt;Node1 -->
<g id="edge1" class="edge">
<title>Node2&#45;&gt;Node1</title>
<path fill="none" stroke="#404040" d="M58,-127.13C58,-115.66 58,-103.45 58,-91.94"/>
<polygon fill="none" stroke="#404040" points="58,-91.79 54,-85.79 58,-79.79 62,-85.79 58,-91.79"/>
<text text-anchor="middle" x="79.5" y="-101" font-family="Helvetica,sans-Serif" font-size="10.00"> +position</text>
</g>
</g>
</svg>
