<svg xmlns="http://www.w3.org/2000/svg" xmlns:xlink="http://www.w3.org/1999/xlink" width="164" height="215pt" viewBox="0 0 123 215"><g id="graph0" class="graph" transform="scale(1 1) rotate(0) translate(4 211)"><title>spic::Transform</title><g id="node1" class="node"><title>Node1</title><g id="a_node1"><a xlink:title="Instances of this class represent specific 2D transformations. @spicapi."><polygon fill="#bfbfbf" stroke="#000" points="0 -.5 0 -79.5 115 -79.5 115 -.5 0 -.5"/><text x="57.5" y="-67.5" font-family="Helvetica,sans-Serif" font-size="10" text-anchor="middle">spic::Transform</text><polyline fill="none" stroke="#000" points="0 -60.5 115 -60.5"/><text x="8" y="-48.5" font-family="Helvetica,sans-Serif" font-size="10" text-anchor="start">+ double rotation</text><text x="8" y="-37.5" font-family="Helvetica,sans-Serif" font-size="10" text-anchor="start">+ double scale</text><polyline fill="none" stroke="#000" points="0 -30.5 115 -30.5"/><text x="8" y="-18.5" font-family="Helvetica,sans-Serif" font-size="10" text-anchor="start">+ void serialize(archive</text><text x="8" y="-7.5" font-family="Helvetica,sans-Serif" font-size="10" text-anchor="start">&amp;ar, const unsigned)</text></a></g></g><g id="node2" class="node"><title>Node2</title><g id="a_node2"><a target="_top" xlink:href="structspic_1_1Point.html" xlink:title="Struct representing both a 2D point and a 2D vector. @spicapi."><polygon fill="none" stroke="#000" points="0 -127.5 0 -206.5 115 -206.5 115 -127.5 0 -127.5"/><text x="57.5" y="-194.5" font-family="Helvetica,sans-Serif" font-size="10" text-anchor="middle">spic::Point</text><polyline fill="none" stroke="#000" points="0 -187.5 115 -187.5"/><text x="8" y="-175.5" font-family="Helvetica,sans-Serif" font-size="10" text-anchor="start">+ double x</text><text x="8" y="-164.5" font-family="Helvetica,sans-Serif" font-size="10" text-anchor="start">+ double y</text><polyline fill="none" stroke="#000" points="0 -157.5 115 -157.5"/><text x="8" y="-145.5" font-family="Helvetica,sans-Serif" font-size="10" text-anchor="start">+ void serialize(archive</text><text x="8" y="-134.5" font-family="Helvetica,sans-Serif" font-size="10" text-anchor="start">&amp;ar, const unsigned)</text></a></g></g><g id="edge1" class="edge"><title>Node2-&gt;Node1</title><path fill="none" stroke="#404040" d="M57.5,-127.48C57.5,-116.19 57.5,-103.67 57.5,-91.75"/><polygon fill="none" stroke="#404040" points="57.5 -91.61 53.5 -85.61 57.5 -79.61 61.5 -85.61 57.5 -91.61"/><text x="79" y="-101" font-family="Helvetica,sans-Serif" font-size="10" text-anchor="middle">+position</text></g></g></svg>