<?xml version="1.0" encoding="UTF-8" standalone="no"?>
<!DOCTYPE svg PUBLIC "-//W3C//DTD SVG 1.1//EN"
 "http://www.w3.org/Graphics/SVG/1.1/DTD/svg11.dtd">
<!-- Generated by graphviz version 2.44.0 ()
 -->
<!-- Title: NetPkgs::LoadedTextures Pages: 1 -->
<svg width="156pt" height="237pt"
 viewBox="0.00 0.00 156.00 237.00" xmlns="http://www.w3.org/2000/svg" xmlns:xlink="http://www.w3.org/1999/xlink">
<g id="graph0" class="graph" transform="scale(1 1) rotate(0) translate(4 233)">
<title>NetPkgs::LoadedTextures</title>
<!-- Node1 -->
<g id="node1" class="node">
<title>Node1</title>
<g id="a_node1"><a xlink:title=" ">
<polygon fill="#bfbfbf" stroke="black" points="6,-0.5 6,-101.5 142,-101.5 142,-0.5 6,-0.5"/>
<text text-anchor="middle" x="74" y="-89.5" font-family="Helvetica,sans-Serif" font-size="10.00">NetPkgs::LoadedTextures</text>
<polyline fill="none" stroke="black" points="6,-82.5 142,-82.5 "/>
<text text-anchor="start" x="14" y="-70.5" font-family="Helvetica,sans-Serif" font-size="10.00">+ size_t _characterLength</text>
<text text-anchor="start" x="14" y="-59.5" font-family="Helvetica,sans-Serif" font-size="10.00">+ char _data</text>
<polyline fill="none" stroke="black" points="6,-52.5 142,-52.5 "/>
<text text-anchor="start" x="14" y="-40.5" font-family="Helvetica,sans-Serif" font-size="10.00">+ LoadedTextures()</text>
<text text-anchor="start" x="14" y="-29.5" font-family="Helvetica,sans-Serif" font-size="10.00">+ LoadedTextures(const</text>
<text text-anchor="start" x="14" y="-18.5" font-family="Helvetica,sans-Serif" font-size="10.00"> char *data, size_t character</text>
<text text-anchor="start" x="14" y="-7.5" font-family="Helvetica,sans-Serif" font-size="10.00">Length)</text>
</a>
</g>
</g>
<!-- Node2 -->
<g id="node2" class="node">
<title>Node2</title>
<g id="a_node2"><a xlink:href="structNetPkgs_1_1MessageHeader.html" target="_top" xlink:title="The base class for all protocol packages.">
<polygon fill="none" stroke="black" points="0,-138.5 0,-228.5 148,-228.5 148,-138.5 0,-138.5"/>
<text text-anchor="middle" x="74" y="-216.5" font-family="Helvetica,sans-Serif" font-size="10.00">NetPkgs::MessageHeader</text>
<polyline fill="none" stroke="black" points="0,-209.5 148,-209.5 "/>
<text text-anchor="start" x="8" y="-197.5" font-family="Helvetica,sans-Serif" font-size="10.00">+ uint8_t protocolMajorVersion</text>
<text text-anchor="start" x="8" y="-186.5" font-family="Helvetica,sans-Serif" font-size="10.00">+ uint8_t protocolMinorVersion</text>
<text text-anchor="start" x="8" y="-175.5" font-family="Helvetica,sans-Serif" font-size="10.00">+ uint8_t packageType</text>
<polyline fill="none" stroke="black" points="0,-168.5 148,-168.5 "/>
<text text-anchor="start" x="8" y="-156.5" font-family="Helvetica,sans-Serif" font-size="10.00">+ MessageHeader(uint8</text>
<text text-anchor="start" x="8" y="-145.5" font-family="Helvetica,sans-Serif" font-size="10.00">_t packageType=0)</text>
</a>
</g>
</g>
<!-- Node2&#45;&gt;Node1 -->
<g id="edge1" class="edge">
<title>Node2&#45;&gt;Node1</title>
<path fill="none" stroke="midnightblue" d="M74,-128.13C74,-119.31 74,-110.22 74,-101.52"/>
<polygon fill="none" stroke="midnightblue" points="70.5,-128.32 74,-138.32 77.5,-128.32 70.5,-128.32"/>
</g>
</g>
</svg>
