<?xml version="1.0" encoding="UTF-8" standalone="no"?>
<!DOCTYPE svg PUBLIC "-//W3C//DTD SVG 1.1//EN"
 "http://www.w3.org/Graphics/SVG/1.1/DTD/svg11.dtd">
<!-- Generated by graphviz version 2.44.0 ()
 -->
<!-- Title: NetPkgs::UpdateActiveAnimation Pages: 1 -->
<svg width="170pt" height="237pt"
 viewBox="0.00 0.00 170.00 237.00" xmlns="http://www.w3.org/2000/svg" xmlns:xlink="http://www.w3.org/1999/xlink">
<g id="graph0" class="graph" transform="scale(1 1) rotate(0) translate(4 233)">
<title>NetPkgs::UpdateActiveAnimation</title>
<!-- Node1 -->
<g id="node1" class="node">
<title>Node1</title>
<g id="a_node1"><a xlink:title=" ">
<polygon fill="#bfbfbf" stroke="black" points="0,-0.5 0,-101.5 162,-101.5 162,-0.5 0,-0.5"/>
<text text-anchor="middle" x="81" y="-89.5" font-family="Helvetica,sans-Serif" font-size="10.00">NetPkgs::UpdateActiveAnimation</text>
<polyline fill="none" stroke="black" points="0,-82.5 162,-82.5 "/>
<text text-anchor="start" x="8" y="-70.5" font-family="Helvetica,sans-Serif" font-size="10.00">+ char _gameObjectId</text>
<text text-anchor="start" x="8" y="-59.5" font-family="Helvetica,sans-Serif" font-size="10.00">+ char _animationId</text>
<polyline fill="none" stroke="black" points="0,-52.5 162,-52.5 "/>
<text text-anchor="start" x="8" y="-40.5" font-family="Helvetica,sans-Serif" font-size="10.00">+ UpdateActiveAnimation()</text>
<text text-anchor="start" x="8" y="-29.5" font-family="Helvetica,sans-Serif" font-size="10.00">+ UpdateActiveAnimation</text>
<text text-anchor="start" x="8" y="-18.5" font-family="Helvetica,sans-Serif" font-size="10.00">(const char *gameObjectId,</text>
<text text-anchor="start" x="8" y="-7.5" font-family="Helvetica,sans-Serif" font-size="10.00"> const char *animationId)</text>
</a>
</g>
</g>
<!-- Node2 -->
<g id="node2" class="node">
<title>Node2</title>
<g id="a_node2"><a xlink:href="structNetPkgs_1_1MessageHeader.html" target="_top" xlink:title="The base class for all protocol packages.">
<polygon fill="none" stroke="black" points="7,-138.5 7,-228.5 155,-228.5 155,-138.5 7,-138.5"/>
<text text-anchor="middle" x="81" y="-216.5" font-family="Helvetica,sans-Serif" font-size="10.00">NetPkgs::MessageHeader</text>
<polyline fill="none" stroke="black" points="7,-209.5 155,-209.5 "/>
<text text-anchor="start" x="15" y="-197.5" font-family="Helvetica,sans-Serif" font-size="10.00">+ uint8_t protocolMajorVersion</text>
<text text-anchor="start" x="15" y="-186.5" font-family="Helvetica,sans-Serif" font-size="10.00">+ uint8_t protocolMinorVersion</text>
<text text-anchor="start" x="15" y="-175.5" font-family="Helvetica,sans-Serif" font-size="10.00">+ uint8_t packageType</text>
<polyline fill="none" stroke="black" points="7,-168.5 155,-168.5 "/>
<text text-anchor="start" x="15" y="-156.5" font-family="Helvetica,sans-Serif" font-size="10.00">+ MessageHeader(uint8</text>
<text text-anchor="start" x="15" y="-145.5" font-family="Helvetica,sans-Serif" font-size="10.00">_t packageType=0)</text>
</a>
</g>
</g>
<!-- Node2&#45;&gt;Node1 -->
<g id="edge1" class="edge">
<title>Node2&#45;&gt;Node1</title>
<path fill="none" stroke="midnightblue" d="M81,-128.13C81,-119.31 81,-110.22 81,-101.52"/>
<polygon fill="none" stroke="midnightblue" points="77.5,-128.32 81,-138.32 84.5,-128.32 77.5,-128.32"/>
</g>
</g>
</svg>
