<?xml version="1.0" encoding="UTF-8" standalone="no"?>
<!DOCTYPE svg PUBLIC "-//W3C//DTD SVG 1.1//EN"
 "http://www.w3.org/Graphics/SVG/1.1/DTD/svg11.dtd">
<!-- Generated by graphviz version 2.44.0 ()
 -->
<!-- Title: includes/platformer&#45;engine/Texture/TextureManager.hpp Pages: 1 -->
<!--zoomable 441 -->
<svg id="main" version="1.1" xmlns="http://www.w3.org/2000/svg" xmlns:xlink="http://www.w3.org/1999/xlink" xml:space="preserve" onload="init(evt)">
<style type="text/css"><![CDATA[
.edge:hover path { stroke: red; }
.edge:hover polygon { stroke: red; fill: red; }
]]></style>
<script type="text/javascript"><![CDATA[
var edges = document.getElementsByTagName('g');
if (edges && edges.length) {
  for (var i=0;i<edges.length;i++) {
    if (edges[i].id.substr(0,4)=='edge') {
      edges[i].setAttribute('class','edge');
    }
  }
}
]]></script>
        <defs>
                <circle id="rim" cx="0" cy="0" r="7"/>
                <circle id="rim2" cx="0" cy="0" r="3.5"/>
                <g id="zoomPlus">
                        <use xlink:href="#rim" fill="#404040">
                                <set attributeName="fill" to="#808080" begin="zoomplus.mouseover" end="zoomplus.mouseout"/>
                        </use>
                        <path d="M-4,0h8M0,-4v8" fill="none" stroke="white" stroke-width="1.5" pointer-events="none"/>
                </g>
                <g id="zoomMin">
                        <use xlink:href="#rim" fill="#404040">
                                <set attributeName="fill" to="#808080" begin="zoomminus.mouseover" end="zoomminus.mouseout"/>
                        </use>
                        <path d="M-4,0h8" fill="none" stroke="white" stroke-width="1.5" pointer-events="none"/>
                </g>
                <g id="dirArrow">
                        <path fill="none" stroke="white" stroke-width="1.5" d="M0,-3.0v7 M-2.5,-0.5L0,-3.0L2.5,-0.5"/>
                </g>
               <g id="resetDef">
                       <use xlink:href="#rim2" fill="#404040">
                               <set attributeName="fill" to="#808080" begin="reset.mouseover" end="reset.mouseout"/>
                       </use>
               </g>
        </defs>

<script type="text/javascript">
var viewWidth = 1241;
var viewHeight = 441;
var sectionId = 'dynsection-1';
</script>
<script xlink:href="svgpan.js"/>
<svg id="graph" class="graph">
<g id="viewport">
<title>includes/platformer&#45;engine/Texture/TextureManager.hpp</title>
<!-- Node1 -->
<g id="node1" class="node">
<title>Node1</title>
<g id="a_node1"><a xlink:title=" ">
<polygon fill="#bfbfbf" stroke="black" points="329,-402.5 329,-432.5 503,-432.5 503,-402.5 329,-402.5"/>
<text text-anchor="start" x="337" y="-420.5" font-family="Helvetica,sans-Serif" font-size="10.00">includes/platformer</text>
<text text-anchor="middle" x="416" y="-409.5" font-family="Helvetica,sans-Serif" font-size="10.00">&#45;engine/Texture/TextureManager.hpp</text>
</a>
</g>
</g>
<!-- Node2 -->
<g id="node2" class="node">
<title>Node2</title>
<g id="a_node2"><a xlink:href="GraphicsFacade_8cpp.html" target="_top" xlink:title=" ">
<polygon fill="none" stroke="black" points="0,-341 0,-360 158,-360 158,-341 0,-341"/>
<text text-anchor="middle" x="79" y="-348" font-family="Helvetica,sans-Serif" font-size="10.00">src/Facade/GraphicsFacade.cpp</text>
</a>
</g>
</g>
<!-- Node1&#45;&gt;Node2 -->
<g id="edge1" class="edge">
<title>Node1&#45;&gt;Node2</title>
<path fill="none" stroke="midnightblue" d="M333.28,-400.54C266.95,-387.75 176.45,-370.3 123.22,-360.03"/>
<polygon fill="midnightblue" stroke="midnightblue" points="332.81,-404.02 343.29,-402.48 334.13,-397.15 332.81,-404.02"/>
</g>
<!-- Node3 -->
<g id="node3" class="node">
<title>Node3</title>
<g id="a_node3"><a xlink:href="TileLayer_8cpp.html" target="_top" xlink:title=" ">
<polygon fill="none" stroke="black" points="176,-341 176,-360 320,-360 320,-341 176,-341"/>
<text text-anchor="middle" x="248" y="-348" font-family="Helvetica,sans-Serif" font-size="10.00">src/GameLevel/TileLayer.cpp</text>
</a>
</g>
</g>
<!-- Node1&#45;&gt;Node3 -->
<g id="edge2" class="edge">
<title>Node1&#45;&gt;Node3</title>
<path fill="none" stroke="midnightblue" d="M370.21,-398.78C337.64,-386.18 295.32,-369.81 269.99,-360.01"/>
<polygon fill="midnightblue" stroke="midnightblue" points="368.96,-402.05 379.55,-402.4 371.48,-395.52 368.96,-402.05"/>
</g>
<!-- Node4 -->
<g id="node4" class="node">
<title>Node4</title>
<g id="a_node4"><a xlink:href="TextureManager_8cpp.html" target="_top" xlink:title=" ">
<polygon fill="none" stroke="black" points="338,-341 338,-360 494,-360 494,-341 338,-341"/>
<text text-anchor="middle" x="416" y="-348" font-family="Helvetica,sans-Serif" font-size="10.00">src/Texture/TextureManager.cpp</text>
</a>
</g>
</g>
<!-- Node1&#45;&gt;Node4 -->
<g id="edge3" class="edge">
<title>Node1&#45;&gt;Node4</title>
<path fill="none" stroke="midnightblue" d="M416,-392.25C416,-381.02 416,-368.38 416,-360.19"/>
<polygon fill="midnightblue" stroke="midnightblue" points="412.5,-392.4 416,-402.4 419.5,-392.4 412.5,-392.4"/>
</g>
<!-- Node5 -->
<g id="node5" class="node">
<title>Node5</title>
<g id="a_node5"><a xlink:href="Window_8hpp.html" target="_top" xlink:title=" ">
<polygon fill="none" stroke="black" points="512.5,-335.5 512.5,-365.5 649.5,-365.5 649.5,-335.5 512.5,-335.5"/>
<text text-anchor="start" x="520.5" y="-353.5" font-family="Helvetica,sans-Serif" font-size="10.00">includes/platformer</text>
<text text-anchor="middle" x="581" y="-342.5" font-family="Helvetica,sans-Serif" font-size="10.00">&#45;engine/Render/Window.hpp</text>
</a>
</g>
</g>
<!-- Node1&#45;&gt;Node5 -->
<g id="edge4" class="edge">
<title>Node1&#45;&gt;Node5</title>
<path fill="none" stroke="midnightblue" d="M461.23,-398.68C487.69,-388.26 520.63,-375.28 545.27,-365.58"/>
<polygon fill="midnightblue" stroke="midnightblue" points="459.82,-395.47 451.8,-402.4 462.39,-401.99 459.82,-395.47"/>
</g>
<!-- Node20 -->
<g id="node20" class="node">
<title>Node20</title>
<g id="a_node20"><a xlink:href="Sprite_8hpp.html" target="_top" xlink:title=" ">
<polygon fill="none" stroke="black" points="804.5,-335.5 804.5,-365.5 907.5,-365.5 907.5,-335.5 804.5,-335.5"/>
<text text-anchor="start" x="812.5" y="-353.5" font-family="Helvetica,sans-Serif" font-size="10.00">includes/spic&#45;prj&#45;api</text>
<text text-anchor="middle" x="856" y="-342.5" font-family="Helvetica,sans-Serif" font-size="10.00">/Sprite.hpp</text>
</a>
</g>
</g>
<!-- Node1&#45;&gt;Node20 -->
<g id="edge23" class="edge">
<title>Node1&#45;&gt;Node20</title>
<path fill="none" stroke="midnightblue" d="M513.12,-402.15C602.97,-388.88 733.08,-369.66 804.41,-359.12"/>
<polygon fill="midnightblue" stroke="midnightblue" points="512.57,-398.7 503.19,-403.62 513.6,-405.62 512.57,-398.7"/>
</g>
<!-- Node6 -->
<g id="node6" class="node">
<title>Node6</title>
<g id="a_node6"><a xlink:href="Window_8cpp.html" target="_top" xlink:title=" ">
<polygon fill="none" stroke="black" points="311.5,-274 311.5,-293 430.5,-293 430.5,-274 311.5,-274"/>
<text text-anchor="middle" x="371" y="-281" font-family="Helvetica,sans-Serif" font-size="10.00">src/Render/Window.cpp</text>
</a>
</g>
</g>
<!-- Node5&#45;&gt;Node6 -->
<g id="edge5" class="edge">
<title>Node5&#45;&gt;Node6</title>
<path fill="none" stroke="midnightblue" d="M526.11,-332.51C485.13,-319.83 430.84,-303.02 398.55,-293.03"/>
<polygon fill="midnightblue" stroke="midnightblue" points="525.1,-335.86 535.69,-335.48 527.17,-329.18 525.1,-335.86"/>
</g>
<!-- Node7 -->
<g id="node7" class="node">
<title>Node7</title>
<g id="a_node7"><a xlink:href="Timer_8cpp.html" target="_top" xlink:title=" ">
<polygon fill="none" stroke="black" points="449,-274 449,-293 553,-293 553,-274 449,-274"/>
<text text-anchor="middle" x="501" y="-281" font-family="Helvetica,sans-Serif" font-size="10.00">src/Timer/Timer.cpp</text>
</a>
</g>
</g>
<!-- Node5&#45;&gt;Node7 -->
<g id="edge6" class="edge">
<title>Node5&#45;&gt;Node7</title>
<path fill="none" stroke="midnightblue" d="M555.78,-329.01C540.93,-316.94 522.91,-302.3 511.7,-293.19"/>
<polygon fill="midnightblue" stroke="midnightblue" points="553.67,-331.81 563.64,-335.4 558.09,-326.37 553.67,-331.81"/>
</g>
<!-- Node8 -->
<g id="node8" class="node">
<title>Node8</title>
<g id="a_node8"><a xlink:href="Engine_8hpp.html" target="_top" xlink:title=" ">
<polygon fill="none" stroke="black" points="778.5,-56.5 778.5,-86.5 909.5,-86.5 909.5,-56.5 778.5,-56.5"/>
<text text-anchor="start" x="786.5" y="-74.5" font-family="Helvetica,sans-Serif" font-size="10.00">includes/platformer</text>
<text text-anchor="middle" x="844" y="-63.5" font-family="Helvetica,sans-Serif" font-size="10.00">&#45;engine/Engine/Engine.hpp</text>
</a>
</g>
</g>
<!-- Node5&#45;&gt;Node8 -->
<g id="edge7" class="edge">
<title>Node5&#45;&gt;Node8</title>
<path fill="none" stroke="midnightblue" d="M577.6,-325.21C572.56,-278.25 569.17,-175.08 627,-123 632.77,-117.81 716.6,-99.28 778.34,-86.17"/>
<polygon fill="midnightblue" stroke="midnightblue" points="574.16,-325.85 578.82,-335.36 581.11,-325.02 574.16,-325.85"/>
</g>
<!-- Node11 -->
<g id="node11" class="node">
<title>Node11</title>
<g id="a_node11"><a xlink:href="AnimatedSprite_8hpp.html" target="_top" xlink:title=" ">
<polygon fill="none" stroke="black" points="713.5,-268.5 713.5,-298.5 884.5,-298.5 884.5,-268.5 713.5,-268.5"/>
<text text-anchor="start" x="721.5" y="-286.5" font-family="Helvetica,sans-Serif" font-size="10.00">includes/platformer</text>
<text text-anchor="middle" x="799" y="-275.5" font-family="Helvetica,sans-Serif" font-size="10.00">&#45;engine/Texture/AnimatedSprite.hpp</text>
</a>
</g>
</g>
<!-- Node5&#45;&gt;Node11 -->
<g id="edge10" class="edge">
<title>Node5&#45;&gt;Node11</title>
<path fill="none" stroke="midnightblue" d="M637.75,-332.58C673.16,-322.02 718.2,-308.59 751.67,-298.61"/>
<polygon fill="midnightblue" stroke="midnightblue" points="636.62,-329.26 628.03,-335.48 638.62,-335.97 636.62,-329.26"/>
</g>
<!-- Node9 -->
<g id="node9" class="node">
<title>Node9</title>
<g id="a_node9"><a xlink:href="Engine_8cpp.html" target="_top" xlink:title=" ">
<polygon fill="none" stroke="black" points="731.5,-0.5 731.5,-19.5 844.5,-19.5 844.5,-0.5 731.5,-0.5"/>
<text text-anchor="middle" x="788" y="-7.5" font-family="Helvetica,sans-Serif" font-size="10.00">src/Engine/Engine.cpp</text>
</a>
</g>
</g>
<!-- Node8&#45;&gt;Node9 -->
<g id="edge8" class="edge">
<title>Node8&#45;&gt;Node9</title>
<path fill="none" stroke="midnightblue" d="M823.77,-49C814.22,-38.86 803.37,-27.33 796.15,-19.66"/>
<polygon fill="midnightblue" stroke="midnightblue" points="821.33,-51.52 830.73,-56.4 826.42,-46.72 821.33,-51.52"/>
</g>
<!-- Node10 -->
<g id="node10" class="node">
<title>Node10</title>
<g id="a_node10"><a xlink:href="RenderSystem_8cpp.html" target="_top" xlink:title=" ">
<polygon fill="none" stroke="black" points="863,-0.5 863,-19.5 1013,-19.5 1013,-0.5 863,-0.5"/>
<text text-anchor="middle" x="938" y="-7.5" font-family="Helvetica,sans-Serif" font-size="10.00">src/Texture/RenderSystem.cpp</text>
</a>
</g>
</g>
<!-- Node8&#45;&gt;Node10 -->
<g id="edge9" class="edge">
<title>Node8&#45;&gt;Node10</title>
<path fill="none" stroke="midnightblue" d="M875.16,-50.78C891.82,-40.23 911.49,-27.78 924.32,-19.66"/>
<polygon fill="midnightblue" stroke="midnightblue" points="872.85,-48.09 866.28,-56.4 876.6,-54.01 872.85,-48.09"/>
</g>
<!-- Node12 -->
<g id="node12" class="node">
<title>Node12</title>
<g id="a_node12"><a xlink:href="AnimatedSprite_8cpp.html" target="_top" xlink:title=" ">
<polygon fill="none" stroke="black" points="827.5,-207 827.5,-226 980.5,-226 980.5,-207 827.5,-207"/>
<text text-anchor="middle" x="904" y="-214" font-family="Helvetica,sans-Serif" font-size="10.00">src/Texture/AnimatedSprite.cpp</text>
</a>
</g>
</g>
<!-- Node11&#45;&gt;Node12 -->
<g id="edge11" class="edge">
<title>Node11&#45;&gt;Node12</title>
<path fill="none" stroke="midnightblue" d="M830.54,-262.97C850.45,-250.65 875.17,-235.35 890.26,-226.01"/>
<polygon fill="midnightblue" stroke="midnightblue" points="828.44,-260.16 821.78,-268.4 832.13,-266.11 828.44,-260.16"/>
</g>
<!-- Node13 -->
<g id="node13" class="node">
<title>Node13</title>
<g id="a_node13"><a xlink:href="GameObjectBuilder_8hpp.html" target="_top" xlink:title=" ">
<polygon fill="none" stroke="black" points="635.5,-123.5 635.5,-164.5 774.5,-164.5 774.5,-123.5 635.5,-123.5"/>
<text text-anchor="start" x="643.5" y="-152.5" font-family="Helvetica,sans-Serif" font-size="10.00">includes/platformer</text>
<text text-anchor="start" x="643.5" y="-141.5" font-family="Helvetica,sans-Serif" font-size="10.00">&#45;engine/Builder/GameObject</text>
<text text-anchor="middle" x="705" y="-130.5" font-family="Helvetica,sans-Serif" font-size="10.00">Builder.hpp</text>
</a>
</g>
</g>
<!-- Node11&#45;&gt;Node13 -->
<g id="edge12" class="edge">
<title>Node11&#45;&gt;Node13</title>
<path fill="none" stroke="midnightblue" d="M797.7,-258.05C795.79,-240.89 791.16,-218.06 780,-201 770.3,-186.18 755.27,-173.82 741.2,-164.53"/>
<polygon fill="midnightblue" stroke="midnightblue" points="794.25,-258.73 798.6,-268.39 801.22,-258.12 794.25,-258.73"/>
</g>
<!-- Node15 -->
<g id="node15" class="node">
<title>Node15</title>
<g id="a_node15"><a xlink:href="ObjectBuilder_8hpp.html" target="_top" xlink:title=" ">
<polygon fill="none" stroke="black" points="609.5,-201.5 609.5,-231.5 770.5,-231.5 770.5,-201.5 609.5,-201.5"/>
<text text-anchor="start" x="617.5" y="-219.5" font-family="Helvetica,sans-Serif" font-size="10.00">includes/platformer</text>
<text text-anchor="middle" x="690" y="-208.5" font-family="Helvetica,sans-Serif" font-size="10.00">&#45;engine/Builder/ObjectBuilder.hpp</text>
</a>
</g>
</g>
<!-- Node11&#45;&gt;Node15 -->
<g id="edge14" class="edge">
<title>Node11&#45;&gt;Node15</title>
<path fill="none" stroke="midnightblue" d="M766.33,-263.02C749.36,-252.9 729.02,-240.77 713.61,-231.58"/>
<polygon fill="midnightblue" stroke="midnightblue" points="764.97,-266.28 775.35,-268.4 768.55,-260.27 764.97,-266.28"/>
</g>
<!-- Node16 -->
<g id="node16" class="node">
<title>Node16</title>
<g id="a_node16"><a xlink:href="Animator_8hpp.html" target="_top" xlink:title=" ">
<polygon fill="none" stroke="black" points="998.5,-201.5 998.5,-231.5 1101.5,-231.5 1101.5,-201.5 998.5,-201.5"/>
<text text-anchor="start" x="1006.5" y="-219.5" font-family="Helvetica,sans-Serif" font-size="10.00">includes/spic&#45;prj&#45;api</text>
<text text-anchor="middle" x="1050" y="-208.5" font-family="Helvetica,sans-Serif" font-size="10.00">/Animator.hpp</text>
</a>
</g>
</g>
<!-- Node11&#45;&gt;Node16 -->
<g id="edge16" class="edge">
<title>Node11&#45;&gt;Node16</title>
<path fill="none" stroke="midnightblue" d="M862.98,-265.93C904.86,-255.09 958.88,-241.1 998.09,-230.94"/>
<polygon fill="midnightblue" stroke="midnightblue" points="861.96,-262.58 853.15,-268.48 863.71,-269.36 861.96,-262.58"/>
</g>
<!-- Node14 -->
<g id="node14" class="node">
<title>Node14</title>
<g id="a_node14"><a xlink:href="GameObjectBuilder_8cpp.html" target="_top" xlink:title=" ">
<polygon fill="none" stroke="black" points="591.5,-62 591.5,-81 760.5,-81 760.5,-62 591.5,-62"/>
<text text-anchor="middle" x="676" y="-69" font-family="Helvetica,sans-Serif" font-size="10.00">src/Builder/GameObjectBuilder.cpp</text>
</a>
</g>
</g>
<!-- Node13&#45;&gt;Node14 -->
<g id="edge13" class="edge">
<title>Node13&#45;&gt;Node14</title>
<path fill="none" stroke="midnightblue" d="M692.99,-113.81C688.15,-102.04 682.93,-89.34 679.57,-81.17"/>
<polygon fill="midnightblue" stroke="midnightblue" points="689.88,-115.45 696.92,-123.36 696.35,-112.78 689.88,-115.45"/>
</g>
<!-- Node15&#45;&gt;Node13 -->
<g id="edge15" class="edge">
<title>Node15&#45;&gt;Node13</title>
<path fill="none" stroke="midnightblue" d="M695.16,-191.27C697.01,-182.56 699.07,-172.85 700.83,-164.59"/>
<polygon fill="midnightblue" stroke="midnightblue" points="691.69,-190.72 693.04,-201.23 698.54,-192.18 691.69,-190.72"/>
</g>
<!-- Node16&#45;&gt;Node13 -->
<g id="edge19" class="edge">
<title>Node16&#45;&gt;Node13</title>
<path fill="none" stroke="midnightblue" d="M988.33,-200.7C904.28,-182.8 881.15,-181.23 800,-165 791.82,-163.36 783.25,-161.61 774.75,-159.85"/>
<polygon fill="midnightblue" stroke="midnightblue" points="987.82,-204.16 998.33,-202.84 989.28,-197.32 987.82,-204.16"/>
</g>
<!-- Node17 -->
<g id="node17" class="node">
<title>Node17</title>
<g id="a_node17"><a xlink:href="Animator_8cpp.html" target="_top" xlink:title=" ">
<polygon fill="none" stroke="black" points="995,-134.5 995,-153.5 1105,-153.5 1105,-134.5 995,-134.5"/>
<text text-anchor="middle" x="1050" y="-141.5" font-family="Helvetica,sans-Serif" font-size="10.00">src/API/Animator.cpp</text>
</a>
</g>
</g>
<!-- Node16&#45;&gt;Node17 -->
<g id="edge17" class="edge">
<title>Node16&#45;&gt;Node17</title>
<path fill="none" stroke="midnightblue" d="M1050,-191.09C1050,-178.21 1050,-163.2 1050,-153.89"/>
<polygon fill="midnightblue" stroke="midnightblue" points="1046.5,-191.23 1050,-201.23 1053.5,-191.23 1046.5,-191.23"/>
</g>
<!-- Node18 -->
<g id="node18" class="node">
<title>Node18</title>
<g id="a_node18"><a xlink:href="Scene_8cpp.html" target="_top" xlink:title=" ">
<polygon fill="none" stroke="black" points="1123,-134.5 1123,-153.5 1233,-153.5 1233,-134.5 1123,-134.5"/>
<text text-anchor="middle" x="1178" y="-141.5" font-family="Helvetica,sans-Serif" font-size="10.00">src/Scene/Scene.cpp</text>
</a>
</g>
</g>
<!-- Node16&#45;&gt;Node18 -->
<g id="edge18" class="edge">
<title>Node16&#45;&gt;Node18</title>
<path fill="none" stroke="midnightblue" d="M1084.56,-196.47C1109.97,-182.47 1143.29,-164.12 1162.51,-153.53"/>
<polygon fill="midnightblue" stroke="midnightblue" points="1082.67,-193.51 1075.6,-201.4 1086.04,-199.64 1082.67,-193.51"/>
</g>
<!-- Node19 -->
<g id="node19" class="node">
<title>Node19</title>
<g id="a_node19"><a xlink:href="RenderSystem_8hpp.html" target="_top" xlink:title=" ">
<polygon fill="none" stroke="black" points="809,-129 809,-159 977,-159 977,-129 809,-129"/>
<text text-anchor="start" x="817" y="-147" font-family="Helvetica,sans-Serif" font-size="10.00">includes/platformer</text>
<text text-anchor="middle" x="893" y="-136" font-family="Helvetica,sans-Serif" font-size="10.00">&#45;engine/Texture/RenderSystem.hpp</text>
</a>
</g>
</g>
<!-- Node16&#45;&gt;Node19 -->
<g id="edge20" class="edge">
<title>Node16&#45;&gt;Node19</title>
<path fill="none" stroke="midnightblue" d="M1009.22,-197.19C982.72,-185.29 948.71,-170.02 924.34,-159.07"/>
<polygon fill="midnightblue" stroke="midnightblue" points="1008.05,-200.5 1018.61,-201.4 1010.92,-194.11 1008.05,-200.5"/>
</g>
<!-- Node19&#45;&gt;Node8 -->
<g id="edge22" class="edge">
<title>Node19&#45;&gt;Node8</title>
<path fill="none" stroke="midnightblue" d="M877.28,-120.39C869.61,-109.34 860.61,-96.39 853.9,-86.75"/>
<polygon fill="midnightblue" stroke="midnightblue" points="874.5,-122.52 883.08,-128.73 880.25,-118.52 874.5,-122.52"/>
</g>
<!-- Node19&#45;&gt;Node10 -->
<g id="edge21" class="edge">
<title>Node19&#45;&gt;Node10</title>
<path fill="none" stroke="midnightblue" d="M905.15,-119.43C909.91,-109.59 915.14,-97.91 919,-87 927.43,-63.15 933.64,-33.84 936.41,-19.59"/>
<polygon fill="midnightblue" stroke="midnightblue" points="901.93,-118.06 900.62,-128.58 908.2,-121.17 901.93,-118.06"/>
</g>
<!-- Node20&#45;&gt;Node11 -->
<g id="edge25" class="edge">
<title>Node20&#45;&gt;Node11</title>
<path fill="none" stroke="midnightblue" d="M836.91,-327.74C828.48,-318.12 818.81,-307.09 811.34,-298.58"/>
<polygon fill="midnightblue" stroke="midnightblue" points="834.41,-330.18 843.63,-335.4 839.67,-325.57 834.41,-330.18"/>
</g>
<!-- Node20&#45;&gt;Node16 -->
<g id="edge26" class="edge">
<title>Node20&#45;&gt;Node16</title>
<path fill="none" stroke="midnightblue" d="M872.46,-327.25C886.63,-309.35 908.46,-284.53 932,-268 954.34,-252.31 982.32,-240.07 1005.42,-231.58"/>
<polygon fill="midnightblue" stroke="midnightblue" points="869.5,-325.37 866.15,-335.42 875.03,-329.65 869.5,-325.37"/>
</g>
<!-- Node21 -->
<g id="node21" class="node">
<title>Node21</title>
<g id="a_node21"><a xlink:href="Sprite_8cpp.html" target="_top" xlink:title=" ">
<polygon fill="none" stroke="black" points="941,-274 941,-293 1037,-293 1037,-274 941,-274"/>
<text text-anchor="middle" x="989" y="-281" font-family="Helvetica,sans-Serif" font-size="10.00">src/API/Sprite.cpp</text>
</a>
</g>
</g>
<!-- Node20&#45;&gt;Node21 -->
<g id="edge24" class="edge">
<title>Node20&#45;&gt;Node21</title>
<path fill="none" stroke="midnightblue" d="M893.92,-330.97C919.47,-318.48 951.97,-302.6 971.59,-293.01"/>
<polygon fill="midnightblue" stroke="midnightblue" points="892.31,-327.86 884.86,-335.4 895.38,-334.15 892.31,-327.86"/>
</g>
</g>
</svg>
        <g id="navigator" transform="translate(0 0)" fill="#404254">
                <rect fill="#f2f5e9" fill-opacity="0.5" stroke="#606060" stroke-width=".5" x="0" y="0" width="60" height="60"/>
                <use id="zoomplus" xlink:href="#zoomPlus" x="17" y="9" onmousedown="handleZoom(evt,'in')"/>
                <use id="zoomminus" xlink:href="#zoomMin" x="42" y="9" onmousedown="handleZoom(evt,'out')"/>
                <use id="reset" xlink:href="#resetDef" x="30" y="36" onmousedown="handleReset()"/>
                <g id="arrowUp" xlink:href="#dirArrow" transform="translate(30 24)" onmousedown="handlePan(0,-1)">
                  <use xlink:href="#rim" fill="#404040">
                        <set attributeName="fill" to="#808080" begin="arrowUp.mouseover" end="arrowUp.mouseout"/>
                  </use>
                  <path fill="none" stroke="white" stroke-width="1.5" d="M0,-3.0v7 M-2.5,-0.5L0,-3.0L2.5,-0.5"/>
                </g>
                <g id="arrowRight" xlink:href="#dirArrow" transform="rotate(90) translate(36 -43)" onmousedown="handlePan(1,0)">
                  <use xlink:href="#rim" fill="#404040">
                        <set attributeName="fill" to="#808080" begin="arrowRight.mouseover" end="arrowRight.mouseout"/>
                  </use>
                  <path fill="none" stroke="white" stroke-width="1.5" d="M0,-3.0v7 M-2.5,-0.5L0,-3.0L2.5,-0.5"/>
                </g>
                <g id="arrowDown" xlink:href="#dirArrow" transform="rotate(180) translate(-30 -48)" onmousedown="handlePan(0,1)">
                  <use xlink:href="#rim" fill="#404040">
                        <set attributeName="fill" to="#808080" begin="arrowDown.mouseover" end="arrowDown.mouseout"/>
                  </use>
                  <path fill="none" stroke="white" stroke-width="1.5" d="M0,-3.0v7 M-2.5,-0.5L0,-3.0L2.5,-0.5"/>
                </g>
                <g id="arrowLeft" xlink:href="#dirArrow" transform="rotate(270) translate(-36 17)" onmousedown="handlePan(-1,0)">
                  <use xlink:href="#rim" fill="#404040">
                        <set attributeName="fill" to="#808080" begin="arrowLeft.mouseover" end="arrowLeft.mouseout"/>
                  </use>
                  <path fill="none" stroke="white" stroke-width="1.5" d="M0,-3.0v7 M-2.5,-0.5L0,-3.0L2.5,-0.5"/>
                </g>
        </g>
        <svg viewBox="0 0 15 15" width="100%" height="30px" preserveAspectRatio="xMaxYMin meet">
         <g id="arrow_out" transform="scale(0.3 0.3)">
          <a xlink:href="TextureManager_8hpp__dep__incl_org.svg" target="_base">
           <rect id="button" ry="5" rx="5" y="6" x="6" height="38" width="38"
                fill="#f2f5e9" fill-opacity="0.5" stroke="#606060" stroke-width="1.0"/>
           <path id="arrow"
             d="M 11.500037,31.436501 C 11.940474,20.09759 22.043105,11.32322 32.158766,21.979434 L 37.068811,17.246167 C 37.068811,17.246167 37.088388,32 37.088388,32 L 22.160133,31.978069 C 22.160133,31.978069 26.997745,27.140456 26.997745,27.140456 C 18.528582,18.264221 13.291696,25.230495 11.500037,31.436501 z"
             style="fill:#404040;"/>
          </a>
         </g>
        </svg>
</svg>
