<?xml version="1.0" encoding="UTF-8" standalone="no"?>
<!DOCTYPE svg PUBLIC "-//W3C//DTD SVG 1.1//EN"
 "http://www.w3.org/Graphics/SVG/1.1/DTD/svg11.dtd">
<!-- Generated by graphviz version 2.44.0 ()
 -->
<!-- Title: includes/platformer&#45;engine/Texture/TextureManager.hpp Pages: 1 -->
<svg width="791pt" height="229pt"
 viewBox="0.00 0.00 790.50 229.00" xmlns="http://www.w3.org/2000/svg" xmlns:xlink="http://www.w3.org/1999/xlink">
<g id="graph0" class="graph" transform="scale(1 1) rotate(0) translate(4 225)">
<title>includes/platformer&#45;engine/Texture/TextureManager.hpp</title>
<!-- Node1 -->
<g id="node1" class="node">
<title>Node1</title>
<g id="a_node1"><a xlink:title=" ">
<polygon fill="#bfbfbf" stroke="black" points="245,-190.5 245,-220.5 419,-220.5 419,-190.5 245,-190.5"/>
<text text-anchor="start" x="253" y="-208.5" font-family="Helvetica,sans-Serif" font-size="10.00">includes/platformer</text>
<text text-anchor="middle" x="332" y="-197.5" font-family="Helvetica,sans-Serif" font-size="10.00">&#45;engine/Texture/TextureManager.hpp</text>
</a>
</g>
</g>
<!-- Node2 -->
<g id="node2" class="node">
<title>Node2</title>
<g id="a_node2"><a xlink:href="GraphicsFacade_8cpp.html" target="_top" xlink:title=" ">
<polygon fill="none" stroke="black" points="0,-129 0,-148 158,-148 158,-129 0,-129"/>
<text text-anchor="middle" x="79" y="-136" font-family="Helvetica,sans-Serif" font-size="10.00">src/Facade/GraphicsFacade.cpp</text>
</a>
</g>
</g>
<!-- Node1&#45;&gt;Node2 -->
<g id="edge1" class="edge">
<title>Node1&#45;&gt;Node2</title>
<path fill="none" stroke="midnightblue" d="M267.43,-187.91C217.88,-175.18 151.5,-158.13 112.2,-148.03"/>
<polygon fill="midnightblue" stroke="midnightblue" points="266.86,-191.38 277.41,-190.48 268.6,-184.6 266.86,-191.38"/>
</g>
<!-- Node3 -->
<g id="node3" class="node">
<title>Node3</title>
<g id="a_node3"><a xlink:href="TileLayer_8cpp.html" target="_top" xlink:title=" ">
<polygon fill="none" stroke="black" points="176,-129 176,-148 320,-148 320,-129 176,-129"/>
<text text-anchor="middle" x="248" y="-136" font-family="Helvetica,sans-Serif" font-size="10.00">src/GameLevel/TileLayer.cpp</text>
</a>
</g>
</g>
<!-- Node1&#45;&gt;Node3 -->
<g id="edge2" class="edge">
<title>Node1&#45;&gt;Node3</title>
<path fill="none" stroke="midnightblue" d="M305.52,-184.01C289.92,-171.94 271.01,-157.3 259.24,-148.19"/>
<polygon fill="midnightblue" stroke="midnightblue" points="303.72,-187.04 313.77,-190.4 308.01,-181.51 303.72,-187.04"/>
</g>
<!-- Node4 -->
<g id="node4" class="node">
<title>Node4</title>
<g id="a_node4"><a xlink:href="TextureManager_8cpp.html" target="_top" xlink:title=" ">
<polygon fill="none" stroke="black" points="338,-129 338,-148 494,-148 494,-129 338,-129"/>
<text text-anchor="middle" x="416" y="-136" font-family="Helvetica,sans-Serif" font-size="10.00">src/Texture/TextureManager.cpp</text>
</a>
</g>
</g>
<!-- Node1&#45;&gt;Node4 -->
<g id="edge3" class="edge">
<title>Node1&#45;&gt;Node4</title>
<path fill="none" stroke="midnightblue" d="M358.48,-184.01C374.08,-171.94 392.99,-157.3 404.76,-148.19"/>
<polygon fill="midnightblue" stroke="midnightblue" points="355.99,-181.51 350.23,-190.4 360.28,-187.04 355.99,-181.51"/>
</g>
<!-- Node5 -->
<g id="node5" class="node">
<title>Node5</title>
<g id="a_node5"><a xlink:href="Window_8hpp.html" target="_top" xlink:title=" ">
<polygon fill="none" stroke="black" points="512.5,-123.5 512.5,-153.5 649.5,-153.5 649.5,-123.5 512.5,-123.5"/>
<text text-anchor="start" x="520.5" y="-141.5" font-family="Helvetica,sans-Serif" font-size="10.00">includes/platformer</text>
<text text-anchor="middle" x="581" y="-130.5" font-family="Helvetica,sans-Serif" font-size="10.00">&#45;engine/Render/Window.hpp</text>
</a>
</g>
</g>
<!-- Node1&#45;&gt;Node5 -->
<g id="edge4" class="edge">
<title>Node1&#45;&gt;Node5</title>
<path fill="none" stroke="midnightblue" d="M395.53,-187.92C436.16,-177.31 488.3,-163.7 526.94,-153.61"/>
<polygon fill="midnightblue" stroke="midnightblue" points="394.51,-184.56 385.72,-190.48 396.28,-191.34 394.51,-184.56"/>
</g>
<!-- Node6 -->
<g id="node6" class="node">
<title>Node6</title>
<g id="a_node6"><a xlink:href="Window_8cpp.html" target="_top" xlink:title=" ">
<polygon fill="none" stroke="black" points="391.5,-62 391.5,-81 510.5,-81 510.5,-62 391.5,-62"/>
<text text-anchor="middle" x="451" y="-69" font-family="Helvetica,sans-Serif" font-size="10.00">src/Render/Window.cpp</text>
</a>
</g>
</g>
<!-- Node5&#45;&gt;Node6 -->
<g id="edge5" class="edge">
<title>Node5&#45;&gt;Node6</title>
<path fill="none" stroke="midnightblue" d="M543.61,-118.8C518.68,-106.34 487.11,-90.56 468.01,-81.01"/>
<polygon fill="midnightblue" stroke="midnightblue" points="542.28,-122.05 552.79,-123.4 545.41,-115.79 542.28,-122.05"/>
</g>
<!-- Node7 -->
<g id="node7" class="node">
<title>Node7</title>
<g id="a_node7"><a xlink:href="Timer_8cpp.html" target="_top" xlink:title=" ">
<polygon fill="none" stroke="black" points="529,-62 529,-81 633,-81 633,-62 529,-62"/>
<text text-anchor="middle" x="581" y="-69" font-family="Helvetica,sans-Serif" font-size="10.00">src/Timer/Timer.cpp</text>
</a>
</g>
</g>
<!-- Node5&#45;&gt;Node7 -->
<g id="edge6" class="edge">
<title>Node5&#45;&gt;Node7</title>
<path fill="none" stroke="midnightblue" d="M581,-113.25C581,-102.02 581,-89.38 581,-81.19"/>
<polygon fill="midnightblue" stroke="midnightblue" points="577.5,-113.4 581,-123.4 584.5,-113.4 577.5,-113.4"/>
</g>
<!-- Node8 -->
<g id="node8" class="node">
<title>Node8</title>
<g id="a_node8"><a xlink:href="Engine_8hpp.html" target="_top" xlink:title=" ">
<polygon fill="none" stroke="black" points="651.5,-56.5 651.5,-86.5 782.5,-86.5 782.5,-56.5 651.5,-56.5"/>
<text text-anchor="start" x="659.5" y="-74.5" font-family="Helvetica,sans-Serif" font-size="10.00">includes/platformer</text>
<text text-anchor="middle" x="717" y="-63.5" font-family="Helvetica,sans-Serif" font-size="10.00">&#45;engine/Engine/Engine.hpp</text>
</a>
</g>
</g>
<!-- Node5&#45;&gt;Node8 -->
<g id="edge7" class="edge">
<title>Node5&#45;&gt;Node8</title>
<path fill="none" stroke="midnightblue" d="M619.72,-118.99C641.28,-108.69 667.69,-96.07 687.55,-86.58"/>
<polygon fill="midnightblue" stroke="midnightblue" points="618.02,-115.93 610.51,-123.4 621.04,-122.24 618.02,-115.93"/>
</g>
<!-- Node9 -->
<g id="node9" class="node">
<title>Node9</title>
<g id="a_node9"><a xlink:href="Engine_8cpp.html" target="_top" xlink:title=" ">
<polygon fill="none" stroke="black" points="660.5,-0.5 660.5,-19.5 773.5,-19.5 773.5,-0.5 660.5,-0.5"/>
<text text-anchor="middle" x="717" y="-7.5" font-family="Helvetica,sans-Serif" font-size="10.00">src/Engine/Engine.cpp</text>
</a>
</g>
</g>
<!-- Node8&#45;&gt;Node9 -->
<g id="edge8" class="edge">
<title>Node8&#45;&gt;Node9</title>
<path fill="none" stroke="midnightblue" d="M717,-46.29C717,-36.86 717,-26.65 717,-19.66"/>
<polygon fill="midnightblue" stroke="midnightblue" points="713.5,-46.4 717,-56.4 720.5,-46.4 713.5,-46.4"/>
</g>
</g>
</svg>
