<svg xmlns="http://www.w3.org/2000/svg" xmlns:xlink="http://www.w3.org/1999/xlink" width="799pt" height="151pt" viewBox="0 0 799 151"><g id="graph0" class="graph" transform="scale(1 1) rotate(0) translate(4 147)"><title>includes/platformer-engine/Texture/TextureManager.hpp</title><g id="node1" class="node"><title>Node1</title><g id="a_node1"><a><polygon fill="#bfbfbf" stroke="#000" points="127.5 -112.5 127.5 -142.5 301.5 -142.5 301.5 -112.5 127.5 -112.5"/><text x="135.5" y="-130.5" font-family="Helvetica,sans-Serif" font-size="10" text-anchor="start">includes/platformer</text><text x="214.5" y="-119.5" font-family="Helvetica,sans-Serif" font-size="10" text-anchor="middle">-engine/Texture/TextureManager.hpp</text></a></g></g><g id="node2" class="node"><title>Node2</title><g id="a_node2"><a><polygon fill="none" stroke="#bfbfbf" points="0 -.5 0 -19.5 41 -19.5 41 -.5 0 -.5"/><text x="20.5" y="-7.5" font-family="Helvetica,sans-Serif" font-size="10" text-anchor="middle">string</text></a></g></g><g id="edge1" class="edge"><title>Node1-&gt;Node2</title><path fill="none" stroke="#191970" d="M190.71,-112.34C153.22,-90.01 80.82,-46.91 43.7,-24.81"/><polygon fill="#191970" stroke="#191970" points="45.44 -21.78 35.06 -19.67 41.86 -27.79 45.44 -21.78"/></g><g id="node3" class="node"><title>Node3</title><g id="a_node3"><a><polygon fill="none" stroke="#bfbfbf" points="195 -56.5 195 -75.5 234 -75.5 234 -56.5 195 -56.5"/><text x="214.5" y="-63.5" font-family="Helvetica,sans-Serif" font-size="10" text-anchor="middle">utility</text></a></g></g><g id="edge2" class="edge"><title>Node1-&gt;Node3</title><path fill="none" stroke="#191970" d="M214.5,-112.4C214.5,-104.47 214.5,-94.46 214.5,-85.86"/><polygon fill="#191970" stroke="#191970" points="218 -85.66 214.5 -75.66 211 -85.66 218 -85.66"/></g><g id="node4" class="node"><title>Node4</title><g id="a_node4"><a target="_top" xlink:href="GraphicsFacade_8hpp.html"><polygon fill="none" stroke="#000" points="300 -56.5 300 -75.5 441 -75.5 441 -56.5 300 -56.5"/><text x="370.5" y="-63.5" font-family="Helvetica,sans-Serif" font-size="10" text-anchor="middle">Facade/GraphicsFacade.hpp</text></a></g></g><g id="edge3" class="edge"><title>Node1-&gt;Node4</title><path fill="none" stroke="#191970" d="M251.47,-112.4C277.88,-102.33 313.06,-88.91 338.31,-79.28"/><polygon fill="#191970" stroke="#191970" points="339.7 -82.49 347.8 -75.66 337.21 -75.95 339.7 -82.49"/></g><g id="edge11" class="edge"><title>Node4-&gt;Node2</title><path fill="none" stroke="#191970" d="M299.78,-58.41C236.64,-51.77 141.59,-39.91 51.16,-20.1"/><polygon fill="#191970" stroke="#191970" points="51.82 -16.66 41.3 -17.9 50.3 -23.49 51.82 -16.66"/></g><g id="node5" class="node"><title>Node5</title><g id="a_node5"><a><polygon fill="none" stroke="#bfbfbf" points="59 -.5 59 -19.5 130 -19.5 130 -.5 59 -.5"/><text x="94.5" y="-7.5" font-family="Helvetica,sans-Serif" font-size="10" text-anchor="middle">SDL2/SDL.h</text></a></g></g><g id="edge4" class="edge"><title>Node4-&gt;Node5</title><path fill="none" stroke="#191970" d="M325.56,-56.42C280.91,-47.87 210.19,-34.24 139.94,-20.27"/><polygon fill="#191970" stroke="#191970" points="140.53 -16.82 130.04 -18.3 139.16 -23.69 140.53 -16.82"/></g><g id="node6" class="node"><title>Node6</title><g id="a_node6"><a><polygon fill="none" stroke="#bfbfbf" points="148 -.5 148 -19.5 251 -19.5 251 -.5 148 -.5"/><text x="199.5" y="-7.5" font-family="Helvetica,sans-Serif" font-size="10" text-anchor="middle">SDL2/SDL_image.h</text></a></g></g><g id="edge5" class="edge"><title>Node4-&gt;Node6</title><path fill="none" stroke="#191970" d="M343.4,-56.44C314.51,-47.32 268.58,-32.81 236.39,-22.65"/><polygon fill="#191970" stroke="#191970" points="237.06 -19.19 226.47 -19.52 234.95 -25.87 237.06 -19.19"/></g><g id="node7" class="node"><title>Node7</title><g id="a_node7"><a><polygon fill="none" stroke="#bfbfbf" points="269.5 -.5 269.5 -19.5 323.5 -19.5 323.5 -.5 269.5 -.5"/><text x="296.5" y="-7.5" font-family="Helvetica,sans-Serif" font-size="10" text-anchor="middle">iostream</text></a></g></g><g id="edge6" class="edge"><title>Node4-&gt;Node7</title><path fill="none" stroke="#191970" d="M358.61,-56.32C347.35,-48.11 330.21,-35.6 316.79,-25.81"/><polygon fill="#191970" stroke="#191970" points="318.75 -22.9 308.61 -19.83 314.62 -28.56 318.75 -22.9"/></g><g id="node8" class="node"><title>Node8</title><g id="a_node8"><a target="_top" xlink:href="Color_8hpp.html"><polygon fill="none" stroke="#000" points="342 -.5 342 -19.5 399 -19.5 399 -.5 342 -.5"/><text x="370.5" y="-7.5" font-family="Helvetica,sans-Serif" font-size="10" text-anchor="middle">Color.hpp</text></a></g></g><g id="edge7" class="edge"><title>Node4-&gt;Node8</title><path fill="none" stroke="#191970" d="M370.5,-56.08C370.5,-49.01 370.5,-38.86 370.5,-29.99"/><polygon fill="#191970" stroke="#191970" points="374 -29.75 370.5 -19.75 367 -29.75 374 -29.75"/></g><g id="node9" class="node"><title>Node9</title><g id="a_node9"><a target="_top" xlink:href="NumberUtil_8hpp.html"><polygon fill="none" stroke="#000" points="417.5 -.5 417.5 -19.5 529.5 -19.5 529.5 -.5 417.5 -.5"/><text x="473.5" y="-7.5" font-family="Helvetica,sans-Serif" font-size="10" text-anchor="middle">Utility/NumberUtil.hpp</text></a></g></g><g id="edge8" class="edge"><title>Node4-&gt;Node9</title><path fill="none" stroke="#191970" d="M387.05,-56.32C403.49,-47.7 428.93,-34.36 447.97,-24.39"/><polygon fill="#191970" stroke="#191970" points="449.76 -27.4 456.99 -19.65 446.51 -21.2 449.76 -27.4"/></g><g id="node10" class="node"><title>Node10</title><g id="a_node10"><a><polygon fill="none" stroke="#bfbfbf" points="547 -.5 547 -19.5 598 -19.5 598 -.5 547 -.5"/><text x="572.5" y="-7.5" font-family="Helvetica,sans-Serif" font-size="10" text-anchor="middle">memory</text></a></g></g><g id="edge9" class="edge"><title>Node4-&gt;Node10</title><path fill="none" stroke="#191970" d="M402.51,-56.44C439.01,-46.68 498.55,-30.77 536.61,-20.6"/><polygon fill="#191970" stroke="#191970" points="537.97 -23.85 546.73 -17.89 536.17 -17.09 537.97 -23.85"/></g><g id="node11" class="node"><title>Node11</title><g id="a_node11"><a><polygon fill="none" stroke="#bfbfbf" points="616 -.5 616 -19.5 675 -19.5 675 -.5 616 -.5"/><text x="645.5" y="-7.5" font-family="Helvetica,sans-Serif" font-size="10" text-anchor="middle">functional</text></a></g></g><g id="edge10" class="edge"><title>Node4-&gt;Node11</title><path fill="none" stroke="#191970" d="M418.74,-56.5C464.57,-48.27 535.63,-35.13 605.77,-20.3"/><polygon fill="#191970" stroke="#191970" points="606.6 -23.71 615.66 -18.2 605.15 -16.86 606.6 -23.71"/></g><g id="node12" class="node"><title>Node12</title><g id="a_node12"><a><polygon fill="none" stroke="#bfbfbf" points="693.5 -.5 693.5 -19.5 737.5 -19.5 737.5 -.5 693.5 -.5"/><text x="715.5" y="-7.5" font-family="Helvetica,sans-Serif" font-size="10" text-anchor="middle">vector</text></a></g></g><g id="edge12" class="edge"><title>Node4-&gt;Node12</title><path fill="none" stroke="#191970" d="M441.15,-57.74C502.81,-50.76 594.79,-38.76 683.31,-20"/><polygon fill="#191970" stroke="#191970" points="684.2 -23.39 693.24 -17.87 682.73 -16.55 684.2 -23.39"/></g><g id="node13" class="node"><title>Node13</title><g id="a_node13"><a><polygon fill="none" stroke="#bfbfbf" points="756 -.5 756 -19.5 791 -19.5 791 -.5 756 -.5"/><text x="773.5" y="-7.5" font-family="Helvetica,sans-Serif" font-size="10" text-anchor="middle">map</text></a></g></g><g id="edge13" class="edge"><title>Node4-&gt;Node13</title><path fill="none" stroke="#191970" d="M441.21,-60.83C515.1,-55.5 634.37,-44.19 745.85,-19.68"/><polygon fill="#191970" stroke="#191970" points="746.93 -23.03 755.93 -17.43 745.4 -16.2 746.93 -23.03"/></g></g></svg>