<?xml version="1.0" encoding="UTF-8" standalone="no"?>
<!DOCTYPE svg PUBLIC "-//W3C//DTD SVG 1.1//EN"
 "http://www.w3.org/Graphics/SVG/1.1/DTD/svg11.dtd">
<!-- Generated by graphviz version 2.44.0 ()
 -->
<!-- Title: includes/platformer&#45;engine/Texture/TextureManager.hpp Pages: 1 -->
<svg width="874pt" height="218pt"
 viewBox="0.00 0.00 874.00 218.00" xmlns="http://www.w3.org/2000/svg" xmlns:xlink="http://www.w3.org/1999/xlink">
<g id="graph0" class="graph" transform="scale(1 1) rotate(0) translate(4 214)">
<title>includes/platformer&#45;engine/Texture/TextureManager.hpp</title>
<!-- Node1 -->
<g id="node1" class="node">
<title>Node1</title>
<g id="a_node1"><a xlink:title=" ">
<polygon fill="#bfbfbf" stroke="black" points="280.5,-179.5 280.5,-209.5 454.5,-209.5 454.5,-179.5 280.5,-179.5"/>
<text text-anchor="start" x="288.5" y="-197.5" font-family="Helvetica,sans-Serif" font-size="10.00">includes/platformer</text>
<text text-anchor="middle" x="367.5" y="-186.5" font-family="Helvetica,sans-Serif" font-size="10.00">&#45;engine/Texture/TextureManager.hpp</text>
</a>
</g>
</g>
<!-- Node2 -->
<g id="node2" class="node">
<title>Node2</title>
<g id="a_node2"><a xlink:title=" ">
<polygon fill="none" stroke="#bfbfbf" points="0,-67.5 0,-86.5 41,-86.5 41,-67.5 0,-67.5"/>
<text text-anchor="middle" x="20.5" y="-74.5" font-family="Helvetica,sans-Serif" font-size="10.00">string</text>
</a>
</g>
</g>
<!-- Node1&#45;&gt;Node2 -->
<g id="edge1" class="edge">
<title>Node1&#45;&gt;Node2</title>
<path fill="none" stroke="midnightblue" d="M325.3,-179.45C254.29,-155.82 112.64,-108.67 50.68,-88.05"/>
<polygon fill="midnightblue" stroke="midnightblue" points="51.7,-84.7 41.1,-84.86 49.49,-91.34 51.7,-84.7"/>
</g>
<!-- Node3 -->
<g id="node3" class="node">
<title>Node3</title>
<g id="a_node3"><a xlink:title=" ">
<polygon fill="none" stroke="#bfbfbf" points="294,-123.5 294,-142.5 333,-142.5 333,-123.5 294,-123.5"/>
<text text-anchor="middle" x="313.5" y="-130.5" font-family="Helvetica,sans-Serif" font-size="10.00">utility</text>
</a>
</g>
</g>
<!-- Node1&#45;&gt;Node3 -->
<g id="edge2" class="edge">
<title>Node1&#45;&gt;Node3</title>
<path fill="none" stroke="midnightblue" d="M354.7,-179.4C346.78,-170.66 336.56,-159.41 328.29,-150.3"/>
<polygon fill="midnightblue" stroke="midnightblue" points="330.67,-147.71 321.36,-142.66 325.49,-152.42 330.67,-147.71"/>
</g>
<!-- Node4 -->
<g id="node4" class="node">
<title>Node4</title>
<g id="a_node4"><a xlink:href="GraphicsFacade_8hpp.html" target="_top" xlink:title=" ">
<polygon fill="none" stroke="black" points="351,-123.5 351,-142.5 492,-142.5 492,-123.5 351,-123.5"/>
<text text-anchor="middle" x="421.5" y="-130.5" font-family="Helvetica,sans-Serif" font-size="10.00">Facade/GraphicsFacade.hpp</text>
</a>
</g>
</g>
<!-- Node1&#45;&gt;Node4 -->
<g id="edge3" class="edge">
<title>Node1&#45;&gt;Node4</title>
<path fill="none" stroke="midnightblue" d="M380.3,-179.4C388.22,-170.66 398.44,-159.41 406.71,-150.3"/>
<polygon fill="midnightblue" stroke="midnightblue" points="409.51,-152.42 413.64,-142.66 404.33,-147.71 409.51,-152.42"/>
</g>
<!-- Node18 -->
<g id="node18" class="node">
<title>Node18</title>
<g id="a_node18"><a xlink:href="Transform_8hpp.html" target="_top" xlink:title=" ">
<polygon fill="none" stroke="black" points="679,-123.5 679,-142.5 758,-142.5 758,-123.5 679,-123.5"/>
<text text-anchor="middle" x="718.5" y="-130.5" font-family="Helvetica,sans-Serif" font-size="10.00">Transform.hpp</text>
</a>
</g>
</g>
<!-- Node1&#45;&gt;Node18 -->
<g id="edge18" class="edge">
<title>Node1&#45;&gt;Node18</title>
<path fill="none" stroke="midnightblue" d="M450.24,-179.47C517.97,-167.99 611.58,-152.13 668.42,-142.49"/>
<polygon fill="midnightblue" stroke="midnightblue" points="669.32,-145.89 678.59,-140.76 668.15,-138.99 669.32,-145.89"/>
</g>
<!-- Node4&#45;&gt;Node2 -->
<g id="edge15" class="edge">
<title>Node4&#45;&gt;Node2</title>
<path fill="none" stroke="midnightblue" d="M350.7,-123.77C256.42,-112.76 96.92,-93.98 51.41,-86.76"/>
<polygon fill="midnightblue" stroke="midnightblue" points="51.75,-83.26 41.29,-84.94 50.52,-90.16 51.75,-83.26"/>
</g>
<!-- Node5 -->
<g id="node5" class="node">
<title>Node5</title>
<g id="a_node5"><a xlink:title=" ">
<polygon fill="none" stroke="#bfbfbf" points="59,-67.5 59,-86.5 130,-86.5 130,-67.5 59,-67.5"/>
<text text-anchor="middle" x="94.5" y="-74.5" font-family="Helvetica,sans-Serif" font-size="10.00">SDL2/SDL.h</text>
</a>
</g>
</g>
<!-- Node4&#45;&gt;Node5 -->
<g id="edge4" class="edge">
<title>Node4&#45;&gt;Node5</title>
<path fill="none" stroke="midnightblue" d="M363.11,-123.48C308.03,-115.28 222.93,-102.15 140.1,-87.23"/>
<polygon fill="midnightblue" stroke="midnightblue" points="140.48,-83.74 130.02,-85.4 139.23,-90.63 140.48,-83.74"/>
</g>
<!-- Node6 -->
<g id="node6" class="node">
<title>Node6</title>
<g id="a_node6"><a xlink:title=" ">
<polygon fill="none" stroke="#bfbfbf" points="148,-67.5 148,-86.5 251,-86.5 251,-67.5 148,-67.5"/>
<text text-anchor="middle" x="199.5" y="-74.5" font-family="Helvetica,sans-Serif" font-size="10.00">SDL2/SDL_image.h</text>
</a>
</g>
</g>
<!-- Node4&#45;&gt;Node6 -->
<g id="edge5" class="edge">
<title>Node4&#45;&gt;Node6</title>
<path fill="none" stroke="midnightblue" d="M386.32,-123.44C347.92,-114.1 286.32,-99.12 244.44,-88.93"/>
<polygon fill="midnightblue" stroke="midnightblue" points="245.06,-85.48 234.51,-86.52 243.4,-92.28 245.06,-85.48"/>
</g>
<!-- Node7 -->
<g id="node7" class="node">
<title>Node7</title>
<g id="a_node7"><a xlink:title=" ">
<polygon fill="none" stroke="#bfbfbf" points="269.5,-67.5 269.5,-86.5 323.5,-86.5 323.5,-67.5 269.5,-67.5"/>
<text text-anchor="middle" x="296.5" y="-74.5" font-family="Helvetica,sans-Serif" font-size="10.00">iostream</text>
</a>
</g>
</g>
<!-- Node4&#45;&gt;Node7 -->
<g id="edge6" class="edge">
<title>Node4&#45;&gt;Node7</title>
<path fill="none" stroke="midnightblue" d="M401.69,-123.44C381.21,-114.6 349.02,-100.69 325.64,-90.59"/>
<polygon fill="midnightblue" stroke="midnightblue" points="326.78,-87.27 316.21,-86.52 324.01,-93.7 326.78,-87.27"/>
</g>
<!-- Node8 -->
<g id="node8" class="node">
<title>Node8</title>
<g id="a_node8"><a xlink:href="Color_8hpp.html" target="_top" xlink:title=" ">
<polygon fill="none" stroke="black" points="342,-67.5 342,-86.5 399,-86.5 399,-67.5 342,-67.5"/>
<text text-anchor="middle" x="370.5" y="-74.5" font-family="Helvetica,sans-Serif" font-size="10.00">Color.hpp</text>
</a>
</g>
</g>
<!-- Node4&#45;&gt;Node8 -->
<g id="edge7" class="edge">
<title>Node4&#45;&gt;Node8</title>
<path fill="none" stroke="midnightblue" d="M413.08,-123.08C405.65,-115.22 394.65,-103.57 385.69,-94.08"/>
<polygon fill="midnightblue" stroke="midnightblue" points="388.18,-91.62 378.76,-86.75 383.09,-96.42 388.18,-91.62"/>
</g>
<!-- Node13 -->
<g id="node13" class="node">
<title>Node13</title>
<g id="a_node13"><a xlink:href="NumberUtil_8hpp.html" target="_top" xlink:title=" ">
<polygon fill="none" stroke="black" points="417.5,-67.5 417.5,-86.5 529.5,-86.5 529.5,-67.5 417.5,-67.5"/>
<text text-anchor="middle" x="473.5" y="-74.5" font-family="Helvetica,sans-Serif" font-size="10.00">Utility/NumberUtil.hpp</text>
</a>
</g>
</g>
<!-- Node4&#45;&gt;Node13 -->
<g id="edge12" class="edge">
<title>Node4&#45;&gt;Node13</title>
<path fill="none" stroke="midnightblue" d="M430.09,-123.08C437.66,-115.22 448.88,-103.57 458.01,-94.08"/>
<polygon fill="midnightblue" stroke="midnightblue" points="460.66,-96.38 465.07,-86.75 455.62,-91.53 460.66,-96.38"/>
</g>
<!-- Node14 -->
<g id="node14" class="node">
<title>Node14</title>
<g id="a_node14"><a xlink:title=" ">
<polygon fill="none" stroke="#bfbfbf" points="547,-67.5 547,-86.5 598,-86.5 598,-67.5 547,-67.5"/>
<text text-anchor="middle" x="572.5" y="-74.5" font-family="Helvetica,sans-Serif" font-size="10.00">memory</text>
</a>
</g>
</g>
<!-- Node4&#45;&gt;Node14 -->
<g id="edge13" class="edge">
<title>Node4&#45;&gt;Node14</title>
<path fill="none" stroke="midnightblue" d="M445.43,-123.44C470.72,-114.4 510.8,-100.06 539.18,-89.92"/>
<polygon fill="midnightblue" stroke="midnightblue" points="540.45,-93.18 548.69,-86.52 538.09,-86.59 540.45,-93.18"/>
</g>
<!-- Node15 -->
<g id="node15" class="node">
<title>Node15</title>
<g id="a_node15"><a xlink:title=" ">
<polygon fill="none" stroke="#bfbfbf" points="616,-67.5 616,-86.5 675,-86.5 675,-67.5 616,-67.5"/>
<text text-anchor="middle" x="645.5" y="-74.5" font-family="Helvetica,sans-Serif" font-size="10.00">functional</text>
</a>
</g>
</g>
<!-- Node4&#45;&gt;Node15 -->
<g id="edge14" class="edge">
<title>Node4&#45;&gt;Node15</title>
<path fill="none" stroke="midnightblue" d="M456.99,-123.44C497.57,-113.66 563.79,-97.7 605.98,-87.53"/>
<polygon fill="midnightblue" stroke="midnightblue" points="606.99,-90.88 615.9,-85.14 605.35,-84.08 606.99,-90.88"/>
</g>
<!-- Node16 -->
<g id="node16" class="node">
<title>Node16</title>
<g id="a_node16"><a xlink:title=" ">
<polygon fill="none" stroke="#bfbfbf" points="693.5,-67.5 693.5,-86.5 737.5,-86.5 737.5,-67.5 693.5,-67.5"/>
<text text-anchor="middle" x="715.5" y="-74.5" font-family="Helvetica,sans-Serif" font-size="10.00">vector</text>
</a>
</g>
</g>
<!-- Node4&#45;&gt;Node16 -->
<g id="edge16" class="edge">
<title>Node4&#45;&gt;Node16</title>
<path fill="none" stroke="midnightblue" d="M481.68,-123.48C532.72,-115.85 608.04,-103.61 683.09,-86.87"/>
<polygon fill="midnightblue" stroke="midnightblue" points="684.21,-90.21 693.2,-84.59 682.67,-83.38 684.21,-90.21"/>
</g>
<!-- Node17 -->
<g id="node17" class="node">
<title>Node17</title>
<g id="a_node17"><a xlink:title=" ">
<polygon fill="none" stroke="#bfbfbf" points="756,-67.5 756,-86.5 791,-86.5 791,-67.5 756,-67.5"/>
<text text-anchor="middle" x="773.5" y="-74.5" font-family="Helvetica,sans-Serif" font-size="10.00">map</text>
</a>
</g>
</g>
<!-- Node4&#45;&gt;Node17 -->
<g id="edge17" class="edge">
<title>Node4&#45;&gt;Node17</title>
<path fill="none" stroke="midnightblue" d="M492.24,-125.99C556.28,-119.7 653.21,-108.03 746.07,-86.68"/>
<polygon fill="midnightblue" stroke="midnightblue" points="746.98,-90.07 755.91,-84.38 745.38,-83.25 746.98,-90.07"/>
</g>
<!-- Node9 -->
<g id="node9" class="node">
<title>Node9</title>
<g id="a_node9"><a xlink:title=" ">
<polygon fill="none" stroke="#bfbfbf" points="151,-0.5 151,-30.5 246,-30.5 246,-0.5 151,-0.5"/>
<text text-anchor="start" x="159" y="-18.5" font-family="Helvetica,sans-Serif" font-size="10.00">boost/serialization</text>
<text text-anchor="middle" x="198.5" y="-7.5" font-family="Helvetica,sans-Serif" font-size="10.00">/access.hpp</text>
</a>
</g>
</g>
<!-- Node8&#45;&gt;Node9 -->
<g id="edge8" class="edge">
<title>Node8&#45;&gt;Node9</title>
<path fill="none" stroke="midnightblue" d="M345.86,-67.48C320.6,-58.74 280.62,-44.91 248.67,-33.86"/>
<polygon fill="midnightblue" stroke="midnightblue" points="249.63,-30.48 239.04,-30.52 247.34,-37.1 249.63,-30.48"/>
</g>
<!-- Node10 -->
<g id="node10" class="node">
<title>Node10</title>
<g id="a_node10"><a xlink:title=" ">
<polygon fill="none" stroke="#bfbfbf" points="264,-0.5 264,-30.5 359,-30.5 359,-0.5 264,-0.5"/>
<text text-anchor="start" x="272" y="-18.5" font-family="Helvetica,sans-Serif" font-size="10.00">boost/serialization</text>
<text text-anchor="middle" x="311.5" y="-7.5" font-family="Helvetica,sans-Serif" font-size="10.00">/export.hpp</text>
</a>
</g>
</g>
<!-- Node8&#45;&gt;Node10 -->
<g id="edge9" class="edge">
<title>Node8&#45;&gt;Node10</title>
<path fill="none" stroke="midnightblue" d="M362.05,-67.48C354.35,-59.72 342.68,-47.94 332.49,-37.66"/>
<polygon fill="midnightblue" stroke="midnightblue" points="334.93,-35.16 325.41,-30.52 329.96,-40.09 334.93,-35.16"/>
</g>
<!-- Node11 -->
<g id="node11" class="node">
<title>Node11</title>
<g id="a_node11"><a xlink:title=" ">
<polygon fill="none" stroke="#bfbfbf" points="377.5,-0.5 377.5,-30.5 481.5,-30.5 481.5,-0.5 377.5,-0.5"/>
<text text-anchor="start" x="385.5" y="-18.5" font-family="Helvetica,sans-Serif" font-size="10.00">boost/archive/binary</text>
<text text-anchor="middle" x="429.5" y="-7.5" font-family="Helvetica,sans-Serif" font-size="10.00">_iarchive.hpp</text>
</a>
</g>
</g>
<!-- Node8&#45;&gt;Node11 -->
<g id="edge10" class="edge">
<title>Node8&#45;&gt;Node11</title>
<path fill="none" stroke="midnightblue" d="M378.95,-67.48C386.65,-59.72 398.32,-47.94 408.51,-37.66"/>
<polygon fill="midnightblue" stroke="midnightblue" points="411.04,-40.09 415.59,-30.52 406.07,-35.16 411.04,-40.09"/>
</g>
<!-- Node12 -->
<g id="node12" class="node">
<title>Node12</title>
<g id="a_node12"><a xlink:title=" ">
<polygon fill="none" stroke="#bfbfbf" points="499.5,-0.5 499.5,-30.5 603.5,-30.5 603.5,-0.5 499.5,-0.5"/>
<text text-anchor="start" x="507.5" y="-18.5" font-family="Helvetica,sans-Serif" font-size="10.00">boost/archive/binary</text>
<text text-anchor="middle" x="551.5" y="-7.5" font-family="Helvetica,sans-Serif" font-size="10.00">_oarchive.hpp</text>
</a>
</g>
</g>
<!-- Node8&#45;&gt;Node12 -->
<g id="edge11" class="edge">
<title>Node8&#45;&gt;Node12</title>
<path fill="none" stroke="midnightblue" d="M396.43,-67.48C423.12,-58.7 465.45,-44.79 499.14,-33.71"/>
<polygon fill="midnightblue" stroke="midnightblue" points="500.44,-36.97 508.84,-30.52 498.25,-30.32 500.44,-36.97"/>
</g>
<!-- Node19 -->
<g id="node19" class="node">
<title>Node19</title>
<g id="a_node19"><a xlink:href="Point_8hpp.html" target="_top" xlink:title=" ">
<polygon fill="none" stroke="black" points="809,-67.5 809,-86.5 866,-86.5 866,-67.5 809,-67.5"/>
<text text-anchor="middle" x="837.5" y="-74.5" font-family="Helvetica,sans-Serif" font-size="10.00">Point.hpp</text>
</a>
</g>
</g>
<!-- Node18&#45;&gt;Node19 -->
<g id="edge19" class="edge">
<title>Node18&#45;&gt;Node19</title>
<path fill="none" stroke="midnightblue" d="M737.36,-123.44C756.77,-114.64 787.23,-100.81 809.46,-90.72"/>
<polygon fill="midnightblue" stroke="midnightblue" points="811.07,-93.84 818.73,-86.52 808.18,-87.46 811.07,-93.84"/>
</g>
</g>
</svg>
