<?xml version="1.0" encoding="UTF-8" standalone="no"?>
<!DOCTYPE svg PUBLIC "-//W3C//DTD SVG 1.1//EN"
 "http://www.w3.org/Graphics/SVG/1.1/DTD/svg11.dtd">
<!-- Generated by graphviz version 2.44.0 ()
 -->
<!-- Title: includes/platformer&#45;engine/Texture/TextureManager.hpp Pages: 1 -->
<svg width="1200pt" height="463pt"
 viewBox="0.00 0.00 1200.00 463.00" xmlns="http://www.w3.org/2000/svg" xmlns:xlink="http://www.w3.org/1999/xlink">
<g id="graph0" class="graph" transform="scale(1 1) rotate(0) translate(4 459)">
<title>includes/platformer&#45;engine/Texture/TextureManager.hpp</title>
<!-- Node1 -->
<g id="node1" class="node">
<title>Node1</title>
<g id="a_node1"><a xlink:title=" ">
<polygon fill="#bfbfbf" stroke="black" points="249,-424.5 249,-454.5 423,-454.5 423,-424.5 249,-424.5"/>
<text text-anchor="start" x="257" y="-442.5" font-family="Helvetica,sans-Serif" font-size="10.00">includes/platformer</text>
<text text-anchor="middle" x="336" y="-431.5" font-family="Helvetica,sans-Serif" font-size="10.00">&#45;engine/Texture/TextureManager.hpp</text>
</a>
</g>
</g>
<!-- Node2 -->
<g id="node2" class="node">
<title>Node2</title>
<g id="a_node2"><a xlink:href="GraphicsFacade_8cpp.html" target="_top" xlink:title=" ">
<polygon fill="none" stroke="black" points="0,-363 0,-382 158,-382 158,-363 0,-363"/>
<text text-anchor="middle" x="79" y="-370" font-family="Helvetica,sans-Serif" font-size="10.00">src/Facade/GraphicsFacade.cpp</text>
</a>
</g>
</g>
<!-- Node1&#45;&gt;Node2 -->
<g id="edge1" class="edge">
<title>Node1&#45;&gt;Node2</title>
<path fill="none" stroke="midnightblue" d="M270.72,-421.99C220.36,-409.25 152.73,-392.15 112.72,-382.03"/>
<polygon fill="midnightblue" stroke="midnightblue" points="270,-425.42 280.55,-424.48 271.71,-418.63 270,-425.42"/>
</g>
<!-- Node3 -->
<g id="node3" class="node">
<title>Node3</title>
<g id="a_node3"><a xlink:href="TextureManager_8cpp.html" target="_top" xlink:title=" ">
<polygon fill="none" stroke="black" points="176,-363 176,-382 332,-382 332,-363 176,-363"/>
<text text-anchor="middle" x="254" y="-370" font-family="Helvetica,sans-Serif" font-size="10.00">src/Texture/TextureManager.cpp</text>
</a>
</g>
</g>
<!-- Node1&#45;&gt;Node3 -->
<g id="edge2" class="edge">
<title>Node1&#45;&gt;Node3</title>
<path fill="none" stroke="midnightblue" d="M310.15,-418.01C294.93,-405.94 276.46,-391.3 264.97,-382.19"/>
<polygon fill="midnightblue" stroke="midnightblue" points="308.2,-420.93 318.21,-424.4 312.54,-415.44 308.2,-420.93"/>
</g>
<!-- Node4 -->
<g id="node4" class="node">
<title>Node4</title>
<g id="a_node4"><a xlink:href="Window_8hpp.html" target="_top" xlink:title=" ">
<polygon fill="none" stroke="black" points="350.5,-357.5 350.5,-387.5 487.5,-387.5 487.5,-357.5 350.5,-357.5"/>
<text text-anchor="start" x="358.5" y="-375.5" font-family="Helvetica,sans-Serif" font-size="10.00">includes/platformer</text>
<text text-anchor="middle" x="419" y="-364.5" font-family="Helvetica,sans-Serif" font-size="10.00">&#45;engine/Render/Window.hpp</text>
</a>
</g>
</g>
<!-- Node1&#45;&gt;Node4 -->
<g id="edge3" class="edge">
<title>Node1&#45;&gt;Node4</title>
<path fill="none" stroke="midnightblue" d="M361.96,-418.17C374.65,-408.23 389.61,-396.51 401.03,-387.58"/>
<polygon fill="midnightblue" stroke="midnightblue" points="359.72,-415.47 354.01,-424.4 364.04,-420.99 359.72,-415.47"/>
</g>
<!-- Node24 -->
<g id="node24" class="node">
<title>Node24</title>
<g id="a_node24"><a xlink:href="Sprite_8hpp.html" target="_top" xlink:title=" ">
<polygon fill="none" stroke="black" points="708.5,-357.5 708.5,-387.5 811.5,-387.5 811.5,-357.5 708.5,-357.5"/>
<text text-anchor="start" x="716.5" y="-375.5" font-family="Helvetica,sans-Serif" font-size="10.00">includes/spic&#45;prj&#45;api</text>
<text text-anchor="middle" x="760" y="-364.5" font-family="Helvetica,sans-Serif" font-size="10.00">/Sprite.hpp</text>
</a>
</g>
</g>
<!-- Node1&#45;&gt;Node24 -->
<g id="edge28" class="edge">
<title>Node1&#45;&gt;Node24</title>
<path fill="none" stroke="midnightblue" d="M433.08,-423.62C518.7,-410.49 640.16,-391.87 708.36,-381.42"/>
<polygon fill="midnightblue" stroke="midnightblue" points="432.44,-420.18 423.08,-425.15 433.5,-427.09 432.44,-420.18"/>
</g>
<!-- Node5 -->
<g id="node5" class="node">
<title>Node5</title>
<g id="a_node5"><a xlink:href="Window_8cpp.html" target="_top" xlink:title=" ">
<polygon fill="none" stroke="black" points="149.5,-296 149.5,-315 268.5,-315 268.5,-296 149.5,-296"/>
<text text-anchor="middle" x="209" y="-303" font-family="Helvetica,sans-Serif" font-size="10.00">src/Render/Window.cpp</text>
</a>
</g>
</g>
<!-- Node4&#45;&gt;Node5 -->
<g id="edge4" class="edge">
<title>Node4&#45;&gt;Node5</title>
<path fill="none" stroke="midnightblue" d="M364.11,-354.51C323.13,-341.83 268.84,-325.02 236.55,-315.03"/>
<polygon fill="midnightblue" stroke="midnightblue" points="363.1,-357.86 373.69,-357.48 365.17,-351.18 363.1,-357.86"/>
</g>
<!-- Node6 -->
<g id="node6" class="node">
<title>Node6</title>
<g id="a_node6"><a xlink:href="Timer_8cpp.html" target="_top" xlink:title=" ">
<polygon fill="none" stroke="black" points="287,-296 287,-315 391,-315 391,-296 287,-296"/>
<text text-anchor="middle" x="339" y="-303" font-family="Helvetica,sans-Serif" font-size="10.00">src/Timer/Timer.cpp</text>
</a>
</g>
</g>
<!-- Node4&#45;&gt;Node6 -->
<g id="edge5" class="edge">
<title>Node4&#45;&gt;Node6</title>
<path fill="none" stroke="midnightblue" d="M393.78,-351.01C378.93,-338.94 360.91,-324.3 349.7,-315.19"/>
<polygon fill="midnightblue" stroke="midnightblue" points="391.67,-353.81 401.64,-357.4 396.09,-348.37 391.67,-353.81"/>
</g>
<!-- Node7 -->
<g id="node7" class="node">
<title>Node7</title>
<g id="a_node7"><a xlink:href="Engine_8hpp.html" target="_top" xlink:title=" ">
<polygon fill="none" stroke="black" points="695.5,-73 695.5,-103 826.5,-103 826.5,-73 695.5,-73"/>
<text text-anchor="start" x="703.5" y="-91" font-family="Helvetica,sans-Serif" font-size="10.00">includes/platformer</text>
<text text-anchor="middle" x="761" y="-80" font-family="Helvetica,sans-Serif" font-size="10.00">&#45;engine/Engine/Engine.hpp</text>
</a>
</g>
</g>
<!-- Node4&#45;&gt;Node7 -->
<g id="edge6" class="edge">
<title>Node4&#45;&gt;Node7</title>
<path fill="none" stroke="midnightblue" d="M418.12,-347.16C417.88,-298.36 425.32,-189.47 493,-145 493.27,-144.82 615.92,-119.24 695.18,-102.72"/>
<polygon fill="midnightblue" stroke="midnightblue" points="414.63,-347.47 418.29,-357.41 421.62,-347.35 414.63,-347.47"/>
</g>
<!-- Node14 -->
<g id="node14" class="node">
<title>Node14</title>
<g id="a_node14"><a xlink:href="AnimatedSprite_8hpp.html" target="_top" xlink:title=" ">
<polygon fill="none" stroke="black" points="617.5,-290.5 617.5,-320.5 788.5,-320.5 788.5,-290.5 617.5,-290.5"/>
<text text-anchor="start" x="625.5" y="-308.5" font-family="Helvetica,sans-Serif" font-size="10.00">includes/platformer</text>
<text text-anchor="middle" x="703" y="-297.5" font-family="Helvetica,sans-Serif" font-size="10.00">&#45;engine/Texture/AnimatedSprite.hpp</text>
</a>
</g>
</g>
<!-- Node4&#45;&gt;Node14 -->
<g id="edge13" class="edge">
<title>Node4&#45;&gt;Node14</title>
<path fill="none" stroke="midnightblue" d="M490.28,-355.19C536.79,-344.54 596.9,-330.78 641.35,-320.61"/>
<polygon fill="midnightblue" stroke="midnightblue" points="489.24,-351.83 480.27,-357.48 490.8,-358.66 489.24,-351.83"/>
</g>
<!-- Node8 -->
<g id="node8" class="node">
<title>Node8</title>
<g id="a_node8"><a xlink:href="GameObjectDirector_8cpp.html" target="_top" xlink:title=" ">
<polygon fill="none" stroke="black" points="227,-6 227,-25 403,-25 403,-6 227,-6"/>
<text text-anchor="middle" x="315" y="-13" font-family="Helvetica,sans-Serif" font-size="10.00">src/Director/GameObjectDirector.cpp</text>
</a>
</g>
</g>
<!-- Node7&#45;&gt;Node8 -->
<g id="edge7" class="edge">
<title>Node7&#45;&gt;Node8</title>
<path fill="none" stroke="midnightblue" d="M686.64,-71.02C679.34,-69.6 672.03,-68.23 665,-67 553.13,-47.41 524.39,-47.4 412,-31 398.86,-29.08 384.72,-26.99 371.41,-25"/>
<polygon fill="midnightblue" stroke="midnightblue" points="686.07,-74.47 696.56,-72.98 687.43,-67.61 686.07,-74.47"/>
</g>
<!-- Node9 -->
<g id="node9" class="node">
<title>Node9</title>
<g id="a_node9"><a xlink:href="Engine_8cpp.html" target="_top" xlink:title=" ">
<polygon fill="none" stroke="black" points="421.5,-6 421.5,-25 534.5,-25 534.5,-6 421.5,-6"/>
<text text-anchor="middle" x="478" y="-13" font-family="Helvetica,sans-Serif" font-size="10.00">src/Engine/Engine.cpp</text>
</a>
</g>
</g>
<!-- Node7&#45;&gt;Node9 -->
<g id="edge8" class="edge">
<title>Node7&#45;&gt;Node9</title>
<path fill="none" stroke="midnightblue" d="M694.72,-70.49C637.61,-56.26 557.45,-36.29 512.34,-25.05"/>
<polygon fill="midnightblue" stroke="midnightblue" points="694.2,-73.97 704.75,-72.99 695.89,-67.17 694.2,-73.97"/>
</g>
<!-- Node10 -->
<g id="node10" class="node">
<title>Node10</title>
<g id="a_node10"><a xlink:href="TMXParser_8cpp.html" target="_top" xlink:title=" ">
<polygon fill="none" stroke="black" points="553,-6 553,-25 689,-25 689,-6 553,-6"/>
<text text-anchor="middle" x="621" y="-13" font-family="Helvetica,sans-Serif" font-size="10.00">src/Facade/TMXParser.cpp</text>
</a>
</g>
</g>
<!-- Node7&#45;&gt;Node10 -->
<g id="edge9" class="edge">
<title>Node7&#45;&gt;Node10</title>
<path fill="none" stroke="midnightblue" d="M723.93,-68.33C696.05,-54.29 659.15,-35.71 637.95,-25.03"/>
<polygon fill="midnightblue" stroke="midnightblue" points="722.5,-71.53 733.01,-72.9 725.65,-65.28 722.5,-71.53"/>
</g>
<!-- Node11 -->
<g id="node11" class="node">
<title>Node11</title>
<g id="a_node11"><a xlink:href="ClientNetworkManager_8cpp.html" target="_top" xlink:title=" ">
<polygon fill="none" stroke="black" points="707.5,-0.5 707.5,-30.5 854.5,-30.5 854.5,-0.5 707.5,-0.5"/>
<text text-anchor="start" x="715.5" y="-18.5" font-family="Helvetica,sans-Serif" font-size="10.00">src/Networking/ClientNetwork</text>
<text text-anchor="middle" x="781" y="-7.5" font-family="Helvetica,sans-Serif" font-size="10.00">Manager.cpp</text>
</a>
</g>
</g>
<!-- Node7&#45;&gt;Node11 -->
<g id="edge10" class="edge">
<title>Node7&#45;&gt;Node11</title>
<path fill="none" stroke="midnightblue" d="M767.79,-63.06C770.84,-52.32 774.33,-40.01 776.96,-30.75"/>
<polygon fill="midnightblue" stroke="midnightblue" points="764.41,-62.16 765.05,-72.73 771.14,-64.07 764.41,-62.16"/>
</g>
<!-- Node12 -->
<g id="node12" class="node">
<title>Node12</title>
<g id="a_node12"><a xlink:href="ServerNetworkManager_8cpp.html" target="_top" xlink:title=" ">
<polygon fill="none" stroke="black" points="872.5,-0.5 872.5,-30.5 1023.5,-30.5 1023.5,-0.5 872.5,-0.5"/>
<text text-anchor="start" x="880.5" y="-18.5" font-family="Helvetica,sans-Serif" font-size="10.00">src/Networking/ServerNetwork</text>
<text text-anchor="middle" x="948" y="-7.5" font-family="Helvetica,sans-Serif" font-size="10.00">Manager.cpp</text>
</a>
</g>
</g>
<!-- Node7&#45;&gt;Node12 -->
<g id="edge11" class="edge">
<title>Node7&#45;&gt;Node12</title>
<path fill="none" stroke="midnightblue" d="M807.92,-69.31C839.71,-57.33 881.13,-41.71 910.67,-30.57"/>
<polygon fill="midnightblue" stroke="midnightblue" points="806.52,-66.1 798.39,-72.9 808.98,-72.65 806.52,-66.1"/>
</g>
<!-- Node13 -->
<g id="node13" class="node">
<title>Node13</title>
<g id="a_node13"><a xlink:href="RenderSystem_8cpp.html" target="_top" xlink:title=" ">
<polygon fill="none" stroke="black" points="1042,-6 1042,-25 1192,-25 1192,-6 1042,-6"/>
<text text-anchor="middle" x="1117" y="-13" font-family="Helvetica,sans-Serif" font-size="10.00">src/Texture/RenderSystem.cpp</text>
</a>
</g>
</g>
<!-- Node7&#45;&gt;Node13 -->
<g id="edge12" class="edge">
<title>Node7&#45;&gt;Node13</title>
<path fill="none" stroke="midnightblue" d="M836.67,-72.01C908.95,-57.7 1015.3,-36.64 1074.05,-25.01"/>
<polygon fill="midnightblue" stroke="midnightblue" points="835.84,-68.61 826.71,-73.99 837.2,-75.48 835.84,-68.61"/>
</g>
<!-- Node15 -->
<g id="node15" class="node">
<title>Node15</title>
<g id="a_node15"><a xlink:href="AnimatedSprite_8cpp.html" target="_top" xlink:title=" ">
<polygon fill="none" stroke="black" points="626.5,-229 626.5,-248 779.5,-248 779.5,-229 626.5,-229"/>
<text text-anchor="middle" x="703" y="-236" font-family="Helvetica,sans-Serif" font-size="10.00">src/Texture/AnimatedSprite.cpp</text>
</a>
</g>
</g>
<!-- Node14&#45;&gt;Node15 -->
<g id="edge14" class="edge">
<title>Node14&#45;&gt;Node15</title>
<path fill="none" stroke="midnightblue" d="M703,-280.25C703,-269.02 703,-256.38 703,-248.19"/>
<polygon fill="midnightblue" stroke="midnightblue" points="699.5,-280.4 703,-290.4 706.5,-280.4 699.5,-280.4"/>
</g>
<!-- Node16 -->
<g id="node16" class="node">
<title>Node16</title>
<g id="a_node16"><a xlink:href="GameObjectBuilder_8hpp.html" target="_top" xlink:title=" ">
<polygon fill="none" stroke="black" points="502.5,-145.5 502.5,-186.5 641.5,-186.5 641.5,-145.5 502.5,-145.5"/>
<text text-anchor="start" x="510.5" y="-174.5" font-family="Helvetica,sans-Serif" font-size="10.00">includes/platformer</text>
<text text-anchor="start" x="510.5" y="-163.5" font-family="Helvetica,sans-Serif" font-size="10.00">&#45;engine/Builder/GameObject</text>
<text text-anchor="middle" x="572" y="-152.5" font-family="Helvetica,sans-Serif" font-size="10.00">Builder.hpp</text>
</a>
</g>
</g>
<!-- Node14&#45;&gt;Node16 -->
<g id="edge15" class="edge">
<title>Node14&#45;&gt;Node16</title>
<path fill="none" stroke="midnightblue" d="M754.35,-285.66C768.03,-278.02 781.17,-267.68 789,-254 795.84,-242.04 797.44,-233.89 789,-223 779.72,-211.02 701.41,-192.89 641.5,-180.53"/>
<polygon fill="midnightblue" stroke="midnightblue" points="752.62,-282.61 745.33,-290.3 755.82,-288.84 752.62,-282.61"/>
</g>
<!-- Node19 -->
<g id="node19" class="node">
<title>Node19</title>
<g id="a_node19"><a xlink:href="ObjectBuilder_8hpp.html" target="_top" xlink:title=" ">
<polygon fill="none" stroke="black" points="447.5,-223.5 447.5,-253.5 608.5,-253.5 608.5,-223.5 447.5,-223.5"/>
<text text-anchor="start" x="455.5" y="-241.5" font-family="Helvetica,sans-Serif" font-size="10.00">includes/platformer</text>
<text text-anchor="middle" x="528" y="-230.5" font-family="Helvetica,sans-Serif" font-size="10.00">&#45;engine/Builder/ObjectBuilder.hpp</text>
</a>
</g>
</g>
<!-- Node14&#45;&gt;Node19 -->
<g id="edge19" class="edge">
<title>Node14&#45;&gt;Node19</title>
<path fill="none" stroke="midnightblue" d="M655.4,-286.82C627.27,-276.37 592.14,-263.32 565.9,-253.58"/>
<polygon fill="midnightblue" stroke="midnightblue" points="654.43,-290.2 665.03,-290.4 656.87,-283.63 654.43,-290.2"/>
</g>
<!-- Node20 -->
<g id="node20" class="node">
<title>Node20</title>
<g id="a_node20"><a xlink:href="Animator_8hpp.html" target="_top" xlink:title=" ">
<polygon fill="none" stroke="black" points="836.5,-223.5 836.5,-253.5 939.5,-253.5 939.5,-223.5 836.5,-223.5"/>
<text text-anchor="start" x="844.5" y="-241.5" font-family="Helvetica,sans-Serif" font-size="10.00">includes/spic&#45;prj&#45;api</text>
<text text-anchor="middle" x="888" y="-230.5" font-family="Helvetica,sans-Serif" font-size="10.00">/Animator.hpp</text>
</a>
</g>
</g>
<!-- Node14&#45;&gt;Node20 -->
<g id="edge21" class="edge">
<title>Node14&#45;&gt;Node20</title>
<path fill="none" stroke="midnightblue" d="M752.94,-286.96C782.74,-276.48 820.07,-263.37 847.94,-253.58"/>
<polygon fill="midnightblue" stroke="midnightblue" points="751.42,-283.78 743.14,-290.4 753.74,-290.38 751.42,-283.78"/>
</g>
<!-- Node17 -->
<g id="node17" class="node">
<title>Node17</title>
<g id="a_node17"><a xlink:href="GameObjectBuilder_8cpp.html" target="_top" xlink:title=" ">
<polygon fill="none" stroke="black" points="487.5,-78.5 487.5,-97.5 656.5,-97.5 656.5,-78.5 487.5,-78.5"/>
<text text-anchor="middle" x="572" y="-85.5" font-family="Helvetica,sans-Serif" font-size="10.00">src/Builder/GameObjectBuilder.cpp</text>
</a>
</g>
</g>
<!-- Node16&#45;&gt;Node17 -->
<g id="edge16" class="edge">
<title>Node16&#45;&gt;Node17</title>
<path fill="none" stroke="midnightblue" d="M572,-135.05C572,-121.56 572,-106.65 572,-97.55"/>
<polygon fill="midnightblue" stroke="midnightblue" points="568.5,-135.43 572,-145.43 575.5,-135.43 568.5,-135.43"/>
</g>
<!-- Node18 -->
<g id="node18" class="node">
<title>Node18</title>
<g id="a_node18"><a xlink:href="GameObjectDirector_8hpp.html" target="_top" xlink:title=" ">
<polygon fill="none" stroke="black" points="298.5,-67.5 298.5,-108.5 441.5,-108.5 441.5,-67.5 298.5,-67.5"/>
<text text-anchor="start" x="306.5" y="-96.5" font-family="Helvetica,sans-Serif" font-size="10.00">includes/platformer</text>
<text text-anchor="start" x="306.5" y="-85.5" font-family="Helvetica,sans-Serif" font-size="10.00">&#45;engine/Director/GameObject</text>
<text text-anchor="middle" x="370" y="-74.5" font-family="Helvetica,sans-Serif" font-size="10.00">Director.hpp</text>
</a>
</g>
</g>
<!-- Node16&#45;&gt;Node18 -->
<g id="edge17" class="edge">
<title>Node16&#45;&gt;Node18</title>
<path fill="none" stroke="midnightblue" d="M510.57,-141.89C482.21,-131.22 448.91,-118.69 421.84,-108.51"/>
<polygon fill="midnightblue" stroke="midnightblue" points="509.39,-145.18 519.98,-145.43 511.85,-138.63 509.39,-145.18"/>
</g>
<!-- Node18&#45;&gt;Node8 -->
<g id="edge18" class="edge">
<title>Node18&#45;&gt;Node8</title>
<path fill="none" stroke="midnightblue" d="M348.33,-59.22C338.84,-47.06 328.39,-33.67 321.77,-25.17"/>
<polygon fill="midnightblue" stroke="midnightblue" points="345.77,-61.63 354.68,-67.36 351.29,-57.32 345.77,-61.63"/>
</g>
<!-- Node19&#45;&gt;Node16 -->
<g id="edge20" class="edge">
<title>Node19&#45;&gt;Node16</title>
<path fill="none" stroke="midnightblue" d="M542.23,-214.7C547.89,-205.63 554.33,-195.31 559.77,-186.59"/>
<polygon fill="midnightblue" stroke="midnightblue" points="539.23,-212.9 536.9,-223.23 545.17,-216.6 539.23,-212.9"/>
</g>
<!-- Node20&#45;&gt;Node16 -->
<g id="edge24" class="edge">
<title>Node20&#45;&gt;Node16</title>
<path fill="none" stroke="midnightblue" d="M826.22,-223.72C773.18,-211.88 696.78,-194.84 641.6,-182.53"/>
<polygon fill="midnightblue" stroke="midnightblue" points="825.65,-227.18 836.17,-225.94 827.17,-220.34 825.65,-227.18"/>
</g>
<!-- Node21 -->
<g id="node21" class="node">
<title>Node21</title>
<g id="a_node21"><a xlink:href="Animator_8cpp.html" target="_top" xlink:title=" ">
<polygon fill="none" stroke="black" points="705,-156.5 705,-175.5 815,-175.5 815,-156.5 705,-156.5"/>
<text text-anchor="middle" x="760" y="-163.5" font-family="Helvetica,sans-Serif" font-size="10.00">src/API/Animator.cpp</text>
</a>
</g>
</g>
<!-- Node20&#45;&gt;Node21 -->
<g id="edge22" class="edge">
<title>Node20&#45;&gt;Node21</title>
<path fill="none" stroke="midnightblue" d="M853.44,-218.47C828.03,-204.47 794.71,-186.12 775.49,-175.53"/>
<polygon fill="midnightblue" stroke="midnightblue" points="851.96,-221.64 862.4,-223.4 855.33,-215.51 851.96,-221.64"/>
</g>
<!-- Node22 -->
<g id="node22" class="node">
<title>Node22</title>
<g id="a_node22"><a xlink:href="Scene_8cpp.html" target="_top" xlink:title=" ">
<polygon fill="none" stroke="black" points="833,-156.5 833,-175.5 943,-175.5 943,-156.5 833,-156.5"/>
<text text-anchor="middle" x="888" y="-163.5" font-family="Helvetica,sans-Serif" font-size="10.00">src/Scene/Scene.cpp</text>
</a>
</g>
</g>
<!-- Node20&#45;&gt;Node22 -->
<g id="edge23" class="edge">
<title>Node20&#45;&gt;Node22</title>
<path fill="none" stroke="midnightblue" d="M888,-213.09C888,-200.21 888,-185.2 888,-175.89"/>
<polygon fill="midnightblue" stroke="midnightblue" points="884.5,-213.23 888,-223.23 891.5,-213.23 884.5,-213.23"/>
</g>
<!-- Node23 -->
<g id="node23" class="node">
<title>Node23</title>
<g id="a_node23"><a xlink:href="RenderSystem_8hpp.html" target="_top" xlink:title=" ">
<polygon fill="none" stroke="black" points="961,-151 961,-181 1129,-181 1129,-151 961,-151"/>
<text text-anchor="start" x="969" y="-169" font-family="Helvetica,sans-Serif" font-size="10.00">includes/platformer</text>
<text text-anchor="middle" x="1045" y="-158" font-family="Helvetica,sans-Serif" font-size="10.00">&#45;engine/Texture/RenderSystem.hpp</text>
</a>
</g>
</g>
<!-- Node20&#45;&gt;Node23 -->
<g id="edge25" class="edge">
<title>Node20&#45;&gt;Node23</title>
<path fill="none" stroke="midnightblue" d="M928.78,-219.19C955.28,-207.29 989.29,-192.02 1013.66,-181.07"/>
<polygon fill="midnightblue" stroke="midnightblue" points="927.08,-216.11 919.39,-223.4 929.95,-222.5 927.08,-216.11"/>
</g>
<!-- Node23&#45;&gt;Node7 -->
<g id="edge27" class="edge">
<title>Node23&#45;&gt;Node7</title>
<path fill="none" stroke="midnightblue" d="M982.73,-148.34C932.09,-134.78 861.43,-115.88 813.6,-103.07"/>
<polygon fill="midnightblue" stroke="midnightblue" points="982.01,-151.77 992.58,-150.97 983.82,-145.01 982.01,-151.77"/>
</g>
<!-- Node23&#45;&gt;Node13 -->
<g id="edge26" class="edge">
<title>Node23&#45;&gt;Node13</title>
<path fill="none" stroke="midnightblue" d="M1056.31,-141.68C1072.56,-108.15 1101.77,-47.9 1112.71,-25.35"/>
<polygon fill="midnightblue" stroke="midnightblue" points="1053.12,-140.24 1051.9,-150.76 1059.42,-143.29 1053.12,-140.24"/>
</g>
<!-- Node24&#45;&gt;Node14 -->
<g id="edge30" class="edge">
<title>Node24&#45;&gt;Node14</title>
<path fill="none" stroke="midnightblue" d="M740.91,-349.74C732.48,-340.12 722.81,-329.09 715.34,-320.58"/>
<polygon fill="midnightblue" stroke="midnightblue" points="738.41,-352.18 747.63,-357.4 743.67,-347.57 738.41,-352.18"/>
</g>
<!-- Node24&#45;&gt;Node20 -->
<g id="edge31" class="edge">
<title>Node24&#45;&gt;Node20</title>
<path fill="none" stroke="midnightblue" d="M779.6,-349.91C794.78,-333.32 816.45,-309.95 836,-290 848.15,-277.6 862.32,-263.89 872.79,-253.89"/>
<polygon fill="midnightblue" stroke="midnightblue" points="776.86,-347.71 772.7,-357.46 782.03,-352.43 776.86,-347.71"/>
</g>
<!-- Node25 -->
<g id="node25" class="node">
<title>Node25</title>
<g id="a_node25"><a xlink:href="Sprite_8cpp.html" target="_top" xlink:title=" ">
<polygon fill="none" stroke="black" points="845,-296 845,-315 941,-315 941,-296 845,-296"/>
<text text-anchor="middle" x="893" y="-303" font-family="Helvetica,sans-Serif" font-size="10.00">src/API/Sprite.cpp</text>
</a>
</g>
</g>
<!-- Node24&#45;&gt;Node25 -->
<g id="edge29" class="edge">
<title>Node24&#45;&gt;Node25</title>
<path fill="none" stroke="midnightblue" d="M797.92,-352.97C823.47,-340.48 855.97,-324.6 875.59,-315.01"/>
<polygon fill="midnightblue" stroke="midnightblue" points="796.31,-349.86 788.86,-357.4 799.38,-356.15 796.31,-349.86"/>
</g>
</g>
</svg>
