<?xml version="1.0" encoding="UTF-8" standalone="no"?>
<!DOCTYPE svg PUBLIC "-//W3C//DTD SVG 1.1//EN"
 "http://www.w3.org/Graphics/SVG/1.1/DTD/svg11.dtd">
<!-- Generated by graphviz version 2.44.0 ()
 -->
<!-- Title: includes/spic&#45;prj&#45;api/Text.hpp Pages: 1 -->
<svg width="446pt" height="263pt"
 viewBox="0.00 0.00 445.50 263.00" xmlns="http://www.w3.org/2000/svg" xmlns:xlink="http://www.w3.org/1999/xlink">
<g id="graph0" class="graph" transform="scale(1 1) rotate(0) translate(4 259)">
<title>includes/spic&#45;prj&#45;api/Text.hpp</title>
<!-- Node1 -->
<g id="node1" class="node">
<title>Node1</title>
<g id="a_node1"><a xlink:title=" ">
<polygon fill="#bfbfbf" stroke="black" points="300.5,-224.5 300.5,-254.5 403.5,-254.5 403.5,-224.5 300.5,-224.5"/>
<text text-anchor="start" x="308.5" y="-242.5" font-family="Helvetica,sans-Serif" font-size="10.00">includes/spic&#45;prj&#45;api</text>
<text text-anchor="middle" x="352" y="-231.5" font-family="Helvetica,sans-Serif" font-size="10.00">/Text.hpp</text>
</a>
</g>
</g>
<!-- Node2 -->
<g id="node2" class="node">
<title>Node2</title>
<g id="a_node2"><a xlink:href="UIObject_8hpp.html" target="_top" xlink:title=" ">
<polygon fill="none" stroke="black" points="246,-168.5 246,-187.5 320,-187.5 320,-168.5 246,-168.5"/>
<text text-anchor="middle" x="283" y="-175.5" font-family="Helvetica,sans-Serif" font-size="10.00">UIObject.hpp</text>
</a>
</g>
</g>
<!-- Node1&#45;&gt;Node2 -->
<g id="edge1" class="edge">
<title>Node1&#45;&gt;Node2</title>
<path fill="none" stroke="midnightblue" d="M335.65,-224.4C325.1,-215.31 311.4,-203.49 300.62,-194.19"/>
<polygon fill="midnightblue" stroke="midnightblue" points="302.9,-191.54 293.04,-187.66 298.33,-196.84 302.9,-191.54"/>
</g>
<!-- Node8 -->
<g id="node8" class="node">
<title>Node8</title>
<g id="a_node8"><a xlink:title=" ">
<polygon fill="none" stroke="#bfbfbf" points="352.5,-56.5 352.5,-75.5 393.5,-75.5 393.5,-56.5 352.5,-56.5"/>
<text text-anchor="middle" x="373" y="-63.5" font-family="Helvetica,sans-Serif" font-size="10.00">string</text>
</a>
</g>
</g>
<!-- Node1&#45;&gt;Node8 -->
<g id="edge12" class="edge">
<title>Node1&#45;&gt;Node8</title>
<path fill="none" stroke="midnightblue" d="M353.72,-224.47C357.49,-193.7 366.47,-120.33 370.71,-85.7"/>
<polygon fill="midnightblue" stroke="midnightblue" points="374.21,-85.91 371.95,-75.56 367.26,-85.06 374.21,-85.91"/>
</g>
<!-- Node11 -->
<g id="node11" class="node">
<title>Node11</title>
<g id="a_node11"><a xlink:href="Color_8hpp.html" target="_top" xlink:title=" ">
<polygon fill="none" stroke="black" points="380.5,-168.5 380.5,-187.5 437.5,-187.5 437.5,-168.5 380.5,-168.5"/>
<text text-anchor="middle" x="409" y="-175.5" font-family="Helvetica,sans-Serif" font-size="10.00">Color.hpp</text>
</a>
</g>
</g>
<!-- Node1&#45;&gt;Node11 -->
<g id="edge11" class="edge">
<title>Node1&#45;&gt;Node11</title>
<path fill="none" stroke="midnightblue" d="M365.51,-224.4C373.96,-215.58 384.88,-204.18 393.66,-195.02"/>
<polygon fill="midnightblue" stroke="midnightblue" points="396.32,-197.3 400.71,-187.66 391.26,-192.46 396.32,-197.3"/>
</g>
<!-- Node3 -->
<g id="node3" class="node">
<title>Node3</title>
<g id="a_node3"><a xlink:href="GameObject_8hpp.html" target="_top" xlink:title=" ">
<polygon fill="none" stroke="black" points="214.5,-112.5 214.5,-131.5 303.5,-131.5 303.5,-112.5 214.5,-112.5"/>
<text text-anchor="middle" x="259" y="-119.5" font-family="Helvetica,sans-Serif" font-size="10.00">GameObject.hpp</text>
</a>
</g>
</g>
<!-- Node2&#45;&gt;Node3 -->
<g id="edge2" class="edge">
<title>Node2&#45;&gt;Node3</title>
<path fill="none" stroke="midnightblue" d="M279.04,-168.08C275.79,-160.77 271.08,-150.18 267.05,-141.1"/>
<polygon fill="midnightblue" stroke="midnightblue" points="270.15,-139.47 262.89,-131.75 263.75,-142.31 270.15,-139.47"/>
</g>
<!-- Node4 -->
<g id="node4" class="node">
<title>Node4</title>
<g id="a_node4"><a xlink:href="Component_8hpp.html" target="_top" xlink:title=" ">
<polygon fill="none" stroke="black" points="0,-56.5 0,-75.5 84,-75.5 84,-56.5 0,-56.5"/>
<text text-anchor="middle" x="42" y="-63.5" font-family="Helvetica,sans-Serif" font-size="10.00">Component.hpp</text>
</a>
</g>
</g>
<!-- Node3&#45;&gt;Node4 -->
<g id="edge3" class="edge">
<title>Node3&#45;&gt;Node4</title>
<path fill="none" stroke="midnightblue" d="M224.62,-112.44C187.08,-103.1 126.87,-88.12 85.93,-77.93"/>
<polygon fill="midnightblue" stroke="midnightblue" points="86.77,-74.53 76.22,-75.52 85.08,-81.33 86.77,-74.53"/>
</g>
<!-- Node5 -->
<g id="node5" class="node">
<title>Node5</title>
<g id="a_node5"><a xlink:title=" ">
<polygon fill="none" stroke="#bfbfbf" points="49.5,-0.5 49.5,-19.5 100.5,-19.5 100.5,-0.5 49.5,-0.5"/>
<text text-anchor="middle" x="75" y="-7.5" font-family="Helvetica,sans-Serif" font-size="10.00">memory</text>
</a>
</g>
</g>
<!-- Node3&#45;&gt;Node5 -->
<g id="edge9" class="edge">
<title>Node3&#45;&gt;Node5</title>
<path fill="none" stroke="midnightblue" d="M218.14,-112.43C191.68,-105.54 157.36,-93.99 131,-76 112.43,-63.33 96.29,-43 86.17,-28.45"/>
<polygon fill="midnightblue" stroke="midnightblue" points="88.9,-26.23 80.43,-19.87 83.08,-30.12 88.9,-26.23"/>
</g>
<!-- Node6 -->
<g id="node6" class="node">
<title>Node6</title>
<g id="a_node6"><a xlink:href="Transform_8hpp.html" target="_top" xlink:title=" ">
<polygon fill="none" stroke="black" points="140.5,-56.5 140.5,-75.5 219.5,-75.5 219.5,-56.5 140.5,-56.5"/>
<text text-anchor="middle" x="180" y="-63.5" font-family="Helvetica,sans-Serif" font-size="10.00">Transform.hpp</text>
</a>
</g>
</g>
<!-- Node3&#45;&gt;Node6 -->
<g id="edge5" class="edge">
<title>Node3&#45;&gt;Node6</title>
<path fill="none" stroke="midnightblue" d="M246.31,-112.32C234.1,-103.98 215.42,-91.21 201,-81.35"/>
<polygon fill="midnightblue" stroke="midnightblue" points="202.89,-78.41 192.66,-75.65 198.94,-84.19 202.89,-78.41"/>
</g>
<!-- Node3&#45;&gt;Node8 -->
<g id="edge7" class="edge">
<title>Node3&#45;&gt;Node8</title>
<path fill="none" stroke="midnightblue" d="M277.06,-112.44C295.57,-103.68 324.58,-89.94 345.86,-79.86"/>
<polygon fill="midnightblue" stroke="midnightblue" points="347.48,-82.96 355.02,-75.52 344.49,-76.63 347.48,-82.96"/>
</g>
<!-- Node9 -->
<g id="node9" class="node">
<title>Node9</title>
<g id="a_node9"><a xlink:title=" ">
<polygon fill="none" stroke="#bfbfbf" points="237,-56.5 237,-75.5 281,-75.5 281,-56.5 237,-56.5"/>
<text text-anchor="middle" x="259" y="-63.5" font-family="Helvetica,sans-Serif" font-size="10.00">vector</text>
</a>
</g>
</g>
<!-- Node3&#45;&gt;Node9 -->
<g id="edge8" class="edge">
<title>Node3&#45;&gt;Node9</title>
<path fill="none" stroke="midnightblue" d="M259,-112.08C259,-105.01 259,-94.86 259,-85.99"/>
<polygon fill="midnightblue" stroke="midnightblue" points="262.5,-85.75 259,-75.75 255.5,-85.75 262.5,-85.75"/>
</g>
<!-- Node10 -->
<g id="node10" class="node">
<title>Node10</title>
<g id="a_node10"><a xlink:title=" ">
<polygon fill="none" stroke="#bfbfbf" points="299.5,-56.5 299.5,-75.5 334.5,-75.5 334.5,-56.5 299.5,-56.5"/>
<text text-anchor="middle" x="317" y="-63.5" font-family="Helvetica,sans-Serif" font-size="10.00">map</text>
</a>
</g>
</g>
<!-- Node3&#45;&gt;Node10 -->
<g id="edge10" class="edge">
<title>Node3&#45;&gt;Node10</title>
<path fill="none" stroke="midnightblue" d="M268.32,-112.32C276.89,-104.34 289.81,-92.31 300.19,-82.65"/>
<polygon fill="midnightblue" stroke="midnightblue" points="302.58,-85.21 307.51,-75.83 297.81,-80.09 302.58,-85.21"/>
</g>
<!-- Node4&#45;&gt;Node5 -->
<g id="edge4" class="edge">
<title>Node4&#45;&gt;Node5</title>
<path fill="none" stroke="midnightblue" d="M47.45,-56.08C52.01,-48.61 58.67,-37.72 64.29,-28.52"/>
<polygon fill="midnightblue" stroke="midnightblue" points="67.42,-30.11 69.65,-19.75 61.45,-26.46 67.42,-30.11"/>
</g>
<!-- Node7 -->
<g id="node7" class="node">
<title>Node7</title>
<g id="a_node7"><a xlink:href="Point_8hpp.html" target="_top" xlink:title=" ">
<polygon fill="none" stroke="black" points="151.5,-0.5 151.5,-19.5 208.5,-19.5 208.5,-0.5 151.5,-0.5"/>
<text text-anchor="middle" x="180" y="-7.5" font-family="Helvetica,sans-Serif" font-size="10.00">Point.hpp</text>
</a>
</g>
</g>
<!-- Node6&#45;&gt;Node7 -->
<g id="edge6" class="edge">
<title>Node6&#45;&gt;Node7</title>
<path fill="none" stroke="midnightblue" d="M180,-56.08C180,-49.01 180,-38.86 180,-29.99"/>
<polygon fill="midnightblue" stroke="midnightblue" points="183.5,-29.75 180,-19.75 176.5,-29.75 183.5,-29.75"/>
</g>
</g>
</svg>
