<?xml version="1.0" encoding="UTF-8" standalone="no"?>
<!DOCTYPE svg PUBLIC "-//W3C//DTD SVG 1.1//EN"
 "http://www.w3.org/Graphics/SVG/1.1/DTD/svg11.dtd">
<!-- Generated by graphviz version 2.44.0 ()
 -->
<!-- Title: includes/spic&#45;prj&#45;api/Text.hpp Pages: 1 -->
<svg width="350pt" height="173pt"
 viewBox="0.00 0.00 349.50 173.00" xmlns="http://www.w3.org/2000/svg" xmlns:xlink="http://www.w3.org/1999/xlink">
<g id="graph0" class="graph" transform="scale(1 1) rotate(0) translate(4 169)">
<title>includes/spic&#45;prj&#45;api/Text.hpp</title>
<!-- Node1 -->
<g id="node1" class="node">
<title>Node1</title>
<g id="a_node1"><a xlink:title=" ">
<polygon fill="#bfbfbf" stroke="black" points="66,-134.5 66,-164.5 169,-164.5 169,-134.5 66,-134.5"/>
<text text-anchor="start" x="74" y="-152.5" font-family="Helvetica,sans-Serif" font-size="10.00">includes/spic&#45;prj&#45;api</text>
<text text-anchor="middle" x="117.5" y="-141.5" font-family="Helvetica,sans-Serif" font-size="10.00">/Text.hpp</text>
</a>
</g>
</g>
<!-- Node2 -->
<g id="node2" class="node">
<title>Node2</title>
<g id="a_node2"><a xlink:href="Text_8cpp.html" target="_top" xlink:title=" ">
<polygon fill="none" stroke="black" points="0,-67.5 0,-86.5 89,-86.5 89,-67.5 0,-67.5"/>
<text text-anchor="middle" x="44.5" y="-74.5" font-family="Helvetica,sans-Serif" font-size="10.00">src/API/Text.cpp</text>
</a>
</g>
</g>
<!-- Node1&#45;&gt;Node2 -->
<g id="edge1" class="edge">
<title>Node1&#45;&gt;Node2</title>
<path fill="none" stroke="midnightblue" d="M95.38,-127.14C81.42,-113.65 64.11,-96.94 53.71,-86.89"/>
<polygon fill="midnightblue" stroke="midnightblue" points="93.1,-129.8 102.73,-134.23 97.97,-124.77 93.1,-129.8"/>
</g>
<!-- Node3 -->
<g id="node3" class="node">
<title>Node3</title>
<g id="a_node3"><a xlink:href="GameObjectFactory_8cpp.html" target="_top" xlink:title=" ">
<polygon fill="none" stroke="black" points="30,-0.5 30,-19.5 205,-19.5 205,-0.5 30,-0.5"/>
<text text-anchor="middle" x="117.5" y="-7.5" font-family="Helvetica,sans-Serif" font-size="10.00">src/Director/GameObjectFactory.cpp</text>
</a>
</g>
</g>
<!-- Node1&#45;&gt;Node3 -->
<g id="edge2" class="edge">
<title>Node1&#45;&gt;Node3</title>
<path fill="none" stroke="midnightblue" d="M117.5,-124.25C117.5,-93.03 117.5,-40.37 117.5,-19.7"/>
<polygon fill="midnightblue" stroke="midnightblue" points="114,-124.3 117.5,-134.3 121,-124.3 114,-124.3"/>
</g>
<!-- Node4 -->
<g id="node4" class="node">
<title>Node4</title>
<g id="a_node4"><a xlink:href="GameObjectFactory_8hpp.html" target="_top" xlink:title=" ">
<polygon fill="none" stroke="black" points="146,-56.5 146,-97.5 289,-97.5 289,-56.5 146,-56.5"/>
<text text-anchor="start" x="154" y="-85.5" font-family="Helvetica,sans-Serif" font-size="10.00">includes/platformer</text>
<text text-anchor="start" x="154" y="-74.5" font-family="Helvetica,sans-Serif" font-size="10.00">&#45;engine/Director/GameObject</text>
<text text-anchor="middle" x="217.5" y="-63.5" font-family="Helvetica,sans-Serif" font-size="10.00">Factory.hpp</text>
</a>
</g>
</g>
<!-- Node1&#45;&gt;Node4 -->
<g id="edge3" class="edge">
<title>Node1&#45;&gt;Node4</title>
<path fill="none" stroke="midnightblue" d="M146.28,-128.21C159.94,-118.58 176.19,-107.12 189.71,-97.59"/>
<polygon fill="midnightblue" stroke="midnightblue" points="143.89,-125.61 137.74,-134.23 147.93,-131.33 143.89,-125.61"/>
</g>
<!-- Node4&#45;&gt;Node3 -->
<g id="edge4" class="edge">
<title>Node4&#45;&gt;Node3</title>
<path fill="none" stroke="midnightblue" d="M178.84,-50.87C161.87,-39.84 143.07,-27.62 130.81,-19.65"/>
<polygon fill="midnightblue" stroke="midnightblue" points="177.2,-53.98 187.5,-56.5 181.02,-48.11 177.2,-53.98"/>
</g>
<!-- Node5 -->
<g id="node5" class="node">
<title>Node5</title>
<g id="a_node5"><a xlink:href="FPSCounter_8cpp.html" target="_top" xlink:title=" ">
<polygon fill="none" stroke="black" points="223.5,-0.5 223.5,-19.5 341.5,-19.5 341.5,-0.5 223.5,-0.5"/>
<text text-anchor="middle" x="282.5" y="-7.5" font-family="Helvetica,sans-Serif" font-size="10.00">src/UI/FPSCounter.cpp</text>
</a>
</g>
</g>
<!-- Node4&#45;&gt;Node5 -->
<g id="edge5" class="edge">
<title>Node4&#45;&gt;Node5</title>
<path fill="none" stroke="midnightblue" d="M244.16,-49.34C254.77,-38.73 266.24,-27.26 273.85,-19.65"/>
<polygon fill="midnightblue" stroke="midnightblue" points="241.6,-46.95 237,-56.5 246.55,-51.9 241.6,-46.95"/>
</g>
</g>
</svg>
