<svg xmlns="http://www.w3.org/2000/svg" xmlns:xlink="http://www.w3.org/1999/xlink" id="main" onload="init(evt)" version="1.1" xml:space="preserve"><style type="text/css">.edge:hover path{stroke:red}.edge:hover polygon{stroke:red;fill:red}</style><script type="text/javascript"><![CDATA[
var edges = document.getElementsByTagName('g');
if (edges && edges.length) {
  for (var i=0;i<edges.length;i++) {
    if (edges[i].id.substr(0,4)=='edge') {
      edges[i].setAttribute('class','edge');
    }
  }
}
]]></script><defs><circle id="rim" cx="0" cy="0" r="7"/><circle id="rim2" cx="0" cy="0" r="3.5"/><g id="zoomPlus"><use fill="#404040" xlink:href="#rim"><set attributeName="fill" begin="zoomplus.mouseover" end="zoomplus.mouseout" to="#808080"/></use><path fill="none" stroke="#fff" stroke-width="1.5" d="M-4,0h8M0,-4v8" pointer-events="none"/></g><g id="zoomMin"><use fill="#404040" xlink:href="#rim"><set attributeName="fill" begin="zoomminus.mouseover" end="zoomminus.mouseout" to="#808080"/></use><path fill="none" stroke="#fff" stroke-width="1.5" d="M-4,0h8" pointer-events="none"/></g><g id="dirArrow"><path fill="none" stroke="#fff" stroke-width="1.5" d="M0,-3.0v7 M-2.5,-0.5L0,-3.0L2.5,-0.5"/></g><g id="resetDef"><use fill="#404040" xlink:href="#rim2"><set attributeName="fill" begin="reset.mouseover" end="reset.mouseout" to="#808080"/></use></g></defs><script type="text/javascript">var viewWidth = 799; var viewHeight = 196; var sectionId = &apos;dynsection-0&apos;;</script><script xlink:href="svgpan.js"/><svg id="graph" class="graph"><g id="viewport"><title>src/GameLevel/TileLayer.cpp</title><g id="node1" class="node"><title>Node1</title><g id="a_node1"><a><polygon fill="#bfbfbf" stroke="#000" points="85 -168.5 85 -187.5 229 -187.5 229 -168.5 85 -168.5"/><text x="157" y="-175.5" font-family="Helvetica,sans-Serif" font-size="10" text-anchor="middle">src/GameLevel/TileLayer.cpp</text></a></g></g><g id="node2" class="node"><title>Node2</title><g id="a_node2"><a target="_top" xlink:href="TileLayer_8hpp.html"><polygon fill="none" stroke="#000" points="17 -112.5 17 -131.5 145 -131.5 145 -112.5 17 -112.5"/><text x="81" y="-119.5" font-family="Helvetica,sans-Serif" font-size="10" text-anchor="middle">GameLevel/TileLayer.hpp</text></a></g></g><g id="edge1" class="edge"><title>Node1-&gt;Node2</title><path fill="none" stroke="#191970" d="M144.79,-168.32C133.22,-160.11 115.62,-147.6 101.84,-137.81"/><polygon fill="#191970" stroke="#191970" points="103.61 -134.77 93.43 -131.83 99.56 -140.48 103.61 -134.77"/></g><g id="node7" class="node"><title>Node7</title><g id="a_node7"><a target="_top" xlink:href="TextureManager_8hpp.html"><polygon fill="none" stroke="#000" points="163 -112.5 163 -131.5 303 -131.5 303 -112.5 163 -112.5"/><text x="233" y="-119.5" font-family="Helvetica,sans-Serif" font-size="10" text-anchor="middle">Texture/TextureManager.hpp</text></a></g></g><g id="edge6" class="edge"><title>Node1-&gt;Node7</title><path fill="none" stroke="#191970" d="M169.21,-168.32C180.78,-160.11 198.38,-147.6 212.16,-137.81"/><polygon fill="#191970" stroke="#191970" points="214.44 -140.48 220.57 -131.83 210.39 -134.77 214.44 -140.48"/></g><g id="node3" class="node"><title>Node3</title><g id="a_node3"><a target="_top" xlink:href="Layer_8hpp.html"><polygon fill="none" stroke="#000" points="88.5 -56.5 88.5 -75.5 147.5 -75.5 147.5 -56.5 88.5 -56.5"/><text x="118" y="-63.5" font-family="Helvetica,sans-Serif" font-size="10" text-anchor="middle">Layer.hpp</text></a></g></g><g id="edge2" class="edge"><title>Node2-&gt;Node3</title><path fill="none" stroke="#191970" d="M87.11,-112.08C92.28,-104.53 99.85,-93.49 106.19,-84.23"/><polygon fill="#191970" stroke="#191970" points="109.24 -85.98 112 -75.75 103.46 -82.02 109.24 -85.98"/></g><g id="node4" class="node"><title>Node4</title><g id="a_node4"><a><polygon fill="none" stroke="#bfbfbf" points="62.5 -.5 62.5 -19.5 103.5 -19.5 103.5 -.5 62.5 -.5"/><text x="83" y="-7.5" font-family="Helvetica,sans-Serif" font-size="10" text-anchor="middle">string</text></a></g></g><g id="edge3" class="edge"><title>Node2-&gt;Node4</title><path fill="none" stroke="#191970" d="M80.31,-112.17C79.42,-99.66 78.11,-76.08 79,-56 79.38,-47.37 80.18,-37.84 80.96,-29.78"/><polygon fill="#191970" stroke="#191970" points="84.46 -29.92 82.01 -19.61 77.5 -29.2 84.46 -29.92"/></g><g id="node5" class="node"><title>Node5</title><g id="a_node5"><a><polygon fill="none" stroke="#bfbfbf" points="165.5 -56.5 165.5 -75.5 204.5 -75.5 204.5 -56.5 165.5 -56.5"/><text x="185" y="-63.5" font-family="Helvetica,sans-Serif" font-size="10" text-anchor="middle">utility</text></a></g></g><g id="edge4" class="edge"><title>Node2-&gt;Node5</title><path fill="none" stroke="#191970" d="M97.71,-112.32C114.31,-103.7 140,-90.36 159.22,-80.39"/><polygon fill="#191970" stroke="#191970" points="161.07 -83.37 168.33 -75.65 157.84 -77.16 161.07 -83.37"/></g><g id="node6" class="node"><title>Node6</title><g id="a_node6"><a><polygon fill="none" stroke="#bfbfbf" points="0 -.5 0 -19.5 44 -19.5 44 -.5 0 -.5"/><text x="22" y="-7.5" font-family="Helvetica,sans-Serif" font-size="10" text-anchor="middle">vector</text></a></g></g><g id="edge5" class="edge"><title>Node2-&gt;Node6</title><path fill="none" stroke="#191970" d="M76.37,-112.37C66.72,-94.38 44.29,-52.55 31.45,-28.63"/><polygon fill="#191970" stroke="#191970" points="34.42 -26.75 26.61 -19.59 28.25 -30.06 34.42 -26.75"/></g><g id="edge7" class="edge"><title>Node7-&gt;Node4</title><path fill="none" stroke="#191970" d="M232.73,-112.18C231.82,-98.37 228.09,-71.63 213,-56 209.4,-52.27 150.85,-32.89 113.57,-20.81"/><polygon fill="#191970" stroke="#191970" points="114.27 -17.36 103.68 -17.62 112.12 -24.02 114.27 -17.36"/></g><g id="edge8" class="edge"><title>Node7-&gt;Node5</title><path fill="none" stroke="#191970" d="M225.07,-112.08C218.15,-104.3 207.93,-92.8 199.55,-83.37"/><polygon fill="#191970" stroke="#191970" points="202.04 -80.9 192.78 -75.75 196.81 -85.55 202.04 -80.9"/></g><g id="node8" class="node"><title>Node8</title><g id="a_node8"><a target="_top" xlink:href="GraphicsFacade_8hpp.html"><polygon fill="none" stroke="#000" points="261.5 -56.5 261.5 -75.5 402.5 -75.5 402.5 -56.5 261.5 -56.5"/><text x="332" y="-63.5" font-family="Helvetica,sans-Serif" font-size="10" text-anchor="middle">Facade/GraphicsFacade.hpp</text></a></g></g><g id="edge9" class="edge"><title>Node7-&gt;Node8</title><path fill="none" stroke="#191970" d="M248.91,-112.32C264.64,-103.74 288.94,-90.49 307.21,-80.52"/><polygon fill="#191970" stroke="#191970" points="309.03 -83.52 316.13 -75.65 305.68 -77.37 309.03 -83.52"/></g><g id="edge17" class="edge"><title>Node8-&gt;Node4</title><path fill="none" stroke="#191970" d="M283.19,-56.45C240.58,-48.67 176.93,-36.27 113.32,-20.16"/><polygon fill="#191970" stroke="#191970" points="114.08 -16.74 103.52 -17.65 112.34 -23.52 114.08 -16.74"/></g><g id="edge18" class="edge"><title>Node8-&gt;Node6</title><path fill="none" stroke="#191970" d="M264.47,-56.47C210.02,-49.06 131.34,-37.12 54.16,-20.04"/><polygon fill="#191970" stroke="#191970" points="54.79 -16.59 44.27 -17.82 53.26 -23.42 54.79 -16.59"/></g><g id="node9" class="node"><title>Node9</title><g id="a_node9"><a><polygon fill="none" stroke="#bfbfbf" points="251.5 -.5 251.5 -19.5 322.5 -19.5 322.5 -.5 251.5 -.5"/><text x="287" y="-7.5" font-family="Helvetica,sans-Serif" font-size="10" text-anchor="middle">SDL2/SDL.h</text></a></g></g><g id="edge10" class="edge"><title>Node8-&gt;Node9</title><path fill="none" stroke="#191970" d="M324.57,-56.08C318.15,-48.38 308.69,-37.03 300.88,-27.65"/><polygon fill="#191970" stroke="#191970" points="303.38 -25.19 294.29 -19.75 298.01 -29.67 303.38 -25.19"/></g><g id="node10" class="node"><title>Node10</title><g id="a_node10"><a><polygon fill="none" stroke="#bfbfbf" points="340.5 -.5 340.5 -19.5 443.5 -19.5 443.5 -.5 340.5 -.5"/><text x="392" y="-7.5" font-family="Helvetica,sans-Serif" font-size="10" text-anchor="middle">SDL2/SDL_image.h</text></a></g></g><g id="edge11" class="edge"><title>Node8-&gt;Node10</title><path fill="none" stroke="#191970" d="M341.64,-56.32C350.51,-48.34 363.87,-36.31 374.61,-26.65"/><polygon fill="#191970" stroke="#191970" points="377.09 -29.13 382.18 -19.83 372.41 -23.92 377.09 -29.13"/></g><g id="node11" class="node"><title>Node11</title><g id="a_node11"><a><polygon fill="none" stroke="#bfbfbf" points="462 -.5 462 -19.5 516 -19.5 516 -.5 462 -.5"/><text x="489" y="-7.5" font-family="Helvetica,sans-Serif" font-size="10" text-anchor="middle">iostream</text></a></g></g><g id="edge12" class="edge"><title>Node8-&gt;Node11</title><path fill="none" stroke="#191970" d="M356.88,-56.44C383.29,-47.36 425.22,-32.94 454.74,-22.78"/><polygon fill="#191970" stroke="#191970" points="455.92 -26.08 464.24 -19.52 453.64 -19.46 455.92 -26.08"/></g><g id="node12" class="node"><title>Node12</title><g id="a_node12"><a target="_top" xlink:href="Color_8hpp.html"><polygon fill="none" stroke="#000" points="534.5 -.5 534.5 -19.5 591.5 -19.5 591.5 -.5 534.5 -.5"/><text x="563" y="-7.5" font-family="Helvetica,sans-Serif" font-size="10" text-anchor="middle">Color.hpp</text></a></g></g><g id="edge13" class="edge"><title>Node8-&gt;Node12</title><path fill="none" stroke="#191970" d="M368.65,-56.49C405.43,-47.95 463.99,-34.32 524.29,-20.16"/><polygon fill="#191970" stroke="#191970" points="525.43 -23.49 534.37 -17.79 523.83 -16.67 525.43 -23.49"/></g><g id="node13" class="node"><title>Node13</title><g id="a_node13"><a target="_top" xlink:href="NumberUtil_8hpp.html"><polygon fill="none" stroke="#000" points="610 -.5 610 -19.5 722 -19.5 722 -.5 610 -.5"/><text x="666" y="-7.5" font-family="Helvetica,sans-Serif" font-size="10" text-anchor="middle">Utility/NumberUtil.hpp</text></a></g></g><g id="edge14" class="edge"><title>Node8-&gt;Node13</title><path fill="none" stroke="#191970" d="M384.92,-56.44C444.17,-46.87 540.1,-31.36 603.12,-21.17"/><polygon fill="#191970" stroke="#191970" points="604.01 -24.57 613.32 -19.52 602.89 -17.66 604.01 -24.57"/></g><g id="node14" class="node"><title>Node14</title><g id="a_node14"><a><polygon fill="none" stroke="#bfbfbf" points="739.5 -.5 739.5 -19.5 790.5 -19.5 790.5 -.5 739.5 -.5"/><text x="765" y="-7.5" font-family="Helvetica,sans-Serif" font-size="10" text-anchor="middle">memory</text></a></g></g><g id="edge15" class="edge"><title>Node8-&gt;Node14</title><path fill="none" stroke="#191970" d="M402.74,-60.17C480.67,-54.14 609.8,-42.06 729.41,-20.07"/><polygon fill="#191970" stroke="#191970" points="730.28 -23.46 739.47 -18.19 729 -16.58 730.28 -23.46"/></g><g id="node15" class="node"><title>Node15</title><g id="a_node15"><a><polygon fill="none" stroke="#bfbfbf" points="121.5 -.5 121.5 -19.5 180.5 -19.5 180.5 -.5 121.5 -.5"/><text x="151" y="-7.5" font-family="Helvetica,sans-Serif" font-size="10" text-anchor="middle">functional</text></a></g></g><g id="edge16" class="edge"><title>Node8-&gt;Node15</title><path fill="none" stroke="#191970" d="M303.32,-56.44C272.47,-47.24 223.27,-32.56 189.17,-22.39"/><polygon fill="#191970" stroke="#191970" points="190.13 -19.02 179.55 -19.52 188.13 -25.73 190.13 -19.02"/></g><g id="node16" class="node"><title>Node16</title><g id="a_node16"><a><polygon fill="none" stroke="#bfbfbf" points="198.5 -.5 198.5 -19.5 233.5 -19.5 233.5 -.5 198.5 -.5"/><text x="216" y="-7.5" font-family="Helvetica,sans-Serif" font-size="10" text-anchor="middle">map</text></a></g></g><g id="edge19" class="edge"><title>Node8-&gt;Node16</title><path fill="none" stroke="#191970" d="M313.62,-56.44C294.56,-47.57 264.57,-33.61 242.86,-23.5"/><polygon fill="#191970" stroke="#191970" points="244.08 -20.21 233.54 -19.16 241.12 -26.56 244.08 -20.21"/></g></g></svg><g id="navigator" fill="#404254" transform="translate(0 0)"><rect width="60" height="60" x="0" y="0" fill="#f2f5e9" fill-opacity=".5" stroke="#606060" stroke-width=".5"/><use id="zoomplus" x="17" y="9" onmousedown="handleZoom(evt,'in')" xlink:href="#zoomPlus"/><use id="zoomminus" x="42" y="9" onmousedown="handleZoom(evt,'out')" xlink:href="#zoomMin"/><use id="reset" x="30" y="36" onmousedown="handleReset()" xlink:href="#resetDef"/><g id="arrowUp" onmousedown="handlePan(0,-1)" transform="translate(30 24)" xlink:href="#dirArrow"><use fill="#404040" xlink:href="#rim"><set attributeName="fill" begin="arrowUp.mouseover" end="arrowUp.mouseout" to="#808080"/></use><path fill="none" stroke="#fff" stroke-width="1.5" d="M0,-3.0v7 M-2.5,-0.5L0,-3.0L2.5,-0.5"/></g><g id="arrowRight" onmousedown="handlePan(1,0)" transform="rotate(90) translate(36 -43)" xlink:href="#dirArrow"><use fill="#404040" xlink:href="#rim"><set attributeName="fill" begin="arrowRight.mouseover" end="arrowRight.mouseout" to="#808080"/></use><path fill="none" stroke="#fff" stroke-width="1.5" d="M0,-3.0v7 M-2.5,-0.5L0,-3.0L2.5,-0.5"/></g><g id="arrowDown" onmousedown="handlePan(0,1)" transform="rotate(180) translate(-30 -48)" xlink:href="#dirArrow"><use fill="#404040" xlink:href="#rim"><set attributeName="fill" begin="arrowDown.mouseover" end="arrowDown.mouseout" to="#808080"/></use><path fill="none" stroke="#fff" stroke-width="1.5" d="M0,-3.0v7 M-2.5,-0.5L0,-3.0L2.5,-0.5"/></g><g id="arrowLeft" onmousedown="handlePan(-1,0)" transform="rotate(270) translate(-36 17)" xlink:href="#dirArrow"><use fill="#404040" xlink:href="#rim"><set attributeName="fill" begin="arrowLeft.mouseover" end="arrowLeft.mouseout" to="#808080"/></use><path fill="none" stroke="#fff" stroke-width="1.5" d="M0,-3.0v7 M-2.5,-0.5L0,-3.0L2.5,-0.5"/></g></g><svg width="100%" height="30" preserveAspectRatio="xMaxYMin meet" viewBox="0 0 15 15"><g id="arrow_out" transform="scale(0.3 0.3)"><a target="_base" xlink:href="TileLayer_8cpp__incl_org.svg"><rect id="button" width="38" height="38" x="6" y="6" fill="#f2f5e9" fill-opacity=".5" stroke="#606060" stroke-width="1" rx="5" ry="5"/><path id="arrow" d="M 11.500037,31.436501 C 11.940474,20.09759 22.043105,11.32322 32.158766,21.979434 L 37.068811,17.246167 C 37.068811,17.246167 37.088388,32 37.088388,32 L 22.160133,31.978069 C 22.160133,31.978069 26.997745,27.140456 26.997745,27.140456 C 18.528582,18.264221 13.291696,25.230495 11.500037,31.436501 z" style="fill:#404040"/></a></g></svg></svg>