<?xml version="1.0" encoding="UTF-8" standalone="no"?>
<!DOCTYPE svg PUBLIC "-//W3C//DTD SVG 1.1//EN"
 "http://www.w3.org/Graphics/SVG/1.1/DTD/svg11.dtd">
<!-- Generated by graphviz version 2.44.0 ()
 -->
<!-- Title: src/Timer/Timer.cpp Pages: 1 -->
<!--zoomable 364 -->
<svg id="main" version="1.1" xmlns="http://www.w3.org/2000/svg" xmlns:xlink="http://www.w3.org/1999/xlink" xml:space="preserve" onload="init(evt)">
<style type="text/css"><![CDATA[
.edge:hover path { stroke: red; }
.edge:hover polygon { stroke: red; fill: red; }
]]></style>
<script type="text/javascript"><![CDATA[
var edges = document.getElementsByTagName('g');
if (edges && edges.length) {
  for (var i=0;i<edges.length;i++) {
    if (edges[i].id.substr(0,4)=='edge') {
      edges[i].setAttribute('class','edge');
    }
  }
}
]]></script>
        <defs>
                <circle id="rim" cx="0" cy="0" r="7"/>
                <circle id="rim2" cx="0" cy="0" r="3.5"/>
                <g id="zoomPlus">
                        <use xlink:href="#rim" fill="#404040">
                                <set attributeName="fill" to="#808080" begin="zoomplus.mouseover" end="zoomplus.mouseout"/>
                        </use>
                        <path d="M-4,0h8M0,-4v8" fill="none" stroke="white" stroke-width="1.5" pointer-events="none"/>
                </g>
                <g id="zoomMin">
                        <use xlink:href="#rim" fill="#404040">
                                <set attributeName="fill" to="#808080" begin="zoomminus.mouseover" end="zoomminus.mouseout"/>
                        </use>
                        <path d="M-4,0h8" fill="none" stroke="white" stroke-width="1.5" pointer-events="none"/>
                </g>
                <g id="dirArrow">
                        <path fill="none" stroke="white" stroke-width="1.5" d="M0,-3.0v7 M-2.5,-0.5L0,-3.0L2.5,-0.5"/>
                </g>
               <g id="resetDef">
                       <use xlink:href="#rim2" fill="#404040">
                               <set attributeName="fill" to="#808080" begin="reset.mouseover" end="reset.mouseout"/>
                       </use>
               </g>
        </defs>

<script type="text/javascript">
var viewWidth = 1088;
var viewHeight = 364;
var sectionId = 'dynsection-0';
</script>
<script xlink:href="svgpan.js"/>
<svg id="graph" class="graph">
<g id="viewport">
<title>src/Timer/Timer.cpp</title>
<!-- Node1 -->
<g id="node1" class="node">
<title>Node1</title>
<g id="a_node1"><a xlink:title=" ">
<polygon fill="#bfbfbf" stroke="black" points="63.5,-336.5 63.5,-355.5 167.5,-355.5 167.5,-336.5 63.5,-336.5"/>
<text text-anchor="middle" x="115.5" y="-343.5" font-family="Helvetica,sans-Serif" font-size="10.00">src/Timer/Timer.cpp</text>
</a>
</g>
</g>
<!-- Node2 -->
<g id="node2" class="node">
<title>Node2</title>
<g id="a_node2"><a xlink:href="Timer_8hpp.html" target="_top" xlink:title=" ">
<polygon fill="none" stroke="black" points="0,-280.5 0,-299.5 87,-299.5 87,-280.5 0,-280.5"/>
<text text-anchor="middle" x="43.5" y="-287.5" font-family="Helvetica,sans-Serif" font-size="10.00">Timer/Timer.hpp</text>
</a>
</g>
</g>
<!-- Node1&#45;&gt;Node2 -->
<g id="edge1" class="edge">
<title>Node1&#45;&gt;Node2</title>
<path fill="none" stroke="midnightblue" d="M103.93,-336.32C93.08,-328.18 76.62,-315.84 63.62,-306.09"/>
<polygon fill="midnightblue" stroke="midnightblue" points="65.38,-303.03 55.28,-299.83 61.18,-308.63 65.38,-303.03"/>
</g>
<!-- Node4 -->
<g id="node4" class="node">
<title>Node4</title>
<g id="a_node4"><a xlink:href="Debug_8hpp.html" target="_top" xlink:title=" ">
<polygon fill="none" stroke="black" points="71.5,-112.5 71.5,-131.5 133.5,-131.5 133.5,-112.5 71.5,-112.5"/>
<text text-anchor="middle" x="102.5" y="-119.5" font-family="Helvetica,sans-Serif" font-size="10.00">Debug.hpp</text>
</a>
</g>
</g>
<!-- Node1&#45;&gt;Node4 -->
<g id="edge3" class="edge">
<title>Node1&#45;&gt;Node4</title>
<path fill="none" stroke="midnightblue" d="M114.99,-336.3C113.08,-303.63 106.3,-187.87 103.61,-141.96"/>
<polygon fill="midnightblue" stroke="midnightblue" points="107.1,-141.66 103.02,-131.88 100.11,-142.07 107.1,-141.66"/>
</g>
<!-- Node8 -->
<g id="node8" class="node">
<title>Node8</title>
<g id="a_node8"><a xlink:href="Window_8hpp.html" target="_top" xlink:title=" ">
<polygon fill="none" stroke="black" points="250,-280.5 250,-299.5 353,-299.5 353,-280.5 250,-280.5"/>
<text text-anchor="middle" x="301.5" y="-287.5" font-family="Helvetica,sans-Serif" font-size="10.00">Render/Window.hpp</text>
</a>
</g>
</g>
<!-- Node1&#45;&gt;Node8 -->
<g id="edge7" class="edge">
<title>Node1&#45;&gt;Node8</title>
<path fill="none" stroke="midnightblue" d="M144.97,-336.44C176.67,-327.24 227.23,-312.56 262.27,-302.39"/>
<polygon fill="midnightblue" stroke="midnightblue" points="263.54,-305.67 272.17,-299.52 261.59,-298.94 263.54,-305.67"/>
</g>
<!-- Node3 -->
<g id="node3" class="node">
<title>Node3</title>
<g id="a_node3"><a xlink:title=" ">
<polygon fill="none" stroke="#bfbfbf" points="20.5,-224.5 20.5,-243.5 66.5,-243.5 66.5,-224.5 20.5,-224.5"/>
<text text-anchor="middle" x="43.5" y="-231.5" font-family="Helvetica,sans-Serif" font-size="10.00">cstdint</text>
</a>
</g>
</g>
<!-- Node2&#45;&gt;Node3 -->
<g id="edge2" class="edge">
<title>Node2&#45;&gt;Node3</title>
<path fill="none" stroke="midnightblue" d="M43.5,-280.08C43.5,-273.01 43.5,-262.86 43.5,-253.99"/>
<polygon fill="midnightblue" stroke="midnightblue" points="47,-253.75 43.5,-243.75 40,-253.75 47,-253.75"/>
</g>
<!-- Node5 -->
<g id="node5" class="node">
<title>Node5</title>
<g id="a_node5"><a xlink:href="Point_8hpp.html" target="_top" xlink:title=" ">
<polygon fill="none" stroke="black" points="714,-0.5 714,-19.5 771,-19.5 771,-0.5 714,-0.5"/>
<text text-anchor="middle" x="742.5" y="-7.5" font-family="Helvetica,sans-Serif" font-size="10.00">Point.hpp</text>
</a>
</g>
</g>
<!-- Node4&#45;&gt;Node5 -->
<g id="edge4" class="edge">
<title>Node4&#45;&gt;Node5</title>
<path fill="none" stroke="midnightblue" d="M89.81,-112.32C72.07,-99.17 43.79,-73.85 60.5,-56 104.56,-8.93 565.37,-9.35 703.55,-10.55"/>
<polygon fill="midnightblue" stroke="midnightblue" points="703.65,-14.05 713.68,-10.64 703.71,-7.05 703.65,-14.05"/>
</g>
<!-- Node6 -->
<g id="node6" class="node">
<title>Node6</title>
<g id="a_node6"><a xlink:href="Color_8hpp.html" target="_top" xlink:title=" ">
<polygon fill="none" stroke="black" points="70,-56.5 70,-75.5 127,-75.5 127,-56.5 70,-56.5"/>
<text text-anchor="middle" x="98.5" y="-63.5" font-family="Helvetica,sans-Serif" font-size="10.00">Color.hpp</text>
</a>
</g>
</g>
<!-- Node4&#45;&gt;Node6 -->
<g id="edge5" class="edge">
<title>Node4&#45;&gt;Node6</title>
<path fill="none" stroke="midnightblue" d="M101.84,-112.08C101.32,-105.01 100.56,-94.86 99.91,-85.99"/>
<polygon fill="midnightblue" stroke="midnightblue" points="103.38,-85.47 99.15,-75.75 96.4,-85.98 103.38,-85.47"/>
</g>
<!-- Node7 -->
<g id="node7" class="node">
<title>Node7</title>
<g id="a_node7"><a xlink:title=" ">
<polygon fill="none" stroke="#bfbfbf" points="145,-56.5 145,-75.5 186,-75.5 186,-56.5 145,-56.5"/>
<text text-anchor="middle" x="165.5" y="-63.5" font-family="Helvetica,sans-Serif" font-size="10.00">string</text>
</a>
</g>
</g>
<!-- Node4&#45;&gt;Node7 -->
<g id="edge6" class="edge">
<title>Node4&#45;&gt;Node7</title>
<path fill="none" stroke="midnightblue" d="M112.62,-112.32C122.03,-104.26 136.24,-92.08 147.57,-82.37"/>
<polygon fill="midnightblue" stroke="midnightblue" points="149.88,-85 155.19,-75.83 145.32,-79.68 149.88,-85"/>
</g>
<!-- Node8&#45;&gt;Node6 -->
<g id="edge9" class="edge">
<title>Node8&#45;&gt;Node6</title>
<path fill="none" stroke="midnightblue" d="M294.01,-280.41C271.47,-254.6 202.1,-175.59 142.5,-112 133.23,-102.11 122.62,-91.24 114.13,-82.66"/>
<polygon fill="midnightblue" stroke="midnightblue" points="116.57,-80.15 107.04,-75.52 111.61,-85.08 116.57,-80.15"/>
</g>
<!-- Node8&#45;&gt;Node7 -->
<g id="edge8" class="edge">
<title>Node8&#45;&gt;Node7</title>
<path fill="none" stroke="midnightblue" d="M250.76,-280.47C228.62,-274.12 204.37,-263.09 189.5,-244 152.86,-196.96 157.72,-120.74 162.41,-85.7"/>
<polygon fill="midnightblue" stroke="midnightblue" points="165.92,-85.91 163.93,-75.5 158.99,-84.88 165.92,-85.91"/>
</g>
<!-- Node9 -->
<g id="node9" class="node">
<title>Node9</title>
<g id="a_node9"><a xlink:href="GraphicsFacade_8hpp.html" target="_top" xlink:title=" ">
<polygon fill="none" stroke="black" points="336,-112.5 336,-131.5 477,-131.5 477,-112.5 336,-112.5"/>
<text text-anchor="middle" x="406.5" y="-119.5" font-family="Helvetica,sans-Serif" font-size="10.00">Facade/GraphicsFacade.hpp</text>
</a>
</g>
</g>
<!-- Node8&#45;&gt;Node9 -->
<g id="edge10" class="edge">
<title>Node8&#45;&gt;Node9</title>
<path fill="none" stroke="midnightblue" d="M309.61,-280.43C325.05,-263.73 359.07,-225.24 380.5,-188 389.11,-173.04 396.17,-154.67 400.75,-141.28"/>
<polygon fill="midnightblue" stroke="midnightblue" points="404.08,-142.36 403.87,-131.77 397.43,-140.18 404.08,-142.36"/>
</g>
<!-- Node18 -->
<g id="node18" class="node">
<title>Node18</title>
<g id="a_node18"><a xlink:href="TextureManager_8hpp.html" target="_top" xlink:title=" ">
<polygon fill="none" stroke="black" points="231.5,-168.5 231.5,-187.5 371.5,-187.5 371.5,-168.5 231.5,-168.5"/>
<text text-anchor="middle" x="301.5" y="-175.5" font-family="Helvetica,sans-Serif" font-size="10.00">Texture/TextureManager.hpp</text>
</a>
</g>
</g>
<!-- Node8&#45;&gt;Node18 -->
<g id="edge21" class="edge">
<title>Node8&#45;&gt;Node18</title>
<path fill="none" stroke="midnightblue" d="M301.5,-280.37C301.5,-262.62 301.5,-221.67 301.5,-197.6"/>
<polygon fill="midnightblue" stroke="midnightblue" points="305,-197.59 301.5,-187.59 298,-197.59 305,-197.59"/>
</g>
<!-- Node20 -->
<g id="node20" class="node">
<title>Node20</title>
<g id="a_node20"><a xlink:href="InputFacade_8hpp.html" target="_top" xlink:title=" ">
<polygon fill="none" stroke="black" points="551.5,-168.5 551.5,-187.5 675.5,-187.5 675.5,-168.5 551.5,-168.5"/>
<text text-anchor="middle" x="613.5" y="-175.5" font-family="Helvetica,sans-Serif" font-size="10.00">Facade/InputFacade.hpp</text>
</a>
</g>
</g>
<!-- Node8&#45;&gt;Node20 -->
<g id="edge25" class="edge">
<title>Node8&#45;&gt;Node20</title>
<path fill="none" stroke="midnightblue" d="M325.72,-280.46C380.9,-261.01 516.06,-213.36 579.53,-190.98"/>
<polygon fill="midnightblue" stroke="midnightblue" points="580.81,-194.24 589.08,-187.61 578.48,-187.63 580.81,-194.24"/>
</g>
<!-- Node24 -->
<g id="node24" class="node">
<title>Node24</title>
<g id="a_node24"><a xlink:href="Scene_8hpp.html" target="_top" xlink:title=" ">
<polygon fill="none" stroke="black" points="819.5,-224.5 819.5,-243.5 881.5,-243.5 881.5,-224.5 819.5,-224.5"/>
<text text-anchor="middle" x="850.5" y="-231.5" font-family="Helvetica,sans-Serif" font-size="10.00">Scene.hpp</text>
</a>
</g>
</g>
<!-- Node8&#45;&gt;Node24 -->
<g id="edge33" class="edge">
<title>Node8&#45;&gt;Node24</title>
<path fill="none" stroke="midnightblue" d="M353.15,-283.92C461.44,-273.27 710.41,-248.78 809.1,-239.07"/>
<polygon fill="midnightblue" stroke="midnightblue" points="809.67,-242.53 819.28,-238.07 808.98,-235.57 809.67,-242.53"/>
</g>
<!-- Node9&#45;&gt;Node6 -->
<g id="edge14" class="edge">
<title>Node9&#45;&gt;Node6</title>
<path fill="none" stroke="midnightblue" d="M347.32,-112.46C294.53,-104.56 214.9,-91.91 137.11,-76.22"/>
<polygon fill="midnightblue" stroke="midnightblue" points="137.63,-72.75 127.14,-74.19 136.24,-79.61 137.63,-72.75"/>
</g>
<!-- Node9&#45;&gt;Node7 -->
<g id="edge18" class="edge">
<title>Node9&#45;&gt;Node7</title>
<path fill="none" stroke="midnightblue" d="M361.39,-112.48C320.59,-104.53 258.69,-91.86 195.79,-75.9"/>
<polygon fill="midnightblue" stroke="midnightblue" points="196.65,-72.51 186.1,-73.42 194.91,-79.29 196.65,-72.51"/>
</g>
<!-- Node10 -->
<g id="node10" class="node">
<title>Node10</title>
<g id="a_node10"><a xlink:title=" ">
<polygon fill="none" stroke="#bfbfbf" points="522,-56.5 522,-75.5 593,-75.5 593,-56.5 522,-56.5"/>
<text text-anchor="middle" x="557.5" y="-63.5" font-family="Helvetica,sans-Serif" font-size="10.00">SDL2/SDL.h</text>
</a>
</g>
</g>
<!-- Node9&#45;&gt;Node10 -->
<g id="edge11" class="edge">
<title>Node9&#45;&gt;Node10</title>
<path fill="none" stroke="midnightblue" d="M430.43,-112.44C455.72,-103.4 495.8,-89.06 524.18,-78.92"/>
<polygon fill="midnightblue" stroke="midnightblue" points="525.45,-82.18 533.69,-75.52 523.09,-75.59 525.45,-82.18"/>
</g>
<!-- Node11 -->
<g id="node11" class="node">
<title>Node11</title>
<g id="a_node11"><a xlink:title=" ">
<polygon fill="none" stroke="#bfbfbf" points="611,-56.5 611,-75.5 714,-75.5 714,-56.5 611,-56.5"/>
<text text-anchor="middle" x="662.5" y="-63.5" font-family="Helvetica,sans-Serif" font-size="10.00">SDL2/SDL_image.h</text>
</a>
</g>
</g>
<!-- Node9&#45;&gt;Node11 -->
<g id="edge12" class="edge">
<title>Node9&#45;&gt;Node11</title>
<path fill="none" stroke="midnightblue" d="M447.06,-112.44C491.82,-103 563.88,-87.8 612.2,-77.61"/>
<polygon fill="midnightblue" stroke="midnightblue" points="613.06,-81.01 622.13,-75.52 611.62,-74.16 613.06,-81.01"/>
</g>
<!-- Node12 -->
<g id="node12" class="node">
<title>Node12</title>
<g id="a_node12"><a xlink:title=" ">
<polygon fill="none" stroke="#bfbfbf" points="204.5,-56.5 204.5,-75.5 258.5,-75.5 258.5,-56.5 204.5,-56.5"/>
<text text-anchor="middle" x="231.5" y="-63.5" font-family="Helvetica,sans-Serif" font-size="10.00">iostream</text>
</a>
</g>
</g>
<!-- Node9&#45;&gt;Node12 -->
<g id="edge13" class="edge">
<title>Node9&#45;&gt;Node12</title>
<path fill="none" stroke="midnightblue" d="M378.77,-112.44C348.9,-103.23 301.23,-88.52 268.25,-78.34"/>
<polygon fill="midnightblue" stroke="midnightblue" points="269.11,-74.94 258.52,-75.34 267.05,-81.63 269.11,-74.94"/>
</g>
<!-- Node13 -->
<g id="node13" class="node">
<title>Node13</title>
<g id="a_node13"><a xlink:href="NumberUtil_8hpp.html" target="_top" xlink:title=" ">
<polygon fill="none" stroke="black" points="276.5,-56.5 276.5,-75.5 388.5,-75.5 388.5,-56.5 276.5,-56.5"/>
<text text-anchor="middle" x="332.5" y="-63.5" font-family="Helvetica,sans-Serif" font-size="10.00">Utility/NumberUtil.hpp</text>
</a>
</g>
</g>
<!-- Node9&#45;&gt;Node13 -->
<g id="edge15" class="edge">
<title>Node9&#45;&gt;Node13</title>
<path fill="none" stroke="midnightblue" d="M394.61,-112.32C383.35,-104.11 366.21,-91.6 352.79,-81.81"/>
<polygon fill="midnightblue" stroke="midnightblue" points="354.75,-78.9 344.61,-75.83 350.62,-84.56 354.75,-78.9"/>
</g>
<!-- Node14 -->
<g id="node14" class="node">
<title>Node14</title>
<g id="a_node14"><a xlink:title=" ">
<polygon fill="none" stroke="#bfbfbf" points="999,-0.5 999,-19.5 1050,-19.5 1050,-0.5 999,-0.5"/>
<text text-anchor="middle" x="1024.5" y="-7.5" font-family="Helvetica,sans-Serif" font-size="10.00">memory</text>
</a>
</g>
</g>
<!-- Node9&#45;&gt;Node14 -->
<g id="edge16" class="edge">
<title>Node9&#45;&gt;Node14</title>
<path fill="none" stroke="midnightblue" d="M407.74,-112.04C410.28,-97.53 417.52,-69.19 436.5,-56 459.27,-40.17 864.76,-18.9 988.77,-12.74"/>
<polygon fill="midnightblue" stroke="midnightblue" points="989.06,-16.23 998.88,-12.24 988.71,-9.24 989.06,-16.23"/>
</g>
<!-- Node15 -->
<g id="node15" class="node">
<title>Node15</title>
<g id="a_node15"><a xlink:title=" ">
<polygon fill="none" stroke="#bfbfbf" points="445,-56.5 445,-75.5 504,-75.5 504,-56.5 445,-56.5"/>
<text text-anchor="middle" x="474.5" y="-63.5" font-family="Helvetica,sans-Serif" font-size="10.00">functional</text>
</a>
</g>
</g>
<!-- Node9&#45;&gt;Node15 -->
<g id="edge17" class="edge">
<title>Node9&#45;&gt;Node15</title>
<path fill="none" stroke="midnightblue" d="M417.43,-112.32C427.67,-104.18 443.22,-91.84 455.5,-82.09"/>
<polygon fill="midnightblue" stroke="midnightblue" points="457.72,-84.79 463.38,-75.83 453.37,-79.31 457.72,-84.79"/>
</g>
<!-- Node16 -->
<g id="node16" class="node">
<title>Node16</title>
<g id="a_node16"><a xlink:title=" ">
<polygon fill="none" stroke="#bfbfbf" points="824.5,-56.5 824.5,-75.5 868.5,-75.5 868.5,-56.5 824.5,-56.5"/>
<text text-anchor="middle" x="846.5" y="-63.5" font-family="Helvetica,sans-Serif" font-size="10.00">vector</text>
</a>
</g>
</g>
<!-- Node9&#45;&gt;Node16 -->
<g id="edge19" class="edge">
<title>Node9&#45;&gt;Node16</title>
<path fill="none" stroke="midnightblue" d="M477.17,-113.04C480.32,-112.69 483.44,-112.34 486.5,-112 629.41,-96.14 669.43,-104.23 814.12,-75.96"/>
<polygon fill="midnightblue" stroke="midnightblue" points="815.13,-79.33 824.26,-73.96 813.77,-72.46 815.13,-79.33"/>
</g>
<!-- Node17 -->
<g id="node17" class="node">
<title>Node17</title>
<g id="a_node17"><a xlink:title=" ">
<polygon fill="none" stroke="#bfbfbf" points="771,-56.5 771,-75.5 806,-75.5 806,-56.5 771,-56.5"/>
<text text-anchor="middle" x="788.5" y="-63.5" font-family="Helvetica,sans-Serif" font-size="10.00">map</text>
</a>
</g>
</g>
<!-- Node9&#45;&gt;Node17 -->
<g id="edge20" class="edge">
<title>Node9&#45;&gt;Node17</title>
<path fill="none" stroke="midnightblue" d="M467.03,-112.44C550.98,-100.58 699.34,-79.6 760.72,-70.93"/>
<polygon fill="midnightblue" stroke="midnightblue" points="761.39,-74.37 770.8,-69.5 760.41,-67.44 761.39,-74.37"/>
</g>
<!-- Node18&#45;&gt;Node7 -->
<g id="edge22" class="edge">
<title>Node18&#45;&gt;Node7</title>
<path fill="none" stroke="midnightblue" d="M290.83,-168.37C267.79,-149.73 213.14,-105.53 184.21,-82.13"/>
<polygon fill="midnightblue" stroke="midnightblue" points="186.1,-79.16 176.12,-75.59 181.7,-84.6 186.1,-79.16"/>
</g>
<!-- Node18&#45;&gt;Node9 -->
<g id="edge24" class="edge">
<title>Node18&#45;&gt;Node9</title>
<path fill="none" stroke="midnightblue" d="M318.37,-168.32C335.21,-159.66 361.31,-146.24 380.74,-136.25"/>
<polygon fill="midnightblue" stroke="midnightblue" points="382.38,-139.34 389.67,-131.65 379.18,-133.12 382.38,-139.34"/>
</g>
<!-- Node19 -->
<g id="node19" class="node">
<title>Node19</title>
<g id="a_node19"><a xlink:title=" ">
<polygon fill="none" stroke="#bfbfbf" points="279,-112.5 279,-131.5 318,-131.5 318,-112.5 279,-112.5"/>
<text text-anchor="middle" x="298.5" y="-119.5" font-family="Helvetica,sans-Serif" font-size="10.00">utility</text>
</a>
</g>
</g>
<!-- Node18&#45;&gt;Node19 -->
<g id="edge23" class="edge">
<title>Node18&#45;&gt;Node19</title>
<path fill="none" stroke="midnightblue" d="M301,-168.08C300.61,-161.01 300.05,-150.86 299.55,-141.99"/>
<polygon fill="midnightblue" stroke="midnightblue" points="303.04,-141.54 298.99,-131.75 296.05,-141.93 303.04,-141.54"/>
</g>
<!-- Node20&#45;&gt;Node16 -->
<g id="edge26" class="edge">
<title>Node20&#45;&gt;Node16</title>
<path fill="none" stroke="midnightblue" d="M622.67,-168.17C637.48,-154.36 668.09,-127.6 698.5,-112 703.8,-109.28 772.8,-88.73 814.69,-76.36"/>
<polygon fill="midnightblue" stroke="midnightblue" points="815.85,-79.67 824.45,-73.48 813.87,-72.95 815.85,-79.67"/>
</g>
<!-- Node20&#45;&gt;Node17 -->
<g id="edge27" class="edge">
<title>Node20&#45;&gt;Node17</title>
<path fill="none" stroke="midnightblue" d="M618.4,-168.15C626.49,-154.31 643.91,-127.52 665.5,-112 694.54,-91.12 734.34,-78.91 760.71,-72.59"/>
<polygon fill="midnightblue" stroke="midnightblue" points="761.8,-75.94 770.78,-70.32 760.25,-69.11 761.8,-75.94"/>
</g>
<!-- Node21 -->
<g id="node21" class="node">
<title>Node21</title>
<g id="a_node21"><a xlink:title=" ">
<polygon fill="none" stroke="#bfbfbf" points="495.5,-112.5 495.5,-131.5 539.5,-131.5 539.5,-112.5 495.5,-112.5"/>
<text text-anchor="middle" x="517.5" y="-119.5" font-family="Helvetica,sans-Serif" font-size="10.00">SDL.h</text>
</a>
</g>
</g>
<!-- Node20&#45;&gt;Node21 -->
<g id="edge28" class="edge">
<title>Node20&#45;&gt;Node21</title>
<path fill="none" stroke="midnightblue" d="M598.08,-168.32C582.96,-159.82 559.68,-146.73 542.03,-136.8"/>
<polygon fill="midnightblue" stroke="midnightblue" points="543.32,-133.51 532.89,-131.65 539.89,-139.61 543.32,-133.51"/>
</g>
<!-- Node22 -->
<g id="node22" class="node">
<title>Node22</title>
<g id="a_node22"><a xlink:title=" ">
<polygon fill="none" stroke="#bfbfbf" points="707.5,-112.5 707.5,-131.5 819.5,-131.5 819.5,-112.5 707.5,-112.5"/>
<text text-anchor="middle" x="763.5" y="-119.5" font-family="Helvetica,sans-Serif" font-size="10.00">Events/EventsEnum.h</text>
</a>
</g>
</g>
<!-- Node20&#45;&gt;Node22 -->
<g id="edge29" class="edge">
<title>Node20&#45;&gt;Node22</title>
<path fill="none" stroke="midnightblue" d="M637.27,-168.44C662.39,-159.4 702.21,-145.06 730.4,-134.92"/>
<polygon fill="midnightblue" stroke="midnightblue" points="731.62,-138.2 739.84,-131.52 729.25,-131.61 731.62,-138.2"/>
</g>
<!-- Node23 -->
<g id="node23" class="node">
<title>Node23</title>
<g id="a_node23"><a xlink:href="Input_8hpp.html" target="_top" xlink:title=" ">
<polygon fill="none" stroke="black" points="557.5,-112.5 557.5,-131.5 613.5,-131.5 613.5,-112.5 557.5,-112.5"/>
<text text-anchor="middle" x="585.5" y="-119.5" font-family="Helvetica,sans-Serif" font-size="10.00">Input.hpp</text>
</a>
</g>
</g>
<!-- Node20&#45;&gt;Node23 -->
<g id="edge30" class="edge">
<title>Node20&#45;&gt;Node23</title>
<path fill="none" stroke="midnightblue" d="M608.88,-168.08C605.04,-160.69 599.48,-149.95 594.74,-140.81"/>
<polygon fill="midnightblue" stroke="midnightblue" points="597.75,-139.02 590.04,-131.75 591.53,-142.24 597.75,-139.02"/>
</g>
<!-- Node23&#45;&gt;Node5 -->
<g id="edge31" class="edge">
<title>Node23&#45;&gt;Node5</title>
<path fill="none" stroke="midnightblue" d="M613.59,-115.09C649.3,-107.05 708.15,-91.83 723.5,-76 735.38,-63.75 739.9,-44.48 741.58,-30.1"/>
<polygon fill="midnightblue" stroke="midnightblue" points="745.09,-30.1 742.41,-19.85 738.12,-29.53 745.09,-30.1"/>
</g>
<!-- Node23&#45;&gt;Node7 -->
<g id="edge32" class="edge">
<title>Node23&#45;&gt;Node7</title>
<path fill="none" stroke="midnightblue" d="M557.3,-113.72C554.34,-113.08 551.37,-112.49 548.5,-112 396.26,-85.85 351.97,-105.93 195.97,-75.69"/>
<polygon fill="midnightblue" stroke="midnightblue" points="196.52,-72.22 186.03,-73.72 195.16,-79.09 196.52,-72.22"/>
</g>
<!-- Node25 -->
<g id="node25" class="node">
<title>Node25</title>
<g id="a_node25"><a xlink:href="GameObject_8hpp.html" target="_top" xlink:title=" ">
<polygon fill="none" stroke="black" points="876,-112.5 876,-131.5 965,-131.5 965,-112.5 876,-112.5"/>
<text text-anchor="middle" x="920.5" y="-119.5" font-family="Helvetica,sans-Serif" font-size="10.00">GameObject.hpp</text>
</a>
</g>
</g>
<!-- Node24&#45;&gt;Node25 -->
<g id="edge34" class="edge">
<title>Node24&#45;&gt;Node25</title>
<path fill="none" stroke="midnightblue" d="M860.84,-224.23C870.34,-215.74 884.29,-202.12 893.5,-188 902.98,-173.47 910.26,-155.05 914.85,-141.54"/>
<polygon fill="midnightblue" stroke="midnightblue" points="918.21,-142.51 917.95,-131.91 911.55,-140.36 918.21,-142.51"/>
</g>
<!-- Node28 -->
<g id="node28" class="node">
<title>Node28</title>
<g id="a_node28"><a xlink:href="Camera_8hpp.html" target="_top" xlink:title=" ">
<polygon fill="none" stroke="black" points="816.5,-168.5 816.5,-187.5 884.5,-187.5 884.5,-168.5 816.5,-168.5"/>
<text text-anchor="middle" x="850.5" y="-175.5" font-family="Helvetica,sans-Serif" font-size="10.00">Camera.hpp</text>
</a>
</g>
</g>
<!-- Node24&#45;&gt;Node28 -->
<g id="edge43" class="edge">
<title>Node24&#45;&gt;Node28</title>
<path fill="none" stroke="midnightblue" d="M850.5,-224.08C850.5,-217.01 850.5,-206.86 850.5,-197.99"/>
<polygon fill="midnightblue" stroke="midnightblue" points="854,-197.75 850.5,-187.75 847,-197.75 854,-197.75"/>
</g>
<!-- Node25&#45;&gt;Node7 -->
<g id="edge39" class="edge">
<title>Node25&#45;&gt;Node7</title>
<path fill="none" stroke="midnightblue" d="M875.78,-113.71C870.97,-113.07 866.14,-112.48 861.5,-112 569.94,-81.95 489.33,-125.94 196.08,-75.6"/>
<polygon fill="midnightblue" stroke="midnightblue" points="196.45,-72.12 186,-73.85 195.25,-79.01 196.45,-72.12"/>
</g>
<!-- Node25&#45;&gt;Node14 -->
<g id="edge41" class="edge">
<title>Node25&#45;&gt;Node14</title>
<path fill="none" stroke="midnightblue" d="M965.02,-114.12C1005.93,-106.78 1062.17,-93.76 1075.5,-76 1088.87,-58.2 1067.28,-38.08 1048.2,-25.01"/>
<polygon fill="midnightblue" stroke="midnightblue" points="1050.05,-22.03 1039.75,-19.53 1046.24,-27.91 1050.05,-22.03"/>
</g>
<!-- Node25&#45;&gt;Node16 -->
<g id="edge40" class="edge">
<title>Node25&#45;&gt;Node16</title>
<path fill="none" stroke="midnightblue" d="M908.61,-112.32C897.35,-104.11 880.21,-91.6 866.79,-81.81"/>
<polygon fill="midnightblue" stroke="midnightblue" points="868.75,-78.9 858.61,-75.83 864.62,-84.56 868.75,-78.9"/>
</g>
<!-- Node25&#45;&gt;Node17 -->
<g id="edge42" class="edge">
<title>Node25&#45;&gt;Node17</title>
<path fill="none" stroke="midnightblue" d="M899.58,-112.44C876.97,-103.19 840.82,-88.4 815.93,-78.22"/>
<polygon fill="midnightblue" stroke="midnightblue" points="816.94,-74.85 806.35,-74.3 814.28,-81.33 816.94,-74.85"/>
</g>
<!-- Node26 -->
<g id="node26" class="node">
<title>Node26</title>
<g id="a_node26"><a xlink:href="Component_8hpp.html" target="_top" xlink:title=" ">
<polygon fill="none" stroke="black" points="982.5,-56.5 982.5,-75.5 1066.5,-75.5 1066.5,-56.5 982.5,-56.5"/>
<text text-anchor="middle" x="1024.5" y="-63.5" font-family="Helvetica,sans-Serif" font-size="10.00">Component.hpp</text>
</a>
</g>
</g>
<!-- Node25&#45;&gt;Node26 -->
<g id="edge35" class="edge">
<title>Node25&#45;&gt;Node26</title>
<path fill="none" stroke="midnightblue" d="M937.21,-112.32C953.81,-103.7 979.5,-90.36 998.72,-80.39"/>
<polygon fill="midnightblue" stroke="midnightblue" points="1000.57,-83.37 1007.83,-75.65 997.34,-77.16 1000.57,-83.37"/>
</g>
<!-- Node27 -->
<g id="node27" class="node">
<title>Node27</title>
<g id="a_node27"><a xlink:href="Transform_8hpp.html" target="_top" xlink:title=" ">
<polygon fill="none" stroke="black" points="886,-56.5 886,-75.5 965,-75.5 965,-56.5 886,-56.5"/>
<text text-anchor="middle" x="925.5" y="-63.5" font-family="Helvetica,sans-Serif" font-size="10.00">Transform.hpp</text>
</a>
</g>
</g>
<!-- Node25&#45;&gt;Node27 -->
<g id="edge37" class="edge">
<title>Node25&#45;&gt;Node27</title>
<path fill="none" stroke="midnightblue" d="M921.33,-112.08C921.98,-105.01 922.92,-94.86 923.74,-85.99"/>
<polygon fill="midnightblue" stroke="midnightblue" points="927.25,-86.03 924.69,-75.75 920.28,-85.39 927.25,-86.03"/>
</g>
<!-- Node26&#45;&gt;Node14 -->
<g id="edge36" class="edge">
<title>Node26&#45;&gt;Node14</title>
<path fill="none" stroke="midnightblue" d="M1024.5,-56.08C1024.5,-49.01 1024.5,-38.86 1024.5,-29.99"/>
<polygon fill="midnightblue" stroke="midnightblue" points="1028,-29.75 1024.5,-19.75 1021,-29.75 1028,-29.75"/>
</g>
<!-- Node27&#45;&gt;Node5 -->
<g id="edge38" class="edge">
<title>Node27&#45;&gt;Node5</title>
<path fill="none" stroke="midnightblue" d="M896.5,-56.44C865.22,-47.21 815.28,-32.48 780.79,-22.3"/>
<polygon fill="midnightblue" stroke="midnightblue" points="781.64,-18.9 771.06,-19.43 779.66,-25.61 781.64,-18.9"/>
</g>
<!-- Node28&#45;&gt;Node6 -->
<g id="edge45" class="edge">
<title>Node28&#45;&gt;Node6</title>
<path fill="none" stroke="midnightblue" d="M850.43,-168.08C849.77,-153.63 846.17,-125.38 828.5,-112 769.07,-67 248.12,-85.79 137.04,-75.66"/>
<polygon fill="midnightblue" stroke="midnightblue" points="137.42,-72.18 127.08,-74.51 136.61,-79.13 137.42,-72.18"/>
</g>
<!-- Node28&#45;&gt;Node25 -->
<g id="edge44" class="edge">
<title>Node28&#45;&gt;Node25</title>
<path fill="none" stroke="midnightblue" d="M861.75,-168.32C872.3,-160.18 888.3,-147.84 900.94,-138.09"/>
<polygon fill="midnightblue" stroke="midnightblue" points="903.27,-140.71 909.05,-131.83 898.99,-135.17 903.27,-140.71"/>
</g>
</g>
</svg>
        <g id="navigator" transform="translate(0 0)" fill="#404254">
                <rect fill="#f2f5e9" fill-opacity="0.5" stroke="#606060" stroke-width=".5" x="0" y="0" width="60" height="60"/>
                <use id="zoomplus" xlink:href="#zoomPlus" x="17" y="9" onmousedown="handleZoom(evt,'in')"/>
                <use id="zoomminus" xlink:href="#zoomMin" x="42" y="9" onmousedown="handleZoom(evt,'out')"/>
                <use id="reset" xlink:href="#resetDef" x="30" y="36" onmousedown="handleReset()"/>
                <g id="arrowUp" xlink:href="#dirArrow" transform="translate(30 24)" onmousedown="handlePan(0,-1)">
                  <use xlink:href="#rim" fill="#404040">
                        <set attributeName="fill" to="#808080" begin="arrowUp.mouseover" end="arrowUp.mouseout"/>
                  </use>
                  <path fill="none" stroke="white" stroke-width="1.5" d="M0,-3.0v7 M-2.5,-0.5L0,-3.0L2.5,-0.5"/>
                </g>
                <g id="arrowRight" xlink:href="#dirArrow" transform="rotate(90) translate(36 -43)" onmousedown="handlePan(1,0)">
                  <use xlink:href="#rim" fill="#404040">
                        <set attributeName="fill" to="#808080" begin="arrowRight.mouseover" end="arrowRight.mouseout"/>
                  </use>
                  <path fill="none" stroke="white" stroke-width="1.5" d="M0,-3.0v7 M-2.5,-0.5L0,-3.0L2.5,-0.5"/>
                </g>
                <g id="arrowDown" xlink:href="#dirArrow" transform="rotate(180) translate(-30 -48)" onmousedown="handlePan(0,1)">
                  <use xlink:href="#rim" fill="#404040">
                        <set attributeName="fill" to="#808080" begin="arrowDown.mouseover" end="arrowDown.mouseout"/>
                  </use>
                  <path fill="none" stroke="white" stroke-width="1.5" d="M0,-3.0v7 M-2.5,-0.5L0,-3.0L2.5,-0.5"/>
                </g>
                <g id="arrowLeft" xlink:href="#dirArrow" transform="rotate(270) translate(-36 17)" onmousedown="handlePan(-1,0)">
                  <use xlink:href="#rim" fill="#404040">
                        <set attributeName="fill" to="#808080" begin="arrowLeft.mouseover" end="arrowLeft.mouseout"/>
                  </use>
                  <path fill="none" stroke="white" stroke-width="1.5" d="M0,-3.0v7 M-2.5,-0.5L0,-3.0L2.5,-0.5"/>
                </g>
        </g>
        <svg viewBox="0 0 15 15" width="100%" height="30px" preserveAspectRatio="xMaxYMin meet">
         <g id="arrow_out" transform="scale(0.3 0.3)">
          <a xlink:href="Timer_8cpp__incl_org.svg" target="_base">
           <rect id="button" ry="5" rx="5" y="6" x="6" height="38" width="38"
                fill="#f2f5e9" fill-opacity="0.5" stroke="#606060" stroke-width="1.0"/>
           <path id="arrow"
             d="M 11.500037,31.436501 C 11.940474,20.09759 22.043105,11.32322 32.158766,21.979434 L 37.068811,17.246167 C 37.068811,17.246167 37.088388,32 37.088388,32 L 22.160133,31.978069 C 22.160133,31.978069 26.997745,27.140456 26.997745,27.140456 C 18.528582,18.264221 13.291696,25.230495 11.500037,31.436501 z"
             style="fill:#404040;"/>
          </a>
         </g>
        </svg>
</svg>
