<?xml version="1.0" encoding="UTF-8" standalone="no"?>
<!DOCTYPE svg PUBLIC "-//W3C//DTD SVG 1.1//EN"
 "http://www.w3.org/Graphics/SVG/1.1/DTD/svg11.dtd">
<!-- Generated by graphviz version 2.44.0 ()
 -->
<!-- Title: includes/platformer&#45;engine/Facade/TMXParser.hpp Pages: 1 -->
<svg width="322pt" height="95pt"
 viewBox="0.00 0.00 321.50 95.00" xmlns="http://www.w3.org/2000/svg" xmlns:xlink="http://www.w3.org/1999/xlink">
<g id="graph0" class="graph" transform="scale(1 1) rotate(0) translate(4 91)">
<title>includes/platformer&#45;engine/Facade/TMXParser.hpp</title>
<!-- Node1 -->
<g id="node1" class="node">
<title>Node1</title>
<g id="a_node1"><a xlink:title=" ">
<polygon fill="#bfbfbf" stroke="black" points="74,-56.5 74,-86.5 228,-86.5 228,-56.5 74,-56.5"/>
<text text-anchor="start" x="82" y="-74.5" font-family="Helvetica,sans-Serif" font-size="10.00">includes/platformer</text>
<text text-anchor="middle" x="151" y="-63.5" font-family="Helvetica,sans-Serif" font-size="10.00">&#45;engine/Facade/TMXParser.hpp</text>
</a>
</g>
</g>
<!-- Node2 -->
<g id="node2" class="node">
<title>Node2</title>
<g id="a_node2"><a xlink:href="TMXParser_8cpp.html" target="_top" xlink:title=" ">
<polygon fill="none" stroke="black" points="0,-0.5 0,-19.5 136,-19.5 136,-0.5 0,-0.5"/>
<text text-anchor="middle" x="68" y="-7.5" font-family="Helvetica,sans-Serif" font-size="10.00">src/Facade/TMXParser.cpp</text>
</a>
</g>
</g>
<!-- Node1&#45;&gt;Node2 -->
<g id="edge1" class="edge">
<title>Node1&#45;&gt;Node2</title>
<path fill="none" stroke="midnightblue" d="M123.08,-50.48C108.46,-40 91.31,-27.71 80.08,-19.66"/>
<polygon fill="midnightblue" stroke="midnightblue" points="121.16,-53.42 131.33,-56.4 125.24,-47.73 121.16,-53.42"/>
</g>
<!-- Node3 -->
<g id="node3" class="node">
<title>Node3</title>
<g id="a_node3"><a xlink:href="LevelParser_8cpp.html" target="_top" xlink:title=" ">
<polygon fill="none" stroke="black" points="154.5,-0.5 154.5,-19.5 313.5,-19.5 313.5,-0.5 154.5,-0.5"/>
<text text-anchor="middle" x="234" y="-7.5" font-family="Helvetica,sans-Serif" font-size="10.00">src/LevelParser/LevelParser.cpp</text>
</a>
</g>
</g>
<!-- Node1&#45;&gt;Node3 -->
<g id="edge2" class="edge">
<title>Node1&#45;&gt;Node3</title>
<path fill="none" stroke="midnightblue" d="M178.92,-50.48C193.54,-40 210.69,-27.71 221.92,-19.66"/>
<polygon fill="midnightblue" stroke="midnightblue" points="176.76,-47.73 170.67,-56.4 180.84,-53.42 176.76,-47.73"/>
</g>
</g>
</svg>
