<?xml version="1.0" encoding="UTF-8" standalone="no"?>
<!DOCTYPE svg PUBLIC "-//W3C//DTD SVG 1.1//EN"
 "http://www.w3.org/Graphics/SVG/1.1/DTD/svg11.dtd">
<!-- Generated by graphviz version 2.44.0 ()
 -->
<!-- Title: includes/spic&#45;prj&#45;api/Transform.hpp Pages: 1 -->
<svg width="1894pt" height="664pt"
 viewBox="0.00 0.00 1893.50 664.00" xmlns="http://www.w3.org/2000/svg" xmlns:xlink="http://www.w3.org/1999/xlink">
<g id="graph0" class="graph" transform="scale(1 1) rotate(0) translate(4 660)">
<title>includes/spic&#45;prj&#45;api/Transform.hpp</title>
<!-- Node1 -->
<g id="node1" class="node">
<title>Node1</title>
<g id="a_node1"><a xlink:title=" ">
<polygon fill="#bfbfbf" stroke="black" points="461,-625.5 461,-655.5 564,-655.5 564,-625.5 461,-625.5"/>
<text text-anchor="start" x="469" y="-643.5" font-family="Helvetica,sans-Serif" font-size="10.00">includes/spic&#45;prj&#45;api</text>
<text text-anchor="middle" x="512.5" y="-632.5" font-family="Helvetica,sans-Serif" font-size="10.00">/Transform.hpp</text>
</a>
</g>
</g>
<!-- Node2 -->
<g id="node2" class="node">
<title>Node2</title>
<g id="a_node2"><a xlink:href="PhysicsSystem_8cpp.html" target="_top" xlink:title=" ">
<polygon fill="none" stroke="black" points="1701.5,-430 1701.5,-449 1857.5,-449 1857.5,-430 1701.5,-430"/>
<text text-anchor="middle" x="1779.5" y="-437" font-family="Helvetica,sans-Serif" font-size="10.00">src/Physics/PhysicsSystem.cpp</text>
</a>
</g>
</g>
<!-- Node1&#45;&gt;Node2 -->
<g id="edge1" class="edge">
<title>Node1&#45;&gt;Node2</title>
<path fill="none" stroke="midnightblue" d="M574.4,-638.67C821.04,-634.74 1724.38,-614.09 1808.5,-522 1827.95,-500.71 1801.91,-465.51 1787.68,-449.24"/>
<polygon fill="midnightblue" stroke="midnightblue" points="574.13,-635.17 564.19,-638.83 574.24,-642.17 574.13,-635.17"/>
</g>
<!-- Node3 -->
<g id="node3" class="node">
<title>Node3</title>
<g id="a_node3"><a xlink:href="AnimatedSprite_8hpp.html" target="_top" xlink:title=" ">
<polygon fill="none" stroke="black" points="161,-290.5 161,-320.5 332,-320.5 332,-290.5 161,-290.5"/>
<text text-anchor="start" x="169" y="-308.5" font-family="Helvetica,sans-Serif" font-size="10.00">includes/platformer</text>
<text text-anchor="middle" x="246.5" y="-297.5" font-family="Helvetica,sans-Serif" font-size="10.00">&#45;engine/Texture/AnimatedSprite.hpp</text>
</a>
</g>
</g>
<!-- Node1&#45;&gt;Node3 -->
<g id="edge2" class="edge">
<title>Node1&#45;&gt;Node3</title>
<path fill="none" stroke="midnightblue" d="M450.66,-631.05C382.54,-617.85 282.5,-585.23 282.5,-507.5 282.5,-507.5 282.5,-507.5 282.5,-438.5 282.5,-394.32 263.5,-344.66 253.1,-320.8"/>
<polygon fill="midnightblue" stroke="midnightblue" points="450.41,-634.56 460.88,-632.93 451.68,-627.67 450.41,-634.56"/>
</g>
<!-- Node8 -->
<g id="node8" class="node">
<title>Node8</title>
<g id="a_node8"><a xlink:href="Animator_8hpp.html" target="_top" xlink:title=" ">
<polygon fill="none" stroke="black" points="457,-218 457,-248 560,-248 560,-218 457,-218"/>
<text text-anchor="start" x="465" y="-236" font-family="Helvetica,sans-Serif" font-size="10.00">includes/spic&#45;prj&#45;api</text>
<text text-anchor="middle" x="508.5" y="-225" font-family="Helvetica,sans-Serif" font-size="10.00">/Animator.hpp</text>
</a>
</g>
</g>
<!-- Node1&#45;&gt;Node8 -->
<g id="edge19" class="edge">
<title>Node1&#45;&gt;Node8</title>
<path fill="none" stroke="midnightblue" d="M512.5,-614.99C512.5,-588.49 512.5,-545 512.5,-507.5 512.5,-507.5 512.5,-507.5 512.5,-371.5 512.5,-326.36 510.32,-272.93 509.18,-248.05"/>
<polygon fill="midnightblue" stroke="midnightblue" points="509,-615.24 512.5,-625.24 516,-615.24 509,-615.24"/>
</g>
<!-- Node17 -->
<g id="node17" class="node">
<title>Node17</title>
<g id="a_node17"><a xlink:href="GameObject_8hpp.html" target="_top" xlink:title=" ">
<polygon fill="none" stroke="black" points="852,-558.5 852,-588.5 955,-588.5 955,-558.5 852,-558.5"/>
<text text-anchor="start" x="860" y="-576.5" font-family="Helvetica,sans-Serif" font-size="10.00">includes/spic&#45;prj&#45;api</text>
<text text-anchor="middle" x="903.5" y="-565.5" font-family="Helvetica,sans-Serif" font-size="10.00">/GameObject.hpp</text>
</a>
</g>
</g>
<!-- Node1&#45;&gt;Node17 -->
<g id="edge20" class="edge">
<title>Node1&#45;&gt;Node17</title>
<path fill="none" stroke="midnightblue" d="M574.01,-629.27C650.63,-616.54 780.16,-595 851.87,-583.08"/>
<polygon fill="midnightblue" stroke="midnightblue" points="573.31,-625.84 564.02,-630.94 574.46,-632.75 573.31,-625.84"/>
</g>
<!-- Node38 -->
<g id="node38" class="node">
<title>Node38</title>
<g id="a_node38"><a xlink:href="Sprite_8hpp.html" target="_top" xlink:title=" ">
<polygon fill="none" stroke="black" points="364,-357.5 364,-387.5 467,-387.5 467,-357.5 364,-357.5"/>
<text text-anchor="start" x="372" y="-375.5" font-family="Helvetica,sans-Serif" font-size="10.00">includes/spic&#45;prj&#45;api</text>
<text text-anchor="middle" x="415.5" y="-364.5" font-family="Helvetica,sans-Serif" font-size="10.00">/Sprite.hpp</text>
</a>
</g>
</g>
<!-- Node1&#45;&gt;Node38 -->
<g id="edge58" class="edge">
<title>Node1&#45;&gt;Node38</title>
<path fill="none" stroke="midnightblue" d="M503.84,-615.74C484.11,-561.66 436.36,-430.7 420.62,-387.55"/>
<polygon fill="midnightblue" stroke="midnightblue" points="500.57,-617 507.28,-625.2 507.15,-614.6 500.57,-617"/>
</g>
<!-- Node4 -->
<g id="node4" class="node">
<title>Node4</title>
<g id="a_node4"><a xlink:href="AnimatedSprite_8cpp.html" target="_top" xlink:title=" ">
<polygon fill="none" stroke="black" points="179,-223.5 179,-242.5 332,-242.5 332,-223.5 179,-223.5"/>
<text text-anchor="middle" x="255.5" y="-230.5" font-family="Helvetica,sans-Serif" font-size="10.00">src/Texture/AnimatedSprite.cpp</text>
</a>
</g>
</g>
<!-- Node3&#45;&gt;Node4 -->
<g id="edge3" class="edge">
<title>Node3&#45;&gt;Node4</title>
<path fill="none" stroke="midnightblue" d="M249.62,-280.09C251.26,-267.21 253.18,-252.2 254.36,-242.89"/>
<polygon fill="midnightblue" stroke="midnightblue" points="246.12,-279.87 248.32,-290.23 253.06,-280.76 246.12,-279.87"/>
</g>
<!-- Node5 -->
<g id="node5" class="node">
<title>Node5</title>
<g id="a_node5"><a xlink:href="GameObjectBuilder_8hpp.html" target="_top" xlink:title=" ">
<polygon fill="none" stroke="black" points="291,-134.5 291,-175.5 430,-175.5 430,-134.5 291,-134.5"/>
<text text-anchor="start" x="299" y="-163.5" font-family="Helvetica,sans-Serif" font-size="10.00">includes/platformer</text>
<text text-anchor="start" x="299" y="-152.5" font-family="Helvetica,sans-Serif" font-size="10.00">&#45;engine/Builder/GameObject</text>
<text text-anchor="middle" x="360.5" y="-141.5" font-family="Helvetica,sans-Serif" font-size="10.00">Builder.hpp</text>
</a>
</g>
</g>
<!-- Node3&#45;&gt;Node5 -->
<g id="edge4" class="edge">
<title>Node3&#45;&gt;Node5</title>
<path fill="none" stroke="midnightblue" d="M299.91,-285.9C315.08,-278.21 330.24,-267.79 340.5,-254 357.6,-231.01 360.97,-196.95 361.2,-175.63"/>
<polygon fill="midnightblue" stroke="midnightblue" points="298.06,-282.91 290.51,-290.34 301.05,-289.24 298.06,-282.91"/>
</g>
<!-- Node7 -->
<g id="node7" class="node">
<title>Node7</title>
<g id="a_node7"><a xlink:href="ObjectBuilder_8hpp.html" target="_top" xlink:title=" ">
<polygon fill="none" stroke="black" points="0,-218 0,-248 161,-248 161,-218 0,-218"/>
<text text-anchor="start" x="8" y="-236" font-family="Helvetica,sans-Serif" font-size="10.00">includes/platformer</text>
<text text-anchor="middle" x="80.5" y="-225" font-family="Helvetica,sans-Serif" font-size="10.00">&#45;engine/Builder/ObjectBuilder.hpp</text>
</a>
</g>
</g>
<!-- Node3&#45;&gt;Node7 -->
<g id="edge6" class="edge">
<title>Node3&#45;&gt;Node7</title>
<path fill="none" stroke="midnightblue" d="M203.75,-286.34C175.68,-274.42 139.52,-259.07 113.64,-248.07"/>
<polygon fill="midnightblue" stroke="midnightblue" points="202.73,-289.72 213.31,-290.4 205.47,-283.27 202.73,-289.72"/>
</g>
<!-- Node3&#45;&gt;Node8 -->
<g id="edge8" class="edge">
<title>Node3&#45;&gt;Node8</title>
<path fill="none" stroke="midnightblue" d="M308.28,-287.88C353.55,-275.69 414.3,-259.35 456.97,-247.87"/>
<polygon fill="midnightblue" stroke="midnightblue" points="307.32,-284.51 298.58,-290.49 309.14,-291.27 307.32,-284.51"/>
</g>
<!-- Node6 -->
<g id="node6" class="node">
<title>Node6</title>
<g id="a_node6"><a xlink:href="GameObjectBuilder_8cpp.html" target="_top" xlink:title=" ">
<polygon fill="none" stroke="black" points="276,-73 276,-92 445,-92 445,-73 276,-73"/>
<text text-anchor="middle" x="360.5" y="-80" font-family="Helvetica,sans-Serif" font-size="10.00">src/Builder/GameObjectBuilder.cpp</text>
</a>
</g>
</g>
<!-- Node5&#45;&gt;Node6 -->
<g id="edge5" class="edge">
<title>Node5&#45;&gt;Node6</title>
<path fill="none" stroke="midnightblue" d="M360.5,-124.1C360.5,-112.53 360.5,-100.18 360.5,-92.17"/>
<polygon fill="midnightblue" stroke="midnightblue" points="357,-124.36 360.5,-134.36 364,-124.36 357,-124.36"/>
</g>
<!-- Node7&#45;&gt;Node5 -->
<g id="edge7" class="edge">
<title>Node7&#45;&gt;Node5</title>
<path fill="none" stroke="midnightblue" d="M141.89,-215.34C185.87,-203.4 245.17,-187.3 290.91,-174.89"/>
<polygon fill="midnightblue" stroke="midnightblue" points="140.92,-211.97 132.18,-217.97 142.75,-218.73 140.92,-211.97"/>
</g>
<!-- Node8&#45;&gt;Node5 -->
<g id="edge11" class="edge">
<title>Node8&#45;&gt;Node5</title>
<path fill="none" stroke="midnightblue" d="M471.88,-213.2C449.63,-201.77 421.26,-187.2 398.72,-175.63"/>
<polygon fill="midnightblue" stroke="midnightblue" points="470.51,-216.43 481.01,-217.88 473.71,-210.2 470.51,-216.43"/>
</g>
<!-- Node9 -->
<g id="node9" class="node">
<title>Node9</title>
<g id="a_node9"><a xlink:href="Animator_8cpp.html" target="_top" xlink:title=" ">
<polygon fill="none" stroke="black" points="448.5,-145.5 448.5,-164.5 558.5,-164.5 558.5,-145.5 448.5,-145.5"/>
<text text-anchor="middle" x="503.5" y="-152.5" font-family="Helvetica,sans-Serif" font-size="10.00">src/API/Animator.cpp</text>
</a>
</g>
</g>
<!-- Node8&#45;&gt;Node9 -->
<g id="edge9" class="edge">
<title>Node8&#45;&gt;Node9</title>
<path fill="none" stroke="midnightblue" d="M506.9,-207.67C505.93,-192.9 504.75,-174.95 504.06,-164.56"/>
<polygon fill="midnightblue" stroke="midnightblue" points="503.41,-207.96 507.56,-217.7 510.4,-207.5 503.41,-207.96"/>
</g>
<!-- Node10 -->
<g id="node10" class="node">
<title>Node10</title>
<g id="a_node10"><a xlink:href="Scene_8cpp.html" target="_top" xlink:title=" ">
<polygon fill="none" stroke="black" points="576.5,-145.5 576.5,-164.5 686.5,-164.5 686.5,-145.5 576.5,-145.5"/>
<text text-anchor="middle" x="631.5" y="-152.5" font-family="Helvetica,sans-Serif" font-size="10.00">src/Scene/Scene.cpp</text>
</a>
</g>
</g>
<!-- Node8&#45;&gt;Node10 -->
<g id="edge10" class="edge">
<title>Node8&#45;&gt;Node10</title>
<path fill="none" stroke="midnightblue" d="M540.13,-212.46C565.15,-197 598.88,-176.15 617.57,-164.61"/>
<polygon fill="midnightblue" stroke="midnightblue" points="538.01,-209.65 531.35,-217.88 541.69,-215.6 538.01,-209.65"/>
</g>
<!-- Node11 -->
<g id="node11" class="node">
<title>Node11</title>
<g id="a_node11"><a xlink:href="RenderSystem_8hpp.html" target="_top" xlink:title=" ">
<polygon fill="none" stroke="black" points="1645.5,-140 1645.5,-170 1813.5,-170 1813.5,-140 1645.5,-140"/>
<text text-anchor="start" x="1653.5" y="-158" font-family="Helvetica,sans-Serif" font-size="10.00">includes/platformer</text>
<text text-anchor="middle" x="1729.5" y="-147" font-family="Helvetica,sans-Serif" font-size="10.00">&#45;engine/Texture/RenderSystem.hpp</text>
</a>
</g>
</g>
<!-- Node8&#45;&gt;Node11 -->
<g id="edge12" class="edge">
<title>Node8&#45;&gt;Node11</title>
<path fill="none" stroke="midnightblue" d="M570.24,-227.5C628.16,-223.33 717.19,-217.02 794.5,-212 1108.3,-191.63 1481.53,-170.08 1645.35,-160.76"/>
<polygon fill="midnightblue" stroke="midnightblue" points="569.88,-224.02 560.16,-228.23 570.38,-231 569.88,-224.02"/>
</g>
<!-- Node12 -->
<g id="node12" class="node">
<title>Node12</title>
<g id="a_node12"><a xlink:href="RenderSystem_8cpp.html" target="_top" xlink:title=" ">
<polygon fill="none" stroke="black" points="1392.5,-6 1392.5,-25 1542.5,-25 1542.5,-6 1392.5,-6"/>
<text text-anchor="middle" x="1467.5" y="-13" font-family="Helvetica,sans-Serif" font-size="10.00">src/Texture/RenderSystem.cpp</text>
</a>
</g>
</g>
<!-- Node11&#45;&gt;Node12 -->
<g id="edge13" class="edge">
<title>Node11&#45;&gt;Node12</title>
<path fill="none" stroke="midnightblue" d="M1693.33,-135.02C1635.68,-104.76 1525.22,-46.79 1483.76,-25.03"/>
<polygon fill="midnightblue" stroke="midnightblue" points="1691.97,-138.26 1702.45,-139.8 1695.22,-132.06 1691.97,-138.26"/>
</g>
<!-- Node13 -->
<g id="node13" class="node">
<title>Node13</title>
<g id="a_node13"><a xlink:href="Engine_8hpp.html" target="_top" xlink:title=" ">
<polygon fill="none" stroke="black" points="954,-67.5 954,-97.5 1085,-97.5 1085,-67.5 954,-67.5"/>
<text text-anchor="start" x="962" y="-85.5" font-family="Helvetica,sans-Serif" font-size="10.00">includes/platformer</text>
<text text-anchor="middle" x="1019.5" y="-74.5" font-family="Helvetica,sans-Serif" font-size="10.00">&#45;engine/Engine/Engine.hpp</text>
</a>
</g>
</g>
<!-- Node11&#45;&gt;Node13 -->
<g id="edge14" class="edge">
<title>Node11&#45;&gt;Node13</title>
<path fill="none" stroke="midnightblue" d="M1656.59,-138.12C1648.15,-136.58 1639.65,-135.16 1631.5,-134 1433.87,-105.78 1197.93,-91.83 1085.45,-86.36"/>
<polygon fill="midnightblue" stroke="midnightblue" points="1655.96,-141.57 1666.43,-139.98 1657.25,-134.69 1655.96,-141.57"/>
</g>
<!-- Node13&#45;&gt;Node12 -->
<g id="edge18" class="edge">
<title>Node13&#45;&gt;Node12</title>
<path fill="none" stroke="midnightblue" d="M1095.1,-70.53C1183.63,-57.69 1328.36,-36.69 1408.84,-25.01"/>
<polygon fill="midnightblue" stroke="midnightblue" points="1094.52,-67.08 1085.12,-71.98 1095.52,-74.01 1094.52,-67.08"/>
</g>
<!-- Node14 -->
<g id="node14" class="node">
<title>Node14</title>
<g id="a_node14"><a xlink:href="Engine_8cpp.html" target="_top" xlink:title=" ">
<polygon fill="none" stroke="black" points="997,-6 997,-25 1110,-25 1110,-6 997,-6"/>
<text text-anchor="middle" x="1053.5" y="-13" font-family="Helvetica,sans-Serif" font-size="10.00">src/Engine/Engine.cpp</text>
</a>
</g>
</g>
<!-- Node13&#45;&gt;Node14 -->
<g id="edge15" class="edge">
<title>Node13&#45;&gt;Node14</title>
<path fill="none" stroke="midnightblue" d="M1031.64,-58.29C1037.65,-46.8 1044.54,-33.63 1048.95,-25.19"/>
<polygon fill="midnightblue" stroke="midnightblue" points="1028.41,-56.91 1026.88,-67.4 1034.61,-60.16 1028.41,-56.91"/>
</g>
<!-- Node15 -->
<g id="node15" class="node">
<title>Node15</title>
<g id="a_node15"><a xlink:href="ClientNetworkManager_8cpp.html" target="_top" xlink:title=" ">
<polygon fill="none" stroke="black" points="635,-0.5 635,-30.5 782,-30.5 782,-0.5 635,-0.5"/>
<text text-anchor="start" x="643" y="-18.5" font-family="Helvetica,sans-Serif" font-size="10.00">src/Networking/ClientNetwork</text>
<text text-anchor="middle" x="708.5" y="-7.5" font-family="Helvetica,sans-Serif" font-size="10.00">Manager.cpp</text>
</a>
</g>
</g>
<!-- Node13&#45;&gt;Node15 -->
<g id="edge16" class="edge">
<title>Node13&#45;&gt;Node15</title>
<path fill="none" stroke="midnightblue" d="M943.87,-65.69C892.47,-54.95 825.09,-40.87 775.59,-30.52"/>
<polygon fill="midnightblue" stroke="midnightblue" points="943.42,-69.17 953.92,-67.79 944.85,-62.32 943.42,-69.17"/>
</g>
<!-- Node16 -->
<g id="node16" class="node">
<title>Node16</title>
<g id="a_node16"><a xlink:href="ServerNetworkManager_8cpp.html" target="_top" xlink:title=" ">
<polygon fill="none" stroke="black" points="828,-0.5 828,-30.5 979,-30.5 979,-0.5 828,-0.5"/>
<text text-anchor="start" x="836" y="-18.5" font-family="Helvetica,sans-Serif" font-size="10.00">src/Networking/ServerNetwork</text>
<text text-anchor="middle" x="903.5" y="-7.5" font-family="Helvetica,sans-Serif" font-size="10.00">Manager.cpp</text>
</a>
</g>
</g>
<!-- Node13&#45;&gt;Node16 -->
<g id="edge17" class="edge">
<title>Node13&#45;&gt;Node16</title>
<path fill="none" stroke="midnightblue" d="M985.23,-62.3C967.08,-52.12 945.18,-39.85 928.62,-30.58"/>
<polygon fill="midnightblue" stroke="midnightblue" points="983.9,-65.56 994.33,-67.4 987.32,-59.45 983.9,-65.56"/>
</g>
<!-- Node17&#45;&gt;Node2 -->
<g id="edge25" class="edge">
<title>Node17&#45;&gt;Node2</title>
<path fill="none" stroke="midnightblue" d="M965.22,-571.29C1161.81,-567.12 1762.18,-551.98 1790.5,-522 1809.42,-501.97 1793.56,-465.82 1784.61,-449.24"/>
<polygon fill="midnightblue" stroke="midnightblue" points="964.98,-567.79 955.06,-571.5 965.13,-574.79 964.98,-567.79"/>
</g>
<!-- Node17&#45;&gt;Node5 -->
<g id="edge26" class="edge">
<title>Node17&#45;&gt;Node5</title>
<path fill="none" stroke="midnightblue" d="M841.84,-568.15C765.23,-561.73 639.9,-547.64 601.5,-522 565.96,-498.27 550.5,-483.23 550.5,-440.5 550.5,-440.5 550.5,-440.5 550.5,-371.5 550.5,-369.88 425.07,-228.63 378.03,-175.72"/>
<polygon fill="midnightblue" stroke="midnightblue" points="841.6,-571.64 851.85,-568.96 842.17,-564.66 841.6,-571.64"/>
</g>
<!-- Node17&#45;&gt;Node11 -->
<g id="edge39" class="edge">
<title>Node17&#45;&gt;Node11</title>
<path fill="none" stroke="midnightblue" d="M965.21,-571.69C1156.69,-568.81 1732.52,-557.29 1808.5,-522 1853.7,-501.01 1885.5,-490.33 1885.5,-440.5 1885.5,-440.5 1885.5,-440.5 1885.5,-304.5 1885.5,-237.57 1809.23,-191.63 1763.35,-170.06"/>
<polygon fill="midnightblue" stroke="midnightblue" points="964.98,-568.19 955.03,-571.84 965.08,-575.19 964.98,-568.19"/>
</g>
<!-- Node18 -->
<g id="node18" class="node">
<title>Node18</title>
<g id="a_node18"><a xlink:href="Collider_8cpp.html" target="_top" xlink:title=" ">
<polygon fill="none" stroke="black" points="852,-497 852,-516 955,-516 955,-497 852,-497"/>
<text text-anchor="middle" x="903.5" y="-504" font-family="Helvetica,sans-Serif" font-size="10.00">src/API/Collider.cpp</text>
</a>
</g>
</g>
<!-- Node17&#45;&gt;Node18 -->
<g id="edge21" class="edge">
<title>Node17&#45;&gt;Node18</title>
<path fill="none" stroke="midnightblue" d="M903.5,-548.25C903.5,-537.02 903.5,-524.38 903.5,-516.19"/>
<polygon fill="midnightblue" stroke="midnightblue" points="900,-548.4 903.5,-558.4 907,-548.4 900,-548.4"/>
</g>
<!-- Node19 -->
<g id="node19" class="node">
<title>Node19</title>
<g id="a_node19"><a xlink:href="GameObject_8cpp.html" target="_top" xlink:title=" ">
<polygon fill="none" stroke="black" points="973,-497 973,-516 1098,-516 1098,-497 973,-497"/>
<text text-anchor="middle" x="1035.5" y="-504" font-family="Helvetica,sans-Serif" font-size="10.00">src/API/GameObject.cpp</text>
</a>
</g>
</g>
<!-- Node17&#45;&gt;Node19 -->
<g id="edge22" class="edge">
<title>Node17&#45;&gt;Node19</title>
<path fill="none" stroke="midnightblue" d="M941.14,-553.97C966.49,-541.48 998.75,-525.6 1018.22,-516.01"/>
<polygon fill="midnightblue" stroke="midnightblue" points="939.57,-550.84 932.14,-558.4 942.66,-557.12 939.57,-550.84"/>
</g>
<!-- Node20 -->
<g id="node20" class="node">
<title>Node20</title>
<g id="a_node20"><a xlink:href="CollisionBehaviour_8cpp.html" target="_top" xlink:title=" ">
<polygon fill="none" stroke="black" points="1115.5,-497 1115.5,-516 1293.5,-516 1293.5,-497 1115.5,-497"/>
<text text-anchor="middle" x="1204.5" y="-504" font-family="Helvetica,sans-Serif" font-size="10.00">src/Behaviour/CollisionBehaviour.cpp</text>
</a>
</g>
</g>
<!-- Node17&#45;&gt;Node20 -->
<g id="edge23" class="edge">
<title>Node17&#45;&gt;Node20</title>
<path fill="none" stroke="midnightblue" d="M965.32,-559.15C1025.16,-546.23 1114.07,-527.03 1164.94,-516.04"/>
<polygon fill="midnightblue" stroke="midnightblue" points="964.28,-555.79 955.24,-561.33 965.76,-562.64 964.28,-555.79"/>
</g>
<!-- Node21 -->
<g id="node21" class="node">
<title>Node21</title>
<g id="a_node21"><a xlink:href="MarioRigidBody_8cpp.html" target="_top" xlink:title=" ">
<polygon fill="none" stroke="black" points="1311.5,-497 1311.5,-516 1467.5,-516 1467.5,-497 1311.5,-497"/>
<text text-anchor="middle" x="1389.5" y="-504" font-family="Helvetica,sans-Serif" font-size="10.00">src/Physics/MarioRigidBody.cpp</text>
</a>
</g>
</g>
<!-- Node17&#45;&gt;Node21 -->
<g id="edge24" class="edge">
<title>Node17&#45;&gt;Node21</title>
<path fill="none" stroke="midnightblue" d="M965.44,-565.42C1043.97,-556.28 1183.49,-539.44 1302.5,-522 1314.77,-520.2 1327.99,-518.09 1340.32,-516.04"/>
<polygon fill="midnightblue" stroke="midnightblue" points="964.77,-561.98 955.24,-566.61 965.58,-568.93 964.77,-561.98"/>
</g>
<!-- Node22 -->
<g id="node22" class="node">
<title>Node22</title>
<g id="a_node22"><a xlink:href="SceneBuilder_8hpp.html" target="_top" xlink:title=" ">
<polygon fill="none" stroke="black" points="1062.5,-357.5 1062.5,-387.5 1222.5,-387.5 1222.5,-357.5 1062.5,-357.5"/>
<text text-anchor="start" x="1070.5" y="-375.5" font-family="Helvetica,sans-Serif" font-size="10.00">includes/platformer</text>
<text text-anchor="middle" x="1142.5" y="-364.5" font-family="Helvetica,sans-Serif" font-size="10.00">&#45;engine/Builder/SceneBuilder.hpp</text>
</a>
</g>
</g>
<!-- Node17&#45;&gt;Node22 -->
<g id="edge27" class="edge">
<title>Node17&#45;&gt;Node22</title>
<path fill="none" stroke="midnightblue" d="M841.8,-568.47C779.79,-561.52 696.67,-542.56 721.5,-491 721.66,-490.66 805.16,-424.15 805.5,-424 905.62,-380.46 940.55,-404.32 1048.5,-388 1052.99,-387.32 1057.6,-386.62 1062.25,-385.91"/>
<polygon fill="midnightblue" stroke="midnightblue" points="841.63,-571.98 851.94,-569.53 842.35,-565.01 841.63,-571.98"/>
</g>
<!-- Node24 -->
<g id="node24" class="node">
<title>Node24</title>
<g id="a_node24"><a xlink:href="ClientNetworkManager_8hpp.html" target="_top" xlink:title=" ">
<polygon fill="none" stroke="black" points="706,-134.5 706,-175.5 871,-175.5 871,-134.5 706,-134.5"/>
<text text-anchor="start" x="714" y="-163.5" font-family="Helvetica,sans-Serif" font-size="10.00">includes/platformer</text>
<text text-anchor="start" x="714" y="-152.5" font-family="Helvetica,sans-Serif" font-size="10.00">&#45;engine/Networking/ClientNetwork</text>
<text text-anchor="middle" x="788.5" y="-141.5" font-family="Helvetica,sans-Serif" font-size="10.00">Manager.hpp</text>
</a>
</g>
</g>
<!-- Node17&#45;&gt;Node24 -->
<g id="edge29" class="edge">
<title>Node17&#45;&gt;Node24</title>
<path fill="none" stroke="midnightblue" d="M841.83,-572.91C750.13,-569.92 588.5,-549.23 588.5,-440.5 588.5,-440.5 588.5,-440.5 588.5,-304.5 588.5,-237.25 662.29,-196.91 720.23,-175.6"/>
<polygon fill="midnightblue" stroke="midnightblue" points="841.75,-576.41 851.84,-573.17 841.93,-569.41 841.75,-576.41"/>
</g>
<!-- Node26 -->
<g id="node26" class="node">
<title>Node26</title>
<g id="a_node26"><a xlink:href="ServerNetworkManager_8hpp.html" target="_top" xlink:title=" ">
<polygon fill="none" stroke="black" points="804,-212.5 804,-253.5 973,-253.5 973,-212.5 804,-212.5"/>
<text text-anchor="start" x="812" y="-241.5" font-family="Helvetica,sans-Serif" font-size="10.00">includes/platformer</text>
<text text-anchor="start" x="812" y="-230.5" font-family="Helvetica,sans-Serif" font-size="10.00">&#45;engine/Networking/ServerNetwork</text>
<text text-anchor="middle" x="888.5" y="-219.5" font-family="Helvetica,sans-Serif" font-size="10.00">Manager.hpp</text>
</a>
</g>
</g>
<!-- Node17&#45;&gt;Node26 -->
<g id="edge33" class="edge">
<title>Node17&#45;&gt;Node26</title>
<path fill="none" stroke="midnightblue" d="M841.73,-564.85C783.82,-556.61 702.53,-541.94 677.5,-522 651.69,-501.44 652.79,-487.18 645.5,-455 632.08,-395.77 677.64,-295.81 683.5,-290 715.15,-258.65 762.55,-244.42 803.81,-238.13"/>
<polygon fill="midnightblue" stroke="midnightblue" points="841.5,-568.35 851.89,-566.26 842.46,-561.42 841.5,-568.35"/>
</g>
<!-- Node27 -->
<g id="node27" class="node">
<title>Node27</title>
<g id="a_node27"><a xlink:href="PhysicsSystem_8hpp.html" target="_top" xlink:title=" ">
<polygon fill="none" stroke="black" points="1607.5,-491.5 1607.5,-521.5 1781.5,-521.5 1781.5,-491.5 1607.5,-491.5"/>
<text text-anchor="start" x="1615.5" y="-509.5" font-family="Helvetica,sans-Serif" font-size="10.00">includes/platformer</text>
<text text-anchor="middle" x="1694.5" y="-498.5" font-family="Helvetica,sans-Serif" font-size="10.00">&#45;engine/Physics/PhysicsSystem.hpp</text>
</a>
</g>
</g>
<!-- Node17&#45;&gt;Node27 -->
<g id="edge36" class="edge">
<title>Node17&#45;&gt;Node27</title>
<path fill="none" stroke="midnightblue" d="M965.29,-569.62C1086.83,-563.59 1365.43,-548.03 1598.5,-522 1601.43,-521.67 1604.41,-521.32 1607.42,-520.95"/>
<polygon fill="midnightblue" stroke="midnightblue" points="964.88,-566.13 955.07,-570.12 965.23,-573.13 964.88,-566.13"/>
</g>
<!-- Node28 -->
<g id="node28" class="node">
<title>Node28</title>
<g id="a_node28"><a xlink:href="Camera_8hpp.html" target="_top" xlink:title=" ">
<polygon fill="none" stroke="black" points="731,-491.5 731,-521.5 834,-521.5 834,-491.5 731,-491.5"/>
<text text-anchor="start" x="739" y="-509.5" font-family="Helvetica,sans-Serif" font-size="10.00">includes/spic&#45;prj&#45;api</text>
<text text-anchor="middle" x="782.5" y="-498.5" font-family="Helvetica,sans-Serif" font-size="10.00">/Camera.hpp</text>
</a>
</g>
</g>
<!-- Node17&#45;&gt;Node28 -->
<g id="edge40" class="edge">
<title>Node17&#45;&gt;Node28</title>
<path fill="none" stroke="midnightblue" d="M868.27,-553.57C849.24,-543.35 826.13,-530.94 808.7,-521.58"/>
<polygon fill="midnightblue" stroke="midnightblue" points="866.78,-556.75 877.24,-558.4 870.09,-550.58 866.78,-556.75"/>
</g>
<!-- Node30 -->
<g id="node30" class="node">
<title>Node30</title>
<g id="a_node30"><a xlink:href="Scene_8hpp.html" target="_top" xlink:title=" ">
<polygon fill="none" stroke="black" points="655,-424.5 655,-454.5 758,-454.5 758,-424.5 655,-424.5"/>
<text text-anchor="start" x="663" y="-442.5" font-family="Helvetica,sans-Serif" font-size="10.00">includes/spic&#45;prj&#45;api</text>
<text text-anchor="middle" x="706.5" y="-431.5" font-family="Helvetica,sans-Serif" font-size="10.00">/Scene.hpp</text>
</a>
</g>
</g>
<!-- Node17&#45;&gt;Node30 -->
<g id="edge53" class="edge">
<title>Node17&#45;&gt;Node30</title>
<path fill="none" stroke="midnightblue" d="M841.89,-566.47C785.28,-559.5 707.37,-545.81 688.5,-522 673.02,-502.47 686.47,-472.39 696.96,-454.76"/>
<polygon fill="midnightblue" stroke="midnightblue" points="841.5,-569.94 851.84,-567.65 842.32,-562.99 841.5,-569.94"/>
</g>
<!-- Node34 -->
<g id="node34" class="node">
<title>Node34</title>
<g id="a_node34"><a xlink:href="UIObject_8hpp.html" target="_top" xlink:title=" ">
<polygon fill="none" stroke="black" points="1486,-491.5 1486,-521.5 1589,-521.5 1589,-491.5 1486,-491.5"/>
<text text-anchor="start" x="1494" y="-509.5" font-family="Helvetica,sans-Serif" font-size="10.00">includes/spic&#45;prj&#45;api</text>
<text text-anchor="middle" x="1537.5" y="-498.5" font-family="Helvetica,sans-Serif" font-size="10.00">/UIObject.hpp</text>
</a>
</g>
</g>
<!-- Node17&#45;&gt;Node34 -->
<g id="edge54" class="edge">
<title>Node17&#45;&gt;Node34</title>
<path fill="none" stroke="midnightblue" d="M965.32,-570C1070.76,-565.09 1291.9,-551.91 1476.5,-522 1479.51,-521.51 1482.59,-520.96 1485.69,-520.36"/>
<polygon fill="midnightblue" stroke="midnightblue" points="965,-566.51 955.18,-570.47 965.32,-573.51 965,-566.51"/>
</g>
<!-- Node23 -->
<g id="node23" class="node">
<title>Node23</title>
<g id="a_node23"><a xlink:href="SceneBuilder_8cpp.html" target="_top" xlink:title=" ">
<polygon fill="none" stroke="black" points="1071.5,-296 1071.5,-315 1213.5,-315 1213.5,-296 1071.5,-296"/>
<text text-anchor="middle" x="1142.5" y="-303" font-family="Helvetica,sans-Serif" font-size="10.00">src/Builder/SceneBuilder.cpp</text>
</a>
</g>
</g>
<!-- Node22&#45;&gt;Node23 -->
<g id="edge28" class="edge">
<title>Node22&#45;&gt;Node23</title>
<path fill="none" stroke="midnightblue" d="M1142.5,-347.25C1142.5,-336.02 1142.5,-323.38 1142.5,-315.19"/>
<polygon fill="midnightblue" stroke="midnightblue" points="1139,-347.4 1142.5,-357.4 1146,-347.4 1139,-347.4"/>
</g>
<!-- Node24&#45;&gt;Node13 -->
<g id="edge32" class="edge">
<title>Node24&#45;&gt;Node13</title>
<path fill="none" stroke="midnightblue" d="M862.15,-131.52C898.62,-120.39 941.52,-107.3 973.31,-97.6"/>
<polygon fill="midnightblue" stroke="midnightblue" points="861.08,-128.19 852.54,-134.46 863.13,-134.88 861.08,-128.19"/>
</g>
<!-- Node24&#45;&gt;Node15 -->
<g id="edge31" class="edge">
<title>Node24&#45;&gt;Node15</title>
<path fill="none" stroke="midnightblue" d="M729.34,-129.12C717.01,-121.07 705.62,-110.81 698.5,-98 686.73,-76.82 695,-47.83 701.89,-30.74"/>
<polygon fill="midnightblue" stroke="midnightblue" points="727.61,-132.17 737.98,-134.35 731.24,-126.18 727.61,-132.17"/>
</g>
<!-- Node25 -->
<g id="node25" class="node">
<title>Node25</title>
<g id="a_node25"><a xlink:href="NetworkingFacade_8cpp.html" target="_top" xlink:title=" ">
<polygon fill="none" stroke="black" points="707.5,-73 707.5,-92 875.5,-92 875.5,-73 707.5,-73"/>
<text text-anchor="middle" x="791.5" y="-80" font-family="Helvetica,sans-Serif" font-size="10.00">src/Facade/NetworkingFacade.cpp</text>
</a>
</g>
</g>
<!-- Node24&#45;&gt;Node25 -->
<g id="edge30" class="edge">
<title>Node24&#45;&gt;Node25</title>
<path fill="none" stroke="midnightblue" d="M789.77,-124.1C790.26,-112.53 790.79,-100.18 791.13,-92.17"/>
<polygon fill="midnightblue" stroke="midnightblue" points="786.26,-124.22 789.34,-134.36 793.26,-124.52 786.26,-124.22"/>
</g>
<!-- Node26&#45;&gt;Node13 -->
<g id="edge35" class="edge">
<title>Node26&#45;&gt;Node13</title>
<path fill="none" stroke="midnightblue" d="M912.61,-204.67C940.55,-173 985.52,-122.02 1007.13,-97.53"/>
<polygon fill="midnightblue" stroke="midnightblue" points="909.89,-202.47 905.9,-212.28 915.14,-207.1 909.89,-202.47"/>
</g>
<!-- Node26&#45;&gt;Node16 -->
<g id="edge34" class="edge">
<title>Node26&#45;&gt;Node16</title>
<path fill="none" stroke="midnightblue" d="M890.57,-202.32C893.84,-155.24 900.11,-65.23 902.52,-30.58"/>
<polygon fill="midnightblue" stroke="midnightblue" points="887.06,-202.28 889.86,-212.5 894.04,-202.76 887.06,-202.28"/>
</g>
<!-- Node27&#45;&gt;Node2 -->
<g id="edge37" class="edge">
<title>Node27&#45;&gt;Node2</title>
<path fill="none" stroke="midnightblue" d="M1721.3,-485.01C1737.08,-472.94 1756.22,-458.3 1768.13,-449.19"/>
<polygon fill="midnightblue" stroke="midnightblue" points="1718.76,-482.54 1712.94,-491.4 1723.01,-488.1 1718.76,-482.54"/>
</g>
<!-- Node27&#45;&gt;Node13 -->
<g id="edge38" class="edge">
<title>Node27&#45;&gt;Node13</title>
<path fill="none" stroke="midnightblue" d="M1672.28,-483.97C1649.54,-459.52 1617.5,-417.31 1617.5,-373.5 1617.5,-373.5 1617.5,-373.5 1617.5,-232 1617.5,-123.29 1240.55,-93.59 1085.21,-85.97"/>
<polygon fill="midnightblue" stroke="midnightblue" points="1669.84,-486.48 1679.29,-491.26 1674.88,-481.63 1669.84,-486.48"/>
</g>
<!-- Node28&#45;&gt;Node22 -->
<g id="edge42" class="edge">
<title>Node28&#45;&gt;Node22</title>
<path fill="none" stroke="midnightblue" d="M833.39,-488.15C861.25,-478.56 896.35,-466.33 927.5,-455 990.53,-432.08 1063.42,-404.15 1106.09,-387.65"/>
<polygon fill="midnightblue" stroke="midnightblue" points="832.18,-484.87 823.86,-491.43 834.45,-491.49 832.18,-484.87"/>
</g>
<!-- Node29 -->
<g id="node29" class="node">
<title>Node29</title>
<g id="a_node29"><a xlink:href="Camera_8cpp.html" target="_top" xlink:title=" ">
<polygon fill="none" stroke="black" points="814.5,-430 814.5,-449 918.5,-449 918.5,-430 814.5,-430"/>
<text text-anchor="middle" x="866.5" y="-437" font-family="Helvetica,sans-Serif" font-size="10.00">src/API/Camera.cpp</text>
</a>
</g>
</g>
<!-- Node28&#45;&gt;Node29 -->
<g id="edge41" class="edge">
<title>Node28&#45;&gt;Node29</title>
<path fill="none" stroke="midnightblue" d="M808.98,-485.01C824.58,-472.94 843.49,-458.3 855.26,-449.19"/>
<polygon fill="midnightblue" stroke="midnightblue" points="806.49,-482.51 800.73,-491.4 810.78,-488.04 806.49,-482.51"/>
</g>
<!-- Node28&#45;&gt;Node30 -->
<g id="edge43" class="edge">
<title>Node28&#45;&gt;Node30</title>
<path fill="none" stroke="midnightblue" d="M758.39,-484.88C746.84,-475.01 733.31,-463.43 722.96,-454.58"/>
<polygon fill="midnightblue" stroke="midnightblue" points="756.13,-487.56 766.01,-491.4 760.68,-482.24 756.13,-487.56"/>
</g>
<!-- Node30&#45;&gt;Node10 -->
<g id="edge44" class="edge">
<title>Node30&#45;&gt;Node10</title>
<path fill="none" stroke="midnightblue" d="M694.61,-415.07C690.68,-406.68 686.54,-397.06 683.5,-388 654.99,-303.09 637.45,-195.43 632.77,-164.6"/>
<polygon fill="midnightblue" stroke="midnightblue" points="691.54,-416.76 699.04,-424.24 697.84,-413.71 691.54,-416.76"/>
</g>
<!-- Node30&#45;&gt;Node13 -->
<g id="edge46" class="edge">
<title>Node30&#45;&gt;Node13</title>
<path fill="none" stroke="midnightblue" d="M768.2,-422.37C815.61,-409.75 874.76,-393.47 885.5,-388 928.36,-366.16 938.17,-356.62 970.5,-321 994.28,-294.8 1001.19,-287.17 1013.5,-254 1025.68,-221.18 1022.05,-210.92 1024.5,-176 1025.81,-157.38 1025.42,-152.64 1024.5,-134 1023.89,-121.68 1022.45,-107.73 1021.27,-97.62"/>
<polygon fill="midnightblue" stroke="midnightblue" points="767.05,-419.05 758.28,-425 768.84,-425.81 767.05,-419.05"/>
</g>
<!-- Node30&#45;&gt;Node22 -->
<g id="edge45" class="edge">
<title>Node30&#45;&gt;Node22</title>
<path fill="none" stroke="midnightblue" d="M768.12,-424.79C769.59,-424.51 771.06,-424.25 772.5,-424 894.36,-402.71 926.03,-405.43 1048.5,-388 1053,-387.36 1057.61,-386.69 1062.27,-386"/>
<polygon fill="midnightblue" stroke="midnightblue" points="767.46,-421.35 758.3,-426.68 768.78,-428.22 767.46,-421.35"/>
</g>
<!-- Node30&#45;&gt;Node26 -->
<g id="edge47" class="edge">
<title>Node30&#45;&gt;Node26</title>
<path fill="none" stroke="midnightblue" d="M757.17,-421.03C820.63,-397.94 923.38,-356.07 942.5,-321 955.44,-297.28 933.97,-271.05 914.4,-253.66"/>
<polygon fill="midnightblue" stroke="midnightblue" points="755.95,-417.75 747.73,-424.44 758.32,-424.34 755.95,-417.75"/>
</g>
<!-- Node31 -->
<g id="node31" class="node">
<title>Node31</title>
<g id="a_node31"><a xlink:href="Window_8hpp.html" target="_top" xlink:title=" ">
<polygon fill="none" stroke="black" points="693,-357.5 693,-387.5 830,-387.5 830,-357.5 693,-357.5"/>
<text text-anchor="start" x="701" y="-375.5" font-family="Helvetica,sans-Serif" font-size="10.00">includes/platformer</text>
<text text-anchor="middle" x="761.5" y="-364.5" font-family="Helvetica,sans-Serif" font-size="10.00">&#45;engine/Render/Window.hpp</text>
</a>
</g>
</g>
<!-- Node30&#45;&gt;Node31 -->
<g id="edge48" class="edge">
<title>Node30&#45;&gt;Node31</title>
<path fill="none" stroke="midnightblue" d="M724.92,-416.74C733.05,-407.12 742.39,-396.09 749.59,-387.58"/>
<polygon fill="midnightblue" stroke="midnightblue" points="722.22,-414.5 718.43,-424.4 727.57,-419.02 722.22,-414.5"/>
</g>
<!-- Node31&#45;&gt;Node3 -->
<g id="edge52" class="edge">
<title>Node31&#45;&gt;Node3</title>
<path fill="none" stroke="midnightblue" d="M682.63,-362.77C598.15,-353.25 460.2,-337.19 341.5,-321 338.44,-320.58 335.33,-320.15 332.19,-319.71"/>
<polygon fill="midnightblue" stroke="midnightblue" points="682.34,-366.26 692.66,-363.9 683.12,-359.31 682.34,-366.26"/>
</g>
<!-- Node31&#45;&gt;Node13 -->
<g id="edge51" class="edge">
<title>Node31&#45;&gt;Node13</title>
<path fill="none" stroke="midnightblue" d="M840.24,-362.99C874.43,-356.09 913.25,-343.6 942.5,-321 1014.87,-265.08 1020.25,-140 1019.91,-97.75"/>
<polygon fill="midnightblue" stroke="midnightblue" points="839.45,-359.58 830.27,-364.87 840.75,-366.46 839.45,-359.58"/>
</g>
<!-- Node32 -->
<g id="node32" class="node">
<title>Node32</title>
<g id="a_node32"><a xlink:href="Window_8cpp.html" target="_top" xlink:title=" ">
<polygon fill="none" stroke="black" points="815,-296 815,-315 934,-315 934,-296 815,-296"/>
<text text-anchor="middle" x="874.5" y="-303" font-family="Helvetica,sans-Serif" font-size="10.00">src/Render/Window.cpp</text>
</a>
</g>
</g>
<!-- Node31&#45;&gt;Node32 -->
<g id="edge49" class="edge">
<title>Node31&#45;&gt;Node32</title>
<path fill="none" stroke="midnightblue" d="M794.87,-352.31C816.39,-339.93 843.33,-324.43 859.71,-315.01"/>
<polygon fill="midnightblue" stroke="midnightblue" points="792.94,-349.38 786.02,-357.4 796.43,-355.44 792.94,-349.38"/>
</g>
<!-- Node33 -->
<g id="node33" class="node">
<title>Node33</title>
<g id="a_node33"><a xlink:href="Timer_8cpp.html" target="_top" xlink:title=" ">
<polygon fill="none" stroke="black" points="692.5,-296 692.5,-315 796.5,-315 796.5,-296 692.5,-296"/>
<text text-anchor="middle" x="744.5" y="-303" font-family="Helvetica,sans-Serif" font-size="10.00">src/Timer/Timer.cpp</text>
</a>
</g>
</g>
<!-- Node31&#45;&gt;Node33 -->
<g id="edge50" class="edge">
<title>Node31&#45;&gt;Node33</title>
<path fill="none" stroke="midnightblue" d="M755.25,-347.6C752.29,-336.28 748.94,-323.46 746.77,-315.19"/>
<polygon fill="midnightblue" stroke="midnightblue" points="751.89,-348.61 757.81,-357.4 758.67,-346.84 751.89,-348.61"/>
</g>
<!-- Node35 -->
<g id="node35" class="node">
<title>Node35</title>
<g id="a_node35"><a xlink:href="UIObject_8cpp.html" target="_top" xlink:title=" ">
<polygon fill="none" stroke="black" points="1236.5,-430 1236.5,-449 1346.5,-449 1346.5,-430 1236.5,-430"/>
<text text-anchor="middle" x="1291.5" y="-437" font-family="Helvetica,sans-Serif" font-size="10.00">src/API/UIObject.cpp</text>
</a>
</g>
</g>
<!-- Node34&#45;&gt;Node35 -->
<g id="edge55" class="edge">
<title>Node34&#45;&gt;Node35</title>
<path fill="none" stroke="midnightblue" d="M1476.2,-489.3C1427.9,-476.54 1362.45,-459.25 1323.83,-449.04"/>
<polygon fill="midnightblue" stroke="midnightblue" points="1475.37,-492.7 1485.93,-491.87 1477.16,-485.94 1475.37,-492.7"/>
</g>
<!-- Node36 -->
<g id="node36" class="node">
<title>Node36</title>
<g id="a_node36"><a xlink:href="Button_8hpp.html" target="_top" xlink:title=" ">
<polygon fill="none" stroke="black" points="1365,-424.5 1365,-454.5 1468,-454.5 1468,-424.5 1365,-424.5"/>
<text text-anchor="start" x="1373" y="-442.5" font-family="Helvetica,sans-Serif" font-size="10.00">includes/spic&#45;prj&#45;api</text>
<text text-anchor="middle" x="1416.5" y="-431.5" font-family="Helvetica,sans-Serif" font-size="10.00">/Button.hpp</text>
</a>
</g>
</g>
<!-- Node34&#45;&gt;Node36 -->
<g id="edge56" class="edge">
<title>Node34&#45;&gt;Node36</title>
<path fill="none" stroke="midnightblue" d="M1502.27,-486.57C1483.24,-476.35 1460.13,-463.94 1442.7,-454.58"/>
<polygon fill="midnightblue" stroke="midnightblue" points="1500.78,-489.75 1511.24,-491.4 1504.09,-483.58 1500.78,-489.75"/>
</g>
<!-- Node37 -->
<g id="node37" class="node">
<title>Node37</title>
<g id="a_node37"><a xlink:href="Text_8hpp.html" target="_top" xlink:title=" ">
<polygon fill="none" stroke="black" points="1486,-424.5 1486,-454.5 1589,-454.5 1589,-424.5 1486,-424.5"/>
<text text-anchor="start" x="1494" y="-442.5" font-family="Helvetica,sans-Serif" font-size="10.00">includes/spic&#45;prj&#45;api</text>
<text text-anchor="middle" x="1537.5" y="-431.5" font-family="Helvetica,sans-Serif" font-size="10.00">/Text.hpp</text>
</a>
</g>
</g>
<!-- Node34&#45;&gt;Node37 -->
<g id="edge57" class="edge">
<title>Node34&#45;&gt;Node37</title>
<path fill="none" stroke="midnightblue" d="M1537.5,-481.11C1537.5,-472.15 1537.5,-462.32 1537.5,-454.58"/>
<polygon fill="midnightblue" stroke="midnightblue" points="1534,-481.4 1537.5,-491.4 1541,-481.4 1534,-481.4"/>
</g>
<!-- Node38&#45;&gt;Node3 -->
<g id="edge60" class="edge">
<title>Node38&#45;&gt;Node3</title>
<path fill="none" stroke="midnightblue" d="M369.17,-353.68C342.07,-343.26 308.33,-330.28 283.1,-320.58"/>
<polygon fill="midnightblue" stroke="midnightblue" points="368.24,-357.07 378.83,-357.4 370.75,-350.54 368.24,-357.07"/>
</g>
<!-- Node38&#45;&gt;Node8 -->
<g id="edge61" class="edge">
<title>Node38&#45;&gt;Node8</title>
<path fill="none" stroke="midnightblue" d="M433.91,-349.47C440.91,-340.78 448.81,-330.6 455.5,-321 472.79,-296.19 490.63,-265.7 500.57,-248.2"/>
<polygon fill="midnightblue" stroke="midnightblue" points="431.15,-347.32 427.54,-357.27 436.57,-351.74 431.15,-347.32"/>
</g>
<!-- Node39 -->
<g id="node39" class="node">
<title>Node39</title>
<g id="a_node39"><a xlink:href="Sprite_8cpp.html" target="_top" xlink:title=" ">
<polygon fill="none" stroke="black" points="350.5,-296 350.5,-315 446.5,-315 446.5,-296 350.5,-296"/>
<text text-anchor="middle" x="398.5" y="-303" font-family="Helvetica,sans-Serif" font-size="10.00">src/API/Sprite.cpp</text>
</a>
</g>
</g>
<!-- Node38&#45;&gt;Node39 -->
<g id="edge59" class="edge">
<title>Node38&#45;&gt;Node39</title>
<path fill="none" stroke="midnightblue" d="M409.25,-347.6C406.29,-336.28 402.94,-323.46 400.77,-315.19"/>
<polygon fill="midnightblue" stroke="midnightblue" points="405.89,-348.61 411.81,-357.4 412.67,-346.84 405.89,-348.61"/>
</g>
</g>
</svg>
