<svg xmlns="http://www.w3.org/2000/svg" xmlns:xlink="http://www.w3.org/1999/xlink" width="2356" height="500" viewBox="0 0 1766.91 375"><g id="graph0" class="graph" transform="scale(1 1) rotate(0) translate(4 371)"><title>src/Render/Window.cpp</title><g id="node1" class="node"><title>Node1</title><g id="a_node1"><a><polygon fill="#bfbfbf" stroke="#000" points="1425 -347.5 1425 -366.5 1544 -366.5 1544 -347.5 1425 -347.5"/><text x="1484.5" y="-354.5" font-family="Helvetica,sans-Serif" font-size="10" text-anchor="middle">src/Render/Window.cpp</text></a></g></g><g id="node2" class="node"><title>Node2</title><g id="a_node2"><a target="_top" xlink:href="Window_8hpp.html"><polygon fill="none" stroke="#000" points="942 -291.5 942 -310.5 1045 -310.5 1045 -291.5 942 -291.5"/><text x="993.5" y="-298.5" font-family="Helvetica,sans-Serif" font-size="10" text-anchor="middle">Render/Window.hpp</text></a></g></g><g id="edge1" class="edge"><title>Node1-&gt;Node2</title><path fill="none" stroke="#191970" d="M1424.78,-349.43C1331.08,-339.13 1150.42,-319.26 1055.39,-308.81"/><polygon fill="#191970" stroke="#191970" points="1055.68 -305.32 1045.35 -307.7 1054.91 -312.28 1055.68 -305.32"/></g><g id="node27" class="node"><title>Node27</title><g id="a_node27"><a target="_top" xlink:href="LevelParser_8hpp.html"><polygon fill="none" stroke="#000" points="1240 -179.5 1240 -198.5 1383 -198.5 1383 -179.5 1240 -179.5"/><text x="1311.5" y="-186.5" font-family="Helvetica,sans-Serif" font-size="10" text-anchor="middle">LevelParser/LevelParser.hpp</text></a></g></g><g id="edge41" class="edge"><title>Node1-&gt;Node27</title><path fill="none" stroke="#191970" d="M1475.2,-347.08C1447.26,-320.27 1363.81,-240.19 1328.06,-205.89"/><polygon fill="#191970" stroke="#191970" points="1330.07 -202.97 1320.43 -198.57 1325.22 -208.02 1330.07 -202.97"/></g><g id="node30" class="node"><title>Node30</title><g id="a_node30"><a target="_top" xlink:href="Input_8hpp.html"><polygon fill="none" stroke="#000" points="1504.5 -179.5 1504.5 -198.5 1560.5 -198.5 1560.5 -179.5 1504.5 -179.5"/><text x="1532.5" y="-186.5" font-family="Helvetica,sans-Serif" font-size="10" text-anchor="middle">Input.hpp</text></a></g></g><g id="edge49" class="edge"><title>Node1-&gt;Node30</title><path fill="none" stroke="#191970" d="M1487.25,-347.39C1490.13,-338.35 1494.74,-323.71 1498.5,-311 1509.25,-274.69 1521.05,-232.01 1527.53,-208.28"/><polygon fill="#191970" stroke="#191970" points="1530.94 -209.1 1530.19 -198.53 1524.18 -207.26 1530.94 -209.1"/></g><g id="node3" class="node"><title>Node3</title><g id="a_node3"><a><polygon fill="none" stroke="#bfbfbf" points="1108 -67.5 1108 -86.5 1149 -86.5 1149 -67.5 1108 -67.5"/><text x="1128.5" y="-74.5" font-family="Helvetica,sans-Serif" font-size="10" text-anchor="middle">string</text></a></g></g><g id="edge2" class="edge"><title>Node2-&gt;Node3</title><path fill="none" stroke="#191970" d="M993.45,-291.4C993.62,-271.03 995.79,-218.57 1012.5,-179 1024.6,-150.34 1031.46,-143.9 1054.5,-123 1068.39,-110.4 1086.3,-99.4 1101.02,-91.43"/><polygon fill="#191970" stroke="#191970" points="1102.93 -94.38 1110.16 -86.64 1099.68 -88.18 1102.93 -94.38"/></g><g id="node4" class="node"><title>Node4</title><g id="a_node4"><a target="_top" xlink:href="Color_8hpp.html"><polygon fill="none" stroke="#000" points="505 -67.5 505 -86.5 562 -86.5 562 -67.5 505 -67.5"/><text x="533.5" y="-74.5" font-family="Helvetica,sans-Serif" font-size="10" text-anchor="middle">Color.hpp</text></a></g></g><g id="edge3" class="edge"><title>Node2-&gt;Node4</title><path fill="none" stroke="#191970" d="M975.75,-291.43C905.31,-257.44 645.22,-131.92 560.42,-90.99"/><polygon fill="#191970" stroke="#191970" points="561.73 -87.74 551.2 -86.54 558.68 -94.04 561.73 -87.74"/></g><g id="node5" class="node"><title>Node5</title><g id="a_node5"><a target="_top" xlink:href="GraphicsFacade_8hpp.html"><polygon fill="none" stroke="#000" points="824 -123.5 824 -142.5 965 -142.5 965 -123.5 824 -123.5"/><text x="894.5" y="-130.5" font-family="Helvetica,sans-Serif" font-size="10" text-anchor="middle">Facade/GraphicsFacade.hpp</text></a></g></g><g id="edge4" class="edge"><title>Node2-&gt;Node5</title><path fill="none" stroke="#191970" d="M988.18,-291.08C972.39,-264.61 925.64,-186.21 904.76,-151.21"/><polygon fill="#191970" stroke="#191970" points="907.74 -149.36 899.61 -142.57 901.73 -152.95 907.74 -149.36"/></g><g id="node14" class="node"><title>Node14</title><g id="a_node14"><a target="_top" xlink:href="TextureManager_8hpp.html"><polygon fill="none" stroke="#000" points="1021.5 -179.5 1021.5 -198.5 1161.5 -198.5 1161.5 -179.5 1021.5 -179.5"/><text x="1091.5" y="-186.5" font-family="Helvetica,sans-Serif" font-size="10" text-anchor="middle">Texture/TextureManager.hpp</text></a></g></g><g id="edge15" class="edge"><title>Node2-&gt;Node14</title><path fill="none" stroke="#191970" d="M1001.19,-291.37C1017.51,-273.05 1055.82,-230.05 1076.92,-206.36"/><polygon fill="#191970" stroke="#191970" points="1079.81 -208.39 1083.85 -198.59 1074.58 -203.73 1079.81 -208.39"/></g><g id="node16" class="node"><title>Node16</title><g id="a_node16"><a target="_top" xlink:href="Scene_8hpp.html"><polygon fill="none" stroke="#000" points="456.5 -235.5 456.5 -254.5 518.5 -254.5 518.5 -235.5 456.5 -235.5"/><text x="487.5" y="-242.5" font-family="Helvetica,sans-Serif" font-size="10" text-anchor="middle">Scene.hpp</text></a></g></g><g id="edge19" class="edge"><title>Node2-&gt;Node16</title><path fill="none" stroke="#191970" d="M941.73,-294.47C840.95,-283.72 620.32,-260.17 528.68,-250.39"/><polygon fill="#191970" stroke="#191970" points="528.99 -246.91 518.67 -249.33 528.24 -253.87 528.99 -246.91"/></g><g id="node26" class="node"><title>Node26</title><g id="a_node26"><a><polygon fill="none" stroke="#bfbfbf" points="1436.5 -67.5 1436.5 -86.5 1548.5 -86.5 1548.5 -67.5 1436.5 -67.5"/><text x="1492.5" y="-74.5" font-family="Helvetica,sans-Serif" font-size="10" text-anchor="middle">Events/EventsEnum.h</text></a></g></g><g id="edge40" class="edge"><title>Node2-&gt;Node26</title><path fill="none" stroke="#191970" d="M1045.04,-297.13C1125.16,-290.54 1281.84,-269 1392.5,-199 1414.42,-185.14 1459.01,-125.01 1480.46,-95.07"/><polygon fill="#191970" stroke="#191970" points="1483.37 -97.01 1486.32 -86.83 1477.67 -92.95 1483.37 -97.01"/></g><g id="edge12" class="edge"><title>Node5-&gt;Node3</title><path fill="none" stroke="#191970" d="M933.85,-123.46C974.05,-114.65 1038.24,-100.35 1093.5,-87 1094.95,-86.65 1096.43,-86.29 1097.92,-85.92"/><polygon fill="#191970" stroke="#191970" points="1098.96 -89.27 1107.8 -83.43 1097.24 -82.48 1098.96 -89.27"/></g><g id="edge8" class="edge"><title>Node5-&gt;Node4</title><path fill="none" stroke="#191970" d="M823.69,-124.25C760.14,-116.81 664.15,-104.41 572.16,-87.17"/><polygon fill="#191970" stroke="#191970" points="572.6 -83.69 562.12 -85.26 571.29 -90.57 572.6 -83.69"/></g><g id="node6" class="node"><title>Node6</title><g id="a_node6"><a><polygon fill="none" stroke="#bfbfbf" points="657 -67.5 657 -86.5 728 -86.5 728 -67.5 657 -67.5"/><text x="692.5" y="-74.5" font-family="Helvetica,sans-Serif" font-size="10" text-anchor="middle">SDL2/SDL.h</text></a></g></g><g id="edge5" class="edge"><title>Node5-&gt;Node6</title><path fill="none" stroke="#191970" d="M862.49,-123.44C827.77,-114.16 772.21,-99.31 734.12,-89.13"/><polygon fill="#191970" stroke="#191970" points="734.92 -85.72 724.36 -86.52 733.11 -92.48 734.92 -85.72"/></g><g id="node7" class="node"><title>Node7</title><g id="a_node7"><a><polygon fill="none" stroke="#bfbfbf" points="746 -67.5 746 -86.5 849 -86.5 849 -67.5 746 -67.5"/><text x="797.5" y="-74.5" font-family="Helvetica,sans-Serif" font-size="10" text-anchor="middle">SDL2/SDL_image.h</text></a></g></g><g id="edge6" class="edge"><title>Node5-&gt;Node7</title><path fill="none" stroke="#191970" d="M878.92,-123.32C863.5,-114.74 839.69,-101.49 821.79,-91.52"/><polygon fill="#191970" stroke="#191970" points="823.49 -88.46 813.05 -86.65 820.08 -94.58 823.49 -88.46"/></g><g id="node8" class="node"><title>Node8</title><g id="a_node8"><a><polygon fill="none" stroke="#bfbfbf" points="867.5 -67.5 867.5 -86.5 921.5 -86.5 921.5 -67.5 867.5 -67.5"/><text x="894.5" y="-74.5" font-family="Helvetica,sans-Serif" font-size="10" text-anchor="middle">iostream</text></a></g></g><g id="edge7" class="edge"><title>Node5-&gt;Node8</title><path fill="none" stroke="#191970" d="M894.5,-123.08C894.5,-116.01 894.5,-105.86 894.5,-96.99"/><polygon fill="#191970" stroke="#191970" points="898 -96.75 894.5 -86.75 891 -96.75 898 -96.75"/></g><g id="node9" class="node"><title>Node9</title><g id="a_node9"><a target="_top" xlink:href="NumberUtil_8hpp.html"><polygon fill="none" stroke="#000" points="939.5 -67.5 939.5 -86.5 1051.5 -86.5 1051.5 -67.5 939.5 -67.5"/><text x="995.5" y="-74.5" font-family="Helvetica,sans-Serif" font-size="10" text-anchor="middle">Utility/NumberUtil.hpp</text></a></g></g><g id="edge9" class="edge"><title>Node5-&gt;Node9</title><path fill="none" stroke="#191970" d="M910.73,-123.32C926.85,-114.7 951.8,-101.36 970.46,-91.39"/><polygon fill="#191970" stroke="#191970" points="972.14 -94.46 979.31 -86.65 968.84 -88.28 972.14 -94.46"/></g><g id="node10" class="node"><title>Node10</title><g id="a_node10"><a><polygon fill="none" stroke="#bfbfbf" points="1054 -6 1054 -25 1105 -25 1105 -6 1054 -6"/><text x="1079.5" y="-13" font-family="Helvetica,sans-Serif" font-size="10" text-anchor="middle">memory</text></a></g></g><g id="edge10" class="edge"><title>Node5-&gt;Node10</title><path fill="none" stroke="#191970" d="M947.75,-123.47C990.04,-115.66 1044.62,-102.9 1060.5,-87 1074.05,-73.43 1078.22,-51.28 1079.37,-35.43"/><polygon fill="#191970" stroke="#191970" points="1082.87 -35.34 1079.75 -25.21 1075.88 -35.07 1082.87 -35.34"/></g><g id="node11" class="node"><title>Node11</title><g id="a_node11"><a><polygon fill="none" stroke="#bfbfbf" points="580 -67.5 580 -86.5 639 -86.5 639 -67.5 580 -67.5"/><text x="609.5" y="-74.5" font-family="Helvetica,sans-Serif" font-size="10" text-anchor="middle">functional</text></a></g></g><g id="edge11" class="edge"><title>Node5-&gt;Node11</title><path fill="none" stroke="#191970" d="M843.26,-123.47C795.44,-115.33 721.88,-102.34 649.54,-87.35"/><polygon fill="#191970" stroke="#191970" points="649.84 -83.84 639.34 -85.22 648.41 -90.69 649.84 -83.84"/></g><g id="node12" class="node"><title>Node12</title><g id="a_node12"><a><polygon fill="none" stroke="#bfbfbf" points="1220.5 -67.5 1220.5 -86.5 1264.5 -86.5 1264.5 -67.5 1220.5 -67.5"/><text x="1242.5" y="-74.5" font-family="Helvetica,sans-Serif" font-size="10" text-anchor="middle">vector</text></a></g></g><g id="edge13" class="edge"><title>Node5-&gt;Node12</title><path fill="none" stroke="#191970" d="M965.25,-124.65C1027.34,-117.57 1120.19,-105.49 1210.37,-86.75"/><polygon fill="#191970" stroke="#191970" points="1211.15 -90.16 1220.21 -84.68 1209.71 -83.31 1211.15 -90.16"/></g><g id="node13" class="node"><title>Node13</title><g id="a_node13"><a><polygon fill="none" stroke="#bfbfbf" points="1167 -67.5 1167 -86.5 1202 -86.5 1202 -67.5 1167 -67.5"/><text x="1184.5" y="-74.5" font-family="Helvetica,sans-Serif" font-size="10" text-anchor="middle">map</text></a></g></g><g id="edge14" class="edge"><title>Node5-&gt;Node13</title><path fill="none" stroke="#191970" d="M961.01,-123.48C1012.23,-116.26 1084.88,-104.61 1157.16,-86.74"/><polygon fill="#191970" stroke="#191970" points="1158.05 -90.13 1166.89 -84.3 1156.34 -83.34 1158.05 -90.13"/></g><g id="edge16" class="edge"><title>Node14-&gt;Node3</title><path fill="none" stroke="#191970" d="M1082.36,-179.44C1070.08,-166.86 1050.98,-142.74 1061.5,-123 1069.43,-108.13 1084.69,-97.3 1098.65,-90"/><polygon fill="#191970" stroke="#191970" points="1100.5 -92.99 1108 -85.5 1097.47 -86.68 1100.5 -92.99"/></g><g id="edge18" class="edge"><title>Node14-&gt;Node5</title><path fill="none" stroke="#191970" d="M1060.28,-179.44C1026.57,-170.2 972.7,-155.44 935.57,-145.26"/><polygon fill="#191970" stroke="#191970" points="936.14 -141.78 925.57 -142.52 934.29 -148.54 936.14 -141.78"/></g><g id="node15" class="node"><title>Node15</title><g id="a_node15"><a><polygon fill="none" stroke="#bfbfbf" points="1071 -123.5 1071 -142.5 1110 -142.5 1110 -123.5 1071 -123.5"/><text x="1090.5" y="-130.5" font-family="Helvetica,sans-Serif" font-size="10" text-anchor="middle">utility</text></a></g></g><g id="edge17" class="edge"><title>Node14-&gt;Node15</title><path fill="none" stroke="#191970" d="M1091.33,-179.08C1091.2,-172.01 1091.02,-161.86 1090.85,-152.99"/><polygon fill="#191970" stroke="#191970" points="1094.35 -152.68 1090.66 -142.75 1087.35 -152.81 1094.35 -152.68"/></g><g id="node17" class="node"><title>Node17</title><g id="a_node17"><a target="_top" xlink:href="GameObject_8hpp.html"><polygon fill="none" stroke="#000" points="369 -123.5 369 -142.5 458 -142.5 458 -123.5 369 -123.5"/><text x="413.5" y="-130.5" font-family="Helvetica,sans-Serif" font-size="10" text-anchor="middle">GameObject.hpp</text></a></g></g><g id="edge20" class="edge"><title>Node16-&gt;Node17</title><path fill="none" stroke="#191970" d="M477.68,-235.44C468.3,-226.9 454.19,-213.05 444.5,-199 434.42,-184.38 425.98,-165.98 420.47,-152.49"/><polygon fill="#191970" stroke="#191970" points="423.61 -150.91 416.7 -142.89 417.09 -153.47 423.61 -150.91"/></g><g id="node25" class="node"><title>Node25</title><g id="a_node25"><a target="_top" xlink:href="Camera_8hpp.html"><polygon fill="none" stroke="#000" points="453.5 -179.5 453.5 -198.5 521.5 -198.5 521.5 -179.5 453.5 -179.5"/><text x="487.5" y="-186.5" font-family="Helvetica,sans-Serif" font-size="10" text-anchor="middle">Camera.hpp</text></a></g></g><g id="edge37" class="edge"><title>Node16-&gt;Node25</title><path fill="none" stroke="#191970" d="M487.5,-235.08C487.5,-228.01 487.5,-217.86 487.5,-208.99"/><polygon fill="#191970" stroke="#191970" points="491 -208.75 487.5 -198.75 484 -208.75 491 -208.75"/></g><g id="edge29" class="edge"><title>Node17-&gt;Node3</title><path fill="none" stroke="#191970" d="M458.29,-129.85C563.54,-124.57 834.76,-109.77 1060.5,-87 1072.66,-85.77 1085.99,-84.09 1097.61,-82.5"/><polygon fill="#191970" stroke="#191970" points="1098.29 -85.94 1107.71 -81.09 1097.32 -79.01 1098.29 -85.94"/></g><g id="edge31" class="edge"><title>Node17-&gt;Node10</title><path fill="none" stroke="#191970" d="M407.17,-123.17C398.09,-109.36 384,-82.62 398.5,-67 442.68,-19.42 909.93,-16.29 1043.83,-16.38"/><polygon fill="#191970" stroke="#191970" points="1043.95 -19.88 1053.96 -16.39 1043.96 -12.88 1043.95 -19.88"/></g><g id="edge30" class="edge"><title>Node17-&gt;Node12</title><path fill="none" stroke="#191970" d="M458.24,-130.76C600.97,-126.59 1045.24,-112.05 1210.27,-86.54"/><polygon fill="#191970" stroke="#191970" points="1210.95 -89.98 1220.26 -84.92 1209.83 -83.07 1210.95 -89.98"/></g><g id="edge32" class="edge"><title>Node17-&gt;Node13</title><path fill="none" stroke="#191970" d="M458.46,-130.82C594.86,-127 1003.43,-113.76 1156.8,-86.48"/><polygon fill="#191970" stroke="#191970" points="1157.77 -89.86 1166.96 -84.58 1156.48 -82.98 1157.77 -89.86"/></g><g id="node18" class="node"><title>Node18</title><g id="a_node18"><a target="_top" xlink:href="Component_8hpp.html"><polygon fill="none" stroke="#000" points="229.5 -67.5 229.5 -86.5 313.5 -86.5 313.5 -67.5 229.5 -67.5"/><text x="271.5" y="-74.5" font-family="Helvetica,sans-Serif" font-size="10" text-anchor="middle">Component.hpp</text></a></g></g><g id="edge21" class="edge"><title>Node17-&gt;Node18</title><path fill="none" stroke="#191970" d="M391,-123.44C367.42,-114.48 330.18,-100.31 303.54,-90.18"/><polygon fill="#191970" stroke="#191970" points="304.49 -86.8 293.9 -86.52 302 -93.34 304.49 -86.8"/></g><g id="node19" class="node"><title>Node19</title><g id="a_node19"><a><polygon fill="none" stroke="#bfbfbf" points="0 -.5 0 -30.5 95 -30.5 95 -.5 0 -.5"/><text x="8" y="-18.5" font-family="Helvetica,sans-Serif" font-size="10" text-anchor="start">boost/serialization</text><text x="47.5" y="-7.5" font-family="Helvetica,sans-Serif" font-size="10" text-anchor="middle">/access.hpp</text></a></g></g><g id="edge33" class="edge"><title>Node17-&gt;Node19</title><path fill="none" stroke="#191970" d="M368.82,-126.73C322.55,-120.43 248.59,-108.03 187.5,-87 148.89,-73.71 107.45,-51.78 79.76,-35.91"/><polygon fill="#191970" stroke="#191970" points="81.32 -32.77 70.92 -30.77 77.81 -38.82 81.32 -32.77"/></g><g id="node20" class="node"><title>Node20</title><g id="a_node20"><a><polygon fill="none" stroke="#bfbfbf" points="113 -.5 113 -30.5 208 -30.5 208 -.5 113 -.5"/><text x="121" y="-18.5" font-family="Helvetica,sans-Serif" font-size="10" text-anchor="start">boost/serialization</text><text x="160.5" y="-7.5" font-family="Helvetica,sans-Serif" font-size="10" text-anchor="middle">/map.hpp</text></a></g></g><g id="edge34" class="edge"><title>Node17-&gt;Node20</title><path fill="none" stroke="#191970" d="M368.9,-130.86C325.72,-127.83 259.98,-117.96 212.5,-87 194.67,-75.37 180.79,-55.39 171.88,-39.66"/><polygon fill="#191970" stroke="#191970" points="174.79 -37.68 166.97 -30.53 168.62 -41 174.79 -37.68"/></g><g id="node21" class="node"><title>Node21</title><g id="a_node21"><a><polygon fill="none" stroke="#bfbfbf" points="226 -.5 226 -30.5 321 -30.5 321 -.5 226 -.5"/><text x="234" y="-18.5" font-family="Helvetica,sans-Serif" font-size="10" text-anchor="start">boost/serialization</text><text x="273.5" y="-7.5" font-family="Helvetica,sans-Serif" font-size="10" text-anchor="middle">/vector.hpp</text></a></g></g><g id="edge35" class="edge"><title>Node17-&gt;Node21</title><path fill="none" stroke="#191970" d="M368.95,-127.93C317.82,-122.23 238.68,-109.91 220.5,-87 207.29,-70.36 223.97,-51.05 242.02,-36.85"/><polygon fill="#191970" stroke="#191970" points="244.35 -39.47 250.3 -30.71 240.19 -33.85 244.35 -39.47"/></g><g id="node22" class="node"><title>Node22</title><g id="a_node22"><a><polygon fill="none" stroke="#bfbfbf" points="339 -.5 339 -30.5 434 -30.5 434 -.5 339 -.5"/><text x="347" y="-18.5" font-family="Helvetica,sans-Serif" font-size="10" text-anchor="start">boost/serialization</text><text x="386.5" y="-7.5" font-family="Helvetica,sans-Serif" font-size="10" text-anchor="middle">/shared_ptr.hpp</text></a></g></g><g id="edge36" class="edge"><title>Node17-&gt;Node22</title><path fill="none" stroke="#191970" d="M399.13,-123.33C387.62,-115.47 372.31,-102.72 365.5,-87 358.86,-71.67 364.49,-53.6 371.58,-39.59"/><polygon fill="#191970" stroke="#191970" points="374.77 -41.06 376.59 -30.63 368.66 -37.65 374.77 -41.06"/></g><g id="node23" class="node"><title>Node23</title><g id="a_node23"><a target="_top" xlink:href="Transform_8hpp.html"><polygon fill="none" stroke="#000" points="408 -67.5 408 -86.5 487 -86.5 487 -67.5 408 -67.5"/><text x="447.5" y="-74.5" font-family="Helvetica,sans-Serif" font-size="10" text-anchor="middle">Transform.hpp</text></a></g></g><g id="edge27" class="edge"><title>Node17-&gt;Node23</title><path fill="none" stroke="#191970" d="M419.11,-123.08C423.87,-115.53 430.82,-104.49 436.65,-95.23"/><polygon fill="#191970" stroke="#191970" points="439.62 -97.08 441.99 -86.75 433.7 -93.35 439.62 -97.08"/></g><g id="edge22" class="edge"><title>Node18-&gt;Node10</title><path fill="none" stroke="#191970" d="M313.59,-71.74C329.81,-70.16 348.51,-68.41 365.5,-67 625.61,-45.35 939.53,-25.23 1043.87,-18.71"/><polygon fill="#191970" stroke="#191970" points="1044.11 -22.2 1053.87 -18.08 1043.67 -15.21 1044.11 -22.2"/></g><g id="edge23" class="edge"><title>Node18-&gt;Node19</title><path fill="none" stroke="#191970" d="M239.41,-67.48C204.39,-58.17 147.63,-43.1 104.91,-31.75"/><polygon fill="#191970" stroke="#191970" points="105.76 -28.35 95.19 -29.17 103.96 -35.12 105.76 -28.35"/></g><g id="edge24" class="edge"><title>Node18-&gt;Node20</title><path fill="none" stroke="#191970" d="M255.6,-67.48C240,-59.12 215.7,-46.09 195.57,-35.3"/><polygon fill="#191970" stroke="#191970" points="197.13 -32.16 186.66 -30.52 193.82 -38.33 197.13 -32.16"/></g><g id="edge25" class="edge"><title>Node18-&gt;Node21</title><path fill="none" stroke="#191970" d="M271.79,-67.48C272.02,-60.47 272.37,-50.19 272.69,-40.7"/><polygon fill="#191970" stroke="#191970" points="276.19 -40.63 273.03 -30.52 269.19 -40.4 276.19 -40.63"/></g><g id="edge26" class="edge"><title>Node18-&gt;Node22</title><path fill="none" stroke="#191970" d="M287.98,-67.48C304.21,-59.08 329.54,-45.97 350.45,-35.15"/><polygon fill="#191970" stroke="#191970" points="352.12 -38.23 359.4 -30.52 348.91 -32.01 352.12 -38.23"/></g><g id="node24" class="node"><title>Node24</title><g id="a_node24"><a target="_top" xlink:href="Point_8hpp.html"><polygon fill="none" stroke="#000" points="1430 -6 1430 -25 1487 -25 1487 -6 1430 -6"/><text x="1458.5" y="-13" font-family="Helvetica,sans-Serif" font-size="10" text-anchor="middle">Point.hpp</text></a></g></g><g id="edge28" class="edge"><title>Node23-&gt;Node24</title><path fill="none" stroke="#191970" d="M487.25,-68.13C490.04,-67.7 492.81,-67.32 495.5,-67 588.26,-55.92 1251.39,-25.77 1419.72,-18.23"/><polygon fill="#191970" stroke="#191970" points="1420.03 -21.72 1429.86 -17.77 1419.71 -14.72 1420.03 -21.72"/></g><g id="edge39" class="edge"><title>Node25-&gt;Node4</title><path fill="none" stroke="#191970" d="M491.11,-179.37C498.6,-161.46 515.97,-119.92 525.99,-95.95"/><polygon fill="#191970" stroke="#191970" points="529.28 -97.17 529.91 -86.59 522.82 -94.47 529.28 -97.17"/></g><g id="edge38" class="edge"><title>Node25-&gt;Node17</title><path fill="none" stroke="#191970" d="M475.61,-179.32C464.35,-171.11 447.21,-158.6 433.79,-148.81"/><polygon fill="#191970" stroke="#191970" points="435.75 -145.9 425.61 -142.83 431.62 -151.56 435.75 -145.9"/></g><g id="edge42" class="edge"><title>Node27-&gt;Node3</title><path fill="none" stroke="#191970" d="M1288.48,-179.48C1267.68,-171.37 1236.59,-158.16 1211.5,-143 1187.22,-128.33 1161.92,-107.6 1145.73,-93.52"/><polygon fill="#191970" stroke="#191970" points="1147.96 -90.82 1138.15 -86.83 1143.33 -96.07 1147.96 -90.82"/></g><g id="edge44" class="edge"><title>Node27-&gt;Node10</title><path fill="none" stroke="#191970" d="M1340.62,-179.44C1358.14,-172.62 1379.02,-161.14 1389.5,-143 1406.39,-113.75 1411.38,-92.73 1389.5,-67 1354.66,-26.02 1189.39,-18.21 1115.43,-16.78"/><polygon fill="#191970" stroke="#191970" points="1115.26 -13.28 1105.21 -16.62 1115.15 -20.28 1115.26 -13.28"/></g><g id="edge43" class="edge"><title>Node27-&gt;Node13</title><path fill="none" stroke="#191970" d="M1291.82,-179.39C1275.14,-171.48 1251.18,-158.64 1233.5,-143 1217.85,-129.16 1203.93,-109.62 1194.96,-95.58"/><polygon fill="#191970" stroke="#191970" points="1197.82 -93.55 1189.59 -86.88 1191.86 -97.23 1197.82 -93.55"/></g><g id="node28" class="node"><title>Node28</title><g id="a_node28"><a target="_top" xlink:href="GameLevel_8hpp.html"><polygon fill="none" stroke="#000" points="1242.5 -123.5 1242.5 -142.5 1380.5 -142.5 1380.5 -123.5 1242.5 -123.5"/><text x="1311.5" y="-130.5" font-family="Helvetica,sans-Serif" font-size="10" text-anchor="middle">GameLevel/GameLevel.hpp</text></a></g></g><g id="edge45" class="edge"><title>Node27-&gt;Node28</title><path fill="none" stroke="#191970" d="M1311.5,-179.08C1311.5,-172.01 1311.5,-161.86 1311.5,-152.99"/><polygon fill="#191970" stroke="#191970" points="1315 -152.75 1311.5 -142.75 1308 -152.75 1315 -152.75"/></g><g id="edge48" class="edge"><title>Node28-&gt;Node10</title><path fill="none" stroke="#191970" d="M1308.88,-123.37C1304.16,-109.34 1292.88,-81.68 1273.5,-67 1226.57,-31.45 1156.95,-20.83 1115.12,-17.72"/><polygon fill="#191970" stroke="#191970" points="1115.32 -14.23 1105.12 -17.08 1114.87 -21.21 1115.32 -14.23"/></g><g id="edge47" class="edge"><title>Node28-&gt;Node12</title><path fill="none" stroke="#191970" d="M1300.41,-123.32C1290.01,-115.18 1274.24,-102.84 1261.78,-93.09"/><polygon fill="#191970" stroke="#191970" points="1263.82 -90.24 1253.79 -86.83 1259.51 -95.75 1263.82 -90.24"/></g><g id="node29" class="node"><title>Node29</title><g id="a_node29"><a target="_top" xlink:href="Layer_8hpp.html"><polygon fill="none" stroke="#000" points="1321 -67.5 1321 -86.5 1380 -86.5 1380 -67.5 1321 -67.5"/><text x="1350.5" y="-74.5" font-family="Helvetica,sans-Serif" font-size="10" text-anchor="middle">Layer.hpp</text></a></g></g><g id="edge46" class="edge"><title>Node28-&gt;Node29</title><path fill="none" stroke="#191970" d="M1317.94,-123.08C1323.45,-115.46 1331.53,-104.26 1338.26,-94.94"/><polygon fill="#191970" stroke="#191970" points="1341.16 -96.91 1344.18 -86.75 1335.49 -92.81 1341.16 -96.91"/></g><g id="edge51" class="edge"><title>Node30-&gt;Node3</title><path fill="none" stroke="#191970" d="M1504.37,-187.51C1450.25,-185.76 1328.61,-177.92 1233.5,-143 1231.25,-142.18 1181.07,-110.89 1150.91,-92.03"/><polygon fill="#191970" stroke="#191970" points="1152.6 -88.96 1142.27 -86.62 1148.89 -94.89 1152.6 -88.96"/></g><g id="edge50" class="edge"><title>Node30-&gt;Node24</title><path fill="none" stroke="#191970" d="M1560.65,-183.64C1630.88,-171.65 1804.2,-134.46 1747.5,-67 1716.02,-29.54 1569,-19.86 1497.61,-17.37"/><polygon fill="#191970" stroke="#191970" points="1497.34 -13.86 1487.23 -17.04 1497.12 -20.85 1497.34 -13.86"/></g><g id="node31" class="node"><title>Node31</title><g id="a_node31"><a target="_top" xlink:href="InputFacade_8hpp.html"><polygon fill="none" stroke="#000" points="1474.5 -123.5 1474.5 -142.5 1598.5 -142.5 1598.5 -123.5 1474.5 -123.5"/><text x="1536.5" y="-130.5" font-family="Helvetica,sans-Serif" font-size="10" text-anchor="middle">Facade/InputFacade.hpp</text></a></g></g><g id="edge52" class="edge"><title>Node30-&gt;Node31</title><path fill="none" stroke="#191970" d="M1533.16,-179.08C1533.68,-172.01 1534.44,-161.86 1535.09,-152.99"/><polygon fill="#191970" stroke="#191970" points="1538.6 -152.98 1535.85 -142.75 1531.62 -152.47 1538.6 -152.98"/></g><g id="edge53" class="edge"><title>Node31-&gt;Node12</title><path fill="none" stroke="#191970" d="M1489.91,-123.44C1429.78,-112.4 1326.69,-93.46 1274.62,-83.9"/><polygon fill="#191970" stroke="#191970" points="1275.08 -80.43 1264.61 -82.06 1273.81 -87.31 1275.08 -80.43"/></g><g id="edge54" class="edge"><title>Node31-&gt;Node13</title><path fill="none" stroke="#191970" d="M1474.48,-126.84C1410.81,-120.77 1308.82,-108.93 1212.04,-86.71"/><polygon fill="#191970" stroke="#191970" points="1212.62 -83.25 1202.09 -84.38 1211.03 -90.06 1212.62 -83.25"/></g><g id="edge56" class="edge"><title>Node31-&gt;Node26</title><path fill="none" stroke="#191970" d="M1529.23,-123.08C1522.96,-115.38 1513.71,-104.03 1506.07,-94.65"/><polygon fill="#191970" stroke="#191970" points="1508.66 -92.29 1499.63 -86.75 1503.23 -96.71 1508.66 -92.29"/></g><g id="node32" class="node"><title>Node32</title><g id="a_node32"><a><polygon fill="none" stroke="#bfbfbf" points="1566.5 -67.5 1566.5 -86.5 1610.5 -86.5 1610.5 -67.5 1566.5 -67.5"/><text x="1588.5" y="-74.5" font-family="Helvetica,sans-Serif" font-size="10" text-anchor="middle">SDL.h</text></a></g></g><g id="edge55" class="edge"><title>Node31-&gt;Node32</title><path fill="none" stroke="#191970" d="M1545.09,-123.08C1552.66,-115.22 1563.88,-103.57 1573.01,-94.08"/><polygon fill="#191970" stroke="#191970" points="1575.66 -96.38 1580.07 -86.75 1570.62 -91.53 1575.66 -96.38"/></g><g id="node33" class="node"><title>Node33</title><g id="a_node33"><a target="_top" xlink:href="InputEnum_8hpp.html"><polygon fill="none" stroke="#000" points="1629 -67.5 1629 -86.5 1738 -86.5 1738 -67.5 1629 -67.5"/><text x="1683.5" y="-74.5" font-family="Helvetica,sans-Serif" font-size="10" text-anchor="middle">Utility/InputEnum.hpp</text></a></g></g><g id="edge57" class="edge"><title>Node31-&gt;Node33</title><path fill="none" stroke="#191970" d="M1559.79,-123.44C1584.31,-114.44 1623.1,-100.19 1650.7,-90.05"/><polygon fill="#191970" stroke="#191970" points="1652.14 -93.25 1660.32 -86.52 1649.72 -86.68 1652.14 -93.25"/></g></g></svg>