<?xml version="1.0" encoding="UTF-8" standalone="no"?>
<!DOCTYPE svg PUBLIC "-//W3C//DTD SVG 1.1//EN"
 "http://www.w3.org/Graphics/SVG/1.1/DTD/svg11.dtd">
<!-- Generated by graphviz version 2.44.0 ()
 -->
<!-- Title: includes/platformer&#45;engine/Render/Window.hpp Pages: 1 -->
<svg width="2190pt" height="396pt"
 viewBox="0.00 0.00 2189.50 396.00" xmlns="http://www.w3.org/2000/svg" xmlns:xlink="http://www.w3.org/1999/xlink">
<g id="graph0" class="graph" transform="scale(1 1) rotate(0) translate(4 392)">
<title>includes/platformer&#45;engine/Render/Window.hpp</title>
<!-- Node1 -->
<g id="node1" class="node">
<title>Node1</title>
<g id="a_node1"><a xlink:title=" ">
<polygon fill="#bfbfbf" stroke="black" points="559,-357.5 559,-387.5 696,-387.5 696,-357.5 559,-357.5"/>
<text text-anchor="start" x="567" y="-375.5" font-family="Helvetica,sans-Serif" font-size="10.00">includes/platformer</text>
<text text-anchor="middle" x="627.5" y="-364.5" font-family="Helvetica,sans-Serif" font-size="10.00">&#45;engine/Render/Window.hpp</text>
</a>
</g>
</g>
<!-- Node2 -->
<g id="node2" class="node">
<title>Node2</title>
<g id="a_node2"><a xlink:href="Window_8cpp.html" target="_top" xlink:title=" ">
<polygon fill="none" stroke="black" points="360,-296 360,-315 479,-315 479,-296 360,-296"/>
<text text-anchor="middle" x="419.5" y="-303" font-family="Helvetica,sans-Serif" font-size="10.00">src/Render/Window.cpp</text>
</a>
</g>
</g>
<!-- Node1&#45;&gt;Node2 -->
<g id="edge1" class="edge">
<title>Node1&#45;&gt;Node2</title>
<path fill="none" stroke="midnightblue" d="M572.88,-354.43C532.31,-341.75 478.7,-325 446.79,-315.03"/>
<polygon fill="midnightblue" stroke="midnightblue" points="572.03,-357.83 582.62,-357.48 574.12,-351.15 572.03,-357.83"/>
</g>
<!-- Node3 -->
<g id="node3" class="node">
<title>Node3</title>
<g id="a_node3"><a xlink:href="Timer_8cpp.html" target="_top" xlink:title=" ">
<polygon fill="none" stroke="black" points="497.5,-296 497.5,-315 601.5,-315 601.5,-296 497.5,-296"/>
<text text-anchor="middle" x="549.5" y="-303" font-family="Helvetica,sans-Serif" font-size="10.00">src/Timer/Timer.cpp</text>
</a>
</g>
</g>
<!-- Node1&#45;&gt;Node3 -->
<g id="edge2" class="edge">
<title>Node1&#45;&gt;Node3</title>
<path fill="none" stroke="midnightblue" d="M602.51,-350.67C588.1,-338.67 570.76,-324.22 559.93,-315.19"/>
<polygon fill="midnightblue" stroke="midnightblue" points="600.65,-353.68 610.58,-357.4 605.13,-348.31 600.65,-353.68"/>
</g>
<!-- Node4 -->
<g id="node4" class="node">
<title>Node4</title>
<g id="a_node4"><a xlink:href="Engine_8hpp.html" target="_top" xlink:title=" ">
<polygon fill="none" stroke="black" points="996,-73 996,-103 1127,-103 1127,-73 996,-73"/>
<text text-anchor="start" x="1004" y="-91" font-family="Helvetica,sans-Serif" font-size="10.00">includes/platformer</text>
<text text-anchor="middle" x="1061.5" y="-80" font-family="Helvetica,sans-Serif" font-size="10.00">&#45;engine/Engine/Engine.hpp</text>
</a>
</g>
</g>
<!-- Node1&#45;&gt;Node4 -->
<g id="edge3" class="edge">
<title>Node1&#45;&gt;Node4</title>
<path fill="none" stroke="midnightblue" d="M706.16,-365.79C739.19,-359.43 775.45,-346.59 799.5,-321 854.43,-262.54 783.45,-202.39 839.5,-145 861.13,-122.85 938.61,-106.93 995.98,-97.85"/>
<polygon fill="midnightblue" stroke="midnightblue" points="705.27,-362.39 696.02,-367.56 706.48,-369.29 705.27,-362.39"/>
</g>
<!-- Node19 -->
<g id="node19" class="node">
<title>Node19</title>
<g id="a_node19"><a xlink:href="AnimatedSprite_8hpp.html" target="_top" xlink:title=" ">
<polygon fill="none" stroke="black" points="620,-290.5 620,-320.5 791,-320.5 791,-290.5 620,-290.5"/>
<text text-anchor="start" x="628" y="-308.5" font-family="Helvetica,sans-Serif" font-size="10.00">includes/platformer</text>
<text text-anchor="middle" x="705.5" y="-297.5" font-family="Helvetica,sans-Serif" font-size="10.00">&#45;engine/Texture/AnimatedSprite.hpp</text>
</a>
</g>
</g>
<!-- Node1&#45;&gt;Node19 -->
<g id="edge18" class="edge">
<title>Node1&#45;&gt;Node19</title>
<path fill="none" stroke="midnightblue" d="M652.24,-350.88C664.09,-341.01 677.98,-329.43 688.61,-320.58"/>
<polygon fill="midnightblue" stroke="midnightblue" points="649.87,-348.31 644.42,-357.4 654.35,-353.68 649.87,-348.31"/>
</g>
<!-- Node5 -->
<g id="node5" class="node">
<title>Node5</title>
<g id="a_node5"><a xlink:href="Animator_8cpp.html" target="_top" xlink:title=" ">
<polygon fill="none" stroke="black" points="2071.5,-6 2071.5,-25 2181.5,-25 2181.5,-6 2071.5,-6"/>
<text text-anchor="middle" x="2126.5" y="-13" font-family="Helvetica,sans-Serif" font-size="10.00">src/API/Animator.cpp</text>
</a>
</g>
</g>
<!-- Node4&#45;&gt;Node5 -->
<g id="edge4" class="edge">
<title>Node4&#45;&gt;Node5</title>
<path fill="none" stroke="midnightblue" d="M1137.36,-87.06C1305.05,-86.26 1719.55,-79.1 2062.5,-31 2072.77,-29.56 2083.82,-27.31 2093.81,-25.01"/>
<polygon fill="midnightblue" stroke="midnightblue" points="1137.14,-83.56 1127.16,-87.1 1137.17,-90.56 1137.14,-83.56"/>
</g>
<!-- Node6 -->
<g id="node6" class="node">
<title>Node6</title>
<g id="a_node6"><a xlink:href="CollisionBehaviour_8cpp.html" target="_top" xlink:title=" ">
<polygon fill="none" stroke="black" points="1295.5,-6 1295.5,-25 1473.5,-25 1473.5,-6 1295.5,-6"/>
<text text-anchor="middle" x="1384.5" y="-13" font-family="Helvetica,sans-Serif" font-size="10.00">src/Behaviour/CollisionBehaviour.cpp</text>
</a>
</g>
</g>
<!-- Node4&#45;&gt;Node6 -->
<g id="edge5" class="edge">
<title>Node4&#45;&gt;Node6</title>
<path fill="none" stroke="midnightblue" d="M1135.53,-70.84C1200.81,-56.59 1293.4,-36.38 1345.3,-25.05"/>
<polygon fill="midnightblue" stroke="midnightblue" points="1134.72,-67.44 1125.7,-72.99 1136.22,-74.27 1134.72,-67.44"/>
</g>
<!-- Node7 -->
<g id="node7" class="node">
<title>Node7</title>
<g id="a_node7"><a xlink:href="FPSCounterBehaviour_8cpp.html" target="_top" xlink:title=" ">
<polygon fill="none" stroke="black" points="1492,-0.5 1492,-30.5 1625,-30.5 1625,-0.5 1492,-0.5"/>
<text text-anchor="start" x="1500" y="-18.5" font-family="Helvetica,sans-Serif" font-size="10.00">src/Behaviour/FPSCounter</text>
<text text-anchor="middle" x="1558.5" y="-7.5" font-family="Helvetica,sans-Serif" font-size="10.00">Behaviour.cpp</text>
</a>
</g>
</g>
<!-- Node4&#45;&gt;Node7 -->
<g id="edge6" class="edge">
<title>Node4&#45;&gt;Node7</title>
<path fill="none" stroke="midnightblue" d="M1137.31,-78.22C1221.75,-68.14 1362.2,-50.46 1482.5,-31 1485.55,-30.51 1488.67,-29.98 1491.81,-29.44"/>
<polygon fill="midnightblue" stroke="midnightblue" points="1136.81,-74.75 1127.3,-79.41 1137.64,-81.7 1136.81,-74.75"/>
</g>
<!-- Node8 -->
<g id="node8" class="node">
<title>Node8</title>
<g id="a_node8"><a xlink:href="Debug_8cpp.html" target="_top" xlink:title=" ">
<polygon fill="none" stroke="black" points="1643.5,-6 1643.5,-25 1753.5,-25 1753.5,-6 1643.5,-6"/>
<text text-anchor="middle" x="1698.5" y="-13" font-family="Helvetica,sans-Serif" font-size="10.00">src/Debug/Debug.cpp</text>
</a>
</g>
</g>
<!-- Node4&#45;&gt;Node8 -->
<g id="edge7" class="edge">
<title>Node4&#45;&gt;Node8</title>
<path fill="none" stroke="midnightblue" d="M1137.16,-82.64C1247.17,-75.61 1457.48,-59.59 1634.5,-31 1644.28,-29.42 1654.81,-27.24 1664.44,-25.05"/>
<polygon fill="midnightblue" stroke="midnightblue" points="1136.91,-79.15 1127.15,-83.27 1137.35,-86.13 1136.91,-79.15"/>
</g>
<!-- Node9 -->
<g id="node9" class="node">
<title>Node9</title>
<g id="a_node9"><a xlink:href="GameObjectFactory_8cpp.html" target="_top" xlink:title=" ">
<polygon fill="none" stroke="black" points="0,-6 0,-25 175,-25 175,-6 0,-6"/>
<text text-anchor="middle" x="87.5" y="-13" font-family="Helvetica,sans-Serif" font-size="10.00">src/Director/GameObjectFactory.cpp</text>
</a>
</g>
</g>
<!-- Node4&#45;&gt;Node9 -->
<g id="edge8" class="edge">
<title>Node4&#45;&gt;Node9</title>
<path fill="none" stroke="midnightblue" d="M985.71,-84.32C833.51,-78.47 479.99,-62.46 184.5,-31 169.68,-29.42 153.67,-27.23 139,-25.03"/>
<polygon fill="midnightblue" stroke="midnightblue" points="985.75,-87.83 995.88,-84.71 986.02,-80.83 985.75,-87.83"/>
</g>
<!-- Node10 -->
<g id="node10" class="node">
<title>Node10</title>
<g id="a_node10"><a xlink:href="Engine_8cpp.html" target="_top" xlink:title=" ">
<polygon fill="none" stroke="black" points="1772,-6 1772,-25 1885,-25 1885,-6 1772,-6"/>
<text text-anchor="middle" x="1828.5" y="-13" font-family="Helvetica,sans-Serif" font-size="10.00">src/Engine/Engine.cpp</text>
</a>
</g>
</g>
<!-- Node4&#45;&gt;Node10 -->
<g id="edge9" class="edge">
<title>Node4&#45;&gt;Node10</title>
<path fill="none" stroke="midnightblue" d="M1137.24,-84.34C1266.21,-79.06 1536.47,-64.7 1762.5,-31 1772.71,-29.48 1783.7,-27.29 1793.73,-25.07"/>
<polygon fill="midnightblue" stroke="midnightblue" points="1136.92,-80.85 1127.07,-84.75 1137.21,-87.84 1136.92,-80.85"/>
</g>
<!-- Node11 -->
<g id="node11" class="node">
<title>Node11</title>
<g id="a_node11"><a xlink:href="TMXParser_8cpp.html" target="_top" xlink:title=" ">
<polygon fill="none" stroke="black" points="499.5,-6 499.5,-25 635.5,-25 635.5,-6 499.5,-6"/>
<text text-anchor="middle" x="567.5" y="-13" font-family="Helvetica,sans-Serif" font-size="10.00">src/Facade/TMXParser.cpp</text>
</a>
</g>
</g>
<!-- Node4&#45;&gt;Node11 -->
<g id="edge10" class="edge">
<title>Node4&#45;&gt;Node11</title>
<path fill="none" stroke="midnightblue" d="M985.8,-78.05C902.11,-67.87 763.4,-50.16 644.5,-31 633.49,-29.22 621.63,-27.1 610.6,-25.03"/>
<polygon fill="midnightblue" stroke="midnightblue" points="985.63,-81.55 995.98,-79.28 986.47,-74.61 985.63,-81.55"/>
</g>
<!-- Node12 -->
<g id="node12" class="node">
<title>Node12</title>
<g id="a_node12"><a xlink:href="ClientNetworkManager_8cpp.html" target="_top" xlink:title=" ">
<polygon fill="none" stroke="black" points="654,-0.5 654,-30.5 801,-30.5 801,-0.5 654,-0.5"/>
<text text-anchor="start" x="662" y="-18.5" font-family="Helvetica,sans-Serif" font-size="10.00">src/Networking/ClientNetwork</text>
<text text-anchor="middle" x="727.5" y="-7.5" font-family="Helvetica,sans-Serif" font-size="10.00">Manager.cpp</text>
</a>
</g>
</g>
<!-- Node4&#45;&gt;Node12 -->
<g id="edge11" class="edge">
<title>Node4&#45;&gt;Node12</title>
<path fill="none" stroke="midnightblue" d="M986.11,-71.09C928.38,-58.9 849.5,-42.25 794.08,-30.55"/>
<polygon fill="midnightblue" stroke="midnightblue" points="985.4,-74.51 995.91,-73.16 986.85,-67.67 985.4,-74.51"/>
</g>
<!-- Node13 -->
<g id="node13" class="node">
<title>Node13</title>
<g id="a_node13"><a xlink:href="ServerNetworkManager_8cpp.html" target="_top" xlink:title=" ">
<polygon fill="none" stroke="black" points="330,-0.5 330,-30.5 481,-30.5 481,-0.5 330,-0.5"/>
<text text-anchor="start" x="338" y="-18.5" font-family="Helvetica,sans-Serif" font-size="10.00">src/Networking/ServerNetwork</text>
<text text-anchor="middle" x="405.5" y="-7.5" font-family="Helvetica,sans-Serif" font-size="10.00">Manager.cpp</text>
</a>
</g>
</g>
<!-- Node4&#45;&gt;Node13 -->
<g id="edge12" class="edge">
<title>Node4&#45;&gt;Node13</title>
<path fill="none" stroke="midnightblue" d="M985.52,-81.28C875.92,-72.64 667.19,-54.7 490.5,-31 487.38,-30.58 484.21,-30.13 481,-29.67"/>
<polygon fill="midnightblue" stroke="midnightblue" points="985.57,-84.79 995.81,-82.09 986.12,-77.82 985.57,-84.79"/>
</g>
<!-- Node14 -->
<g id="node14" class="node">
<title>Node14</title>
<g id="a_node14"><a xlink:href="MoveSystem_8cpp.html" target="_top" xlink:title=" ">
<polygon fill="none" stroke="black" points="819.5,-6 819.5,-25 965.5,-25 965.5,-6 819.5,-6"/>
<text text-anchor="middle" x="892.5" y="-13" font-family="Helvetica,sans-Serif" font-size="10.00">src/Physics/MoveSystem.cpp</text>
</a>
</g>
</g>
<!-- Node4&#45;&gt;Node14 -->
<g id="edge13" class="edge">
<title>Node4&#45;&gt;Node14</title>
<path fill="none" stroke="midnightblue" d="M1018.07,-68.88C984.27,-54.78 938.88,-35.85 912.96,-25.03"/>
<polygon fill="midnightblue" stroke="midnightblue" points="1017.13,-72.28 1027.71,-72.9 1019.82,-65.82 1017.13,-72.28"/>
</g>
<!-- Node15 -->
<g id="node15" class="node">
<title>Node15</title>
<g id="a_node15"><a xlink:href="RenderSystem_8cpp.html" target="_top" xlink:title=" ">
<polygon fill="none" stroke="black" points="1903.5,-6 1903.5,-25 2053.5,-25 2053.5,-6 1903.5,-6"/>
<text text-anchor="middle" x="1978.5" y="-13" font-family="Helvetica,sans-Serif" font-size="10.00">src/Texture/RenderSystem.cpp</text>
</a>
</g>
</g>
<!-- Node4&#45;&gt;Node15 -->
<g id="edge14" class="edge">
<title>Node4&#45;&gt;Node15</title>
<path fill="none" stroke="midnightblue" d="M1137.29,-84.54C1283.94,-79.2 1616.57,-64.24 1894.5,-31 1907.43,-29.45 1921.4,-27.26 1934.16,-25.04"/>
<polygon fill="midnightblue" stroke="midnightblue" points="1136.92,-81.05 1127.05,-84.91 1137.17,-88.05 1136.92,-81.05"/>
</g>
<!-- Node16 -->
<g id="node16" class="node">
<title>Node16</title>
<g id="a_node16"><a xlink:href="TextureManager_8cpp.html" target="_top" xlink:title=" ">
<polygon fill="none" stroke="black" points="983.5,-6 983.5,-25 1139.5,-25 1139.5,-6 983.5,-6"/>
<text text-anchor="middle" x="1061.5" y="-13" font-family="Helvetica,sans-Serif" font-size="10.00">src/Texture/TextureManager.cpp</text>
</a>
</g>
</g>
<!-- Node4&#45;&gt;Node16 -->
<g id="edge15" class="edge">
<title>Node4&#45;&gt;Node16</title>
<path fill="none" stroke="midnightblue" d="M1061.5,-62.59C1061.5,-49.71 1061.5,-34.7 1061.5,-25.39"/>
<polygon fill="midnightblue" stroke="midnightblue" points="1058,-62.73 1061.5,-72.73 1065,-62.73 1058,-62.73"/>
</g>
<!-- Node17 -->
<g id="node17" class="node">
<title>Node17</title>
<g id="a_node17"><a xlink:href="ClickSystem_8cpp.html" target="_top" xlink:title=" ">
<polygon fill="none" stroke="black" points="1158,-6 1158,-25 1277,-25 1277,-6 1158,-6"/>
<text text-anchor="middle" x="1217.5" y="-13" font-family="Helvetica,sans-Serif" font-size="10.00">src/UI/ClickSystem.cpp</text>
</a>
</g>
</g>
<!-- Node4&#45;&gt;Node17 -->
<g id="edge16" class="edge">
<title>Node4&#45;&gt;Node17</title>
<path fill="none" stroke="midnightblue" d="M1102,-68.7C1133.15,-54.62 1174.79,-35.8 1198.62,-25.03"/>
<polygon fill="midnightblue" stroke="midnightblue" points="1100.37,-65.6 1092.69,-72.9 1103.25,-71.97 1100.37,-65.6"/>
</g>
<!-- Node18 -->
<g id="node18" class="node">
<title>Node18</title>
<g id="a_node18"><a xlink:href="FPSCounter_8cpp.html" target="_top" xlink:title=" ">
<polygon fill="none" stroke="black" points="193.5,-6 193.5,-25 311.5,-25 311.5,-6 193.5,-6"/>
<text text-anchor="middle" x="252.5" y="-13" font-family="Helvetica,sans-Serif" font-size="10.00">src/UI/FPSCounter.cpp</text>
</a>
</g>
</g>
<!-- Node4&#45;&gt;Node18 -->
<g id="edge17" class="edge">
<title>Node4&#45;&gt;Node18</title>
<path fill="none" stroke="midnightblue" d="M985.55,-84.63C850.95,-79.69 561.95,-65.71 320.5,-31 309.87,-29.47 298.41,-27.25 287.98,-25.01"/>
<polygon fill="midnightblue" stroke="midnightblue" points="985.64,-88.14 995.76,-85 985.89,-81.14 985.64,-88.14"/>
</g>
<!-- Node20 -->
<g id="node20" class="node">
<title>Node20</title>
<g id="a_node20"><a xlink:href="AnimatedSprite_8cpp.html" target="_top" xlink:title=" ">
<polygon fill="none" stroke="black" points="629,-229 629,-248 782,-248 782,-229 629,-229"/>
<text text-anchor="middle" x="705.5" y="-236" font-family="Helvetica,sans-Serif" font-size="10.00">src/Texture/AnimatedSprite.cpp</text>
</a>
</g>
</g>
<!-- Node19&#45;&gt;Node20 -->
<g id="edge19" class="edge">
<title>Node19&#45;&gt;Node20</title>
<path fill="none" stroke="midnightblue" d="M705.5,-280.25C705.5,-269.02 705.5,-256.38 705.5,-248.19"/>
<polygon fill="midnightblue" stroke="midnightblue" points="702,-280.4 705.5,-290.4 709,-280.4 702,-280.4"/>
</g>
<!-- Node21 -->
<g id="node21" class="node">
<title>Node21</title>
<g id="a_node21"><a xlink:href="GameObjectBuilder_8hpp.html" target="_top" xlink:title=" ">
<polygon fill="none" stroke="black" points="337,-145.5 337,-186.5 476,-186.5 476,-145.5 337,-145.5"/>
<text text-anchor="start" x="345" y="-174.5" font-family="Helvetica,sans-Serif" font-size="10.00">includes/platformer</text>
<text text-anchor="start" x="345" y="-163.5" font-family="Helvetica,sans-Serif" font-size="10.00">&#45;engine/Builder/GameObject</text>
<text text-anchor="middle" x="406.5" y="-152.5" font-family="Helvetica,sans-Serif" font-size="10.00">Builder.hpp</text>
</a>
</g>
</g>
<!-- Node19&#45;&gt;Node21 -->
<g id="edge20" class="edge">
<title>Node19&#45;&gt;Node21</title>
<path fill="none" stroke="midnightblue" d="M610.18,-288.74C536.27,-276.16 445.27,-259.73 438.5,-254 418.6,-237.15 411.07,-206.79 408.23,-186.76"/>
<polygon fill="midnightblue" stroke="midnightblue" points="610.04,-292.27 620.48,-290.49 611.21,-285.37 610.04,-292.27"/>
</g>
<!-- Node24 -->
<g id="node24" class="node">
<title>Node24</title>
<g id="a_node24"><a xlink:href="ObjectBuilder_8hpp.html" target="_top" xlink:title=" ">
<polygon fill="none" stroke="black" points="448,-223.5 448,-253.5 609,-253.5 609,-223.5 448,-223.5"/>
<text text-anchor="start" x="456" y="-241.5" font-family="Helvetica,sans-Serif" font-size="10.00">includes/platformer</text>
<text text-anchor="middle" x="528.5" y="-230.5" font-family="Helvetica,sans-Serif" font-size="10.00">&#45;engine/Builder/ObjectBuilder.hpp</text>
</a>
</g>
</g>
<!-- Node19&#45;&gt;Node24 -->
<g id="edge26" class="edge">
<title>Node19&#45;&gt;Node24</title>
<path fill="none" stroke="midnightblue" d="M657.35,-286.82C628.9,-276.37 593.37,-263.32 566.83,-253.58"/>
<polygon fill="midnightblue" stroke="midnightblue" points="656.5,-290.23 667.09,-290.4 658.91,-283.66 656.5,-290.23"/>
</g>
<!-- Node25 -->
<g id="node25" class="node">
<title>Node25</title>
<g id="a_node25"><a xlink:href="Animator_8hpp.html" target="_top" xlink:title=" ">
<polygon fill="none" stroke="black" points="852,-223.5 852,-253.5 955,-253.5 955,-223.5 852,-223.5"/>
<text text-anchor="start" x="860" y="-241.5" font-family="Helvetica,sans-Serif" font-size="10.00">includes/spic&#45;prj&#45;api</text>
<text text-anchor="middle" x="903.5" y="-230.5" font-family="Helvetica,sans-Serif" font-size="10.00">/Animator.hpp</text>
</a>
</g>
</g>
<!-- Node19&#45;&gt;Node25 -->
<g id="edge28" class="edge">
<title>Node19&#45;&gt;Node25</title>
<path fill="none" stroke="midnightblue" d="M758.11,-287.23C790.14,-276.71 830.54,-263.45 860.62,-253.58"/>
<polygon fill="midnightblue" stroke="midnightblue" points="756.87,-283.95 748.46,-290.4 759.06,-290.6 756.87,-283.95"/>
</g>
<!-- Node21&#45;&gt;Node13 -->
<g id="edge22" class="edge">
<title>Node21&#45;&gt;Node13</title>
<path fill="none" stroke="midnightblue" d="M406.3,-135.22C406.09,-103.42 405.76,-54.4 405.59,-30.53"/>
<polygon fill="midnightblue" stroke="midnightblue" points="402.8,-135.3 406.37,-145.28 409.8,-135.26 402.8,-135.3"/>
</g>
<!-- Node22 -->
<g id="node22" class="node">
<title>Node22</title>
<g id="a_node22"><a xlink:href="GameObjectBuilder_8cpp.html" target="_top" xlink:title=" ">
<polygon fill="none" stroke="black" points="21,-78.5 21,-97.5 190,-97.5 190,-78.5 21,-78.5"/>
<text text-anchor="middle" x="105.5" y="-85.5" font-family="Helvetica,sans-Serif" font-size="10.00">src/Builder/GameObjectBuilder.cpp</text>
</a>
</g>
</g>
<!-- Node21&#45;&gt;Node22 -->
<g id="edge21" class="edge">
<title>Node21&#45;&gt;Node22</title>
<path fill="none" stroke="midnightblue" d="M326.67,-144.84C265.53,-129.41 184.24,-108.88 139.19,-97.51"/>
<polygon fill="midnightblue" stroke="midnightblue" points="326.14,-148.32 336.69,-147.37 327.85,-141.53 326.14,-148.32"/>
</g>
<!-- Node23 -->
<g id="node23" class="node">
<title>Node23</title>
<g id="a_node23"><a xlink:href="GameObjectFactory_8hpp.html" target="_top" xlink:title=" ">
<polygon fill="none" stroke="black" points="208,-67.5 208,-108.5 351,-108.5 351,-67.5 208,-67.5"/>
<text text-anchor="start" x="216" y="-96.5" font-family="Helvetica,sans-Serif" font-size="10.00">includes/platformer</text>
<text text-anchor="start" x="216" y="-85.5" font-family="Helvetica,sans-Serif" font-size="10.00">&#45;engine/Director/GameObject</text>
<text text-anchor="middle" x="279.5" y="-74.5" font-family="Helvetica,sans-Serif" font-size="10.00">Factory.hpp</text>
</a>
</g>
</g>
<!-- Node21&#45;&gt;Node23 -->
<g id="edge23" class="edge">
<title>Node21&#45;&gt;Node23</title>
<path fill="none" stroke="midnightblue" d="M365.06,-140.2C347.88,-129.92 328.23,-118.16 312.09,-108.51"/>
<polygon fill="midnightblue" stroke="midnightblue" points="363.42,-143.3 373.79,-145.43 367.01,-137.29 363.42,-143.3"/>
</g>
<!-- Node23&#45;&gt;Node9 -->
<g id="edge24" class="edge">
<title>Node23&#45;&gt;Node9</title>
<path fill="none" stroke="midnightblue" d="M216.72,-63.95C180.39,-50.61 136.82,-34.61 110.68,-25.01"/>
<polygon fill="midnightblue" stroke="midnightblue" points="215.68,-67.29 226.27,-67.46 218.09,-60.72 215.68,-67.29"/>
</g>
<!-- Node23&#45;&gt;Node18 -->
<g id="edge25" class="edge">
<title>Node23&#45;&gt;Node18</title>
<path fill="none" stroke="midnightblue" d="M268.32,-57.81C263.81,-46.04 258.95,-33.34 255.82,-25.17"/>
<polygon fill="midnightblue" stroke="midnightblue" points="265.13,-59.28 271.98,-67.36 271.67,-56.77 265.13,-59.28"/>
</g>
<!-- Node24&#45;&gt;Node21 -->
<g id="edge27" class="edge">
<title>Node24&#45;&gt;Node21</title>
<path fill="none" stroke="midnightblue" d="M495.1,-218.2C478.15,-208.41 457.6,-196.53 440.56,-186.68"/>
<polygon fill="midnightblue" stroke="midnightblue" points="493.7,-221.43 504.1,-223.4 497.2,-215.37 493.7,-221.43"/>
</g>
<!-- Node25&#45;&gt;Node5 -->
<g id="edge29" class="edge">
<title>Node25&#45;&gt;Node5</title>
<path fill="none" stroke="midnightblue" d="M965.02,-227.57C1138.24,-199.4 1644.63,-115.52 2062.5,-31 2071.43,-29.19 2081.03,-27.1 2090.01,-25.08"/>
<polygon fill="midnightblue" stroke="midnightblue" points="964.38,-224.13 955.07,-229.19 965.5,-231.04 964.38,-224.13"/>
</g>
<!-- Node25&#45;&gt;Node21 -->
<g id="edge31" class="edge">
<title>Node25&#45;&gt;Node21</title>
<path fill="none" stroke="midnightblue" d="M841.63,-228.72C748.74,-215.55 573.79,-190.73 476.41,-176.92"/>
<polygon fill="midnightblue" stroke="midnightblue" points="841.33,-232.22 851.72,-230.15 842.31,-225.28 841.33,-232.22"/>
</g>
<!-- Node26 -->
<g id="node26" class="node">
<title>Node26</title>
<g id="a_node26"><a xlink:href="Scene_8cpp.html" target="_top" xlink:title=" ">
<polygon fill="none" stroke="black" points="848.5,-156.5 848.5,-175.5 958.5,-175.5 958.5,-156.5 848.5,-156.5"/>
<text text-anchor="middle" x="903.5" y="-163.5" font-family="Helvetica,sans-Serif" font-size="10.00">src/Scene/Scene.cpp</text>
</a>
</g>
</g>
<!-- Node25&#45;&gt;Node26 -->
<g id="edge30" class="edge">
<title>Node25&#45;&gt;Node26</title>
<path fill="none" stroke="midnightblue" d="M903.5,-213.09C903.5,-200.21 903.5,-185.2 903.5,-175.89"/>
<polygon fill="midnightblue" stroke="midnightblue" points="900,-213.23 903.5,-223.23 907,-213.23 900,-213.23"/>
</g>
<!-- Node27 -->
<g id="node27" class="node">
<title>Node27</title>
<g id="a_node27"><a xlink:href="RenderSystem_8hpp.html" target="_top" xlink:title=" ">
<polygon fill="none" stroke="black" points="977.5,-151 977.5,-181 1145.5,-181 1145.5,-151 977.5,-151"/>
<text text-anchor="start" x="985.5" y="-169" font-family="Helvetica,sans-Serif" font-size="10.00">includes/platformer</text>
<text text-anchor="middle" x="1061.5" y="-158" font-family="Helvetica,sans-Serif" font-size="10.00">&#45;engine/Texture/RenderSystem.hpp</text>
</a>
</g>
</g>
<!-- Node25&#45;&gt;Node27 -->
<g id="edge32" class="edge">
<title>Node25&#45;&gt;Node27</title>
<path fill="none" stroke="midnightblue" d="M944.54,-219.19C971.2,-207.29 1005.43,-192.02 1029.96,-181.07"/>
<polygon fill="midnightblue" stroke="midnightblue" points="942.8,-216.13 935.09,-223.4 945.65,-222.52 942.8,-216.13"/>
</g>
<!-- Node27&#45;&gt;Node4 -->
<g id="edge34" class="edge">
<title>Node27&#45;&gt;Node4</title>
<path fill="none" stroke="midnightblue" d="M1061.5,-140.59C1061.5,-128.26 1061.5,-113.72 1061.5,-103.23"/>
<polygon fill="midnightblue" stroke="midnightblue" points="1058,-140.7 1061.5,-150.7 1065,-140.71 1058,-140.7"/>
</g>
<!-- Node27&#45;&gt;Node15 -->
<g id="edge33" class="edge">
<title>Node27&#45;&gt;Node15</title>
<path fill="none" stroke="midnightblue" d="M1155.73,-150.2C1310.17,-125.87 1626.76,-75.64 1894.5,-31 1905.89,-29.1 1918.13,-27.01 1929.66,-25.03"/>
<polygon fill="midnightblue" stroke="midnightblue" points="1155.13,-146.75 1145.8,-151.77 1156.22,-153.67 1155.13,-146.75"/>
</g>
</g>
</svg>
