<?xml version="1.0" encoding="UTF-8" standalone="no"?>
<!DOCTYPE svg PUBLIC "-//W3C//DTD SVG 1.1//EN"
 "http://www.w3.org/Graphics/SVG/1.1/DTD/svg11.dtd">
<!-- Generated by graphviz version 2.44.0 ()
 -->
<!-- Title: src/Render/Window.cpp Pages: 1 -->
<!--zoomable 364 -->
<svg id="main" version="1.1" xmlns="http://www.w3.org/2000/svg" xmlns:xlink="http://www.w3.org/1999/xlink" xml:space="preserve" onload="init(evt)">
<style type="text/css"><![CDATA[
.edge:hover path { stroke: red; }
.edge:hover polygon { stroke: red; fill: red; }
]]></style>
<script type="text/javascript"><![CDATA[
var edges = document.getElementsByTagName('g');
if (edges && edges.length) {
  for (var i=0;i<edges.length;i++) {
    if (edges[i].id.substr(0,4)=='edge') {
      edges[i].setAttribute('class','edge');
    }
  }
}
]]></script>
        <defs>
                <circle id="rim" cx="0" cy="0" r="7"/>
                <circle id="rim2" cx="0" cy="0" r="3.5"/>
                <g id="zoomPlus">
                        <use xlink:href="#rim" fill="#404040">
                                <set attributeName="fill" to="#808080" begin="zoomplus.mouseover" end="zoomplus.mouseout"/>
                        </use>
                        <path d="M-4,0h8M0,-4v8" fill="none" stroke="white" stroke-width="1.5" pointer-events="none"/>
                </g>
                <g id="zoomMin">
                        <use xlink:href="#rim" fill="#404040">
                                <set attributeName="fill" to="#808080" begin="zoomminus.mouseover" end="zoomminus.mouseout"/>
                        </use>
                        <path d="M-4,0h8" fill="none" stroke="white" stroke-width="1.5" pointer-events="none"/>
                </g>
                <g id="dirArrow">
                        <path fill="none" stroke="white" stroke-width="1.5" d="M0,-3.0v7 M-2.5,-0.5L0,-3.0L2.5,-0.5"/>
                </g>
               <g id="resetDef">
                       <use xlink:href="#rim2" fill="#404040">
                               <set attributeName="fill" to="#808080" begin="reset.mouseover" end="reset.mouseout"/>
                       </use>
               </g>
        </defs>

<script type="text/javascript">
var viewWidth = 1315;
var viewHeight = 364;
var sectionId = 'dynsection-0';
</script>
<script xlink:href="svgpan.js"/>
<svg id="graph" class="graph">
<g id="viewport">
<title>src/Render/Window.cpp</title>
<!-- Node1 -->
<g id="node1" class="node">
<title>Node1</title>
<g id="a_node1"><a xlink:title=" ">
<polygon fill="#bfbfbf" stroke="black" points="749.5,-336.5 749.5,-355.5 868.5,-355.5 868.5,-336.5 749.5,-336.5"/>
<text text-anchor="middle" x="809" y="-343.5" font-family="Helvetica,sans-Serif" font-size="10.00">src/Render/Window.cpp</text>
</a>
</g>
</g>
<!-- Node2 -->
<g id="node2" class="node">
<title>Node2</title>
<g id="a_node2"><a xlink:href="Window_8hpp.html" target="_top" xlink:title=" ">
<polygon fill="none" stroke="black" points="636.5,-280.5 636.5,-299.5 739.5,-299.5 739.5,-280.5 636.5,-280.5"/>
<text text-anchor="middle" x="688" y="-287.5" font-family="Helvetica,sans-Serif" font-size="10.00">Render/Window.hpp</text>
</a>
</g>
</g>
<!-- Node1&#45;&gt;Node2 -->
<g id="edge1" class="edge">
<title>Node1&#45;&gt;Node2</title>
<path fill="none" stroke="midnightblue" d="M789.83,-336.44C770.09,-327.64 739.11,-313.81 716.51,-303.72"/>
<polygon fill="midnightblue" stroke="midnightblue" points="717.64,-300.4 707.08,-299.52 714.79,-306.79 717.64,-300.4"/>
</g>
<!-- Node26 -->
<g id="node26" class="node">
<title>Node26</title>
<g id="a_node26"><a xlink:href="LevelParser_8hpp.html" target="_top" xlink:title=" ">
<polygon fill="none" stroke="black" points="962.5,-168.5 962.5,-187.5 1105.5,-187.5 1105.5,-168.5 962.5,-168.5"/>
<text text-anchor="middle" x="1034" y="-175.5" font-family="Helvetica,sans-Serif" font-size="10.00">LevelParser/LevelParser.hpp</text>
</a>
</g>
</g>
<!-- Node1&#45;&gt;Node26 -->
<g id="edge40" class="edge">
<title>Node1&#45;&gt;Node26</title>
<path fill="none" stroke="midnightblue" d="M820.78,-336.31C857.23,-309.42 968.46,-227.35 1014.12,-193.67"/>
<polygon fill="midnightblue" stroke="midnightblue" points="1016.37,-196.36 1022.34,-187.61 1012.21,-190.73 1016.37,-196.36"/>
</g>
<!-- Node3 -->
<g id="node3" class="node">
<title>Node3</title>
<g id="a_node3"><a xlink:title=" ">
<polygon fill="none" stroke="#bfbfbf" points="719.5,-56.5 719.5,-75.5 760.5,-75.5 760.5,-56.5 719.5,-56.5"/>
<text text-anchor="middle" x="740" y="-63.5" font-family="Helvetica,sans-Serif" font-size="10.00">string</text>
</a>
</g>
</g>
<!-- Node2&#45;&gt;Node3 -->
<g id="edge2" class="edge">
<title>Node2&#45;&gt;Node3</title>
<path fill="none" stroke="midnightblue" d="M697.02,-280.32C713.21,-264.04 746.65,-227.03 759,-188 770.23,-152.5 757.21,-108.96 747.86,-84.98"/>
<polygon fill="midnightblue" stroke="midnightblue" points="751.09,-83.62 744.04,-75.71 744.61,-86.29 751.09,-83.62"/>
</g>
<!-- Node4 -->
<g id="node4" class="node">
<title>Node4</title>
<g id="a_node4"><a xlink:href="Color_8hpp.html" target="_top" xlink:title=" ">
<polygon fill="none" stroke="black" points="528.5,-56.5 528.5,-75.5 585.5,-75.5 585.5,-56.5 528.5,-56.5"/>
<text text-anchor="middle" x="557" y="-63.5" font-family="Helvetica,sans-Serif" font-size="10.00">Color.hpp</text>
</a>
</g>
</g>
<!-- Node2&#45;&gt;Node4 -->
<g id="edge3" class="edge">
<title>Node2&#45;&gt;Node4</title>
<path fill="none" stroke="midnightblue" d="M636.34,-283.06C559.17,-270.85 419.76,-234.78 391,-132 388.6,-123.44 385.6,-119.06 391,-112 394.96,-106.82 470.72,-87.78 518.51,-76.19"/>
<polygon fill="midnightblue" stroke="midnightblue" points="519.35,-79.59 528.25,-73.84 517.7,-72.78 519.35,-79.59"/>
</g>
<!-- Node5 -->
<g id="node5" class="node">
<title>Node5</title>
<g id="a_node5"><a xlink:href="GraphicsFacade_8hpp.html" target="_top" xlink:title=" ">
<polygon fill="none" stroke="black" points="202.5,-112.5 202.5,-131.5 343.5,-131.5 343.5,-112.5 202.5,-112.5"/>
<text text-anchor="middle" x="273" y="-119.5" font-family="Helvetica,sans-Serif" font-size="10.00">Facade/GraphicsFacade.hpp</text>
</a>
</g>
</g>
<!-- Node2&#45;&gt;Node5 -->
<g id="edge4" class="edge">
<title>Node2&#45;&gt;Node5</title>
<path fill="none" stroke="midnightblue" d="M636.47,-286.96C555.68,-282.93 403.68,-271.82 358,-244 317.93,-219.6 291.75,-168.38 280.05,-141.06"/>
<polygon fill="midnightblue" stroke="midnightblue" points="283.19,-139.49 276.16,-131.56 276.72,-142.14 283.19,-139.49"/>
</g>
<!-- Node14 -->
<g id="node14" class="node">
<title>Node14</title>
<g id="a_node14"><a xlink:href="TextureManager_8hpp.html" target="_top" xlink:title=" ">
<polygon fill="none" stroke="black" points="434,-168.5 434,-187.5 574,-187.5 574,-168.5 434,-168.5"/>
<text text-anchor="middle" x="504" y="-175.5" font-family="Helvetica,sans-Serif" font-size="10.00">Texture/TextureManager.hpp</text>
</a>
</g>
</g>
<!-- Node2&#45;&gt;Node14 -->
<g id="edge15" class="edge">
<title>Node2&#45;&gt;Node14</title>
<path fill="none" stroke="midnightblue" d="M673.56,-280.37C641.85,-261.41 565.89,-216 527.32,-192.94"/>
<polygon fill="midnightblue" stroke="midnightblue" points="528.75,-189.72 518.37,-187.59 525.16,-195.73 528.75,-189.72"/>
</g>
<!-- Node16 -->
<g id="node16" class="node">
<title>Node16</title>
<g id="a_node16"><a xlink:href="InputFacade_8hpp.html" target="_top" xlink:title=" ">
<polygon fill="none" stroke="black" points="626,-168.5 626,-187.5 750,-187.5 750,-168.5 626,-168.5"/>
<text text-anchor="middle" x="688" y="-175.5" font-family="Helvetica,sans-Serif" font-size="10.00">Facade/InputFacade.hpp</text>
</a>
</g>
</g>
<!-- Node2&#45;&gt;Node16 -->
<g id="edge19" class="edge">
<title>Node2&#45;&gt;Node16</title>
<path fill="none" stroke="midnightblue" d="M688,-280.37C688,-262.62 688,-221.67 688,-197.6"/>
<polygon fill="midnightblue" stroke="midnightblue" points="691.5,-197.59 688,-187.59 684.5,-197.59 691.5,-197.59"/>
</g>
<!-- Node21 -->
<g id="node21" class="node">
<title>Node21</title>
<g id="a_node21"><a xlink:href="Scene_8hpp.html" target="_top" xlink:title=" ">
<polygon fill="none" stroke="black" points="841,-224.5 841,-243.5 903,-243.5 903,-224.5 841,-224.5"/>
<text text-anchor="middle" x="872" y="-231.5" font-family="Helvetica,sans-Serif" font-size="10.00">Scene.hpp</text>
</a>
</g>
</g>
<!-- Node2&#45;&gt;Node21 -->
<g id="edge27" class="edge">
<title>Node2&#45;&gt;Node21</title>
<path fill="none" stroke="midnightblue" d="M717.16,-280.44C748.51,-271.24 798.53,-256.56 833.2,-246.39"/>
<polygon fill="midnightblue" stroke="midnightblue" points="834.37,-249.69 842.98,-243.52 832.4,-242.97 834.37,-249.69"/>
</g>
<!-- Node5&#45;&gt;Node3 -->
<g id="edge12" class="edge">
<title>Node5&#45;&gt;Node3</title>
<path fill="none" stroke="midnightblue" d="M343.67,-112.83C447.2,-100.86 635.78,-79.05 709.4,-70.54"/>
<polygon fill="midnightblue" stroke="midnightblue" points="709.87,-74.01 719.41,-69.38 709.07,-67.05 709.87,-74.01"/>
</g>
<!-- Node5&#45;&gt;Node4 -->
<g id="edge8" class="edge">
<title>Node5&#45;&gt;Node4</title>
<path fill="none" stroke="midnightblue" d="M320.62,-112.42C369.27,-103.59 446.99,-89.27 514,-76 515.45,-75.71 516.93,-75.42 518.42,-75.12"/>
<polygon fill="midnightblue" stroke="midnightblue" points="519.24,-78.52 528.34,-73.09 517.84,-71.66 519.24,-78.52"/>
</g>
<!-- Node6 -->
<g id="node6" class="node">
<title>Node6</title>
<g id="a_node6"><a xlink:title=" ">
<polygon fill="none" stroke="#bfbfbf" points="279.5,-56.5 279.5,-75.5 350.5,-75.5 350.5,-56.5 279.5,-56.5"/>
<text text-anchor="middle" x="315" y="-63.5" font-family="Helvetica,sans-Serif" font-size="10.00">SDL2/SDL.h</text>
</a>
</g>
</g>
<!-- Node5&#45;&gt;Node6 -->
<g id="edge5" class="edge">
<title>Node5&#45;&gt;Node6</title>
<path fill="none" stroke="midnightblue" d="M279.94,-112.08C285.93,-104.38 294.75,-93.03 302.05,-83.65"/>
<polygon fill="midnightblue" stroke="midnightblue" points="304.82,-85.79 308.19,-75.75 299.29,-81.5 304.82,-85.79"/>
</g>
<!-- Node7 -->
<g id="node7" class="node">
<title>Node7</title>
<g id="a_node7"><a xlink:title=" ">
<polygon fill="none" stroke="#bfbfbf" points="368.5,-56.5 368.5,-75.5 471.5,-75.5 471.5,-56.5 368.5,-56.5"/>
<text text-anchor="middle" x="420" y="-63.5" font-family="Helvetica,sans-Serif" font-size="10.00">SDL2/SDL_image.h</text>
</a>
</g>
</g>
<!-- Node5&#45;&gt;Node7 -->
<g id="edge6" class="edge">
<title>Node5&#45;&gt;Node7</title>
<path fill="none" stroke="midnightblue" d="M296.29,-112.44C320.81,-103.44 359.6,-89.19 387.2,-79.05"/>
<polygon fill="midnightblue" stroke="midnightblue" points="388.64,-82.25 396.82,-75.52 386.22,-75.68 388.64,-82.25"/>
</g>
<!-- Node8 -->
<g id="node8" class="node">
<title>Node8</title>
<g id="a_node8"><a xlink:title=" ">
<polygon fill="none" stroke="#bfbfbf" points="0,-56.5 0,-75.5 54,-75.5 54,-56.5 0,-56.5"/>
<text text-anchor="middle" x="27" y="-63.5" font-family="Helvetica,sans-Serif" font-size="10.00">iostream</text>
</a>
</g>
</g>
<!-- Node5&#45;&gt;Node8 -->
<g id="edge7" class="edge">
<title>Node5&#45;&gt;Node8</title>
<path fill="none" stroke="midnightblue" d="M231.07,-112.45C190.69,-104.12 127.65,-90.86 63.92,-76.16"/>
<polygon fill="midnightblue" stroke="midnightblue" points="64.64,-72.73 54.1,-73.88 63.05,-79.55 64.64,-72.73"/>
</g>
<!-- Node9 -->
<g id="node9" class="node">
<title>Node9</title>
<g id="a_node9"><a xlink:href="NumberUtil_8hpp.html" target="_top" xlink:title=" ">
<polygon fill="none" stroke="black" points="72,-56.5 72,-75.5 184,-75.5 184,-56.5 72,-56.5"/>
<text text-anchor="middle" x="128" y="-63.5" font-family="Helvetica,sans-Serif" font-size="10.00">Utility/NumberUtil.hpp</text>
</a>
</g>
</g>
<!-- Node5&#45;&gt;Node9 -->
<g id="edge9" class="edge">
<title>Node5&#45;&gt;Node9</title>
<path fill="none" stroke="midnightblue" d="M250.02,-112.44C225.84,-103.44 187.58,-89.19 160.35,-79.05"/>
<polygon fill="midnightblue" stroke="midnightblue" points="161.46,-75.73 150.87,-75.52 159.02,-82.29 161.46,-75.73"/>
</g>
<!-- Node10 -->
<g id="node10" class="node">
<title>Node10</title>
<g id="a_node10"><a xlink:title=" ">
<polygon fill="none" stroke="#bfbfbf" points="1046.5,-0.5 1046.5,-19.5 1097.5,-19.5 1097.5,-0.5 1046.5,-0.5"/>
<text text-anchor="middle" x="1072" y="-7.5" font-family="Helvetica,sans-Serif" font-size="10.00">memory</text>
</a>
</g>
</g>
<!-- Node5&#45;&gt;Node10 -->
<g id="edge10" class="edge">
<title>Node5&#45;&gt;Node10</title>
<path fill="none" stroke="midnightblue" d="M331.68,-112.43C373.75,-105.28 431.35,-93.42 480,-76 498.34,-69.43 500.27,-61.34 519,-56 616.85,-28.13 929.76,-15.61 1036.18,-12.09"/>
<polygon fill="midnightblue" stroke="midnightblue" points="1036.51,-15.58 1046.39,-11.76 1036.28,-8.58 1036.51,-15.58"/>
</g>
<!-- Node11 -->
<g id="node11" class="node">
<title>Node11</title>
<g id="a_node11"><a xlink:title=" ">
<polygon fill="none" stroke="#bfbfbf" points="202.5,-56.5 202.5,-75.5 261.5,-75.5 261.5,-56.5 202.5,-56.5"/>
<text text-anchor="middle" x="232" y="-63.5" font-family="Helvetica,sans-Serif" font-size="10.00">functional</text>
</a>
</g>
</g>
<!-- Node5&#45;&gt;Node11 -->
<g id="edge11" class="edge">
<title>Node5&#45;&gt;Node11</title>
<path fill="none" stroke="midnightblue" d="M266.23,-112.08C260.44,-104.46 251.94,-93.26 244.86,-83.94"/>
<polygon fill="midnightblue" stroke="midnightblue" points="247.48,-81.6 238.64,-75.75 241.9,-85.83 247.48,-81.6"/>
</g>
<!-- Node12 -->
<g id="node12" class="node">
<title>Node12</title>
<g id="a_node12"><a xlink:title=" ">
<polygon fill="none" stroke="#bfbfbf" points="833,-56.5 833,-75.5 877,-75.5 877,-56.5 833,-56.5"/>
<text text-anchor="middle" x="855" y="-63.5" font-family="Helvetica,sans-Serif" font-size="10.00">vector</text>
</a>
</g>
</g>
<!-- Node5&#45;&gt;Node12 -->
<g id="edge13" class="edge">
<title>Node5&#45;&gt;Node12</title>
<path fill="none" stroke="midnightblue" d="M343.61,-115.61C477.47,-105.35 759.84,-83.45 822.8,-75.51"/>
<polygon fill="midnightblue" stroke="midnightblue" points="823.4,-78.96 832.78,-74.03 822.37,-72.03 823.4,-78.96"/>
</g>
<!-- Node13 -->
<g id="node13" class="node">
<title>Node13</title>
<g id="a_node13"><a xlink:title=" ">
<polygon fill="none" stroke="#bfbfbf" points="779.5,-56.5 779.5,-75.5 814.5,-75.5 814.5,-56.5 779.5,-56.5"/>
<text text-anchor="middle" x="797" y="-63.5" font-family="Helvetica,sans-Serif" font-size="10.00">map</text>
</a>
</g>
</g>
<!-- Node5&#45;&gt;Node13 -->
<g id="edge14" class="edge">
<title>Node5&#45;&gt;Node13</title>
<path fill="none" stroke="midnightblue" d="M343.52,-115.52C463.8,-106.06 701.46,-86.76 769.41,-75.39"/>
<polygon fill="midnightblue" stroke="midnightblue" points="770.26,-78.79 779.44,-73.5 768.97,-71.91 770.26,-78.79"/>
</g>
<!-- Node14&#45;&gt;Node3 -->
<g id="edge16" class="edge">
<title>Node14&#45;&gt;Node3</title>
<path fill="none" stroke="midnightblue" d="M509.11,-168.34C517.88,-154.27 537.18,-126.56 561,-112 564.21,-110.04 658.89,-86.77 709.22,-74.49"/>
<polygon fill="midnightblue" stroke="midnightblue" points="710.35,-77.82 719.24,-72.05 708.69,-71.02 710.35,-77.82"/>
</g>
<!-- Node14&#45;&gt;Node5 -->
<g id="edge18" class="edge">
<title>Node14&#45;&gt;Node5</title>
<path fill="none" stroke="midnightblue" d="M467.4,-168.44C427.27,-159.06 362.8,-143.99 319.22,-133.8"/>
<polygon fill="midnightblue" stroke="midnightblue" points="319.97,-130.38 309.43,-131.52 318.37,-137.2 319.97,-130.38"/>
</g>
<!-- Node15 -->
<g id="node15" class="node">
<title>Node15</title>
<g id="a_node15"><a xlink:title=" ">
<polygon fill="none" stroke="#bfbfbf" points="400.5,-112.5 400.5,-131.5 439.5,-131.5 439.5,-112.5 400.5,-112.5"/>
<text text-anchor="middle" x="420" y="-119.5" font-family="Helvetica,sans-Serif" font-size="10.00">utility</text>
</a>
</g>
</g>
<!-- Node14&#45;&gt;Node15 -->
<g id="edge17" class="edge">
<title>Node14&#45;&gt;Node15</title>
<path fill="none" stroke="midnightblue" d="M490.5,-168.32C477.4,-159.9 457.29,-146.97 441.89,-137.07"/>
<polygon fill="midnightblue" stroke="midnightblue" points="443.77,-134.12 433.46,-131.65 439.98,-140.01 443.77,-134.12"/>
</g>
<!-- Node16&#45;&gt;Node12 -->
<g id="edge20" class="edge">
<title>Node16&#45;&gt;Node12</title>
<path fill="none" stroke="midnightblue" d="M707.3,-168.42C725.36,-160.07 752.81,-146.53 775,-132 797.99,-116.94 822.18,-96.56 837.87,-82.66"/>
<polygon fill="midnightblue" stroke="midnightblue" points="840.54,-84.97 845.64,-75.68 835.86,-79.76 840.54,-84.97"/>
</g>
<!-- Node16&#45;&gt;Node13 -->
<g id="edge21" class="edge">
<title>Node16&#45;&gt;Node13</title>
<path fill="none" stroke="midnightblue" d="M703.65,-168.42C717.63,-160.26 738.13,-147.02 753,-132 767.04,-117.81 779.41,-98.59 787.44,-84.73"/>
<polygon fill="midnightblue" stroke="midnightblue" points="790.64,-86.17 792.47,-75.73 784.53,-82.75 790.64,-86.17"/>
</g>
<!-- Node17 -->
<g id="node17" class="node">
<title>Node17</title>
<g id="a_node17"><a xlink:title=" ">
<polygon fill="none" stroke="#bfbfbf" points="570,-112.5 570,-131.5 614,-131.5 614,-112.5 570,-112.5"/>
<text text-anchor="middle" x="592" y="-119.5" font-family="Helvetica,sans-Serif" font-size="10.00">SDL.h</text>
</a>
</g>
</g>
<!-- Node16&#45;&gt;Node17 -->
<g id="edge22" class="edge">
<title>Node16&#45;&gt;Node17</title>
<path fill="none" stroke="midnightblue" d="M672.58,-168.32C657.46,-159.82 634.18,-146.73 616.53,-136.8"/>
<polygon fill="midnightblue" stroke="midnightblue" points="617.82,-133.51 607.39,-131.65 614.39,-139.61 617.82,-133.51"/>
</g>
<!-- Node18 -->
<g id="node18" class="node">
<title>Node18</title>
<g id="a_node18"><a xlink:title=" ">
<polygon fill="none" stroke="#bfbfbf" points="632,-112.5 632,-131.5 744,-131.5 744,-112.5 632,-112.5"/>
<text text-anchor="middle" x="688" y="-119.5" font-family="Helvetica,sans-Serif" font-size="10.00">Events/EventsEnum.h</text>
</a>
</g>
</g>
<!-- Node16&#45;&gt;Node18 -->
<g id="edge23" class="edge">
<title>Node16&#45;&gt;Node18</title>
<path fill="none" stroke="midnightblue" d="M688,-168.08C688,-161.01 688,-150.86 688,-141.99"/>
<polygon fill="midnightblue" stroke="midnightblue" points="691.5,-141.75 688,-131.75 684.5,-141.75 691.5,-141.75"/>
</g>
<!-- Node19 -->
<g id="node19" class="node">
<title>Node19</title>
<g id="a_node19"><a xlink:href="Input_8hpp.html" target="_top" xlink:title=" ">
<polygon fill="none" stroke="black" points="458,-112.5 458,-131.5 514,-131.5 514,-112.5 458,-112.5"/>
<text text-anchor="middle" x="486" y="-119.5" font-family="Helvetica,sans-Serif" font-size="10.00">Input.hpp</text>
</a>
</g>
</g>
<!-- Node16&#45;&gt;Node19 -->
<g id="edge24" class="edge">
<title>Node16&#45;&gt;Node19</title>
<path fill="none" stroke="midnightblue" d="M655.99,-168.44C620.15,-158.86 562.1,-143.34 523.98,-133.15"/>
<polygon fill="midnightblue" stroke="midnightblue" points="524.84,-129.76 514.27,-130.56 523.03,-136.52 524.84,-129.76"/>
</g>
<!-- Node19&#45;&gt;Node3 -->
<g id="edge26" class="edge">
<title>Node19&#45;&gt;Node3</title>
<path fill="none" stroke="midnightblue" d="M514.01,-114.96C518.68,-113.97 523.48,-112.95 528,-112 605.71,-95.68 625.52,-93.39 703,-76 705.07,-75.54 707.19,-75.05 709.34,-74.55"/>
<polygon fill="midnightblue" stroke="midnightblue" points="710.37,-77.9 719.29,-72.18 708.75,-71.09 710.37,-77.9"/>
</g>
<!-- Node20 -->
<g id="node20" class="node">
<title>Node20</title>
<g id="a_node20"><a xlink:href="Point_8hpp.html" target="_top" xlink:title=" ">
<polygon fill="none" stroke="black" points="783.5,-0.5 783.5,-19.5 840.5,-19.5 840.5,-0.5 783.5,-0.5"/>
<text text-anchor="middle" x="812" y="-7.5" font-family="Helvetica,sans-Serif" font-size="10.00">Point.hpp</text>
</a>
</g>
</g>
<!-- Node19&#45;&gt;Node20 -->
<g id="edge25" class="edge">
<title>Node19&#45;&gt;Node20</title>
<path fill="none" stroke="midnightblue" d="M511.31,-112.46C569.08,-92.97 710.76,-45.16 776.91,-22.84"/>
<polygon fill="midnightblue" stroke="midnightblue" points="778.13,-26.12 786.48,-19.61 775.89,-19.49 778.13,-26.12"/>
</g>
<!-- Node22 -->
<g id="node22" class="node">
<title>Node22</title>
<g id="a_node22"><a xlink:href="GameObject_8hpp.html" target="_top" xlink:title=" ">
<polygon fill="none" stroke="black" points="990.5,-112.5 990.5,-131.5 1079.5,-131.5 1079.5,-112.5 990.5,-112.5"/>
<text text-anchor="middle" x="1035" y="-119.5" font-family="Helvetica,sans-Serif" font-size="10.00">GameObject.hpp</text>
</a>
</g>
</g>
<!-- Node21&#45;&gt;Node22 -->
<g id="edge28" class="edge">
<title>Node21&#45;&gt;Node22</title>
<path fill="none" stroke="midnightblue" d="M881.7,-224.45C896.66,-211.47 926.5,-186.36 954,-168 971.67,-156.2 992.67,-144.6 1008.86,-136.13"/>
<polygon fill="midnightblue" stroke="midnightblue" points="1010.49,-139.23 1017.77,-131.53 1007.28,-133.01 1010.49,-139.23"/>
</g>
<!-- Node25 -->
<g id="node25" class="node">
<title>Node25</title>
<g id="a_node25"><a xlink:href="Camera_8hpp.html" target="_top" xlink:title=" ">
<polygon fill="none" stroke="black" points="838,-168.5 838,-187.5 906,-187.5 906,-168.5 838,-168.5"/>
<text text-anchor="middle" x="872" y="-175.5" font-family="Helvetica,sans-Serif" font-size="10.00">Camera.hpp</text>
</a>
</g>
</g>
<!-- Node21&#45;&gt;Node25 -->
<g id="edge37" class="edge">
<title>Node21&#45;&gt;Node25</title>
<path fill="none" stroke="midnightblue" d="M872,-224.08C872,-217.01 872,-206.86 872,-197.99"/>
<polygon fill="midnightblue" stroke="midnightblue" points="875.5,-197.75 872,-187.75 868.5,-197.75 875.5,-197.75"/>
</g>
<!-- Node22&#45;&gt;Node3 -->
<g id="edge33" class="edge">
<title>Node22&#45;&gt;Node3</title>
<path fill="none" stroke="midnightblue" d="M990.32,-114.97C937.57,-107.48 847.36,-93.53 771,-76 770.79,-75.95 770.58,-75.9 770.36,-75.85"/>
<polygon fill="midnightblue" stroke="midnightblue" points="771.15,-72.44 760.59,-73.33 769.4,-79.22 771.15,-72.44"/>
</g>
<!-- Node22&#45;&gt;Node10 -->
<g id="edge35" class="edge">
<title>Node22&#45;&gt;Node10</title>
<path fill="none" stroke="midnightblue" d="M1029.77,-112.22C1022.85,-99.38 1012.45,-74.94 1021,-56 1026.62,-43.56 1037.56,-33.17 1047.88,-25.53"/>
<polygon fill="midnightblue" stroke="midnightblue" points="1050.01,-28.31 1056.27,-19.76 1046.04,-22.54 1050.01,-28.31"/>
</g>
<!-- Node22&#45;&gt;Node12 -->
<g id="edge34" class="edge">
<title>Node22&#45;&gt;Node12</title>
<path fill="none" stroke="midnightblue" d="M1006.48,-112.44C973.96,-102.69 920.92,-86.78 887.01,-76.6"/>
<polygon fill="midnightblue" stroke="midnightblue" points="887.73,-73.17 877.15,-73.64 885.72,-79.87 887.73,-73.17"/>
</g>
<!-- Node22&#45;&gt;Node13 -->
<g id="edge36" class="edge">
<title>Node22&#45;&gt;Node13</title>
<path fill="none" stroke="midnightblue" d="M990.2,-112.95C949.34,-105.27 887.18,-92.75 824.32,-75.83"/>
<polygon fill="midnightblue" stroke="midnightblue" points="825.2,-72.45 814.63,-73.19 823.36,-79.2 825.2,-72.45"/>
</g>
<!-- Node23 -->
<g id="node23" class="node">
<title>Node23</title>
<g id="a_node23"><a xlink:href="Component_8hpp.html" target="_top" xlink:title=" ">
<polygon fill="none" stroke="black" points="1030,-56.5 1030,-75.5 1114,-75.5 1114,-56.5 1030,-56.5"/>
<text text-anchor="middle" x="1072" y="-63.5" font-family="Helvetica,sans-Serif" font-size="10.00">Component.hpp</text>
</a>
</g>
</g>
<!-- Node22&#45;&gt;Node23 -->
<g id="edge29" class="edge">
<title>Node22&#45;&gt;Node23</title>
<path fill="none" stroke="midnightblue" d="M1041.11,-112.08C1046.28,-104.53 1053.85,-93.49 1060.19,-84.23"/>
<polygon fill="midnightblue" stroke="midnightblue" points="1063.24,-85.98 1066,-75.75 1057.46,-82.02 1063.24,-85.98"/>
</g>
<!-- Node24 -->
<g id="node24" class="node">
<title>Node24</title>
<g id="a_node24"><a xlink:href="Transform_8hpp.html" target="_top" xlink:title=" ">
<polygon fill="none" stroke="black" points="894.5,-56.5 894.5,-75.5 973.5,-75.5 973.5,-56.5 894.5,-56.5"/>
<text text-anchor="middle" x="934" y="-63.5" font-family="Helvetica,sans-Serif" font-size="10.00">Transform.hpp</text>
</a>
</g>
</g>
<!-- Node22&#45;&gt;Node24 -->
<g id="edge31" class="edge">
<title>Node22&#45;&gt;Node24</title>
<path fill="none" stroke="midnightblue" d="M1018.77,-112.32C1002.65,-103.7 977.7,-90.36 959.04,-80.39"/>
<polygon fill="midnightblue" stroke="midnightblue" points="960.66,-77.28 950.19,-75.65 957.36,-83.46 960.66,-77.28"/>
</g>
<!-- Node23&#45;&gt;Node10 -->
<g id="edge30" class="edge">
<title>Node23&#45;&gt;Node10</title>
<path fill="none" stroke="midnightblue" d="M1072,-56.08C1072,-49.01 1072,-38.86 1072,-29.99"/>
<polygon fill="midnightblue" stroke="midnightblue" points="1075.5,-29.75 1072,-19.75 1068.5,-29.75 1075.5,-29.75"/>
</g>
<!-- Node24&#45;&gt;Node20 -->
<g id="edge32" class="edge">
<title>Node24&#45;&gt;Node20</title>
<path fill="none" stroke="midnightblue" d="M914.67,-56.44C894.68,-47.6 863.26,-33.69 840.44,-23.59"/>
<polygon fill="midnightblue" stroke="midnightblue" points="841.8,-20.36 831.24,-19.52 838.97,-26.76 841.8,-20.36"/>
</g>
<!-- Node25&#45;&gt;Node4 -->
<g id="edge39" class="edge">
<title>Node25&#45;&gt;Node4</title>
<path fill="none" stroke="midnightblue" d="M859.01,-168.34C837.73,-154.52 793.72,-127.46 753,-112 700.15,-91.94 635.75,-79.25 595.55,-72.64"/>
<polygon fill="midnightblue" stroke="midnightblue" points="596.06,-69.17 585.63,-71.05 594.95,-76.09 596.06,-69.17"/>
</g>
<!-- Node25&#45;&gt;Node22 -->
<g id="edge38" class="edge">
<title>Node25&#45;&gt;Node22</title>
<path fill="none" stroke="midnightblue" d="M897.83,-168.44C925.25,-159.36 968.78,-144.94 999.43,-134.78"/>
<polygon fill="midnightblue" stroke="midnightblue" points="1000.9,-137.98 1009.29,-131.52 998.7,-131.34 1000.9,-137.98"/>
</g>
<!-- Node26&#45;&gt;Node3 -->
<g id="edge41" class="edge">
<title>Node26&#45;&gt;Node3</title>
<path fill="none" stroke="midnightblue" d="M1006.88,-168.44C979.69,-159.72 936.7,-145.6 900,-132 853.88,-114.91 801.18,-93.03 769.26,-79.52"/>
<polygon fill="midnightblue" stroke="midnightblue" points="770.62,-76.3 760.05,-75.61 767.89,-82.74 770.62,-76.3"/>
</g>
<!-- Node26&#45;&gt;Node10 -->
<g id="edge43" class="edge">
<title>Node26&#45;&gt;Node10</title>
<path fill="none" stroke="midnightblue" d="M1046.84,-168.42C1058.71,-160.06 1076.38,-146.53 1089,-132 1108.1,-110.02 1115.15,-104.04 1123,-76 1125.4,-67.44 1126.66,-64.1 1123,-56 1117.38,-43.56 1106.44,-33.17 1096.12,-25.53"/>
<polygon fill="midnightblue" stroke="midnightblue" points="1097.96,-22.54 1087.73,-19.76 1093.99,-28.31 1097.96,-22.54"/>
</g>
<!-- Node26&#45;&gt;Node13 -->
<g id="edge42" class="edge">
<title>Node26&#45;&gt;Node13</title>
<path fill="none" stroke="midnightblue" d="M1016.76,-168.36C991.35,-155.7 942.27,-131.48 900,-112 874.3,-100.16 844.66,-87.29 823.79,-78.36"/>
<polygon fill="midnightblue" stroke="midnightblue" points="825.16,-75.14 814.59,-74.43 822.41,-81.58 825.16,-75.14"/>
</g>
<!-- Node27 -->
<g id="node27" class="node">
<title>Node27</title>
<g id="a_node27"><a xlink:href="GameLevel_8hpp.html" target="_top" xlink:title=" ">
<polygon fill="none" stroke="black" points="1169,-112.5 1169,-131.5 1307,-131.5 1307,-112.5 1169,-112.5"/>
<text text-anchor="middle" x="1238" y="-119.5" font-family="Helvetica,sans-Serif" font-size="10.00">GameLevel/GameLevel.hpp</text>
</a>
</g>
</g>
<!-- Node26&#45;&gt;Node27 -->
<g id="edge44" class="edge">
<title>Node26&#45;&gt;Node27</title>
<path fill="none" stroke="midnightblue" d="M1066.32,-168.44C1101.39,-159.16 1157.5,-144.31 1195.96,-134.13"/>
<polygon fill="midnightblue" stroke="midnightblue" points="1197.06,-137.46 1205.83,-131.52 1195.26,-130.69 1197.06,-137.46"/>
</g>
<!-- Node27&#45;&gt;Node10 -->
<g id="edge47" class="edge">
<title>Node27&#45;&gt;Node10</title>
<path fill="none" stroke="midnightblue" d="M1228.33,-112.4C1213.42,-99.34 1183.64,-74.15 1156,-56 1137.85,-44.08 1116.23,-32.56 1099.47,-24.15"/>
<polygon fill="midnightblue" stroke="midnightblue" points="1100.75,-20.88 1090.23,-19.59 1097.65,-27.15 1100.75,-20.88"/>
</g>
<!-- Node27&#45;&gt;Node12 -->
<g id="edge46" class="edge">
<title>Node27&#45;&gt;Node12</title>
<path fill="none" stroke="midnightblue" d="M1168.68,-115.34C1099.53,-108.98 990.21,-96.96 887.19,-75.97"/>
<polygon fill="midnightblue" stroke="midnightblue" points="887.75,-72.51 877.25,-73.91 886.33,-79.36 887.75,-72.51"/>
</g>
<!-- Node28 -->
<g id="node28" class="node">
<title>Node28</title>
<g id="a_node28"><a xlink:href="Layer_8hpp.html" target="_top" xlink:title=" ">
<polygon fill="none" stroke="black" points="1208.5,-56.5 1208.5,-75.5 1267.5,-75.5 1267.5,-56.5 1208.5,-56.5"/>
<text text-anchor="middle" x="1238" y="-63.5" font-family="Helvetica,sans-Serif" font-size="10.00">Layer.hpp</text>
</a>
</g>
</g>
<!-- Node27&#45;&gt;Node28 -->
<g id="edge45" class="edge">
<title>Node27&#45;&gt;Node28</title>
<path fill="none" stroke="midnightblue" d="M1238,-112.08C1238,-105.01 1238,-94.86 1238,-85.99"/>
<polygon fill="midnightblue" stroke="midnightblue" points="1241.5,-85.75 1238,-75.75 1234.5,-85.75 1241.5,-85.75"/>
</g>
</g>
</svg>
        <g id="navigator" transform="translate(0 0)" fill="#404254">
                <rect fill="#f2f5e9" fill-opacity="0.5" stroke="#606060" stroke-width=".5" x="0" y="0" width="60" height="60"/>
                <use id="zoomplus" xlink:href="#zoomPlus" x="17" y="9" onmousedown="handleZoom(evt,'in')"/>
                <use id="zoomminus" xlink:href="#zoomMin" x="42" y="9" onmousedown="handleZoom(evt,'out')"/>
                <use id="reset" xlink:href="#resetDef" x="30" y="36" onmousedown="handleReset()"/>
                <g id="arrowUp" xlink:href="#dirArrow" transform="translate(30 24)" onmousedown="handlePan(0,-1)">
                  <use xlink:href="#rim" fill="#404040">
                        <set attributeName="fill" to="#808080" begin="arrowUp.mouseover" end="arrowUp.mouseout"/>
                  </use>
                  <path fill="none" stroke="white" stroke-width="1.5" d="M0,-3.0v7 M-2.5,-0.5L0,-3.0L2.5,-0.5"/>
                </g>
                <g id="arrowRight" xlink:href="#dirArrow" transform="rotate(90) translate(36 -43)" onmousedown="handlePan(1,0)">
                  <use xlink:href="#rim" fill="#404040">
                        <set attributeName="fill" to="#808080" begin="arrowRight.mouseover" end="arrowRight.mouseout"/>
                  </use>
                  <path fill="none" stroke="white" stroke-width="1.5" d="M0,-3.0v7 M-2.5,-0.5L0,-3.0L2.5,-0.5"/>
                </g>
                <g id="arrowDown" xlink:href="#dirArrow" transform="rotate(180) translate(-30 -48)" onmousedown="handlePan(0,1)">
                  <use xlink:href="#rim" fill="#404040">
                        <set attributeName="fill" to="#808080" begin="arrowDown.mouseover" end="arrowDown.mouseout"/>
                  </use>
                  <path fill="none" stroke="white" stroke-width="1.5" d="M0,-3.0v7 M-2.5,-0.5L0,-3.0L2.5,-0.5"/>
                </g>
                <g id="arrowLeft" xlink:href="#dirArrow" transform="rotate(270) translate(-36 17)" onmousedown="handlePan(-1,0)">
                  <use xlink:href="#rim" fill="#404040">
                        <set attributeName="fill" to="#808080" begin="arrowLeft.mouseover" end="arrowLeft.mouseout"/>
                  </use>
                  <path fill="none" stroke="white" stroke-width="1.5" d="M0,-3.0v7 M-2.5,-0.5L0,-3.0L2.5,-0.5"/>
                </g>
        </g>
        <svg viewBox="0 0 15 15" width="100%" height="30px" preserveAspectRatio="xMaxYMin meet">
         <g id="arrow_out" transform="scale(0.3 0.3)">
          <a xlink:href="Window_8cpp__incl_org.svg" target="_base">
           <rect id="button" ry="5" rx="5" y="6" x="6" height="38" width="38"
                fill="#f2f5e9" fill-opacity="0.5" stroke="#606060" stroke-width="1.0"/>
           <path id="arrow"
             d="M 11.500037,31.436501 C 11.940474,20.09759 22.043105,11.32322 32.158766,21.979434 L 37.068811,17.246167 C 37.068811,17.246167 37.088388,32 37.088388,32 L 22.160133,31.978069 C 22.160133,31.978069 26.997745,27.140456 26.997745,27.140456 C 18.528582,18.264221 13.291696,25.230495 11.500037,31.436501 z"
             style="fill:#404040;"/>
          </a>
         </g>
        </svg>
</svg>
