<?xml version="1.0" encoding="UTF-8" standalone="no"?>
<!DOCTYPE svg PUBLIC "-//W3C//DTD SVG 1.1//EN"
 "http://www.w3.org/Graphics/SVG/1.1/DTD/svg11.dtd">
<!-- Generated by graphviz version 2.44.0 ()
 -->
<!-- Title: src/Render/Window.cpp Pages: 1 -->
<svg width="1216pt" height="364pt"
 viewBox="0.00 0.00 1216.00 364.00" xmlns="http://www.w3.org/2000/svg" xmlns:xlink="http://www.w3.org/1999/xlink">
<g id="graph0" class="graph" transform="scale(1 1) rotate(0) translate(4 360)">
<title>src/Render/Window.cpp</title>
<!-- Node1 -->
<g id="node1" class="node">
<title>Node1</title>
<g id="a_node1"><a xlink:title=" ">
<polygon fill="#bfbfbf" stroke="black" points="291.5,-336.5 291.5,-355.5 410.5,-355.5 410.5,-336.5 291.5,-336.5"/>
<text text-anchor="middle" x="351" y="-343.5" font-family="Helvetica,sans-Serif" font-size="10.00">src/Render/Window.cpp</text>
</a>
</g>
</g>
<!-- Node2 -->
<g id="node2" class="node">
<title>Node2</title>
<g id="a_node2"><a xlink:href="Window_8hpp.html" target="_top" xlink:title=" ">
<polygon fill="none" stroke="black" points="299.5,-280.5 299.5,-299.5 402.5,-299.5 402.5,-280.5 299.5,-280.5"/>
<text text-anchor="middle" x="351" y="-287.5" font-family="Helvetica,sans-Serif" font-size="10.00">Render/Window.hpp</text>
</a>
</g>
</g>
<!-- Node1&#45;&gt;Node2 -->
<g id="edge1" class="edge">
<title>Node1&#45;&gt;Node2</title>
<path fill="none" stroke="midnightblue" d="M351,-336.08C351,-329.01 351,-318.86 351,-309.99"/>
<polygon fill="midnightblue" stroke="midnightblue" points="354.5,-309.75 351,-299.75 347.5,-309.75 354.5,-309.75"/>
</g>
<!-- Node19 -->
<g id="node19" class="node">
<title>Node19</title>
<g id="a_node19"><a xlink:href="Input_8hpp.html" target="_top" xlink:title=" ">
<polygon fill="none" stroke="black" points="0,-112.5 0,-131.5 56,-131.5 56,-112.5 0,-112.5"/>
<text text-anchor="middle" x="28" y="-119.5" font-family="Helvetica,sans-Serif" font-size="10.00">Input.hpp</text>
</a>
</g>
</g>
<!-- Node1&#45;&gt;Node19 -->
<g id="edge40" class="edge">
<title>Node1&#45;&gt;Node19</title>
<path fill="none" stroke="midnightblue" d="M332.87,-336.41C299.14,-320.14 224.91,-282.93 167,-244 134.22,-221.96 127.82,-213.9 98,-188 79.16,-171.64 58.28,-152.05 44.27,-138.69"/>
<polygon fill="midnightblue" stroke="midnightblue" points="46.53,-136 36.89,-131.61 41.68,-141.06 46.53,-136"/>
</g>
<!-- Node26 -->
<g id="node26" class="node">
<title>Node26</title>
<g id="a_node26"><a xlink:href="LevelParser_8hpp.html" target="_top" xlink:title=" ">
<polygon fill="none" stroke="black" points="774.5,-168.5 774.5,-187.5 917.5,-187.5 917.5,-168.5 774.5,-168.5"/>
<text text-anchor="middle" x="846" y="-175.5" font-family="Helvetica,sans-Serif" font-size="10.00">LevelParser/LevelParser.hpp</text>
</a>
</g>
</g>
<!-- Node1&#45;&gt;Node26 -->
<g id="edge41" class="edge">
<title>Node1&#45;&gt;Node26</title>
<path fill="none" stroke="midnightblue" d="M394.82,-336.49C465.58,-322 608.76,-289.63 724,-244 760.25,-229.65 799.61,-207.34 823.55,-192.95"/>
<polygon fill="midnightblue" stroke="midnightblue" points="825.5,-195.86 832.22,-187.68 821.86,-189.88 825.5,-195.86"/>
</g>
<!-- Node3 -->
<g id="node3" class="node">
<title>Node3</title>
<g id="a_node3"><a xlink:title=" ">
<polygon fill="none" stroke="#bfbfbf" points="19.5,-56.5 19.5,-75.5 60.5,-75.5 60.5,-56.5 19.5,-56.5"/>
<text text-anchor="middle" x="40" y="-63.5" font-family="Helvetica,sans-Serif" font-size="10.00">string</text>
</a>
</g>
</g>
<!-- Node2&#45;&gt;Node3 -->
<g id="edge2" class="edge">
<title>Node2&#45;&gt;Node3</title>
<path fill="none" stroke="midnightblue" d="M314.71,-280.39C265.61,-267.28 177.34,-238.35 118,-188 100.02,-172.75 66.18,-114.25 49.62,-84.54"/>
<polygon fill="midnightblue" stroke="midnightblue" points="52.61,-82.73 44.71,-75.67 46.49,-86.12 52.61,-82.73"/>
</g>
<!-- Node4 -->
<g id="node4" class="node">
<title>Node4</title>
<g id="a_node4"><a xlink:href="Color_8hpp.html" target="_top" xlink:title=" ">
<polygon fill="none" stroke="black" points="606.5,-56.5 606.5,-75.5 663.5,-75.5 663.5,-56.5 606.5,-56.5"/>
<text text-anchor="middle" x="635" y="-63.5" font-family="Helvetica,sans-Serif" font-size="10.00">Color.hpp</text>
</a>
</g>
</g>
<!-- Node2&#45;&gt;Node4 -->
<g id="edge3" class="edge">
<title>Node2&#45;&gt;Node4</title>
<path fill="none" stroke="midnightblue" d="M350.31,-280.4C348.51,-251.7 346.91,-158.37 397,-112 461.26,-52.51 505.97,-91.74 596.3,-76.09"/>
<polygon fill="midnightblue" stroke="midnightblue" points="597.2,-79.48 606.36,-74.15 595.87,-72.61 597.2,-79.48"/>
</g>
<!-- Node5 -->
<g id="node5" class="node">
<title>Node5</title>
<g id="a_node5"><a xlink:href="GraphicsFacade_8hpp.html" target="_top" xlink:title=" ">
<polygon fill="none" stroke="black" points="208.5,-112.5 208.5,-131.5 349.5,-131.5 349.5,-112.5 208.5,-112.5"/>
<text text-anchor="middle" x="279" y="-119.5" font-family="Helvetica,sans-Serif" font-size="10.00">Facade/GraphicsFacade.hpp</text>
</a>
</g>
</g>
<!-- Node2&#45;&gt;Node5 -->
<g id="edge4" class="edge">
<title>Node2&#45;&gt;Node5</title>
<path fill="none" stroke="midnightblue" d="M347.13,-280.08C335.75,-253.83 302.22,-176.55 286.86,-141.12"/>
<polygon fill="midnightblue" stroke="midnightblue" points="289.91,-139.35 282.72,-131.57 283.48,-142.14 289.91,-139.35"/>
</g>
<!-- Node14 -->
<g id="node14" class="node">
<title>Node14</title>
<g id="a_node14"><a xlink:href="TextureManager_8hpp.html" target="_top" xlink:title=" ">
<polygon fill="none" stroke="black" points="127,-168.5 127,-187.5 267,-187.5 267,-168.5 127,-168.5"/>
<text text-anchor="middle" x="197" y="-175.5" font-family="Helvetica,sans-Serif" font-size="10.00">Texture/TextureManager.hpp</text>
</a>
</g>
</g>
<!-- Node2&#45;&gt;Node14 -->
<g id="edge15" class="edge">
<title>Node2&#45;&gt;Node14</title>
<path fill="none" stroke="midnightblue" d="M338.92,-280.37C312.6,-261.57 249.88,-216.77 217.35,-193.53"/>
<polygon fill="midnightblue" stroke="midnightblue" points="219.2,-190.56 209.03,-187.59 215.13,-196.25 219.2,-190.56"/>
</g>
<!-- Node16 -->
<g id="node16" class="node">
<title>Node16</title>
<g id="a_node16"><a xlink:href="InputFacade_8hpp.html" target="_top" xlink:title=" ">
<polygon fill="none" stroke="black" points="451,-168.5 451,-187.5 575,-187.5 575,-168.5 451,-168.5"/>
<text text-anchor="middle" x="513" y="-175.5" font-family="Helvetica,sans-Serif" font-size="10.00">Facade/InputFacade.hpp</text>
</a>
</g>
</g>
<!-- Node2&#45;&gt;Node16 -->
<g id="edge19" class="edge">
<title>Node2&#45;&gt;Node16</title>
<path fill="none" stroke="midnightblue" d="M363.71,-280.37C391.51,-261.49 457.94,-216.38 492.03,-193.24"/>
<polygon fill="midnightblue" stroke="midnightblue" points="494.04,-196.1 500.35,-187.59 490.11,-190.31 494.04,-196.1"/>
</g>
<!-- Node21 -->
<g id="node21" class="node">
<title>Node21</title>
<g id="a_node21"><a xlink:href="Scene_8hpp.html" target="_top" xlink:title=" ">
<polygon fill="none" stroke="black" points="653,-224.5 653,-243.5 715,-243.5 715,-224.5 653,-224.5"/>
<text text-anchor="middle" x="684" y="-231.5" font-family="Helvetica,sans-Serif" font-size="10.00">Scene.hpp</text>
</a>
</g>
</g>
<!-- Node2&#45;&gt;Node21 -->
<g id="edge27" class="edge">
<title>Node2&#45;&gt;Node21</title>
<path fill="none" stroke="midnightblue" d="M402.67,-280.62C468.81,-269.9 582.09,-251.53 642.76,-241.69"/>
<polygon fill="midnightblue" stroke="midnightblue" points="643.44,-245.12 652.75,-240.07 642.32,-238.21 643.44,-245.12"/>
</g>
<!-- Node5&#45;&gt;Node3 -->
<g id="edge12" class="edge">
<title>Node5&#45;&gt;Node3</title>
<path fill="none" stroke="midnightblue" d="M238.26,-112.45C197.02,-103.69 131.44,-89.48 75,-76 73.55,-75.65 72.07,-75.29 70.57,-74.93"/>
<polygon fill="midnightblue" stroke="midnightblue" points="71.25,-71.49 60.7,-72.45 69.55,-78.28 71.25,-71.49"/>
</g>
<!-- Node5&#45;&gt;Node4 -->
<g id="edge8" class="edge">
<title>Node5&#45;&gt;Node4</title>
<path fill="none" stroke="midnightblue" d="M349.65,-113.06C412.23,-105.56 506.24,-93.18 596.52,-76.14"/>
<polygon fill="midnightblue" stroke="midnightblue" points="597.21,-79.57 606.38,-74.26 595.9,-72.69 597.21,-79.57"/>
</g>
<!-- Node6 -->
<g id="node6" class="node">
<title>Node6</title>
<g id="a_node6"><a xlink:title=" ">
<polygon fill="none" stroke="#bfbfbf" points="396.5,-56.5 396.5,-75.5 467.5,-75.5 467.5,-56.5 396.5,-56.5"/>
<text text-anchor="middle" x="432" y="-63.5" font-family="Helvetica,sans-Serif" font-size="10.00">SDL2/SDL.h</text>
</a>
</g>
</g>
<!-- Node5&#45;&gt;Node6 -->
<g id="edge5" class="edge">
<title>Node5&#45;&gt;Node6</title>
<path fill="none" stroke="midnightblue" d="M303.24,-112.44C328.87,-103.4 369.49,-89.06 398.24,-78.92"/>
<polygon fill="midnightblue" stroke="midnightblue" points="399.61,-82.15 407.87,-75.52 397.28,-75.54 399.61,-82.15"/>
</g>
<!-- Node7 -->
<g id="node7" class="node">
<title>Node7</title>
<g id="a_node7"><a xlink:title=" ">
<polygon fill="none" stroke="#bfbfbf" points="485.5,-56.5 485.5,-75.5 588.5,-75.5 588.5,-56.5 485.5,-56.5"/>
<text text-anchor="middle" x="537" y="-63.5" font-family="Helvetica,sans-Serif" font-size="10.00">SDL2/SDL_image.h</text>
</a>
</g>
</g>
<!-- Node5&#45;&gt;Node7 -->
<g id="edge6" class="edge">
<title>Node5&#45;&gt;Node7</title>
<path fill="none" stroke="midnightblue" d="M319.88,-112.44C364.98,-103 437.61,-87.8 486.3,-77.61"/>
<polygon fill="midnightblue" stroke="midnightblue" points="487.24,-80.99 496.31,-75.52 485.81,-74.14 487.24,-80.99"/>
</g>
<!-- Node8 -->
<g id="node8" class="node">
<title>Node8</title>
<g id="a_node8"><a xlink:title=" ">
<polygon fill="none" stroke="#bfbfbf" points="117,-56.5 117,-75.5 171,-75.5 171,-56.5 117,-56.5"/>
<text text-anchor="middle" x="144" y="-63.5" font-family="Helvetica,sans-Serif" font-size="10.00">iostream</text>
</a>
</g>
</g>
<!-- Node5&#45;&gt;Node8 -->
<g id="edge7" class="edge">
<title>Node5&#45;&gt;Node8</title>
<path fill="none" stroke="midnightblue" d="M257.61,-112.44C235.29,-103.52 200.1,-89.44 174.79,-79.32"/>
<polygon fill="midnightblue" stroke="midnightblue" points="175.88,-75.98 165.29,-75.52 173.28,-82.48 175.88,-75.98"/>
</g>
<!-- Node9 -->
<g id="node9" class="node">
<title>Node9</title>
<g id="a_node9"><a xlink:href="NumberUtil_8hpp.html" target="_top" xlink:title=" ">
<polygon fill="none" stroke="black" points="189,-56.5 189,-75.5 301,-75.5 301,-56.5 189,-56.5"/>
<text text-anchor="middle" x="245" y="-63.5" font-family="Helvetica,sans-Serif" font-size="10.00">Utility/NumberUtil.hpp</text>
</a>
</g>
</g>
<!-- Node5&#45;&gt;Node9 -->
<g id="edge9" class="edge">
<title>Node5&#45;&gt;Node9</title>
<path fill="none" stroke="midnightblue" d="M273.39,-112.08C268.63,-104.53 261.68,-93.49 255.85,-84.23"/>
<polygon fill="midnightblue" stroke="midnightblue" points="258.8,-82.35 250.51,-75.75 252.88,-86.08 258.8,-82.35"/>
</g>
<!-- Node10 -->
<g id="node10" class="node">
<title>Node10</title>
<g id="a_node10"><a xlink:title=" ">
<polygon fill="none" stroke="#bfbfbf" points="979.5,-0.5 979.5,-19.5 1030.5,-19.5 1030.5,-0.5 979.5,-0.5"/>
<text text-anchor="middle" x="1005" y="-7.5" font-family="Helvetica,sans-Serif" font-size="10.00">memory</text>
</a>
</g>
</g>
<!-- Node5&#45;&gt;Node10 -->
<g id="edge10" class="edge">
<title>Node5&#45;&gt;Node10</title>
<path fill="none" stroke="midnightblue" d="M215.39,-112.45C172.46,-105.22 121.31,-93.26 108,-76 102.57,-68.96 101.87,-62.44 108,-56 138.16,-24.28 805.67,-13.58 969.12,-11.43"/>
<polygon fill="midnightblue" stroke="midnightblue" points="969.19,-14.93 979.15,-11.3 969.1,-7.93 969.19,-14.93"/>
</g>
<!-- Node11 -->
<g id="node11" class="node">
<title>Node11</title>
<g id="a_node11"><a xlink:title=" ">
<polygon fill="none" stroke="#bfbfbf" points="319.5,-56.5 319.5,-75.5 378.5,-75.5 378.5,-56.5 319.5,-56.5"/>
<text text-anchor="middle" x="349" y="-63.5" font-family="Helvetica,sans-Serif" font-size="10.00">functional</text>
</a>
</g>
</g>
<!-- Node5&#45;&gt;Node11 -->
<g id="edge11" class="edge">
<title>Node5&#45;&gt;Node11</title>
<path fill="none" stroke="midnightblue" d="M290.25,-112.32C300.8,-104.18 316.8,-91.84 329.44,-82.09"/>
<polygon fill="midnightblue" stroke="midnightblue" points="331.77,-84.71 337.55,-75.83 327.49,-79.17 331.77,-84.71"/>
</g>
<!-- Node12 -->
<g id="node12" class="node">
<title>Node12</title>
<g id="a_node12"><a xlink:title=" ">
<polygon fill="none" stroke="#bfbfbf" points="735,-56.5 735,-75.5 779,-75.5 779,-56.5 735,-56.5"/>
<text text-anchor="middle" x="757" y="-63.5" font-family="Helvetica,sans-Serif" font-size="10.00">vector</text>
</a>
</g>
</g>
<!-- Node5&#45;&gt;Node12 -->
<g id="edge13" class="edge">
<title>Node5&#45;&gt;Node12</title>
<path fill="none" stroke="midnightblue" d="M349.78,-115.46C452.79,-107.13 640.07,-90.96 724.72,-75.86"/>
<polygon fill="midnightblue" stroke="midnightblue" points="725.58,-79.26 734.77,-73.98 724.29,-72.38 725.58,-79.26"/>
</g>
<!-- Node13 -->
<g id="node13" class="node">
<title>Node13</title>
<g id="a_node13"><a xlink:title=" ">
<polygon fill="none" stroke="#bfbfbf" points="681.5,-56.5 681.5,-75.5 716.5,-75.5 716.5,-56.5 681.5,-56.5"/>
<text text-anchor="middle" x="699" y="-63.5" font-family="Helvetica,sans-Serif" font-size="10.00">map</text>
</a>
</g>
</g>
<!-- Node5&#45;&gt;Node13 -->
<g id="edge14" class="edge">
<title>Node5&#45;&gt;Node13</title>
<path fill="none" stroke="midnightblue" d="M349.8,-114.8C441.59,-106.44 597.74,-91.11 671.05,-75.95"/>
<polygon fill="midnightblue" stroke="midnightblue" points="672.23,-79.28 681.25,-73.72 670.73,-72.44 672.23,-79.28"/>
</g>
<!-- Node14&#45;&gt;Node3 -->
<g id="edge16" class="edge">
<title>Node14&#45;&gt;Node3</title>
<path fill="none" stroke="midnightblue" d="M194.18,-168.15C189.34,-154.3 178.18,-127.5 160,-112 146.23,-100.26 101.54,-85.28 70.76,-75.91"/>
<polygon fill="midnightblue" stroke="midnightblue" points="71.5,-72.48 60.92,-72.96 69.49,-79.18 71.5,-72.48"/>
</g>
<!-- Node14&#45;&gt;Node5 -->
<g id="edge18" class="edge">
<title>Node14&#45;&gt;Node5</title>
<path fill="none" stroke="midnightblue" d="M210.17,-168.32C222.85,-159.98 242.23,-147.21 257.21,-137.35"/>
<polygon fill="midnightblue" stroke="midnightblue" points="259.43,-140.08 265.86,-131.65 255.58,-134.23 259.43,-140.08"/>
</g>
<!-- Node15 -->
<g id="node15" class="node">
<title>Node15</title>
<g id="a_node15"><a xlink:title=" ">
<polygon fill="none" stroke="#bfbfbf" points="112.5,-112.5 112.5,-131.5 151.5,-131.5 151.5,-112.5 112.5,-112.5"/>
<text text-anchor="middle" x="132" y="-119.5" font-family="Helvetica,sans-Serif" font-size="10.00">utility</text>
</a>
</g>
</g>
<!-- Node14&#45;&gt;Node15 -->
<g id="edge17" class="edge">
<title>Node14&#45;&gt;Node15</title>
<path fill="none" stroke="midnightblue" d="M186.56,-168.32C176.85,-160.26 162.18,-148.08 150.5,-138.37"/>
<polygon fill="midnightblue" stroke="midnightblue" points="152.56,-135.53 142.63,-131.83 148.09,-140.92 152.56,-135.53"/>
</g>
<!-- Node16&#45;&gt;Node12 -->
<g id="edge20" class="edge">
<title>Node16&#45;&gt;Node12</title>
<path fill="none" stroke="midnightblue" d="M534.03,-168.48C555.7,-159.63 590.38,-145.25 620,-132 658.7,-114.69 702.91,-93.44 730.4,-80.06"/>
<polygon fill="midnightblue" stroke="midnightblue" points="731.93,-83.2 739.38,-75.67 728.86,-76.91 731.93,-83.2"/>
</g>
<!-- Node16&#45;&gt;Node13 -->
<g id="edge21" class="edge">
<title>Node16&#45;&gt;Node13</title>
<path fill="none" stroke="midnightblue" d="M527.6,-168.37C559.65,-149.41 636.44,-104 675.42,-80.94"/>
<polygon fill="midnightblue" stroke="midnightblue" points="677.65,-83.69 684.47,-75.59 674.08,-77.67 677.65,-83.69"/>
</g>
<!-- Node17 -->
<g id="node17" class="node">
<title>Node17</title>
<g id="a_node17"><a xlink:title=" ">
<polygon fill="none" stroke="#bfbfbf" points="536,-112.5 536,-131.5 580,-131.5 580,-112.5 536,-112.5"/>
<text text-anchor="middle" x="558" y="-119.5" font-family="Helvetica,sans-Serif" font-size="10.00">SDL.h</text>
</a>
</g>
</g>
<!-- Node16&#45;&gt;Node17 -->
<g id="edge22" class="edge">
<title>Node16&#45;&gt;Node17</title>
<path fill="none" stroke="midnightblue" d="M520.43,-168.08C526.85,-160.38 536.31,-149.03 544.12,-139.65"/>
<polygon fill="midnightblue" stroke="midnightblue" points="546.99,-141.67 550.71,-131.75 541.62,-137.19 546.99,-141.67"/>
</g>
<!-- Node18 -->
<g id="node18" class="node">
<title>Node18</title>
<g id="a_node18"><a xlink:title=" ">
<polygon fill="none" stroke="#bfbfbf" points="406,-112.5 406,-131.5 518,-131.5 518,-112.5 406,-112.5"/>
<text text-anchor="middle" x="462" y="-119.5" font-family="Helvetica,sans-Serif" font-size="10.00">Events/EventsEnum.h</text>
</a>
</g>
</g>
<!-- Node16&#45;&gt;Node18 -->
<g id="edge23" class="edge">
<title>Node16&#45;&gt;Node18</title>
<path fill="none" stroke="midnightblue" d="M504.58,-168.08C497.15,-160.22 486.15,-148.57 477.19,-139.08"/>
<polygon fill="midnightblue" stroke="midnightblue" points="479.68,-136.62 470.26,-131.75 474.59,-141.42 479.68,-136.62"/>
</g>
<!-- Node16&#45;&gt;Node19 -->
<g id="edge24" class="edge">
<title>Node16&#45;&gt;Node19</title>
<path fill="none" stroke="midnightblue" d="M450.81,-170.37C370.46,-161.76 226.25,-146.16 103,-132 91.01,-130.62 77.95,-129.07 66.13,-127.65"/>
<polygon fill="midnightblue" stroke="midnightblue" points="66.48,-124.17 56.13,-126.44 65.64,-131.12 66.48,-124.17"/>
</g>
<!-- Node19&#45;&gt;Node3 -->
<g id="edge26" class="edge">
<title>Node19&#45;&gt;Node3</title>
<path fill="none" stroke="midnightblue" d="M29.98,-112.08C31.57,-104.93 33.86,-94.64 35.85,-85.69"/>
<polygon fill="midnightblue" stroke="midnightblue" points="39.3,-86.27 38.06,-75.75 32.47,-84.75 39.3,-86.27"/>
</g>
<!-- Node20 -->
<g id="node20" class="node">
<title>Node20</title>
<g id="a_node20"><a xlink:href="Point_8hpp.html" target="_top" xlink:title=" ">
<polygon fill="none" stroke="black" points="385.5,-0.5 385.5,-19.5 442.5,-19.5 442.5,-0.5 385.5,-0.5"/>
<text text-anchor="middle" x="414" y="-7.5" font-family="Helvetica,sans-Serif" font-size="10.00">Point.hpp</text>
</a>
</g>
</g>
<!-- Node19&#45;&gt;Node20 -->
<g id="edge25" class="edge">
<title>Node19&#45;&gt;Node20</title>
<path fill="none" stroke="midnightblue" d="M21.12,-112.28C11.22,-98.61 -4.37,-72.06 10,-56 34.13,-29.04 278.82,-16.4 375.25,-12.43"/>
<polygon fill="midnightblue" stroke="midnightblue" points="375.59,-15.92 385.45,-12.02 375.31,-8.93 375.59,-15.92"/>
</g>
<!-- Node22 -->
<g id="node22" class="node">
<title>Node22</title>
<g id="a_node22"><a xlink:href="GameObject_8hpp.html" target="_top" xlink:title=" ">
<polygon fill="none" stroke="black" points="788.5,-112.5 788.5,-131.5 877.5,-131.5 877.5,-112.5 788.5,-112.5"/>
<text text-anchor="middle" x="833" y="-119.5" font-family="Helvetica,sans-Serif" font-size="10.00">GameObject.hpp</text>
</a>
</g>
</g>
<!-- Node21&#45;&gt;Node22 -->
<g id="edge28" class="edge">
<title>Node21&#45;&gt;Node22</title>
<path fill="none" stroke="midnightblue" d="M694.41,-224.31C709.78,-211.59 739.59,-187.29 766,-168 780.71,-157.26 797.76,-145.82 810.98,-137.16"/>
<polygon fill="midnightblue" stroke="midnightblue" points="812.96,-140.05 819.44,-131.66 809.15,-134.18 812.96,-140.05"/>
</g>
<!-- Node25 -->
<g id="node25" class="node">
<title>Node25</title>
<g id="a_node25"><a xlink:href="Camera_8hpp.html" target="_top" xlink:title=" ">
<polygon fill="none" stroke="black" points="650,-168.5 650,-187.5 718,-187.5 718,-168.5 650,-168.5"/>
<text text-anchor="middle" x="684" y="-175.5" font-family="Helvetica,sans-Serif" font-size="10.00">Camera.hpp</text>
</a>
</g>
</g>
<!-- Node21&#45;&gt;Node25 -->
<g id="edge37" class="edge">
<title>Node21&#45;&gt;Node25</title>
<path fill="none" stroke="midnightblue" d="M684,-224.08C684,-217.01 684,-206.86 684,-197.99"/>
<polygon fill="midnightblue" stroke="midnightblue" points="687.5,-197.75 684,-187.75 680.5,-197.75 687.5,-197.75"/>
</g>
<!-- Node22&#45;&gt;Node3 -->
<g id="edge33" class="edge">
<title>Node22&#45;&gt;Node3</title>
<path fill="none" stroke="midnightblue" d="M788.36,-119.31C674.67,-114.78 365,-100.95 108,-76 95.84,-74.82 82.5,-73.14 70.89,-71.55"/>
<polygon fill="midnightblue" stroke="midnightblue" points="71.18,-68.06 60.79,-70.13 70.21,-74.99 71.18,-68.06"/>
</g>
<!-- Node22&#45;&gt;Node10 -->
<g id="edge35" class="edge">
<title>Node22&#45;&gt;Node10</title>
<path fill="none" stroke="midnightblue" d="M877.65,-119.06C911.69,-115.22 957.44,-104.61 986,-76 998.06,-63.92 1002.55,-44.63 1004.18,-30.2"/>
<polygon fill="midnightblue" stroke="midnightblue" points="1007.7,-30.14 1004.96,-19.9 1000.72,-29.61 1007.7,-30.14"/>
</g>
<!-- Node22&#45;&gt;Node12 -->
<g id="edge34" class="edge">
<title>Node22&#45;&gt;Node12</title>
<path fill="none" stroke="midnightblue" d="M820.79,-112.32C809.22,-104.11 791.62,-91.6 777.84,-81.81"/>
<polygon fill="midnightblue" stroke="midnightblue" points="779.61,-78.77 769.43,-75.83 775.56,-84.48 779.61,-78.77"/>
</g>
<!-- Node22&#45;&gt;Node13 -->
<g id="edge36" class="edge">
<title>Node22&#45;&gt;Node13</title>
<path fill="none" stroke="midnightblue" d="M811.77,-112.44C788.57,-103.1 751.36,-88.1 726.09,-77.92"/>
<polygon fill="midnightblue" stroke="midnightblue" points="727.29,-74.63 716.71,-74.14 724.68,-81.12 727.29,-74.63"/>
</g>
<!-- Node23 -->
<g id="node23" class="node">
<title>Node23</title>
<g id="a_node23"><a xlink:href="Component_8hpp.html" target="_top" xlink:title=" ">
<polygon fill="none" stroke="black" points="893,-56.5 893,-75.5 977,-75.5 977,-56.5 893,-56.5"/>
<text text-anchor="middle" x="935" y="-63.5" font-family="Helvetica,sans-Serif" font-size="10.00">Component.hpp</text>
</a>
</g>
</g>
<!-- Node22&#45;&gt;Node23 -->
<g id="edge29" class="edge">
<title>Node22&#45;&gt;Node23</title>
<path fill="none" stroke="midnightblue" d="M849.39,-112.32C865.67,-103.7 890.87,-90.36 909.72,-80.39"/>
<polygon fill="midnightblue" stroke="midnightblue" points="911.45,-83.43 918.65,-75.65 908.18,-77.24 911.45,-83.43"/>
</g>
<!-- Node24 -->
<g id="node24" class="node">
<title>Node24</title>
<g id="a_node24"><a xlink:href="Transform_8hpp.html" target="_top" xlink:title=" ">
<polygon fill="none" stroke="black" points="796.5,-56.5 796.5,-75.5 875.5,-75.5 875.5,-56.5 796.5,-56.5"/>
<text text-anchor="middle" x="836" y="-63.5" font-family="Helvetica,sans-Serif" font-size="10.00">Transform.hpp</text>
</a>
</g>
</g>
<!-- Node22&#45;&gt;Node24 -->
<g id="edge31" class="edge">
<title>Node22&#45;&gt;Node24</title>
<path fill="none" stroke="midnightblue" d="M833.5,-112.08C833.89,-105.01 834.45,-94.86 834.95,-85.99"/>
<polygon fill="midnightblue" stroke="midnightblue" points="838.45,-85.93 835.51,-75.75 831.46,-85.54 838.45,-85.93"/>
</g>
<!-- Node23&#45;&gt;Node10 -->
<g id="edge30" class="edge">
<title>Node23&#45;&gt;Node10</title>
<path fill="none" stroke="midnightblue" d="M946.25,-56.32C956.8,-48.18 972.8,-35.84 985.44,-26.09"/>
<polygon fill="midnightblue" stroke="midnightblue" points="987.77,-28.71 993.55,-19.83 983.49,-23.17 987.77,-28.71"/>
</g>
<!-- Node24&#45;&gt;Node20 -->
<g id="edge32" class="edge">
<title>Node24&#45;&gt;Node20</title>
<path fill="none" stroke="midnightblue" d="M796.48,-57.38C793.62,-56.89 790.77,-56.43 788,-56 666.21,-37.28 521.09,-21.74 452.97,-14.84"/>
<polygon fill="midnightblue" stroke="midnightblue" points="453.01,-11.32 442.71,-13.81 452.31,-18.29 453.01,-11.32"/>
</g>
<!-- Node25&#45;&gt;Node4 -->
<g id="edge39" class="edge">
<title>Node25&#45;&gt;Node4</title>
<path fill="none" stroke="midnightblue" d="M680.16,-168.37C672.18,-150.46 653.67,-108.92 643,-84.95"/>
<polygon fill="midnightblue" stroke="midnightblue" points="646.09,-83.3 638.83,-75.59 639.7,-86.15 646.09,-83.3"/>
</g>
<!-- Node25&#45;&gt;Node22 -->
<g id="edge38" class="edge">
<title>Node25&#45;&gt;Node22</title>
<path fill="none" stroke="midnightblue" d="M707.61,-168.44C732.46,-159.44 771.77,-145.19 799.75,-135.05"/>
<polygon fill="midnightblue" stroke="midnightblue" points="801.29,-138.21 809.5,-131.52 798.91,-131.63 801.29,-138.21"/>
</g>
<!-- Node26&#45;&gt;Node3 -->
<g id="edge42" class="edge">
<title>Node26&#45;&gt;Node3</title>
<path fill="none" stroke="midnightblue" d="M818.57,-168.39C771.92,-154.13 673.95,-125.81 589,-112 377.4,-77.59 321.24,-98.07 108,-76 95.85,-74.74 82.51,-73.05 70.9,-71.47"/>
<polygon fill="midnightblue" stroke="midnightblue" points="71.18,-67.97 60.8,-70.06 70.22,-74.91 71.18,-67.97"/>
</g>
<!-- Node26&#45;&gt;Node10 -->
<g id="edge44" class="edge">
<title>Node26&#45;&gt;Node10</title>
<path fill="none" stroke="midnightblue" d="M874.93,-168.41C912.93,-155.38 978.09,-126.63 1006,-76 1013.75,-61.95 1012.58,-43.45 1010.01,-29.79"/>
<polygon fill="midnightblue" stroke="midnightblue" points="1013.33,-28.61 1007.69,-19.64 1006.51,-30.17 1013.33,-28.61"/>
</g>
<!-- Node26&#45;&gt;Node13 -->
<g id="edge43" class="edge">
<title>Node26&#45;&gt;Node13</title>
<path fill="none" stroke="midnightblue" d="M832.64,-168.33C819.16,-159.48 797.83,-145.2 780,-132 757.99,-115.71 733.59,-95.87 717.38,-82.43"/>
<polygon fill="midnightblue" stroke="midnightblue" points="719.2,-79.39 709.28,-75.68 714.72,-84.77 719.2,-79.39"/>
</g>
<!-- Node27 -->
<g id="node27" class="node">
<title>Node27</title>
<g id="a_node27"><a xlink:href="GameLevel_8hpp.html" target="_top" xlink:title=" ">
<polygon fill="none" stroke="black" points="1070,-112.5 1070,-131.5 1208,-131.5 1208,-112.5 1070,-112.5"/>
<text text-anchor="middle" x="1139" y="-119.5" font-family="Helvetica,sans-Serif" font-size="10.00">GameLevel/GameLevel.hpp</text>
</a>
</g>
</g>
<!-- Node26&#45;&gt;Node27 -->
<g id="edge45" class="edge">
<title>Node26&#45;&gt;Node27</title>
<path fill="none" stroke="midnightblue" d="M892.43,-168.44C944.08,-158.92 1027.51,-143.55 1082.81,-133.36"/>
<polygon fill="midnightblue" stroke="midnightblue" points="1083.59,-136.77 1092.79,-131.52 1082.32,-129.89 1083.59,-136.77"/>
</g>
<!-- Node27&#45;&gt;Node10 -->
<g id="edge48" class="edge">
<title>Node27&#45;&gt;Node10</title>
<path fill="none" stroke="midnightblue" d="M1128.49,-112.37C1105.78,-93.73 1051.94,-49.53 1023.44,-26.13"/>
<polygon fill="midnightblue" stroke="midnightblue" points="1025.42,-23.23 1015.47,-19.59 1020.97,-28.64 1025.42,-23.23"/>
</g>
<!-- Node27&#45;&gt;Node12 -->
<g id="edge47" class="edge">
<title>Node27&#45;&gt;Node12</title>
<path fill="none" stroke="midnightblue" d="M1069.87,-115.33C1000.93,-108.95 891.92,-96.92 789.17,-75.96"/>
<polygon fill="midnightblue" stroke="midnightblue" points="789.75,-72.51 779.25,-73.91 788.33,-79.36 789.75,-72.51"/>
</g>
<!-- Node28 -->
<g id="node28" class="node">
<title>Node28</title>
<g id="a_node28"><a xlink:href="Layer_8hpp.html" target="_top" xlink:title=" ">
<polygon fill="none" stroke="black" points="1109.5,-56.5 1109.5,-75.5 1168.5,-75.5 1168.5,-56.5 1109.5,-56.5"/>
<text text-anchor="middle" x="1139" y="-63.5" font-family="Helvetica,sans-Serif" font-size="10.00">Layer.hpp</text>
</a>
</g>
</g>
<!-- Node27&#45;&gt;Node28 -->
<g id="edge46" class="edge">
<title>Node27&#45;&gt;Node28</title>
<path fill="none" stroke="midnightblue" d="M1139,-112.08C1139,-105.01 1139,-94.86 1139,-85.99"/>
<polygon fill="midnightblue" stroke="midnightblue" points="1142.5,-85.75 1139,-75.75 1135.5,-85.75 1142.5,-85.75"/>
</g>
</g>
</svg>
