<?xml version="1.0" encoding="UTF-8" standalone="no"?>
<!DOCTYPE svg PUBLIC "-//W3C//DTD SVG 1.1//EN"
 "http://www.w3.org/Graphics/SVG/1.1/DTD/svg11.dtd">
<!-- Generated by graphviz version 2.44.0 ()
 -->
<!-- Title: includes/platformer&#45;engine/Render/Window.hpp Pages: 1 -->
<svg width="998pt" height="207pt"
 viewBox="0.00 0.00 997.50 207.00" xmlns="http://www.w3.org/2000/svg" xmlns:xlink="http://www.w3.org/1999/xlink">
<g id="graph0" class="graph" transform="scale(1 1) rotate(0) translate(4 203)">
<title>includes/platformer&#45;engine/Render/Window.hpp</title>
<!-- Node1 -->
<g id="node1" class="node">
<title>Node1</title>
<g id="a_node1"><a xlink:title=" ">
<polygon fill="#bfbfbf" stroke="black" points="471,-168.5 471,-198.5 608,-198.5 608,-168.5 471,-168.5"/>
<text text-anchor="start" x="479" y="-186.5" font-family="Helvetica,sans-Serif" font-size="10.00">includes/platformer</text>
<text text-anchor="middle" x="539.5" y="-175.5" font-family="Helvetica,sans-Serif" font-size="10.00">&#45;engine/Render/Window.hpp</text>
</a>
</g>
</g>
<!-- Node2 -->
<g id="node2" class="node">
<title>Node2</title>
<g id="a_node2"><a xlink:title=" ">
<polygon fill="none" stroke="#bfbfbf" points="749,-0.5 749,-19.5 790,-19.5 790,-0.5 749,-0.5"/>
<text text-anchor="middle" x="769.5" y="-7.5" font-family="Helvetica,sans-Serif" font-size="10.00">string</text>
</a>
</g>
</g>
<!-- Node1&#45;&gt;Node2 -->
<g id="edge1" class="edge">
<title>Node1&#45;&gt;Node2</title>
<path fill="none" stroke="midnightblue" d="M563.09,-168.33C579.03,-158.55 600.38,-145 618.5,-132 668.47,-96.16 724.19,-49.7 751.88,-26.14"/>
<polygon fill="midnightblue" stroke="midnightblue" points="754.21,-28.76 759.54,-19.6 749.66,-23.43 754.21,-28.76"/>
</g>
<!-- Node3 -->
<g id="node3" class="node">
<title>Node3</title>
<g id="a_node3"><a xlink:href="Color_8hpp.html" target="_top" xlink:title=" ">
<polygon fill="none" stroke="black" points="0,-0.5 0,-19.5 57,-19.5 57,-0.5 0,-0.5"/>
<text text-anchor="middle" x="28.5" y="-7.5" font-family="Helvetica,sans-Serif" font-size="10.00">Color.hpp</text>
</a>
</g>
</g>
<!-- Node1&#45;&gt;Node3 -->
<g id="edge2" class="edge">
<title>Node1&#45;&gt;Node3</title>
<path fill="none" stroke="midnightblue" d="M497.68,-168.47C399.35,-135.46 154.88,-53.42 63.61,-22.78"/>
<polygon fill="midnightblue" stroke="midnightblue" points="64.6,-19.42 54,-19.56 62.37,-26.06 64.6,-19.42"/>
</g>
<!-- Node4 -->
<g id="node4" class="node">
<title>Node4</title>
<g id="a_node4"><a xlink:href="GraphicsFacade_8hpp.html" target="_top" xlink:title=" ">
<polygon fill="none" stroke="black" points="371,-56.5 371,-75.5 512,-75.5 512,-56.5 371,-56.5"/>
<text text-anchor="middle" x="441.5" y="-63.5" font-family="Helvetica,sans-Serif" font-size="10.00">Facade/GraphicsFacade.hpp</text>
</a>
</g>
</g>
<!-- Node1&#45;&gt;Node4 -->
<g id="edge3" class="edge">
<title>Node1&#45;&gt;Node4</title>
<path fill="none" stroke="midnightblue" d="M506.62,-168.33C490.61,-159.9 472.31,-147.76 460.5,-132 450.47,-118.62 445.72,-100.05 443.48,-86.19"/>
<polygon fill="midnightblue" stroke="midnightblue" points="446.9,-85.32 442.13,-75.86 439.96,-86.23 446.9,-85.32"/>
</g>
<!-- Node13 -->
<g id="node13" class="node">
<title>Node13</title>
<g id="a_node13"><a xlink:href="TextureManager_8hpp.html" target="_top" xlink:title=" ">
<polygon fill="none" stroke="black" points="469.5,-112.5 469.5,-131.5 609.5,-131.5 609.5,-112.5 469.5,-112.5"/>
<text text-anchor="middle" x="539.5" y="-119.5" font-family="Helvetica,sans-Serif" font-size="10.00">Texture/TextureManager.hpp</text>
</a>
</g>
</g>
<!-- Node1&#45;&gt;Node13 -->
<g id="edge14" class="edge">
<title>Node1&#45;&gt;Node13</title>
<path fill="none" stroke="midnightblue" d="M539.5,-168.4C539.5,-160.47 539.5,-150.46 539.5,-141.86"/>
<polygon fill="midnightblue" stroke="midnightblue" points="543,-141.66 539.5,-131.66 536,-141.66 543,-141.66"/>
</g>
<!-- Node15 -->
<g id="node15" class="node">
<title>Node15</title>
<g id="a_node15"><a xlink:href="InputFacade_8hpp.html" target="_top" xlink:title=" ">
<polygon fill="none" stroke="black" points="686.5,-112.5 686.5,-131.5 810.5,-131.5 810.5,-112.5 686.5,-112.5"/>
<text text-anchor="middle" x="748.5" y="-119.5" font-family="Helvetica,sans-Serif" font-size="10.00">Facade/InputFacade.hpp</text>
</a>
</g>
</g>
<!-- Node1&#45;&gt;Node15 -->
<g id="edge18" class="edge">
<title>Node1&#45;&gt;Node15</title>
<path fill="none" stroke="midnightblue" d="M588.77,-168.47C625.45,-158.03 674.88,-143.96 708.99,-134.25"/>
<polygon fill="midnightblue" stroke="midnightblue" points="709.96,-137.61 718.62,-131.51 708.04,-130.88 709.96,-137.61"/>
</g>
<!-- Node4&#45;&gt;Node2 -->
<g id="edge11" class="edge">
<title>Node4&#45;&gt;Node2</title>
<path fill="none" stroke="midnightblue" d="M512.14,-57.43C570.77,-50.45 656.41,-38.64 738.91,-20.1"/>
<polygon fill="midnightblue" stroke="midnightblue" points="739.72,-23.51 748.69,-17.87 738.17,-16.68 739.72,-23.51"/>
</g>
<!-- Node4&#45;&gt;Node3 -->
<g id="edge7" class="edge">
<title>Node4&#45;&gt;Node3</title>
<path fill="none" stroke="midnightblue" d="M370.79,-59.08C297.15,-52.34 178.33,-39.85 67.15,-20.12"/>
<polygon fill="midnightblue" stroke="midnightblue" points="67.57,-16.64 57.11,-18.32 66.33,-23.53 67.57,-16.64"/>
</g>
<!-- Node5 -->
<g id="node5" class="node">
<title>Node5</title>
<g id="a_node5"><a xlink:title=" ">
<polygon fill="none" stroke="#bfbfbf" points="544,-0.5 544,-19.5 615,-19.5 615,-0.5 544,-0.5"/>
<text text-anchor="middle" x="579.5" y="-7.5" font-family="Helvetica,sans-Serif" font-size="10.00">SDL2/SDL.h</text>
</a>
</g>
</g>
<!-- Node4&#45;&gt;Node5 -->
<g id="edge4" class="edge">
<title>Node4&#45;&gt;Node5</title>
<path fill="none" stroke="midnightblue" d="M463.37,-56.44C486.28,-47.48 522.48,-33.31 548.37,-23.18"/>
<polygon fill="midnightblue" stroke="midnightblue" points="549.7,-26.42 557.74,-19.52 547.15,-19.9 549.7,-26.42"/>
</g>
<!-- Node6 -->
<g id="node6" class="node">
<title>Node6</title>
<g id="a_node6"><a xlink:title=" ">
<polygon fill="none" stroke="#bfbfbf" points="75,-0.5 75,-19.5 178,-19.5 178,-0.5 75,-0.5"/>
<text text-anchor="middle" x="126.5" y="-7.5" font-family="Helvetica,sans-Serif" font-size="10.00">SDL2/SDL_image.h</text>
</a>
</g>
</g>
<!-- Node4&#45;&gt;Node6 -->
<g id="edge5" class="edge">
<title>Node4&#45;&gt;Node6</title>
<path fill="none" stroke="midnightblue" d="M391.59,-56.44C335.83,-46.89 245.61,-31.42 186.17,-21.23"/>
<polygon fill="midnightblue" stroke="midnightblue" points="186.63,-17.76 176.18,-19.52 185.44,-24.66 186.63,-17.76"/>
</g>
<!-- Node7 -->
<g id="node7" class="node">
<title>Node7</title>
<g id="a_node7"><a xlink:title=" ">
<polygon fill="none" stroke="#bfbfbf" points="196.5,-0.5 196.5,-19.5 250.5,-19.5 250.5,-0.5 196.5,-0.5"/>
<text text-anchor="middle" x="223.5" y="-7.5" font-family="Helvetica,sans-Serif" font-size="10.00">iostream</text>
</a>
</g>
</g>
<!-- Node4&#45;&gt;Node7 -->
<g id="edge6" class="edge">
<title>Node4&#45;&gt;Node7</title>
<path fill="none" stroke="midnightblue" d="M406.94,-56.48C372.33,-47.95 317.27,-34.35 260.49,-20.24"/>
<polygon fill="midnightblue" stroke="midnightblue" points="261.17,-16.81 250.62,-17.79 259.49,-23.6 261.17,-16.81"/>
</g>
<!-- Node8 -->
<g id="node8" class="node">
<title>Node8</title>
<g id="a_node8"><a xlink:href="NumberUtil_8hpp.html" target="_top" xlink:title=" ">
<polygon fill="none" stroke="black" points="268.5,-0.5 268.5,-19.5 380.5,-19.5 380.5,-0.5 268.5,-0.5"/>
<text text-anchor="middle" x="324.5" y="-7.5" font-family="Helvetica,sans-Serif" font-size="10.00">Utility/NumberUtil.hpp</text>
</a>
</g>
</g>
<!-- Node4&#45;&gt;Node8 -->
<g id="edge8" class="edge">
<title>Node4&#45;&gt;Node8</title>
<path fill="none" stroke="midnightblue" d="M422.96,-56.44C403.88,-47.64 373.93,-33.81 352.06,-23.72"/>
<polygon fill="midnightblue" stroke="midnightblue" points="353.5,-20.53 342.95,-19.52 350.57,-26.88 353.5,-20.53"/>
</g>
<!-- Node9 -->
<g id="node9" class="node">
<title>Node9</title>
<g id="a_node9"><a xlink:title=" ">
<polygon fill="none" stroke="#bfbfbf" points="398,-0.5 398,-19.5 449,-19.5 449,-0.5 398,-0.5"/>
<text text-anchor="middle" x="423.5" y="-7.5" font-family="Helvetica,sans-Serif" font-size="10.00">memory</text>
</a>
</g>
</g>
<!-- Node4&#45;&gt;Node9 -->
<g id="edge9" class="edge">
<title>Node4&#45;&gt;Node9</title>
<path fill="none" stroke="midnightblue" d="M438.53,-56.08C436.12,-48.85 432.64,-38.41 429.63,-29.4"/>
<polygon fill="midnightblue" stroke="midnightblue" points="432.9,-28.13 426.42,-19.75 426.26,-30.34 432.9,-28.13"/>
</g>
<!-- Node10 -->
<g id="node10" class="node">
<title>Node10</title>
<g id="a_node10"><a xlink:title=" ">
<polygon fill="none" stroke="#bfbfbf" points="467,-0.5 467,-19.5 526,-19.5 526,-0.5 467,-0.5"/>
<text text-anchor="middle" x="496.5" y="-7.5" font-family="Helvetica,sans-Serif" font-size="10.00">functional</text>
</a>
</g>
</g>
<!-- Node4&#45;&gt;Node10 -->
<g id="edge10" class="edge">
<title>Node4&#45;&gt;Node10</title>
<path fill="none" stroke="midnightblue" d="M450.58,-56.08C458.67,-48.14 470.7,-36.34 480.41,-26.8"/>
<polygon fill="midnightblue" stroke="midnightblue" points="482.9,-29.25 487.59,-19.75 478,-24.26 482.9,-29.25"/>
</g>
<!-- Node11 -->
<g id="node11" class="node">
<title>Node11</title>
<g id="a_node11"><a xlink:title=" ">
<polygon fill="none" stroke="#bfbfbf" points="633.5,-0.5 633.5,-19.5 677.5,-19.5 677.5,-0.5 633.5,-0.5"/>
<text text-anchor="middle" x="655.5" y="-7.5" font-family="Helvetica,sans-Serif" font-size="10.00">vector</text>
</a>
</g>
</g>
<!-- Node4&#45;&gt;Node11 -->
<g id="edge12" class="edge">
<title>Node4&#45;&gt;Node11</title>
<path fill="none" stroke="midnightblue" d="M478.07,-56.48C513.07,-48.22 567.57,-35.09 623.47,-20.2"/>
<polygon fill="midnightblue" stroke="midnightblue" points="624.43,-23.57 633.18,-17.6 622.61,-16.81 624.43,-23.57"/>
</g>
<!-- Node12 -->
<g id="node12" class="node">
<title>Node12</title>
<g id="a_node12"><a xlink:title=" ">
<polygon fill="none" stroke="#bfbfbf" points="696,-0.5 696,-19.5 731,-19.5 731,-0.5 696,-0.5"/>
<text text-anchor="middle" x="713.5" y="-7.5" font-family="Helvetica,sans-Serif" font-size="10.00">map</text>
</a>
</g>
</g>
<!-- Node4&#45;&gt;Node12 -->
<g id="edge13" class="edge">
<title>Node4&#45;&gt;Node12</title>
<path fill="none" stroke="midnightblue" d="M500.92,-56.48C548.6,-49.09 617.37,-37.23 686.18,-19.77"/>
<polygon fill="midnightblue" stroke="midnightblue" points="687.08,-23.15 695.89,-17.26 685.33,-16.37 687.08,-23.15"/>
</g>
<!-- Node13&#45;&gt;Node2 -->
<g id="edge15" class="edge">
<title>Node13&#45;&gt;Node2</title>
<path fill="none" stroke="midnightblue" d="M539.66,-112.37C540.41,-98.34 544.03,-70.67 560.5,-56 619.03,-3.84 658.28,-37.26 738.93,-20.02"/>
<polygon fill="midnightblue" stroke="midnightblue" points="740.05,-23.35 748.98,-17.66 738.44,-16.54 740.05,-23.35"/>
</g>
<!-- Node13&#45;&gt;Node4 -->
<g id="edge17" class="edge">
<title>Node13&#45;&gt;Node4</title>
<path fill="none" stroke="midnightblue" d="M523.75,-112.32C508.18,-103.74 484.12,-90.49 466.04,-80.52"/>
<polygon fill="midnightblue" stroke="midnightblue" points="467.65,-77.42 457.21,-75.65 464.28,-83.55 467.65,-77.42"/>
</g>
<!-- Node14 -->
<g id="node14" class="node">
<title>Node14</title>
<g id="a_node14"><a xlink:title=" ">
<polygon fill="none" stroke="#bfbfbf" points="569,-56.5 569,-75.5 608,-75.5 608,-56.5 569,-56.5"/>
<text text-anchor="middle" x="588.5" y="-63.5" font-family="Helvetica,sans-Serif" font-size="10.00">utility</text>
</a>
</g>
</g>
<!-- Node13&#45;&gt;Node14 -->
<g id="edge16" class="edge">
<title>Node13&#45;&gt;Node14</title>
<path fill="none" stroke="midnightblue" d="M547.59,-112.08C554.66,-104.3 565.09,-92.8 573.65,-83.37"/>
<polygon fill="midnightblue" stroke="midnightblue" points="576.43,-85.51 580.56,-75.75 571.25,-80.8 576.43,-85.51"/>
</g>
<!-- Node15&#45;&gt;Node11 -->
<g id="edge19" class="edge">
<title>Node15&#45;&gt;Node11</title>
<path fill="none" stroke="midnightblue" d="M741.2,-112.37C725.72,-94.05 689.36,-51.05 669.33,-27.36"/>
<polygon fill="midnightblue" stroke="midnightblue" points="671.89,-24.97 662.76,-19.59 666.55,-29.49 671.89,-24.97"/>
</g>
<!-- Node15&#45;&gt;Node12 -->
<g id="edge20" class="edge">
<title>Node15&#45;&gt;Node12</title>
<path fill="none" stroke="midnightblue" d="M745.29,-112.42C741.94,-103.41 736.64,-88.78 732.5,-76 727.47,-60.44 722.29,-42.61 718.62,-29.56"/>
<polygon fill="midnightblue" stroke="midnightblue" points="721.98,-28.57 715.92,-19.88 715.24,-30.45 721.98,-28.57"/>
</g>
<!-- Node16 -->
<g id="node16" class="node">
<title>Node16</title>
<g id="a_node16"><a xlink:title=" ">
<polygon fill="none" stroke="#bfbfbf" points="815.5,-56.5 815.5,-75.5 859.5,-75.5 859.5,-56.5 815.5,-56.5"/>
<text text-anchor="middle" x="837.5" y="-63.5" font-family="Helvetica,sans-Serif" font-size="10.00">SDL.h</text>
</a>
</g>
</g>
<!-- Node15&#45;&gt;Node16 -->
<g id="edge21" class="edge">
<title>Node15&#45;&gt;Node16</title>
<path fill="none" stroke="midnightblue" d="M762.8,-112.32C776.68,-103.9 797.99,-90.97 814.3,-81.07"/>
<polygon fill="midnightblue" stroke="midnightblue" points="816.5,-83.83 823.24,-75.65 812.87,-77.85 816.5,-83.83"/>
</g>
<!-- Node17 -->
<g id="node17" class="node">
<title>Node17</title>
<g id="a_node17"><a xlink:title=" ">
<polygon fill="none" stroke="#bfbfbf" points="877.5,-56.5 877.5,-75.5 989.5,-75.5 989.5,-56.5 877.5,-56.5"/>
<text text-anchor="middle" x="933.5" y="-63.5" font-family="Helvetica,sans-Serif" font-size="10.00">Events/EventsEnum.h</text>
</a>
</g>
</g>
<!-- Node15&#45;&gt;Node17 -->
<g id="edge22" class="edge">
<title>Node15&#45;&gt;Node17</title>
<path fill="none" stroke="midnightblue" d="M777.81,-112.44C809.34,-103.24 859.63,-88.56 894.49,-78.39"/>
<polygon fill="midnightblue" stroke="midnightblue" points="895.7,-81.68 904.32,-75.52 893.74,-74.96 895.7,-81.68"/>
</g>
<!-- Node18 -->
<g id="node18" class="node">
<title>Node18</title>
<g id="a_node18"><a xlink:href="Input_8hpp.html" target="_top" xlink:title=" ">
<polygon fill="none" stroke="black" points="741.5,-56.5 741.5,-75.5 797.5,-75.5 797.5,-56.5 741.5,-56.5"/>
<text text-anchor="middle" x="769.5" y="-63.5" font-family="Helvetica,sans-Serif" font-size="10.00">Input.hpp</text>
</a>
</g>
</g>
<!-- Node15&#45;&gt;Node18 -->
<g id="edge23" class="edge">
<title>Node15&#45;&gt;Node18</title>
<path fill="none" stroke="midnightblue" d="M751.97,-112.08C754.81,-104.77 758.93,-94.18 762.46,-85.1"/>
<polygon fill="midnightblue" stroke="midnightblue" points="765.73,-86.34 766.1,-75.75 759.21,-83.8 765.73,-86.34"/>
</g>
<!-- Node18&#45;&gt;Node2 -->
<g id="edge25" class="edge">
<title>Node18&#45;&gt;Node2</title>
<path fill="none" stroke="midnightblue" d="M769.5,-56.08C769.5,-49.01 769.5,-38.86 769.5,-29.99"/>
<polygon fill="midnightblue" stroke="midnightblue" points="773,-29.75 769.5,-19.75 766,-29.75 773,-29.75"/>
</g>
<!-- Node19 -->
<g id="node19" class="node">
<title>Node19</title>
<g id="a_node19"><a xlink:href="Point_8hpp.html" target="_top" xlink:title=" ">
<polygon fill="none" stroke="black" points="808,-0.5 808,-19.5 865,-19.5 865,-0.5 808,-0.5"/>
<text text-anchor="middle" x="836.5" y="-7.5" font-family="Helvetica,sans-Serif" font-size="10.00">Point.hpp</text>
</a>
</g>
</g>
<!-- Node18&#45;&gt;Node19 -->
<g id="edge24" class="edge">
<title>Node18&#45;&gt;Node19</title>
<path fill="none" stroke="midnightblue" d="M780.26,-56.32C790.27,-48.26 805.39,-36.08 817.43,-26.37"/>
<polygon fill="midnightblue" stroke="midnightblue" points="819.95,-28.83 825.54,-19.83 815.56,-23.38 819.95,-28.83"/>
</g>
</g>
</svg>
