<?xml version="1.0" encoding="UTF-8" standalone="no"?>
<!DOCTYPE svg PUBLIC "-//W3C//DTD SVG 1.1//EN"
 "http://www.w3.org/Graphics/SVG/1.1/DTD/svg11.dtd">
<!-- Generated by graphviz version 2.44.0 ()
 -->
<!-- Title: src/Render/Window.cpp Pages: 1 -->
<svg width="1123pt" height="252pt"
 viewBox="0.00 0.00 1123.00 252.00" xmlns="http://www.w3.org/2000/svg" xmlns:xlink="http://www.w3.org/1999/xlink">
<g id="graph0" class="graph" transform="scale(1 1) rotate(0) translate(4 248)">
<title>src/Render/Window.cpp</title>
<!-- Node1 -->
<g id="node1" class="node">
<title>Node1</title>
<g id="a_node1"><a xlink:title=" ">
<polygon fill="#bfbfbf" stroke="black" points="315,-224.5 315,-243.5 434,-243.5 434,-224.5 315,-224.5"/>
<text text-anchor="middle" x="374.5" y="-231.5" font-family="Helvetica,sans-Serif" font-size="10.00">src/Render/Window.cpp</text>
</a>
</g>
</g>
<!-- Node2 -->
<g id="node2" class="node">
<title>Node2</title>
<g id="a_node2"><a xlink:href="Window_8hpp.html" target="_top" xlink:title=" ">
<polygon fill="none" stroke="black" points="323,-168.5 323,-187.5 426,-187.5 426,-168.5 323,-168.5"/>
<text text-anchor="middle" x="374.5" y="-175.5" font-family="Helvetica,sans-Serif" font-size="10.00">Render/Window.hpp</text>
</a>
</g>
</g>
<!-- Node1&#45;&gt;Node2 -->
<g id="edge1" class="edge">
<title>Node1&#45;&gt;Node2</title>
<path fill="none" stroke="midnightblue" d="M374.5,-224.08C374.5,-217.01 374.5,-206.86 374.5,-197.99"/>
<polygon fill="midnightblue" stroke="midnightblue" points="378,-197.75 374.5,-187.75 371,-197.75 378,-197.75"/>
</g>
<!-- Node19 -->
<g id="node19" class="node">
<title>Node19</title>
<g id="a_node19"><a xlink:href="Input_8hpp.html" target="_top" xlink:title=" ">
<polygon fill="none" stroke="black" points="0.5,-56.5 0.5,-75.5 56.5,-75.5 56.5,-56.5 0.5,-56.5"/>
<text text-anchor="middle" x="28.5" y="-63.5" font-family="Helvetica,sans-Serif" font-size="10.00">Input.hpp</text>
</a>
</g>
</g>
<!-- Node1&#45;&gt;Node19 -->
<g id="edge27" class="edge">
<title>Node1&#45;&gt;Node19</title>
<path fill="none" stroke="midnightblue" d="M345.39,-224.49C296.24,-209.5 194.41,-175.8 115.5,-132 89.67,-117.66 62.87,-96.53 45.96,-82.28"/>
<polygon fill="midnightblue" stroke="midnightblue" points="47.95,-79.38 38.08,-75.54 43.4,-84.7 47.95,-79.38"/>
</g>
<!-- Node21 -->
<g id="node21" class="node">
<title>Node21</title>
<g id="a_node21"><a xlink:href="LevelParser_8hpp.html" target="_top" xlink:title=" ">
<polygon fill="none" stroke="black" points="539,-112.5 539,-131.5 682,-131.5 682,-112.5 539,-112.5"/>
<text text-anchor="middle" x="610.5" y="-119.5" font-family="Helvetica,sans-Serif" font-size="10.00">LevelParser/LevelParser.hpp</text>
</a>
</g>
</g>
<!-- Node1&#45;&gt;Node21 -->
<g id="edge28" class="edge">
<title>Node1&#45;&gt;Node21</title>
<path fill="none" stroke="midnightblue" d="M393.02,-224.37C434.29,-205.13 534.02,-158.65 582.76,-135.93"/>
<polygon fill="midnightblue" stroke="midnightblue" points="584.48,-138.99 592.07,-131.59 581.53,-132.64 584.48,-138.99"/>
</g>
<!-- Node3 -->
<g id="node3" class="node">
<title>Node3</title>
<g id="a_node3"><a xlink:title=" ">
<polygon fill="none" stroke="#bfbfbf" points="247,-0.5 247,-19.5 288,-19.5 288,-0.5 247,-0.5"/>
<text text-anchor="middle" x="267.5" y="-7.5" font-family="Helvetica,sans-Serif" font-size="10.00">string</text>
</a>
</g>
</g>
<!-- Node2&#45;&gt;Node3 -->
<g id="edge2" class="edge">
<title>Node2&#45;&gt;Node3</title>
<path fill="none" stroke="midnightblue" d="M348.29,-168.42C330.77,-161.35 308.61,-149.6 295.5,-132 272.71,-101.41 268.05,-55.32 267.34,-29.75"/>
<polygon fill="midnightblue" stroke="midnightblue" points="270.84,-29.55 267.24,-19.58 263.84,-29.62 270.84,-29.55"/>
</g>
<!-- Node4 -->
<g id="node4" class="node">
<title>Node4</title>
<g id="a_node4"><a xlink:href="Color_8hpp.html" target="_top" xlink:title=" ">
<polygon fill="none" stroke="black" points="359,-0.5 359,-19.5 416,-19.5 416,-0.5 359,-0.5"/>
<text text-anchor="middle" x="387.5" y="-7.5" font-family="Helvetica,sans-Serif" font-size="10.00">Color.hpp</text>
</a>
</g>
</g>
<!-- Node2&#45;&gt;Node4 -->
<g id="edge3" class="edge">
<title>Node2&#45;&gt;Node4</title>
<path fill="none" stroke="midnightblue" d="M404.38,-168.39C422.04,-161.59 442.95,-150.15 453.5,-132 475.31,-94.48 433.09,-49.39 406.62,-26.29"/>
<polygon fill="midnightblue" stroke="midnightblue" points="408.58,-23.36 398.68,-19.6 404.07,-28.72 408.58,-23.36"/>
</g>
<!-- Node5 -->
<g id="node5" class="node">
<title>Node5</title>
<g id="a_node5"><a xlink:href="GraphicsFacade_8hpp.html" target="_top" xlink:title=" ">
<polygon fill="none" stroke="black" points="577,-56.5 577,-75.5 718,-75.5 718,-56.5 577,-56.5"/>
<text text-anchor="middle" x="647.5" y="-63.5" font-family="Helvetica,sans-Serif" font-size="10.00">Facade/GraphicsFacade.hpp</text>
</a>
</g>
</g>
<!-- Node2&#45;&gt;Node5 -->
<g id="edge4" class="edge">
<title>Node2&#45;&gt;Node5</title>
<path fill="none" stroke="midnightblue" d="M396.51,-168.49C419.18,-159.65 455.48,-145.27 486.5,-132 506.25,-123.55 510.69,-120.3 530.5,-112 558.6,-100.22 590.96,-87.87 614.51,-79.09"/>
<polygon fill="midnightblue" stroke="midnightblue" points="615.87,-82.32 624.03,-75.56 613.44,-75.76 615.87,-82.32"/>
</g>
<!-- Node14 -->
<g id="node14" class="node">
<title>Node14</title>
<g id="a_node14"><a xlink:href="TextureManager_8hpp.html" target="_top" xlink:title=" ">
<polygon fill="none" stroke="black" points="304.5,-112.5 304.5,-131.5 444.5,-131.5 444.5,-112.5 304.5,-112.5"/>
<text text-anchor="middle" x="374.5" y="-119.5" font-family="Helvetica,sans-Serif" font-size="10.00">Texture/TextureManager.hpp</text>
</a>
</g>
</g>
<!-- Node2&#45;&gt;Node14 -->
<g id="edge15" class="edge">
<title>Node2&#45;&gt;Node14</title>
<path fill="none" stroke="midnightblue" d="M374.5,-168.08C374.5,-161.01 374.5,-150.86 374.5,-141.99"/>
<polygon fill="midnightblue" stroke="midnightblue" points="378,-141.75 374.5,-131.75 371,-141.75 378,-141.75"/>
</g>
<!-- Node16 -->
<g id="node16" class="node">
<title>Node16</title>
<g id="a_node16"><a xlink:href="InputFacade_8hpp.html" target="_top" xlink:title=" ">
<polygon fill="none" stroke="black" points="124.5,-112.5 124.5,-131.5 248.5,-131.5 248.5,-112.5 124.5,-112.5"/>
<text text-anchor="middle" x="186.5" y="-119.5" font-family="Helvetica,sans-Serif" font-size="10.00">Facade/InputFacade.hpp</text>
</a>
</g>
</g>
<!-- Node2&#45;&gt;Node16 -->
<g id="edge19" class="edge">
<title>Node2&#45;&gt;Node16</title>
<path fill="none" stroke="midnightblue" d="M344.71,-168.44C312.67,-159.24 261.57,-144.56 226.15,-134.39"/>
<polygon fill="midnightblue" stroke="midnightblue" points="226.73,-130.91 216.15,-131.52 224.79,-137.64 226.73,-130.91"/>
</g>
<!-- Node5&#45;&gt;Node3 -->
<g id="edge12" class="edge">
<title>Node5&#45;&gt;Node3</title>
<path fill="none" stroke="midnightblue" d="M576.96,-59.58C507.88,-53.45 399.58,-41.66 298.09,-20.05"/>
<polygon fill="midnightblue" stroke="midnightblue" points="298.81,-16.62 288.29,-17.93 297.33,-23.46 298.81,-16.62"/>
</g>
<!-- Node5&#45;&gt;Node4 -->
<g id="edge8" class="edge">
<title>Node5&#45;&gt;Node4</title>
<path fill="none" stroke="midnightblue" d="M603.18,-56.46C560.41,-48.12 493.59,-34.82 426.07,-20.07"/>
<polygon fill="midnightblue" stroke="midnightblue" points="426.63,-16.61 416.11,-17.88 425.13,-23.44 426.63,-16.61"/>
</g>
<!-- Node6 -->
<g id="node6" class="node">
<title>Node6</title>
<g id="a_node6"><a xlink:title=" ">
<polygon fill="none" stroke="#bfbfbf" points="642,-0.5 642,-19.5 713,-19.5 713,-0.5 642,-0.5"/>
<text text-anchor="middle" x="677.5" y="-7.5" font-family="Helvetica,sans-Serif" font-size="10.00">SDL2/SDL.h</text>
</a>
</g>
</g>
<!-- Node5&#45;&gt;Node6 -->
<g id="edge5" class="edge">
<title>Node5&#45;&gt;Node6</title>
<path fill="none" stroke="midnightblue" d="M652.45,-56.08C656.6,-48.61 662.65,-37.72 667.77,-28.52"/>
<polygon fill="midnightblue" stroke="midnightblue" points="670.84,-30.19 672.64,-19.75 664.72,-26.79 670.84,-30.19"/>
</g>
<!-- Node7 -->
<g id="node7" class="node">
<title>Node7</title>
<g id="a_node7"><a xlink:title=" ">
<polygon fill="none" stroke="#bfbfbf" points="731,-0.5 731,-19.5 834,-19.5 834,-0.5 731,-0.5"/>
<text text-anchor="middle" x="782.5" y="-7.5" font-family="Helvetica,sans-Serif" font-size="10.00">SDL2/SDL_image.h</text>
</a>
</g>
</g>
<!-- Node5&#45;&gt;Node7 -->
<g id="edge6" class="edge">
<title>Node5&#45;&gt;Node7</title>
<path fill="none" stroke="midnightblue" d="M668.89,-56.44C691.21,-47.52 726.4,-33.44 751.71,-23.32"/>
<polygon fill="midnightblue" stroke="midnightblue" points="753.22,-26.48 761.21,-19.52 750.62,-19.98 753.22,-26.48"/>
</g>
<!-- Node8 -->
<g id="node8" class="node">
<title>Node8</title>
<g id="a_node8"><a xlink:title=" ">
<polygon fill="none" stroke="#bfbfbf" points="852.5,-0.5 852.5,-19.5 906.5,-19.5 906.5,-0.5 852.5,-0.5"/>
<text text-anchor="middle" x="879.5" y="-7.5" font-family="Helvetica,sans-Serif" font-size="10.00">iostream</text>
</a>
</g>
</g>
<!-- Node5&#45;&gt;Node8 -->
<g id="edge7" class="edge">
<title>Node5&#45;&gt;Node8</title>
<path fill="none" stroke="midnightblue" d="M685.86,-56.42C723.32,-47.99 782.22,-34.61 842.34,-20.25"/>
<polygon fill="midnightblue" stroke="midnightblue" points="843.48,-23.57 852.39,-17.84 841.85,-16.76 843.48,-23.57"/>
</g>
<!-- Node9 -->
<g id="node9" class="node">
<title>Node9</title>
<g id="a_node9"><a xlink:href="NumberUtil_8hpp.html" target="_top" xlink:title=" ">
<polygon fill="none" stroke="black" points="434.5,-0.5 434.5,-19.5 546.5,-19.5 546.5,-0.5 434.5,-0.5"/>
<text text-anchor="middle" x="490.5" y="-7.5" font-family="Helvetica,sans-Serif" font-size="10.00">Utility/NumberUtil.hpp</text>
</a>
</g>
</g>
<!-- Node5&#45;&gt;Node9 -->
<g id="edge9" class="edge">
<title>Node5&#45;&gt;Node9</title>
<path fill="none" stroke="midnightblue" d="M622.62,-56.44C596.21,-47.36 554.28,-32.94 524.76,-22.78"/>
<polygon fill="midnightblue" stroke="midnightblue" points="525.86,-19.46 515.26,-19.52 523.58,-26.08 525.86,-19.46"/>
</g>
<!-- Node10 -->
<g id="node10" class="node">
<title>Node10</title>
<g id="a_node10"><a xlink:title=" ">
<polygon fill="none" stroke="#bfbfbf" points="1064,-0.5 1064,-19.5 1115,-19.5 1115,-0.5 1064,-0.5"/>
<text text-anchor="middle" x="1089.5" y="-7.5" font-family="Helvetica,sans-Serif" font-size="10.00">memory</text>
</a>
</g>
</g>
<!-- Node5&#45;&gt;Node10 -->
<g id="edge10" class="edge">
<title>Node5&#45;&gt;Node10</title>
<path fill="none" stroke="midnightblue" d="M718.36,-60.4C797.96,-54.51 931.08,-42.5 1054.01,-20.04"/>
<polygon fill="midnightblue" stroke="midnightblue" points="1054.78,-23.46 1063.97,-18.19 1053.5,-16.58 1054.78,-23.46"/>
</g>
<!-- Node11 -->
<g id="node11" class="node">
<title>Node11</title>
<g id="a_node11"><a xlink:title=" ">
<polygon fill="none" stroke="#bfbfbf" points="565,-0.5 565,-19.5 624,-19.5 624,-0.5 565,-0.5"/>
<text text-anchor="middle" x="594.5" y="-7.5" font-family="Helvetica,sans-Serif" font-size="10.00">functional</text>
</a>
</g>
</g>
<!-- Node5&#45;&gt;Node11 -->
<g id="edge11" class="edge">
<title>Node5&#45;&gt;Node11</title>
<path fill="none" stroke="midnightblue" d="M638.75,-56.08C631.03,-48.22 619.6,-36.57 610.28,-27.08"/>
<polygon fill="midnightblue" stroke="midnightblue" points="612.59,-24.44 603.09,-19.75 607.6,-29.34 612.59,-24.44"/>
</g>
<!-- Node12 -->
<g id="node12" class="node">
<title>Node12</title>
<g id="a_node12"><a xlink:title=" ">
<polygon fill="none" stroke="#bfbfbf" points="924.5,-0.5 924.5,-19.5 968.5,-19.5 968.5,-0.5 924.5,-0.5"/>
<text text-anchor="middle" x="946.5" y="-7.5" font-family="Helvetica,sans-Serif" font-size="10.00">vector</text>
</a>
</g>
</g>
<!-- Node5&#45;&gt;Node12 -->
<g id="edge13" class="edge">
<title>Node5&#45;&gt;Node12</title>
<path fill="none" stroke="midnightblue" d="M710.99,-56.46C763.21,-48.96 839.28,-36.92 914.15,-20.1"/>
<polygon fill="midnightblue" stroke="midnightblue" points="915.26,-23.43 924.23,-17.8 913.7,-16.61 915.26,-23.43"/>
</g>
<!-- Node13 -->
<g id="node13" class="node">
<title>Node13</title>
<g id="a_node13"><a xlink:title=" ">
<polygon fill="none" stroke="#bfbfbf" points="306,-0.5 306,-19.5 341,-19.5 341,-0.5 306,-0.5"/>
<text text-anchor="middle" x="323.5" y="-7.5" font-family="Helvetica,sans-Serif" font-size="10.00">map</text>
</a>
</g>
</g>
<!-- Node5&#45;&gt;Node13 -->
<g id="edge14" class="edge">
<title>Node5&#45;&gt;Node13</title>
<path fill="none" stroke="midnightblue" d="M581.53,-56.47C512,-47.25 406.05,-32.46 351.21,-20.01"/>
<polygon fill="midnightblue" stroke="midnightblue" points="351.81,-16.55 341.27,-17.63 350.19,-23.36 351.81,-16.55"/>
</g>
<!-- Node14&#45;&gt;Node3 -->
<g id="edge16" class="edge">
<title>Node14&#45;&gt;Node3</title>
<path fill="none" stroke="midnightblue" d="M366.1,-112.37C348.21,-93.97 306.09,-50.67 283.11,-27.05"/>
<polygon fill="midnightblue" stroke="midnightblue" points="285.34,-24.32 275.86,-19.59 280.32,-29.2 285.34,-24.32"/>
</g>
<!-- Node14&#45;&gt;Node5 -->
<g id="edge18" class="edge">
<title>Node14&#45;&gt;Node5</title>
<path fill="none" stroke="midnightblue" d="M417.76,-112.44C465.68,-102.96 542.98,-87.67 594.5,-77.48"/>
<polygon fill="midnightblue" stroke="midnightblue" points="595.31,-80.89 604.44,-75.52 593.96,-74.02 595.31,-80.89"/>
</g>
<!-- Node15 -->
<g id="node15" class="node">
<title>Node15</title>
<g id="a_node15"><a xlink:title=" ">
<polygon fill="none" stroke="#bfbfbf" points="381,-56.5 381,-75.5 420,-75.5 420,-56.5 381,-56.5"/>
<text text-anchor="middle" x="400.5" y="-63.5" font-family="Helvetica,sans-Serif" font-size="10.00">utility</text>
</a>
</g>
</g>
<!-- Node14&#45;&gt;Node15 -->
<g id="edge17" class="edge">
<title>Node14&#45;&gt;Node15</title>
<path fill="none" stroke="midnightblue" d="M378.79,-112.08C382.35,-104.69 387.52,-93.95 391.92,-84.81"/>
<polygon fill="midnightblue" stroke="midnightblue" points="395.1,-86.28 396.29,-75.75 388.79,-83.24 395.1,-86.28"/>
</g>
<!-- Node16&#45;&gt;Node12 -->
<g id="edge20" class="edge">
<title>Node16&#45;&gt;Node12</title>
<path fill="none" stroke="midnightblue" d="M248.63,-115.85C390.46,-104.1 726.04,-76.27 727.5,-76 795.7,-63.18 872.98,-37.52 915.07,-22.56"/>
<polygon fill="midnightblue" stroke="midnightblue" points="916.26,-25.85 924.49,-19.18 913.89,-19.26 916.26,-25.85"/>
</g>
<!-- Node16&#45;&gt;Node13 -->
<g id="edge21" class="edge">
<title>Node16&#45;&gt;Node13</title>
<path fill="none" stroke="midnightblue" d="M202.09,-112.41C216.92,-103.95 239.56,-90.25 257.5,-76 276.48,-60.92 295.99,-41.07 308.82,-27.29"/>
<polygon fill="midnightblue" stroke="midnightblue" points="311.71,-29.32 315.89,-19.59 306.55,-24.59 311.71,-29.32"/>
</g>
<!-- Node17 -->
<g id="node17" class="node">
<title>Node17</title>
<g id="a_node17"><a xlink:title=" ">
<polygon fill="none" stroke="#bfbfbf" points="74.5,-56.5 74.5,-75.5 118.5,-75.5 118.5,-56.5 74.5,-56.5"/>
<text text-anchor="middle" x="96.5" y="-63.5" font-family="Helvetica,sans-Serif" font-size="10.00">SDL.h</text>
</a>
</g>
</g>
<!-- Node16&#45;&gt;Node17 -->
<g id="edge22" class="edge">
<title>Node16&#45;&gt;Node17</title>
<path fill="none" stroke="midnightblue" d="M172.04,-112.32C158,-103.9 136.45,-90.97 119.96,-81.07"/>
<polygon fill="midnightblue" stroke="midnightblue" points="121.3,-77.8 110.92,-75.65 117.7,-83.8 121.3,-77.8"/>
</g>
<!-- Node18 -->
<g id="node18" class="node">
<title>Node18</title>
<g id="a_node18"><a xlink:title=" ">
<polygon fill="none" stroke="#bfbfbf" points="136.5,-56.5 136.5,-75.5 248.5,-75.5 248.5,-56.5 136.5,-56.5"/>
<text text-anchor="middle" x="192.5" y="-63.5" font-family="Helvetica,sans-Serif" font-size="10.00">Events/EventsEnum.h</text>
</a>
</g>
</g>
<!-- Node16&#45;&gt;Node18 -->
<g id="edge23" class="edge">
<title>Node16&#45;&gt;Node18</title>
<path fill="none" stroke="midnightblue" d="M187.49,-112.08C188.29,-104.93 189.43,-94.64 190.42,-85.69"/>
<polygon fill="midnightblue" stroke="midnightblue" points="193.9,-86.08 191.53,-75.75 186.94,-85.3 193.9,-86.08"/>
</g>
<!-- Node16&#45;&gt;Node19 -->
<g id="edge24" class="edge">
<title>Node16&#45;&gt;Node19</title>
<path fill="none" stroke="midnightblue" d="M161.46,-112.44C134.88,-103.36 92.69,-88.94 62.98,-78.78"/>
<polygon fill="midnightblue" stroke="midnightblue" points="64.01,-75.44 53.42,-75.52 61.75,-82.06 64.01,-75.44"/>
</g>
<!-- Node19&#45;&gt;Node3 -->
<g id="edge26" class="edge">
<title>Node19&#45;&gt;Node3</title>
<path fill="none" stroke="midnightblue" d="M56.77,-58.06C59.71,-57.36 62.67,-56.66 65.5,-56 126.21,-41.86 197.41,-26.21 237,-17.6"/>
<polygon fill="midnightblue" stroke="midnightblue" points="237.79,-21.01 246.82,-15.47 236.31,-14.17 237.79,-21.01"/>
</g>
<!-- Node20 -->
<g id="node20" class="node">
<title>Node20</title>
<g id="a_node20"><a xlink:href="Point_8hpp.html" target="_top" xlink:title=" ">
<polygon fill="none" stroke="black" points="0,-0.5 0,-19.5 57,-19.5 57,-0.5 0,-0.5"/>
<text text-anchor="middle" x="28.5" y="-7.5" font-family="Helvetica,sans-Serif" font-size="10.00">Point.hpp</text>
</a>
</g>
</g>
<!-- Node19&#45;&gt;Node20 -->
<g id="edge25" class="edge">
<title>Node19&#45;&gt;Node20</title>
<path fill="none" stroke="midnightblue" d="M28.5,-56.08C28.5,-49.01 28.5,-38.86 28.5,-29.99"/>
<polygon fill="midnightblue" stroke="midnightblue" points="32,-29.75 28.5,-19.75 25,-29.75 32,-29.75"/>
</g>
<!-- Node21&#45;&gt;Node3 -->
<g id="edge29" class="edge">
<title>Node21&#45;&gt;Node3</title>
<path fill="none" stroke="midnightblue" d="M588.27,-112.44C554.17,-99.44 486.75,-74.32 428.5,-56 373.44,-38.69 356.58,-37.14 297.86,-20.32"/>
<polygon fill="midnightblue" stroke="midnightblue" points="298.65,-16.9 288.07,-17.48 296.7,-23.62 298.65,-16.9"/>
</g>
<!-- Node21&#45;&gt;Node10 -->
<g id="edge31" class="edge">
<title>Node21&#45;&gt;Node10</title>
<path fill="none" stroke="midnightblue" d="M682.02,-119.87C786.8,-117.14 976.06,-107.82 1035.5,-76 1055.45,-65.32 1070.96,-43.92 1080.14,-28.59"/>
<polygon fill="midnightblue" stroke="midnightblue" points="1083.37,-29.99 1085.24,-19.57 1077.27,-26.55 1083.37,-29.99"/>
</g>
<!-- Node21&#45;&gt;Node13 -->
<g id="edge30" class="edge">
<title>Node21&#45;&gt;Node13</title>
<path fill="none" stroke="midnightblue" d="M601.84,-112.3C587.24,-98.16 556.21,-70.35 524.5,-56 454.99,-24.53 428.18,-39.72 350.73,-20"/>
<polygon fill="midnightblue" stroke="midnightblue" points="351.59,-16.6 341.02,-17.41 349.79,-23.37 351.59,-16.6"/>
</g>
<!-- Node22 -->
<g id="node22" class="node">
<title>Node22</title>
<g id="a_node22"><a xlink:href="GameLevel_8hpp.html" target="_top" xlink:title=" ">
<polygon fill="none" stroke="black" points="888.5,-56.5 888.5,-75.5 1026.5,-75.5 1026.5,-56.5 888.5,-56.5"/>
<text text-anchor="middle" x="957.5" y="-63.5" font-family="Helvetica,sans-Serif" font-size="10.00">GameLevel/GameLevel.hpp</text>
</a>
</g>
</g>
<!-- Node21&#45;&gt;Node22 -->
<g id="edge32" class="edge">
<title>Node21&#45;&gt;Node22</title>
<path fill="none" stroke="midnightblue" d="M665.48,-112.44C727.16,-102.85 827.11,-87.29 892.57,-77.1"/>
<polygon fill="midnightblue" stroke="midnightblue" points="893.43,-80.51 902.77,-75.52 892.35,-73.6 893.43,-80.51"/>
</g>
<!-- Node22&#45;&gt;Node10 -->
<g id="edge35" class="edge">
<title>Node22&#45;&gt;Node10</title>
<path fill="none" stroke="midnightblue" d="M978.42,-56.44C1000.24,-47.52 1034.65,-33.44 1059.39,-23.32"/>
<polygon fill="midnightblue" stroke="midnightblue" points="1060.75,-26.54 1068.68,-19.52 1058.1,-20.06 1060.75,-26.54"/>
</g>
<!-- Node22&#45;&gt;Node12 -->
<g id="edge34" class="edge">
<title>Node22&#45;&gt;Node12</title>
<path fill="none" stroke="midnightblue" d="M955.68,-56.08C954.23,-48.93 952.13,-38.64 950.31,-29.69"/>
<polygon fill="midnightblue" stroke="midnightblue" points="953.71,-28.85 948.28,-19.75 946.85,-30.25 953.71,-28.85"/>
</g>
<!-- Node23 -->
<g id="node23" class="node">
<title>Node23</title>
<g id="a_node23"><a xlink:href="Layer_8hpp.html" target="_top" xlink:title=" ">
<polygon fill="none" stroke="black" points="987,-0.5 987,-19.5 1046,-19.5 1046,-0.5 987,-0.5"/>
<text text-anchor="middle" x="1016.5" y="-7.5" font-family="Helvetica,sans-Serif" font-size="10.00">Layer.hpp</text>
</a>
</g>
</g>
<!-- Node22&#45;&gt;Node23 -->
<g id="edge33" class="edge">
<title>Node22&#45;&gt;Node23</title>
<path fill="none" stroke="midnightblue" d="M966.98,-56.32C975.7,-48.34 988.84,-36.31 999.4,-26.65"/>
<polygon fill="midnightblue" stroke="midnightblue" points="1001.83,-29.17 1006.85,-19.83 997.11,-24 1001.83,-29.17"/>
</g>
</g>
</svg>
