<?xml version="1.0" encoding="UTF-8" standalone="no"?>
<!DOCTYPE svg PUBLIC "-//W3C//DTD SVG 1.1//EN"
 "http://www.w3.org/Graphics/SVG/1.1/DTD/svg11.dtd">
<!-- Generated by graphviz version 2.44.0 ()
 -->
<!-- Title: includes/platformer&#45;engine/Render/Window.hpp Pages: 1 -->
<svg width="922pt" height="207pt"
 viewBox="0.00 0.00 921.50 207.00" xmlns="http://www.w3.org/2000/svg" xmlns:xlink="http://www.w3.org/1999/xlink">
<g id="graph0" class="graph" transform="scale(1 1) rotate(0) translate(4 203)">
<title>includes/platformer&#45;engine/Render/Window.hpp</title>
<!-- Node1 -->
<g id="node1" class="node">
<title>Node1</title>
<g id="a_node1"><a xlink:title=" ">
<polygon fill="#bfbfbf" stroke="black" points="542,-168.5 542,-198.5 679,-198.5 679,-168.5 542,-168.5"/>
<text text-anchor="start" x="550" y="-186.5" font-family="Helvetica,sans-Serif" font-size="10.00">includes/platformer</text>
<text text-anchor="middle" x="610.5" y="-175.5" font-family="Helvetica,sans-Serif" font-size="10.00">&#45;engine/Render/Window.hpp</text>
</a>
</g>
</g>
<!-- Node2 -->
<g id="node2" class="node">
<title>Node2</title>
<g id="a_node2"><a xlink:title=" ">
<polygon fill="none" stroke="#bfbfbf" points="749,-0.5 749,-19.5 790,-19.5 790,-0.5 749,-0.5"/>
<text text-anchor="middle" x="769.5" y="-7.5" font-family="Helvetica,sans-Serif" font-size="10.00">string</text>
</a>
</g>
</g>
<!-- Node1&#45;&gt;Node2 -->
<g id="edge1" class="edge">
<title>Node1&#45;&gt;Node2</title>
<path fill="none" stroke="midnightblue" d="M639.75,-168.49C655.88,-159.7 675.43,-147.15 689.5,-132 715.62,-103.88 708.69,-87.58 730.5,-56 737.46,-45.92 746.33,-35.53 753.86,-27.28"/>
<polygon fill="midnightblue" stroke="midnightblue" points="756.55,-29.52 760.81,-19.83 751.43,-24.75 756.55,-29.52"/>
</g>
<!-- Node3 -->
<g id="node3" class="node">
<title>Node3</title>
<g id="a_node3"><a xlink:href="Color_8hpp.html" target="_top" xlink:title=" ">
<polygon fill="none" stroke="black" points="0,-0.5 0,-19.5 57,-19.5 57,-0.5 0,-0.5"/>
<text text-anchor="middle" x="28.5" y="-7.5" font-family="Helvetica,sans-Serif" font-size="10.00">Color.hpp</text>
</a>
</g>
</g>
<!-- Node1&#45;&gt;Node3 -->
<g id="edge2" class="edge">
<title>Node1&#45;&gt;Node3</title>
<path fill="none" stroke="midnightblue" d="M562.87,-168.47C450.29,-135.29 169.53,-52.56 66.87,-22.31"/>
<polygon fill="midnightblue" stroke="midnightblue" points="67.8,-18.93 57.22,-19.46 65.82,-25.65 67.8,-18.93"/>
</g>
<!-- Node4 -->
<g id="node4" class="node">
<title>Node4</title>
<g id="a_node4"><a xlink:href="GraphicsFacade_8hpp.html" target="_top" xlink:title=" ">
<polygon fill="none" stroke="black" points="442,-56.5 442,-75.5 583,-75.5 583,-56.5 442,-56.5"/>
<text text-anchor="middle" x="512.5" y="-63.5" font-family="Helvetica,sans-Serif" font-size="10.00">Facade/GraphicsFacade.hpp</text>
</a>
</g>
</g>
<!-- Node1&#45;&gt;Node4 -->
<g id="edge3" class="edge">
<title>Node1&#45;&gt;Node4</title>
<path fill="none" stroke="midnightblue" d="M577.62,-168.33C561.61,-159.9 543.31,-147.76 531.5,-132 521.47,-118.62 516.72,-100.05 514.48,-86.19"/>
<polygon fill="midnightblue" stroke="midnightblue" points="517.9,-85.32 513.13,-75.86 510.96,-86.23 517.9,-85.32"/>
</g>
<!-- Node13 -->
<g id="node13" class="node">
<title>Node13</title>
<g id="a_node13"><a xlink:href="TextureManager_8hpp.html" target="_top" xlink:title=" ">
<polygon fill="none" stroke="black" points="540.5,-112.5 540.5,-131.5 680.5,-131.5 680.5,-112.5 540.5,-112.5"/>
<text text-anchor="middle" x="610.5" y="-119.5" font-family="Helvetica,sans-Serif" font-size="10.00">Texture/TextureManager.hpp</text>
</a>
</g>
</g>
<!-- Node1&#45;&gt;Node13 -->
<g id="edge14" class="edge">
<title>Node1&#45;&gt;Node13</title>
<path fill="none" stroke="midnightblue" d="M610.5,-168.4C610.5,-160.47 610.5,-150.46 610.5,-141.86"/>
<polygon fill="midnightblue" stroke="midnightblue" points="614,-141.66 610.5,-131.66 607,-141.66 614,-141.66"/>
</g>
<!-- Node15 -->
<g id="node15" class="node">
<title>Node15</title>
<g id="a_node15"><a xlink:href="InputFacade_8hpp.html" target="_top" xlink:title=" ">
<polygon fill="none" stroke="black" points="736.5,-112.5 736.5,-131.5 860.5,-131.5 860.5,-112.5 736.5,-112.5"/>
<text text-anchor="middle" x="798.5" y="-119.5" font-family="Helvetica,sans-Serif" font-size="10.00">Facade/InputFacade.hpp</text>
</a>
</g>
</g>
<!-- Node1&#45;&gt;Node15 -->
<g id="edge18" class="edge">
<title>Node1&#45;&gt;Node15</title>
<path fill="none" stroke="midnightblue" d="M655.05,-168.4C687.54,-158.12 731.04,-144.35 761.59,-134.68"/>
<polygon fill="midnightblue" stroke="midnightblue" points="762.94,-137.93 771.42,-131.57 760.83,-131.25 762.94,-137.93"/>
</g>
<!-- Node4&#45;&gt;Node2 -->
<g id="edge11" class="edge">
<title>Node4&#45;&gt;Node2</title>
<path fill="none" stroke="midnightblue" d="M562.85,-56.45C606.88,-48.65 672.73,-36.21 739.12,-19.89"/>
<polygon fill="midnightblue" stroke="midnightblue" points="740.05,-23.27 748.91,-17.46 738.37,-16.47 740.05,-23.27"/>
</g>
<!-- Node4&#45;&gt;Node3 -->
<g id="edge7" class="edge">
<title>Node4&#45;&gt;Node3</title>
<path fill="none" stroke="midnightblue" d="M441.64,-60.9C355.23,-55.23 204.61,-43.14 66.99,-20.05"/>
<polygon fill="midnightblue" stroke="midnightblue" points="67.55,-16.6 57.1,-18.37 66.37,-23.5 67.55,-16.6"/>
</g>
<!-- Node5 -->
<g id="node5" class="node">
<title>Node5</title>
<g id="a_node5"><a xlink:title=" ">
<polygon fill="none" stroke="#bfbfbf" points="75,-0.5 75,-19.5 146,-19.5 146,-0.5 75,-0.5"/>
<text text-anchor="middle" x="110.5" y="-7.5" font-family="Helvetica,sans-Serif" font-size="10.00">SDL2/SDL.h</text>
</a>
</g>
</g>
<!-- Node4&#45;&gt;Node5 -->
<g id="edge4" class="edge">
<title>Node4&#45;&gt;Node5</title>
<path fill="none" stroke="midnightblue" d="M441.96,-57.75C371.85,-50.18 261.05,-37.22 156.57,-20.25"/>
<polygon fill="midnightblue" stroke="midnightblue" points="156.91,-16.76 146.48,-18.59 155.78,-23.67 156.91,-16.76"/>
</g>
<!-- Node6 -->
<g id="node6" class="node">
<title>Node6</title>
<g id="a_node6"><a xlink:title=" ">
<polygon fill="none" stroke="#bfbfbf" points="164,-0.5 164,-19.5 267,-19.5 267,-0.5 164,-0.5"/>
<text text-anchor="middle" x="215.5" y="-7.5" font-family="Helvetica,sans-Serif" font-size="10.00">SDL2/SDL_image.h</text>
</a>
</g>
</g>
<!-- Node4&#45;&gt;Node6 -->
<g id="edge5" class="edge">
<title>Node4&#45;&gt;Node6</title>
<path fill="none" stroke="midnightblue" d="M465.44,-56.44C413.09,-46.92 328.51,-31.55 272.46,-21.36"/>
<polygon fill="midnightblue" stroke="midnightblue" points="272.81,-17.86 262.34,-19.52 271.55,-24.75 272.81,-17.86"/>
</g>
<!-- Node7 -->
<g id="node7" class="node">
<title>Node7</title>
<g id="a_node7"><a xlink:title=" ">
<polygon fill="none" stroke="#bfbfbf" points="285.5,-0.5 285.5,-19.5 339.5,-19.5 339.5,-0.5 285.5,-0.5"/>
<text text-anchor="middle" x="312.5" y="-7.5" font-family="Helvetica,sans-Serif" font-size="10.00">iostream</text>
</a>
</g>
</g>
<!-- Node4&#45;&gt;Node7 -->
<g id="edge6" class="edge">
<title>Node4&#45;&gt;Node7</title>
<path fill="none" stroke="midnightblue" d="M480.81,-56.44C445.17,-46.82 387.35,-31.21 349.63,-21.02"/>
<polygon fill="midnightblue" stroke="midnightblue" points="350.12,-17.53 339.55,-18.3 348.29,-24.29 350.12,-17.53"/>
</g>
<!-- Node8 -->
<g id="node8" class="node">
<title>Node8</title>
<g id="a_node8"><a xlink:href="NumberUtil_8hpp.html" target="_top" xlink:title=" ">
<polygon fill="none" stroke="black" points="357.5,-0.5 357.5,-19.5 469.5,-19.5 469.5,-0.5 357.5,-0.5"/>
<text text-anchor="middle" x="413.5" y="-7.5" font-family="Helvetica,sans-Serif" font-size="10.00">Utility/NumberUtil.hpp</text>
</a>
</g>
</g>
<!-- Node4&#45;&gt;Node8 -->
<g id="edge8" class="edge">
<title>Node4&#45;&gt;Node8</title>
<path fill="none" stroke="midnightblue" d="M496.59,-56.32C480.86,-47.74 456.56,-34.49 438.29,-24.52"/>
<polygon fill="midnightblue" stroke="midnightblue" points="439.82,-21.37 429.37,-19.65 436.47,-27.52 439.82,-21.37"/>
</g>
<!-- Node9 -->
<g id="node9" class="node">
<title>Node9</title>
<g id="a_node9"><a xlink:title=" ">
<polygon fill="none" stroke="#bfbfbf" points="487,-0.5 487,-19.5 538,-19.5 538,-0.5 487,-0.5"/>
<text text-anchor="middle" x="512.5" y="-7.5" font-family="Helvetica,sans-Serif" font-size="10.00">memory</text>
</a>
</g>
</g>
<!-- Node4&#45;&gt;Node9 -->
<g id="edge9" class="edge">
<title>Node4&#45;&gt;Node9</title>
<path fill="none" stroke="midnightblue" d="M512.5,-56.08C512.5,-49.01 512.5,-38.86 512.5,-29.99"/>
<polygon fill="midnightblue" stroke="midnightblue" points="516,-29.75 512.5,-19.75 509,-29.75 516,-29.75"/>
</g>
<!-- Node10 -->
<g id="node10" class="node">
<title>Node10</title>
<g id="a_node10"><a xlink:title=" ">
<polygon fill="none" stroke="#bfbfbf" points="556,-0.5 556,-19.5 615,-19.5 615,-0.5 556,-0.5"/>
<text text-anchor="middle" x="585.5" y="-7.5" font-family="Helvetica,sans-Serif" font-size="10.00">functional</text>
</a>
</g>
</g>
<!-- Node4&#45;&gt;Node10 -->
<g id="edge10" class="edge">
<title>Node4&#45;&gt;Node10</title>
<path fill="none" stroke="midnightblue" d="M524.23,-56.32C535.34,-48.11 552.24,-35.6 565.48,-25.81"/>
<polygon fill="midnightblue" stroke="midnightblue" points="567.6,-28.59 573.56,-19.83 563.44,-22.97 567.6,-28.59"/>
</g>
<!-- Node11 -->
<g id="node11" class="node">
<title>Node11</title>
<g id="a_node11"><a xlink:title=" ">
<polygon fill="none" stroke="#bfbfbf" points="633.5,-0.5 633.5,-19.5 677.5,-19.5 677.5,-0.5 633.5,-0.5"/>
<text text-anchor="middle" x="655.5" y="-7.5" font-family="Helvetica,sans-Serif" font-size="10.00">vector</text>
</a>
</g>
</g>
<!-- Node4&#45;&gt;Node11 -->
<g id="edge12" class="edge">
<title>Node4&#45;&gt;Node11</title>
<path fill="none" stroke="midnightblue" d="M535.16,-56.44C559.04,-47.42 596.85,-33.15 623.71,-23"/>
<polygon fill="midnightblue" stroke="midnightblue" points="625.3,-26.15 633.42,-19.34 622.83,-19.6 625.3,-26.15"/>
</g>
<!-- Node12 -->
<g id="node12" class="node">
<title>Node12</title>
<g id="a_node12"><a xlink:title=" ">
<polygon fill="none" stroke="#bfbfbf" points="696,-0.5 696,-19.5 731,-19.5 731,-0.5 696,-0.5"/>
<text text-anchor="middle" x="713.5" y="-7.5" font-family="Helvetica,sans-Serif" font-size="10.00">map</text>
</a>
</g>
</g>
<!-- Node4&#45;&gt;Node12 -->
<g id="edge13" class="edge">
<title>Node4&#45;&gt;Node12</title>
<path fill="none" stroke="midnightblue" d="M548.35,-56.49C581.67,-48.41 632.86,-35.58 686.21,-19.93"/>
<polygon fill="midnightblue" stroke="midnightblue" points="687.24,-23.27 695.84,-17.08 685.25,-16.56 687.24,-23.27"/>
</g>
<!-- Node13&#45;&gt;Node2 -->
<g id="edge15" class="edge">
<title>Node13&#45;&gt;Node2</title>
<path fill="none" stroke="midnightblue" d="M610.74,-112.14C611.59,-98.28 615.25,-71.47 630.5,-56 632.48,-53.99 698.85,-33.04 739.15,-20.44"/>
<polygon fill="midnightblue" stroke="midnightblue" points="740.28,-23.76 748.78,-17.44 738.19,-17.08 740.28,-23.76"/>
</g>
<!-- Node13&#45;&gt;Node4 -->
<g id="edge17" class="edge">
<title>Node13&#45;&gt;Node4</title>
<path fill="none" stroke="midnightblue" d="M594.75,-112.32C579.18,-103.74 555.12,-90.49 537.04,-80.52"/>
<polygon fill="midnightblue" stroke="midnightblue" points="538.65,-77.42 528.21,-75.65 535.28,-83.55 538.65,-77.42"/>
</g>
<!-- Node14 -->
<g id="node14" class="node">
<title>Node14</title>
<g id="a_node14"><a xlink:title=" ">
<polygon fill="none" stroke="#bfbfbf" points="640,-56.5 640,-75.5 679,-75.5 679,-56.5 640,-56.5"/>
<text text-anchor="middle" x="659.5" y="-63.5" font-family="Helvetica,sans-Serif" font-size="10.00">utility</text>
</a>
</g>
</g>
<!-- Node13&#45;&gt;Node14 -->
<g id="edge16" class="edge">
<title>Node13&#45;&gt;Node14</title>
<path fill="none" stroke="midnightblue" d="M618.59,-112.08C625.66,-104.3 636.09,-92.8 644.65,-83.37"/>
<polygon fill="midnightblue" stroke="midnightblue" points="647.43,-85.51 651.56,-75.75 642.25,-80.8 647.43,-85.51"/>
</g>
<!-- Node16 -->
<g id="node16" class="node">
<title>Node16</title>
<g id="a_node16"><a xlink:title=" ">
<polygon fill="none" stroke="#bfbfbf" points="869.5,-56.5 869.5,-75.5 913.5,-75.5 913.5,-56.5 869.5,-56.5"/>
<text text-anchor="middle" x="891.5" y="-63.5" font-family="Helvetica,sans-Serif" font-size="10.00">SDL.h</text>
</a>
</g>
</g>
<!-- Node15&#45;&gt;Node16 -->
<g id="edge19" class="edge">
<title>Node15&#45;&gt;Node16</title>
<path fill="none" stroke="midnightblue" d="M813.44,-112.32C828.09,-103.82 850.63,-90.73 867.74,-80.8"/>
<polygon fill="midnightblue" stroke="midnightblue" points="869.7,-83.7 876.6,-75.65 866.19,-77.65 869.7,-83.7"/>
</g>
<!-- Node17 -->
<g id="node17" class="node">
<title>Node17</title>
<g id="a_node17"><a xlink:title=" ">
<polygon fill="none" stroke="#bfbfbf" points="739.5,-56.5 739.5,-75.5 851.5,-75.5 851.5,-56.5 739.5,-56.5"/>
<text text-anchor="middle" x="795.5" y="-63.5" font-family="Helvetica,sans-Serif" font-size="10.00">Events/EventsEnum.h</text>
</a>
</g>
</g>
<!-- Node15&#45;&gt;Node17 -->
<g id="edge20" class="edge">
<title>Node15&#45;&gt;Node17</title>
<path fill="none" stroke="midnightblue" d="M798,-112.08C797.61,-105.01 797.05,-94.86 796.55,-85.99"/>
<polygon fill="midnightblue" stroke="midnightblue" points="800.04,-85.54 795.99,-75.75 793.05,-85.93 800.04,-85.54"/>
</g>
</g>
</svg>
