<?xml version="1.0" encoding="UTF-8" standalone="no"?>
<!DOCTYPE svg PUBLIC "-//W3C//DTD SVG 1.1//EN"
 "http://www.w3.org/Graphics/SVG/1.1/DTD/svg11.dtd">
<!-- Generated by graphviz version 2.44.0 ()
 -->
<!-- Title: includes/platformer&#45;engine/Render/Window.hpp Pages: 1 -->
<svg width="1147pt" height="396pt"
 viewBox="0.00 0.00 1147.00 396.00" xmlns="http://www.w3.org/2000/svg" xmlns:xlink="http://www.w3.org/1999/xlink">
<g id="graph0" class="graph" transform="scale(1 1) rotate(0) translate(4 392)">
<title>includes/platformer&#45;engine/Render/Window.hpp</title>
<!-- Node1 -->
<g id="node1" class="node">
<title>Node1</title>
<g id="a_node1"><a xlink:title=" ">
<polygon fill="#bfbfbf" stroke="black" points="507.5,-357.5 507.5,-387.5 644.5,-387.5 644.5,-357.5 507.5,-357.5"/>
<text text-anchor="start" x="515.5" y="-375.5" font-family="Helvetica,sans-Serif" font-size="10.00">includes/platformer</text>
<text text-anchor="middle" x="576" y="-364.5" font-family="Helvetica,sans-Serif" font-size="10.00">&#45;engine/Render/Window.hpp</text>
</a>
</g>
</g>
<!-- Node2 -->
<g id="node2" class="node">
<title>Node2</title>
<g id="a_node2"><a xlink:href="Window_8cpp.html" target="_top" xlink:title=" ">
<polygon fill="none" stroke="black" points="346.5,-296 346.5,-315 465.5,-315 465.5,-296 346.5,-296"/>
<text text-anchor="middle" x="406" y="-303" font-family="Helvetica,sans-Serif" font-size="10.00">src/Render/Window.cpp</text>
</a>
</g>
</g>
<!-- Node1&#45;&gt;Node2 -->
<g id="edge1" class="edge">
<title>Node1&#45;&gt;Node2</title>
<path fill="none" stroke="midnightblue" d="M529.67,-353.78C496.7,-341.18 453.88,-324.81 428.25,-315.01"/>
<polygon fill="midnightblue" stroke="midnightblue" points="528.52,-357.09 539.11,-357.4 531.02,-350.56 528.52,-357.09"/>
</g>
<!-- Node3 -->
<g id="node3" class="node">
<title>Node3</title>
<g id="a_node3"><a xlink:href="Timer_8cpp.html" target="_top" xlink:title=" ">
<polygon fill="none" stroke="black" points="484,-296 484,-315 588,-315 588,-296 484,-296"/>
<text text-anchor="middle" x="536" y="-303" font-family="Helvetica,sans-Serif" font-size="10.00">src/Timer/Timer.cpp</text>
</a>
</g>
</g>
<!-- Node1&#45;&gt;Node3 -->
<g id="edge2" class="edge">
<title>Node1&#45;&gt;Node3</title>
<path fill="none" stroke="midnightblue" d="M561.93,-348.63C554.81,-337.07 546.59,-323.71 541.35,-315.19"/>
<polygon fill="midnightblue" stroke="midnightblue" points="559.1,-350.71 567.32,-357.4 565.06,-347.05 559.1,-350.71"/>
</g>
<!-- Node4 -->
<g id="node4" class="node">
<title>Node4</title>
<g id="a_node4"><a xlink:href="Engine_8hpp.html" target="_top" xlink:title=" ">
<polygon fill="none" stroke="black" points="500.5,-73 500.5,-103 631.5,-103 631.5,-73 500.5,-73"/>
<text text-anchor="start" x="508.5" y="-91" font-family="Helvetica,sans-Serif" font-size="10.00">includes/platformer</text>
<text text-anchor="middle" x="566" y="-80" font-family="Helvetica,sans-Serif" font-size="10.00">&#45;engine/Engine/Engine.hpp</text>
</a>
</g>
</g>
<!-- Node1&#45;&gt;Node4 -->
<g id="edge3" class="edge">
<title>Node1&#45;&gt;Node4</title>
<path fill="none" stroke="midnightblue" d="M587.91,-348.26C591.59,-339.9 595.16,-330.24 597,-321 612.31,-244.29 616.56,-220.74 597,-145 593.05,-129.72 583.95,-114.16 576.62,-103.34"/>
<polygon fill="midnightblue" stroke="midnightblue" points="584.71,-346.85 583.64,-357.39 591.05,-349.82 584.71,-346.85"/>
</g>
<!-- Node12 -->
<g id="node12" class="node">
<title>Node12</title>
<g id="a_node12"><a xlink:href="AnimatedSprite_8hpp.html" target="_top" xlink:title=" ">
<polygon fill="none" stroke="black" points="644.5,-290.5 644.5,-320.5 815.5,-320.5 815.5,-290.5 644.5,-290.5"/>
<text text-anchor="start" x="652.5" y="-308.5" font-family="Helvetica,sans-Serif" font-size="10.00">includes/platformer</text>
<text text-anchor="middle" x="730" y="-297.5" font-family="Helvetica,sans-Serif" font-size="10.00">&#45;engine/Texture/AnimatedSprite.hpp</text>
</a>
</g>
</g>
<!-- Node1&#45;&gt;Node12 -->
<g id="edge11" class="edge">
<title>Node1&#45;&gt;Node12</title>
<path fill="none" stroke="midnightblue" d="M618.87,-353.41C643.45,-343.03 673.86,-330.2 696.65,-320.58"/>
<polygon fill="midnightblue" stroke="midnightblue" points="617.27,-350.28 609.42,-357.4 619.99,-356.73 617.27,-350.28"/>
</g>
<!-- Node5 -->
<g id="node5" class="node">
<title>Node5</title>
<g id="a_node5"><a xlink:href="GameObjectDirector_8cpp.html" target="_top" xlink:title=" ">
<polygon fill="none" stroke="black" points="963,-6 963,-25 1139,-25 1139,-6 963,-6"/>
<text text-anchor="middle" x="1051" y="-13" font-family="Helvetica,sans-Serif" font-size="10.00">src/Director/GameObjectDirector.cpp</text>
</a>
</g>
</g>
<!-- Node4&#45;&gt;Node5 -->
<g id="edge4" class="edge">
<title>Node4&#45;&gt;Node5</title>
<path fill="none" stroke="midnightblue" d="M641.82,-76.17C720.04,-64.97 845.57,-46.93 954,-31 967.06,-29.08 981.1,-27 994.33,-25.02"/>
<polygon fill="midnightblue" stroke="midnightblue" points="640.98,-72.76 631.58,-77.64 641.97,-79.69 640.98,-72.76"/>
</g>
<!-- Node6 -->
<g id="node6" class="node">
<title>Node6</title>
<g id="a_node6"><a xlink:href="Engine_8cpp.html" target="_top" xlink:title=" ">
<polygon fill="none" stroke="black" points="662.5,-6 662.5,-25 775.5,-25 775.5,-6 662.5,-6"/>
<text text-anchor="middle" x="719" y="-13" font-family="Helvetica,sans-Serif" font-size="10.00">src/Engine/Engine.cpp</text>
</a>
</g>
</g>
<!-- Node4&#45;&gt;Node6 -->
<g id="edge5" class="edge">
<title>Node4&#45;&gt;Node6</title>
<path fill="none" stroke="midnightblue" d="M605.72,-68.7C636.27,-54.62 677.11,-35.8 700.48,-25.03"/>
<polygon fill="midnightblue" stroke="midnightblue" points="604.21,-65.54 596.59,-72.9 607.14,-71.9 604.21,-65.54"/>
</g>
<!-- Node7 -->
<g id="node7" class="node">
<title>Node7</title>
<g id="a_node7"><a xlink:href="TMXParser_8cpp.html" target="_top" xlink:title=" ">
<polygon fill="none" stroke="black" points="168,-6 168,-25 304,-25 304,-6 168,-6"/>
<text text-anchor="middle" x="236" y="-13" font-family="Helvetica,sans-Serif" font-size="10.00">src/Facade/TMXParser.cpp</text>
</a>
</g>
</g>
<!-- Node4&#45;&gt;Node7 -->
<g id="edge6" class="edge">
<title>Node4&#45;&gt;Node7</title>
<path fill="none" stroke="midnightblue" d="M490.37,-70.84C423.67,-56.59 329.08,-36.38 276.04,-25.05"/>
<polygon fill="midnightblue" stroke="midnightblue" points="489.9,-74.32 500.41,-72.99 491.36,-67.48 489.9,-74.32"/>
</g>
<!-- Node8 -->
<g id="node8" class="node">
<title>Node8</title>
<g id="a_node8"><a xlink:href="ClientNetworkManager_8cpp.html" target="_top" xlink:title=" ">
<polygon fill="none" stroke="black" points="322.5,-0.5 322.5,-30.5 469.5,-30.5 469.5,-0.5 322.5,-0.5"/>
<text text-anchor="start" x="330.5" y="-18.5" font-family="Helvetica,sans-Serif" font-size="10.00">src/Networking/ClientNetwork</text>
<text text-anchor="middle" x="396" y="-7.5" font-family="Helvetica,sans-Serif" font-size="10.00">Manager.cpp</text>
</a>
</g>
</g>
<!-- Node4&#45;&gt;Node8 -->
<g id="edge7" class="edge">
<title>Node4&#45;&gt;Node8</title>
<path fill="none" stroke="midnightblue" d="M522.59,-69C493.8,-57.06 456.56,-41.61 429.93,-30.57"/>
<polygon fill="midnightblue" stroke="midnightblue" points="521.43,-72.3 532.01,-72.9 524.11,-65.84 521.43,-72.3"/>
</g>
<!-- Node9 -->
<g id="node9" class="node">
<title>Node9</title>
<g id="a_node9"><a xlink:href="ServerNetworkManager_8cpp.html" target="_top" xlink:title=" ">
<polygon fill="none" stroke="black" points="793.5,-0.5 793.5,-30.5 944.5,-30.5 944.5,-0.5 793.5,-0.5"/>
<text text-anchor="start" x="801.5" y="-18.5" font-family="Helvetica,sans-Serif" font-size="10.00">src/Networking/ServerNetwork</text>
<text text-anchor="middle" x="869" y="-7.5" font-family="Helvetica,sans-Serif" font-size="10.00">Manager.cpp</text>
</a>
</g>
</g>
<!-- Node4&#45;&gt;Node9 -->
<g id="edge8" class="edge">
<title>Node4&#45;&gt;Node9</title>
<path fill="none" stroke="midnightblue" d="M636.08,-70.69C688.31,-58.54 758.89,-42.12 808.63,-30.55"/>
<polygon fill="midnightblue" stroke="midnightblue" points="635.17,-67.31 626.23,-72.99 636.76,-74.13 635.17,-67.31"/>
</g>
<!-- Node10 -->
<g id="node10" class="node">
<title>Node10</title>
<g id="a_node10"><a xlink:href="RenderSystem_8cpp.html" target="_top" xlink:title=" ">
<polygon fill="none" stroke="black" points="0,-6 0,-25 150,-25 150,-6 0,-6"/>
<text text-anchor="middle" x="75" y="-13" font-family="Helvetica,sans-Serif" font-size="10.00">src/Texture/RenderSystem.cpp</text>
</a>
</g>
</g>
<!-- Node4&#45;&gt;Node10 -->
<g id="edge9" class="edge">
<title>Node4&#45;&gt;Node10</title>
<path fill="none" stroke="midnightblue" d="M490.39,-77.38C408.58,-66.79 274.36,-48.89 159,-31 147.3,-29.19 134.71,-27.09 122.93,-25.06"/>
<polygon fill="midnightblue" stroke="midnightblue" points="489.98,-80.86 500.34,-78.67 490.87,-73.92 489.98,-80.86"/>
</g>
<!-- Node11 -->
<g id="node11" class="node">
<title>Node11</title>
<g id="a_node11"><a xlink:href="TextureManager_8cpp.html" target="_top" xlink:title=" ">
<polygon fill="none" stroke="black" points="488,-6 488,-25 644,-25 644,-6 488,-6"/>
<text text-anchor="middle" x="566" y="-13" font-family="Helvetica,sans-Serif" font-size="10.00">src/Texture/TextureManager.cpp</text>
</a>
</g>
</g>
<!-- Node4&#45;&gt;Node11 -->
<g id="edge10" class="edge">
<title>Node4&#45;&gt;Node11</title>
<path fill="none" stroke="midnightblue" d="M566,-62.59C566,-49.71 566,-34.7 566,-25.39"/>
<polygon fill="midnightblue" stroke="midnightblue" points="562.5,-62.73 566,-72.73 569.5,-62.73 562.5,-62.73"/>
</g>
<!-- Node13 -->
<g id="node13" class="node">
<title>Node13</title>
<g id="a_node13"><a xlink:href="AnimatedSprite_8cpp.html" target="_top" xlink:title=" ">
<polygon fill="none" stroke="black" points="644.5,-229 644.5,-248 797.5,-248 797.5,-229 644.5,-229"/>
<text text-anchor="middle" x="721" y="-236" font-family="Helvetica,sans-Serif" font-size="10.00">src/Texture/AnimatedSprite.cpp</text>
</a>
</g>
</g>
<!-- Node12&#45;&gt;Node13 -->
<g id="edge12" class="edge">
<title>Node12&#45;&gt;Node13</title>
<path fill="none" stroke="midnightblue" d="M726.64,-280.25C725.09,-269.02 723.34,-256.38 722.2,-248.19"/>
<polygon fill="midnightblue" stroke="midnightblue" points="723.21,-280.97 728.05,-290.4 730.14,-280.01 723.21,-280.97"/>
</g>
<!-- Node14 -->
<g id="node14" class="node">
<title>Node14</title>
<g id="a_node14"><a xlink:href="GameObjectBuilder_8hpp.html" target="_top" xlink:title=" ">
<polygon fill="none" stroke="black" points="782.5,-145.5 782.5,-186.5 921.5,-186.5 921.5,-145.5 782.5,-145.5"/>
<text text-anchor="start" x="790.5" y="-174.5" font-family="Helvetica,sans-Serif" font-size="10.00">includes/platformer</text>
<text text-anchor="start" x="790.5" y="-163.5" font-family="Helvetica,sans-Serif" font-size="10.00">&#45;engine/Builder/GameObject</text>
<text text-anchor="middle" x="852" y="-152.5" font-family="Helvetica,sans-Serif" font-size="10.00">Builder.hpp</text>
</a>
</g>
</g>
<!-- Node12&#45;&gt;Node14 -->
<g id="edge13" class="edge">
<title>Node12&#45;&gt;Node14</title>
<path fill="none" stroke="midnightblue" d="M767.35,-285.33C781.02,-277.03 795.85,-266.37 807,-254 824.99,-234.05 837.92,-205.58 845.18,-186.72"/>
<polygon fill="midnightblue" stroke="midnightblue" points="765.47,-282.38 758.59,-290.44 769,-288.43 765.47,-282.38"/>
</g>
<!-- Node17 -->
<g id="node17" class="node">
<title>Node17</title>
<g id="a_node17"><a xlink:href="ObjectBuilder_8hpp.html" target="_top" xlink:title=" ">
<polygon fill="none" stroke="black" points="854.5,-223.5 854.5,-253.5 1015.5,-253.5 1015.5,-223.5 854.5,-223.5"/>
<text text-anchor="start" x="862.5" y="-241.5" font-family="Helvetica,sans-Serif" font-size="10.00">includes/platformer</text>
<text text-anchor="middle" x="935" y="-230.5" font-family="Helvetica,sans-Serif" font-size="10.00">&#45;engine/Builder/ObjectBuilder.hpp</text>
</a>
</g>
</g>
<!-- Node12&#45;&gt;Node17 -->
<g id="edge18" class="edge">
<title>Node12&#45;&gt;Node17</title>
<path fill="none" stroke="midnightblue" d="M783.79,-287.44C817.02,-276.91 859.15,-263.55 890.5,-253.61"/>
<polygon fill="midnightblue" stroke="midnightblue" points="782.7,-284.12 774.23,-290.48 784.82,-290.79 782.7,-284.12"/>
</g>
<!-- Node18 -->
<g id="node18" class="node">
<title>Node18</title>
<g id="a_node18"><a xlink:href="Animator_8hpp.html" target="_top" xlink:title=" ">
<polygon fill="none" stroke="black" points="481.5,-223.5 481.5,-253.5 584.5,-253.5 584.5,-223.5 481.5,-223.5"/>
<text text-anchor="start" x="489.5" y="-241.5" font-family="Helvetica,sans-Serif" font-size="10.00">includes/spic&#45;prj&#45;api</text>
<text text-anchor="middle" x="533" y="-230.5" font-family="Helvetica,sans-Serif" font-size="10.00">/Animator.hpp</text>
</a>
</g>
</g>
<!-- Node12&#45;&gt;Node18 -->
<g id="edge20" class="edge">
<title>Node12&#45;&gt;Node18</title>
<path fill="none" stroke="midnightblue" d="M677.65,-287.23C645.78,-276.71 605.59,-263.45 575.66,-253.58"/>
<polygon fill="midnightblue" stroke="midnightblue" points="676.66,-290.59 687.25,-290.4 678.85,-283.94 676.66,-290.59"/>
</g>
<!-- Node14&#45;&gt;Node9 -->
<g id="edge15" class="edge">
<title>Node14&#45;&gt;Node9</title>
<path fill="none" stroke="midnightblue" d="M809.02,-139.22C798.96,-130.93 789.56,-120.79 784,-109 776.03,-92.12 774.77,-83.22 784,-67 793.51,-50.29 810.97,-38.54 827.6,-30.6"/>
<polygon fill="midnightblue" stroke="midnightblue" points="807.1,-142.16 817.16,-145.47 811.36,-136.61 807.1,-142.16"/>
</g>
<!-- Node15 -->
<g id="node15" class="node">
<title>Node15</title>
<g id="a_node15"><a xlink:href="GameObjectBuilder_8cpp.html" target="_top" xlink:title=" ">
<polygon fill="none" stroke="black" points="792.5,-78.5 792.5,-97.5 961.5,-97.5 961.5,-78.5 792.5,-78.5"/>
<text text-anchor="middle" x="877" y="-85.5" font-family="Helvetica,sans-Serif" font-size="10.00">src/Builder/GameObjectBuilder.cpp</text>
</a>
</g>
</g>
<!-- Node14&#45;&gt;Node15 -->
<g id="edge14" class="edge">
<title>Node14&#45;&gt;Node15</title>
<path fill="none" stroke="midnightblue" d="M861.59,-135.85C866.09,-122.15 871.14,-106.83 874.19,-97.55"/>
<polygon fill="midnightblue" stroke="midnightblue" points="858.24,-134.84 858.44,-145.43 864.89,-137.02 858.24,-134.84"/>
</g>
<!-- Node16 -->
<g id="node16" class="node">
<title>Node16</title>
<g id="a_node16"><a xlink:href="GameObjectDirector_8hpp.html" target="_top" xlink:title=" ">
<polygon fill="none" stroke="black" points="979.5,-67.5 979.5,-108.5 1122.5,-108.5 1122.5,-67.5 979.5,-67.5"/>
<text text-anchor="start" x="987.5" y="-96.5" font-family="Helvetica,sans-Serif" font-size="10.00">includes/platformer</text>
<text text-anchor="start" x="987.5" y="-85.5" font-family="Helvetica,sans-Serif" font-size="10.00">&#45;engine/Director/GameObject</text>
<text text-anchor="middle" x="1051" y="-74.5" font-family="Helvetica,sans-Serif" font-size="10.00">Director.hpp</text>
</a>
</g>
</g>
<!-- Node14&#45;&gt;Node16 -->
<g id="edge16" class="edge">
<title>Node14&#45;&gt;Node16</title>
<path fill="none" stroke="midnightblue" d="M912.88,-141.75C940.74,-131.11 973.37,-118.65 999.93,-108.51"/>
<polygon fill="midnightblue" stroke="midnightblue" points="911.34,-138.59 903.25,-145.43 913.84,-145.13 911.34,-138.59"/>
</g>
<!-- Node16&#45;&gt;Node5 -->
<g id="edge17" class="edge">
<title>Node16&#45;&gt;Node5</title>
<path fill="none" stroke="midnightblue" d="M1051,-57.1C1051,-45.53 1051,-33.18 1051,-25.17"/>
<polygon fill="midnightblue" stroke="midnightblue" points="1047.5,-57.36 1051,-67.36 1054.5,-57.36 1047.5,-57.36"/>
</g>
<!-- Node17&#45;&gt;Node14 -->
<g id="edge19" class="edge">
<title>Node17&#45;&gt;Node14</title>
<path fill="none" stroke="midnightblue" d="M910.46,-216.66C899.26,-207.15 886.07,-195.94 875.06,-186.59"/>
<polygon fill="midnightblue" stroke="midnightblue" points="908.32,-219.43 918.2,-223.23 912.85,-214.09 908.32,-219.43"/>
</g>
<!-- Node18&#45;&gt;Node14 -->
<g id="edge23" class="edge">
<title>Node18&#45;&gt;Node14</title>
<path fill="none" stroke="midnightblue" d="M594.69,-223.87C648.43,-211.99 726.31,-194.78 782.3,-182.4"/>
<polygon fill="midnightblue" stroke="midnightblue" points="593.62,-220.52 584.61,-226.09 595.13,-227.35 593.62,-220.52"/>
</g>
<!-- Node19 -->
<g id="node19" class="node">
<title>Node19</title>
<g id="a_node19"><a xlink:href="Animator_8cpp.html" target="_top" xlink:title=" ">
<polygon fill="none" stroke="black" points="478,-156.5 478,-175.5 588,-175.5 588,-156.5 478,-156.5"/>
<text text-anchor="middle" x="533" y="-163.5" font-family="Helvetica,sans-Serif" font-size="10.00">src/API/Animator.cpp</text>
</a>
</g>
</g>
<!-- Node18&#45;&gt;Node19 -->
<g id="edge21" class="edge">
<title>Node18&#45;&gt;Node19</title>
<path fill="none" stroke="midnightblue" d="M533,-213.09C533,-200.21 533,-185.2 533,-175.89"/>
<polygon fill="midnightblue" stroke="midnightblue" points="529.5,-213.23 533,-223.23 536.5,-213.23 529.5,-213.23"/>
</g>
<!-- Node20 -->
<g id="node20" class="node">
<title>Node20</title>
<g id="a_node20"><a xlink:href="Scene_8cpp.html" target="_top" xlink:title=" ">
<polygon fill="none" stroke="black" points="164,-156.5 164,-175.5 274,-175.5 274,-156.5 164,-156.5"/>
<text text-anchor="middle" x="219" y="-163.5" font-family="Helvetica,sans-Serif" font-size="10.00">src/Scene/Scene.cpp</text>
</a>
</g>
</g>
<!-- Node18&#45;&gt;Node20 -->
<g id="edge22" class="edge">
<title>Node18&#45;&gt;Node20</title>
<path fill="none" stroke="midnightblue" d="M471.56,-226.92C420.71,-217.73 346.73,-203.35 283,-187 270.15,-183.7 256.05,-179.38 244.36,-175.59"/>
<polygon fill="midnightblue" stroke="midnightblue" points="470.95,-230.37 481.42,-228.69 472.19,-223.48 470.95,-230.37"/>
</g>
<!-- Node21 -->
<g id="node21" class="node">
<title>Node21</title>
<g id="a_node21"><a xlink:href="RenderSystem_8hpp.html" target="_top" xlink:title=" ">
<polygon fill="none" stroke="black" points="292,-151 292,-181 460,-181 460,-151 292,-151"/>
<text text-anchor="start" x="300" y="-169" font-family="Helvetica,sans-Serif" font-size="10.00">includes/platformer</text>
<text text-anchor="middle" x="376" y="-158" font-family="Helvetica,sans-Serif" font-size="10.00">&#45;engine/Texture/RenderSystem.hpp</text>
</a>
</g>
</g>
<!-- Node18&#45;&gt;Node21 -->
<g id="edge24" class="edge">
<title>Node18&#45;&gt;Node21</title>
<path fill="none" stroke="midnightblue" d="M492.22,-219.19C465.72,-207.29 431.71,-192.02 407.34,-181.07"/>
<polygon fill="midnightblue" stroke="midnightblue" points="491.05,-222.5 501.61,-223.4 493.92,-216.11 491.05,-222.5"/>
</g>
<!-- Node21&#45;&gt;Node4 -->
<g id="edge26" class="edge">
<title>Node21&#45;&gt;Node4</title>
<path fill="none" stroke="midnightblue" d="M420.88,-147.05C454.52,-133.59 499.89,-115.44 530.9,-103.04"/>
<polygon fill="midnightblue" stroke="midnightblue" points="419.28,-143.92 411.29,-150.88 421.88,-150.42 419.28,-143.92"/>
</g>
<!-- Node21&#45;&gt;Node10 -->
<g id="edge25" class="edge">
<title>Node21&#45;&gt;Node10</title>
<path fill="none" stroke="midnightblue" d="M338.22,-146.36C272.5,-113.94 139.62,-48.38 92.26,-25.01"/>
<polygon fill="midnightblue" stroke="midnightblue" points="336.89,-149.61 347.41,-150.9 339.99,-143.33 336.89,-149.61"/>
</g>
</g>
</svg>
